<?xml version="1.0" encoding="UTF-8" standalone="no"?>
<!DOCTYPE svg PUBLIC "-//W3C//DTD SVG 1.1//EN"
 "http://www.w3.org/Graphics/SVG/1.1/DTD/svg11.dtd">
<!-- Generated by graphviz version 2.38.0 (20140413.2041)
 -->
<!-- Title: src/engine/AudioMixer.hxx Pages: 1 -->
<svg width="382pt" height="140pt"
 viewBox="0.00 0.00 382.00 140.00" xmlns="http://www.w3.org/2000/svg" xmlns:xlink="http://www.w3.org/1999/xlink">
<g id="graph0" class="graph" transform="scale(1 1) rotate(0) translate(4 136)">
<title>src/engine/AudioMixer.hxx</title>
<!-- Node1 -->
<g id="node1" class="node"><title>Node1</title>
<polygon fill="#bfbfbf" stroke="black" points="69.5,-112.5 69.5,-131.5 209.5,-131.5 209.5,-112.5 69.5,-112.5"/>
<text text-anchor="middle" x="139.5" y="-119.5" font-family="Helvetica,sans-Serif" font-size="10.00">src/engine/AudioMixer.hxx</text>
</g>
<!-- Node2 -->
<g id="node2" class="node"><title>Node2</title>
<polygon fill="none" stroke="#bfbfbf" points="0,-56.5 0,-75.5 47,-75.5 47,-56.5 0,-56.5"/>
<text text-anchor="middle" x="23.5" y="-63.5" font-family="Helvetica,sans-Serif" font-size="10.00">vector</text>
</g>
<!-- Node1&#45;&gt;Node2 -->
<g id="edge1" class="edge"><title>Node1&#45;&gt;Node2</title>
<path fill="none" stroke="midnightblue" d="M121.119,-112.444C102.284,-103.675 72.7688,-89.9355 51.1207,-79.8579"/>
<polygon fill="midnightblue" stroke="midnightblue" points="52.3375,-76.5637 41.7946,-75.5164 49.3833,-82.9098 52.3375,-76.5637"/>
</g>
<!-- Node3 -->
<g id="node3" class="node"><title>Node3</title>
<polygon fill="none" stroke="#bfbfbf" points="65,-56.5 65,-75.5 122,-75.5 122,-56.5 65,-56.5"/>
<text text-anchor="middle" x="93.5" y="-63.5" font-family="Helvetica,sans-Serif" font-size="10.00">memory</text>
</g>
<!-- Node1&#45;&gt;Node3 -->
<g id="edge2" class="edge"><title>Node1&#45;&gt;Node3</title>
<path fill="none" stroke="midnightblue" d="M131.904,-112.083C125.273,-104.298 115.479,-92.8015 107.442,-83.3665"/>
<polygon fill="midnightblue" stroke="midnightblue" points="110.104,-81.0939 100.955,-75.7511 104.775,-85.6332 110.104,-81.0939"/>
</g>
<!-- Node4 -->
<g id="node4" class="node"><title>Node4</title>
<g id="a_node4"><a xlink:href="Music_8hxx.html" target="_top" xlink:title="audio/Music.hxx">
<polygon fill="none" stroke="black" points="140.5,-56.5 140.5,-75.5 232.5,-75.5 232.5,-56.5 140.5,-56.5"/>
<text text-anchor="middle" x="186.5" y="-63.5" font-family="Helvetica,sans-Serif" font-size="10.00">audio/Music.hxx</text>
</a>
</g>
</g>
<!-- Node1&#45;&gt;Node4 -->
<g id="edge3" class="edge"><title>Node1&#45;&gt;Node4</title>
<path fill="none" stroke="midnightblue" d="M147.261,-112.083C154.037,-104.298 164.043,-92.8015 172.255,-83.3665"/>
<polygon fill="midnightblue" stroke="midnightblue" points="174.958,-85.592 178.883,-75.7511 169.678,-80.9963 174.958,-85.592"/>
</g>
<!-- Node7 -->
<g id="node7" class="node"><title>Node7</title>
<g id="a_node7"><a xlink:href="SoundEffect_8hxx.html" target="_top" xlink:title="audio/SoundEffect.hxx">
<polygon fill="none" stroke="black" points="251,-56.5 251,-75.5 374,-75.5 374,-56.5 251,-56.5"/>
<text text-anchor="middle" x="312.5" y="-63.5" font-family="Helvetica,sans-Serif" font-size="10.00">audio/SoundEffect.hxx</text>
</a>
</g>
</g>
<!-- Node1&#45;&gt;Node7 -->
<g id="edge6" class="edge"><title>Node1&#45;&gt;Node7</title>
<path fill="none" stroke="midnightblue" d="M166.912,-112.444C196.269,-103.28 243.019,-88.6876 275.596,-78.5192"/>
<polygon fill="midnightblue" stroke="midnightblue" points="276.713,-81.8371 285.216,-75.5164 274.627,-75.1551 276.713,-81.8371"/>
</g>
<!-- Node5 -->
<g id="node5" class="node"><title>Node5</title>
<polygon fill="none" stroke="#bfbfbf" points="243.5,-0.5 243.5,-19.5 287.5,-19.5 287.5,-0.5 243.5,-0.5"/>
<text text-anchor="middle" x="265.5" y="-7.5" font-family="Helvetica,sans-Serif" font-size="10.00">string</text>
</g>
<!-- Node4&#45;&gt;Node5 -->
<g id="edge4" class="edge"><title>Node4&#45;&gt;Node5</title>
<path fill="none" stroke="midnightblue" d="M199.193,-56.324C211.401,-47.979 230.078,-35.2122 244.503,-25.3524"/>
<polygon fill="midnightblue" stroke="midnightblue" points="246.558,-28.1871 252.839,-19.6545 242.608,-22.4082 246.558,-28.1871"/>
</g>
<!-- Node6 -->
<g id="node6" class="node"><title>Node6</title>
<polygon fill="none" stroke="#bfbfbf" points="148,-0.5 148,-19.5 225,-19.5 225,-0.5 148,-0.5"/>
<text text-anchor="middle" x="186.5" y="-7.5" font-family="Helvetica,sans-Serif" font-size="10.00">SDL_mixer.h</text>
</g>
<!-- Node4&#45;&gt;Node6 -->
<g id="edge5" class="edge"><title>Node4&#45;&gt;Node6</title>
<path fill="none" stroke="midnightblue" d="M186.5,-56.083C186.5,-49.0059 186.5,-38.8611 186.5,-29.9865"/>
<polygon fill="midnightblue" stroke="midnightblue" points="190,-29.751 186.5,-19.7511 183,-29.7511 190,-29.751"/>
</g>
<!-- Node7&#45;&gt;Node5 -->
<g id="edge7" class="edge"><title>Node7&#45;&gt;Node5</title>
<path fill="none" stroke="midnightblue" d="M304.739,-56.083C297.963,-48.2982 287.957,-36.8015 279.745,-27.3665"/>
<polygon fill="midnightblue" stroke="midnightblue" points="282.322,-24.9963 273.117,-19.7511 277.042,-29.592 282.322,-24.9963"/>
</g>
<!-- Node7&#45;&gt;Node6 -->
<g id="edge9" class="edge"><title>Node7&#45;&gt;Node6</title>
<path fill="none" stroke="midnightblue" d="M292.535,-56.4435C271.891,-47.5961 239.437,-33.6875 215.868,-23.5865"/>
<polygon fill="midnightblue" stroke="midnightblue" points="216.942,-20.2387 206.372,-19.5164 214.184,-26.6727 216.942,-20.2387"/>
</g>
<!-- Node8 -->
<g id="node8" class="node"><title>Node8</title>
<polygon fill="none" stroke="#bfbfbf" points="306,-0.5 306,-19.5 351,-19.5 351,-0.5 306,-0.5"/>
<text text-anchor="middle" x="328.5" y="-7.5" font-family="Helvetica,sans-Serif" font-size="10.00">SDL.h</text>
</g>
<!-- Node7&#45;&gt;Node8 -->
<g id="edge8" class="edge"><title>Node7&#45;&gt;Node8</title>
<path fill="none" stroke="midnightblue" d="M315.142,-56.083C317.286,-48.8486 320.379,-38.4087 323.049,-29.3968"/>
<polygon fill="midnightblue" stroke="midnightblue" points="326.422,-30.3334 325.907,-19.7511 319.71,-28.3447 326.422,-30.3334"/>
</g>
</g>
</svg>
