<?xml version="1.0" encoding="UTF-8" standalone="no"?>
<!DOCTYPE svg PUBLIC "-//W3C//DTD SVG 1.1//EN"
 "http://www.w3.org/Graphics/SVG/1.1/DTD/svg11.dtd">
<!-- Generated by graphviz version 2.38.0 (20140413.2041)
 -->
<!-- Title: src/engine/AudioMixer.cxx Pages: 1 -->
<svg width="555pt" height="196pt"
 viewBox="0.00 0.00 554.50 196.00" xmlns="http://www.w3.org/2000/svg" xmlns:xlink="http://www.w3.org/1999/xlink">
<g id="graph0" class="graph" transform="scale(1 1) rotate(0) translate(4 192)">
<title>src/engine/AudioMixer.cxx</title>
<!-- Node1 -->
<g id="node1" class="node"><title>Node1</title>
<polygon fill="#bfbfbf" stroke="black" points="262.5,-168.5 262.5,-187.5 402.5,-187.5 402.5,-168.5 262.5,-168.5"/>
<text text-anchor="middle" x="332.5" y="-175.5" font-family="Helvetica,sans-Serif" font-size="10.00">src/engine/AudioMixer.cxx</text>
</g>
<!-- Node2 -->
<g id="node2" class="node"><title>Node2</title>
<g id="a_node2"><a xlink:href="AudioMixer_8hxx.html" target="_top" xlink:title="AudioMixer.hxx">
<polygon fill="none" stroke="black" points="218.5,-112.5 218.5,-131.5 306.5,-131.5 306.5,-112.5 218.5,-112.5"/>
<text text-anchor="middle" x="262.5" y="-119.5" font-family="Helvetica,sans-Serif" font-size="10.00">AudioMixer.hxx</text>
</a>
</g>
</g>
<!-- Node1&#45;&gt;Node2 -->
<g id="edge1" class="edge"><title>Node1&#45;&gt;Node2</title>
<path fill="none" stroke="midnightblue" d="M321.253,-168.324C310.703,-160.185 294.699,-147.839 282.058,-138.087"/>
<polygon fill="midnightblue" stroke="midnightblue" points="284.007,-135.171 273.951,-131.834 279.731,-140.713 284.007,-135.171"/>
</g>
<!-- Node10 -->
<g id="node10" class="node"><title>Node10</title>
<g id="a_node10"><a xlink:href="Settings_8hxx.html" target="_top" xlink:title="basics/Settings.hxx">
<polygon fill="none" stroke="black" points="348,-112.5 348,-131.5 457,-131.5 457,-112.5 348,-112.5"/>
<text text-anchor="middle" x="402.5" y="-119.5" font-family="Helvetica,sans-Serif" font-size="10.00">basics/Settings.hxx</text>
</a>
</g>
</g>
<!-- Node1&#45;&gt;Node10 -->
<g id="edge11" class="edge"><title>Node1&#45;&gt;Node10</title>
<path fill="none" stroke="midnightblue" d="M343.747,-168.324C354.297,-160.185 370.301,-147.839 382.942,-138.087"/>
<polygon fill="midnightblue" stroke="midnightblue" points="385.269,-140.713 391.049,-131.834 380.993,-135.171 385.269,-140.713"/>
</g>
<!-- Node3 -->
<g id="node3" class="node"><title>Node3</title>
<polygon fill="none" stroke="#bfbfbf" points="327,-56.5 327,-75.5 374,-75.5 374,-56.5 327,-56.5"/>
<text text-anchor="middle" x="350.5" y="-63.5" font-family="Helvetica,sans-Serif" font-size="10.00">vector</text>
</g>
<!-- Node2&#45;&gt;Node3 -->
<g id="edge2" class="edge"><title>Node2&#45;&gt;Node3</title>
<path fill="none" stroke="midnightblue" d="M276.639,-112.324C290.366,-103.9 311.436,-90.9709 327.564,-81.0741"/>
<polygon fill="midnightblue" stroke="midnightblue" points="329.704,-83.8678 336.396,-75.6545 326.043,-77.9016 329.704,-83.8678"/>
</g>
<!-- Node4 -->
<g id="node4" class="node"><title>Node4</title>
<polygon fill="none" stroke="#bfbfbf" points="141,-56.5 141,-75.5 198,-75.5 198,-56.5 141,-56.5"/>
<text text-anchor="middle" x="169.5" y="-63.5" font-family="Helvetica,sans-Serif" font-size="10.00">memory</text>
</g>
<!-- Node2&#45;&gt;Node4 -->
<g id="edge3" class="edge"><title>Node2&#45;&gt;Node4</title>
<path fill="none" stroke="midnightblue" d="M247.558,-112.324C232.915,-103.822 210.366,-90.7288 193.262,-80.7975"/>
<polygon fill="midnightblue" stroke="midnightblue" points="194.81,-77.6491 184.405,-75.6545 191.295,-83.7027 194.81,-77.6491"/>
</g>
<!-- Node5 -->
<g id="node5" class="node"><title>Node5</title>
<g id="a_node5"><a xlink:href="Music_8hxx.html" target="_top" xlink:title="audio/Music.hxx">
<polygon fill="none" stroke="black" points="216.5,-56.5 216.5,-75.5 308.5,-75.5 308.5,-56.5 216.5,-56.5"/>
<text text-anchor="middle" x="262.5" y="-63.5" font-family="Helvetica,sans-Serif" font-size="10.00">audio/Music.hxx</text>
</a>
</g>
</g>
<!-- Node2&#45;&gt;Node5 -->
<g id="edge4" class="edge"><title>Node2&#45;&gt;Node5</title>
<path fill="none" stroke="midnightblue" d="M262.5,-112.083C262.5,-105.006 262.5,-94.8611 262.5,-85.9865"/>
<polygon fill="midnightblue" stroke="midnightblue" points="266,-85.751 262.5,-75.7511 259,-85.7511 266,-85.751"/>
</g>
<!-- Node8 -->
<g id="node8" class="node"><title>Node8</title>
<g id="a_node8"><a xlink:href="SoundEffect_8hxx.html" target="_top" xlink:title="audio/SoundEffect.hxx">
<polygon fill="none" stroke="black" points="0,-56.5 0,-75.5 123,-75.5 123,-56.5 0,-56.5"/>
<text text-anchor="middle" x="61.5" y="-63.5" font-family="Helvetica,sans-Serif" font-size="10.00">audio/SoundEffect.hxx</text>
</a>
</g>
</g>
<!-- Node2&#45;&gt;Node8 -->
<g id="edge7" class="edge"><title>Node2&#45;&gt;Node8</title>
<path fill="none" stroke="midnightblue" d="M230.651,-112.444C196.102,-103.162 140.818,-88.3093 102.917,-78.127"/>
<polygon fill="midnightblue" stroke="midnightblue" points="103.766,-74.7309 93.2,-75.5164 101.949,-81.4912 103.766,-74.7309"/>
</g>
<!-- Node6 -->
<g id="node6" class="node"><title>Node6</title>
<polygon fill="none" stroke="#bfbfbf" points="240.5,-0.5 240.5,-19.5 284.5,-19.5 284.5,-0.5 240.5,-0.5"/>
<text text-anchor="middle" x="262.5" y="-7.5" font-family="Helvetica,sans-Serif" font-size="10.00">string</text>
</g>
<!-- Node5&#45;&gt;Node6 -->
<g id="edge5" class="edge"><title>Node5&#45;&gt;Node6</title>
<path fill="none" stroke="midnightblue" d="M262.5,-56.083C262.5,-49.0059 262.5,-38.8611 262.5,-29.9865"/>
<polygon fill="midnightblue" stroke="midnightblue" points="266,-29.751 262.5,-19.7511 259,-29.7511 266,-29.751"/>
</g>
<!-- Node7 -->
<g id="node7" class="node"><title>Node7</title>
<polygon fill="none" stroke="#bfbfbf" points="124,-0.5 124,-19.5 201,-19.5 201,-0.5 124,-0.5"/>
<text text-anchor="middle" x="162.5" y="-7.5" font-family="Helvetica,sans-Serif" font-size="10.00">SDL_mixer.h</text>
</g>
<!-- Node5&#45;&gt;Node7 -->
<g id="edge6" class="edge"><title>Node5&#45;&gt;Node7</title>
<path fill="none" stroke="midnightblue" d="M246.433,-56.324C230.542,-47.7428 205.993,-34.486 187.542,-24.5224"/>
<polygon fill="midnightblue" stroke="midnightblue" points="188.989,-21.3264 178.527,-19.6545 185.663,-27.4857 188.989,-21.3264"/>
</g>
<!-- Node8&#45;&gt;Node6 -->
<g id="edge8" class="edge"><title>Node8&#45;&gt;Node6</title>
<path fill="none" stroke="midnightblue" d="M93.349,-56.4435C130.888,-46.3584 192.905,-29.6971 230.507,-19.5952"/>
<polygon fill="midnightblue" stroke="midnightblue" points="231.675,-22.9056 240.424,-16.9308 229.859,-16.1453 231.675,-22.9056"/>
</g>
<!-- Node8&#45;&gt;Node7 -->
<g id="edge10" class="edge"><title>Node8&#45;&gt;Node7</title>
<path fill="none" stroke="midnightblue" d="M77.7274,-56.324C93.851,-47.7034 118.8,-34.3643 137.464,-24.3855"/>
<polygon fill="midnightblue" stroke="midnightblue" points="139.144,-27.456 146.313,-19.6545 135.844,-21.283 139.144,-27.456"/>
</g>
<!-- Node9 -->
<g id="node9" class="node"><title>Node9</title>
<polygon fill="none" stroke="#bfbfbf" points="39,-0.5 39,-19.5 84,-19.5 84,-0.5 39,-0.5"/>
<text text-anchor="middle" x="61.5" y="-7.5" font-family="Helvetica,sans-Serif" font-size="10.00">SDL.h</text>
</g>
<!-- Node8&#45;&gt;Node9 -->
<g id="edge9" class="edge"><title>Node8&#45;&gt;Node9</title>
<path fill="none" stroke="midnightblue" d="M61.5,-56.083C61.5,-49.0059 61.5,-38.8611 61.5,-29.9865"/>
<polygon fill="midnightblue" stroke="midnightblue" points="65.0001,-29.751 61.5,-19.7511 58.0001,-29.7511 65.0001,-29.751"/>
</g>
<!-- Node10&#45;&gt;Node6 -->
<g id="edge12" class="edge"><title>Node10&#45;&gt;Node6</title>
<path fill="none" stroke="midnightblue" d="M402.178,-112.221C401.209,-98.4764 397.392,-71.8175 382.5,-56 359.476,-31.5443 321.877,-20.2831 294.9,-15.1592"/>
<polygon fill="midnightblue" stroke="midnightblue" points="295.224,-11.6639 284.777,-13.4266 294.043,-18.5635 295.224,-11.6639"/>
</g>
<!-- Node11 -->
<g id="node11" class="node"><title>Node11</title>
<g id="a_node11"><a xlink:href="Singleton_8hxx.html" target="_top" xlink:title="../../util/Singleton.hxx">
<polygon fill="none" stroke="black" points="430.5,-56.5 430.5,-75.5 546.5,-75.5 546.5,-56.5 430.5,-56.5"/>
<text text-anchor="middle" x="488.5" y="-63.5" font-family="Helvetica,sans-Serif" font-size="10.00">../../util/Singleton.hxx</text>
</a>
</g>
</g>
<!-- Node10&#45;&gt;Node11 -->
<g id="edge13" class="edge"><title>Node10&#45;&gt;Node11</title>
<path fill="none" stroke="midnightblue" d="M416.317,-112.324C429.733,-103.9 450.324,-90.9709 466.086,-81.0741"/>
<polygon fill="midnightblue" stroke="midnightblue" points="468.109,-83.9364 474.717,-75.6545 464.387,-78.0081 468.109,-83.9364"/>
</g>
</g>
</svg>
