<?xml version="1.0" encoding="UTF-8" standalone="no"?>
<!DOCTYPE svg PUBLIC "-//W3C//DTD SVG 1.1//EN"
 "http://www.w3.org/Graphics/SVG/1.1/DTD/svg11.dtd">
<!-- Generated by graphviz version 2.38.0 (20140413.2041)
 -->
<!-- Title: src/engine/ui/widgets/Button.cxx Pages: 1 -->
<svg width="1329pt" height="431pt"
 viewBox="0.00 0.00 1329.00 431.00" xmlns="http://www.w3.org/2000/svg" xmlns:xlink="http://www.w3.org/1999/xlink">
<g id="graph0" class="graph" transform="scale(1 1) rotate(0) translate(4 427)">
<title>src/engine/ui/widgets/Button.cxx</title>
<!-- Node1 -->
<g id="node1" class="node"><title>Node1</title>
<polygon fill="#bfbfbf" stroke="black" points="419,-392.5 419,-422.5 535,-422.5 535,-392.5 419,-392.5"/>
<text text-anchor="start" x="427" y="-410.5" font-family="Helvetica,sans-Serif" font-size="10.00">src/engine/ui/widgets</text>
<text text-anchor="middle" x="477" y="-399.5" font-family="Helvetica,sans-Serif" font-size="10.00">/Button.cxx</text>
</g>
<!-- Node2 -->
<g id="node2" class="node"><title>Node2</title>
<g id="a_node2"><a xlink:href="Button_8hxx.html" target="_top" xlink:title="Button.hxx">
<polygon fill="none" stroke="black" points="405,-336.5 405,-355.5 473,-355.5 473,-336.5 405,-336.5"/>
<text text-anchor="middle" x="439" y="-343.5" font-family="Helvetica,sans-Serif" font-size="10.00">Button.hxx</text>
</a>
</g>
</g>
<!-- Node1&#45;&gt;Node2 -->
<g id="edge1" class="edge"><title>Node1&#45;&gt;Node2</title>
<path fill="none" stroke="midnightblue" d="M467.995,-392.399C462.587,-383.932 455.668,-373.099 449.946,-364.139"/>
<polygon fill="midnightblue" stroke="midnightblue" points="452.862,-362.202 444.529,-355.658 446.962,-365.97 452.862,-362.202"/>
</g>
<!-- Node22 -->
<g id="node22" class="node"><title>Node22</title>
<g id="a_node22"><a xlink:href="LOG_8hxx.html" target="_top" xlink:title="../../basics/LOG.hxx">
<polygon fill="none" stroke="black" points="1034.5,-168.5 1034.5,-187.5 1141.5,-187.5 1141.5,-168.5 1034.5,-168.5"/>
<text text-anchor="middle" x="1088" y="-175.5" font-family="Helvetica,sans-Serif" font-size="10.00">../../basics/LOG.hxx</text>
</a>
</g>
</g>
<!-- Node1&#45;&gt;Node22 -->
<g id="edge34" class="edge"><title>Node1&#45;&gt;Node22</title>
<path fill="none" stroke="midnightblue" d="M514.76,-392.441C626.039,-351.007 951.422,-229.853 1055.55,-191.083"/>
<polygon fill="midnightblue" stroke="midnightblue" points="1056.77,-194.363 1064.92,-187.593 1054.33,-187.803 1056.77,-194.363"/>
</g>
<!-- Node3 -->
<g id="node3" class="node"><title>Node3</title>
<g id="a_node3"><a xlink:href="UIElement_8hxx.html" target="_top" xlink:title="../basics/UIElement.hxx">
<polygon fill="none" stroke="black" points="340,-224.5 340,-243.5 468,-243.5 468,-224.5 340,-224.5"/>
<text text-anchor="middle" x="404" y="-231.5" font-family="Helvetica,sans-Serif" font-size="10.00">../basics/UIElement.hxx</text>
</a>
</g>
</g>
<!-- Node2&#45;&gt;Node3 -->
<g id="edge2" class="edge"><title>Node2&#45;&gt;Node3</title>
<path fill="none" stroke="midnightblue" d="M436.348,-336.148C432.578,-323.621 425.414,-300.014 419,-280 416.169,-271.166 412.925,-261.394 410.18,-253.22"/>
<polygon fill="midnightblue" stroke="midnightblue" points="413.45,-251.963 406.935,-243.607 406.818,-254.201 413.45,-251.963"/>
</g>
<!-- Node21 -->
<g id="node21" class="node"><title>Node21</title>
<g id="a_node21"><a xlink:href="Text_8hxx.html" target="_top" xlink:title="Text.hxx">
<polygon fill="none" stroke="black" points="355.5,-280.5 355.5,-299.5 410.5,-299.5 410.5,-280.5 355.5,-280.5"/>
<text text-anchor="middle" x="383" y="-287.5" font-family="Helvetica,sans-Serif" font-size="10.00">Text.hxx</text>
</a>
</g>
</g>
<!-- Node2&#45;&gt;Node21 -->
<g id="edge31" class="edge"><title>Node2&#45;&gt;Node21</title>
<path fill="none" stroke="midnightblue" d="M430.003,-336.324C421.806,-328.42 409.494,-316.548 399.528,-306.938"/>
<polygon fill="midnightblue" stroke="midnightblue" points="401.789,-304.256 392.161,-299.834 396.93,-309.295 401.789,-304.256"/>
</g>
<!-- Node4 -->
<g id="node4" class="node"><title>Node4</title>
<polygon fill="none" stroke="#bfbfbf" points="233,-0.5 233,-19.5 277,-19.5 277,-0.5 233,-0.5"/>
<text text-anchor="middle" x="255" y="-7.5" font-family="Helvetica,sans-Serif" font-size="10.00">string</text>
</g>
<!-- Node3&#45;&gt;Node4 -->
<g id="edge3" class="edge"><title>Node3&#45;&gt;Node4</title>
<path fill="none" stroke="midnightblue" d="M367.499,-224.427C306.974,-207.894 188.579,-165.083 149,-76 134.042,-42.3338 186.131,-24.6679 222.524,-16.6307"/>
<polygon fill="midnightblue" stroke="midnightblue" points="223.673,-19.9679 232.763,-14.526 222.263,-13.1112 223.673,-19.9679"/>
</g>
<!-- Node5 -->
<g id="node5" class="node"><title>Node5</title>
<g id="a_node5"><a xlink:href="mapEdit_8hxx.html" target="_top" xlink:title="../../basics/mapEdit.hxx">
<polygon fill="none" stroke="black" points="28.5,-168.5 28.5,-187.5 155.5,-187.5 155.5,-168.5 28.5,-168.5"/>
<text text-anchor="middle" x="92" y="-175.5" font-family="Helvetica,sans-Serif" font-size="10.00">../../basics/mapEdit.hxx</text>
</a>
</g>
</g>
<!-- Node3&#45;&gt;Node5 -->
<g id="edge4" class="edge"><title>Node3&#45;&gt;Node5</title>
<path fill="none" stroke="midnightblue" d="M354.563,-224.444C299.336,-214.885 209.979,-199.419 151.105,-189.23"/>
<polygon fill="midnightblue" stroke="midnightblue" points="151.656,-185.773 141.206,-187.516 150.463,-192.671 151.656,-185.773"/>
</g>
<!-- Node6 -->
<g id="node6" class="node"><title>Node6</title>
<g id="a_node6"><a xlink:href="ResourcesManager_8hxx.html" target="_top" xlink:title="../../ResourcesManager.hxx">
<polygon fill="none" stroke="black" points="282,-168.5 282,-187.5 426,-187.5 426,-168.5 282,-168.5"/>
<text text-anchor="middle" x="354" y="-175.5" font-family="Helvetica,sans-Serif" font-size="10.00">../../ResourcesManager.hxx</text>
</a>
</g>
</g>
<!-- Node3&#45;&gt;Node6 -->
<g id="edge6" class="edge"><title>Node3&#45;&gt;Node6</title>
<path fill="none" stroke="midnightblue" d="M395.744,-224.083C388.535,-216.298 377.89,-204.801 369.154,-195.367"/>
<polygon fill="midnightblue" stroke="midnightblue" points="371.465,-192.711 362.103,-187.751 366.329,-197.467 371.465,-192.711"/>
</g>
<!-- Node9 -->
<g id="node9" class="node"><title>Node9</title>
<polygon fill="none" stroke="#bfbfbf" points="572.5,-56.5 572.5,-75.5 617.5,-75.5 617.5,-56.5 572.5,-56.5"/>
<text text-anchor="middle" x="595" y="-63.5" font-family="Helvetica,sans-Serif" font-size="10.00">SDL.h</text>
</g>
<!-- Node3&#45;&gt;Node9 -->
<g id="edge30" class="edge"><title>Node3&#45;&gt;Node9</title>
<path fill="none" stroke="midnightblue" d="M410.552,-224.276C417.102,-215.381 427.282,-201.07 435,-188 454.203,-155.482 444.865,-137.191 473,-112 479.935,-105.79 528.577,-88.9026 562.304,-77.6738"/>
<polygon fill="midnightblue" stroke="midnightblue" points="563.836,-80.8537 572.23,-74.3888 561.636,-74.2082 563.836,-80.8537"/>
</g>
<!-- Node14 -->
<g id="node14" class="node"><title>Node14</title>
<g id="a_node14"><a xlink:href="WindowManager_8hxx.html" target="_top" xlink:title="../../WindowManager.hxx">
<polygon fill="none" stroke="black" points="523.5,-168.5 523.5,-187.5 654.5,-187.5 654.5,-168.5 523.5,-168.5"/>
<text text-anchor="middle" x="589" y="-175.5" font-family="Helvetica,sans-Serif" font-size="10.00">../../WindowManager.hxx</text>
</a>
</g>
</g>
<!-- Node3&#45;&gt;Node14 -->
<g id="edge18" class="edge"><title>Node3&#45;&gt;Node14</title>
<path fill="none" stroke="midnightblue" d="M433.314,-224.444C464.842,-215.241 515.131,-200.562 549.986,-190.388"/>
<polygon fill="midnightblue" stroke="midnightblue" points="551.205,-193.678 559.823,-187.516 549.243,-186.959 551.205,-193.678"/>
</g>
<!-- Node16 -->
<g id="node16" class="node"><title>Node16</title>
<g id="a_node16"><a xlink:href="signal_8hxx.html" target="_top" xlink:title="../../basics/signal.hxx">
<polygon fill="none" stroke="black" points="745.5,-168.5 745.5,-187.5 860.5,-187.5 860.5,-168.5 745.5,-168.5"/>
<text text-anchor="middle" x="803" y="-175.5" font-family="Helvetica,sans-Serif" font-size="10.00">../../basics/signal.hxx</text>
</a>
</g>
</g>
<!-- Node3&#45;&gt;Node16 -->
<g id="edge24" class="edge"><title>Node3&#45;&gt;Node16</title>
<path fill="none" stroke="midnightblue" d="M467.223,-224.444C540.257,-214.559 659.968,-198.358 734.977,-188.206"/>
<polygon fill="midnightblue" stroke="midnightblue" points="735.815,-191.625 745.255,-186.815 734.876,-184.688 735.815,-191.625"/>
</g>
<!-- Node5&#45;&gt;Node4 -->
<g id="edge5" class="edge"><title>Node5&#45;&gt;Node4</title>
<path fill="none" stroke="midnightblue" d="M91.0048,-168.413C88.987,-146.664 86.8286,-88.8104 116,-56 143.029,-25.5998 190.742,-15.6282 222.617,-12.4205"/>
<polygon fill="midnightblue" stroke="midnightblue" points="223.094,-15.893 232.767,-11.5722 222.51,-8.9173 223.094,-15.893"/>
</g>
<!-- Node7 -->
<g id="node7" class="node"><title>Node7</title>
<polygon fill="none" stroke="#bfbfbf" points="482.5,-112.5 482.5,-131.5 541.5,-131.5 541.5,-112.5 482.5,-112.5"/>
<text text-anchor="middle" x="512" y="-119.5" font-family="Helvetica,sans-Serif" font-size="10.00">iostream</text>
</g>
<!-- Node6&#45;&gt;Node7 -->
<g id="edge7" class="edge"><title>Node6&#45;&gt;Node7</title>
<path fill="none" stroke="midnightblue" d="M379.036,-168.444C405.616,-159.359 447.809,-144.939 477.523,-134.783"/>
<polygon fill="midnightblue" stroke="midnightblue" points="478.751,-138.062 487.082,-131.516 476.487,-131.439 478.751,-138.062"/>
</g>
<!-- Node8 -->
<g id="node8" class="node"><title>Node8</title>
<polygon fill="none" stroke="#bfbfbf" points="158.5,-56.5 158.5,-75.5 251.5,-75.5 251.5,-56.5 158.5,-56.5"/>
<text text-anchor="middle" x="205" y="-63.5" font-family="Helvetica,sans-Serif" font-size="10.00">unordered_map</text>
</g>
<!-- Node6&#45;&gt;Node8 -->
<g id="edge8" class="edge"><title>Node6&#45;&gt;Node8</title>
<path fill="none" stroke="midnightblue" d="M339.968,-168.45C325.819,-159.69 303.488,-145.483 285,-132 263.041,-115.985 238.98,-96.0952 223.04,-82.5643"/>
<polygon fill="midnightblue" stroke="midnightblue" points="224.961,-79.602 215.085,-75.7664 220.413,-84.9237 224.961,-79.602"/>
</g>
<!-- Node6&#45;&gt;Node9 -->
<g id="edge9" class="edge"><title>Node6&#45;&gt;Node9</title>
<path fill="none" stroke="midnightblue" d="M363.277,-168.131C378.258,-154.263 409.218,-127.438 440,-112 442.81,-110.591 517.898,-89.0298 562.514,-76.2725"/>
<polygon fill="midnightblue" stroke="midnightblue" points="563.683,-79.5785 572.337,-73.4653 561.76,-72.848 563.683,-79.5785"/>
</g>
<!-- Node10 -->
<g id="node10" class="node"><title>Node10</title>
<g id="a_node10"><a xlink:href="TileManager_8hxx.html" target="_top" xlink:title="TileManager.hxx">
<polygon fill="none" stroke="black" points="294.5,-112.5 294.5,-131.5 387.5,-131.5 387.5,-112.5 294.5,-112.5"/>
<text text-anchor="middle" x="341" y="-119.5" font-family="Helvetica,sans-Serif" font-size="10.00">TileManager.hxx</text>
</a>
</g>
</g>
<!-- Node6&#45;&gt;Node10 -->
<g id="edge10" class="edge"><title>Node6&#45;&gt;Node10</title>
<path fill="none" stroke="midnightblue" d="M351.853,-168.083C350.131,-160.927 347.653,-150.635 345.5,-141.691"/>
<polygon fill="midnightblue" stroke="midnightblue" points="348.85,-140.654 343.107,-131.751 342.045,-142.293 348.85,-140.654"/>
</g>
<!-- Node10&#45;&gt;Node4 -->
<g id="edge13" class="edge"><title>Node10&#45;&gt;Node4</title>
<path fill="none" stroke="midnightblue" d="M369.582,-112.486C401.213,-101.589 445.338,-81.0856 426,-56 409.169,-34.167 331.788,-20.8198 287.102,-14.7978"/>
<polygon fill="midnightblue" stroke="midnightblue" points="287.4,-11.3072 277.033,-13.4901 286.499,-18.2489 287.4,-11.3072"/>
</g>
<!-- Node10&#45;&gt;Node8 -->
<g id="edge12" class="edge"><title>Node10&#45;&gt;Node8</title>
<path fill="none" stroke="midnightblue" d="M319.45,-112.444C296.969,-103.517 261.512,-89.4387 236.02,-79.3168"/>
<polygon fill="midnightblue" stroke="midnightblue" points="237.035,-75.9539 226.449,-75.5164 234.451,-82.4598 237.035,-75.9539"/>
</g>
<!-- Node10&#45;&gt;Node9 -->
<g id="edge11" class="edge"><title>Node10&#45;&gt;Node9</title>
<path fill="none" stroke="midnightblue" d="M387.567,-112.601C430.528,-104.62 496.273,-91.8179 562.549,-75.9618"/>
<polygon fill="midnightblue" stroke="midnightblue" points="563.43,-79.3499 572.329,-73.6004 561.787,-72.5454 563.43,-79.3499"/>
</g>
<!-- Node11 -->
<g id="node11" class="node"><title>Node11</title>
<g id="a_node11"><a xlink:href="tileData_8hxx.html" target="_top" xlink:title="tileData.hxx">
<polygon fill="none" stroke="black" points="343,-56.5 343,-75.5 417,-75.5 417,-56.5 343,-56.5"/>
<text text-anchor="middle" x="380" y="-63.5" font-family="Helvetica,sans-Serif" font-size="10.00">tileData.hxx</text>
</a>
</g>
</g>
<!-- Node10&#45;&gt;Node11 -->
<g id="edge14" class="edge"><title>Node10&#45;&gt;Node11</title>
<path fill="none" stroke="midnightblue" d="M347.44,-112.083C352.949,-104.455 361.031,-93.2645 367.765,-83.9408"/>
<polygon fill="midnightblue" stroke="midnightblue" points="370.662,-85.9071 373.68,-75.7511 364.987,-81.8087 370.662,-85.9071"/>
</g>
<!-- Node12 -->
<g id="node12" class="node"><title>Node12</title>
<polygon fill="none" stroke="#bfbfbf" points="269,-56.5 269,-75.5 325,-75.5 325,-56.5 269,-56.5"/>
<text text-anchor="middle" x="297" y="-63.5" font-family="Helvetica,sans-Serif" font-size="10.00">json.hxx</text>
</g>
<!-- Node10&#45;&gt;Node12 -->
<g id="edge16" class="edge"><title>Node10&#45;&gt;Node12</title>
<path fill="none" stroke="midnightblue" d="M333.734,-112.083C327.455,-104.377 318.212,-93.0333 310.569,-83.6531"/>
<polygon fill="midnightblue" stroke="midnightblue" points="313.161,-81.2926 304.131,-75.7511 307.734,-85.7143 313.161,-81.2926"/>
</g>
<!-- Node13 -->
<g id="node13" class="node"><title>Node13</title>
<g id="a_node13"><a xlink:href="Singleton_8hxx.html" target="_top" xlink:title="Singleton.hxx">
<polygon fill="none" stroke="black" points="473.5,-56.5 473.5,-75.5 554.5,-75.5 554.5,-56.5 473.5,-56.5"/>
<text text-anchor="middle" x="514" y="-63.5" font-family="Helvetica,sans-Serif" font-size="10.00">Singleton.hxx</text>
</a>
</g>
</g>
<!-- Node10&#45;&gt;Node13 -->
<g id="edge17" class="edge"><title>Node10&#45;&gt;Node13</title>
<path fill="none" stroke="midnightblue" d="M368.412,-112.444C397.769,-103.28 444.519,-88.6876 477.096,-78.5192"/>
<polygon fill="midnightblue" stroke="midnightblue" points="478.213,-81.8371 486.716,-75.5164 476.127,-75.1551 478.213,-81.8371"/>
</g>
<!-- Node11&#45;&gt;Node4 -->
<g id="edge15" class="edge"><title>Node11&#45;&gt;Node4</title>
<path fill="none" stroke="midnightblue" d="M360.193,-56.4435C339.713,-47.5961 307.517,-33.6875 284.135,-23.5865"/>
<polygon fill="midnightblue" stroke="midnightblue" points="285.282,-20.2692 274.714,-19.5164 282.506,-26.6953 285.282,-20.2692"/>
</g>
<!-- Node14&#45;&gt;Node4 -->
<g id="edge19" class="edge"><title>Node14&#45;&gt;Node4</title>
<path fill="none" stroke="midnightblue" d="M596.638,-168.203C614.578,-146.462 655.719,-89.5411 626,-56 603.666,-30.7939 373.534,-16.8743 287.35,-12.5134"/>
<polygon fill="midnightblue" stroke="midnightblue" points="287.27,-9.00519 277.109,-12.0061 286.923,-15.9966 287.27,-9.00519"/>
</g>
<!-- Node14&#45;&gt;Node7 -->
<g id="edge20" class="edge"><title>Node14&#45;&gt;Node7</title>
<path fill="none" stroke="midnightblue" d="M576.629,-168.324C564.842,-160.058 546.868,-147.453 532.864,-137.632"/>
<polygon fill="midnightblue" stroke="midnightblue" points="534.538,-134.531 524.341,-131.655 530.518,-140.262 534.538,-134.531"/>
</g>
<!-- Node14&#45;&gt;Node9 -->
<g id="edge22" class="edge"><title>Node14&#45;&gt;Node9</title>
<path fill="none" stroke="midnightblue" d="M589.471,-168.368C590.439,-150.617 592.673,-109.666 593.986,-85.5974"/>
<polygon fill="midnightblue" stroke="midnightblue" points="597.481,-85.7672 594.531,-75.5914 590.492,-85.3859 597.481,-85.7672"/>
</g>
<!-- Node14&#45;&gt;Node13 -->
<g id="edge23" class="edge"><title>Node14&#45;&gt;Node13</title>
<path fill="none" stroke="midnightblue" d="M584.305,-168.358C577.31,-155.683 563.523,-131.449 550,-112 543.217,-102.245 534.981,-91.8578 528.099,-83.5233"/>
<polygon fill="midnightblue" stroke="midnightblue" points="530.642,-81.1084 521.535,-75.6936 525.278,-85.6055 530.642,-81.1084"/>
</g>
<!-- Node15 -->
<g id="node15" class="node"><title>Node15</title>
<polygon fill="none" stroke="#bfbfbf" points="674.5,-112.5 674.5,-131.5 721.5,-131.5 721.5,-112.5 674.5,-112.5"/>
<text text-anchor="middle" x="698" y="-119.5" font-family="Helvetica,sans-Serif" font-size="10.00">vector</text>
</g>
<!-- Node14&#45;&gt;Node15 -->
<g id="edge21" class="edge"><title>Node14&#45;&gt;Node15</title>
<path fill="none" stroke="midnightblue" d="M606.513,-168.324C624.072,-159.625 651.331,-146.12 671.531,-136.113"/>
<polygon fill="midnightblue" stroke="midnightblue" points="673.124,-139.23 680.531,-131.655 670.016,-132.958 673.124,-139.23"/>
</g>
<!-- Node16&#45;&gt;Node15 -->
<g id="edge28" class="edge"><title>Node16&#45;&gt;Node15</title>
<path fill="none" stroke="midnightblue" d="M786.13,-168.324C769.291,-159.664 743.193,-146.242 723.762,-136.249"/>
<polygon fill="midnightblue" stroke="midnightblue" points="725.322,-133.116 714.828,-131.655 722.12,-139.341 725.322,-133.116"/>
</g>
<!-- Node17 -->
<g id="node17" class="node"><title>Node17</title>
<polygon fill="none" stroke="#bfbfbf" points="949.5,-112.5 949.5,-131.5 1006.5,-131.5 1006.5,-112.5 949.5,-112.5"/>
<text text-anchor="middle" x="978" y="-119.5" font-family="Helvetica,sans-Serif" font-size="10.00">memory</text>
</g>
<!-- Node16&#45;&gt;Node17 -->
<g id="edge25" class="edge"><title>Node16&#45;&gt;Node17</title>
<path fill="none" stroke="midnightblue" d="M830.729,-168.444C860.426,-159.28 907.716,-144.688 940.669,-134.519"/>
<polygon fill="midnightblue" stroke="midnightblue" points="941.877,-137.809 950.4,-131.516 939.813,-131.121 941.877,-137.809"/>
</g>
<!-- Node18 -->
<g id="node18" class="node"><title>Node18</title>
<polygon fill="none" stroke="#bfbfbf" points="739.5,-112.5 739.5,-131.5 802.5,-131.5 802.5,-112.5 739.5,-112.5"/>
<text text-anchor="middle" x="771" y="-119.5" font-family="Helvetica,sans-Serif" font-size="10.00">functional</text>
</g>
<!-- Node16&#45;&gt;Node18 -->
<g id="edge26" class="edge"><title>Node16&#45;&gt;Node18</title>
<path fill="none" stroke="midnightblue" d="M797.716,-168.083C793.289,-160.613 786.837,-149.724 781.382,-140.52"/>
<polygon fill="midnightblue" stroke="midnightblue" points="784.295,-138.57 776.186,-131.751 778.273,-142.138 784.295,-138.57"/>
</g>
<!-- Node19 -->
<g id="node19" class="node"><title>Node19</title>
<polygon fill="none" stroke="#bfbfbf" points="821,-112.5 821,-131.5 851,-131.5 851,-112.5 821,-112.5"/>
<text text-anchor="middle" x="836" y="-119.5" font-family="Helvetica,sans-Serif" font-size="10.00">list</text>
</g>
<!-- Node16&#45;&gt;Node19 -->
<g id="edge27" class="edge"><title>Node16&#45;&gt;Node19</title>
<path fill="none" stroke="midnightblue" d="M808.449,-168.083C813.014,-160.613 819.668,-149.724 825.293,-140.52"/>
<polygon fill="midnightblue" stroke="midnightblue" points="828.424,-142.109 830.652,-131.751 822.451,-138.459 828.424,-142.109"/>
</g>
<!-- Node20 -->
<g id="node20" class="node"><title>Node20</title>
<polygon fill="none" stroke="#bfbfbf" points="869,-112.5 869,-131.5 931,-131.5 931,-112.5 869,-112.5"/>
<text text-anchor="middle" x="900" y="-119.5" font-family="Helvetica,sans-Serif" font-size="10.00">algorithm</text>
</g>
<!-- Node16&#45;&gt;Node20 -->
<g id="edge29" class="edge"><title>Node16&#45;&gt;Node20</title>
<path fill="none" stroke="midnightblue" d="M818.585,-168.324C833.999,-159.743 857.812,-146.486 875.71,-136.522"/>
<polygon fill="midnightblue" stroke="midnightblue" points="877.419,-139.577 884.454,-131.655 874.014,-133.461 877.419,-139.577"/>
</g>
<!-- Node21&#45;&gt;Node3 -->
<g id="edge33" class="edge"><title>Node21&#45;&gt;Node3</title>
<path fill="none" stroke="midnightblue" d="M386.468,-280.083C389.312,-272.77 393.429,-262.181 396.96,-253.103"/>
<polygon fill="midnightblue" stroke="midnightblue" points="400.234,-254.34 400.597,-243.751 393.71,-251.803 400.234,-254.34"/>
</g>
<!-- Node21&#45;&gt;Node4 -->
<g id="edge32" class="edge"><title>Node21&#45;&gt;Node4</title>
<path fill="none" stroke="midnightblue" d="M355.456,-287.066C267.637,-280.156 0,-253.024 0,-179 0,-179 0,-179 0,-121 0,-25.1206 153.872,-11.8235 222.561,-10.6641"/>
<polygon fill="midnightblue" stroke="midnightblue" points="222.849,-14.1618 232.817,-10.5715 222.785,-7.16206 222.849,-14.1618"/>
</g>
<!-- Node22&#45;&gt;Node7 -->
<g id="edge35" class="edge"><title>Node22&#45;&gt;Node7</title>
<path fill="none" stroke="midnightblue" d="M1034.33,-171.968C919.556,-161.208 652.52,-136.174 551.59,-126.712"/>
<polygon fill="midnightblue" stroke="midnightblue" points="551.796,-123.216 541.513,-125.767 551.142,-130.185 551.796,-123.216"/>
</g>
<!-- Node22&#45;&gt;Node9 -->
<g id="edge40" class="edge"><title>Node22&#45;&gt;Node9</title>
<path fill="none" stroke="midnightblue" d="M1081.58,-168.413C1070.18,-153.92 1044.9,-124.922 1016,-112 946.508,-80.9322 713.902,-70.6801 627.594,-67.8975"/>
<polygon fill="midnightblue" stroke="midnightblue" points="627.684,-64.3987 617.581,-67.5873 627.467,-71.3953 627.684,-64.3987"/>
</g>
<!-- Node23 -->
<g id="node23" class="node"><title>Node23</title>
<polygon fill="none" stroke="#bfbfbf" points="1063,-112.5 1063,-131.5 1113,-131.5 1113,-112.5 1063,-112.5"/>
<text text-anchor="middle" x="1088" y="-119.5" font-family="Helvetica,sans-Serif" font-size="10.00">chrono</text>
</g>
<!-- Node22&#45;&gt;Node23 -->
<g id="edge36" class="edge"><title>Node22&#45;&gt;Node23</title>
<path fill="none" stroke="midnightblue" d="M1088,-168.083C1088,-161.006 1088,-150.861 1088,-141.986"/>
<polygon fill="midnightblue" stroke="midnightblue" points="1091.5,-141.751 1088,-131.751 1084.5,-141.751 1091.5,-141.751"/>
</g>
<!-- Node24 -->
<g id="node24" class="node"><title>Node24</title>
<polygon fill="none" stroke="#bfbfbf" points="1131,-112.5 1131,-131.5 1175,-131.5 1175,-112.5 1131,-112.5"/>
<text text-anchor="middle" x="1153" y="-119.5" font-family="Helvetica,sans-Serif" font-size="10.00">ctime</text>
</g>
<!-- Node22&#45;&gt;Node24 -->
<g id="edge37" class="edge"><title>Node22&#45;&gt;Node24</title>
<path fill="none" stroke="midnightblue" d="M1098.44,-168.324C1108.15,-160.263 1122.82,-148.077 1134.5,-138.369"/>
<polygon fill="midnightblue" stroke="midnightblue" points="1136.91,-140.916 1142.37,-131.834 1132.44,-135.532 1136.91,-140.916"/>
</g>
<!-- Node25 -->
<g id="node25" class="node"><title>Node25</title>
<polygon fill="none" stroke="#bfbfbf" points="1193,-112.5 1193,-131.5 1247,-131.5 1247,-112.5 1193,-112.5"/>
<text text-anchor="middle" x="1220" y="-119.5" font-family="Helvetica,sans-Serif" font-size="10.00">fstream</text>
</g>
<!-- Node22&#45;&gt;Node25 -->
<g id="edge38" class="edge"><title>Node22&#45;&gt;Node25</title>
<path fill="none" stroke="midnightblue" d="M1108.92,-168.444C1130.74,-159.517 1165.15,-145.439 1189.89,-135.317"/>
<polygon fill="midnightblue" stroke="midnightblue" points="1191.25,-138.542 1199.18,-131.516 1188.6,-132.063 1191.25,-138.542"/>
</g>
<!-- Node26 -->
<g id="node26" class="node"><title>Node26</title>
<polygon fill="none" stroke="#bfbfbf" points="1265,-112.5 1265,-131.5 1321,-131.5 1321,-112.5 1265,-112.5"/>
<text text-anchor="middle" x="1293" y="-119.5" font-family="Helvetica,sans-Serif" font-size="10.00">sstream</text>
</g>
<!-- Node22&#45;&gt;Node26 -->
<g id="edge39" class="edge"><title>Node22&#45;&gt;Node26</title>
<path fill="none" stroke="midnightblue" d="M1120.48,-168.444C1157.07,-158.807 1216.45,-143.165 1255.11,-132.98"/>
<polygon fill="midnightblue" stroke="midnightblue" points="1256.17,-136.32 1264.95,-130.388 1254.39,-129.551 1256.17,-136.32"/>
</g>
</g>
</svg>
