<?xml version="1.0" encoding="UTF-8" standalone="no"?>
<!DOCTYPE svg PUBLIC "-//W3C//DTD SVG 1.1//EN"
 "http://www.w3.org/Graphics/SVG/1.1/DTD/svg11.dtd">
<!-- Generated by graphviz version 2.38.0 (20140413.2041)
 -->
<!-- Title: src/engine/ui/basics/ButtonGroup.hxx Pages: 1 -->
<svg width="966pt" height="240pt"
 viewBox="0.00 0.00 966.00 240.00" xmlns="http://www.w3.org/2000/svg" xmlns:xlink="http://www.w3.org/1999/xlink">
<g id="graph0" class="graph" transform="scale(1 1) rotate(0) translate(4 236)">
<title>src/engine/ui/basics/ButtonGroup.hxx</title>
<!-- Node1 -->
<g id="node1" class="node"><title>Node1</title>
<polygon fill="#bfbfbf" stroke="black" points="686.5,-201.5 686.5,-231.5 796.5,-231.5 796.5,-201.5 686.5,-201.5"/>
<text text-anchor="start" x="694.5" y="-219.5" font-family="Helvetica,sans-Serif" font-size="10.00">src/engine/ui/basics</text>
<text text-anchor="middle" x="741.5" y="-208.5" font-family="Helvetica,sans-Serif" font-size="10.00">/ButtonGroup.hxx</text>
</g>
<!-- Node2 -->
<g id="node2" class="node"><title>Node2</title>
<g id="a_node2"><a xlink:href="UIManager_8hxx.html" target="_top" xlink:title="src/engine/UIManager.hxx">
<polygon fill="none" stroke="black" points="456.5,-140 456.5,-159 596.5,-159 596.5,-140 456.5,-140"/>
<text text-anchor="middle" x="526.5" y="-147" font-family="Helvetica,sans-Serif" font-size="10.00">src/engine/UIManager.hxx</text>
</a>
</g>
</g>
<!-- Node1&#45;&gt;Node2 -->
<g id="edge1" class="edge"><title>Node1&#45;&gt;Node2</title>
<path fill="none" stroke="midnightblue" d="M685.303,-198.51C643.344,-185.825 587.765,-169.022 554.71,-159.029"/>
<polygon fill="midnightblue" stroke="midnightblue" points="684.528,-201.932 695.113,-201.476 686.554,-195.232 684.528,-201.932"/>
</g>
<!-- Node7 -->
<g id="node7" class="node"><title>Node7</title>
<g id="a_node7"><a xlink:href="ButtonGroup_8cxx.html" target="_top" xlink:title="src/engine/ui/basics\l/ButtonGroup.cxx">
<polygon fill="none" stroke="black" points="686.5,-67.5 686.5,-97.5 796.5,-97.5 796.5,-67.5 686.5,-67.5"/>
<text text-anchor="start" x="694.5" y="-85.5" font-family="Helvetica,sans-Serif" font-size="10.00">src/engine/ui/basics</text>
<text text-anchor="middle" x="741.5" y="-74.5" font-family="Helvetica,sans-Serif" font-size="10.00">/ButtonGroup.cxx</text>
</a>
</g>
</g>
<!-- Node1&#45;&gt;Node7 -->
<g id="edge10" class="edge"><title>Node1&#45;&gt;Node7</title>
<path fill="none" stroke="midnightblue" d="M741.5,-191.024C741.5,-163.512 741.5,-119.789 741.5,-97.5247"/>
<polygon fill="midnightblue" stroke="midnightblue" points="738,-191.374 741.5,-201.374 745,-191.374 738,-191.374"/>
</g>
<!-- Node10 -->
<g id="node10" class="node"><title>Node10</title>
<g id="a_node10"><a xlink:href="IMenuGroup_8hxx.html" target="_top" xlink:title="src/engine/ui/menuGroups\l/IMenuGroup.hxx">
<polygon fill="none" stroke="black" points="792,-134.5 792,-164.5 935,-164.5 935,-134.5 792,-134.5"/>
<text text-anchor="start" x="800" y="-152.5" font-family="Helvetica,sans-Serif" font-size="10.00">src/engine/ui/menuGroups</text>
<text text-anchor="middle" x="863.5" y="-141.5" font-family="Helvetica,sans-Serif" font-size="10.00">/IMenuGroup.hxx</text>
</a>
</g>
</g>
<!-- Node1&#45;&gt;Node10 -->
<g id="edge11" class="edge"><title>Node1&#45;&gt;Node10</title>
<path fill="none" stroke="midnightblue" d="M777.021,-196.575C796.212,-186.35 819.505,-173.94 837.079,-164.577"/>
<polygon fill="midnightblue" stroke="midnightblue" points="775.152,-193.605 767.972,-201.396 778.443,-199.783 775.152,-193.605"/>
</g>
<!-- Node3 -->
<g id="node3" class="node"><title>Node3</title>
<g id="a_node3"><a xlink:href="EventManager_8hxx.html" target="_top" xlink:title="src/engine/EventManager.hxx">
<polygon fill="none" stroke="black" points="172,-73 172,-92 329,-92 329,-73 172,-73"/>
<text text-anchor="middle" x="250.5" y="-80" font-family="Helvetica,sans-Serif" font-size="10.00">src/engine/EventManager.hxx</text>
</a>
</g>
</g>
<!-- Node2&#45;&gt;Node3 -->
<g id="edge2" class="edge"><title>Node2&#45;&gt;Node3</title>
<path fill="none" stroke="midnightblue" d="M480.065,-137.564C425.653,-124.75 336.632,-103.785 286.947,-92.0834"/>
<polygon fill="midnightblue" stroke="midnightblue" points="479.598,-141.05 490.134,-139.936 481.203,-134.236 479.598,-141.05"/>
</g>
<!-- Node6 -->
<g id="node6" class="node"><title>Node6</title>
<g id="a_node6"><a xlink:href="Game_8cxx.html" target="_top" xlink:title="src/Game.cxx">
<polygon fill="none" stroke="black" points="339.5,-6 339.5,-25 421.5,-25 421.5,-6 339.5,-6"/>
<text text-anchor="middle" x="380.5" y="-13" font-family="Helvetica,sans-Serif" font-size="10.00">src/Game.cxx</text>
</a>
</g>
</g>
<!-- Node2&#45;&gt;Node6 -->
<g id="edge9" class="edge"><title>Node2&#45;&gt;Node6</title>
<path fill="none" stroke="midnightblue" d="M455.658,-137.217C431.85,-129.905 407.344,-117.856 391.5,-98 374.402,-76.5728 376.763,-41.4426 379.013,-25.2168"/>
<polygon fill="midnightblue" stroke="midnightblue" points="454.859,-140.628 465.434,-139.977 456.761,-133.892 454.859,-140.628"/>
</g>
<!-- Node2&#45;&gt;Node7 -->
<g id="edge6" class="edge"><title>Node2&#45;&gt;Node7</title>
<path fill="none" stroke="midnightblue" d="M564.815,-136.917C601.27,-125.895 656.182,-109.294 695.099,-97.5281"/>
<polygon fill="midnightblue" stroke="midnightblue" points="563.61,-133.624 555.05,-139.869 565.635,-140.325 563.61,-133.624"/>
</g>
<!-- Node8 -->
<g id="node8" class="node"><title>Node8</title>
<g id="a_node8"><a xlink:href="Layout_8cxx.html" target="_top" xlink:title="src/engine/ui/basics\l/Layout.cxx">
<polygon fill="none" stroke="black" points="400.5,-67.5 400.5,-97.5 510.5,-97.5 510.5,-67.5 400.5,-67.5"/>
<text text-anchor="start" x="408.5" y="-85.5" font-family="Helvetica,sans-Serif" font-size="10.00">src/engine/ui/basics</text>
<text text-anchor="middle" x="455.5" y="-74.5" font-family="Helvetica,sans-Serif" font-size="10.00">/Layout.cxx</text>
</a>
</g>
</g>
<!-- Node2&#45;&gt;Node8 -->
<g id="edge7" class="edge"><title>Node2&#45;&gt;Node8</title>
<path fill="none" stroke="midnightblue" d="M509.491,-132.928C497.749,-122.179 482.264,-108.002 470.89,-97.589"/>
<polygon fill="midnightblue" stroke="midnightblue" points="507.185,-135.563 516.925,-139.734 511.912,-130.4 507.185,-135.563"/>
</g>
<!-- Node9 -->
<g id="node9" class="node"><title>Node9</title>
<g id="a_node9"><a xlink:href="UIManager_8cxx.html" target="_top" xlink:title="src/engine/UIManager.cxx">
<polygon fill="none" stroke="black" points="529,-73 529,-92 668,-92 668,-73 529,-73"/>
<text text-anchor="middle" x="598.5" y="-80" font-family="Helvetica,sans-Serif" font-size="10.00">src/engine/UIManager.cxx</text>
</a>
</g>
</g>
<!-- Node2&#45;&gt;Node9 -->
<g id="edge8" class="edge"><title>Node2&#45;&gt;Node9</title>
<path fill="none" stroke="midnightblue" d="M543.828,-132.856C557.983,-120.078 577.463,-102.492 588.944,-92.1273"/>
<polygon fill="midnightblue" stroke="midnightblue" points="541.288,-130.435 536.21,-139.734 545.978,-135.631 541.288,-130.435"/>
</g>
<!-- Node4 -->
<g id="node4" class="node"><title>Node4</title>
<g id="a_node4"><a xlink:href="Timer_8cxx.html" target="_top" xlink:title="src/engine/basics/Timer.cxx">
<polygon fill="none" stroke="black" points="0,-6 0,-25 147,-25 147,-6 0,-6"/>
<text text-anchor="middle" x="73.5" y="-13" font-family="Helvetica,sans-Serif" font-size="10.00">src/engine/basics/Timer.cxx</text>
</a>
</g>
</g>
<!-- Node3&#45;&gt;Node4 -->
<g id="edge3" class="edge"><title>Node3&#45;&gt;Node4</title>
<path fill="none" stroke="midnightblue" d="M217.199,-69.2706C182.069,-56.3699 127.623,-36.3757 96.8195,-25.0637"/>
<polygon fill="midnightblue" stroke="midnightblue" points="216.402,-72.7067 226.996,-72.8685 218.815,-66.1357 216.402,-72.7067"/>
</g>
<!-- Node5 -->
<g id="node5" class="node"><title>Node5</title>
<g id="a_node5"><a xlink:href="EventManager_8cxx.html" target="_top" xlink:title="src/engine/EventManager.cxx">
<polygon fill="none" stroke="black" points="165.5,-6 165.5,-25 321.5,-25 321.5,-6 165.5,-6"/>
<text text-anchor="middle" x="243.5" y="-13" font-family="Helvetica,sans-Serif" font-size="10.00">src/engine/EventManager.cxx</text>
</a>
</g>
</g>
<!-- Node3&#45;&gt;Node5 -->
<g id="edge4" class="edge"><title>Node3&#45;&gt;Node5</title>
<path fill="none" stroke="midnightblue" d="M248.458,-62.537C247.126,-50.1703 245.451,-34.6198 244.429,-25.1273"/>
<polygon fill="midnightblue" stroke="midnightblue" points="245.005,-63.1661 249.556,-72.7338 251.965,-62.4165 245.005,-63.1661"/>
</g>
<!-- Node3&#45;&gt;Node6 -->
<g id="edge5" class="edge"><title>Node3&#45;&gt;Node6</title>
<path fill="none" stroke="midnightblue" d="M276.952,-68.2739C302.7,-55.3999 341.083,-36.2086 363.166,-25.1672"/>
<polygon fill="midnightblue" stroke="midnightblue" points="275.142,-65.2658 267.763,-72.8685 278.273,-71.5268 275.142,-65.2658"/>
</g>
<!-- Node11 -->
<g id="node11" class="node"><title>Node11</title>
<g id="a_node11"><a xlink:href="MenuGroupBuild_8hxx.html" target="_top" xlink:title="src/engine/ui/menuGroups\l/MenuGroupBuild.hxx">
<polygon fill="none" stroke="black" points="815,-67.5 815,-97.5 958,-97.5 958,-67.5 815,-67.5"/>
<text text-anchor="start" x="823" y="-85.5" font-family="Helvetica,sans-Serif" font-size="10.00">src/engine/ui/menuGroups</text>
<text text-anchor="middle" x="886.5" y="-74.5" font-family="Helvetica,sans-Serif" font-size="10.00">/MenuGroupBuild.hxx</text>
</a>
</g>
</g>
<!-- Node10&#45;&gt;Node11 -->
<g id="edge12" class="edge"><title>Node10&#45;&gt;Node11</title>
<path fill="none" stroke="midnightblue" d="M871.923,-124.697C875.146,-115.587 878.718,-105.493 881.519,-97.5765"/>
<polygon fill="midnightblue" stroke="midnightblue" points="868.527,-123.801 868.491,-134.396 875.126,-126.136 868.527,-123.801"/>
</g>
<!-- Node12 -->
<g id="node12" class="node"><title>Node12</title>
<g id="a_node12"><a xlink:href="MenuGroupBuild_8cxx.html" target="_top" xlink:title="src/engine/ui/menuGroups\l/MenuGroupBuild.cxx">
<polygon fill="none" stroke="black" points="815,-0.5 815,-30.5 958,-30.5 958,-0.5 815,-0.5"/>
<text text-anchor="start" x="823" y="-18.5" font-family="Helvetica,sans-Serif" font-size="10.00">src/engine/ui/menuGroups</text>
<text text-anchor="middle" x="886.5" y="-7.5" font-family="Helvetica,sans-Serif" font-size="10.00">/MenuGroupBuild.cxx</text>
</a>
</g>
</g>
<!-- Node11&#45;&gt;Node12 -->
<g id="edge13" class="edge"><title>Node11&#45;&gt;Node12</title>
<path fill="none" stroke="midnightblue" d="M886.5,-57.1081C886.5,-48.1539 886.5,-38.3227 886.5,-30.5765"/>
<polygon fill="midnightblue" stroke="midnightblue" points="883,-57.3959 886.5,-67.396 890,-57.396 883,-57.3959"/>
</g>
</g>
</svg>
