<?xml version="1.0" encoding="UTF-8" standalone="no"?>
<!DOCTYPE svg PUBLIC "-//W3C//DTD SVG 1.1//EN"
 "http://www.w3.org/Graphics/SVG/1.1/DTD/svg11.dtd">
<!-- Generated by graphviz version 2.38.0 (20140413.2041)
 -->
<!-- Title: src/engine/ui/widgets/Button.hxx Pages: 1 -->
<svg width="966pt" height="307pt"
 viewBox="0.00 0.00 966.00 307.00" xmlns="http://www.w3.org/2000/svg" xmlns:xlink="http://www.w3.org/1999/xlink">
<g id="graph0" class="graph" transform="scale(1 1) rotate(0) translate(4 303)">
<title>src/engine/ui/widgets/Button.hxx</title>
<!-- Node1 -->
<g id="node1" class="node"><title>Node1</title>
<polygon fill="#bfbfbf" stroke="black" points="650.5,-268.5 650.5,-298.5 766.5,-298.5 766.5,-268.5 650.5,-268.5"/>
<text text-anchor="start" x="658.5" y="-286.5" font-family="Helvetica,sans-Serif" font-size="10.00">src/engine/ui/widgets</text>
<text text-anchor="middle" x="708.5" y="-275.5" font-family="Helvetica,sans-Serif" font-size="10.00">/Button.hxx</text>
</g>
<!-- Node2 -->
<g id="node2" class="node"><title>Node2</title>
<g id="a_node2"><a xlink:href="ButtonGroup_8hxx.html" target="_top" xlink:title="src/engine/ui/basics\l/ButtonGroup.hxx">
<polygon fill="none" stroke="black" points="653.5,-201.5 653.5,-231.5 763.5,-231.5 763.5,-201.5 653.5,-201.5"/>
<text text-anchor="start" x="661.5" y="-219.5" font-family="Helvetica,sans-Serif" font-size="10.00">src/engine/ui/basics</text>
<text text-anchor="middle" x="708.5" y="-208.5" font-family="Helvetica,sans-Serif" font-size="10.00">/ButtonGroup.hxx</text>
</a>
</g>
</g>
<!-- Node1&#45;&gt;Node2 -->
<g id="edge1" class="edge"><title>Node1&#45;&gt;Node2</title>
<path fill="none" stroke="midnightblue" d="M708.5,-258.108C708.5,-249.154 708.5,-239.323 708.5,-231.577"/>
<polygon fill="midnightblue" stroke="midnightblue" points="705,-258.396 708.5,-268.396 712,-258.396 705,-258.396"/>
</g>
<!-- Node3 -->
<g id="node3" class="node"><title>Node3</title>
<g id="a_node3"><a xlink:href="UIManager_8hxx.html" target="_top" xlink:title="src/engine/UIManager.hxx">
<polygon fill="none" stroke="black" points="528.5,-140 528.5,-159 668.5,-159 668.5,-140 528.5,-140"/>
<text text-anchor="middle" x="598.5" y="-147" font-family="Helvetica,sans-Serif" font-size="10.00">src/engine/UIManager.hxx</text>
</a>
</g>
</g>
<!-- Node1&#45;&gt;Node3 -->
<g id="edge15" class="edge"><title>Node1&#45;&gt;Node3</title>
<path fill="none" stroke="midnightblue" d="M678.12,-262.343C666.716,-253.848 654.185,-243.307 644.5,-232 624.312,-208.432 608.642,-174.664 601.986,-159.036"/>
<polygon fill="midnightblue" stroke="midnightblue" points="676.395,-265.414 686.554,-268.42 680.487,-259.735 676.395,-265.414"/>
</g>
<!-- Node14 -->
<g id="node14" class="node"><title>Node14</title>
<g id="a_node14"><a xlink:href="Button_8cxx.html" target="_top" xlink:title="src/engine/ui/widgets\l/Button.cxx">
<polygon fill="none" stroke="black" points="781.5,-201.5 781.5,-231.5 897.5,-231.5 897.5,-201.5 781.5,-201.5"/>
<text text-anchor="start" x="789.5" y="-219.5" font-family="Helvetica,sans-Serif" font-size="10.00">src/engine/ui/widgets</text>
<text text-anchor="middle" x="839.5" y="-208.5" font-family="Helvetica,sans-Serif" font-size="10.00">/Button.cxx</text>
</a>
</g>
</g>
<!-- Node1&#45;&gt;Node14 -->
<g id="edge16" class="edge"><title>Node1&#45;&gt;Node14</title>
<path fill="none" stroke="midnightblue" d="M746.08,-263.853C766.793,-253.576 792.088,-241.025 811.13,-231.577"/>
<polygon fill="midnightblue" stroke="midnightblue" points="744.327,-260.816 736.925,-268.396 747.439,-267.086 744.327,-260.816"/>
</g>
<!-- Node2&#45;&gt;Node3 -->
<g id="edge2" class="edge"><title>Node2&#45;&gt;Node3</title>
<path fill="none" stroke="midnightblue" d="M676.02,-196.307C655.066,-183.926 628.842,-168.43 612.896,-159.007"/>
<polygon fill="midnightblue" stroke="midnightblue" points="674.242,-199.322 684.632,-201.396 677.803,-193.295 674.242,-199.322"/>
</g>
<!-- Node8 -->
<g id="node8" class="node"><title>Node8</title>
<g id="a_node8"><a xlink:href="ButtonGroup_8cxx.html" target="_top" xlink:title="src/engine/ui/basics\l/ButtonGroup.cxx">
<polygon fill="none" stroke="black" points="686.5,-67.5 686.5,-97.5 796.5,-97.5 796.5,-67.5 686.5,-67.5"/>
<text text-anchor="start" x="694.5" y="-85.5" font-family="Helvetica,sans-Serif" font-size="10.00">src/engine/ui/basics</text>
<text text-anchor="middle" x="741.5" y="-74.5" font-family="Helvetica,sans-Serif" font-size="10.00">/ButtonGroup.cxx</text>
</a>
</g>
</g>
<!-- Node2&#45;&gt;Node8 -->
<g id="edge11" class="edge"><title>Node2&#45;&gt;Node8</title>
<path fill="none" stroke="midnightblue" d="M714.528,-191.39C721.4,-163.901 732.403,-119.888 737.994,-97.5247"/>
<polygon fill="midnightblue" stroke="midnightblue" points="711.062,-190.823 712.032,-201.374 717.853,-192.521 711.062,-190.823"/>
</g>
<!-- Node11 -->
<g id="node11" class="node"><title>Node11</title>
<g id="a_node11"><a xlink:href="IMenuGroup_8hxx.html" target="_top" xlink:title="src/engine/ui/menuGroups\l/IMenuGroup.hxx">
<polygon fill="none" stroke="black" points="781,-134.5 781,-164.5 924,-164.5 924,-134.5 781,-134.5"/>
<text text-anchor="start" x="789" y="-152.5" font-family="Helvetica,sans-Serif" font-size="10.00">src/engine/ui/menuGroups</text>
<text text-anchor="middle" x="852.5" y="-141.5" font-family="Helvetica,sans-Serif" font-size="10.00">/IMenuGroup.hxx</text>
</a>
</g>
</g>
<!-- Node2&#45;&gt;Node11 -->
<g id="edge12" class="edge"><title>Node2&#45;&gt;Node11</title>
<path fill="none" stroke="midnightblue" d="M748.889,-197.269C771.825,-186.916 800.1,-174.153 821.315,-164.577"/>
<polygon fill="midnightblue" stroke="midnightblue" points="747.42,-194.092 739.746,-201.396 750.3,-200.472 747.42,-194.092"/>
</g>
<!-- Node4 -->
<g id="node4" class="node"><title>Node4</title>
<g id="a_node4"><a xlink:href="EventManager_8hxx.html" target="_top" xlink:title="src/engine/EventManager.hxx">
<polygon fill="none" stroke="black" points="172,-73 172,-92 329,-92 329,-73 172,-73"/>
<text text-anchor="middle" x="250.5" y="-80" font-family="Helvetica,sans-Serif" font-size="10.00">src/engine/EventManager.hxx</text>
</a>
</g>
</g>
<!-- Node3&#45;&gt;Node4 -->
<g id="edge3" class="edge"><title>Node3&#45;&gt;Node4</title>
<path fill="none" stroke="midnightblue" d="M542.483,-138.037C474.038,-125.253 359.546,-103.868 296.178,-92.0317"/>
<polygon fill="midnightblue" stroke="midnightblue" points="542.175,-141.54 552.647,-139.936 543.46,-134.659 542.175,-141.54"/>
</g>
<!-- Node7 -->
<g id="node7" class="node"><title>Node7</title>
<g id="a_node7"><a xlink:href="Game_8cxx.html" target="_top" xlink:title="src/Game.cxx">
<polygon fill="none" stroke="black" points="339.5,-6 339.5,-25 421.5,-25 421.5,-6 339.5,-6"/>
<text text-anchor="middle" x="380.5" y="-13" font-family="Helvetica,sans-Serif" font-size="10.00">src/Game.cxx</text>
</a>
</g>
</g>
<!-- Node3&#45;&gt;Node7 -->
<g id="edge10" class="edge"><title>Node3&#45;&gt;Node7</title>
<path fill="none" stroke="midnightblue" d="M518.812,-138.427C468.033,-130.307 408.668,-117.075 391.5,-98 373.161,-77.6244 376.143,-41.9685 378.78,-25.414"/>
<polygon fill="midnightblue" stroke="midnightblue" points="518.42,-141.908 528.838,-139.983 519.493,-134.991 518.42,-141.908"/>
</g>
<!-- Node3&#45;&gt;Node8 -->
<g id="edge7" class="edge"><title>Node3&#45;&gt;Node8</title>
<path fill="none" stroke="midnightblue" d="M626.835,-135.621C651.025,-124.625 685.749,-108.841 710.638,-97.5281"/>
<polygon fill="midnightblue" stroke="midnightblue" points="625.145,-132.544 617.489,-139.869 628.041,-138.917 625.145,-132.544"/>
</g>
<!-- Node9 -->
<g id="node9" class="node"><title>Node9</title>
<g id="a_node9"><a xlink:href="Layout_8cxx.html" target="_top" xlink:title="src/engine/ui/basics\l/Layout.cxx">
<polygon fill="none" stroke="black" points="400.5,-67.5 400.5,-97.5 510.5,-97.5 510.5,-67.5 400.5,-67.5"/>
<text text-anchor="start" x="408.5" y="-85.5" font-family="Helvetica,sans-Serif" font-size="10.00">src/engine/ui/basics</text>
<text text-anchor="middle" x="455.5" y="-74.5" font-family="Helvetica,sans-Serif" font-size="10.00">/Layout.cxx</text>
</a>
</g>
</g>
<!-- Node3&#45;&gt;Node9 -->
<g id="edge8" class="edge"><title>Node3&#45;&gt;Node9</title>
<path fill="none" stroke="midnightblue" d="M570.165,-135.621C545.975,-124.625 511.251,-108.841 486.362,-97.5281"/>
<polygon fill="midnightblue" stroke="midnightblue" points="568.959,-138.917 579.511,-139.869 571.855,-132.544 568.959,-138.917"/>
</g>
<!-- Node10 -->
<g id="node10" class="node"><title>Node10</title>
<g id="a_node10"><a xlink:href="UIManager_8cxx.html" target="_top" xlink:title="src/engine/UIManager.cxx">
<polygon fill="none" stroke="black" points="529,-73 529,-92 668,-92 668,-73 529,-73"/>
<text text-anchor="middle" x="598.5" y="-80" font-family="Helvetica,sans-Serif" font-size="10.00">src/engine/UIManager.cxx</text>
</a>
</g>
</g>
<!-- Node3&#45;&gt;Node10 -->
<g id="edge9" class="edge"><title>Node3&#45;&gt;Node10</title>
<path fill="none" stroke="midnightblue" d="M598.5,-129.537C598.5,-117.17 598.5,-101.62 598.5,-92.1273"/>
<polygon fill="midnightblue" stroke="midnightblue" points="595,-129.734 598.5,-139.734 602,-129.734 595,-129.734"/>
</g>
<!-- Node5 -->
<g id="node5" class="node"><title>Node5</title>
<g id="a_node5"><a xlink:href="Timer_8cxx.html" target="_top" xlink:title="src/engine/basics/Timer.cxx">
<polygon fill="none" stroke="black" points="0,-6 0,-25 147,-25 147,-6 0,-6"/>
<text text-anchor="middle" x="73.5" y="-13" font-family="Helvetica,sans-Serif" font-size="10.00">src/engine/basics/Timer.cxx</text>
</a>
</g>
</g>
<!-- Node4&#45;&gt;Node5 -->
<g id="edge4" class="edge"><title>Node4&#45;&gt;Node5</title>
<path fill="none" stroke="midnightblue" d="M217.199,-69.2706C182.069,-56.3699 127.623,-36.3757 96.8195,-25.0637"/>
<polygon fill="midnightblue" stroke="midnightblue" points="216.402,-72.7067 226.996,-72.8685 218.815,-66.1357 216.402,-72.7067"/>
</g>
<!-- Node6 -->
<g id="node6" class="node"><title>Node6</title>
<g id="a_node6"><a xlink:href="EventManager_8cxx.html" target="_top" xlink:title="src/engine/EventManager.cxx">
<polygon fill="none" stroke="black" points="165.5,-6 165.5,-25 321.5,-25 321.5,-6 165.5,-6"/>
<text text-anchor="middle" x="243.5" y="-13" font-family="Helvetica,sans-Serif" font-size="10.00">src/engine/EventManager.cxx</text>
</a>
</g>
</g>
<!-- Node4&#45;&gt;Node6 -->
<g id="edge5" class="edge"><title>Node4&#45;&gt;Node6</title>
<path fill="none" stroke="midnightblue" d="M248.458,-62.537C247.126,-50.1703 245.451,-34.6198 244.429,-25.1273"/>
<polygon fill="midnightblue" stroke="midnightblue" points="245.005,-63.1661 249.556,-72.7338 251.965,-62.4165 245.005,-63.1661"/>
</g>
<!-- Node4&#45;&gt;Node7 -->
<g id="edge6" class="edge"><title>Node4&#45;&gt;Node7</title>
<path fill="none" stroke="midnightblue" d="M276.952,-68.2739C302.7,-55.3999 341.083,-36.2086 363.166,-25.1672"/>
<polygon fill="midnightblue" stroke="midnightblue" points="275.142,-65.2658 267.763,-72.8685 278.273,-71.5268 275.142,-65.2658"/>
</g>
<!-- Node12 -->
<g id="node12" class="node"><title>Node12</title>
<g id="a_node12"><a xlink:href="MenuGroupBuild_8hxx.html" target="_top" xlink:title="src/engine/ui/menuGroups\l/MenuGroupBuild.hxx">
<polygon fill="none" stroke="black" points="815,-67.5 815,-97.5 958,-97.5 958,-67.5 815,-67.5"/>
<text text-anchor="start" x="823" y="-85.5" font-family="Helvetica,sans-Serif" font-size="10.00">src/engine/ui/menuGroups</text>
<text text-anchor="middle" x="886.5" y="-74.5" font-family="Helvetica,sans-Serif" font-size="10.00">/MenuGroupBuild.hxx</text>
</a>
</g>
</g>
<!-- Node11&#45;&gt;Node12 -->
<g id="edge13" class="edge"><title>Node11&#45;&gt;Node12</title>
<path fill="none" stroke="midnightblue" d="M864.644,-125.283C869.488,-116.022 874.907,-105.663 879.137,-97.5765"/>
<polygon fill="midnightblue" stroke="midnightblue" points="861.411,-123.913 859.877,-134.396 867.614,-127.157 861.411,-123.913"/>
</g>
<!-- Node13 -->
<g id="node13" class="node"><title>Node13</title>
<g id="a_node13"><a xlink:href="MenuGroupBuild_8cxx.html" target="_top" xlink:title="src/engine/ui/menuGroups\l/MenuGroupBuild.cxx">
<polygon fill="none" stroke="black" points="815,-0.5 815,-30.5 958,-30.5 958,-0.5 815,-0.5"/>
<text text-anchor="start" x="823" y="-18.5" font-family="Helvetica,sans-Serif" font-size="10.00">src/engine/ui/menuGroups</text>
<text text-anchor="middle" x="886.5" y="-7.5" font-family="Helvetica,sans-Serif" font-size="10.00">/MenuGroupBuild.cxx</text>
</a>
</g>
</g>
<!-- Node12&#45;&gt;Node13 -->
<g id="edge14" class="edge"><title>Node12&#45;&gt;Node13</title>
<path fill="none" stroke="midnightblue" d="M886.5,-57.1081C886.5,-48.1539 886.5,-38.3227 886.5,-30.5765"/>
<polygon fill="midnightblue" stroke="midnightblue" points="883,-57.3959 886.5,-67.396 890,-57.396 883,-57.3959"/>
</g>
</g>
</svg>
