<?xml version="1.0" encoding="UTF-8" standalone="no"?>
<!DOCTYPE svg PUBLIC "-//W3C//DTD SVG 1.1//EN"
 "http://www.w3.org/Graphics/SVG/1.1/DTD/svg11.dtd">
<!-- Generated by graphviz version 2.38.0 (20140413.2041)
 -->
<!-- Title: src/engine/basics/Camera.hxx Pages: 1 -->
<svg width="1015pt" height="84pt"
 viewBox="0.00 0.00 1014.50 84.00" xmlns="http://www.w3.org/2000/svg" xmlns:xlink="http://www.w3.org/1999/xlink">
<g id="graph0" class="graph" transform="scale(1 1) rotate(0) translate(4 80)">
<title>src/engine/basics/Camera.hxx</title>
<!-- Node1 -->
<g id="node1" class="node"><title>Node1</title>
<polygon fill="#bfbfbf" stroke="black" points="488.5,-56.5 488.5,-75.5 648.5,-75.5 648.5,-56.5 488.5,-56.5"/>
<text text-anchor="middle" x="568.5" y="-63.5" font-family="Helvetica,sans-Serif" font-size="10.00">src/engine/basics/Camera.hxx</text>
</g>
<!-- Node2 -->
<g id="node2" class="node"><title>Node2</title>
<g id="a_node2"><a xlink:href="Camera_8cxx.html" target="_top" xlink:title="src/engine/basics/Camera.cxx">
<polygon fill="none" stroke="black" points="0,-0.5 0,-19.5 159,-19.5 159,-0.5 0,-0.5"/>
<text text-anchor="middle" x="79.5" y="-7.5" font-family="Helvetica,sans-Serif" font-size="10.00">src/engine/basics/Camera.cxx</text>
</a>
</g>
</g>
<!-- Node1&#45;&gt;Node2 -->
<g id="edge1" class="edge"><title>Node1&#45;&gt;Node2</title>
<path fill="none" stroke="midnightblue" d="M481.138,-55.3526C388.906,-45.1675 244.91,-29.2662 156.712,-19.5264"/>
<polygon fill="midnightblue" stroke="midnightblue" points="480.963,-58.8545 491.286,-56.4733 481.731,-51.8968 480.963,-58.8545"/>
</g>
<!-- Node3 -->
<g id="node3" class="node"><title>Node3</title>
<g id="a_node3"><a xlink:href="isoMath_8cxx.html" target="_top" xlink:title="src/engine/basics/isoMath.cxx">
<polygon fill="none" stroke="black" points="176.5,-0.5 176.5,-19.5 334.5,-19.5 334.5,-0.5 176.5,-0.5"/>
<text text-anchor="middle" x="255.5" y="-7.5" font-family="Helvetica,sans-Serif" font-size="10.00">src/engine/basics/isoMath.cxx</text>
</a>
</g>
</g>
<!-- Node1&#45;&gt;Node3 -->
<g id="edge2" class="edge"><title>Node1&#45;&gt;Node3</title>
<path fill="none" stroke="midnightblue" d="M508.958,-54.7275C449.809,-44.523 360.171,-29.0583 304.864,-19.5164"/>
<polygon fill="midnightblue" stroke="midnightblue" points="508.455,-58.1924 518.904,-56.4435 509.645,-51.2943 508.455,-58.1924"/>
</g>
<!-- Node4 -->
<g id="node4" class="node"><title>Node4</title>
<g id="a_node4"><a xlink:href="Engine_8cxx.html" target="_top" xlink:title="src/engine/Engine.cxx">
<polygon fill="none" stroke="black" points="352.5,-0.5 352.5,-19.5 472.5,-19.5 472.5,-0.5 352.5,-0.5"/>
<text text-anchor="middle" x="412.5" y="-7.5" font-family="Helvetica,sans-Serif" font-size="10.00">src/engine/Engine.cxx</text>
</a>
</g>
</g>
<!-- Node1&#45;&gt;Node4 -->
<g id="edge3" class="edge"><title>Node1&#45;&gt;Node4</title>
<path fill="none" stroke="midnightblue" d="M534.33,-53.172C504.956,-43.0039 463.302,-28.5852 437.103,-19.5164"/>
<polygon fill="midnightblue" stroke="midnightblue" points="533.187,-56.4798 543.781,-56.4435 535.476,-49.8649 533.187,-56.4798"/>
</g>
<!-- Node5 -->
<g id="node5" class="node"><title>Node5</title>
<g id="a_node5"><a xlink:href="EventManager_8cxx.html" target="_top" xlink:title="src/engine/EventManager.cxx">
<polygon fill="none" stroke="black" points="490.5,-0.5 490.5,-19.5 646.5,-19.5 646.5,-0.5 490.5,-0.5"/>
<text text-anchor="middle" x="568.5" y="-7.5" font-family="Helvetica,sans-Serif" font-size="10.00">src/engine/EventManager.cxx</text>
</a>
</g>
</g>
<!-- Node1&#45;&gt;Node5 -->
<g id="edge4" class="edge"><title>Node1&#45;&gt;Node5</title>
<path fill="none" stroke="midnightblue" d="M568.5,-45.8045C568.5,-36.9102 568.5,-26.7798 568.5,-19.7511"/>
<polygon fill="midnightblue" stroke="midnightblue" points="565,-46.083 568.5,-56.083 572,-46.083 565,-46.083"/>
</g>
<!-- Node6 -->
<g id="node6" class="node"><title>Node6</title>
<g id="a_node6"><a xlink:href="Map_8cxx.html" target="_top" xlink:title="src/engine/Map.cxx">
<polygon fill="none" stroke="black" points="664.5,-0.5 664.5,-19.5 772.5,-19.5 772.5,-0.5 664.5,-0.5"/>
<text text-anchor="middle" x="718.5" y="-7.5" font-family="Helvetica,sans-Serif" font-size="10.00">src/engine/Map.cxx</text>
</a>
</g>
</g>
<!-- Node1&#45;&gt;Node6 -->
<g id="edge5" class="edge"><title>Node1&#45;&gt;Node6</title>
<path fill="none" stroke="midnightblue" d="M601.725,-53.0392C629.948,-42.8786 669.762,-28.5457 694.843,-19.5164"/>
<polygon fill="midnightblue" stroke="midnightblue" points="600.491,-49.7632 592.268,-56.4435 602.862,-56.3494 600.491,-49.7632"/>
</g>
<!-- Node7 -->
<g id="node7" class="node"><title>Node7</title>
<g id="a_node7"><a xlink:href="Sprite_8cxx.html" target="_top" xlink:title="src/engine/Sprite.cxx">
<polygon fill="none" stroke="black" points="790.5,-0.5 790.5,-19.5 906.5,-19.5 906.5,-0.5 790.5,-0.5"/>
<text text-anchor="middle" x="848.5" y="-7.5" font-family="Helvetica,sans-Serif" font-size="10.00">src/engine/Sprite.cxx</text>
</a>
</g>
</g>
<!-- Node1&#45;&gt;Node7 -->
<g id="edge6" class="edge"><title>Node1&#45;&gt;Node7</title>
<path fill="none" stroke="midnightblue" d="M622.752,-54.5371C675.67,-44.3316 755.171,-28.9992 804.341,-19.5164"/>
<polygon fill="midnightblue" stroke="midnightblue" points="622.023,-51.1131 612.867,-56.4435 623.349,-57.9865 622.023,-51.1131"/>
</g>
<!-- Node8 -->
<g id="node8" class="node"><title>Node8</title>
<g id="a_node8"><a xlink:href="Game_8cxx.html" target="_top" xlink:title="src/Game.cxx">
<polygon fill="none" stroke="black" points="924.5,-0.5 924.5,-19.5 1006.5,-19.5 1006.5,-0.5 924.5,-0.5"/>
<text text-anchor="middle" x="965.5" y="-7.5" font-family="Helvetica,sans-Serif" font-size="10.00">src/Game.cxx</text>
</a>
</g>
</g>
<!-- Node1&#45;&gt;Node8 -->
<g id="edge7" class="edge"><title>Node1&#45;&gt;Node8</title>
<path fill="none" stroke="midnightblue" d="M652.574,-55.2697C722.95,-46.8437 825.952,-33.8571 915.5,-20 918.376,-19.5549 921.342,-19.075 924.326,-18.5767"/>
<polygon fill="midnightblue" stroke="midnightblue" points="651.948,-51.8195 642.433,-56.4793 652.777,-58.7702 651.948,-51.8195"/>
</g>
</g>
</svg>
