<?xml version="1.0" encoding="UTF-8" standalone="no"?>
<!DOCTYPE svg PUBLIC "-//W3C//DTD SVG 1.1//EN"
 "http://www.w3.org/Graphics/SVG/1.1/DTD/svg11.dtd">
<!-- Generated by graphviz version 2.38.0 (20140413.2041)
 -->
<!-- Title: src/engine/basics/Camera.cxx Pages: 1 -->
<svg width="1162pt" height="420pt"
 viewBox="0.00 0.00 1162.40 420.00" xmlns="http://www.w3.org/2000/svg" xmlns:xlink="http://www.w3.org/1999/xlink">
<g id="graph0" class="graph" transform="scale(1 1) rotate(0) translate(4 416)">
<title>src/engine/basics/Camera.cxx</title>
<!-- Node1 -->
<g id="node1" class="node"><title>Node1</title>
<polygon fill="#bfbfbf" stroke="black" points="239.796,-392.5 239.796,-411.5 398.796,-411.5 398.796,-392.5 239.796,-392.5"/>
<text text-anchor="middle" x="319.296" y="-399.5" font-family="Helvetica,sans-Serif" font-size="10.00">src/engine/basics/Camera.cxx</text>
</g>
<!-- Node2 -->
<g id="node2" class="node"><title>Node2</title>
<g id="a_node2"><a xlink:href="Camera_8hxx.html" target="_top" xlink:title="Camera.hxx">
<polygon fill="none" stroke="black" points="28.2959,-112.5 28.2959,-131.5 102.296,-131.5 102.296,-112.5 28.2959,-112.5"/>
<text text-anchor="middle" x="65.2959" y="-119.5" font-family="Helvetica,sans-Serif" font-size="10.00">Camera.hxx</text>
</a>
</g>
</g>
<!-- Node1&#45;&gt;Node2 -->
<g id="edge1" class="edge"><title>Node1&#45;&gt;Node2</title>
<path fill="none" stroke="midnightblue" d="M247.478,-392.488C187.692,-380.924 112.296,-353.876 112.296,-291 112.296,-291 112.296,-291 112.296,-233 112.296,-197.702 91.5775,-160.786 77.6522,-139.96"/>
<polygon fill="midnightblue" stroke="midnightblue" points="80.4132,-137.8 71.831,-131.587 74.6658,-141.796 80.4132,-137.8"/>
</g>
<!-- Node5 -->
<g id="node5" class="node"><title>Node5</title>
<g id="a_node5"><a xlink:href="isoMath_8hxx.html" target="_top" xlink:title="isoMath.hxx">
<polygon fill="none" stroke="black" points="158.296,-112.5 158.296,-131.5 232.296,-131.5 232.296,-112.5 158.296,-112.5"/>
<text text-anchor="middle" x="195.296" y="-119.5" font-family="Helvetica,sans-Serif" font-size="10.00">isoMath.hxx</text>
</a>
</g>
</g>
<!-- Node1&#45;&gt;Node5 -->
<g id="edge4" class="edge"><title>Node1&#45;&gt;Node5</title>
<path fill="none" stroke="midnightblue" d="M299.883,-392.464C268.304,-377.108 209.296,-341.639 209.296,-291 209.296,-291 209.296,-291 209.296,-233 209.296,-200.541 203.223,-163.121 199.076,-141.356"/>
<polygon fill="midnightblue" stroke="midnightblue" points="202.503,-140.64 197.126,-131.511 195.636,-142 202.503,-140.64"/>
</g>
<!-- Node8 -->
<g id="node8" class="node"><title>Node8</title>
<g id="a_node8"><a xlink:href="Settings_8hxx.html" target="_top" xlink:title="Settings.hxx">
<polygon fill="none" stroke="black" points="1044.3,-112.5 1044.3,-131.5 1120.3,-131.5 1120.3,-112.5 1044.3,-112.5"/>
<text text-anchor="middle" x="1082.3" y="-119.5" font-family="Helvetica,sans-Serif" font-size="10.00">Settings.hxx</text>
</a>
</g>
</g>
<!-- Node1&#45;&gt;Node8 -->
<g id="edge9" class="edge"><title>Node1&#45;&gt;Node8</title>
<path fill="none" stroke="midnightblue" d="M398.81,-397.46C590.484,-387.868 1062.3,-357.504 1062.3,-291 1062.3,-291 1062.3,-291 1062.3,-233 1062.3,-200.438 1070.88,-163.315 1076.81,-141.592"/>
<polygon fill="midnightblue" stroke="midnightblue" points="1080.24,-142.317 1079.6,-131.742 1073.5,-140.408 1080.24,-142.317"/>
</g>
<!-- Node11 -->
<g id="node11" class="node"><title>Node11</title>
<g id="a_node11"><a xlink:href="Engine_8hxx.html" target="_top" xlink:title="../Engine.hxx">
<polygon fill="none" stroke="black" points="355.796,-336.5 355.796,-355.5 432.796,-355.5 432.796,-336.5 355.796,-336.5"/>
<text text-anchor="middle" x="394.296" y="-343.5" font-family="Helvetica,sans-Serif" font-size="10.00">../Engine.hxx</text>
</a>
</g>
</g>
<!-- Node1&#45;&gt;Node11 -->
<g id="edge12" class="edge"><title>Node1&#45;&gt;Node11</title>
<path fill="none" stroke="midnightblue" d="M331.346,-392.324C342.759,-384.107 360.127,-371.602 373.731,-361.807"/>
<polygon fill="midnightblue" stroke="midnightblue" points="375.956,-364.517 382.027,-355.834 371.866,-358.837 375.956,-364.517"/>
</g>
<!-- Node3 -->
<g id="node3" class="node"><title>Node3</title>
<polygon fill="none" stroke="#bfbfbf" points="411.796,-56.5 411.796,-75.5 456.796,-75.5 456.796,-56.5 411.796,-56.5"/>
<text text-anchor="middle" x="434.296" y="-63.5" font-family="Helvetica,sans-Serif" font-size="10.00">SDL.h</text>
</g>
<!-- Node2&#45;&gt;Node3 -->
<g id="edge2" class="edge"><title>Node2&#45;&gt;Node3</title>
<path fill="none" stroke="midnightblue" d="M102.53,-116.703C174.243,-108.321 330.043,-89.5722 401.722,-75.7874"/>
<polygon fill="midnightblue" stroke="midnightblue" points="402.552,-79.1908 411.668,-73.7914 401.174,-72.3277 402.552,-79.1908"/>
</g>
<!-- Node4 -->
<g id="node4" class="node"><title>Node4</title>
<g id="a_node4"><a xlink:href="point_8hxx.html" target="_top" xlink:title="point.hxx">
<polygon fill="none" stroke="black" points="100.296,-56.5 100.296,-75.5 160.296,-75.5 160.296,-56.5 100.296,-56.5"/>
<text text-anchor="middle" x="130.296" y="-63.5" font-family="Helvetica,sans-Serif" font-size="10.00">point.hxx</text>
</a>
</g>
</g>
<!-- Node2&#45;&gt;Node4 -->
<g id="edge3" class="edge"><title>Node2&#45;&gt;Node4</title>
<path fill="none" stroke="midnightblue" d="M75.7392,-112.324C85.4421,-104.263 100.111,-92.0765 111.796,-82.3695"/>
<polygon fill="midnightblue" stroke="midnightblue" points="114.207,-84.9163 119.662,-75.8339 109.734,-79.532 114.207,-84.9163"/>
</g>
<!-- Node5&#45;&gt;Node3 -->
<g id="edge6" class="edge"><title>Node5&#45;&gt;Node3</title>
<path fill="none" stroke="midnightblue" d="M232.471,-113.62C271.995,-105.619 336.542,-92.1123 401.596,-76.0536"/>
<polygon fill="midnightblue" stroke="midnightblue" points="402.756,-79.3717 411.615,-73.5607 401.066,-72.5788 402.756,-79.3717"/>
</g>
<!-- Node5&#45;&gt;Node4 -->
<g id="edge5" class="edge"><title>Node5&#45;&gt;Node4</title>
<path fill="none" stroke="midnightblue" d="M184.852,-112.324C175.15,-104.263 160.481,-92.0765 148.796,-82.3695"/>
<polygon fill="midnightblue" stroke="midnightblue" points="150.858,-79.532 140.929,-75.8339 146.385,-84.9163 150.858,-79.532"/>
</g>
<!-- Node6 -->
<g id="node6" class="node"><title>Node6</title>
<polygon fill="none" stroke="#bfbfbf" points="483.796,-56.5 483.796,-75.5 530.796,-75.5 530.796,-56.5 483.796,-56.5"/>
<text text-anchor="middle" x="507.296" y="-63.5" font-family="Helvetica,sans-Serif" font-size="10.00">vector</text>
</g>
<!-- Node5&#45;&gt;Node6 -->
<g id="edge7" class="edge"><title>Node5&#45;&gt;Node6</title>
<path fill="none" stroke="midnightblue" d="M232.515,-115.351C284.676,-107.308 382.433,-91.7747 465.296,-76 468.112,-75.464 471.029,-74.886 473.953,-74.2908"/>
<polygon fill="midnightblue" stroke="midnightblue" points="474.715,-77.7072 483.788,-72.2365 473.284,-70.8551 474.715,-77.7072"/>
</g>
<!-- Node7 -->
<g id="node7" class="node"><title>Node7</title>
<polygon fill="none" stroke="#bfbfbf" points="189.296,-56.5 189.296,-75.5 251.296,-75.5 251.296,-56.5 189.296,-56.5"/>
<text text-anchor="middle" x="220.296" y="-63.5" font-family="Helvetica,sans-Serif" font-size="10.00">algorithm</text>
</g>
<!-- Node5&#45;&gt;Node7 -->
<g id="edge8" class="edge"><title>Node5&#45;&gt;Node7</title>
<path fill="none" stroke="midnightblue" d="M199.424,-112.083C202.81,-104.77 207.712,-94.1814 211.915,-85.1034"/>
<polygon fill="midnightblue" stroke="midnightblue" points="215.219,-86.2962 216.244,-75.7511 208.867,-83.3553 215.219,-86.2962"/>
</g>
<!-- Node9 -->
<g id="node9" class="node"><title>Node9</title>
<polygon fill="none" stroke="#bfbfbf" points="831.296,-0.5 831.296,-19.5 875.296,-19.5 875.296,-0.5 831.296,-0.5"/>
<text text-anchor="middle" x="853.296" y="-7.5" font-family="Helvetica,sans-Serif" font-size="10.00">string</text>
</g>
<!-- Node8&#45;&gt;Node9 -->
<g id="edge10" class="edge"><title>Node8&#45;&gt;Node9</title>
<path fill="none" stroke="midnightblue" d="M1102.84,-112.466C1128.81,-100.499 1167.99,-77.7546 1149.3,-56 1115.61,-16.804 955.645,-11.3491 885.916,-10.8667"/>
<polygon fill="midnightblue" stroke="midnightblue" points="885.546,-7.36537 875.533,-10.8276 885.52,-14.3653 885.546,-7.36537"/>
</g>
<!-- Node10 -->
<g id="node10" class="node"><title>Node10</title>
<g id="a_node10"><a xlink:href="Singleton_8hxx.html" target="_top" xlink:title="../../util/Singleton.hxx">
<polygon fill="none" stroke="black" points="1024.3,-56.5 1024.3,-75.5 1140.3,-75.5 1140.3,-56.5 1024.3,-56.5"/>
<text text-anchor="middle" x="1082.3" y="-63.5" font-family="Helvetica,sans-Serif" font-size="10.00">../../util/Singleton.hxx</text>
</a>
</g>
</g>
<!-- Node8&#45;&gt;Node10 -->
<g id="edge11" class="edge"><title>Node8&#45;&gt;Node10</title>
<path fill="none" stroke="midnightblue" d="M1082.3,-112.083C1082.3,-105.006 1082.3,-94.8611 1082.3,-85.9865"/>
<polygon fill="midnightblue" stroke="midnightblue" points="1085.8,-85.751 1082.3,-75.7511 1078.8,-85.7511 1085.8,-85.751"/>
</g>
<!-- Node11&#45;&gt;Node3 -->
<g id="edge13" class="edge"><title>Node11&#45;&gt;Node3</title>
<path fill="none" stroke="midnightblue" d="M367.179,-336.471C328.024,-322.267 260.296,-289.779 260.296,-235 260.296,-235 260.296,-235 260.296,-177 260.296,-143.663 352.706,-100.495 402.836,-79.5303"/>
<polygon fill="midnightblue" stroke="midnightblue" points="404.349,-82.6922 412.259,-75.6428 401.68,-76.2213 404.349,-82.6922"/>
</g>
<!-- Node11&#45;&gt;Node4 -->
<g id="edge20" class="edge"><title>Node11&#45;&gt;Node4</title>
<path fill="none" stroke="midnightblue" d="M355.439,-342.45C256.039,-334.866 0.295863,-308.238 0.295863,-235 0.295863,-235 0.295863,-235 0.295863,-177 0.295863,-146.902 -0.887588,-134.327 19.2959,-112 37.7201,-91.6189 66.6937,-80.2889 90.4197,-74.0962"/>
<polygon fill="midnightblue" stroke="midnightblue" points="91.3128,-77.4814 100.221,-71.7453 89.68,-70.6744 91.3128,-77.4814"/>
</g>
<!-- Node11&#45;&gt;Node10 -->
<g id="edge49" class="edge"><title>Node11&#45;&gt;Node10</title>
<path fill="none" stroke="midnightblue" d="M432.829,-342.222C567.687,-331.994 1010.3,-293.935 1010.3,-235 1010.3,-235 1010.3,-235 1010.3,-177 1010.3,-146.048 1018.15,-137.768 1035.3,-112 1042.85,-100.653 1053.72,-90.0054 1063.11,-81.9191"/>
<polygon fill="midnightblue" stroke="midnightblue" points="1065.37,-84.5868 1070.85,-75.5189 1060.91,-79.1907 1065.37,-84.5868"/>
</g>
<!-- Node12 -->
<g id="node12" class="node"><title>Node12</title>
<g id="a_node12"><a xlink:href="WindowManager_8hxx.html" target="_top" xlink:title="WindowManager.hxx">
<polygon fill="none" stroke="black" points="856.796,-112.5 856.796,-131.5 969.796,-131.5 969.796,-112.5 856.796,-112.5"/>
<text text-anchor="middle" x="913.296" y="-119.5" font-family="Helvetica,sans-Serif" font-size="10.00">WindowManager.hxx</text>
</a>
</g>
</g>
<!-- Node11&#45;&gt;Node12 -->
<g id="edge14" class="edge"><title>Node11&#45;&gt;Node12</title>
<path fill="none" stroke="midnightblue" d="M432.918,-338.606C471.864,-331.523 533.344,-318.593 584.296,-300 707.332,-255.102 840.971,-170.906 891.933,-137.343"/>
<polygon fill="midnightblue" stroke="midnightblue" points="894.064,-140.129 900.465,-131.686 890.196,-134.295 894.064,-140.129"/>
</g>
<!-- Node14 -->
<g id="node14" class="node"><title>Node14</title>
<g id="a_node14"><a xlink:href="Map_8hxx.html" target="_top" xlink:title="Map.hxx">
<polygon fill="none" stroke="black" points="519.296,-280.5 519.296,-299.5 575.296,-299.5 575.296,-280.5 519.296,-280.5"/>
<text text-anchor="middle" x="547.296" y="-287.5" font-family="Helvetica,sans-Serif" font-size="10.00">Map.hxx</text>
</a>
</g>
</g>
<!-- Node11&#45;&gt;Node14 -->
<g id="edge21" class="edge"><title>Node11&#45;&gt;Node14</title>
<path fill="none" stroke="midnightblue" d="M418.539,-336.444C444.166,-327.399 484.781,-313.064 513.534,-302.916"/>
<polygon fill="midnightblue" stroke="midnightblue" points="514.901,-306.145 523.166,-299.516 512.571,-299.544 514.901,-306.145"/>
</g>
<!-- Node12&#45;&gt;Node3 -->
<g id="edge18" class="edge"><title>Node12&#45;&gt;Node3</title>
<path fill="none" stroke="midnightblue" d="M856.491,-114.524C848.699,-113.66 840.801,-112.798 833.296,-112 673.84,-95.0362 632.587,-101.647 474.296,-76 471.924,-75.6158 469.483,-75.1764 467.031,-74.7032"/>
<polygon fill="midnightblue" stroke="midnightblue" points="467.552,-71.2365 457.048,-72.6212 466.123,-78.0891 467.552,-71.2365"/>
</g>
<!-- Node12&#45;&gt;Node6 -->
<g id="edge17" class="edge"><title>Node12&#45;&gt;Node6</title>
<path fill="none" stroke="midnightblue" d="M856.416,-113.435C770.478,-102.004 610.216,-80.6888 540.792,-71.4551"/>
<polygon fill="midnightblue" stroke="midnightblue" points="541.215,-67.9807 530.841,-70.1316 540.292,-74.9196 541.215,-67.9807"/>
</g>
<!-- Node12&#45;&gt;Node9 -->
<g id="edge15" class="edge"><title>Node12&#45;&gt;Node9</title>
<path fill="none" stroke="midnightblue" d="M932.958,-112.366C956.826,-100.639 992.052,-78.5414 976.296,-56 955.992,-26.9524 914.819,-16.5946 885.714,-12.9359"/>
<polygon fill="midnightblue" stroke="midnightblue" points="885.91,-9.43726 875.598,-11.8689 885.176,-16.3986 885.91,-9.43726"/>
</g>
<!-- Node12&#45;&gt;Node10 -->
<g id="edge19" class="edge"><title>Node12&#45;&gt;Node10</title>
<path fill="none" stroke="midnightblue" d="M940.074,-112.444C968.629,-103.32 1014.03,-88.8133 1045.83,-78.6509"/>
<polygon fill="midnightblue" stroke="midnightblue" points="1047.18,-81.8941 1055.64,-75.5164 1045.05,-75.2262 1047.18,-81.8941"/>
</g>
<!-- Node13 -->
<g id="node13" class="node"><title>Node13</title>
<polygon fill="none" stroke="#bfbfbf" points="908.796,-56.5 908.796,-75.5 967.796,-75.5 967.796,-56.5 908.796,-56.5"/>
<text text-anchor="middle" x="938.296" y="-63.5" font-family="Helvetica,sans-Serif" font-size="10.00">iostream</text>
</g>
<!-- Node12&#45;&gt;Node13 -->
<g id="edge16" class="edge"><title>Node12&#45;&gt;Node13</title>
<path fill="none" stroke="midnightblue" d="M917.424,-112.083C920.81,-104.77 925.712,-94.1814 929.915,-85.1034"/>
<polygon fill="midnightblue" stroke="midnightblue" points="933.219,-86.2962 934.244,-75.7511 926.867,-83.3553 933.219,-86.2962"/>
</g>
<!-- Node14&#45;&gt;Node6 -->
<g id="edge22" class="edge"><title>Node14&#45;&gt;Node6</title>
<path fill="none" stroke="midnightblue" d="M575.526,-288.031C605.866,-285.299 652.76,-275.811 675.296,-244 694.822,-216.438 688.495,-199.092 675.296,-168 652.137,-113.449 582.747,-86.378 540.739,-74.6434"/>
<polygon fill="midnightblue" stroke="midnightblue" points="541.511,-71.2271 530.948,-72.0467 539.716,-77.9932 541.511,-71.2271"/>
</g>
<!-- Node15 -->
<g id="node15" class="node"><title>Node15</title>
<g id="a_node15"><a xlink:href="MapNode_8hxx.html" target="_top" xlink:title="GameObjects/MapNode.hxx">
<polygon fill="none" stroke="black" points="422.296,-168.5 422.296,-187.5 572.296,-187.5 572.296,-168.5 422.296,-168.5"/>
<text text-anchor="middle" x="497.296" y="-175.5" font-family="Helvetica,sans-Serif" font-size="10.00">GameObjects/MapNode.hxx</text>
</a>
</g>
</g>
<!-- Node14&#45;&gt;Node15 -->
<g id="edge23" class="edge"><title>Node14&#45;&gt;Node15</title>
<path fill="none" stroke="midnightblue" d="M540.522,-280.487C533.847,-271.757 523.739,-257.571 517.296,-244 510.175,-229.001 504.842,-210.867 501.482,-197.568"/>
<polygon fill="midnightblue" stroke="midnightblue" points="504.855,-196.622 499.127,-187.709 498.046,-198.248 504.855,-196.622"/>
</g>
<!-- Node24 -->
<g id="node24" class="node"><title>Node24</title>
<g id="a_node24"><a xlink:href="TerrainGenerator_8hxx.html" target="_top" xlink:title="map/TerrainGenerator.hxx">
<polygon fill="none" stroke="black" points="526.296,-224.5 526.296,-243.5 666.296,-243.5 666.296,-224.5 526.296,-224.5"/>
<text text-anchor="middle" x="596.296" y="-231.5" font-family="Helvetica,sans-Serif" font-size="10.00">map/TerrainGenerator.hxx</text>
</a>
</g>
</g>
<!-- Node14&#45;&gt;Node24 -->
<g id="edge45" class="edge"><title>Node14&#45;&gt;Node24</title>
<path fill="none" stroke="midnightblue" d="M555.387,-280.083C562.451,-272.298 572.883,-260.801 581.445,-251.367"/>
<polygon fill="midnightblue" stroke="midnightblue" points="584.227,-253.509 588.355,-243.751 579.043,-248.805 584.227,-253.509"/>
</g>
<!-- Node15&#45;&gt;Node3 -->
<g id="edge24" class="edge"><title>Node15&#45;&gt;Node3</title>
<path fill="none" stroke="midnightblue" d="M492.352,-168.368C482.002,-150.296 457.879,-108.176 444.208,-84.3074"/>
<polygon fill="midnightblue" stroke="midnightblue" points="447.223,-82.5295 439.216,-75.5914 441.149,-86.0085 447.223,-82.5295"/>
</g>
<!-- Node15&#45;&gt;Node4 -->
<g id="edge36" class="edge"><title>Node15&#45;&gt;Node4</title>
<path fill="none" stroke="midnightblue" d="M421.949,-176.634C332.101,-174.635 189.054,-166.001 149.296,-132 136.052,-120.674 131.775,-100.674 130.521,-85.8408"/>
<polygon fill="midnightblue" stroke="midnightblue" points="134.012,-85.5613 130.053,-75.734 127.019,-85.8853 134.012,-85.5613"/>
</g>
<!-- Node15&#45;&gt;Node6 -->
<g id="edge28" class="edge"><title>Node15&#45;&gt;Node6</title>
<path fill="none" stroke="midnightblue" d="M498.081,-168.368C499.694,-150.617 503.417,-109.666 505.605,-85.5974"/>
<polygon fill="midnightblue" stroke="midnightblue" points="509.095,-85.8673 506.515,-75.5914 502.124,-85.2334 509.095,-85.8673"/>
</g>
<!-- Node15&#45;&gt;Node7 -->
<g id="edge27" class="edge"><title>Node15&#45;&gt;Node7</title>
<path fill="none" stroke="midnightblue" d="M458.763,-168.438C426.49,-160.683 379.538,-148.029 340.296,-132 304.667,-117.447 265.938,-95.1921 242.389,-80.8688"/>
<polygon fill="midnightblue" stroke="midnightblue" points="244.207,-77.8783 233.856,-75.6207 240.54,-83.8408 244.207,-77.8783"/>
</g>
<!-- Node15&#45;&gt;Node9 -->
<g id="edge26" class="edge"><title>Node15&#45;&gt;Node9</title>
<path fill="none" stroke="midnightblue" d="M542.949,-168.431C563.539,-162.044 585.961,-150.999 598.296,-132 617.044,-103.123 561.042,-82.2703 583.296,-56 613.411,-20.4501 755.797,-12.9585 820.798,-11.3991"/>
<polygon fill="midnightblue" stroke="midnightblue" points="820.976,-14.8963 830.901,-11.19 820.831,-7.89777 820.976,-14.8963"/>
</g>
<!-- Node16 -->
<g id="node16" class="node"><title>Node16</title>
<polygon fill="none" stroke="#bfbfbf" points="532.796,-112.5 532.796,-131.5 589.796,-131.5 589.796,-112.5 532.796,-112.5"/>
<text text-anchor="middle" x="561.296" y="-119.5" font-family="Helvetica,sans-Serif" font-size="10.00">memory</text>
</g>
<!-- Node15&#45;&gt;Node16 -->
<g id="edge25" class="edge"><title>Node15&#45;&gt;Node16</title>
<path fill="none" stroke="midnightblue" d="M507.579,-168.324C517.132,-160.263 531.576,-148.077 543.08,-138.369"/>
<polygon fill="midnightblue" stroke="midnightblue" points="545.44,-140.958 550.826,-131.834 540.926,-135.608 545.44,-140.958"/>
</g>
<!-- Node17 -->
<g id="node17" class="node"><title>Node17</title>
<g id="a_node17"><a xlink:href="Sprite_8hxx.html" target="_top" xlink:title="../Sprite.hxx">
<polygon fill="none" stroke="black" points="364.296,-112.5 364.296,-131.5 438.296,-131.5 438.296,-112.5 364.296,-112.5"/>
<text text-anchor="middle" x="401.296" y="-119.5" font-family="Helvetica,sans-Serif" font-size="10.00">../Sprite.hxx</text>
</a>
</g>
</g>
<!-- Node15&#45;&gt;Node17 -->
<g id="edge29" class="edge"><title>Node15&#45;&gt;Node17</title>
<path fill="none" stroke="midnightblue" d="M481.872,-168.324C466.756,-159.822 443.48,-146.729 425.825,-136.797"/>
<polygon fill="midnightblue" stroke="midnightblue" points="427.113,-133.507 416.682,-131.655 423.681,-139.608 427.113,-133.507"/>
</g>
<!-- Node18 -->
<g id="node18" class="node"><title>Node18</title>
<g id="a_node18"><a xlink:href="enums_8hxx.html" target="_top" xlink:title="common/enums.hxx">
<polygon fill="none" stroke="black" points="278.796,-56.5 278.796,-75.5 393.796,-75.5 393.796,-56.5 278.796,-56.5"/>
<text text-anchor="middle" x="336.296" y="-63.5" font-family="Helvetica,sans-Serif" font-size="10.00">common/enums.hxx</text>
</a>
</g>
</g>
<!-- Node15&#45;&gt;Node18 -->
<g id="edge35" class="edge"><title>Node15&#45;&gt;Node18</title>
<path fill="none" stroke="midnightblue" d="M426.081,-168.493C400.801,-162.157 374.008,-151.138 355.296,-132 343.362,-119.795 338.854,-100.527 337.186,-86.1328"/>
<polygon fill="midnightblue" stroke="midnightblue" points="340.651,-85.5536 336.37,-75.8621 333.673,-86.1078 340.651,-85.5536"/>
</g>
<!-- Node20 -->
<g id="node20" class="node"><title>Node20</title>
<g id="a_node20"><a xlink:href="TileManager_8hxx.html" target="_top" xlink:title="../TileManager.hxx">
<polygon fill="none" stroke="black" points="722.296,-112.5 722.296,-131.5 824.296,-131.5 824.296,-112.5 722.296,-112.5"/>
<text text-anchor="middle" x="773.296" y="-119.5" font-family="Helvetica,sans-Serif" font-size="10.00">../TileManager.hxx</text>
</a>
</g>
</g>
<!-- Node15&#45;&gt;Node20 -->
<g id="edge37" class="edge"><title>Node15&#45;&gt;Node20</title>
<path fill="none" stroke="midnightblue" d="M541.029,-168.444C589.479,-158.964 667.625,-143.675 719.714,-133.483"/>
<polygon fill="midnightblue" stroke="midnightblue" points="720.626,-136.871 729.767,-131.516 719.281,-130.002 720.626,-136.871"/>
</g>
<!-- Node17&#45;&gt;Node3 -->
<g id="edge30" class="edge"><title>Node17&#45;&gt;Node3</title>
<path fill="none" stroke="midnightblue" d="M406.745,-112.083C411.31,-104.613 417.964,-93.7244 423.589,-84.5199"/>
<polygon fill="midnightblue" stroke="midnightblue" points="426.72,-86.109 428.948,-75.7511 420.747,-82.4588 426.72,-86.109"/>
</g>
<!-- Node17&#45;&gt;Node4 -->
<g id="edge32" class="edge"><title>Node17&#45;&gt;Node4</title>
<path fill="none" stroke="midnightblue" d="M364.183,-113.605C313.492,-103.504 222.943,-85.461 170.626,-75.0362"/>
<polygon fill="midnightblue" stroke="midnightblue" points="171.187,-71.5792 160.695,-73.0575 169.819,-78.4443 171.187,-71.5792"/>
</g>
<!-- Node17&#45;&gt;Node6 -->
<g id="edge31" class="edge"><title>Node17&#45;&gt;Node6</title>
<path fill="none" stroke="midnightblue" d="M418.327,-112.324C435.326,-103.664 461.672,-90.2424 481.289,-80.249"/>
<polygon fill="midnightblue" stroke="midnightblue" points="482.986,-83.3125 490.307,-75.6545 479.808,-77.0752 482.986,-83.3125"/>
</g>
<!-- Node17&#45;&gt;Node18 -->
<g id="edge33" class="edge"><title>Node17&#45;&gt;Node18</title>
<path fill="none" stroke="midnightblue" d="M390.852,-112.324C381.15,-104.263 366.481,-92.0765 354.796,-82.3695"/>
<polygon fill="midnightblue" stroke="midnightblue" points="356.858,-79.532 346.929,-75.8339 352.385,-84.9163 356.858,-79.532"/>
</g>
<!-- Node19 -->
<g id="node19" class="node"><title>Node19</title>
<polygon fill="none" stroke="#bfbfbf" points="308.796,-0.5 308.796,-19.5 363.796,-19.5 363.796,-0.5 308.796,-0.5"/>
<text text-anchor="middle" x="336.296" y="-7.5" font-family="Helvetica,sans-Serif" font-size="10.00">stddef.h</text>
</g>
<!-- Node18&#45;&gt;Node19 -->
<g id="edge34" class="edge"><title>Node18&#45;&gt;Node19</title>
<path fill="none" stroke="midnightblue" d="M336.296,-56.083C336.296,-49.0059 336.296,-38.8611 336.296,-29.9865"/>
<polygon fill="midnightblue" stroke="midnightblue" points="339.796,-29.751 336.296,-19.7511 332.796,-29.7511 339.796,-29.751"/>
</g>
<!-- Node20&#45;&gt;Node3 -->
<g id="edge38" class="edge"><title>Node20&#45;&gt;Node3</title>
<path fill="none" stroke="midnightblue" d="M722.054,-114.43C662.354,-106.511 560.847,-92.2283 474.296,-76 471.935,-75.5573 469.501,-75.0749 467.055,-74.5709"/>
<polygon fill="midnightblue" stroke="midnightblue" points="467.595,-71.1071 457.082,-72.4246 466.122,-77.9504 467.595,-71.1071"/>
</g>
<!-- Node20&#45;&gt;Node9 -->
<g id="edge40" class="edge"><title>Node20&#45;&gt;Node9</title>
<path fill="none" stroke="midnightblue" d="M761.221,-112.398C745.005,-99.7745 719.711,-75.6034 733.296,-56 752.85,-27.7838 792.422,-17.2333 820.78,-13.3037"/>
<polygon fill="midnightblue" stroke="midnightblue" points="821.512,-16.7419 831.035,-12.0988 820.695,-9.78976 821.512,-16.7419"/>
</g>
<!-- Node20&#45;&gt;Node10 -->
<g id="edge44" class="edge"><title>Node20&#45;&gt;Node10</title>
<path fill="none" stroke="midnightblue" d="M822.258,-112.444C876.84,-102.905 965.085,-87.4834 1023.4,-77.293"/>
<polygon fill="midnightblue" stroke="midnightblue" points="1024.31,-80.6857 1033.56,-75.5164 1023.11,-73.7902 1024.31,-80.6857"/>
</g>
<!-- Node21 -->
<g id="node21" class="node"><title>Node21</title>
<polygon fill="none" stroke="#bfbfbf" points="592.796,-56.5 592.796,-75.5 685.796,-75.5 685.796,-56.5 592.796,-56.5"/>
<text text-anchor="middle" x="639.296" y="-63.5" font-family="Helvetica,sans-Serif" font-size="10.00">unordered_map</text>
</g>
<!-- Node20&#45;&gt;Node21 -->
<g id="edge39" class="edge"><title>Node20&#45;&gt;Node21</title>
<path fill="none" stroke="midnightblue" d="M752.063,-112.444C729.912,-103.517 694.977,-89.4387 669.86,-79.3168"/>
<polygon fill="midnightblue" stroke="midnightblue" points="671.013,-76.0079 660.429,-75.5164 668.396,-82.5006 671.013,-76.0079"/>
</g>
<!-- Node22 -->
<g id="node22" class="node"><title>Node22</title>
<g id="a_node22"><a xlink:href="tileData_8hxx.html" target="_top" xlink:title="tileData.hxx">
<polygon fill="none" stroke="black" points="816.296,-56.5 816.296,-75.5 890.296,-75.5 890.296,-56.5 816.296,-56.5"/>
<text text-anchor="middle" x="853.296" y="-63.5" font-family="Helvetica,sans-Serif" font-size="10.00">tileData.hxx</text>
</a>
</g>
</g>
<!-- Node20&#45;&gt;Node22 -->
<g id="edge41" class="edge"><title>Node20&#45;&gt;Node22</title>
<path fill="none" stroke="midnightblue" d="M786.149,-112.324C798.512,-103.979 817.426,-91.2122 832.033,-81.3524"/>
<polygon fill="midnightblue" stroke="midnightblue" points="834.144,-84.1503 840.474,-75.6545 830.228,-78.3483 834.144,-84.1503"/>
</g>
<!-- Node23 -->
<g id="node23" class="node"><title>Node23</title>
<polygon fill="none" stroke="#bfbfbf" points="742.296,-56.5 742.296,-75.5 798.296,-75.5 798.296,-56.5 742.296,-56.5"/>
<text text-anchor="middle" x="770.296" y="-63.5" font-family="Helvetica,sans-Serif" font-size="10.00">json.hxx</text>
</g>
<!-- Node20&#45;&gt;Node23 -->
<g id="edge43" class="edge"><title>Node20&#45;&gt;Node23</title>
<path fill="none" stroke="midnightblue" d="M772.8,-112.083C772.407,-105.006 771.844,-94.8611 771.351,-85.9865"/>
<polygon fill="midnightblue" stroke="midnightblue" points="774.831,-85.5415 770.782,-75.7511 767.842,-85.9299 774.831,-85.5415"/>
</g>
<!-- Node22&#45;&gt;Node9 -->
<g id="edge42" class="edge"><title>Node22&#45;&gt;Node9</title>
<path fill="none" stroke="midnightblue" d="M853.296,-56.083C853.296,-49.0059 853.296,-38.8611 853.296,-29.9865"/>
<polygon fill="midnightblue" stroke="midnightblue" points="856.796,-29.751 853.296,-19.7511 849.796,-29.7511 856.796,-29.751"/>
</g>
<!-- Node24&#45;&gt;Node6 -->
<g id="edge48" class="edge"><title>Node24&#45;&gt;Node6</title>
<path fill="none" stroke="midnightblue" d="M599.411,-224.247C606.356,-203.087 620.798,-148.231 598.296,-112 585.75,-91.7994 561.151,-80.3922 540.689,-74.1205"/>
<polygon fill="midnightblue" stroke="midnightblue" points="541.62,-70.7466 531.048,-71.4382 539.744,-77.4905 541.62,-70.7466"/>
</g>
<!-- Node24&#45;&gt;Node15 -->
<g id="edge46" class="edge"><title>Node24&#45;&gt;Node15</title>
<path fill="none" stroke="midnightblue" d="M580.39,-224.324C564.658,-215.743 540.354,-202.486 522.087,-192.522"/>
<polygon fill="midnightblue" stroke="midnightblue" points="523.617,-189.37 513.162,-187.655 520.265,-195.516 523.617,-189.37"/>
</g>
<!-- Node25 -->
<g id="node25" class="node"><title>Node25</title>
<polygon fill="none" stroke="#bfbfbf" points="628.296,-168.5 628.296,-187.5 666.296,-187.5 666.296,-168.5 628.296,-168.5"/>
<text text-anchor="middle" x="647.296" y="-175.5" font-family="Helvetica,sans-Serif" font-size="10.00">map</text>
</g>
<!-- Node24&#45;&gt;Node25 -->
<g id="edge47" class="edge"><title>Node24&#45;&gt;Node25</title>
<path fill="none" stroke="midnightblue" d="M604.717,-224.083C612.144,-216.22 623.148,-204.569 632.108,-195.081"/>
<polygon fill="midnightblue" stroke="midnightblue" points="634.709,-197.424 639.031,-187.751 629.62,-192.618 634.709,-197.424"/>
</g>
</g>
</svg>
