<?xml version="1.0" encoding="UTF-8" standalone="no"?>
<!DOCTYPE svg PUBLIC "-//W3C//DTD SVG 1.1//EN"
 "http://www.w3.org/Graphics/SVG/1.1/DTD/svg11.dtd">
<!-- Generated by graphviz version 2.38.0 (20140413.2041)
 -->
<!-- Title: src/engine/ui/widgets/Checkbox.hxx Pages: 1 -->
<svg width="940pt" height="319pt"
 viewBox="0.00 0.00 939.98 319.00" xmlns="http://www.w3.org/2000/svg" xmlns:xlink="http://www.w3.org/1999/xlink">
<g id="graph0" class="graph" transform="scale(1 1) rotate(0) translate(4 315)">
<title>src/engine/ui/widgets/Checkbox.hxx</title>
<!-- Node1 -->
<g id="node1" class="node"><title>Node1</title>
<polygon fill="#bfbfbf" stroke="black" points="271.476,-280.5 271.476,-310.5 387.476,-310.5 387.476,-280.5 271.476,-280.5"/>
<text text-anchor="start" x="279.476" y="-298.5" font-family="Helvetica,sans-Serif" font-size="10.00">src/engine/ui/widgets</text>
<text text-anchor="middle" x="329.476" y="-287.5" font-family="Helvetica,sans-Serif" font-size="10.00">/Checkbox.hxx</text>
</g>
<!-- Node2 -->
<g id="node2" class="node"><title>Node2</title>
<g id="a_node2"><a xlink:href="UIElement_8hxx.html" target="_top" xlink:title="../basics/UIElement.hxx">
<polygon fill="none" stroke="black" points="265.476,-224.5 265.476,-243.5 393.476,-243.5 393.476,-224.5 265.476,-224.5"/>
<text text-anchor="middle" x="329.476" y="-231.5" font-family="Helvetica,sans-Serif" font-size="10.00">../basics/UIElement.hxx</text>
</a>
</g>
</g>
<!-- Node1&#45;&gt;Node2 -->
<g id="edge1" class="edge"><title>Node1&#45;&gt;Node2</title>
<path fill="none" stroke="midnightblue" d="M329.476,-280.399C329.476,-272.466 329.476,-262.458 329.476,-253.858"/>
<polygon fill="midnightblue" stroke="midnightblue" points="332.976,-253.658 329.476,-243.658 325.976,-253.658 332.976,-253.658"/>
</g>
<!-- Node3 -->
<g id="node3" class="node"><title>Node3</title>
<polygon fill="none" stroke="#bfbfbf" points="256.476,-0.5 256.476,-19.5 300.476,-19.5 300.476,-0.5 256.476,-0.5"/>
<text text-anchor="middle" x="278.476" y="-7.5" font-family="Helvetica,sans-Serif" font-size="10.00">string</text>
</g>
<!-- Node2&#45;&gt;Node3 -->
<g id="edge2" class="edge"><title>Node2&#45;&gt;Node3</title>
<path fill="none" stroke="midnightblue" d="M265.283,-232.18C190.114,-229.7 72.299,-220.561 44.4761,-188 20.1693,-159.554 -49.978,-173.755 62.4761,-56 87.3398,-29.9643 192.143,-17.9014 246.089,-13.3288"/>
<polygon fill="midnightblue" stroke="midnightblue" points="246.477,-16.8089 256.161,-12.5122 245.911,-9.83181 246.477,-16.8089"/>
</g>
<!-- Node4 -->
<g id="node4" class="node"><title>Node4</title>
<g id="a_node4"><a xlink:href="mapEdit_8hxx.html" target="_top" xlink:title="../../basics/mapEdit.hxx">
<polygon fill="none" stroke="black" points="53.9761,-168.5 53.9761,-187.5 180.976,-187.5 180.976,-168.5 53.9761,-168.5"/>
<text text-anchor="middle" x="117.476" y="-175.5" font-family="Helvetica,sans-Serif" font-size="10.00">../../basics/mapEdit.hxx</text>
</a>
</g>
</g>
<!-- Node2&#45;&gt;Node4 -->
<g id="edge3" class="edge"><title>Node2&#45;&gt;Node4</title>
<path fill="none" stroke="midnightblue" d="M295.884,-224.444C259.289,-215.122 200.638,-200.183 160.65,-189.997"/>
<polygon fill="midnightblue" stroke="midnightblue" points="161.465,-186.593 150.911,-187.516 159.738,-193.377 161.465,-186.593"/>
</g>
<!-- Node5 -->
<g id="node5" class="node"><title>Node5</title>
<g id="a_node5"><a xlink:href="ResourcesManager_8hxx.html" target="_top" xlink:title="../../ResourcesManager.hxx">
<polygon fill="none" stroke="black" points="207.476,-168.5 207.476,-187.5 351.476,-187.5 351.476,-168.5 207.476,-168.5"/>
<text text-anchor="middle" x="279.476" y="-175.5" font-family="Helvetica,sans-Serif" font-size="10.00">../../ResourcesManager.hxx</text>
</a>
</g>
</g>
<!-- Node2&#45;&gt;Node5 -->
<g id="edge5" class="edge"><title>Node2&#45;&gt;Node5</title>
<path fill="none" stroke="midnightblue" d="M321.22,-224.083C314.011,-216.298 303.366,-204.801 294.63,-195.367"/>
<polygon fill="midnightblue" stroke="midnightblue" points="296.941,-192.711 287.579,-187.751 291.805,-197.467 296.941,-192.711"/>
</g>
<!-- Node8 -->
<g id="node8" class="node"><title>Node8</title>
<polygon fill="none" stroke="#bfbfbf" points="398.976,-56.5 398.976,-75.5 443.976,-75.5 443.976,-56.5 398.976,-56.5"/>
<text text-anchor="middle" x="421.476" y="-63.5" font-family="Helvetica,sans-Serif" font-size="10.00">SDL.h</text>
</g>
<!-- Node2&#45;&gt;Node8 -->
<g id="edge29" class="edge"><title>Node2&#45;&gt;Node8</title>
<path fill="none" stroke="midnightblue" d="M336.028,-224.276C342.578,-215.381 352.758,-201.07 360.476,-188 379.679,-155.482 381.438,-145.703 398.476,-112 403.035,-102.982 408.147,-92.9701 412.392,-84.6839"/>
<polygon fill="midnightblue" stroke="midnightblue" points="415.594,-86.1104 417.044,-75.6153 409.366,-82.9153 415.594,-86.1104"/>
</g>
<!-- Node13 -->
<g id="node13" class="node"><title>Node13</title>
<g id="a_node13"><a xlink:href="WindowManager_8hxx.html" target="_top" xlink:title="../../WindowManager.hxx">
<polygon fill="none" stroke="black" points="448.976,-168.5 448.976,-187.5 579.976,-187.5 579.976,-168.5 448.976,-168.5"/>
<text text-anchor="middle" x="514.476" y="-175.5" font-family="Helvetica,sans-Serif" font-size="10.00">../../WindowManager.hxx</text>
</a>
</g>
</g>
<!-- Node2&#45;&gt;Node13 -->
<g id="edge17" class="edge"><title>Node2&#45;&gt;Node13</title>
<path fill="none" stroke="midnightblue" d="M358.79,-224.444C390.318,-215.241 440.607,-200.562 475.462,-190.388"/>
<polygon fill="midnightblue" stroke="midnightblue" points="476.681,-193.678 485.299,-187.516 474.719,-186.959 476.681,-193.678"/>
</g>
<!-- Node15 -->
<g id="node15" class="node"><title>Node15</title>
<g id="a_node15"><a xlink:href="signal_8hxx.html" target="_top" xlink:title="../../basics/signal.hxx">
<polygon fill="none" stroke="black" points="670.976,-168.5 670.976,-187.5 785.976,-187.5 785.976,-168.5 670.976,-168.5"/>
<text text-anchor="middle" x="728.476" y="-175.5" font-family="Helvetica,sans-Serif" font-size="10.00">../../basics/signal.hxx</text>
</a>
</g>
</g>
<!-- Node2&#45;&gt;Node15 -->
<g id="edge23" class="edge"><title>Node2&#45;&gt;Node15</title>
<path fill="none" stroke="midnightblue" d="M392.699,-224.444C465.733,-214.559 585.444,-198.358 660.453,-188.206"/>
<polygon fill="midnightblue" stroke="midnightblue" points="661.291,-191.625 670.731,-186.815 660.352,-184.688 661.291,-191.625"/>
</g>
<!-- Node4&#45;&gt;Node3 -->
<g id="edge4" class="edge"><title>Node4&#45;&gt;Node3</title>
<path fill="none" stroke="midnightblue" d="M109.348,-168.439C90.2093,-147.239 45.9906,-91.4539 74.4761,-56 95.6748,-29.6155 194.397,-17.7838 246.335,-13.3095"/>
<polygon fill="midnightblue" stroke="midnightblue" points="246.683,-16.7928 256.363,-12.4871 246.11,-9.81625 246.683,-16.7928"/>
</g>
<!-- Node6 -->
<g id="node6" class="node"><title>Node6</title>
<polygon fill="none" stroke="#bfbfbf" points="407.976,-112.5 407.976,-131.5 466.976,-131.5 466.976,-112.5 407.976,-112.5"/>
<text text-anchor="middle" x="437.476" y="-119.5" font-family="Helvetica,sans-Serif" font-size="10.00">iostream</text>
</g>
<!-- Node5&#45;&gt;Node6 -->
<g id="edge6" class="edge"><title>Node5&#45;&gt;Node6</title>
<path fill="none" stroke="midnightblue" d="M304.512,-168.444C331.092,-159.359 373.285,-144.939 403,-134.783"/>
<polygon fill="midnightblue" stroke="midnightblue" points="404.227,-138.062 412.558,-131.516 401.963,-131.439 404.227,-138.062"/>
</g>
<!-- Node7 -->
<g id="node7" class="node"><title>Node7</title>
<polygon fill="none" stroke="#bfbfbf" points="83.9761,-56.5 83.9761,-75.5 176.976,-75.5 176.976,-56.5 83.9761,-56.5"/>
<text text-anchor="middle" x="130.476" y="-63.5" font-family="Helvetica,sans-Serif" font-size="10.00">unordered_map</text>
</g>
<!-- Node5&#45;&gt;Node7 -->
<g id="edge7" class="edge"><title>Node5&#45;&gt;Node7</title>
<path fill="none" stroke="midnightblue" d="M265.444,-168.45C251.295,-159.69 228.964,-145.483 210.476,-132 188.517,-115.985 164.456,-96.0952 148.516,-82.5643"/>
<polygon fill="midnightblue" stroke="midnightblue" points="150.437,-79.602 140.561,-75.7664 145.889,-84.9237 150.437,-79.602"/>
</g>
<!-- Node5&#45;&gt;Node8 -->
<g id="edge8" class="edge"><title>Node5&#45;&gt;Node8</title>
<path fill="none" stroke="midnightblue" d="M290.619,-168.368C314.778,-149.653 372.227,-105.151 402.329,-81.8324"/>
<polygon fill="midnightblue" stroke="midnightblue" points="404.623,-84.4824 410.385,-75.5914 400.336,-78.9485 404.623,-84.4824"/>
</g>
<!-- Node9 -->
<g id="node9" class="node"><title>Node9</title>
<g id="a_node9"><a xlink:href="TileManager_8hxx.html" target="_top" xlink:title="TileManager.hxx">
<polygon fill="none" stroke="black" points="219.976,-112.5 219.976,-131.5 312.976,-131.5 312.976,-112.5 219.976,-112.5"/>
<text text-anchor="middle" x="266.476" y="-119.5" font-family="Helvetica,sans-Serif" font-size="10.00">TileManager.hxx</text>
</a>
</g>
</g>
<!-- Node5&#45;&gt;Node9 -->
<g id="edge9" class="edge"><title>Node5&#45;&gt;Node9</title>
<path fill="none" stroke="midnightblue" d="M277.329,-168.083C275.607,-160.927 273.129,-150.635 270.976,-141.691"/>
<polygon fill="midnightblue" stroke="midnightblue" points="274.326,-140.654 268.583,-131.751 267.521,-142.293 274.326,-140.654"/>
</g>
<!-- Node9&#45;&gt;Node3 -->
<g id="edge12" class="edge"><title>Node9&#45;&gt;Node3</title>
<path fill="none" stroke="midnightblue" d="M267.418,-112.368C269.354,-94.617 273.822,-53.6664 276.447,-29.5974"/>
<polygon fill="midnightblue" stroke="midnightblue" points="279.934,-29.912 277.539,-19.5914 272.975,-29.1528 279.934,-29.912"/>
</g>
<!-- Node9&#45;&gt;Node7 -->
<g id="edge11" class="edge"><title>Node9&#45;&gt;Node7</title>
<path fill="none" stroke="midnightblue" d="M244.926,-112.444C222.445,-103.517 186.988,-89.4387 161.496,-79.3168"/>
<polygon fill="midnightblue" stroke="midnightblue" points="162.511,-75.9539 151.925,-75.5164 159.927,-82.4598 162.511,-75.9539"/>
</g>
<!-- Node9&#45;&gt;Node8 -->
<g id="edge10" class="edge"><title>Node9&#45;&gt;Node8</title>
<path fill="none" stroke="midnightblue" d="M291.036,-112.444C317.457,-103.239 359.601,-88.5565 388.804,-78.3826"/>
<polygon fill="midnightblue" stroke="midnightblue" points="390.255,-81.5835 398.547,-74.9883 387.952,-74.9731 390.255,-81.5835"/>
</g>
<!-- Node10 -->
<g id="node10" class="node"><title>Node10</title>
<g id="a_node10"><a xlink:href="tileData_8hxx.html" target="_top" xlink:title="tileData.hxx">
<polygon fill="none" stroke="black" points="306.476,-56.5 306.476,-75.5 380.476,-75.5 380.476,-56.5 306.476,-56.5"/>
<text text-anchor="middle" x="343.476" y="-63.5" font-family="Helvetica,sans-Serif" font-size="10.00">tileData.hxx</text>
</a>
</g>
</g>
<!-- Node9&#45;&gt;Node10 -->
<g id="edge13" class="edge"><title>Node9&#45;&gt;Node10</title>
<path fill="none" stroke="midnightblue" d="M278.847,-112.324C290.635,-104.058 308.608,-91.4527 322.612,-81.6322"/>
<polygon fill="midnightblue" stroke="midnightblue" points="324.958,-84.2619 331.135,-75.6545 320.938,-78.5307 324.958,-84.2619"/>
</g>
<!-- Node11 -->
<g id="node11" class="node"><title>Node11</title>
<polygon fill="none" stroke="#bfbfbf" points="194.476,-56.5 194.476,-75.5 250.476,-75.5 250.476,-56.5 194.476,-56.5"/>
<text text-anchor="middle" x="222.476" y="-63.5" font-family="Helvetica,sans-Serif" font-size="10.00">json.hxx</text>
</g>
<!-- Node9&#45;&gt;Node11 -->
<g id="edge15" class="edge"><title>Node9&#45;&gt;Node11</title>
<path fill="none" stroke="midnightblue" d="M259.21,-112.083C252.931,-104.377 243.688,-93.0333 236.045,-83.6531"/>
<polygon fill="midnightblue" stroke="midnightblue" points="238.637,-81.2926 229.607,-75.7511 233.21,-85.7143 238.637,-81.2926"/>
</g>
<!-- Node12 -->
<g id="node12" class="node"><title>Node12</title>
<g id="a_node12"><a xlink:href="Singleton_8hxx.html" target="_top" xlink:title="Singleton.hxx">
<polygon fill="none" stroke="black" points="461.976,-56.5 461.976,-75.5 542.976,-75.5 542.976,-56.5 461.976,-56.5"/>
<text text-anchor="middle" x="502.476" y="-63.5" font-family="Helvetica,sans-Serif" font-size="10.00">Singleton.hxx</text>
</a>
</g>
</g>
<!-- Node9&#45;&gt;Node12 -->
<g id="edge16" class="edge"><title>Node9&#45;&gt;Node12</title>
<path fill="none" stroke="midnightblue" d="M303.871,-112.444C344.868,-103.063 410.731,-87.9926 455.26,-77.8036"/>
<polygon fill="midnightblue" stroke="midnightblue" points="456.289,-81.1588 465.256,-75.5164 454.727,-74.3352 456.289,-81.1588"/>
</g>
<!-- Node10&#45;&gt;Node3 -->
<g id="edge14" class="edge"><title>Node10&#45;&gt;Node3</title>
<path fill="none" stroke="midnightblue" d="M333.033,-56.324C323.33,-48.2631 308.661,-36.0765 296.976,-26.3695"/>
<polygon fill="midnightblue" stroke="midnightblue" points="299.038,-23.532 289.109,-19.8339 294.565,-28.9163 299.038,-23.532"/>
</g>
<!-- Node13&#45;&gt;Node3 -->
<g id="edge18" class="edge"><title>Node13&#45;&gt;Node3</title>
<path fill="none" stroke="midnightblue" d="M522.025,-168.28C539.761,-146.717 580.473,-90.1673 551.476,-56 520.93,-20.0061 376.351,-12.7562 310.857,-11.33"/>
<polygon fill="midnightblue" stroke="midnightblue" points="310.75,-7.82752 300.687,-11.142 310.621,-14.8263 310.75,-7.82752"/>
</g>
<!-- Node13&#45;&gt;Node6 -->
<g id="edge19" class="edge"><title>Node13&#45;&gt;Node6</title>
<path fill="none" stroke="midnightblue" d="M502.105,-168.324C490.318,-160.058 472.344,-147.453 458.341,-137.632"/>
<polygon fill="midnightblue" stroke="midnightblue" points="460.014,-134.531 449.817,-131.655 455.994,-140.262 460.014,-134.531"/>
</g>
<!-- Node13&#45;&gt;Node8 -->
<g id="edge21" class="edge"><title>Node13&#45;&gt;Node8</title>
<path fill="none" stroke="midnightblue" d="M510.489,-168.406C504.195,-155.37 491.056,-130.191 475.476,-112 465.704,-100.591 452.845,-89.7494 442.126,-81.5676"/>
<polygon fill="midnightblue" stroke="midnightblue" points="444.209,-78.7543 434.089,-75.6161 440.043,-84.3799 444.209,-78.7543"/>
</g>
<!-- Node13&#45;&gt;Node12 -->
<g id="edge22" class="edge"><title>Node13&#45;&gt;Node12</title>
<path fill="none" stroke="midnightblue" d="M514.013,-168.148C513.309,-155.62 511.799,-132.012 509.476,-112 508.461,-103.253 507.004,-93.5994 505.682,-85.4838"/>
<polygon fill="midnightblue" stroke="midnightblue" points="509.13,-84.8794 504.017,-75.5998 502.227,-86.0423 509.13,-84.8794"/>
</g>
<!-- Node14 -->
<g id="node14" class="node"><title>Node14</title>
<polygon fill="none" stroke="#bfbfbf" points="599.976,-112.5 599.976,-131.5 646.976,-131.5 646.976,-112.5 599.976,-112.5"/>
<text text-anchor="middle" x="623.476" y="-119.5" font-family="Helvetica,sans-Serif" font-size="10.00">vector</text>
</g>
<!-- Node13&#45;&gt;Node14 -->
<g id="edge20" class="edge"><title>Node13&#45;&gt;Node14</title>
<path fill="none" stroke="midnightblue" d="M531.989,-168.324C549.548,-159.625 576.807,-146.12 597.007,-136.113"/>
<polygon fill="midnightblue" stroke="midnightblue" points="598.6,-139.23 606.007,-131.655 595.492,-132.958 598.6,-139.23"/>
</g>
<!-- Node15&#45;&gt;Node14 -->
<g id="edge27" class="edge"><title>Node15&#45;&gt;Node14</title>
<path fill="none" stroke="midnightblue" d="M711.606,-168.324C694.767,-159.664 668.67,-146.242 649.238,-136.249"/>
<polygon fill="midnightblue" stroke="midnightblue" points="650.798,-133.116 640.304,-131.655 647.596,-139.341 650.798,-133.116"/>
</g>
<!-- Node16 -->
<g id="node16" class="node"><title>Node16</title>
<polygon fill="none" stroke="#bfbfbf" points="874.976,-112.5 874.976,-131.5 931.976,-131.5 931.976,-112.5 874.976,-112.5"/>
<text text-anchor="middle" x="903.476" y="-119.5" font-family="Helvetica,sans-Serif" font-size="10.00">memory</text>
</g>
<!-- Node15&#45;&gt;Node16 -->
<g id="edge24" class="edge"><title>Node15&#45;&gt;Node16</title>
<path fill="none" stroke="midnightblue" d="M756.205,-168.444C785.902,-159.28 833.192,-144.688 866.145,-134.519"/>
<polygon fill="midnightblue" stroke="midnightblue" points="867.353,-137.809 875.877,-131.516 865.289,-131.121 867.353,-137.809"/>
</g>
<!-- Node17 -->
<g id="node17" class="node"><title>Node17</title>
<polygon fill="none" stroke="#bfbfbf" points="664.976,-112.5 664.976,-131.5 727.976,-131.5 727.976,-112.5 664.976,-112.5"/>
<text text-anchor="middle" x="696.476" y="-119.5" font-family="Helvetica,sans-Serif" font-size="10.00">functional</text>
</g>
<!-- Node15&#45;&gt;Node17 -->
<g id="edge25" class="edge"><title>Node15&#45;&gt;Node17</title>
<path fill="none" stroke="midnightblue" d="M723.192,-168.083C718.765,-160.613 712.313,-149.724 706.858,-140.52"/>
<polygon fill="midnightblue" stroke="midnightblue" points="709.771,-138.57 701.662,-131.751 703.749,-142.138 709.771,-138.57"/>
</g>
<!-- Node18 -->
<g id="node18" class="node"><title>Node18</title>
<polygon fill="none" stroke="#bfbfbf" points="746.476,-112.5 746.476,-131.5 776.476,-131.5 776.476,-112.5 746.476,-112.5"/>
<text text-anchor="middle" x="761.476" y="-119.5" font-family="Helvetica,sans-Serif" font-size="10.00">list</text>
</g>
<!-- Node15&#45;&gt;Node18 -->
<g id="edge26" class="edge"><title>Node15&#45;&gt;Node18</title>
<path fill="none" stroke="midnightblue" d="M733.925,-168.083C738.491,-160.613 745.145,-149.724 750.77,-140.52"/>
<polygon fill="midnightblue" stroke="midnightblue" points="753.9,-142.109 756.128,-131.751 747.927,-138.459 753.9,-142.109"/>
</g>
<!-- Node19 -->
<g id="node19" class="node"><title>Node19</title>
<polygon fill="none" stroke="#bfbfbf" points="794.476,-112.5 794.476,-131.5 856.476,-131.5 856.476,-112.5 794.476,-112.5"/>
<text text-anchor="middle" x="825.476" y="-119.5" font-family="Helvetica,sans-Serif" font-size="10.00">algorithm</text>
</g>
<!-- Node15&#45;&gt;Node19 -->
<g id="edge28" class="edge"><title>Node15&#45;&gt;Node19</title>
<path fill="none" stroke="midnightblue" d="M744.061,-168.324C759.475,-159.743 783.288,-146.486 801.186,-136.522"/>
<polygon fill="midnightblue" stroke="midnightblue" points="802.895,-139.577 809.93,-131.655 799.49,-133.461 802.895,-139.577"/>
</g>
</g>
</svg>
