<?xml version="1.0" encoding="UTF-8" standalone="no"?>
<!DOCTYPE svg PUBLIC "-//W3C//DTD SVG 1.1//EN"
 "http://www.w3.org/Graphics/SVG/1.1/DTD/svg11.dtd">
<!-- Generated by graphviz version 2.38.0 (20140413.2041)
 -->
<!-- Title: Signal::Lib::ProtoSignal&lt; typename, typename &gt; Pages: 1 -->
<svg width="856pt" height="681pt"
 viewBox="0.00 0.00 855.50 681.00" xmlns="http://www.w3.org/2000/svg" xmlns:xlink="http://www.w3.org/1999/xlink">
<g id="graph0" class="graph" transform="scale(1 1) rotate(0) translate(4 677)">
<title>Signal::Lib::ProtoSignal&lt; typename, typename &gt;</title>
<!-- Node1 -->
<g id="node1" class="node"><title>Node1</title>
<polygon fill="#bfbfbf" stroke="black" points="346,-604.5 346,-672.5 489,-672.5 489,-604.5 346,-604.5"/>
<text text-anchor="start" x="354" y="-660.5" font-family="Helvetica,sans-Serif" font-size="10.00">Signal::Lib::ProtoSignal</text>
<text text-anchor="middle" x="417.5" y="-649.5" font-family="Helvetica,sans-Serif" font-size="10.00">&lt; typename, typename &gt;</text>
<polyline fill="none" stroke="black" points="346,-642.5 489,-642.5 "/>
<text text-anchor="middle" x="417.5" y="-630.5" font-family="Helvetica,sans-Serif" font-size="10.00"> </text>
<polyline fill="none" stroke="black" points="346,-623.5 489,-623.5 "/>
<text text-anchor="middle" x="417.5" y="-611.5" font-family="Helvetica,sans-Serif" font-size="10.00"> </text>
</g>
<!-- Node2 -->
<g id="node2" class="node"><title>Node2</title>
<g id="a_node2"><a xlink:href="classSignal_1_1Lib_1_1ProtoSignal.html" target="_top" xlink:title="{Signal::Lib::ProtoSignal\l\&lt; void(const std::string\l &amp;, UIElement *sender), Lib\l::CollectorDefault\&lt; typename\l std::function\&lt; void(const std\l::string &amp;, UIElement *sender)\l \&gt;::result_type \&gt; \&gt;\n||}">
<polygon fill="none" stroke="black" points="0,-258.5 0,-381.5 161,-381.5 161,-258.5 0,-258.5"/>
<text text-anchor="start" x="8" y="-369.5" font-family="Helvetica,sans-Serif" font-size="10.00">Signal::Lib::ProtoSignal</text>
<text text-anchor="start" x="8" y="-358.5" font-family="Helvetica,sans-Serif" font-size="10.00">&lt; void(const std::string</text>
<text text-anchor="start" x="8" y="-347.5" font-family="Helvetica,sans-Serif" font-size="10.00"> &amp;, UIElement *sender), Lib</text>
<text text-anchor="start" x="8" y="-336.5" font-family="Helvetica,sans-Serif" font-size="10.00">::CollectorDefault&lt; typename</text>
<text text-anchor="start" x="8" y="-325.5" font-family="Helvetica,sans-Serif" font-size="10.00"> std::function&lt; void(const std</text>
<text text-anchor="start" x="8" y="-314.5" font-family="Helvetica,sans-Serif" font-size="10.00">::string &amp;, UIElement *sender)</text>
<text text-anchor="middle" x="80.5" y="-303.5" font-family="Helvetica,sans-Serif" font-size="10.00"> &gt;::result_type &gt; &gt;</text>
<polyline fill="none" stroke="black" points="0,-296.5 161,-296.5 "/>
<text text-anchor="middle" x="80.5" y="-284.5" font-family="Helvetica,sans-Serif" font-size="10.00"> </text>
<polyline fill="none" stroke="black" points="0,-277.5 161,-277.5 "/>
<text text-anchor="middle" x="80.5" y="-265.5" font-family="Helvetica,sans-Serif" font-size="10.00"> </text>
</a>
</g>
</g>
<!-- Node1&#45;&gt;Node2 -->
<g id="edge1" class="edge"><title>Node1&#45;&gt;Node2</title>
<path fill="none" stroke="orange" d="M335.781,-635.216C253.105,-631.044 133.226,-619.262 102.5,-586 52.3012,-531.658 56.3283,-441.51 66.3633,-381.678"/>
<polygon fill="orange" stroke="orange" points="335.767,-638.719 345.923,-635.699 336.101,-631.727 335.767,-638.719"/>
<text text-anchor="start" x="102.5" y="-578" font-family="Helvetica,sans-Serif" font-size="10.00"> &lt; void(const std::string</text>
<text text-anchor="start" x="102.5" y="-567" font-family="Helvetica,sans-Serif" font-size="10.00"> &amp;, UIElement *sender),</text>
<text text-anchor="start" x="102.5" y="-556" font-family="Helvetica,sans-Serif" font-size="10.00"> Lib::CollectorDefault&lt;</text>
<text text-anchor="start" x="102.5" y="-545" font-family="Helvetica,sans-Serif" font-size="10.00"> typename std::function&lt;</text>
<text text-anchor="start" x="102.5" y="-534" font-family="Helvetica,sans-Serif" font-size="10.00"> void(const std::string &amp;,</text>
<text text-anchor="start" x="102.5" y="-523" font-family="Helvetica,sans-Serif" font-size="10.00"> UIElement *sender) &gt;::result</text>
<text text-anchor="middle" x="173.5" y="-512" font-family="Helvetica,sans-Serif" font-size="10.00">_type &gt; &gt;</text>
</g>
<!-- Node4 -->
<g id="node4" class="node"><title>Node4</title>
<g id="a_node4"><a xlink:href="classSignal_1_1Lib_1_1ProtoSignal.html" target="_top" xlink:title="{Signal::Lib::ProtoSignal\l\&lt; void(const std::string\l &amp;), Lib::CollectorDefault\l\&lt; typename std::function\&lt; void\l(const std::string &amp;) \&gt;::result_type \&gt; \&gt;\n||}">
<polygon fill="none" stroke="black" points="166.5,-269.5 166.5,-370.5 372.5,-370.5 372.5,-269.5 166.5,-269.5"/>
<text text-anchor="start" x="174.5" y="-358.5" font-family="Helvetica,sans-Serif" font-size="10.00">Signal::Lib::ProtoSignal</text>
<text text-anchor="start" x="174.5" y="-347.5" font-family="Helvetica,sans-Serif" font-size="10.00">&lt; void(const std::string</text>
<text text-anchor="start" x="174.5" y="-336.5" font-family="Helvetica,sans-Serif" font-size="10.00"> &amp;), Lib::CollectorDefault</text>
<text text-anchor="start" x="174.5" y="-325.5" font-family="Helvetica,sans-Serif" font-size="10.00">&lt; typename std::function&lt; void</text>
<text text-anchor="middle" x="269.5" y="-314.5" font-family="Helvetica,sans-Serif" font-size="10.00">(const std::string &amp;) &gt;::result_type &gt; &gt;</text>
<polyline fill="none" stroke="black" points="166.5,-307.5 372.5,-307.5 "/>
<text text-anchor="middle" x="269.5" y="-295.5" font-family="Helvetica,sans-Serif" font-size="10.00"> </text>
<polyline fill="none" stroke="black" points="166.5,-288.5 372.5,-288.5 "/>
<text text-anchor="middle" x="269.5" y="-276.5" font-family="Helvetica,sans-Serif" font-size="10.00"> </text>
</a>
</g>
</g>
<!-- Node1&#45;&gt;Node4 -->
<g id="edge3" class="edge"><title>Node1&#45;&gt;Node4</title>
<path fill="none" stroke="orange" d="M336.122,-625.052C313.573,-617.503 291.473,-605.398 277.5,-586 232.169,-523.07 243.046,-428.175 255.778,-370.657"/>
<polygon fill="orange" stroke="orange" points="335.204,-628.432 345.791,-628.017 337.256,-621.739 335.204,-628.432"/>
<text text-anchor="start" x="277.5" y="-567" font-family="Helvetica,sans-Serif" font-size="10.00"> &lt; void(const std::string</text>
<text text-anchor="start" x="277.5" y="-556" font-family="Helvetica,sans-Serif" font-size="10.00"> &amp;), Lib::CollectorDefault</text>
<text text-anchor="start" x="277.5" y="-545" font-family="Helvetica,sans-Serif" font-size="10.00">&lt; typename std::function&lt;</text>
<text text-anchor="start" x="277.5" y="-534" font-family="Helvetica,sans-Serif" font-size="10.00"> void(const std::string &amp;)</text>
<text text-anchor="middle" x="343" y="-523" font-family="Helvetica,sans-Serif" font-size="10.00"> &gt;::result_type &gt; &gt;</text>
</g>
<!-- Node6 -->
<g id="node6" class="node"><title>Node6</title>
<g id="a_node6"><a xlink:href="classSignal_1_1Lib_1_1ProtoSignal.html" target="_top" xlink:title="{Signal::Lib::ProtoSignal\l\&lt; SignalSignature, Collector \&gt;\n||}">
<polygon fill="none" stroke="black" points="327,-411.5 327,-479.5 490,-479.5 490,-411.5 327,-411.5"/>
<text text-anchor="start" x="335" y="-467.5" font-family="Helvetica,sans-Serif" font-size="10.00">Signal::Lib::ProtoSignal</text>
<text text-anchor="middle" x="408.5" y="-456.5" font-family="Helvetica,sans-Serif" font-size="10.00">&lt; SignalSignature, Collector &gt;</text>
<polyline fill="none" stroke="black" points="327,-449.5 490,-449.5 "/>
<text text-anchor="middle" x="408.5" y="-437.5" font-family="Helvetica,sans-Serif" font-size="10.00"> </text>
<polyline fill="none" stroke="black" points="327,-430.5 490,-430.5 "/>
<text text-anchor="middle" x="408.5" y="-418.5" font-family="Helvetica,sans-Serif" font-size="10.00"> </text>
</a>
</g>
</g>
<!-- Node1&#45;&gt;Node6 -->
<g id="edge5" class="edge"><title>Node1&#45;&gt;Node6</title>
<path fill="none" stroke="orange" d="M415.446,-593.914C413.811,-559.208 411.556,-511.361 410.065,-479.708"/>
<polygon fill="orange" stroke="orange" points="411.965,-594.406 415.932,-604.23 418.958,-594.077 411.965,-594.406"/>
<text text-anchor="start" x="415.5" y="-550.5" font-family="Helvetica,sans-Serif" font-size="10.00"> &lt; SignalSignature,</text>
<text text-anchor="middle" x="462.5" y="-539.5" font-family="Helvetica,sans-Serif" font-size="10.00"> Collector &gt;</text>
</g>
<!-- Node10 -->
<g id="node10" class="node"><title>Node10</title>
<g id="a_node10"><a xlink:href="classSignal_1_1Lib_1_1ProtoSignal.html" target="_top" xlink:title="{Signal::Lib::ProtoSignal\l\&lt; void(), Lib::CollectorDefault\l\&lt; typename std::function\&lt; void\l() \&gt;::result_type \&gt; \&gt;\n||}">
<polygon fill="none" stroke="black" points="677.5,-400.5 677.5,-490.5 847.5,-490.5 847.5,-400.5 677.5,-400.5"/>
<text text-anchor="start" x="685.5" y="-478.5" font-family="Helvetica,sans-Serif" font-size="10.00">Signal::Lib::ProtoSignal</text>
<text text-anchor="start" x="685.5" y="-467.5" font-family="Helvetica,sans-Serif" font-size="10.00">&lt; void(), Lib::CollectorDefault</text>
<text text-anchor="start" x="685.5" y="-456.5" font-family="Helvetica,sans-Serif" font-size="10.00">&lt; typename std::function&lt; void</text>
<text text-anchor="middle" x="762.5" y="-445.5" font-family="Helvetica,sans-Serif" font-size="10.00">() &gt;::result_type &gt; &gt;</text>
<polyline fill="none" stroke="black" points="677.5,-438.5 847.5,-438.5 "/>
<text text-anchor="middle" x="762.5" y="-426.5" font-family="Helvetica,sans-Serif" font-size="10.00"> </text>
<polyline fill="none" stroke="black" points="677.5,-419.5 847.5,-419.5 "/>
<text text-anchor="middle" x="762.5" y="-407.5" font-family="Helvetica,sans-Serif" font-size="10.00"> </text>
</a>
</g>
</g>
<!-- Node1&#45;&gt;Node10 -->
<g id="edge11" class="edge"><title>Node1&#45;&gt;Node10</title>
<path fill="none" stroke="orange" d="M498.562,-605.795C512.728,-599.624 527.184,-592.912 540.5,-586 595.648,-557.375 655.101,-519.616 698.59,-490.601"/>
<polygon fill="orange" stroke="orange" points="497.117,-602.607 489.31,-609.769 499.88,-609.039 497.117,-602.607"/>
<text text-anchor="start" x="669.5" y="-561.5" font-family="Helvetica,sans-Serif" font-size="10.00"> &lt; void(), Lib::Collector</text>
<text text-anchor="start" x="669.5" y="-550.5" font-family="Helvetica,sans-Serif" font-size="10.00">Default&lt; typename std</text>
<text text-anchor="start" x="669.5" y="-539.5" font-family="Helvetica,sans-Serif" font-size="10.00">::function&lt; void() &gt;::result</text>
<text text-anchor="middle" x="733" y="-528.5" font-family="Helvetica,sans-Serif" font-size="10.00">_type &gt; &gt;</text>
</g>
<!-- Node11 -->
<g id="node11" class="node"><title>Node11</title>
<g id="a_node11"><a xlink:href="classSignal_1_1Lib_1_1ProtoSignal.html" target="_top" xlink:title="{Signal::Lib::ProtoSignal\l\&lt; void(UIElement *sender)\l, Lib::CollectorDefault\&lt;\l typename std::function\&lt; void\l(UIElement *sender) \&gt;::result_type \&gt; \&gt;\n||}">
<polygon fill="none" stroke="black" points="519.5,-138.5 519.5,-239.5 727.5,-239.5 727.5,-138.5 519.5,-138.5"/>
<text text-anchor="start" x="527.5" y="-227.5" font-family="Helvetica,sans-Serif" font-size="10.00">Signal::Lib::ProtoSignal</text>
<text text-anchor="start" x="527.5" y="-216.5" font-family="Helvetica,sans-Serif" font-size="10.00">&lt; void(UIElement *sender)</text>
<text text-anchor="start" x="527.5" y="-205.5" font-family="Helvetica,sans-Serif" font-size="10.00">, Lib::CollectorDefault&lt;</text>
<text text-anchor="start" x="527.5" y="-194.5" font-family="Helvetica,sans-Serif" font-size="10.00"> typename std::function&lt; void</text>
<text text-anchor="middle" x="623.5" y="-183.5" font-family="Helvetica,sans-Serif" font-size="10.00">(UIElement *sender) &gt;::result_type &gt; &gt;</text>
<polyline fill="none" stroke="black" points="519.5,-176.5 727.5,-176.5 "/>
<text text-anchor="middle" x="623.5" y="-164.5" font-family="Helvetica,sans-Serif" font-size="10.00"> </text>
<polyline fill="none" stroke="black" points="519.5,-157.5 727.5,-157.5 "/>
<text text-anchor="middle" x="623.5" y="-145.5" font-family="Helvetica,sans-Serif" font-size="10.00"> </text>
</a>
</g>
</g>
<!-- Node1&#45;&gt;Node11 -->
<g id="edge13" class="edge"><title>Node1&#45;&gt;Node11</title>
<path fill="none" stroke="orange" d="M497.291,-602.574C503.078,-597.685 508.285,-592.18 512.5,-586 559.432,-517.184 514.092,-480.498 535.5,-400 550.638,-343.079 577.965,-281.278 598.165,-239.56"/>
<polygon fill="orange" stroke="orange" points="494.888,-600.006 489.078,-608.866 499.145,-605.563 494.888,-600.006"/>
<text text-anchor="start" x="535.5" y="-465" font-family="Helvetica,sans-Serif" font-size="10.00"> &lt; void(UIElement *sender)</text>
<text text-anchor="start" x="535.5" y="-454" font-family="Helvetica,sans-Serif" font-size="10.00">, Lib::CollectorDefault</text>
<text text-anchor="start" x="535.5" y="-443" font-family="Helvetica,sans-Serif" font-size="10.00">&lt; typename std::function</text>
<text text-anchor="start" x="535.5" y="-432" font-family="Helvetica,sans-Serif" font-size="10.00">&lt; void(UIElement *sender)</text>
<text text-anchor="middle" x="602" y="-421" font-family="Helvetica,sans-Serif" font-size="10.00"> &gt;::result_type &gt; &gt;</text>
</g>
<!-- Node3 -->
<g id="node3" class="node"><title>Node3</title>
<g id="a_node3"><a xlink:href="structSignal_1_1Signal.html" target="_top" xlink:title="{Signal::Signal\&lt; void\l(const std::string &amp;,\l UIElement *sender)\&gt;\n||+ Signal()\l}">
<polygon fill="none" stroke="black" points="79.5,-0.5 79.5,-79.5 201.5,-79.5 201.5,-0.5 79.5,-0.5"/>
<text text-anchor="start" x="87.5" y="-67.5" font-family="Helvetica,sans-Serif" font-size="10.00">Signal::Signal&lt; void</text>
<text text-anchor="start" x="87.5" y="-56.5" font-family="Helvetica,sans-Serif" font-size="10.00">(const std::string &amp;,</text>
<text text-anchor="middle" x="140.5" y="-45.5" font-family="Helvetica,sans-Serif" font-size="10.00"> UIElement *sender)&gt;</text>
<polyline fill="none" stroke="black" points="79.5,-38.5 201.5,-38.5 "/>
<text text-anchor="middle" x="140.5" y="-26.5" font-family="Helvetica,sans-Serif" font-size="10.00"> </text>
<polyline fill="none" stroke="black" points="79.5,-19.5 201.5,-19.5 "/>
<text text-anchor="start" x="87.5" y="-7.5" font-family="Helvetica,sans-Serif" font-size="10.00">+ Signal()</text>
</a>
</g>
</g>
<!-- Node2&#45;&gt;Node3 -->
<g id="edge2" class="edge"><title>Node2&#45;&gt;Node3</title>
<path fill="none" stroke="midnightblue" d="M95.7042,-248.554C107.266,-194.982 122.74,-123.287 132.145,-79.7118"/>
<polygon fill="none" stroke="midnightblue" points="92.2817,-247.822 93.5931,-258.335 99.1241,-249.299 92.2817,-247.822"/>
</g>
<!-- Node5 -->
<g id="node5" class="node"><title>Node5</title>
<g id="a_node5"><a xlink:href="structSignal_1_1Signal.html" target="_top" xlink:title="{Signal::Signal\&lt; void\l(const std::string &amp;)\&gt;\n||+ Signal()\l}">
<polygon fill="none" stroke="black" points="244,-6 244,-74 365,-74 365,-6 244,-6"/>
<text text-anchor="start" x="252" y="-62" font-family="Helvetica,sans-Serif" font-size="10.00">Signal::Signal&lt; void</text>
<text text-anchor="middle" x="304.5" y="-51" font-family="Helvetica,sans-Serif" font-size="10.00">(const std::string &amp;)&gt;</text>
<polyline fill="none" stroke="black" points="244,-44 365,-44 "/>
<text text-anchor="middle" x="304.5" y="-32" font-family="Helvetica,sans-Serif" font-size="10.00"> </text>
<polyline fill="none" stroke="black" points="244,-25 365,-25 "/>
<text text-anchor="start" x="252" y="-13" font-family="Helvetica,sans-Serif" font-size="10.00">+ Signal()</text>
</a>
</g>
</g>
<!-- Node4&#45;&gt;Node5 -->
<g id="edge4" class="edge"><title>Node4&#45;&gt;Node5</title>
<path fill="none" stroke="midnightblue" d="M212.766,-261.4C174.354,-215.182 136.3,-149.713 170.5,-98 171.091,-97.1071 208.597,-81.1906 243.774,-66.4045"/>
<polygon fill="none" stroke="midnightblue" points="210.276,-263.874 219.422,-269.221 215.606,-259.337 210.276,-263.874"/>
</g>
<!-- Node7 -->
<g id="node7" class="node"><title>Node7</title>
<g id="a_node7"><a xlink:href="structSignal_1_1Signal.html" target="_top" xlink:title="Signal is a template type providing an interface for arbitrary callback lists. A signal type needs to...">
<polygon fill="none" stroke="black" points="323,-155 323,-223 494,-223 494,-155 323,-155"/>
<text text-anchor="start" x="331" y="-211" font-family="Helvetica,sans-Serif" font-size="10.00">Signal::Signal&lt; SignalSignature,</text>
<text text-anchor="middle" x="408.5" y="-200" font-family="Helvetica,sans-Serif" font-size="10.00"> Collector &gt;</text>
<polyline fill="none" stroke="black" points="323,-193 494,-193 "/>
<text text-anchor="middle" x="408.5" y="-181" font-family="Helvetica,sans-Serif" font-size="10.00"> </text>
<polyline fill="none" stroke="black" points="323,-174 494,-174 "/>
<text text-anchor="start" x="331" y="-162" font-family="Helvetica,sans-Serif" font-size="10.00">+ Signal()</text>
</a>
</g>
</g>
<!-- Node6&#45;&gt;Node7 -->
<g id="edge6" class="edge"><title>Node6&#45;&gt;Node7</title>
<path fill="none" stroke="midnightblue" d="M408.5,-401.261C408.5,-350.958 408.5,-268.994 408.5,-223.356"/>
<polygon fill="none" stroke="midnightblue" points="405,-401.489 408.5,-411.489 412,-401.49 405,-401.489"/>
</g>
<!-- Node7&#45;&gt;Node3 -->
<g id="edge9" class="edge"><title>Node7&#45;&gt;Node3</title>
<path fill="none" stroke="orange" d="M312.831,-171.89C273.392,-161.791 228.961,-145.627 194.5,-120 180.369,-109.491 168.682,-94.1408 159.838,-79.7598"/>
<polygon fill="orange" stroke="orange" points="312.194,-175.337 322.741,-174.329 313.867,-168.54 312.194,-175.337"/>
<text text-anchor="start" x="194.5" y="-112" font-family="Helvetica,sans-Serif" font-size="10.00"> &lt; void(const std::string</text>
<text text-anchor="middle" x="255" y="-101" font-family="Helvetica,sans-Serif" font-size="10.00"> &amp;, UIElement *sender)&gt;</text>
</g>
<!-- Node7&#45;&gt;Node5 -->
<g id="edge8" class="edge"><title>Node7&#45;&gt;Node5</title>
<path fill="none" stroke="orange" d="M353.58,-147.857C344.619,-139.432 336.119,-130.03 329.5,-120 320.468,-106.312 314.522,-89.1488 310.705,-74.3201"/>
<polygon fill="orange" stroke="orange" points="351.409,-150.612 361.185,-154.697 356.09,-145.407 351.409,-150.612"/>
<text text-anchor="middle" x="399" y="-106.5" font-family="Helvetica,sans-Serif" font-size="10.00"> &lt; void(const std::string &amp;)&gt;</text>
</g>
<!-- Node8 -->
<g id="node8" class="node"><title>Node8</title>
<g id="a_node8"><a xlink:href="structSignal_1_1Signal.html" target="_top" xlink:title="{Signal::Signal\&lt; void\l(UIElement *sender)\&gt;\n||+ Signal()\l}">
<polygon fill="none" stroke="black" points="465,-6 465,-74 588,-74 588,-6 465,-6"/>
<text text-anchor="start" x="473" y="-62" font-family="Helvetica,sans-Serif" font-size="10.00">Signal::Signal&lt; void</text>
<text text-anchor="middle" x="526.5" y="-51" font-family="Helvetica,sans-Serif" font-size="10.00">(UIElement *sender)&gt;</text>
<polyline fill="none" stroke="black" points="465,-44 588,-44 "/>
<text text-anchor="middle" x="526.5" y="-32" font-family="Helvetica,sans-Serif" font-size="10.00"> </text>
<polyline fill="none" stroke="black" points="465,-25 588,-25 "/>
<text text-anchor="start" x="473" y="-13" font-family="Helvetica,sans-Serif" font-size="10.00">+ Signal()</text>
</a>
</g>
</g>
<!-- Node7&#45;&gt;Node8 -->
<g id="edge7" class="edge"><title>Node7&#45;&gt;Node8</title>
<path fill="none" stroke="orange" d="M445.441,-147.328C453.209,-138.448 461.243,-129.009 468.5,-120 480.348,-105.292 492.826,-88.4867 503.16,-74.1675"/>
<polygon fill="orange" stroke="orange" points="442.698,-145.148 438.711,-154.964 447.949,-149.777 442.698,-145.148"/>
<text text-anchor="middle" x="556" y="-106.5" font-family="Helvetica,sans-Serif" font-size="10.00"> &lt; void(UIElement *sender)&gt;</text>
</g>
<!-- Node9 -->
<g id="node9" class="node"><title>Node9</title>
<g id="a_node9"><a xlink:href="structSignal_1_1Signal.html" target="_top" xlink:title="{Signal::Signal\&lt; void()\&gt;\n||+ Signal()\l}">
<polygon fill="none" stroke="black" points="642.5,-11.5 642.5,-68.5 770.5,-68.5 770.5,-11.5 642.5,-11.5"/>
<text text-anchor="middle" x="706.5" y="-56.5" font-family="Helvetica,sans-Serif" font-size="10.00">Signal::Signal&lt; void()&gt;</text>
<polyline fill="none" stroke="black" points="642.5,-49.5 770.5,-49.5 "/>
<text text-anchor="middle" x="706.5" y="-37.5" font-family="Helvetica,sans-Serif" font-size="10.00"> </text>
<polyline fill="none" stroke="black" points="642.5,-30.5 770.5,-30.5 "/>
<text text-anchor="start" x="650.5" y="-18.5" font-family="Helvetica,sans-Serif" font-size="10.00">+ Signal()</text>
</a>
</g>
</g>
<!-- Node7&#45;&gt;Node9 -->
<g id="edge10" class="edge"><title>Node7&#45;&gt;Node9</title>
<path fill="none" stroke="orange" d="M477.564,-150.651C488.37,-145.836 499.579,-141.406 510.5,-138 561.984,-121.942 582.585,-144.752 630.5,-120 653.665,-108.033 673.802,-86.2499 687.518,-68.5837"/>
<polygon fill="orange" stroke="orange" points="475.811,-147.605 468.19,-154.965 478.737,-153.964 475.811,-147.605"/>
<text text-anchor="middle" x="685.5" y="-106.5" font-family="Helvetica,sans-Serif" font-size="10.00"> &lt; void()&gt;</text>
</g>
<!-- Node10&#45;&gt;Node9 -->
<g id="edge12" class="edge"><title>Node10&#45;&gt;Node9</title>
<path fill="none" stroke="midnightblue" d="M761.414,-390.171C759.371,-328.522 753.479,-225.212 736.5,-138 731.851,-114.123 723.497,-87.801 716.783,-68.6088"/>
<polygon fill="none" stroke="midnightblue" points="757.925,-390.554 761.732,-400.441 764.921,-390.337 757.925,-390.554"/>
</g>
<!-- Node11&#45;&gt;Node8 -->
<g id="edge14" class="edge"><title>Node11&#45;&gt;Node8</title>
<path fill="none" stroke="midnightblue" d="M706.761,-130.014C712.866,-119.59 713.814,-108.649 705.5,-98 685.201,-72.0012 665.038,-89.661 633.5,-80 618.66,-75.4541 602.86,-70.0289 588.084,-64.6913"/>
<polygon fill="none" stroke="midnightblue" points="703.837,-128.086 700.839,-138.248 709.519,-132.174 703.837,-128.086"/>
</g>
</g>
</svg>
