<?xml version="1.0" encoding="UTF-8" standalone="no"?>
<!DOCTYPE svg PUBLIC "-//W3C//DTD SVG 1.1//EN"
 "http://www.w3.org/Graphics/SVG/1.1/DTD/svg11.dtd">
<!-- Generated by graphviz version 2.38.0 (20140413.2041)
 -->
<!-- Title: UIElement::onMouseLeave Pages: 1 -->
<svg width="683pt" height="66pt"
 viewBox="0.00 0.00 683.00 66.00" xmlns="http://www.w3.org/2000/svg" xmlns:xlink="http://www.w3.org/1999/xlink">
<g id="graph0" class="graph" transform="scale(1 1) rotate(0) translate(4 62)">
<title>UIElement::onMouseLeave</title>
<!-- Node1 -->
<g id="node1" class="node"><title>Node1</title>
<polygon fill="#bfbfbf" stroke="black" points="0,-19.5 0,-38.5 144,-38.5 144,-19.5 0,-19.5"/>
<text text-anchor="middle" x="72" y="-26.5" font-family="Helvetica,sans-Serif" font-size="10.00">UIElement::onMouseLeave</text>
</g>
<!-- Node2 -->
<g id="node2" class="node"><title>Node2</title>
<g id="a_node2"><a xlink:href="classEventManager.html#a65ec91fd5016d4f9c4167fb8babed2df" target="_top" xlink:title="EventManager::checkEvents">
<polygon fill="none" stroke="black" points="180,-38.5 180,-57.5 332,-57.5 332,-38.5 180,-38.5"/>
<text text-anchor="middle" x="256" y="-45.5" font-family="Helvetica,sans-Serif" font-size="10.00">EventManager::checkEvents</text>
</a>
</g>
</g>
<!-- Node1&#45;&gt;Node2 -->
<g id="edge1" class="edge"><title>Node1&#45;&gt;Node2</title>
<path fill="none" stroke="midnightblue" d="M154.166,-37.4734C162.762,-38.3708 171.477,-39.2805 179.998,-40.1701"/>
<polygon fill="midnightblue" stroke="midnightblue" points="154.457,-33.9848 144.148,-36.4275 153.73,-40.947 154.457,-33.9848"/>
</g>
<!-- Node6 -->
<g id="node6" class="node"><title>Node6</title>
<g id="a_node6"><a xlink:href="classGame.html#a5ed7fc5be77080f7f6dd5363f7f007a1" target="_top" xlink:title="Game::mainMenu">
<polygon fill="none" stroke="black" points="368,-0.5 368,-19.5 470,-19.5 470,-0.5 368,-0.5"/>
<text text-anchor="middle" x="419" y="-7.5" font-family="Helvetica,sans-Serif" font-size="10.00">Game::mainMenu</text>
</a>
</g>
</g>
<!-- Node1&#45;&gt;Node6 -->
<g id="edge5" class="edge"><title>Node1&#45;&gt;Node6</title>
<path fill="none" stroke="midnightblue" d="M154.063,-24.5356C220.334,-20.8859 311.93,-15.8415 367.953,-12.7562"/>
<polygon fill="midnightblue" stroke="midnightblue" points="153.858,-21.0415 144.066,-25.0862 154.243,-28.0309 153.858,-21.0415"/>
</g>
<!-- Node3 -->
<g id="node3" class="node"><title>Node3</title>
<g id="a_node3"><a xlink:href="classGame.html#a1c2ab25d5216b2f4b2fe41efd2c09114" target="_top" xlink:title="Game::run">
<polygon fill="none" stroke="black" points="385,-38.5 385,-57.5 453,-57.5 453,-38.5 385,-38.5"/>
<text text-anchor="middle" x="419" y="-45.5" font-family="Helvetica,sans-Serif" font-size="10.00">Game::run</text>
</a>
</g>
</g>
<!-- Node2&#45;&gt;Node3 -->
<g id="edge2" class="edge"><title>Node2&#45;&gt;Node3</title>
<path fill="none" stroke="midnightblue" d="M342.731,-48C357.759,-48 372.542,-48 384.974,-48"/>
<polygon fill="midnightblue" stroke="midnightblue" points="342.315,-44.5001 332.315,-48 342.315,-51.5001 342.315,-44.5001"/>
</g>
<!-- Node4 -->
<g id="node4" class="node"><title>Node4</title>
<g id="a_node4"><a xlink:href="main_8cxx.html#af582d708d899e67ead623eac34a22387" target="_top" xlink:title="protected_main">
<polygon fill="none" stroke="black" points="506,-19.5 506,-38.5 598,-38.5 598,-19.5 506,-19.5"/>
<text text-anchor="middle" x="552" y="-26.5" font-family="Helvetica,sans-Serif" font-size="10.00">protected_main</text>
</a>
</g>
</g>
<!-- Node3&#45;&gt;Node4 -->
<g id="edge3" class="edge"><title>Node3&#45;&gt;Node4</title>
<path fill="none" stroke="midnightblue" d="M463.134,-41.744C476.745,-39.7699 491.82,-37.5834 505.585,-35.587"/>
<polygon fill="midnightblue" stroke="midnightblue" points="462.451,-38.3063 453.057,-43.2055 463.456,-45.2338 462.451,-38.3063"/>
</g>
<!-- Node5 -->
<g id="node5" class="node"><title>Node5</title>
<g id="a_node5"><a xlink:href="main_8cxx.html#a3c04138a5bfe5d72780bb7e82a18e627" target="_top" xlink:title="main">
<polygon fill="none" stroke="black" points="634,-19.5 634,-38.5 675,-38.5 675,-19.5 634,-19.5"/>
<text text-anchor="middle" x="654.5" y="-26.5" font-family="Helvetica,sans-Serif" font-size="10.00">main</text>
</a>
</g>
</g>
<!-- Node4&#45;&gt;Node5 -->
<g id="edge4" class="edge"><title>Node4&#45;&gt;Node5</title>
<path fill="none" stroke="midnightblue" d="M608.539,-29C617.619,-29 626.466,-29 633.877,-29"/>
<polygon fill="midnightblue" stroke="midnightblue" points="608.252,-25.5001 598.252,-29 608.252,-32.5001 608.252,-25.5001"/>
</g>
<!-- Node6&#45;&gt;Node4 -->
<g id="edge6" class="edge"><title>Node6&#45;&gt;Node4</title>
<path fill="none" stroke="midnightblue" d="M480.263,-18.7404C488.85,-19.9859 497.558,-21.2488 505.791,-22.443"/>
<polygon fill="midnightblue" stroke="midnightblue" points="480.672,-15.2632 470.273,-17.2916 479.667,-22.1908 480.672,-15.2632"/>
</g>
</g>
</svg>
