<?xml version="1.0" encoding="UTF-8" standalone="no"?>
<!DOCTYPE svg PUBLIC "-//W3C//DTD SVG 1.1//EN"
 "http://www.w3.org/Graphics/SVG/1.1/DTD/svg11.dtd">
<!-- Generated by graphviz version 2.38.0 (20140413.2041)
 -->
<!-- Title: MapNode::demolishNode Pages: 1 -->
<svg width="504pt" height="214pt"
 viewBox="0.00 0.00 504.00 213.50" xmlns="http://www.w3.org/2000/svg" xmlns:xlink="http://www.w3.org/1999/xlink">
<g id="graph0" class="graph" transform="scale(1 1) rotate(0) translate(4 209.5)">
<title>MapNode::demolishNode</title>
<!-- Node1 -->
<g id="node1" class="node"><title>Node1</title>
<polygon fill="#bfbfbf" stroke="black" points="0,-124 0,-143 137,-143 137,-124 0,-124"/>
<text text-anchor="middle" x="68.5" y="-131" font-family="Helvetica,sans-Serif" font-size="10.00">MapNode::demolishNode</text>
</g>
<!-- Node2 -->
<g id="node2" class="node"><title>Node2</title>
<g id="a_node2"><a xlink:href="classMapLayers.html#a1d810628821913c499b8348107b66891" target="_top" xlink:title="Check if given Layer is being drawn. ">
<polygon fill="none" stroke="black" points="173,-148 173,-167 310,-167 310,-148 173,-148"/>
<text text-anchor="middle" x="241.5" y="-155" font-family="Helvetica,sans-Serif" font-size="10.00">MapLayers::isLayerActive</text>
</a>
</g>
</g>
<!-- Node1&#45;&gt;Node2 -->
<g id="edge1" class="edge"><title>Node1&#45;&gt;Node2</title>
<path fill="none" stroke="midnightblue" d="M137.084,-142.985C145.538,-144.172 154.237,-145.393 162.83,-146.599"/>
<polygon fill="midnightblue" stroke="midnightblue" points="162.458,-150.081 172.847,-148.005 163.431,-143.149 162.458,-150.081"/>
</g>
<!-- Node5 -->
<g id="node5" class="node"><title>Node5</title>
<g id="a_node5"><a xlink:href="classMapNode.html#a0951fd739ee0a3e0263ef412596811dd" target="_top" xlink:title="MapNode::updateTexture">
<polygon fill="none" stroke="black" points="173,-78 173,-97 310,-97 310,-78 173,-78"/>
<text text-anchor="middle" x="241.5" y="-85" font-family="Helvetica,sans-Serif" font-size="10.00">MapNode::updateTexture</text>
</a>
</g>
</g>
<!-- Node1&#45;&gt;Node5 -->
<g id="edge4" class="edge"><title>Node1&#45;&gt;Node5</title>
<path fill="none" stroke="midnightblue" d="M104.931,-123.969C131.184,-116.907 167.16,-107.229 195.455,-99.6174"/>
<polygon fill="midnightblue" stroke="midnightblue" points="196.367,-102.997 205.114,-97.019 194.548,-96.237 196.367,-102.997"/>
</g>
<!-- Node3 -->
<g id="node3" class="node"><title>Node3</title>
<g id="a_node3"><a xlink:href="classMapLayers.html#a53d7fcd90e70eaf36239d7a75c0c5dda" target="_top" xlink:title="MapLayers::MapLayers">
<polygon fill="none" stroke="black" points="358,-186 358,-205 484,-205 484,-186 358,-186"/>
<text text-anchor="middle" x="421" y="-193" font-family="Helvetica,sans-Serif" font-size="10.00">MapLayers::MapLayers</text>
</a>
</g>
</g>
<!-- Node2&#45;&gt;Node3 -->
<g id="edge2" class="edge"><title>Node2&#45;&gt;Node3</title>
<path fill="none" stroke="midnightblue" d="M287.291,-167.089C311.03,-172.171 340.384,-178.455 365.444,-183.82"/>
<polygon fill="midnightblue" stroke="midnightblue" points="365.02,-187.309 375.531,-185.98 366.486,-180.464 365.02,-187.309"/>
</g>
<!-- Node4 -->
<g id="node4" class="node"><title>Node4</title>
<g id="a_node4"><a xlink:href="classMapLayers.html#aa7fa21110e27ec69f131692b0a510d66" target="_top" xlink:title="MapLayers::~MapLayers">
<polygon fill="none" stroke="black" points="354,-148 354,-167 488,-167 488,-148 354,-148"/>
<text text-anchor="middle" x="421" y="-155" font-family="Helvetica,sans-Serif" font-size="10.00">MapLayers::~MapLayers</text>
</a>
</g>
</g>
<!-- Node2&#45;&gt;Node4 -->
<g id="edge3" class="edge"><title>Node2&#45;&gt;Node4</title>
<path fill="none" stroke="midnightblue" d="M310.111,-157.5C321.063,-157.5 332.47,-157.5 343.612,-157.5"/>
<polygon fill="midnightblue" stroke="midnightblue" points="343.75,-161 353.75,-157.5 343.75,-154 343.75,-161"/>
</g>
<!-- Node6 -->
<g id="node6" class="node"><title>Node6</title>
<g id="a_node6"><a xlink:href="classSingleton.html#af5cb1e5749949e2b68416cfb8d378044" target="_top" xlink:title="Get an instance of the singleton. ">
<polygon fill="none" stroke="black" points="355.5,-98.5 355.5,-128.5 486.5,-128.5 486.5,-98.5 355.5,-98.5"/>
<text text-anchor="start" x="363.5" y="-116.5" font-family="Helvetica,sans-Serif" font-size="10.00">Singleton&lt; TileManager</text>
<text text-anchor="middle" x="421" y="-105.5" font-family="Helvetica,sans-Serif" font-size="10.00"> &gt;::instance</text>
</a>
</g>
</g>
<!-- Node5&#45;&gt;Node6 -->
<g id="edge5" class="edge"><title>Node5&#45;&gt;Node6</title>
<path fill="none" stroke="midnightblue" d="M307.587,-97.0338C319.844,-98.8292 332.751,-100.72 345.275,-102.554"/>
<polygon fill="midnightblue" stroke="midnightblue" points="344.816,-106.024 355.218,-104.011 345.831,-99.0984 344.816,-106.024"/>
</g>
<!-- Node7 -->
<g id="node7" class="node"><title>Node7</title>
<g id="a_node7"><a xlink:href="classTileManager.html#a519b2d5c91877025a2faa0dff3ba099c" target="_top" xlink:title="TileManager::calculateSlope\lOrientation">
<polygon fill="none" stroke="black" points="346,-49.5 346,-79.5 496,-79.5 496,-49.5 346,-49.5"/>
<text text-anchor="start" x="354" y="-67.5" font-family="Helvetica,sans-Serif" font-size="10.00">TileManager::calculateSlope</text>
<text text-anchor="middle" x="421" y="-56.5" font-family="Helvetica,sans-Serif" font-size="10.00">Orientation</text>
</a>
</g>
</g>
<!-- Node5&#45;&gt;Node7 -->
<g id="edge6" class="edge"><title>Node5&#45;&gt;Node7</title>
<path fill="none" stroke="midnightblue" d="M310.111,-78.7391C318.491,-77.6533 327.138,-76.5329 335.728,-75.4197"/>
<polygon fill="midnightblue" stroke="midnightblue" points="336.3,-78.875 345.768,-74.1189 335.401,-71.933 336.3,-78.875"/>
</g>
<!-- Node8 -->
<g id="node8" class="node"><title>Node8</title>
<g id="a_node8"><a xlink:href="classTileManager.html#ae1ac0c18d79cc2e1de86416d07d1591b" target="_top" xlink:title="TileManager::calculateTile\lOrientation">
<polygon fill="none" stroke="black" points="351.5,-0.5 351.5,-30.5 490.5,-30.5 490.5,-0.5 351.5,-0.5"/>
<text text-anchor="start" x="359.5" y="-18.5" font-family="Helvetica,sans-Serif" font-size="10.00">TileManager::calculateTile</text>
<text text-anchor="middle" x="421" y="-7.5" font-family="Helvetica,sans-Serif" font-size="10.00">Orientation</text>
</a>
</g>
</g>
<!-- Node5&#45;&gt;Node8 -->
<g id="edge7" class="edge"><title>Node5&#45;&gt;Node8</title>
<path fill="none" stroke="midnightblue" d="M262.088,-77.8919C282.716,-67.9431 316.264,-52.2405 346,-40.5 351.575,-38.2987 357.432,-36.1123 363.306,-34.0012"/>
<polygon fill="midnightblue" stroke="midnightblue" points="364.892,-37.1534 373.161,-30.5301 362.566,-30.5509 364.892,-37.1534"/>
</g>
</g>
</svg>
