<?xml version="1.0" encoding="UTF-8" standalone="no"?>
<!DOCTYPE svg PUBLIC "-//W3C//DTD SVG 1.1//EN"
 "http://www.w3.org/Graphics/SVG/1.1/DTD/svg11.dtd">
<!-- Generated by graphviz version 2.38.0 (20140413.2041)
 -->
<!-- Title: TileManager::calculateSlopeOrientation Pages: 1 -->
<svg width="654pt" height="120pt"
 viewBox="0.00 0.00 654.00 119.60" xmlns="http://www.w3.org/2000/svg" xmlns:xlink="http://www.w3.org/1999/xlink">
<g id="graph0" class="graph" transform="scale(1 1) rotate(0) translate(4 115.597)">
<title>TileManager::calculateSlopeOrientation</title>
<!-- Node1 -->
<g id="node1" class="node"><title>Node1</title>
<polygon fill="#bfbfbf" stroke="black" points="0,-52 0,-82 150,-82 150,-52 0,-52"/>
<text text-anchor="start" x="8" y="-70" font-family="Helvetica,sans-Serif" font-size="10.00">TileManager::calculateSlope</text>
<text text-anchor="middle" x="75" y="-59" font-family="Helvetica,sans-Serif" font-size="10.00">Orientation</text>
</g>
<!-- Node2 -->
<g id="node2" class="node"><title>Node2</title>
<g id="a_node2"><a xlink:href="classMapNode.html#a0951fd739ee0a3e0263ef412596811dd" target="_top" xlink:title="MapNode::updateTexture">
<polygon fill="none" stroke="black" points="186,-57.5 186,-76.5 323,-76.5 323,-57.5 186,-57.5"/>
<text text-anchor="middle" x="254.5" y="-64.5" font-family="Helvetica,sans-Serif" font-size="10.00">MapNode::updateTexture</text>
</a>
</g>
</g>
<!-- Node1&#45;&gt;Node2 -->
<g id="edge1" class="edge"><title>Node1&#45;&gt;Node2</title>
<path fill="none" stroke="midnightblue" d="M160.251,-67C168.81,-67 177.426,-67 185.778,-67"/>
<polygon fill="midnightblue" stroke="midnightblue" points="160.248,-63.5001 150.248,-67 160.247,-70.5001 160.248,-63.5001"/>
</g>
<!-- Node3 -->
<g id="node3" class="node"><title>Node3</title>
<g id="a_node3"><a xlink:href="classMapNode.html#ac2fd11448837a8b56a58601238e824b2" target="_top" xlink:title="MapNode::MapNode">
<polygon fill="none" stroke="black" points="532,-76.5 532,-95.5 646,-95.5 646,-76.5 532,-76.5"/>
<text text-anchor="middle" x="589" y="-83.5" font-family="Helvetica,sans-Serif" font-size="10.00">MapNode::MapNode</text>
</a>
</g>
</g>
<!-- Node2&#45;&gt;Node3 -->
<g id="edge2" class="edge"><title>Node2&#45;&gt;Node3</title>
<path fill="none" stroke="midnightblue" d="M284.462,-80.7618C304.802,-89.6397 332.925,-100.365 359,-105 418.949,-115.657 435.427,-111.19 496,-105 514.172,-103.143 534.053,-99.2743 550.669,-95.5094"/>
<polygon fill="midnightblue" stroke="midnightblue" points="285.702,-77.4822 275.145,-76.5867 282.84,-83.8701 285.702,-77.4822"/>
</g>
<!-- Node4 -->
<g id="node4" class="node"><title>Node4</title>
<g id="a_node4"><a xlink:href="classMapNode.html#a56edbdd0e77eeeb82db4d5884c96048b" target="_top" xlink:title="MapNode::setBitmask">
<polygon fill="none" stroke="black" points="366.5,-76.5 366.5,-95.5 488.5,-95.5 488.5,-76.5 366.5,-76.5"/>
<text text-anchor="middle" x="427.5" y="-83.5" font-family="Helvetica,sans-Serif" font-size="10.00">MapNode::setBitmask</text>
</a>
</g>
</g>
<!-- Node2&#45;&gt;Node4 -->
<g id="edge3" class="edge"><title>Node2&#45;&gt;Node4</title>
<path fill="none" stroke="midnightblue" d="M333.22,-75.6355C344.335,-76.8706 355.627,-78.1252 366.336,-79.3151"/>
<polygon fill="midnightblue" stroke="midnightblue" points="333.409,-72.1351 323.084,-74.5093 332.636,-79.0923 333.409,-72.1351"/>
</g>
<!-- Node5 -->
<g id="node5" class="node"><title>Node5</title>
<g id="a_node5"><a xlink:href="classMapNode.html#a397a62e9263feef6c9c85b4e17ef31cb" target="_top" xlink:title="MapNode::setTileID">
<polygon fill="none" stroke="black" points="373,-38.5 373,-57.5 482,-57.5 482,-38.5 373,-38.5"/>
<text text-anchor="middle" x="427.5" y="-45.5" font-family="Helvetica,sans-Serif" font-size="10.00">MapNode::setTileID</text>
</a>
</g>
</g>
<!-- Node2&#45;&gt;Node5 -->
<g id="edge4" class="edge"><title>Node2&#45;&gt;Node5</title>
<path fill="none" stroke="midnightblue" d="M333.247,-58.3615C346.63,-56.8744 360.27,-55.3589 372.838,-53.9624"/>
<polygon fill="midnightblue" stroke="midnightblue" points="332.636,-54.9077 323.084,-59.4907 333.409,-61.8649 332.636,-54.9077"/>
</g>
<!-- Node6 -->
<g id="node6" class="node"><title>Node6</title>
<g id="a_node6"><a xlink:href="classMapNode.html#a604f1e438222bd6d77a6d59a7b39276a" target="_top" xlink:title="MapNode::demolishNode">
<polygon fill="none" stroke="black" points="359,-0.5 359,-19.5 496,-19.5 496,-0.5 359,-0.5"/>
<text text-anchor="middle" x="427.5" y="-7.5" font-family="Helvetica,sans-Serif" font-size="10.00">MapNode::demolishNode</text>
</a>
</g>
</g>
<!-- Node2&#45;&gt;Node6 -->
<g id="edge6" class="edge"><title>Node2&#45;&gt;Node6</title>
<path fill="none" stroke="midnightblue" d="M289.343,-53.8218C309.449,-46.1818 335.525,-36.6006 359,-29 369.192,-25.6999 380.353,-22.4236 390.613,-19.5445"/>
<polygon fill="midnightblue" stroke="midnightblue" points="288.079,-50.5577 279.99,-57.3993 290.58,-57.0957 288.079,-50.5577"/>
</g>
<!-- Node5&#45;&gt;Node3 -->
<g id="edge5" class="edge"><title>Node5&#45;&gt;Node3</title>
<path fill="none" stroke="midnightblue" d="M478.734,-59.968C501.086,-65.2931 527.038,-71.4762 548.041,-76.4799"/>
<polygon fill="midnightblue" stroke="midnightblue" points="479.288,-56.502 468.749,-57.589 477.665,-63.3114 479.288,-56.502"/>
</g>
</g>
</svg>
