<?xml version="1.0" encoding="UTF-8" standalone="no"?>
<!DOCTYPE svg PUBLIC "-//W3C//DTD SVG 1.1//EN"
 "http://www.w3.org/Graphics/SVG/1.1/DTD/svg11.dtd">
<!-- Generated by graphviz version 2.38.0 (20140413.2041)
 -->
<!-- Title: ButtonGroup::onMouseButtonUp Pages: 1 -->
<svg width="951pt" height="100pt"
 viewBox="0.00 0.00 951.00 99.50" xmlns="http://www.w3.org/2000/svg" xmlns:xlink="http://www.w3.org/1999/xlink">
<g id="graph0" class="graph" transform="scale(1 1) rotate(0) translate(4 95.5)">
<title>ButtonGroup::onMouseButtonUp</title>
<!-- Node1 -->
<g id="node1" class="node"><title>Node1</title>
<polygon fill="#bfbfbf" stroke="black" points="0,-44.5 0,-63.5 173,-63.5 173,-44.5 0,-44.5"/>
<text text-anchor="middle" x="86.5" y="-51.5" font-family="Helvetica,sans-Serif" font-size="10.00">ButtonGroup::onMouseButtonUp</text>
</g>
<!-- Node2 -->
<g id="node2" class="node"><title>Node2</title>
<g id="a_node2"><a xlink:href="classButtonGroup.html#aa1a05dec9459ad23e5d7028fa9d35850" target="_top" xlink:title="Function to call the uncheck event of buttons. Function to call the uncheck event of buttons...">
<polygon fill="none" stroke="black" points="209,-44.5 209,-63.5 382,-63.5 382,-44.5 209,-44.5"/>
<text text-anchor="middle" x="295.5" y="-51.5" font-family="Helvetica,sans-Serif" font-size="10.00">ButtonGroup::uncheckAllButtons</text>
</a>
</g>
</g>
<!-- Node1&#45;&gt;Node2 -->
<g id="edge1" class="edge"><title>Node1&#45;&gt;Node2</title>
<path fill="none" stroke="midnightblue" d="M173.189,-54C181.663,-54 190.301,-54 198.867,-54"/>
<polygon fill="midnightblue" stroke="midnightblue" points="198.875,-57.5001 208.875,-54 198.875,-50.5001 198.875,-57.5001"/>
</g>
<!-- Node3 -->
<g id="node3" class="node"><title>Node3</title>
<g id="a_node3"><a xlink:href="classSingleton.html#af5cb1e5749949e2b68416cfb8d378044" target="_top" xlink:title="Get an instance of the singleton. ">
<polygon fill="none" stroke="black" points="809.5,-61 809.5,-91 934.5,-91 934.5,-61 809.5,-61"/>
<text text-anchor="start" x="817.5" y="-79" font-family="Helvetica,sans-Serif" font-size="10.00">Singleton&lt; UIManager</text>
<text text-anchor="middle" x="872" y="-68" font-family="Helvetica,sans-Serif" font-size="10.00"> &gt;::instance</text>
</a>
</g>
</g>
<!-- Node2&#45;&gt;Node3 -->
<g id="edge2" class="edge"><title>Node2&#45;&gt;Node3</title>
<path fill="none" stroke="midnightblue" d="M332.887,-63.502C356.87,-69.2639 389.076,-76.0552 418,-79 552.104,-92.6537 709.695,-86.6801 799.211,-81.2404"/>
<polygon fill="midnightblue" stroke="midnightblue" points="799.489,-84.7299 809.253,-80.615 799.054,-77.7435 799.489,-84.7299"/>
</g>
<!-- Node4 -->
<g id="node4" class="node"><title>Node4</title>
<g id="a_node4"><a xlink:href="classUIManager.html#ae408c7d3e00cf7f9b64627d0e69cf31b" target="_top" xlink:title="Get the UiElements Of aroup get Elements that are in UiGroup (m_uiGroups) ">
<polygon fill="none" stroke="black" points="418,-39 418,-69 563,-69 563,-39 418,-39"/>
<text text-anchor="start" x="426" y="-57" font-family="Helvetica,sans-Serif" font-size="10.00">UIManager::getUiElements</text>
<text text-anchor="middle" x="490.5" y="-46" font-family="Helvetica,sans-Serif" font-size="10.00">OfGroup</text>
</a>
</g>
</g>
<!-- Node2&#45;&gt;Node4 -->
<g id="edge3" class="edge"><title>Node2&#45;&gt;Node4</title>
<path fill="none" stroke="midnightblue" d="M382.277,-54C390.722,-54 399.279,-54 407.683,-54"/>
<polygon fill="midnightblue" stroke="midnightblue" points="407.842,-57.5001 417.842,-54 407.842,-50.5001 407.842,-57.5001"/>
</g>
<!-- Node5 -->
<g id="node5" class="node"><title>Node5</title>
<g id="a_node5"><a xlink:href="classButton.html#a25f11ea415fdbb64cb897421bf746918" target="_top" xlink:title="Button::setCheckState">
<polygon fill="none" stroke="black" points="428,-0.5 428,-19.5 553,-19.5 553,-0.5 428,-0.5"/>
<text text-anchor="middle" x="490.5" y="-7.5" font-family="Helvetica,sans-Serif" font-size="10.00">Button::setCheckState</text>
</a>
</g>
</g>
<!-- Node2&#45;&gt;Node5 -->
<g id="edge4" class="edge"><title>Node2&#45;&gt;Node5</title>
<path fill="none" stroke="midnightblue" d="M338.378,-44.4527C367.589,-37.7931 406.757,-28.8637 437.898,-21.7642"/>
<polygon fill="midnightblue" stroke="midnightblue" points="438.732,-25.164 447.704,-19.5287 437.176,-18.3391 438.732,-25.164"/>
</g>
<!-- Node6 -->
<g id="node6" class="node"><title>Node6</title>
<g id="a_node6"><a xlink:href="classUIElement.html#ade4162d6216022e143c769369b64add7" target="_top" xlink:title="Set the button state Sets the mouse button pressed state. ">
<polygon fill="none" stroke="black" points="599,-11.5 599,-30.5 765,-30.5 765,-11.5 599,-11.5"/>
<text text-anchor="middle" x="682" y="-18.5" font-family="Helvetica,sans-Serif" font-size="10.00">UIElement::changeButtonState</text>
</a>
</g>
</g>
<!-- Node5&#45;&gt;Node6 -->
<g id="edge5" class="edge"><title>Node5&#45;&gt;Node6</title>
<path fill="none" stroke="midnightblue" d="M553.025,-13.5714C564.423,-14.233 576.556,-14.9373 588.637,-15.6386"/>
<polygon fill="midnightblue" stroke="midnightblue" points="588.57,-19.1404 598.756,-16.2259 588.975,-12.1522 588.57,-19.1404"/>
</g>
<!-- Node6&#45;&gt;Node3 -->
<g id="edge7" class="edge"><title>Node6&#45;&gt;Node3</title>
<path fill="none" stroke="midnightblue" d="M715.747,-30.5803C741.568,-38.1341 778.309,-48.883 809.568,-58.028"/>
<polygon fill="midnightblue" stroke="midnightblue" points="808.923,-61.4859 819.504,-60.9346 810.889,-54.7675 808.923,-61.4859"/>
</g>
<!-- Node7 -->
<g id="node7" class="node"><title>Node7</title>
<g id="a_node7"><a xlink:href="classUIElement.html#afdf67550d4140097c7a328d4b22fc1fe" target="_top" xlink:title="UIElement::changeTexture">
<polygon fill="none" stroke="black" points="801,-11.5 801,-30.5 943,-30.5 943,-11.5 801,-11.5"/>
<text text-anchor="middle" x="872" y="-18.5" font-family="Helvetica,sans-Serif" font-size="10.00">UIElement::changeTexture</text>
</a>
</g>
</g>
<!-- Node6&#45;&gt;Node7 -->
<g id="edge6" class="edge"><title>Node6&#45;&gt;Node7</title>
<path fill="none" stroke="midnightblue" d="M765.186,-21C773.615,-21 782.173,-21 790.583,-21"/>
<polygon fill="midnightblue" stroke="midnightblue" points="790.749,-24.5001 800.749,-21 790.749,-17.5001 790.749,-24.5001"/>
</g>
</g>
</svg>
