<?xml version="1.0" encoding="UTF-8" standalone="no"?>
<!DOCTYPE svg PUBLIC "-//W3C//DTD SVG 1.1//EN"
 "http://www.w3.org/Graphics/SVG/1.1/DTD/svg11.dtd">
<!-- Generated by graphviz version 2.38.0 (20140413.2041)
 -->
<!-- Title: MapLayers::isLayerActive Pages: 1 -->
<svg width="1213pt" height="256pt"
 viewBox="0.00 0.00 1213.00 256.00" xmlns="http://www.w3.org/2000/svg" xmlns:xlink="http://www.w3.org/1999/xlink">
<g id="graph0" class="graph" transform="scale(1 1) rotate(0) translate(4 252)">
<title>MapLayers::isLayerActive</title>
<!-- Node1 -->
<g id="node1" class="node"><title>Node1</title>
<polygon fill="#bfbfbf" stroke="black" points="0,-114.5 0,-133.5 137,-133.5 137,-114.5 0,-114.5"/>
<text text-anchor="middle" x="68.5" y="-121.5" font-family="Helvetica,sans-Serif" font-size="10.00">MapLayers::isLayerActive</text>
</g>
<!-- Node2 -->
<g id="node2" class="node"><title>Node2</title>
<g id="a_node2"><a xlink:href="classMapNode.html#aeb5b24dd3643788a9d61035b8c3f0b5f" target="_top" xlink:title="MapNode::getActiveMapNodeData">
<polygon fill="none" stroke="black" points="173,-228.5 173,-247.5 355,-247.5 355,-228.5 173,-228.5"/>
<text text-anchor="middle" x="264" y="-235.5" font-family="Helvetica,sans-Serif" font-size="10.00">MapNode::getActiveMapNodeData</text>
</a>
</g>
</g>
<!-- Node1&#45;&gt;Node2 -->
<g id="edge1" class="edge"><title>Node1&#45;&gt;Node2</title>
<path fill="none" stroke="midnightblue" d="M83.2431,-141.382C101.393,-163.081 135.475,-199.686 173,-219 180.525,-222.873 188.793,-225.957 197.172,-228.412"/>
<polygon fill="midnightblue" stroke="midnightblue" points="85.9247,-139.132 76.8865,-133.604 80.5046,-143.562 85.9247,-139.132"/>
</g>
<!-- Node3 -->
<g id="node3" class="node"><title>Node3</title>
<g id="a_node3"><a xlink:href="classMapNode.html#a604f1e438222bd6d77a6d59a7b39276a" target="_top" xlink:title="MapNode::demolishNode">
<polygon fill="none" stroke="black" points="195.5,-190.5 195.5,-209.5 332.5,-209.5 332.5,-190.5 195.5,-190.5"/>
<text text-anchor="middle" x="264" y="-197.5" font-family="Helvetica,sans-Serif" font-size="10.00">MapNode::demolishNode</text>
</a>
</g>
</g>
<!-- Node1&#45;&gt;Node3 -->
<g id="edge2" class="edge"><title>Node1&#45;&gt;Node3</title>
<path fill="none" stroke="midnightblue" d="M92.1437,-139.043C112.509,-151.933 143.651,-170.096 173,-181 183.179,-184.782 194.301,-187.895 205.146,-190.428"/>
<polygon fill="midnightblue" stroke="midnightblue" points="93.8929,-136.007 83.5901,-133.536 90.1038,-141.892 93.8929,-136.007"/>
</g>
<!-- Node4 -->
<g id="node4" class="node"><title>Node4</title>
<g id="a_node4"><a xlink:href="classMap.html#a4481133402bbf2899f9062c1d4061bef" target="_top" xlink:title="Map::isClickWithinTile">
<polygon fill="none" stroke="black" points="206,-152.5 206,-171.5 322,-171.5 322,-152.5 206,-152.5"/>
<text text-anchor="middle" x="264" y="-159.5" font-family="Helvetica,sans-Serif" font-size="10.00">Map::isClickWithinTile</text>
</a>
</g>
</g>
<!-- Node1&#45;&gt;Node4 -->
<g id="edge3" class="edge"><title>Node1&#45;&gt;Node4</title>
<path fill="none" stroke="midnightblue" d="M128.253,-135.538C155.852,-140.958 188.355,-147.341 214.523,-152.48"/>
<polygon fill="midnightblue" stroke="midnightblue" points="128.815,-132.082 118.328,-133.589 127.466,-138.951 128.815,-132.082"/>
</g>
<!-- Node11 -->
<g id="node11" class="node"><title>Node11</title>
<g id="a_node11"><a xlink:href="classSprite.html#aff433fc35fa9259b5020858cc9749c7c" target="_top" xlink:title="Sprite::render">
<polygon fill="none" stroke="black" points="222.5,-114.5 222.5,-133.5 305.5,-133.5 305.5,-114.5 222.5,-114.5"/>
<text text-anchor="middle" x="264" y="-121.5" font-family="Helvetica,sans-Serif" font-size="10.00">Sprite::render</text>
</a>
</g>
</g>
<!-- Node1&#45;&gt;Node11 -->
<g id="edge10" class="edge"><title>Node1&#45;&gt;Node11</title>
<path fill="none" stroke="midnightblue" d="M147.311,-124C173.052,-124 200.655,-124 222.44,-124"/>
<polygon fill="midnightblue" stroke="midnightblue" points="147.177,-120.5 137.177,-124 147.177,-127.5 147.177,-120.5"/>
</g>
<!-- Node12 -->
<g id="node12" class="node"><title>Node12</title>
<g id="a_node12"><a xlink:href="classSprite.html#a87428873289f8ec84f4b75d9162c9d7c" target="_top" xlink:title="Sprite::getActiveClipRect">
<polygon fill="none" stroke="black" points="197,-76.5 197,-95.5 331,-95.5 331,-76.5 197,-76.5"/>
<text text-anchor="middle" x="264" y="-83.5" font-family="Helvetica,sans-Serif" font-size="10.00">Sprite::getActiveClipRect</text>
</a>
</g>
</g>
<!-- Node1&#45;&gt;Node12 -->
<g id="edge11" class="edge"><title>Node1&#45;&gt;Node12</title>
<path fill="none" stroke="midnightblue" d="M128.253,-112.462C155.852,-107.042 188.355,-100.659 214.523,-95.5201"/>
<polygon fill="midnightblue" stroke="midnightblue" points="127.466,-109.049 118.328,-114.411 128.815,-115.918 127.466,-109.049"/>
</g>
<!-- Node13 -->
<g id="node13" class="node"><title>Node13</title>
<g id="a_node13"><a xlink:href="classSprite.html#a7376c698bf914312fbcc7c2b8180cbed" target="_top" xlink:title="Sprite::isLayerUsed">
<polygon fill="none" stroke="black" points="209,-38.5 209,-57.5 319,-57.5 319,-38.5 209,-38.5"/>
<text text-anchor="middle" x="264" y="-45.5" font-family="Helvetica,sans-Serif" font-size="10.00">Sprite::isLayerUsed</text>
</a>
</g>
</g>
<!-- Node1&#45;&gt;Node13 -->
<g id="edge12" class="edge"><title>Node1&#45;&gt;Node13</title>
<path fill="none" stroke="midnightblue" d="M92.1437,-108.957C112.509,-96.0666 143.651,-77.904 173,-67 184.377,-62.7731 196.931,-59.3814 208.96,-56.7015"/>
<polygon fill="midnightblue" stroke="midnightblue" points="90.1038,-106.108 83.5901,-114.464 93.8929,-111.993 90.1038,-106.108"/>
</g>
<!-- Node14 -->
<g id="node14" class="node"><title>Node14</title>
<g id="a_node14"><a xlink:href="classSprite.html#aedfac1c3b8a22c5ae4d97bd9586a6a26" target="_top" xlink:title="Sprite::getActiveDestRect">
<polygon fill="none" stroke="black" points="194.5,-0.5 194.5,-19.5 333.5,-19.5 333.5,-0.5 194.5,-0.5"/>
<text text-anchor="middle" x="264" y="-7.5" font-family="Helvetica,sans-Serif" font-size="10.00">Sprite::getActiveDestRect</text>
</a>
</g>
</g>
<!-- Node1&#45;&gt;Node14 -->
<g id="edge13" class="edge"><title>Node1&#45;&gt;Node14</title>
<path fill="none" stroke="midnightblue" d="M83.2431,-106.618C101.393,-84.9192 135.475,-48.3135 173,-29 180.525,-25.1267 188.793,-22.0428 197.172,-19.5875"/>
<polygon fill="midnightblue" stroke="midnightblue" points="80.5046,-104.438 76.8865,-114.396 85.9247,-108.868 80.5046,-104.438"/>
</g>
<!-- Node5 -->
<g id="node5" class="node"><title>Node5</title>
<g id="a_node5"><a xlink:href="classMap.html#a4619fa631a0082754a92f1d3a8530bba" target="_top" xlink:title="Returns the node at given screencoordinates. ">
<polygon fill="none" stroke="black" points="391,-152.5 391,-171.5 505,-171.5 505,-152.5 391,-152.5"/>
<text text-anchor="middle" x="448" y="-159.5" font-family="Helvetica,sans-Serif" font-size="10.00">Map::findNodeInMap</text>
</a>
</g>
</g>
<!-- Node4&#45;&gt;Node5 -->
<g id="edge4" class="edge"><title>Node4&#45;&gt;Node5</title>
<path fill="none" stroke="midnightblue" d="M332.283,-162C351.507,-162 372.249,-162 390.74,-162"/>
<polygon fill="midnightblue" stroke="midnightblue" points="332.087,-158.5 322.087,-162 332.087,-165.5 332.087,-158.5"/>
</g>
<!-- Node6 -->
<g id="node6" class="node"><title>Node6</title>
<g id="a_node6"><a xlink:href="isoMath_8hxx.html#ad3c5f070c4a876bc6e8978635d02ce52" target="_top" xlink:title="converts screen space coordinates to isometric space coordinates. To convert screen coordinates in to...">
<polygon fill="none" stroke="black" points="541,-152.5 541,-171.5 708,-171.5 708,-152.5 541,-152.5"/>
<text text-anchor="middle" x="624.5" y="-159.5" font-family="Helvetica,sans-Serif" font-size="10.00">convertScreenToIsoCoordinates</text>
</a>
</g>
</g>
<!-- Node5&#45;&gt;Node6 -->
<g id="edge5" class="edge"><title>Node5&#45;&gt;Node6</title>
<path fill="none" stroke="midnightblue" d="M515.203,-162C523.556,-162 532.182,-162 540.749,-162"/>
<polygon fill="midnightblue" stroke="midnightblue" points="515.173,-158.5 505.173,-162 515.173,-165.5 515.173,-158.5"/>
</g>
<!-- Node7 -->
<g id="node7" class="node"><title>Node7</title>
<g id="a_node7"><a xlink:href="classEventManager.html#a65ec91fd5016d4f9c4167fb8babed2df" target="_top" xlink:title="EventManager::checkEvents">
<polygon fill="none" stroke="black" points="744,-152.5 744,-171.5 896,-171.5 896,-152.5 744,-152.5"/>
<text text-anchor="middle" x="820" y="-159.5" font-family="Helvetica,sans-Serif" font-size="10.00">EventManager::checkEvents</text>
</a>
</g>
</g>
<!-- Node6&#45;&gt;Node7 -->
<g id="edge6" class="edge"><title>Node6&#45;&gt;Node7</title>
<path fill="none" stroke="midnightblue" d="M718.142,-162C726.707,-162 735.315,-162 743.698,-162"/>
<polygon fill="midnightblue" stroke="midnightblue" points="718.123,-158.5 708.123,-162 718.123,-165.5 718.123,-158.5"/>
</g>
<!-- Node8 -->
<g id="node8" class="node"><title>Node8</title>
<g id="a_node8"><a xlink:href="classGame.html#a1c2ab25d5216b2f4b2fe41efd2c09114" target="_top" xlink:title="Game::run">
<polygon fill="none" stroke="black" points="932,-152.5 932,-171.5 1000,-171.5 1000,-152.5 932,-152.5"/>
<text text-anchor="middle" x="966" y="-159.5" font-family="Helvetica,sans-Serif" font-size="10.00">Game::run</text>
</a>
</g>
</g>
<!-- Node7&#45;&gt;Node8 -->
<g id="edge7" class="edge"><title>Node7&#45;&gt;Node8</title>
<path fill="none" stroke="midnightblue" d="M906.473,-162C915.339,-162 923.922,-162 931.658,-162"/>
<polygon fill="midnightblue" stroke="midnightblue" points="906.374,-158.5 896.374,-162 906.374,-165.5 906.374,-158.5"/>
</g>
<!-- Node9 -->
<g id="node9" class="node"><title>Node9</title>
<g id="a_node9"><a xlink:href="main_8cxx.html#af582d708d899e67ead623eac34a22387" target="_top" xlink:title="protected_main">
<polygon fill="none" stroke="black" points="1036,-152.5 1036,-171.5 1128,-171.5 1128,-152.5 1036,-152.5"/>
<text text-anchor="middle" x="1082" y="-159.5" font-family="Helvetica,sans-Serif" font-size="10.00">protected_main</text>
</a>
</g>
</g>
<!-- Node8&#45;&gt;Node9 -->
<g id="edge8" class="edge"><title>Node8&#45;&gt;Node9</title>
<path fill="none" stroke="midnightblue" d="M1010.44,-162C1018.67,-162 1027.31,-162 1035.6,-162"/>
<polygon fill="midnightblue" stroke="midnightblue" points="1010.28,-158.5 1000.28,-162 1010.28,-165.5 1010.28,-158.5"/>
</g>
<!-- Node10 -->
<g id="node10" class="node"><title>Node10</title>
<g id="a_node10"><a xlink:href="main_8cxx.html#a3c04138a5bfe5d72780bb7e82a18e627" target="_top" xlink:title="main">
<polygon fill="none" stroke="black" points="1164,-152.5 1164,-171.5 1205,-171.5 1205,-152.5 1164,-152.5"/>
<text text-anchor="middle" x="1184.5" y="-159.5" font-family="Helvetica,sans-Serif" font-size="10.00">main</text>
</a>
</g>
</g>
<!-- Node9&#45;&gt;Node10 -->
<g id="edge9" class="edge"><title>Node9&#45;&gt;Node10</title>
<path fill="none" stroke="midnightblue" d="M1138.54,-162C1147.62,-162 1156.47,-162 1163.88,-162"/>
<polygon fill="midnightblue" stroke="midnightblue" points="1138.25,-158.5 1128.25,-162 1138.25,-165.5 1138.25,-158.5"/>
</g>
</g>
</svg>
