<?xml version="1.0" encoding="UTF-8" standalone="no"?>
<!DOCTYPE svg PUBLIC "-//W3C//DTD SVG 1.1//EN"
 "http://www.w3.org/Graphics/SVG/1.1/DTD/svg11.dtd">
<!-- Generated by graphviz version 2.38.0 (20140413.2041)
 -->
<!-- Title: UIManager::getUiElementsOfGroup Pages: 1 -->
<svg width="571pt" height="39pt"
 viewBox="0.00 0.00 571.00 39.00" xmlns="http://www.w3.org/2000/svg" xmlns:xlink="http://www.w3.org/1999/xlink">
<g id="graph0" class="graph" transform="scale(1 1) rotate(0) translate(4 35)">
<title>UIManager::getUiElementsOfGroup</title>
<!-- Node1 -->
<g id="node1" class="node"><title>Node1</title>
<polygon fill="#bfbfbf" stroke="black" points="0,-0.5 0,-30.5 145,-30.5 145,-0.5 0,-0.5"/>
<text text-anchor="start" x="8" y="-18.5" font-family="Helvetica,sans-Serif" font-size="10.00">UIManager::getUiElements</text>
<text text-anchor="middle" x="72.5" y="-7.5" font-family="Helvetica,sans-Serif" font-size="10.00">OfGroup</text>
</g>
<!-- Node2 -->
<g id="node2" class="node"><title>Node2</title>
<g id="a_node2"><a xlink:href="classButtonGroup.html#aa1a05dec9459ad23e5d7028fa9d35850" target="_top" xlink:title="Function to call the uncheck event of buttons. Function to call the uncheck event of buttons...">
<polygon fill="none" stroke="black" points="181,-6 181,-25 354,-25 354,-6 181,-6"/>
<text text-anchor="middle" x="267.5" y="-13" font-family="Helvetica,sans-Serif" font-size="10.00">ButtonGroup::uncheckAllButtons</text>
</a>
</g>
</g>
<!-- Node1&#45;&gt;Node2 -->
<g id="edge1" class="edge"><title>Node1&#45;&gt;Node2</title>
<path fill="none" stroke="midnightblue" d="M155.345,-15.5C163.829,-15.5 172.467,-15.5 180.99,-15.5"/>
<polygon fill="midnightblue" stroke="midnightblue" points="155.092,-12.0001 145.092,-15.5 155.092,-19.0001 155.092,-12.0001"/>
</g>
<!-- Node3 -->
<g id="node3" class="node"><title>Node3</title>
<g id="a_node3"><a xlink:href="classButtonGroup.html#a295239eeae8b6c52735fe0cc7a093741" target="_top" xlink:title="ButtonGroup::onMouseButtonUp">
<polygon fill="none" stroke="black" points="390,-6 390,-25 563,-25 563,-6 390,-6"/>
<text text-anchor="middle" x="476.5" y="-13" font-family="Helvetica,sans-Serif" font-size="10.00">ButtonGroup::onMouseButtonUp</text>
</a>
</g>
</g>
<!-- Node2&#45;&gt;Node3 -->
<g id="edge2" class="edge"><title>Node2&#45;&gt;Node3</title>
<path fill="none" stroke="midnightblue" d="M364.198,-15.5C372.764,-15.5 381.402,-15.5 389.875,-15.5"/>
<polygon fill="midnightblue" stroke="midnightblue" points="364.189,-12.0001 354.189,-15.5 364.189,-19.0001 364.189,-12.0001"/>
</g>
</g>
</svg>
