<?xml version="1.0" encoding="UTF-8" standalone="no"?>
<!DOCTYPE svg PUBLIC "-//W3C//DTD SVG 1.1//EN"
 "http://www.w3.org/Graphics/SVG/1.1/DTD/svg11.dtd">
<!-- Generated by graphviz version 2.38.0 (20140413.2041)
 -->
<!-- Title: UIElement::renderTexture Pages: 1 -->
<svg width="355pt" height="142pt"
 viewBox="0.00 0.00 355.00 142.00" xmlns="http://www.w3.org/2000/svg" xmlns:xlink="http://www.w3.org/1999/xlink">
<g id="graph0" class="graph" transform="scale(1 1) rotate(0) translate(4 138)">
<title>UIElement::renderTexture</title>
<!-- Node1 -->
<g id="node1" class="node"><title>Node1</title>
<polygon fill="#bfbfbf" stroke="black" points="0,-57.5 0,-76.5 138,-76.5 138,-57.5 0,-57.5"/>
<text text-anchor="middle" x="69" y="-64.5" font-family="Helvetica,sans-Serif" font-size="10.00">UIElement::renderTexture</text>
</g>
<!-- Node2 -->
<g id="node2" class="node"><title>Node2</title>
<g id="a_node2"><a xlink:href="classButton.html#af4d14cf544d8e0620f4ffcd7984103f7" target="_top" xlink:title="Draw the UI Element and/or render it&#39;s textures to the screen Renders the texture of the Ui Element...">
<polygon fill="none" stroke="black" points="174,-114.5 174,-133.5 251,-133.5 251,-114.5 174,-114.5"/>
<text text-anchor="middle" x="212.5" y="-121.5" font-family="Helvetica,sans-Serif" font-size="10.00">Button::draw</text>
</a>
</g>
</g>
<!-- Node1&#45;&gt;Node2 -->
<g id="edge1" class="edge"><title>Node1&#45;&gt;Node2</title>
<path fill="none" stroke="midnightblue" d="M103.118,-80.3409C129.07,-90.795 164.55,-105.087 187.739,-114.428"/>
<polygon fill="midnightblue" stroke="midnightblue" points="104.267,-77.0306 93.6839,-76.5405 101.652,-83.5236 104.267,-77.0306"/>
</g>
<!-- Node3 -->
<g id="node3" class="node"><title>Node3</title>
<g id="a_node3"><a xlink:href="classImage.html#af67dbed0b509945e278bdd88088615cf" target="_top" xlink:title="Draw the UI Element and/or render it&#39;s textures to the screen Renders the texture of the Ui Element...">
<polygon fill="none" stroke="black" points="175,-76.5 175,-95.5 250,-95.5 250,-76.5 175,-76.5"/>
<text text-anchor="middle" x="212.5" y="-83.5" font-family="Helvetica,sans-Serif" font-size="10.00">Image::draw</text>
</a>
</g>
</g>
<!-- Node1&#45;&gt;Node3 -->
<g id="edge2" class="edge"><title>Node1&#45;&gt;Node3</title>
<path fill="none" stroke="midnightblue" d="M148.28,-77.5111C157.477,-78.746 166.501,-79.9578 174.724,-81.0618"/>
<polygon fill="midnightblue" stroke="midnightblue" points="148.64,-74.0281 138.263,-76.1661 147.708,-80.9658 148.64,-74.0281"/>
</g>
<!-- Node4 -->
<g id="node4" class="node"><title>Node4</title>
<g id="a_node4"><a xlink:href="classText.html#a8f486a54a21fafc7a5dfb75975f1621f" target="_top" xlink:title="implements draw function. Renders the SDL_Texture generated from the TTF. ">
<polygon fill="none" stroke="black" points="180.5,-38.5 180.5,-57.5 244.5,-57.5 244.5,-38.5 180.5,-38.5"/>
<text text-anchor="middle" x="212.5" y="-45.5" font-family="Helvetica,sans-Serif" font-size="10.00">Text::draw</text>
</a>
</g>
</g>
<!-- Node1&#45;&gt;Node4 -->
<g id="edge3" class="edge"><title>Node1&#45;&gt;Node4</title>
<path fill="none" stroke="midnightblue" d="M148.247,-56.4933C159.566,-54.9735 170.625,-53.4885 180.25,-52.1961"/>
<polygon fill="midnightblue" stroke="midnightblue" points="147.708,-53.0342 138.263,-57.8339 148.64,-59.9719 147.708,-53.0342"/>
</g>
<!-- Node6 -->
<g id="node6" class="node"><title>Node6</title>
<g id="a_node6"><a xlink:href="classTooltip.html#af6075fc45363e3072fd532f7a1bf1376" target="_top" xlink:title="implements draw function. Renders the SDL_Texture generated from the TTF. ">
<polygon fill="none" stroke="black" points="175,-0.5 175,-19.5 250,-19.5 250,-0.5 175,-0.5"/>
<text text-anchor="middle" x="212.5" y="-7.5" font-family="Helvetica,sans-Serif" font-size="10.00">Tooltip::draw</text>
</a>
</g>
</g>
<!-- Node1&#45;&gt;Node6 -->
<g id="edge5" class="edge"><title>Node1&#45;&gt;Node6</title>
<path fill="none" stroke="midnightblue" d="M103.118,-53.6591C129.07,-43.205 164.55,-28.9126 187.739,-19.5716"/>
<polygon fill="midnightblue" stroke="midnightblue" points="101.652,-50.4764 93.6839,-57.4595 104.267,-56.9694 101.652,-50.4764"/>
</g>
<!-- Node5 -->
<g id="node5" class="node"><title>Node5</title>
<g id="a_node5"><a xlink:href="classText.html#ab3e26143fccc52699bcc5149cae852bc" target="_top" xlink:title="default Constructor ">
<polygon fill="none" stroke="black" points="287,-38.5 287,-57.5 347,-57.5 347,-38.5 287,-38.5"/>
<text text-anchor="middle" x="317" y="-45.5" font-family="Helvetica,sans-Serif" font-size="10.00">Text::Text</text>
</a>
</g>
</g>
<!-- Node4&#45;&gt;Node5 -->
<g id="edge4" class="edge"><title>Node4&#45;&gt;Node5</title>
<path fill="none" stroke="midnightblue" d="M254.615,-48C265.4,-48 276.809,-48 286.827,-48"/>
<polygon fill="midnightblue" stroke="midnightblue" points="254.532,-44.5001 244.532,-48 254.532,-51.5001 254.532,-44.5001"/>
</g>
</g>
</svg>
