<?xml version="1.0" encoding="UTF-8" standalone="no"?>
<!DOCTYPE svg PUBLIC "-//W3C//DTD SVG 1.1//EN"
 "http://www.w3.org/Graphics/SVG/1.1/DTD/svg11.dtd">
<!-- Generated by graphviz version 2.38.0 (20140413.2041)
 -->
<!-- Title: UIElement::drawButtonFrame Pages: 1 -->
<svg width="347pt" height="66pt"
 viewBox="0.00 0.00 347.00 66.00" xmlns="http://www.w3.org/2000/svg" xmlns:xlink="http://www.w3.org/1999/xlink">
<g id="graph0" class="graph" transform="scale(1 1) rotate(0) translate(4 62)">
<title>UIElement::drawButtonFrame</title>
<!-- Node1 -->
<g id="node1" class="node"><title>Node1</title>
<polygon fill="#bfbfbf" stroke="black" points="0,-19.5 0,-38.5 157,-38.5 157,-19.5 0,-19.5"/>
<text text-anchor="middle" x="78.5" y="-26.5" font-family="Helvetica,sans-Serif" font-size="10.00">UIElement::drawButtonFrame</text>
</g>
<!-- Node2 -->
<g id="node2" class="node"><title>Node2</title>
<g id="a_node2"><a xlink:href="classUIElement.html#a98725ac250168ebb2fa676dd481ff495" target="_top" xlink:title="Get the button state Get the current mouse button pressed state. ">
<polygon fill="none" stroke="black" points="193,-38.5 193,-57.5 339,-57.5 339,-38.5 193,-38.5"/>
<text text-anchor="middle" x="266" y="-45.5" font-family="Helvetica,sans-Serif" font-size="10.00">UIElement::getButtonState</text>
</a>
</g>
</g>
<!-- Node1&#45;&gt;Node2 -->
<g id="edge1" class="edge"><title>Node1&#45;&gt;Node2</title>
<path fill="none" stroke="midnightblue" d="M157.094,-36.9476C165.585,-37.8174 174.251,-38.705 182.796,-39.5802"/>
<polygon fill="midnightblue" stroke="midnightblue" points="182.449,-43.0629 192.754,-40.6001 183.163,-36.0993 182.449,-43.0629"/>
</g>
<!-- Node3 -->
<g id="node3" class="node"><title>Node3</title>
<g id="a_node3"><a xlink:href="classUIElement.html#a93e23ad405b6275a99d5f71d32232f5c" target="_top" xlink:title="Draws a filled rectangle to the screen. Draws a filled rectangle to the screen. ">
<polygon fill="none" stroke="black" points="197,-0.5 197,-19.5 335,-19.5 335,-0.5 197,-0.5"/>
<text text-anchor="middle" x="266" y="-7.5" font-family="Helvetica,sans-Serif" font-size="10.00">UIElement::drawSolidRect</text>
</a>
</g>
</g>
<!-- Node1&#45;&gt;Node3 -->
<g id="edge2" class="edge"><title>Node1&#45;&gt;Node3</title>
<path fill="none" stroke="midnightblue" d="M157.094,-21.0524C166.894,-20.0486 176.926,-19.021 186.737,-18.0162"/>
<polygon fill="midnightblue" stroke="midnightblue" points="187.27,-21.48 196.861,-16.9792 186.556,-14.5164 187.27,-21.48"/>
</g>
</g>
</svg>
