<?xml version="1.0" encoding="UTF-8" standalone="no"?>
<!DOCTYPE svg PUBLIC "-//W3C//DTD SVG 1.1//EN"
 "http://www.w3.org/Graphics/SVG/1.1/DTD/svg11.dtd">
<!-- Generated by graphviz version 2.38.0 (20140413.2041)
 -->
<!-- Title: Map::getNeighboringTilesBitmask Pages: 1 -->
<!--zoomable 374 -->
<svg id="main" version="1.1" xmlns="http://www.w3.org/2000/svg" xmlns:xlink="http://www.w3.org/1999/xlink" xml:space="preserve" onload="init(evt)">
<style type="text/css"><![CDATA[
.edge:hover path { stroke: red; }
.edge:hover polygon { stroke: red; fill: red; }
]]></style>
<script type="text/javascript"><![CDATA[
var edges = document.getElementsByTagName('g');
if (edges && edges.length) {
  for (var i=0;i<edges.length;i++) {
    if (edges[i].id.substr(0,4)=='edge') {
      edges[i].setAttribute('class','edge');
    }
  }
}
]]></script>
        <defs>
                <circle id="rim" cx="0" cy="0" r="7"/>
                <circle id="rim2" cx="0" cy="0" r="3.5"/>
                <g id="zoomPlus">
                        <use xlink:href="#rim" fill="#404040">
                                <set attributeName="fill" to="#808080" begin="zoomplus.mouseover" end="zoomplus.mouseout"/>
                        </use>
                        <path d="M-4,0h8M0,-4v8" fill="none" stroke="white" stroke-width="1.5" pointer-events="none"/>
                </g>
                <g id="zoomMin">
                        <use xlink:href="#rim" fill="#404040">
                                <set attributeName="fill" to="#808080" begin="zoomminus.mouseover" end="zoomminus.mouseout"/>
                        </use>
                        <path d="M-4,0h8" fill="none" stroke="white" stroke-width="1.5" pointer-events="none"/>
                </g>
                <g id="dirArrow">
                        <path fill="none" stroke="white" stroke-width="1.5" d="M0,-3.0v7 M-2.5,-0.5L0,-3.0L2.5,-0.5"/>
                </g>
               <g id="resetDef">
                       <use xlink:href="#rim2" fill="#404040">
                               <set attributeName="fill" to="#808080" begin="reset.mouseover" end="reset.mouseout"/>
                       </use>
               </g>
        </defs>

<script type="text/javascript">
var viewWidth = 1793;
var viewHeight = 374;
var sectionId = 'dynsection-10';
</script>
<script xlink:href="svgpan.js"/>
<svg id="graph" class="graph">
<g id="viewport">
<title>Map::getNeighboringTilesBitmask</title>
<!-- Node1 -->
<g id="node1" class="node"><title>Node1</title>
<polygon fill="#bfbfbf" stroke="black" points="0,-271.678 0,-301.678 137,-301.678 137,-271.678 0,-271.678"/>
<text text-anchor="start" x="8" y="-289.678" font-family="Helvetica,sans-Serif" font-size="10.00">Map::getNeighboringTiles</text>
<text text-anchor="middle" x="68.5" y="-278.678" font-family="Helvetica,sans-Serif" font-size="10.00">Bitmask</text>
</g>
<!-- Node2 -->
<g id="node2" class="node"><title>Node2</title>
<g id="a_node2"><a xlink:href="classMap.html#a59d21f2688713fbcfe320eb1b24405ca" target="_top" xlink:title="Update mapNode and its adjacent tiles Updates mapNode height information, draws slopes for adjacent t...">
<polygon fill="none" stroke="black" points="173,-277.178 173,-296.178 334,-296.178 334,-277.178 173,-277.178"/>
<text text-anchor="middle" x="253.5" y="-284.178" font-family="Helvetica,sans-Serif" font-size="10.00">Map::updateNeighborsOfNode</text>
</a>
</g>
</g>
<!-- Node1&#45;&gt;Node2 -->
<g id="edge1" class="edge"><title>Node1&#45;&gt;Node2</title>
<path fill="none" stroke="midnightblue" d="M147.306,-286.678C155.736,-286.678 164.324,-286.678 172.776,-286.678"/>
<polygon fill="midnightblue" stroke="midnightblue" points="147.123,-283.178 137.123,-286.678 147.122,-290.178 147.123,-283.178"/>
</g>
<!-- Node3 -->
<g id="node3" class="node"><title>Node3</title>
<g id="a_node3"><a xlink:href="classMap.html#aba5154a4d917900679a3c0f7ec701561" target="_top" xlink:title="Increase Height Increases the height of the node and checks the surrounding tiles. Either draw a slope sprite or elevate the tile if necessary. ">
<polygon fill="none" stroke="black" points="527,-346.178 527,-365.178 642,-365.178 642,-346.178 527,-346.178"/>
<text text-anchor="middle" x="584.5" y="-353.178" font-family="Helvetica,sans-Serif" font-size="10.00">Map::increaseHeight</text>
</a>
</g>
</g>
<!-- Node2&#45;&gt;Node3 -->
<g id="edge2" class="edge"><title>Node2&#45;&gt;Node3</title>
<path fill="none" stroke="midnightblue" d="M303.975,-299.665C324.123,-306.931 347.846,-315.285 370,-320.678 426.416,-334.412 493.069,-341.054 536.707,-346.17"/>
<polygon fill="midnightblue" stroke="midnightblue" points="304.989,-296.31 294.395,-296.203 302.61,-302.893 304.989,-296.31"/>
</g>
<!-- Node9 -->
<g id="node9" class="node"><title>Node9</title>
<g id="a_node9"><a xlink:href="classMap.html#afb8cc864df90d273a5074872d635dc40" target="_top" xlink:title="Decrease Height Decreases the height of the node and checks the surrounding tiles. Either draw a slope sprite or lower the tile if necessary. ">
<polygon fill="none" stroke="black" points="525,-257.178 525,-276.178 644,-276.178 644,-257.178 525,-257.178"/>
<text text-anchor="middle" x="584.5" y="-264.178" font-family="Helvetica,sans-Serif" font-size="10.00">Map::decreaseHeight</text>
</a>
</g>
</g>
<!-- Node2&#45;&gt;Node9 -->
<g id="edge9" class="edge"><title>Node2&#45;&gt;Node9</title>
<path fill="none" stroke="midnightblue" d="M330.34,-276.278C389.582,-271.251 470.702,-266.481 524.994,-264.929"/>
<polygon fill="midnightblue" stroke="midnightblue" points="329.946,-272.799 320.287,-277.152 330.553,-279.773 329.946,-272.799"/>
</g>
<!-- Node11 -->
<g id="node11" class="node"><title>Node11</title>
<g id="a_node11"><a xlink:href="classMap.html#a481b37ba71ef0e51e836fc42805762dd" target="_top" xlink:title="Update all mapNodes Updates all mapNode and its adjacent tiles regarding height information, draws slopes for adjacent tiles and sets tiling for mapNode sprite if applicable. ">
<polygon fill="none" stroke="black" points="370,-159.178 370,-178.178 489,-178.178 489,-159.178 370,-159.178"/>
<text text-anchor="middle" x="429.5" y="-166.178" font-family="Helvetica,sans-Serif" font-size="10.00">Map::updateAllNodes</text>
</a>
</g>
</g>
<!-- Node2&#45;&gt;Node11 -->
<g id="edge13" class="edge"><title>Node2&#45;&gt;Node11</title>
<path fill="none" stroke="midnightblue" d="M273.086,-270.506C295.242,-251.675 333.828,-220.274 370,-197.678 381.633,-190.411 395.338,-183.535 406.558,-178.304"/>
<polygon fill="midnightblue" stroke="midnightblue" points="270.752,-267.897 265.438,-277.063 275.308,-273.211 270.752,-267.897"/>
</g>
<!-- Node21 -->
<g id="node21" class="node"><title>Node21</title>
<g id="a_node21"><a xlink:href="classMap.html#ad4c2c2f80eab02ca32a748a62a56da12" target="_top" xlink:title="Set the Tile ID Of Node object Also invokes all necessary texture updates (auto&#45;tiling, slopes, ...) ">
<polygon fill="none" stroke="black" points="370,-207.178 370,-226.178 489,-226.178 489,-207.178 370,-207.178"/>
<text text-anchor="middle" x="429.5" y="-214.178" font-family="Helvetica,sans-Serif" font-size="10.00">Map::setTileIDOfNode</text>
</a>
</g>
</g>
<!-- Node2&#45;&gt;Node21 -->
<g id="edge33" class="edge"><title>Node2&#45;&gt;Node21</title>
<path fill="none" stroke="midnightblue" d="M287.892,-273.244C322.105,-259.481 374.442,-238.425 404.68,-226.261"/>
<polygon fill="midnightblue" stroke="midnightblue" points="286.3,-270.112 278.329,-277.092 288.913,-276.606 286.3,-270.112"/>
</g>
<!-- Node23 -->
<g id="node23" class="node"><title>Node23</title>
<g id="a_node23"><a xlink:href="classMap.html#a05e7d896dc5062af07c9b838600a068d" target="_top" xlink:title="Demolish a node Invokes the tiles demolish function. ">
<polygon fill="none" stroke="black" points="373.5,-301.178 373.5,-320.178 485.5,-320.178 485.5,-301.178 373.5,-301.178"/>
<text text-anchor="middle" x="429.5" y="-308.178" font-family="Helvetica,sans-Serif" font-size="10.00">Map::demolishNode</text>
</a>
</g>
</g>
<!-- Node2&#45;&gt;Node23 -->
<g id="edge36" class="edge"><title>Node2&#45;&gt;Node23</title>
<path fill="none" stroke="midnightblue" d="M344.182,-292.301C363.439,-294.998 382.52,-298.112 397.648,-301.122"/>
<polygon fill="midnightblue" stroke="midnightblue" points="344.497,-288.811 334.116,-290.931 343.553,-295.747 344.497,-288.811"/>
</g>
<!-- Node3&#45;&gt;Node2 -->
<g id="edge8" class="edge"><title>Node3&#45;&gt;Node2</title>
<path fill="none" stroke="midnightblue" d="M516.449,-359.314C474.02,-356.986 418.264,-350.427 370,-338.678 329.46,-328.809 283.665,-309.026 264.143,-296.18"/>
<polygon fill="midnightblue" stroke="midnightblue" points="516.504,-362.82 526.661,-359.804 516.84,-355.828 516.504,-362.82"/>
</g>
<!-- Node4 -->
<g id="node4" class="node"><title>Node4</title>
<g id="a_node4"><a xlink:href="classEngine.html#aa7210df73b284c19cd6edcfa99a4532e" target="_top" xlink:title="Increase Height Increases the height of the given map node Calls the according function of the Map ob...">
<polygon fill="none" stroke="black" points="847,-340.178 847,-359.178 974,-359.178 974,-340.178 847,-340.178"/>
<text text-anchor="middle" x="910.5" y="-347.178" font-family="Helvetica,sans-Serif" font-size="10.00">Engine::increaseHeight</text>
</a>
</g>
</g>
<!-- Node3&#45;&gt;Node4 -->
<g id="edge3" class="edge"><title>Node3&#45;&gt;Node4</title>
<path fill="none" stroke="midnightblue" d="M652.323,-354.44C709.46,-353.382 791.07,-351.871 846.943,-350.836"/>
<polygon fill="midnightblue" stroke="midnightblue" points="652.241,-350.941 642.307,-354.626 652.37,-357.94 652.241,-350.941"/>
</g>
<!-- Node5 -->
<g id="node5" class="node"><title>Node5</title>
<g id="a_node5"><a xlink:href="classEventManager.html#a65ec91fd5016d4f9c4167fb8babed2df" target="_top" xlink:title="EventManager::checkEvents">
<polygon fill="none" stroke="black" points="1188,-244.178 1188,-263.178 1340,-263.178 1340,-244.178 1188,-244.178"/>
<text text-anchor="middle" x="1264" y="-251.178" font-family="Helvetica,sans-Serif" font-size="10.00">EventManager::checkEvents</text>
</a>
</g>
</g>
<!-- Node4&#45;&gt;Node5 -->
<g id="edge4" class="edge"><title>Node4&#45;&gt;Node5</title>
<path fill="none" stroke="midnightblue" d="M984.518,-349.442C1030.45,-347.426 1090.38,-341.327 1141,-324.678 1184.53,-310.359 1229.56,-279.075 1250.68,-263.251"/>
<polygon fill="midnightblue" stroke="midnightblue" points="984.206,-345.952 974.348,-349.833 984.475,-352.947 984.206,-345.952"/>
</g>
<!-- Node6 -->
<g id="node6" class="node"><title>Node6</title>
<g id="a_node6"><a xlink:href="classGame.html#a1c2ab25d5216b2f4b2fe41efd2c09114" target="_top" xlink:title="Game::run">
<polygon fill="none" stroke="black" points="1512,-92.1779 1512,-111.178 1580,-111.178 1580,-92.1779 1512,-92.1779"/>
<text text-anchor="middle" x="1546" y="-99.1779" font-family="Helvetica,sans-Serif" font-size="10.00">Game::run</text>
</a>
</g>
</g>
<!-- Node5&#45;&gt;Node6 -->
<g id="edge5" class="edge"><title>Node5&#45;&gt;Node6</title>
<path fill="none" stroke="midnightblue" d="M1291.58,-239.249C1348.31,-208.451 1479.96,-136.983 1527.49,-111.183"/>
<polygon fill="midnightblue" stroke="midnightblue" points="1289.63,-236.323 1282.52,-244.17 1292.97,-242.475 1289.63,-236.323"/>
</g>
<!-- Node7 -->
<g id="node7" class="node"><title>Node7</title>
<g id="a_node7"><a xlink:href="main_8cxx.html#af582d708d899e67ead623eac34a22387" target="_top" xlink:title="protected_main">
<polygon fill="none" stroke="black" points="1616,-130.178 1616,-149.178 1708,-149.178 1708,-130.178 1616,-130.178"/>
<text text-anchor="middle" x="1662" y="-137.178" font-family="Helvetica,sans-Serif" font-size="10.00">protected_main</text>
</a>
</g>
</g>
<!-- Node6&#45;&gt;Node7 -->
<g id="edge6" class="edge"><title>Node6&#45;&gt;Node7</title>
<path fill="none" stroke="midnightblue" d="M1585.48,-114.504C1600.77,-119.603 1618.07,-125.367 1632.24,-130.092"/>
<polygon fill="midnightblue" stroke="midnightblue" points="1586.36,-111.109 1575.77,-111.267 1584.15,-117.75 1586.36,-111.109"/>
</g>
<!-- Node8 -->
<g id="node8" class="node"><title>Node8</title>
<g id="a_node8"><a xlink:href="main_8cxx.html#a3c04138a5bfe5d72780bb7e82a18e627" target="_top" xlink:title="main">
<polygon fill="none" stroke="black" points="1744,-130.178 1744,-149.178 1785,-149.178 1785,-130.178 1744,-130.178"/>
<text text-anchor="middle" x="1764.5" y="-137.178" font-family="Helvetica,sans-Serif" font-size="10.00">main</text>
</a>
</g>
</g>
<!-- Node7&#45;&gt;Node8 -->
<g id="edge7" class="edge"><title>Node7&#45;&gt;Node8</title>
<path fill="none" stroke="midnightblue" d="M1718.54,-139.678C1727.62,-139.678 1736.47,-139.678 1743.88,-139.678"/>
<polygon fill="midnightblue" stroke="midnightblue" points="1718.25,-136.178 1708.25,-139.678 1718.25,-143.178 1718.25,-136.178"/>
</g>
<!-- Node9&#45;&gt;Node2 -->
<g id="edge12" class="edge"><title>Node9&#45;&gt;Node2</title>
<path fill="none" stroke="midnightblue" d="M514.704,-276.47C462.044,-281.096 389.322,-285.606 334.142,-287.715"/>
<polygon fill="midnightblue" stroke="midnightblue" points="515.312,-279.929 524.957,-275.544 514.683,-272.958 515.312,-279.929"/>
</g>
<!-- Node10 -->
<g id="node10" class="node"><title>Node10</title>
<g id="a_node10"><a xlink:href="classEngine.html#a3e87fa5bbc0de7cde5fe6092ddf21a37" target="_top" xlink:title="Decrease Height Decreases the height of the given map node Calls the according function of the Map ob...">
<polygon fill="none" stroke="black" points="680,-259.178 680,-278.178 811,-278.178 811,-259.178 680,-259.178"/>
<text text-anchor="middle" x="745.5" y="-266.178" font-family="Helvetica,sans-Serif" font-size="10.00">Engine::decreaseHeight</text>
</a>
</g>
</g>
<!-- Node9&#45;&gt;Node10 -->
<g id="edge10" class="edge"><title>Node9&#45;&gt;Node10</title>
<path fill="none" stroke="midnightblue" d="M654.436,-267.545C662.87,-267.651 671.466,-267.759 679.835,-267.865"/>
<polygon fill="midnightblue" stroke="midnightblue" points="654.297,-264.043 644.254,-267.417 654.209,-271.043 654.297,-264.043"/>
</g>
<!-- Node10&#45;&gt;Node5 -->
<g id="edge11" class="edge"><title>Node10&#45;&gt;Node5</title>
<path fill="none" stroke="midnightblue" d="M821.243,-266.507C919.121,-263.665 1089.75,-258.709 1187.84,-255.861"/>
<polygon fill="midnightblue" stroke="midnightblue" points="821.025,-263.012 811.131,-266.801 821.229,-270.009 821.025,-263.012"/>
</g>
<!-- Node12 -->
<g id="node12" class="node"><title>Node12</title>
<g id="a_node12"><a xlink:href="classMap.html#a482ac34426e8aa66abb46f60ec329402" target="_top" xlink:title="Initialize the Map with node objects Initialize the Map with node objects. ">
<polygon fill="none" stroke="black" points="546,-121.178 546,-140.178 623,-140.178 623,-121.178 546,-121.178"/>
<text text-anchor="middle" x="584.5" y="-128.178" font-family="Helvetica,sans-Serif" font-size="10.00">Map::initMap</text>
</a>
</g>
</g>
<!-- Node11&#45;&gt;Node12 -->
<g id="edge14" class="edge"><title>Node11&#45;&gt;Node12</title>
<path fill="none" stroke="midnightblue" d="M479.093,-156.609C500.724,-151.237 525.804,-145.008 545.962,-140.001"/>
<polygon fill="midnightblue" stroke="midnightblue" points="477.97,-153.282 469.108,-159.089 479.657,-160.075 477.97,-153.282"/>
</g>
<!-- Node18 -->
<g id="node18" class="node"><title>Node18</title>
<g id="a_node18"><a xlink:href="classMap.html#afefe996cc1f62b61ec60d0ae415953bf" target="_top" xlink:title="Map::loadMapFromFile">
<polygon fill="none" stroke="black" points="684.5,-149.178 684.5,-168.178 806.5,-168.178 806.5,-149.178 684.5,-149.178"/>
<text text-anchor="middle" x="745.5" y="-156.178" font-family="Helvetica,sans-Serif" font-size="10.00">Map::loadMapFromFile</text>
</a>
</g>
</g>
<!-- Node11&#45;&gt;Node18 -->
<g id="edge32" class="edge"><title>Node11&#45;&gt;Node18</title>
<path fill="none" stroke="midnightblue" d="M499.264,-166.488C554.609,-164.725 631.617,-162.273 684.493,-160.589"/>
<polygon fill="midnightblue" stroke="midnightblue" points="499.076,-162.992 489.193,-166.809 499.299,-169.989 499.076,-162.992"/>
</g>
<!-- Node13 -->
<g id="node13" class="node"><title>Node13</title>
<g id="a_node13"><a xlink:href="classEngine.html#a260d4834150eae6eec2bde34df6dc827" target="_top" xlink:title="Creates a new game Creates a new game. ">
<polygon fill="none" stroke="black" points="859,-35.1779 859,-54.1779 962,-54.1779 962,-35.1779 859,-35.1779"/>
<text text-anchor="middle" x="910.5" y="-42.1779" font-family="Helvetica,sans-Serif" font-size="10.00">Engine::newGame</text>
</a>
</g>
</g>
<!-- Node12&#45;&gt;Node13 -->
<g id="edge15" class="edge"><title>Node12&#45;&gt;Node13</title>
<path fill="none" stroke="midnightblue" d="M631.386,-118.498C696.457,-101.226 814.205,-69.9724 873.428,-54.2527"/>
<polygon fill="midnightblue" stroke="midnightblue" points="630.179,-115.197 621.412,-121.146 631.975,-121.963 630.179,-115.197"/>
</g>
<!-- Node12&#45;&gt;Node18 -->
<g id="edge24" class="edge"><title>Node12&#45;&gt;Node18</title>
<path fill="none" stroke="midnightblue" d="M633.195,-139.077C651.257,-142.258 671.942,-145.9 690.54,-149.176"/>
<polygon fill="midnightblue" stroke="midnightblue" points="633.636,-135.601 623.181,-137.314 632.422,-142.495 633.636,-135.601"/>
</g>
<!-- Node13&#45;&gt;Node6 -->
<g id="edge23" class="edge"><title>Node13&#45;&gt;Node6</title>
<path fill="none" stroke="midnightblue" d="M946.102,-31.8482C964.746,-25.6132 988.314,-18.804 1010,-15.6779 1216.08,14.0279 1278.55,2.3814 1476,-63.6779 1496.36,-70.4901 1517.7,-83.2391 1531.16,-92.0808"/>
<polygon fill="midnightblue" stroke="midnightblue" points="944.883,-28.5661 936.567,-35.1296 947.161,-35.1851 944.883,-28.5661"/>
</g>
<!-- Node14 -->
<g id="node14" class="node"><title>Node14</title>
<g id="a_node14"><a xlink:href="classEngine.html#af7de8d74b0cfacaf06df53e7caf11538" target="_top" xlink:title="Engine::saveGame">
<polygon fill="none" stroke="black" points="1022,-35.1779 1022,-54.1779 1129,-54.1779 1129,-35.1779 1022,-35.1779"/>
<text text-anchor="middle" x="1075.5" y="-42.1779" font-family="Helvetica,sans-Serif" font-size="10.00">Engine::saveGame</text>
</a>
</g>
</g>
<!-- Node13&#45;&gt;Node14 -->
<g id="edge16" class="edge"><title>Node13&#45;&gt;Node14</title>
<path fill="none" stroke="midnightblue" d="M972.631,-44.6779C988.83,-44.6779 1006.18,-44.6779 1021.88,-44.6779"/>
<polygon fill="midnightblue" stroke="midnightblue" points="972.181,-41.178 962.181,-44.6779 972.181,-48.178 972.181,-41.178"/>
</g>
<!-- Node15 -->
<g id="node15" class="node"><title>Node15</title>
<g id="a_node15"><a xlink:href="classUIManager.html#aa78e356fc3b356d790c848319d1c387e" target="_top" xlink:title="UIManager::setCallbackFunctions">
<polygon fill="none" stroke="black" points="1177,-73.1779 1177,-92.1779 1351,-92.1779 1351,-73.1779 1177,-73.1779"/>
<text text-anchor="middle" x="1264" y="-80.1779" font-family="Helvetica,sans-Serif" font-size="10.00">UIManager::setCallbackFunctions</text>
</a>
</g>
</g>
<!-- Node13&#45;&gt;Node15 -->
<g id="edge20" class="edge"><title>Node13&#45;&gt;Node15</title>
<path fill="none" stroke="midnightblue" d="M957.152,-32.9497C1003.86,-22.7953 1078.28,-11.7481 1141,-25.6779 1182.08,-34.8012 1225.71,-59.2748 1247.99,-73.0019"/>
<polygon fill="midnightblue" stroke="midnightblue" points="956.32,-29.5493 947.333,-35.1603 957.857,-36.3784 956.32,-29.5493"/>
</g>
<!-- Node17 -->
<g id="node17" class="node"><title>Node17</title>
<g id="a_node17"><a xlink:href="classGame.html#a5ed7fc5be77080f7f6dd5363f7f007a1" target="_top" xlink:title="Game::mainMenu">
<polygon fill="none" stroke="black" points="1213,-149.178 1213,-168.178 1315,-168.178 1315,-149.178 1213,-149.178"/>
<text text-anchor="middle" x="1264" y="-156.178" font-family="Helvetica,sans-Serif" font-size="10.00">Game::mainMenu</text>
</a>
</g>
</g>
<!-- Node13&#45;&gt;Node17 -->
<g id="edge21" class="edge"><title>Node13&#45;&gt;Node17</title>
<path fill="none" stroke="midnightblue" d="M950.769,-57.4137C1021.83,-80.462 1170.26,-128.601 1233.47,-149.101"/>
<polygon fill="midnightblue" stroke="midnightblue" points="951.456,-53.9573 940.864,-54.2014 949.297,-60.6158 951.456,-53.9573"/>
</g>
<!-- Node14&#45;&gt;Node15 -->
<g id="edge17" class="edge"><title>Node14&#45;&gt;Node15</title>
<path fill="none" stroke="midnightblue" d="M1133.48,-56.2875C1160,-61.6919 1191.17,-68.0415 1216.28,-73.1579"/>
<polygon fill="midnightblue" stroke="midnightblue" points="1134.06,-52.834 1123.56,-54.267 1132.66,-59.6931 1134.06,-52.834"/>
</g>
<!-- Node16 -->
<g id="node16" class="node"><title>Node16</title>
<g id="a_node16"><a xlink:href="classUIManager.html#aedd9d0577af515a852425dfe414b2968" target="_top" xlink:title="Parses the UiLayout.json files and creates UI Elements. ">
<polygon fill="none" stroke="black" points="1387,-73.1779 1387,-92.1779 1476,-92.1779 1476,-73.1779 1387,-73.1779"/>
<text text-anchor="middle" x="1431.5" y="-80.1779" font-family="Helvetica,sans-Serif" font-size="10.00">UIManager::init</text>
</a>
</g>
</g>
<!-- Node15&#45;&gt;Node16 -->
<g id="edge18" class="edge"><title>Node15&#45;&gt;Node16</title>
<path fill="none" stroke="midnightblue" d="M1361.28,-82.6779C1370.19,-82.6779 1378.89,-82.6779 1386.95,-82.6779"/>
<polygon fill="midnightblue" stroke="midnightblue" points="1361.14,-79.178 1351.14,-82.6779 1361.14,-86.178 1361.14,-79.178"/>
</g>
<!-- Node16&#45;&gt;Node6 -->
<g id="edge19" class="edge"><title>Node16&#45;&gt;Node6</title>
<path fill="none" stroke="midnightblue" d="M1486.45,-91.7888C1495.15,-93.258 1503.92,-94.7397 1511.93,-96.0929"/>
<polygon fill="midnightblue" stroke="midnightblue" points="1486.76,-88.2925 1476.32,-90.0782 1485.6,-95.1948 1486.76,-88.2925"/>
</g>
<!-- Node17&#45;&gt;Node7 -->
<g id="edge22" class="edge"><title>Node17&#45;&gt;Node7</title>
<path fill="none" stroke="midnightblue" d="M1325.55,-155.773C1405.5,-151.937 1544.46,-145.27 1615.83,-141.845"/>
<polygon fill="midnightblue" stroke="midnightblue" points="1324.97,-152.296 1315.15,-156.272 1325.31,-159.288 1324.97,-152.296"/>
</g>
<!-- Node19 -->
<g id="node19" class="node"><title>Node19</title>
<g id="a_node19"><a xlink:href="classEngine.html#a83b7dbeee899b36a13d5b07c7ad87ebc" target="_top" xlink:title="Loads a saved game Loads a saved Game. ">
<polygon fill="none" stroke="black" points="858.5,-149.178 858.5,-168.178 962.5,-168.178 962.5,-149.178 858.5,-149.178"/>
<text text-anchor="middle" x="910.5" y="-156.178" font-family="Helvetica,sans-Serif" font-size="10.00">Engine::loadGame</text>
</a>
</g>
</g>
<!-- Node18&#45;&gt;Node19 -->
<g id="edge25" class="edge"><title>Node18&#45;&gt;Node19</title>
<path fill="none" stroke="midnightblue" d="M816.796,-158.678C830.759,-158.678 845.169,-158.678 858.344,-158.678"/>
<polygon fill="midnightblue" stroke="midnightblue" points="816.732,-155.178 806.732,-158.678 816.732,-162.178 816.732,-155.178"/>
</g>
<!-- Node19&#45;&gt;Node15 -->
<g id="edge30" class="edge"><title>Node19&#45;&gt;Node15</title>
<path fill="none" stroke="midnightblue" d="M965.553,-146.991C1035.13,-131.946 1154.71,-106.091 1219.02,-92.1874"/>
<polygon fill="midnightblue" stroke="midnightblue" points="964.696,-143.595 955.662,-149.129 966.176,-150.437 964.696,-143.595"/>
</g>
<!-- Node19&#45;&gt;Node17 -->
<g id="edge31" class="edge"><title>Node19&#45;&gt;Node17</title>
<path fill="none" stroke="midnightblue" d="M972.774,-158.678C1040.92,-158.678 1149.73,-158.678 1212.97,-158.678"/>
<polygon fill="midnightblue" stroke="midnightblue" points="972.611,-155.178 962.611,-158.678 972.611,-162.178 972.611,-155.178"/>
</g>
<!-- Node20 -->
<g id="node20" class="node"><title>Node20</title>
<g id="a_node20"><a xlink:href="classEngine.html#a0ba57971ffb5173ecc425461f65a4cd8" target="_top" xlink:title="Quits the game Sets m_running to false and quitting the game. ">
<polygon fill="none" stroke="black" points="1024.5,-187.178 1024.5,-206.178 1126.5,-206.178 1126.5,-187.178 1024.5,-187.178"/>
<text text-anchor="middle" x="1075.5" y="-194.178" font-family="Helvetica,sans-Serif" font-size="10.00">Engine::quitGame</text>
</a>
</g>
</g>
<!-- Node19&#45;&gt;Node20 -->
<g id="edge26" class="edge"><title>Node19&#45;&gt;Node20</title>
<path fill="none" stroke="midnightblue" d="M962.528,-170.574C985.439,-175.915 1012.1,-182.132 1033.66,-187.158"/>
<polygon fill="midnightblue" stroke="midnightblue" points="963.165,-167.129 952.632,-168.267 961.576,-173.946 963.165,-167.129"/>
</g>
<!-- Node20&#45;&gt;Node5 -->
<g id="edge27" class="edge"><title>Node20&#45;&gt;Node5</title>
<path fill="none" stroke="midnightblue" d="M1119.12,-209.13C1126.42,-211.294 1133.93,-213.537 1141,-215.678 1172.32,-225.167 1208.05,-236.336 1232.71,-244.1"/>
<polygon fill="midnightblue" stroke="midnightblue" points="1119.92,-205.719 1109.34,-206.246 1117.94,-212.433 1119.92,-205.719"/>
</g>
<!-- Node20&#45;&gt;Node15 -->
<g id="edge28" class="edge"><title>Node20&#45;&gt;Node15</title>
<path fill="none" stroke="midnightblue" d="M1100.68,-181.898C1139.52,-158.155 1214.76,-112.167 1247.33,-92.2545"/>
<polygon fill="midnightblue" stroke="midnightblue" points="1098.79,-178.953 1092.08,-187.154 1102.44,-184.925 1098.79,-178.953"/>
</g>
<!-- Node20&#45;&gt;Node17 -->
<g id="edge29" class="edge"><title>Node20&#45;&gt;Node17</title>
<path fill="none" stroke="midnightblue" d="M1133.48,-185.068C1160,-179.664 1191.17,-173.314 1216.28,-168.198"/>
<polygon fill="midnightblue" stroke="midnightblue" points="1132.66,-181.663 1123.56,-187.089 1134.06,-188.522 1132.66,-181.663"/>
</g>
<!-- Node22 -->
<g id="node22" class="node"><title>Node22</title>
<g id="a_node22"><a xlink:href="classEngine.html#a89f23eaccc126a355d287e1959b4556f" target="_top" xlink:title="Engine::setTileIDOfNode">
<polygon fill="none" stroke="black" points="1010,-225.178 1010,-244.178 1141,-244.178 1141,-225.178 1010,-225.178"/>
<text text-anchor="middle" x="1075.5" y="-232.178" font-family="Helvetica,sans-Serif" font-size="10.00">Engine::setTileIDOfNode</text>
</a>
</g>
</g>
<!-- Node21&#45;&gt;Node22 -->
<g id="edge34" class="edge"><title>Node21&#45;&gt;Node22</title>
<path fill="none" stroke="midnightblue" d="M499.293,-218.601C624.444,-222.099 887.683,-229.456 1009.77,-232.869"/>
<polygon fill="midnightblue" stroke="midnightblue" points="499.166,-215.096 489.072,-218.315 498.97,-222.093 499.166,-215.096"/>
</g>
<!-- Node22&#45;&gt;Node5 -->
<g id="edge35" class="edge"><title>Node22&#45;&gt;Node5</title>
<path fill="none" stroke="midnightblue" d="M1151.22,-242.29C1163.28,-243.519 1175.77,-244.791 1187.84,-246.021"/>
<polygon fill="midnightblue" stroke="midnightblue" points="1151.51,-238.802 1141.21,-241.27 1150.8,-245.765 1151.51,-238.802"/>
</g>
<!-- Node23&#45;&gt;Node2 -->
<g id="edge41" class="edge"><title>Node23&#45;&gt;Node2</title>
<path fill="none" stroke="midnightblue" d="M363.394,-308.254C336.596,-305.041 306.835,-300.515 285.207,-296.205"/>
<polygon fill="midnightblue" stroke="midnightblue" points="363.161,-311.75 373.496,-309.418 363.962,-304.796 363.161,-311.75"/>
</g>
<!-- Node23&#45;&gt;Node3 -->
<g id="edge39" class="edge"><title>Node23&#45;&gt;Node3</title>
<path fill="none" stroke="midnightblue" d="M472.795,-323.118C497.537,-330.395 528.29,-339.44 551.099,-346.148"/>
<polygon fill="midnightblue" stroke="midnightblue" points="473.529,-319.685 462.947,-320.221 471.553,-326.401 473.529,-319.685"/>
</g>
<!-- Node23&#45;&gt;Node9 -->
<g id="edge40" class="edge"><title>Node23&#45;&gt;Node9</title>
<path fill="none" stroke="midnightblue" d="M473.414,-298.337C497.783,-291.329 527.825,-282.689 550.366,-276.207"/>
<polygon fill="midnightblue" stroke="midnightblue" points="472.342,-295.003 463.699,-301.131 474.277,-301.73 472.342,-295.003"/>
</g>
<!-- Node24 -->
<g id="node24" class="node"><title>Node24</title>
<g id="a_node24"><a xlink:href="classEngine.html#a2824c5146c900c0d048d97c5e0e0ef69" target="_top" xlink:title="Engine::demolishNode">
<polygon fill="none" stroke="black" points="683.5,-301.178 683.5,-320.178 807.5,-320.178 807.5,-301.178 683.5,-301.178"/>
<text text-anchor="middle" x="745.5" y="-308.178" font-family="Helvetica,sans-Serif" font-size="10.00">Engine::demolishNode</text>
</a>
</g>
</g>
<!-- Node23&#45;&gt;Node24 -->
<g id="edge37" class="edge"><title>Node23&#45;&gt;Node24</title>
<path fill="none" stroke="midnightblue" d="M495.572,-310.678C550.744,-310.678 629.296,-310.678 683.327,-310.678"/>
<polygon fill="midnightblue" stroke="midnightblue" points="495.554,-307.178 485.554,-310.678 495.554,-314.178 495.554,-307.178"/>
</g>
<!-- Node24&#45;&gt;Node5 -->
<g id="edge38" class="edge"><title>Node24&#45;&gt;Node5</title>
<path fill="none" stroke="midnightblue" d="M818.124,-305.046C897.277,-298.526 1028.46,-286.849 1141,-272.678 1162.37,-269.986 1185.77,-266.48 1206.3,-263.213"/>
<polygon fill="midnightblue" stroke="midnightblue" points="817.465,-301.588 807.784,-305.892 818.036,-308.564 817.465,-301.588"/>
</g>
</g>
</svg>
        <g id="navigator" transform="translate(0 0)" fill="#404254">
                <rect fill="#f2f5e9" fill-opacity="0.5" stroke="#606060" stroke-width=".5" x="0" y="0" width="60" height="60"/>
                <use id="zoomplus" xlink:href="#zoomPlus" x="17" y="9" onmousedown="handleZoom(evt,'in')"/>
                <use id="zoomminus" xlink:href="#zoomMin" x="42" y="9" onmousedown="handleZoom(evt,'out')"/>
                <use id="reset" xlink:href="#resetDef" x="30" y="36" onmousedown="handleReset()"/>
                <g id="arrowUp" xlink:href="#dirArrow" transform="translate(30 24)" onmousedown="handlePan(0,-1)">
                  <use xlink:href="#rim" fill="#404040">
                        <set attributeName="fill" to="#808080" begin="arrowUp.mouseover" end="arrowUp.mouseout"/>
                  </use>
                  <path fill="none" stroke="white" stroke-width="1.5" d="M0,-3.0v7 M-2.5,-0.5L0,-3.0L2.5,-0.5"/>
                </g>
                <g id="arrowRight" xlink:href="#dirArrow" transform="rotate(90) translate(36 -43)" onmousedown="handlePan(1,0)">
                  <use xlink:href="#rim" fill="#404040">
                        <set attributeName="fill" to="#808080" begin="arrowRight.mouseover" end="arrowRight.mouseout"/>
                  </use>
                  <path fill="none" stroke="white" stroke-width="1.5" d="M0,-3.0v7 M-2.5,-0.5L0,-3.0L2.5,-0.5"/>
                </g>
                <g id="arrowDown" xlink:href="#dirArrow" transform="rotate(180) translate(-30 -48)" onmousedown="handlePan(0,1)">
                  <use xlink:href="#rim" fill="#404040">
                        <set attributeName="fill" to="#808080" begin="arrowDown.mouseover" end="arrowDown.mouseout"/>
                  </use>
                  <path fill="none" stroke="white" stroke-width="1.5" d="M0,-3.0v7 M-2.5,-0.5L0,-3.0L2.5,-0.5"/>
                </g>
                <g id="arrowLeft" xlink:href="#dirArrow" transform="rotate(270) translate(-36 17)" onmousedown="handlePan(-1,0)">
                  <use xlink:href="#rim" fill="#404040">
                        <set attributeName="fill" to="#808080" begin="arrowLeft.mouseover" end="arrowLeft.mouseout"/>
                  </use>
                  <path fill="none" stroke="white" stroke-width="1.5" d="M0,-3.0v7 M-2.5,-0.5L0,-3.0L2.5,-0.5"/>
                </g>
        </g>
        <svg viewBox="0 0 15 15" width="100%" height="30px" preserveAspectRatio="xMaxYMin meet">
         <g id="arrow_out" transform="scale(0.3 0.3)">
          <a xlink:href="classMap_a392940f84796653b8e811ed8dc296c84_icgraph_org.svg" target="_base">
           <rect id="button" ry="5" rx="5" y="6" x="6" height="38" width="38"
                fill="#f2f5e9" fill-opacity="0.5" stroke="#606060" stroke-width="1.0"/>
           <path id="arrow"
             d="M 11.500037,31.436501 C 11.940474,20.09759 22.043105,11.32322 32.158766,21.979434 L 37.068811,17.246167 C 37.068811,17.246167 37.088388,32 37.088388,32 L 22.160133,31.978069 C 22.160133,31.978069 26.997745,27.140456 26.997745,27.140456 C 18.528582,18.264221 13.291696,25.230495 11.500037,31.436501 z"
             style="fill:#404040;"/>
          </a>
         </g>
        </svg>
</svg>
