<?xml version="1.0" encoding="UTF-8" standalone="no"?>
<!DOCTYPE svg PUBLIC "-//W3C//DTD SVG 1.1//EN"
 "http://www.w3.org/Graphics/SVG/1.1/DTD/svg11.dtd">
<!-- Generated by graphviz version 2.38.0 (20140413.2041)
 -->
<!-- Title: Subject&lt; DataArgs &gt; Pages: 1 -->
<svg width="200pt" height="420pt"
 viewBox="0.00 0.00 200.00 420.00" xmlns="http://www.w3.org/2000/svg" xmlns:xlink="http://www.w3.org/1999/xlink">
<g id="graph0" class="graph" transform="scale(1 1) rotate(0) translate(4 416)">
<title>Subject&lt; DataArgs &gt;</title>
<!-- Node1 -->
<g id="node1" class="node"><title>Node1</title>
<polygon fill="#bfbfbf" stroke="black" points="7,-299.5 7,-411.5 133,-411.5 133,-299.5 7,-299.5"/>
<text text-anchor="middle" x="70" y="-399.5" font-family="Helvetica,sans-Serif" font-size="10.00">Subject&lt; DataArgs &gt;</text>
<polyline fill="none" stroke="black" points="7,-392.5 133,-392.5 "/>
<text text-anchor="start" x="15" y="-380.5" font-family="Helvetica,sans-Serif" font-size="10.00">&#45; m_Observers</text>
<polyline fill="none" stroke="black" points="7,-373.5 133,-373.5 "/>
<text text-anchor="start" x="15" y="-361.5" font-family="Helvetica,sans-Serif" font-size="10.00">+ addObserver()</text>
<text text-anchor="start" x="15" y="-350.5" font-family="Helvetica,sans-Serif" font-size="10.00"># Subject()</text>
<text text-anchor="start" x="15" y="-339.5" font-family="Helvetica,sans-Serif" font-size="10.00"># notifyObservers()</text>
<text text-anchor="start" x="15" y="-328.5" font-family="Helvetica,sans-Serif" font-size="10.00"># onObserverExpired()</text>
<text text-anchor="start" x="15" y="-317.5" font-family="Helvetica,sans-Serif" font-size="10.00"># ~Subject()</text>
<text text-anchor="start" x="15" y="-306.5" font-family="Helvetica,sans-Serif" font-size="10.00"># mustNotify()</text>
</g>
<!-- Node2 -->
<g id="node2" class="node"><title>Node2</title>
<g id="a_node2"><a xlink:href="classSubject.html" target="_top" xlink:title="{Subject\&lt; Transition\l\&lt; Model \&gt; \&gt;\n|&#45; m_Observers\l|+ addObserver()\l# Subject()\l# notifyObservers()\l# onObserverExpired()\l# ~Subject()\l# mustNotify()\l}">
<polygon fill="none" stroke="black" points="7,-128.5 7,-251.5 133,-251.5 133,-128.5 7,-128.5"/>
<text text-anchor="start" x="15" y="-239.5" font-family="Helvetica,sans-Serif" font-size="10.00">Subject&lt; Transition</text>
<text text-anchor="middle" x="70" y="-228.5" font-family="Helvetica,sans-Serif" font-size="10.00">&lt; Model &gt; &gt;</text>
<polyline fill="none" stroke="black" points="7,-221.5 133,-221.5 "/>
<text text-anchor="start" x="15" y="-209.5" font-family="Helvetica,sans-Serif" font-size="10.00">&#45; m_Observers</text>
<polyline fill="none" stroke="black" points="7,-202.5 133,-202.5 "/>
<text text-anchor="start" x="15" y="-190.5" font-family="Helvetica,sans-Serif" font-size="10.00">+ addObserver()</text>
<text text-anchor="start" x="15" y="-179.5" font-family="Helvetica,sans-Serif" font-size="10.00"># Subject()</text>
<text text-anchor="start" x="15" y="-168.5" font-family="Helvetica,sans-Serif" font-size="10.00"># notifyObservers()</text>
<text text-anchor="start" x="15" y="-157.5" font-family="Helvetica,sans-Serif" font-size="10.00"># onObserverExpired()</text>
<text text-anchor="start" x="15" y="-146.5" font-family="Helvetica,sans-Serif" font-size="10.00"># ~Subject()</text>
<text text-anchor="start" x="15" y="-135.5" font-family="Helvetica,sans-Serif" font-size="10.00"># mustNotify()</text>
</a>
</g>
</g>
<!-- Node1&#45;&gt;Node2 -->
<g id="edge1" class="edge"><title>Node1&#45;&gt;Node2</title>
<path fill="none" stroke="orange" d="M70,-288.943C70,-276.622 70,-263.79 70,-251.627"/>
<polygon fill="orange" stroke="orange" points="66.5001,-289.146 70,-299.146 73.5001,-289.146 66.5001,-289.146"/>
<text text-anchor="middle" x="131" y="-273" font-family="Helvetica,sans-Serif" font-size="10.00"> &lt; Transition&lt; Model &gt; &gt;</text>
</g>
<!-- Node3 -->
<g id="node3" class="node"><title>Node3</title>
<g id="a_node3"><a xlink:href="classTransitiveModel.html" target="_top" xlink:title="{TransitiveModel\&lt; Model \&gt;\n|&#45; m_Filters\l|+ subscribe()\l# TransitiveModel()\l&#45; mustNotify()\l&#45; onObserverExpired()\l}">
<polygon fill="none" stroke="black" points="0,-0.5 0,-90.5 140,-90.5 140,-0.5 0,-0.5"/>
<text text-anchor="middle" x="70" y="-78.5" font-family="Helvetica,sans-Serif" font-size="10.00">TransitiveModel&lt; Model &gt;</text>
<polyline fill="none" stroke="black" points="0,-71.5 140,-71.5 "/>
<text text-anchor="start" x="8" y="-59.5" font-family="Helvetica,sans-Serif" font-size="10.00">&#45; m_Filters</text>
<polyline fill="none" stroke="black" points="0,-52.5 140,-52.5 "/>
<text text-anchor="start" x="8" y="-40.5" font-family="Helvetica,sans-Serif" font-size="10.00">+ subscribe()</text>
<text text-anchor="start" x="8" y="-29.5" font-family="Helvetica,sans-Serif" font-size="10.00"># TransitiveModel()</text>
<text text-anchor="start" x="8" y="-18.5" font-family="Helvetica,sans-Serif" font-size="10.00">&#45; mustNotify()</text>
<text text-anchor="start" x="8" y="-7.5" font-family="Helvetica,sans-Serif" font-size="10.00">&#45; onObserverExpired()</text>
</a>
</g>
</g>
<!-- Node2&#45;&gt;Node3 -->
<g id="edge2" class="edge"><title>Node2&#45;&gt;Node3</title>
<path fill="none" stroke="midnightblue" d="M70,-118.084C70,-108.774 70,-99.4554 70,-90.7657"/>
<polygon fill="none" stroke="midnightblue" points="66.5001,-118.154 70,-128.154 73.5001,-118.154 66.5001,-118.154"/>
</g>
</g>
</svg>
