<?xml version="1.0" encoding="UTF-8" standalone="no"?>
<!DOCTYPE svg PUBLIC "-//W3C//DTD SVG 1.1//EN"
 "http://www.w3.org/Graphics/SVG/1.1/DTD/svg11.dtd">
<!-- Generated by graphviz version 2.38.0 (20140413.2041)
 -->
<!-- Title: ButtonGroup::count Pages: 1 -->
<svg width="548pt" height="28pt"
 viewBox="0.00 0.00 548.00 28.00" xmlns="http://www.w3.org/2000/svg" xmlns:xlink="http://www.w3.org/1999/xlink">
<g id="graph0" class="graph" transform="scale(1 1) rotate(0) translate(4 24)">
<title>ButtonGroup::count</title>
<!-- Node1 -->
<g id="node1" class="node"><title>Node1</title>
<polygon fill="#bfbfbf" stroke="black" points="0,-0.5 0,-19.5 111,-19.5 111,-0.5 0,-0.5"/>
<text text-anchor="middle" x="55.5" y="-7.5" font-family="Helvetica,sans-Serif" font-size="10.00">ButtonGroup::count</text>
</g>
<!-- Node2 -->
<g id="node2" class="node"><title>Node2</title>
<g id="a_node2"><a xlink:href="classMenuGroupBuild.html#a69f560b31112d4f28b6ad4d101f48185" target="_top" xlink:title="MenuGroupBuild::arrangeElements">
<polygon fill="none" stroke="black" points="147,-0.5 147,-19.5 331,-19.5 331,-0.5 147,-0.5"/>
<text text-anchor="middle" x="239" y="-7.5" font-family="Helvetica,sans-Serif" font-size="10.00">MenuGroupBuild::arrangeElements</text>
</a>
</g>
</g>
<!-- Node1&#45;&gt;Node2 -->
<g id="edge1" class="edge"><title>Node1&#45;&gt;Node2</title>
<path fill="none" stroke="midnightblue" d="M121.597,-10C129.753,-10 138.211,-10 146.676,-10"/>
<polygon fill="midnightblue" stroke="midnightblue" points="121.449,-6.5001 111.449,-10 121.448,-13.5001 121.449,-6.5001"/>
</g>
<!-- Node3 -->
<g id="node3" class="node"><title>Node3</title>
<g id="a_node3"><a xlink:href="classMenuGroupBuild.html#afe78eacb71e9b5ebe9adaae92c0378cc" target="_top" xlink:title="MenuGroupBuild::constructMenu">
<polygon fill="none" stroke="black" points="367,-0.5 367,-19.5 540,-19.5 540,-0.5 367,-0.5"/>
<text text-anchor="middle" x="453.5" y="-7.5" font-family="Helvetica,sans-Serif" font-size="10.00">MenuGroupBuild::constructMenu</text>
</a>
</g>
</g>
<!-- Node2&#45;&gt;Node3 -->
<g id="edge2" class="edge"><title>Node2&#45;&gt;Node3</title>
<path fill="none" stroke="midnightblue" d="M341.071,-10C349.642,-10 358.258,-10 366.696,-10"/>
<polygon fill="midnightblue" stroke="midnightblue" points="341.044,-6.5001 331.044,-10 341.044,-13.5001 341.044,-6.5001"/>
</g>
</g>
</svg>
