<?xml version="1.0" encoding="UTF-8" standalone="no"?>
<!DOCTYPE svg PUBLIC "-//W3C//DTD SVG 1.1//EN"
 "http://www.w3.org/Graphics/SVG/1.1/DTD/svg11.dtd">
<!-- Generated by graphviz version 2.38.0 (20140413.2041)
 -->
<!-- Title: Timer::timeOut Pages: 1 -->
<svg width="382pt" height="28pt"
 viewBox="0.00 0.00 382.00 28.00" xmlns="http://www.w3.org/2000/svg" xmlns:xlink="http://www.w3.org/1999/xlink">
<g id="graph0" class="graph" transform="scale(1 1) rotate(0) translate(4 24)">
<title>Timer::timeOut</title>
<!-- Node1 -->
<g id="node1" class="node"><title>Node1</title>
<polygon fill="#bfbfbf" stroke="black" points="0,-0.5 0,-19.5 89,-19.5 89,-0.5 0,-0.5"/>
<text text-anchor="middle" x="44.5" y="-7.5" font-family="Helvetica,sans-Serif" font-size="10.00">Timer::timeOut</text>
</g>
<!-- Node2 -->
<g id="node2" class="node"><title>Node2</title>
<g id="a_node2"><a xlink:href="classTimer.html#ab887910601a1a42b2549c99892653921" target="_top" xlink:title="Timer::checkTimeout">
<polygon fill="none" stroke="black" points="125,-0.5 125,-19.5 241,-19.5 241,-0.5 125,-0.5"/>
<text text-anchor="middle" x="183" y="-7.5" font-family="Helvetica,sans-Serif" font-size="10.00">Timer::checkTimeout</text>
</a>
</g>
</g>
<!-- Node1&#45;&gt;Node2 -->
<g id="edge1" class="edge"><title>Node1&#45;&gt;Node2</title>
<path fill="none" stroke="midnightblue" d="M99.172,-10C107.615,-10 116.371,-10 124.889,-10"/>
<polygon fill="midnightblue" stroke="midnightblue" points="99.0648,-6.5001 89.0648,-10 99.0647,-13.5001 99.0648,-6.5001"/>
</g>
<!-- Node3 -->
<g id="node3" class="node"><title>Node3</title>
<g id="a_node3"><a xlink:href="classTimer.html#ae6d9bf74a35a78b0d9bf81d2d573f03d" target="_top" xlink:title="Loop Timer Specify if the timeout callback is called once or everytime the counter hits zero...">
<polygon fill="none" stroke="black" points="277,-0.5 277,-19.5 374,-19.5 374,-0.5 277,-0.5"/>
<text text-anchor="middle" x="325.5" y="-7.5" font-family="Helvetica,sans-Serif" font-size="10.00">Timer::loopTimer</text>
</a>
</g>
</g>
<!-- Node2&#45;&gt;Node3 -->
<g id="edge2" class="edge"><title>Node2&#45;&gt;Node3</title>
<path fill="none" stroke="midnightblue" d="M251.238,-10C259.884,-10 268.592,-10 276.835,-10"/>
<polygon fill="midnightblue" stroke="midnightblue" points="251.147,-6.5001 241.147,-10 251.147,-13.5001 251.147,-6.5001"/>
</g>
</g>
</svg>
