<?xml version="1.0" encoding="UTF-8" standalone="no"?>
<!DOCTYPE svg PUBLIC "-//W3C//DTD SVG 1.1//EN"
 "http://www.w3.org/Graphics/SVG/1.1/DTD/svg11.dtd">
<!-- Generated by graphviz version 2.38.0 (20140413.2041)
 -->
<!-- Title: LOG::getTimeStamp Pages: 1 -->
<svg width="401pt" height="66pt"
 viewBox="0.00 0.00 401.00 66.00" xmlns="http://www.w3.org/2000/svg" xmlns:xlink="http://www.w3.org/1999/xlink">
<g id="graph0" class="graph" transform="scale(1 1) rotate(0) translate(4 62)">
<title>LOG::getTimeStamp</title>
<!-- Node1 -->
<g id="node1" class="node"><title>Node1</title>
<polygon fill="#bfbfbf" stroke="black" points="0,-19.5 0,-38.5 114,-38.5 114,-19.5 0,-19.5"/>
<text text-anchor="middle" x="57" y="-26.5" font-family="Helvetica,sans-Serif" font-size="10.00">LOG::getTimeStamp</text>
</g>
<!-- Node2 -->
<g id="node2" class="node"><title>Node2</title>
<g id="a_node2"><a xlink:href="classLOG.html#a78bfdfa3de93d15a713b9de2488f8218" target="_top" xlink:title="LOG::LOG">
<polygon fill="none" stroke="black" points="171.5,-38.5 171.5,-57.5 234.5,-57.5 234.5,-38.5 171.5,-38.5"/>
<text text-anchor="middle" x="203" y="-45.5" font-family="Helvetica,sans-Serif" font-size="10.00">LOG::LOG</text>
</a>
</g>
</g>
<!-- Node1&#45;&gt;Node2 -->
<g id="edge1" class="edge"><title>Node1&#45;&gt;Node2</title>
<path fill="none" stroke="midnightblue" d="M124.217,-37.7369C140.62,-39.9012 157.426,-42.1187 171.2,-43.936"/>
<polygon fill="midnightblue" stroke="midnightblue" points="124.458,-34.2386 114.086,-36.4003 123.543,-41.1784 124.458,-34.2386"/>
</g>
<!-- Node3 -->
<g id="node3" class="node"><title>Node3</title>
<g id="a_node3"><a xlink:href="classLOG.html#a6fc1e3db47b4b54e899cf480f8a2306f" target="_top" xlink:title="Write log message to error.log file Write log message to error.log file. ">
<polygon fill="none" stroke="black" points="150,-0.5 150,-19.5 256,-19.5 256,-0.5 150,-0.5"/>
<text text-anchor="middle" x="203" y="-7.5" font-family="Helvetica,sans-Serif" font-size="10.00">LOG::writeErrorLog</text>
</a>
</g>
</g>
<!-- Node1&#45;&gt;Node3 -->
<g id="edge2" class="edge"><title>Node1&#45;&gt;Node3</title>
<path fill="none" stroke="midnightblue" d="M124.058,-20.284C132.622,-19.154 141.299,-18.0092 149.599,-16.914"/>
<polygon fill="midnightblue" stroke="midnightblue" points="123.543,-16.8216 114.086,-21.5997 124.458,-23.7614 123.543,-16.8216"/>
</g>
<!-- Node4 -->
<g id="node4" class="node"><title>Node4</title>
<g id="a_node4"><a xlink:href="classLOG.html#ada24e4a188406cd1e46d08c0f71c1958" target="_top" xlink:title="LOG::operator\&lt;\&lt;">
<polygon fill="none" stroke="black" points="292,-0.5 292,-19.5 393,-19.5 393,-0.5 292,-0.5"/>
<text text-anchor="middle" x="342.5" y="-7.5" font-family="Helvetica,sans-Serif" font-size="10.00">LOG::operator&lt;&lt;</text>
</a>
</g>
</g>
<!-- Node3&#45;&gt;Node4 -->
<g id="edge3" class="edge"><title>Node3&#45;&gt;Node4</title>
<path fill="none" stroke="midnightblue" d="M266.643,-10C275.141,-10 283.764,-10 291.988,-10"/>
<polygon fill="midnightblue" stroke="midnightblue" points="266.375,-6.5001 256.375,-10 266.375,-13.5001 266.375,-6.5001"/>
</g>
</g>
</svg>
