<?xml version="1.0" encoding="UTF-8" standalone="no"?>
<!DOCTYPE svg PUBLIC "-//W3C//DTD SVG 1.1//EN"
 "http://www.w3.org/Graphics/SVG/1.1/DTD/svg11.dtd">
<!-- Generated by graphviz version 2.38.0 (20140413.2041)
 -->
<!-- Title: Singleton&lt; T &gt; Pages: 1 -->
<svg width="1229pt" height="596pt"
 viewBox="0.00 0.00 1229.00 596.00" xmlns="http://www.w3.org/2000/svg" xmlns:xlink="http://www.w3.org/1999/xlink">
<g id="graph0" class="graph" transform="scale(1 1) rotate(0) translate(4 592)">
<title>Singleton&lt; T &gt;</title>
<!-- Node1 -->
<g id="node1" class="node"><title>Node1</title>
<polygon fill="#bfbfbf" stroke="black" points="631,-508.5 631,-587.5 720,-587.5 720,-508.5 631,-508.5"/>
<text text-anchor="middle" x="675.5" y="-575.5" font-family="Helvetica,sans-Serif" font-size="10.00">Singleton&lt; T &gt;</text>
<polyline fill="none" stroke="black" points="631,-568.5 720,-568.5 "/>
<text text-anchor="middle" x="675.5" y="-556.5" font-family="Helvetica,sans-Serif" font-size="10.00"> </text>
<polyline fill="none" stroke="black" points="631,-549.5 720,-549.5 "/>
<text text-anchor="start" x="639" y="-537.5" font-family="Helvetica,sans-Serif" font-size="10.00">+ instance()</text>
<text text-anchor="start" x="639" y="-526.5" font-family="Helvetica,sans-Serif" font-size="10.00"># Singleton()</text>
<text text-anchor="start" x="639" y="-515.5" font-family="Helvetica,sans-Serif" font-size="10.00"># ~Singleton()</text>
</g>
<!-- Node2 -->
<g id="node2" class="node"><title>Node2</title>
<g id="a_node2"><a xlink:href="classSingleton.html" target="_top" xlink:title="{Singleton\&lt; WindowManager \&gt;\n||+ instance()\l# Singleton()\l# ~Singleton()\l}">
<polygon fill="none" stroke="black" points="22,-381.5 22,-460.5 183,-460.5 183,-381.5 22,-381.5"/>
<text text-anchor="middle" x="102.5" y="-448.5" font-family="Helvetica,sans-Serif" font-size="10.00">Singleton&lt; WindowManager &gt;</text>
<polyline fill="none" stroke="black" points="22,-441.5 183,-441.5 "/>
<text text-anchor="middle" x="102.5" y="-429.5" font-family="Helvetica,sans-Serif" font-size="10.00"> </text>
<polyline fill="none" stroke="black" points="22,-422.5 183,-422.5 "/>
<text text-anchor="start" x="30" y="-410.5" font-family="Helvetica,sans-Serif" font-size="10.00">+ instance()</text>
<text text-anchor="start" x="30" y="-399.5" font-family="Helvetica,sans-Serif" font-size="10.00"># Singleton()</text>
<text text-anchor="start" x="30" y="-388.5" font-family="Helvetica,sans-Serif" font-size="10.00"># ~Singleton()</text>
</a>
</g>
</g>
<!-- Node1&#45;&gt;Node2 -->
<g id="edge1" class="edge"><title>Node1&#45;&gt;Node2</title>
<path fill="none" stroke="orange" d="M620.436,-540.15C550.823,-531.018 427.51,-513.267 323.5,-490 277.924,-479.805 267.159,-474.664 222.5,-461 209.722,-457.09 196.22,-452.83 183.065,-448.607"/>
<polygon fill="orange" stroke="orange" points="620.354,-543.669 630.722,-541.488 621.257,-536.728 620.354,-543.669"/>
<text text-anchor="middle" x="375" y="-482" font-family="Helvetica,sans-Serif" font-size="10.00"> &lt; WindowManager &gt;</text>
</g>
<!-- Node4 -->
<g id="node4" class="node"><title>Node4</title>
<g id="a_node4"><a xlink:href="classSingleton.html" target="_top" xlink:title="{Singleton\&lt; TileManager \&gt;\n||+ instance()\l# Singleton()\l# ~Singleton()\l}">
<polygon fill="none" stroke="black" points="231.5,-381.5 231.5,-460.5 373.5,-460.5 373.5,-381.5 231.5,-381.5"/>
<text text-anchor="middle" x="302.5" y="-448.5" font-family="Helvetica,sans-Serif" font-size="10.00">Singleton&lt; TileManager &gt;</text>
<polyline fill="none" stroke="black" points="231.5,-441.5 373.5,-441.5 "/>
<text text-anchor="middle" x="302.5" y="-429.5" font-family="Helvetica,sans-Serif" font-size="10.00"> </text>
<polyline fill="none" stroke="black" points="231.5,-422.5 373.5,-422.5 "/>
<text text-anchor="start" x="239.5" y="-410.5" font-family="Helvetica,sans-Serif" font-size="10.00">+ instance()</text>
<text text-anchor="start" x="239.5" y="-399.5" font-family="Helvetica,sans-Serif" font-size="10.00"># Singleton()</text>
<text text-anchor="start" x="239.5" y="-388.5" font-family="Helvetica,sans-Serif" font-size="10.00"># ~Singleton()</text>
</a>
</g>
</g>
<!-- Node1&#45;&gt;Node4 -->
<g id="edge3" class="edge"><title>Node1&#45;&gt;Node4</title>
<path fill="none" stroke="orange" d="M620.768,-535.46C575.798,-525.352 510.738,-509.283 455.5,-490 428.194,-480.467 399.001,-468.072 373.513,-456.48"/>
<polygon fill="orange" stroke="orange" points="620.092,-538.895 630.613,-537.65 621.612,-532.062 620.092,-538.895"/>
<text text-anchor="middle" x="497.5" y="-482" font-family="Helvetica,sans-Serif" font-size="10.00"> &lt; TileManager &gt;</text>
</g>
<!-- Node6 -->
<g id="node6" class="node"><title>Node6</title>
<g id="a_node6"><a xlink:href="classSingleton.html" target="_top" xlink:title="{Singleton\&lt; ResourcesManager \&gt;\n||+ instance()\l# Singleton()\l# ~Singleton()\l}">
<polygon fill="none" stroke="black" points="407,-381.5 407,-460.5 582,-460.5 582,-381.5 407,-381.5"/>
<text text-anchor="middle" x="494.5" y="-448.5" font-family="Helvetica,sans-Serif" font-size="10.00">Singleton&lt; ResourcesManager &gt;</text>
<polyline fill="none" stroke="black" points="407,-441.5 582,-441.5 "/>
<text text-anchor="middle" x="494.5" y="-429.5" font-family="Helvetica,sans-Serif" font-size="10.00"> </text>
<polyline fill="none" stroke="black" points="407,-422.5 582,-422.5 "/>
<text text-anchor="start" x="415" y="-410.5" font-family="Helvetica,sans-Serif" font-size="10.00">+ instance()</text>
<text text-anchor="start" x="415" y="-399.5" font-family="Helvetica,sans-Serif" font-size="10.00"># Singleton()</text>
<text text-anchor="start" x="415" y="-388.5" font-family="Helvetica,sans-Serif" font-size="10.00"># ~Singleton()</text>
</a>
</g>
</g>
<!-- Node1&#45;&gt;Node6 -->
<g id="edge5" class="edge"><title>Node1&#45;&gt;Node6</title>
<path fill="none" stroke="orange" d="M621.318,-527.091C599.43,-517.66 574.639,-505.121 554.5,-490 543.421,-481.681 532.868,-471.046 523.79,-460.671"/>
<polygon fill="orange" stroke="orange" points="620.244,-530.436 630.82,-531.072 622.949,-523.979 620.244,-530.436"/>
<text text-anchor="middle" x="613" y="-482" font-family="Helvetica,sans-Serif" font-size="10.00"> &lt; ResourcesManager &gt;</text>
</g>
<!-- Node8 -->
<g id="node8" class="node"><title>Node8</title>
<g id="a_node8"><a xlink:href="classSingleton.html" target="_top" xlink:title="{Singleton\&lt; UIManager \&gt;\n||+ instance()\l# Singleton()\l# ~Singleton()\l}">
<polygon fill="none" stroke="black" points="607.5,-381.5 607.5,-460.5 743.5,-460.5 743.5,-381.5 607.5,-381.5"/>
<text text-anchor="middle" x="675.5" y="-448.5" font-family="Helvetica,sans-Serif" font-size="10.00">Singleton&lt; UIManager &gt;</text>
<polyline fill="none" stroke="black" points="607.5,-441.5 743.5,-441.5 "/>
<text text-anchor="middle" x="675.5" y="-429.5" font-family="Helvetica,sans-Serif" font-size="10.00"> </text>
<polyline fill="none" stroke="black" points="607.5,-422.5 743.5,-422.5 "/>
<text text-anchor="start" x="615.5" y="-410.5" font-family="Helvetica,sans-Serif" font-size="10.00">+ instance()</text>
<text text-anchor="start" x="615.5" y="-399.5" font-family="Helvetica,sans-Serif" font-size="10.00"># Singleton()</text>
<text text-anchor="start" x="615.5" y="-388.5" font-family="Helvetica,sans-Serif" font-size="10.00"># ~Singleton()</text>
</a>
</g>
</g>
<!-- Node1&#45;&gt;Node8 -->
<g id="edge7" class="edge"><title>Node1&#45;&gt;Node8</title>
<path fill="none" stroke="orange" d="M675.5,-498.222C675.5,-485.745 675.5,-472.5 675.5,-460.612"/>
<polygon fill="orange" stroke="orange" points="672,-498.476 675.5,-508.476 679,-498.476 672,-498.476"/>
<text text-anchor="middle" x="714.5" y="-482" font-family="Helvetica,sans-Serif" font-size="10.00"> &lt; UIManager &gt;</text>
</g>
<!-- Node10 -->
<g id="node10" class="node"><title>Node10</title>
<g id="a_node10"><a xlink:href="classSingleton.html" target="_top" xlink:title="{Singleton\&lt; Engine \&gt;\n||+ instance()\l# Singleton()\l# ~Singleton()\l}">
<polygon fill="none" stroke="black" points="774.5,-381.5 774.5,-460.5 890.5,-460.5 890.5,-381.5 774.5,-381.5"/>
<text text-anchor="middle" x="832.5" y="-448.5" font-family="Helvetica,sans-Serif" font-size="10.00">Singleton&lt; Engine &gt;</text>
<polyline fill="none" stroke="black" points="774.5,-441.5 890.5,-441.5 "/>
<text text-anchor="middle" x="832.5" y="-429.5" font-family="Helvetica,sans-Serif" font-size="10.00"> </text>
<polyline fill="none" stroke="black" points="774.5,-422.5 890.5,-422.5 "/>
<text text-anchor="start" x="782.5" y="-410.5" font-family="Helvetica,sans-Serif" font-size="10.00">+ instance()</text>
<text text-anchor="start" x="782.5" y="-399.5" font-family="Helvetica,sans-Serif" font-size="10.00"># Singleton()</text>
<text text-anchor="start" x="782.5" y="-388.5" font-family="Helvetica,sans-Serif" font-size="10.00"># ~Singleton()</text>
</a>
</g>
</g>
<!-- Node1&#45;&gt;Node10 -->
<g id="edge9" class="edge"><title>Node1&#45;&gt;Node10</title>
<path fill="none" stroke="orange" d="M728.302,-511.793C738.172,-504.795 748.278,-497.336 757.5,-490 768.917,-480.919 780.814,-470.578 791.681,-460.749"/>
<polygon fill="orange" stroke="orange" points="726.27,-508.944 720.092,-517.552 730.289,-514.675 726.27,-508.944"/>
<text text-anchor="middle" x="799.5" y="-482" font-family="Helvetica,sans-Serif" font-size="10.00"> &lt; Engine &gt;</text>
</g>
<!-- Node12 -->
<g id="node12" class="node"><title>Node12</title>
<g id="a_node12"><a xlink:href="classSingleton.html" target="_top" xlink:title="{Singleton\&lt; Settings \&gt;\n||+ instance()\l# Singleton()\l# ~Singleton()\l}">
<polygon fill="none" stroke="black" points="914.5,-381.5 914.5,-460.5 1038.5,-460.5 1038.5,-381.5 914.5,-381.5"/>
<text text-anchor="middle" x="976.5" y="-448.5" font-family="Helvetica,sans-Serif" font-size="10.00">Singleton&lt; Settings &gt;</text>
<polyline fill="none" stroke="black" points="914.5,-441.5 1038.5,-441.5 "/>
<text text-anchor="middle" x="976.5" y="-429.5" font-family="Helvetica,sans-Serif" font-size="10.00"> </text>
<polyline fill="none" stroke="black" points="914.5,-422.5 1038.5,-422.5 "/>
<text text-anchor="start" x="922.5" y="-410.5" font-family="Helvetica,sans-Serif" font-size="10.00">+ instance()</text>
<text text-anchor="start" x="922.5" y="-399.5" font-family="Helvetica,sans-Serif" font-size="10.00"># Singleton()</text>
<text text-anchor="start" x="922.5" y="-388.5" font-family="Helvetica,sans-Serif" font-size="10.00"># ~Singleton()</text>
</a>
</g>
</g>
<!-- Node1&#45;&gt;Node12 -->
<g id="edge11" class="edge"><title>Node1&#45;&gt;Node12</title>
<path fill="none" stroke="orange" d="M729.53,-528.726C775.473,-512.606 842.815,-487.594 899.5,-461 904.384,-458.709 909.417,-456.291 914.46,-453.827"/>
<polygon fill="orange" stroke="orange" points="728.352,-525.43 720.063,-532.029 730.658,-532.04 728.352,-525.43"/>
<text text-anchor="middle" x="891.5" y="-482" font-family="Helvetica,sans-Serif" font-size="10.00"> &lt; Settings &gt;</text>
</g>
<!-- Node14 -->
<g id="node14" class="node"><title>Node14</title>
<g id="a_node14"><a xlink:href="classSingleton.html" target="_top" xlink:title="{Singleton\&lt; EventManager \&gt;\n||+ instance()\l# Singleton()\l# ~Singleton()\l}">
<polygon fill="none" stroke="black" points="1068,-381.5 1068,-460.5 1221,-460.5 1221,-381.5 1068,-381.5"/>
<text text-anchor="middle" x="1144.5" y="-448.5" font-family="Helvetica,sans-Serif" font-size="10.00">Singleton&lt; EventManager &gt;</text>
<polyline fill="none" stroke="black" points="1068,-441.5 1221,-441.5 "/>
<text text-anchor="middle" x="1144.5" y="-429.5" font-family="Helvetica,sans-Serif" font-size="10.00"> </text>
<polyline fill="none" stroke="black" points="1068,-422.5 1221,-422.5 "/>
<text text-anchor="start" x="1076" y="-410.5" font-family="Helvetica,sans-Serif" font-size="10.00">+ instance()</text>
<text text-anchor="start" x="1076" y="-399.5" font-family="Helvetica,sans-Serif" font-size="10.00"># Singleton()</text>
<text text-anchor="start" x="1076" y="-388.5" font-family="Helvetica,sans-Serif" font-size="10.00"># ~Singleton()</text>
</a>
</g>
</g>
<!-- Node1&#45;&gt;Node14 -->
<g id="edge13" class="edge"><title>Node1&#45;&gt;Node14</title>
<path fill="none" stroke="orange" d="M730.164,-537.329C803.379,-523.707 936.889,-496.512 1047.5,-461 1054.15,-458.864 1061,-456.488 1067.83,-453.993"/>
<polygon fill="orange" stroke="orange" points="729.441,-533.904 720.242,-539.161 730.712,-540.787 729.441,-533.904"/>
<text text-anchor="middle" x="1025" y="-482" font-family="Helvetica,sans-Serif" font-size="10.00"> &lt; EventManager &gt;</text>
</g>
<!-- Node3 -->
<g id="node3" class="node"><title>Node3</title>
<g id="a_node3"><a xlink:href="classWindowManager.html" target="_top" xlink:title="{WindowManager\n|+ Singleton\&lt; WindowManager \&gt;\l&#45; m_title\l&#45; m_windowIcon\l&#45; m_window\l&#45; m_renderer\l&#45; m_resolutions\l&#45; m_numOfDisplays\l&#45; m_activeDisplay\l|+ WindowManager()\l+ operator=()\l+ toggleFullScreen()\l+ setWindowTitle()\l+ getRenderer()\l+ getWindow()\l+ getSupportedScreenResolutions()\l+ setScreenResolution()\l+ setFullScreenMode()\l&#45; WindowManager()\l&#45; ~WindowManager()\l&#45; initializeScreenResolutions()\l}">
<polygon fill="none" stroke="black" points="0,-44.5 0,-299.5 189,-299.5 189,-44.5 0,-44.5"/>
<text text-anchor="middle" x="94.5" y="-287.5" font-family="Helvetica,sans-Serif" font-size="10.00">WindowManager</text>
<polyline fill="none" stroke="black" points="0,-280.5 189,-280.5 "/>
<text text-anchor="start" x="8" y="-268.5" font-family="Helvetica,sans-Serif" font-size="10.00">+ Singleton&lt; WindowManager &gt;</text>
<text text-anchor="start" x="8" y="-257.5" font-family="Helvetica,sans-Serif" font-size="10.00">&#45; m_title</text>
<text text-anchor="start" x="8" y="-246.5" font-family="Helvetica,sans-Serif" font-size="10.00">&#45; m_windowIcon</text>
<text text-anchor="start" x="8" y="-235.5" font-family="Helvetica,sans-Serif" font-size="10.00">&#45; m_window</text>
<text text-anchor="start" x="8" y="-224.5" font-family="Helvetica,sans-Serif" font-size="10.00">&#45; m_renderer</text>
<text text-anchor="start" x="8" y="-213.5" font-family="Helvetica,sans-Serif" font-size="10.00">&#45; m_resolutions</text>
<text text-anchor="start" x="8" y="-202.5" font-family="Helvetica,sans-Serif" font-size="10.00">&#45; m_numOfDisplays</text>
<text text-anchor="start" x="8" y="-191.5" font-family="Helvetica,sans-Serif" font-size="10.00">&#45; m_activeDisplay</text>
<polyline fill="none" stroke="black" points="0,-184.5 189,-184.5 "/>
<text text-anchor="start" x="8" y="-172.5" font-family="Helvetica,sans-Serif" font-size="10.00">+ WindowManager()</text>
<text text-anchor="start" x="8" y="-161.5" font-family="Helvetica,sans-Serif" font-size="10.00">+ operator=()</text>
<text text-anchor="start" x="8" y="-150.5" font-family="Helvetica,sans-Serif" font-size="10.00">+ toggleFullScreen()</text>
<text text-anchor="start" x="8" y="-139.5" font-family="Helvetica,sans-Serif" font-size="10.00">+ setWindowTitle()</text>
<text text-anchor="start" x="8" y="-128.5" font-family="Helvetica,sans-Serif" font-size="10.00">+ getRenderer()</text>
<text text-anchor="start" x="8" y="-117.5" font-family="Helvetica,sans-Serif" font-size="10.00">+ getWindow()</text>
<text text-anchor="start" x="8" y="-106.5" font-family="Helvetica,sans-Serif" font-size="10.00">+ getSupportedScreenResolutions()</text>
<text text-anchor="start" x="8" y="-95.5" font-family="Helvetica,sans-Serif" font-size="10.00">+ setScreenResolution()</text>
<text text-anchor="start" x="8" y="-84.5" font-family="Helvetica,sans-Serif" font-size="10.00">+ setFullScreenMode()</text>
<text text-anchor="start" x="8" y="-73.5" font-family="Helvetica,sans-Serif" font-size="10.00">&#45; WindowManager()</text>
<text text-anchor="start" x="8" y="-62.5" font-family="Helvetica,sans-Serif" font-size="10.00">&#45; ~WindowManager()</text>
<text text-anchor="start" x="8" y="-51.5" font-family="Helvetica,sans-Serif" font-size="10.00">&#45; initializeScreenResolutions()</text>
</a>
</g>
</g>
<!-- Node2&#45;&gt;Node3 -->
<g id="edge2" class="edge"><title>Node2&#45;&gt;Node3</title>
<path fill="none" stroke="midnightblue" d="M100.922,-371.268C100.248,-350.457 99.4264,-325.104 98.5996,-299.575"/>
<polygon fill="none" stroke="midnightblue" points="97.428,-371.525 101.25,-381.406 104.424,-371.298 97.428,-371.525"/>
</g>
<!-- Node5 -->
<g id="node5" class="node"><title>Node5</title>
<g id="a_node5"><a xlink:href="classTileManager.html" target="_top" xlink:title="{TileManager\n|+ Singleton\&lt; TileManager \&gt;\l&#45; m_tileData\l|+ TileManager()\l+ operator=()\l+ getTexture()\l+ getTileData()\l+ calculateSlopeOrientation()\l+ calculateTileOrientation()\l+ getAllTileData()\l+ init()\l&#45; TileManager()\l&#45; ~TileManager()\l&#45; addJSONObjectToTileData()\l}">
<polygon fill="none" stroke="black" points="207.5,-83 207.5,-261 365.5,-261 365.5,-83 207.5,-83"/>
<text text-anchor="middle" x="286.5" y="-249" font-family="Helvetica,sans-Serif" font-size="10.00">TileManager</text>
<polyline fill="none" stroke="black" points="207.5,-242 365.5,-242 "/>
<text text-anchor="start" x="215.5" y="-230" font-family="Helvetica,sans-Serif" font-size="10.00">+ Singleton&lt; TileManager &gt;</text>
<text text-anchor="start" x="215.5" y="-219" font-family="Helvetica,sans-Serif" font-size="10.00">&#45; m_tileData</text>
<polyline fill="none" stroke="black" points="207.5,-212 365.5,-212 "/>
<text text-anchor="start" x="215.5" y="-200" font-family="Helvetica,sans-Serif" font-size="10.00">+ TileManager()</text>
<text text-anchor="start" x="215.5" y="-189" font-family="Helvetica,sans-Serif" font-size="10.00">+ operator=()</text>
<text text-anchor="start" x="215.5" y="-178" font-family="Helvetica,sans-Serif" font-size="10.00">+ getTexture()</text>
<text text-anchor="start" x="215.5" y="-167" font-family="Helvetica,sans-Serif" font-size="10.00">+ getTileData()</text>
<text text-anchor="start" x="215.5" y="-156" font-family="Helvetica,sans-Serif" font-size="10.00">+ calculateSlopeOrientation()</text>
<text text-anchor="start" x="215.5" y="-145" font-family="Helvetica,sans-Serif" font-size="10.00">+ calculateTileOrientation()</text>
<text text-anchor="start" x="215.5" y="-134" font-family="Helvetica,sans-Serif" font-size="10.00">+ getAllTileData()</text>
<text text-anchor="start" x="215.5" y="-123" font-family="Helvetica,sans-Serif" font-size="10.00">+ init()</text>
<text text-anchor="start" x="215.5" y="-112" font-family="Helvetica,sans-Serif" font-size="10.00">&#45; TileManager()</text>
<text text-anchor="start" x="215.5" y="-101" font-family="Helvetica,sans-Serif" font-size="10.00">&#45; ~TileManager()</text>
<text text-anchor="start" x="215.5" y="-90" font-family="Helvetica,sans-Serif" font-size="10.00">&#45; addJSONObjectToTileData()</text>
</a>
</g>
</g>
<!-- Node4&#45;&gt;Node5 -->
<g id="edge4" class="edge"><title>Node4&#45;&gt;Node5</title>
<path fill="none" stroke="midnightblue" d="M299.338,-371.192C297.308,-339.848 294.612,-298.223 292.214,-261.214"/>
<polygon fill="none" stroke="midnightblue" points="295.861,-371.653 300,-381.406 302.846,-371.201 295.861,-371.653"/>
</g>
<!-- Node7 -->
<g id="node7" class="node"><title>Node7</title>
<g id="a_node7"><a xlink:href="classResourcesManager.html" target="_top" xlink:title="{ResourcesManager\n|+ Singleton\&lt; ResourcesManager \&gt;\l&#45; m_uiTextureMap\l&#45; m_tileTextureMap\l&#45; m_surfaceMap\l|+ ResourcesManager()\l+ operator=()\l+ getUITexture()\l+ getTileTexture()\l+ getTileSurface()\l+ loadTexture()\l&#45; ResourcesManager()\l&#45; ~ResourcesManager()\l&#45; loadUITexture()\l&#45; flush()\l&#45; createSurfaceFromFile()\l&#45; createTextureFromSurface()\l}">
<polygon fill="none" stroke="black" points="383.5,-66.5 383.5,-277.5 569.5,-277.5 569.5,-66.5 383.5,-66.5"/>
<text text-anchor="middle" x="476.5" y="-265.5" font-family="Helvetica,sans-Serif" font-size="10.00">ResourcesManager</text>
<polyline fill="none" stroke="black" points="383.5,-258.5 569.5,-258.5 "/>
<text text-anchor="start" x="391.5" y="-246.5" font-family="Helvetica,sans-Serif" font-size="10.00">+ Singleton&lt; ResourcesManager &gt;</text>
<text text-anchor="start" x="391.5" y="-235.5" font-family="Helvetica,sans-Serif" font-size="10.00">&#45; m_uiTextureMap</text>
<text text-anchor="start" x="391.5" y="-224.5" font-family="Helvetica,sans-Serif" font-size="10.00">&#45; m_tileTextureMap</text>
<text text-anchor="start" x="391.5" y="-213.5" font-family="Helvetica,sans-Serif" font-size="10.00">&#45; m_surfaceMap</text>
<polyline fill="none" stroke="black" points="383.5,-206.5 569.5,-206.5 "/>
<text text-anchor="start" x="391.5" y="-194.5" font-family="Helvetica,sans-Serif" font-size="10.00">+ ResourcesManager()</text>
<text text-anchor="start" x="391.5" y="-183.5" font-family="Helvetica,sans-Serif" font-size="10.00">+ operator=()</text>
<text text-anchor="start" x="391.5" y="-172.5" font-family="Helvetica,sans-Serif" font-size="10.00">+ getUITexture()</text>
<text text-anchor="start" x="391.5" y="-161.5" font-family="Helvetica,sans-Serif" font-size="10.00">+ getTileTexture()</text>
<text text-anchor="start" x="391.5" y="-150.5" font-family="Helvetica,sans-Serif" font-size="10.00">+ getTileSurface()</text>
<text text-anchor="start" x="391.5" y="-139.5" font-family="Helvetica,sans-Serif" font-size="10.00">+ loadTexture()</text>
<text text-anchor="start" x="391.5" y="-128.5" font-family="Helvetica,sans-Serif" font-size="10.00">&#45; ResourcesManager()</text>
<text text-anchor="start" x="391.5" y="-117.5" font-family="Helvetica,sans-Serif" font-size="10.00">&#45; ~ResourcesManager()</text>
<text text-anchor="start" x="391.5" y="-106.5" font-family="Helvetica,sans-Serif" font-size="10.00">&#45; loadUITexture()</text>
<text text-anchor="start" x="391.5" y="-95.5" font-family="Helvetica,sans-Serif" font-size="10.00">&#45; flush()</text>
<text text-anchor="start" x="391.5" y="-84.5" font-family="Helvetica,sans-Serif" font-size="10.00">&#45; createSurfaceFromFile()</text>
<text text-anchor="start" x="391.5" y="-73.5" font-family="Helvetica,sans-Serif" font-size="10.00">&#45; createTextureFromSurface()</text>
</a>
</g>
</g>
<!-- Node6&#45;&gt;Node7 -->
<g id="edge6" class="edge"><title>Node6&#45;&gt;Node7</title>
<path fill="none" stroke="midnightblue" d="M490.941,-371.164C488.99,-344.397 486.494,-310.139 484.127,-277.661"/>
<polygon fill="none" stroke="midnightblue" points="487.47,-371.687 491.688,-381.406 494.451,-371.178 487.47,-371.687"/>
</g>
<!-- Node9 -->
<g id="node9" class="node"><title>Node9</title>
<g id="a_node9"><a xlink:href="classUIManager.html" target="_top" xlink:title="Draws the UI to the screen Parses UiLayout.json file and instantiates UI widgets accordingly. Also takes care of layouting. ">
<polygon fill="none" stroke="black" points="587.5,-0.5 587.5,-343.5 763.5,-343.5 763.5,-0.5 587.5,-0.5"/>
<text text-anchor="middle" x="675.5" y="-331.5" font-family="Helvetica,sans-Serif" font-size="10.00">UIManager</text>
<polyline fill="none" stroke="black" points="587.5,-324.5 763.5,-324.5 "/>
<text text-anchor="start" x="595.5" y="-312.5" font-family="Helvetica,sans-Serif" font-size="10.00">+ Singleton&lt; UIManager &gt;</text>
<text text-anchor="start" x="595.5" y="-301.5" font-family="Helvetica,sans-Serif" font-size="10.00">&#45; buildMenuLayout</text>
<text text-anchor="start" x="595.5" y="-290.5" font-family="Helvetica,sans-Serif" font-size="10.00">&#45; m_uiElements</text>
<text text-anchor="start" x="595.5" y="-279.5" font-family="Helvetica,sans-Serif" font-size="10.00">&#45; m_uiElementsForEventHandling</text>
<text text-anchor="start" x="595.5" y="-268.5" font-family="Helvetica,sans-Serif" font-size="10.00">&#45; m_uiGroups</text>
<text text-anchor="start" x="595.5" y="-257.5" font-family="Helvetica,sans-Serif" font-size="10.00">&#45; m_layoutGroups</text>
<text text-anchor="start" x="595.5" y="-246.5" font-family="Helvetica,sans-Serif" font-size="10.00">&#45; m_buttonGroups</text>
<text text-anchor="start" x="595.5" y="-235.5" font-family="Helvetica,sans-Serif" font-size="10.00">&#45; m_tooltip</text>
<text text-anchor="start" x="595.5" y="-224.5" font-family="Helvetica,sans-Serif" font-size="10.00">&#45; m_fpsCounter</text>
<text text-anchor="start" x="595.5" y="-213.5" font-family="Helvetica,sans-Serif" font-size="10.00">&#45; m_showDebugMenu</text>
<polyline fill="none" stroke="black" points="587.5,-206.5 763.5,-206.5 "/>
<text text-anchor="start" x="595.5" y="-194.5" font-family="Helvetica,sans-Serif" font-size="10.00">+ init()</text>
<text text-anchor="start" x="595.5" y="-183.5" font-family="Helvetica,sans-Serif" font-size="10.00">+ initializeDollarVariables()</text>
<text text-anchor="start" x="595.5" y="-172.5" font-family="Helvetica,sans-Serif" font-size="10.00">+ drawUI()</text>
<text text-anchor="start" x="595.5" y="-161.5" font-family="Helvetica,sans-Serif" font-size="10.00">+ toggleGroupVisibility()</text>
<text text-anchor="start" x="595.5" y="-150.5" font-family="Helvetica,sans-Serif" font-size="10.00">+ toggleDebugMenu()</text>
<text text-anchor="start" x="595.5" y="-139.5" font-family="Helvetica,sans-Serif" font-size="10.00">+ setFPSCounterText()</text>
<text text-anchor="start" x="595.5" y="-128.5" font-family="Helvetica,sans-Serif" font-size="10.00">+ setBuildMenuPosition()</text>
<text text-anchor="start" x="595.5" y="-117.5" font-family="Helvetica,sans-Serif" font-size="10.00">+ getAllUiElements()</text>
<text text-anchor="start" x="595.5" y="-106.5" font-family="Helvetica,sans-Serif" font-size="10.00">+ getAllUiElementsForEvent</text>
<text text-anchor="start" x="595.5" y="-95.5" font-family="Helvetica,sans-Serif" font-size="10.00">Handling()</text>
<text text-anchor="start" x="595.5" y="-84.5" font-family="Helvetica,sans-Serif" font-size="10.00">+ getUiElementsOfGroup()</text>
<text text-anchor="start" x="595.5" y="-73.5" font-family="Helvetica,sans-Serif" font-size="10.00">and 7 more...</text>
<text text-anchor="start" x="595.5" y="-62.5" font-family="Helvetica,sans-Serif" font-size="10.00">&#45; UIManager()</text>
<text text-anchor="start" x="595.5" y="-51.5" font-family="Helvetica,sans-Serif" font-size="10.00">&#45; ~UIManager()</text>
<text text-anchor="start" x="595.5" y="-40.5" font-family="Helvetica,sans-Serif" font-size="10.00">&#45; setCallbackFunctions()</text>
<text text-anchor="start" x="595.5" y="-29.5" font-family="Helvetica,sans-Serif" font-size="10.00">&#45; createBuildMenu()</text>
<text text-anchor="start" x="595.5" y="-18.5" font-family="Helvetica,sans-Serif" font-size="10.00">&#45; setBuildMenuLayout()</text>
<text text-anchor="start" x="595.5" y="-7.5" font-family="Helvetica,sans-Serif" font-size="10.00">&#45; addToLayoutGroup()</text>
</a>
</g>
</g>
<!-- Node8&#45;&gt;Node9 -->
<g id="edge8" class="edge"><title>Node8&#45;&gt;Node9</title>
<path fill="none" stroke="midnightblue" d="M675.5,-371.332C675.5,-362.741 675.5,-353.374 675.5,-343.539"/>
<polygon fill="none" stroke="midnightblue" points="672,-371.406 675.5,-381.406 679,-371.406 672,-371.406"/>
</g>
<!-- Node11 -->
<g id="node11" class="node"><title>Node11</title>
<g id="a_node11"><a xlink:href="classEngine.html" target="_top" xlink:title="{Engine\n|+ Singleton\&lt; Engine \&gt;\l+ map\l&#45; m_running\l|+ Engine()\l+ operator=()\l+ enableLayer()\l+ disableLayer()\l+ toggleLayer()\l+ increaseHeight()\l+ decreaseHeight()\l+ toggleFullScreen()\l+ setTileIDOfNode()\l+ demolishNode()\l+ isGameRunning()\l+ quitGame()\l+ loadGame()\l+ saveGame()\l+ newGame()\l&#45; Engine()\l&#45; ~Engine()\l}">
<polygon fill="none" stroke="black" points="781.5,-44.5 781.5,-299.5 909.5,-299.5 909.5,-44.5 781.5,-44.5"/>
<text text-anchor="middle" x="845.5" y="-287.5" font-family="Helvetica,sans-Serif" font-size="10.00">Engine</text>
<polyline fill="none" stroke="black" points="781.5,-280.5 909.5,-280.5 "/>
<text text-anchor="start" x="789.5" y="-268.5" font-family="Helvetica,sans-Serif" font-size="10.00">+ Singleton&lt; Engine &gt;</text>
<text text-anchor="start" x="789.5" y="-257.5" font-family="Helvetica,sans-Serif" font-size="10.00">+ map</text>
<text text-anchor="start" x="789.5" y="-246.5" font-family="Helvetica,sans-Serif" font-size="10.00">&#45; m_running</text>
<polyline fill="none" stroke="black" points="781.5,-239.5 909.5,-239.5 "/>
<text text-anchor="start" x="789.5" y="-227.5" font-family="Helvetica,sans-Serif" font-size="10.00">+ Engine()</text>
<text text-anchor="start" x="789.5" y="-216.5" font-family="Helvetica,sans-Serif" font-size="10.00">+ operator=()</text>
<text text-anchor="start" x="789.5" y="-205.5" font-family="Helvetica,sans-Serif" font-size="10.00">+ enableLayer()</text>
<text text-anchor="start" x="789.5" y="-194.5" font-family="Helvetica,sans-Serif" font-size="10.00">+ disableLayer()</text>
<text text-anchor="start" x="789.5" y="-183.5" font-family="Helvetica,sans-Serif" font-size="10.00">+ toggleLayer()</text>
<text text-anchor="start" x="789.5" y="-172.5" font-family="Helvetica,sans-Serif" font-size="10.00">+ increaseHeight()</text>
<text text-anchor="start" x="789.5" y="-161.5" font-family="Helvetica,sans-Serif" font-size="10.00">+ decreaseHeight()</text>
<text text-anchor="start" x="789.5" y="-150.5" font-family="Helvetica,sans-Serif" font-size="10.00">+ toggleFullScreen()</text>
<text text-anchor="start" x="789.5" y="-139.5" font-family="Helvetica,sans-Serif" font-size="10.00">+ setTileIDOfNode()</text>
<text text-anchor="start" x="789.5" y="-128.5" font-family="Helvetica,sans-Serif" font-size="10.00">+ demolishNode()</text>
<text text-anchor="start" x="789.5" y="-117.5" font-family="Helvetica,sans-Serif" font-size="10.00">+ isGameRunning()</text>
<text text-anchor="start" x="789.5" y="-106.5" font-family="Helvetica,sans-Serif" font-size="10.00">+ quitGame()</text>
<text text-anchor="start" x="789.5" y="-95.5" font-family="Helvetica,sans-Serif" font-size="10.00">+ loadGame()</text>
<text text-anchor="start" x="789.5" y="-84.5" font-family="Helvetica,sans-Serif" font-size="10.00">+ saveGame()</text>
<text text-anchor="start" x="789.5" y="-73.5" font-family="Helvetica,sans-Serif" font-size="10.00">+ newGame()</text>
<text text-anchor="start" x="789.5" y="-62.5" font-family="Helvetica,sans-Serif" font-size="10.00">&#45; Engine()</text>
<text text-anchor="start" x="789.5" y="-51.5" font-family="Helvetica,sans-Serif" font-size="10.00">&#45; ~Engine()</text>
</a>
</g>
</g>
<!-- Node10&#45;&gt;Node11 -->
<g id="edge10" class="edge"><title>Node10&#45;&gt;Node11</title>
<path fill="none" stroke="midnightblue" d="M835.065,-371.268C836.16,-350.457 837.495,-325.104 838.838,-299.575"/>
<polygon fill="none" stroke="midnightblue" points="831.562,-371.236 834.531,-381.406 838.552,-371.604 831.562,-371.236"/>
</g>
<!-- Node13 -->
<g id="node13" class="node"><title>Node13</title>
<g id="a_node13"><a xlink:href="classSettings.html" target="_top" xlink:title="the settings of the client ">
<polygon fill="none" stroke="black" points="928,-127 928,-217 1063,-217 1063,-127 928,-127"/>
<text text-anchor="middle" x="995.5" y="-205" font-family="Helvetica,sans-Serif" font-size="10.00">Settings</text>
<polyline fill="none" stroke="black" points="928,-198 1063,-198 "/>
<text text-anchor="start" x="936" y="-186" font-family="Helvetica,sans-Serif" font-size="10.00">+ Singleton&lt; Settings &gt;</text>
<polyline fill="none" stroke="black" points="928,-179 1063,-179 "/>
<text text-anchor="start" x="936" y="-167" font-family="Helvetica,sans-Serif" font-size="10.00">+ readFile()</text>
<text text-anchor="start" x="936" y="-156" font-family="Helvetica,sans-Serif" font-size="10.00">+ writeFile()</text>
<text text-anchor="start" x="936" y="-145" font-family="Helvetica,sans-Serif" font-size="10.00">&#45; Settings()</text>
<text text-anchor="start" x="936" y="-134" font-family="Helvetica,sans-Serif" font-size="10.00">&#45; ~Settings()</text>
</a>
</g>
</g>
<!-- Node12&#45;&gt;Node13 -->
<g id="edge12" class="edge"><title>Node12&#45;&gt;Node13</title>
<path fill="none" stroke="midnightblue" d="M980.244,-371.332C983.693,-326.487 988.768,-260.512 992.103,-217.159"/>
<polygon fill="none" stroke="midnightblue" points="976.746,-371.167 979.469,-381.406 983.725,-371.704 976.746,-371.167"/>
</g>
<!-- Node15 -->
<g id="node15" class="node"><title>Node15</title>
<g id="a_node15"><a xlink:href="classEventManager.html" target="_top" xlink:title="{EventManager\n|&#45; m_uiManager\l&#45; m_lastHoveredElement\l&#45; m_panning\l&#45; m_skipLeftClick\l&#45; m_tileInfoMode\l&#45; pinchCenterCoords\l&#45; m_clickDownCoords\l&#45; m_highlitNode\l&#45; m_highlightedNodes\l&#45; timers\l|+ EventManager()\l+ ~EventManager()\l+ checkEvents()\l+ registerTimer()\l}">
<polygon fill="none" stroke="black" points="1081.5,-77.5 1081.5,-266.5 1217.5,-266.5 1217.5,-77.5 1081.5,-77.5"/>
<text text-anchor="middle" x="1149.5" y="-254.5" font-family="Helvetica,sans-Serif" font-size="10.00">EventManager</text>
<polyline fill="none" stroke="black" points="1081.5,-247.5 1217.5,-247.5 "/>
<text text-anchor="start" x="1089.5" y="-235.5" font-family="Helvetica,sans-Serif" font-size="10.00">&#45; m_uiManager</text>
<text text-anchor="start" x="1089.5" y="-224.5" font-family="Helvetica,sans-Serif" font-size="10.00">&#45; m_lastHoveredElement</text>
<text text-anchor="start" x="1089.5" y="-213.5" font-family="Helvetica,sans-Serif" font-size="10.00">&#45; m_panning</text>
<text text-anchor="start" x="1089.5" y="-202.5" font-family="Helvetica,sans-Serif" font-size="10.00">&#45; m_skipLeftClick</text>
<text text-anchor="start" x="1089.5" y="-191.5" font-family="Helvetica,sans-Serif" font-size="10.00">&#45; m_tileInfoMode</text>
<text text-anchor="start" x="1089.5" y="-180.5" font-family="Helvetica,sans-Serif" font-size="10.00">&#45; pinchCenterCoords</text>
<text text-anchor="start" x="1089.5" y="-169.5" font-family="Helvetica,sans-Serif" font-size="10.00">&#45; m_clickDownCoords</text>
<text text-anchor="start" x="1089.5" y="-158.5" font-family="Helvetica,sans-Serif" font-size="10.00">&#45; m_highlitNode</text>
<text text-anchor="start" x="1089.5" y="-147.5" font-family="Helvetica,sans-Serif" font-size="10.00">&#45; m_highlightedNodes</text>
<text text-anchor="start" x="1089.5" y="-136.5" font-family="Helvetica,sans-Serif" font-size="10.00">&#45; timers</text>
<polyline fill="none" stroke="black" points="1081.5,-129.5 1217.5,-129.5 "/>
<text text-anchor="start" x="1089.5" y="-117.5" font-family="Helvetica,sans-Serif" font-size="10.00">+ EventManager()</text>
<text text-anchor="start" x="1089.5" y="-106.5" font-family="Helvetica,sans-Serif" font-size="10.00">+ ~EventManager()</text>
<text text-anchor="start" x="1089.5" y="-95.5" font-family="Helvetica,sans-Serif" font-size="10.00">+ checkEvents()</text>
<text text-anchor="start" x="1089.5" y="-84.5" font-family="Helvetica,sans-Serif" font-size="10.00">+ registerTimer()</text>
</a>
</g>
</g>
<!-- Node14&#45;&gt;Node15 -->
<g id="edge14" class="edge"><title>Node14&#45;&gt;Node15</title>
<path fill="none" stroke="midnightblue" d="M1145.49,-371.273C1146.09,-341.468 1146.88,-302.344 1147.6,-266.732"/>
<polygon fill="none" stroke="midnightblue" points="1141.98,-371.337 1145.28,-381.406 1148.98,-371.479 1141.98,-371.337"/>
</g>
</g>
</svg>
