<?xml version="1.0" encoding="UTF-8" standalone="no"?>
<!DOCTYPE svg PUBLIC "-//W3C//DTD SVG 1.1//EN"
 "http://www.w3.org/Graphics/SVG/1.1/DTD/svg11.dtd">
<!-- Generated by graphviz version 2.38.0 (20140413.2041)
 -->
<!-- Title: ComboBox::onMouseButtonDown Pages: 1 -->
<svg width="587pt" height="94pt"
 viewBox="0.00 0.00 587.00 93.50" xmlns="http://www.w3.org/2000/svg" xmlns:xlink="http://www.w3.org/1999/xlink">
<g id="graph0" class="graph" transform="scale(1 1) rotate(0) translate(4 89.5)">
<title>ComboBox::onMouseButtonDown</title>
<!-- Node1 -->
<g id="node1" class="node"><title>Node1</title>
<polygon fill="#bfbfbf" stroke="black" points="0,-47 0,-66 177,-66 177,-47 0,-47"/>
<text text-anchor="middle" x="88.5" y="-54" font-family="Helvetica,sans-Serif" font-size="10.00">ComboBox::onMouseButtonDown</text>
</g>
<!-- Node2 -->
<g id="node2" class="node"><title>Node2</title>
<g id="a_node2"><a xlink:href="classComboBox.html#a0d22df3316d734401c6a60f14f186134" target="_top" xlink:title="ComboBox::checkBoundaries">
<polygon fill="none" stroke="black" points="217.5,-66 217.5,-85 374.5,-85 374.5,-66 217.5,-66"/>
<text text-anchor="middle" x="296" y="-73" font-family="Helvetica,sans-Serif" font-size="10.00">ComboBox::checkBoundaries</text>
</a>
</g>
</g>
<!-- Node1&#45;&gt;Node2 -->
<g id="edge1" class="edge"><title>Node1&#45;&gt;Node2</title>
<path fill="none" stroke="midnightblue" d="M177.247,-64.6128C187.124,-65.5261 197.191,-66.4569 207.071,-67.3703"/>
<polygon fill="midnightblue" stroke="midnightblue" points="207.004,-70.879 217.284,-68.3146 207.649,-63.9087 207.004,-70.879"/>
</g>
<!-- Node3 -->
<g id="node3" class="node"><title>Node3</title>
<g id="a_node3"><a xlink:href="classUIElement.html#ade4162d6216022e143c769369b64add7" target="_top" xlink:title="Set the button state Sets the mouse button pressed state. ">
<polygon fill="none" stroke="black" points="213,-28 213,-47 379,-47 379,-28 213,-28"/>
<text text-anchor="middle" x="296" y="-35" font-family="Helvetica,sans-Serif" font-size="10.00">UIElement::changeButtonState</text>
</a>
</g>
</g>
<!-- Node1&#45;&gt;Node3 -->
<g id="edge2" class="edge"><title>Node1&#45;&gt;Node3</title>
<path fill="none" stroke="midnightblue" d="M177.247,-48.3872C185.623,-47.6127 194.135,-46.8257 202.554,-46.0474"/>
<polygon fill="midnightblue" stroke="midnightblue" points="203.126,-49.5095 212.761,-45.1036 202.481,-42.5392 203.126,-49.5095"/>
</g>
<!-- Node4 -->
<g id="node4" class="node"><title>Node4</title>
<g id="a_node4"><a xlink:href="classUIElement.html#afdf67550d4140097c7a328d4b22fc1fe" target="_top" xlink:title="UIElement::changeTexture">
<polygon fill="none" stroke="black" points="426,-50 426,-69 568,-69 568,-50 426,-50"/>
<text text-anchor="middle" x="497" y="-57" font-family="Helvetica,sans-Serif" font-size="10.00">UIElement::changeTexture</text>
</a>
</g>
</g>
<!-- Node3&#45;&gt;Node4 -->
<g id="edge3" class="edge"><title>Node3&#45;&gt;Node4</title>
<path fill="none" stroke="midnightblue" d="M379.09,-46.5753C391.218,-47.9161 403.703,-49.2963 415.792,-50.6328"/>
<polygon fill="midnightblue" stroke="midnightblue" points="415.514,-54.1233 425.838,-51.7434 416.283,-47.1657 415.514,-54.1233"/>
</g>
<!-- Node5 -->
<g id="node5" class="node"><title>Node5</title>
<g id="a_node5"><a xlink:href="classSingleton.html#af5cb1e5749949e2b68416cfb8d378044" target="_top" xlink:title="Get an instance of the singleton. ">
<polygon fill="none" stroke="black" points="415,-0.5 415,-30.5 579,-30.5 579,-0.5 415,-0.5"/>
<text text-anchor="start" x="423" y="-18.5" font-family="Helvetica,sans-Serif" font-size="10.00">Singleton&lt; ResourcesManager</text>
<text text-anchor="middle" x="497" y="-7.5" font-family="Helvetica,sans-Serif" font-size="10.00"> &gt;::instance</text>
</a>
</g>
</g>
<!-- Node3&#45;&gt;Node5 -->
<g id="edge4" class="edge"><title>Node3&#45;&gt;Node5</title>
<path fill="none" stroke="midnightblue" d="M379.09,-28.4247C387.555,-27.4889 396.193,-26.534 404.749,-25.588"/>
<polygon fill="midnightblue" stroke="midnightblue" points="405.186,-29.0612 414.741,-24.4834 404.417,-22.1036 405.186,-29.0612"/>
</g>
</g>
</svg>
