<?xml version="1.0" encoding="UTF-8" standalone="no"?>
<!DOCTYPE svg PUBLIC "-//W3C//DTD SVG 1.1//EN"
 "http://www.w3.org/Graphics/SVG/1.1/DTD/svg11.dtd">
<!-- Generated by graphviz version 2.38.0 (20140413.2041)
 -->
<!-- Title: TileManager::addJSONObjectToTileData Pages: 1 -->
<svg width="1291pt" height="66pt"
 viewBox="0.00 0.00 1291.00 66.00" xmlns="http://www.w3.org/2000/svg" xmlns:xlink="http://www.w3.org/1999/xlink">
<g id="graph0" class="graph" transform="scale(1 1) rotate(0) translate(4 62)">
<title>TileManager::addJSONObjectToTileData</title>
<!-- Node1 -->
<g id="node1" class="node"><title>Node1</title>
<polygon fill="#bfbfbf" stroke="black" points="0,-14 0,-44 153,-44 153,-14 0,-14"/>
<text text-anchor="start" x="8" y="-32" font-family="Helvetica,sans-Serif" font-size="10.00">TileManager::addJSONObject</text>
<text text-anchor="middle" x="76.5" y="-21" font-family="Helvetica,sans-Serif" font-size="10.00">ToTileData</text>
</g>
<!-- Node2 -->
<g id="node2" class="node"><title>Node2</title>
<g id="a_node2"><a xlink:href="classTileManager.html#a1575d9a9530e13fe0286b8fece9e47ea" target="_top" xlink:title="TileManager::init">
<polygon fill="none" stroke="black" points="189,-19.5 189,-38.5 284,-38.5 284,-19.5 189,-19.5"/>
<text text-anchor="middle" x="236.5" y="-26.5" font-family="Helvetica,sans-Serif" font-size="10.00">TileManager::init</text>
</a>
</g>
</g>
<!-- Node1&#45;&gt;Node2 -->
<g id="edge1" class="edge"><title>Node1&#45;&gt;Node2</title>
<path fill="none" stroke="midnightblue" d="M163.265,-29C172.104,-29 180.83,-29 188.994,-29"/>
<polygon fill="midnightblue" stroke="midnightblue" points="163.261,-25.5001 153.261,-29 163.261,-32.5001 163.261,-25.5001"/>
</g>
<!-- Node3 -->
<g id="node3" class="node"><title>Node3</title>
<g id="a_node3"><a xlink:href="classTileManager.html#ac6f5d9eb4db57f9ad597223658574394" target="_top" xlink:title="TileManager::TileManager">
<polygon fill="none" stroke="black" points="320,-38.5 320,-57.5 458,-57.5 458,-38.5 320,-38.5"/>
<text text-anchor="middle" x="389" y="-45.5" font-family="Helvetica,sans-Serif" font-size="10.00">TileManager::TileManager</text>
</a>
</g>
</g>
<!-- Node2&#45;&gt;Node3 -->
<g id="edge2" class="edge"><title>Node2&#45;&gt;Node3</title>
<path fill="none" stroke="midnightblue" d="M294.318,-36.1731C302.693,-37.2303 311.392,-38.3286 319.965,-39.4109"/>
<polygon fill="midnightblue" stroke="midnightblue" points="294.654,-32.6877 284.294,-34.9076 293.777,-39.6326 294.654,-32.6877"/>
</g>
<!-- Node4 -->
<g id="node4" class="node"><title>Node4</title>
<g id="a_node4"><a xlink:href="classTileManager.html#a682e1364119e3e5c41e4032fe4e206e1" target="_top" xlink:title="TileManager::getAllTileData">
<polygon fill="none" stroke="black" points="494,-19.5 494,-38.5 640,-38.5 640,-19.5 494,-19.5"/>
<text text-anchor="middle" x="567" y="-26.5" font-family="Helvetica,sans-Serif" font-size="10.00">TileManager::getAllTileData</text>
</a>
</g>
</g>
<!-- Node2&#45;&gt;Node4 -->
<g id="edge10" class="edge"><title>Node2&#45;&gt;Node4</title>
<path fill="none" stroke="midnightblue" d="M294.53,-29C349.794,-29 433.82,-29 493.74,-29"/>
<polygon fill="midnightblue" stroke="midnightblue" points="294.217,-25.5001 284.217,-29 294.217,-32.5001 294.217,-25.5001"/>
</g>
<!-- Node3&#45;&gt;Node4 -->
<g id="edge3" class="edge"><title>Node3&#45;&gt;Node4</title>
<path fill="none" stroke="midnightblue" d="M468.02,-39.5774C476.583,-38.653 485.274,-37.7148 493.762,-36.7984"/>
<polygon fill="midnightblue" stroke="midnightblue" points="467.613,-36.1009 458.046,-40.6541 468.364,-43.0605 467.613,-36.1009"/>
</g>
<!-- Node5 -->
<g id="node5" class="node"><title>Node5</title>
<g id="a_node5"><a xlink:href="classMenuGroupBuild.html#afe78eacb71e9b5ebe9adaae92c0378cc" target="_top" xlink:title="MenuGroupBuild::constructMenu">
<polygon fill="none" stroke="black" points="676,-38.5 676,-57.5 849,-57.5 849,-38.5 676,-38.5"/>
<text text-anchor="middle" x="762.5" y="-45.5" font-family="Helvetica,sans-Serif" font-size="10.00">MenuGroupBuild::constructMenu</text>
</a>
</g>
</g>
<!-- Node4&#45;&gt;Node5 -->
<g id="edge4" class="edge"><title>Node4&#45;&gt;Node5</title>
<path fill="none" stroke="midnightblue" d="M650.04,-37.0557C658.625,-37.8986 667.368,-38.7571 675.99,-39.6037"/>
<polygon fill="midnightblue" stroke="midnightblue" points="650.346,-33.569 640.052,-36.0749 649.662,-40.5354 650.346,-33.569"/>
</g>
<!-- Node6 -->
<g id="node6" class="node"><title>Node6</title>
<g id="a_node6"><a xlink:href="classUIManager.html#aae7a89e9d50bb6192e4140e07bd5f94b" target="_top" xlink:title="UIManager::createBuildMenu">
<polygon fill="none" stroke="black" points="685,-0.5 685,-19.5 840,-19.5 840,-0.5 685,-0.5"/>
<text text-anchor="middle" x="762.5" y="-7.5" font-family="Helvetica,sans-Serif" font-size="10.00">UIManager::createBuildMenu</text>
</a>
</g>
</g>
<!-- Node4&#45;&gt;Node6 -->
<g id="edge5" class="edge"><title>Node4&#45;&gt;Node6</title>
<path fill="none" stroke="midnightblue" d="M650.092,-20.9393C661.619,-19.8075 673.43,-18.6477 684.85,-17.5264"/>
<polygon fill="midnightblue" stroke="midnightblue" points="649.662,-17.4646 640.052,-21.9251 650.346,-24.431 649.662,-17.4646"/>
</g>
<!-- Node7 -->
<g id="node7" class="node"><title>Node7</title>
<g id="a_node7"><a xlink:href="classUIManager.html#aedd9d0577af515a852425dfe414b2968" target="_top" xlink:title="Parses the UiLayout.json files and creates UI Elements. ">
<polygon fill="none" stroke="black" points="885,-0.5 885,-19.5 974,-19.5 974,-0.5 885,-0.5"/>
<text text-anchor="middle" x="929.5" y="-7.5" font-family="Helvetica,sans-Serif" font-size="10.00">UIManager::init</text>
</a>
</g>
</g>
<!-- Node6&#45;&gt;Node7 -->
<g id="edge6" class="edge"><title>Node6&#45;&gt;Node7</title>
<path fill="none" stroke="midnightblue" d="M850.271,-10C862.249,-10 874.107,-10 884.831,-10"/>
<polygon fill="midnightblue" stroke="midnightblue" points="850.204,-6.5001 840.203,-10 850.203,-13.5001 850.204,-6.5001"/>
</g>
<!-- Node8 -->
<g id="node8" class="node"><title>Node8</title>
<g id="a_node8"><a xlink:href="classGame.html#a1c2ab25d5216b2f4b2fe41efd2c09114" target="_top" xlink:title="Game::run">
<polygon fill="none" stroke="black" points="1010,-0.5 1010,-19.5 1078,-19.5 1078,-0.5 1010,-0.5"/>
<text text-anchor="middle" x="1044" y="-7.5" font-family="Helvetica,sans-Serif" font-size="10.00">Game::run</text>
</a>
</g>
</g>
<!-- Node7&#45;&gt;Node8 -->
<g id="edge7" class="edge"><title>Node7&#45;&gt;Node8</title>
<path fill="none" stroke="midnightblue" d="M984.446,-10C993.145,-10 1001.92,-10 1009.93,-10"/>
<polygon fill="midnightblue" stroke="midnightblue" points="984.318,-6.5001 974.318,-10 984.318,-13.5001 984.318,-6.5001"/>
</g>
<!-- Node9 -->
<g id="node9" class="node"><title>Node9</title>
<g id="a_node9"><a xlink:href="main_8cxx.html#af582d708d899e67ead623eac34a22387" target="_top" xlink:title="protected_main">
<polygon fill="none" stroke="black" points="1114,-0.5 1114,-19.5 1206,-19.5 1206,-0.5 1114,-0.5"/>
<text text-anchor="middle" x="1160" y="-7.5" font-family="Helvetica,sans-Serif" font-size="10.00">protected_main</text>
</a>
</g>
</g>
<!-- Node8&#45;&gt;Node9 -->
<g id="edge8" class="edge"><title>Node8&#45;&gt;Node9</title>
<path fill="none" stroke="midnightblue" d="M1088.44,-10C1096.67,-10 1105.31,-10 1113.6,-10"/>
<polygon fill="midnightblue" stroke="midnightblue" points="1088.28,-6.5001 1078.28,-10 1088.28,-13.5001 1088.28,-6.5001"/>
</g>
<!-- Node10 -->
<g id="node10" class="node"><title>Node10</title>
<g id="a_node10"><a xlink:href="main_8cxx.html#a3c04138a5bfe5d72780bb7e82a18e627" target="_top" xlink:title="main">
<polygon fill="none" stroke="black" points="1242,-0.5 1242,-19.5 1283,-19.5 1283,-0.5 1242,-0.5"/>
<text text-anchor="middle" x="1262.5" y="-7.5" font-family="Helvetica,sans-Serif" font-size="10.00">main</text>
</a>
</g>
</g>
<!-- Node9&#45;&gt;Node10 -->
<g id="edge9" class="edge"><title>Node9&#45;&gt;Node10</title>
<path fill="none" stroke="midnightblue" d="M1216.54,-10C1225.62,-10 1234.47,-10 1241.88,-10"/>
<polygon fill="midnightblue" stroke="midnightblue" points="1216.25,-6.5001 1206.25,-10 1216.25,-13.5001 1216.25,-6.5001"/>
</g>
</g>
</svg>
