<?xml version="1.0" encoding="UTF-8" standalone="no"?>
<!DOCTYPE svg PUBLIC "-//W3C//DTD SVG 1.1//EN"
 "http://www.w3.org/Graphics/SVG/1.1/DTD/svg11.dtd">
<!-- Generated by graphviz version 2.38.0 (20140413.2041)
 -->
<!-- Title: Tooltip::reset Pages: 1 -->
<svg width="246pt" height="66pt"
 viewBox="0.00 0.00 246.00 66.00" xmlns="http://www.w3.org/2000/svg" xmlns:xlink="http://www.w3.org/1999/xlink">
<g id="graph0" class="graph" transform="scale(1 1) rotate(0) translate(4 62)">
<title>Tooltip::reset</title>
<!-- Node1 -->
<g id="node1" class="node"><title>Node1</title>
<polygon fill="#bfbfbf" stroke="black" points="0,-19.5 0,-38.5 77,-38.5 77,-19.5 0,-19.5"/>
<text text-anchor="middle" x="38.5" y="-26.5" font-family="Helvetica,sans-Serif" font-size="10.00">Tooltip::reset</text>
</g>
<!-- Node2 -->
<g id="node2" class="node"><title>Node2</title>
<g id="a_node2"><a xlink:href="classUIElement.html#a440d645aa10dbf7d3c763ba6e1fc33a6" target="_top" xlink:title="Sets the UI Elements visibility. Set the UI Elements visibility. ">
<polygon fill="none" stroke="black" points="113,-38.5 113,-57.5 238,-57.5 238,-38.5 113,-38.5"/>
<text text-anchor="middle" x="175.5" y="-45.5" font-family="Helvetica,sans-Serif" font-size="10.00">UIElement::setVisibility</text>
</a>
</g>
</g>
<!-- Node1&#45;&gt;Node2 -->
<g id="edge1" class="edge"><title>Node1&#45;&gt;Node2</title>
<path fill="none" stroke="midnightblue" d="M77.105,-34.2926C85.1543,-35.4254 93.9144,-36.6583 102.772,-37.9049"/>
<polygon fill="midnightblue" stroke="midnightblue" points="102.391,-41.3857 112.781,-39.3136 103.366,-34.454 102.391,-41.3857"/>
</g>
<!-- Node3 -->
<g id="node3" class="node"><title>Node3</title>
<g id="a_node3"><a xlink:href="classTimer.html#a63f0eb44b27402196590a03781515dba" target="_top" xlink:title="Stop the timer Stops the timer and set it back to 0. ">
<polygon fill="none" stroke="black" points="140,-0.5 140,-19.5 211,-19.5 211,-0.5 140,-0.5"/>
<text text-anchor="middle" x="175.5" y="-7.5" font-family="Helvetica,sans-Serif" font-size="10.00">Timer::stop</text>
</a>
</g>
</g>
<!-- Node1&#45;&gt;Node3 -->
<g id="edge2" class="edge"><title>Node1&#45;&gt;Node3</title>
<path fill="none" stroke="midnightblue" d="M77.105,-23.7074C93.3865,-21.416 112.576,-18.7152 129.598,-16.3195"/>
<polygon fill="midnightblue" stroke="midnightblue" points="130.457,-19.7333 139.871,-14.8737 129.481,-12.8016 130.457,-19.7333"/>
</g>
</g>
</svg>
