<?xml version="1.0" encoding="UTF-8" standalone="no"?>
<!DOCTYPE svg PUBLIC "-//W3C//DTD SVG 1.1//EN"
 "http://www.w3.org/Graphics/SVG/1.1/DTD/svg11.dtd">
<!-- Generated by graphviz version 2.38.0 (20140413.2041)
 -->
<!-- Title: TileManager::~TileManager Pages: 1 -->
<svg width="979pt" height="66pt"
 viewBox="0.00 0.00 979.00 66.00" xmlns="http://www.w3.org/2000/svg" xmlns:xlink="http://www.w3.org/1999/xlink">
<g id="graph0" class="graph" transform="scale(1 1) rotate(0) translate(4 62)">
<title>TileManager::~TileManager</title>
<!-- Node1 -->
<g id="node1" class="node"><title>Node1</title>
<polygon fill="#bfbfbf" stroke="black" points="0,-19.5 0,-38.5 146,-38.5 146,-19.5 0,-19.5"/>
<text text-anchor="middle" x="73" y="-26.5" font-family="Helvetica,sans-Serif" font-size="10.00">TileManager::~TileManager</text>
</g>
<!-- Node2 -->
<g id="node2" class="node"><title>Node2</title>
<g id="a_node2"><a xlink:href="classTileManager.html#a682e1364119e3e5c41e4032fe4e206e1" target="_top" xlink:title="TileManager::getAllTileData">
<polygon fill="none" stroke="black" points="182,-19.5 182,-38.5 328,-38.5 328,-19.5 182,-19.5"/>
<text text-anchor="middle" x="255" y="-26.5" font-family="Helvetica,sans-Serif" font-size="10.00">TileManager::getAllTileData</text>
</a>
</g>
</g>
<!-- Node1&#45;&gt;Node2 -->
<g id="edge1" class="edge"><title>Node1&#45;&gt;Node2</title>
<path fill="none" stroke="midnightblue" d="M156.439,-29C164.906,-29 173.464,-29 181.808,-29"/>
<polygon fill="midnightblue" stroke="midnightblue" points="156.176,-25.5001 146.176,-29 156.176,-32.5001 156.176,-25.5001"/>
</g>
<!-- Node3 -->
<g id="node3" class="node"><title>Node3</title>
<g id="a_node3"><a xlink:href="classMenuGroupBuild.html#afe78eacb71e9b5ebe9adaae92c0378cc" target="_top" xlink:title="MenuGroupBuild::constructMenu">
<polygon fill="none" stroke="black" points="364,-38.5 364,-57.5 537,-57.5 537,-38.5 364,-38.5"/>
<text text-anchor="middle" x="450.5" y="-45.5" font-family="Helvetica,sans-Serif" font-size="10.00">MenuGroupBuild::constructMenu</text>
</a>
</g>
</g>
<!-- Node2&#45;&gt;Node3 -->
<g id="edge2" class="edge"><title>Node2&#45;&gt;Node3</title>
<path fill="none" stroke="midnightblue" d="M338.04,-37.0557C346.625,-37.8986 355.368,-38.7571 363.99,-39.6037"/>
<polygon fill="midnightblue" stroke="midnightblue" points="338.346,-33.569 328.052,-36.0749 337.662,-40.5354 338.346,-33.569"/>
</g>
<!-- Node4 -->
<g id="node4" class="node"><title>Node4</title>
<g id="a_node4"><a xlink:href="classUIManager.html#aae7a89e9d50bb6192e4140e07bd5f94b" target="_top" xlink:title="UIManager::createBuildMenu">
<polygon fill="none" stroke="black" points="373,-0.5 373,-19.5 528,-19.5 528,-0.5 373,-0.5"/>
<text text-anchor="middle" x="450.5" y="-7.5" font-family="Helvetica,sans-Serif" font-size="10.00">UIManager::createBuildMenu</text>
</a>
</g>
</g>
<!-- Node2&#45;&gt;Node4 -->
<g id="edge3" class="edge"><title>Node2&#45;&gt;Node4</title>
<path fill="none" stroke="midnightblue" d="M338.092,-20.9393C349.619,-19.8075 361.43,-18.6477 372.85,-17.5264"/>
<polygon fill="midnightblue" stroke="midnightblue" points="337.662,-17.4646 328.052,-21.9251 338.346,-24.431 337.662,-17.4646"/>
</g>
<!-- Node5 -->
<g id="node5" class="node"><title>Node5</title>
<g id="a_node5"><a xlink:href="classUIManager.html#aedd9d0577af515a852425dfe414b2968" target="_top" xlink:title="Parses the UiLayout.json files and creates UI Elements. ">
<polygon fill="none" stroke="black" points="573,-0.5 573,-19.5 662,-19.5 662,-0.5 573,-0.5"/>
<text text-anchor="middle" x="617.5" y="-7.5" font-family="Helvetica,sans-Serif" font-size="10.00">UIManager::init</text>
</a>
</g>
</g>
<!-- Node4&#45;&gt;Node5 -->
<g id="edge4" class="edge"><title>Node4&#45;&gt;Node5</title>
<path fill="none" stroke="midnightblue" d="M538.271,-10C550.249,-10 562.107,-10 572.831,-10"/>
<polygon fill="midnightblue" stroke="midnightblue" points="538.204,-6.5001 528.203,-10 538.203,-13.5001 538.204,-6.5001"/>
</g>
<!-- Node6 -->
<g id="node6" class="node"><title>Node6</title>
<g id="a_node6"><a xlink:href="classGame.html#a1c2ab25d5216b2f4b2fe41efd2c09114" target="_top" xlink:title="Game::run">
<polygon fill="none" stroke="black" points="698,-0.5 698,-19.5 766,-19.5 766,-0.5 698,-0.5"/>
<text text-anchor="middle" x="732" y="-7.5" font-family="Helvetica,sans-Serif" font-size="10.00">Game::run</text>
</a>
</g>
</g>
<!-- Node5&#45;&gt;Node6 -->
<g id="edge5" class="edge"><title>Node5&#45;&gt;Node6</title>
<path fill="none" stroke="midnightblue" d="M672.446,-10C681.145,-10 689.918,-10 697.931,-10"/>
<polygon fill="midnightblue" stroke="midnightblue" points="672.318,-6.5001 662.318,-10 672.318,-13.5001 672.318,-6.5001"/>
</g>
<!-- Node7 -->
<g id="node7" class="node"><title>Node7</title>
<g id="a_node7"><a xlink:href="main_8cxx.html#af582d708d899e67ead623eac34a22387" target="_top" xlink:title="protected_main">
<polygon fill="none" stroke="black" points="802,-0.5 802,-19.5 894,-19.5 894,-0.5 802,-0.5"/>
<text text-anchor="middle" x="848" y="-7.5" font-family="Helvetica,sans-Serif" font-size="10.00">protected_main</text>
</a>
</g>
</g>
<!-- Node6&#45;&gt;Node7 -->
<g id="edge6" class="edge"><title>Node6&#45;&gt;Node7</title>
<path fill="none" stroke="midnightblue" d="M776.44,-10C784.674,-10 793.308,-10 801.601,-10"/>
<polygon fill="midnightblue" stroke="midnightblue" points="776.28,-6.5001 766.28,-10 776.28,-13.5001 776.28,-6.5001"/>
</g>
<!-- Node8 -->
<g id="node8" class="node"><title>Node8</title>
<g id="a_node8"><a xlink:href="main_8cxx.html#a3c04138a5bfe5d72780bb7e82a18e627" target="_top" xlink:title="main">
<polygon fill="none" stroke="black" points="930,-0.5 930,-19.5 971,-19.5 971,-0.5 930,-0.5"/>
<text text-anchor="middle" x="950.5" y="-7.5" font-family="Helvetica,sans-Serif" font-size="10.00">main</text>
</a>
</g>
</g>
<!-- Node7&#45;&gt;Node8 -->
<g id="edge7" class="edge"><title>Node7&#45;&gt;Node8</title>
<path fill="none" stroke="midnightblue" d="M904.539,-10C913.619,-10 922.466,-10 929.877,-10"/>
<polygon fill="midnightblue" stroke="midnightblue" points="904.252,-6.5001 894.252,-10 904.252,-13.5001 904.252,-6.5001"/>
</g>
</g>
</svg>
