<?xml version="1.0" encoding="UTF-8" standalone="no"?>
<!DOCTYPE svg PUBLIC "-//W3C//DTD SVG 1.1//EN"
 "http://www.w3.org/Graphics/SVG/1.1/DTD/svg11.dtd">
<!-- Generated by graphviz version 2.38.0 (20140413.2041)
 -->
<!-- Title: Map::loadMapFromFile Pages: 1 -->
<svg width="1115pt" height="104pt"
 viewBox="0.00 0.00 1115.00 104.00" xmlns="http://www.w3.org/2000/svg" xmlns:xlink="http://www.w3.org/1999/xlink">
<g id="graph0" class="graph" transform="scale(1 1) rotate(0) translate(4 100)">
<title>Map::loadMapFromFile</title>
<!-- Node1 -->
<g id="node1" class="node"><title>Node1</title>
<polygon fill="#bfbfbf" stroke="black" points="0,-38.5 0,-57.5 122,-57.5 122,-38.5 0,-38.5"/>
<text text-anchor="middle" x="61" y="-45.5" font-family="Helvetica,sans-Serif" font-size="10.00">Map::loadMapFromFile</text>
</g>
<!-- Node2 -->
<g id="node2" class="node"><title>Node2</title>
<g id="a_node2"><a xlink:href="classEngine.html#a83b7dbeee899b36a13d5b07c7ad87ebc" target="_top" xlink:title="Loads a saved game Loads a saved Game. ">
<polygon fill="none" stroke="black" points="158,-38.5 158,-57.5 262,-57.5 262,-38.5 158,-38.5"/>
<text text-anchor="middle" x="210" y="-45.5" font-family="Helvetica,sans-Serif" font-size="10.00">Engine::loadGame</text>
</a>
</g>
</g>
<!-- Node1&#45;&gt;Node2 -->
<g id="edge1" class="edge"><title>Node1&#45;&gt;Node2</title>
<path fill="none" stroke="midnightblue" d="M132.478,-48C140.938,-48 149.452,-48 157.57,-48"/>
<polygon fill="midnightblue" stroke="midnightblue" points="132.215,-44.5001 122.215,-48 132.215,-51.5001 132.215,-44.5001"/>
</g>
<!-- Node3 -->
<g id="node3" class="node"><title>Node3</title>
<g id="a_node3"><a xlink:href="classEngine.html#a0ba57971ffb5173ecc425461f65a4cd8" target="_top" xlink:title="Quits the game Sets m_running to false and quitting the game. ">
<polygon fill="none" stroke="black" points="298,-38.5 298,-57.5 400,-57.5 400,-38.5 298,-38.5"/>
<text text-anchor="middle" x="349" y="-45.5" font-family="Helvetica,sans-Serif" font-size="10.00">Engine::quitGame</text>
</a>
</g>
</g>
<!-- Node2&#45;&gt;Node3 -->
<g id="edge2" class="edge"><title>Node2&#45;&gt;Node3</title>
<path fill="none" stroke="midnightblue" d="M272.039,-48C280.67,-48 289.461,-48 297.855,-48"/>
<polygon fill="midnightblue" stroke="midnightblue" points="272.014,-44.5001 262.014,-48 272.014,-51.5001 272.014,-44.5001"/>
</g>
<!-- Node8 -->
<g id="node8" class="node"><title>Node8</title>
<g id="a_node8"><a xlink:href="classUIManager.html#aa78e356fc3b356d790c848319d1c387e" target="_top" xlink:title="UIManager::setCallbackFunctions">
<polygon fill="none" stroke="black" points="436,-76.5 436,-95.5 610,-95.5 610,-76.5 436,-76.5"/>
<text text-anchor="middle" x="523" y="-83.5" font-family="Helvetica,sans-Serif" font-size="10.00">UIManager::setCallbackFunctions</text>
</a>
</g>
</g>
<!-- Node2&#45;&gt;Node8 -->
<g id="edge12" class="edge"><title>Node2&#45;&gt;Node8</title>
<path fill="none" stroke="midnightblue" d="M259.179,-59.6941C271.755,-62.4237 285.334,-65.0882 298,-67 343.248,-73.8301 394.037,-78.3894 435.8,-81.3252"/>
<polygon fill="midnightblue" stroke="midnightblue" points="259.867,-56.2616 249.345,-57.5041 258.345,-63.0942 259.867,-56.2616"/>
</g>
<!-- Node10 -->
<g id="node10" class="node"><title>Node10</title>
<g id="a_node10"><a xlink:href="classGame.html#a5ed7fc5be77080f7f6dd5363f7f007a1" target="_top" xlink:title="Game::mainMenu">
<polygon fill="none" stroke="black" points="472,-0.5 472,-19.5 574,-19.5 574,-0.5 472,-0.5"/>
<text text-anchor="middle" x="523" y="-7.5" font-family="Helvetica,sans-Serif" font-size="10.00">Game::mainMenu</text>
</a>
</g>
</g>
<!-- Node2&#45;&gt;Node10 -->
<g id="edge13" class="edge"><title>Node2&#45;&gt;Node10</title>
<path fill="none" stroke="midnightblue" d="M259.179,-36.3059C271.755,-33.5763 285.334,-30.9118 298,-29 357.431,-20.0291 426.419,-14.9756 471.96,-12.3728"/>
<polygon fill="midnightblue" stroke="midnightblue" points="258.345,-32.9058 249.345,-38.4959 259.867,-39.7384 258.345,-32.9058"/>
</g>
<!-- Node4 -->
<g id="node4" class="node"><title>Node4</title>
<g id="a_node4"><a xlink:href="classEventManager.html#a65ec91fd5016d4f9c4167fb8babed2df" target="_top" xlink:title="EventManager::checkEvents">
<polygon fill="none" stroke="black" points="646,-38.5 646,-57.5 798,-57.5 798,-38.5 646,-38.5"/>
<text text-anchor="middle" x="722" y="-45.5" font-family="Helvetica,sans-Serif" font-size="10.00">EventManager::checkEvents</text>
</a>
</g>
</g>
<!-- Node3&#45;&gt;Node4 -->
<g id="edge3" class="edge"><title>Node3&#45;&gt;Node4</title>
<path fill="none" stroke="midnightblue" d="M410.405,-48C474.656,-48 576.402,-48 645.802,-48"/>
<polygon fill="midnightblue" stroke="midnightblue" points="410.035,-44.5001 400.035,-48 410.035,-51.5001 410.035,-44.5001"/>
</g>
<!-- Node3&#45;&gt;Node8 -->
<g id="edge7" class="edge"><title>Node3&#45;&gt;Node8</title>
<path fill="none" stroke="midnightblue" d="M403.196,-59.7526C427.517,-65.1258 455.955,-71.4086 478.909,-76.4799"/>
<polygon fill="midnightblue" stroke="midnightblue" points="403.922,-56.3288 393.403,-57.589 402.412,-63.164 403.922,-56.3288"/>
</g>
<!-- Node3&#45;&gt;Node10 -->
<g id="edge10" class="edge"><title>Node3&#45;&gt;Node10</title>
<path fill="none" stroke="midnightblue" d="M403.196,-36.2474C427.517,-30.8742 455.955,-24.5914 478.909,-19.5201"/>
<polygon fill="midnightblue" stroke="midnightblue" points="402.412,-32.836 393.403,-38.411 403.922,-39.6712 402.412,-32.836"/>
</g>
<!-- Node5 -->
<g id="node5" class="node"><title>Node5</title>
<g id="a_node5"><a xlink:href="classGame.html#a1c2ab25d5216b2f4b2fe41efd2c09114" target="_top" xlink:title="Game::run">
<polygon fill="none" stroke="black" points="834,-38.5 834,-57.5 902,-57.5 902,-38.5 834,-38.5"/>
<text text-anchor="middle" x="868" y="-45.5" font-family="Helvetica,sans-Serif" font-size="10.00">Game::run</text>
</a>
</g>
</g>
<!-- Node4&#45;&gt;Node5 -->
<g id="edge4" class="edge"><title>Node4&#45;&gt;Node5</title>
<path fill="none" stroke="midnightblue" d="M808.473,-48C817.339,-48 825.922,-48 833.658,-48"/>
<polygon fill="midnightblue" stroke="midnightblue" points="808.374,-44.5001 798.374,-48 808.374,-51.5001 808.374,-44.5001"/>
</g>
<!-- Node6 -->
<g id="node6" class="node"><title>Node6</title>
<g id="a_node6"><a xlink:href="main_8cxx.html#af582d708d899e67ead623eac34a22387" target="_top" xlink:title="protected_main">
<polygon fill="none" stroke="black" points="938,-19.5 938,-38.5 1030,-38.5 1030,-19.5 938,-19.5"/>
<text text-anchor="middle" x="984" y="-26.5" font-family="Helvetica,sans-Serif" font-size="10.00">protected_main</text>
</a>
</g>
</g>
<!-- Node5&#45;&gt;Node6 -->
<g id="edge5" class="edge"><title>Node5&#45;&gt;Node6</title>
<path fill="none" stroke="midnightblue" d="M912.165,-40.8058C920.482,-39.4197 929.216,-37.9639 937.601,-36.5665"/>
<polygon fill="midnightblue" stroke="midnightblue" points="911.568,-37.3569 902.28,-42.4533 912.719,-44.2616 911.568,-37.3569"/>
</g>
<!-- Node7 -->
<g id="node7" class="node"><title>Node7</title>
<g id="a_node7"><a xlink:href="main_8cxx.html#a3c04138a5bfe5d72780bb7e82a18e627" target="_top" xlink:title="main">
<polygon fill="none" stroke="black" points="1066,-19.5 1066,-38.5 1107,-38.5 1107,-19.5 1066,-19.5"/>
<text text-anchor="middle" x="1086.5" y="-26.5" font-family="Helvetica,sans-Serif" font-size="10.00">main</text>
</a>
</g>
</g>
<!-- Node6&#45;&gt;Node7 -->
<g id="edge6" class="edge"><title>Node6&#45;&gt;Node7</title>
<path fill="none" stroke="midnightblue" d="M1040.54,-29C1049.62,-29 1058.47,-29 1065.88,-29"/>
<polygon fill="midnightblue" stroke="midnightblue" points="1040.25,-25.5001 1030.25,-29 1040.25,-32.5001 1040.25,-25.5001"/>
</g>
<!-- Node9 -->
<g id="node9" class="node"><title>Node9</title>
<g id="a_node9"><a xlink:href="classUIManager.html#aedd9d0577af515a852425dfe414b2968" target="_top" xlink:title="Parses the UiLayout.json files and creates UI Elements. ">
<polygon fill="none" stroke="black" points="677.5,-76.5 677.5,-95.5 766.5,-95.5 766.5,-76.5 677.5,-76.5"/>
<text text-anchor="middle" x="722" y="-83.5" font-family="Helvetica,sans-Serif" font-size="10.00">UIManager::init</text>
</a>
</g>
</g>
<!-- Node8&#45;&gt;Node9 -->
<g id="edge8" class="edge"><title>Node8&#45;&gt;Node9</title>
<path fill="none" stroke="midnightblue" d="M620.264,-86C640.329,-86 660.518,-86 677.498,-86"/>
<polygon fill="midnightblue" stroke="midnightblue" points="620.121,-82.5001 610.12,-86 620.12,-89.5001 620.121,-82.5001"/>
</g>
<!-- Node9&#45;&gt;Node5 -->
<g id="edge9" class="edge"><title>Node9&#45;&gt;Node5</title>
<path fill="none" stroke="midnightblue" d="M771.113,-73.9676C780.059,-71.686 789.32,-69.2944 798,-67 809.652,-63.9201 822.38,-60.4464 833.697,-57.3195"/>
<polygon fill="midnightblue" stroke="midnightblue" points="770.025,-70.6327 761.194,-76.4859 771.747,-77.4174 770.025,-70.6327"/>
</g>
<!-- Node10&#45;&gt;Node6 -->
<g id="edge11" class="edge"><title>Node10&#45;&gt;Node6</title>
<path fill="none" stroke="midnightblue" d="M584.575,-12.5075C677.963,-16.3732 854.974,-23.7005 937.949,-27.1352"/>
<polygon fill="midnightblue" stroke="midnightblue" points="584.57,-9.00436 574.434,-12.0877 584.281,-15.9984 584.57,-9.00436"/>
</g>
</g>
</svg>
