<?xml version="1.0" encoding="UTF-8" standalone="no"?>
<!DOCTYPE svg PUBLIC "-//W3C//DTD SVG 1.1//EN"
 "http://www.w3.org/Graphics/SVG/1.1/DTD/svg11.dtd">
<!-- Generated by graphviz version 2.38.0 (20140413.2041)
 -->
<!-- Title: Button Pages: 1 -->
<svg width="775pt" height="1127pt"
 viewBox="0.00 0.00 775.00 1127.00" xmlns="http://www.w3.org/2000/svg" xmlns:xlink="http://www.w3.org/1999/xlink">
<g id="graph0" class="graph" transform="scale(1 1) rotate(0) translate(4 1123)">
<title>Button</title>
<!-- Node1 -->
<g id="node1" class="node"><title>Node1</title>
<polygon fill="#bfbfbf" stroke="black" points="378,-0.5 378,-211.5 530,-211.5 530,-0.5 378,-0.5"/>
<text text-anchor="middle" x="454" y="-199.5" font-family="Helvetica,sans-Serif" font-size="10.00">Button</text>
<polyline fill="none" stroke="black" points="378,-192.5 530,-192.5 "/>
<text text-anchor="start" x="386" y="-180.5" font-family="Helvetica,sans-Serif" font-size="10.00">&#45; m_frameRect</text>
<text text-anchor="start" x="386" y="-169.5" font-family="Helvetica,sans-Serif" font-size="10.00">&#45; m_buttonLabel</text>
<text text-anchor="start" x="386" y="-158.5" font-family="Helvetica,sans-Serif" font-size="10.00">&#45; m_isMouseButtonDown</text>
<text text-anchor="start" x="386" y="-147.5" font-family="Helvetica,sans-Serif" font-size="10.00">&#45; m_drawFrame</text>
<text text-anchor="start" x="386" y="-136.5" font-family="Helvetica,sans-Serif" font-size="10.00">&#45; m_checkState</text>
<polyline fill="none" stroke="black" points="378,-129.5 530,-129.5 "/>
<text text-anchor="start" x="386" y="-117.5" font-family="Helvetica,sans-Serif" font-size="10.00">+ Button()</text>
<text text-anchor="start" x="386" y="-106.5" font-family="Helvetica,sans-Serif" font-size="10.00">+ ~Button()</text>
<text text-anchor="start" x="386" y="-95.5" font-family="Helvetica,sans-Serif" font-size="10.00">+ draw()</text>
<text text-anchor="start" x="386" y="-84.5" font-family="Helvetica,sans-Serif" font-size="10.00">+ setText()</text>
<text text-anchor="start" x="386" y="-73.5" font-family="Helvetica,sans-Serif" font-size="10.00">+ onMouseButtonUp()</text>
<text text-anchor="start" x="386" y="-62.5" font-family="Helvetica,sans-Serif" font-size="10.00">+ onMouseButtonDown()</text>
<text text-anchor="start" x="386" y="-51.5" font-family="Helvetica,sans-Serif" font-size="10.00">+ onMouseEnter()</text>
<text text-anchor="start" x="386" y="-40.5" font-family="Helvetica,sans-Serif" font-size="10.00">+ onMouseLeave()</text>
<text text-anchor="start" x="386" y="-29.5" font-family="Helvetica,sans-Serif" font-size="10.00">+ drawImageButtonFrame()</text>
<text text-anchor="start" x="386" y="-18.5" font-family="Helvetica,sans-Serif" font-size="10.00">+ registerCallbackFunction()</text>
<text text-anchor="start" x="386" y="-7.5" font-family="Helvetica,sans-Serif" font-size="10.00">and 6 more...</text>
</g>
<!-- Node2 -->
<g id="node2" class="node"><title>Node2</title>
<g id="a_node2"><a xlink:href="classUIElement.html" target="_top" xlink:title="Base class for UI Elements Provides functions and variables for derived user interface elements...">
<polygon fill="none" stroke="black" points="615,-259.5 615,-558.5 767,-558.5 767,-259.5 615,-259.5"/>
<text text-anchor="middle" x="691" y="-546.5" font-family="Helvetica,sans-Serif" font-size="10.00">UIElement</text>
<polyline fill="none" stroke="black" points="615,-539.5 767,-539.5 "/>
<text text-anchor="start" x="623" y="-527.5" font-family="Helvetica,sans-Serif" font-size="10.00"># m_texture</text>
<text text-anchor="start" x="623" y="-516.5" font-family="Helvetica,sans-Serif" font-size="10.00"># m_uiElementRect</text>
<text text-anchor="start" x="623" y="-505.5" font-family="Helvetica,sans-Serif" font-size="10.00">&#45; m_renderer</text>
<text text-anchor="start" x="623" y="-494.5" font-family="Helvetica,sans-Serif" font-size="10.00">&#45; m_window</text>
<text text-anchor="start" x="623" y="-483.5" font-family="Helvetica,sans-Serif" font-size="10.00">&#45; m_buttonState</text>
<text text-anchor="start" x="623" y="-472.5" font-family="Helvetica,sans-Serif" font-size="10.00">&#45; m_visible</text>
<polyline fill="none" stroke="black" points="615,-465.5 767,-465.5 "/>
<text text-anchor="start" x="623" y="-453.5" font-family="Helvetica,sans-Serif" font-size="10.00">+ UIElement()</text>
<text text-anchor="start" x="623" y="-442.5" font-family="Helvetica,sans-Serif" font-size="10.00">+ UIElement()</text>
<text text-anchor="start" x="623" y="-431.5" font-family="Helvetica,sans-Serif" font-size="10.00">+ ~UIElement()</text>
<text text-anchor="start" x="623" y="-420.5" font-family="Helvetica,sans-Serif" font-size="10.00">+ registerCallbackFunction()</text>
<text text-anchor="start" x="623" y="-409.5" font-family="Helvetica,sans-Serif" font-size="10.00">+ registerCallbackFunction()</text>
<text text-anchor="start" x="623" y="-398.5" font-family="Helvetica,sans-Serif" font-size="10.00">+ registerCallbackFunction()</text>
<text text-anchor="start" x="623" y="-387.5" font-family="Helvetica,sans-Serif" font-size="10.00">+ onMouseButtonUp()</text>
<text text-anchor="start" x="623" y="-376.5" font-family="Helvetica,sans-Serif" font-size="10.00">+ onMouseButtonDown()</text>
<text text-anchor="start" x="623" y="-365.5" font-family="Helvetica,sans-Serif" font-size="10.00">+ onMouseEnter()</text>
<text text-anchor="start" x="623" y="-354.5" font-family="Helvetica,sans-Serif" font-size="10.00">+ onMouseLeave()</text>
<text text-anchor="start" x="623" y="-343.5" font-family="Helvetica,sans-Serif" font-size="10.00">and 23 more...</text>
<text text-anchor="start" x="623" y="-332.5" font-family="Helvetica,sans-Serif" font-size="10.00"># renderTexture()</text>
<text text-anchor="start" x="623" y="-321.5" font-family="Helvetica,sans-Serif" font-size="10.00"># drawSolidRect()</text>
<text text-anchor="start" x="623" y="-310.5" font-family="Helvetica,sans-Serif" font-size="10.00"># drawLine()</text>
<text text-anchor="start" x="623" y="-299.5" font-family="Helvetica,sans-Serif" font-size="10.00"># drawTextFrame()</text>
<text text-anchor="start" x="623" y="-288.5" font-family="Helvetica,sans-Serif" font-size="10.00"># drawButtonFrame()</text>
<text text-anchor="start" x="623" y="-277.5" font-family="Helvetica,sans-Serif" font-size="10.00"># drawFrame()</text>
<text text-anchor="start" x="623" y="-266.5" font-family="Helvetica,sans-Serif" font-size="10.00"># changeTexture()</text>
</a>
</g>
</g>
<!-- Node2&#45;&gt;Node1 -->
<g id="edge1" class="edge"><title>Node2&#45;&gt;Node1</title>
<path fill="none" stroke="midnightblue" d="M608.786,-262.695C607.86,-261.453 606.932,-260.221 606,-259 583.584,-229.63 555.774,-200.245 530.094,-175.247"/>
<polygon fill="none" stroke="midnightblue" points="606.134,-264.999 614.842,-271.034 611.797,-260.886 606.134,-264.999"/>
</g>
<!-- Node3 -->
<g id="node3" class="node"><title>Node3</title>
<g id="a_node3"><a xlink:href="structUIElement_1_1ElementData.html" target="_top" xlink:title="{UIElement::ElementData\n|+ elementID\l+ text\l+ tooltipText\l+ actionID\l+ actionParameter\l+ textureID\l+ buildMenuID\l+ layoutGroupName\l+ isToggleButton\l|}">
<polygon fill="none" stroke="black" points="600.5,-33.5 600.5,-178.5 735.5,-178.5 735.5,-33.5 600.5,-33.5"/>
<text text-anchor="middle" x="668" y="-166.5" font-family="Helvetica,sans-Serif" font-size="10.00">UIElement::ElementData</text>
<polyline fill="none" stroke="black" points="600.5,-159.5 735.5,-159.5 "/>
<text text-anchor="start" x="608.5" y="-147.5" font-family="Helvetica,sans-Serif" font-size="10.00">+ elementID</text>
<text text-anchor="start" x="608.5" y="-136.5" font-family="Helvetica,sans-Serif" font-size="10.00">+ text</text>
<text text-anchor="start" x="608.5" y="-125.5" font-family="Helvetica,sans-Serif" font-size="10.00">+ tooltipText</text>
<text text-anchor="start" x="608.5" y="-114.5" font-family="Helvetica,sans-Serif" font-size="10.00">+ actionID</text>
<text text-anchor="start" x="608.5" y="-103.5" font-family="Helvetica,sans-Serif" font-size="10.00">+ actionParameter</text>
<text text-anchor="start" x="608.5" y="-92.5" font-family="Helvetica,sans-Serif" font-size="10.00">+ textureID</text>
<text text-anchor="start" x="608.5" y="-81.5" font-family="Helvetica,sans-Serif" font-size="10.00">+ buildMenuID</text>
<text text-anchor="start" x="608.5" y="-70.5" font-family="Helvetica,sans-Serif" font-size="10.00">+ layoutGroupName</text>
<text text-anchor="start" x="608.5" y="-59.5" font-family="Helvetica,sans-Serif" font-size="10.00">+ isToggleButton</text>
<polyline fill="none" stroke="black" points="600.5,-52.5 735.5,-52.5 "/>
<text text-anchor="middle" x="668" y="-40.5" font-family="Helvetica,sans-Serif" font-size="10.00"> </text>
</a>
</g>
</g>
<!-- Node2&#45;&gt;Node3 -->
<g id="edge3" class="edge"><title>Node2&#45;&gt;Node3</title>
<path fill="none" stroke="#404040" d="M631.001,-259.365C630.363,-249.515 630.614,-239.668 632,-230 633.849,-217.1 636.736,-203.664 640.09,-190.613"/>
<polygon fill="none" stroke="#404040" points="640.161,-190.349 637.861,-183.514 643.285,-178.762 645.585,-185.597 640.161,-190.349"/>
<text text-anchor="middle" x="653.5" y="-233" font-family="Helvetica,sans-Serif" font-size="10.00"> +parent</text>
</g>
<!-- Node3&#45;&gt;Node2 -->
<g id="edge2" class="edge"><title>Node3&#45;&gt;Node2</title>
<path fill="none" stroke="#404040" d="M674.663,-178.522C676.161,-195.397 677.693,-213.328 679,-230 679.446,-235.684 679.889,-241.47 680.329,-247.315"/>
<polygon fill="none" stroke="#404040" points="680.336,-247.414 684.769,-253.101 681.225,-259.381 676.791,-253.694 680.336,-247.414"/>
<text text-anchor="middle" x="717.5" y="-233" font-family="Helvetica,sans-Serif" font-size="10.00"> #elementData</text>
</g>
<!-- Node4 -->
<g id="node4" class="node"><title>Node4</title>
<g id="a_node4"><a xlink:href="structSignal_1_1Signal.html" target="_top" xlink:title="{Signal::Signal\&lt; void\l(UIElement *sender)\&gt;\n||+ Signal()\l}">
<polygon fill="none" stroke="black" points="164.5,-375 164.5,-443 287.5,-443 287.5,-375 164.5,-375"/>
<text text-anchor="start" x="172.5" y="-431" font-family="Helvetica,sans-Serif" font-size="10.00">Signal::Signal&lt; void</text>
<text text-anchor="middle" x="226" y="-420" font-family="Helvetica,sans-Serif" font-size="10.00">(UIElement *sender)&gt;</text>
<polyline fill="none" stroke="black" points="164.5,-413 287.5,-413 "/>
<text text-anchor="middle" x="226" y="-401" font-family="Helvetica,sans-Serif" font-size="10.00"> </text>
<polyline fill="none" stroke="black" points="164.5,-394 287.5,-394 "/>
<text text-anchor="start" x="172.5" y="-382" font-family="Helvetica,sans-Serif" font-size="10.00">+ Signal()</text>
</a>
</g>
</g>
<!-- Node4&#45;&gt;Node1 -->
<g id="edge4" class="edge"><title>Node4&#45;&gt;Node1</title>
<path fill="none" stroke="#404040" d="M238.913,-374.769C254.372,-337.381 282.658,-275.887 318,-230 332.857,-210.709 350.977,-191.966 369.082,-175.166"/>
<polygon fill="none" stroke="#404040" points="369.086,-175.163 370.826,-168.165 377.955,-167.08 376.215,-174.078 369.086,-175.163"/>
<text text-anchor="middle" x="363.5" y="-233" font-family="Helvetica,sans-Serif" font-size="10.00"> &#45;clickSignalSender</text>
</g>
<!-- Node5 -->
<g id="node5" class="node"><title>Node5</title>
<g id="a_node5"><a xlink:href="classSignal_1_1Lib_1_1ProtoSignal.html" target="_top" xlink:title="{Signal::Lib::ProtoSignal\l\&lt; void(UIElement *sender)\l, Lib::CollectorDefault\&lt;\l typename std::function\&lt; void\l(UIElement *sender) \&gt;::result_type \&gt; \&gt;\n||}">
<polygon fill="none" stroke="black" points="0,-737.5 0,-838.5 208,-838.5 208,-737.5 0,-737.5"/>
<text text-anchor="start" x="8" y="-826.5" font-family="Helvetica,sans-Serif" font-size="10.00">Signal::Lib::ProtoSignal</text>
<text text-anchor="start" x="8" y="-815.5" font-family="Helvetica,sans-Serif" font-size="10.00">&lt; void(UIElement *sender)</text>
<text text-anchor="start" x="8" y="-804.5" font-family="Helvetica,sans-Serif" font-size="10.00">, Lib::CollectorDefault&lt;</text>
<text text-anchor="start" x="8" y="-793.5" font-family="Helvetica,sans-Serif" font-size="10.00"> typename std::function&lt; void</text>
<text text-anchor="middle" x="104" y="-782.5" font-family="Helvetica,sans-Serif" font-size="10.00">(UIElement *sender) &gt;::result_type &gt; &gt;</text>
<polyline fill="none" stroke="black" points="0,-775.5 208,-775.5 "/>
<text text-anchor="middle" x="104" y="-763.5" font-family="Helvetica,sans-Serif" font-size="10.00"> </text>
<polyline fill="none" stroke="black" points="0,-756.5 208,-756.5 "/>
<text text-anchor="middle" x="104" y="-744.5" font-family="Helvetica,sans-Serif" font-size="10.00"> </text>
</a>
</g>
</g>
<!-- Node5&#45;&gt;Node4 -->
<g id="edge5" class="edge"><title>Node5&#45;&gt;Node4</title>
<path fill="none" stroke="midnightblue" d="M123.301,-727.356C149.302,-647.01 194.689,-506.757 215.287,-443.105"/>
<polygon fill="none" stroke="midnightblue" points="119.824,-726.734 120.075,-737.326 126.484,-728.89 119.824,-726.734"/>
</g>
<!-- Node6 -->
<g id="node6" class="node"><title>Node6</title>
<g id="a_node6"><a xlink:href="classSignal_1_1Lib_1_1ProtoSignal.html" target="_top" xlink:title="ProtoSignal is the template implementation for callback list. ">
<polygon fill="none" stroke="black" points="292.5,-1050.5 292.5,-1118.5 435.5,-1118.5 435.5,-1050.5 292.5,-1050.5"/>
<text text-anchor="start" x="300.5" y="-1106.5" font-family="Helvetica,sans-Serif" font-size="10.00">Signal::Lib::ProtoSignal</text>
<text text-anchor="middle" x="364" y="-1095.5" font-family="Helvetica,sans-Serif" font-size="10.00">&lt; typename, typename &gt;</text>
<polyline fill="none" stroke="black" points="292.5,-1088.5 435.5,-1088.5 "/>
<text text-anchor="middle" x="364" y="-1076.5" font-family="Helvetica,sans-Serif" font-size="10.00"> </text>
<polyline fill="none" stroke="black" points="292.5,-1069.5 435.5,-1069.5 "/>
<text text-anchor="middle" x="364" y="-1057.5" font-family="Helvetica,sans-Serif" font-size="10.00"> </text>
</a>
</g>
</g>
<!-- Node6&#45;&gt;Node5 -->
<g id="edge6" class="edge"><title>Node6&#45;&gt;Node5</title>
<path fill="none" stroke="orange" d="M282.366,-1076.42C220.91,-1069.27 143.825,-1055.78 123,-1032 76.8658,-979.309 82.4408,-893.186 92.148,-838.879"/>
<polygon fill="orange" stroke="orange" points="282.143,-1079.92 292.472,-1077.56 282.925,-1072.96 282.143,-1079.92"/>
<text text-anchor="start" x="123" y="-1013" font-family="Helvetica,sans-Serif" font-size="10.00"> &lt; void(UIElement *sender)</text>
<text text-anchor="start" x="123" y="-1002" font-family="Helvetica,sans-Serif" font-size="10.00">, Lib::CollectorDefault</text>
<text text-anchor="start" x="123" y="-991" font-family="Helvetica,sans-Serif" font-size="10.00">&lt; typename std::function</text>
<text text-anchor="start" x="123" y="-980" font-family="Helvetica,sans-Serif" font-size="10.00">&lt; void(UIElement *sender)</text>
<text text-anchor="middle" x="189.5" y="-969" font-family="Helvetica,sans-Serif" font-size="10.00"> &gt;::result_type &gt; &gt;</text>
</g>
<!-- Node8 -->
<g id="node8" class="node"><title>Node8</title>
<g id="a_node8"><a xlink:href="classSignal_1_1Lib_1_1ProtoSignal.html" target="_top" xlink:title="{Signal::Lib::ProtoSignal\l\&lt; SignalSignature, Collector \&gt;\n||}">
<polygon fill="none" stroke="black" points="345.5,-868.5 345.5,-936.5 508.5,-936.5 508.5,-868.5 345.5,-868.5"/>
<text text-anchor="start" x="353.5" y="-924.5" font-family="Helvetica,sans-Serif" font-size="10.00">Signal::Lib::ProtoSignal</text>
<text text-anchor="middle" x="427" y="-913.5" font-family="Helvetica,sans-Serif" font-size="10.00">&lt; SignalSignature, Collector &gt;</text>
<polyline fill="none" stroke="black" points="345.5,-906.5 508.5,-906.5 "/>
<text text-anchor="middle" x="427" y="-894.5" font-family="Helvetica,sans-Serif" font-size="10.00"> </text>
<polyline fill="none" stroke="black" points="345.5,-887.5 508.5,-887.5 "/>
<text text-anchor="middle" x="427" y="-875.5" font-family="Helvetica,sans-Serif" font-size="10.00"> </text>
</a>
</g>
</g>
<!-- Node6&#45;&gt;Node8 -->
<g id="edge9" class="edge"><title>Node6&#45;&gt;Node8</title>
<path fill="none" stroke="orange" d="M418.772,-1042.39C421.167,-1039.1 423.279,-1035.63 425,-1032 439.191,-1002.06 437.591,-963.616 433.745,-936.608"/>
<polygon fill="orange" stroke="orange" points="415.971,-1040.29 412.304,-1050.23 421.37,-1044.75 415.971,-1040.29"/>
<text text-anchor="start" x="437" y="-996.5" font-family="Helvetica,sans-Serif" font-size="10.00"> &lt; SignalSignature,</text>
<text text-anchor="middle" x="484" y="-985.5" font-family="Helvetica,sans-Serif" font-size="10.00"> Collector &gt;</text>
</g>
<!-- Node10 -->
<g id="node10" class="node"><title>Node10</title>
<g id="a_node10"><a xlink:href="classSignal_1_1Lib_1_1ProtoSignal.html" target="_top" xlink:title="{Signal::Lib::ProtoSignal\l\&lt; void(const std::string\l &amp;, UIElement *sender), Lib\l::CollectorDefault\&lt; typename\l std::function\&lt; void(const std\l::string &amp;, UIElement *sender)\l \&gt;::result_type \&gt; \&gt;\n||}">
<polygon fill="none" stroke="black" points="213.5,-726.5 213.5,-849.5 374.5,-849.5 374.5,-726.5 213.5,-726.5"/>
<text text-anchor="start" x="221.5" y="-837.5" font-family="Helvetica,sans-Serif" font-size="10.00">Signal::Lib::ProtoSignal</text>
<text text-anchor="start" x="221.5" y="-826.5" font-family="Helvetica,sans-Serif" font-size="10.00">&lt; void(const std::string</text>
<text text-anchor="start" x="221.5" y="-815.5" font-family="Helvetica,sans-Serif" font-size="10.00"> &amp;, UIElement *sender), Lib</text>
<text text-anchor="start" x="221.5" y="-804.5" font-family="Helvetica,sans-Serif" font-size="10.00">::CollectorDefault&lt; typename</text>
<text text-anchor="start" x="221.5" y="-793.5" font-family="Helvetica,sans-Serif" font-size="10.00"> std::function&lt; void(const std</text>
<text text-anchor="start" x="221.5" y="-782.5" font-family="Helvetica,sans-Serif" font-size="10.00">::string &amp;, UIElement *sender)</text>
<text text-anchor="middle" x="294" y="-771.5" font-family="Helvetica,sans-Serif" font-size="10.00"> &gt;::result_type &gt; &gt;</text>
<polyline fill="none" stroke="black" points="213.5,-764.5 374.5,-764.5 "/>
<text text-anchor="middle" x="294" y="-752.5" font-family="Helvetica,sans-Serif" font-size="10.00"> </text>
<polyline fill="none" stroke="black" points="213.5,-745.5 374.5,-745.5 "/>
<text text-anchor="middle" x="294" y="-733.5" font-family="Helvetica,sans-Serif" font-size="10.00"> </text>
</a>
</g>
</g>
<!-- Node6&#45;&gt;Node10 -->
<g id="edge12" class="edge"><title>Node6&#45;&gt;Node10</title>
<path fill="none" stroke="orange" d="M286.987,-1043.18C283.954,-1039.72 281.252,-1036 279,-1032 247.57,-976.208 258.594,-901.347 272.831,-849.526"/>
<polygon fill="orange" stroke="orange" points="284.579,-1045.73 294.111,-1050.35 289.544,-1040.79 284.579,-1045.73"/>
<text text-anchor="start" x="279" y="-1024" font-family="Helvetica,sans-Serif" font-size="10.00"> &lt; void(const std::string</text>
<text text-anchor="start" x="279" y="-1013" font-family="Helvetica,sans-Serif" font-size="10.00"> &amp;, UIElement *sender),</text>
<text text-anchor="start" x="279" y="-1002" font-family="Helvetica,sans-Serif" font-size="10.00"> Lib::CollectorDefault&lt;</text>
<text text-anchor="start" x="279" y="-991" font-family="Helvetica,sans-Serif" font-size="10.00"> typename std::function&lt;</text>
<text text-anchor="start" x="279" y="-980" font-family="Helvetica,sans-Serif" font-size="10.00"> void(const std::string &amp;,</text>
<text text-anchor="start" x="279" y="-969" font-family="Helvetica,sans-Serif" font-size="10.00"> UIElement *sender) &gt;::result</text>
<text text-anchor="middle" x="350" y="-958" font-family="Helvetica,sans-Serif" font-size="10.00">_type &gt; &gt;</text>
</g>
<!-- Node12 -->
<g id="node12" class="node"><title>Node12</title>
<g id="a_node12"><a xlink:href="classSignal_1_1Lib_1_1ProtoSignal.html" target="_top" xlink:title="{Signal::Lib::ProtoSignal\l\&lt; void(), Lib::CollectorDefault\l\&lt; typename std::function\&lt; void\l() \&gt;::result_type \&gt; \&gt;\n||}">
<polygon fill="none" stroke="black" points="509,-617.5 509,-707.5 679,-707.5 679,-617.5 509,-617.5"/>
<text text-anchor="start" x="517" y="-695.5" font-family="Helvetica,sans-Serif" font-size="10.00">Signal::Lib::ProtoSignal</text>
<text text-anchor="start" x="517" y="-684.5" font-family="Helvetica,sans-Serif" font-size="10.00">&lt; void(), Lib::CollectorDefault</text>
<text text-anchor="start" x="517" y="-673.5" font-family="Helvetica,sans-Serif" font-size="10.00">&lt; typename std::function&lt; void</text>
<text text-anchor="middle" x="594" y="-662.5" font-family="Helvetica,sans-Serif" font-size="10.00">() &gt;::result_type &gt; &gt;</text>
<polyline fill="none" stroke="black" points="509,-655.5 679,-655.5 "/>
<text text-anchor="middle" x="594" y="-643.5" font-family="Helvetica,sans-Serif" font-size="10.00"> </text>
<polyline fill="none" stroke="black" points="509,-636.5 679,-636.5 "/>
<text text-anchor="middle" x="594" y="-624.5" font-family="Helvetica,sans-Serif" font-size="10.00"> </text>
</a>
</g>
</g>
<!-- Node6&#45;&gt;Node12 -->
<g id="edge16" class="edge"><title>Node6&#45;&gt;Node12</title>
<path fill="none" stroke="orange" d="M445.813,-1077.34C478.038,-1070.71 512.62,-1057.59 535,-1032 615.394,-940.062 609.384,-783.724 600.625,-707.672"/>
<polygon fill="orange" stroke="orange" points="445.088,-1073.92 435.904,-1079.2 446.378,-1080.8 445.088,-1073.92"/>
<text text-anchor="start" x="601" y="-916.5" font-family="Helvetica,sans-Serif" font-size="10.00"> &lt; void(), Lib::Collector</text>
<text text-anchor="start" x="601" y="-905.5" font-family="Helvetica,sans-Serif" font-size="10.00">Default&lt; typename std</text>
<text text-anchor="start" x="601" y="-894.5" font-family="Helvetica,sans-Serif" font-size="10.00">::function&lt; void() &gt;::result</text>
<text text-anchor="middle" x="664.5" y="-883.5" font-family="Helvetica,sans-Serif" font-size="10.00">_type &gt; &gt;</text>
</g>
<!-- Node7 -->
<g id="node7" class="node"><title>Node7</title>
<g id="a_node7"><a xlink:href="structSignal_1_1Signal.html" target="_top" xlink:title="Signal is a template type providing an interface for arbitrary callback lists. A signal type needs to...">
<polygon fill="none" stroke="black" points="309.5,-628.5 309.5,-696.5 480.5,-696.5 480.5,-628.5 309.5,-628.5"/>
<text text-anchor="start" x="317.5" y="-684.5" font-family="Helvetica,sans-Serif" font-size="10.00">Signal::Signal&lt; SignalSignature,</text>
<text text-anchor="middle" x="395" y="-673.5" font-family="Helvetica,sans-Serif" font-size="10.00"> Collector &gt;</text>
<polyline fill="none" stroke="black" points="309.5,-666.5 480.5,-666.5 "/>
<text text-anchor="middle" x="395" y="-654.5" font-family="Helvetica,sans-Serif" font-size="10.00"> </text>
<polyline fill="none" stroke="black" points="309.5,-647.5 480.5,-647.5 "/>
<text text-anchor="start" x="317.5" y="-635.5" font-family="Helvetica,sans-Serif" font-size="10.00">+ Signal()</text>
</a>
</g>
</g>
<!-- Node7&#45;&gt;Node4 -->
<g id="edge7" class="edge"><title>Node7&#45;&gt;Node4</title>
<path fill="none" stroke="orange" d="M299.994,-639.226C279.249,-630.047 259.49,-617.136 246,-599 212.228,-553.595 214.729,-484.203 220.06,-443.341"/>
<polygon fill="orange" stroke="orange" points="298.674,-642.467 309.252,-643.06 301.352,-636 298.674,-642.467"/>
<text text-anchor="middle" x="316.5" y="-585.5" font-family="Helvetica,sans-Serif" font-size="10.00"> &lt; void(UIElement *sender)&gt;</text>
</g>
<!-- Node9 -->
<g id="node9" class="node"><title>Node9</title>
<g id="a_node9"><a xlink:href="structSignal_1_1Signal.html" target="_top" xlink:title="{Signal::Signal\&lt; void\l(const std::string &amp;,\l UIElement *sender)\&gt;\n||+ Signal()\l}">
<polygon fill="none" stroke="black" points="329,-369.5 329,-448.5 451,-448.5 451,-369.5 329,-369.5"/>
<text text-anchor="start" x="337" y="-436.5" font-family="Helvetica,sans-Serif" font-size="10.00">Signal::Signal&lt; void</text>
<text text-anchor="start" x="337" y="-425.5" font-family="Helvetica,sans-Serif" font-size="10.00">(const std::string &amp;,</text>
<text text-anchor="middle" x="390" y="-414.5" font-family="Helvetica,sans-Serif" font-size="10.00"> UIElement *sender)&gt;</text>
<polyline fill="none" stroke="black" points="329,-407.5 451,-407.5 "/>
<text text-anchor="middle" x="390" y="-395.5" font-family="Helvetica,sans-Serif" font-size="10.00"> </text>
<polyline fill="none" stroke="black" points="329,-388.5 451,-388.5 "/>
<text text-anchor="start" x="337" y="-376.5" font-family="Helvetica,sans-Serif" font-size="10.00">+ Signal()</text>
</a>
</g>
</g>
<!-- Node7&#45;&gt;Node9 -->
<g id="edge13" class="edge"><title>Node7&#45;&gt;Node9</title>
<path fill="none" stroke="orange" d="M391.91,-618.397C391.54,-611.9 391.217,-605.275 391,-599 389.201,-547.023 389.246,-486.957 389.542,-448.744"/>
<polygon fill="orange" stroke="orange" points="388.419,-618.664 392.521,-628.433 395.406,-618.239 388.419,-618.664"/>
<text text-anchor="start" x="391" y="-591" font-family="Helvetica,sans-Serif" font-size="10.00"> &lt; void(const std::string</text>
<text text-anchor="middle" x="451.5" y="-580" font-family="Helvetica,sans-Serif" font-size="10.00"> &amp;, UIElement *sender)&gt;</text>
</g>
<!-- Node11 -->
<g id="node11" class="node"><title>Node11</title>
<g id="a_node11"><a xlink:href="structSignal_1_1Signal.html" target="_top" xlink:title="{Signal::Signal\&lt; void()\&gt;\n||+ Signal()\l}">
<polygon fill="none" stroke="black" points="469,-380.5 469,-437.5 597,-437.5 597,-380.5 469,-380.5"/>
<text text-anchor="middle" x="533" y="-425.5" font-family="Helvetica,sans-Serif" font-size="10.00">Signal::Signal&lt; void()&gt;</text>
<polyline fill="none" stroke="black" points="469,-418.5 597,-418.5 "/>
<text text-anchor="middle" x="533" y="-406.5" font-family="Helvetica,sans-Serif" font-size="10.00"> </text>
<polyline fill="none" stroke="black" points="469,-399.5 597,-399.5 "/>
<text text-anchor="start" x="477" y="-387.5" font-family="Helvetica,sans-Serif" font-size="10.00">+ Signal()</text>
</a>
</g>
</g>
<!-- Node7&#45;&gt;Node11 -->
<g id="edge17" class="edge"><title>Node7&#45;&gt;Node11</title>
<path fill="none" stroke="orange" d="M489.007,-622.829C497.862,-616.02 505.82,-608.123 512,-599 545.144,-550.074 542.205,-477.164 537.439,-437.731"/>
<polygon fill="orange" stroke="orange" points="486.764,-620.13 480.648,-628.781 490.824,-625.832 486.764,-620.13"/>
<text text-anchor="middle" x="548" y="-585.5" font-family="Helvetica,sans-Serif" font-size="10.00"> &lt; void()&gt;</text>
</g>
<!-- Node8&#45;&gt;Node7 -->
<g id="edge8" class="edge"><title>Node8&#45;&gt;Node7</title>
<path fill="none" stroke="midnightblue" d="M421.197,-858.339C414.947,-811.853 405.138,-738.899 399.463,-696.695"/>
<polygon fill="none" stroke="midnightblue" points="417.749,-858.963 422.551,-868.407 424.687,-858.03 417.749,-858.963"/>
</g>
<!-- Node9&#45;&gt;Node1 -->
<g id="edge10" class="edge"><title>Node9&#45;&gt;Node1</title>
<path fill="none" stroke="#404040" d="M393.529,-369.469C397.295,-333.186 404.22,-277.473 415,-230 415.49,-227.841 416.001,-225.665 416.529,-223.478"/>
<polygon fill="none" stroke="#404040" points="416.569,-223.321 414.164,-216.523 419.514,-211.688 421.919,-218.486 416.569,-223.321"/>
<text text-anchor="middle" x="457.5" y="-233" font-family="Helvetica,sans-Serif" font-size="10.00"> &#45;clickSignalString</text>
</g>
<!-- Node10&#45;&gt;Node9 -->
<g id="edge11" class="edge"><title>Node10&#45;&gt;Node9</title>
<path fill="none" stroke="midnightblue" d="M243.426,-717.552C218.139,-673.664 198.876,-617.749 230,-577 248.455,-552.837 271.56,-577.087 296,-559 333.861,-530.98 360.187,-482.752 375.155,-448.768"/>
<polygon fill="none" stroke="midnightblue" points="240.428,-719.358 248.55,-726.161 246.443,-715.778 240.428,-719.358"/>
</g>
<!-- Node11&#45;&gt;Node1 -->
<g id="edge14" class="edge"><title>Node11&#45;&gt;Node1</title>
<path fill="none" stroke="#404040" d="M529.383,-380.216C524.437,-344.9 514.492,-282.243 500,-230 499.372,-227.734 498.719,-225.452 498.046,-223.157"/>
<polygon fill="none" stroke="#404040" points="498.023,-223.083 492.444,-218.514 494.516,-211.607 500.095,-216.176 498.023,-223.083"/>
<text text-anchor="middle" x="531.5" y="-233" font-family="Helvetica,sans-Serif" font-size="10.00"> &#45;clickSignal</text>
</g>
<!-- Node12&#45;&gt;Node11 -->
<g id="edge15" class="edge"><title>Node12&#45;&gt;Node11</title>
<path fill="none" stroke="midnightblue" d="M589.828,-607.388C588.596,-597.236 587.017,-586.752 585,-577 574.635,-526.894 555.386,-470.398 543.439,-437.632"/>
<polygon fill="none" stroke="midnightblue" points="586.357,-607.841 590.948,-617.39 593.314,-607.063 586.357,-607.841"/>
</g>
</g>
</svg>
