<?xml version="1.0" encoding="UTF-8" standalone="no"?>
<!DOCTYPE svg PUBLIC "-//W3C//DTD SVG 1.1//EN"
 "http://www.w3.org/Graphics/SVG/1.1/DTD/svg11.dtd">
<!-- Generated by graphviz version 2.38.0 (20140413.2041)
 -->
<!-- Title: Engine::setTileIDOfNode Pages: 1 -->
<!--zoomable 266 -->
<svg id="main" version="1.1" xmlns="http://www.w3.org/2000/svg" xmlns:xlink="http://www.w3.org/1999/xlink" xml:space="preserve" onload="init(evt)">
<style type="text/css"><![CDATA[
.edge:hover path { stroke: red; }
.edge:hover polygon { stroke: red; fill: red; }
]]></style>
<script type="text/javascript"><![CDATA[
var edges = document.getElementsByTagName('g');
if (edges && edges.length) {
  for (var i=0;i<edges.length;i++) {
    if (edges[i].id.substr(0,4)=='edge') {
      edges[i].setAttribute('class','edge');
    }
  }
}
]]></script>
        <defs>
                <circle id="rim" cx="0" cy="0" r="7"/>
                <circle id="rim2" cx="0" cy="0" r="3.5"/>
                <g id="zoomPlus">
                        <use xlink:href="#rim" fill="#404040">
                                <set attributeName="fill" to="#808080" begin="zoomplus.mouseover" end="zoomplus.mouseout"/>
                        </use>
                        <path d="M-4,0h8M0,-4v8" fill="none" stroke="white" stroke-width="1.5" pointer-events="none"/>
                </g>
                <g id="zoomMin">
                        <use xlink:href="#rim" fill="#404040">
                                <set attributeName="fill" to="#808080" begin="zoomminus.mouseover" end="zoomminus.mouseout"/>
                        </use>
                        <path d="M-4,0h8" fill="none" stroke="white" stroke-width="1.5" pointer-events="none"/>
                </g>
                <g id="dirArrow">
                        <path fill="none" stroke="white" stroke-width="1.5" d="M0,-3.0v7 M-2.5,-0.5L0,-3.0L2.5,-0.5"/>
                </g>
               <g id="resetDef">
                       <use xlink:href="#rim2" fill="#404040">
                               <set attributeName="fill" to="#808080" begin="reset.mouseover" end="reset.mouseout"/>
                       </use>
               </g>
        </defs>

<script type="text/javascript">
var viewWidth = 819;
var viewHeight = 266;
var sectionId = 'dynsection-17';
</script>
<script xlink:href="svgpan.js"/>
<svg id="graph" class="graph">
<g id="viewport">
<title>Engine::setTileIDOfNode</title>
<!-- Node1 -->
<g id="node1" class="node"><title>Node1</title>
<polygon fill="#bfbfbf" stroke="black" points="0,-88 0,-107 131,-107 131,-88 0,-88"/>
<text text-anchor="middle" x="65.5" y="-95" font-family="Helvetica,sans-Serif" font-size="10.00">Engine::setTileIDOfNode</text>
</g>
<!-- Node2 -->
<g id="node2" class="node"><title>Node2</title>
<g id="a_node2"><a xlink:href="classMap.html#ad4c2c2f80eab02ca32a748a62a56da12" target="_top" xlink:title="Set the Tile ID Of Node object Also invokes all necessary texture updates (auto&#45;tiling, slopes, ...) ">
<polygon fill="none" stroke="black" points="167,-88 167,-107 286,-107 286,-88 167,-88"/>
<text text-anchor="middle" x="226.5" y="-95" font-family="Helvetica,sans-Serif" font-size="10.00">Map::setTileIDOfNode</text>
</a>
</g>
</g>
<!-- Node1&#45;&gt;Node2 -->
<g id="edge1" class="edge"><title>Node1&#45;&gt;Node2</title>
<path fill="none" stroke="midnightblue" d="M131.171,-97.5C139.545,-97.5 148.147,-97.5 156.586,-97.5"/>
<polygon fill="midnightblue" stroke="midnightblue" points="156.774,-101 166.774,-97.5 156.774,-94.0001 156.774,-101"/>
</g>
<!-- Node3 -->
<g id="node3" class="node"><title>Node3</title>
<g id="a_node3"><a xlink:href="classMap.html#a59d21f2688713fbcfe320eb1b24405ca" target="_top" xlink:title="Update mapNode and its adjacent tiles Updates mapNode height information, draws slopes for adjacent t...">
<polygon fill="none" stroke="black" points="322,-88 322,-107 483,-107 483,-88 322,-88"/>
<text text-anchor="middle" x="402.5" y="-95" font-family="Helvetica,sans-Serif" font-size="10.00">Map::updateNeighborsOfNode</text>
</a>
</g>
</g>
<!-- Node2&#45;&gt;Node3 -->
<g id="edge2" class="edge"><title>Node2&#45;&gt;Node3</title>
<path fill="none" stroke="midnightblue" d="M286.408,-97.5C294.629,-97.5 303.223,-97.5 311.853,-97.5"/>
<polygon fill="midnightblue" stroke="midnightblue" points="311.979,-101 321.979,-97.5 311.979,-94.0001 311.979,-101"/>
</g>
<!-- Node4 -->
<g id="node4" class="node"><title>Node4</title>
<g id="a_node4"><a xlink:href="classMap.html#a63f0e5040c86652c7239475f8ff3a45a" target="_top" xlink:title="Get neighbor MapNode Objects Stores pointers to the neighboring nodes of the given coordinates in the...">
<polygon fill="none" stroke="black" points="537,-238 537,-257 644,-257 644,-238 537,-238"/>
<text text-anchor="middle" x="590.5" y="-245" font-family="Helvetica,sans-Serif" font-size="10.00">Map::getNeighbors</text>
</a>
</g>
</g>
<!-- Node3&#45;&gt;Node4 -->
<g id="edge3" class="edge"><title>Node3&#45;&gt;Node4</title>
<path fill="none" stroke="midnightblue" d="M409.138,-107.122C423.897,-131.431 466.196,-195.709 519,-228.5 522.416,-230.621 526.067,-232.508 529.844,-234.187"/>
<polygon fill="midnightblue" stroke="midnightblue" points="528.838,-237.552 539.426,-237.945 531.394,-231.035 528.838,-237.552"/>
</g>
<!-- Node5 -->
<g id="node5" class="node"><title>Node5</title>
<g id="a_node5"><a xlink:href="classMap.html#a0ff55eb041cdf29aa582a21145319ce0" target="_top" xlink:title="Get elevated neighbor positions in a bitmask Checks all neighboring tiles and returns the elevated ne...">
<polygon fill="none" stroke="black" points="519,-188.5 519,-218.5 662,-218.5 662,-188.5 519,-188.5"/>
<text text-anchor="start" x="527" y="-206.5" font-family="Helvetica,sans-Serif" font-size="10.00">Map::getElevatedNeighbor</text>
<text text-anchor="middle" x="590.5" y="-195.5" font-family="Helvetica,sans-Serif" font-size="10.00">Bitmask</text>
</a>
</g>
</g>
<!-- Node3&#45;&gt;Node5 -->
<g id="edge4" class="edge"><title>Node3&#45;&gt;Node5</title>
<path fill="none" stroke="midnightblue" d="M416.532,-107.201C437.437,-122.499 480.075,-152.63 519,-173.5 526.006,-177.256 533.584,-180.894 541.084,-184.264"/>
<polygon fill="midnightblue" stroke="midnightblue" points="539.929,-187.578 550.494,-188.377 542.733,-181.165 539.929,-187.578"/>
</g>
<!-- Node6 -->
<g id="node6" class="node"><title>Node6</title>
<g id="a_node6"><a xlink:href="classMap.html#a05e7d896dc5062af07c9b838600a068d" target="_top" xlink:title="Demolish a node Invokes the tiles demolish function. ">
<polygon fill="none" stroke="black" points="698.5,-95 698.5,-114 810.5,-114 810.5,-95 698.5,-95"/>
<text text-anchor="middle" x="754.5" y="-102" font-family="Helvetica,sans-Serif" font-size="10.00">Map::demolishNode</text>
</a>
</g>
</g>
<!-- Node3&#45;&gt;Node6 -->
<g id="edge5" class="edge"><title>Node3&#45;&gt;Node6</title>
<path fill="none" stroke="midnightblue" d="M477.057,-107.029C490.907,-109.628 505.332,-112.038 519,-113.5 582.195,-120.261 598.744,-119.663 662,-113.5 670.455,-112.676 679.287,-111.434 687.988,-110.057"/>
<polygon fill="midnightblue" stroke="midnightblue" points="688.809,-113.469 698.11,-108.396 687.675,-106.562 688.809,-113.469"/>
</g>
<!-- Node7 -->
<g id="node7" class="node"><title>Node7</title>
<g id="a_node7"><a xlink:href="classMap.html#a392940f84796653b8e811ed8dc296c84" target="_top" xlink:title="Get a bitmask that represents same&#45;tile neighbors Checks all neighboring tiles and returns the elevat...">
<polygon fill="none" stroke="black" points="522,-82.5 522,-112.5 659,-112.5 659,-82.5 522,-82.5"/>
<text text-anchor="start" x="530" y="-100.5" font-family="Helvetica,sans-Serif" font-size="10.00">Map::getNeighboringTiles</text>
<text text-anchor="middle" x="590.5" y="-89.5" font-family="Helvetica,sans-Serif" font-size="10.00">Bitmask</text>
</a>
</g>
</g>
<!-- Node3&#45;&gt;Node7 -->
<g id="edge7" class="edge"><title>Node3&#45;&gt;Node7</title>
<path fill="none" stroke="midnightblue" d="M483.19,-97.5C492.676,-97.5 502.35,-97.5 511.807,-97.5"/>
<polygon fill="midnightblue" stroke="midnightblue" points="511.965,-101 521.965,-97.5 511.965,-94.0001 511.965,-101"/>
</g>
<!-- Node8 -->
<g id="node8" class="node"><title>Node8</title>
<g id="a_node8"><a xlink:href="classMap.html#aba5154a4d917900679a3c0f7ec701561" target="_top" xlink:title="Increase Height Increases the height of the node and checks the surrounding tiles. Either draw a slope sprite or elevate the tile if necessary. ">
<polygon fill="none" stroke="black" points="533,-6 533,-25 648,-25 648,-6 533,-6"/>
<text text-anchor="middle" x="590.5" y="-13" font-family="Helvetica,sans-Serif" font-size="10.00">Map::increaseHeight</text>
</a>
</g>
</g>
<!-- Node3&#45;&gt;Node8 -->
<g id="edge8" class="edge"><title>Node3&#45;&gt;Node8</title>
<path fill="none" stroke="midnightblue" d="M411.033,-87.9865C429.02,-71.9684 476.175,-42.6695 519,-25.5 520.397,-24.9398 521.816,-24.3908 523.253,-23.8538"/>
<polygon fill="midnightblue" stroke="midnightblue" points="524.625,-27.0825 532.926,-20.4982 522.331,-20.4691 524.625,-27.0825"/>
</g>
<!-- Node10 -->
<g id="node10" class="node"><title>Node10</title>
<g id="a_node10"><a xlink:href="classMap.html#afb8cc864df90d273a5074872d635dc40" target="_top" xlink:title="Decrease Height Decreases the height of the node and checks the surrounding tiles. Either draw a slope sprite or lower the tile if necessary. ">
<polygon fill="none" stroke="black" points="531,-44 531,-63 650,-63 650,-44 531,-44"/>
<text text-anchor="middle" x="590.5" y="-51" font-family="Helvetica,sans-Serif" font-size="10.00">Map::decreaseHeight</text>
</a>
</g>
</g>
<!-- Node3&#45;&gt;Node10 -->
<g id="edge12" class="edge"><title>Node3&#45;&gt;Node10</title>
<path fill="none" stroke="midnightblue" d="M424.837,-87.9587C448.199,-80.4688 486.871,-70.6388 520.868,-63.1958"/>
<polygon fill="midnightblue" stroke="midnightblue" points="521.739,-66.5888 530.78,-61.066 520.268,-59.745 521.739,-66.5888"/>
</g>
<!-- Node6&#45;&gt;Node3 -->
<g id="edge6" class="edge"><title>Node6&#45;&gt;Node3</title>
<path fill="none" stroke="midnightblue" d="M740.285,-114.066C722.603,-121.35 690.199,-128.753 662,-131.5 598.744,-137.663 582.195,-138.261 519,-131.5 486.449,-128.018 449.605,-119.164 426.465,-110.808"/>
<polygon fill="midnightblue" stroke="midnightblue" points="427.449,-107.434 416.862,-107.026 424.883,-113.947 427.449,-107.434"/>
</g>
<!-- Node8&#45;&gt;Node3 -->
<g id="edge11" class="edge"><title>Node8&#45;&gt;Node3</title>
<path fill="none" stroke="midnightblue" d="M575.406,-25.0313C560.944,-30.3484 537.943,-35.9054 519,-43.5 491.174,-54.6559 461.521,-70.9326 439.228,-82.934"/>
<polygon fill="midnightblue" stroke="midnightblue" points="437.319,-79.9859 430.151,-87.7883 440.62,-86.1586 437.319,-79.9859"/>
</g>
<!-- Node8&#45;&gt;Node6 -->
<g id="edge10" class="edge"><title>Node8&#45;&gt;Node6</title>
<path fill="none" stroke="midnightblue" d="M637.212,-25.0222C645.671,-27.5599 654.269,-30.6875 662,-34.5 690.365,-48.488 718.599,-71.9026 736.041,-87.7618"/>
<polygon fill="midnightblue" stroke="midnightblue" points="733.981,-90.6253 743.69,-94.8659 738.745,-85.4961 733.981,-90.6253"/>
</g>
<!-- Node9 -->
<g id="node9" class="node"><title>Node9</title>
<g id="a_node9"><a xlink:href="classSingleton.html#af5cb1e5749949e2b68416cfb8d378044" target="_top" xlink:title="Get an instance of the singleton. ">
<polygon fill="none" stroke="black" points="698,-0.5 698,-30.5 811,-30.5 811,-0.5 698,-0.5"/>
<text text-anchor="start" x="706" y="-18.5" font-family="Helvetica,sans-Serif" font-size="10.00">Singleton&lt; Settings</text>
<text text-anchor="middle" x="754.5" y="-7.5" font-family="Helvetica,sans-Serif" font-size="10.00"> &gt;::instance</text>
</a>
</g>
</g>
<!-- Node8&#45;&gt;Node9 -->
<g id="edge9" class="edge"><title>Node8&#45;&gt;Node9</title>
<path fill="none" stroke="midnightblue" d="M648.16,-15.5C660.903,-15.5 674.532,-15.5 687.616,-15.5"/>
<polygon fill="midnightblue" stroke="midnightblue" points="687.965,-19.0001 697.965,-15.5 687.965,-12.0001 687.965,-19.0001"/>
</g>
<!-- Node10&#45;&gt;Node3 -->
<g id="edge14" class="edge"><title>Node10&#45;&gt;Node3</title>
<path fill="none" stroke="midnightblue" d="M567.905,-63.1241C546.657,-69.9191 512.926,-78.6171 481.532,-85.7126"/>
<polygon fill="midnightblue" stroke="midnightblue" points="480.442,-82.3692 471.44,-87.9555 481.961,-89.2025 480.442,-82.3692"/>
</g>
<!-- Node10&#45;&gt;Node6 -->
<g id="edge13" class="edge"><title>Node10&#45;&gt;Node6</title>
<path fill="none" stroke="midnightblue" d="M626.386,-63.0222C637.775,-66.2307 650.459,-69.9104 662,-73.5 680.038,-79.1102 699.914,-85.7841 716.52,-91.4999"/>
<polygon fill="midnightblue" stroke="midnightblue" points="715.796,-94.9531 726.391,-94.9169 718.086,-88.3382 715.796,-94.9531"/>
</g>
</g>
</svg>
        <g id="navigator" transform="translate(0 0)" fill="#404254">
                <rect fill="#f2f5e9" fill-opacity="0.5" stroke="#606060" stroke-width=".5" x="0" y="0" width="60" height="60"/>
                <use id="zoomplus" xlink:href="#zoomPlus" x="17" y="9" onmousedown="handleZoom(evt,'in')"/>
                <use id="zoomminus" xlink:href="#zoomMin" x="42" y="9" onmousedown="handleZoom(evt,'out')"/>
                <use id="reset" xlink:href="#resetDef" x="30" y="36" onmousedown="handleReset()"/>
                <g id="arrowUp" xlink:href="#dirArrow" transform="translate(30 24)" onmousedown="handlePan(0,-1)">
                  <use xlink:href="#rim" fill="#404040">
                        <set attributeName="fill" to="#808080" begin="arrowUp.mouseover" end="arrowUp.mouseout"/>
                  </use>
                  <path fill="none" stroke="white" stroke-width="1.5" d="M0,-3.0v7 M-2.5,-0.5L0,-3.0L2.5,-0.5"/>
                </g>
                <g id="arrowRight" xlink:href="#dirArrow" transform="rotate(90) translate(36 -43)" onmousedown="handlePan(1,0)">
                  <use xlink:href="#rim" fill="#404040">
                        <set attributeName="fill" to="#808080" begin="arrowRight.mouseover" end="arrowRight.mouseout"/>
                  </use>
                  <path fill="none" stroke="white" stroke-width="1.5" d="M0,-3.0v7 M-2.5,-0.5L0,-3.0L2.5,-0.5"/>
                </g>
                <g id="arrowDown" xlink:href="#dirArrow" transform="rotate(180) translate(-30 -48)" onmousedown="handlePan(0,1)">
                  <use xlink:href="#rim" fill="#404040">
                        <set attributeName="fill" to="#808080" begin="arrowDown.mouseover" end="arrowDown.mouseout"/>
                  </use>
                  <path fill="none" stroke="white" stroke-width="1.5" d="M0,-3.0v7 M-2.5,-0.5L0,-3.0L2.5,-0.5"/>
                </g>
                <g id="arrowLeft" xlink:href="#dirArrow" transform="rotate(270) translate(-36 17)" onmousedown="handlePan(-1,0)">
                  <use xlink:href="#rim" fill="#404040">
                        <set attributeName="fill" to="#808080" begin="arrowLeft.mouseover" end="arrowLeft.mouseout"/>
                  </use>
                  <path fill="none" stroke="white" stroke-width="1.5" d="M0,-3.0v7 M-2.5,-0.5L0,-3.0L2.5,-0.5"/>
                </g>
        </g>
        <svg viewBox="0 0 15 15" width="100%" height="30px" preserveAspectRatio="xMaxYMin meet">
         <g id="arrow_out" transform="scale(0.3 0.3)">
          <a xlink:href="classEngine_a89f23eaccc126a355d287e1959b4556f_cgraph_org.svg" target="_base">
           <rect id="button" ry="5" rx="5" y="6" x="6" height="38" width="38"
                fill="#f2f5e9" fill-opacity="0.5" stroke="#606060" stroke-width="1.0"/>
           <path id="arrow"
             d="M 11.500037,31.436501 C 11.940474,20.09759 22.043105,11.32322 32.158766,21.979434 L 37.068811,17.246167 C 37.068811,17.246167 37.088388,32 37.088388,32 L 22.160133,31.978069 C 22.160133,31.978069 26.997745,27.140456 26.997745,27.140456 C 18.528582,18.264221 13.291696,25.230495 11.500037,31.436501 z"
             style="fill:#404040;"/>
          </a>
         </g>
        </svg>
</svg>
