<?xml version="1.0" encoding="UTF-8" standalone="no"?>
<!DOCTYPE svg PUBLIC "-//W3C//DTD SVG 1.1//EN"
 "http://www.w3.org/Graphics/SVG/1.1/DTD/svg11.dtd">
<!-- Generated by graphviz version 2.38.0 (20140413.2041)
 -->
<!-- Title: MapNode::setBitmask Pages: 1 -->
<svg width="489pt" height="137pt"
 viewBox="0.00 0.00 489.00 137.00" xmlns="http://www.w3.org/2000/svg" xmlns:xlink="http://www.w3.org/1999/xlink">
<g id="graph0" class="graph" transform="scale(1 1) rotate(0) translate(4 133)">
<title>MapNode::setBitmask</title>
<!-- Node1 -->
<g id="node1" class="node"><title>Node1</title>
<polygon fill="#bfbfbf" stroke="black" points="0,-55 0,-74 122,-74 122,-55 0,-55"/>
<text text-anchor="middle" x="61" y="-62" font-family="Helvetica,sans-Serif" font-size="10.00">MapNode::setBitmask</text>
</g>
<!-- Node2 -->
<g id="node2" class="node"><title>Node2</title>
<g id="a_node2"><a xlink:href="classMapNode.html#a0951fd739ee0a3e0263ef412596811dd" target="_top" xlink:title="MapNode::updateTexture">
<polygon fill="none" stroke="black" points="158,-55 158,-74 295,-74 295,-55 158,-55"/>
<text text-anchor="middle" x="226.5" y="-62" font-family="Helvetica,sans-Serif" font-size="10.00">MapNode::updateTexture</text>
</a>
</g>
</g>
<!-- Node1&#45;&gt;Node2 -->
<g id="edge1" class="edge"><title>Node1&#45;&gt;Node2</title>
<path fill="none" stroke="midnightblue" d="M122.417,-64.5C130.63,-64.5 139.152,-64.5 147.619,-64.5"/>
<polygon fill="midnightblue" stroke="midnightblue" points="147.895,-68.0001 157.895,-64.5 147.895,-61.0001 147.895,-68.0001"/>
</g>
<!-- Node3 -->
<g id="node3" class="node"><title>Node3</title>
<g id="a_node3"><a xlink:href="classSingleton.html#af5cb1e5749949e2b68416cfb8d378044" target="_top" xlink:title="Get an instance of the singleton. ">
<polygon fill="none" stroke="black" points="340.5,-98.5 340.5,-128.5 471.5,-128.5 471.5,-98.5 340.5,-98.5"/>
<text text-anchor="start" x="348.5" y="-116.5" font-family="Helvetica,sans-Serif" font-size="10.00">Singleton&lt; TileManager</text>
<text text-anchor="middle" x="406" y="-105.5" font-family="Helvetica,sans-Serif" font-size="10.00"> &gt;::instance</text>
</a>
</g>
</g>
<!-- Node2&#45;&gt;Node3 -->
<g id="edge2" class="edge"><title>Node2&#45;&gt;Node3</title>
<path fill="none" stroke="midnightblue" d="M262.145,-74.064C284.421,-80.2134 314.05,-88.3928 340.549,-95.7078"/>
<polygon fill="midnightblue" stroke="midnightblue" points="339.959,-99.1757 350.529,-98.463 341.821,-92.4281 339.959,-99.1757"/>
</g>
<!-- Node4 -->
<g id="node4" class="node"><title>Node4</title>
<g id="a_node4"><a xlink:href="classTileManager.html#a519b2d5c91877025a2faa0dff3ba099c" target="_top" xlink:title="TileManager::calculateSlope\lOrientation">
<polygon fill="none" stroke="black" points="331,-49.5 331,-79.5 481,-79.5 481,-49.5 331,-49.5"/>
<text text-anchor="start" x="339" y="-67.5" font-family="Helvetica,sans-Serif" font-size="10.00">TileManager::calculateSlope</text>
<text text-anchor="middle" x="406" y="-56.5" font-family="Helvetica,sans-Serif" font-size="10.00">Orientation</text>
</a>
</g>
</g>
<!-- Node2&#45;&gt;Node4 -->
<g id="edge3" class="edge"><title>Node2&#45;&gt;Node4</title>
<path fill="none" stroke="midnightblue" d="M295.111,-64.5C303.491,-64.5 312.138,-64.5 320.728,-64.5"/>
<polygon fill="midnightblue" stroke="midnightblue" points="320.768,-68.0001 330.768,-64.5 320.768,-61.0001 320.768,-68.0001"/>
</g>
<!-- Node5 -->
<g id="node5" class="node"><title>Node5</title>
<g id="a_node5"><a xlink:href="classTileManager.html#ae1ac0c18d79cc2e1de86416d07d1591b" target="_top" xlink:title="TileManager::calculateTile\lOrientation">
<polygon fill="none" stroke="black" points="336.5,-0.5 336.5,-30.5 475.5,-30.5 475.5,-0.5 336.5,-0.5"/>
<text text-anchor="start" x="344.5" y="-18.5" font-family="Helvetica,sans-Serif" font-size="10.00">TileManager::calculateTile</text>
<text text-anchor="middle" x="406" y="-7.5" font-family="Helvetica,sans-Serif" font-size="10.00">Orientation</text>
</a>
</g>
</g>
<!-- Node2&#45;&gt;Node5 -->
<g id="edge4" class="edge"><title>Node2&#45;&gt;Node5</title>
<path fill="none" stroke="midnightblue" d="M262.145,-54.936C284.421,-48.7866 314.05,-40.6072 340.549,-33.2922"/>
<polygon fill="midnightblue" stroke="midnightblue" points="341.821,-36.5719 350.529,-30.537 339.959,-29.8243 341.821,-36.5719"/>
</g>
</g>
</svg>
