<?xml version="1.0" encoding="UTF-8" standalone="no"?>
<!DOCTYPE svg PUBLIC "-//W3C//DTD SVG 1.1//EN"
 "http://www.w3.org/Graphics/SVG/1.1/DTD/svg11.dtd">
<!-- Generated by graphviz version 2.38.0 (20140413.2041)
 -->
<!-- Title: Checkbox::onMouseButtonDown Pages: 1 -->
<svg width="581pt" height="104pt"
 viewBox="0.00 0.00 581.00 104.00" xmlns="http://www.w3.org/2000/svg" xmlns:xlink="http://www.w3.org/1999/xlink">
<g id="graph0" class="graph" transform="scale(1 1) rotate(0) translate(4 100)">
<title>Checkbox::onMouseButtonDown</title>
<!-- Node1 -->
<g id="node1" class="node"><title>Node1</title>
<polygon fill="#bfbfbf" stroke="black" points="0,-38.5 0,-57.5 171,-57.5 171,-38.5 0,-38.5"/>
<text text-anchor="middle" x="85.5" y="-45.5" font-family="Helvetica,sans-Serif" font-size="10.00">Checkbox::onMouseButtonDown</text>
</g>
<!-- Node2 -->
<g id="node2" class="node"><title>Node2</title>
<g id="a_node2"><a xlink:href="classUIElement.html#aa7f624963eaeb31043d74219ee24386c" target="_top" xlink:title="Checks if the mouse cursor is over the current UI Element Check if the coordinates match the ones sto...">
<polygon fill="none" stroke="black" points="223,-76.5 223,-95.5 357,-95.5 357,-76.5 223,-76.5"/>
<text text-anchor="middle" x="290" y="-83.5" font-family="Helvetica,sans-Serif" font-size="10.00">UIElement::isMouseOver</text>
</a>
</g>
</g>
<!-- Node1&#45;&gt;Node2 -->
<g id="edge1" class="edge"><title>Node1&#45;&gt;Node2</title>
<path fill="none" stroke="midnightblue" d="M137.338,-57.54C164.9,-62.7122 199.155,-69.1401 228.131,-74.5778"/>
<polygon fill="midnightblue" stroke="midnightblue" points="227.667,-78.0516 238.141,-76.4561 228.958,-71.1717 227.667,-78.0516"/>
</g>
<!-- Node3 -->
<g id="node3" class="node"><title>Node3</title>
<g id="a_node3"><a xlink:href="classUIElement.html#ade4162d6216022e143c769369b64add7" target="_top" xlink:title="Set the button state Sets the mouse button pressed state. ">
<polygon fill="none" stroke="black" points="207,-38.5 207,-57.5 373,-57.5 373,-38.5 207,-38.5"/>
<text text-anchor="middle" x="290" y="-45.5" font-family="Helvetica,sans-Serif" font-size="10.00">UIElement::changeButtonState</text>
</a>
</g>
</g>
<!-- Node1&#45;&gt;Node3 -->
<g id="edge2" class="edge"><title>Node1&#45;&gt;Node3</title>
<path fill="none" stroke="midnightblue" d="M171.205,-48C179.603,-48 188.158,-48 196.629,-48"/>
<polygon fill="midnightblue" stroke="midnightblue" points="196.905,-51.5001 206.905,-48 196.905,-44.5001 196.905,-51.5001"/>
</g>
<!-- Node6 -->
<g id="node6" class="node"><title>Node6</title>
<g id="a_node6"><a xlink:href="classUIElement.html#a98725ac250168ebb2fa676dd481ff495" target="_top" xlink:title="Get the button state Get the current mouse button pressed state. ">
<polygon fill="none" stroke="black" points="217,-0.5 217,-19.5 363,-19.5 363,-0.5 217,-0.5"/>
<text text-anchor="middle" x="290" y="-7.5" font-family="Helvetica,sans-Serif" font-size="10.00">UIElement::getButtonState</text>
</a>
</g>
</g>
<!-- Node1&#45;&gt;Node6 -->
<g id="edge5" class="edge"><title>Node1&#45;&gt;Node6</title>
<path fill="none" stroke="midnightblue" d="M137.338,-38.46C164.9,-33.2878 199.155,-26.8599 228.131,-21.4222"/>
<polygon fill="midnightblue" stroke="midnightblue" points="228.958,-24.8283 238.141,-19.5439 227.667,-17.9484 228.958,-24.8283"/>
</g>
<!-- Node4 -->
<g id="node4" class="node"><title>Node4</title>
<g id="a_node4"><a xlink:href="classUIElement.html#afdf67550d4140097c7a328d4b22fc1fe" target="_top" xlink:title="UIElement::changeTexture">
<polygon fill="none" stroke="black" points="420,-60.5 420,-79.5 562,-79.5 562,-60.5 420,-60.5"/>
<text text-anchor="middle" x="491" y="-67.5" font-family="Helvetica,sans-Serif" font-size="10.00">UIElement::changeTexture</text>
</a>
</g>
</g>
<!-- Node3&#45;&gt;Node4 -->
<g id="edge3" class="edge"><title>Node3&#45;&gt;Node4</title>
<path fill="none" stroke="midnightblue" d="M373.09,-57.0753C385.218,-58.4161 397.703,-59.7963 409.792,-61.1328"/>
<polygon fill="midnightblue" stroke="midnightblue" points="409.514,-64.6233 419.838,-62.2434 410.283,-57.6657 409.514,-64.6233"/>
</g>
<!-- Node5 -->
<g id="node5" class="node"><title>Node5</title>
<g id="a_node5"><a xlink:href="classSingleton.html#af5cb1e5749949e2b68416cfb8d378044" target="_top" xlink:title="Get an instance of the singleton. ">
<polygon fill="none" stroke="black" points="409,-11 409,-41 573,-41 573,-11 409,-11"/>
<text text-anchor="start" x="417" y="-29" font-family="Helvetica,sans-Serif" font-size="10.00">Singleton&lt; ResourcesManager</text>
<text text-anchor="middle" x="491" y="-18" font-family="Helvetica,sans-Serif" font-size="10.00"> &gt;::instance</text>
</a>
</g>
</g>
<!-- Node3&#45;&gt;Node5 -->
<g id="edge4" class="edge"><title>Node3&#45;&gt;Node5</title>
<path fill="none" stroke="midnightblue" d="M373.09,-38.9247C381.555,-37.9889 390.193,-37.034 398.749,-36.088"/>
<polygon fill="midnightblue" stroke="midnightblue" points="399.186,-39.5612 408.741,-34.9834 398.417,-32.6036 399.186,-39.5612"/>
</g>
</g>
</svg>
