<?xml version="1.0" encoding="UTF-8" standalone="no"?>
<!DOCTYPE svg PUBLIC "-//W3C//DTD SVG 1.1//EN"
 "http://www.w3.org/Graphics/SVG/1.1/DTD/svg11.dtd">
<!-- Generated by graphviz version 2.38.0 (20140413.2041)
 -->
<!-- Title: UIManager::addToLayoutGroup Pages: 1 -->
<svg width="797pt" height="47pt"
 viewBox="0.00 0.00 797.00 47.00" xmlns="http://www.w3.org/2000/svg" xmlns:xlink="http://www.w3.org/1999/xlink">
<g id="graph0" class="graph" transform="scale(1 1) rotate(0) translate(4 43)">
<title>UIManager::addToLayoutGroup</title>
<!-- Node1 -->
<g id="node1" class="node"><title>Node1</title>
<polygon fill="#bfbfbf" stroke="black" points="0,-19.5 0,-38.5 164,-38.5 164,-19.5 0,-19.5"/>
<text text-anchor="middle" x="82" y="-26.5" font-family="Helvetica,sans-Serif" font-size="10.00">UIManager::addToLayoutGroup</text>
</g>
<!-- Node2 -->
<g id="node2" class="node"><title>Node2</title>
<g id="a_node2"><a xlink:href="classUIManager.html#aedd9d0577af515a852425dfe414b2968" target="_top" xlink:title="Parses the UiLayout.json files and creates UI Elements. ">
<polygon fill="none" stroke="black" points="391,-19.5 391,-38.5 480,-38.5 480,-19.5 391,-19.5"/>
<text text-anchor="middle" x="435.5" y="-26.5" font-family="Helvetica,sans-Serif" font-size="10.00">UIManager::init</text>
</a>
</g>
</g>
<!-- Node1&#45;&gt;Node2 -->
<g id="edge1" class="edge"><title>Node1&#45;&gt;Node2</title>
<path fill="none" stroke="midnightblue" d="M174.188,-29C243.879,-29 336.859,-29 390.757,-29"/>
<polygon fill="midnightblue" stroke="midnightblue" points="174.083,-25.5001 164.083,-29 174.083,-32.5001 174.083,-25.5001"/>
</g>
<!-- Node6 -->
<g id="node6" class="node"><title>Node6</title>
<g id="a_node6"><a xlink:href="classUIManager.html#aae7a89e9d50bb6192e4140e07bd5f94b" target="_top" xlink:title="UIManager::createBuildMenu">
<polygon fill="none" stroke="black" points="200,-0.5 200,-19.5 355,-19.5 355,-0.5 200,-0.5"/>
<text text-anchor="middle" x="277.5" y="-7.5" font-family="Helvetica,sans-Serif" font-size="10.00">UIManager::createBuildMenu</text>
</a>
</g>
</g>
<!-- Node1&#45;&gt;Node6 -->
<g id="edge5" class="edge"><title>Node1&#45;&gt;Node6</title>
<path fill="none" stroke="midnightblue" d="M174.227,-20.0423C182.788,-19.2017 191.407,-18.3554 199.814,-17.5299"/>
<polygon fill="midnightblue" stroke="midnightblue" points="173.83,-16.5643 164.22,-21.0249 174.515,-23.5308 173.83,-16.5643"/>
</g>
<!-- Node3 -->
<g id="node3" class="node"><title>Node3</title>
<g id="a_node3"><a xlink:href="classGame.html#a1c2ab25d5216b2f4b2fe41efd2c09114" target="_top" xlink:title="Game::run">
<polygon fill="none" stroke="black" points="516,-19.5 516,-38.5 584,-38.5 584,-19.5 516,-19.5"/>
<text text-anchor="middle" x="550" y="-26.5" font-family="Helvetica,sans-Serif" font-size="10.00">Game::run</text>
</a>
</g>
</g>
<!-- Node2&#45;&gt;Node3 -->
<g id="edge2" class="edge"><title>Node2&#45;&gt;Node3</title>
<path fill="none" stroke="midnightblue" d="M490.446,-29C499.145,-29 507.918,-29 515.931,-29"/>
<polygon fill="midnightblue" stroke="midnightblue" points="490.318,-25.5001 480.318,-29 490.318,-32.5001 490.318,-25.5001"/>
</g>
<!-- Node4 -->
<g id="node4" class="node"><title>Node4</title>
<g id="a_node4"><a xlink:href="main_8cxx.html#af582d708d899e67ead623eac34a22387" target="_top" xlink:title="protected_main">
<polygon fill="none" stroke="black" points="620,-19.5 620,-38.5 712,-38.5 712,-19.5 620,-19.5"/>
<text text-anchor="middle" x="666" y="-26.5" font-family="Helvetica,sans-Serif" font-size="10.00">protected_main</text>
</a>
</g>
</g>
<!-- Node3&#45;&gt;Node4 -->
<g id="edge3" class="edge"><title>Node3&#45;&gt;Node4</title>
<path fill="none" stroke="midnightblue" d="M594.44,-29C602.674,-29 611.308,-29 619.601,-29"/>
<polygon fill="midnightblue" stroke="midnightblue" points="594.28,-25.5001 584.28,-29 594.28,-32.5001 594.28,-25.5001"/>
</g>
<!-- Node5 -->
<g id="node5" class="node"><title>Node5</title>
<g id="a_node5"><a xlink:href="main_8cxx.html#a3c04138a5bfe5d72780bb7e82a18e627" target="_top" xlink:title="main">
<polygon fill="none" stroke="black" points="748,-19.5 748,-38.5 789,-38.5 789,-19.5 748,-19.5"/>
<text text-anchor="middle" x="768.5" y="-26.5" font-family="Helvetica,sans-Serif" font-size="10.00">main</text>
</a>
</g>
</g>
<!-- Node4&#45;&gt;Node5 -->
<g id="edge4" class="edge"><title>Node4&#45;&gt;Node5</title>
<path fill="none" stroke="midnightblue" d="M722.539,-29C731.619,-29 740.466,-29 747.877,-29"/>
<polygon fill="midnightblue" stroke="midnightblue" points="722.252,-25.5001 712.252,-29 722.252,-32.5001 722.252,-25.5001"/>
</g>
<!-- Node6&#45;&gt;Node2 -->
<g id="edge6" class="edge"><title>Node6&#45;&gt;Node2</title>
<path fill="none" stroke="midnightblue" d="M365.102,-20.5476C373.9,-21.6193 382.551,-22.6729 390.599,-23.6531"/>
<polygon fill="midnightblue" stroke="midnightblue" points="365.479,-17.0678 355.129,-19.333 364.632,-24.0164 365.479,-17.0678"/>
</g>
</g>
</svg>
