<?xml version="1.0" encoding="UTF-8" standalone="no"?>
<!DOCTYPE svg PUBLIC "-//W3C//DTD SVG 1.1//EN"
 "http://www.w3.org/Graphics/SVG/1.1/DTD/svg11.dtd">
<!-- Generated by graphviz version 2.38.0 (20140413.2041)
 -->
<!-- Title: Map::initMap Pages: 1 -->
<svg width="792pt" height="266pt"
 viewBox="0.00 0.00 792.00 265.50" xmlns="http://www.w3.org/2000/svg" xmlns:xlink="http://www.w3.org/1999/xlink">
<g id="graph0" class="graph" transform="scale(1 1) rotate(0) translate(4 261.5)">
<title>Map::initMap</title>
<!-- Node1 -->
<g id="node1" class="node"><title>Node1</title>
<polygon fill="#bfbfbf" stroke="black" points="0,-132 0,-151 77,-151 77,-132 0,-132"/>
<text text-anchor="middle" x="38.5" y="-139" font-family="Helvetica,sans-Serif" font-size="10.00">Map::initMap</text>
</g>
<!-- Node2 -->
<g id="node2" class="node"><title>Node2</title>
<g id="a_node2"><a xlink:href="classMapLayers.html#a54ce1eeef2a8998a728ac7074efe8787" target="_top" xlink:title="Enable Drawing Layer Enable Drawing Layer (use bitwise OR to add layer) ">
<polygon fill="none" stroke="black" points="119.5,-176 119.5,-195 252.5,-195 252.5,-176 119.5,-176"/>
<text text-anchor="middle" x="186" y="-183" font-family="Helvetica,sans-Serif" font-size="10.00">MapLayers::enableLayer</text>
</a>
</g>
</g>
<!-- Node1&#45;&gt;Node2 -->
<g id="edge1" class="edge"><title>Node1&#45;&gt;Node2</title>
<path fill="none" stroke="midnightblue" d="M66.2352,-151.095C80.1118,-155.948 97.3859,-161.791 113,-166.5 120.743,-168.836 129.002,-171.164 137.062,-173.35"/>
<polygon fill="midnightblue" stroke="midnightblue" points="136.182,-176.738 146.747,-175.936 137.988,-169.975 136.182,-176.738"/>
</g>
<!-- Node3 -->
<g id="node3" class="node"><title>Node3</title>
<g id="a_node3"><a xlink:href="classTerrainGenerator.html#adcc251757a1f3a06471a49f17886b8ce" target="_top" xlink:title="TerrainGenerator::generate\lTerrain">
<polygon fill="none" stroke="black" points="113,-126.5 113,-156.5 259,-156.5 259,-126.5 113,-126.5"/>
<text text-anchor="start" x="121" y="-144.5" font-family="Helvetica,sans-Serif" font-size="10.00">TerrainGenerator::generate</text>
<text text-anchor="middle" x="186" y="-133.5" font-family="Helvetica,sans-Serif" font-size="10.00">Terrain</text>
</a>
</g>
</g>
<!-- Node1&#45;&gt;Node3 -->
<g id="edge2" class="edge"><title>Node1&#45;&gt;Node3</title>
<path fill="none" stroke="midnightblue" d="M77.3486,-141.5C85.3016,-141.5 93.984,-141.5 102.856,-141.5"/>
<polygon fill="midnightblue" stroke="midnightblue" points="102.924,-145 112.924,-141.5 102.924,-138 102.924,-145"/>
</g>
<!-- Node5 -->
<g id="node5" class="node"><title>Node5</title>
<g id="a_node5"><a xlink:href="classMap.html#a481b37ba71ef0e51e836fc42805762dd" target="_top" xlink:title="Update all mapNodes Updates all mapNode and its adjacent tiles regarding height information, draws slopes for adjacent tiles and sets tiling for mapNode sprite if applicable. ">
<polygon fill="none" stroke="black" points="126.5,-88 126.5,-107 245.5,-107 245.5,-88 126.5,-88"/>
<text text-anchor="middle" x="186" y="-95" font-family="Helvetica,sans-Serif" font-size="10.00">Map::updateAllNodes</text>
</a>
</g>
</g>
<!-- Node1&#45;&gt;Node5 -->
<g id="edge4" class="edge"><title>Node1&#45;&gt;Node5</title>
<path fill="none" stroke="midnightblue" d="M67.6782,-131.973C81.3206,-127.444 97.9652,-122.04 113,-117.5 121.572,-114.911 130.756,-112.265 139.599,-109.779"/>
<polygon fill="midnightblue" stroke="midnightblue" points="140.692,-113.108 149.386,-107.054 138.814,-106.365 140.692,-113.108"/>
</g>
<!-- Node4 -->
<g id="node4" class="node"><title>Node4</title>
<g id="a_node4"><a xlink:href="classTerrainGenerator.html#ac94cfaeb9dc89453018399361da5174a" target="_top" xlink:title="TerrainGenerator::loadTerrain\lDataFromJSON">
<polygon fill="none" stroke="black" points="298,-126.5 298,-156.5 453,-156.5 453,-126.5 298,-126.5"/>
<text text-anchor="start" x="306" y="-144.5" font-family="Helvetica,sans-Serif" font-size="10.00">TerrainGenerator::loadTerrain</text>
<text text-anchor="middle" x="375.5" y="-133.5" font-family="Helvetica,sans-Serif" font-size="10.00">DataFromJSON</text>
</a>
</g>
</g>
<!-- Node3&#45;&gt;Node4 -->
<g id="edge3" class="edge"><title>Node3&#45;&gt;Node4</title>
<path fill="none" stroke="midnightblue" d="M259.224,-141.5C268.543,-141.5 278.161,-141.5 287.684,-141.5"/>
<polygon fill="midnightblue" stroke="midnightblue" points="287.96,-145 297.96,-141.5 287.96,-138 287.96,-145"/>
</g>
<!-- Node6 -->
<g id="node6" class="node"><title>Node6</title>
<g id="a_node6"><a xlink:href="classMap.html#a59d21f2688713fbcfe320eb1b24405ca" target="_top" xlink:title="Update mapNode and its adjacent tiles Updates mapNode height information, draws slopes for adjacent t...">
<polygon fill="none" stroke="black" points="295,-88 295,-107 456,-107 456,-88 295,-88"/>
<text text-anchor="middle" x="375.5" y="-95" font-family="Helvetica,sans-Serif" font-size="10.00">Map::updateNeighborsOfNode</text>
</a>
</g>
</g>
<!-- Node5&#45;&gt;Node6 -->
<g id="edge5" class="edge"><title>Node5&#45;&gt;Node6</title>
<path fill="none" stroke="midnightblue" d="M245.555,-97.5C257.97,-97.5 271.349,-97.5 284.625,-97.5"/>
<polygon fill="midnightblue" stroke="midnightblue" points="284.738,-101 294.738,-97.5 284.738,-94.0001 284.738,-101"/>
</g>
<!-- Node7 -->
<g id="node7" class="node"><title>Node7</title>
<g id="a_node7"><a xlink:href="classMap.html#a63f0e5040c86652c7239475f8ff3a45a" target="_top" xlink:title="Get neighbor MapNode Objects Stores pointers to the neighboring nodes of the given coordinates in the...">
<polygon fill="none" stroke="black" points="510,-238 510,-257 617,-257 617,-238 510,-238"/>
<text text-anchor="middle" x="563.5" y="-245" font-family="Helvetica,sans-Serif" font-size="10.00">Map::getNeighbors</text>
</a>
</g>
</g>
<!-- Node6&#45;&gt;Node7 -->
<g id="edge6" class="edge"><title>Node6&#45;&gt;Node7</title>
<path fill="none" stroke="midnightblue" d="M440.351,-107.132C446.076,-109.826 451.426,-113.223 456,-117.5 493.883,-152.921 454.415,-192.762 492,-228.5 494.605,-230.977 497.498,-233.139 500.584,-235.024"/>
<polygon fill="midnightblue" stroke="midnightblue" points="499.205,-238.249 509.708,-239.639 502.364,-232.002 499.205,-238.249"/>
</g>
<!-- Node8 -->
<g id="node8" class="node"><title>Node8</title>
<g id="a_node8"><a xlink:href="classMap.html#a0ff55eb041cdf29aa582a21145319ce0" target="_top" xlink:title="Get elevated neighbor positions in a bitmask Checks all neighboring tiles and returns the elevated ne...">
<polygon fill="none" stroke="black" points="492,-188.5 492,-218.5 635,-218.5 635,-188.5 492,-188.5"/>
<text text-anchor="start" x="500" y="-206.5" font-family="Helvetica,sans-Serif" font-size="10.00">Map::getElevatedNeighbor</text>
<text text-anchor="middle" x="563.5" y="-195.5" font-family="Helvetica,sans-Serif" font-size="10.00">Bitmask</text>
</a>
</g>
</g>
<!-- Node6&#45;&gt;Node8 -->
<g id="edge7" class="edge"><title>Node6&#45;&gt;Node8</title>
<path fill="none" stroke="midnightblue" d="M436.042,-107.134C443.141,-109.793 449.989,-113.182 456,-117.5 480.03,-134.763 469.387,-154.419 492,-173.5 496.494,-177.292 501.537,-180.669 506.807,-183.661"/>
<polygon fill="midnightblue" stroke="midnightblue" points="505.344,-186.844 515.833,-188.338 508.565,-180.629 505.344,-186.844"/>
</g>
<!-- Node9 -->
<g id="node9" class="node"><title>Node9</title>
<g id="a_node9"><a xlink:href="classMap.html#a05e7d896dc5062af07c9b838600a068d" target="_top" xlink:title="Demolish a node Invokes the tiles demolish function. ">
<polygon fill="none" stroke="black" points="671.5,-95 671.5,-114 783.5,-114 783.5,-95 671.5,-95"/>
<text text-anchor="middle" x="727.5" y="-102" font-family="Helvetica,sans-Serif" font-size="10.00">Map::demolishNode</text>
</a>
</g>
</g>
<!-- Node6&#45;&gt;Node9 -->
<g id="edge8" class="edge"><title>Node6&#45;&gt;Node9</title>
<path fill="none" stroke="midnightblue" d="M450.057,-107.029C463.907,-109.628 478.332,-112.038 492,-113.5 555.195,-120.261 571.744,-119.663 635,-113.5 643.455,-112.676 652.287,-111.434 660.988,-110.057"/>
<polygon fill="midnightblue" stroke="midnightblue" points="661.809,-113.469 671.11,-108.396 660.675,-106.562 661.809,-113.469"/>
</g>
<!-- Node10 -->
<g id="node10" class="node"><title>Node10</title>
<g id="a_node10"><a xlink:href="classMap.html#a392940f84796653b8e811ed8dc296c84" target="_top" xlink:title="Get a bitmask that represents same&#45;tile neighbors Checks all neighboring tiles and returns the elevat...">
<polygon fill="none" stroke="black" points="495,-82.5 495,-112.5 632,-112.5 632,-82.5 495,-82.5"/>
<text text-anchor="start" x="503" y="-100.5" font-family="Helvetica,sans-Serif" font-size="10.00">Map::getNeighboringTiles</text>
<text text-anchor="middle" x="563.5" y="-89.5" font-family="Helvetica,sans-Serif" font-size="10.00">Bitmask</text>
</a>
</g>
</g>
<!-- Node6&#45;&gt;Node10 -->
<g id="edge10" class="edge"><title>Node6&#45;&gt;Node10</title>
<path fill="none" stroke="midnightblue" d="M456.19,-97.5C465.676,-97.5 475.35,-97.5 484.807,-97.5"/>
<polygon fill="midnightblue" stroke="midnightblue" points="484.965,-101 494.965,-97.5 484.965,-94.0001 484.965,-101"/>
</g>
<!-- Node11 -->
<g id="node11" class="node"><title>Node11</title>
<g id="a_node11"><a xlink:href="classMap.html#aba5154a4d917900679a3c0f7ec701561" target="_top" xlink:title="Increase Height Increases the height of the node and checks the surrounding tiles. Either draw a slope sprite or elevate the tile if necessary. ">
<polygon fill="none" stroke="black" points="506,-6 506,-25 621,-25 621,-6 506,-6"/>
<text text-anchor="middle" x="563.5" y="-13" font-family="Helvetica,sans-Serif" font-size="10.00">Map::increaseHeight</text>
</a>
</g>
</g>
<!-- Node6&#45;&gt;Node11 -->
<g id="edge11" class="edge"><title>Node6&#45;&gt;Node11</title>
<path fill="none" stroke="midnightblue" d="M384.033,-87.9865C402.02,-71.9684 449.175,-42.6695 492,-25.5 493.397,-24.9398 494.816,-24.3908 496.253,-23.8538"/>
<polygon fill="midnightblue" stroke="midnightblue" points="497.625,-27.0825 505.926,-20.4982 495.331,-20.4691 497.625,-27.0825"/>
</g>
<!-- Node13 -->
<g id="node13" class="node"><title>Node13</title>
<g id="a_node13"><a xlink:href="classMap.html#afb8cc864df90d273a5074872d635dc40" target="_top" xlink:title="Decrease Height Decreases the height of the node and checks the surrounding tiles. Either draw a slope sprite or lower the tile if necessary. ">
<polygon fill="none" stroke="black" points="504,-44 504,-63 623,-63 623,-44 504,-44"/>
<text text-anchor="middle" x="563.5" y="-51" font-family="Helvetica,sans-Serif" font-size="10.00">Map::decreaseHeight</text>
</a>
</g>
</g>
<!-- Node6&#45;&gt;Node13 -->
<g id="edge15" class="edge"><title>Node6&#45;&gt;Node13</title>
<path fill="none" stroke="midnightblue" d="M397.837,-87.9587C421.199,-80.4688 459.871,-70.6388 493.868,-63.1958"/>
<polygon fill="midnightblue" stroke="midnightblue" points="494.739,-66.5888 503.78,-61.066 493.268,-59.745 494.739,-66.5888"/>
</g>
<!-- Node9&#45;&gt;Node6 -->
<g id="edge9" class="edge"><title>Node9&#45;&gt;Node6</title>
<path fill="none" stroke="midnightblue" d="M713.285,-114.066C695.603,-121.35 663.199,-128.753 635,-131.5 571.744,-137.663 555.195,-138.261 492,-131.5 459.449,-128.018 422.605,-119.164 399.465,-110.808"/>
<polygon fill="midnightblue" stroke="midnightblue" points="400.449,-107.434 389.862,-107.026 397.883,-113.947 400.449,-107.434"/>
</g>
<!-- Node11&#45;&gt;Node6 -->
<g id="edge14" class="edge"><title>Node11&#45;&gt;Node6</title>
<path fill="none" stroke="midnightblue" d="M548.406,-25.0313C533.944,-30.3484 510.943,-35.9054 492,-43.5 464.174,-54.6559 434.521,-70.9326 412.228,-82.934"/>
<polygon fill="midnightblue" stroke="midnightblue" points="410.319,-79.9859 403.151,-87.7883 413.62,-86.1586 410.319,-79.9859"/>
</g>
<!-- Node11&#45;&gt;Node9 -->
<g id="edge13" class="edge"><title>Node11&#45;&gt;Node9</title>
<path fill="none" stroke="midnightblue" d="M610.212,-25.0222C618.671,-27.5599 627.269,-30.6875 635,-34.5 663.365,-48.488 691.599,-71.9026 709.041,-87.7618"/>
<polygon fill="midnightblue" stroke="midnightblue" points="706.981,-90.6253 716.69,-94.8659 711.745,-85.4961 706.981,-90.6253"/>
</g>
<!-- Node12 -->
<g id="node12" class="node"><title>Node12</title>
<g id="a_node12"><a xlink:href="classSingleton.html#af5cb1e5749949e2b68416cfb8d378044" target="_top" xlink:title="Get an instance of the singleton. ">
<polygon fill="none" stroke="black" points="671,-0.5 671,-30.5 784,-30.5 784,-0.5 671,-0.5"/>
<text text-anchor="start" x="679" y="-18.5" font-family="Helvetica,sans-Serif" font-size="10.00">Singleton&lt; Settings</text>
<text text-anchor="middle" x="727.5" y="-7.5" font-family="Helvetica,sans-Serif" font-size="10.00"> &gt;::instance</text>
</a>
</g>
</g>
<!-- Node11&#45;&gt;Node12 -->
<g id="edge12" class="edge"><title>Node11&#45;&gt;Node12</title>
<path fill="none" stroke="midnightblue" d="M621.16,-15.5C633.903,-15.5 647.532,-15.5 660.616,-15.5"/>
<polygon fill="midnightblue" stroke="midnightblue" points="660.965,-19.0001 670.965,-15.5 660.965,-12.0001 660.965,-19.0001"/>
</g>
<!-- Node13&#45;&gt;Node6 -->
<g id="edge17" class="edge"><title>Node13&#45;&gt;Node6</title>
<path fill="none" stroke="midnightblue" d="M540.905,-63.1241C519.657,-69.9191 485.926,-78.6171 454.532,-85.7126"/>
<polygon fill="midnightblue" stroke="midnightblue" points="453.442,-82.3692 444.44,-87.9555 454.961,-89.2025 453.442,-82.3692"/>
</g>
<!-- Node13&#45;&gt;Node9 -->
<g id="edge16" class="edge"><title>Node13&#45;&gt;Node9</title>
<path fill="none" stroke="midnightblue" d="M599.386,-63.0222C610.775,-66.2307 623.459,-69.9104 635,-73.5 653.038,-79.1102 672.914,-85.7841 689.52,-91.4999"/>
<polygon fill="midnightblue" stroke="midnightblue" points="688.796,-94.9531 699.391,-94.9169 691.086,-88.3382 688.796,-94.9531"/>
</g>
</g>
</svg>
