<?xml version="1.0" encoding="UTF-8" standalone="no"?>
<!DOCTYPE svg PUBLIC "-//W3C//DTD SVG 1.1//EN"
 "http://www.w3.org/Graphics/SVG/1.1/DTD/svg11.dtd">
<!-- Generated by graphviz version 2.38.0 (20140413.2041)
 -->
<!-- Title: UIElement::getUiElementRect Pages: 1 -->
<svg width="1401pt" height="177pt"
 viewBox="0.00 0.00 1401.00 176.89" xmlns="http://www.w3.org/2000/svg" xmlns:xlink="http://www.w3.org/1999/xlink">
<g id="graph0" class="graph" transform="scale(1 1) rotate(0) translate(4 172.887)">
<title>UIElement::getUiElementRect</title>
<!-- Node1 -->
<g id="node1" class="node"><title>Node1</title>
<polygon fill="#bfbfbf" stroke="black" points="0,-38.5 0,-57.5 158,-57.5 158,-38.5 0,-38.5"/>
<text text-anchor="middle" x="79" y="-45.5" font-family="Helvetica,sans-Serif" font-size="10.00">UIElement::getUiElementRect</text>
</g>
<!-- Node2 -->
<g id="node2" class="node"><title>Node2</title>
<g id="a_node2"><a xlink:href="classLayout.html#ac2a5cc72ee1ff5d3ddf4861b3f28d58f" target="_top" xlink:title="Arrange Elements that are aligned to a parent This is a seperate function, so it can recurse if a par...">
<polygon fill="none" stroke="black" points="194,-76.5 194,-95.5 355,-95.5 355,-76.5 194,-76.5"/>
<text text-anchor="middle" x="274.5" y="-83.5" font-family="Helvetica,sans-Serif" font-size="10.00">Layout::arrangeChildElements</text>
</a>
</g>
</g>
<!-- Node1&#45;&gt;Node2 -->
<g id="edge1" class="edge"><title>Node1&#45;&gt;Node2</title>
<path fill="none" stroke="midnightblue" d="M138.753,-59.5381C166.352,-64.958 198.855,-71.341 225.023,-76.4799"/>
<polygon fill="midnightblue" stroke="midnightblue" points="139.315,-56.0817 128.828,-57.589 137.966,-62.9505 139.315,-56.0817"/>
</g>
<!-- Node13 -->
<g id="node13" class="node"><title>Node13</title>
<g id="a_node13"><a xlink:href="classTextField.html#abe03b4b6ebf469645940cfa018bcdca2" target="_top" xlink:title="TextField::addText">
<polygon fill="none" stroke="black" points="225,-38.5 225,-57.5 324,-57.5 324,-38.5 225,-38.5"/>
<text text-anchor="middle" x="274.5" y="-45.5" font-family="Helvetica,sans-Serif" font-size="10.00">TextField::addText</text>
</a>
</g>
</g>
<!-- Node1&#45;&gt;Node13 -->
<g id="edge16" class="edge"><title>Node1&#45;&gt;Node13</title>
<path fill="none" stroke="midnightblue" d="M168.264,-48C187.726,-48 207.648,-48 224.85,-48"/>
<polygon fill="midnightblue" stroke="midnightblue" points="168.146,-44.5001 158.146,-48 168.146,-51.5001 168.146,-44.5001"/>
</g>
<!-- Node14 -->
<g id="node14" class="node"><title>Node14</title>
<g id="a_node14"><a xlink:href="classGame.html#a5ed7fc5be77080f7f6dd5363f7f007a1" target="_top" xlink:title="Game::mainMenu">
<polygon fill="none" stroke="black" points="408.5,-0.5 408.5,-19.5 510.5,-19.5 510.5,-0.5 408.5,-0.5"/>
<text text-anchor="middle" x="459.5" y="-7.5" font-family="Helvetica,sans-Serif" font-size="10.00">Game::mainMenu</text>
</a>
</g>
</g>
<!-- Node1&#45;&gt;Node14 -->
<g id="edge17" class="edge"><title>Node1&#45;&gt;Node14</title>
<path fill="none" stroke="midnightblue" d="M140.824,-36.782C157.974,-33.9134 176.678,-31.061 194,-29 268.288,-20.1607 354.84,-14.8875 408.153,-12.2148"/>
<polygon fill="midnightblue" stroke="midnightblue" points="140.199,-33.338 130.928,-38.467 141.374,-40.2387 140.199,-33.338"/>
</g>
<!-- Node3 -->
<g id="node3" class="node"><title>Node3</title>
<g id="a_node3"><a xlink:href="classLayout.html#afa734c5af10f59f3dadb066054fe81ab" target="_top" xlink:title="Arrange the layout elements. ">
<polygon fill="none" stroke="black" points="391,-76.5 391,-95.5 528,-95.5 528,-76.5 391,-76.5"/>
<text text-anchor="middle" x="459.5" y="-83.5" font-family="Helvetica,sans-Serif" font-size="10.00">Layout::arrangeElements</text>
</a>
</g>
</g>
<!-- Node2&#45;&gt;Node3 -->
<g id="edge2" class="edge"><title>Node2&#45;&gt;Node3</title>
<path fill="none" stroke="midnightblue" d="M365.276,-86C373.853,-86 382.45,-86 390.766,-86"/>
<polygon fill="midnightblue" stroke="midnightblue" points="365.234,-82.5001 355.234,-86 365.234,-89.5001 365.234,-82.5001"/>
</g>
<!-- Node4 -->
<g id="node4" class="node"><title>Node4</title>
<g id="a_node4"><a xlink:href="classUIManager.html#aedd9d0577af515a852425dfe414b2968" target="_top" xlink:title="Parses the UiLayout.json files and creates UI Elements. ">
<polygon fill="none" stroke="black" points="995,-60.5 995,-79.5 1084,-79.5 1084,-60.5 995,-60.5"/>
<text text-anchor="middle" x="1039.5" y="-67.5" font-family="Helvetica,sans-Serif" font-size="10.00">UIManager::init</text>
</a>
</g>
</g>
<!-- Node3&#45;&gt;Node4 -->
<g id="edge3" class="edge"><title>Node3&#45;&gt;Node4</title>
<path fill="none" stroke="midnightblue" d="M481.317,-101.624C501.315,-115.584 532.989,-135.025 564,-143 734.421,-186.824 792.314,-172.389 959,-116 984.377,-107.415 1010.68,-90.2874 1025.77,-79.5265"/>
<polygon fill="midnightblue" stroke="midnightblue" points="483.161,-98.6394 472.994,-95.6568 479.082,-104.328 483.161,-98.6394"/>
</g>
<!-- Node8 -->
<g id="node8" class="node"><title>Node8</title>
<g id="a_node8"><a xlink:href="classUIManager.html#a3ccb2fc669262f18ebdcdf3d5c43a3e8" target="_top" xlink:title="CallbackFunction that sets the Build Menu Position Used as callback function for the ComboBox that ho...">
<polygon fill="none" stroke="black" points="568.5,-114.5 568.5,-133.5 744.5,-133.5 744.5,-114.5 568.5,-114.5"/>
<text text-anchor="middle" x="656.5" y="-121.5" font-family="Helvetica,sans-Serif" font-size="10.00">UIManager::setBuildMenuPosition</text>
</a>
</g>
</g>
<!-- Node3&#45;&gt;Node8 -->
<g id="edge7" class="edge"><title>Node3&#45;&gt;Node8</title>
<path fill="none" stroke="midnightblue" d="M519.459,-97.4894C547.282,-102.911 580.096,-109.306 606.525,-114.456"/>
<polygon fill="midnightblue" stroke="midnightblue" points="519.94,-94.0174 509.455,-95.54 518.601,-100.888 519.94,-94.0174"/>
</g>
<!-- Node10 -->
<g id="node10" class="node"><title>Node10</title>
<g id="a_node10"><a xlink:href="classUIManager.html#ac927e1cd3dea979202ea9dbf1195b583" target="_top" xlink:title="UIManager::changeResolution">
<polygon fill="none" stroke="black" points="577.5,-38.5 577.5,-57.5 735.5,-57.5 735.5,-38.5 577.5,-38.5"/>
<text text-anchor="middle" x="656.5" y="-45.5" font-family="Helvetica,sans-Serif" font-size="10.00">UIManager::changeResolution</text>
</a>
</g>
</g>
<!-- Node3&#45;&gt;Node10 -->
<g id="edge10" class="edge"><title>Node3&#45;&gt;Node10</title>
<path fill="none" stroke="midnightblue" d="M519.459,-74.5106C547.282,-69.0886 580.096,-62.6942 606.525,-57.5439"/>
<polygon fill="midnightblue" stroke="midnightblue" points="518.601,-71.1118 509.455,-76.46 519.94,-77.9826 518.601,-71.1118"/>
</g>
<!-- Node12 -->
<g id="node12" class="node"><title>Node12</title>
<g id="a_node12"><a xlink:href="classUIManager.html#af2ffb4ee45e57152164643ef6cddda37" target="_top" xlink:title="UIManager::changeFullScreenMode">
<polygon fill="none" stroke="black" points="564,-76.5 564,-95.5 749,-95.5 749,-76.5 564,-76.5"/>
<text text-anchor="middle" x="656.5" y="-83.5" font-family="Helvetica,sans-Serif" font-size="10.00">UIManager::changeFullScreenMode</text>
</a>
</g>
</g>
<!-- Node3&#45;&gt;Node12 -->
<g id="edge14" class="edge"><title>Node3&#45;&gt;Node12</title>
<path fill="none" stroke="midnightblue" d="M538.308,-86C546.729,-86 555.355,-86 563.921,-86"/>
<polygon fill="midnightblue" stroke="midnightblue" points="538.154,-82.5001 528.154,-86 538.154,-89.5001 538.154,-82.5001"/>
</g>
<!-- Node5 -->
<g id="node5" class="node"><title>Node5</title>
<g id="a_node5"><a xlink:href="classGame.html#a1c2ab25d5216b2f4b2fe41efd2c09114" target="_top" xlink:title="Game::run">
<polygon fill="none" stroke="black" points="1120,-49.5 1120,-68.5 1188,-68.5 1188,-49.5 1120,-49.5"/>
<text text-anchor="middle" x="1154" y="-56.5" font-family="Helvetica,sans-Serif" font-size="10.00">Game::run</text>
</a>
</g>
</g>
<!-- Node4&#45;&gt;Node5 -->
<g id="edge4" class="edge"><title>Node4&#45;&gt;Node5</title>
<path fill="none" stroke="midnightblue" d="M1094.45,-64.7253C1103.15,-63.8747 1111.92,-63.0169 1119.93,-62.2335"/>
<polygon fill="midnightblue" stroke="midnightblue" points="1093.93,-61.259 1084.32,-65.7156 1094.61,-68.2258 1093.93,-61.259"/>
</g>
<!-- Node6 -->
<g id="node6" class="node"><title>Node6</title>
<g id="a_node6"><a xlink:href="main_8cxx.html#af582d708d899e67ead623eac34a22387" target="_top" xlink:title="protected_main">
<polygon fill="none" stroke="black" points="1224,-24.5 1224,-43.5 1316,-43.5 1316,-24.5 1224,-24.5"/>
<text text-anchor="middle" x="1270" y="-31.5" font-family="Helvetica,sans-Serif" font-size="10.00">protected_main</text>
</a>
</g>
</g>
<!-- Node5&#45;&gt;Node6 -->
<g id="edge5" class="edge"><title>Node5&#45;&gt;Node6</title>
<path fill="none" stroke="midnightblue" d="M1198.07,-49.554C1206.97,-47.6021 1216.36,-45.5443 1225.28,-43.5875"/>
<polygon fill="midnightblue" stroke="midnightblue" points="1197.3,-46.1408 1188.28,-51.7018 1198.8,-52.9784 1197.3,-46.1408"/>
</g>
<!-- Node7 -->
<g id="node7" class="node"><title>Node7</title>
<g id="a_node7"><a xlink:href="main_8cxx.html#a3c04138a5bfe5d72780bb7e82a18e627" target="_top" xlink:title="main">
<polygon fill="none" stroke="black" points="1352,-24.5 1352,-43.5 1393,-43.5 1393,-24.5 1352,-24.5"/>
<text text-anchor="middle" x="1372.5" y="-31.5" font-family="Helvetica,sans-Serif" font-size="10.00">main</text>
</a>
</g>
</g>
<!-- Node6&#45;&gt;Node7 -->
<g id="edge6" class="edge"><title>Node6&#45;&gt;Node7</title>
<path fill="none" stroke="midnightblue" d="M1326.54,-34C1335.62,-34 1344.47,-34 1351.88,-34"/>
<polygon fill="midnightblue" stroke="midnightblue" points="1326.25,-30.5001 1316.25,-34 1326.25,-37.5001 1326.25,-30.5001"/>
</g>
<!-- Node9 -->
<g id="node9" class="node"><title>Node9</title>
<g id="a_node9"><a xlink:href="classUIManager.html#a5c4cb8e02504ffa0d3faf45181feab9d" target="_top" xlink:title="Fill UI Widgets whose ID start with a $ with data Used for filling widgets with data, like BuildMenu Position combobox, Screen Resolution ComboBox and so on. ">
<polygon fill="none" stroke="black" points="802,-77 802,-107 942,-107 942,-77 802,-77"/>
<text text-anchor="start" x="810" y="-95" font-family="Helvetica,sans-Serif" font-size="10.00">UIManager::initializeDollar</text>
<text text-anchor="middle" x="872" y="-84" font-family="Helvetica,sans-Serif" font-size="10.00">Variables</text>
</a>
</g>
</g>
<!-- Node8&#45;&gt;Node9 -->
<g id="edge8" class="edge"><title>Node8&#45;&gt;Node9</title>
<path fill="none" stroke="midnightblue" d="M731,-112.984C753.944,-109.545 779.165,-105.764 801.804,-102.371"/>
<polygon fill="midnightblue" stroke="midnightblue" points="730.35,-109.542 720.979,-114.486 731.387,-116.465 730.35,-109.542"/>
</g>
<!-- Node9&#45;&gt;Node4 -->
<g id="edge9" class="edge"><title>Node9&#45;&gt;Node4</title>
<path fill="none" stroke="midnightblue" d="M952.26,-81.4639C966.817,-79.5289 981.517,-77.5747 994.556,-75.8414"/>
<polygon fill="midnightblue" stroke="midnightblue" points="951.68,-78.0102 942.228,-82.7975 952.602,-84.9492 951.68,-78.0102"/>
</g>
<!-- Node10&#45;&gt;Node9 -->
<g id="edge13" class="edge"><title>Node10&#45;&gt;Node9</title>
<path fill="none" stroke="midnightblue" d="M713.849,-59.6129C740.761,-65.1592 773.22,-71.8486 801.634,-77.7045"/>
<polygon fill="midnightblue" stroke="midnightblue" points="714.327,-56.1379 703.826,-57.5473 712.914,-62.9939 714.327,-56.1379"/>
</g>
<!-- Node11 -->
<g id="node11" class="node"><title>Node11</title>
<g id="a_node11"><a xlink:href="classUIManager.html#aa78e356fc3b356d790c848319d1c387e" target="_top" xlink:title="UIManager::setCallbackFunctions">
<polygon fill="none" stroke="black" points="785,-38.5 785,-57.5 959,-57.5 959,-38.5 785,-38.5"/>
<text text-anchor="middle" x="872" y="-45.5" font-family="Helvetica,sans-Serif" font-size="10.00">UIManager::setCallbackFunctions</text>
</a>
</g>
</g>
<!-- Node10&#45;&gt;Node11 -->
<g id="edge11" class="edge"><title>Node10&#45;&gt;Node11</title>
<path fill="none" stroke="midnightblue" d="M745.986,-48C758.819,-48 772.014,-48 784.801,-48"/>
<polygon fill="midnightblue" stroke="midnightblue" points="745.787,-44.5001 735.787,-48 745.787,-51.5001 745.787,-44.5001"/>
</g>
<!-- Node11&#45;&gt;Node4 -->
<g id="edge12" class="edge"><title>Node11&#45;&gt;Node4</title>
<path fill="none" stroke="midnightblue" d="M954.713,-58.8621C968.602,-60.7084 982.53,-62.5599 994.932,-64.2085"/>
<polygon fill="midnightblue" stroke="midnightblue" points="955.002,-55.3699 944.628,-57.5216 954.08,-62.3088 955.002,-55.3699"/>
</g>
<!-- Node12&#45;&gt;Node9 -->
<g id="edge15" class="edge"><title>Node12&#45;&gt;Node9</title>
<path fill="none" stroke="midnightblue" d="M759.662,-88.8711C773.963,-89.273 788.375,-89.678 801.867,-90.0572"/>
<polygon fill="midnightblue" stroke="midnightblue" points="759.377,-85.3618 749.282,-88.5794 759.18,-92.359 759.377,-85.3618"/>
</g>
<!-- Node14&#45;&gt;Node6 -->
<g id="edge18" class="edge"><title>Node14&#45;&gt;Node6</title>
<path fill="none" stroke="midnightblue" d="M521.123,-10C601.22,-10 746.696,-10 871,-10 871,-10 871,-10 1040.5,-10 1104.32,-10 1177.62,-19.375 1223.63,-26.4062"/>
<polygon fill="midnightblue" stroke="midnightblue" points="520.738,-6.5001 510.738,-10 520.738,-13.5001 520.738,-6.5001"/>
</g>
</g>
</svg>
