<?xml version="1.0" encoding="UTF-8" standalone="no"?>
<!DOCTYPE svg PUBLIC "-//W3C//DTD SVG 1.1//EN"
 "http://www.w3.org/Graphics/SVG/1.1/DTD/svg11.dtd">
<!-- Generated by graphviz version 2.38.0 (20140413.2041)
 -->
<!-- Title: Text::Text Pages: 1 -->
<svg width="686pt" height="142pt"
 viewBox="0.00 0.00 686.00 142.00" xmlns="http://www.w3.org/2000/svg" xmlns:xlink="http://www.w3.org/1999/xlink">
<g id="graph0" class="graph" transform="scale(1 1) rotate(0) translate(4 138)">
<title>Text::Text</title>
<!-- Node1 -->
<g id="node1" class="node"><title>Node1</title>
<polygon fill="#bfbfbf" stroke="black" points="0,-57.5 0,-76.5 60,-76.5 60,-57.5 0,-57.5"/>
<text text-anchor="middle" x="30" y="-64.5" font-family="Helvetica,sans-Serif" font-size="10.00">Text::Text</text>
</g>
<!-- Node2 -->
<g id="node2" class="node"><title>Node2</title>
<g id="a_node2"><a xlink:href="classText.html#a342401fbc97a2b4c902c076e86ba43bd" target="_top" xlink:title="Destructor. ">
<polygon fill="none" stroke="black" points="111,-114.5 111,-133.5 179,-133.5 179,-114.5 111,-114.5"/>
<text text-anchor="middle" x="145" y="-121.5" font-family="Helvetica,sans-Serif" font-size="10.00">Text::~Text</text>
</a>
</g>
</g>
<!-- Node1&#45;&gt;Node2 -->
<g id="edge1" class="edge"><title>Node1&#45;&gt;Node2</title>
<path fill="none" stroke="midnightblue" d="M45.8776,-76.5745C58.8269,-84.6932 78.2524,-96.3618 96,-105 99.8983,-106.897 104.037,-108.756 108.187,-110.523"/>
<polygon fill="midnightblue" stroke="midnightblue" points="107.2,-113.901 117.78,-114.455 109.854,-107.424 107.2,-113.901"/>
</g>
<!-- Node3 -->
<g id="node3" class="node"><title>Node3</title>
<g id="a_node3"><a xlink:href="classText.html#a8f486a54a21fafc7a5dfb75975f1621f" target="_top" xlink:title="implements draw function. Renders the SDL_Texture generated from the TTF. ">
<polygon fill="none" stroke="black" points="113,-76.5 113,-95.5 177,-95.5 177,-76.5 113,-76.5"/>
<text text-anchor="middle" x="145" y="-83.5" font-family="Helvetica,sans-Serif" font-size="10.00">Text::draw</text>
</a>
</g>
</g>
<!-- Node1&#45;&gt;Node3 -->
<g id="edge2" class="edge"><title>Node1&#45;&gt;Node3</title>
<path fill="none" stroke="midnightblue" d="M60.1003,-71.893C73.045,-74.0695 88.5215,-76.6718 102.637,-79.0452"/>
<polygon fill="midnightblue" stroke="midnightblue" points="102.177,-82.5169 112.619,-80.7236 103.338,-75.6138 102.177,-82.5169"/>
</g>
<!-- Node6 -->
<g id="node6" class="node"><title>Node6</title>
<g id="a_node6"><a xlink:href="classText.html#a14b9f0937696af5fd95317eb8313bf92" target="_top" xlink:title="sets the text for this text widget. ">
<polygon fill="none" stroke="black" points="261.5,-10.5 261.5,-29.5 336.5,-29.5 336.5,-10.5 261.5,-10.5"/>
<text text-anchor="middle" x="299" y="-17.5" font-family="Helvetica,sans-Serif" font-size="10.00">Text::setText</text>
</a>
</g>
</g>
<!-- Node1&#45;&gt;Node6 -->
<g id="edge5" class="edge"><title>Node1&#45;&gt;Node6</title>
<path fill="none" stroke="midnightblue" d="M60.0819,-61.8807C106.142,-53.7727 196.291,-37.9038 251.432,-28.1974"/>
<polygon fill="midnightblue" stroke="midnightblue" points="252.06,-31.6408 261.302,-26.46 250.846,-24.7468 252.06,-31.6408"/>
</g>
<!-- Node9 -->
<g id="node9" class="node"><title>Node9</title>
<g id="a_node9"><a xlink:href="classText.html#a398a47abd355749d9e99bf74aa6a4a8d" target="_top" xlink:title="Sets the Font size of this element. ">
<polygon fill="none" stroke="black" points="96,-0.5 96,-19.5 194,-19.5 194,-0.5 96,-0.5"/>
<text text-anchor="middle" x="145" y="-7.5" font-family="Helvetica,sans-Serif" font-size="10.00">Text::setFontSize</text>
</a>
</g>
</g>
<!-- Node1&#45;&gt;Node9 -->
<g id="edge9" class="edge"><title>Node1&#45;&gt;Node9</title>
<path fill="none" stroke="midnightblue" d="M49.7577,-57.4386C62.7332,-50.8339 80.4029,-41.8584 96,-34 102.373,-30.789 109.229,-27.3511 115.709,-24.1093"/>
<polygon fill="midnightblue" stroke="midnightblue" points="117.453,-27.1507 124.834,-19.5496 114.324,-20.8891 117.453,-27.1507"/>
</g>
<!-- Node4 -->
<g id="node4" class="node"><title>Node4</title>
<g id="a_node4"><a xlink:href="classUIElement.html#abba9217ad94f67e16654cf236577b6c2" target="_top" xlink:title="Check the UI Elements visibility. Check if the UI Element is visibile. ">
<polygon fill="none" stroke="black" points="244,-95.5 244,-114.5 354,-114.5 354,-95.5 244,-95.5"/>
<text text-anchor="middle" x="299" y="-102.5" font-family="Helvetica,sans-Serif" font-size="10.00">UIElement::isVisible</text>
</a>
</g>
</g>
<!-- Node3&#45;&gt;Node4 -->
<g id="edge3" class="edge"><title>Node3&#45;&gt;Node4</title>
<path fill="none" stroke="midnightblue" d="M177.126,-89.8908C193.472,-91.934 214.132,-94.5165 233.727,-96.9658"/>
<polygon fill="midnightblue" stroke="midnightblue" points="233.491,-100.464 243.848,-98.231 234.359,-93.5176 233.491,-100.464"/>
</g>
<!-- Node5 -->
<g id="node5" class="node"><title>Node5</title>
<g id="a_node5"><a xlink:href="classUIElement.html#a870367e90702e8021b090d5a11152def" target="_top" xlink:title="UIElement::renderTexture">
<polygon fill="none" stroke="black" points="230,-57.5 230,-76.5 368,-76.5 368,-57.5 230,-57.5"/>
<text text-anchor="middle" x="299" y="-64.5" font-family="Helvetica,sans-Serif" font-size="10.00">UIElement::renderTexture</text>
</a>
</g>
</g>
<!-- Node3&#45;&gt;Node5 -->
<g id="edge4" class="edge"><title>Node3&#45;&gt;Node5</title>
<path fill="none" stroke="midnightblue" d="M177.126,-82.1092C189.666,-80.5418 204.745,-78.6569 219.934,-76.7583"/>
<polygon fill="midnightblue" stroke="midnightblue" points="220.417,-80.2252 229.905,-75.5118 219.549,-73.2793 220.417,-80.2252"/>
</g>
<!-- Node7 -->
<g id="node7" class="node"><title>Node7</title>
<g id="a_node7"><a xlink:href="classText.html#a3bf5a064fd37d06b8d3dc5a700556897" target="_top" xlink:title="Draws a text string to the screen Draws a text string to the screen. This could either be a standalon...">
<polygon fill="none" stroke="black" points="404,-10.5 404,-29.5 529,-29.5 529,-10.5 404,-10.5"/>
<text text-anchor="middle" x="466.5" y="-17.5" font-family="Helvetica,sans-Serif" font-size="10.00">Text::createTextTexture</text>
</a>
</g>
</g>
<!-- Node6&#45;&gt;Node7 -->
<g id="edge6" class="edge"><title>Node6&#45;&gt;Node7</title>
<path fill="none" stroke="midnightblue" d="M336.73,-20C353.516,-20 374.007,-20 393.663,-20"/>
<polygon fill="midnightblue" stroke="midnightblue" points="393.841,-23.5001 403.841,-20 393.841,-16.5001 393.841,-23.5001"/>
</g>
<!-- Node8 -->
<g id="node8" class="node"><title>Node8</title>
<g id="a_node8"><a xlink:href="classSingleton.html#af5cb1e5749949e2b68416cfb8d378044" target="_top" xlink:title="Get an instance of the singleton. ">
<polygon fill="none" stroke="black" points="565,-5 565,-35 678,-35 678,-5 565,-5"/>
<text text-anchor="start" x="573" y="-23" font-family="Helvetica,sans-Serif" font-size="10.00">Singleton&lt; Settings</text>
<text text-anchor="middle" x="621.5" y="-12" font-family="Helvetica,sans-Serif" font-size="10.00"> &gt;::instance</text>
</a>
</g>
</g>
<!-- Node7&#45;&gt;Node8 -->
<g id="edge7" class="edge"><title>Node7&#45;&gt;Node8</title>
<path fill="none" stroke="midnightblue" d="M529.29,-13.3622C537.663,-13.233 546.279,-13.2154 554.719,-13.3092"/>
<polygon fill="midnightblue" stroke="midnightblue" points="554.84,-16.8116 564.897,-13.479 554.956,-9.81262 554.84,-16.8116"/>
</g>
<!-- Node7&#45;&gt;Node8 -->
<g id="edge8" class="edge"><title>Node7&#45;&gt;Node8</title>
<path fill="none" stroke="midnightblue" d="M529.29,-26.6378C537.663,-26.767 546.279,-26.7846 554.719,-26.6908"/>
<polygon fill="midnightblue" stroke="midnightblue" points="554.956,-30.1874 564.897,-26.521 554.84,-23.1884 554.956,-30.1874"/>
</g>
<!-- Node9&#45;&gt;Node6 -->
<g id="edge10" class="edge"><title>Node9&#45;&gt;Node6</title>
<path fill="none" stroke="midnightblue" d="M194.094,-13.1641C212.355,-14.3655 233.113,-15.7311 251.248,-16.9242"/>
<polygon fill="midnightblue" stroke="midnightblue" points="251.094,-20.4215 261.302,-17.5857 251.553,-13.4366 251.094,-20.4215"/>
</g>
</g>
</svg>
