<?xml version="1.0" encoding="UTF-8" standalone="no"?>
<!DOCTYPE svg PUBLIC "-//W3C//DTD SVG 1.1//EN"
 "http://www.w3.org/Graphics/SVG/1.1/DTD/svg11.dtd">
<!-- Generated by graphviz version 2.38.0 (20140413.2041)
 -->
<!-- Title: Map::refresh Pages: 1 -->
<svg width="1171pt" height="184pt"
 viewBox="0.00 0.00 1171.00 183.71" xmlns="http://www.w3.org/2000/svg" xmlns:xlink="http://www.w3.org/1999/xlink">
<g id="graph0" class="graph" transform="scale(1 1) rotate(0) translate(4 179.71)">
<title>Map::refresh</title>
<!-- Node1 -->
<g id="node1" class="node"><title>Node1</title>
<polygon fill="#bfbfbf" stroke="black" points="0,-107 0,-126 77,-126 77,-107 0,-107"/>
<text text-anchor="middle" x="38.5" y="-114" font-family="Helvetica,sans-Serif" font-size="10.00">Map::refresh</text>
</g>
<!-- Node2 -->
<g id="node2" class="node"><title>Node2</title>
<g id="a_node2"><a xlink:href="classCamera.html#a0a8ee04ccb4f4cc9af52a964cf225f66" target="_top" xlink:title="Increases the zoom level of the camera Increases the zoom level of the camera. ">
<polygon fill="none" stroke="black" points="314,-126 314,-145 469,-145 469,-126 314,-126"/>
<text text-anchor="middle" x="391.5" y="-133" font-family="Helvetica,sans-Serif" font-size="10.00">Camera::increaseZoomLevel</text>
</a>
</g>
</g>
<!-- Node1&#45;&gt;Node2 -->
<g id="edge1" class="edge"><title>Node1&#45;&gt;Node2</title>
<path fill="none" stroke="midnightblue" d="M87.0953,-119.076C145.347,-122.23 244.74,-127.61 313.824,-131.349"/>
<polygon fill="midnightblue" stroke="midnightblue" points="87.2377,-115.579 77.0631,-118.533 86.8593,-122.569 87.2377,-115.579"/>
</g>
<!-- Node4 -->
<g id="node4" class="node"><title>Node4</title>
<g id="a_node4"><a xlink:href="classEventManager.html#a65ec91fd5016d4f9c4167fb8babed2df" target="_top" xlink:title="EventManager::checkEvents">
<polygon fill="none" stroke="black" points="702,-88 702,-107 854,-107 854,-88 702,-88"/>
<text text-anchor="middle" x="778" y="-95" font-family="Helvetica,sans-Serif" font-size="10.00">EventManager::checkEvents</text>
</a>
</g>
</g>
<!-- Node1&#45;&gt;Node4 -->
<g id="edge17" class="edge"><title>Node1&#45;&gt;Node4</title>
<path fill="none" stroke="midnightblue" d="M74.6448,-129.287C86.6599,-133.177 100.279,-137.063 113,-139.5 354.391,-185.737 425.954,-190.277 666,-137.5 698.21,-130.418 733.809,-116.423 755.794,-107.011"/>
<polygon fill="midnightblue" stroke="midnightblue" points="75.5781,-125.909 64.9843,-126.051 73.3545,-132.546 75.5781,-125.909"/>
</g>
<!-- Node8 -->
<g id="node8" class="node"><title>Node8</title>
<g id="a_node8"><a xlink:href="classCamera.html#aeea39f352d5873495dea6f376cf3207e" target="_top" xlink:title="Decreases the zoom level of the camera Decreases the zoom level of the camera. ">
<polygon fill="none" stroke="black" points="312,-50 312,-69 471,-69 471,-50 312,-50"/>
<text text-anchor="middle" x="391.5" y="-57" font-family="Helvetica,sans-Serif" font-size="10.00">Camera::decreaseZoomLevel</text>
</a>
</g>
</g>
<!-- Node1&#45;&gt;Node8 -->
<g id="edge8" class="edge"><title>Node1&#45;&gt;Node8</title>
<path fill="none" stroke="midnightblue" d="M62.5824,-101.445C76.5766,-93.13 95.1284,-83.4993 113,-78.5 178.339,-60.2225 255.545,-56.2844 311.911,-56.4514"/>
<polygon fill="midnightblue" stroke="midnightblue" points="60.3698,-98.6965 53.6866,-106.918 64.0378,-104.659 60.3698,-98.6965"/>
</g>
<!-- Node9 -->
<g id="node9" class="node"><title>Node9</title>
<g id="a_node9"><a xlink:href="classCamera.html#adfb240823ff20b97b69459490dbd8dc3" target="_top" xlink:title="Centers camera on given isometric coordinates Centers the camera on the given isometric coordinates...">
<polygon fill="none" stroke="black" points="113,-88 113,-107 276,-107 276,-88 113,-88"/>
<text text-anchor="middle" x="194.5" y="-95" font-family="Helvetica,sans-Serif" font-size="10.00">Camera::centerScreenOnPoint</text>
</a>
</g>
</g>
<!-- Node1&#45;&gt;Node9 -->
<g id="edge11" class="edge"><title>Node1&#45;&gt;Node9</title>
<path fill="none" stroke="midnightblue" d="M87.3119,-110.601C96.5723,-109.459 106.494,-108.235 116.417,-107.01"/>
<polygon fill="midnightblue" stroke="midnightblue" points="86.6688,-107.154 77.1726,-111.852 87.526,-114.101 86.6688,-107.154"/>
</g>
<!-- Node3 -->
<g id="node3" class="node"><title>Node3</title>
<g id="a_node3"><a xlink:href="classCamera.html#a1f8ecd427814c5a4970223c2d13b9310" target="_top" xlink:title="Camera::setPinchDistance">
<polygon fill="none" stroke="black" points="515,-88 515,-107 658,-107 658,-88 515,-88"/>
<text text-anchor="middle" x="586.5" y="-95" font-family="Helvetica,sans-Serif" font-size="10.00">Camera::setPinchDistance</text>
</a>
</g>
</g>
<!-- Node2&#45;&gt;Node3 -->
<g id="edge2" class="edge"><title>Node2&#45;&gt;Node3</title>
<path fill="none" stroke="midnightblue" d="M451.102,-123.962C478.629,-118.542 511.048,-112.159 537.148,-107.02"/>
<polygon fill="midnightblue" stroke="midnightblue" points="450.338,-120.545 441.202,-125.911 451.69,-127.413 450.338,-120.545"/>
</g>
<!-- Node2&#45;&gt;Node4 -->
<g id="edge7" class="edge"><title>Node2&#45;&gt;Node4</title>
<path fill="none" stroke="midnightblue" d="M479.231,-131.699C533.113,-128.786 603.734,-123.973 666,-116.5 686.285,-114.065 708.506,-110.453 727.701,-107.029"/>
<polygon fill="midnightblue" stroke="midnightblue" points="478.83,-128.215 469.029,-132.238 479.2,-135.205 478.83,-128.215"/>
</g>
<!-- Node3&#45;&gt;Node4 -->
<g id="edge3" class="edge"><title>Node3&#45;&gt;Node4</title>
<path fill="none" stroke="midnightblue" d="M668.237,-97.5C679.417,-97.5 690.863,-97.5 701.934,-97.5"/>
<polygon fill="midnightblue" stroke="midnightblue" points="668.063,-94.0001 658.063,-97.5 668.063,-101 668.063,-94.0001"/>
</g>
<!-- Node5 -->
<g id="node5" class="node"><title>Node5</title>
<g id="a_node5"><a xlink:href="classGame.html#a1c2ab25d5216b2f4b2fe41efd2c09114" target="_top" xlink:title="Game::run">
<polygon fill="none" stroke="black" points="890,-67 890,-86 958,-86 958,-67 890,-67"/>
<text text-anchor="middle" x="924" y="-74" font-family="Helvetica,sans-Serif" font-size="10.00">Game::run</text>
</a>
</g>
</g>
<!-- Node4&#45;&gt;Node5 -->
<g id="edge4" class="edge"><title>Node4&#45;&gt;Node5</title>
<path fill="none" stroke="midnightblue" d="M854.271,-86.5229C866.757,-84.7021 879.111,-82.9005 889.828,-81.3376"/>
<polygon fill="midnightblue" stroke="midnightblue" points="853.649,-83.0766 844.259,-87.9831 854.659,-90.0033 853.649,-83.0766"/>
</g>
<!-- Node6 -->
<g id="node6" class="node"><title>Node6</title>
<g id="a_node6"><a xlink:href="main_8cxx.html#af582d708d899e67ead623eac34a22387" target="_top" xlink:title="protected_main">
<polygon fill="none" stroke="black" points="994,-67 994,-86 1086,-86 1086,-67 994,-67"/>
<text text-anchor="middle" x="1040" y="-74" font-family="Helvetica,sans-Serif" font-size="10.00">protected_main</text>
</a>
</g>
</g>
<!-- Node5&#45;&gt;Node6 -->
<g id="edge5" class="edge"><title>Node5&#45;&gt;Node6</title>
<path fill="none" stroke="midnightblue" d="M968.44,-76.5C976.674,-76.5 985.308,-76.5 993.601,-76.5"/>
<polygon fill="midnightblue" stroke="midnightblue" points="968.28,-73.0001 958.28,-76.5 968.28,-80.0001 968.28,-73.0001"/>
</g>
<!-- Node7 -->
<g id="node7" class="node"><title>Node7</title>
<g id="a_node7"><a xlink:href="main_8cxx.html#a3c04138a5bfe5d72780bb7e82a18e627" target="_top" xlink:title="main">
<polygon fill="none" stroke="black" points="1122,-67 1122,-86 1163,-86 1163,-67 1122,-67"/>
<text text-anchor="middle" x="1142.5" y="-74" font-family="Helvetica,sans-Serif" font-size="10.00">main</text>
</a>
</g>
</g>
<!-- Node6&#45;&gt;Node7 -->
<g id="edge6" class="edge"><title>Node6&#45;&gt;Node7</title>
<path fill="none" stroke="midnightblue" d="M1096.54,-76.5C1105.62,-76.5 1114.47,-76.5 1121.88,-76.5"/>
<polygon fill="midnightblue" stroke="midnightblue" points="1096.25,-73.0001 1086.25,-76.5 1096.25,-80.0001 1096.25,-73.0001"/>
</g>
<!-- Node8&#45;&gt;Node3 -->
<g id="edge9" class="edge"><title>Node8&#45;&gt;Node3</title>
<path fill="none" stroke="midnightblue" d="M451.102,-71.0381C478.629,-76.458 511.048,-82.841 537.148,-87.9799"/>
<polygon fill="midnightblue" stroke="midnightblue" points="451.69,-67.5868 441.202,-69.089 450.338,-74.455 451.69,-67.5868"/>
</g>
<!-- Node8&#45;&gt;Node4 -->
<g id="edge10" class="edge"><title>Node8&#45;&gt;Node4</title>
<path fill="none" stroke="midnightblue" d="M481.256,-63.4113C534.874,-66.3341 604.511,-71.1204 666,-78.5 686.285,-80.9345 708.506,-84.5475 727.701,-87.9711"/>
<polygon fill="midnightblue" stroke="midnightblue" points="481.268,-59.907 471.095,-62.8692 480.895,-66.897 481.268,-59.907"/>
</g>
<!-- Node9&#45;&gt;Node2 -->
<g id="edge12" class="edge"><title>Node9&#45;&gt;Node2</title>
<path fill="none" stroke="midnightblue" d="M254.459,-108.989C282.282,-114.411 315.096,-120.806 341.525,-125.956"/>
<polygon fill="midnightblue" stroke="midnightblue" points="254.94,-105.517 244.455,-107.04 253.601,-112.388 254.94,-105.517"/>
</g>
<!-- Node9&#45;&gt;Node3 -->
<g id="edge14" class="edge"><title>Node9&#45;&gt;Node3</title>
<path fill="none" stroke="midnightblue" d="M286.403,-97.5C356.099,-97.5 450.894,-97.5 514.936,-97.5"/>
<polygon fill="midnightblue" stroke="midnightblue" points="286.308,-94.0001 276.308,-97.5 286.308,-101 286.308,-94.0001"/>
</g>
<!-- Node9&#45;&gt;Node8 -->
<g id="edge13" class="edge"><title>Node9&#45;&gt;Node8</title>
<path fill="none" stroke="midnightblue" d="M254.459,-86.0106C282.282,-80.5886 315.096,-74.1942 341.525,-69.0439"/>
<polygon fill="midnightblue" stroke="midnightblue" points="253.601,-82.6118 244.455,-87.96 254.94,-89.4826 253.601,-82.6118"/>
</g>
<!-- Node10 -->
<g id="node10" class="node"><title>Node10</title>
<g id="a_node10"><a xlink:href="classCamera.html#af29da768f8948f3afbf0a9b43530eb1d" target="_top" xlink:title="Centers camera on the middle of the map Centers the camera on the middle of the map. ">
<polygon fill="none" stroke="black" points="507,-0.5 507,-30.5 666,-30.5 666,-0.5 507,-0.5"/>
<text text-anchor="start" x="515" y="-18.5" font-family="Helvetica,sans-Serif" font-size="10.00">Camera::centerScreenOnMap</text>
<text text-anchor="middle" x="586.5" y="-7.5" font-family="Helvetica,sans-Serif" font-size="10.00">Center</text>
</a>
</g>
</g>
<!-- Node9&#45;&gt;Node10 -->
<g id="edge15" class="edge"><title>Node9&#45;&gt;Node10</title>
<path fill="none" stroke="midnightblue" d="M219.263,-82.6544C242.109,-69.1768 278.079,-50.0009 312,-40.5 376.05,-22.5605 451.508,-16.7487 506.923,-15.1743"/>
<polygon fill="midnightblue" stroke="midnightblue" points="217.372,-79.7071 210.606,-87.8604 220.98,-85.7058 217.372,-79.7071"/>
</g>
<!-- Node10&#45;&gt;Node5 -->
<g id="edge16" class="edge"><title>Node10&#45;&gt;Node5</title>
<path fill="none" stroke="midnightblue" d="M676.345,-31.6537C746.613,-44.4297 840.802,-61.5549 889.972,-70.4949"/>
<polygon fill="midnightblue" stroke="midnightblue" points="676.625,-28.1472 666.16,-29.8018 675.372,-35.0343 676.625,-28.1472"/>
</g>
</g>
</svg>
