<?xml version="1.0" encoding="UTF-8" standalone="no"?>
<!DOCTYPE svg PUBLIC "-//W3C//DTD SVG 1.1//EN"
 "http://www.w3.org/Graphics/SVG/1.1/DTD/svg11.dtd">
<!-- Generated by graphviz version 2.38.0 (20140413.2041)
 -->
<!-- Title: Text Pages: 1 -->
<svg width="276pt" height="501pt"
 viewBox="0.00 0.00 276.00 501.00" xmlns="http://www.w3.org/2000/svg" xmlns:xlink="http://www.w3.org/1999/xlink">
<g id="graph0" class="graph" transform="scale(1 1) rotate(0) translate(4 497)">
<title>Text</title>
<!-- Node1 -->
<g id="node1" class="node"><title>Node1</title>
<polygon fill="#bfbfbf" stroke="black" points="0,-11.5 0,-134.5 115,-134.5 115,-11.5 0,-11.5"/>
<text text-anchor="middle" x="57.5" y="-122.5" font-family="Helvetica,sans-Serif" font-size="10.00">Text</text>
<polyline fill="none" stroke="black" points="0,-115.5 115,-115.5 "/>
<text text-anchor="start" x="8" y="-103.5" font-family="Helvetica,sans-Serif" font-size="10.00">&#45; m_fontSize</text>
<polyline fill="none" stroke="black" points="0,-96.5 115,-96.5 "/>
<text text-anchor="start" x="8" y="-84.5" font-family="Helvetica,sans-Serif" font-size="10.00">+ Text()</text>
<text text-anchor="start" x="8" y="-73.5" font-family="Helvetica,sans-Serif" font-size="10.00">+ ~Text()</text>
<text text-anchor="start" x="8" y="-62.5" font-family="Helvetica,sans-Serif" font-size="10.00">+ draw()</text>
<text text-anchor="start" x="8" y="-51.5" font-family="Helvetica,sans-Serif" font-size="10.00">+ setText()</text>
<text text-anchor="start" x="8" y="-40.5" font-family="Helvetica,sans-Serif" font-size="10.00">+ setFontSize()</text>
<text text-anchor="start" x="8" y="-29.5" font-family="Helvetica,sans-Serif" font-size="10.00">+ getFontSize()</text>
<text text-anchor="start" x="8" y="-18.5" font-family="Helvetica,sans-Serif" font-size="10.00">&#45; createTextTexture()</text>
</g>
<!-- Node2 -->
<g id="node2" class="node"><title>Node2</title>
<g id="a_node2"><a xlink:href="classUIElement.html" target="_top" xlink:title="Base class for UI Elements Provides functions and variables for derived user interface elements...">
<polygon fill="none" stroke="black" points="58.5,-193.5 58.5,-492.5 210.5,-492.5 210.5,-193.5 58.5,-193.5"/>
<text text-anchor="middle" x="134.5" y="-480.5" font-family="Helvetica,sans-Serif" font-size="10.00">UIElement</text>
<polyline fill="none" stroke="black" points="58.5,-473.5 210.5,-473.5 "/>
<text text-anchor="start" x="66.5" y="-461.5" font-family="Helvetica,sans-Serif" font-size="10.00"># m_texture</text>
<text text-anchor="start" x="66.5" y="-450.5" font-family="Helvetica,sans-Serif" font-size="10.00"># m_uiElementRect</text>
<text text-anchor="start" x="66.5" y="-439.5" font-family="Helvetica,sans-Serif" font-size="10.00">&#45; m_renderer</text>
<text text-anchor="start" x="66.5" y="-428.5" font-family="Helvetica,sans-Serif" font-size="10.00">&#45; m_window</text>
<text text-anchor="start" x="66.5" y="-417.5" font-family="Helvetica,sans-Serif" font-size="10.00">&#45; m_buttonState</text>
<text text-anchor="start" x="66.5" y="-406.5" font-family="Helvetica,sans-Serif" font-size="10.00">&#45; m_visible</text>
<polyline fill="none" stroke="black" points="58.5,-399.5 210.5,-399.5 "/>
<text text-anchor="start" x="66.5" y="-387.5" font-family="Helvetica,sans-Serif" font-size="10.00">+ UIElement()</text>
<text text-anchor="start" x="66.5" y="-376.5" font-family="Helvetica,sans-Serif" font-size="10.00">+ UIElement()</text>
<text text-anchor="start" x="66.5" y="-365.5" font-family="Helvetica,sans-Serif" font-size="10.00">+ ~UIElement()</text>
<text text-anchor="start" x="66.5" y="-354.5" font-family="Helvetica,sans-Serif" font-size="10.00">+ registerCallbackFunction()</text>
<text text-anchor="start" x="66.5" y="-343.5" font-family="Helvetica,sans-Serif" font-size="10.00">+ registerCallbackFunction()</text>
<text text-anchor="start" x="66.5" y="-332.5" font-family="Helvetica,sans-Serif" font-size="10.00">+ registerCallbackFunction()</text>
<text text-anchor="start" x="66.5" y="-321.5" font-family="Helvetica,sans-Serif" font-size="10.00">+ onMouseButtonUp()</text>
<text text-anchor="start" x="66.5" y="-310.5" font-family="Helvetica,sans-Serif" font-size="10.00">+ onMouseButtonDown()</text>
<text text-anchor="start" x="66.5" y="-299.5" font-family="Helvetica,sans-Serif" font-size="10.00">+ onMouseEnter()</text>
<text text-anchor="start" x="66.5" y="-288.5" font-family="Helvetica,sans-Serif" font-size="10.00">+ onMouseLeave()</text>
<text text-anchor="start" x="66.5" y="-277.5" font-family="Helvetica,sans-Serif" font-size="10.00">and 23 more...</text>
<text text-anchor="start" x="66.5" y="-266.5" font-family="Helvetica,sans-Serif" font-size="10.00"># renderTexture()</text>
<text text-anchor="start" x="66.5" y="-255.5" font-family="Helvetica,sans-Serif" font-size="10.00"># drawSolidRect()</text>
<text text-anchor="start" x="66.5" y="-244.5" font-family="Helvetica,sans-Serif" font-size="10.00"># drawLine()</text>
<text text-anchor="start" x="66.5" y="-233.5" font-family="Helvetica,sans-Serif" font-size="10.00"># drawTextFrame()</text>
<text text-anchor="start" x="66.5" y="-222.5" font-family="Helvetica,sans-Serif" font-size="10.00"># drawButtonFrame()</text>
<text text-anchor="start" x="66.5" y="-211.5" font-family="Helvetica,sans-Serif" font-size="10.00"># drawFrame()</text>
<text text-anchor="start" x="66.5" y="-200.5" font-family="Helvetica,sans-Serif" font-size="10.00"># changeTexture()</text>
</a>
</g>
</g>
<!-- Node2&#45;&gt;Node1 -->
<g id="edge1" class="edge"><title>Node2&#45;&gt;Node1</title>
<path fill="none" stroke="midnightblue" d="M89.0485,-183.805C84.0605,-166.444 79.2335,-149.644 74.9176,-134.622"/>
<polygon fill="none" stroke="midnightblue" points="85.7085,-184.855 91.8339,-193.5 92.4363,-182.922 85.7085,-184.855"/>
</g>
<!-- Node3 -->
<g id="node3" class="node"><title>Node3</title>
<g id="a_node3"><a xlink:href="structUIElement_1_1ElementData.html" target="_top" xlink:title="{UIElement::ElementData\n|+ elementID\l+ text\l+ tooltipText\l+ actionID\l+ actionParameter\l+ textureID\l+ buildMenuID\l+ layoutGroupName\l+ isToggleButton\l|}">
<polygon fill="none" stroke="black" points="133,-0.5 133,-145.5 268,-145.5 268,-0.5 133,-0.5"/>
<text text-anchor="middle" x="200.5" y="-133.5" font-family="Helvetica,sans-Serif" font-size="10.00">UIElement::ElementData</text>
<polyline fill="none" stroke="black" points="133,-126.5 268,-126.5 "/>
<text text-anchor="start" x="141" y="-114.5" font-family="Helvetica,sans-Serif" font-size="10.00">+ elementID</text>
<text text-anchor="start" x="141" y="-103.5" font-family="Helvetica,sans-Serif" font-size="10.00">+ text</text>
<text text-anchor="start" x="141" y="-92.5" font-family="Helvetica,sans-Serif" font-size="10.00">+ tooltipText</text>
<text text-anchor="start" x="141" y="-81.5" font-family="Helvetica,sans-Serif" font-size="10.00">+ actionID</text>
<text text-anchor="start" x="141" y="-70.5" font-family="Helvetica,sans-Serif" font-size="10.00">+ actionParameter</text>
<text text-anchor="start" x="141" y="-59.5" font-family="Helvetica,sans-Serif" font-size="10.00">+ textureID</text>
<text text-anchor="start" x="141" y="-48.5" font-family="Helvetica,sans-Serif" font-size="10.00">+ buildMenuID</text>
<text text-anchor="start" x="141" y="-37.5" font-family="Helvetica,sans-Serif" font-size="10.00">+ layoutGroupName</text>
<text text-anchor="start" x="141" y="-26.5" font-family="Helvetica,sans-Serif" font-size="10.00">+ isToggleButton</text>
<polyline fill="none" stroke="black" points="133,-19.5 268,-19.5 "/>
<text text-anchor="middle" x="200.5" y="-7.5" font-family="Helvetica,sans-Serif" font-size="10.00"> </text>
</a>
</g>
</g>
<!-- Node2&#45;&gt;Node3 -->
<g id="edge3" class="edge"><title>Node2&#45;&gt;Node3</title>
<path fill="none" stroke="#404040" d="M124.331,-193.161C125.987,-183.172 128.323,-173.366 131.5,-164 132.328,-161.56 133.251,-159.135 134.258,-156.728"/>
<polygon fill="none" stroke="#404040" points="134.384,-156.462 133.348,-149.326 139.537,-145.625 140.573,-152.761 134.384,-156.462"/>
<text text-anchor="middle" x="153" y="-167" font-family="Helvetica,sans-Serif" font-size="10.00"> +parent</text>
</g>
<!-- Node3&#45;&gt;Node2 -->
<g id="edge2" class="edge"><title>Node3&#45;&gt;Node2</title>
<path fill="none" stroke="#404040" d="M185.318,-145.542C183.098,-155.453 180.787,-165.491 178.5,-175 177.983,-177.148 177.46,-179.31 176.931,-181.484"/>
<polygon fill="none" stroke="#404040" points="176.913,-181.559 179.366,-188.34 174.05,-193.213 171.597,-186.432 176.913,-181.559"/>
<text text-anchor="middle" x="218" y="-167" font-family="Helvetica,sans-Serif" font-size="10.00"> #elementData</text>
</g>
</g>
</svg>
