<?xml version="1.0" encoding="UTF-8" standalone="no"?>
<!DOCTYPE svg PUBLIC "-//W3C//DTD SVG 1.1//EN"
 "http://www.w3.org/Graphics/SVG/1.1/DTD/svg11.dtd">
<!-- Generated by graphviz version 2.38.0 (20140413.2041)
 -->
<!-- Title: MapLayers::isLayerActive Pages: 1 -->
<svg width="315pt" height="66pt"
 viewBox="0.00 0.00 315.00 66.00" xmlns="http://www.w3.org/2000/svg" xmlns:xlink="http://www.w3.org/1999/xlink">
<g id="graph0" class="graph" transform="scale(1 1) rotate(0) translate(4 62)">
<title>MapLayers::isLayerActive</title>
<!-- Node1 -->
<g id="node1" class="node"><title>Node1</title>
<polygon fill="#bfbfbf" stroke="black" points="0,-19.5 0,-38.5 137,-38.5 137,-19.5 0,-19.5"/>
<text text-anchor="middle" x="68.5" y="-26.5" font-family="Helvetica,sans-Serif" font-size="10.00">MapLayers::isLayerActive</text>
</g>
<!-- Node2 -->
<g id="node2" class="node"><title>Node2</title>
<g id="a_node2"><a xlink:href="classMapLayers.html#a53d7fcd90e70eaf36239d7a75c0c5dda" target="_top" xlink:title="MapLayers::MapLayers">
<polygon fill="none" stroke="black" points="177,-38.5 177,-57.5 303,-57.5 303,-38.5 177,-38.5"/>
<text text-anchor="middle" x="240" y="-45.5" font-family="Helvetica,sans-Serif" font-size="10.00">MapLayers::MapLayers</text>
</a>
</g>
</g>
<!-- Node1&#45;&gt;Node2 -->
<g id="edge1" class="edge"><title>Node1&#45;&gt;Node2</title>
<path fill="none" stroke="midnightblue" d="M137.465,-36.6185C147.104,-37.699 157.044,-38.8132 166.76,-39.9023"/>
<polygon fill="midnightblue" stroke="midnightblue" points="166.454,-43.3898 176.781,-41.0256 167.233,-36.4334 166.454,-43.3898"/>
</g>
<!-- Node3 -->
<g id="node3" class="node"><title>Node3</title>
<g id="a_node3"><a xlink:href="classMapLayers.html#aa7fa21110e27ec69f131692b0a510d66" target="_top" xlink:title="MapLayers::~MapLayers">
<polygon fill="none" stroke="black" points="173,-0.5 173,-19.5 307,-19.5 307,-0.5 173,-0.5"/>
<text text-anchor="middle" x="240" y="-7.5" font-family="Helvetica,sans-Serif" font-size="10.00">MapLayers::~MapLayers</text>
</a>
</g>
</g>
<!-- Node1&#45;&gt;Node3 -->
<g id="edge2" class="edge"><title>Node1&#45;&gt;Node3</title>
<path fill="none" stroke="midnightblue" d="M137.465,-21.3815C145.781,-20.4493 154.322,-19.492 162.749,-18.5473"/>
<polygon fill="midnightblue" stroke="midnightblue" points="163.401,-21.9962 172.949,-17.4039 162.622,-15.0398 163.401,-21.9962"/>
</g>
</g>
</svg>
