<?xml version="1.0" encoding="UTF-8" standalone="no"?>
<!DOCTYPE svg PUBLIC "-//W3C//DTD SVG 1.1//EN"
 "http://www.w3.org/Graphics/SVG/1.1/DTD/svg11.dtd">
<!-- Generated by graphviz version 2.38.0 (20140413.2041)
 -->
<!-- Title: Camera::decreaseZoomLevel Pages: 1 -->
<svg width="718pt" height="204pt"
 viewBox="0.00 0.00 718.00 203.96" xmlns="http://www.w3.org/2000/svg" xmlns:xlink="http://www.w3.org/1999/xlink">
<g id="graph0" class="graph" transform="scale(1 1) rotate(0) translate(4 199.961)">
<title>Camera::decreaseZoomLevel</title>
<!-- Node1 -->
<g id="node1" class="node"><title>Node1</title>
<polygon fill="#bfbfbf" stroke="black" points="0,-44.4614 0,-63.4614 159,-63.4614 159,-44.4614 0,-44.4614"/>
<text text-anchor="middle" x="79.5" y="-51.4614" font-family="Helvetica,sans-Serif" font-size="10.00">Camera::decreaseZoomLevel</text>
</g>
<!-- Node2 -->
<g id="node2" class="node"><title>Node2</title>
<g id="a_node2"><a xlink:href="classCamera.html#adfb240823ff20b97b69459490dbd8dc3" target="_top" xlink:title="Centers camera on given isometric coordinates Centers the camera on the given isometric coordinates...">
<polygon fill="none" stroke="black" points="195,-105.461 195,-124.461 358,-124.461 358,-105.461 195,-105.461"/>
<text text-anchor="middle" x="276.5" y="-112.461" font-family="Helvetica,sans-Serif" font-size="10.00">Camera::centerScreenOnPoint</text>
</a>
</g>
</g>
<!-- Node1&#45;&gt;Node2 -->
<g id="edge1" class="edge"><title>Node1&#45;&gt;Node2</title>
<path fill="none" stroke="midnightblue" d="M110.969,-63.4927C144.357,-73.937 198.07,-90.7397 234.988,-102.288"/>
<polygon fill="midnightblue" stroke="midnightblue" points="234.335,-105.751 244.924,-105.397 236.425,-99.0706 234.335,-105.751"/>
</g>
<!-- Node4 -->
<g id="node4" class="node"><title>Node4</title>
<g id="a_node4"><a xlink:href="classSingleton.html#af5cb1e5749949e2b68416cfb8d378044" target="_top" xlink:title="Get an instance of the singleton. ">
<polygon fill="none" stroke="black" points="597,-123.961 597,-153.961 710,-153.961 710,-123.961 597,-123.961"/>
<text text-anchor="start" x="605" y="-141.961" font-family="Helvetica,sans-Serif" font-size="10.00">Singleton&lt; Settings</text>
<text text-anchor="middle" x="653.5" y="-130.961" font-family="Helvetica,sans-Serif" font-size="10.00"> &gt;::instance</text>
</a>
</g>
</g>
<!-- Node1&#45;&gt;Node4 -->
<g id="edge8" class="edge"><title>Node1&#45;&gt;Node4</title>
<path fill="none" stroke="midnightblue" d="M108.986,-44.402C186.033,-20.2657 403.342,36.3206 561,-34.9614 596.947,-51.2142 624.396,-89.3417 639.478,-114.636"/>
<polygon fill="midnightblue" stroke="midnightblue" points="636.628,-116.702 644.644,-123.629 642.698,-113.215 636.628,-116.702"/>
</g>
<!-- Node6 -->
<g id="node6" class="node"><title>Node6</title>
<g id="a_node6"><a xlink:href="classMap.html#ab69938ac0e56eb0da1d1701221f3d185" target="_top" xlink:title="Refresh all the map tile textures. ">
<polygon fill="none" stroke="black" points="439,-44.4614 439,-63.4614 516,-63.4614 516,-44.4614 439,-44.4614"/>
<text text-anchor="middle" x="477.5" y="-51.4614" font-family="Helvetica,sans-Serif" font-size="10.00">Map::refresh</text>
</a>
</g>
</g>
<!-- Node1&#45;&gt;Node6 -->
<g id="edge9" class="edge"><title>Node1&#45;&gt;Node6</title>
<path fill="none" stroke="midnightblue" d="M159.21,-53.9614C239.606,-53.9614 361.835,-53.9614 428.69,-53.9614"/>
<polygon fill="midnightblue" stroke="midnightblue" points="428.929,-57.4615 438.929,-53.9614 428.929,-50.4615 428.929,-57.4615"/>
</g>
<!-- Node3 -->
<g id="node3" class="node"><title>Node3</title>
<g id="a_node3"><a xlink:href="isoMath_8cxx.html#abef3481b8248d064e79f9d0b2a27cfe7" target="_top" xlink:title="Check if given coordinates are within map boundaries Checks if coordinates are within map boundaries...">
<polygon fill="none" stroke="black" points="402,-176.461 402,-195.461 553,-195.461 553,-176.461 402,-176.461"/>
<text text-anchor="middle" x="477.5" y="-183.461" font-family="Helvetica,sans-Serif" font-size="10.00">isPointWithinMapBoundaries</text>
</a>
</g>
</g>
<!-- Node2&#45;&gt;Node3 -->
<g id="edge2" class="edge"><title>Node2&#45;&gt;Node3</title>
<path fill="none" stroke="midnightblue" d="M299.582,-124.643C322.828,-134.652 360.613,-150.403 394,-161.961 405.893,-166.079 418.909,-170.089 431.015,-173.616"/>
<polygon fill="midnightblue" stroke="midnightblue" points="430.348,-177.066 440.925,-176.456 432.276,-170.337 430.348,-177.066"/>
</g>
<!-- Node2&#45;&gt;Node4 -->
<g id="edge5" class="edge"><title>Node2&#45;&gt;Node4</title>
<path fill="none" stroke="midnightblue" d="M358.408,-114.472C426.632,-117.276 523.049,-123.576 586.634,-129.463"/>
<polygon fill="midnightblue" stroke="midnightblue" points="586.651,-132.981 596.938,-130.442 587.314,-126.012 586.651,-132.981"/>
</g>
<!-- Node2&#45;&gt;Node4 -->
<g id="edge6" class="edge"><title>Node2&#45;&gt;Node4</title>
<path fill="none" stroke="midnightblue" d="M343.679,-124.488C412.078,-130.813 518.225,-137.604 586.542,-140.025"/>
<polygon fill="midnightblue" stroke="midnightblue" points="586.644,-143.53 596.754,-140.363 586.875,-136.534 586.644,-143.53"/>
</g>
<!-- Node5 -->
<g id="node5" class="node"><title>Node5</title>
<g id="a_node5"><a xlink:href="isoMath_8cxx.html#a229d5dd54cd4e1f43ed5911e4fd266d3" target="_top" xlink:title="converts coordinates from isometric to screen space The given isometric coordinates (which contain he...">
<polygon fill="none" stroke="black" points="394,-82.4614 394,-101.461 561,-101.461 561,-82.4614 394,-82.4614"/>
<text text-anchor="middle" x="477.5" y="-89.4614" font-family="Helvetica,sans-Serif" font-size="10.00">convertIsoToScreenCoordinates</text>
</a>
</g>
</g>
<!-- Node2&#45;&gt;Node5 -->
<g id="edge4" class="edge"><title>Node2&#45;&gt;Node5</title>
<path fill="none" stroke="midnightblue" d="M358.154,-105.64C366.672,-104.655 375.382,-103.648 384.02,-102.65"/>
<polygon fill="midnightblue" stroke="midnightblue" points="384.58,-106.109 394.112,-101.484 383.777,-99.155 384.58,-106.109"/>
</g>
<!-- Node2&#45;&gt;Node6 -->
<g id="edge7" class="edge"><title>Node2&#45;&gt;Node6</title>
<path fill="none" stroke="midnightblue" d="M301.319,-105.425C324.672,-96.302 361.412,-82.5509 394,-72.9614 405.233,-69.6561 417.464,-66.568 428.984,-63.882"/>
<polygon fill="midnightblue" stroke="midnightblue" points="429.907,-67.2614 438.881,-61.6297 428.354,-60.4359 429.907,-67.2614"/>
</g>
<!-- Node3&#45;&gt;Node4 -->
<g id="edge3" class="edge"><title>Node3&#45;&gt;Node4</title>
<path fill="none" stroke="midnightblue" d="M513.711,-176.45C534.751,-170.767 562.145,-163.368 587.03,-156.646"/>
<polygon fill="midnightblue" stroke="midnightblue" points="588.046,-159.997 596.787,-154.01 586.221,-153.239 588.046,-159.997"/>
</g>
</g>
</svg>
