<?xml version="1.0" encoding="UTF-8" standalone="no"?>
<!DOCTYPE svg PUBLIC "-//W3C//DTD SVG 1.1//EN"
 "http://www.w3.org/Graphics/SVG/1.1/DTD/svg11.dtd">
<!-- Generated by graphviz version 2.38.0 (20140413.2041)
 -->
<!-- Title: ResourcesManager::ResourcesManager Pages: 1 -->
<svg width="713pt" height="110pt"
 viewBox="0.00 0.00 713.00 110.00" xmlns="http://www.w3.org/2000/svg" xmlns:xlink="http://www.w3.org/1999/xlink">
<g id="graph0" class="graph" transform="scale(1 1) rotate(0) translate(4 106)">
<title>ResourcesManager::ResourcesManager</title>
<!-- Node1 -->
<g id="node1" class="node"><title>Node1</title>
<polygon fill="#bfbfbf" stroke="black" points="0,-49.5 0,-79.5 162,-79.5 162,-49.5 0,-49.5"/>
<text text-anchor="start" x="8" y="-67.5" font-family="Helvetica,sans-Serif" font-size="10.00">ResourcesManager::Resources</text>
<text text-anchor="middle" x="81" y="-56.5" font-family="Helvetica,sans-Serif" font-size="10.00">Manager</text>
</g>
<!-- Node2 -->
<g id="node2" class="node"><title>Node2</title>
<g id="a_node2"><a xlink:href="classResourcesManager.html#ac221a499e20ca7aedd00028842c7a101" target="_top" xlink:title="ResourcesManager::loadUITexture">
<polygon fill="none" stroke="black" points="198,-55 198,-74 376,-74 376,-55 198,-55"/>
<text text-anchor="middle" x="287" y="-62" font-family="Helvetica,sans-Serif" font-size="10.00">ResourcesManager::loadUITexture</text>
</a>
</g>
</g>
<!-- Node1&#45;&gt;Node2 -->
<g id="edge1" class="edge"><title>Node1&#45;&gt;Node2</title>
<path fill="none" stroke="midnightblue" d="M162.041,-64.5C170.465,-64.5 179.099,-64.5 187.698,-64.5"/>
<polygon fill="midnightblue" stroke="midnightblue" points="187.761,-68.0001 197.761,-64.5 187.761,-61.0001 187.761,-68.0001"/>
</g>
<!-- Node3 -->
<g id="node3" class="node"><title>Node3</title>
<g id="a_node3"><a xlink:href="classSingleton.html#af5cb1e5749949e2b68416cfb8d378044" target="_top" xlink:title="Get an instance of the singleton. ">
<polygon fill="none" stroke="black" points="592,-71.5 592,-101.5 705,-101.5 705,-71.5 592,-71.5"/>
<text text-anchor="start" x="600" y="-89.5" font-family="Helvetica,sans-Serif" font-size="10.00">Singleton&lt; Settings</text>
<text text-anchor="middle" x="648.5" y="-78.5" font-family="Helvetica,sans-Serif" font-size="10.00"> &gt;::instance</text>
</a>
</g>
</g>
<!-- Node2&#45;&gt;Node3 -->
<g id="edge2" class="edge"><title>Node2&#45;&gt;Node3</title>
<path fill="none" stroke="midnightblue" d="M325.147,-74.0024C349.629,-79.7645 382.499,-86.5558 412,-89.5 475.684,-95.8558 492.009,-90.5488 556,-89.5 564.338,-89.3633 573.102,-89.1567 581.767,-88.9145"/>
<polygon fill="midnightblue" stroke="midnightblue" points="581.97,-92.4101 591.862,-88.6158 581.763,-85.4131 581.97,-92.4101"/>
</g>
<!-- Node4 -->
<g id="node4" class="node"><title>Node4</title>
<g id="a_node4"><a xlink:href="classResourcesManager.html#ad7712ca96233a151d8bc22cd2ba17d01" target="_top" xlink:title="ResourcesManager::create\lTextureFromSurface">
<polygon fill="none" stroke="black" points="412,-49.5 412,-79.5 556,-79.5 556,-49.5 412,-49.5"/>
<text text-anchor="start" x="420" y="-67.5" font-family="Helvetica,sans-Serif" font-size="10.00">ResourcesManager::create</text>
<text text-anchor="middle" x="484" y="-56.5" font-family="Helvetica,sans-Serif" font-size="10.00">TextureFromSurface</text>
</a>
</g>
</g>
<!-- Node2&#45;&gt;Node4 -->
<g id="edge3" class="edge"><title>Node2&#45;&gt;Node4</title>
<path fill="none" stroke="midnightblue" d="M376.087,-64.5C384.626,-64.5 393.262,-64.5 401.73,-64.5"/>
<polygon fill="midnightblue" stroke="midnightblue" points="401.958,-68.0001 411.958,-64.5 401.958,-61.0001 401.958,-68.0001"/>
</g>
<!-- Node5 -->
<g id="node5" class="node"><title>Node5</title>
<g id="a_node5"><a xlink:href="classResourcesManager.html#a54721d26f52c4887b735d2cdaf60b078" target="_top" xlink:title="ResourcesManager::create\lSurfaceFromFile">
<polygon fill="none" stroke="black" points="412,-0.5 412,-30.5 556,-30.5 556,-0.5 412,-0.5"/>
<text text-anchor="start" x="420" y="-18.5" font-family="Helvetica,sans-Serif" font-size="10.00">ResourcesManager::create</text>
<text text-anchor="middle" x="484" y="-7.5" font-family="Helvetica,sans-Serif" font-size="10.00">SurfaceFromFile</text>
</a>
</g>
</g>
<!-- Node2&#45;&gt;Node5 -->
<g id="edge5" class="edge"><title>Node2&#45;&gt;Node5</title>
<path fill="none" stroke="midnightblue" d="M326.061,-54.936C350.856,-48.7053 383.945,-40.3906 413.347,-33.0026"/>
<polygon fill="midnightblue" stroke="midnightblue" points="414.314,-36.3686 423.159,-30.537 412.608,-29.5796 414.314,-36.3686"/>
</g>
<!-- Node4&#45;&gt;Node3 -->
<g id="edge4" class="edge"><title>Node4&#45;&gt;Node3</title>
<path fill="none" stroke="midnightblue" d="M556.275,-74.1495C564.763,-75.2986 573.398,-76.4677 581.802,-77.6055"/>
<polygon fill="midnightblue" stroke="midnightblue" points="581.535,-81.1012 591.914,-78.9745 582.474,-74.1645 581.535,-81.1012"/>
</g>
</g>
</svg>
