<?xml version="1.0" encoding="UTF-8" standalone="no"?>
<!DOCTYPE svg PUBLIC "-//W3C//DTD SVG 1.1//EN"
 "http://www.w3.org/Graphics/SVG/1.1/DTD/svg11.dtd">
<!-- Generated by graphviz version 2.38.0 (20140413.2041)
 -->
<!-- Title: Text::createTextTexture Pages: 1 -->
<svg width="610pt" height="142pt"
 viewBox="0.00 0.00 610.00 142.00" xmlns="http://www.w3.org/2000/svg" xmlns:xlink="http://www.w3.org/1999/xlink">
<g id="graph0" class="graph" transform="scale(1 1) rotate(0) translate(4 138)">
<title>Text::createTextTexture</title>
<!-- Node1 -->
<g id="node1" class="node"><title>Node1</title>
<polygon fill="#bfbfbf" stroke="black" points="0,-38.5 0,-57.5 125,-57.5 125,-38.5 0,-38.5"/>
<text text-anchor="middle" x="62.5" y="-45.5" font-family="Helvetica,sans-Serif" font-size="10.00">Text::createTextTexture</text>
</g>
<!-- Node2 -->
<g id="node2" class="node"><title>Node2</title>
<g id="a_node2"><a xlink:href="classText.html#a14b9f0937696af5fd95317eb8313bf92" target="_top" xlink:title="sets the text for this text widget. ">
<polygon fill="none" stroke="black" points="172.5,-57.5 172.5,-76.5 247.5,-76.5 247.5,-57.5 172.5,-57.5"/>
<text text-anchor="middle" x="210" y="-64.5" font-family="Helvetica,sans-Serif" font-size="10.00">Text::setText</text>
</a>
</g>
</g>
<!-- Node1&#45;&gt;Node2 -->
<g id="edge1" class="edge"><title>Node1&#45;&gt;Node2</title>
<path fill="none" stroke="midnightblue" d="M135.468,-57.3979C148.312,-59.0751 161.188,-60.7565 172.495,-62.2331"/>
<polygon fill="midnightblue" stroke="midnightblue" points="135.574,-53.8821 125.205,-56.0577 134.668,-60.8232 135.574,-53.8821"/>
</g>
<!-- Node9 -->
<g id="node9" class="node"><title>Node9</title>
<g id="a_node9"><a xlink:href="classText.html#a90f4b07ebc70aa8340d7baaf86ee9032" target="_top" xlink:title="gets the Font size of this element gets the font size of the element ">
<polygon fill="none" stroke="black" points="161,-19.5 161,-38.5 259,-38.5 259,-19.5 161,-19.5"/>
<text text-anchor="middle" x="210" y="-26.5" font-family="Helvetica,sans-Serif" font-size="10.00">Text::getFontSize</text>
</a>
</g>
</g>
<!-- Node1&#45;&gt;Node9 -->
<g id="edge9" class="edge"><title>Node1&#45;&gt;Node9</title>
<path fill="none" stroke="midnightblue" d="M135.336,-38.6194C143.998,-37.4883 152.677,-36.3549 160.882,-35.2834"/>
<polygon fill="midnightblue" stroke="midnightblue" points="134.668,-35.1768 125.205,-39.9423 135.574,-42.1179 134.668,-35.1768"/>
</g>
<!-- Node3 -->
<g id="node3" class="node"><title>Node3</title>
<g id="a_node3"><a xlink:href="classText.html#a398a47abd355749d9e99bf74aa6a4a8d" target="_top" xlink:title="Sets the Font size of this element. ">
<polygon fill="none" stroke="black" points="297,-114.5 297,-133.5 395,-133.5 395,-114.5 297,-114.5"/>
<text text-anchor="middle" x="346" y="-121.5" font-family="Helvetica,sans-Serif" font-size="10.00">Text::setFontSize</text>
</a>
</g>
</g>
<!-- Node2&#45;&gt;Node3 -->
<g id="edge2" class="edge"><title>Node2&#45;&gt;Node3</title>
<path fill="none" stroke="midnightblue" d="M242.688,-80.4793C267.235,-90.9208 300.636,-105.129 322.498,-114.428"/>
<polygon fill="midnightblue" stroke="midnightblue" points="244.001,-77.2342 233.429,-76.5405 241.261,-83.6756 244.001,-77.2342"/>
</g>
<!-- Node4 -->
<g id="node4" class="node"><title>Node4</title>
<g id="a_node4"><a xlink:href="classText.html#ab3e26143fccc52699bcc5149cae852bc" target="_top" xlink:title="default Constructor ">
<polygon fill="none" stroke="black" points="449,-95.5 449,-114.5 509,-114.5 509,-95.5 449,-95.5"/>
<text text-anchor="middle" x="479" y="-102.5" font-family="Helvetica,sans-Serif" font-size="10.00">Text::Text</text>
</a>
</g>
</g>
<!-- Node2&#45;&gt;Node4 -->
<g id="edge4" class="edge"><title>Node2&#45;&gt;Node4</title>
<path fill="none" stroke="midnightblue" d="M257.769,-73.6563C312.895,-81.502 402.809,-94.2986 448.837,-100.85"/>
<polygon fill="midnightblue" stroke="midnightblue" points="257.959,-70.1481 247.565,-72.2041 256.972,-77.0782 257.959,-70.1481"/>
</g>
<!-- Node5 -->
<g id="node5" class="node"><title>Node5</title>
<g id="a_node5"><a xlink:href="classTextField.html#abe03b4b6ebf469645940cfa018bcdca2" target="_top" xlink:title="TextField::addText">
<polygon fill="none" stroke="black" points="296.5,-38.5 296.5,-57.5 395.5,-57.5 395.5,-38.5 296.5,-38.5"/>
<text text-anchor="middle" x="346" y="-45.5" font-family="Helvetica,sans-Serif" font-size="10.00">TextField::addText</text>
</a>
</g>
</g>
<!-- Node2&#45;&gt;Node5 -->
<g id="edge5" class="edge"><title>Node2&#45;&gt;Node5</title>
<path fill="none" stroke="midnightblue" d="M257.81,-60.3627C270.286,-58.5938 283.791,-56.6788 296.362,-54.8964"/>
<polygon fill="midnightblue" stroke="midnightblue" points="257.026,-56.9389 247.616,-61.8082 258.008,-63.8696 257.026,-56.9389"/>
</g>
<!-- Node6 -->
<g id="node6" class="node"><title>Node6</title>
<g id="a_node6"><a xlink:href="classGame.html#a5ed7fc5be77080f7f6dd5363f7f007a1" target="_top" xlink:title="Game::mainMenu">
<polygon fill="none" stroke="black" points="295,-0.5 295,-19.5 397,-19.5 397,-0.5 295,-0.5"/>
<text text-anchor="middle" x="346" y="-7.5" font-family="Helvetica,sans-Serif" font-size="10.00">Game::mainMenu</text>
</a>
</g>
</g>
<!-- Node2&#45;&gt;Node6 -->
<g id="edge6" class="edge"><title>Node2&#45;&gt;Node6</title>
<path fill="none" stroke="midnightblue" d="M246.088,-53.6241C250.466,-51.8049 254.858,-49.906 259,-48 275.435,-40.4373 278.513,-36.4494 295,-29 302.362,-25.6734 310.495,-22.4135 318.025,-19.5591"/>
<polygon fill="midnightblue" stroke="midnightblue" points="244.585,-50.4567 236.627,-57.4514 247.21,-56.9459 244.585,-50.4567"/>
</g>
<!-- Node3&#45;&gt;Node4 -->
<g id="edge3" class="edge"><title>Node3&#45;&gt;Node4</title>
<path fill="none" stroke="midnightblue" d="M405.3,-115.544C420.301,-113.369 435.812,-111.119 448.634,-109.259"/>
<polygon fill="midnightblue" stroke="midnightblue" points="404.43,-112.134 395.036,-117.033 405.435,-119.061 404.43,-112.134"/>
</g>
<!-- Node7 -->
<g id="node7" class="node"><title>Node7</title>
<g id="a_node7"><a xlink:href="main_8cxx.html#af582d708d899e67ead623eac34a22387" target="_top" xlink:title="protected_main">
<polygon fill="none" stroke="black" points="433,-0.5 433,-19.5 525,-19.5 525,-0.5 433,-0.5"/>
<text text-anchor="middle" x="479" y="-7.5" font-family="Helvetica,sans-Serif" font-size="10.00">protected_main</text>
</a>
</g>
</g>
<!-- Node6&#45;&gt;Node7 -->
<g id="edge7" class="edge"><title>Node6&#45;&gt;Node7</title>
<path fill="none" stroke="midnightblue" d="M407.543,-10C416.039,-10 424.647,-10 432.791,-10"/>
<polygon fill="midnightblue" stroke="midnightblue" points="407.273,-6.5001 397.273,-10 407.273,-13.5001 407.273,-6.5001"/>
</g>
<!-- Node8 -->
<g id="node8" class="node"><title>Node8</title>
<g id="a_node8"><a xlink:href="main_8cxx.html#a3c04138a5bfe5d72780bb7e82a18e627" target="_top" xlink:title="main">
<polygon fill="none" stroke="black" points="561,-0.5 561,-19.5 602,-19.5 602,-0.5 561,-0.5"/>
<text text-anchor="middle" x="581.5" y="-7.5" font-family="Helvetica,sans-Serif" font-size="10.00">main</text>
</a>
</g>
</g>
<!-- Node7&#45;&gt;Node8 -->
<g id="edge8" class="edge"><title>Node7&#45;&gt;Node8</title>
<path fill="none" stroke="midnightblue" d="M535.539,-10C544.619,-10 553.466,-10 560.877,-10"/>
<polygon fill="midnightblue" stroke="midnightblue" points="535.252,-6.5001 525.252,-10 535.252,-13.5001 535.252,-6.5001"/>
</g>
</g>
</svg>
