<?xml version="1.0" encoding="UTF-8" standalone="no"?>
<!DOCTYPE svg PUBLIC "-//W3C//DTD SVG 1.1//EN"
 "http://www.w3.org/Graphics/SVG/1.1/DTD/svg11.dtd">
<!-- Generated by graphviz version 2.38.0 (20140413.2041)
 -->
<!-- Title: Camera::increaseZoomLevel Pages: 1 -->
<svg width="839pt" height="47pt"
 viewBox="0.00 0.00 839.00 47.00" xmlns="http://www.w3.org/2000/svg" xmlns:xlink="http://www.w3.org/1999/xlink">
<g id="graph0" class="graph" transform="scale(1 1) rotate(0) translate(4 43)">
<title>Camera::increaseZoomLevel</title>
<!-- Node1 -->
<g id="node1" class="node"><title>Node1</title>
<polygon fill="#bfbfbf" stroke="black" points="0,-0.5 0,-19.5 155,-19.5 155,-0.5 0,-0.5"/>
<text text-anchor="middle" x="77.5" y="-7.5" font-family="Helvetica,sans-Serif" font-size="10.00">Camera::increaseZoomLevel</text>
</g>
<!-- Node2 -->
<g id="node2" class="node"><title>Node2</title>
<g id="a_node2"><a xlink:href="classCamera.html#a1f8ecd427814c5a4970223c2d13b9310" target="_top" xlink:title="Camera::setPinchDistance">
<polygon fill="none" stroke="black" points="191,-19.5 191,-38.5 334,-38.5 334,-19.5 191,-19.5"/>
<text text-anchor="middle" x="262.5" y="-26.5" font-family="Helvetica,sans-Serif" font-size="10.00">Camera::setPinchDistance</text>
</a>
</g>
</g>
<!-- Node1&#45;&gt;Node2 -->
<g id="edge1" class="edge"><title>Node1&#45;&gt;Node2</title>
<path fill="none" stroke="midnightblue" d="M165.111,-18.9924C173.721,-19.8863 182.389,-20.7863 190.809,-21.6605"/>
<polygon fill="midnightblue" stroke="midnightblue" points="165.356,-15.4991 155.048,-17.9476 164.633,-22.4617 165.356,-15.4991"/>
</g>
<!-- Node3 -->
<g id="node3" class="node"><title>Node3</title>
<g id="a_node3"><a xlink:href="classEventManager.html#a65ec91fd5016d4f9c4167fb8babed2df" target="_top" xlink:title="EventManager::checkEvents">
<polygon fill="none" stroke="black" points="370,-0.5 370,-19.5 522,-19.5 522,-0.5 370,-0.5"/>
<text text-anchor="middle" x="446" y="-7.5" font-family="Helvetica,sans-Serif" font-size="10.00">EventManager::checkEvents</text>
</a>
</g>
</g>
<!-- Node1&#45;&gt;Node3 -->
<g id="edge6" class="edge"><title>Node1&#45;&gt;Node3</title>
<path fill="none" stroke="midnightblue" d="M165.516,-10C227.7,-10 310.525,-10 369.839,-10"/>
<polygon fill="midnightblue" stroke="midnightblue" points="165.33,-6.5001 155.33,-10 165.33,-13.5001 165.33,-6.5001"/>
</g>
<!-- Node2&#45;&gt;Node3 -->
<g id="edge2" class="edge"><title>Node2&#45;&gt;Node3</title>
<path fill="none" stroke="midnightblue" d="M344.388,-20.5324C352.809,-19.6508 361.345,-18.7573 369.701,-17.8826"/>
<polygon fill="midnightblue" stroke="midnightblue" points="343.774,-17.0775 334.192,-21.5997 344.502,-24.0394 343.774,-17.0775"/>
</g>
<!-- Node4 -->
<g id="node4" class="node"><title>Node4</title>
<g id="a_node4"><a xlink:href="classGame.html#a1c2ab25d5216b2f4b2fe41efd2c09114" target="_top" xlink:title="Game::run">
<polygon fill="none" stroke="black" points="558,-0.5 558,-19.5 626,-19.5 626,-0.5 558,-0.5"/>
<text text-anchor="middle" x="592" y="-7.5" font-family="Helvetica,sans-Serif" font-size="10.00">Game::run</text>
</a>
</g>
</g>
<!-- Node3&#45;&gt;Node4 -->
<g id="edge3" class="edge"><title>Node3&#45;&gt;Node4</title>
<path fill="none" stroke="midnightblue" d="M532.473,-10C541.339,-10 549.922,-10 557.658,-10"/>
<polygon fill="midnightblue" stroke="midnightblue" points="532.374,-6.5001 522.374,-10 532.374,-13.5001 532.374,-6.5001"/>
</g>
<!-- Node5 -->
<g id="node5" class="node"><title>Node5</title>
<g id="a_node5"><a xlink:href="main_8cxx.html#af582d708d899e67ead623eac34a22387" target="_top" xlink:title="protected_main">
<polygon fill="none" stroke="black" points="662,-0.5 662,-19.5 754,-19.5 754,-0.5 662,-0.5"/>
<text text-anchor="middle" x="708" y="-7.5" font-family="Helvetica,sans-Serif" font-size="10.00">protected_main</text>
</a>
</g>
</g>
<!-- Node4&#45;&gt;Node5 -->
<g id="edge4" class="edge"><title>Node4&#45;&gt;Node5</title>
<path fill="none" stroke="midnightblue" d="M636.44,-10C644.674,-10 653.308,-10 661.601,-10"/>
<polygon fill="midnightblue" stroke="midnightblue" points="636.28,-6.5001 626.28,-10 636.28,-13.5001 636.28,-6.5001"/>
</g>
<!-- Node6 -->
<g id="node6" class="node"><title>Node6</title>
<g id="a_node6"><a xlink:href="main_8cxx.html#a3c04138a5bfe5d72780bb7e82a18e627" target="_top" xlink:title="main">
<polygon fill="none" stroke="black" points="790,-0.5 790,-19.5 831,-19.5 831,-0.5 790,-0.5"/>
<text text-anchor="middle" x="810.5" y="-7.5" font-family="Helvetica,sans-Serif" font-size="10.00">main</text>
</a>
</g>
</g>
<!-- Node5&#45;&gt;Node6 -->
<g id="edge5" class="edge"><title>Node5&#45;&gt;Node6</title>
<path fill="none" stroke="midnightblue" d="M764.539,-10C773.619,-10 782.466,-10 789.877,-10"/>
<polygon fill="midnightblue" stroke="midnightblue" points="764.252,-6.5001 754.252,-10 764.252,-13.5001 764.252,-6.5001"/>
</g>
</g>
</svg>
