<?xml version="1.0" encoding="UTF-8" standalone="no"?>
<!DOCTYPE svg PUBLIC "-//W3C//DTD SVG 1.1//EN"
 "http://www.w3.org/Graphics/SVG/1.1/DTD/svg11.dtd">
<!-- Generated by graphviz version 2.38.0 (20140413.2041)
 -->
<!-- Title: Map::isClickWithinTile Pages: 1 -->
<svg width="491pt" height="165pt"
 viewBox="0.00 0.00 491.00 165.00" xmlns="http://www.w3.org/2000/svg" xmlns:xlink="http://www.w3.org/1999/xlink">
<g id="graph0" class="graph" transform="scale(1 1) rotate(0) translate(4 161)">
<title>Map::isClickWithinTile</title>
<!-- Node1 -->
<g id="node1" class="node"><title>Node1</title>
<polygon fill="#bfbfbf" stroke="black" points="0,-88 0,-107 116,-107 116,-88 0,-88"/>
<text text-anchor="middle" x="58" y="-95" font-family="Helvetica,sans-Serif" font-size="10.00">Map::isClickWithinTile</text>
</g>
<!-- Node2 -->
<g id="node2" class="node"><title>Node2</title>
<g id="a_node2"><a xlink:href="classSingleton.html#af5cb1e5749949e2b68416cfb8d378044" target="_top" xlink:title="Get an instance of the singleton. ">
<polygon fill="none" stroke="black" points="176,-126.5 176,-156.5 289,-156.5 289,-126.5 176,-126.5"/>
<text text-anchor="start" x="184" y="-144.5" font-family="Helvetica,sans-Serif" font-size="10.00">Singleton&lt; Settings</text>
<text text-anchor="middle" x="232.5" y="-133.5" font-family="Helvetica,sans-Serif" font-size="10.00"> &gt;::instance</text>
</a>
</g>
</g>
<!-- Node1&#45;&gt;Node2 -->
<g id="edge1" class="edge"><title>Node1&#45;&gt;Node2</title>
<path fill="none" stroke="midnightblue" d="M116.44,-105.748C138.692,-110.869 163.835,-117.394 184.929,-123.551"/>
<polygon fill="midnightblue" stroke="midnightblue" points="184.035,-126.937 194.618,-126.441 186.036,-120.229 184.035,-126.937"/>
</g>
<!-- Node1&#45;&gt;Node2 -->
<g id="edge6" class="edge"><title>Node1&#45;&gt;Node2</title>
<path fill="none" stroke="midnightblue" d="M78.7879,-107.041C100.029,-114.384 134.916,-123.976 165.987,-131.363"/>
<polygon fill="midnightblue" stroke="midnightblue" points="165.385,-134.816 175.918,-133.678 166.974,-127.999 165.385,-134.816"/>
</g>
<!-- Node3 -->
<g id="node3" class="node"><title>Node3</title>
<g id="a_node3"><a xlink:href="classMapLayers.html#a1d810628821913c499b8348107b66891" target="_top" xlink:title="Check if given Layer is being drawn. ">
<polygon fill="none" stroke="black" points="164,-88 164,-107 301,-107 301,-88 164,-88"/>
<text text-anchor="middle" x="232.5" y="-95" font-family="Helvetica,sans-Serif" font-size="10.00">MapLayers::isLayerActive</text>
</a>
</g>
</g>
<!-- Node1&#45;&gt;Node3 -->
<g id="edge2" class="edge"><title>Node1&#45;&gt;Node3</title>
<path fill="none" stroke="midnightblue" d="M116.44,-97.5C128.427,-97.5 141.253,-97.5 153.832,-97.5"/>
<polygon fill="midnightblue" stroke="midnightblue" points="153.848,-101 163.848,-97.5 153.847,-94.0001 153.848,-101"/>
</g>
<!-- Node6 -->
<g id="node6" class="node"><title>Node6</title>
<g id="a_node6"><a xlink:href="classMap.html#a7a58d0e00e4990a1234a0afb5fd8be4f" target="_top" xlink:title="Map::getColorOfPixelInSurface">
<polygon fill="none" stroke="black" points="152,-50 152,-69 313,-69 313,-50 152,-50"/>
<text text-anchor="middle" x="232.5" y="-57" font-family="Helvetica,sans-Serif" font-size="10.00">Map::getColorOfPixelInSurface</text>
</a>
</g>
</g>
<!-- Node1&#45;&gt;Node6 -->
<g id="edge5" class="edge"><title>Node1&#45;&gt;Node6</title>
<path fill="none" stroke="midnightblue" d="M102.529,-87.911C125.6,-82.8287 154.127,-76.5446 178.481,-71.1797"/>
<polygon fill="midnightblue" stroke="midnightblue" points="179.271,-74.5895 188.284,-69.0201 177.765,-67.7534 179.271,-74.5895"/>
</g>
<!-- Node7 -->
<g id="node7" class="node"><title>Node7</title>
<g id="a_node7"><a xlink:href="classResourcesManager.html#ad84710588e607e440931c6956a14aac7" target="_top" xlink:title="ResourcesManager::getTile\lSurface">
<polygon fill="none" stroke="black" points="160,-0.5 160,-30.5 305,-30.5 305,-0.5 160,-0.5"/>
<text text-anchor="start" x="168" y="-18.5" font-family="Helvetica,sans-Serif" font-size="10.00">ResourcesManager::getTile</text>
<text text-anchor="middle" x="232.5" y="-7.5" font-family="Helvetica,sans-Serif" font-size="10.00">Surface</text>
</a>
</g>
</g>
<!-- Node1&#45;&gt;Node7 -->
<g id="edge7" class="edge"><title>Node1&#45;&gt;Node7</title>
<path fill="none" stroke="midnightblue" d="M72.2822,-87.9046C89.825,-75.5798 122.012,-54.1542 152,-40.5 157.02,-38.2142 162.308,-36.0548 167.673,-34.0348"/>
<polygon fill="midnightblue" stroke="midnightblue" points="169.143,-37.2259 177.372,-30.5522 166.777,-30.6378 169.143,-37.2259"/>
</g>
<!-- Node4 -->
<g id="node4" class="node"><title>Node4</title>
<g id="a_node4"><a xlink:href="classMapLayers.html#a53d7fcd90e70eaf36239d7a75c0c5dda" target="_top" xlink:title="MapLayers::MapLayers">
<polygon fill="none" stroke="black" points="353,-107 353,-126 479,-126 479,-107 353,-107"/>
<text text-anchor="middle" x="416" y="-114" font-family="Helvetica,sans-Serif" font-size="10.00">MapLayers::MapLayers</text>
</a>
</g>
</g>
<!-- Node3&#45;&gt;Node4 -->
<g id="edge3" class="edge"><title>Node3&#45;&gt;Node4</title>
<path fill="none" stroke="midnightblue" d="M301.084,-104.575C314.577,-105.987 328.802,-107.477 342.454,-108.906"/>
<polygon fill="midnightblue" stroke="midnightblue" points="342.45,-112.424 352.76,-109.985 343.179,-105.462 342.45,-112.424"/>
</g>
<!-- Node5 -->
<g id="node5" class="node"><title>Node5</title>
<g id="a_node5"><a xlink:href="classMapLayers.html#aa7fa21110e27ec69f131692b0a510d66" target="_top" xlink:title="MapLayers::~MapLayers">
<polygon fill="none" stroke="black" points="349,-69 349,-88 483,-88 483,-69 349,-69"/>
<text text-anchor="middle" x="416" y="-76" font-family="Helvetica,sans-Serif" font-size="10.00">MapLayers::~MapLayers</text>
</a>
</g>
</g>
<!-- Node3&#45;&gt;Node5 -->
<g id="edge4" class="edge"><title>Node3&#45;&gt;Node5</title>
<path fill="none" stroke="midnightblue" d="M301.084,-90.4251C313.411,-89.1347 326.349,-87.7803 338.902,-86.4662"/>
<polygon fill="midnightblue" stroke="midnightblue" points="339.287,-89.9451 348.869,-85.4228 338.558,-82.9831 339.287,-89.9451"/>
</g>
</g>
</svg>
