<?xml version="1.0" encoding="UTF-8" standalone="no"?>
<!DOCTYPE svg PUBLIC "-//W3C//DTD SVG 1.1//EN"
 "http://www.w3.org/Graphics/SVG/1.1/DTD/svg11.dtd">
<!-- Generated by graphviz version 2.38.0 (20140413.2041)
 -->
<!-- Title: Timer::setTimer Pages: 1 -->
<svg width="240pt" height="66pt"
 viewBox="0.00 0.00 240.00 66.00" xmlns="http://www.w3.org/2000/svg" xmlns:xlink="http://www.w3.org/1999/xlink">
<g id="graph0" class="graph" transform="scale(1 1) rotate(0) translate(4 62)">
<title>Timer::setTimer</title>
<!-- Node1 -->
<g id="node1" class="node"><title>Node1</title>
<polygon fill="#bfbfbf" stroke="black" points="0,-19.5 0,-38.5 92,-38.5 92,-19.5 0,-19.5"/>
<text text-anchor="middle" x="46" y="-26.5" font-family="Helvetica,sans-Serif" font-size="10.00">Timer::setTimer</text>
</g>
<!-- Node2 -->
<g id="node2" class="node"><title>Node2</title>
<g id="a_node2"><a xlink:href="classTimer.html#acbaf9b17b31bdd2dbcbad131f9e93bef" target="_top" xlink:title="Checks if the time is done. Returns true, if the timer has reached 0. ">
<polygon fill="none" stroke="black" points="128,-38.5 128,-57.5 232,-57.5 232,-38.5 128,-38.5"/>
<text text-anchor="middle" x="180" y="-45.5" font-family="Helvetica,sans-Serif" font-size="10.00">Timer::isTimedOut</text>
</a>
</g>
</g>
<!-- Node1&#45;&gt;Node2 -->
<g id="edge1" class="edge"><title>Node1&#45;&gt;Node2</title>
<path fill="none" stroke="midnightblue" d="M102.23,-36.9498C110.701,-38.169 119.414,-39.4233 127.793,-40.6292"/>
<polygon fill="midnightblue" stroke="midnightblue" points="102.454,-33.4461 92.0577,-35.4856 101.457,-40.3747 102.454,-33.4461"/>
</g>
<!-- Node3 -->
<g id="node3" class="node"><title>Node3</title>
<g id="a_node3"><a xlink:href="classTooltip.html#a46a4bafd52456186b1fc7f48a554f8ef" target="_top" xlink:title="Tooltip::Tooltip">
<polygon fill="none" stroke="black" points="138.5,-0.5 138.5,-19.5 221.5,-19.5 221.5,-0.5 138.5,-0.5"/>
<text text-anchor="middle" x="180" y="-7.5" font-family="Helvetica,sans-Serif" font-size="10.00">Tooltip::Tooltip</text>
</a>
</g>
</g>
<!-- Node1&#45;&gt;Node3 -->
<g id="edge2" class="edge"><title>Node1&#45;&gt;Node3</title>
<path fill="none" stroke="midnightblue" d="M102.053,-21.0758C114.136,-19.3365 126.723,-17.5247 138.133,-15.8824"/>
<polygon fill="midnightblue" stroke="midnightblue" points="101.457,-17.6253 92.0577,-22.5144 102.454,-24.5539 101.457,-17.6253"/>
</g>
</g>
</svg>
