<?xml version="1.0" encoding="UTF-8" standalone="no"?>
<!DOCTYPE svg PUBLIC "-//W3C//DTD SVG 1.1//EN"
 "http://www.w3.org/Graphics/SVG/1.1/DTD/svg11.dtd">
<!-- Generated by graphviz version 2.38.0 (20140413.2041)
 -->
<!-- Title: LOG::operator&lt;&lt; Pages: 1 -->
<svg width="401pt" height="28pt"
 viewBox="0.00 0.00 401.00 28.00" xmlns="http://www.w3.org/2000/svg" xmlns:xlink="http://www.w3.org/1999/xlink">
<g id="graph0" class="graph" transform="scale(1 1) rotate(0) translate(4 24)">
<title>LOG::operator&lt;&lt;</title>
<!-- Node1 -->
<g id="node1" class="node"><title>Node1</title>
<polygon fill="#bfbfbf" stroke="black" points="0,-0.5 0,-19.5 101,-19.5 101,-0.5 0,-0.5"/>
<text text-anchor="middle" x="50.5" y="-7.5" font-family="Helvetica,sans-Serif" font-size="10.00">LOG::operator&lt;&lt;</text>
</g>
<!-- Node2 -->
<g id="node2" class="node"><title>Node2</title>
<g id="a_node2"><a xlink:href="classLOG.html#a6fc1e3db47b4b54e899cf480f8a2306f" target="_top" xlink:title="Write log message to error.log file Write log message to error.log file. ">
<polygon fill="none" stroke="black" points="137,-0.5 137,-19.5 243,-19.5 243,-0.5 137,-0.5"/>
<text text-anchor="middle" x="190" y="-7.5" font-family="Helvetica,sans-Serif" font-size="10.00">LOG::writeErrorLog</text>
</a>
</g>
</g>
<!-- Node1&#45;&gt;Node2 -->
<g id="edge1" class="edge"><title>Node1&#45;&gt;Node2</title>
<path fill="none" stroke="midnightblue" d="M101.141,-10C109.344,-10 117.941,-10 126.413,-10"/>
<polygon fill="midnightblue" stroke="midnightblue" points="126.649,-13.5001 136.649,-10 126.649,-6.5001 126.649,-13.5001"/>
</g>
<!-- Node3 -->
<g id="node3" class="node"><title>Node3</title>
<g id="a_node3"><a xlink:href="classLOG.html#a34dd9431a9ac7f8d0188dbee424b1c83" target="_top" xlink:title="Gets formatted TimeStamp Gets formatted TimeStamp. ">
<polygon fill="none" stroke="black" points="279,-0.5 279,-19.5 393,-19.5 393,-0.5 279,-0.5"/>
<text text-anchor="middle" x="336" y="-7.5" font-family="Helvetica,sans-Serif" font-size="10.00">LOG::getTimeStamp</text>
</a>
</g>
</g>
<!-- Node2&#45;&gt;Node3 -->
<g id="edge2" class="edge"><title>Node2&#45;&gt;Node3</title>
<path fill="none" stroke="midnightblue" d="M243.395,-10C251.513,-10 259.991,-10 268.372,-10"/>
<polygon fill="midnightblue" stroke="midnightblue" points="268.515,-13.5001 278.515,-10 268.515,-6.5001 268.515,-13.5001"/>
</g>
</g>
</svg>
