<?xml version="1.0" encoding="UTF-8" standalone="no"?>
<!DOCTYPE svg PUBLIC "-//W3C//DTD SVG 1.1//EN"
 "http://www.w3.org/Graphics/SVG/1.1/DTD/svg11.dtd">
<!-- Generated by graphviz version 2.38.0 (20140413.2041)
 -->
<!-- Title: Button::drawImageButtonFrame Pages: 1 -->
<svg width="821pt" height="66pt"
 viewBox="0.00 0.00 821.00 66.00" xmlns="http://www.w3.org/2000/svg" xmlns:xlink="http://www.w3.org/1999/xlink">
<g id="graph0" class="graph" transform="scale(1 1) rotate(0) translate(4 62)">
<title>Button::drawImageButtonFrame</title>
<!-- Node1 -->
<g id="node1" class="node"><title>Node1</title>
<polygon fill="#bfbfbf" stroke="black" points="0,-19.5 0,-38.5 170,-38.5 170,-19.5 0,-19.5"/>
<text text-anchor="middle" x="85" y="-26.5" font-family="Helvetica,sans-Serif" font-size="10.00">Button::drawImageButtonFrame</text>
</g>
<!-- Node2 -->
<g id="node2" class="node"><title>Node2</title>
<g id="a_node2"><a xlink:href="classMenuGroupBuild.html#afe78eacb71e9b5ebe9adaae92c0378cc" target="_top" xlink:title="MenuGroupBuild::constructMenu">
<polygon fill="none" stroke="black" points="206,-38.5 206,-57.5 379,-57.5 379,-38.5 206,-38.5"/>
<text text-anchor="middle" x="292.5" y="-45.5" font-family="Helvetica,sans-Serif" font-size="10.00">MenuGroupBuild::constructMenu</text>
</a>
</g>
</g>
<!-- Node1&#45;&gt;Node2 -->
<g id="edge1" class="edge"><title>Node1&#45;&gt;Node2</title>
<path fill="none" stroke="midnightblue" d="M180.156,-37.7055C188.7,-38.4954 197.324,-39.2927 205.789,-40.0754"/>
<polygon fill="midnightblue" stroke="midnightblue" points="180.457,-34.2185 170.178,-36.7828 179.813,-41.1887 180.457,-34.2185"/>
</g>
<!-- Node3 -->
<g id="node3" class="node"><title>Node3</title>
<g id="a_node3"><a xlink:href="classUIManager.html#aae7a89e9d50bb6192e4140e07bd5f94b" target="_top" xlink:title="UIManager::createBuildMenu">
<polygon fill="none" stroke="black" points="215,-0.5 215,-19.5 370,-19.5 370,-0.5 215,-0.5"/>
<text text-anchor="middle" x="292.5" y="-7.5" font-family="Helvetica,sans-Serif" font-size="10.00">UIManager::createBuildMenu</text>
</a>
</g>
</g>
<!-- Node1&#45;&gt;Node3 -->
<g id="edge2" class="edge"><title>Node1&#45;&gt;Node3</title>
<path fill="none" stroke="midnightblue" d="M180.264,-20.2846C191.801,-19.2179 203.481,-18.138 214.718,-17.0991"/>
<polygon fill="midnightblue" stroke="midnightblue" points="179.813,-16.8113 170.178,-21.2172 180.457,-23.7815 179.813,-16.8113"/>
</g>
<!-- Node4 -->
<g id="node4" class="node"><title>Node4</title>
<g id="a_node4"><a xlink:href="classUIManager.html#aedd9d0577af515a852425dfe414b2968" target="_top" xlink:title="Parses the UiLayout.json files and creates UI Elements. ">
<polygon fill="none" stroke="black" points="415,-0.5 415,-19.5 504,-19.5 504,-0.5 415,-0.5"/>
<text text-anchor="middle" x="459.5" y="-7.5" font-family="Helvetica,sans-Serif" font-size="10.00">UIManager::init</text>
</a>
</g>
</g>
<!-- Node3&#45;&gt;Node4 -->
<g id="edge3" class="edge"><title>Node3&#45;&gt;Node4</title>
<path fill="none" stroke="midnightblue" d="M380.271,-10C392.249,-10 404.107,-10 414.831,-10"/>
<polygon fill="midnightblue" stroke="midnightblue" points="380.204,-6.5001 370.203,-10 380.203,-13.5001 380.204,-6.5001"/>
</g>
<!-- Node5 -->
<g id="node5" class="node"><title>Node5</title>
<g id="a_node5"><a xlink:href="classGame.html#a1c2ab25d5216b2f4b2fe41efd2c09114" target="_top" xlink:title="Game::run">
<polygon fill="none" stroke="black" points="540,-0.5 540,-19.5 608,-19.5 608,-0.5 540,-0.5"/>
<text text-anchor="middle" x="574" y="-7.5" font-family="Helvetica,sans-Serif" font-size="10.00">Game::run</text>
</a>
</g>
</g>
<!-- Node4&#45;&gt;Node5 -->
<g id="edge4" class="edge"><title>Node4&#45;&gt;Node5</title>
<path fill="none" stroke="midnightblue" d="M514.446,-10C523.145,-10 531.918,-10 539.931,-10"/>
<polygon fill="midnightblue" stroke="midnightblue" points="514.318,-6.5001 504.318,-10 514.318,-13.5001 514.318,-6.5001"/>
</g>
<!-- Node6 -->
<g id="node6" class="node"><title>Node6</title>
<g id="a_node6"><a xlink:href="main_8cxx.html#af582d708d899e67ead623eac34a22387" target="_top" xlink:title="protected_main">
<polygon fill="none" stroke="black" points="644,-0.5 644,-19.5 736,-19.5 736,-0.5 644,-0.5"/>
<text text-anchor="middle" x="690" y="-7.5" font-family="Helvetica,sans-Serif" font-size="10.00">protected_main</text>
</a>
</g>
</g>
<!-- Node5&#45;&gt;Node6 -->
<g id="edge5" class="edge"><title>Node5&#45;&gt;Node6</title>
<path fill="none" stroke="midnightblue" d="M618.44,-10C626.674,-10 635.308,-10 643.601,-10"/>
<polygon fill="midnightblue" stroke="midnightblue" points="618.28,-6.5001 608.28,-10 618.28,-13.5001 618.28,-6.5001"/>
</g>
<!-- Node7 -->
<g id="node7" class="node"><title>Node7</title>
<g id="a_node7"><a xlink:href="main_8cxx.html#a3c04138a5bfe5d72780bb7e82a18e627" target="_top" xlink:title="main">
<polygon fill="none" stroke="black" points="772,-0.5 772,-19.5 813,-19.5 813,-0.5 772,-0.5"/>
<text text-anchor="middle" x="792.5" y="-7.5" font-family="Helvetica,sans-Serif" font-size="10.00">main</text>
</a>
</g>
</g>
<!-- Node6&#45;&gt;Node7 -->
<g id="edge6" class="edge"><title>Node6&#45;&gt;Node7</title>
<path fill="none" stroke="midnightblue" d="M746.539,-10C755.619,-10 764.466,-10 771.877,-10"/>
<polygon fill="midnightblue" stroke="midnightblue" points="746.252,-6.5001 736.252,-10 746.252,-13.5001 746.252,-6.5001"/>
</g>
</g>
</svg>
