<?xml version="1.0" encoding="UTF-8" standalone="no"?>
<!DOCTYPE svg PUBLIC "-//W3C//DTD SVG 1.1//EN"
 "http://www.w3.org/Graphics/SVG/1.1/DTD/svg11.dtd">
<!-- Generated by graphviz version 2.38.0 (20140413.2041)
 -->
<!-- Title: TileManager::calculateSlopeOrientation Pages: 1 -->
<!--zoomable 120 -->
<svg id="main" version="1.1" xmlns="http://www.w3.org/2000/svg" xmlns:xlink="http://www.w3.org/1999/xlink" xml:space="preserve" onload="init(evt)">
<style type="text/css"><![CDATA[
.edge:hover path { stroke: red; }
.edge:hover polygon { stroke: red; fill: red; }
]]></style>
<script type="text/javascript"><![CDATA[
var edges = document.getElementsByTagName('g');
if (edges && edges.length) {
  for (var i=0;i<edges.length;i++) {
    if (edges[i].id.substr(0,4)=='edge') {
      edges[i].setAttribute('class','edge');
    }
  }
}
]]></script>
        <defs>
                <circle id="rim" cx="0" cy="0" r="7"/>
                <circle id="rim2" cx="0" cy="0" r="3.5"/>
                <g id="zoomPlus">
                        <use xlink:href="#rim" fill="#404040">
                                <set attributeName="fill" to="#808080" begin="zoomplus.mouseover" end="zoomplus.mouseout"/>
                        </use>
                        <path d="M-4,0h8M0,-4v8" fill="none" stroke="white" stroke-width="1.5" pointer-events="none"/>
                </g>
                <g id="zoomMin">
                        <use xlink:href="#rim" fill="#404040">
                                <set attributeName="fill" to="#808080" begin="zoomminus.mouseover" end="zoomminus.mouseout"/>
                        </use>
                        <path d="M-4,0h8" fill="none" stroke="white" stroke-width="1.5" pointer-events="none"/>
                </g>
                <g id="dirArrow">
                        <path fill="none" stroke="white" stroke-width="1.5" d="M0,-3.0v7 M-2.5,-0.5L0,-3.0L2.5,-0.5"/>
                </g>
               <g id="resetDef">
                       <use xlink:href="#rim2" fill="#404040">
                               <set attributeName="fill" to="#808080" begin="reset.mouseover" end="reset.mouseout"/>
                       </use>
               </g>
        </defs>

<script type="text/javascript">
var viewWidth = 654;
var viewHeight = 120;
var sectionId = 'dynsection-7';
</script>
<script xlink:href="svgpan.js"/>
<svg id="graph" class="graph">
<g id="viewport">
<title>TileManager::calculateSlopeOrientation</title>
<!-- Node1 -->
<g id="node1" class="node"><title>Node1</title>
<polygon fill="#bfbfbf" stroke="black" points="0,-52 0,-82 150,-82 150,-52 0,-52"/>
<text text-anchor="start" x="8" y="-70" font-family="Helvetica,sans-Serif" font-size="10.00">TileManager::calculateSlope</text>
<text text-anchor="middle" x="75" y="-59" font-family="Helvetica,sans-Serif" font-size="10.00">Orientation</text>
</g>
<!-- Node2 -->
<g id="node2" class="node"><title>Node2</title>
<g id="a_node2"><a xlink:href="classMapNode.html#a0951fd739ee0a3e0263ef412596811dd" target="_top" xlink:title="MapNode::updateTexture">
<polygon fill="none" stroke="black" points="186,-57.5 186,-76.5 323,-76.5 323,-57.5 186,-57.5"/>
<text text-anchor="middle" x="254.5" y="-64.5" font-family="Helvetica,sans-Serif" font-size="10.00">MapNode::updateTexture</text>
</a>
</g>
</g>
<!-- Node1&#45;&gt;Node2 -->
<g id="edge1" class="edge"><title>Node1&#45;&gt;Node2</title>
<path fill="none" stroke="midnightblue" d="M160.251,-67C168.81,-67 177.426,-67 185.778,-67"/>
<polygon fill="midnightblue" stroke="midnightblue" points="160.248,-63.5001 150.248,-67 160.247,-70.5001 160.248,-63.5001"/>
</g>
<!-- Node3 -->
<g id="node3" class="node"><title>Node3</title>
<g id="a_node3"><a xlink:href="classMapNode.html#ac2fd11448837a8b56a58601238e824b2" target="_top" xlink:title="MapNode::MapNode">
<polygon fill="none" stroke="black" points="532,-76.5 532,-95.5 646,-95.5 646,-76.5 532,-76.5"/>
<text text-anchor="middle" x="589" y="-83.5" font-family="Helvetica,sans-Serif" font-size="10.00">MapNode::MapNode</text>
</a>
</g>
</g>
<!-- Node2&#45;&gt;Node3 -->
<g id="edge2" class="edge"><title>Node2&#45;&gt;Node3</title>
<path fill="none" stroke="midnightblue" d="M284.462,-80.7618C304.802,-89.6397 332.925,-100.365 359,-105 418.949,-115.657 435.427,-111.19 496,-105 514.172,-103.143 534.053,-99.2743 550.669,-95.5094"/>
<polygon fill="midnightblue" stroke="midnightblue" points="285.702,-77.4822 275.145,-76.5867 282.84,-83.8701 285.702,-77.4822"/>
</g>
<!-- Node4 -->
<g id="node4" class="node"><title>Node4</title>
<g id="a_node4"><a xlink:href="classMapNode.html#a56edbdd0e77eeeb82db4d5884c96048b" target="_top" xlink:title="MapNode::setBitmask">
<polygon fill="none" stroke="black" points="366.5,-76.5 366.5,-95.5 488.5,-95.5 488.5,-76.5 366.5,-76.5"/>
<text text-anchor="middle" x="427.5" y="-83.5" font-family="Helvetica,sans-Serif" font-size="10.00">MapNode::setBitmask</text>
</a>
</g>
</g>
<!-- Node2&#45;&gt;Node4 -->
<g id="edge3" class="edge"><title>Node2&#45;&gt;Node4</title>
<path fill="none" stroke="midnightblue" d="M333.22,-75.6355C344.335,-76.8706 355.627,-78.1252 366.336,-79.3151"/>
<polygon fill="midnightblue" stroke="midnightblue" points="333.409,-72.1351 323.084,-74.5093 332.636,-79.0923 333.409,-72.1351"/>
</g>
<!-- Node5 -->
<g id="node5" class="node"><title>Node5</title>
<g id="a_node5"><a xlink:href="classMapNode.html#a397a62e9263feef6c9c85b4e17ef31cb" target="_top" xlink:title="MapNode::setTileID">
<polygon fill="none" stroke="black" points="373,-38.5 373,-57.5 482,-57.5 482,-38.5 373,-38.5"/>
<text text-anchor="middle" x="427.5" y="-45.5" font-family="Helvetica,sans-Serif" font-size="10.00">MapNode::setTileID</text>
</a>
</g>
</g>
<!-- Node2&#45;&gt;Node5 -->
<g id="edge4" class="edge"><title>Node2&#45;&gt;Node5</title>
<path fill="none" stroke="midnightblue" d="M333.247,-58.3615C346.63,-56.8744 360.27,-55.3589 372.838,-53.9624"/>
<polygon fill="midnightblue" stroke="midnightblue" points="332.636,-54.9077 323.084,-59.4907 333.409,-61.8649 332.636,-54.9077"/>
</g>
<!-- Node6 -->
<g id="node6" class="node"><title>Node6</title>
<g id="a_node6"><a xlink:href="classMapNode.html#a604f1e438222bd6d77a6d59a7b39276a" target="_top" xlink:title="MapNode::demolishNode">
<polygon fill="none" stroke="black" points="359,-0.5 359,-19.5 496,-19.5 496,-0.5 359,-0.5"/>
<text text-anchor="middle" x="427.5" y="-7.5" font-family="Helvetica,sans-Serif" font-size="10.00">MapNode::demolishNode</text>
</a>
</g>
</g>
<!-- Node2&#45;&gt;Node6 -->
<g id="edge6" class="edge"><title>Node2&#45;&gt;Node6</title>
<path fill="none" stroke="midnightblue" d="M289.343,-53.8218C309.449,-46.1818 335.525,-36.6006 359,-29 369.192,-25.6999 380.353,-22.4236 390.613,-19.5445"/>
<polygon fill="midnightblue" stroke="midnightblue" points="288.079,-50.5577 279.99,-57.3993 290.58,-57.0957 288.079,-50.5577"/>
</g>
<!-- Node5&#45;&gt;Node3 -->
<g id="edge5" class="edge"><title>Node5&#45;&gt;Node3</title>
<path fill="none" stroke="midnightblue" d="M478.734,-59.968C501.086,-65.2931 527.038,-71.4762 548.041,-76.4799"/>
<polygon fill="midnightblue" stroke="midnightblue" points="479.288,-56.502 468.749,-57.589 477.665,-63.3114 479.288,-56.502"/>
</g>
</g>
</svg>
        <g id="navigator" transform="translate(0 0)" fill="#404254">
                <rect fill="#f2f5e9" fill-opacity="0.5" stroke="#606060" stroke-width=".5" x="0" y="0" width="60" height="60"/>
                <use id="zoomplus" xlink:href="#zoomPlus" x="17" y="9" onmousedown="handleZoom(evt,'in')"/>
                <use id="zoomminus" xlink:href="#zoomMin" x="42" y="9" onmousedown="handleZoom(evt,'out')"/>
                <use id="reset" xlink:href="#resetDef" x="30" y="36" onmousedown="handleReset()"/>
                <g id="arrowUp" xlink:href="#dirArrow" transform="translate(30 24)" onmousedown="handlePan(0,-1)">
                  <use xlink:href="#rim" fill="#404040">
                        <set attributeName="fill" to="#808080" begin="arrowUp.mouseover" end="arrowUp.mouseout"/>
                  </use>
                  <path fill="none" stroke="white" stroke-width="1.5" d="M0,-3.0v7 M-2.5,-0.5L0,-3.0L2.5,-0.5"/>
                </g>
                <g id="arrowRight" xlink:href="#dirArrow" transform="rotate(90) translate(36 -43)" onmousedown="handlePan(1,0)">
                  <use xlink:href="#rim" fill="#404040">
                        <set attributeName="fill" to="#808080" begin="arrowRight.mouseover" end="arrowRight.mouseout"/>
                  </use>
                  <path fill="none" stroke="white" stroke-width="1.5" d="M0,-3.0v7 M-2.5,-0.5L0,-3.0L2.5,-0.5"/>
                </g>
                <g id="arrowDown" xlink:href="#dirArrow" transform="rotate(180) translate(-30 -48)" onmousedown="handlePan(0,1)">
                  <use xlink:href="#rim" fill="#404040">
                        <set attributeName="fill" to="#808080" begin="arrowDown.mouseover" end="arrowDown.mouseout"/>
                  </use>
                  <path fill="none" stroke="white" stroke-width="1.5" d="M0,-3.0v7 M-2.5,-0.5L0,-3.0L2.5,-0.5"/>
                </g>
                <g id="arrowLeft" xlink:href="#dirArrow" transform="rotate(270) translate(-36 17)" onmousedown="handlePan(-1,0)">
                  <use xlink:href="#rim" fill="#404040">
                        <set attributeName="fill" to="#808080" begin="arrowLeft.mouseover" end="arrowLeft.mouseout"/>
                  </use>
                  <path fill="none" stroke="white" stroke-width="1.5" d="M0,-3.0v7 M-2.5,-0.5L0,-3.0L2.5,-0.5"/>
                </g>
        </g>
        <svg viewBox="0 0 15 15" width="100%" height="30px" preserveAspectRatio="xMaxYMin meet">
         <g id="arrow_out" transform="scale(0.3 0.3)">
          <a xlink:href="classTileManager_a519b2d5c91877025a2faa0dff3ba099c_icgraph_org.svg" target="_base">
           <rect id="button" ry="5" rx="5" y="6" x="6" height="38" width="38"
                fill="#f2f5e9" fill-opacity="0.5" stroke="#606060" stroke-width="1.0"/>
           <path id="arrow"
             d="M 11.500037,31.436501 C 11.940474,20.09759 22.043105,11.32322 32.158766,21.979434 L 37.068811,17.246167 C 37.068811,17.246167 37.088388,32 37.088388,32 L 22.160133,31.978069 C 22.160133,31.978069 26.997745,27.140456 26.997745,27.140456 C 18.528582,18.264221 13.291696,25.230495 11.500037,31.436501 z"
             style="fill:#404040;"/>
          </a>
         </g>
        </svg>
</svg>
