<?xml version="1.0" encoding="UTF-8" standalone="no"?>
<!DOCTYPE svg PUBLIC "-//W3C//DTD SVG 1.1//EN"
 "http://www.w3.org/Graphics/SVG/1.1/DTD/svg11.dtd">
<!-- Generated by graphviz version 2.38.0 (20140413.2041)
 -->
<!-- Title: UIManager::setBuildMenuLayout Pages: 1 -->
<svg width="1016pt" height="97pt"
 viewBox="0.00 0.00 1016.00 96.68" xmlns="http://www.w3.org/2000/svg" xmlns:xlink="http://www.w3.org/1999/xlink">
<g id="graph0" class="graph" transform="scale(1 1) rotate(0) translate(4 92.681)">
<title>UIManager::setBuildMenuLayout</title>
<!-- Node1 -->
<g id="node1" class="node"><title>Node1</title>
<polygon fill="#bfbfbf" stroke="black" points="0,-50 0,-69 171,-69 171,-50 0,-50"/>
<text text-anchor="middle" x="85.5" y="-57" font-family="Helvetica,sans-Serif" font-size="10.00">UIManager::setBuildMenuLayout</text>
</g>
<!-- Node2 -->
<g id="node2" class="node"><title>Node2</title>
<g id="a_node2"><a xlink:href="classUIManager.html#aedd9d0577af515a852425dfe414b2968" target="_top" xlink:title="Parses the UiLayout.json files and creates UI Elements. ">
<polygon fill="none" stroke="black" points="610,-50 610,-69 699,-69 699,-50 610,-50"/>
<text text-anchor="middle" x="654.5" y="-57" font-family="Helvetica,sans-Serif" font-size="10.00">UIManager::init</text>
</a>
</g>
</g>
<!-- Node1&#45;&gt;Node2 -->
<g id="edge1" class="edge"><title>Node1&#45;&gt;Node2</title>
<path fill="none" stroke="midnightblue" d="M169.124,-70.118C181.792,-71.4509 194.732,-72.6445 207,-73.5 369.731,-84.848 411.995,-97.5903 574,-78.5 589.784,-76.64 606.974,-72.7708 621.319,-69.0064"/>
<polygon fill="midnightblue" stroke="midnightblue" points="169.36,-66.6232 159.041,-69.0229 168.604,-73.5823 169.36,-66.6232"/>
</g>
<!-- Node6 -->
<g id="node6" class="node"><title>Node6</title>
<g id="a_node6"><a xlink:href="classUIManager.html#aae7a89e9d50bb6192e4140e07bd5f94b" target="_top" xlink:title="UIManager::createBuildMenu">
<polygon fill="none" stroke="black" points="419,-50 419,-69 574,-69 574,-50 419,-50"/>
<text text-anchor="middle" x="496.5" y="-57" font-family="Helvetica,sans-Serif" font-size="10.00">UIManager::createBuildMenu</text>
</a>
</g>
</g>
<!-- Node1&#45;&gt;Node6 -->
<g id="edge5" class="edge"><title>Node1&#45;&gt;Node6</title>
<path fill="none" stroke="midnightblue" d="M181.251,-59.5C253.426,-59.5 351.516,-59.5 418.801,-59.5"/>
<polygon fill="midnightblue" stroke="midnightblue" points="181.245,-56.0001 171.245,-59.5 181.245,-63.0001 181.245,-56.0001"/>
</g>
<!-- Node7 -->
<g id="node7" class="node"><title>Node7</title>
<g id="a_node7"><a xlink:href="classUIManager.html#a3ccb2fc669262f18ebdcdf3d5c43a3e8" target="_top" xlink:title="CallbackFunction that sets the Build Menu Position Used as callback function for the ComboBox that ho...">
<polygon fill="none" stroke="black" points="207,-9 207,-28 383,-28 383,-9 207,-9"/>
<text text-anchor="middle" x="295" y="-16" font-family="Helvetica,sans-Serif" font-size="10.00">UIManager::setBuildMenuPosition</text>
</a>
</g>
</g>
<!-- Node1&#45;&gt;Node7 -->
<g id="edge7" class="edge"><title>Node1&#45;&gt;Node7</title>
<path fill="none" stroke="midnightblue" d="M144.704,-47.9994C176.582,-41.7007 215.616,-33.9879 245.776,-28.0286"/>
<polygon fill="midnightblue" stroke="midnightblue" points="143.758,-44.6186 134.626,-49.9907 145.115,-51.4858 143.758,-44.6186"/>
</g>
<!-- Node3 -->
<g id="node3" class="node"><title>Node3</title>
<g id="a_node3"><a xlink:href="classGame.html#a1c2ab25d5216b2f4b2fe41efd2c09114" target="_top" xlink:title="Game::run">
<polygon fill="none" stroke="black" points="735,-50 735,-69 803,-69 803,-50 735,-50"/>
<text text-anchor="middle" x="769" y="-57" font-family="Helvetica,sans-Serif" font-size="10.00">Game::run</text>
</a>
</g>
</g>
<!-- Node2&#45;&gt;Node3 -->
<g id="edge2" class="edge"><title>Node2&#45;&gt;Node3</title>
<path fill="none" stroke="midnightblue" d="M709.446,-59.5C718.145,-59.5 726.918,-59.5 734.931,-59.5"/>
<polygon fill="midnightblue" stroke="midnightblue" points="709.318,-56.0001 699.318,-59.5 709.318,-63.0001 709.318,-56.0001"/>
</g>
<!-- Node4 -->
<g id="node4" class="node"><title>Node4</title>
<g id="a_node4"><a xlink:href="main_8cxx.html#af582d708d899e67ead623eac34a22387" target="_top" xlink:title="protected_main">
<polygon fill="none" stroke="black" points="839,-50 839,-69 931,-69 931,-50 839,-50"/>
<text text-anchor="middle" x="885" y="-57" font-family="Helvetica,sans-Serif" font-size="10.00">protected_main</text>
</a>
</g>
</g>
<!-- Node3&#45;&gt;Node4 -->
<g id="edge3" class="edge"><title>Node3&#45;&gt;Node4</title>
<path fill="none" stroke="midnightblue" d="M813.44,-59.5C821.674,-59.5 830.308,-59.5 838.601,-59.5"/>
<polygon fill="midnightblue" stroke="midnightblue" points="813.28,-56.0001 803.28,-59.5 813.28,-63.0001 813.28,-56.0001"/>
</g>
<!-- Node5 -->
<g id="node5" class="node"><title>Node5</title>
<g id="a_node5"><a xlink:href="main_8cxx.html#a3c04138a5bfe5d72780bb7e82a18e627" target="_top" xlink:title="main">
<polygon fill="none" stroke="black" points="967,-50 967,-69 1008,-69 1008,-50 967,-50"/>
<text text-anchor="middle" x="987.5" y="-57" font-family="Helvetica,sans-Serif" font-size="10.00">main</text>
</a>
</g>
</g>
<!-- Node4&#45;&gt;Node5 -->
<g id="edge4" class="edge"><title>Node4&#45;&gt;Node5</title>
<path fill="none" stroke="midnightblue" d="M941.539,-59.5C950.619,-59.5 959.466,-59.5 966.877,-59.5"/>
<polygon fill="midnightblue" stroke="midnightblue" points="941.252,-56.0001 931.252,-59.5 941.252,-63.0001 941.252,-56.0001"/>
</g>
<!-- Node6&#45;&gt;Node2 -->
<g id="edge6" class="edge"><title>Node6&#45;&gt;Node2</title>
<path fill="none" stroke="midnightblue" d="M584.385,-59.5C593.086,-59.5 601.638,-59.5 609.599,-59.5"/>
<polygon fill="midnightblue" stroke="midnightblue" points="584.129,-56.0001 574.129,-59.5 584.129,-63.0001 584.129,-56.0001"/>
</g>
<!-- Node8 -->
<g id="node8" class="node"><title>Node8</title>
<g id="a_node8"><a xlink:href="classUIManager.html#a5c4cb8e02504ffa0d3faf45181feab9d" target="_top" xlink:title="Fill UI Widgets whose ID start with a $ with data Used for filling widgets with data, like BuildMenu Position combobox, Screen Resolution ComboBox and so on. ">
<polygon fill="none" stroke="black" points="426.5,-0.5 426.5,-30.5 566.5,-30.5 566.5,-0.5 426.5,-0.5"/>
<text text-anchor="start" x="434.5" y="-18.5" font-family="Helvetica,sans-Serif" font-size="10.00">UIManager::initializeDollar</text>
<text text-anchor="middle" x="496.5" y="-7.5" font-family="Helvetica,sans-Serif" font-size="10.00">Variables</text>
</a>
</g>
</g>
<!-- Node7&#45;&gt;Node8 -->
<g id="edge8" class="edge"><title>Node7&#45;&gt;Node8</title>
<path fill="none" stroke="midnightblue" d="M393.43,-17.0349C404.584,-16.8672 415.776,-16.6989 426.449,-16.5384"/>
<polygon fill="midnightblue" stroke="midnightblue" points="393.16,-13.5385 383.213,-17.1885 393.265,-20.5377 393.16,-13.5385"/>
</g>
<!-- Node8&#45;&gt;Node2 -->
<g id="edge9" class="edge"><title>Node8&#45;&gt;Node2</title>
<path fill="none" stroke="midnightblue" d="M560.519,-33.2745C580.696,-38.9654 602.262,-45.0484 619.541,-49.9217"/>
<polygon fill="midnightblue" stroke="midnightblue" points="561.325,-29.8653 550.75,-30.5192 559.424,-36.6025 561.325,-29.8653"/>
</g>
</g>
</svg>
