<?xml version="1.0" encoding="UTF-8" standalone="no"?>
<!DOCTYPE svg PUBLIC "-//W3C//DTD SVG 1.1//EN"
 "http://www.w3.org/Graphics/SVG/1.1/DTD/svg11.dtd">
<!-- Generated by graphviz version 2.38.0 (20140413.2041)
 -->
<!-- Title: UIManager::changeResolution Pages: 1 -->
<svg width="993pt" height="273pt"
 viewBox="0.00 0.00 993.00 272.51" xmlns="http://www.w3.org/2000/svg" xmlns:xlink="http://www.w3.org/1999/xlink">
<g id="graph0" class="graph" transform="scale(1 1) rotate(0) translate(4 268.509)">
<title>UIManager::changeResolution</title>
<!-- Node1 -->
<g id="node1" class="node"><title>Node1</title>
<polygon fill="#bfbfbf" stroke="black" points="0,-198.5 0,-217.5 158,-217.5 158,-198.5 0,-198.5"/>
<text text-anchor="middle" x="79" y="-205.5" font-family="Helvetica,sans-Serif" font-size="10.00">UIManager::changeResolution</text>
</g>
<!-- Node2 -->
<g id="node2" class="node"><title>Node2</title>
<g id="a_node2"><a xlink:href="classSingleton.html#af5cb1e5749949e2b68416cfb8d378044" target="_top" xlink:title="Get an instance of the singleton. ">
<polygon fill="none" stroke="black" points="585,-206 585,-236 735,-236 735,-206 585,-206"/>
<text text-anchor="start" x="593" y="-224" font-family="Helvetica,sans-Serif" font-size="10.00">Singleton&lt; WindowManager</text>
<text text-anchor="middle" x="660" y="-213" font-family="Helvetica,sans-Serif" font-size="10.00"> &gt;::instance</text>
</a>
</g>
</g>
<!-- Node1&#45;&gt;Node2 -->
<g id="edge1" class="edge"><title>Node1&#45;&gt;Node2</title>
<path fill="none" stroke="midnightblue" d="M94.7083,-217.603C115.71,-230.682 155.968,-253.448 194,-262 219.549,-267.745 524.179,-261.588 540,-259 564.314,-255.022 590.483,-247.092 612.072,-239.5"/>
<polygon fill="midnightblue" stroke="midnightblue" points="613.424,-242.733 621.646,-236.051 611.051,-236.148 613.424,-242.733"/>
</g>
<!-- Node3 -->
<g id="node3" class="node"><title>Node3</title>
<g id="a_node3"><a xlink:href="classWindowManager.html#a02ff8708c66cbb980399eb967a37a937" target="_top" xlink:title="WindowManager::setScreen\lResolution">
<polygon fill="none" stroke="black" points="194,-222 194,-252 343,-252 343,-222 194,-222"/>
<text text-anchor="start" x="202" y="-240" font-family="Helvetica,sans-Serif" font-size="10.00">WindowManager::setScreen</text>
<text text-anchor="middle" x="268.5" y="-229" font-family="Helvetica,sans-Serif" font-size="10.00">Resolution</text>
</a>
</g>
</g>
<!-- Node1&#45;&gt;Node3 -->
<g id="edge2" class="edge"><title>Node1&#45;&gt;Node3</title>
<path fill="none" stroke="midnightblue" d="M141.654,-217.536C155.053,-219.608 169.446,-221.834 183.541,-224.014"/>
<polygon fill="midnightblue" stroke="midnightblue" points="183.316,-227.521 193.734,-225.591 184.386,-220.603 183.316,-227.521"/>
</g>
<!-- Node4 -->
<g id="node4" class="node"><title>Node4</title>
<g id="a_node4"><a xlink:href="classComboBox.html#a5d3aaf4c524802d59e1445919715be78" target="_top" xlink:title="Get ID of selected element returns the ID of the selected element in the comboBox. ">
<polygon fill="none" stroke="black" points="203.5,-91.5 203.5,-110.5 333.5,-110.5 333.5,-91.5 203.5,-91.5"/>
<text text-anchor="middle" x="268.5" y="-98.5" font-family="Helvetica,sans-Serif" font-size="10.00">ComboBox::getActiveID</text>
</a>
</g>
</g>
<!-- Node1&#45;&gt;Node4 -->
<g id="edge4" class="edge"><title>Node1&#45;&gt;Node4</title>
<path fill="none" stroke="midnightblue" d="M96.9701,-198.316C129.879,-179.536 202.554,-138.062 241.557,-115.805"/>
<polygon fill="midnightblue" stroke="midnightblue" points="243.753,-118.582 250.703,-110.585 240.283,-112.502 243.753,-118.582"/>
</g>
<!-- Node6 -->
<g id="node6" class="node"><title>Node6</title>
<g id="a_node6"><a xlink:href="classLayout.html#afa734c5af10f59f3dadb066054fe81ab" target="_top" xlink:title="Arrange the layout elements. ">
<polygon fill="none" stroke="black" points="200,-170.5 200,-189.5 337,-189.5 337,-170.5 200,-170.5"/>
<text text-anchor="middle" x="268.5" y="-177.5" font-family="Helvetica,sans-Serif" font-size="10.00">Layout::arrangeElements</text>
</a>
</g>
</g>
<!-- Node1&#45;&gt;Node6 -->
<g id="edge6" class="edge"><title>Node1&#45;&gt;Node6</title>
<path fill="none" stroke="midnightblue" d="M143.741,-198.481C159.742,-196.092 177.047,-193.508 193.501,-191.05"/>
<polygon fill="midnightblue" stroke="midnightblue" points="194.244,-194.478 203.617,-189.54 193.21,-187.555 194.244,-194.478"/>
</g>
<!-- Node3&#45;&gt;Node2 -->
<g id="edge3" class="edge"><title>Node3&#45;&gt;Node2</title>
<path fill="none" stroke="midnightblue" d="M343.095,-242.352C355.089,-243.038 367.386,-243.629 379,-244 450.519,-246.284 468.77,-250.82 540,-244 553.99,-242.66 568.78,-240.454 583,-237.925"/>
<polygon fill="midnightblue" stroke="midnightblue" points="584.037,-241.293 593.234,-236.034 582.765,-234.409 584.037,-241.293"/>
</g>
<!-- Node5 -->
<g id="node5" class="node"><title>Node5</title>
<g id="a_node5"><a xlink:href="classComboBox.html#ad0dba514b01ed2bb3c41c738c80a7d6a" target="_top" xlink:title="Set ID of selected element sets the ID of the selected element in the comboBox. ">
<polygon fill="none" stroke="black" points="395,-38.5 395,-57.5 524,-57.5 524,-38.5 395,-38.5"/>
<text text-anchor="middle" x="459.5" y="-45.5" font-family="Helvetica,sans-Serif" font-size="10.00">ComboBox::setActiveID</text>
</a>
</g>
</g>
<!-- Node4&#45;&gt;Node5 -->
<g id="edge5" class="edge"><title>Node4&#45;&gt;Node5</title>
<path fill="none" stroke="midnightblue" d="M298.625,-91.3778C320.6,-84.2591 351.55,-74.533 379,-67 387.844,-64.5731 397.289,-62.1606 406.468,-59.9101"/>
<polygon fill="midnightblue" stroke="midnightblue" points="407.385,-63.2894 416.283,-57.5384 405.74,-56.4852 407.385,-63.2894"/>
</g>
<!-- Node6&#45;&gt;Node2 -->
<g id="edge7" class="edge"><title>Node6&#45;&gt;Node2</title>
<path fill="none" stroke="midnightblue" d="M337.251,-178.68C351.063,-179.997 365.498,-181.561 379,-183 444.649,-189.997 518.983,-197.685 574.555,-204.709"/>
<polygon fill="midnightblue" stroke="midnightblue" points="574.343,-208.21 584.707,-206.012 575.234,-201.267 574.343,-208.21"/>
</g>
<!-- Node6&#45;&gt;Node2 -->
<g id="edge10" class="edge"><title>Node6&#45;&gt;Node2</title>
<path fill="none" stroke="midnightblue" d="M292.992,-189.579C315.162,-194.074 349.334,-197.838 379,-201 444.649,-207.997 518.983,-215.685 574.555,-220.064"/>
<polygon fill="midnightblue" stroke="midnightblue" points="574.469,-223.567 584.707,-220.842 575.004,-216.588 574.469,-223.567"/>
</g>
<!-- Node7 -->
<g id="node7" class="node"><title>Node7</title>
<g id="a_node7"><a xlink:href="classLayout.html#a79480df6d9dd2d32b23468c05c6ac944" target="_top" xlink:title="Calculates height and width of layout groups. ">
<polygon fill="none" stroke="black" points="380,-153 380,-183 539,-183 539,-153 380,-153"/>
<text text-anchor="start" x="388" y="-171" font-family="Helvetica,sans-Serif" font-size="10.00">Layout::calculateLayoutGroup</text>
<text text-anchor="middle" x="459.5" y="-160" font-family="Helvetica,sans-Serif" font-size="10.00">Dimensions</text>
</a>
</g>
</g>
<!-- Node6&#45;&gt;Node7 -->
<g id="edge8" class="edge"><title>Node6&#45;&gt;Node7</title>
<path fill="none" stroke="midnightblue" d="M337.2,-175.702C347.742,-175.032 358.77,-174.332 369.695,-173.638"/>
<polygon fill="midnightblue" stroke="midnightblue" points="369.925,-177.131 379.684,-173.004 369.482,-170.145 369.925,-177.131"/>
</g>
<!-- Node8 -->
<g id="node8" class="node"><title>Node8</title>
<g id="a_node8"><a xlink:href="classUIManager.html#a0d32c5b63c4110ff8e43ab06c1c7d761" target="_top" xlink:title="Get the Layoutgroup container Returns the container, that holds LayoutGroups. ">
<polygon fill="none" stroke="black" points="576,-114.5 576,-133.5 744,-133.5 744,-114.5 576,-114.5"/>
<text text-anchor="middle" x="660" y="-121.5" font-family="Helvetica,sans-Serif" font-size="10.00">UIManager::getAllLayoutGroups</text>
</a>
</g>
</g>
<!-- Node6&#45;&gt;Node8 -->
<g id="edge11" class="edge"><title>Node6&#45;&gt;Node8</title>
<path fill="none" stroke="midnightblue" d="M292.1,-170.443C313.919,-161.681 348.104,-149.16 379,-143 440.514,-130.735 510.968,-126.001 565.815,-124.325"/>
<polygon fill="midnightblue" stroke="midnightblue" points="565.97,-127.822 575.869,-124.046 565.776,-120.825 565.97,-127.822"/>
</g>
<!-- Node9 -->
<g id="node9" class="node"><title>Node9</title>
<g id="a_node9"><a xlink:href="classLayout.html#ac2a5cc72ee1ff5d3ddf4861b3f28d58f" target="_top" xlink:title="Arrange Elements that are aligned to a parent This is a seperate function, so it can recurse if a par...">
<polygon fill="none" stroke="black" points="379,-76.5 379,-95.5 540,-95.5 540,-76.5 379,-76.5"/>
<text text-anchor="middle" x="459.5" y="-83.5" font-family="Helvetica,sans-Serif" font-size="10.00">Layout::arrangeChildElements</text>
</a>
</g>
</g>
<!-- Node6&#45;&gt;Node9 -->
<g id="edge12" class="edge"><title>Node6&#45;&gt;Node9</title>
<path fill="none" stroke="midnightblue" d="M281.982,-170.378C301.65,-155.608 341.486,-127.25 379,-110 388.629,-105.573 399.283,-101.709 409.579,-98.4503"/>
<polygon fill="midnightblue" stroke="midnightblue" points="410.737,-101.757 419.296,-95.5128 408.711,-95.0563 410.737,-101.757"/>
</g>
<!-- Node7&#45;&gt;Node2 -->
<g id="edge9" class="edge"><title>Node7&#45;&gt;Node2</title>
<path fill="none" stroke="midnightblue" d="M516.851,-183.046C540.424,-189.34 567.996,-196.702 592.549,-203.257"/>
<polygon fill="midnightblue" stroke="midnightblue" points="591.943,-206.718 602.508,-205.916 593.749,-199.955 591.943,-206.718"/>
</g>
<!-- Node9&#45;&gt;Node2 -->
<g id="edge13" class="edge"><title>Node9&#45;&gt;Node2</title>
<path fill="none" stroke="midnightblue" d="M480.995,-95.6316C517.74,-117.48 594.677,-169.693 634.28,-199.545"/>
<polygon fill="midnightblue" stroke="midnightblue" points="632.524,-202.609 642.591,-205.912 636.781,-197.052 632.524,-202.609"/>
</g>
<!-- Node9&#45;&gt;Node2 -->
<g id="edge14" class="edge"><title>Node9&#45;&gt;Node2</title>
<path fill="none" stroke="midnightblue" d="M470.074,-95.621C496.848,-117.7 573.603,-170.686 620.635,-200.37"/>
<polygon fill="midnightblue" stroke="midnightblue" points="619,-203.476 629.336,-205.805 622.708,-197.539 619,-203.476"/>
</g>
<!-- Node9&#45;&gt;Node8 -->
<g id="edge17" class="edge"><title>Node9&#45;&gt;Node8</title>
<path fill="none" stroke="midnightblue" d="M510.334,-95.54C537.234,-100.69 570.636,-107.084 598.961,-112.506"/>
<polygon fill="midnightblue" stroke="midnightblue" points="598.666,-116.013 609.146,-114.456 599.982,-109.138 598.666,-116.013"/>
</g>
<!-- Node10 -->
<g id="node10" class="node"><title>Node10</title>
<g id="a_node10"><a xlink:href="classUIManager.html#acc2fd1de357cb6745ea39d54a93caa27" target="_top" xlink:title="Get the Ui Element By ID Finds and returns an UiElement by its elementID parameter. ">
<polygon fill="none" stroke="black" points="579.5,-38.5 579.5,-57.5 740.5,-57.5 740.5,-38.5 579.5,-38.5"/>
<text text-anchor="middle" x="660" y="-45.5" font-family="Helvetica,sans-Serif" font-size="10.00">UIManager::getUiElementByID</text>
</a>
</g>
</g>
<!-- Node9&#45;&gt;Node10 -->
<g id="edge15" class="edge"><title>Node9&#45;&gt;Node10</title>
<path fill="none" stroke="midnightblue" d="M510.334,-76.46C537.234,-71.3104 570.636,-64.916 598.961,-59.4935"/>
<polygon fill="midnightblue" stroke="midnightblue" points="599.982,-62.8618 609.146,-57.5439 598.666,-55.9866 599.982,-62.8618"/>
</g>
<!-- Node11 -->
<g id="node11" class="node"><title>Node11</title>
<g id="a_node11"><a xlink:href="classUIElement.html#ad448eae9fd22723ca68f04db6a180de7" target="_top" xlink:title="UIElement::getUiElementData">
<polygon fill="none" stroke="black" points="579.5,-0.5 579.5,-19.5 740.5,-19.5 740.5,-0.5 579.5,-0.5"/>
<text text-anchor="middle" x="660" y="-7.5" font-family="Helvetica,sans-Serif" font-size="10.00">UIElement::getUiElementData</text>
</a>
</g>
</g>
<!-- Node9&#45;&gt;Node11 -->
<g id="edge16" class="edge"><title>Node9&#45;&gt;Node11</title>
<path fill="none" stroke="midnightblue" d="M518.067,-76.4703C525.716,-74.0041 533.24,-70.9018 540,-67 560.149,-55.3696 555.796,-40.534 576,-29 579.934,-26.7544 584.115,-24.7742 588.427,-23.028"/>
<polygon fill="midnightblue" stroke="midnightblue" points="589.813,-26.2491 598.035,-19.5668 587.44,-19.6634 589.813,-26.2491"/>
</g>
<!-- Node12 -->
<g id="node12" class="node"><title>Node12</title>
<g id="a_node12"><a xlink:href="classUIElement.html#a63a26f6f553d4e5d6ce3c3050b39453d" target="_top" xlink:title="Get the position and the size of this ui element Gets the position and the size of this ui element...">
<polygon fill="none" stroke="black" points="581,-76.5 581,-95.5 739,-95.5 739,-76.5 581,-76.5"/>
<text text-anchor="middle" x="660" y="-83.5" font-family="Helvetica,sans-Serif" font-size="10.00">UIElement::getUiElementRect</text>
</a>
</g>
</g>
<!-- Node9&#45;&gt;Node12 -->
<g id="edge18" class="edge"><title>Node9&#45;&gt;Node12</title>
<path fill="none" stroke="midnightblue" d="M540.094,-86C550.125,-86 560.435,-86 570.592,-86"/>
<polygon fill="midnightblue" stroke="midnightblue" points="570.681,-89.5001 580.681,-86 570.681,-82.5001 570.681,-89.5001"/>
</g>
<!-- Node13 -->
<g id="node13" class="node"><title>Node13</title>
<g id="a_node13"><a xlink:href="classUIElement.html#aa7f624963eaeb31043d74219ee24386c" target="_top" xlink:title="Checks if the mouse cursor is over the current UI Element Check if the coordinates match the ones sto...">
<polygon fill="none" stroke="black" points="815.5,-95.5 815.5,-114.5 949.5,-114.5 949.5,-95.5 815.5,-95.5"/>
<text text-anchor="middle" x="882.5" y="-102.5" font-family="Helvetica,sans-Serif" font-size="10.00">UIElement::isMouseOver</text>
</a>
</g>
</g>
<!-- Node12&#45;&gt;Node13 -->
<g id="edge19" class="edge"><title>Node12&#45;&gt;Node13</title>
<path fill="none" stroke="midnightblue" d="M739.05,-92.7254C760.547,-94.5778 783.835,-96.5844 805.23,-98.428"/>
<polygon fill="midnightblue" stroke="midnightblue" points="804.975,-101.919 815.238,-99.2904 805.576,-94.9447 804.975,-101.919"/>
</g>
<!-- Node14 -->
<g id="node14" class="node"><title>Node14</title>
<g id="a_node14"><a xlink:href="classUIElement.html#a570841bf8b7970ca935b1a00e571036a" target="_top" xlink:title="Handling for the hovering event Check, if the mouse cursor is hovering over the element. virtual function to provide custom handling if necessary (e.g. Combobox) Per default, it&#39;s the same implementation as isMouseOver. ">
<polygon fill="none" stroke="black" points="780,-57.5 780,-76.5 985,-76.5 985,-57.5 780,-57.5"/>
<text text-anchor="middle" x="882.5" y="-64.5" font-family="Helvetica,sans-Serif" font-size="10.00">UIElement::isMouseOverHoverableArea</text>
</a>
</g>
</g>
<!-- Node12&#45;&gt;Node14 -->
<g id="edge20" class="edge"><title>Node12&#45;&gt;Node14</title>
<path fill="none" stroke="midnightblue" d="M739.05,-79.2746C749.096,-78.409 759.533,-77.5097 769.984,-76.6091"/>
<polygon fill="midnightblue" stroke="midnightblue" points="770.335,-80.0919 779.997,-75.7463 769.734,-73.1178 770.335,-80.0919"/>
</g>
</g>
</svg>
