<?xml version="1.0" encoding="UTF-8" standalone="no"?>
<!DOCTYPE svg PUBLIC "-//W3C//DTD SVG 1.1//EN"
 "http://www.w3.org/Graphics/SVG/1.1/DTD/svg11.dtd">
<!-- Generated by graphviz version 2.38.0 (20140413.2041)
 -->
<!-- Title: Map::findNodeInMap Pages: 1 -->
<svg width="822pt" height="28pt"
 viewBox="0.00 0.00 822.00 28.00" xmlns="http://www.w3.org/2000/svg" xmlns:xlink="http://www.w3.org/1999/xlink">
<g id="graph0" class="graph" transform="scale(1 1) rotate(0) translate(4 24)">
<title>Map::findNodeInMap</title>
<!-- Node1 -->
<g id="node1" class="node"><title>Node1</title>
<polygon fill="#bfbfbf" stroke="black" points="0,-0.5 0,-19.5 114,-19.5 114,-0.5 0,-0.5"/>
<text text-anchor="middle" x="57" y="-7.5" font-family="Helvetica,sans-Serif" font-size="10.00">Map::findNodeInMap</text>
</g>
<!-- Node2 -->
<g id="node2" class="node"><title>Node2</title>
<g id="a_node2"><a xlink:href="isoMath_8hxx.html#ad3c5f070c4a876bc6e8978635d02ce52" target="_top" xlink:title="converts screen space coordinates to isometric space coordinates. To convert screen coordinates in to...">
<polygon fill="none" stroke="black" points="150,-0.5 150,-19.5 317,-19.5 317,-0.5 150,-0.5"/>
<text text-anchor="middle" x="233.5" y="-7.5" font-family="Helvetica,sans-Serif" font-size="10.00">convertScreenToIsoCoordinates</text>
</a>
</g>
</g>
<!-- Node1&#45;&gt;Node2 -->
<g id="edge1" class="edge"><title>Node1&#45;&gt;Node2</title>
<path fill="none" stroke="midnightblue" d="M124.203,-10C132.556,-10 141.182,-10 149.749,-10"/>
<polygon fill="midnightblue" stroke="midnightblue" points="124.173,-6.5001 114.173,-10 124.173,-13.5001 124.173,-6.5001"/>
</g>
<!-- Node3 -->
<g id="node3" class="node"><title>Node3</title>
<g id="a_node3"><a xlink:href="classEventManager.html#a65ec91fd5016d4f9c4167fb8babed2df" target="_top" xlink:title="EventManager::checkEvents">
<polygon fill="none" stroke="black" points="353,-0.5 353,-19.5 505,-19.5 505,-0.5 353,-0.5"/>
<text text-anchor="middle" x="429" y="-7.5" font-family="Helvetica,sans-Serif" font-size="10.00">EventManager::checkEvents</text>
</a>
</g>
</g>
<!-- Node2&#45;&gt;Node3 -->
<g id="edge2" class="edge"><title>Node2&#45;&gt;Node3</title>
<path fill="none" stroke="midnightblue" d="M327.142,-10C335.707,-10 344.315,-10 352.698,-10"/>
<polygon fill="midnightblue" stroke="midnightblue" points="327.123,-6.5001 317.123,-10 327.123,-13.5001 327.123,-6.5001"/>
</g>
<!-- Node4 -->
<g id="node4" class="node"><title>Node4</title>
<g id="a_node4"><a xlink:href="classGame.html#a1c2ab25d5216b2f4b2fe41efd2c09114" target="_top" xlink:title="Game::run">
<polygon fill="none" stroke="black" points="541,-0.5 541,-19.5 609,-19.5 609,-0.5 541,-0.5"/>
<text text-anchor="middle" x="575" y="-7.5" font-family="Helvetica,sans-Serif" font-size="10.00">Game::run</text>
</a>
</g>
</g>
<!-- Node3&#45;&gt;Node4 -->
<g id="edge3" class="edge"><title>Node3&#45;&gt;Node4</title>
<path fill="none" stroke="midnightblue" d="M515.473,-10C524.339,-10 532.922,-10 540.658,-10"/>
<polygon fill="midnightblue" stroke="midnightblue" points="515.374,-6.5001 505.374,-10 515.374,-13.5001 515.374,-6.5001"/>
</g>
<!-- Node5 -->
<g id="node5" class="node"><title>Node5</title>
<g id="a_node5"><a xlink:href="main_8cxx.html#af582d708d899e67ead623eac34a22387" target="_top" xlink:title="protected_main">
<polygon fill="none" stroke="black" points="645,-0.5 645,-19.5 737,-19.5 737,-0.5 645,-0.5"/>
<text text-anchor="middle" x="691" y="-7.5" font-family="Helvetica,sans-Serif" font-size="10.00">protected_main</text>
</a>
</g>
</g>
<!-- Node4&#45;&gt;Node5 -->
<g id="edge4" class="edge"><title>Node4&#45;&gt;Node5</title>
<path fill="none" stroke="midnightblue" d="M619.44,-10C627.674,-10 636.308,-10 644.601,-10"/>
<polygon fill="midnightblue" stroke="midnightblue" points="619.28,-6.5001 609.28,-10 619.28,-13.5001 619.28,-6.5001"/>
</g>
<!-- Node6 -->
<g id="node6" class="node"><title>Node6</title>
<g id="a_node6"><a xlink:href="main_8cxx.html#a3c04138a5bfe5d72780bb7e82a18e627" target="_top" xlink:title="main">
<polygon fill="none" stroke="black" points="773,-0.5 773,-19.5 814,-19.5 814,-0.5 773,-0.5"/>
<text text-anchor="middle" x="793.5" y="-7.5" font-family="Helvetica,sans-Serif" font-size="10.00">main</text>
</a>
</g>
</g>
<!-- Node5&#45;&gt;Node6 -->
<g id="edge5" class="edge"><title>Node5&#45;&gt;Node6</title>
<path fill="none" stroke="midnightblue" d="M747.539,-10C756.619,-10 765.466,-10 772.877,-10"/>
<polygon fill="midnightblue" stroke="midnightblue" points="747.252,-6.5001 737.252,-10 747.252,-13.5001 747.252,-6.5001"/>
</g>
</g>
</svg>
