<?xml version="1.0" encoding="UTF-8" standalone="no"?>
<!DOCTYPE svg PUBLIC "-//W3C//DTD SVG 1.1//EN"
 "http://www.w3.org/Graphics/SVG/1.1/DTD/svg11.dtd">
<!-- Generated by graphviz version 2.38.0 (20140413.2041)
 -->
<!-- Title: TileManager Pages: 1 -->
<svg width="171pt" height="431pt"
 viewBox="0.00 0.00 171.00 431.00" xmlns="http://www.w3.org/2000/svg" xmlns:xlink="http://www.w3.org/1999/xlink">
<g id="graph0" class="graph" transform="scale(1 1) rotate(0) translate(4 427)">
<title>TileManager</title>
<!-- Node1 -->
<g id="node1" class="node"><title>Node1</title>
<polygon fill="#bfbfbf" stroke="black" points="-1.42109e-14,-0.5 -1.42109e-14,-178.5 158,-178.5 158,-0.5 -1.42109e-14,-0.5"/>
<text text-anchor="middle" x="79" y="-166.5" font-family="Helvetica,sans-Serif" font-size="10.00">TileManager</text>
<polyline fill="none" stroke="black" points="-1.42109e-14,-159.5 158,-159.5 "/>
<text text-anchor="start" x="8" y="-147.5" font-family="Helvetica,sans-Serif" font-size="10.00">+ Singleton&lt; TileManager &gt;</text>
<text text-anchor="start" x="8" y="-136.5" font-family="Helvetica,sans-Serif" font-size="10.00">&#45; m_tileData</text>
<polyline fill="none" stroke="black" points="-1.42109e-14,-129.5 158,-129.5 "/>
<text text-anchor="start" x="8" y="-117.5" font-family="Helvetica,sans-Serif" font-size="10.00">+ TileManager()</text>
<text text-anchor="start" x="8" y="-106.5" font-family="Helvetica,sans-Serif" font-size="10.00">+ operator=()</text>
<text text-anchor="start" x="8" y="-95.5" font-family="Helvetica,sans-Serif" font-size="10.00">+ getTexture()</text>
<text text-anchor="start" x="8" y="-84.5" font-family="Helvetica,sans-Serif" font-size="10.00">+ getTileData()</text>
<text text-anchor="start" x="8" y="-73.5" font-family="Helvetica,sans-Serif" font-size="10.00">+ calculateSlopeOrientation()</text>
<text text-anchor="start" x="8" y="-62.5" font-family="Helvetica,sans-Serif" font-size="10.00">+ calculateTileOrientation()</text>
<text text-anchor="start" x="8" y="-51.5" font-family="Helvetica,sans-Serif" font-size="10.00">+ getAllTileData()</text>
<text text-anchor="start" x="8" y="-40.5" font-family="Helvetica,sans-Serif" font-size="10.00">+ init()</text>
<text text-anchor="start" x="8" y="-29.5" font-family="Helvetica,sans-Serif" font-size="10.00">&#45; TileManager()</text>
<text text-anchor="start" x="8" y="-18.5" font-family="Helvetica,sans-Serif" font-size="10.00">&#45; ~TileManager()</text>
<text text-anchor="start" x="8" y="-7.5" font-family="Helvetica,sans-Serif" font-size="10.00">&#45; addJSONObjectToTileData()</text>
</g>
<!-- Node2 -->
<g id="node2" class="node"><title>Node2</title>
<g id="a_node2"><a xlink:href="classSingleton.html" target="_top" xlink:title="{Singleton\&lt; TileManager \&gt;\n||+ instance()\l# Singleton()\l# ~Singleton()\l}">
<polygon fill="none" stroke="black" points="8,-216.5 8,-295.5 150,-295.5 150,-216.5 8,-216.5"/>
<text text-anchor="middle" x="79" y="-283.5" font-family="Helvetica,sans-Serif" font-size="10.00">Singleton&lt; TileManager &gt;</text>
<polyline fill="none" stroke="black" points="8,-276.5 150,-276.5 "/>
<text text-anchor="middle" x="79" y="-264.5" font-family="Helvetica,sans-Serif" font-size="10.00"> </text>
<polyline fill="none" stroke="black" points="8,-257.5 150,-257.5 "/>
<text text-anchor="start" x="16" y="-245.5" font-family="Helvetica,sans-Serif" font-size="10.00">+ instance()</text>
<text text-anchor="start" x="16" y="-234.5" font-family="Helvetica,sans-Serif" font-size="10.00"># Singleton()</text>
<text text-anchor="start" x="16" y="-223.5" font-family="Helvetica,sans-Serif" font-size="10.00"># ~Singleton()</text>
</a>
</g>
</g>
<!-- Node2&#45;&gt;Node1 -->
<g id="edge1" class="edge"><title>Node2&#45;&gt;Node1</title>
<path fill="none" stroke="midnightblue" d="M79,-206.388C79,-197.561 79,-188.109 79,-178.552"/>
<polygon fill="none" stroke="midnightblue" points="75.5001,-206.432 79,-216.432 82.5001,-206.432 75.5001,-206.432"/>
</g>
<!-- Node3 -->
<g id="node3" class="node"><title>Node3</title>
<g id="a_node3"><a xlink:href="classSingleton.html" target="_top" xlink:title="Abstract Singleton implementation. ">
<polygon fill="none" stroke="black" points="34.5,-343.5 34.5,-422.5 123.5,-422.5 123.5,-343.5 34.5,-343.5"/>
<text text-anchor="middle" x="79" y="-410.5" font-family="Helvetica,sans-Serif" font-size="10.00">Singleton&lt; T &gt;</text>
<polyline fill="none" stroke="black" points="34.5,-403.5 123.5,-403.5 "/>
<text text-anchor="middle" x="79" y="-391.5" font-family="Helvetica,sans-Serif" font-size="10.00"> </text>
<polyline fill="none" stroke="black" points="34.5,-384.5 123.5,-384.5 "/>
<text text-anchor="start" x="42.5" y="-372.5" font-family="Helvetica,sans-Serif" font-size="10.00">+ instance()</text>
<text text-anchor="start" x="42.5" y="-361.5" font-family="Helvetica,sans-Serif" font-size="10.00"># Singleton()</text>
<text text-anchor="start" x="42.5" y="-350.5" font-family="Helvetica,sans-Serif" font-size="10.00"># ~Singleton()</text>
</a>
</g>
</g>
<!-- Node3&#45;&gt;Node2 -->
<g id="edge2" class="edge"><title>Node3&#45;&gt;Node2</title>
<path fill="none" stroke="orange" d="M79,-333.222C79,-320.745 79,-307.5 79,-295.612"/>
<polygon fill="orange" stroke="orange" points="75.5001,-333.476 79,-343.476 82.5001,-333.476 75.5001,-333.476"/>
<text text-anchor="middle" x="121" y="-317" font-family="Helvetica,sans-Serif" font-size="10.00"> &lt; TileManager &gt;</text>
</g>
</g>
</svg>
