<?xml version="1.0" encoding="UTF-8" standalone="no"?>
<!DOCTYPE svg PUBLIC "-//W3C//DTD SVG 1.1//EN"
 "http://www.w3.org/Graphics/SVG/1.1/DTD/svg11.dtd">
<!-- Generated by graphviz version 2.38.0 (20140413.2041)
 -->
<!-- Title: UIElement::changeButtonState Pages: 1 -->
<svg width="1114pt" height="541pt"
 viewBox="0.00 0.00 1114.00 541.00" xmlns="http://www.w3.org/2000/svg" xmlns:xlink="http://www.w3.org/1999/xlink">
<g id="graph0" class="graph" transform="scale(1 1) rotate(0) translate(4 537)">
<title>UIElement::changeButtonState</title>
<!-- Node1 -->
<g id="node1" class="node"><title>Node1</title>
<polygon fill="#bfbfbf" stroke="black" points="0,-247.5 0,-266.5 166,-266.5 166,-247.5 0,-247.5"/>
<text text-anchor="middle" x="83" y="-254.5" font-family="Helvetica,sans-Serif" font-size="10.00">UIElement::changeButtonState</text>
</g>
<!-- Node2 -->
<g id="node2" class="node"><title>Node2</title>
<g id="a_node2"><a xlink:href="classUIElement.html#a902b00b3e651b2a0e33345c3dbd810d4" target="_top" xlink:title="Set the Action Parameter of the UI Element. Sets the Parameter of the action the UI Element should ex...">
<polygon fill="none" stroke="black" points="207,-494.5 207,-513.5 374,-513.5 374,-494.5 207,-494.5"/>
<text text-anchor="middle" x="290.5" y="-501.5" font-family="Helvetica,sans-Serif" font-size="10.00">UIElement::setActionParameter</text>
</a>
</g>
</g>
<!-- Node1&#45;&gt;Node2 -->
<g id="edge1" class="edge"><title>Node1&#45;&gt;Node2</title>
<path fill="none" stroke="midnightblue" d="M88.723,-276.723C100.205,-320.311 133.786,-425.299 202,-480 209.865,-486.307 219.266,-490.96 228.944,-494.393"/>
<polygon fill="midnightblue" stroke="midnightblue" points="92.0614,-275.648 86.2186,-266.81 85.2746,-277.362 92.0614,-275.648"/>
</g>
<!-- Node9 -->
<g id="node9" class="node"><title>Node9</title>
<g id="a_node9"><a xlink:href="classButton.html#acfeb33328b356d4fda989808888f81db" target="_top" xlink:title="Button::onMouseButtonUp">
<polygon fill="none" stroke="black" points="429.5,-399.5 429.5,-418.5 573.5,-418.5 573.5,-399.5 429.5,-399.5"/>
<text text-anchor="middle" x="501.5" y="-406.5" font-family="Helvetica,sans-Serif" font-size="10.00">Button::onMouseButtonUp</text>
</a>
</g>
</g>
<!-- Node1&#45;&gt;Node9 -->
<g id="edge8" class="edge"><title>Node1&#45;&gt;Node9</title>
<path fill="none" stroke="midnightblue" d="M89.2715,-276.735C101.327,-317.403 135.166,-409.833 202,-447 296.28,-499.43 432.685,-442.55 481.91,-418.594"/>
<polygon fill="midnightblue" stroke="midnightblue" points="92.5891,-275.605 86.4962,-266.937 85.8541,-277.513 92.5891,-275.605"/>
</g>
<!-- Node10 -->
<g id="node10" class="node"><title>Node10</title>
<g id="a_node10"><a xlink:href="classButton.html#a407ed56d8e7936c774e469bd3a732f94" target="_top" xlink:title="Button::onMouseButtonDown">
<polygon fill="none" stroke="black" points="212,-418.5 212,-437.5 369,-437.5 369,-418.5 212,-418.5"/>
<text text-anchor="middle" x="290.5" y="-425.5" font-family="Helvetica,sans-Serif" font-size="10.00">Button::onMouseButtonDown</text>
</a>
</g>
</g>
<!-- Node1&#45;&gt;Node10 -->
<g id="edge9" class="edge"><title>Node1&#45;&gt;Node10</title>
<path fill="none" stroke="midnightblue" d="M93.1487,-276.081C109.89,-308.822 148.696,-375.414 202,-409 208.181,-412.895 215.042,-416 222.125,-418.474"/>
<polygon fill="midnightblue" stroke="midnightblue" points="96.0835,-274.122 88.4982,-266.725 89.8151,-277.238 96.0835,-274.122"/>
</g>
<!-- Node11 -->
<g id="node11" class="node"><title>Node11</title>
<g id="a_node11"><a xlink:href="classButton.html#af890652b6918d511cae071f9982c5f2b" target="_top" xlink:title="Button::onMouseEnter">
<polygon fill="none" stroke="black" points="228.5,-380.5 228.5,-399.5 352.5,-399.5 352.5,-380.5 228.5,-380.5"/>
<text text-anchor="middle" x="290.5" y="-387.5" font-family="Helvetica,sans-Serif" font-size="10.00">Button::onMouseEnter</text>
</a>
</g>
</g>
<!-- Node1&#45;&gt;Node11 -->
<g id="edge10" class="edge"><title>Node1&#45;&gt;Node11</title>
<path fill="none" stroke="midnightblue" d="M97.1352,-274.869C116.904,-300.389 156.834,-346.852 202,-371 210.088,-375.324 219.096,-378.665 228.169,-381.245"/>
<polygon fill="midnightblue" stroke="midnightblue" points="99.8383,-272.641 91.0079,-266.787 94.26,-276.87 99.8383,-272.641"/>
</g>
<!-- Node12 -->
<g id="node12" class="node"><title>Node12</title>
<g id="a_node12"><a xlink:href="classButton.html#a30125723c03d6f675c1ecdbfe2b6d265" target="_top" xlink:title="Button::onMouseLeave">
<polygon fill="none" stroke="black" points="227,-342.5 227,-361.5 354,-361.5 354,-342.5 227,-342.5"/>
<text text-anchor="middle" x="290.5" y="-349.5" font-family="Helvetica,sans-Serif" font-size="10.00">Button::onMouseLeave</text>
</a>
</g>
</g>
<!-- Node1&#45;&gt;Node12 -->
<g id="edge11" class="edge"><title>Node1&#45;&gt;Node12</title>
<path fill="none" stroke="midnightblue" d="M103.656,-272.841C126.126,-290.162 164.641,-317.512 202,-333 211.19,-336.81 221.254,-339.903 231.181,-342.398"/>
<polygon fill="midnightblue" stroke="midnightblue" points="105.626,-269.938 95.5965,-266.525 101.308,-275.448 105.626,-269.938"/>
</g>
<!-- Node13 -->
<g id="node13" class="node"><title>Node13</title>
<g id="a_node13"><a xlink:href="classButton.html#a25f11ea415fdbb64cb897421bf746918" target="_top" xlink:title="Button::setCheckState">
<polygon fill="none" stroke="black" points="228,-304.5 228,-323.5 353,-323.5 353,-304.5 228,-304.5"/>
<text text-anchor="middle" x="290.5" y="-311.5" font-family="Helvetica,sans-Serif" font-size="10.00">Button::setCheckState</text>
</a>
</g>
</g>
<!-- Node1&#45;&gt;Node13 -->
<g id="edge12" class="edge"><title>Node1&#45;&gt;Node13</title>
<path fill="none" stroke="midnightblue" d="M120.712,-269.845C143.862,-277.69 174.481,-287.6 202,-295 214.76,-298.431 228.693,-301.678 241.613,-304.486"/>
<polygon fill="midnightblue" stroke="midnightblue" points="121.554,-266.434 110.959,-266.513 119.291,-273.058 121.554,-266.434"/>
</g>
<!-- Node16 -->
<g id="node16" class="node"><title>Node16</title>
<g id="a_node16"><a xlink:href="classCheckbox.html#ae58c2c6329459ca23d025f1761c0c78e" target="_top" xlink:title="Checkbox::onMouseButtonUp">
<polygon fill="none" stroke="black" points="211.5,-266.5 211.5,-285.5 369.5,-285.5 369.5,-266.5 211.5,-266.5"/>
<text text-anchor="middle" x="290.5" y="-273.5" font-family="Helvetica,sans-Serif" font-size="10.00">Checkbox::onMouseButtonUp</text>
</a>
</g>
</g>
<!-- Node1&#45;&gt;Node16 -->
<g id="edge16" class="edge"><title>Node1&#45;&gt;Node16</title>
<path fill="none" stroke="midnightblue" d="M176.289,-265.533C187.947,-266.611 199.788,-267.705 211.201,-268.761"/>
<polygon fill="midnightblue" stroke="midnightblue" points="176.385,-262.027 166.105,-264.591 175.74,-268.997 176.385,-262.027"/>
</g>
<!-- Node17 -->
<g id="node17" class="node"><title>Node17</title>
<g id="a_node17"><a xlink:href="classCheckbox.html#a77988b3bf139576b2d33ce755c6bbca5" target="_top" xlink:title="Checkbox::onMouseButtonDown">
<polygon fill="none" stroke="black" points="205,-228.5 205,-247.5 376,-247.5 376,-228.5 205,-228.5"/>
<text text-anchor="middle" x="290.5" y="-235.5" font-family="Helvetica,sans-Serif" font-size="10.00">Checkbox::onMouseButtonDown</text>
</a>
</g>
</g>
<!-- Node1&#45;&gt;Node17 -->
<g id="edge17" class="edge"><title>Node1&#45;&gt;Node17</title>
<path fill="none" stroke="midnightblue" d="M176.339,-248.463C185.828,-247.585 195.437,-246.697 204.837,-245.828"/>
<polygon fill="midnightblue" stroke="midnightblue" points="175.74,-245.003 166.105,-249.409 176.385,-251.973 175.74,-245.003"/>
</g>
<!-- Node18 -->
<g id="node18" class="node"><title>Node18</title>
<g id="a_node18"><a xlink:href="classCheckbox.html#ae54b2346527479a073493ececaaef099" target="_top" xlink:title="Checkbox::onMouseEnter">
<polygon fill="none" stroke="black" points="221.5,-190.5 221.5,-209.5 359.5,-209.5 359.5,-190.5 221.5,-190.5"/>
<text text-anchor="middle" x="290.5" y="-197.5" font-family="Helvetica,sans-Serif" font-size="10.00">Checkbox::onMouseEnter</text>
</a>
</g>
</g>
<!-- Node1&#45;&gt;Node18 -->
<g id="edge18" class="edge"><title>Node1&#45;&gt;Node18</title>
<path fill="none" stroke="midnightblue" d="M120.712,-244.155C143.862,-236.31 174.481,-226.4 202,-219 214.76,-215.569 228.693,-212.322 241.613,-209.514"/>
<polygon fill="midnightblue" stroke="midnightblue" points="119.291,-240.942 110.959,-247.487 121.554,-247.566 119.291,-240.942"/>
</g>
<!-- Node19 -->
<g id="node19" class="node"><title>Node19</title>
<g id="a_node19"><a xlink:href="classCheckbox.html#a304b657ec5d71ba0a344c4ffc3279d2f" target="_top" xlink:title="Checkbox::onMouseLeave">
<polygon fill="none" stroke="black" points="220,-152.5 220,-171.5 361,-171.5 361,-152.5 220,-152.5"/>
<text text-anchor="middle" x="290.5" y="-159.5" font-family="Helvetica,sans-Serif" font-size="10.00">Checkbox::onMouseLeave</text>
</a>
</g>
</g>
<!-- Node1&#45;&gt;Node19 -->
<g id="edge19" class="edge"><title>Node1&#45;&gt;Node19</title>
<path fill="none" stroke="midnightblue" d="M103.656,-241.159C126.126,-223.838 164.641,-196.488 202,-181 211.19,-177.19 221.254,-174.097 231.181,-171.602"/>
<polygon fill="midnightblue" stroke="midnightblue" points="101.308,-238.552 95.5965,-247.475 105.626,-244.062 101.308,-238.552"/>
</g>
<!-- Node20 -->
<g id="node20" class="node"><title>Node20</title>
<g id="a_node20"><a xlink:href="classComboBox.html#af0d53d01cb6d97f6dec54647721d125e" target="_top" xlink:title="ComboBox::onMouseButtonUp">
<polygon fill="none" stroke="black" points="208.5,-114.5 208.5,-133.5 372.5,-133.5 372.5,-114.5 208.5,-114.5"/>
<text text-anchor="middle" x="290.5" y="-121.5" font-family="Helvetica,sans-Serif" font-size="10.00">ComboBox::onMouseButtonUp</text>
</a>
</g>
</g>
<!-- Node1&#45;&gt;Node20 -->
<g id="edge20" class="edge"><title>Node1&#45;&gt;Node20</title>
<path fill="none" stroke="midnightblue" d="M97.1352,-239.131C116.904,-213.611 156.834,-167.148 202,-143 209.266,-139.115 217.273,-136.025 225.404,-133.566"/>
<polygon fill="midnightblue" stroke="midnightblue" points="94.26,-237.13 91.0079,-247.213 99.8383,-241.359 94.26,-237.13"/>
</g>
<!-- Node21 -->
<g id="node21" class="node"><title>Node21</title>
<g id="a_node21"><a xlink:href="classComboBox.html#a132276aba4ff900343458e81f318fd74" target="_top" xlink:title="ComboBox::onMouseButtonDown">
<polygon fill="none" stroke="black" points="202,-76.5 202,-95.5 379,-95.5 379,-76.5 202,-76.5"/>
<text text-anchor="middle" x="290.5" y="-83.5" font-family="Helvetica,sans-Serif" font-size="10.00">ComboBox::onMouseButtonDown</text>
</a>
</g>
</g>
<!-- Node1&#45;&gt;Node21 -->
<g id="edge21" class="edge"><title>Node1&#45;&gt;Node21</title>
<path fill="none" stroke="midnightblue" d="M93.1487,-237.919C109.89,-205.178 148.696,-138.586 202,-105 208.181,-101.105 215.042,-98.0001 222.125,-95.526"/>
<polygon fill="midnightblue" stroke="midnightblue" points="89.8151,-236.762 88.4982,-247.275 96.0835,-239.878 89.8151,-236.762"/>
</g>
<!-- Node22 -->
<g id="node22" class="node"><title>Node22</title>
<g id="a_node22"><a xlink:href="classComboBox.html#a55112fe7f702cca98660f87fb231eb95" target="_top" xlink:title="ComboBox::onMouseLeave">
<polygon fill="none" stroke="black" points="217,-38.5 217,-57.5 364,-57.5 364,-38.5 217,-38.5"/>
<text text-anchor="middle" x="290.5" y="-45.5" font-family="Helvetica,sans-Serif" font-size="10.00">ComboBox::onMouseLeave</text>
</a>
</g>
</g>
<!-- Node1&#45;&gt;Node22 -->
<g id="edge22" class="edge"><title>Node1&#45;&gt;Node22</title>
<path fill="none" stroke="midnightblue" d="M90.2404,-237.579C103.825,-198.59 139.937,-110.788 202,-67 207.462,-63.1465 213.557,-60.0515 219.92,-57.5689"/>
<polygon fill="midnightblue" stroke="midnightblue" points="86.8737,-236.61 87.0035,-247.204 93.5086,-238.841 86.8737,-236.61"/>
</g>
<!-- Node23 -->
<g id="node23" class="node"><title>Node23</title>
<g id="a_node23"><a xlink:href="classComboBox.html#a9e34bb39454d682c02e434bcc0aa99a4" target="_top" xlink:title="ComboBox::onMouseMove">
<polygon fill="none" stroke="black" points="218.5,-0.5 218.5,-19.5 362.5,-19.5 362.5,-0.5 218.5,-0.5"/>
<text text-anchor="middle" x="290.5" y="-7.5" font-family="Helvetica,sans-Serif" font-size="10.00">ComboBox::onMouseMove</text>
</a>
</g>
</g>
<!-- Node1&#45;&gt;Node23 -->
<g id="edge23" class="edge"><title>Node1&#45;&gt;Node23</title>
<path fill="none" stroke="midnightblue" d="M88.1552,-237.472C98.704,-192.925 130.884,-83.4586 202,-29 206.937,-25.2196 212.467,-22.1566 218.285,-19.6793"/>
<polygon fill="midnightblue" stroke="midnightblue" points="84.7189,-236.8 85.9288,-247.325 91.5467,-238.342 84.7189,-236.8"/>
</g>
<!-- Node3 -->
<g id="node3" class="node"><title>Node3</title>
<g id="a_node3"><a xlink:href="classMenuGroupBuild.html#afe78eacb71e9b5ebe9adaae92c0378cc" target="_top" xlink:title="MenuGroupBuild::constructMenu">
<polygon fill="none" stroke="black" points="415,-513.5 415,-532.5 588,-532.5 588,-513.5 415,-513.5"/>
<text text-anchor="middle" x="501.5" y="-520.5" font-family="Helvetica,sans-Serif" font-size="10.00">MenuGroupBuild::constructMenu</text>
</a>
</g>
</g>
<!-- Node2&#45;&gt;Node3 -->
<g id="edge2" class="edge"><title>Node2&#45;&gt;Node3</title>
<path fill="none" stroke="midnightblue" d="M384.194,-512.427C394.35,-513.35 404.657,-514.287 414.724,-515.202"/>
<polygon fill="midnightblue" stroke="midnightblue" points="384.378,-508.929 374.102,-511.509 383.744,-515.9 384.378,-508.929"/>
</g>
<!-- Node4 -->
<g id="node4" class="node"><title>Node4</title>
<g id="a_node4"><a xlink:href="classUIManager.html#aae7a89e9d50bb6192e4140e07bd5f94b" target="_top" xlink:title="UIManager::createBuildMenu">
<polygon fill="none" stroke="black" points="424,-475.5 424,-494.5 579,-494.5 579,-475.5 424,-475.5"/>
<text text-anchor="middle" x="501.5" y="-482.5" font-family="Helvetica,sans-Serif" font-size="10.00">UIManager::createBuildMenu</text>
</a>
</g>
</g>
<!-- Node2&#45;&gt;Node4 -->
<g id="edge3" class="edge"><title>Node2&#45;&gt;Node4</title>
<path fill="none" stroke="midnightblue" d="M384.194,-495.573C397.475,-494.366 411.013,-493.135 423.937,-491.96"/>
<polygon fill="midnightblue" stroke="midnightblue" points="383.744,-492.1 374.102,-496.491 384.378,-499.071 383.744,-492.1"/>
</g>
<!-- Node5 -->
<g id="node5" class="node"><title>Node5</title>
<g id="a_node5"><a xlink:href="classUIManager.html#aedd9d0577af515a852425dfe414b2968" target="_top" xlink:title="Parses the UiLayout.json files and creates UI Elements. ">
<polygon fill="none" stroke="black" points="666,-475.5 666,-494.5 755,-494.5 755,-475.5 666,-475.5"/>
<text text-anchor="middle" x="710.5" y="-482.5" font-family="Helvetica,sans-Serif" font-size="10.00">UIManager::init</text>
</a>
</g>
</g>
<!-- Node4&#45;&gt;Node5 -->
<g id="edge4" class="edge"><title>Node4&#45;&gt;Node5</title>
<path fill="none" stroke="midnightblue" d="M589.319,-485C615.73,-485 643.629,-485 665.892,-485"/>
<polygon fill="midnightblue" stroke="midnightblue" points="589.285,-481.5 579.285,-485 589.285,-488.5 589.285,-481.5"/>
</g>
<!-- Node6 -->
<g id="node6" class="node"><title>Node6</title>
<g id="a_node6"><a xlink:href="classGame.html#a1c2ab25d5216b2f4b2fe41efd2c09114" target="_top" xlink:title="Game::run">
<polygon fill="none" stroke="black" points="833,-475.5 833,-494.5 901,-494.5 901,-475.5 833,-475.5"/>
<text text-anchor="middle" x="867" y="-482.5" font-family="Helvetica,sans-Serif" font-size="10.00">Game::run</text>
</a>
</g>
</g>
<!-- Node5&#45;&gt;Node6 -->
<g id="edge5" class="edge"><title>Node5&#45;&gt;Node6</title>
<path fill="none" stroke="midnightblue" d="M765.437,-485C787.878,-485 813.216,-485 832.844,-485"/>
<polygon fill="midnightblue" stroke="midnightblue" points="765.36,-481.5 755.36,-485 765.36,-488.5 765.36,-481.5"/>
</g>
<!-- Node7 -->
<g id="node7" class="node"><title>Node7</title>
<g id="a_node7"><a xlink:href="main_8cxx.html#af582d708d899e67ead623eac34a22387" target="_top" xlink:title="protected_main">
<polygon fill="none" stroke="black" points="937,-475.5 937,-494.5 1029,-494.5 1029,-475.5 937,-475.5"/>
<text text-anchor="middle" x="983" y="-482.5" font-family="Helvetica,sans-Serif" font-size="10.00">protected_main</text>
</a>
</g>
</g>
<!-- Node6&#45;&gt;Node7 -->
<g id="edge6" class="edge"><title>Node6&#45;&gt;Node7</title>
<path fill="none" stroke="midnightblue" d="M911.44,-485C919.674,-485 928.308,-485 936.601,-485"/>
<polygon fill="midnightblue" stroke="midnightblue" points="911.28,-481.5 901.28,-485 911.28,-488.5 911.28,-481.5"/>
</g>
<!-- Node8 -->
<g id="node8" class="node"><title>Node8</title>
<g id="a_node8"><a xlink:href="main_8cxx.html#a3c04138a5bfe5d72780bb7e82a18e627" target="_top" xlink:title="main">
<polygon fill="none" stroke="black" points="1065,-475.5 1065,-494.5 1106,-494.5 1106,-475.5 1065,-475.5"/>
<text text-anchor="middle" x="1085.5" y="-482.5" font-family="Helvetica,sans-Serif" font-size="10.00">main</text>
</a>
</g>
</g>
<!-- Node7&#45;&gt;Node8 -->
<g id="edge7" class="edge"><title>Node7&#45;&gt;Node8</title>
<path fill="none" stroke="midnightblue" d="M1039.54,-485C1048.62,-485 1057.47,-485 1064.88,-485"/>
<polygon fill="midnightblue" stroke="midnightblue" points="1039.25,-481.5 1029.25,-485 1039.25,-488.5 1039.25,-481.5"/>
</g>
<!-- Node13&#45;&gt;Node9 -->
<g id="edge15" class="edge"><title>Node13&#45;&gt;Node9</title>
<path fill="none" stroke="midnightblue" d="M359.252,-326.25C366.023,-328.203 372.712,-330.442 379,-333 422.327,-350.627 467.543,-383.352 488.507,-399.493"/>
<polygon fill="midnightblue" stroke="midnightblue" points="359.877,-322.794 349.312,-323.588 358.066,-329.556 359.877,-322.794"/>
</g>
<!-- Node14 -->
<g id="node14" class="node"><title>Node14</title>
<g id="a_node14"><a xlink:href="classButtonGroup.html#aa1a05dec9459ad23e5d7028fa9d35850" target="_top" xlink:title="Function to call the uncheck event of buttons. Function to call the uncheck event of buttons...">
<polygon fill="none" stroke="black" points="415,-304.5 415,-323.5 588,-323.5 588,-304.5 415,-304.5"/>
<text text-anchor="middle" x="501.5" y="-311.5" font-family="Helvetica,sans-Serif" font-size="10.00">ButtonGroup::uncheckAllButtons</text>
</a>
</g>
</g>
<!-- Node13&#45;&gt;Node14 -->
<g id="edge13" class="edge"><title>Node13&#45;&gt;Node14</title>
<path fill="none" stroke="midnightblue" d="M363.266,-314C379.916,-314 397.798,-314 414.974,-314"/>
<polygon fill="midnightblue" stroke="midnightblue" points="363.077,-310.5 353.076,-314 363.076,-317.5 363.077,-310.5"/>
</g>
<!-- Node15 -->
<g id="node15" class="node"><title>Node15</title>
<g id="a_node15"><a xlink:href="classButtonGroup.html#a295239eeae8b6c52735fe0cc7a093741" target="_top" xlink:title="ButtonGroup::onMouseButtonUp">
<polygon fill="none" stroke="black" points="624,-304.5 624,-323.5 797,-323.5 797,-304.5 624,-304.5"/>
<text text-anchor="middle" x="710.5" y="-311.5" font-family="Helvetica,sans-Serif" font-size="10.00">ButtonGroup::onMouseButtonUp</text>
</a>
</g>
</g>
<!-- Node14&#45;&gt;Node15 -->
<g id="edge14" class="edge"><title>Node14&#45;&gt;Node15</title>
<path fill="none" stroke="midnightblue" d="M598.198,-314C606.764,-314 615.402,-314 623.875,-314"/>
<polygon fill="midnightblue" stroke="midnightblue" points="598.189,-310.5 588.189,-314 598.189,-317.5 598.189,-310.5"/>
</g>
</g>
</svg>
