<?xml version="1.0" encoding="UTF-8" standalone="no"?>
<!DOCTYPE svg PUBLIC "-//W3C//DTD SVG 1.1//EN"
 "http://www.w3.org/Graphics/SVG/1.1/DTD/svg11.dtd">
<!-- Generated by graphviz version 2.38.0 (20140413.2041)
 -->
<!-- Title: Map::isClickWithinTile Pages: 1 -->
<svg width="974pt" height="28pt"
 viewBox="0.00 0.00 974.00 28.00" xmlns="http://www.w3.org/2000/svg" xmlns:xlink="http://www.w3.org/1999/xlink">
<g id="graph0" class="graph" transform="scale(1 1) rotate(0) translate(4 24)">
<title>Map::isClickWithinTile</title>
<!-- Node1 -->
<g id="node1" class="node"><title>Node1</title>
<polygon fill="#bfbfbf" stroke="black" points="0,-0.5 0,-19.5 116,-19.5 116,-0.5 0,-0.5"/>
<text text-anchor="middle" x="58" y="-7.5" font-family="Helvetica,sans-Serif" font-size="10.00">Map::isClickWithinTile</text>
</g>
<!-- Node2 -->
<g id="node2" class="node"><title>Node2</title>
<g id="a_node2"><a xlink:href="classMap.html#a4619fa631a0082754a92f1d3a8530bba" target="_top" xlink:title="Returns the node at given screencoordinates. ">
<polygon fill="none" stroke="black" points="152,-0.5 152,-19.5 266,-19.5 266,-0.5 152,-0.5"/>
<text text-anchor="middle" x="209" y="-7.5" font-family="Helvetica,sans-Serif" font-size="10.00">Map::findNodeInMap</text>
</a>
</g>
</g>
<!-- Node1&#45;&gt;Node2 -->
<g id="edge1" class="edge"><title>Node1&#45;&gt;Node2</title>
<path fill="none" stroke="midnightblue" d="M126.407,-10C134.865,-10 143.447,-10 151.709,-10"/>
<polygon fill="midnightblue" stroke="midnightblue" points="126.181,-6.5001 116.181,-10 126.181,-13.5001 126.181,-6.5001"/>
</g>
<!-- Node3 -->
<g id="node3" class="node"><title>Node3</title>
<g id="a_node3"><a xlink:href="isoMath_8hxx.html#ad3c5f070c4a876bc6e8978635d02ce52" target="_top" xlink:title="converts screen space coordinates to isometric space coordinates. To convert screen coordinates in to...">
<polygon fill="none" stroke="black" points="302,-0.5 302,-19.5 469,-19.5 469,-0.5 302,-0.5"/>
<text text-anchor="middle" x="385.5" y="-7.5" font-family="Helvetica,sans-Serif" font-size="10.00">convertScreenToIsoCoordinates</text>
</a>
</g>
</g>
<!-- Node2&#45;&gt;Node3 -->
<g id="edge2" class="edge"><title>Node2&#45;&gt;Node3</title>
<path fill="none" stroke="midnightblue" d="M276.203,-10C284.556,-10 293.182,-10 301.749,-10"/>
<polygon fill="midnightblue" stroke="midnightblue" points="276.173,-6.5001 266.173,-10 276.173,-13.5001 276.173,-6.5001"/>
</g>
<!-- Node4 -->
<g id="node4" class="node"><title>Node4</title>
<g id="a_node4"><a xlink:href="classEventManager.html#a65ec91fd5016d4f9c4167fb8babed2df" target="_top" xlink:title="EventManager::checkEvents">
<polygon fill="none" stroke="black" points="505,-0.5 505,-19.5 657,-19.5 657,-0.5 505,-0.5"/>
<text text-anchor="middle" x="581" y="-7.5" font-family="Helvetica,sans-Serif" font-size="10.00">EventManager::checkEvents</text>
</a>
</g>
</g>
<!-- Node3&#45;&gt;Node4 -->
<g id="edge3" class="edge"><title>Node3&#45;&gt;Node4</title>
<path fill="none" stroke="midnightblue" d="M479.142,-10C487.707,-10 496.315,-10 504.698,-10"/>
<polygon fill="midnightblue" stroke="midnightblue" points="479.123,-6.5001 469.123,-10 479.123,-13.5001 479.123,-6.5001"/>
</g>
<!-- Node5 -->
<g id="node5" class="node"><title>Node5</title>
<g id="a_node5"><a xlink:href="classGame.html#a1c2ab25d5216b2f4b2fe41efd2c09114" target="_top" xlink:title="Game::run">
<polygon fill="none" stroke="black" points="693,-0.5 693,-19.5 761,-19.5 761,-0.5 693,-0.5"/>
<text text-anchor="middle" x="727" y="-7.5" font-family="Helvetica,sans-Serif" font-size="10.00">Game::run</text>
</a>
</g>
</g>
<!-- Node4&#45;&gt;Node5 -->
<g id="edge4" class="edge"><title>Node4&#45;&gt;Node5</title>
<path fill="none" stroke="midnightblue" d="M667.473,-10C676.339,-10 684.922,-10 692.658,-10"/>
<polygon fill="midnightblue" stroke="midnightblue" points="667.374,-6.5001 657.374,-10 667.374,-13.5001 667.374,-6.5001"/>
</g>
<!-- Node6 -->
<g id="node6" class="node"><title>Node6</title>
<g id="a_node6"><a xlink:href="main_8cxx.html#af582d708d899e67ead623eac34a22387" target="_top" xlink:title="protected_main">
<polygon fill="none" stroke="black" points="797,-0.5 797,-19.5 889,-19.5 889,-0.5 797,-0.5"/>
<text text-anchor="middle" x="843" y="-7.5" font-family="Helvetica,sans-Serif" font-size="10.00">protected_main</text>
</a>
</g>
</g>
<!-- Node5&#45;&gt;Node6 -->
<g id="edge5" class="edge"><title>Node5&#45;&gt;Node6</title>
<path fill="none" stroke="midnightblue" d="M771.44,-10C779.674,-10 788.308,-10 796.601,-10"/>
<polygon fill="midnightblue" stroke="midnightblue" points="771.28,-6.5001 761.28,-10 771.28,-13.5001 771.28,-6.5001"/>
</g>
<!-- Node7 -->
<g id="node7" class="node"><title>Node7</title>
<g id="a_node7"><a xlink:href="main_8cxx.html#a3c04138a5bfe5d72780bb7e82a18e627" target="_top" xlink:title="main">
<polygon fill="none" stroke="black" points="925,-0.5 925,-19.5 966,-19.5 966,-0.5 925,-0.5"/>
<text text-anchor="middle" x="945.5" y="-7.5" font-family="Helvetica,sans-Serif" font-size="10.00">main</text>
</a>
</g>
</g>
<!-- Node6&#45;&gt;Node7 -->
<g id="edge6" class="edge"><title>Node6&#45;&gt;Node7</title>
<path fill="none" stroke="midnightblue" d="M899.539,-10C908.619,-10 917.466,-10 924.877,-10"/>
<polygon fill="midnightblue" stroke="midnightblue" points="899.252,-6.5001 889.252,-10 899.252,-13.5001 899.252,-6.5001"/>
</g>
</g>
</svg>
