<?xml version="1.0" encoding="UTF-8" standalone="no"?>
<!DOCTYPE svg PUBLIC "-//W3C//DTD SVG 1.1//EN"
 "http://www.w3.org/Graphics/SVG/1.1/DTD/svg11.dtd">
<!-- Generated by graphviz version 2.38.0 (20140413.2041)
 -->
<!-- Title: Map::increaseHeight Pages: 1 -->
<!--zoomable 363 -->
<svg id="main" version="1.1" xmlns="http://www.w3.org/2000/svg" xmlns:xlink="http://www.w3.org/1999/xlink" xml:space="preserve" onload="init(evt)">
<style type="text/css"><![CDATA[
.edge:hover path { stroke: red; }
.edge:hover polygon { stroke: red; fill: red; }
]]></style>
<script type="text/javascript"><![CDATA[
var edges = document.getElementsByTagName('g');
if (edges && edges.length) {
  for (var i=0;i<edges.length;i++) {
    if (edges[i].id.substr(0,4)=='edge') {
      edges[i].setAttribute('class','edge');
    }
  }
}
]]></script>
        <defs>
                <circle id="rim" cx="0" cy="0" r="7"/>
                <circle id="rim2" cx="0" cy="0" r="3.5"/>
                <g id="zoomPlus">
                        <use xlink:href="#rim" fill="#404040">
                                <set attributeName="fill" to="#808080" begin="zoomplus.mouseover" end="zoomplus.mouseout"/>
                        </use>
                        <path d="M-4,0h8M0,-4v8" fill="none" stroke="white" stroke-width="1.5" pointer-events="none"/>
                </g>
                <g id="zoomMin">
                        <use xlink:href="#rim" fill="#404040">
                                <set attributeName="fill" to="#808080" begin="zoomminus.mouseover" end="zoomminus.mouseout"/>
                        </use>
                        <path d="M-4,0h8" fill="none" stroke="white" stroke-width="1.5" pointer-events="none"/>
                </g>
                <g id="dirArrow">
                        <path fill="none" stroke="white" stroke-width="1.5" d="M0,-3.0v7 M-2.5,-0.5L0,-3.0L2.5,-0.5"/>
                </g>
               <g id="resetDef">
                       <use xlink:href="#rim2" fill="#404040">
                               <set attributeName="fill" to="#808080" begin="reset.mouseover" end="reset.mouseout"/>
                       </use>
               </g>
        </defs>

<script type="text/javascript">
var viewWidth = 1751;
var viewHeight = 363;
var sectionId = 'dynsection-16';
</script>
<script xlink:href="svgpan.js"/>
<svg id="graph" class="graph">
<g id="viewport">
<title>Map::increaseHeight</title>
<!-- Node1 -->
<g id="node1" class="node"><title>Node1</title>
<polygon fill="#bfbfbf" stroke="black" points="0,-59.5 0,-78.5 115,-78.5 115,-59.5 0,-59.5"/>
<text text-anchor="middle" x="57.5" y="-66.5" font-family="Helvetica,sans-Serif" font-size="10.00">Map::increaseHeight</text>
</g>
<!-- Node2 -->
<g id="node2" class="node"><title>Node2</title>
<g id="a_node2"><a xlink:href="classEngine.html#aa7210df73b284c19cd6edcfa99a4532e" target="_top" xlink:title="Increase Height Increases the height of the given map node Calls the according function of the Map ob...">
<polygon fill="none" stroke="black" points="168,-0.5 168,-19.5 295,-19.5 295,-0.5 168,-0.5"/>
<text text-anchor="middle" x="231.5" y="-7.5" font-family="Helvetica,sans-Serif" font-size="10.00">Engine::increaseHeight</text>
</a>
</g>
</g>
<!-- Node1&#45;&gt;Node2 -->
<g id="edge1" class="edge"><title>Node1&#45;&gt;Node2</title>
<path fill="none" stroke="midnightblue" d="M92.0371,-55.6762C109.512,-48.8954 131.294,-40.694 151,-34 166.016,-28.8991 182.806,-23.7507 197.073,-19.5373"/>
<polygon fill="midnightblue" stroke="midnightblue" points="90.3353,-52.5833 82.2944,-59.4823 92.8825,-59.1035 90.3353,-52.5833"/>
</g>
<!-- Node7 -->
<g id="node7" class="node"><title>Node7</title>
<g id="a_node7"><a xlink:href="classMap.html#a59d21f2688713fbcfe320eb1b24405ca" target="_top" xlink:title="Update mapNode and its adjacent tiles Updates mapNode height information, draws slopes for adjacent t...">
<polygon fill="none" stroke="black" points="151,-80.5 151,-99.5 312,-99.5 312,-80.5 151,-80.5"/>
<text text-anchor="middle" x="231.5" y="-87.5" font-family="Helvetica,sans-Serif" font-size="10.00">Map::updateNeighborsOfNode</text>
</a>
</g>
</g>
<!-- Node1&#45;&gt;Node7 -->
<g id="edge6" class="edge"><title>Node1&#45;&gt;Node7</title>
<path fill="none" stroke="midnightblue" d="M125.35,-70.5629C150.035,-73.1815 176.937,-76.8467 197.351,-80.4955"/>
<polygon fill="midnightblue" stroke="midnightblue" points="125.598,-67.0702 115.296,-69.5429 124.892,-74.0345 125.598,-67.0702"/>
</g>
<!-- Node3 -->
<g id="node3" class="node"><title>Node3</title>
<g id="a_node3"><a xlink:href="classEventManager.html#a65ec91fd5016d4f9c4167fb8babed2df" target="_top" xlink:title="EventManager::checkEvents">
<polygon fill="none" stroke="black" points="1146,-93.5 1146,-112.5 1298,-112.5 1298,-93.5 1146,-93.5"/>
<text text-anchor="middle" x="1222" y="-100.5" font-family="Helvetica,sans-Serif" font-size="10.00">EventManager::checkEvents</text>
</a>
</g>
</g>
<!-- Node2&#45;&gt;Node3 -->
<g id="edge2" class="edge"><title>Node2&#45;&gt;Node3</title>
<path fill="none" stroke="midnightblue" d="M305.661,-9.30062C372.332,-8.72386 473.53,-8 561.5,-8 561.5,-8 561.5,-8 891.5,-8 1013.84,-8 1152.09,-69.2163 1201.88,-93.3681"/>
<polygon fill="midnightblue" stroke="midnightblue" points="305.233,-5.80414 295.264,-9.39179 305.295,-12.8039 305.233,-5.80414"/>
</g>
<!-- Node4 -->
<g id="node4" class="node"><title>Node4</title>
<g id="a_node4"><a xlink:href="classGame.html#a1c2ab25d5216b2f4b2fe41efd2c09114" target="_top" xlink:title="Game::run">
<polygon fill="none" stroke="black" points="1470,-226.5 1470,-245.5 1538,-245.5 1538,-226.5 1470,-226.5"/>
<text text-anchor="middle" x="1504" y="-233.5" font-family="Helvetica,sans-Serif" font-size="10.00">Game::run</text>
</a>
</g>
</g>
<!-- Node3&#45;&gt;Node4 -->
<g id="edge3" class="edge"><title>Node3&#45;&gt;Node4</title>
<path fill="none" stroke="midnightblue" d="M1252.32,-116.929C1309.32,-144.003 1433.75,-203.107 1482.67,-226.343"/>
<polygon fill="midnightblue" stroke="midnightblue" points="1253.67,-113.694 1243.14,-112.565 1250.67,-120.017 1253.67,-113.694"/>
</g>
<!-- Node5 -->
<g id="node5" class="node"><title>Node5</title>
<g id="a_node5"><a xlink:href="main_8cxx.html#af582d708d899e67ead623eac34a22387" target="_top" xlink:title="protected_main">
<polygon fill="none" stroke="black" points="1574,-207.5 1574,-226.5 1666,-226.5 1666,-207.5 1574,-207.5"/>
<text text-anchor="middle" x="1620" y="-214.5" font-family="Helvetica,sans-Serif" font-size="10.00">protected_main</text>
</a>
</g>
</g>
<!-- Node4&#45;&gt;Node5 -->
<g id="edge4" class="edge"><title>Node4&#45;&gt;Node5</title>
<path fill="none" stroke="midnightblue" d="M1548.17,-228.806C1556.48,-227.42 1565.22,-225.964 1573.6,-224.566"/>
<polygon fill="midnightblue" stroke="midnightblue" points="1547.57,-225.357 1538.28,-230.453 1548.72,-232.262 1547.57,-225.357"/>
</g>
<!-- Node6 -->
<g id="node6" class="node"><title>Node6</title>
<g id="a_node6"><a xlink:href="main_8cxx.html#a3c04138a5bfe5d72780bb7e82a18e627" target="_top" xlink:title="main">
<polygon fill="none" stroke="black" points="1702,-207.5 1702,-226.5 1743,-226.5 1743,-207.5 1702,-207.5"/>
<text text-anchor="middle" x="1722.5" y="-214.5" font-family="Helvetica,sans-Serif" font-size="10.00">main</text>
</a>
</g>
</g>
<!-- Node5&#45;&gt;Node6 -->
<g id="edge5" class="edge"><title>Node5&#45;&gt;Node6</title>
<path fill="none" stroke="midnightblue" d="M1676.54,-217C1685.62,-217 1694.47,-217 1701.88,-217"/>
<polygon fill="midnightblue" stroke="midnightblue" points="1676.25,-213.5 1666.25,-217 1676.25,-220.5 1676.25,-213.5"/>
</g>
<!-- Node7&#45;&gt;Node1 -->
<g id="edge7" class="edge"><title>Node7&#45;&gt;Node1</title>
<path fill="none" stroke="midnightblue" d="M140.442,-85.7478C123,-83.5608 105.781,-81.03 91.6633,-78.507"/>
<polygon fill="midnightblue" stroke="midnightblue" points="140.367,-89.2643 150.715,-86.9931 141.209,-82.3151 140.367,-89.2643"/>
</g>
<!-- Node8 -->
<g id="node8" class="node"><title>Node8</title>
<g id="a_node8"><a xlink:href="classMap.html#afb8cc864df90d273a5074872d635dc40" target="_top" xlink:title="Decrease Height Decreases the height of the node and checks the surrounding tiles. Either draw a slope sprite or lower the tile if necessary. ">
<polygon fill="none" stroke="black" points="503,-79.5 503,-98.5 622,-98.5 622,-79.5 503,-79.5"/>
<text text-anchor="middle" x="562.5" y="-86.5" font-family="Helvetica,sans-Serif" font-size="10.00">Map::decreaseHeight</text>
</a>
</g>
</g>
<!-- Node7&#45;&gt;Node8 -->
<g id="edge8" class="edge"><title>Node7&#45;&gt;Node8</title>
<path fill="none" stroke="midnightblue" d="M322.327,-83.6375C379.846,-82.3715 452.828,-82.4104 502.957,-83.8709"/>
<polygon fill="midnightblue" stroke="midnightblue" points="322.056,-80.1429 312.142,-83.8797 322.222,-87.1409 322.056,-80.1429"/>
</g>
<!-- Node10 -->
<g id="node10" class="node"><title>Node10</title>
<g id="a_node10"><a xlink:href="classMap.html#a481b37ba71ef0e51e836fc42805762dd" target="_top" xlink:title="Update all mapNodes Updates all mapNode and its adjacent tiles regarding height information, draws slopes for adjacent tiles and sets tiling for mapNode sprite if applicable. ">
<polygon fill="none" stroke="black" points="348,-171.5 348,-190.5 467,-190.5 467,-171.5 348,-171.5"/>
<text text-anchor="middle" x="407.5" y="-178.5" font-family="Helvetica,sans-Serif" font-size="10.00">Map::updateAllNodes</text>
</a>
</g>
</g>
<!-- Node7&#45;&gt;Node10 -->
<g id="edge12" class="edge"><title>Node7&#45;&gt;Node10</title>
<path fill="none" stroke="midnightblue" d="M255.236,-105.244C278.054,-120.14 314.527,-142.867 348,-159 357.579,-163.617 368.397,-167.923 378.102,-171.479"/>
<polygon fill="midnightblue" stroke="midnightblue" points="256.901,-102.15 246.625,-99.5705 253.05,-107.995 256.901,-102.15"/>
</g>
<!-- Node20 -->
<g id="node20" class="node"><title>Node20</title>
<g id="a_node20"><a xlink:href="classMap.html#ad4c2c2f80eab02ca32a748a62a56da12" target="_top" xlink:title="Set the Tile ID Of Node object Also invokes all necessary texture updates (auto&#45;tiling, slopes, ...) ">
<polygon fill="none" stroke="black" points="348,-130.5 348,-149.5 467,-149.5 467,-130.5 348,-130.5"/>
<text text-anchor="middle" x="407.5" y="-137.5" font-family="Helvetica,sans-Serif" font-size="10.00">Map::setTileIDOfNode</text>
</a>
</g>
</g>
<!-- Node7&#45;&gt;Node20 -->
<g id="edge32" class="edge"><title>Node7&#45;&gt;Node20</title>
<path fill="none" stroke="midnightblue" d="M275.471,-102.348C305.644,-111.018 345.412,-122.446 373.19,-130.428"/>
<polygon fill="midnightblue" stroke="midnightblue" points="276.215,-98.9203 265.638,-99.5223 274.282,-105.648 276.215,-98.9203"/>
</g>
<!-- Node22 -->
<g id="node22" class="node"><title>Node22</title>
<g id="a_node22"><a xlink:href="classMap.html#a05e7d896dc5062af07c9b838600a068d" target="_top" xlink:title="Demolish a node Invokes the tiles demolish function. ">
<polygon fill="none" stroke="black" points="351.5,-36.5 351.5,-55.5 463.5,-55.5 463.5,-36.5 351.5,-36.5"/>
<text text-anchor="middle" x="407.5" y="-43.5" font-family="Helvetica,sans-Serif" font-size="10.00">Map::demolishNode</text>
</a>
</g>
</g>
<!-- Node7&#45;&gt;Node22 -->
<g id="edge35" class="edge"><title>Node7&#45;&gt;Node22</title>
<path fill="none" stroke="midnightblue" d="M262.188,-77.2649C286.539,-69.5625 321.682,-60.3066 351.191,-53.651"/>
<polygon fill="midnightblue" stroke="midnightblue" points="260.869,-74.0139 252.46,-80.4587 263.053,-80.6646 260.869,-74.0139"/>
</g>
<!-- Node8&#45;&gt;Node7 -->
<g id="edge11" class="edge"><title>Node8&#45;&gt;Node7</title>
<path fill="none" stroke="midnightblue" d="M492.704,-94.8189C440.044,-96.4038 367.322,-96.7143 312.142,-95.6362"/>
<polygon fill="midnightblue" stroke="midnightblue" points="493.076,-98.3087 502.957,-94.485 492.848,-91.3124 493.076,-98.3087"/>
</g>
<!-- Node9 -->
<g id="node9" class="node"><title>Node9</title>
<g id="a_node9"><a xlink:href="classEngine.html#a3e87fa5bbc0de7cde5fe6092ddf21a37" target="_top" xlink:title="Decrease Height Decreases the height of the given map node Calls the according function of the Map ob...">
<polygon fill="none" stroke="black" points="658,-77.5 658,-96.5 789,-96.5 789,-77.5 658,-77.5"/>
<text text-anchor="middle" x="723.5" y="-84.5" font-family="Helvetica,sans-Serif" font-size="10.00">Engine::decreaseHeight</text>
</a>
</g>
</g>
<!-- Node8&#45;&gt;Node9 -->
<g id="edge9" class="edge"><title>Node8&#45;&gt;Node9</title>
<path fill="none" stroke="midnightblue" d="M632.436,-88.1329C640.87,-88.0268 649.466,-87.9187 657.835,-87.8134"/>
<polygon fill="midnightblue" stroke="midnightblue" points="632.209,-84.6354 622.254,-88.261 632.297,-91.6348 632.209,-84.6354"/>
</g>
<!-- Node9&#45;&gt;Node3 -->
<g id="edge10" class="edge"><title>Node9&#45;&gt;Node3</title>
<path fill="none" stroke="midnightblue" d="M799.394,-89.4135C892.967,-92.4289 1052.15,-97.5589 1145.85,-100.578"/>
<polygon fill="midnightblue" stroke="midnightblue" points="799.262,-85.9075 789.154,-89.0835 799.036,-92.9039 799.262,-85.9075"/>
</g>
<!-- Node11 -->
<g id="node11" class="node"><title>Node11</title>
<g id="a_node11"><a xlink:href="classMap.html#a482ac34426e8aa66abb46f60ec329402" target="_top" xlink:title="Initialize the Map with node objects Initialize the Map with node objects. ">
<polygon fill="none" stroke="black" points="524,-209.5 524,-228.5 601,-228.5 601,-209.5 524,-209.5"/>
<text text-anchor="middle" x="562.5" y="-216.5" font-family="Helvetica,sans-Serif" font-size="10.00">Map::initMap</text>
</a>
</g>
</g>
<!-- Node10&#45;&gt;Node11 -->
<g id="edge13" class="edge"><title>Node10&#45;&gt;Node11</title>
<path fill="none" stroke="midnightblue" d="M457.093,-193.069C478.724,-198.441 503.804,-204.67 523.962,-209.677"/>
<polygon fill="midnightblue" stroke="midnightblue" points="457.657,-189.603 447.108,-190.589 455.97,-196.396 457.657,-189.603"/>
</g>
<!-- Node17 -->
<g id="node17" class="node"><title>Node17</title>
<g id="a_node17"><a xlink:href="classMap.html#afefe996cc1f62b61ec60d0ae415953bf" target="_top" xlink:title="Map::loadMapFromFile">
<polygon fill="none" stroke="black" points="662.5,-188.5 662.5,-207.5 784.5,-207.5 784.5,-188.5 662.5,-188.5"/>
<text text-anchor="middle" x="723.5" y="-195.5" font-family="Helvetica,sans-Serif" font-size="10.00">Map::loadMapFromFile</text>
</a>
</g>
</g>
<!-- Node10&#45;&gt;Node17 -->
<g id="edge31" class="edge"><title>Node10&#45;&gt;Node17</title>
<path fill="none" stroke="midnightblue" d="M477.264,-184.723C532.609,-187.719 609.617,-191.889 662.493,-194.751"/>
<polygon fill="midnightblue" stroke="midnightblue" points="477.367,-181.223 467.193,-184.178 476.989,-188.213 477.367,-181.223"/>
</g>
<!-- Node12 -->
<g id="node12" class="node"><title>Node12</title>
<g id="a_node12"><a xlink:href="classEngine.html#a260d4834150eae6eec2bde34df6dc827" target="_top" xlink:title="Creates a new game Creates a new game. ">
<polygon fill="none" stroke="black" points="839,-302.5 839,-321.5 942,-321.5 942,-302.5 839,-302.5"/>
<text text-anchor="middle" x="890.5" y="-309.5" font-family="Helvetica,sans-Serif" font-size="10.00">Engine::newGame</text>
</a>
</g>
</g>
<!-- Node11&#45;&gt;Node12 -->
<g id="edge14" class="edge"><title>Node11&#45;&gt;Node12</title>
<path fill="none" stroke="midnightblue" d="M606.502,-231.268C672.247,-250.023 796.379,-285.435 855.948,-302.428"/>
<polygon fill="midnightblue" stroke="midnightblue" points="607.432,-227.893 596.856,-228.516 605.512,-234.625 607.432,-227.893"/>
</g>
<!-- Node11&#45;&gt;Node17 -->
<g id="edge23" class="edge"><title>Node11&#45;&gt;Node17</title>
<path fill="none" stroke="midnightblue" d="M611.397,-212.674C627.445,-210.554 645.545,-208.164 662.405,-205.937"/>
<polygon fill="midnightblue" stroke="midnightblue" points="610.636,-209.244 601.181,-214.023 611.553,-216.184 610.636,-209.244"/>
</g>
<!-- Node12&#45;&gt;Node4 -->
<g id="edge22" class="edge"><title>Node12&#45;&gt;Node4</title>
<path fill="none" stroke="midnightblue" d="M920.257,-325.678C939.953,-334.267 966.946,-344.535 992,-349 1038.82,-357.344 1051.89,-355.465 1099,-349 1246.2,-328.802 1415.34,-269.038 1477.98,-245.593"/>
<polygon fill="midnightblue" stroke="midnightblue" points="921.5,-322.4 910.943,-321.505 918.638,-328.788 921.5,-322.4"/>
</g>
<!-- Node13 -->
<g id="node13" class="node"><title>Node13</title>
<g id="a_node13"><a xlink:href="classEngine.html#af7de8d74b0cfacaf06df53e7caf11538" target="_top" xlink:title="Engine::saveGame">
<polygon fill="none" stroke="black" points="992,-302.5 992,-321.5 1099,-321.5 1099,-302.5 992,-302.5"/>
<text text-anchor="middle" x="1045.5" y="-309.5" font-family="Helvetica,sans-Serif" font-size="10.00">Engine::saveGame</text>
</a>
</g>
</g>
<!-- Node12&#45;&gt;Node13 -->
<g id="edge15" class="edge"><title>Node12&#45;&gt;Node13</title>
<path fill="none" stroke="midnightblue" d="M952.356,-312C965.451,-312 979.185,-312 991.933,-312"/>
<polygon fill="midnightblue" stroke="midnightblue" points="952.022,-308.5 942.022,-312 952.022,-315.5 952.022,-308.5"/>
</g>
<!-- Node14 -->
<g id="node14" class="node"><title>Node14</title>
<g id="a_node14"><a xlink:href="classUIManager.html#aa78e356fc3b356d790c848319d1c387e" target="_top" xlink:title="UIManager::setCallbackFunctions">
<polygon fill="none" stroke="black" points="1135,-226.5 1135,-245.5 1309,-245.5 1309,-226.5 1135,-226.5"/>
<text text-anchor="middle" x="1222" y="-233.5" font-family="Helvetica,sans-Serif" font-size="10.00">UIManager::setCallbackFunctions</text>
</a>
</g>
</g>
<!-- Node12&#45;&gt;Node14 -->
<g id="edge19" class="edge"><title>Node12&#45;&gt;Node14</title>
<path fill="none" stroke="midnightblue" d="M928.504,-324.385C970.882,-336.541 1041.83,-350.634 1099,-331 1149.27,-313.736 1194.76,-266.348 1212.79,-245.761"/>
<polygon fill="midnightblue" stroke="midnightblue" points="929.468,-321.02 918.884,-321.517 927.468,-327.728 929.468,-321.02"/>
</g>
<!-- Node16 -->
<g id="node16" class="node"><title>Node16</title>
<g id="a_node16"><a xlink:href="classGame.html#a5ed7fc5be77080f7f6dd5363f7f007a1" target="_top" xlink:title="Game::mainMenu">
<polygon fill="none" stroke="black" points="1171,-188.5 1171,-207.5 1273,-207.5 1273,-188.5 1171,-188.5"/>
<text text-anchor="middle" x="1222" y="-195.5" font-family="Helvetica,sans-Serif" font-size="10.00">Game::mainMenu</text>
</a>
</g>
</g>
<!-- Node12&#45;&gt;Node16 -->
<g id="edge20" class="edge"><title>Node12&#45;&gt;Node16</title>
<path fill="none" stroke="midnightblue" d="M921.914,-298.372C967.484,-278.36 1056.52,-240.822 1135,-217 1146.71,-213.447 1159.49,-210.259 1171.54,-207.555"/>
<polygon fill="midnightblue" stroke="midnightblue" points="920.341,-295.241 912.606,-302.482 923.168,-301.644 920.341,-295.241"/>
</g>
<!-- Node13&#45;&gt;Node14 -->
<g id="edge16" class="edge"><title>Node13&#45;&gt;Node14</title>
<path fill="none" stroke="midnightblue" d="M1077.88,-298.334C1112.85,-283.102 1168.5,-258.867 1199.08,-245.547"/>
<polygon fill="midnightblue" stroke="midnightblue" points="1076.37,-295.173 1068.6,-302.375 1079.17,-301.59 1076.37,-295.173"/>
</g>
<!-- Node15 -->
<g id="node15" class="node"><title>Node15</title>
<g id="a_node15"><a xlink:href="classUIManager.html#aedd9d0577af515a852425dfe414b2968" target="_top" xlink:title="Parses the UiLayout.json files and creates UI Elements. ">
<polygon fill="none" stroke="black" points="1345,-226.5 1345,-245.5 1434,-245.5 1434,-226.5 1345,-226.5"/>
<text text-anchor="middle" x="1389.5" y="-233.5" font-family="Helvetica,sans-Serif" font-size="10.00">UIManager::init</text>
</a>
</g>
</g>
<!-- Node14&#45;&gt;Node15 -->
<g id="edge17" class="edge"><title>Node14&#45;&gt;Node15</title>
<path fill="none" stroke="midnightblue" d="M1319.28,-236C1328.19,-236 1336.89,-236 1344.95,-236"/>
<polygon fill="midnightblue" stroke="midnightblue" points="1319.14,-232.5 1309.14,-236 1319.14,-239.5 1319.14,-232.5"/>
</g>
<!-- Node15&#45;&gt;Node4 -->
<g id="edge18" class="edge"><title>Node15&#45;&gt;Node4</title>
<path fill="none" stroke="midnightblue" d="M1444.45,-236C1453.15,-236 1461.92,-236 1469.93,-236"/>
<polygon fill="midnightblue" stroke="midnightblue" points="1444.32,-232.5 1434.32,-236 1444.32,-239.5 1444.32,-232.5"/>
</g>
<!-- Node16&#45;&gt;Node5 -->
<g id="edge21" class="edge"><title>Node16&#45;&gt;Node5</title>
<path fill="none" stroke="midnightblue" d="M1283.55,-200.905C1363.5,-204.741 1502.46,-211.408 1573.83,-214.833"/>
<polygon fill="midnightblue" stroke="midnightblue" points="1283.31,-197.39 1273.15,-200.406 1282.97,-204.382 1283.31,-197.39"/>
</g>
<!-- Node18 -->
<g id="node18" class="node"><title>Node18</title>
<g id="a_node18"><a xlink:href="classEngine.html#a83b7dbeee899b36a13d5b07c7ad87ebc" target="_top" xlink:title="Loads a saved game Loads a saved Game. ">
<polygon fill="none" stroke="black" points="838.5,-188.5 838.5,-207.5 942.5,-207.5 942.5,-188.5 838.5,-188.5"/>
<text text-anchor="middle" x="890.5" y="-195.5" font-family="Helvetica,sans-Serif" font-size="10.00">Engine::loadGame</text>
</a>
</g>
</g>
<!-- Node17&#45;&gt;Node18 -->
<g id="edge24" class="edge"><title>Node17&#45;&gt;Node18</title>
<path fill="none" stroke="midnightblue" d="M794.621,-198C809.347,-198 824.611,-198 838.479,-198"/>
<polygon fill="midnightblue" stroke="midnightblue" points="794.536,-194.5 784.536,-198 794.536,-201.5 794.536,-194.5"/>
</g>
<!-- Node18&#45;&gt;Node14 -->
<g id="edge29" class="edge"><title>Node18&#45;&gt;Node14</title>
<path fill="none" stroke="midnightblue" d="M952.792,-206.876C965.73,-208.655 979.306,-210.451 992,-212 1039.12,-217.75 1091.8,-223.329 1134.74,-227.659"/>
<polygon fill="midnightblue" stroke="midnightblue" points="952.969,-203.367 942.583,-205.458 952.007,-210.301 952.969,-203.367"/>
</g>
<!-- Node18&#45;&gt;Node16 -->
<g id="edge30" class="edge"><title>Node18&#45;&gt;Node16</title>
<path fill="none" stroke="midnightblue" d="M952.799,-198C1015.69,-198 1112.35,-198 1170.84,-198"/>
<polygon fill="midnightblue" stroke="midnightblue" points="952.623,-194.5 942.623,-198 952.623,-201.5 952.623,-194.5"/>
</g>
<!-- Node19 -->
<g id="node19" class="node"><title>Node19</title>
<g id="a_node19"><a xlink:href="classEngine.html#a0ba57971ffb5173ecc425461f65a4cd8" target="_top" xlink:title="Quits the game Sets m_running to false and quitting the game. ">
<polygon fill="none" stroke="black" points="994.5,-150.5 994.5,-169.5 1096.5,-169.5 1096.5,-150.5 994.5,-150.5"/>
<text text-anchor="middle" x="1045.5" y="-157.5" font-family="Helvetica,sans-Serif" font-size="10.00">Engine::quitGame</text>
</a>
</g>
</g>
<!-- Node18&#45;&gt;Node19 -->
<g id="edge25" class="edge"><title>Node18&#45;&gt;Node19</title>
<path fill="none" stroke="midnightblue" d="M939.977,-185.96C961.352,-180.651 986.113,-174.501 1006.17,-169.52"/>
<polygon fill="midnightblue" stroke="midnightblue" points="938.97,-182.604 930.108,-188.411 940.657,-189.397 938.97,-182.604"/>
</g>
<!-- Node19&#45;&gt;Node3 -->
<g id="edge26" class="edge"><title>Node19&#45;&gt;Node3</title>
<path fill="none" stroke="midnightblue" d="M1085.24,-147.344C1117.41,-136.837 1162.47,-122.118 1191.7,-112.572"/>
<polygon fill="midnightblue" stroke="midnightblue" points="1084.13,-144.027 1075.71,-150.459 1086.3,-150.681 1084.13,-144.027"/>
</g>
<!-- Node19&#45;&gt;Node14 -->
<g id="edge27" class="edge"><title>Node19&#45;&gt;Node14</title>
<path fill="none" stroke="midnightblue" d="M1066.48,-175.834C1083.7,-188.728 1109.72,-206.465 1135,-217 1144.17,-220.823 1154.23,-223.929 1164.14,-226.437"/>
<polygon fill="midnightblue" stroke="midnightblue" points="1068.4,-172.892 1058.33,-169.596 1064.14,-178.451 1068.4,-172.892"/>
</g>
<!-- Node19&#45;&gt;Node16 -->
<g id="edge28" class="edge"><title>Node19&#45;&gt;Node16</title>
<path fill="none" stroke="midnightblue" d="M1100.47,-171.753C1125.14,-177.126 1153.99,-183.409 1177.28,-188.48"/>
<polygon fill="midnightblue" stroke="midnightblue" points="1101.05,-168.297 1090.53,-169.589 1099.56,-175.137 1101.05,-168.297"/>
</g>
<!-- Node21 -->
<g id="node21" class="node"><title>Node21</title>
<g id="a_node21"><a xlink:href="classEngine.html#a89f23eaccc126a355d287e1959b4556f" target="_top" xlink:title="Engine::setTileIDOfNode">
<polygon fill="none" stroke="black" points="825,-119.5 825,-138.5 956,-138.5 956,-119.5 825,-119.5"/>
<text text-anchor="middle" x="890.5" y="-126.5" font-family="Helvetica,sans-Serif" font-size="10.00">Engine::setTileIDOfNode</text>
</a>
</g>
</g>
<!-- Node20&#45;&gt;Node21 -->
<g id="edge33" class="edge"><title>Node20&#45;&gt;Node21</title>
<path fill="none" stroke="midnightblue" d="M477.611,-138.42C570.415,-136.297 734.093,-132.554 824.661,-130.483"/>
<polygon fill="midnightblue" stroke="midnightblue" points="477.397,-134.923 467.48,-138.651 477.557,-141.922 477.397,-134.923"/>
</g>
<!-- Node21&#45;&gt;Node3 -->
<g id="edge34" class="edge"><title>Node21&#45;&gt;Node3</title>
<path fill="none" stroke="midnightblue" d="M966.343,-123.094C1020.01,-118.86 1092.02,-113.177 1145.77,-108.936"/>
<polygon fill="midnightblue" stroke="midnightblue" points="965.899,-119.618 956.205,-123.894 966.45,-126.597 965.899,-119.618"/>
</g>
<!-- Node22&#45;&gt;Node1 -->
<g id="edge38" class="edge"><title>Node22&#45;&gt;Node1</title>
<path fill="none" stroke="midnightblue" d="M341.126,-50.3207C276.011,-54.6243 177.07,-61.1635 115.187,-65.2535"/>
<polygon fill="midnightblue" stroke="midnightblue" points="341.528,-53.8019 351.275,-49.6499 341.066,-46.8171 341.528,-53.8019"/>
</g>
<!-- Node22&#45;&gt;Node7 -->
<g id="edge40" class="edge"><title>Node22&#45;&gt;Node7</title>
<path fill="none" stroke="midnightblue" d="M376.595,-58.8036C354.558,-65.7643 323.767,-73.9806 296.303,-80.3979"/>
<polygon fill="midnightblue" stroke="midnightblue" points="377.947,-62.0439 386.359,-55.6032 375.767,-55.3921 377.947,-62.0439"/>
</g>
<!-- Node22&#45;&gt;Node8 -->
<g id="edge39" class="edge"><title>Node22&#45;&gt;Node8</title>
<path fill="none" stroke="midnightblue" d="M452.356,-58.3257C476.291,-65.0525 505.474,-73.2541 527.639,-79.4836"/>
<polygon fill="midnightblue" stroke="midnightblue" points="453.03,-54.8793 442.456,-55.5431 451.136,-61.6183 453.03,-54.8793"/>
</g>
<!-- Node23 -->
<g id="node23" class="node"><title>Node23</title>
<g id="a_node23"><a xlink:href="classEngine.html#a2824c5146c900c0d048d97c5e0e0ef69" target="_top" xlink:title="Engine::demolishNode">
<polygon fill="none" stroke="black" points="661.5,-36.5 661.5,-55.5 785.5,-55.5 785.5,-36.5 661.5,-36.5"/>
<text text-anchor="middle" x="723.5" y="-43.5" font-family="Helvetica,sans-Serif" font-size="10.00">Engine::demolishNode</text>
</a>
</g>
</g>
<!-- Node22&#45;&gt;Node23 -->
<g id="edge36" class="edge"><title>Node22&#45;&gt;Node23</title>
<path fill="none" stroke="midnightblue" d="M473.572,-46C528.744,-46 607.296,-46 661.327,-46"/>
<polygon fill="midnightblue" stroke="midnightblue" points="473.554,-42.5001 463.554,-46 473.554,-49.5001 473.554,-42.5001"/>
</g>
<!-- Node23&#45;&gt;Node3 -->
<g id="edge37" class="edge"><title>Node23&#45;&gt;Node3</title>
<path fill="none" stroke="midnightblue" d="M796.055,-54.2148C889.187,-64.9067 1051.2,-83.5065 1146,-94.3895"/>
<polygon fill="midnightblue" stroke="midnightblue" points="796.213,-50.71 785.879,-53.0465 795.414,-57.6643 796.213,-50.71"/>
</g>
</g>
</svg>
        <g id="navigator" transform="translate(0 0)" fill="#404254">
                <rect fill="#f2f5e9" fill-opacity="0.5" stroke="#606060" stroke-width=".5" x="0" y="0" width="60" height="60"/>
                <use id="zoomplus" xlink:href="#zoomPlus" x="17" y="9" onmousedown="handleZoom(evt,'in')"/>
                <use id="zoomminus" xlink:href="#zoomMin" x="42" y="9" onmousedown="handleZoom(evt,'out')"/>
                <use id="reset" xlink:href="#resetDef" x="30" y="36" onmousedown="handleReset()"/>
                <g id="arrowUp" xlink:href="#dirArrow" transform="translate(30 24)" onmousedown="handlePan(0,-1)">
                  <use xlink:href="#rim" fill="#404040">
                        <set attributeName="fill" to="#808080" begin="arrowUp.mouseover" end="arrowUp.mouseout"/>
                  </use>
                  <path fill="none" stroke="white" stroke-width="1.5" d="M0,-3.0v7 M-2.5,-0.5L0,-3.0L2.5,-0.5"/>
                </g>
                <g id="arrowRight" xlink:href="#dirArrow" transform="rotate(90) translate(36 -43)" onmousedown="handlePan(1,0)">
                  <use xlink:href="#rim" fill="#404040">
                        <set attributeName="fill" to="#808080" begin="arrowRight.mouseover" end="arrowRight.mouseout"/>
                  </use>
                  <path fill="none" stroke="white" stroke-width="1.5" d="M0,-3.0v7 M-2.5,-0.5L0,-3.0L2.5,-0.5"/>
                </g>
                <g id="arrowDown" xlink:href="#dirArrow" transform="rotate(180) translate(-30 -48)" onmousedown="handlePan(0,1)">
                  <use xlink:href="#rim" fill="#404040">
                        <set attributeName="fill" to="#808080" begin="arrowDown.mouseover" end="arrowDown.mouseout"/>
                  </use>
                  <path fill="none" stroke="white" stroke-width="1.5" d="M0,-3.0v7 M-2.5,-0.5L0,-3.0L2.5,-0.5"/>
                </g>
                <g id="arrowLeft" xlink:href="#dirArrow" transform="rotate(270) translate(-36 17)" onmousedown="handlePan(-1,0)">
                  <use xlink:href="#rim" fill="#404040">
                        <set attributeName="fill" to="#808080" begin="arrowLeft.mouseover" end="arrowLeft.mouseout"/>
                  </use>
                  <path fill="none" stroke="white" stroke-width="1.5" d="M0,-3.0v7 M-2.5,-0.5L0,-3.0L2.5,-0.5"/>
                </g>
        </g>
        <svg viewBox="0 0 15 15" width="100%" height="30px" preserveAspectRatio="xMaxYMin meet">
         <g id="arrow_out" transform="scale(0.3 0.3)">
          <a xlink:href="classMap_aba5154a4d917900679a3c0f7ec701561_icgraph_org.svg" target="_base">
           <rect id="button" ry="5" rx="5" y="6" x="6" height="38" width="38"
                fill="#f2f5e9" fill-opacity="0.5" stroke="#606060" stroke-width="1.0"/>
           <path id="arrow"
             d="M 11.500037,31.436501 C 11.940474,20.09759 22.043105,11.32322 32.158766,21.979434 L 37.068811,17.246167 C 37.068811,17.246167 37.088388,32 37.088388,32 L 22.160133,31.978069 C 22.160133,31.978069 26.997745,27.140456 26.997745,27.140456 C 18.528582,18.264221 13.291696,25.230495 11.500037,31.436501 z"
             style="fill:#404040;"/>
          </a>
         </g>
        </svg>
</svg>
