<?xml version="1.0" encoding="UTF-8" standalone="no"?>
<!DOCTYPE svg PUBLIC "-//W3C//DTD SVG 1.1//EN"
 "http://www.w3.org/Graphics/SVG/1.1/DTD/svg11.dtd">
<!-- Generated by graphviz version 2.38.0 (20140413.2041)
 -->
<!-- Title: Engine::quitGame Pages: 1 -->
<svg width="851pt" height="104pt"
 viewBox="0.00 0.00 851.00 104.00" xmlns="http://www.w3.org/2000/svg" xmlns:xlink="http://www.w3.org/1999/xlink">
<g id="graph0" class="graph" transform="scale(1 1) rotate(0) translate(4 100)">
<title>Engine::quitGame</title>
<!-- Node1 -->
<g id="node1" class="node"><title>Node1</title>
<polygon fill="#bfbfbf" stroke="black" points="0,-38.5 0,-57.5 102,-57.5 102,-38.5 0,-38.5"/>
<text text-anchor="middle" x="51" y="-45.5" font-family="Helvetica,sans-Serif" font-size="10.00">Engine::quitGame</text>
</g>
<!-- Node2 -->
<g id="node2" class="node"><title>Node2</title>
<g id="a_node2"><a xlink:href="classEventManager.html#a65ec91fd5016d4f9c4167fb8babed2df" target="_top" xlink:title="EventManager::checkEvents">
<polygon fill="none" stroke="black" points="348,-76.5 348,-95.5 500,-95.5 500,-76.5 348,-76.5"/>
<text text-anchor="middle" x="424" y="-83.5" font-family="Helvetica,sans-Serif" font-size="10.00">EventManager::checkEvents</text>
</a>
</g>
</g>
<!-- Node1&#45;&gt;Node2 -->
<g id="edge1" class="edge"><title>Node1&#45;&gt;Node2</title>
<path fill="none" stroke="midnightblue" d="M99.241,-59.7793C111.772,-62.5345 125.34,-65.19 138,-67 208.812,-77.1237 290.311,-81.871 347.971,-84.0866"/>
<polygon fill="midnightblue" stroke="midnightblue" points="99.9771,-56.3574 89.451,-57.5625 98.4312,-63.1846 99.9771,-56.3574"/>
</g>
<!-- Node6 -->
<g id="node6" class="node"><title>Node6</title>
<g id="a_node6"><a xlink:href="classUIManager.html#aa78e356fc3b356d790c848319d1c387e" target="_top" xlink:title="UIManager::setCallbackFunctions">
<polygon fill="none" stroke="black" points="138,-38.5 138,-57.5 312,-57.5 312,-38.5 138,-38.5"/>
<text text-anchor="middle" x="225" y="-45.5" font-family="Helvetica,sans-Serif" font-size="10.00">UIManager::setCallbackFunctions</text>
</a>
</g>
</g>
<!-- Node1&#45;&gt;Node6 -->
<g id="edge5" class="edge"><title>Node1&#45;&gt;Node6</title>
<path fill="none" stroke="midnightblue" d="M112.426,-48C120.656,-48 129.229,-48 137.804,-48"/>
<polygon fill="midnightblue" stroke="midnightblue" points="112.212,-44.5001 102.212,-48 112.212,-51.5001 112.212,-44.5001"/>
</g>
<!-- Node8 -->
<g id="node8" class="node"><title>Node8</title>
<g id="a_node8"><a xlink:href="classGame.html#a5ed7fc5be77080f7f6dd5363f7f007a1" target="_top" xlink:title="Game::mainMenu">
<polygon fill="none" stroke="black" points="536,-0.5 536,-19.5 638,-19.5 638,-0.5 536,-0.5"/>
<text text-anchor="middle" x="587" y="-7.5" font-family="Helvetica,sans-Serif" font-size="10.00">Game::mainMenu</text>
</a>
</g>
</g>
<!-- Node1&#45;&gt;Node8 -->
<g id="edge8" class="edge"><title>Node1&#45;&gt;Node8</title>
<path fill="none" stroke="midnightblue" d="M98.5043,-36.1683C111.231,-33.3577 125.079,-30.688 138,-29 281.384,-10.2673 452.554,-8.71597 535.699,-9.27515"/>
<polygon fill="midnightblue" stroke="midnightblue" points="97.5465,-32.7969 88.5774,-38.4366 99.1059,-39.621 97.5465,-32.7969"/>
</g>
<!-- Node3 -->
<g id="node3" class="node"><title>Node3</title>
<g id="a_node3"><a xlink:href="classGame.html#a1c2ab25d5216b2f4b2fe41efd2c09114" target="_top" xlink:title="Game::run">
<polygon fill="none" stroke="black" points="553,-38.5 553,-57.5 621,-57.5 621,-38.5 553,-38.5"/>
<text text-anchor="middle" x="587" y="-45.5" font-family="Helvetica,sans-Serif" font-size="10.00">Game::run</text>
</a>
</g>
</g>
<!-- Node2&#45;&gt;Node3 -->
<g id="edge2" class="edge"><title>Node2&#45;&gt;Node3</title>
<path fill="none" stroke="midnightblue" d="M475.426,-74.0982C500.718,-68.1286 530.636,-61.0672 552.97,-55.7959"/>
<polygon fill="midnightblue" stroke="midnightblue" points="474.556,-70.7074 465.627,-76.411 476.164,-77.5202 474.556,-70.7074"/>
</g>
<!-- Node4 -->
<g id="node4" class="node"><title>Node4</title>
<g id="a_node4"><a xlink:href="main_8cxx.html#af582d708d899e67ead623eac34a22387" target="_top" xlink:title="protected_main">
<polygon fill="none" stroke="black" points="674,-19.5 674,-38.5 766,-38.5 766,-19.5 674,-19.5"/>
<text text-anchor="middle" x="720" y="-26.5" font-family="Helvetica,sans-Serif" font-size="10.00">protected_main</text>
</a>
</g>
</g>
<!-- Node3&#45;&gt;Node4 -->
<g id="edge3" class="edge"><title>Node3&#45;&gt;Node4</title>
<path fill="none" stroke="midnightblue" d="M631.134,-41.744C644.745,-39.7699 659.82,-37.5834 673.585,-35.587"/>
<polygon fill="midnightblue" stroke="midnightblue" points="630.451,-38.3063 621.057,-43.2055 631.456,-45.2338 630.451,-38.3063"/>
</g>
<!-- Node5 -->
<g id="node5" class="node"><title>Node5</title>
<g id="a_node5"><a xlink:href="main_8cxx.html#a3c04138a5bfe5d72780bb7e82a18e627" target="_top" xlink:title="main">
<polygon fill="none" stroke="black" points="802,-19.5 802,-38.5 843,-38.5 843,-19.5 802,-19.5"/>
<text text-anchor="middle" x="822.5" y="-26.5" font-family="Helvetica,sans-Serif" font-size="10.00">main</text>
</a>
</g>
</g>
<!-- Node4&#45;&gt;Node5 -->
<g id="edge4" class="edge"><title>Node4&#45;&gt;Node5</title>
<path fill="none" stroke="midnightblue" d="M776.539,-29C785.619,-29 794.466,-29 801.877,-29"/>
<polygon fill="midnightblue" stroke="midnightblue" points="776.252,-25.5001 766.252,-29 776.252,-32.5001 776.252,-25.5001"/>
</g>
<!-- Node7 -->
<g id="node7" class="node"><title>Node7</title>
<g id="a_node7"><a xlink:href="classUIManager.html#aedd9d0577af515a852425dfe414b2968" target="_top" xlink:title="Parses the UiLayout.json files and creates UI Elements. ">
<polygon fill="none" stroke="black" points="379.5,-38.5 379.5,-57.5 468.5,-57.5 468.5,-38.5 379.5,-38.5"/>
<text text-anchor="middle" x="424" y="-45.5" font-family="Helvetica,sans-Serif" font-size="10.00">UIManager::init</text>
</a>
</g>
</g>
<!-- Node6&#45;&gt;Node7 -->
<g id="edge6" class="edge"><title>Node6&#45;&gt;Node7</title>
<path fill="none" stroke="midnightblue" d="M322.264,-48C342.329,-48 362.518,-48 379.498,-48"/>
<polygon fill="midnightblue" stroke="midnightblue" points="322.121,-44.5001 312.12,-48 322.12,-51.5001 322.121,-44.5001"/>
</g>
<!-- Node7&#45;&gt;Node3 -->
<g id="edge7" class="edge"><title>Node7&#45;&gt;Node3</title>
<path fill="none" stroke="midnightblue" d="M478.811,-48C503.314,-48 531.537,-48 552.87,-48"/>
<polygon fill="midnightblue" stroke="midnightblue" points="478.569,-44.5001 468.569,-48 478.569,-51.5001 478.569,-44.5001"/>
</g>
<!-- Node8&#45;&gt;Node4 -->
<g id="edge9" class="edge"><title>Node8&#45;&gt;Node4</title>
<path fill="none" stroke="midnightblue" d="M648.263,-18.7404C656.85,-19.9859 665.558,-21.2488 673.791,-22.443"/>
<polygon fill="midnightblue" stroke="midnightblue" points="648.672,-15.2632 638.273,-17.2916 647.667,-22.1908 648.672,-15.2632"/>
</g>
</g>
</svg>
