<?xml version="1.0" encoding="UTF-8" standalone="no"?>
<!DOCTYPE svg PUBLIC "-//W3C//DTD SVG 1.1//EN"
 "http://www.w3.org/Graphics/SVG/1.1/DTD/svg11.dtd">
<!-- Generated by graphviz version 2.38.0 (20140413.2041)
 -->
<!-- Title: TerrainGenerator::loadTerrainDataFromJSON Pages: 1 -->
<svg width="1606pt" height="182pt"
 viewBox="0.00 0.00 1606.00 181.95" xmlns="http://www.w3.org/2000/svg" xmlns:xlink="http://www.w3.org/1999/xlink">
<g id="graph0" class="graph" transform="scale(1 1) rotate(0) translate(4 177.952)">
<title>TerrainGenerator::loadTerrainDataFromJSON</title>
<!-- Node1 -->
<g id="node1" class="node"><title>Node1</title>
<polygon fill="#bfbfbf" stroke="black" points="0,-46.224 0,-76.224 155,-76.224 155,-46.224 0,-46.224"/>
<text text-anchor="start" x="8" y="-64.224" font-family="Helvetica,sans-Serif" font-size="10.00">TerrainGenerator::loadTerrain</text>
<text text-anchor="middle" x="77.5" y="-53.224" font-family="Helvetica,sans-Serif" font-size="10.00">DataFromJSON</text>
</g>
<!-- Node2 -->
<g id="node2" class="node"><title>Node2</title>
<g id="a_node2"><a xlink:href="classTerrainGenerator.html#adcc251757a1f3a06471a49f17886b8ce" target="_top" xlink:title="TerrainGenerator::generate\lTerrain">
<polygon fill="none" stroke="black" points="191,-46.224 191,-76.224 337,-76.224 337,-46.224 191,-46.224"/>
<text text-anchor="start" x="199" y="-64.224" font-family="Helvetica,sans-Serif" font-size="10.00">TerrainGenerator::generate</text>
<text text-anchor="middle" x="264" y="-53.224" font-family="Helvetica,sans-Serif" font-size="10.00">Terrain</text>
</a>
</g>
</g>
<!-- Node1&#45;&gt;Node2 -->
<g id="edge1" class="edge"><title>Node1&#45;&gt;Node2</title>
<path fill="none" stroke="midnightblue" d="M165.148,-61.224C173.712,-61.224 182.341,-61.224 190.737,-61.224"/>
<polygon fill="midnightblue" stroke="midnightblue" points="165.142,-57.7241 155.142,-61.224 165.142,-64.7241 165.142,-57.7241"/>
</g>
<!-- Node3 -->
<g id="node3" class="node"><title>Node3</title>
<g id="a_node3"><a xlink:href="classMap.html#a482ac34426e8aa66abb46f60ec329402" target="_top" xlink:title="Initialize the Map with node objects Initialize the Map with node objects. ">
<polygon fill="none" stroke="black" points="373,-51.724 373,-70.724 450,-70.724 450,-51.724 373,-51.724"/>
<text text-anchor="middle" x="411.5" y="-58.724" font-family="Helvetica,sans-Serif" font-size="10.00">Map::initMap</text>
</a>
</g>
</g>
<!-- Node2&#45;&gt;Node3 -->
<g id="edge2" class="edge"><title>Node2&#45;&gt;Node3</title>
<path fill="none" stroke="midnightblue" d="M347.362,-61.224C356.205,-61.224 364.856,-61.224 372.779,-61.224"/>
<polygon fill="midnightblue" stroke="midnightblue" points="347.324,-57.7241 337.324,-61.224 347.324,-64.7241 347.324,-57.7241"/>
</g>
<!-- Node4 -->
<g id="node4" class="node"><title>Node4</title>
<g id="a_node4"><a xlink:href="classEngine.html#a260d4834150eae6eec2bde34df6dc827" target="_top" xlink:title="Creates a new game Creates a new game. ">
<polygon fill="none" stroke="black" points="644.5,-23.724 644.5,-42.724 747.5,-42.724 747.5,-23.724 644.5,-23.724"/>
<text text-anchor="middle" x="696" y="-30.724" font-family="Helvetica,sans-Serif" font-size="10.00">Engine::newGame</text>
</a>
</g>
</g>
<!-- Node3&#45;&gt;Node4 -->
<g id="edge3" class="edge"><title>Node3&#45;&gt;Node4</title>
<path fill="none" stroke="midnightblue" d="M460.14,-56.5021C511.278,-51.4336 592.191,-43.4139 644.432,-38.236"/>
<polygon fill="midnightblue" stroke="midnightblue" points="459.62,-53.0365 450.014,-57.5058 460.31,-60.0023 459.62,-53.0365"/>
</g>
<!-- Node12 -->
<g id="node12" class="node"><title>Node12</title>
<g id="a_node12"><a xlink:href="classMap.html#afefe996cc1f62b61ec60d0ae415953bf" target="_top" xlink:title="Map::loadMapFromFile">
<polygon fill="none" stroke="black" points="486,-75.724 486,-94.724 608,-94.724 608,-75.724 486,-75.724"/>
<text text-anchor="middle" x="547" y="-82.724" font-family="Helvetica,sans-Serif" font-size="10.00">Map::loadMapFromFile</text>
</a>
</g>
</g>
<!-- Node3&#45;&gt;Node12 -->
<g id="edge14" class="edge"><title>Node3&#45;&gt;Node12</title>
<path fill="none" stroke="midnightblue" d="M459.978,-69.7593C470.61,-71.6707 481.956,-73.7104 492.803,-75.6604"/>
<polygon fill="midnightblue" stroke="midnightblue" points="460.504,-66.2979 450.042,-67.9732 459.265,-73.1874 460.504,-66.2979"/>
</g>
<!-- Node5 -->
<g id="node5" class="node"><title>Node5</title>
<g id="a_node5"><a xlink:href="classEngine.html#af7de8d74b0cfacaf06df53e7caf11538" target="_top" xlink:title="Engine::saveGame">
<polygon fill="none" stroke="black" points="784,-23.724 784,-42.724 891,-42.724 891,-23.724 784,-23.724"/>
<text text-anchor="middle" x="837.5" y="-30.724" font-family="Helvetica,sans-Serif" font-size="10.00">Engine::saveGame</text>
</a>
</g>
</g>
<!-- Node4&#45;&gt;Node5 -->
<g id="edge4" class="edge"><title>Node4&#45;&gt;Node5</title>
<path fill="none" stroke="midnightblue" d="M757.767,-33.224C766.395,-33.224 775.209,-33.224 783.669,-33.224"/>
<polygon fill="midnightblue" stroke="midnightblue" points="757.757,-29.7241 747.757,-33.224 757.757,-36.7241 757.757,-29.7241"/>
</g>
<!-- Node6 -->
<g id="node6" class="node"><title>Node6</title>
<g id="a_node6"><a xlink:href="classUIManager.html#aa78e356fc3b356d790c848319d1c387e" target="_top" xlink:title="UIManager::setCallbackFunctions">
<polygon fill="none" stroke="black" points="927,-61.724 927,-80.724 1101,-80.724 1101,-61.724 927,-61.724"/>
<text text-anchor="middle" x="1014" y="-68.724" font-family="Helvetica,sans-Serif" font-size="10.00">UIManager::setCallbackFunctions</text>
</a>
</g>
</g>
<!-- Node4&#45;&gt;Node6 -->
<g id="edge10" class="edge"><title>Node4&#45;&gt;Node6</title>
<path fill="none" stroke="midnightblue" d="M740.2,-21.2945C779.828,-12.1612 839.943,-2.88493 891,-14.224 932.08,-23.3472 975.706,-47.8208 997.989,-61.548"/>
<polygon fill="midnightblue" stroke="midnightblue" points="739.243,-17.9247 730.336,-23.6626 740.877,-24.7313 739.243,-17.9247"/>
</g>
<!-- Node8 -->
<g id="node8" class="node"><title>Node8</title>
<g id="a_node8"><a xlink:href="classGame.html#a1c2ab25d5216b2f4b2fe41efd2c09114" target="_top" xlink:title="Game::run">
<polygon fill="none" stroke="black" points="1325,-80.724 1325,-99.724 1393,-99.724 1393,-80.724 1325,-80.724"/>
<text text-anchor="middle" x="1359" y="-87.724" font-family="Helvetica,sans-Serif" font-size="10.00">Game::run</text>
</a>
</g>
</g>
<!-- Node4&#45;&gt;Node8 -->
<g id="edge13" class="edge"><title>Node4&#45;&gt;Node8</title>
<path fill="none" stroke="midnightblue" d="M728.574,-19.9694C744.82,-13.8562 765.129,-7.28633 784,-4.22399 830.941,3.39357 843.53,-1.37181 891,-4.22399 1068.85,-14.9099 1119.42,2.41882 1289,-52.224 1309.57,-58.8508 1331.03,-71.7726 1344.45,-80.6947"/>
<polygon fill="midnightblue" stroke="midnightblue" points="727.083,-16.7938 719.032,-23.6813 729.621,-23.3175 727.083,-16.7938"/>
</g>
<!-- Node11 -->
<g id="node11" class="node"><title>Node11</title>
<g id="a_node11"><a xlink:href="classGame.html#a5ed7fc5be77080f7f6dd5363f7f007a1" target="_top" xlink:title="Game::mainMenu">
<polygon fill="none" stroke="black" points="963,-137.724 963,-156.724 1065,-156.724 1065,-137.724 963,-137.724"/>
<text text-anchor="middle" x="1014" y="-144.724" font-family="Helvetica,sans-Serif" font-size="10.00">Game::mainMenu</text>
</a>
</g>
</g>
<!-- Node4&#45;&gt;Node11 -->
<g id="edge11" class="edge"><title>Node4&#45;&gt;Node11</title>
<path fill="none" stroke="midnightblue" d="M721.467,-48.6847C730.414,-55.0213 740.236,-62.8378 748,-71.224 768.355,-93.2112 758.38,-112.687 784,-128.224 838.237,-161.115 913.44,-160.478 962.643,-155.274"/>
<polygon fill="midnightblue" stroke="midnightblue" points="723.158,-45.602 712.92,-42.875 719.222,-51.3912 723.158,-45.602"/>
</g>
<!-- Node5&#45;&gt;Node6 -->
<g id="edge5" class="edge"><title>Node5&#45;&gt;Node6</title>
<path fill="none" stroke="midnightblue" d="M892.469,-44.9766C917.143,-50.3498 945.995,-56.6326 969.283,-61.7039"/>
<polygon fill="midnightblue" stroke="midnightblue" points="893.049,-41.521 882.534,-42.813 891.56,-48.3607 893.049,-41.521"/>
</g>
<!-- Node7 -->
<g id="node7" class="node"><title>Node7</title>
<g id="a_node7"><a xlink:href="classUIManager.html#aedd9d0577af515a852425dfe414b2968" target="_top" xlink:title="Parses the UiLayout.json files and creates UI Elements. ">
<polygon fill="none" stroke="black" points="1168.5,-61.724 1168.5,-80.724 1257.5,-80.724 1257.5,-61.724 1168.5,-61.724"/>
<text text-anchor="middle" x="1213" y="-68.724" font-family="Helvetica,sans-Serif" font-size="10.00">UIManager::init</text>
</a>
</g>
</g>
<!-- Node6&#45;&gt;Node7 -->
<g id="edge6" class="edge"><title>Node6&#45;&gt;Node7</title>
<path fill="none" stroke="midnightblue" d="M1111.26,-71.224C1131.33,-71.224 1151.52,-71.224 1168.5,-71.224"/>
<polygon fill="midnightblue" stroke="midnightblue" points="1111.12,-67.7241 1101.12,-71.224 1111.12,-74.7241 1111.12,-67.7241"/>
</g>
<!-- Node7&#45;&gt;Node8 -->
<g id="edge7" class="edge"><title>Node7&#45;&gt;Node8</title>
<path fill="none" stroke="midnightblue" d="M1267.68,-78.3066C1286.77,-80.8261 1307.71,-83.5887 1324.62,-85.8191"/>
<polygon fill="midnightblue" stroke="midnightblue" points="1267.97,-74.8144 1257.6,-76.9762 1267.05,-81.7543 1267.97,-74.8144"/>
</g>
<!-- Node9 -->
<g id="node9" class="node"><title>Node9</title>
<g id="a_node9"><a xlink:href="main_8cxx.html#af582d708d899e67ead623eac34a22387" target="_top" xlink:title="protected_main">
<polygon fill="none" stroke="black" points="1429,-108.724 1429,-127.724 1521,-127.724 1521,-108.724 1429,-108.724"/>
<text text-anchor="middle" x="1475" y="-115.724" font-family="Helvetica,sans-Serif" font-size="10.00">protected_main</text>
</a>
</g>
</g>
<!-- Node8&#45;&gt;Node9 -->
<g id="edge8" class="edge"><title>Node8&#45;&gt;Node9</title>
<path fill="none" stroke="midnightblue" d="M1403.14,-100.82C1413.69,-103.411 1424.92,-106.169 1435.25,-108.707"/>
<polygon fill="midnightblue" stroke="midnightblue" points="1403.83,-97.3844 1393.28,-98.398 1402.16,-104.182 1403.83,-97.3844"/>
</g>
<!-- Node10 -->
<g id="node10" class="node"><title>Node10</title>
<g id="a_node10"><a xlink:href="main_8cxx.html#a3c04138a5bfe5d72780bb7e82a18e627" target="_top" xlink:title="main">
<polygon fill="none" stroke="black" points="1557,-108.724 1557,-127.724 1598,-127.724 1598,-108.724 1557,-108.724"/>
<text text-anchor="middle" x="1577.5" y="-115.724" font-family="Helvetica,sans-Serif" font-size="10.00">main</text>
</a>
</g>
</g>
<!-- Node9&#45;&gt;Node10 -->
<g id="edge9" class="edge"><title>Node9&#45;&gt;Node10</title>
<path fill="none" stroke="midnightblue" d="M1531.54,-118.224C1540.62,-118.224 1549.47,-118.224 1556.88,-118.224"/>
<polygon fill="midnightblue" stroke="midnightblue" points="1531.25,-114.724 1521.25,-118.224 1531.25,-121.724 1531.25,-114.724"/>
</g>
<!-- Node11&#45;&gt;Node9 -->
<g id="edge12" class="edge"><title>Node11&#45;&gt;Node9</title>
<path fill="none" stroke="midnightblue" d="M1075.57,-143.397C1168.96,-137.496 1345.97,-126.313 1428.95,-121.07"/>
<polygon fill="midnightblue" stroke="midnightblue" points="1075.19,-139.914 1065.43,-144.038 1075.63,-146.9 1075.19,-139.914"/>
</g>
<!-- Node13 -->
<g id="node13" class="node"><title>Node13</title>
<g id="a_node13"><a xlink:href="classEngine.html#a83b7dbeee899b36a13d5b07c7ad87ebc" target="_top" xlink:title="Loads a saved game Loads a saved Game. ">
<polygon fill="none" stroke="black" points="644,-80.724 644,-99.724 748,-99.724 748,-80.724 644,-80.724"/>
<text text-anchor="middle" x="696" y="-87.724" font-family="Helvetica,sans-Serif" font-size="10.00">Engine::loadGame</text>
</a>
</g>
</g>
<!-- Node12&#45;&gt;Node13 -->
<g id="edge15" class="edge"><title>Node12&#45;&gt;Node13</title>
<path fill="none" stroke="midnightblue" d="M618.478,-87.6212C626.938,-87.909 635.452,-88.1986 643.57,-88.4747"/>
<polygon fill="midnightblue" stroke="midnightblue" points="618.328,-84.1142 608.215,-87.2721 618.09,-91.1101 618.328,-84.1142"/>
</g>
<!-- Node13&#45;&gt;Node6 -->
<g id="edge21" class="edge"><title>Node13&#45;&gt;Node6</title>
<path fill="none" stroke="midnightblue" d="M758.346,-86.5354C806.267,-83.6541 873.45,-79.6146 926.779,-76.4082"/>
<polygon fill="midnightblue" stroke="midnightblue" points="757.894,-83.0562 748.122,-87.1502 758.314,-90.0436 757.894,-83.0562"/>
</g>
<!-- Node13&#45;&gt;Node11 -->
<g id="edge22" class="edge"><title>Node13&#45;&gt;Node11</title>
<path fill="none" stroke="midnightblue" d="M711.419,-107.489C727.172,-124.875 754.171,-150.597 784,-161.224 851.163,-185.151 936.362,-168.773 981.539,-156.756"/>
<polygon fill="midnightblue" stroke="midnightblue" points="713.845,-104.947 704.626,-99.7272 708.578,-109.557 713.845,-104.947"/>
</g>
<!-- Node14 -->
<g id="node14" class="node"><title>Node14</title>
<g id="a_node14"><a xlink:href="classEngine.html#a0ba57971ffb5173ecc425461f65a4cd8" target="_top" xlink:title="Quits the game Sets m_running to false and quitting the game. ">
<polygon fill="none" stroke="black" points="786.5,-99.724 786.5,-118.724 888.5,-118.724 888.5,-99.724 786.5,-99.724"/>
<text text-anchor="middle" x="837.5" y="-106.724" font-family="Helvetica,sans-Serif" font-size="10.00">Engine::quitGame</text>
</a>
</g>
</g>
<!-- Node13&#45;&gt;Node14 -->
<g id="edge16" class="edge"><title>Node13&#45;&gt;Node14</title>
<path fill="none" stroke="midnightblue" d="M758.214,-98.5614C767.593,-99.8388 777.181,-101.145 786.285,-102.385"/>
<polygon fill="midnightblue" stroke="midnightblue" points="758.533,-95.0726 748.153,-97.191 757.589,-102.009 758.533,-95.0726"/>
</g>
<!-- Node14&#45;&gt;Node6 -->
<g id="edge19" class="edge"><title>Node14&#45;&gt;Node6</title>
<path fill="none" stroke="midnightblue" d="M892.469,-97.4714C917.143,-92.0982 945.995,-85.8154 969.283,-80.744"/>
<polygon fill="midnightblue" stroke="midnightblue" points="891.56,-94.0873 882.534,-99.635 893.049,-100.927 891.56,-94.0873"/>
</g>
<!-- Node14&#45;&gt;Node11 -->
<g id="edge20" class="edge"><title>Node14&#45;&gt;Node11</title>
<path fill="none" stroke="midnightblue" d="M892.469,-120.977C917.143,-126.35 945.995,-132.633 969.283,-137.704"/>
<polygon fill="midnightblue" stroke="midnightblue" points="893.049,-117.521 882.534,-118.813 891.56,-124.361 893.049,-117.521"/>
</g>
<!-- Node15 -->
<g id="node15" class="node"><title>Node15</title>
<g id="a_node15"><a xlink:href="classEventManager.html#a65ec91fd5016d4f9c4167fb8babed2df" target="_top" xlink:title="EventManager::checkEvents">
<polygon fill="none" stroke="black" points="1137,-99.724 1137,-118.724 1289,-118.724 1289,-99.724 1137,-99.724"/>
<text text-anchor="middle" x="1213" y="-106.724" font-family="Helvetica,sans-Serif" font-size="10.00">EventManager::checkEvents</text>
</a>
</g>
</g>
<!-- Node14&#45;&gt;Node15 -->
<g id="edge17" class="edge"><title>Node14&#45;&gt;Node15</title>
<path fill="none" stroke="midnightblue" d="M898.945,-109.224C963.822,-109.224 1066.97,-109.224 1136.99,-109.224"/>
<polygon fill="midnightblue" stroke="midnightblue" points="898.872,-105.724 888.872,-109.224 898.872,-112.724 898.872,-105.724"/>
</g>
<!-- Node15&#45;&gt;Node8 -->
<g id="edge18" class="edge"><title>Node15&#45;&gt;Node8</title>
<path fill="none" stroke="midnightblue" d="M1296.47,-98.342C1306.46,-97.0239 1316.18,-95.742 1324.83,-94.6009"/>
<polygon fill="midnightblue" stroke="midnightblue" points="1295.88,-94.8902 1286.42,-99.6683 1296.79,-101.83 1295.88,-94.8902"/>
</g>
</g>
</svg>
