<?xml version="1.0" encoding="UTF-8" standalone="no"?>
<!DOCTYPE svg PUBLIC "-//W3C//DTD SVG 1.1//EN"
 "http://www.w3.org/Graphics/SVG/1.1/DTD/svg11.dtd">
<!-- Generated by graphviz version 2.38.0 (20140413.2041)
 -->
<!-- Title: Button::centerTextLabel Pages: 1 -->
<svg width="624pt" height="104pt"
 viewBox="0.00 0.00 624.00 104.00" xmlns="http://www.w3.org/2000/svg" xmlns:xlink="http://www.w3.org/1999/xlink">
<g id="graph0" class="graph" transform="scale(1 1) rotate(0) translate(4 100)">
<title>Button::centerTextLabel</title>
<!-- Node1 -->
<g id="node1" class="node"><title>Node1</title>
<polygon fill="#bfbfbf" stroke="black" points="0,-38.5 0,-57.5 130,-57.5 130,-38.5 0,-38.5"/>
<text text-anchor="middle" x="65" y="-45.5" font-family="Helvetica,sans-Serif" font-size="10.00">Button::centerTextLabel</text>
</g>
<!-- Node2 -->
<g id="node2" class="node"><title>Node2</title>
<g id="a_node2"><a xlink:href="classButton.html#aca8bc669addb66b461b69ee5000186da" target="_top" xlink:title="Button::Button">
<polygon fill="none" stroke="black" points="176,-76.5 176,-95.5 263,-95.5 263,-76.5 176,-76.5"/>
<text text-anchor="middle" x="219.5" y="-83.5" font-family="Helvetica,sans-Serif" font-size="10.00">Button::Button</text>
</a>
</g>
</g>
<!-- Node1&#45;&gt;Node2 -->
<g id="edge1" class="edge"><title>Node1&#45;&gt;Node2</title>
<path fill="none" stroke="midnightblue" d="M114.318,-60.04C135.623,-65.3488 160.304,-71.4988 180.295,-76.4799"/>
<polygon fill="midnightblue" stroke="midnightblue" points="115.032,-56.6108 104.482,-57.589 113.339,-63.4031 115.032,-56.6108"/>
</g>
<!-- Node3 -->
<g id="node3" class="node"><title>Node3</title>
<g id="a_node3"><a xlink:href="classButton.html#ac6a233c876164a52d54ef7f1b3fb78d1" target="_top" xlink:title="Sets the button&#39;s text sets the button&#39;s text to the string passed as an argument. ">
<polygon fill="none" stroke="black" points="175,-38.5 175,-57.5 264,-57.5 264,-38.5 175,-38.5"/>
<text text-anchor="middle" x="219.5" y="-45.5" font-family="Helvetica,sans-Serif" font-size="10.00">Button::setText</text>
</a>
</g>
</g>
<!-- Node1&#45;&gt;Node3 -->
<g id="edge2" class="edge"><title>Node1&#45;&gt;Node3</title>
<path fill="none" stroke="midnightblue" d="M140.482,-48C152.194,-48 163.961,-48 174.678,-48"/>
<polygon fill="midnightblue" stroke="midnightblue" points="140.232,-44.5001 130.232,-48 140.232,-51.5001 140.232,-44.5001"/>
</g>
<!-- Node7 -->
<g id="node7" class="node"><title>Node7</title>
<g id="a_node7"><a xlink:href="classButton.html#a5cb5a9c1bf8659fa775f34a28262bd75" target="_top" xlink:title="Sets the x,y position of this ui element Sets the x,y position of the ui element. ...">
<polygon fill="none" stroke="black" points="166,-0.5 166,-19.5 273,-19.5 273,-0.5 166,-0.5"/>
<text text-anchor="middle" x="219.5" y="-7.5" font-family="Helvetica,sans-Serif" font-size="10.00">Button::setPosition</text>
</a>
</g>
</g>
<!-- Node1&#45;&gt;Node7 -->
<g id="edge6" class="edge"><title>Node1&#45;&gt;Node7</title>
<path fill="none" stroke="midnightblue" d="M114.318,-35.96C135.623,-30.6512 160.304,-24.5012 180.295,-19.5201"/>
<polygon fill="midnightblue" stroke="midnightblue" points="113.339,-32.5969 104.482,-38.411 115.032,-39.3892 113.339,-32.5969"/>
</g>
<!-- Node4 -->
<g id="node4" class="node"><title>Node4</title>
<g id="a_node4"><a xlink:href="classGame.html#a5ed7fc5be77080f7f6dd5363f7f007a1" target="_top" xlink:title="Game::mainMenu">
<polygon fill="none" stroke="black" points="309,-38.5 309,-57.5 411,-57.5 411,-38.5 309,-38.5"/>
<text text-anchor="middle" x="360" y="-45.5" font-family="Helvetica,sans-Serif" font-size="10.00">Game::mainMenu</text>
</a>
</g>
</g>
<!-- Node3&#45;&gt;Node4 -->
<g id="edge3" class="edge"><title>Node3&#45;&gt;Node4</title>
<path fill="none" stroke="midnightblue" d="M274.474,-48C285.741,-48 297.577,-48 308.705,-48"/>
<polygon fill="midnightblue" stroke="midnightblue" points="274.322,-44.5001 264.322,-48 274.322,-51.5001 274.322,-44.5001"/>
</g>
<!-- Node5 -->
<g id="node5" class="node"><title>Node5</title>
<g id="a_node5"><a xlink:href="main_8cxx.html#af582d708d899e67ead623eac34a22387" target="_top" xlink:title="protected_main">
<polygon fill="none" stroke="black" points="447,-38.5 447,-57.5 539,-57.5 539,-38.5 447,-38.5"/>
<text text-anchor="middle" x="493" y="-45.5" font-family="Helvetica,sans-Serif" font-size="10.00">protected_main</text>
</a>
</g>
</g>
<!-- Node4&#45;&gt;Node5 -->
<g id="edge4" class="edge"><title>Node4&#45;&gt;Node5</title>
<path fill="none" stroke="midnightblue" d="M421.543,-48C430.039,-48 438.647,-48 446.791,-48"/>
<polygon fill="midnightblue" stroke="midnightblue" points="421.273,-44.5001 411.273,-48 421.273,-51.5001 421.273,-44.5001"/>
</g>
<!-- Node6 -->
<g id="node6" class="node"><title>Node6</title>
<g id="a_node6"><a xlink:href="main_8cxx.html#a3c04138a5bfe5d72780bb7e82a18e627" target="_top" xlink:title="main">
<polygon fill="none" stroke="black" points="575,-38.5 575,-57.5 616,-57.5 616,-38.5 575,-38.5"/>
<text text-anchor="middle" x="595.5" y="-45.5" font-family="Helvetica,sans-Serif" font-size="10.00">main</text>
</a>
</g>
</g>
<!-- Node5&#45;&gt;Node6 -->
<g id="edge5" class="edge"><title>Node5&#45;&gt;Node6</title>
<path fill="none" stroke="midnightblue" d="M549.539,-48C558.619,-48 567.466,-48 574.877,-48"/>
<polygon fill="midnightblue" stroke="midnightblue" points="549.252,-44.5001 539.252,-48 549.252,-51.5001 549.252,-44.5001"/>
</g>
</g>
</svg>
