<?xml version="1.0" encoding="UTF-8" standalone="no"?>
<!DOCTYPE svg PUBLIC "-//W3C//DTD SVG 1.1//EN"
 "http://www.w3.org/Graphics/SVG/1.1/DTD/svg11.dtd">
<!-- Generated by graphviz version 2.38.0 (20140413.2041)
 -->
<!-- Title: MapNode::getActiveMapNodeData Pages: 1 -->
<svg width="533pt" height="66pt"
 viewBox="0.00 0.00 533.00 66.00" xmlns="http://www.w3.org/2000/svg" xmlns:xlink="http://www.w3.org/1999/xlink">
<g id="graph0" class="graph" transform="scale(1 1) rotate(0) translate(4 62)">
<title>MapNode::getActiveMapNodeData</title>
<!-- Node1 -->
<g id="node1" class="node"><title>Node1</title>
<polygon fill="#bfbfbf" stroke="black" points="0,-19.5 0,-38.5 182,-38.5 182,-19.5 0,-19.5"/>
<text text-anchor="middle" x="91" y="-26.5" font-family="Helvetica,sans-Serif" font-size="10.00">MapNode::getActiveMapNodeData</text>
</g>
<!-- Node2 -->
<g id="node2" class="node"><title>Node2</title>
<g id="a_node2"><a xlink:href="classMapLayers.html#a1d810628821913c499b8348107b66891" target="_top" xlink:title="Check if given Layer is being drawn. ">
<polygon fill="none" stroke="black" points="218,-19.5 218,-38.5 355,-38.5 355,-19.5 218,-19.5"/>
<text text-anchor="middle" x="286.5" y="-26.5" font-family="Helvetica,sans-Serif" font-size="10.00">MapLayers::isLayerActive</text>
</a>
</g>
</g>
<!-- Node1&#45;&gt;Node2 -->
<g id="edge1" class="edge"><title>Node1&#45;&gt;Node2</title>
<path fill="none" stroke="midnightblue" d="M182.235,-29C190.781,-29 199.395,-29 207.808,-29"/>
<polygon fill="midnightblue" stroke="midnightblue" points="207.954,-32.5001 217.954,-29 207.954,-25.5001 207.954,-32.5001"/>
</g>
<!-- Node3 -->
<g id="node3" class="node"><title>Node3</title>
<g id="a_node3"><a xlink:href="classMapLayers.html#a53d7fcd90e70eaf36239d7a75c0c5dda" target="_top" xlink:title="MapLayers::MapLayers">
<polygon fill="none" stroke="black" points="395,-38.5 395,-57.5 521,-57.5 521,-38.5 395,-38.5"/>
<text text-anchor="middle" x="458" y="-45.5" font-family="Helvetica,sans-Serif" font-size="10.00">MapLayers::MapLayers</text>
</a>
</g>
</g>
<!-- Node2&#45;&gt;Node3 -->
<g id="edge2" class="edge"><title>Node2&#45;&gt;Node3</title>
<path fill="none" stroke="midnightblue" d="M355.465,-36.6185C365.104,-37.699 375.044,-38.8132 384.76,-39.9023"/>
<polygon fill="midnightblue" stroke="midnightblue" points="384.454,-43.3898 394.781,-41.0256 385.233,-36.4334 384.454,-43.3898"/>
</g>
<!-- Node4 -->
<g id="node4" class="node"><title>Node4</title>
<g id="a_node4"><a xlink:href="classMapLayers.html#aa7fa21110e27ec69f131692b0a510d66" target="_top" xlink:title="MapLayers::~MapLayers">
<polygon fill="none" stroke="black" points="391,-0.5 391,-19.5 525,-19.5 525,-0.5 391,-0.5"/>
<text text-anchor="middle" x="458" y="-7.5" font-family="Helvetica,sans-Serif" font-size="10.00">MapLayers::~MapLayers</text>
</a>
</g>
</g>
<!-- Node2&#45;&gt;Node4 -->
<g id="edge3" class="edge"><title>Node2&#45;&gt;Node4</title>
<path fill="none" stroke="midnightblue" d="M355.465,-21.3815C363.781,-20.4493 372.322,-19.492 380.749,-18.5473"/>
<polygon fill="midnightblue" stroke="midnightblue" points="381.401,-21.9962 390.949,-17.4039 380.622,-15.0398 381.401,-21.9962"/>
</g>
</g>
</svg>
