<?xml version="1.0" encoding="UTF-8" standalone="no"?>
<!DOCTYPE svg PUBLIC "-//W3C//DTD SVG 1.1//EN"
 "http://www.w3.org/Graphics/SVG/1.1/DTD/svg11.dtd">
<!-- Generated by graphviz version 2.38.0 (20140413.2041)
 -->
<!-- Title: UIManager::createBuildMenu Pages: 1 -->
<!--zoomable 598 -->
<svg id="main" version="1.1" xmlns="http://www.w3.org/2000/svg" xmlns:xlink="http://www.w3.org/1999/xlink" xml:space="preserve" onload="init(evt)">
<style type="text/css"><![CDATA[
.edge:hover path { stroke: red; }
.edge:hover polygon { stroke: red; fill: red; }
]]></style>
<script type="text/javascript"><![CDATA[
var edges = document.getElementsByTagName('g');
if (edges && edges.length) {
  for (var i=0;i<edges.length;i++) {
    if (edges[i].id.substr(0,4)=='edge') {
      edges[i].setAttribute('class','edge');
    }
  }
}
]]></script>
        <defs>
                <circle id="rim" cx="0" cy="0" r="7"/>
                <circle id="rim2" cx="0" cy="0" r="3.5"/>
                <g id="zoomPlus">
                        <use xlink:href="#rim" fill="#404040">
                                <set attributeName="fill" to="#808080" begin="zoomplus.mouseover" end="zoomplus.mouseout"/>
                        </use>
                        <path d="M-4,0h8M0,-4v8" fill="none" stroke="white" stroke-width="1.5" pointer-events="none"/>
                </g>
                <g id="zoomMin">
                        <use xlink:href="#rim" fill="#404040">
                                <set attributeName="fill" to="#808080" begin="zoomminus.mouseover" end="zoomminus.mouseout"/>
                        </use>
                        <path d="M-4,0h8" fill="none" stroke="white" stroke-width="1.5" pointer-events="none"/>
                </g>
                <g id="dirArrow">
                        <path fill="none" stroke="white" stroke-width="1.5" d="M0,-3.0v7 M-2.5,-0.5L0,-3.0L2.5,-0.5"/>
                </g>
               <g id="resetDef">
                       <use xlink:href="#rim2" fill="#404040">
                               <set attributeName="fill" to="#808080" begin="reset.mouseover" end="reset.mouseout"/>
                       </use>
               </g>
        </defs>

<script type="text/javascript">
var viewWidth = 1533;
var viewHeight = 598;
var sectionId = 'dynsection-8';
</script>
<script xlink:href="svgpan.js"/>
<svg id="graph" class="graph">
<g id="viewport">
<title>UIManager::createBuildMenu</title>
<!-- Node1 -->
<g id="node1" class="node"><title>Node1</title>
<polygon fill="#bfbfbf" stroke="black" points="0,-285.5 0,-304.5 155,-304.5 155,-285.5 0,-285.5"/>
<text text-anchor="middle" x="77.5" y="-292.5" font-family="Helvetica,sans-Serif" font-size="10.00">UIManager::createBuildMenu</text>
</g>
<!-- Node2 -->
<g id="node2" class="node"><title>Node2</title>
<g id="a_node2"><a xlink:href="classUIElement.html#ad448eae9fd22723ca68f04db6a180de7" target="_top" xlink:title="UIElement::getUiElementData">
<polygon fill="none" stroke="black" points="196,-570.5 196,-589.5 357,-589.5 357,-570.5 196,-570.5"/>
<text text-anchor="middle" x="276.5" y="-577.5" font-family="Helvetica,sans-Serif" font-size="10.00">UIElement::getUiElementData</text>
</a>
</g>
</g>
<!-- Node1&#45;&gt;Node2 -->
<g id="edge1" class="edge"><title>Node1&#45;&gt;Node2</title>
<path fill="none" stroke="midnightblue" d="M79.6724,-304.525C84.8576,-342.464 109.223,-484.236 191,-556 195.739,-560.159 201.151,-563.6 206.896,-566.448"/>
<polygon fill="midnightblue" stroke="midnightblue" points="205.579,-569.692 216.147,-570.451 208.359,-563.267 205.579,-569.692"/>
</g>
<!-- Node3 -->
<g id="node3" class="node"><title>Node3</title>
<g id="a_node3"><a xlink:href="classSingleton.html#af5cb1e5749949e2b68416cfb8d378044" target="_top" xlink:title="Get an instance of the singleton. ">
<polygon fill="none" stroke="black" points="1394,-366 1394,-396 1525,-396 1525,-366 1394,-366"/>
<text text-anchor="start" x="1402" y="-384" font-family="Helvetica,sans-Serif" font-size="10.00">Singleton&lt; TileManager</text>
<text text-anchor="middle" x="1459.5" y="-373" font-family="Helvetica,sans-Serif" font-size="10.00"> &gt;::instance</text>
</a>
</g>
</g>
<!-- Node1&#45;&gt;Node3 -->
<g id="edge2" class="edge"><title>Node1&#45;&gt;Node3</title>
<path fill="none" stroke="midnightblue" d="M79.8316,-304.549C85.4257,-340.635 110.589,-469.35 191,-523 245.645,-559.459 420.309,-542 486,-542 486,-542 486,-542 1095,-542 1217.84,-542 1249.04,-513.73 1358,-457 1386.35,-442.238 1415.08,-419.567 1434.52,-402.825"/>
<polygon fill="midnightblue" stroke="midnightblue" points="1437.04,-405.274 1442.25,-396.053 1432.42,-400.007 1437.04,-405.274"/>
</g>
<!-- Node4 -->
<g id="node4" class="node"><title>Node4</title>
<g id="a_node4"><a xlink:href="classTileManager.html#a682e1364119e3e5c41e4032fe4e206e1" target="_top" xlink:title="TileManager::getAllTileData">
<polygon fill="none" stroke="black" points="203.5,-418.5 203.5,-437.5 349.5,-437.5 349.5,-418.5 203.5,-418.5"/>
<text text-anchor="middle" x="276.5" y="-425.5" font-family="Helvetica,sans-Serif" font-size="10.00">TileManager::getAllTileData</text>
</a>
</g>
</g>
<!-- Node1&#45;&gt;Node4 -->
<g id="edge3" class="edge"><title>Node1&#45;&gt;Node4</title>
<path fill="none" stroke="midnightblue" d="M85.0797,-304.77C100.648,-327.07 142.129,-381.882 191,-409 195.137,-411.296 199.535,-413.314 204.065,-415.089"/>
<polygon fill="midnightblue" stroke="midnightblue" points="202.916,-418.395 213.511,-418.4 205.232,-411.789 202.916,-418.395"/>
</g>
<!-- Node12 -->
<g id="node12" class="node"><title>Node12</title>
<g id="a_node12"><a xlink:href="classUIElement.html#a452ffed1ff191ababc8c15d4c455f6c2" target="_top" xlink:title="Set the uiElements sprite ID Set the sprite ID this ui element. The texture will be retrieved from th...">
<polygon fill="none" stroke="black" points="421.5,-254.5 421.5,-273.5 552.5,-273.5 552.5,-254.5 421.5,-254.5"/>
<text text-anchor="middle" x="487" y="-261.5" font-family="Helvetica,sans-Serif" font-size="10.00">UIElement::setTextureID</text>
</a>
</g>
</g>
<!-- Node1&#45;&gt;Node12 -->
<g id="edge15" class="edge"><title>Node1&#45;&gt;Node12</title>
<path fill="none" stroke="midnightblue" d="M84.2728,-285.164C98.6966,-261.699 138.922,-202.774 191,-181 261.118,-151.684 289.282,-158.909 362,-181 404.827,-194.01 446.329,-227.267 468.786,-247.514"/>
<polygon fill="midnightblue" stroke="midnightblue" points="466.442,-250.114 476.165,-254.324 471.189,-244.97 466.442,-250.114"/>
</g>
<!-- Node14 -->
<g id="node14" class="node"><title>Node14</title>
<g id="a_node14"><a xlink:href="classButton.html#a6b08fa54560842dec2eabed9a93c3103" target="_top" xlink:title="Button::drawImageButtonFrame">
<polygon fill="none" stroke="black" points="191.5,-494.5 191.5,-513.5 361.5,-513.5 361.5,-494.5 191.5,-494.5"/>
<text text-anchor="middle" x="276.5" y="-501.5" font-family="Helvetica,sans-Serif" font-size="10.00">Button::drawImageButtonFrame</text>
</a>
</g>
</g>
<!-- Node1&#45;&gt;Node14 -->
<g id="edge18" class="edge"><title>Node1&#45;&gt;Node14</title>
<path fill="none" stroke="midnightblue" d="M81.2329,-304.769C90.6145,-336.399 124.649,-436.756 191,-485 193.676,-486.945 196.515,-488.697 199.471,-490.273"/>
<polygon fill="midnightblue" stroke="midnightblue" points="198.093,-493.491 208.64,-494.496 201.021,-487.133 198.093,-493.491"/>
</g>
<!-- Node17 -->
<g id="node17" class="node"><title>Node17</title>
<g id="a_node17"><a xlink:href="classUIElement.html#a440d645aa10dbf7d3c763ba6e1fc33a6" target="_top" xlink:title="Sets the UI Elements visibility. Set the UI Elements visibility. ">
<polygon fill="none" stroke="black" points="214,-380.5 214,-399.5 339,-399.5 339,-380.5 214,-380.5"/>
<text text-anchor="middle" x="276.5" y="-387.5" font-family="Helvetica,sans-Serif" font-size="10.00">UIElement::setVisibility</text>
</a>
</g>
</g>
<!-- Node1&#45;&gt;Node17 -->
<g id="edge21" class="edge"><title>Node1&#45;&gt;Node17</title>
<path fill="none" stroke="midnightblue" d="M89.485,-304.52C108.716,-320.68 150.319,-353.432 191,-371 196.798,-373.504 202.968,-375.697 209.231,-377.615"/>
<polygon fill="midnightblue" stroke="midnightblue" points="208.537,-381.056 219.112,-380.407 210.44,-374.32 208.537,-381.056"/>
</g>
<!-- Node18 -->
<g id="node18" class="node"><title>Node18</title>
<g id="a_node18"><a xlink:href="classUIElement.html#a681f08cf2aeee4c376696695227cde9b" target="_top" xlink:title="Set the button mode to toggleButton Set the button mode to toggle button, which means it stays presse...">
<polygon fill="none" stroke="black" points="202,-342.5 202,-361.5 351,-361.5 351,-342.5 202,-342.5"/>
<text text-anchor="middle" x="276.5" y="-349.5" font-family="Helvetica,sans-Serif" font-size="10.00">UIElement::setToggleButton</text>
</a>
</g>
</g>
<!-- Node1&#45;&gt;Node18 -->
<g id="edge22" class="edge"><title>Node1&#45;&gt;Node18</title>
<path fill="none" stroke="midnightblue" d="M104.177,-304.529C126.825,-312.728 160.829,-324.537 191,-333 199.931,-335.505 209.464,-337.906 218.791,-340.108"/>
<polygon fill="midnightblue" stroke="midnightblue" points="218.262,-343.577 228.792,-342.414 219.834,-336.756 218.262,-343.577"/>
</g>
<!-- Node19 -->
<g id="node19" class="node"><title>Node19</title>
<g id="a_node19"><a xlink:href="classUIElement.html#ab14a33c04d137514d12e0707d96b3fd3" target="_top" xlink:title="Set the Action ID of the UI Element. Sets the ID of the action the UI Element should execute when it&#39;...">
<polygon fill="none" stroke="black" points="213,-304.5 213,-323.5 340,-323.5 340,-304.5 213,-304.5"/>
<text text-anchor="middle" x="276.5" y="-311.5" font-family="Helvetica,sans-Serif" font-size="10.00">UIElement::setActionID</text>
</a>
</g>
</g>
<!-- Node1&#45;&gt;Node19 -->
<g id="edge23" class="edge"><title>Node1&#45;&gt;Node19</title>
<path fill="none" stroke="midnightblue" d="M155.229,-302.4C170.916,-303.913 187.377,-305.501 202.913,-306.999"/>
<polygon fill="midnightblue" stroke="midnightblue" points="202.681,-310.493 212.971,-307.969 203.354,-303.525 202.681,-310.493"/>
</g>
<!-- Node20 -->
<g id="node20" class="node"><title>Node20</title>
<g id="a_node20"><a xlink:href="classUIElement.html#a902b00b3e651b2a0e33345c3dbd810d4" target="_top" xlink:title="Set the Action Parameter of the UI Element. Sets the Parameter of the action the UI Element should ex...">
<polygon fill="none" stroke="black" points="193,-456.5 193,-475.5 360,-475.5 360,-456.5 193,-456.5"/>
<text text-anchor="middle" x="276.5" y="-463.5" font-family="Helvetica,sans-Serif" font-size="10.00">UIElement::setActionParameter</text>
</a>
</g>
</g>
<!-- Node1&#45;&gt;Node20 -->
<g id="edge24" class="edge"><title>Node1&#45;&gt;Node20</title>
<path fill="none" stroke="midnightblue" d="M82.67,-304.702C94.9063,-331.936 133.508,-409.546 191,-447 194.146,-449.049 197.482,-450.88 200.941,-452.514"/>
<polygon fill="midnightblue" stroke="midnightblue" points="199.76,-455.813 210.339,-456.4 202.435,-449.345 199.76,-455.813"/>
</g>
<!-- Node23 -->
<g id="node23" class="node"><title>Node23</title>
<g id="a_node23"><a xlink:href="classUIElement.html#a7886562edcbbaaf7a09910c98091d335" target="_top" xlink:title="UIElement::setMenuGroupID">
<polygon fill="none" stroke="black" points="200.5,-228.5 200.5,-247.5 352.5,-247.5 352.5,-228.5 200.5,-228.5"/>
<text text-anchor="middle" x="276.5" y="-235.5" font-family="Helvetica,sans-Serif" font-size="10.00">UIElement::setMenuGroupID</text>
</a>
</g>
</g>
<!-- Node1&#45;&gt;Node23 -->
<g id="edge28" class="edge"><title>Node1&#45;&gt;Node23</title>
<path fill="none" stroke="midnightblue" d="M104.177,-285.471C126.825,-277.272 160.829,-265.463 191,-257 199.931,-254.495 209.464,-252.094 218.791,-249.892"/>
<polygon fill="midnightblue" stroke="midnightblue" points="219.834,-253.244 228.792,-247.586 218.262,-246.423 219.834,-253.244"/>
</g>
<!-- Node24 -->
<g id="node24" class="node"><title>Node24</title>
<g id="a_node24"><a xlink:href="classUIElement.html#ad0962bf40e35e59043a344a9a91ccdf2" target="_top" xlink:title="Set the uiElements tooltip text Set the tooltip text for this ui element. Tooltip is shown when hover...">
<polygon fill="none" stroke="black" points="208.5,-190.5 208.5,-209.5 344.5,-209.5 344.5,-190.5 208.5,-190.5"/>
<text text-anchor="middle" x="276.5" y="-197.5" font-family="Helvetica,sans-Serif" font-size="10.00">UIElement::setTooltipText</text>
</a>
</g>
</g>
<!-- Node1&#45;&gt;Node24 -->
<g id="edge29" class="edge"><title>Node1&#45;&gt;Node24</title>
<path fill="none" stroke="midnightblue" d="M89.485,-285.48C108.716,-269.32 150.319,-236.568 191,-219 196.798,-216.496 202.968,-214.303 209.231,-212.385"/>
<polygon fill="midnightblue" stroke="midnightblue" points="210.44,-215.68 219.112,-209.593 208.537,-208.944 210.44,-215.68"/>
</g>
<!-- Node25 -->
<g id="node25" class="node"><title>Node25</title>
<g id="a_node25"><a xlink:href="classUIElement.html#a9c4439b91bcb765d0616616fbfe2a44a" target="_top" xlink:title="Get the uiElements tooltip text Get the tooltip text for this ui element. Tooltip is shown when hover...">
<polygon fill="none" stroke="black" points="203.5,-266.5 203.5,-285.5 349.5,-285.5 349.5,-266.5 203.5,-266.5"/>
<text text-anchor="middle" x="276.5" y="-273.5" font-family="Helvetica,sans-Serif" font-size="10.00">UIElement::setUIElementID</text>
</a>
</g>
</g>
<!-- Node1&#45;&gt;Node25 -->
<g id="edge30" class="edge"><title>Node1&#45;&gt;Node25</title>
<path fill="none" stroke="midnightblue" d="M155.229,-287.6C167.761,-286.391 180.787,-285.135 193.441,-283.914"/>
<polygon fill="midnightblue" stroke="midnightblue" points="193.874,-287.389 203.492,-282.945 193.202,-280.421 193.874,-287.389"/>
</g>
<!-- Node26 -->
<g id="node26" class="node"><title>Node26</title>
<g id="a_node26"><a xlink:href="namespaceutils_1_1strings.html#a1460a4e19b93604e32bb76f8407c4221" target="_top" xlink:title="checks if a string ends with a certain substring ">
<polygon fill="none" stroke="black" points="425,-108.5 425,-127.5 549,-127.5 549,-108.5 425,-108.5"/>
<text text-anchor="middle" x="487" y="-115.5" font-family="Helvetica,sans-Serif" font-size="10.00">utils::strings::endsWith</text>
</a>
</g>
</g>
<!-- Node1&#45;&gt;Node26 -->
<g id="edge32" class="edge"><title>Node1&#45;&gt;Node26</title>
<path fill="none" stroke="midnightblue" d="M83.1727,-285.276C96.1489,-259.459 135.37,-189.046 191,-158 260.044,-119.468 351.917,-112.704 414.677,-113.5"/>
<polygon fill="midnightblue" stroke="midnightblue" points="414.813,-117.003 424.879,-113.699 414.949,-110.005 414.813,-117.003"/>
</g>
<!-- Node27 -->
<g id="node27" class="node"><title>Node27</title>
<g id="a_node27"><a xlink:href="namespaceutils_1_1strings.html#ab8a6e07e519cb0ee76d762fe635901c1" target="_top" xlink:title="Erase First Occurrence of given substring from main string. ">
<polygon fill="none" stroke="black" points="419,-46 419,-76 555,-76 555,-46 419,-46"/>
<text text-anchor="start" x="427" y="-64" font-family="Helvetica,sans-Serif" font-size="10.00">utils::strings::removeSub</text>
<text text-anchor="middle" x="487" y="-53" font-family="Helvetica,sans-Serif" font-size="10.00">String</text>
</a>
</g>
</g>
<!-- Node1&#45;&gt;Node27 -->
<g id="edge33" class="edge"><title>Node1&#45;&gt;Node27</title>
<path fill="none" stroke="midnightblue" d="M79.7589,-285.339C85.0903,-248.85 109.429,-118.869 191,-67 259.42,-23.4932 356.007,-31.4923 419.774,-43.9381"/>
<polygon fill="midnightblue" stroke="midnightblue" points="419.219,-47.3969 429.717,-45.9665 420.618,-40.5382 419.219,-47.3969"/>
</g>
<!-- Node28 -->
<g id="node28" class="node"><title>Node28</title>
<g id="a_node28"><a xlink:href="classUIManager.html#a5c87a391279c342c25d859eb7f3b144d" target="_top" xlink:title="UIManager::addToLayoutGroup">
<polygon fill="none" stroke="black" points="194.5,-0.5 194.5,-19.5 358.5,-19.5 358.5,-0.5 194.5,-0.5"/>
<text text-anchor="middle" x="276.5" y="-7.5" font-family="Helvetica,sans-Serif" font-size="10.00">UIManager::addToLayoutGroup</text>
</a>
</g>
</g>
<!-- Node1&#45;&gt;Node28 -->
<g id="edge34" class="edge"><title>Node1&#45;&gt;Node28</title>
<path fill="none" stroke="midnightblue" d="M79.6724,-285.475C84.8576,-247.536 109.223,-105.764 191,-34 195.739,-29.8412 201.151,-26.3997 206.896,-23.5523"/>
<polygon fill="midnightblue" stroke="midnightblue" points="208.359,-26.7327 216.147,-19.5492 205.579,-20.3083 208.359,-26.7327"/>
</g>
<!-- Node30 -->
<g id="node30" class="node"><title>Node30</title>
<g id="a_node30"><a xlink:href="classUIManager.html#af885d42286536573cd418ed008abfc07" target="_top" xlink:title="UIManager::setBuildMenuLayout">
<polygon fill="none" stroke="black" points="191,-76.5 191,-95.5 362,-95.5 362,-76.5 191,-76.5"/>
<text text-anchor="middle" x="276.5" y="-83.5" font-family="Helvetica,sans-Serif" font-size="10.00">UIManager::setBuildMenuLayout</text>
</a>
</g>
</g>
<!-- Node1&#45;&gt;Node30 -->
<g id="edge36" class="edge"><title>Node1&#45;&gt;Node30</title>
<path fill="none" stroke="midnightblue" d="M81.5632,-285.199C91.7157,-254.362 127.288,-158.493 191,-110 196.757,-105.618 203.281,-102.037 210.092,-99.1087"/>
<polygon fill="midnightblue" stroke="midnightblue" points="211.42,-102.348 219.51,-95.5075 208.92,-95.8096 211.42,-102.348"/>
</g>
<!-- Node5 -->
<g id="node5" class="node"><title>Node5</title>
<g id="a_node5"><a xlink:href="classTileManager.html#a1575d9a9530e13fe0286b8fece9e47ea" target="_top" xlink:title="TileManager::init">
<polygon fill="none" stroke="black" points="651,-358.5 651,-377.5 746,-377.5 746,-358.5 651,-358.5"/>
<text text-anchor="middle" x="698.5" y="-365.5" font-family="Helvetica,sans-Serif" font-size="10.00">TileManager::init</text>
</a>
</g>
</g>
<!-- Node4&#45;&gt;Node5 -->
<g id="edge4" class="edge"><title>Node4&#45;&gt;Node5</title>
<path fill="none" stroke="midnightblue" d="M336.301,-418.483C355.912,-415.375 377.886,-411.962 398,-409 482.421,-396.567 580.421,-383.388 640.696,-375.426"/>
<polygon fill="midnightblue" stroke="midnightblue" points="641.312,-378.875 650.769,-374.098 640.397,-371.936 641.312,-378.875"/>
</g>
<!-- Node10 -->
<g id="node10" class="node"><title>Node10</title>
<g id="a_node10"><a xlink:href="classTileManager.html#ac6f5d9eb4db57f9ad597223658574394" target="_top" xlink:title="TileManager::TileManager">
<polygon fill="none" stroke="black" points="418,-342.5 418,-361.5 556,-361.5 556,-342.5 418,-342.5"/>
<text text-anchor="middle" x="487" y="-349.5" font-family="Helvetica,sans-Serif" font-size="10.00">TileManager::TileManager</text>
</a>
</g>
</g>
<!-- Node4&#45;&gt;Node10 -->
<g id="edge12" class="edge"><title>Node4&#45;&gt;Node10</title>
<path fill="none" stroke="midnightblue" d="M337.974,-418.471C346.296,-416.003 354.537,-412.9 362,-409 381.237,-398.947 378.995,-386.484 398,-376 406.336,-371.402 415.609,-367.639 424.921,-364.574"/>
<polygon fill="midnightblue" stroke="midnightblue" points="426.054,-367.888 434.6,-361.627 424.014,-361.192 426.054,-367.888"/>
</g>
<!-- Node11 -->
<g id="node11" class="node"><title>Node11</title>
<g id="a_node11"><a xlink:href="classTileManager.html#a4ee920ba2d77b9b106151242deb48d4e" target="_top" xlink:title="TileManager::~TileManager">
<polygon fill="none" stroke="black" points="414,-418.5 414,-437.5 560,-437.5 560,-418.5 414,-418.5"/>
<text text-anchor="middle" x="487" y="-425.5" font-family="Helvetica,sans-Serif" font-size="10.00">TileManager::~TileManager</text>
</a>
</g>
</g>
<!-- Node4&#45;&gt;Node11 -->
<g id="edge14" class="edge"><title>Node4&#45;&gt;Node11</title>
<path fill="none" stroke="midnightblue" d="M349.546,-428C367.043,-428 385.883,-428 403.81,-428"/>
<polygon fill="midnightblue" stroke="midnightblue" points="403.951,-431.5 413.951,-428 403.951,-424.5 403.951,-431.5"/>
</g>
<!-- Node5&#45;&gt;Node3 -->
<g id="edge5" class="edge"><title>Node5&#45;&gt;Node3</title>
<path fill="none" stroke="midnightblue" d="M726.03,-358.483C816.79,-327.413 1122.28,-235.136 1358,-310 1388.11,-319.562 1416.97,-341.768 1435.97,-358.819"/>
<polygon fill="midnightblue" stroke="midnightblue" points="1433.77,-361.548 1443.49,-365.76 1438.52,-356.405 1433.77,-361.548"/>
</g>
<!-- Node6 -->
<g id="node6" class="node"><title>Node6</title>
<g id="a_node6"><a xlink:href="classTileManager.html#a7fadfb60a38e76b474996c59672812cf" target="_top" xlink:title="TileManager::addJSONObject\lToTileData">
<polygon fill="none" stroke="black" points="821,-361 821,-391 974,-391 974,-361 821,-361"/>
<text text-anchor="start" x="829" y="-379" font-family="Helvetica,sans-Serif" font-size="10.00">TileManager::addJSONObject</text>
<text text-anchor="middle" x="897.5" y="-368" font-family="Helvetica,sans-Serif" font-size="10.00">ToTileData</text>
</a>
</g>
</g>
<!-- Node5&#45;&gt;Node6 -->
<g id="edge6" class="edge"><title>Node5&#45;&gt;Node6</title>
<path fill="none" stroke="midnightblue" d="M746.186,-369.896C765.525,-370.681 788.59,-371.618 810.775,-372.519"/>
<polygon fill="midnightblue" stroke="midnightblue" points="810.755,-376.021 820.889,-372.93 811.04,-369.027 810.755,-376.021"/>
</g>
<!-- Node6&#45;&gt;Node3 -->
<g id="edge7" class="edge"><title>Node6&#45;&gt;Node3</title>
<path fill="none" stroke="midnightblue" d="M974.023,-390.975C1065.33,-406.881 1223.49,-427.388 1358,-409 1373.46,-406.887 1389.89,-403.026 1404.89,-398.833"/>
<polygon fill="midnightblue" stroke="midnightblue" points="1405.89,-402.188 1414.52,-396.044 1403.94,-395.465 1405.89,-402.188"/>
</g>
<!-- Node7 -->
<g id="node7" class="node"><title>Node7</title>
<g id="a_node7"><a xlink:href="classResourcesManager.html#a0a56e6316b8145494b7d551c29c41d80" target="_top" xlink:title="ResourcesManager::loadTexture">
<polygon fill="none" stroke="black" points="1010,-366.5 1010,-385.5 1178,-385.5 1178,-366.5 1010,-366.5"/>
<text text-anchor="middle" x="1094" y="-373.5" font-family="Helvetica,sans-Serif" font-size="10.00">ResourcesManager::loadTexture</text>
</a>
</g>
</g>
<!-- Node6&#45;&gt;Node7 -->
<g id="edge8" class="edge"><title>Node6&#45;&gt;Node7</title>
<path fill="none" stroke="midnightblue" d="M974.256,-376C982.521,-376 991.005,-376 999.452,-376"/>
<polygon fill="midnightblue" stroke="midnightblue" points="999.719,-379.5 1009.72,-376 999.719,-372.5 999.719,-379.5"/>
</g>
<!-- Node8 -->
<g id="node8" class="node"><title>Node8</title>
<g id="a_node8"><a xlink:href="classResourcesManager.html#a54721d26f52c4887b735d2cdaf60b078" target="_top" xlink:title="ResourcesManager::create\lSurfaceFromFile">
<polygon fill="none" stroke="black" points="1214,-369 1214,-399 1358,-399 1358,-369 1214,-369"/>
<text text-anchor="start" x="1222" y="-387" font-family="Helvetica,sans-Serif" font-size="10.00">ResourcesManager::create</text>
<text text-anchor="middle" x="1286" y="-376" font-family="Helvetica,sans-Serif" font-size="10.00">SurfaceFromFile</text>
</a>
</g>
</g>
<!-- Node7&#45;&gt;Node8 -->
<g id="edge9" class="edge"><title>Node7&#45;&gt;Node8</title>
<path fill="none" stroke="midnightblue" d="M1178.06,-379.497C1186.51,-379.853 1195.08,-380.214 1203.52,-380.569"/>
<polygon fill="midnightblue" stroke="midnightblue" points="1203.57,-384.074 1213.71,-380.998 1203.86,-377.081 1203.57,-384.074"/>
</g>
<!-- Node9 -->
<g id="node9" class="node"><title>Node9</title>
<g id="a_node9"><a xlink:href="classResourcesManager.html#ad7712ca96233a151d8bc22cd2ba17d01" target="_top" xlink:title="ResourcesManager::create\lTextureFromSurface">
<polygon fill="none" stroke="black" points="1214,-320 1214,-350 1358,-350 1358,-320 1214,-320"/>
<text text-anchor="start" x="1222" y="-338" font-family="Helvetica,sans-Serif" font-size="10.00">ResourcesManager::create</text>
<text text-anchor="middle" x="1286" y="-327" font-family="Helvetica,sans-Serif" font-size="10.00">TextureFromSurface</text>
</a>
</g>
</g>
<!-- Node7&#45;&gt;Node9 -->
<g id="edge10" class="edge"><title>Node7&#45;&gt;Node9</title>
<path fill="none" stroke="midnightblue" d="M1139.07,-366.491C1158.74,-362.246 1182.55,-357.108 1205.18,-352.225"/>
<polygon fill="midnightblue" stroke="midnightblue" points="1206.09,-355.608 1215.13,-350.078 1204.61,-348.766 1206.09,-355.608"/>
</g>
<!-- Node9&#45;&gt;Node3 -->
<g id="edge11" class="edge"><title>Node9&#45;&gt;Node3</title>
<path fill="none" stroke="midnightblue" d="M1343.16,-350.062C1358.93,-354.293 1376.23,-358.933 1392.52,-363.303"/>
<polygon fill="midnightblue" stroke="midnightblue" points="1391.95,-366.772 1402.51,-365.983 1393.76,-360.011 1391.95,-366.772"/>
</g>
<!-- Node10&#45;&gt;Node5 -->
<g id="edge13" class="edge"><title>Node10&#45;&gt;Node5</title>
<path fill="none" stroke="midnightblue" d="M556.019,-357.195C583.443,-359.289 614.712,-361.677 640.868,-363.675"/>
<polygon fill="midnightblue" stroke="midnightblue" points="640.755,-367.176 650.993,-364.448 641.289,-360.197 640.755,-367.176"/>
</g>
<!-- Node12&#45;&gt;Node3 -->
<g id="edge16" class="edge"><title>Node12&#45;&gt;Node3</title>
<path fill="none" stroke="midnightblue" d="M552.722,-261.182C633.258,-257.922 775.005,-253 896.5,-253 896.5,-253 896.5,-253 1095,-253 1212.55,-253 1251.87,-230.455 1358,-281 1394.22,-298.25 1425.06,-334.068 1442.68,-357.82"/>
<polygon fill="midnightblue" stroke="midnightblue" points="1439.87,-359.909 1448.56,-365.968 1445.55,-355.811 1439.87,-359.909"/>
</g>
<!-- Node13 -->
<g id="node13" class="node"><title>Node13</title>
<g id="a_node13"><a xlink:href="classResourcesManager.html#aae2a2032792aaa57862eb9c494ae1cf2" target="_top" xlink:title="ResourcesManager::getUITexture">
<polygon fill="none" stroke="black" points="612,-281.5 612,-300.5 785,-300.5 785,-281.5 612,-281.5"/>
<text text-anchor="middle" x="698.5" y="-288.5" font-family="Helvetica,sans-Serif" font-size="10.00">ResourcesManager::getUITexture</text>
</a>
</g>
</g>
<!-- Node12&#45;&gt;Node13 -->
<g id="edge17" class="edge"><title>Node12&#45;&gt;Node13</title>
<path fill="none" stroke="midnightblue" d="M552.566,-272.321C571.799,-274.8 593.163,-277.553 613.447,-280.167"/>
<polygon fill="midnightblue" stroke="midnightblue" points="613.255,-283.672 623.621,-281.479 614.15,-276.729 613.255,-283.672"/>
</g>
<!-- Node15 -->
<g id="node15" class="node"><title>Node15</title>
<g id="a_node15"><a xlink:href="classUIElement.html#af7c295301e56e32f3d00081e081bc71c" target="_top" xlink:title="UIElement::drawFrame">
<polygon fill="none" stroke="black" points="424.5,-494.5 424.5,-513.5 549.5,-513.5 549.5,-494.5 424.5,-494.5"/>
<text text-anchor="middle" x="487" y="-501.5" font-family="Helvetica,sans-Serif" font-size="10.00">UIElement::drawFrame</text>
</a>
</g>
</g>
<!-- Node14&#45;&gt;Node15 -->
<g id="edge19" class="edge"><title>Node14&#45;&gt;Node15</title>
<path fill="none" stroke="midnightblue" d="M361.704,-504C379.019,-504 397.101,-504 413.94,-504"/>
<polygon fill="midnightblue" stroke="midnightblue" points="414.247,-507.5 424.246,-504 414.246,-500.5 414.247,-507.5"/>
</g>
<!-- Node16 -->
<g id="node16" class="node"><title>Node16</title>
<g id="a_node16"><a xlink:href="classUIElement.html#a93e23ad405b6275a99d5f71d32232f5c" target="_top" xlink:title="Draws a filled rectangle to the screen. Draws a filled rectangle to the screen. ">
<polygon fill="none" stroke="black" points="629.5,-494.5 629.5,-513.5 767.5,-513.5 767.5,-494.5 629.5,-494.5"/>
<text text-anchor="middle" x="698.5" y="-501.5" font-family="Helvetica,sans-Serif" font-size="10.00">UIElement::drawSolidRect</text>
</a>
</g>
</g>
<!-- Node15&#45;&gt;Node16 -->
<g id="edge20" class="edge"><title>Node15&#45;&gt;Node16</title>
<path fill="none" stroke="midnightblue" d="M549.724,-504C571.488,-504 596.251,-504 619.201,-504"/>
<polygon fill="midnightblue" stroke="midnightblue" points="619.255,-507.5 629.255,-504 619.255,-500.5 619.255,-507.5"/>
</g>
<!-- Node21 -->
<g id="node21" class="node"><title>Node21</title>
<g id="a_node21"><a xlink:href="classUIElement.html#ade4162d6216022e143c769369b64add7" target="_top" xlink:title="Set the button state Sets the mouse button pressed state. ">
<polygon fill="none" stroke="black" points="404,-456.5 404,-475.5 570,-475.5 570,-456.5 404,-456.5"/>
<text text-anchor="middle" x="487" y="-463.5" font-family="Helvetica,sans-Serif" font-size="10.00">UIElement::changeButtonState</text>
</a>
</g>
</g>
<!-- Node20&#45;&gt;Node21 -->
<g id="edge25" class="edge"><title>Node20&#45;&gt;Node21</title>
<path fill="none" stroke="midnightblue" d="M360.204,-466C371.172,-466 382.473,-466 393.592,-466"/>
<polygon fill="midnightblue" stroke="midnightblue" points="393.737,-469.5 403.737,-466 393.737,-462.5 393.737,-469.5"/>
</g>
<!-- Node21&#45;&gt;Node3 -->
<g id="edge27" class="edge"><title>Node21&#45;&gt;Node3</title>
<path fill="none" stroke="midnightblue" d="M570.155,-466C652.645,-466 783.382,-466 896.5,-466 896.5,-466 896.5,-466 1095,-466 1213.23,-466 1244.57,-459.351 1358,-426 1379.65,-419.634 1402.71,-409.569 1421.27,-400.572"/>
<polygon fill="midnightblue" stroke="midnightblue" points="1422.85,-403.695 1430.26,-396.125 1419.74,-397.42 1422.85,-403.695"/>
</g>
<!-- Node22 -->
<g id="node22" class="node"><title>Node22</title>
<g id="a_node22"><a xlink:href="classUIElement.html#afdf67550d4140097c7a328d4b22fc1fe" target="_top" xlink:title="UIElement::changeTexture">
<polygon fill="none" stroke="black" points="627.5,-418.5 627.5,-437.5 769.5,-437.5 769.5,-418.5 627.5,-418.5"/>
<text text-anchor="middle" x="698.5" y="-425.5" font-family="Helvetica,sans-Serif" font-size="10.00">UIElement::changeTexture</text>
</a>
</g>
</g>
<!-- Node21&#45;&gt;Node22 -->
<g id="edge26" class="edge"><title>Node21&#45;&gt;Node22</title>
<path fill="none" stroke="midnightblue" d="M540.595,-456.46C569.235,-451.265 604.859,-444.804 634.92,-439.351"/>
<polygon fill="midnightblue" stroke="midnightblue" points="635.668,-442.772 644.883,-437.544 634.419,-435.885 635.668,-442.772"/>
</g>
<!-- Node25&#45;&gt;Node12 -->
<g id="edge31" class="edge"><title>Node25&#45;&gt;Node12</title>
<path fill="none" stroke="midnightblue" d="M349.546,-271.853C369.483,-270.706 391.164,-269.458 411.251,-268.302"/>
<polygon fill="midnightblue" stroke="midnightblue" points="411.498,-271.794 421.28,-267.725 411.096,-264.805 411.498,-271.794"/>
</g>
<!-- Node29 -->
<g id="node29" class="node"><title>Node29</title>
<g id="a_node29"><a xlink:href="classUIElement.html#a5a18d36a9dfdba437faa612964640d08" target="_top" xlink:title="UIElement::setLayoutGroupName">
<polygon fill="none" stroke="black" points="398,-0.5 398,-19.5 576,-19.5 576,-0.5 398,-0.5"/>
<text text-anchor="middle" x="487" y="-7.5" font-family="Helvetica,sans-Serif" font-size="10.00">UIElement::setLayoutGroupName</text>
</a>
</g>
</g>
<!-- Node28&#45;&gt;Node29 -->
<g id="edge35" class="edge"><title>Node28&#45;&gt;Node29</title>
<path fill="none" stroke="midnightblue" d="M358.709,-10C368.213,-10 377.987,-10 387.692,-10"/>
<polygon fill="midnightblue" stroke="midnightblue" points="387.766,-13.5001 397.766,-10 387.766,-6.5001 387.766,-13.5001"/>
</g>
<!-- Node30&#45;&gt;Node26 -->
<g id="edge37" class="edge"><title>Node30&#45;&gt;Node26</title>
<path fill="none" stroke="midnightblue" d="M339.492,-95.5144C363.231,-99.1577 390.488,-103.341 415.004,-107.104"/>
<polygon fill="midnightblue" stroke="midnightblue" points="414.55,-110.575 424.965,-108.633 415.612,-103.656 414.55,-110.575"/>
</g>
<!-- Node30&#45;&gt;Node27 -->
<g id="edge38" class="edge"><title>Node30&#45;&gt;Node27</title>
<path fill="none" stroke="midnightblue" d="M356.92,-76.4773C373.788,-74.4547 391.578,-72.3216 408.378,-70.3072"/>
<polygon fill="midnightblue" stroke="midnightblue" points="409.182,-73.736 418.694,-69.0703 408.348,-66.7858 409.182,-73.736"/>
</g>
</g>
</svg>
        <g id="navigator" transform="translate(0 0)" fill="#404254">
                <rect fill="#f2f5e9" fill-opacity="0.5" stroke="#606060" stroke-width=".5" x="0" y="0" width="60" height="60"/>
                <use id="zoomplus" xlink:href="#zoomPlus" x="17" y="9" onmousedown="handleZoom(evt,'in')"/>
                <use id="zoomminus" xlink:href="#zoomMin" x="42" y="9" onmousedown="handleZoom(evt,'out')"/>
                <use id="reset" xlink:href="#resetDef" x="30" y="36" onmousedown="handleReset()"/>
                <g id="arrowUp" xlink:href="#dirArrow" transform="translate(30 24)" onmousedown="handlePan(0,-1)">
                  <use xlink:href="#rim" fill="#404040">
                        <set attributeName="fill" to="#808080" begin="arrowUp.mouseover" end="arrowUp.mouseout"/>
                  </use>
                  <path fill="none" stroke="white" stroke-width="1.5" d="M0,-3.0v7 M-2.5,-0.5L0,-3.0L2.5,-0.5"/>
                </g>
                <g id="arrowRight" xlink:href="#dirArrow" transform="rotate(90) translate(36 -43)" onmousedown="handlePan(1,0)">
                  <use xlink:href="#rim" fill="#404040">
                        <set attributeName="fill" to="#808080" begin="arrowRight.mouseover" end="arrowRight.mouseout"/>
                  </use>
                  <path fill="none" stroke="white" stroke-width="1.5" d="M0,-3.0v7 M-2.5,-0.5L0,-3.0L2.5,-0.5"/>
                </g>
                <g id="arrowDown" xlink:href="#dirArrow" transform="rotate(180) translate(-30 -48)" onmousedown="handlePan(0,1)">
                  <use xlink:href="#rim" fill="#404040">
                        <set attributeName="fill" to="#808080" begin="arrowDown.mouseover" end="arrowDown.mouseout"/>
                  </use>
                  <path fill="none" stroke="white" stroke-width="1.5" d="M0,-3.0v7 M-2.5,-0.5L0,-3.0L2.5,-0.5"/>
                </g>
                <g id="arrowLeft" xlink:href="#dirArrow" transform="rotate(270) translate(-36 17)" onmousedown="handlePan(-1,0)">
                  <use xlink:href="#rim" fill="#404040">
                        <set attributeName="fill" to="#808080" begin="arrowLeft.mouseover" end="arrowLeft.mouseout"/>
                  </use>
                  <path fill="none" stroke="white" stroke-width="1.5" d="M0,-3.0v7 M-2.5,-0.5L0,-3.0L2.5,-0.5"/>
                </g>
        </g>
        <svg viewBox="0 0 15 15" width="100%" height="30px" preserveAspectRatio="xMaxYMin meet">
         <g id="arrow_out" transform="scale(0.3 0.3)">
          <a xlink:href="classUIManager_aae7a89e9d50bb6192e4140e07bd5f94b_cgraph_org.svg" target="_base">
           <rect id="button" ry="5" rx="5" y="6" x="6" height="38" width="38"
                fill="#f2f5e9" fill-opacity="0.5" stroke="#606060" stroke-width="1.0"/>
           <path id="arrow"
             d="M 11.500037,31.436501 C 11.940474,20.09759 22.043105,11.32322 32.158766,21.979434 L 37.068811,17.246167 C 37.068811,17.246167 37.088388,32 37.088388,32 L 22.160133,31.978069 C 22.160133,31.978069 26.997745,27.140456 26.997745,27.140456 C 18.528582,18.264221 13.291696,25.230495 11.500037,31.436501 z"
             style="fill:#404040;"/>
          </a>
         </g>
        </svg>
</svg>
