<?xml version="1.0" encoding="UTF-8" standalone="no"?>
<!DOCTYPE svg PUBLIC "-//W3C//DTD SVG 1.1//EN"
 "http://www.w3.org/Graphics/SVG/1.1/DTD/svg11.dtd">
<!-- Generated by graphviz version 2.38.0 (20140413.2041)
 -->
<!-- Title: ComboBox::clear Pages: 1 -->
<svg width="716pt" height="39pt"
 viewBox="0.00 0.00 716.00 39.00" xmlns="http://www.w3.org/2000/svg" xmlns:xlink="http://www.w3.org/1999/xlink">
<g id="graph0" class="graph" transform="scale(1 1) rotate(0) translate(4 35)">
<title>ComboBox::clear</title>
<!-- Node1 -->
<g id="node1" class="node"><title>Node1</title>
<polygon fill="#bfbfbf" stroke="black" points="0,-6 0,-25 98,-25 98,-6 0,-6"/>
<text text-anchor="middle" x="49" y="-13" font-family="Helvetica,sans-Serif" font-size="10.00">ComboBox::clear</text>
</g>
<!-- Node2 -->
<g id="node2" class="node"><title>Node2</title>
<g id="a_node2"><a xlink:href="classUIManager.html#a5c4cb8e02504ffa0d3faf45181feab9d" target="_top" xlink:title="Fill UI Widgets whose ID start with a $ with data Used for filling widgets with data, like BuildMenu Position combobox, Screen Resolution ComboBox and so on. ">
<polygon fill="none" stroke="black" points="134,-0.5 134,-30.5 274,-30.5 274,-0.5 134,-0.5"/>
<text text-anchor="start" x="142" y="-18.5" font-family="Helvetica,sans-Serif" font-size="10.00">UIManager::initializeDollar</text>
<text text-anchor="middle" x="204" y="-7.5" font-family="Helvetica,sans-Serif" font-size="10.00">Variables</text>
</a>
</g>
</g>
<!-- Node1&#45;&gt;Node2 -->
<g id="edge1" class="edge"><title>Node1&#45;&gt;Node2</title>
<path fill="none" stroke="midnightblue" d="M108.413,-15.5C116.761,-15.5 125.413,-15.5 133.942,-15.5"/>
<polygon fill="midnightblue" stroke="midnightblue" points="108.41,-12.0001 98.4102,-15.5 108.41,-19.0001 108.41,-12.0001"/>
</g>
<!-- Node3 -->
<g id="node3" class="node"><title>Node3</title>
<g id="a_node3"><a xlink:href="classUIManager.html#aedd9d0577af515a852425dfe414b2968" target="_top" xlink:title="Parses the UiLayout.json files and creates UI Elements. ">
<polygon fill="none" stroke="black" points="310,-6 310,-25 399,-25 399,-6 310,-6"/>
<text text-anchor="middle" x="354.5" y="-13" font-family="Helvetica,sans-Serif" font-size="10.00">UIManager::init</text>
</a>
</g>
</g>
<!-- Node2&#45;&gt;Node3 -->
<g id="edge2" class="edge"><title>Node2&#45;&gt;Node3</title>
<path fill="none" stroke="midnightblue" d="M284.274,-15.5C292.985,-15.5 301.604,-15.5 309.648,-15.5"/>
<polygon fill="midnightblue" stroke="midnightblue" points="284.033,-12.0001 274.033,-15.5 284.033,-19.0001 284.033,-12.0001"/>
</g>
<!-- Node4 -->
<g id="node4" class="node"><title>Node4</title>
<g id="a_node4"><a xlink:href="classGame.html#a1c2ab25d5216b2f4b2fe41efd2c09114" target="_top" xlink:title="Game::run">
<polygon fill="none" stroke="black" points="435,-6 435,-25 503,-25 503,-6 435,-6"/>
<text text-anchor="middle" x="469" y="-13" font-family="Helvetica,sans-Serif" font-size="10.00">Game::run</text>
</a>
</g>
</g>
<!-- Node3&#45;&gt;Node4 -->
<g id="edge3" class="edge"><title>Node3&#45;&gt;Node4</title>
<path fill="none" stroke="midnightblue" d="M409.446,-15.5C418.145,-15.5 426.918,-15.5 434.931,-15.5"/>
<polygon fill="midnightblue" stroke="midnightblue" points="409.318,-12.0001 399.318,-15.5 409.318,-19.0001 409.318,-12.0001"/>
</g>
<!-- Node5 -->
<g id="node5" class="node"><title>Node5</title>
<g id="a_node5"><a xlink:href="main_8cxx.html#af582d708d899e67ead623eac34a22387" target="_top" xlink:title="protected_main">
<polygon fill="none" stroke="black" points="539,-6 539,-25 631,-25 631,-6 539,-6"/>
<text text-anchor="middle" x="585" y="-13" font-family="Helvetica,sans-Serif" font-size="10.00">protected_main</text>
</a>
</g>
</g>
<!-- Node4&#45;&gt;Node5 -->
<g id="edge4" class="edge"><title>Node4&#45;&gt;Node5</title>
<path fill="none" stroke="midnightblue" d="M513.44,-15.5C521.674,-15.5 530.308,-15.5 538.601,-15.5"/>
<polygon fill="midnightblue" stroke="midnightblue" points="513.28,-12.0001 503.28,-15.5 513.28,-19.0001 513.28,-12.0001"/>
</g>
<!-- Node6 -->
<g id="node6" class="node"><title>Node6</title>
<g id="a_node6"><a xlink:href="main_8cxx.html#a3c04138a5bfe5d72780bb7e82a18e627" target="_top" xlink:title="main">
<polygon fill="none" stroke="black" points="667,-6 667,-25 708,-25 708,-6 667,-6"/>
<text text-anchor="middle" x="687.5" y="-13" font-family="Helvetica,sans-Serif" font-size="10.00">main</text>
</a>
</g>
</g>
<!-- Node5&#45;&gt;Node6 -->
<g id="edge5" class="edge"><title>Node5&#45;&gt;Node6</title>
<path fill="none" stroke="midnightblue" d="M641.539,-15.5C650.619,-15.5 659.466,-15.5 666.877,-15.5"/>
<polygon fill="midnightblue" stroke="midnightblue" points="641.252,-12.0001 631.252,-15.5 641.252,-19.0001 641.252,-12.0001"/>
</g>
</g>
</svg>
