<?xml version="1.0" encoding="UTF-8" standalone="no"?>
<!DOCTYPE svg PUBLIC "-//W3C//DTD SVG 1.1//EN"
 "http://www.w3.org/Graphics/SVG/1.1/DTD/svg11.dtd">
<!-- Generated by graphviz version 2.38.0 (20140413.2041)
 -->
<!-- Title: UIManager::setBuildMenuLayout Pages: 1 -->
<svg width="351pt" height="78pt"
 viewBox="0.00 0.00 351.00 77.50" xmlns="http://www.w3.org/2000/svg" xmlns:xlink="http://www.w3.org/1999/xlink">
<g id="graph0" class="graph" transform="scale(1 1) rotate(0) translate(4 73.5)">
<title>UIManager::setBuildMenuLayout</title>
<!-- Node1 -->
<g id="node1" class="node"><title>Node1</title>
<polygon fill="#bfbfbf" stroke="black" points="0,-28 0,-47 171,-47 171,-28 0,-28"/>
<text text-anchor="middle" x="85.5" y="-35" font-family="Helvetica,sans-Serif" font-size="10.00">UIManager::setBuildMenuLayout</text>
</g>
<!-- Node2 -->
<g id="node2" class="node"><title>Node2</title>
<g id="a_node2"><a xlink:href="namespaceutils_1_1strings.html#a1460a4e19b93604e32bb76f8407c4221" target="_top" xlink:title="checks if a string ends with a certain substring ">
<polygon fill="none" stroke="black" points="213,-50 213,-69 337,-69 337,-50 213,-50"/>
<text text-anchor="middle" x="275" y="-57" font-family="Helvetica,sans-Serif" font-size="10.00">utils::strings::endsWith</text>
</a>
</g>
</g>
<!-- Node1&#45;&gt;Node2 -->
<g id="edge1" class="edge"><title>Node1&#45;&gt;Node2</title>
<path fill="none" stroke="midnightblue" d="M167.65,-47.0216C179.362,-48.3958 191.341,-49.8013 202.838,-51.1504"/>
<polygon fill="midnightblue" stroke="midnightblue" points="202.459,-54.6298 212.799,-52.3191 203.275,-47.6775 202.459,-54.6298"/>
</g>
<!-- Node3 -->
<g id="node3" class="node"><title>Node3</title>
<g id="a_node3"><a xlink:href="namespaceutils_1_1strings.html#ab8a6e07e519cb0ee76d762fe635901c1" target="_top" xlink:title="Erase First Occurrence of given substring from main string. ">
<polygon fill="none" stroke="black" points="207,-0.5 207,-30.5 343,-30.5 343,-0.5 207,-0.5"/>
<text text-anchor="start" x="215" y="-18.5" font-family="Helvetica,sans-Serif" font-size="10.00">utils::strings::removeSub</text>
<text text-anchor="middle" x="275" y="-7.5" font-family="Helvetica,sans-Serif" font-size="10.00">String</text>
</a>
</g>
</g>
<!-- Node1&#45;&gt;Node3 -->
<g id="edge2" class="edge"><title>Node1&#45;&gt;Node3</title>
<path fill="none" stroke="midnightblue" d="M167.65,-27.9784C177.346,-26.8407 187.225,-25.6816 196.863,-24.5508"/>
<polygon fill="midnightblue" stroke="midnightblue" points="197.277,-28.0263 206.801,-23.3847 196.461,-21.074 197.277,-28.0263"/>
</g>
</g>
</svg>
