<?xml version="1.0" encoding="UTF-8" standalone="no"?>
<!DOCTYPE svg PUBLIC "-//W3C//DTD SVG 1.1//EN"
 "http://www.w3.org/Graphics/SVG/1.1/DTD/svg11.dtd">
<!-- Generated by graphviz version 2.38.0 (20140413.2041)
 -->
<!-- Title: Game::mainMenu Pages: 1 -->
<!--zoomable 631 -->
<svg id="main" version="1.1" xmlns="http://www.w3.org/2000/svg" xmlns:xlink="http://www.w3.org/1999/xlink" xml:space="preserve" onload="init(evt)">
<style type="text/css"><![CDATA[
.edge:hover path { stroke: red; }
.edge:hover polygon { stroke: red; fill: red; }
]]></style>
<script type="text/javascript"><![CDATA[
var edges = document.getElementsByTagName('g');
if (edges && edges.length) {
  for (var i=0;i<edges.length;i++) {
    if (edges[i].id.substr(0,4)=='edge') {
      edges[i].setAttribute('class','edge');
    }
  }
}
]]></script>
        <defs>
                <circle id="rim" cx="0" cy="0" r="7"/>
                <circle id="rim2" cx="0" cy="0" r="3.5"/>
                <g id="zoomPlus">
                        <use xlink:href="#rim" fill="#404040">
                                <set attributeName="fill" to="#808080" begin="zoomplus.mouseover" end="zoomplus.mouseout"/>
                        </use>
                        <path d="M-4,0h8M0,-4v8" fill="none" stroke="white" stroke-width="1.5" pointer-events="none"/>
                </g>
                <g id="zoomMin">
                        <use xlink:href="#rim" fill="#404040">
                                <set attributeName="fill" to="#808080" begin="zoomminus.mouseover" end="zoomminus.mouseout"/>
                        </use>
                        <path d="M-4,0h8" fill="none" stroke="white" stroke-width="1.5" pointer-events="none"/>
                </g>
                <g id="dirArrow">
                        <path fill="none" stroke="white" stroke-width="1.5" d="M0,-3.0v7 M-2.5,-0.5L0,-3.0L2.5,-0.5"/>
                </g>
               <g id="resetDef">
                       <use xlink:href="#rim2" fill="#404040">
                               <set attributeName="fill" to="#808080" begin="reset.mouseover" end="reset.mouseout"/>
                       </use>
               </g>
        </defs>

<script type="text/javascript">
var viewWidth = 1550;
var viewHeight = 631;
var sectionId = 'dynsection-3';
</script>
<script xlink:href="svgpan.js"/>
<svg id="graph" class="graph">
<g id="viewport">
<title>Game::mainMenu</title>
<!-- Node1 -->
<g id="node1" class="node"><title>Node1</title>
<polygon fill="#bfbfbf" stroke="black" points="0,-308 0,-327 102,-327 102,-308 0,-308"/>
<text text-anchor="middle" x="51" y="-315" font-family="Helvetica,sans-Serif" font-size="10.00">Game::mainMenu</text>
</g>
<!-- Node2 -->
<g id="node2" class="node"><title>Node2</title>
<g id="a_node2"><a xlink:href="classSingleton.html#af5cb1e5749949e2b68416cfb8d378044" target="_top" xlink:title="Get an instance of the singleton. ">
<polygon fill="none" stroke="black" points="1429,-510.5 1429,-540.5 1542,-540.5 1542,-510.5 1429,-510.5"/>
<text text-anchor="start" x="1437" y="-528.5" font-family="Helvetica,sans-Serif" font-size="10.00">Singleton&lt; Settings</text>
<text text-anchor="middle" x="1485.5" y="-517.5" font-family="Helvetica,sans-Serif" font-size="10.00"> &gt;::instance</text>
</a>
</g>
</g>
<!-- Node1&#45;&gt;Node2 -->
<g id="edge1" class="edge"><title>Node1&#45;&gt;Node2</title>
<path fill="none" stroke="midnightblue" d="M55.7889,-327.371C63.7963,-356.724 86.1477,-433.896 138,-470.5 246.131,-546.832 301.141,-507.5 433.5,-507.5 433.5,-507.5 433.5,-507.5 1134.5,-507.5 1233.54,-507.5 1348.33,-507.5 1418.68,-512.145"/>
<polygon fill="midnightblue" stroke="midnightblue" points="1418.51,-515.641 1428.73,-512.865 1419.01,-508.659 1418.51,-515.641"/>
</g>
<!-- Node1&#45;&gt;Node2 -->
<g id="edge16" class="edge"><title>Node1&#45;&gt;Node2</title>
<path fill="none" stroke="midnightblue" d="M53.6477,-327.318C59.238,-357.264 80.4466,-447.872 138,-488.5 246.131,-564.832 301.141,-525.5 433.5,-525.5 433.5,-525.5 433.5,-525.5 1134.5,-525.5 1233.54,-525.5 1348.33,-525.5 1418.68,-525.5"/>
<polygon fill="midnightblue" stroke="midnightblue" points="1418.73,-529 1428.73,-525.5 1418.73,-522 1418.73,-529"/>
</g>
<!-- Node1&#45;&gt;Node2 -->
<g id="edge46" class="edge"><title>Node1&#45;&gt;Node2</title>
<path fill="none" stroke="midnightblue" d="M52.6883,-327.362C56.4187,-362.192 76.3745,-462.997 138,-506.5 246.131,-582.832 301.141,-543.5 433.5,-543.5 433.5,-543.5 433.5,-543.5 1134.5,-543.5 1233.54,-543.5 1348.33,-543.5 1418.68,-538.855"/>
<polygon fill="midnightblue" stroke="midnightblue" points="1419.01,-542.341 1428.73,-538.135 1418.51,-535.359 1419.01,-542.341"/>
</g>
<!-- Node3 -->
<g id="node3" class="node"><title>Node3</title>
<g id="a_node3"><a xlink:href="classUIElement.html#a452ffed1ff191ababc8c15d4c455f6c2" target="_top" xlink:title="Set the uiElements sprite ID Set the sprite ID this ui element. The texture will be retrieved from th...">
<polygon fill="none" stroke="black" points="151.5,-308 151.5,-327 282.5,-327 282.5,-308 151.5,-308"/>
<text text-anchor="middle" x="217" y="-315" font-family="Helvetica,sans-Serif" font-size="10.00">UIElement::setTextureID</text>
</a>
</g>
</g>
<!-- Node1&#45;&gt;Node3 -->
<g id="edge2" class="edge"><title>Node1&#45;&gt;Node3</title>
<path fill="none" stroke="midnightblue" d="M102.097,-317.5C114.482,-317.5 128.018,-317.5 141.297,-317.5"/>
<polygon fill="midnightblue" stroke="midnightblue" points="141.378,-321 151.378,-317.5 141.378,-314 141.378,-321"/>
</g>
<!-- Node5 -->
<g id="node5" class="node"><title>Node5</title>
<g id="a_node5"><a xlink:href="classUIElement.html#a440d645aa10dbf7d3c763ba6e1fc33a6" target="_top" xlink:title="Sets the UI Elements visibility. Set the UI Elements visibility. ">
<polygon fill="none" stroke="black" points="154.5,-460 154.5,-479 279.5,-479 279.5,-460 154.5,-460"/>
<text text-anchor="middle" x="217" y="-467" font-family="Helvetica,sans-Serif" font-size="10.00">UIElement::setVisibility</text>
</a>
</g>
</g>
<!-- Node1&#45;&gt;Node5 -->
<g id="edge5" class="edge"><title>Node1&#45;&gt;Node5</title>
<path fill="none" stroke="midnightblue" d="M55.4089,-327.344C64.5454,-352.203 92.053,-417.846 138,-450.5 140.727,-452.438 143.627,-454.179 146.646,-455.744"/>
<polygon fill="midnightblue" stroke="midnightblue" points="145.441,-459.039 155.998,-459.929 148.3,-452.65 145.441,-459.039"/>
</g>
<!-- Node6 -->
<g id="node6" class="node"><title>Node6</title>
<g id="a_node6"><a xlink:href="classUIElement.html#a4c86f107c0e436dbeea3a899fc42fa48" target="_top" xlink:title="Sets the x,y position of this ui element Sets the x,y position of the ui element. ...">
<polygon fill="none" stroke="black" points="154.5,-422 154.5,-441 279.5,-441 279.5,-422 154.5,-422"/>
<text text-anchor="middle" x="217" y="-429" font-family="Helvetica,sans-Serif" font-size="10.00">UIElement::setPosition</text>
</a>
</g>
</g>
<!-- Node1&#45;&gt;Node6 -->
<g id="edge6" class="edge"><title>Node1&#45;&gt;Node6</title>
<path fill="none" stroke="midnightblue" d="M57.7836,-327.033C70.0257,-346.356 100.533,-390.193 138,-412.5 141.638,-414.666 145.51,-416.585 149.511,-418.286"/>
<polygon fill="midnightblue" stroke="midnightblue" points="148.435,-421.621 159.027,-421.871 150.903,-415.07 148.435,-421.621"/>
</g>
<!-- Node7 -->
<g id="node7" class="node"><title>Node7</title>
<g id="a_node7"><a xlink:href="classUIElement.html#a63a26f6f553d4e5d6ce3c3050b39453d" target="_top" xlink:title="Get the position and the size of this ui element Gets the position and the size of this ui element...">
<polygon fill="none" stroke="black" points="138,-384 138,-403 296,-403 296,-384 138,-384"/>
<text text-anchor="middle" x="217" y="-391" font-family="Helvetica,sans-Serif" font-size="10.00">UIElement::getUiElementRect</text>
</a>
</g>
</g>
<!-- Node1&#45;&gt;Node7 -->
<g id="edge7" class="edge"><title>Node1&#45;&gt;Node7</title>
<path fill="none" stroke="midnightblue" d="M65.4309,-327.057C81.8888,-338.422 110.931,-357.374 138,-369.5 147.701,-373.846 158.414,-377.705 168.715,-380.991"/>
<polygon fill="midnightblue" stroke="midnightblue" points="167.83,-384.38 178.417,-383.962 169.88,-377.687 167.83,-384.38"/>
</g>
<!-- Node9 -->
<g id="node9" class="node"><title>Node9</title>
<g id="a_node9"><a xlink:href="classUIElement.html#a570841bf8b7970ca935b1a00e571036a" target="_top" xlink:title="Handling for the hovering event Check, if the mouse cursor is hovering over the element. virtual function to provide custom handling if necessary (e.g. Combobox) Per default, it&#39;s the same implementation as isMouseOver. ">
<polygon fill="none" stroke="black" points="332,-384 332,-403 537,-403 537,-384 332,-384"/>
<text text-anchor="middle" x="434.5" y="-391" font-family="Helvetica,sans-Serif" font-size="10.00">UIElement::isMouseOverHoverableArea</text>
</a>
</g>
</g>
<!-- Node1&#45;&gt;Node9 -->
<g id="edge47" class="edge"><title>Node1&#45;&gt;Node9</title>
<path fill="none" stroke="midnightblue" d="M94.3867,-327.076C108.27,-330.156 123.779,-333.537 138,-336.5 218.506,-353.275 311.719,-370.969 371.582,-382.111"/>
<polygon fill="midnightblue" stroke="midnightblue" points="371.157,-385.592 381.628,-383.978 372.436,-378.71 371.157,-385.592"/>
</g>
<!-- Node10 -->
<g id="node10" class="node"><title>Node10</title>
<g id="a_node10"><a xlink:href="classText.html#a14b9f0937696af5fd95317eb8313bf92" target="_top" xlink:title="sets the text for this text widget. ">
<polygon fill="none" stroke="black" points="596.5,-572 596.5,-591 671.5,-591 671.5,-572 596.5,-572"/>
<text text-anchor="middle" x="634" y="-579" font-family="Helvetica,sans-Serif" font-size="10.00">Text::setText</text>
</a>
</g>
</g>
<!-- Node1&#45;&gt;Node10 -->
<g id="edge10" class="edge"><title>Node1&#45;&gt;Node10</title>
<path fill="none" stroke="midnightblue" d="M51.9853,-327.218C52.5142,-364.568 59.9341,-499.669 138,-557.5 275.606,-659.437 498.462,-617.371 590.823,-593.604"/>
<polygon fill="midnightblue" stroke="midnightblue" points="591.87,-596.948 600.649,-591.017 590.087,-590.179 591.87,-596.948"/>
</g>
<!-- Node12 -->
<g id="node12" class="node"><title>Node12</title>
<g id="a_node12"><a xlink:href="classButton.html#ac6a233c876164a52d54ef7f1b3fb78d1" target="_top" xlink:title="Sets the button&#39;s text sets the button&#39;s text to the string passed as an argument. ">
<polygon fill="none" stroke="black" points="172.5,-232 172.5,-251 261.5,-251 261.5,-232 172.5,-232"/>
<text text-anchor="middle" x="217" y="-239" font-family="Helvetica,sans-Serif" font-size="10.00">Button::setText</text>
</a>
</g>
</g>
<!-- Node1&#45;&gt;Node12 -->
<g id="edge14" class="edge"><title>Node1&#45;&gt;Node12</title>
<path fill="none" stroke="midnightblue" d="M65.4309,-307.943C81.8888,-296.578 110.931,-277.626 138,-265.5 147.701,-261.154 158.414,-257.295 168.715,-254.009"/>
<polygon fill="midnightblue" stroke="midnightblue" points="169.88,-257.313 178.417,-251.038 167.83,-250.62 169.88,-257.313"/>
</g>
<!-- Node14 -->
<g id="node14" class="node"><title>Node14</title>
<g id="a_node14"><a xlink:href="classEngine.html#a260d4834150eae6eec2bde34df6dc827" target="_top" xlink:title="Creates a new game Creates a new game. ">
<polygon fill="none" stroke="black" points="582.5,-270 582.5,-289 685.5,-289 685.5,-270 582.5,-270"/>
<text text-anchor="middle" x="634" y="-277" font-family="Helvetica,sans-Serif" font-size="10.00">Engine::newGame</text>
</a>
</g>
</g>
<!-- Node1&#45;&gt;Node14 -->
<g id="edge17" class="edge"><title>Node1&#45;&gt;Node14</title>
<path fill="none" stroke="midnightblue" d="M88.5732,-307.904C103.756,-304.317 121.621,-300.606 138,-298.5 293.389,-278.517 478.286,-277.352 572.008,-278.343"/>
<polygon fill="midnightblue" stroke="midnightblue" points="572.117,-281.845 582.158,-278.463 572.2,-274.845 572.117,-281.845"/>
</g>
<!-- Node27 -->
<g id="node27" class="node"><title>Node27</title>
<g id="a_node27"><a xlink:href="classEngine.html#a83b7dbeee899b36a13d5b07c7ad87ebc" target="_top" xlink:title="Loads a saved game Loads a saved Game. ">
<polygon fill="none" stroke="black" points="382.5,-172 382.5,-191 486.5,-191 486.5,-172 382.5,-172"/>
<text text-anchor="middle" x="434.5" y="-179" font-family="Helvetica,sans-Serif" font-size="10.00">Engine::loadGame</text>
</a>
</g>
</g>
<!-- Node1&#45;&gt;Node27 -->
<g id="edge37" class="edge"><title>Node1&#45;&gt;Node27</title>
<path fill="none" stroke="midnightblue" d="M54.7665,-307.766C62.6858,-281.971 88.1443,-211.962 138,-184.5 217.439,-140.743 328.07,-155.986 388.937,-169.611"/>
<polygon fill="midnightblue" stroke="midnightblue" points="388.452,-173.092 398.985,-171.948 390.038,-166.274 388.452,-173.092"/>
</g>
<!-- Node31 -->
<g id="node31" class="node"><title>Node31</title>
<g id="a_node31"><a xlink:href="classEngine.html#a0ba57971ffb5173ecc425461f65a4cd8" target="_top" xlink:title="Quits the game Sets m_running to false and quitting the game. ">
<polygon fill="none" stroke="black" points="166,-194 166,-213 268,-213 268,-194 166,-194"/>
<text text-anchor="middle" x="217" y="-201" font-family="Helvetica,sans-Serif" font-size="10.00">Engine::quitGame</text>
</a>
</g>
</g>
<!-- Node1&#45;&gt;Node31 -->
<g id="edge43" class="edge"><title>Node1&#45;&gt;Node31</title>
<path fill="none" stroke="midnightblue" d="M57.7836,-307.967C70.0257,-288.644 100.533,-244.807 138,-222.5 143.58,-219.178 149.713,-216.436 156.012,-214.172"/>
<polygon fill="midnightblue" stroke="midnightblue" points="157.525,-217.364 165.993,-210.995 155.402,-210.693 157.525,-217.364"/>
</g>
<!-- Node32 -->
<g id="node32" class="node"><title>Node32</title>
<g id="a_node32"><a xlink:href="classImage.html#aea00862523c7a5c9551655f2660d91a8" target="_top" xlink:title="sets the opacity of the image ">
<polygon fill="none" stroke="black" points="165,-118 165,-137 269,-137 269,-118 165,-118"/>
<text text-anchor="middle" x="217" y="-125" font-family="Helvetica,sans-Serif" font-size="10.00">Image::setOpacity</text>
</a>
</g>
</g>
<!-- Node1&#45;&gt;Node32 -->
<g id="edge45" class="edge"><title>Node1&#45;&gt;Node32</title>
<path fill="none" stroke="midnightblue" d="M54.1645,-307.984C61.0948,-279.7 85.4282,-195.391 138,-151.5 143.188,-147.168 149.151,-143.618 155.42,-140.708"/>
<polygon fill="midnightblue" stroke="midnightblue" points="156.837,-143.909 164.769,-136.885 154.188,-137.43 156.837,-143.909"/>
</g>
<!-- Node33 -->
<g id="node33" class="node"><title>Node33</title>
<g id="a_node33"><a xlink:href="classUIElement.html#a43b9f5f4be71c672ca8ed528fce1dfc5" target="_top" xlink:title="UIElement::onMouseLeave">
<polygon fill="none" stroke="black" points="145,-80 145,-99 289,-99 289,-80 145,-80"/>
<text text-anchor="middle" x="217" y="-87" font-family="Helvetica,sans-Serif" font-size="10.00">UIElement::onMouseLeave</text>
</a>
</g>
</g>
<!-- Node1&#45;&gt;Node33 -->
<g id="edge48" class="edge"><title>Node1&#45;&gt;Node33</title>
<path fill="none" stroke="midnightblue" d="M52.934,-307.832C56.685,-274.547 73.7107,-163.723 138,-108.5 139.804,-106.95 141.714,-105.523 143.708,-104.208"/>
<polygon fill="midnightblue" stroke="midnightblue" points="145.846,-107.026 152.919,-99.1374 142.47,-100.894 145.846,-107.026"/>
</g>
<!-- Node34 -->
<g id="node34" class="node"><title>Node34</title>
<g id="a_node34"><a xlink:href="classUIElement.html#a8e089719777f393d720e3cb1708f8070" target="_top" xlink:title="UIElement::onMouseMove">
<polygon fill="none" stroke="black" points="146.5,-42 146.5,-61 287.5,-61 287.5,-42 146.5,-42"/>
<text text-anchor="middle" x="217" y="-49" font-family="Helvetica,sans-Serif" font-size="10.00">UIElement::onMouseMove</text>
</a>
</g>
</g>
<!-- Node1&#45;&gt;Node34 -->
<g id="edge49" class="edge"><title>Node1&#45;&gt;Node34</title>
<path fill="none" stroke="midnightblue" d="M52.2467,-307.955C53.7363,-271.196 64.2198,-137.509 138,-70.5 139.719,-68.9392 141.544,-67.5011 143.454,-66.1763"/>
<polygon fill="midnightblue" stroke="midnightblue" points="145.4,-69.0942 152.312,-61.0645 141.902,-63.0312 145.4,-69.0942"/>
</g>
<!-- Node35 -->
<g id="node35" class="node"><title>Node35</title>
<g id="a_node35"><a xlink:href="classUIElement.html#aaf7e8be5b7a5668c0b8aab27d01d6a30" target="_top" xlink:title="UIElement::onMouseEnter">
<polygon fill="none" stroke="black" points="146.5,-4 146.5,-23 287.5,-23 287.5,-4 146.5,-4"/>
<text text-anchor="middle" x="217" y="-11" font-family="Helvetica,sans-Serif" font-size="10.00">UIElement::onMouseEnter</text>
</a>
</g>
</g>
<!-- Node1&#45;&gt;Node35 -->
<g id="edge50" class="edge"><title>Node1&#45;&gt;Node35</title>
<path fill="none" stroke="midnightblue" d="M51.7401,-307.929C51.2012,-267.783 54.7038,-111.405 138,-32.5 139.518,-31.0622 141.125,-29.7277 142.807,-28.4893"/>
<polygon fill="midnightblue" stroke="midnightblue" points="145.022,-31.2397 151.762,-23.0648 141.395,-25.2525 145.022,-31.2397"/>
</g>
<!-- Node3&#45;&gt;Node2 -->
<g id="edge3" class="edge"><title>Node3&#45;&gt;Node2</title>
<path fill="none" stroke="midnightblue" d="M282.695,-317.5C364.337,-317.5 509.076,-317.5 633,-317.5 633,-317.5 633,-317.5 1134.5,-317.5 1278.04,-317.5 1414.09,-448.387 1464.21,-502.506"/>
<polygon fill="midnightblue" stroke="midnightblue" points="1461.91,-505.179 1471.24,-510.205 1467.08,-500.46 1461.91,-505.179"/>
</g>
<!-- Node4 -->
<g id="node4" class="node"><title>Node4</title>
<g id="a_node4"><a xlink:href="classResourcesManager.html#aae2a2032792aaa57862eb9c494ae1cf2" target="_top" xlink:title="ResourcesManager::getUITexture">
<polygon fill="none" stroke="black" points="348,-346 348,-365 521,-365 521,-346 348,-346"/>
<text text-anchor="middle" x="434.5" y="-353" font-family="Helvetica,sans-Serif" font-size="10.00">ResourcesManager::getUITexture</text>
</a>
</g>
</g>
<!-- Node3&#45;&gt;Node4 -->
<g id="edge4" class="edge"><title>Node3&#45;&gt;Node4</title>
<path fill="none" stroke="midnightblue" d="M272.102,-327.04C301.562,-332.235 338.205,-338.696 369.127,-344.149"/>
<polygon fill="midnightblue" stroke="midnightblue" points="368.92,-347.666 379.376,-345.956 370.136,-340.773 368.92,-347.666"/>
</g>
<!-- Node8 -->
<g id="node8" class="node"><title>Node8</title>
<g id="a_node8"><a xlink:href="classUIElement.html#aa7f624963eaeb31043d74219ee24386c" target="_top" xlink:title="Checks if the mouse cursor is over the current UI Element Check if the coordinates match the ones sto...">
<polygon fill="none" stroke="black" points="367.5,-422 367.5,-441 501.5,-441 501.5,-422 367.5,-422"/>
<text text-anchor="middle" x="434.5" y="-429" font-family="Helvetica,sans-Serif" font-size="10.00">UIElement::isMouseOver</text>
</a>
</g>
</g>
<!-- Node7&#45;&gt;Node8 -->
<g id="edge8" class="edge"><title>Node7&#45;&gt;Node8</title>
<path fill="none" stroke="midnightblue" d="M272.102,-403.04C301.562,-408.235 338.205,-414.696 369.127,-420.149"/>
<polygon fill="midnightblue" stroke="midnightblue" points="368.92,-423.666 379.376,-421.956 370.136,-416.773 368.92,-423.666"/>
</g>
<!-- Node7&#45;&gt;Node9 -->
<g id="edge9" class="edge"><title>Node7&#45;&gt;Node9</title>
<path fill="none" stroke="midnightblue" d="M296.105,-393.5C304.416,-393.5 312.983,-393.5 321.585,-393.5"/>
<polygon fill="midnightblue" stroke="midnightblue" points="321.686,-397 331.686,-393.5 321.686,-390 321.686,-397"/>
</g>
<!-- Node11 -->
<g id="node11" class="node"><title>Node11</title>
<g id="a_node11"><a xlink:href="classText.html#a3bf5a064fd37d06b8d3dc5a700556897" target="_top" xlink:title="Draws a text string to the screen Draws a text string to the screen. This could either be a standalon...">
<polygon fill="none" stroke="black" points="1259,-572 1259,-591 1384,-591 1384,-572 1259,-572"/>
<text text-anchor="middle" x="1321.5" y="-579" font-family="Helvetica,sans-Serif" font-size="10.00">Text::createTextTexture</text>
</a>
</g>
</g>
<!-- Node10&#45;&gt;Node11 -->
<g id="edge11" class="edge"><title>Node10&#45;&gt;Node11</title>
<path fill="none" stroke="midnightblue" d="M671.855,-581.5C780.962,-581.5 1103.73,-581.5 1248.64,-581.5"/>
<polygon fill="midnightblue" stroke="midnightblue" points="1248.77,-585 1258.77,-581.5 1248.77,-578 1248.77,-585"/>
</g>
<!-- Node11&#45;&gt;Node2 -->
<g id="edge12" class="edge"><title>Node11&#45;&gt;Node2</title>
<path fill="none" stroke="midnightblue" d="M1333.02,-571.775C1346.81,-564.289 1371.73,-555.838 1393,-548.5 1401.53,-545.557 1410.5,-542.443 1419.35,-539.442"/>
<polygon fill="midnightblue" stroke="midnightblue" points="1420.51,-542.743 1428.88,-536.243 1418.29,-536.107 1420.51,-542.743"/>
</g>
<!-- Node11&#45;&gt;Node2 -->
<g id="edge13" class="edge"><title>Node11&#45;&gt;Node2</title>
<path fill="none" stroke="midnightblue" d="M1377.17,-571.9C1382.52,-570.107 1387.87,-568.271 1393,-566.5 1413,-559.599 1435.42,-551.758 1453.07,-544.5"/>
<polygon fill="midnightblue" stroke="midnightblue" points="1454.51,-547.688 1462.33,-540.537 1451.76,-541.252 1454.51,-547.688"/>
</g>
<!-- Node13 -->
<g id="node13" class="node"><title>Node13</title>
<g id="a_node13"><a xlink:href="classButton.html#a6f662503946446d0e28b3d05f175fd1a" target="_top" xlink:title="Button::centerTextLabel">
<polygon fill="none" stroke="black" points="369.5,-232 369.5,-251 499.5,-251 499.5,-232 369.5,-232"/>
<text text-anchor="middle" x="434.5" y="-239" font-family="Helvetica,sans-Serif" font-size="10.00">Button::centerTextLabel</text>
</a>
</g>
</g>
<!-- Node12&#45;&gt;Node13 -->
<g id="edge15" class="edge"><title>Node12&#45;&gt;Node13</title>
<path fill="none" stroke="midnightblue" d="M261.61,-241.5C289.465,-241.5 326.312,-241.5 358.745,-241.5"/>
<polygon fill="midnightblue" stroke="midnightblue" points="359.103,-245 369.103,-241.5 359.103,-238 359.103,-245"/>
</g>
<!-- Node14&#45;&gt;Node2 -->
<g id="edge18" class="edge"><title>Node14&#45;&gt;Node2</title>
<path fill="none" stroke="midnightblue" d="M685.686,-279.5C746.727,-279.5 852.365,-279.5 943,-279.5 943,-279.5 943,-279.5 1134.5,-279.5 1249.88,-279.5 1300.19,-234.945 1393,-303.5 1457.7,-351.295 1476.85,-453.174 1482.36,-500.445"/>
<polygon fill="midnightblue" stroke="midnightblue" points="1478.88,-500.868 1483.41,-510.446 1485.84,-500.135 1478.88,-500.868"/>
</g>
<!-- Node15 -->
<g id="node15" class="node"><title>Node15</title>
<g id="a_node15"><a xlink:href="classMap.html#a482ac34426e8aa66abb46f60ec329402" target="_top" xlink:title="Initialize the Map with node objects Initialize the Map with node objects. ">
<polygon fill="none" stroke="black" points="744.5,-226 744.5,-245 821.5,-245 821.5,-226 744.5,-226"/>
<text text-anchor="middle" x="783" y="-233" font-family="Helvetica,sans-Serif" font-size="10.00">Map::initMap</text>
</a>
</g>
</g>
<!-- Node14&#45;&gt;Node15 -->
<g id="edge19" class="edge"><title>Node14&#45;&gt;Node15</title>
<path fill="none" stroke="midnightblue" d="M666.897,-269.953C688.472,-263.495 717.177,-254.903 740.524,-247.915"/>
<polygon fill="midnightblue" stroke="midnightblue" points="741.589,-251.249 750.165,-245.029 739.582,-244.543 741.589,-251.249"/>
</g>
<!-- Node16 -->
<g id="node16" class="node"><title>Node16</title>
<g id="a_node16"><a xlink:href="classMapLayers.html#a54ce1eeef2a8998a728ac7074efe8787" target="_top" xlink:title="Enable Drawing Layer Enable Drawing Layer (use bitwise OR to add layer) ">
<polygon fill="none" stroke="black" points="877.5,-182 877.5,-201 1010.5,-201 1010.5,-182 877.5,-182"/>
<text text-anchor="middle" x="944" y="-189" font-family="Helvetica,sans-Serif" font-size="10.00">MapLayers::enableLayer</text>
</a>
</g>
</g>
<!-- Node15&#45;&gt;Node16 -->
<g id="edge20" class="edge"><title>Node15&#45;&gt;Node16</title>
<path fill="none" stroke="midnightblue" d="M818.501,-225.953C842.045,-219.437 873.441,-210.749 898.813,-203.728"/>
<polygon fill="midnightblue" stroke="midnightblue" points="899.862,-207.069 908.567,-201.029 897.995,-200.323 899.862,-207.069"/>
</g>
<!-- Node17 -->
<g id="node17" class="node"><title>Node17</title>
<g id="a_node17"><a xlink:href="classTerrainGenerator.html#adcc251757a1f3a06471a49f17886b8ce" target="_top" xlink:title="TerrainGenerator::generate\lTerrain">
<polygon fill="none" stroke="black" points="871,-220.5 871,-250.5 1017,-250.5 1017,-220.5 871,-220.5"/>
<text text-anchor="start" x="879" y="-238.5" font-family="Helvetica,sans-Serif" font-size="10.00">TerrainGenerator::generate</text>
<text text-anchor="middle" x="944" y="-227.5" font-family="Helvetica,sans-Serif" font-size="10.00">Terrain</text>
</a>
</g>
</g>
<!-- Node15&#45;&gt;Node17 -->
<g id="edge21" class="edge"><title>Node15&#45;&gt;Node17</title>
<path fill="none" stroke="midnightblue" d="M821.681,-235.5C833.578,-235.5 847.222,-235.5 860.968,-235.5"/>
<polygon fill="midnightblue" stroke="midnightblue" points="860.971,-239 870.971,-235.5 860.971,-232 860.971,-239"/>
</g>
<!-- Node19 -->
<g id="node19" class="node"><title>Node19</title>
<g id="a_node19"><a xlink:href="classMap.html#a481b37ba71ef0e51e836fc42805762dd" target="_top" xlink:title="Update all mapNodes Updates all mapNode and its adjacent tiles regarding height information, draws slopes for adjacent tiles and sets tiling for mapNode sprite if applicable. ">
<polygon fill="none" stroke="black" points="884.5,-144 884.5,-163 1003.5,-163 1003.5,-144 884.5,-144"/>
<text text-anchor="middle" x="944" y="-151" font-family="Helvetica,sans-Serif" font-size="10.00">Map::updateAllNodes</text>
</a>
</g>
</g>
<!-- Node15&#45;&gt;Node19 -->
<g id="edge23" class="edge"><title>Node15&#45;&gt;Node19</title>
<path fill="none" stroke="midnightblue" d="M817.394,-225.968C823.548,-223.421 829.697,-220.293 835,-216.5 855.552,-201.802 849.749,-186.168 871,-172.5 874.177,-170.457 877.567,-168.632 881.079,-167.004"/>
<polygon fill="midnightblue" stroke="midnightblue" points="882.656,-170.141 890.602,-163.133 880.02,-163.656 882.656,-170.141"/>
</g>
<!-- Node18 -->
<g id="node18" class="node"><title>Node18</title>
<g id="a_node18"><a xlink:href="classTerrainGenerator.html#ac94cfaeb9dc89453018399361da5174a" target="_top" xlink:title="TerrainGenerator::loadTerrain\lDataFromJSON">
<polygon fill="none" stroke="black" points="1056,-220.5 1056,-250.5 1211,-250.5 1211,-220.5 1056,-220.5"/>
<text text-anchor="start" x="1064" y="-238.5" font-family="Helvetica,sans-Serif" font-size="10.00">TerrainGenerator::loadTerrain</text>
<text text-anchor="middle" x="1133.5" y="-227.5" font-family="Helvetica,sans-Serif" font-size="10.00">DataFromJSON</text>
</a>
</g>
</g>
<!-- Node17&#45;&gt;Node18 -->
<g id="edge22" class="edge"><title>Node17&#45;&gt;Node18</title>
<path fill="none" stroke="midnightblue" d="M1017.22,-235.5C1026.54,-235.5 1036.16,-235.5 1045.68,-235.5"/>
<polygon fill="midnightblue" stroke="midnightblue" points="1045.96,-239 1055.96,-235.5 1045.96,-232 1045.96,-239"/>
</g>
<!-- Node20 -->
<g id="node20" class="node"><title>Node20</title>
<g id="a_node20"><a xlink:href="classMap.html#a59d21f2688713fbcfe320eb1b24405ca" target="_top" xlink:title="Update mapNode and its adjacent tiles Updates mapNode height information, draws slopes for adjacent t...">
<polygon fill="none" stroke="black" points="1053,-144 1053,-163 1214,-163 1214,-144 1053,-144"/>
<text text-anchor="middle" x="1133.5" y="-151" font-family="Helvetica,sans-Serif" font-size="10.00">Map::updateNeighborsOfNode</text>
</a>
</g>
</g>
<!-- Node19&#45;&gt;Node20 -->
<g id="edge24" class="edge"><title>Node19&#45;&gt;Node20</title>
<path fill="none" stroke="midnightblue" d="M1003.55,-153.5C1015.97,-153.5 1029.35,-153.5 1042.62,-153.5"/>
<polygon fill="midnightblue" stroke="midnightblue" points="1042.74,-157 1052.74,-153.5 1042.74,-150 1042.74,-157"/>
</g>
<!-- Node21 -->
<g id="node21" class="node"><title>Node21</title>
<g id="a_node21"><a xlink:href="classMap.html#a63f0e5040c86652c7239475f8ff3a45a" target="_top" xlink:title="Get neighbor MapNode Objects Stores pointers to the neighboring nodes of the given coordinates in the...">
<polygon fill="none" stroke="black" points="1268,-50 1268,-69 1375,-69 1375,-50 1268,-50"/>
<text text-anchor="middle" x="1321.5" y="-57" font-family="Helvetica,sans-Serif" font-size="10.00">Map::getNeighbors</text>
</a>
</g>
</g>
<!-- Node20&#45;&gt;Node21 -->
<g id="edge25" class="edge"><title>Node20&#45;&gt;Node21</title>
<path fill="none" stroke="midnightblue" d="M1148.18,-143.857C1169.26,-129.31 1211.33,-101.541 1250,-83.5 1258.87,-79.362 1268.66,-75.5726 1278.05,-72.2875"/>
<polygon fill="midnightblue" stroke="midnightblue" points="1279.28,-75.567 1287.63,-69.0532 1277.04,-68.9345 1279.28,-75.567"/>
</g>
<!-- Node22 -->
<g id="node22" class="node"><title>Node22</title>
<g id="a_node22"><a xlink:href="classMap.html#a0ff55eb041cdf29aa582a21145319ce0" target="_top" xlink:title="Get elevated neighbor positions in a bitmask Checks all neighboring tiles and returns the elevated ne...">
<polygon fill="none" stroke="black" points="1250,-0.5 1250,-30.5 1393,-30.5 1393,-0.5 1250,-0.5"/>
<text text-anchor="start" x="1258" y="-18.5" font-family="Helvetica,sans-Serif" font-size="10.00">Map::getElevatedNeighbor</text>
<text text-anchor="middle" x="1321.5" y="-7.5" font-family="Helvetica,sans-Serif" font-size="10.00">Bitmask</text>
</a>
</g>
</g>
<!-- Node20&#45;&gt;Node22 -->
<g id="edge26" class="edge"><title>Node20&#45;&gt;Node22</title>
<path fill="none" stroke="midnightblue" d="M1141.83,-143.906C1158.68,-122.459 1202.39,-70.189 1250,-40.5 1253.31,-38.4331 1256.82,-36.5067 1260.43,-34.7164"/>
<polygon fill="midnightblue" stroke="midnightblue" points="1261.93,-37.8815 1269.57,-30.544 1259.02,-31.5139 1261.93,-37.8815"/>
</g>
<!-- Node23 -->
<g id="node23" class="node"><title>Node23</title>
<g id="a_node23"><a xlink:href="classMap.html#a05e7d896dc5062af07c9b838600a068d" target="_top" xlink:title="Demolish a node Invokes the tiles demolish function. ">
<polygon fill="none" stroke="black" points="1429.5,-121 1429.5,-140 1541.5,-140 1541.5,-121 1429.5,-121"/>
<text text-anchor="middle" x="1485.5" y="-128" font-family="Helvetica,sans-Serif" font-size="10.00">Map::demolishNode</text>
</a>
</g>
</g>
<!-- Node20&#45;&gt;Node23 -->
<g id="edge27" class="edge"><title>Node20&#45;&gt;Node23</title>
<path fill="none" stroke="midnightblue" d="M1150.85,-143.96C1173.15,-136.491 1214.38,-128.716 1250,-125.5 1307.05,-120.349 1372.21,-119.651 1419.34,-121.561"/>
<polygon fill="midnightblue" stroke="midnightblue" points="1419.27,-125.061 1429.42,-122.023 1419.59,-118.069 1419.27,-125.061"/>
</g>
<!-- Node24 -->
<g id="node24" class="node"><title>Node24</title>
<g id="a_node24"><a xlink:href="classMap.html#a392940f84796653b8e811ed8dc296c84" target="_top" xlink:title="Get a bitmask that represents same&#45;tile neighbors Checks all neighboring tiles and returns the elevat...">
<polygon fill="none" stroke="black" points="1253,-182.5 1253,-212.5 1390,-212.5 1390,-182.5 1253,-182.5"/>
<text text-anchor="start" x="1261" y="-200.5" font-family="Helvetica,sans-Serif" font-size="10.00">Map::getNeighboringTiles</text>
<text text-anchor="middle" x="1321.5" y="-189.5" font-family="Helvetica,sans-Serif" font-size="10.00">Bitmask</text>
</a>
</g>
</g>
<!-- Node20&#45;&gt;Node24 -->
<g id="edge29" class="edge"><title>Node20&#45;&gt;Node24</title>
<path fill="none" stroke="midnightblue" d="M1174.86,-163.047C1195.89,-168.023 1222.29,-174.267 1246.81,-180.067"/>
<polygon fill="midnightblue" stroke="midnightblue" points="1246.28,-183.539 1256.81,-182.435 1247.89,-176.727 1246.28,-183.539"/>
</g>
<!-- Node25 -->
<g id="node25" class="node"><title>Node25</title>
<g id="a_node25"><a xlink:href="classMap.html#aba5154a4d917900679a3c0f7ec701561" target="_top" xlink:title="Increase Height Increases the height of the node and checks the surrounding tiles. Either draw a slope sprite or elevate the tile if necessary. ">
<polygon fill="none" stroke="black" points="1264,-232 1264,-251 1379,-251 1379,-232 1264,-232"/>
<text text-anchor="middle" x="1321.5" y="-239" font-family="Helvetica,sans-Serif" font-size="10.00">Map::increaseHeight</text>
</a>
</g>
</g>
<!-- Node20&#45;&gt;Node25 -->
<g id="edge30" class="edge"><title>Node20&#45;&gt;Node25</title>
<path fill="none" stroke="midnightblue" d="M1157.81,-163.132C1180.44,-176.48 1216.24,-199.19 1250,-213.5 1264.79,-219.768 1282.21,-224.485 1296.03,-228.743"/>
<polygon fill="midnightblue" stroke="midnightblue" points="1295.21,-232.155 1305.8,-231.928 1297.38,-225.5 1295.21,-232.155"/>
</g>
<!-- Node26 -->
<g id="node26" class="node"><title>Node26</title>
<g id="a_node26"><a xlink:href="classMap.html#afb8cc864df90d273a5074872d635dc40" target="_top" xlink:title="Decrease Height Decreases the height of the node and checks the surrounding tiles. Either draw a slope sprite or lower the tile if necessary. ">
<polygon fill="none" stroke="black" points="1262,-144 1262,-163 1381,-163 1381,-144 1262,-144"/>
<text text-anchor="middle" x="1321.5" y="-151" font-family="Helvetica,sans-Serif" font-size="10.00">Map::decreaseHeight</text>
</a>
</g>
</g>
<!-- Node20&#45;&gt;Node26 -->
<g id="edge34" class="edge"><title>Node20&#45;&gt;Node26</title>
<path fill="none" stroke="midnightblue" d="M1214.19,-146.812C1226.67,-146.695 1239.47,-146.744 1251.68,-146.957"/>
<polygon fill="midnightblue" stroke="midnightblue" points="1251.7,-150.458 1261.78,-147.175 1251.86,-143.46 1251.7,-150.458"/>
</g>
<!-- Node23&#45;&gt;Node20 -->
<g id="edge28" class="edge"><title>Node23&#45;&gt;Node20</title>
<path fill="none" stroke="midnightblue" d="M1429.42,-136.329C1381.82,-137.573 1311.23,-137.971 1250,-143.5 1241.64,-144.255 1232.96,-145.262 1224.3,-146.381"/>
<polygon fill="midnightblue" stroke="midnightblue" points="1223.59,-142.944 1214.15,-147.738 1224.52,-149.882 1223.59,-142.944"/>
</g>
<!-- Node25&#45;&gt;Node2 -->
<g id="edge31" class="edge"><title>Node25&#45;&gt;Node2</title>
<path fill="none" stroke="midnightblue" d="M1369.88,-251.015C1378.38,-254.454 1386.57,-259.133 1393,-265.5 1459.7,-331.516 1477.9,-448.967 1482.77,-500.308"/>
<polygon fill="midnightblue" stroke="midnightblue" points="1479.3,-500.829 1483.64,-510.495 1486.28,-500.233 1479.3,-500.829"/>
</g>
<!-- Node25&#45;&gt;Node20 -->
<g id="edge33" class="edge"><title>Node25&#45;&gt;Node20</title>
<path fill="none" stroke="midnightblue" d="M1263.85,-236.691C1259.11,-235.12 1254.44,-233.38 1250,-231.5 1211.44,-215.157 1170.24,-187.86 1149.01,-169.878"/>
<polygon fill="midnightblue" stroke="midnightblue" points="1151.2,-167.137 1141.43,-163.028 1146.5,-172.33 1151.2,-167.137"/>
</g>
<!-- Node25&#45;&gt;Node23 -->
<g id="edge32" class="edge"><title>Node25&#45;&gt;Node23</title>
<path fill="none" stroke="midnightblue" d="M1371.26,-231.976C1378.81,-229.49 1386.31,-226.38 1393,-222.5 1426.08,-203.311 1455.52,-169.119 1471.6,-148.258"/>
<polygon fill="midnightblue" stroke="midnightblue" points="1474.44,-150.312 1477.65,-140.216 1468.84,-146.105 1474.44,-150.312"/>
</g>
<!-- Node26&#45;&gt;Node20 -->
<g id="edge36" class="edge"><title>Node26&#45;&gt;Node20</title>
<path fill="none" stroke="midnightblue" d="M1261.78,-159.825C1249.86,-160.134 1237.07,-160.274 1224.35,-160.247"/>
<polygon fill="midnightblue" stroke="midnightblue" points="1224.21,-156.746 1214.19,-160.188 1224.17,-163.746 1224.21,-156.746"/>
</g>
<!-- Node26&#45;&gt;Node23 -->
<g id="edge35" class="edge"><title>Node26&#45;&gt;Node23</title>
<path fill="none" stroke="midnightblue" d="M1381.44,-145.131C1393.79,-143.378 1406.88,-141.52 1419.44,-139.737"/>
<polygon fill="midnightblue" stroke="midnightblue" points="1419.97,-143.197 1429.37,-138.326 1418.98,-136.267 1419.97,-143.197"/>
</g>
<!-- Node28 -->
<g id="node28" class="node"><title>Node28</title>
<g id="a_node28"><a xlink:href="classMap.html#afefe996cc1f62b61ec60d0ae415953bf" target="_top" xlink:title="Map::loadMapFromFile">
<polygon fill="none" stroke="black" points="573,-172 573,-191 695,-191 695,-172 573,-172"/>
<text text-anchor="middle" x="634" y="-179" font-family="Helvetica,sans-Serif" font-size="10.00">Map::loadMapFromFile</text>
</a>
</g>
</g>
<!-- Node27&#45;&gt;Node28 -->
<g id="edge38" class="edge"><title>Node27&#45;&gt;Node28</title>
<path fill="none" stroke="midnightblue" d="M486.618,-181.5C509.823,-181.5 537.642,-181.5 562.767,-181.5"/>
<polygon fill="midnightblue" stroke="midnightblue" points="562.98,-185 572.979,-181.5 562.979,-178 562.98,-185"/>
</g>
<!-- Node28&#45;&gt;Node15 -->
<g id="edge41" class="edge"><title>Node28&#45;&gt;Node15</title>
<path fill="none" stroke="midnightblue" d="M660.942,-191.03C684.622,-199.729 719.844,-212.667 746.199,-222.348"/>
<polygon fill="midnightblue" stroke="midnightblue" points="745.229,-225.721 755.823,-225.884 747.643,-219.15 745.229,-225.721"/>
</g>
<!-- Node28&#45;&gt;Node19 -->
<g id="edge42" class="edge"><title>Node28&#45;&gt;Node19</title>
<path fill="none" stroke="midnightblue" d="M651.662,-171.913C670.292,-161.794 701.704,-146.494 731,-140.5 783.509,-129.757 844.732,-135.403 887.847,-142.292"/>
<polygon fill="midnightblue" stroke="midnightblue" points="887.414,-145.768 897.854,-143.965 888.568,-138.864 887.414,-145.768"/>
</g>
<!-- Node29 -->
<g id="node29" class="node"><title>Node29</title>
<g id="a_node29"><a xlink:href="compression_8hxx.html#a25f341059256700f2f3ffd62d8113956" target="_top" xlink:title="decompresses given string Decompresses a given string. ">
<polygon fill="none" stroke="black" points="731,-188 731,-207 835,-207 835,-188 731,-188"/>
<text text-anchor="middle" x="783" y="-195" font-family="Helvetica,sans-Serif" font-size="10.00">decompressString</text>
</a>
</g>
</g>
<!-- Node28&#45;&gt;Node29 -->
<g id="edge39" class="edge"><title>Node28&#45;&gt;Node29</title>
<path fill="none" stroke="midnightblue" d="M695.215,-188.054C703.557,-188.962 712.136,-189.896 720.502,-190.806"/>
<polygon fill="midnightblue" stroke="midnightblue" points="720.25,-194.3 730.57,-191.902 721.008,-187.341 720.25,-194.3"/>
</g>
<!-- Node30 -->
<g id="node30" class="node"><title>Node30</title>
<g id="a_node30"><a xlink:href="classMap.html#a1197ab65e40dd20b891ba165471e3163" target="_top" xlink:title="Map::Map">
<polygon fill="none" stroke="black" points="751.5,-150 751.5,-169 814.5,-169 814.5,-150 751.5,-150"/>
<text text-anchor="middle" x="783" y="-157" font-family="Helvetica,sans-Serif" font-size="10.00">Map::Map</text>
</a>
</g>
</g>
<!-- Node28&#45;&gt;Node30 -->
<g id="edge40" class="edge"><title>Node28&#45;&gt;Node30</title>
<path fill="none" stroke="midnightblue" d="M695.215,-172.488C710.783,-170.158 727.173,-167.705 741.466,-165.566"/>
<polygon fill="midnightblue" stroke="midnightblue" points="742.089,-169.012 751.461,-164.071 741.053,-162.089 742.089,-169.012"/>
</g>
<!-- Node31&#45;&gt;Node27 -->
<g id="edge44" class="edge"><title>Node31&#45;&gt;Node27</title>
<path fill="none" stroke="midnightblue" d="M268.253,-198.37C299.362,-195.194 339.513,-191.095 372.447,-187.733"/>
<polygon fill="midnightblue" stroke="midnightblue" points="372.826,-191.212 382.419,-186.715 372.115,-184.249 372.826,-191.212"/>
</g>
</g>
</svg>
        <g id="navigator" transform="translate(0 0)" fill="#404254">
                <rect fill="#f2f5e9" fill-opacity="0.5" stroke="#606060" stroke-width=".5" x="0" y="0" width="60" height="60"/>
                <use id="zoomplus" xlink:href="#zoomPlus" x="17" y="9" onmousedown="handleZoom(evt,'in')"/>
                <use id="zoomminus" xlink:href="#zoomMin" x="42" y="9" onmousedown="handleZoom(evt,'out')"/>
                <use id="reset" xlink:href="#resetDef" x="30" y="36" onmousedown="handleReset()"/>
                <g id="arrowUp" xlink:href="#dirArrow" transform="translate(30 24)" onmousedown="handlePan(0,-1)">
                  <use xlink:href="#rim" fill="#404040">
                        <set attributeName="fill" to="#808080" begin="arrowUp.mouseover" end="arrowUp.mouseout"/>
                  </use>
                  <path fill="none" stroke="white" stroke-width="1.5" d="M0,-3.0v7 M-2.5,-0.5L0,-3.0L2.5,-0.5"/>
                </g>
                <g id="arrowRight" xlink:href="#dirArrow" transform="rotate(90) translate(36 -43)" onmousedown="handlePan(1,0)">
                  <use xlink:href="#rim" fill="#404040">
                        <set attributeName="fill" to="#808080" begin="arrowRight.mouseover" end="arrowRight.mouseout"/>
                  </use>
                  <path fill="none" stroke="white" stroke-width="1.5" d="M0,-3.0v7 M-2.5,-0.5L0,-3.0L2.5,-0.5"/>
                </g>
                <g id="arrowDown" xlink:href="#dirArrow" transform="rotate(180) translate(-30 -48)" onmousedown="handlePan(0,1)">
                  <use xlink:href="#rim" fill="#404040">
                        <set attributeName="fill" to="#808080" begin="arrowDown.mouseover" end="arrowDown.mouseout"/>
                  </use>
                  <path fill="none" stroke="white" stroke-width="1.5" d="M0,-3.0v7 M-2.5,-0.5L0,-3.0L2.5,-0.5"/>
                </g>
                <g id="arrowLeft" xlink:href="#dirArrow" transform="rotate(270) translate(-36 17)" onmousedown="handlePan(-1,0)">
                  <use xlink:href="#rim" fill="#404040">
                        <set attributeName="fill" to="#808080" begin="arrowLeft.mouseover" end="arrowLeft.mouseout"/>
                  </use>
                  <path fill="none" stroke="white" stroke-width="1.5" d="M0,-3.0v7 M-2.5,-0.5L0,-3.0L2.5,-0.5"/>
                </g>
        </g>
        <svg viewBox="0 0 15 15" width="100%" height="30px" preserveAspectRatio="xMaxYMin meet">
         <g id="arrow_out" transform="scale(0.3 0.3)">
          <a xlink:href="classGame_a5ed7fc5be77080f7f6dd5363f7f007a1_cgraph_org.svg" target="_base">
           <rect id="button" ry="5" rx="5" y="6" x="6" height="38" width="38"
                fill="#f2f5e9" fill-opacity="0.5" stroke="#606060" stroke-width="1.0"/>
           <path id="arrow"
             d="M 11.500037,31.436501 C 11.940474,20.09759 22.043105,11.32322 32.158766,21.979434 L 37.068811,17.246167 C 37.068811,17.246167 37.088388,32 37.088388,32 L 22.160133,31.978069 C 22.160133,31.978069 26.997745,27.140456 26.997745,27.140456 C 18.528582,18.264221 13.291696,25.230495 11.500037,31.436501 z"
             style="fill:#404040;"/>
          </a>
         </g>
        </svg>
</svg>
