<?xml version="1.0" encoding="UTF-8" standalone="no"?>
<!DOCTYPE svg PUBLIC "-//W3C//DTD SVG 1.1//EN"
 "http://www.w3.org/Graphics/SVG/1.1/DTD/svg11.dtd">
<!-- Generated by graphviz version 2.38.0 (20140413.2041)
 -->
<!-- Title: TileManager::TileManager Pages: 1 -->
<svg width="999pt" height="143pt"
 viewBox="0.00 0.00 999.00 142.50" xmlns="http://www.w3.org/2000/svg" xmlns:xlink="http://www.w3.org/1999/xlink">
<g id="graph0" class="graph" transform="scale(1 1) rotate(0) translate(4 138.5)">
<title>TileManager::TileManager</title>
<!-- Node1 -->
<g id="node1" class="node"><title>Node1</title>
<polygon fill="#bfbfbf" stroke="black" points="0,-115 0,-134 138,-134 138,-115 0,-115"/>
<text text-anchor="middle" x="69" y="-122" font-family="Helvetica,sans-Serif" font-size="10.00">TileManager::TileManager</text>
</g>
<!-- Node2 -->
<g id="node2" class="node"><title>Node2</title>
<g id="a_node2"><a xlink:href="classTileManager.html#a1575d9a9530e13fe0286b8fece9e47ea" target="_top" xlink:title="TileManager::init">
<polygon fill="none" stroke="black" points="174,-115 174,-134 269,-134 269,-115 174,-115"/>
<text text-anchor="middle" x="221.5" y="-122" font-family="Helvetica,sans-Serif" font-size="10.00">TileManager::init</text>
</a>
</g>
</g>
<!-- Node1&#45;&gt;Node2 -->
<g id="edge1" class="edge"><title>Node1&#45;&gt;Node2</title>
<path fill="none" stroke="midnightblue" d="M138.204,-124.5C146.626,-124.5 155.166,-124.5 163.398,-124.5"/>
<polygon fill="midnightblue" stroke="midnightblue" points="163.629,-128 173.629,-124.5 163.629,-121 163.629,-128"/>
</g>
<!-- Node3 -->
<g id="node3" class="node"><title>Node3</title>
<g id="a_node3"><a xlink:href="classSingleton.html#af5cb1e5749949e2b68416cfb8d378044" target="_top" xlink:title="Get an instance of the singleton. ">
<polygon fill="none" stroke="black" points="878,-93.5 878,-123.5 991,-123.5 991,-93.5 878,-93.5"/>
<text text-anchor="start" x="886" y="-111.5" font-family="Helvetica,sans-Serif" font-size="10.00">Singleton&lt; Settings</text>
<text text-anchor="middle" x="934.5" y="-100.5" font-family="Helvetica,sans-Serif" font-size="10.00"> &gt;::instance</text>
</a>
</g>
</g>
<!-- Node2&#45;&gt;Node3 -->
<g id="edge2" class="edge"><title>Node2&#45;&gt;Node3</title>
<path fill="none" stroke="midnightblue" d="M269.215,-126.357C372.61,-129.994 628.558,-136.391 842,-120.5 850.383,-119.876 859.173,-119.003 867.852,-118.011"/>
<polygon fill="midnightblue" stroke="midnightblue" points="868.446,-121.465 877.957,-116.798 867.612,-114.515 868.446,-121.465"/>
</g>
<!-- Node4 -->
<g id="node4" class="node"><title>Node4</title>
<g id="a_node4"><a xlink:href="classTileManager.html#a7fadfb60a38e76b474996c59672812cf" target="_top" xlink:title="TileManager::addJSONObject\lToTileData">
<polygon fill="none" stroke="black" points="305,-87.5 305,-117.5 458,-117.5 458,-87.5 305,-87.5"/>
<text text-anchor="start" x="313" y="-105.5" font-family="Helvetica,sans-Serif" font-size="10.00">TileManager::addJSONObject</text>
<text text-anchor="middle" x="381.5" y="-94.5" font-family="Helvetica,sans-Serif" font-size="10.00">ToTileData</text>
</a>
</g>
</g>
<!-- Node2&#45;&gt;Node4 -->
<g id="edge3" class="edge"><title>Node2&#45;&gt;Node4</title>
<path fill="none" stroke="midnightblue" d="M269.051,-118.018C277.252,-116.876 286.017,-115.656 294.895,-114.42"/>
<polygon fill="midnightblue" stroke="midnightblue" points="295.52,-117.867 304.942,-113.021 294.555,-110.933 295.52,-117.867"/>
</g>
<!-- Node4&#45;&gt;Node3 -->
<g id="edge4" class="edge"><title>Node4&#45;&gt;Node3</title>
<path fill="none" stroke="midnightblue" d="M458.247,-103.325C566.76,-104.506 764.68,-106.662 867.514,-107.781"/>
<polygon fill="midnightblue" stroke="midnightblue" points="867.728,-111.284 877.765,-107.893 867.804,-104.284 867.728,-111.284"/>
</g>
<!-- Node5 -->
<g id="node5" class="node"><title>Node5</title>
<g id="a_node5"><a xlink:href="classResourcesManager.html#a0a56e6316b8145494b7d551c29c41d80" target="_top" xlink:title="ResourcesManager::loadTexture">
<polygon fill="none" stroke="black" points="494,-55 494,-74 662,-74 662,-55 494,-55"/>
<text text-anchor="middle" x="578" y="-62" font-family="Helvetica,sans-Serif" font-size="10.00">ResourcesManager::loadTexture</text>
</a>
</g>
</g>
<!-- Node4&#45;&gt;Node5 -->
<g id="edge5" class="edge"><title>Node4&#45;&gt;Node5</title>
<path fill="none" stroke="midnightblue" d="M458.256,-87.6994C478.237,-83.7955 499.494,-79.6426 518.417,-75.9456"/>
<polygon fill="midnightblue" stroke="midnightblue" points="519.229,-79.3532 528.372,-74.0005 517.887,-72.483 519.229,-79.3532"/>
</g>
<!-- Node6 -->
<g id="node6" class="node"><title>Node6</title>
<g id="a_node6"><a xlink:href="classResourcesManager.html#a54721d26f52c4887b735d2cdaf60b078" target="_top" xlink:title="ResourcesManager::create\lSurfaceFromFile">
<polygon fill="none" stroke="black" points="698,-49.5 698,-79.5 842,-79.5 842,-49.5 698,-49.5"/>
<text text-anchor="start" x="706" y="-67.5" font-family="Helvetica,sans-Serif" font-size="10.00">ResourcesManager::create</text>
<text text-anchor="middle" x="770" y="-56.5" font-family="Helvetica,sans-Serif" font-size="10.00">SurfaceFromFile</text>
</a>
</g>
</g>
<!-- Node5&#45;&gt;Node6 -->
<g id="edge6" class="edge"><title>Node5&#45;&gt;Node6</title>
<path fill="none" stroke="midnightblue" d="M662.06,-64.5C670.508,-64.5 679.084,-64.5 687.515,-64.5"/>
<polygon fill="midnightblue" stroke="midnightblue" points="687.709,-68.0001 697.709,-64.5 687.709,-61.0001 687.709,-68.0001"/>
</g>
<!-- Node7 -->
<g id="node7" class="node"><title>Node7</title>
<g id="a_node7"><a xlink:href="classResourcesManager.html#ad7712ca96233a151d8bc22cd2ba17d01" target="_top" xlink:title="ResourcesManager::create\lTextureFromSurface">
<polygon fill="none" stroke="black" points="698,-0.5 698,-30.5 842,-30.5 842,-0.5 698,-0.5"/>
<text text-anchor="start" x="706" y="-18.5" font-family="Helvetica,sans-Serif" font-size="10.00">ResourcesManager::create</text>
<text text-anchor="middle" x="770" y="-7.5" font-family="Helvetica,sans-Serif" font-size="10.00">TextureFromSurface</text>
</a>
</g>
</g>
<!-- Node5&#45;&gt;Node7 -->
<g id="edge7" class="edge"><title>Node5&#45;&gt;Node7</title>
<path fill="none" stroke="midnightblue" d="M616.085,-54.936C640.14,-48.7324 672.205,-40.4629 700.759,-33.099"/>
<polygon fill="midnightblue" stroke="midnightblue" points="701.884,-36.4234 710.693,-30.537 700.136,-29.6452 701.884,-36.4234"/>
</g>
<!-- Node7&#45;&gt;Node3 -->
<g id="edge8" class="edge"><title>Node7&#45;&gt;Node3</title>
<path fill="none" stroke="midnightblue" d="M822.251,-30.6162C829.037,-33.2524 835.787,-36.2178 842,-39.5 866.34,-52.3591 891.097,-71.4736 908.711,-86.3256"/>
<polygon fill="midnightblue" stroke="midnightblue" points="906.884,-89.3696 916.751,-93.228 911.444,-84.0585 906.884,-89.3696"/>
</g>
</g>
</svg>
