<?xml version="1.0" encoding="UTF-8" standalone="no"?>
<!DOCTYPE svg PUBLIC "-//W3C//DTD SVG 1.1//EN"
 "http://www.w3.org/Graphics/SVG/1.1/DTD/svg11.dtd">
<!-- Generated by graphviz version 2.38.0 (20140413.2041)
 -->
<!-- Title: WindowManager::setFullScreenMode Pages: 1 -->
<svg width="1029pt" height="72pt"
 viewBox="0.00 0.00 1029.00 71.50" xmlns="http://www.w3.org/2000/svg" xmlns:xlink="http://www.w3.org/1999/xlink">
<g id="graph0" class="graph" transform="scale(1 1) rotate(0) translate(4 67.5)">
<title>WindowManager::setFullScreenMode</title>
<!-- Node1 -->
<g id="node1" class="node"><title>Node1</title>
<polygon fill="#bfbfbf" stroke="black" points="0,-19.5 0,-38.5 190,-38.5 190,-19.5 0,-19.5"/>
<text text-anchor="middle" x="95" y="-26.5" font-family="Helvetica,sans-Serif" font-size="10.00">WindowManager::setFullScreenMode</text>
</g>
<!-- Node2 -->
<g id="node2" class="node"><title>Node2</title>
<g id="a_node2"><a xlink:href="classUIManager.html#af2ffb4ee45e57152164643ef6cddda37" target="_top" xlink:title="UIManager::changeFullScreenMode">
<polygon fill="none" stroke="black" points="226,-38.5 226,-57.5 411,-57.5 411,-38.5 226,-38.5"/>
<text text-anchor="middle" x="318.5" y="-45.5" font-family="Helvetica,sans-Serif" font-size="10.00">UIManager::changeFullScreenMode</text>
</a>
</g>
</g>
<!-- Node1&#45;&gt;Node2 -->
<g id="edge1" class="edge"><title>Node1&#45;&gt;Node2</title>
<path fill="none" stroke="midnightblue" d="M200.24,-37.9416C208.775,-38.6737 217.362,-39.4102 225.796,-40.1337"/>
<polygon fill="midnightblue" stroke="midnightblue" points="200.52,-34.4528 190.257,-37.0853 199.921,-41.4272 200.52,-34.4528"/>
</g>
<!-- Node8 -->
<g id="node8" class="node"><title>Node8</title>
<g id="a_node8"><a xlink:href="classWindowManager.html#a3a283b34c19aaa20296befaabad4d29b" target="_top" xlink:title="WindowManager::WindowManager">
<polygon fill="none" stroke="black" points="230,-0.5 230,-19.5 407,-19.5 407,-0.5 230,-0.5"/>
<text text-anchor="middle" x="318.5" y="-7.5" font-family="Helvetica,sans-Serif" font-size="10.00">WindowManager::WindowManager</text>
</a>
</g>
</g>
<!-- Node1&#45;&gt;Node8 -->
<g id="edge7" class="edge"><title>Node1&#45;&gt;Node8</title>
<path fill="none" stroke="midnightblue" d="M200.416,-20.0434C210.199,-19.2042 220.048,-18.3593 229.657,-17.535"/>
<polygon fill="midnightblue" stroke="midnightblue" points="199.921,-16.5728 190.257,-20.9147 200.52,-23.5472 199.921,-16.5728"/>
</g>
<!-- Node3 -->
<g id="node3" class="node"><title>Node3</title>
<g id="a_node3"><a xlink:href="classUIManager.html#a5c4cb8e02504ffa0d3faf45181feab9d" target="_top" xlink:title="Fill UI Widgets whose ID start with a $ with data Used for filling widgets with data, like BuildMenu Position combobox, Screen Resolution ComboBox and so on. ">
<polygon fill="none" stroke="black" points="447,-33 447,-63 587,-63 587,-33 447,-33"/>
<text text-anchor="start" x="455" y="-51" font-family="Helvetica,sans-Serif" font-size="10.00">UIManager::initializeDollar</text>
<text text-anchor="middle" x="517" y="-40" font-family="Helvetica,sans-Serif" font-size="10.00">Variables</text>
</a>
</g>
</g>
<!-- Node2&#45;&gt;Node3 -->
<g id="edge2" class="edge"><title>Node2&#45;&gt;Node3</title>
<path fill="none" stroke="midnightblue" d="M421.28,-48C429.922,-48 438.528,-48 446.829,-48"/>
<polygon fill="midnightblue" stroke="midnightblue" points="421.134,-44.5001 411.134,-48 421.134,-51.5001 421.134,-44.5001"/>
</g>
<!-- Node4 -->
<g id="node4" class="node"><title>Node4</title>
<g id="a_node4"><a xlink:href="classUIManager.html#aedd9d0577af515a852425dfe414b2968" target="_top" xlink:title="Parses the UiLayout.json files and creates UI Elements. ">
<polygon fill="none" stroke="black" points="623,-38.5 623,-57.5 712,-57.5 712,-38.5 623,-38.5"/>
<text text-anchor="middle" x="667.5" y="-45.5" font-family="Helvetica,sans-Serif" font-size="10.00">UIManager::init</text>
</a>
</g>
</g>
<!-- Node3&#45;&gt;Node4 -->
<g id="edge3" class="edge"><title>Node3&#45;&gt;Node4</title>
<path fill="none" stroke="midnightblue" d="M597.274,-48C605.985,-48 614.604,-48 622.648,-48"/>
<polygon fill="midnightblue" stroke="midnightblue" points="597.033,-44.5001 587.033,-48 597.033,-51.5001 597.033,-44.5001"/>
</g>
<!-- Node5 -->
<g id="node5" class="node"><title>Node5</title>
<g id="a_node5"><a xlink:href="classGame.html#a1c2ab25d5216b2f4b2fe41efd2c09114" target="_top" xlink:title="Game::run">
<polygon fill="none" stroke="black" points="748,-38.5 748,-57.5 816,-57.5 816,-38.5 748,-38.5"/>
<text text-anchor="middle" x="782" y="-45.5" font-family="Helvetica,sans-Serif" font-size="10.00">Game::run</text>
</a>
</g>
</g>
<!-- Node4&#45;&gt;Node5 -->
<g id="edge4" class="edge"><title>Node4&#45;&gt;Node5</title>
<path fill="none" stroke="midnightblue" d="M722.446,-48C731.145,-48 739.918,-48 747.931,-48"/>
<polygon fill="midnightblue" stroke="midnightblue" points="722.318,-44.5001 712.318,-48 722.318,-51.5001 722.318,-44.5001"/>
</g>
<!-- Node6 -->
<g id="node6" class="node"><title>Node6</title>
<g id="a_node6"><a xlink:href="main_8cxx.html#af582d708d899e67ead623eac34a22387" target="_top" xlink:title="protected_main">
<polygon fill="none" stroke="black" points="852,-38.5 852,-57.5 944,-57.5 944,-38.5 852,-38.5"/>
<text text-anchor="middle" x="898" y="-45.5" font-family="Helvetica,sans-Serif" font-size="10.00">protected_main</text>
</a>
</g>
</g>
<!-- Node5&#45;&gt;Node6 -->
<g id="edge5" class="edge"><title>Node5&#45;&gt;Node6</title>
<path fill="none" stroke="midnightblue" d="M826.44,-48C834.674,-48 843.308,-48 851.601,-48"/>
<polygon fill="midnightblue" stroke="midnightblue" points="826.28,-44.5001 816.28,-48 826.28,-51.5001 826.28,-44.5001"/>
</g>
<!-- Node7 -->
<g id="node7" class="node"><title>Node7</title>
<g id="a_node7"><a xlink:href="main_8cxx.html#a3c04138a5bfe5d72780bb7e82a18e627" target="_top" xlink:title="main">
<polygon fill="none" stroke="black" points="980,-38.5 980,-57.5 1021,-57.5 1021,-38.5 980,-38.5"/>
<text text-anchor="middle" x="1000.5" y="-45.5" font-family="Helvetica,sans-Serif" font-size="10.00">main</text>
</a>
</g>
</g>
<!-- Node6&#45;&gt;Node7 -->
<g id="edge6" class="edge"><title>Node6&#45;&gt;Node7</title>
<path fill="none" stroke="midnightblue" d="M954.539,-48C963.619,-48 972.466,-48 979.877,-48"/>
<polygon fill="midnightblue" stroke="midnightblue" points="954.252,-44.5001 944.252,-48 954.252,-51.5001 954.252,-44.5001"/>
</g>
</g>
</svg>
