<?xml version="1.0" encoding="UTF-8" standalone="no"?>
<!DOCTYPE svg PUBLIC "-//W3C//DTD SVG 1.1//EN"
 "http://www.w3.org/Graphics/SVG/1.1/DTD/svg11.dtd">
<!-- Generated by graphviz version 2.38.0 (20140413.2041)
 -->
<!-- Title: UIElement::setTextureID Pages: 1 -->
<svg width="973pt" height="140pt"
 viewBox="0.00 0.00 973.00 140.00" xmlns="http://www.w3.org/2000/svg" xmlns:xlink="http://www.w3.org/1999/xlink">
<g id="graph0" class="graph" transform="scale(1 1) rotate(0) translate(4 136)">
<title>UIElement::setTextureID</title>
<!-- Node1 -->
<g id="node1" class="node"><title>Node1</title>
<polygon fill="#bfbfbf" stroke="black" points="0,-55.5 0,-74.5 131,-74.5 131,-55.5 0,-55.5"/>
<text text-anchor="middle" x="65.5" y="-62.5" font-family="Helvetica,sans-Serif" font-size="10.00">UIElement::setTextureID</text>
</g>
<!-- Node2 -->
<g id="node2" class="node"><title>Node2</title>
<g id="a_node2"><a xlink:href="classUIElement.html#a9c4439b91bcb765d0616616fbfe2a44a" target="_top" xlink:title="Get the uiElements tooltip text Get the tooltip text for this ui element. Tooltip is shown when hover...">
<polygon fill="none" stroke="black" points="180.5,-112.5 180.5,-131.5 326.5,-131.5 326.5,-112.5 180.5,-112.5"/>
<text text-anchor="middle" x="253.5" y="-119.5" font-family="Helvetica,sans-Serif" font-size="10.00">UIElement::setUIElementID</text>
</a>
</g>
</g>
<!-- Node1&#45;&gt;Node2 -->
<g id="edge1" class="edge"><title>Node1&#45;&gt;Node2</title>
<path fill="none" stroke="midnightblue" d="M104.234,-77.8221C123.035,-84.1003 146.151,-91.6541 167,-98 183.372,-102.983 201.62,-108.157 217.04,-112.419"/>
<polygon fill="midnightblue" stroke="midnightblue" points="105.148,-74.4369 94.5539,-74.5751 102.922,-81.0736 105.148,-74.4369"/>
</g>
<!-- Node3 -->
<g id="node3" class="node"><title>Node3</title>
<g id="a_node3"><a xlink:href="classUIManager.html#aae7a89e9d50bb6192e4140e07bd5f94b" target="_top" xlink:title="UIManager::createBuildMenu">
<polygon fill="none" stroke="black" points="376,-74.5 376,-93.5 531,-93.5 531,-74.5 376,-74.5"/>
<text text-anchor="middle" x="453.5" y="-81.5" font-family="Helvetica,sans-Serif" font-size="10.00">UIManager::createBuildMenu</text>
</a>
</g>
</g>
<!-- Node1&#45;&gt;Node3 -->
<g id="edge8" class="edge"><title>Node1&#45;&gt;Node3</title>
<path fill="none" stroke="midnightblue" d="M141.244,-68.6791C208.731,-72.001 307.606,-76.8679 375.716,-80.2205"/>
<polygon fill="midnightblue" stroke="midnightblue" points="141.268,-65.1761 131.108,-68.1802 140.924,-72.1677 141.268,-65.1761"/>
</g>
<!-- Node8 -->
<g id="node8" class="node"><title>Node8</title>
<g id="a_node8"><a xlink:href="classMenuGroupBuild.html#afe78eacb71e9b5ebe9adaae92c0378cc" target="_top" xlink:title="MenuGroupBuild::constructMenu">
<polygon fill="none" stroke="black" points="167,-36.5 167,-55.5 340,-55.5 340,-36.5 167,-36.5"/>
<text text-anchor="middle" x="253.5" y="-43.5" font-family="Helvetica,sans-Serif" font-size="10.00">MenuGroupBuild::constructMenu</text>
</a>
</g>
</g>
<!-- Node1&#45;&gt;Node8 -->
<g id="edge7" class="edge"><title>Node1&#45;&gt;Node8</title>
<path fill="none" stroke="midnightblue" d="M141.183,-57.3711C149.607,-56.5106 158.239,-55.6288 166.788,-54.7555"/>
<polygon fill="midnightblue" stroke="midnightblue" points="140.624,-53.9099 131.032,-58.408 141.336,-60.8736 140.624,-53.9099"/>
</g>
<!-- Node9 -->
<g id="node9" class="node"><title>Node9</title>
<g id="a_node9"><a xlink:href="classGame.html#a5ed7fc5be77080f7f6dd5363f7f007a1" target="_top" xlink:title="Game::mainMenu">
<polygon fill="none" stroke="black" points="402.5,-0.5 402.5,-19.5 504.5,-19.5 504.5,-0.5 402.5,-0.5"/>
<text text-anchor="middle" x="453.5" y="-7.5" font-family="Helvetica,sans-Serif" font-size="10.00">Game::mainMenu</text>
</a>
</g>
</g>
<!-- Node1&#45;&gt;Node9 -->
<g id="edge9" class="edge"><title>Node1&#45;&gt;Node9</title>
<path fill="none" stroke="midnightblue" d="M95.6832,-51.2765C115.37,-42.6967 142.188,-32.3011 167,-27 248.092,-9.67487 344.879,-7.71923 402.376,-8.45345"/>
<polygon fill="midnightblue" stroke="midnightblue" points="94.0657,-48.1656 86.3595,-55.4364 96.9179,-54.5582 94.0657,-48.1656"/>
</g>
<!-- Node2&#45;&gt;Node3 -->
<g id="edge2" class="edge"><title>Node2&#45;&gt;Node3</title>
<path fill="none" stroke="midnightblue" d="M314.366,-110.511C342.617,-105.089 375.936,-98.6942 402.771,-93.5439"/>
<polygon fill="midnightblue" stroke="midnightblue" points="313.369,-107.138 304.208,-112.46 314.689,-114.012 313.369,-107.138"/>
</g>
<!-- Node4 -->
<g id="node4" class="node"><title>Node4</title>
<g id="a_node4"><a xlink:href="classUIManager.html#aedd9d0577af515a852425dfe414b2968" target="_top" xlink:title="Parses the UiLayout.json files and creates UI Elements. ">
<polygon fill="none" stroke="black" points="567,-55.5 567,-74.5 656,-74.5 656,-55.5 567,-55.5"/>
<text text-anchor="middle" x="611.5" y="-62.5" font-family="Helvetica,sans-Serif" font-size="10.00">UIManager::init</text>
</a>
</g>
</g>
<!-- Node3&#45;&gt;Node4 -->
<g id="edge3" class="edge"><title>Node3&#45;&gt;Node4</title>
<path fill="none" stroke="midnightblue" d="M541.102,-73.4524C549.9,-72.3807 558.551,-71.3271 566.599,-70.3469"/>
<polygon fill="midnightblue" stroke="midnightblue" points="540.632,-69.9836 531.129,-74.667 541.479,-76.9322 540.632,-69.9836"/>
</g>
<!-- Node5 -->
<g id="node5" class="node"><title>Node5</title>
<g id="a_node5"><a xlink:href="classGame.html#a1c2ab25d5216b2f4b2fe41efd2c09114" target="_top" xlink:title="Game::run">
<polygon fill="none" stroke="black" points="692,-46.5 692,-65.5 760,-65.5 760,-46.5 692,-46.5"/>
<text text-anchor="middle" x="726" y="-53.5" font-family="Helvetica,sans-Serif" font-size="10.00">Game::run</text>
</a>
</g>
</g>
<!-- Node4&#45;&gt;Node5 -->
<g id="edge4" class="edge"><title>Node4&#45;&gt;Node5</title>
<path fill="none" stroke="midnightblue" d="M666.446,-60.6843C675.145,-59.9884 683.918,-59.2865 691.931,-58.6456"/>
<polygon fill="midnightblue" stroke="midnightblue" points="666.007,-57.2082 656.318,-61.4946 666.565,-64.1859 666.007,-57.2082"/>
</g>
<!-- Node6 -->
<g id="node6" class="node"><title>Node6</title>
<g id="a_node6"><a xlink:href="main_8cxx.html#af582d708d899e67ead623eac34a22387" target="_top" xlink:title="protected_main">
<polygon fill="none" stroke="black" points="796,-24.5 796,-43.5 888,-43.5 888,-24.5 796,-24.5"/>
<text text-anchor="middle" x="842" y="-31.5" font-family="Helvetica,sans-Serif" font-size="10.00">protected_main</text>
</a>
</g>
</g>
<!-- Node5&#45;&gt;Node6 -->
<g id="edge5" class="edge"><title>Node5&#45;&gt;Node6</title>
<path fill="none" stroke="midnightblue" d="M770.165,-47.6699C778.482,-46.0649 787.216,-44.3793 795.601,-42.7612"/>
<polygon fill="midnightblue" stroke="midnightblue" points="769.436,-44.246 760.28,-49.5775 770.762,-51.1192 769.436,-44.246"/>
</g>
<!-- Node7 -->
<g id="node7" class="node"><title>Node7</title>
<g id="a_node7"><a xlink:href="main_8cxx.html#a3c04138a5bfe5d72780bb7e82a18e627" target="_top" xlink:title="main">
<polygon fill="none" stroke="black" points="924,-24.5 924,-43.5 965,-43.5 965,-24.5 924,-24.5"/>
<text text-anchor="middle" x="944.5" y="-31.5" font-family="Helvetica,sans-Serif" font-size="10.00">main</text>
</a>
</g>
</g>
<!-- Node6&#45;&gt;Node7 -->
<g id="edge6" class="edge"><title>Node6&#45;&gt;Node7</title>
<path fill="none" stroke="midnightblue" d="M898.539,-34C907.619,-34 916.466,-34 923.877,-34"/>
<polygon fill="midnightblue" stroke="midnightblue" points="898.252,-30.5001 888.252,-34 898.252,-37.5001 898.252,-30.5001"/>
</g>
<!-- Node9&#45;&gt;Node6 -->
<g id="edge10" class="edge"><title>Node9&#45;&gt;Node6</title>
<path fill="none" stroke="midnightblue" d="M514.759,-13.7418C592.533,-18.5713 726.109,-26.8658 795.761,-31.1909"/>
<polygon fill="midnightblue" stroke="midnightblue" points="514.83,-10.2396 504.632,-13.113 514.396,-17.2261 514.83,-10.2396"/>
</g>
</g>
</svg>
