<?xml version="1.0" encoding="UTF-8" standalone="no"?>
<!DOCTYPE svg PUBLIC "-//W3C//DTD SVG 1.1//EN"
 "http://www.w3.org/Graphics/SVG/1.1/DTD/svg11.dtd">
<!-- Generated by graphviz version 2.38.0 (20140413.2041)
 -->
<!-- Title: Map::decreaseHeight Pages: 1 -->
<svg width="1747pt" height="363pt"
 viewBox="0.00 0.00 1747.00 362.79" xmlns="http://www.w3.org/2000/svg" xmlns:xlink="http://www.w3.org/1999/xlink">
<g id="graph0" class="graph" transform="scale(1 1) rotate(0) translate(4 358.788)">
<title>Map::decreaseHeight</title>
<!-- Node1 -->
<g id="node1" class="node"><title>Node1</title>
<polygon fill="#bfbfbf" stroke="black" points="0,-59.5 0,-78.5 119,-78.5 119,-59.5 0,-59.5"/>
<text text-anchor="middle" x="59.5" y="-66.5" font-family="Helvetica,sans-Serif" font-size="10.00">Map::decreaseHeight</text>
</g>
<!-- Node2 -->
<g id="node2" class="node"><title>Node2</title>
<g id="a_node2"><a xlink:href="classEngine.html#a3e87fa5bbc0de7cde5fe6092ddf21a37" target="_top" xlink:title="Decrease Height Decreases the height of the given map node Calls the according function of the Map ob...">
<polygon fill="none" stroke="black" points="170,-0.5 170,-19.5 301,-19.5 301,-0.5 170,-0.5"/>
<text text-anchor="middle" x="235.5" y="-7.5" font-family="Helvetica,sans-Serif" font-size="10.00">Engine::decreaseHeight</text>
</a>
</g>
</g>
<!-- Node1&#45;&gt;Node2 -->
<g id="edge1" class="edge"><title>Node1&#45;&gt;Node2</title>
<path fill="none" stroke="midnightblue" d="M94.6587,-55.7713C112.539,-48.9938 134.849,-40.7663 155,-34 170.034,-28.9519 186.827,-23.8109 201.09,-19.5888"/>
<polygon fill="midnightblue" stroke="midnightblue" points="93.3197,-52.536 85.2227,-59.369 95.8136,-59.0767 93.3197,-52.536"/>
</g>
<!-- Node7 -->
<g id="node7" class="node"><title>Node7</title>
<g id="a_node7"><a xlink:href="classMap.html#a59d21f2688713fbcfe320eb1b24405ca" target="_top" xlink:title="Update mapNode and its adjacent tiles Updates mapNode height information, draws slopes for adjacent t...">
<polygon fill="none" stroke="black" points="155,-80.5 155,-99.5 316,-99.5 316,-80.5 155,-80.5"/>
<text text-anchor="middle" x="235.5" y="-87.5" font-family="Helvetica,sans-Serif" font-size="10.00">Map::updateNeighborsOfNode</text>
</a>
</g>
</g>
<!-- Node1&#45;&gt;Node7 -->
<g id="edge6" class="edge"><title>Node1&#45;&gt;Node7</title>
<path fill="none" stroke="midnightblue" d="M129.416,-70.6987C153.956,-73.2994 180.504,-76.8871 200.777,-80.4623"/>
<polygon fill="midnightblue" stroke="midnightblue" points="129.711,-67.2108 119.408,-69.6826 129.004,-74.175 129.711,-67.2108"/>
</g>
<!-- Node3 -->
<g id="node3" class="node"><title>Node3</title>
<g id="a_node3"><a xlink:href="classEventManager.html#a65ec91fd5016d4f9c4167fb8babed2df" target="_top" xlink:title="EventManager::checkEvents">
<polygon fill="none" stroke="black" points="1142,-93.5 1142,-112.5 1294,-112.5 1294,-93.5 1142,-93.5"/>
<text text-anchor="middle" x="1218" y="-100.5" font-family="Helvetica,sans-Serif" font-size="10.00">EventManager::checkEvents</text>
</a>
</g>
</g>
<!-- Node2&#45;&gt;Node3 -->
<g id="edge2" class="edge"><title>Node2&#45;&gt;Node3</title>
<path fill="none" stroke="midnightblue" d="M311.372,-9.2819C377.65,-8.70833 477.008,-8 563.5,-8 563.5,-8 563.5,-8 887.5,-8 1009.84,-8 1148.09,-69.2163 1197.88,-93.3681"/>
<polygon fill="midnightblue" stroke="midnightblue" points="310.995,-5.78498 301.026,-9.37267 311.057,-12.7847 310.995,-5.78498"/>
</g>
<!-- Node4 -->
<g id="node4" class="node"><title>Node4</title>
<g id="a_node4"><a xlink:href="classGame.html#a1c2ab25d5216b2f4b2fe41efd2c09114" target="_top" xlink:title="Game::run">
<polygon fill="none" stroke="black" points="1466,-226.5 1466,-245.5 1534,-245.5 1534,-226.5 1466,-226.5"/>
<text text-anchor="middle" x="1500" y="-233.5" font-family="Helvetica,sans-Serif" font-size="10.00">Game::run</text>
</a>
</g>
</g>
<!-- Node3&#45;&gt;Node4 -->
<g id="edge3" class="edge"><title>Node3&#45;&gt;Node4</title>
<path fill="none" stroke="midnightblue" d="M1248.32,-116.929C1305.32,-144.003 1429.75,-203.107 1478.67,-226.343"/>
<polygon fill="midnightblue" stroke="midnightblue" points="1249.67,-113.694 1239.14,-112.565 1246.67,-120.017 1249.67,-113.694"/>
</g>
<!-- Node5 -->
<g id="node5" class="node"><title>Node5</title>
<g id="a_node5"><a xlink:href="main_8cxx.html#af582d708d899e67ead623eac34a22387" target="_top" xlink:title="protected_main">
<polygon fill="none" stroke="black" points="1570,-207.5 1570,-226.5 1662,-226.5 1662,-207.5 1570,-207.5"/>
<text text-anchor="middle" x="1616" y="-214.5" font-family="Helvetica,sans-Serif" font-size="10.00">protected_main</text>
</a>
</g>
</g>
<!-- Node4&#45;&gt;Node5 -->
<g id="edge4" class="edge"><title>Node4&#45;&gt;Node5</title>
<path fill="none" stroke="midnightblue" d="M1544.17,-228.806C1552.48,-227.42 1561.22,-225.964 1569.6,-224.566"/>
<polygon fill="midnightblue" stroke="midnightblue" points="1543.57,-225.357 1534.28,-230.453 1544.72,-232.262 1543.57,-225.357"/>
</g>
<!-- Node6 -->
<g id="node6" class="node"><title>Node6</title>
<g id="a_node6"><a xlink:href="main_8cxx.html#a3c04138a5bfe5d72780bb7e82a18e627" target="_top" xlink:title="main">
<polygon fill="none" stroke="black" points="1698,-207.5 1698,-226.5 1739,-226.5 1739,-207.5 1698,-207.5"/>
<text text-anchor="middle" x="1718.5" y="-214.5" font-family="Helvetica,sans-Serif" font-size="10.00">main</text>
</a>
</g>
</g>
<!-- Node5&#45;&gt;Node6 -->
<g id="edge5" class="edge"><title>Node5&#45;&gt;Node6</title>
<path fill="none" stroke="midnightblue" d="M1672.54,-217C1681.62,-217 1690.47,-217 1697.88,-217"/>
<polygon fill="midnightblue" stroke="midnightblue" points="1672.25,-213.5 1662.25,-217 1672.25,-220.5 1672.25,-213.5"/>
</g>
<!-- Node7&#45;&gt;Node1 -->
<g id="edge11" class="edge"><title>Node7&#45;&gt;Node1</title>
<path fill="none" stroke="midnightblue" d="M144.816,-85.9232C126.687,-83.6967 108.714,-81.0978 94.049,-78.507"/>
<polygon fill="midnightblue" stroke="midnightblue" points="144.541,-89.415 154.884,-87.1195 145.367,-82.4639 144.541,-89.415"/>
</g>
<!-- Node8 -->
<g id="node8" class="node"><title>Node8</title>
<g id="a_node8"><a xlink:href="classMap.html#aba5154a4d917900679a3c0f7ec701561" target="_top" xlink:title="Increase Height Increases the height of the node and checks the surrounding tiles. Either draw a slope sprite or elevate the tile if necessary. ">
<polygon fill="none" stroke="black" points="507,-79.5 507,-98.5 622,-98.5 622,-79.5 507,-79.5"/>
<text text-anchor="middle" x="564.5" y="-86.5" font-family="Helvetica,sans-Serif" font-size="10.00">Map::increaseHeight</text>
</a>
</g>
</g>
<!-- Node7&#45;&gt;Node8 -->
<g id="edge7" class="edge"><title>Node7&#45;&gt;Node8</title>
<path fill="none" stroke="midnightblue" d="M326.298,-83.6261C384.032,-82.3575 457.272,-82.416 506.987,-83.9208"/>
<polygon fill="midnightblue" stroke="midnightblue" points="325.989,-80.1324 316.075,-83.869 326.155,-87.1304 325.989,-80.1324"/>
</g>
<!-- Node10 -->
<g id="node10" class="node"><title>Node10</title>
<g id="a_node10"><a xlink:href="classMap.html#a481b37ba71ef0e51e836fc42805762dd" target="_top" xlink:title="Update all mapNodes Updates all mapNode and its adjacent tiles regarding height information, draws slopes for adjacent tiles and sets tiling for mapNode sprite if applicable. ">
<polygon fill="none" stroke="black" points="352,-171.5 352,-190.5 471,-190.5 471,-171.5 352,-171.5"/>
<text text-anchor="middle" x="411.5" y="-178.5" font-family="Helvetica,sans-Serif" font-size="10.00">Map::updateAllNodes</text>
</a>
</g>
</g>
<!-- Node7&#45;&gt;Node10 -->
<g id="edge12" class="edge"><title>Node7&#45;&gt;Node10</title>
<path fill="none" stroke="midnightblue" d="M259.236,-105.244C282.054,-120.14 318.527,-142.867 352,-159 361.579,-163.617 372.397,-167.923 382.102,-171.479"/>
<polygon fill="midnightblue" stroke="midnightblue" points="260.901,-102.15 250.625,-99.5705 257.05,-107.995 260.901,-102.15"/>
</g>
<!-- Node20 -->
<g id="node20" class="node"><title>Node20</title>
<g id="a_node20"><a xlink:href="classMap.html#ad4c2c2f80eab02ca32a748a62a56da12" target="_top" xlink:title="Set the Tile ID Of Node object Also invokes all necessary texture updates (auto&#45;tiling, slopes, ...) ">
<polygon fill="none" stroke="black" points="352,-130.5 352,-149.5 471,-149.5 471,-130.5 352,-130.5"/>
<text text-anchor="middle" x="411.5" y="-137.5" font-family="Helvetica,sans-Serif" font-size="10.00">Map::setTileIDOfNode</text>
</a>
</g>
</g>
<!-- Node7&#45;&gt;Node20 -->
<g id="edge32" class="edge"><title>Node7&#45;&gt;Node20</title>
<path fill="none" stroke="midnightblue" d="M279.471,-102.348C309.644,-111.018 349.412,-122.446 377.19,-130.428"/>
<polygon fill="midnightblue" stroke="midnightblue" points="280.215,-98.9203 269.638,-99.5223 278.282,-105.648 280.215,-98.9203"/>
</g>
<!-- Node22 -->
<g id="node22" class="node"><title>Node22</title>
<g id="a_node22"><a xlink:href="classMap.html#a05e7d896dc5062af07c9b838600a068d" target="_top" xlink:title="Demolish a node Invokes the tiles demolish function. ">
<polygon fill="none" stroke="black" points="355.5,-36.5 355.5,-55.5 467.5,-55.5 467.5,-36.5 355.5,-36.5"/>
<text text-anchor="middle" x="411.5" y="-43.5" font-family="Helvetica,sans-Serif" font-size="10.00">Map::demolishNode</text>
</a>
</g>
</g>
<!-- Node7&#45;&gt;Node22 -->
<g id="edge35" class="edge"><title>Node7&#45;&gt;Node22</title>
<path fill="none" stroke="midnightblue" d="M266.188,-77.2649C290.539,-69.5625 325.682,-60.3066 355.191,-53.651"/>
<polygon fill="midnightblue" stroke="midnightblue" points="264.869,-74.0139 256.46,-80.4587 267.053,-80.6646 264.869,-74.0139"/>
</g>
<!-- Node8&#45;&gt;Node7 -->
<g id="edge10" class="edge"><title>Node8&#45;&gt;Node7</title>
<path fill="none" stroke="midnightblue" d="M496.807,-94.7672C444.474,-96.3928 371.46,-96.7242 316.075,-95.6443"/>
<polygon fill="midnightblue" stroke="midnightblue" points="497.11,-98.2591 506.987,-94.4249 496.875,-91.2631 497.11,-98.2591"/>
</g>
<!-- Node9 -->
<g id="node9" class="node"><title>Node9</title>
<g id="a_node9"><a xlink:href="classEngine.html#aa7210df73b284c19cd6edcfa99a4532e" target="_top" xlink:title="Increase Height Increases the height of the given map node Calls the according function of the Map ob...">
<polygon fill="none" stroke="black" points="658,-77.5 658,-96.5 785,-96.5 785,-77.5 658,-77.5"/>
<text text-anchor="middle" x="721.5" y="-84.5" font-family="Helvetica,sans-Serif" font-size="10.00">Engine::increaseHeight</text>
</a>
</g>
</g>
<!-- Node8&#45;&gt;Node9 -->
<g id="edge8" class="edge"><title>Node8&#45;&gt;Node9</title>
<path fill="none" stroke="midnightblue" d="M632.515,-88.1353C640.951,-88.0264 649.556,-87.9154 657.92,-87.8075"/>
<polygon fill="midnightblue" stroke="midnightblue" points="632.29,-84.6378 622.336,-88.2666 632.381,-91.6372 632.29,-84.6378"/>
</g>
<!-- Node9&#45;&gt;Node3 -->
<g id="edge9" class="edge"><title>Node9&#45;&gt;Node3</title>
<path fill="none" stroke="midnightblue" d="M795.285,-89.355C888.168,-92.3603 1048.03,-97.5327 1141.97,-100.572"/>
<polygon fill="midnightblue" stroke="midnightblue" points="795.237,-85.8517 785.129,-89.0264 795.01,-92.8481 795.237,-85.8517"/>
</g>
<!-- Node11 -->
<g id="node11" class="node"><title>Node11</title>
<g id="a_node11"><a xlink:href="classMap.html#a482ac34426e8aa66abb46f60ec329402" target="_top" xlink:title="Initialize the Map with node objects Initialize the Map with node objects. ">
<polygon fill="none" stroke="black" points="526,-209.5 526,-228.5 603,-228.5 603,-209.5 526,-209.5"/>
<text text-anchor="middle" x="564.5" y="-216.5" font-family="Helvetica,sans-Serif" font-size="10.00">Map::initMap</text>
</a>
</g>
</g>
<!-- Node10&#45;&gt;Node11 -->
<g id="edge13" class="edge"><title>Node10&#45;&gt;Node11</title>
<path fill="none" stroke="midnightblue" d="M460.381,-193.05C481.561,-198.38 506.104,-204.556 525.932,-209.546"/>
<polygon fill="midnightblue" stroke="midnightblue" points="461.156,-189.635 450.604,-190.589 459.447,-196.424 461.156,-189.635"/>
</g>
<!-- Node17 -->
<g id="node17" class="node"><title>Node17</title>
<g id="a_node17"><a xlink:href="classMap.html#afefe996cc1f62b61ec60d0ae415953bf" target="_top" xlink:title="Map::loadMapFromFile">
<polygon fill="none" stroke="black" points="660.5,-188.5 660.5,-207.5 782.5,-207.5 782.5,-188.5 660.5,-188.5"/>
<text text-anchor="middle" x="721.5" y="-195.5" font-family="Helvetica,sans-Serif" font-size="10.00">Map::loadMapFromFile</text>
</a>
</g>
</g>
<!-- Node10&#45;&gt;Node17 -->
<g id="edge31" class="edge"><title>Node10&#45;&gt;Node17</title>
<path fill="none" stroke="midnightblue" d="M481.292,-184.797C535.073,-187.765 609.087,-191.851 660.485,-194.687"/>
<polygon fill="midnightblue" stroke="midnightblue" points="481.335,-181.294 471.157,-184.238 480.949,-188.283 481.335,-181.294"/>
</g>
<!-- Node12 -->
<g id="node12" class="node"><title>Node12</title>
<g id="a_node12"><a xlink:href="classEngine.html#a260d4834150eae6eec2bde34df6dc827" target="_top" xlink:title="Creates a new game Creates a new game. ">
<polygon fill="none" stroke="black" points="835,-302.5 835,-321.5 938,-321.5 938,-302.5 835,-302.5"/>
<text text-anchor="middle" x="886.5" y="-309.5" font-family="Helvetica,sans-Serif" font-size="10.00">Engine::newGame</text>
</a>
</g>
</g>
<!-- Node11&#45;&gt;Node12 -->
<g id="edge14" class="edge"><title>Node11&#45;&gt;Node12</title>
<path fill="none" stroke="midnightblue" d="M608.109,-231.383C672.746,-250.168 794.213,-285.47 852.565,-302.428"/>
<polygon fill="midnightblue" stroke="midnightblue" points="608.821,-227.945 598.242,-228.516 606.868,-234.667 608.821,-227.945"/>
</g>
<!-- Node11&#45;&gt;Node17 -->
<g id="edge23" class="edge"><title>Node11&#45;&gt;Node17</title>
<path fill="none" stroke="midnightblue" d="M613.045,-212.558C627.978,-210.535 644.664,-208.274 660.351,-206.149"/>
<polygon fill="midnightblue" stroke="midnightblue" points="612.461,-209.106 603.021,-213.916 613.401,-216.042 612.461,-209.106"/>
</g>
<!-- Node12&#45;&gt;Node4 -->
<g id="edge22" class="edge"><title>Node12&#45;&gt;Node4</title>
<path fill="none" stroke="midnightblue" d="M916.257,-325.678C935.953,-334.267 962.946,-344.535 988,-349 1034.82,-357.344 1047.89,-355.465 1095,-349 1242.2,-328.802 1411.34,-269.038 1473.98,-245.593"/>
<polygon fill="midnightblue" stroke="midnightblue" points="917.5,-322.4 906.943,-321.505 914.638,-328.788 917.5,-322.4"/>
</g>
<!-- Node13 -->
<g id="node13" class="node"><title>Node13</title>
<g id="a_node13"><a xlink:href="classEngine.html#af7de8d74b0cfacaf06df53e7caf11538" target="_top" xlink:title="Engine::saveGame">
<polygon fill="none" stroke="black" points="988,-302.5 988,-321.5 1095,-321.5 1095,-302.5 988,-302.5"/>
<text text-anchor="middle" x="1041.5" y="-309.5" font-family="Helvetica,sans-Serif" font-size="10.00">Engine::saveGame</text>
</a>
</g>
</g>
<!-- Node12&#45;&gt;Node13 -->
<g id="edge15" class="edge"><title>Node12&#45;&gt;Node13</title>
<path fill="none" stroke="midnightblue" d="M948.356,-312C961.451,-312 975.185,-312 987.933,-312"/>
<polygon fill="midnightblue" stroke="midnightblue" points="948.022,-308.5 938.022,-312 948.022,-315.5 948.022,-308.5"/>
</g>
<!-- Node14 -->
<g id="node14" class="node"><title>Node14</title>
<g id="a_node14"><a xlink:href="classUIManager.html#aa78e356fc3b356d790c848319d1c387e" target="_top" xlink:title="UIManager::setCallbackFunctions">
<polygon fill="none" stroke="black" points="1131,-226.5 1131,-245.5 1305,-245.5 1305,-226.5 1131,-226.5"/>
<text text-anchor="middle" x="1218" y="-233.5" font-family="Helvetica,sans-Serif" font-size="10.00">UIManager::setCallbackFunctions</text>
</a>
</g>
</g>
<!-- Node12&#45;&gt;Node14 -->
<g id="edge19" class="edge"><title>Node12&#45;&gt;Node14</title>
<path fill="none" stroke="midnightblue" d="M924.504,-324.385C966.882,-336.541 1037.83,-350.634 1095,-331 1145.27,-313.736 1190.76,-266.348 1208.79,-245.761"/>
<polygon fill="midnightblue" stroke="midnightblue" points="925.468,-321.02 914.884,-321.517 923.468,-327.728 925.468,-321.02"/>
</g>
<!-- Node16 -->
<g id="node16" class="node"><title>Node16</title>
<g id="a_node16"><a xlink:href="classGame.html#a5ed7fc5be77080f7f6dd5363f7f007a1" target="_top" xlink:title="Game::mainMenu">
<polygon fill="none" stroke="black" points="1167,-188.5 1167,-207.5 1269,-207.5 1269,-188.5 1167,-188.5"/>
<text text-anchor="middle" x="1218" y="-195.5" font-family="Helvetica,sans-Serif" font-size="10.00">Game::mainMenu</text>
</a>
</g>
</g>
<!-- Node12&#45;&gt;Node16 -->
<g id="edge20" class="edge"><title>Node12&#45;&gt;Node16</title>
<path fill="none" stroke="midnightblue" d="M917.914,-298.372C963.484,-278.36 1052.52,-240.822 1131,-217 1142.71,-213.447 1155.49,-210.259 1167.54,-207.555"/>
<polygon fill="midnightblue" stroke="midnightblue" points="916.341,-295.241 908.606,-302.482 919.168,-301.644 916.341,-295.241"/>
</g>
<!-- Node13&#45;&gt;Node14 -->
<g id="edge16" class="edge"><title>Node13&#45;&gt;Node14</title>
<path fill="none" stroke="midnightblue" d="M1073.88,-298.334C1108.85,-283.102 1164.5,-258.867 1195.08,-245.547"/>
<polygon fill="midnightblue" stroke="midnightblue" points="1072.37,-295.173 1064.6,-302.375 1075.17,-301.59 1072.37,-295.173"/>
</g>
<!-- Node15 -->
<g id="node15" class="node"><title>Node15</title>
<g id="a_node15"><a xlink:href="classUIManager.html#aedd9d0577af515a852425dfe414b2968" target="_top" xlink:title="Parses the UiLayout.json files and creates UI Elements. ">
<polygon fill="none" stroke="black" points="1341,-226.5 1341,-245.5 1430,-245.5 1430,-226.5 1341,-226.5"/>
<text text-anchor="middle" x="1385.5" y="-233.5" font-family="Helvetica,sans-Serif" font-size="10.00">UIManager::init</text>
</a>
</g>
</g>
<!-- Node14&#45;&gt;Node15 -->
<g id="edge17" class="edge"><title>Node14&#45;&gt;Node15</title>
<path fill="none" stroke="midnightblue" d="M1315.28,-236C1324.19,-236 1332.89,-236 1340.95,-236"/>
<polygon fill="midnightblue" stroke="midnightblue" points="1315.14,-232.5 1305.14,-236 1315.14,-239.5 1315.14,-232.5"/>
</g>
<!-- Node15&#45;&gt;Node4 -->
<g id="edge18" class="edge"><title>Node15&#45;&gt;Node4</title>
<path fill="none" stroke="midnightblue" d="M1440.45,-236C1449.15,-236 1457.92,-236 1465.93,-236"/>
<polygon fill="midnightblue" stroke="midnightblue" points="1440.32,-232.5 1430.32,-236 1440.32,-239.5 1440.32,-232.5"/>
</g>
<!-- Node16&#45;&gt;Node5 -->
<g id="edge21" class="edge"><title>Node16&#45;&gt;Node5</title>
<path fill="none" stroke="midnightblue" d="M1279.55,-200.905C1359.5,-204.741 1498.46,-211.408 1569.83,-214.833"/>
<polygon fill="midnightblue" stroke="midnightblue" points="1279.31,-197.39 1269.15,-200.406 1278.97,-204.382 1279.31,-197.39"/>
</g>
<!-- Node18 -->
<g id="node18" class="node"><title>Node18</title>
<g id="a_node18"><a xlink:href="classEngine.html#a83b7dbeee899b36a13d5b07c7ad87ebc" target="_top" xlink:title="Loads a saved game Loads a saved Game. ">
<polygon fill="none" stroke="black" points="834.5,-188.5 834.5,-207.5 938.5,-207.5 938.5,-188.5 834.5,-188.5"/>
<text text-anchor="middle" x="886.5" y="-195.5" font-family="Helvetica,sans-Serif" font-size="10.00">Engine::loadGame</text>
</a>
</g>
</g>
<!-- Node17&#45;&gt;Node18 -->
<g id="edge24" class="edge"><title>Node17&#45;&gt;Node18</title>
<path fill="none" stroke="midnightblue" d="M792.796,-198C806.759,-198 821.169,-198 834.344,-198"/>
<polygon fill="midnightblue" stroke="midnightblue" points="792.732,-194.5 782.732,-198 792.732,-201.5 792.732,-194.5"/>
</g>
<!-- Node18&#45;&gt;Node14 -->
<g id="edge29" class="edge"><title>Node18&#45;&gt;Node14</title>
<path fill="none" stroke="midnightblue" d="M948.792,-206.876C961.73,-208.655 975.306,-210.451 988,-212 1035.12,-217.75 1087.8,-223.329 1130.74,-227.659"/>
<polygon fill="midnightblue" stroke="midnightblue" points="948.969,-203.367 938.583,-205.458 948.007,-210.301 948.969,-203.367"/>
</g>
<!-- Node18&#45;&gt;Node16 -->
<g id="edge30" class="edge"><title>Node18&#45;&gt;Node16</title>
<path fill="none" stroke="midnightblue" d="M948.799,-198C1011.69,-198 1108.35,-198 1166.84,-198"/>
<polygon fill="midnightblue" stroke="midnightblue" points="948.623,-194.5 938.623,-198 948.623,-201.5 948.623,-194.5"/>
</g>
<!-- Node19 -->
<g id="node19" class="node"><title>Node19</title>
<g id="a_node19"><a xlink:href="classEngine.html#a0ba57971ffb5173ecc425461f65a4cd8" target="_top" xlink:title="Quits the game Sets m_running to false and quitting the game. ">
<polygon fill="none" stroke="black" points="990.5,-150.5 990.5,-169.5 1092.5,-169.5 1092.5,-150.5 990.5,-150.5"/>
<text text-anchor="middle" x="1041.5" y="-157.5" font-family="Helvetica,sans-Serif" font-size="10.00">Engine::quitGame</text>
</a>
</g>
</g>
<!-- Node18&#45;&gt;Node19 -->
<g id="edge25" class="edge"><title>Node18&#45;&gt;Node19</title>
<path fill="none" stroke="midnightblue" d="M935.977,-185.96C957.352,-180.651 982.113,-174.501 1002.17,-169.52"/>
<polygon fill="midnightblue" stroke="midnightblue" points="934.97,-182.604 926.108,-188.411 936.657,-189.397 934.97,-182.604"/>
</g>
<!-- Node19&#45;&gt;Node3 -->
<g id="edge26" class="edge"><title>Node19&#45;&gt;Node3</title>
<path fill="none" stroke="midnightblue" d="M1081.24,-147.344C1113.41,-136.837 1158.47,-122.118 1187.7,-112.572"/>
<polygon fill="midnightblue" stroke="midnightblue" points="1080.13,-144.027 1071.71,-150.459 1082.3,-150.681 1080.13,-144.027"/>
</g>
<!-- Node19&#45;&gt;Node14 -->
<g id="edge27" class="edge"><title>Node19&#45;&gt;Node14</title>
<path fill="none" stroke="midnightblue" d="M1062.48,-175.834C1079.7,-188.728 1105.72,-206.465 1131,-217 1140.17,-220.823 1150.23,-223.929 1160.14,-226.437"/>
<polygon fill="midnightblue" stroke="midnightblue" points="1064.4,-172.892 1054.33,-169.596 1060.14,-178.451 1064.4,-172.892"/>
</g>
<!-- Node19&#45;&gt;Node16 -->
<g id="edge28" class="edge"><title>Node19&#45;&gt;Node16</title>
<path fill="none" stroke="midnightblue" d="M1096.47,-171.753C1121.14,-177.126 1149.99,-183.409 1173.28,-188.48"/>
<polygon fill="midnightblue" stroke="midnightblue" points="1097.05,-168.297 1086.53,-169.589 1095.56,-175.137 1097.05,-168.297"/>
</g>
<!-- Node21 -->
<g id="node21" class="node"><title>Node21</title>
<g id="a_node21"><a xlink:href="classEngine.html#a89f23eaccc126a355d287e1959b4556f" target="_top" xlink:title="Engine::setTileIDOfNode">
<polygon fill="none" stroke="black" points="821,-119.5 821,-138.5 952,-138.5 952,-119.5 821,-119.5"/>
<text text-anchor="middle" x="886.5" y="-126.5" font-family="Helvetica,sans-Serif" font-size="10.00">Engine::setTileIDOfNode</text>
</a>
</g>
</g>
<!-- Node20&#45;&gt;Node21 -->
<g id="edge33" class="edge"><title>Node20&#45;&gt;Node21</title>
<path fill="none" stroke="midnightblue" d="M481.68,-138.391C572.853,-136.271 732.04,-132.569 820.879,-130.503"/>
<polygon fill="midnightblue" stroke="midnightblue" points="481.365,-134.897 471.449,-138.629 481.528,-141.896 481.365,-134.897"/>
</g>
<!-- Node21&#45;&gt;Node3 -->
<g id="edge34" class="edge"><title>Node21&#45;&gt;Node3</title>
<path fill="none" stroke="midnightblue" d="M962.343,-123.094C1016.01,-118.86 1088.02,-113.177 1141.77,-108.936"/>
<polygon fill="midnightblue" stroke="midnightblue" points="961.899,-119.618 952.205,-123.894 962.45,-126.597 961.899,-119.618"/>
</g>
<!-- Node22&#45;&gt;Node1 -->
<g id="edge39" class="edge"><title>Node22&#45;&gt;Node1</title>
<path fill="none" stroke="midnightblue" d="M345.361,-50.2806C280.427,-54.5476 181.61,-61.0413 119.082,-65.1503"/>
<polygon fill="midnightblue" stroke="midnightblue" points="345.732,-53.7638 355.481,-49.6155 345.273,-46.7789 345.732,-53.7638"/>
</g>
<!-- Node22&#45;&gt;Node7 -->
<g id="edge40" class="edge"><title>Node22&#45;&gt;Node7</title>
<path fill="none" stroke="midnightblue" d="M380.595,-58.8036C358.558,-65.7643 327.767,-73.9806 300.303,-80.3979"/>
<polygon fill="midnightblue" stroke="midnightblue" points="381.947,-62.0439 390.359,-55.6032 379.767,-55.3921 381.947,-62.0439"/>
</g>
<!-- Node22&#45;&gt;Node8 -->
<g id="edge38" class="edge"><title>Node22&#45;&gt;Node8</title>
<path fill="none" stroke="midnightblue" d="M455.783,-58.3257C479.405,-65.0525 508.206,-73.2541 530.082,-79.4836"/>
<polygon fill="midnightblue" stroke="midnightblue" points="456.588,-54.9158 446.012,-55.5431 454.671,-61.6481 456.588,-54.9158"/>
</g>
<!-- Node23 -->
<g id="node23" class="node"><title>Node23</title>
<g id="a_node23"><a xlink:href="classEngine.html#a2824c5146c900c0d048d97c5e0e0ef69" target="_top" xlink:title="Engine::demolishNode">
<polygon fill="none" stroke="black" points="659.5,-36.5 659.5,-55.5 783.5,-55.5 783.5,-36.5 659.5,-36.5"/>
<text text-anchor="middle" x="721.5" y="-43.5" font-family="Helvetica,sans-Serif" font-size="10.00">Engine::demolishNode</text>
</a>
</g>
</g>
<!-- Node22&#45;&gt;Node23 -->
<g id="edge36" class="edge"><title>Node22&#45;&gt;Node23</title>
<path fill="none" stroke="midnightblue" d="M477.651,-46C531.29,-46 606.787,-46 659.311,-46"/>
<polygon fill="midnightblue" stroke="midnightblue" points="477.564,-42.5001 467.564,-46 477.564,-49.5001 477.564,-42.5001"/>
</g>
<!-- Node23&#45;&gt;Node3 -->
<g id="edge37" class="edge"><title>Node23&#45;&gt;Node3</title>
<path fill="none" stroke="midnightblue" d="M793.752,-54.2131C886.37,-64.8889 1047.4,-83.4509 1141.88,-94.3412"/>
<polygon fill="midnightblue" stroke="midnightblue" points="793.966,-50.7147 783.631,-53.0465 793.165,-57.6686 793.966,-50.7147"/>
</g>
</g>
</svg>
