<?xml version="1.0" encoding="UTF-8" standalone="no"?>
<!DOCTYPE svg PUBLIC "-//W3C//DTD SVG 1.1//EN"
 "http://www.w3.org/Graphics/SVG/1.1/DTD/svg11.dtd">
<!-- Generated by graphviz version 2.38.0 (20140413.2041)
 -->
<!-- Title: TileManager::calculateTileOrientation Pages: 1 -->
<svg width="643pt" height="120pt"
 viewBox="0.00 0.00 643.00 119.60" xmlns="http://www.w3.org/2000/svg" xmlns:xlink="http://www.w3.org/1999/xlink">
<g id="graph0" class="graph" transform="scale(1 1) rotate(0) translate(4 115.597)">
<title>TileManager::calculateTileOrientation</title>
<!-- Node1 -->
<g id="node1" class="node"><title>Node1</title>
<polygon fill="#bfbfbf" stroke="black" points="0,-52 0,-82 139,-82 139,-52 0,-52"/>
<text text-anchor="start" x="8" y="-70" font-family="Helvetica,sans-Serif" font-size="10.00">TileManager::calculateTile</text>
<text text-anchor="middle" x="69.5" y="-59" font-family="Helvetica,sans-Serif" font-size="10.00">Orientation</text>
</g>
<!-- Node2 -->
<g id="node2" class="node"><title>Node2</title>
<g id="a_node2"><a xlink:href="classMapNode.html#a0951fd739ee0a3e0263ef412596811dd" target="_top" xlink:title="MapNode::updateTexture">
<polygon fill="none" stroke="black" points="175,-57.5 175,-76.5 312,-76.5 312,-57.5 175,-57.5"/>
<text text-anchor="middle" x="243.5" y="-64.5" font-family="Helvetica,sans-Serif" font-size="10.00">MapNode::updateTexture</text>
</a>
</g>
</g>
<!-- Node1&#45;&gt;Node2 -->
<g id="edge1" class="edge"><title>Node1&#45;&gt;Node2</title>
<path fill="none" stroke="midnightblue" d="M149.686,-67C158.117,-67 166.636,-67 174.916,-67"/>
<polygon fill="midnightblue" stroke="midnightblue" points="149.468,-63.5001 139.468,-67 149.468,-70.5001 149.468,-63.5001"/>
</g>
<!-- Node3 -->
<g id="node3" class="node"><title>Node3</title>
<g id="a_node3"><a xlink:href="classMapNode.html#ac2fd11448837a8b56a58601238e824b2" target="_top" xlink:title="MapNode::MapNode">
<polygon fill="none" stroke="black" points="521,-76.5 521,-95.5 635,-95.5 635,-76.5 521,-76.5"/>
<text text-anchor="middle" x="578" y="-83.5" font-family="Helvetica,sans-Serif" font-size="10.00">MapNode::MapNode</text>
</a>
</g>
</g>
<!-- Node2&#45;&gt;Node3 -->
<g id="edge2" class="edge"><title>Node2&#45;&gt;Node3</title>
<path fill="none" stroke="midnightblue" d="M273.462,-80.7618C293.802,-89.6397 321.925,-100.365 348,-105 407.949,-115.657 424.427,-111.19 485,-105 503.172,-103.143 523.053,-99.2743 539.669,-95.5094"/>
<polygon fill="midnightblue" stroke="midnightblue" points="274.702,-77.4822 264.145,-76.5867 271.84,-83.8701 274.702,-77.4822"/>
</g>
<!-- Node4 -->
<g id="node4" class="node"><title>Node4</title>
<g id="a_node4"><a xlink:href="classMapNode.html#a56edbdd0e77eeeb82db4d5884c96048b" target="_top" xlink:title="MapNode::setBitmask">
<polygon fill="none" stroke="black" points="355.5,-76.5 355.5,-95.5 477.5,-95.5 477.5,-76.5 355.5,-76.5"/>
<text text-anchor="middle" x="416.5" y="-83.5" font-family="Helvetica,sans-Serif" font-size="10.00">MapNode::setBitmask</text>
</a>
</g>
</g>
<!-- Node2&#45;&gt;Node4 -->
<g id="edge3" class="edge"><title>Node2&#45;&gt;Node4</title>
<path fill="none" stroke="midnightblue" d="M322.22,-75.6355C333.335,-76.8706 344.627,-78.1252 355.336,-79.3151"/>
<polygon fill="midnightblue" stroke="midnightblue" points="322.409,-72.1351 312.084,-74.5093 321.636,-79.0923 322.409,-72.1351"/>
</g>
<!-- Node5 -->
<g id="node5" class="node"><title>Node5</title>
<g id="a_node5"><a xlink:href="classMapNode.html#a397a62e9263feef6c9c85b4e17ef31cb" target="_top" xlink:title="MapNode::setTileID">
<polygon fill="none" stroke="black" points="362,-38.5 362,-57.5 471,-57.5 471,-38.5 362,-38.5"/>
<text text-anchor="middle" x="416.5" y="-45.5" font-family="Helvetica,sans-Serif" font-size="10.00">MapNode::setTileID</text>
</a>
</g>
</g>
<!-- Node2&#45;&gt;Node5 -->
<g id="edge4" class="edge"><title>Node2&#45;&gt;Node5</title>
<path fill="none" stroke="midnightblue" d="M322.247,-58.3615C335.63,-56.8744 349.27,-55.3589 361.838,-53.9624"/>
<polygon fill="midnightblue" stroke="midnightblue" points="321.636,-54.9077 312.084,-59.4907 322.409,-61.8649 321.636,-54.9077"/>
</g>
<!-- Node6 -->
<g id="node6" class="node"><title>Node6</title>
<g id="a_node6"><a xlink:href="classMapNode.html#a604f1e438222bd6d77a6d59a7b39276a" target="_top" xlink:title="MapNode::demolishNode">
<polygon fill="none" stroke="black" points="348,-0.5 348,-19.5 485,-19.5 485,-0.5 348,-0.5"/>
<text text-anchor="middle" x="416.5" y="-7.5" font-family="Helvetica,sans-Serif" font-size="10.00">MapNode::demolishNode</text>
</a>
</g>
</g>
<!-- Node2&#45;&gt;Node6 -->
<g id="edge6" class="edge"><title>Node2&#45;&gt;Node6</title>
<path fill="none" stroke="midnightblue" d="M278.343,-53.8218C298.449,-46.1818 324.525,-36.6006 348,-29 358.192,-25.6999 369.353,-22.4236 379.613,-19.5445"/>
<polygon fill="midnightblue" stroke="midnightblue" points="277.079,-50.5577 268.99,-57.3993 279.58,-57.0957 277.079,-50.5577"/>
</g>
<!-- Node5&#45;&gt;Node3 -->
<g id="edge5" class="edge"><title>Node5&#45;&gt;Node3</title>
<path fill="none" stroke="midnightblue" d="M467.734,-59.968C490.086,-65.2931 516.038,-71.4762 537.041,-76.4799"/>
<polygon fill="midnightblue" stroke="midnightblue" points="468.288,-56.502 457.749,-57.589 466.665,-63.3114 468.288,-56.502"/>
</g>
</g>
</svg>
