<?xml version="1.0" encoding="UTF-8" standalone="no"?>
<!DOCTYPE svg PUBLIC "-//W3C//DTD SVG 1.1//EN"
 "http://www.w3.org/Graphics/SVG/1.1/DTD/svg11.dtd">
<!-- Generated by graphviz version 2.38.0 (20140413.2041)
 -->
<!-- Title: Checkbox::onMouseLeave Pages: 1 -->
<svg width="551pt" height="88pt"
 viewBox="0.00 0.00 551.00 88.00" xmlns="http://www.w3.org/2000/svg" xmlns:xlink="http://www.w3.org/1999/xlink">
<g id="graph0" class="graph" transform="scale(1 1) rotate(0) translate(4 84)">
<title>Checkbox::onMouseLeave</title>
<!-- Node1 -->
<g id="node1" class="node"><title>Node1</title>
<polygon fill="#bfbfbf" stroke="black" points="0,-19.5 0,-38.5 141,-38.5 141,-19.5 0,-19.5"/>
<text text-anchor="middle" x="70.5" y="-26.5" font-family="Helvetica,sans-Serif" font-size="10.00">Checkbox::onMouseLeave</text>
</g>
<!-- Node2 -->
<g id="node2" class="node"><title>Node2</title>
<g id="a_node2"><a xlink:href="classUIElement.html#ade4162d6216022e143c769369b64add7" target="_top" xlink:title="Set the button state Sets the mouse button pressed state. ">
<polygon fill="none" stroke="black" points="177,-38.5 177,-57.5 343,-57.5 343,-38.5 177,-38.5"/>
<text text-anchor="middle" x="260" y="-45.5" font-family="Helvetica,sans-Serif" font-size="10.00">UIElement::changeButtonState</text>
</a>
</g>
</g>
<!-- Node1&#45;&gt;Node2 -->
<g id="edge1" class="edge"><title>Node1&#45;&gt;Node2</title>
<path fill="none" stroke="midnightblue" d="M141.052,-36.0479C149.441,-36.8981 158.109,-37.7763 166.759,-38.6529"/>
<polygon fill="midnightblue" stroke="midnightblue" points="166.586,-42.1532 176.888,-39.6793 167.291,-35.1889 166.586,-42.1532"/>
</g>
<!-- Node5 -->
<g id="node5" class="node"><title>Node5</title>
<g id="a_node5"><a xlink:href="classUIElement.html#a98725ac250168ebb2fa676dd481ff495" target="_top" xlink:title="Get the button state Get the current mouse button pressed state. ">
<polygon fill="none" stroke="black" points="187,-0.5 187,-19.5 333,-19.5 333,-0.5 187,-0.5"/>
<text text-anchor="middle" x="260" y="-7.5" font-family="Helvetica,sans-Serif" font-size="10.00">UIElement::getButtonState</text>
</a>
</g>
</g>
<!-- Node1&#45;&gt;Node5 -->
<g id="edge4" class="edge"><title>Node1&#45;&gt;Node5</title>
<path fill="none" stroke="midnightblue" d="M141.052,-21.9521C152.579,-20.784 164.629,-19.5629 176.44,-18.3661"/>
<polygon fill="midnightblue" stroke="midnightblue" points="177.141,-21.813 186.738,-17.3226 176.436,-14.8487 177.141,-21.813"/>
</g>
<!-- Node3 -->
<g id="node3" class="node"><title>Node3</title>
<g id="a_node3"><a xlink:href="classUIElement.html#afdf67550d4140097c7a328d4b22fc1fe" target="_top" xlink:title="UIElement::changeTexture">
<polygon fill="none" stroke="black" points="390,-60.5 390,-79.5 532,-79.5 532,-60.5 390,-60.5"/>
<text text-anchor="middle" x="461" y="-67.5" font-family="Helvetica,sans-Serif" font-size="10.00">UIElement::changeTexture</text>
</a>
</g>
</g>
<!-- Node2&#45;&gt;Node3 -->
<g id="edge2" class="edge"><title>Node2&#45;&gt;Node3</title>
<path fill="none" stroke="midnightblue" d="M343.09,-57.0753C355.218,-58.4161 367.703,-59.7963 379.792,-61.1328"/>
<polygon fill="midnightblue" stroke="midnightblue" points="379.514,-64.6233 389.838,-62.2434 380.283,-57.6657 379.514,-64.6233"/>
</g>
<!-- Node4 -->
<g id="node4" class="node"><title>Node4</title>
<g id="a_node4"><a xlink:href="classSingleton.html#af5cb1e5749949e2b68416cfb8d378044" target="_top" xlink:title="Get an instance of the singleton. ">
<polygon fill="none" stroke="black" points="379,-11 379,-41 543,-41 543,-11 379,-11"/>
<text text-anchor="start" x="387" y="-29" font-family="Helvetica,sans-Serif" font-size="10.00">Singleton&lt; ResourcesManager</text>
<text text-anchor="middle" x="461" y="-18" font-family="Helvetica,sans-Serif" font-size="10.00"> &gt;::instance</text>
</a>
</g>
</g>
<!-- Node2&#45;&gt;Node4 -->
<g id="edge3" class="edge"><title>Node2&#45;&gt;Node4</title>
<path fill="none" stroke="midnightblue" d="M343.09,-38.9247C351.555,-37.9889 360.193,-37.034 368.749,-36.088"/>
<polygon fill="midnightblue" stroke="midnightblue" points="369.186,-39.5612 378.741,-34.9834 368.417,-32.6036 369.186,-39.5612"/>
</g>
</g>
</svg>
