<?xml version="1.0" encoding="UTF-8" standalone="no"?>
<!DOCTYPE svg PUBLIC "-//W3C//DTD SVG 1.1//EN"
 "http://www.w3.org/Graphics/SVG/1.1/DTD/svg11.dtd">
<!-- Generated by graphviz version 2.38.0 (20140413.2041)
 -->
<!-- Title: TileManager::getAllTileData Pages: 1 -->
<!--zoomable 143 -->
<svg id="main" version="1.1" xmlns="http://www.w3.org/2000/svg" xmlns:xlink="http://www.w3.org/1999/xlink" xml:space="preserve" onload="init(evt)">
<style type="text/css"><![CDATA[
.edge:hover path { stroke: red; }
.edge:hover polygon { stroke: red; fill: red; }
]]></style>
<script type="text/javascript"><![CDATA[
var edges = document.getElementsByTagName('g');
if (edges && edges.length) {
  for (var i=0;i<edges.length;i++) {
    if (edges[i].id.substr(0,4)=='edge') {
      edges[i].setAttribute('class','edge');
    }
  }
}
]]></script>
        <defs>
                <circle id="rim" cx="0" cy="0" r="7"/>
                <circle id="rim2" cx="0" cy="0" r="3.5"/>
                <g id="zoomPlus">
                        <use xlink:href="#rim" fill="#404040">
                                <set attributeName="fill" to="#808080" begin="zoomplus.mouseover" end="zoomplus.mouseout"/>
                        </use>
                        <path d="M-4,0h8M0,-4v8" fill="none" stroke="white" stroke-width="1.5" pointer-events="none"/>
                </g>
                <g id="zoomMin">
                        <use xlink:href="#rim" fill="#404040">
                                <set attributeName="fill" to="#808080" begin="zoomminus.mouseover" end="zoomminus.mouseout"/>
                        </use>
                        <path d="M-4,0h8" fill="none" stroke="white" stroke-width="1.5" pointer-events="none"/>
                </g>
                <g id="dirArrow">
                        <path fill="none" stroke="white" stroke-width="1.5" d="M0,-3.0v7 M-2.5,-0.5L0,-3.0L2.5,-0.5"/>
                </g>
               <g id="resetDef">
                       <use xlink:href="#rim2" fill="#404040">
                               <set attributeName="fill" to="#808080" begin="reset.mouseover" end="reset.mouseout"/>
                       </use>
               </g>
        </defs>

<script type="text/javascript">
var viewWidth = 1189;
var viewHeight = 143;
var sectionId = 'dynsection-9';
</script>
<script xlink:href="svgpan.js"/>
<svg id="graph" class="graph">
<g id="viewport">
<title>TileManager::getAllTileData</title>
<!-- Node1 -->
<g id="node1" class="node"><title>Node1</title>
<polygon fill="#bfbfbf" stroke="black" points="0,-96 0,-115 146,-115 146,-96 0,-96"/>
<text text-anchor="middle" x="73" y="-103" font-family="Helvetica,sans-Serif" font-size="10.00">TileManager::getAllTileData</text>
</g>
<!-- Node2 -->
<g id="node2" class="node"><title>Node2</title>
<g id="a_node2"><a xlink:href="classTileManager.html#a1575d9a9530e13fe0286b8fece9e47ea" target="_top" xlink:title="TileManager::init">
<polygon fill="none" stroke="black" points="364,-115 364,-134 459,-134 459,-115 364,-115"/>
<text text-anchor="middle" x="411.5" y="-122" font-family="Helvetica,sans-Serif" font-size="10.00">TileManager::init</text>
</a>
</g>
</g>
<!-- Node1&#45;&gt;Node2 -->
<g id="edge1" class="edge"><title>Node1&#45;&gt;Node2</title>
<path fill="none" stroke="midnightblue" d="M117.909,-115.012C137.431,-118.777 160.758,-122.646 182,-124.5 240.235,-129.583 307.136,-128.815 353.433,-127.247"/>
<polygon fill="midnightblue" stroke="midnightblue" points="353.704,-130.739 363.571,-126.879 353.45,-123.744 353.704,-130.739"/>
</g>
<!-- Node8 -->
<g id="node8" class="node"><title>Node8</title>
<g id="a_node8"><a xlink:href="classTileManager.html#ac6f5d9eb4db57f9ad597223658574394" target="_top" xlink:title="TileManager::TileManager">
<polygon fill="none" stroke="black" points="186,-96 186,-115 324,-115 324,-96 186,-96"/>
<text text-anchor="middle" x="255" y="-103" font-family="Helvetica,sans-Serif" font-size="10.00">TileManager::TileManager</text>
</a>
</g>
</g>
<!-- Node1&#45;&gt;Node8 -->
<g id="edge9" class="edge"><title>Node1&#45;&gt;Node8</title>
<path fill="none" stroke="midnightblue" d="M146.176,-105.5C155.903,-105.5 165.92,-105.5 175.746,-105.5"/>
<polygon fill="midnightblue" stroke="midnightblue" points="175.898,-109 185.898,-105.5 175.898,-102 175.898,-109"/>
</g>
<!-- Node9 -->
<g id="node9" class="node"><title>Node9</title>
<g id="a_node9"><a xlink:href="classTileManager.html#a4ee920ba2d77b9b106151242deb48d4e" target="_top" xlink:title="TileManager::~TileManager">
<polygon fill="none" stroke="black" points="182,-58 182,-77 328,-77 328,-58 182,-58"/>
<text text-anchor="middle" x="255" y="-65" font-family="Helvetica,sans-Serif" font-size="10.00">TileManager::~TileManager</text>
</a>
</g>
</g>
<!-- Node1&#45;&gt;Node9 -->
<g id="edge11" class="edge"><title>Node1&#45;&gt;Node9</title>
<path fill="none" stroke="midnightblue" d="M119.422,-95.911C143.603,-90.8061 173.527,-84.4887 199.014,-79.1082"/>
<polygon fill="midnightblue" stroke="midnightblue" points="199.844,-82.5102 208.905,-77.0201 198.398,-75.6612 199.844,-82.5102"/>
</g>
<!-- Node3 -->
<g id="node3" class="node"><title>Node3</title>
<g id="a_node3"><a xlink:href="classSingleton.html#af5cb1e5749949e2b68416cfb8d378044" target="_top" xlink:title="Get an instance of the singleton. ">
<polygon fill="none" stroke="black" points="1068,-93.5 1068,-123.5 1181,-123.5 1181,-93.5 1068,-93.5"/>
<text text-anchor="start" x="1076" y="-111.5" font-family="Helvetica,sans-Serif" font-size="10.00">Singleton&lt; Settings</text>
<text text-anchor="middle" x="1124.5" y="-100.5" font-family="Helvetica,sans-Serif" font-size="10.00"> &gt;::instance</text>
</a>
</g>
</g>
<!-- Node2&#45;&gt;Node3 -->
<g id="edge2" class="edge"><title>Node2&#45;&gt;Node3</title>
<path fill="none" stroke="midnightblue" d="M459.222,-126.571C562.631,-130.652 818.604,-137.98 1032,-121.5 1040.39,-120.852 1049.19,-119.923 1057.87,-118.856"/>
<polygon fill="midnightblue" stroke="midnightblue" points="1058.51,-122.303 1067.98,-117.549 1057.61,-115.361 1058.51,-122.303"/>
</g>
<!-- Node4 -->
<g id="node4" class="node"><title>Node4</title>
<g id="a_node4"><a xlink:href="classTileManager.html#a7fadfb60a38e76b474996c59672812cf" target="_top" xlink:title="TileManager::addJSONObject\lToTileData">
<polygon fill="none" stroke="black" points="495,-87.5 495,-117.5 648,-117.5 648,-87.5 495,-87.5"/>
<text text-anchor="start" x="503" y="-105.5" font-family="Helvetica,sans-Serif" font-size="10.00">TileManager::addJSONObject</text>
<text text-anchor="middle" x="571.5" y="-94.5" font-family="Helvetica,sans-Serif" font-size="10.00">ToTileData</text>
</a>
</g>
</g>
<!-- Node2&#45;&gt;Node4 -->
<g id="edge3" class="edge"><title>Node2&#45;&gt;Node4</title>
<path fill="none" stroke="midnightblue" d="M459.051,-118.018C467.252,-116.876 476.017,-115.656 484.895,-114.42"/>
<polygon fill="midnightblue" stroke="midnightblue" points="485.52,-117.867 494.942,-113.021 484.555,-110.933 485.52,-117.867"/>
</g>
<!-- Node4&#45;&gt;Node3 -->
<g id="edge4" class="edge"><title>Node4&#45;&gt;Node3</title>
<path fill="none" stroke="midnightblue" d="M648.247,-103.325C756.76,-104.506 954.68,-106.662 1057.51,-107.781"/>
<polygon fill="midnightblue" stroke="midnightblue" points="1057.73,-111.284 1067.77,-107.893 1057.8,-104.284 1057.73,-111.284"/>
</g>
<!-- Node5 -->
<g id="node5" class="node"><title>Node5</title>
<g id="a_node5"><a xlink:href="classResourcesManager.html#a0a56e6316b8145494b7d551c29c41d80" target="_top" xlink:title="ResourcesManager::loadTexture">
<polygon fill="none" stroke="black" points="684,-55 684,-74 852,-74 852,-55 684,-55"/>
<text text-anchor="middle" x="768" y="-62" font-family="Helvetica,sans-Serif" font-size="10.00">ResourcesManager::loadTexture</text>
</a>
</g>
</g>
<!-- Node4&#45;&gt;Node5 -->
<g id="edge5" class="edge"><title>Node4&#45;&gt;Node5</title>
<path fill="none" stroke="midnightblue" d="M648.256,-87.6994C668.237,-83.7955 689.494,-79.6426 708.417,-75.9456"/>
<polygon fill="midnightblue" stroke="midnightblue" points="709.229,-79.3532 718.372,-74.0005 707.887,-72.483 709.229,-79.3532"/>
</g>
<!-- Node6 -->
<g id="node6" class="node"><title>Node6</title>
<g id="a_node6"><a xlink:href="classResourcesManager.html#a54721d26f52c4887b735d2cdaf60b078" target="_top" xlink:title="ResourcesManager::create\lSurfaceFromFile">
<polygon fill="none" stroke="black" points="888,-49.5 888,-79.5 1032,-79.5 1032,-49.5 888,-49.5"/>
<text text-anchor="start" x="896" y="-67.5" font-family="Helvetica,sans-Serif" font-size="10.00">ResourcesManager::create</text>
<text text-anchor="middle" x="960" y="-56.5" font-family="Helvetica,sans-Serif" font-size="10.00">SurfaceFromFile</text>
</a>
</g>
</g>
<!-- Node5&#45;&gt;Node6 -->
<g id="edge6" class="edge"><title>Node5&#45;&gt;Node6</title>
<path fill="none" stroke="midnightblue" d="M852.06,-64.5C860.508,-64.5 869.084,-64.5 877.515,-64.5"/>
<polygon fill="midnightblue" stroke="midnightblue" points="877.709,-68.0001 887.709,-64.5 877.709,-61.0001 877.709,-68.0001"/>
</g>
<!-- Node7 -->
<g id="node7" class="node"><title>Node7</title>
<g id="a_node7"><a xlink:href="classResourcesManager.html#ad7712ca96233a151d8bc22cd2ba17d01" target="_top" xlink:title="ResourcesManager::create\lTextureFromSurface">
<polygon fill="none" stroke="black" points="888,-0.5 888,-30.5 1032,-30.5 1032,-0.5 888,-0.5"/>
<text text-anchor="start" x="896" y="-18.5" font-family="Helvetica,sans-Serif" font-size="10.00">ResourcesManager::create</text>
<text text-anchor="middle" x="960" y="-7.5" font-family="Helvetica,sans-Serif" font-size="10.00">TextureFromSurface</text>
</a>
</g>
</g>
<!-- Node5&#45;&gt;Node7 -->
<g id="edge7" class="edge"><title>Node5&#45;&gt;Node7</title>
<path fill="none" stroke="midnightblue" d="M806.085,-54.936C830.14,-48.7324 862.205,-40.4629 890.759,-33.099"/>
<polygon fill="midnightblue" stroke="midnightblue" points="891.884,-36.4234 900.693,-30.537 890.136,-29.6452 891.884,-36.4234"/>
</g>
<!-- Node7&#45;&gt;Node3 -->
<g id="edge8" class="edge"><title>Node7&#45;&gt;Node3</title>
<path fill="none" stroke="midnightblue" d="M1012.25,-30.6162C1019.04,-33.2524 1025.79,-36.2178 1032,-39.5 1056.34,-52.3591 1081.1,-71.4736 1098.71,-86.3256"/>
<polygon fill="midnightblue" stroke="midnightblue" points="1096.88,-89.3696 1106.75,-93.228 1101.44,-84.0585 1096.88,-89.3696"/>
</g>
<!-- Node8&#45;&gt;Node2 -->
<g id="edge10" class="edge"><title>Node8&#45;&gt;Node2</title>
<path fill="none" stroke="midnightblue" d="M324.216,-113.889C334.07,-115.101 344.124,-116.337 353.722,-117.518"/>
<polygon fill="midnightblue" stroke="midnightblue" points="353.576,-121.026 363.929,-118.773 354.431,-114.078 353.576,-121.026"/>
</g>
</g>
</svg>
        <g id="navigator" transform="translate(0 0)" fill="#404254">
                <rect fill="#f2f5e9" fill-opacity="0.5" stroke="#606060" stroke-width=".5" x="0" y="0" width="60" height="60"/>
                <use id="zoomplus" xlink:href="#zoomPlus" x="17" y="9" onmousedown="handleZoom(evt,'in')"/>
                <use id="zoomminus" xlink:href="#zoomMin" x="42" y="9" onmousedown="handleZoom(evt,'out')"/>
                <use id="reset" xlink:href="#resetDef" x="30" y="36" onmousedown="handleReset()"/>
                <g id="arrowUp" xlink:href="#dirArrow" transform="translate(30 24)" onmousedown="handlePan(0,-1)">
                  <use xlink:href="#rim" fill="#404040">
                        <set attributeName="fill" to="#808080" begin="arrowUp.mouseover" end="arrowUp.mouseout"/>
                  </use>
                  <path fill="none" stroke="white" stroke-width="1.5" d="M0,-3.0v7 M-2.5,-0.5L0,-3.0L2.5,-0.5"/>
                </g>
                <g id="arrowRight" xlink:href="#dirArrow" transform="rotate(90) translate(36 -43)" onmousedown="handlePan(1,0)">
                  <use xlink:href="#rim" fill="#404040">
                        <set attributeName="fill" to="#808080" begin="arrowRight.mouseover" end="arrowRight.mouseout"/>
                  </use>
                  <path fill="none" stroke="white" stroke-width="1.5" d="M0,-3.0v7 M-2.5,-0.5L0,-3.0L2.5,-0.5"/>
                </g>
                <g id="arrowDown" xlink:href="#dirArrow" transform="rotate(180) translate(-30 -48)" onmousedown="handlePan(0,1)">
                  <use xlink:href="#rim" fill="#404040">
                        <set attributeName="fill" to="#808080" begin="arrowDown.mouseover" end="arrowDown.mouseout"/>
                  </use>
                  <path fill="none" stroke="white" stroke-width="1.5" d="M0,-3.0v7 M-2.5,-0.5L0,-3.0L2.5,-0.5"/>
                </g>
                <g id="arrowLeft" xlink:href="#dirArrow" transform="rotate(270) translate(-36 17)" onmousedown="handlePan(-1,0)">
                  <use xlink:href="#rim" fill="#404040">
                        <set attributeName="fill" to="#808080" begin="arrowLeft.mouseover" end="arrowLeft.mouseout"/>
                  </use>
                  <path fill="none" stroke="white" stroke-width="1.5" d="M0,-3.0v7 M-2.5,-0.5L0,-3.0L2.5,-0.5"/>
                </g>
        </g>
        <svg viewBox="0 0 15 15" width="100%" height="30px" preserveAspectRatio="xMaxYMin meet">
         <g id="arrow_out" transform="scale(0.3 0.3)">
          <a xlink:href="classTileManager_a682e1364119e3e5c41e4032fe4e206e1_cgraph_org.svg" target="_base">
           <rect id="button" ry="5" rx="5" y="6" x="6" height="38" width="38"
                fill="#f2f5e9" fill-opacity="0.5" stroke="#606060" stroke-width="1.0"/>
           <path id="arrow"
             d="M 11.500037,31.436501 C 11.940474,20.09759 22.043105,11.32322 32.158766,21.979434 L 37.068811,17.246167 C 37.068811,17.246167 37.088388,32 37.088388,32 L 22.160133,31.978069 C 22.160133,31.978069 26.997745,27.140456 26.997745,27.140456 C 18.528582,18.264221 13.291696,25.230495 11.500037,31.436501 z"
             style="fill:#404040;"/>
          </a>
         </g>
        </svg>
</svg>
