<?xml version="1.0" encoding="UTF-8" standalone="no"?>
<!DOCTYPE svg PUBLIC "-//W3C//DTD SVG 1.1//EN"
 "http://www.w3.org/Graphics/SVG/1.1/DTD/svg11.dtd">
<!-- Generated by graphviz version 2.38.0 (20140413.2041)
 -->
<!-- Title: MapNode::setTileID Pages: 1 -->
<svg width="476pt" height="157pt"
 viewBox="0.00 0.00 476.00 157.00" xmlns="http://www.w3.org/2000/svg" xmlns:xlink="http://www.w3.org/1999/xlink">
<g id="graph0" class="graph" transform="scale(1 1) rotate(0) translate(4 153)">
<title>MapNode::setTileID</title>
<!-- Node1 -->
<g id="node1" class="node"><title>Node1</title>
<polygon fill="#bfbfbf" stroke="black" points="0,-87 0,-106 109,-106 109,-87 0,-87"/>
<text text-anchor="middle" x="54.5" y="-94" font-family="Helvetica,sans-Serif" font-size="10.00">MapNode::setTileID</text>
</g>
<!-- Node2 -->
<g id="node2" class="node"><title>Node2</title>
<g id="a_node2"><a xlink:href="classSingleton.html#af5cb1e5749949e2b68416cfb8d378044" target="_top" xlink:title="Get an instance of the singleton. ">
<polygon fill="none" stroke="black" points="327.5,-118.5 327.5,-148.5 458.5,-148.5 458.5,-118.5 327.5,-118.5"/>
<text text-anchor="start" x="335.5" y="-136.5" font-family="Helvetica,sans-Serif" font-size="10.00">Singleton&lt; TileManager</text>
<text text-anchor="middle" x="393" y="-125.5" font-family="Helvetica,sans-Serif" font-size="10.00"> &gt;::instance</text>
</a>
</g>
</g>
<!-- Node1&#45;&gt;Node2 -->
<g id="edge1" class="edge"><title>Node1&#45;&gt;Node2</title>
<path fill="none" stroke="midnightblue" d="M72.3252,-106.076C89.8347,-115.448 118.368,-129.08 145,-134.5 201.884,-146.076 267.675,-145.13 317.047,-141.668"/>
<polygon fill="midnightblue" stroke="midnightblue" points="317.615,-145.135 327.324,-140.894 317.09,-138.155 317.615,-145.135"/>
</g>
<!-- Node3 -->
<g id="node3" class="node"><title>Node3</title>
<g id="a_node3"><a xlink:href="classMapNode.html#a0af11cf90ab29c77b05d09da63a3bb33" target="_top" xlink:title="MapNode::getTileData">
<polygon fill="none" stroke="black" points="152,-106 152,-125 275,-125 275,-106 152,-106"/>
<text text-anchor="middle" x="213.5" y="-113" font-family="Helvetica,sans-Serif" font-size="10.00">MapNode::getTileData</text>
</a>
</g>
</g>
<!-- Node1&#45;&gt;Node3 -->
<g id="edge2" class="edge"><title>Node1&#45;&gt;Node3</title>
<path fill="none" stroke="midnightblue" d="M109.091,-102.986C119.633,-104.261 130.844,-105.618 141.846,-106.95"/>
<polygon fill="midnightblue" stroke="midnightblue" points="141.519,-110.435 151.867,-108.162 142.36,-103.486 141.519,-110.435"/>
</g>
<!-- Node4 -->
<g id="node4" class="node"><title>Node4</title>
<g id="a_node4"><a xlink:href="classTileManager.html#a0635992377296446c67c5d41b48e8826" target="_top" xlink:title="TileManager::getTileData">
<polygon fill="none" stroke="black" points="146,-68 146,-87 281,-87 281,-68 146,-68"/>
<text text-anchor="middle" x="213.5" y="-75" font-family="Helvetica,sans-Serif" font-size="10.00">TileManager::getTileData</text>
</a>
</g>
</g>
<!-- Node1&#45;&gt;Node4 -->
<g id="edge3" class="edge"><title>Node1&#45;&gt;Node4</title>
<path fill="none" stroke="midnightblue" d="M109.091,-90.0144C117.675,-88.9756 126.703,-87.8831 135.7,-86.7942"/>
<polygon fill="midnightblue" stroke="midnightblue" points="136.314,-90.2456 145.821,-85.5694 135.473,-83.2963 136.314,-90.2456"/>
</g>
<!-- Node5 -->
<g id="node5" class="node"><title>Node5</title>
<g id="a_node5"><a xlink:href="classMapNode.html#a0951fd739ee0a3e0263ef412596811dd" target="_top" xlink:title="MapNode::updateTexture">
<polygon fill="none" stroke="black" points="145,-30 145,-49 282,-49 282,-30 145,-30"/>
<text text-anchor="middle" x="213.5" y="-37" font-family="Helvetica,sans-Serif" font-size="10.00">MapNode::updateTexture</text>
</a>
</g>
</g>
<!-- Node1&#45;&gt;Node5 -->
<g id="edge4" class="edge"><title>Node1&#45;&gt;Node5</title>
<path fill="none" stroke="midnightblue" d="M75.8261,-86.9932C93.7793,-78.8086 120.793,-67.0072 145,-58.5 151.559,-56.1949 158.551,-53.9726 165.456,-51.911"/>
<polygon fill="midnightblue" stroke="midnightblue" points="166.82,-55.1599 175.451,-49.0146 164.872,-48.4366 166.82,-55.1599"/>
</g>
<!-- Node5&#45;&gt;Node2 -->
<g id="edge5" class="edge"><title>Node5&#45;&gt;Node2</title>
<path fill="none" stroke="midnightblue" d="M259.155,-49.0826C267.005,-51.5962 274.921,-54.6998 282,-58.5 300.604,-68.4863 300.86,-77.1686 318,-89.5 329.602,-97.8473 342.862,-106.098 354.922,-113.159"/>
<polygon fill="midnightblue" stroke="midnightblue" points="353.451,-116.351 363.863,-118.309 356.944,-110.285 353.451,-116.351"/>
</g>
<!-- Node6 -->
<g id="node6" class="node"><title>Node6</title>
<g id="a_node6"><a xlink:href="classTileManager.html#a519b2d5c91877025a2faa0dff3ba099c" target="_top" xlink:title="TileManager::calculateSlope\lOrientation">
<polygon fill="none" stroke="black" points="318,-49.5 318,-79.5 468,-79.5 468,-49.5 318,-49.5"/>
<text text-anchor="start" x="326" y="-67.5" font-family="Helvetica,sans-Serif" font-size="10.00">TileManager::calculateSlope</text>
<text text-anchor="middle" x="393" y="-56.5" font-family="Helvetica,sans-Serif" font-size="10.00">Orientation</text>
</a>
</g>
</g>
<!-- Node5&#45;&gt;Node6 -->
<g id="edge6" class="edge"><title>Node5&#45;&gt;Node6</title>
<path fill="none" stroke="midnightblue" d="M282.111,-49.0227C290.491,-50.203 299.138,-51.4208 307.728,-52.6307"/>
<polygon fill="midnightblue" stroke="midnightblue" points="307.377,-56.1157 317.768,-54.0447 308.353,-49.1842 307.377,-56.1157"/>
</g>
<!-- Node7 -->
<g id="node7" class="node"><title>Node7</title>
<g id="a_node7"><a xlink:href="classTileManager.html#ae1ac0c18d79cc2e1de86416d07d1591b" target="_top" xlink:title="TileManager::calculateTile\lOrientation">
<polygon fill="none" stroke="black" points="323.5,-0.5 323.5,-30.5 462.5,-30.5 462.5,-0.5 323.5,-0.5"/>
<text text-anchor="start" x="331.5" y="-18.5" font-family="Helvetica,sans-Serif" font-size="10.00">TileManager::calculateTile</text>
<text text-anchor="middle" x="393" y="-7.5" font-family="Helvetica,sans-Serif" font-size="10.00">Orientation</text>
</a>
</g>
</g>
<!-- Node5&#45;&gt;Node7 -->
<g id="edge7" class="edge"><title>Node5&#45;&gt;Node7</title>
<path fill="none" stroke="midnightblue" d="M282.111,-30.3582C292.357,-28.9728 303.002,-27.5335 313.455,-26.1201"/>
<polygon fill="midnightblue" stroke="midnightblue" points="313.959,-29.584 323.4,-24.7755 313.021,-22.6471 313.959,-29.584"/>
</g>
</g>
</svg>
