<?xml version="1.0" encoding="UTF-8" standalone="no"?>
<!DOCTYPE svg PUBLIC "-//W3C//DTD SVG 1.1//EN"
 "http://www.w3.org/Graphics/SVG/1.1/DTD/svg11.dtd">
<!-- Generated by graphviz version 2.38.0 (20140413.2041)
 -->
<!-- Title: ButtonGroup::getAllButtons Pages: 1 -->
<svg width="586pt" height="47pt"
 viewBox="0.00 0.00 586.00 47.00" xmlns="http://www.w3.org/2000/svg" xmlns:xlink="http://www.w3.org/1999/xlink">
<g id="graph0" class="graph" transform="scale(1 1) rotate(0) translate(4 43)">
<title>ButtonGroup::getAllButtons</title>
<!-- Node1 -->
<g id="node1" class="node"><title>Node1</title>
<polygon fill="#bfbfbf" stroke="black" points="0,-19.5 0,-38.5 149,-38.5 149,-19.5 0,-19.5"/>
<text text-anchor="middle" x="74.5" y="-26.5" font-family="Helvetica,sans-Serif" font-size="10.00">ButtonGroup::getAllButtons</text>
</g>
<!-- Node2 -->
<g id="node2" class="node"><title>Node2</title>
<g id="a_node2"><a xlink:href="classMenuGroupBuild.html#afe78eacb71e9b5ebe9adaae92c0378cc" target="_top" xlink:title="MenuGroupBuild::constructMenu">
<polygon fill="none" stroke="black" points="405,-19.5 405,-38.5 578,-38.5 578,-19.5 405,-19.5"/>
<text text-anchor="middle" x="491.5" y="-26.5" font-family="Helvetica,sans-Serif" font-size="10.00">MenuGroupBuild::constructMenu</text>
</a>
</g>
</g>
<!-- Node1&#45;&gt;Node2 -->
<g id="edge1" class="edge"><title>Node1&#45;&gt;Node2</title>
<path fill="none" stroke="midnightblue" d="M159.525,-29C230.955,-29 333.067,-29 404.934,-29"/>
<polygon fill="midnightblue" stroke="midnightblue" points="159.216,-25.5001 149.215,-29 159.215,-32.5001 159.216,-25.5001"/>
</g>
<!-- Node3 -->
<g id="node3" class="node"><title>Node3</title>
<g id="a_node3"><a xlink:href="classMenuGroupBuild.html#a69f560b31112d4f28b6ad4d101f48185" target="_top" xlink:title="MenuGroupBuild::arrangeElements">
<polygon fill="none" stroke="black" points="185,-0.5 185,-19.5 369,-19.5 369,-0.5 185,-0.5"/>
<text text-anchor="middle" x="277" y="-7.5" font-family="Helvetica,sans-Serif" font-size="10.00">MenuGroupBuild::arrangeElements</text>
</a>
</g>
</g>
<!-- Node1&#45;&gt;Node3 -->
<g id="edge2" class="edge"><title>Node1&#45;&gt;Node3</title>
<path fill="none" stroke="midnightblue" d="M159.213,-21.0671C167.648,-20.2678 176.244,-19.4532 184.752,-18.6469"/>
<polygon fill="midnightblue" stroke="midnightblue" points="158.645,-17.6051 149.02,-22.033 159.306,-24.5739 158.645,-17.6051"/>
</g>
<!-- Node3&#45;&gt;Node2 -->
<g id="edge3" class="edge"><title>Node3&#45;&gt;Node2</title>
<path fill="none" stroke="midnightblue" d="M379.071,-19.037C387.642,-19.8033 396.258,-20.5737 404.696,-21.3281"/>
<polygon fill="midnightblue" stroke="midnightblue" points="379.316,-15.545 369.044,-18.1404 378.692,-22.5171 379.316,-15.545"/>
</g>
</g>
</svg>
