<?xml version="1.0" encoding="UTF-8" standalone="no"?>
<!DOCTYPE svg PUBLIC "-//W3C//DTD SVG 1.1//EN"
 "http://www.w3.org/Graphics/SVG/1.1/DTD/svg11.dtd">
<!-- Generated by graphviz version 2.38.0 (20140413.2041)
 -->
<!-- Title: Map::demolishNode Pages: 1 -->
<svg width="1884pt" height="387pt"
 viewBox="0.00 0.00 1884.00 386.60" xmlns="http://www.w3.org/2000/svg" xmlns:xlink="http://www.w3.org/1999/xlink">
<g id="graph0" class="graph" transform="scale(1 1) rotate(0) translate(4 382.604)">
<title>Map::demolishNode</title>
<!-- Node1 -->
<g id="node1" class="node"><title>Node1</title>
<polygon fill="#bfbfbf" stroke="black" points="0,-254.104 0,-273.104 112,-273.104 112,-254.104 0,-254.104"/>
<text text-anchor="middle" x="56" y="-261.104" font-family="Helvetica,sans-Serif" font-size="10.00">Map::demolishNode</text>
</g>
<!-- Node2 -->
<g id="node2" class="node"><title>Node2</title>
<g id="a_node2"><a xlink:href="classEngine.html#a2824c5146c900c0d048d97c5e0e0ef69" target="_top" xlink:title="Engine::demolishNode">
<polygon fill="none" stroke="black" points="821.5,-359.104 821.5,-378.104 945.5,-378.104 945.5,-359.104 821.5,-359.104"/>
<text text-anchor="middle" x="883.5" y="-366.104" font-family="Helvetica,sans-Serif" font-size="10.00">Engine::demolishNode</text>
</a>
</g>
</g>
<!-- Node1&#45;&gt;Node2 -->
<g id="edge1" class="edge"><title>Node1&#45;&gt;Node2</title>
<path fill="none" stroke="midnightblue" d="M74.539,-280.181C91.829,-295.53 119.701,-317.721 148,-329.604 243.798,-369.83 274.6,-368.604 378.5,-368.604 378.5,-368.604 378.5,-368.604 556.5,-368.604 648.753,-368.604 755.692,-368.604 821.214,-368.604"/>
<polygon fill="midnightblue" stroke="midnightblue" points="76.6973,-277.412 66.9457,-273.27 71.9857,-282.589 76.6973,-277.412"/>
</g>
<!-- Node7 -->
<g id="node7" class="node"><title>Node7</title>
<g id="a_node7"><a xlink:href="classMap.html#aba5154a4d917900679a3c0f7ec701561" target="_top" xlink:title="Increase Height Increases the height of the node and checks the surrounding tiles. Either draw a slope sprite or elevate the tile if necessary. ">
<polygon fill="none" stroke="black" points="148,-301.104 148,-320.104 263,-320.104 263,-301.104 148,-301.104"/>
<text text-anchor="middle" x="205.5" y="-308.104" font-family="Helvetica,sans-Serif" font-size="10.00">Map::increaseHeight</text>
</a>
</g>
</g>
<!-- Node1&#45;&gt;Node7 -->
<g id="edge6" class="edge"><title>Node1&#45;&gt;Node7</title>
<path fill="none" stroke="midnightblue" d="M96.5604,-276.209C121.04,-284.01 151.973,-293.866 174.443,-301.026"/>
<polygon fill="midnightblue" stroke="midnightblue" points="97.4395,-272.816 86.8488,-273.115 95.3142,-279.486 97.4395,-272.816"/>
</g>
<!-- Node9 -->
<g id="node9" class="node"><title>Node9</title>
<g id="a_node9"><a xlink:href="classMap.html#a59d21f2688713fbcfe320eb1b24405ca" target="_top" xlink:title="Update mapNode and its adjacent tiles Updates mapNode height information, draws slopes for adjacent t...">
<polygon fill="none" stroke="black" points="299,-254.104 299,-273.104 460,-273.104 460,-254.104 299,-254.104"/>
<text text-anchor="middle" x="379.5" y="-261.104" font-family="Helvetica,sans-Serif" font-size="10.00">Map::updateNeighborsOfNode</text>
</a>
</g>
</g>
<!-- Node1&#45;&gt;Node9 -->
<g id="edge40" class="edge"><title>Node1&#45;&gt;Node9</title>
<path fill="none" stroke="midnightblue" d="M122.523,-258.042C173.581,-256.586 244.68,-256.468 298.993,-257.687"/>
<polygon fill="midnightblue" stroke="midnightblue" points="122.154,-254.551 112.268,-258.362 122.372,-261.548 122.154,-254.551"/>
</g>
<!-- Node10 -->
<g id="node10" class="node"><title>Node10</title>
<g id="a_node10"><a xlink:href="classMap.html#afb8cc864df90d273a5074872d635dc40" target="_top" xlink:title="Decrease Height Decreases the height of the node and checks the surrounding tiles. Either draw a slope sprite or lower the tile if necessary. ">
<polygon fill="none" stroke="black" points="496,-207.104 496,-226.104 615,-226.104 615,-207.104 496,-207.104"/>
<text text-anchor="middle" x="555.5" y="-214.104" font-family="Helvetica,sans-Serif" font-size="10.00">Map::decreaseHeight</text>
</a>
</g>
</g>
<!-- Node1&#45;&gt;Node10 -->
<g id="edge39" class="edge"><title>Node1&#45;&gt;Node10</title>
<path fill="none" stroke="midnightblue" d="M122.165,-257.447C219.65,-248.238 401.983,-231.012 495.647,-222.164"/>
<polygon fill="midnightblue" stroke="midnightblue" points="121.769,-253.969 112.142,-258.394 122.427,-260.938 121.769,-253.969"/>
</g>
<!-- Node3 -->
<g id="node3" class="node"><title>Node3</title>
<g id="a_node3"><a xlink:href="classEventManager.html#a65ec91fd5016d4f9c4167fb8babed2df" target="_top" xlink:title="EventManager::checkEvents">
<polygon fill="none" stroke="black" points="1279,-264.104 1279,-283.104 1431,-283.104 1431,-264.104 1279,-264.104"/>
<text text-anchor="middle" x="1355" y="-271.104" font-family="Helvetica,sans-Serif" font-size="10.00">EventManager::checkEvents</text>
</a>
</g>
</g>
<!-- Node2&#45;&gt;Node3 -->
<g id="edge2" class="edge"><title>Node2&#45;&gt;Node3</title>
<path fill="none" stroke="midnightblue" d="M955.902,-373.01C1027.38,-375.276 1139.71,-372.951 1232,-344.604 1276.04,-331.076 1321.19,-299.127 1342.07,-283.108"/>
<polygon fill="midnightblue" stroke="midnightblue" points="955.778,-369.504 945.66,-372.645 955.529,-376.499 955.778,-369.504"/>
</g>
<!-- Node4 -->
<g id="node4" class="node"><title>Node4</title>
<g id="a_node4"><a xlink:href="classGame.html#a1c2ab25d5216b2f4b2fe41efd2c09114" target="_top" xlink:title="Game::run">
<polygon fill="none" stroke="black" points="1603,-112.104 1603,-131.104 1671,-131.104 1671,-112.104 1603,-112.104"/>
<text text-anchor="middle" x="1637" y="-119.104" font-family="Helvetica,sans-Serif" font-size="10.00">Game::run</text>
</a>
</g>
</g>
<!-- Node3&#45;&gt;Node4 -->
<g id="edge3" class="edge"><title>Node3&#45;&gt;Node4</title>
<path fill="none" stroke="midnightblue" d="M1382.58,-259.175C1439.31,-228.376 1570.96,-156.908 1618.49,-131.108"/>
<polygon fill="midnightblue" stroke="midnightblue" points="1380.63,-256.248 1373.52,-264.095 1383.97,-262.4 1380.63,-256.248"/>
</g>
<!-- Node5 -->
<g id="node5" class="node"><title>Node5</title>
<g id="a_node5"><a xlink:href="main_8cxx.html#af582d708d899e67ead623eac34a22387" target="_top" xlink:title="protected_main">
<polygon fill="none" stroke="black" points="1707,-150.104 1707,-169.104 1799,-169.104 1799,-150.104 1707,-150.104"/>
<text text-anchor="middle" x="1753" y="-157.104" font-family="Helvetica,sans-Serif" font-size="10.00">protected_main</text>
</a>
</g>
</g>
<!-- Node4&#45;&gt;Node5 -->
<g id="edge4" class="edge"><title>Node4&#45;&gt;Node5</title>
<path fill="none" stroke="midnightblue" d="M1676.48,-134.43C1691.77,-139.528 1709.07,-145.293 1723.24,-150.018"/>
<polygon fill="midnightblue" stroke="midnightblue" points="1677.36,-131.035 1666.77,-131.193 1675.15,-137.675 1677.36,-131.035"/>
</g>
<!-- Node6 -->
<g id="node6" class="node"><title>Node6</title>
<g id="a_node6"><a xlink:href="main_8cxx.html#a3c04138a5bfe5d72780bb7e82a18e627" target="_top" xlink:title="main">
<polygon fill="none" stroke="black" points="1835,-150.104 1835,-169.104 1876,-169.104 1876,-150.104 1835,-150.104"/>
<text text-anchor="middle" x="1855.5" y="-157.104" font-family="Helvetica,sans-Serif" font-size="10.00">main</text>
</a>
</g>
</g>
<!-- Node5&#45;&gt;Node6 -->
<g id="edge5" class="edge"><title>Node5&#45;&gt;Node6</title>
<path fill="none" stroke="midnightblue" d="M1809.54,-159.604C1818.62,-159.604 1827.47,-159.604 1834.88,-159.604"/>
<polygon fill="midnightblue" stroke="midnightblue" points="1809.25,-156.104 1799.25,-159.604 1809.25,-163.104 1809.25,-156.104"/>
</g>
<!-- Node8 -->
<g id="node8" class="node"><title>Node8</title>
<g id="a_node8"><a xlink:href="classEngine.html#aa7210df73b284c19cd6edcfa99a4532e" target="_top" xlink:title="Increase Height Increases the height of the given map node Calls the according function of the Map ob...">
<polygon fill="none" stroke="black" points="316,-311.104 316,-330.104 443,-330.104 443,-311.104 316,-311.104"/>
<text text-anchor="middle" x="379.5" y="-318.104" font-family="Helvetica,sans-Serif" font-size="10.00">Engine::increaseHeight</text>
</a>
</g>
</g>
<!-- Node7&#45;&gt;Node8 -->
<g id="edge7" class="edge"><title>Node7&#45;&gt;Node8</title>
<path fill="none" stroke="midnightblue" d="M273.329,-314.489C287.311,-315.302 302.005,-316.156 315.83,-316.96"/>
<polygon fill="midnightblue" stroke="midnightblue" points="273.482,-310.992 263.296,-313.906 273.076,-317.98 273.482,-310.992"/>
</g>
<!-- Node7&#45;&gt;Node9 -->
<g id="edge9" class="edge"><title>Node7&#45;&gt;Node9</title>
<path fill="none" stroke="midnightblue" d="M234.764,-297.723C257.869,-289.872 291.305,-280.311 320.115,-273.127"/>
<polygon fill="midnightblue" stroke="midnightblue" points="233.502,-294.457 225.234,-301.083 235.829,-301.059 233.502,-294.457"/>
</g>
<!-- Node8&#45;&gt;Node3 -->
<g id="edge8" class="edge"><title>Node8&#45;&gt;Node3</title>
<path fill="none" stroke="midnightblue" d="M453.308,-324.029C521.154,-326.925 625.15,-330.604 715.5,-330.604 715.5,-330.604 715.5,-330.604 1038,-330.604 1143.64,-330.604 1266.03,-299.371 1322.49,-283.144"/>
<polygon fill="midnightblue" stroke="midnightblue" points="453.293,-320.526 443.152,-323.59 452.991,-327.519 453.293,-320.526"/>
</g>
<!-- Node9&#45;&gt;Node1 -->
<g id="edge38" class="edge"><title>Node9&#45;&gt;Node1</title>
<path fill="none" stroke="midnightblue" d="M288.952,-269.727C232.272,-270.793 160.791,-270.499 112.268,-268.846"/>
<polygon fill="midnightblue" stroke="midnightblue" points="289.068,-273.225 298.993,-269.52 288.923,-266.227 289.068,-273.225"/>
</g>
<!-- Node9&#45;&gt;Node7 -->
<g id="edge10" class="edge"><title>Node9&#45;&gt;Node7</title>
<path fill="none" stroke="midnightblue" d="M349.794,-276.634C326.278,-284.602 292.277,-294.294 263.296,-301.475"/>
<polygon fill="midnightblue" stroke="midnightblue" points="351.222,-279.842 359.495,-273.224 348.9,-273.238 351.222,-279.842"/>
</g>
<!-- Node9&#45;&gt;Node10 -->
<g id="edge11" class="edge"><title>Node9&#45;&gt;Node10</title>
<path fill="none" stroke="midnightblue" d="M409.133,-250.71C432.608,-242.827 466.606,-233.223 495.822,-226.032"/>
<polygon fill="midnightblue" stroke="midnightblue" points="407.744,-247.487 399.452,-254.083 410.047,-254.097 407.744,-247.487"/>
</g>
<!-- Node12 -->
<g id="node12" class="node"><title>Node12</title>
<g id="a_node12"><a xlink:href="classMap.html#a481b37ba71ef0e51e836fc42805762dd" target="_top" xlink:title="Update all mapNodes Updates all mapNode and its adjacent tiles regarding height information, draws slopes for adjacent tiles and sets tiling for mapNode sprite if applicable. ">
<polygon fill="none" stroke="black" points="496,-245.104 496,-264.104 615,-264.104 615,-245.104 496,-245.104"/>
<text text-anchor="middle" x="555.5" y="-252.104" font-family="Helvetica,sans-Serif" font-size="10.00">Map::updateAllNodes</text>
</a>
</g>
</g>
<!-- Node9&#45;&gt;Node12 -->
<g id="edge15" class="edge"><title>Node9&#45;&gt;Node12</title>
<path fill="none" stroke="midnightblue" d="M470.334,-258.957C479.04,-258.507 487.709,-258.058 495.991,-257.63"/>
<polygon fill="midnightblue" stroke="midnightblue" points="469.922,-255.474 460.116,-259.486 470.284,-262.464 469.922,-255.474"/>
</g>
<!-- Node22 -->
<g id="node22" class="node"><title>Node22</title>
<g id="a_node22"><a xlink:href="classMap.html#ad4c2c2f80eab02ca32a748a62a56da12" target="_top" xlink:title="Set the Tile ID Of Node object Also invokes all necessary texture updates (auto&#45;tiling, slopes, ...) ">
<polygon fill="none" stroke="black" points="496,-283.104 496,-302.104 615,-302.104 615,-283.104 496,-283.104"/>
<text text-anchor="middle" x="555.5" y="-290.104" font-family="Helvetica,sans-Serif" font-size="10.00">Map::setTileIDOfNode</text>
</a>
</g>
</g>
<!-- Node9&#45;&gt;Node22 -->
<g id="edge35" class="edge"><title>Node9&#45;&gt;Node22</title>
<path fill="none" stroke="midnightblue" d="M447.976,-274.85C464.305,-277.571 481.602,-280.454 497.401,-283.087"/>
<polygon fill="midnightblue" stroke="midnightblue" points="448.396,-271.371 437.956,-273.18 447.245,-278.276 448.396,-271.371"/>
</g>
<!-- Node10&#45;&gt;Node9 -->
<g id="edge14" class="edge"><title>Node10&#45;&gt;Node9</title>
<path fill="none" stroke="midnightblue" d="M525.706,-229.552C502.429,-237.36 468.881,-246.845 439.894,-253.999"/>
<polygon fill="midnightblue" stroke="midnightblue" points="527.022,-232.8 535.317,-226.208 524.723,-226.188 527.022,-232.8"/>
</g>
<!-- Node11 -->
<g id="node11" class="node"><title>Node11</title>
<g id="a_node11"><a xlink:href="classEngine.html#a3e87fa5bbc0de7cde5fe6092ddf21a37" target="_top" xlink:title="Decrease Height Decreases the height of the given map node Calls the according function of the Map ob...">
<polygon fill="none" stroke="black" points="818,-169.104 818,-188.104 949,-188.104 949,-169.104 818,-169.104"/>
<text text-anchor="middle" x="883.5" y="-176.104" font-family="Helvetica,sans-Serif" font-size="10.00">Engine::decreaseHeight</text>
</a>
</g>
</g>
<!-- Node10&#45;&gt;Node11 -->
<g id="edge12" class="edge"><title>Node10&#45;&gt;Node11</title>
<path fill="none" stroke="midnightblue" d="M608.458,-205.027C622.233,-202.268 637.133,-199.56 651,-197.604 707.103,-189.689 771.355,-184.739 817.912,-181.883"/>
<polygon fill="midnightblue" stroke="midnightblue" points="607.751,-201.599 598.657,-207.034 609.156,-208.456 607.751,-201.599"/>
</g>
<!-- Node11&#45;&gt;Node3 -->
<g id="edge13" class="edge"><title>Node11&#45;&gt;Node3</title>
<path fill="none" stroke="midnightblue" d="M930.985,-191.086C937.109,-193.082 943.251,-195.267 949,-197.604 965.76,-204.416 967.824,-210.922 985,-216.604 1083.47,-249.174 1202.99,-263.297 1278.79,-269.309"/>
<polygon fill="midnightblue" stroke="midnightblue" points="932.023,-187.743 921.434,-188.11 929.94,-194.426 932.023,-187.743"/>
</g>
<!-- Node13 -->
<g id="node13" class="node"><title>Node13</title>
<g id="a_node13"><a xlink:href="classMap.html#a482ac34426e8aa66abb46f60ec329402" target="_top" xlink:title="Initialize the Map with node objects Initialize the Map with node objects. ">
<polygon fill="none" stroke="black" points="678,-207.104 678,-226.104 755,-226.104 755,-207.104 678,-207.104"/>
<text text-anchor="middle" x="716.5" y="-214.104" font-family="Helvetica,sans-Serif" font-size="10.00">Map::initMap</text>
</a>
</g>
</g>
<!-- Node12&#45;&gt;Node13 -->
<g id="edge16" class="edge"><title>Node12&#45;&gt;Node13</title>
<path fill="none" stroke="midnightblue" d="M606.578,-242.635C629.64,-237.124 656.549,-230.693 677.851,-225.602"/>
<polygon fill="midnightblue" stroke="midnightblue" points="605.535,-239.286 596.622,-245.015 607.162,-246.094 605.535,-239.286"/>
</g>
<!-- Node19 -->
<g id="node19" class="node"><title>Node19</title>
<g id="a_node19"><a xlink:href="classMap.html#afefe996cc1f62b61ec60d0ae415953bf" target="_top" xlink:title="Map::loadMapFromFile">
<polygon fill="none" stroke="black" points="822.5,-207.104 822.5,-226.104 944.5,-226.104 944.5,-207.104 822.5,-207.104"/>
<text text-anchor="middle" x="883.5" y="-214.104" font-family="Helvetica,sans-Serif" font-size="10.00">Map::loadMapFromFile</text>
</a>
</g>
</g>
<!-- Node12&#45;&gt;Node19 -->
<g id="edge34" class="edge"><title>Node12&#45;&gt;Node19</title>
<path fill="none" stroke="midnightblue" d="M625.266,-250.65C670.035,-247.623 729.633,-242.741 782,-235.604 800.298,-233.11 820.315,-229.507 837.635,-226.107"/>
<polygon fill="midnightblue" stroke="midnightblue" points="624.831,-247.171 615.084,-251.324 625.293,-254.156 624.831,-247.171"/>
</g>
<!-- Node14 -->
<g id="node14" class="node"><title>Node14</title>
<g id="a_node14"><a xlink:href="classEngine.html#a260d4834150eae6eec2bde34df6dc827" target="_top" xlink:title="Creates a new game Creates a new game. ">
<polygon fill="none" stroke="black" points="985.5,-55.1037 985.5,-74.1037 1088.5,-74.1037 1088.5,-55.1037 985.5,-55.1037"/>
<text text-anchor="middle" x="1037" y="-62.1037" font-family="Helvetica,sans-Serif" font-size="10.00">Engine::newGame</text>
</a>
</g>
</g>
<!-- Node13&#45;&gt;Node14 -->
<g id="edge17" class="edge"><title>Node13&#45;&gt;Node14</title>
<path fill="none" stroke="midnightblue" d="M742.044,-201.723C762.154,-189.765 791.512,-172.841 818,-159.604 886.874,-125.184 971.097,-90.495 1011.75,-74.1968"/>
<polygon fill="midnightblue" stroke="midnightblue" points="740.017,-198.857 733.233,-206.996 743.612,-204.864 740.017,-198.857"/>
</g>
<!-- Node13&#45;&gt;Node19 -->
<g id="edge26" class="edge"><title>Node13&#45;&gt;Node19</title>
<path fill="none" stroke="midnightblue" d="M765.459,-216.604C783.184,-216.604 803.505,-216.604 822.187,-216.604"/>
<polygon fill="midnightblue" stroke="midnightblue" points="765.354,-213.104 755.354,-216.604 765.354,-220.104 765.354,-213.104"/>
</g>
<!-- Node14&#45;&gt;Node4 -->
<g id="edge25" class="edge"><title>Node14&#45;&gt;Node4</title>
<path fill="none" stroke="midnightblue" d="M1055.97,-48.2602C1072.53,-34.3901 1098.48,-15.5184 1125,-7.60367 1170.57,5.99501 1184.74,-2.31009 1232,-7.60367 1383.72,-24.5982 1424.29,-29.3578 1567,-83.6037 1586.81,-91.1352 1607.93,-103.477 1621.51,-112.043"/>
<polygon fill="midnightblue" stroke="midnightblue" points="1053.49,-45.7817 1048.22,-54.9729 1058.07,-51.0741 1053.49,-45.7817"/>
</g>
<!-- Node15 -->
<g id="node15" class="node"><title>Node15</title>
<g id="a_node15"><a xlink:href="classEngine.html#af7de8d74b0cfacaf06df53e7caf11538" target="_top" xlink:title="Engine::saveGame">
<polygon fill="none" stroke="black" points="1125,-17.1037 1125,-36.1037 1232,-36.1037 1232,-17.1037 1125,-17.1037"/>
<text text-anchor="middle" x="1178.5" y="-24.1037" font-family="Helvetica,sans-Serif" font-size="10.00">Engine::saveGame</text>
</a>
</g>
</g>
<!-- Node14&#45;&gt;Node15 -->
<g id="edge18" class="edge"><title>Node14&#45;&gt;Node15</title>
<path fill="none" stroke="midnightblue" d="M1082.96,-52.3575C1102.18,-47.1196 1124.3,-41.0946 1142.31,-36.1896"/>
<polygon fill="midnightblue" stroke="midnightblue" points="1081.93,-49.0094 1073.2,-55.0147 1083.77,-55.7633 1081.93,-49.0094"/>
</g>
<!-- Node16 -->
<g id="node16" class="node"><title>Node16</title>
<g id="a_node16"><a xlink:href="classUIManager.html#aa78e356fc3b356d790c848319d1c387e" target="_top" xlink:title="UIManager::setCallbackFunctions">
<polygon fill="none" stroke="black" points="1268,-93.1037 1268,-112.104 1442,-112.104 1442,-93.1037 1268,-93.1037"/>
<text text-anchor="middle" x="1355" y="-100.104" font-family="Helvetica,sans-Serif" font-size="10.00">UIManager::setCallbackFunctions</text>
</a>
</g>
</g>
<!-- Node14&#45;&gt;Node16 -->
<g id="edge22" class="edge"><title>Node14&#45;&gt;Node16</title>
<path fill="none" stroke="midnightblue" d="M1098.82,-71.9169C1148.94,-77.9451 1220.41,-86.5396 1274.97,-93.1004"/>
<polygon fill="midnightblue" stroke="midnightblue" points="1099.12,-68.4281 1088.77,-70.709 1098.28,-75.378 1099.12,-68.4281"/>
</g>
<!-- Node18 -->
<g id="node18" class="node"><title>Node18</title>
<g id="a_node18"><a xlink:href="classGame.html#a5ed7fc5be77080f7f6dd5363f7f007a1" target="_top" xlink:title="Game::mainMenu">
<polygon fill="none" stroke="black" points="1304,-169.104 1304,-188.104 1406,-188.104 1406,-169.104 1304,-169.104"/>
<text text-anchor="middle" x="1355" y="-176.104" font-family="Helvetica,sans-Serif" font-size="10.00">Game::mainMenu</text>
</a>
</g>
</g>
<!-- Node14&#45;&gt;Node18 -->
<g id="edge23" class="edge"><title>Node14&#45;&gt;Node18</title>
<path fill="none" stroke="midnightblue" d="M1074.09,-77.624C1138.28,-100.782 1270.86,-148.61 1327.45,-169.027"/>
<polygon fill="midnightblue" stroke="midnightblue" points="1074.99,-74.2284 1064.4,-74.1272 1072.62,-80.8131 1074.99,-74.2284"/>
</g>
<!-- Node15&#45;&gt;Node16 -->
<g id="edge19" class="edge"><title>Node15&#45;&gt;Node16</title>
<path fill="none" stroke="midnightblue" d="M1210.88,-40.2699C1245.85,-55.5015 1301.5,-79.7363 1332.08,-93.0564"/>
<polygon fill="midnightblue" stroke="midnightblue" points="1212.17,-37.0133 1201.6,-36.2291 1209.37,-43.4311 1212.17,-37.0133"/>
</g>
<!-- Node17 -->
<g id="node17" class="node"><title>Node17</title>
<g id="a_node17"><a xlink:href="classUIManager.html#aedd9d0577af515a852425dfe414b2968" target="_top" xlink:title="Parses the UiLayout.json files and creates UI Elements. ">
<polygon fill="none" stroke="black" points="1478,-93.1037 1478,-112.104 1567,-112.104 1567,-93.1037 1478,-93.1037"/>
<text text-anchor="middle" x="1522.5" y="-100.104" font-family="Helvetica,sans-Serif" font-size="10.00">UIManager::init</text>
</a>
</g>
</g>
<!-- Node16&#45;&gt;Node17 -->
<g id="edge20" class="edge"><title>Node16&#45;&gt;Node17</title>
<path fill="none" stroke="midnightblue" d="M1452.28,-102.604C1461.19,-102.604 1469.89,-102.604 1477.95,-102.604"/>
<polygon fill="midnightblue" stroke="midnightblue" points="1452.14,-99.1038 1442.14,-102.604 1452.14,-106.104 1452.14,-99.1038"/>
</g>
<!-- Node17&#45;&gt;Node4 -->
<g id="edge21" class="edge"><title>Node17&#45;&gt;Node4</title>
<path fill="none" stroke="midnightblue" d="M1577.45,-111.715C1586.15,-113.184 1594.92,-114.665 1602.93,-116.019"/>
<polygon fill="midnightblue" stroke="midnightblue" points="1577.76,-108.218 1567.32,-110.004 1576.6,-115.12 1577.76,-108.218"/>
</g>
<!-- Node18&#45;&gt;Node5 -->
<g id="edge24" class="edge"><title>Node18&#45;&gt;Node5</title>
<path fill="none" stroke="midnightblue" d="M1416.55,-175.698C1496.5,-171.862 1635.46,-165.195 1706.83,-161.771"/>
<polygon fill="midnightblue" stroke="midnightblue" points="1415.97,-172.222 1406.15,-176.197 1416.31,-179.214 1415.97,-172.222"/>
</g>
<!-- Node20 -->
<g id="node20" class="node"><title>Node20</title>
<g id="a_node20"><a xlink:href="classEngine.html#a83b7dbeee899b36a13d5b07c7ad87ebc" target="_top" xlink:title="Loads a saved game Loads a saved Game. ">
<polygon fill="none" stroke="black" points="985,-188.104 985,-207.104 1089,-207.104 1089,-188.104 985,-188.104"/>
<text text-anchor="middle" x="1037" y="-195.104" font-family="Helvetica,sans-Serif" font-size="10.00">Engine::loadGame</text>
</a>
</g>
</g>
<!-- Node19&#45;&gt;Node20 -->
<g id="edge27" class="edge"><title>Node19&#45;&gt;Node20</title>
<path fill="none" stroke="midnightblue" d="M954.81,-207.786C964.878,-206.523 975.074,-205.245 984.683,-204.04"/>
<polygon fill="midnightblue" stroke="midnightblue" points="954.299,-204.323 944.812,-209.04 955.17,-211.268 954.299,-204.323"/>
</g>
<!-- Node20&#45;&gt;Node16 -->
<g id="edge32" class="edge"><title>Node20&#45;&gt;Node16</title>
<path fill="none" stroke="midnightblue" d="M1066.56,-183.681C1083.31,-175.883 1105.04,-166.392 1125,-159.604 1186.09,-138.823 1258.69,-122.037 1305.51,-112.196"/>
<polygon fill="midnightblue" stroke="midnightblue" points="1064.87,-180.608 1057.32,-188.043 1067.86,-186.937 1064.87,-180.608"/>
</g>
<!-- Node20&#45;&gt;Node18 -->
<g id="edge33" class="edge"><title>Node20&#45;&gt;Node18</title>
<path fill="none" stroke="midnightblue" d="M1099.58,-200.026C1137.77,-200.928 1187.8,-201.025 1232,-197.604 1255.94,-195.751 1282.28,-191.883 1304.34,-188.117"/>
<polygon fill="midnightblue" stroke="midnightblue" points="1099.23,-196.516 1089.14,-199.753 1099.05,-203.514 1099.23,-196.516"/>
</g>
<!-- Node21 -->
<g id="node21" class="node"><title>Node21</title>
<g id="a_node21"><a xlink:href="classEngine.html#a0ba57971ffb5173ecc425461f65a4cd8" target="_top" xlink:title="Quits the game Sets m_running to false and quitting the game. ">
<polygon fill="none" stroke="black" points="1127.5,-169.104 1127.5,-188.104 1229.5,-188.104 1229.5,-169.104 1127.5,-169.104"/>
<text text-anchor="middle" x="1178.5" y="-176.104" font-family="Helvetica,sans-Serif" font-size="10.00">Engine::quitGame</text>
</a>
</g>
</g>
<!-- Node20&#45;&gt;Node21 -->
<g id="edge28" class="edge"><title>Node20&#45;&gt;Node21</title>
<path fill="none" stroke="midnightblue" d="M1099.21,-189.266C1108.59,-187.989 1118.18,-186.683 1127.29,-185.443"/>
<polygon fill="midnightblue" stroke="midnightblue" points="1098.59,-185.819 1089.15,-190.637 1099.53,-192.755 1098.59,-185.819"/>
</g>
<!-- Node21&#45;&gt;Node3 -->
<g id="edge29" class="edge"><title>Node21&#45;&gt;Node3</title>
<path fill="none" stroke="midnightblue" d="M1206.19,-193.132C1242.34,-212.817 1305.89,-247.412 1336.52,-264.088"/>
<polygon fill="midnightblue" stroke="midnightblue" points="1207.65,-189.943 1197.19,-188.236 1204.3,-196.091 1207.65,-189.943"/>
</g>
<!-- Node21&#45;&gt;Node16 -->
<g id="edge30" class="edge"><title>Node21&#45;&gt;Node16</title>
<path fill="none" stroke="midnightblue" d="M1210.88,-164.937C1245.85,-149.706 1301.5,-125.471 1332.08,-112.151"/>
<polygon fill="midnightblue" stroke="midnightblue" points="1209.37,-161.776 1201.6,-168.978 1212.17,-168.194 1209.37,-161.776"/>
</g>
<!-- Node21&#45;&gt;Node18 -->
<g id="edge31" class="edge"><title>Node21&#45;&gt;Node18</title>
<path fill="none" stroke="midnightblue" d="M1239.6,-178.604C1260.59,-178.604 1283.91,-178.604 1303.99,-178.604"/>
<polygon fill="midnightblue" stroke="midnightblue" points="1239.5,-175.104 1229.5,-178.604 1239.5,-182.104 1239.5,-175.104"/>
</g>
<!-- Node23 -->
<g id="node23" class="node"><title>Node23</title>
<g id="a_node23"><a xlink:href="classEngine.html#a89f23eaccc126a355d287e1959b4556f" target="_top" xlink:title="Engine::setTileIDOfNode">
<polygon fill="none" stroke="black" points="651,-283.104 651,-302.104 782,-302.104 782,-283.104 651,-283.104"/>
<text text-anchor="middle" x="716.5" y="-290.104" font-family="Helvetica,sans-Serif" font-size="10.00">Engine::setTileIDOfNode</text>
</a>
</g>
</g>
<!-- Node22&#45;&gt;Node23 -->
<g id="edge36" class="edge"><title>Node22&#45;&gt;Node23</title>
<path fill="none" stroke="midnightblue" d="M625.436,-292.604C633.87,-292.604 642.466,-292.604 650.835,-292.604"/>
<polygon fill="midnightblue" stroke="midnightblue" points="625.254,-289.104 615.254,-292.604 625.254,-296.104 625.254,-289.104"/>
</g>
<!-- Node23&#45;&gt;Node3 -->
<g id="edge37" class="edge"><title>Node23&#45;&gt;Node3</title>
<path fill="none" stroke="midnightblue" d="M792.056,-290.378C914.318,-286.729 1156.07,-279.512 1278.77,-275.849"/>
<polygon fill="midnightblue" stroke="midnightblue" points="791.925,-286.88 782.034,-290.677 792.134,-293.877 791.925,-286.88"/>
</g>
</g>
</svg>
