<?xml version="1.0" encoding="UTF-8" standalone="no"?>
<!DOCTYPE svg PUBLIC "-//W3C//DTD SVG 1.1//EN"
 "http://www.w3.org/Graphics/SVG/1.1/DTD/svg11.dtd">
<!-- Generated by graphviz version 2.38.0 (20140413.2041)
 -->
<!-- Title: Engine::saveGame Pages: 1 -->
<svg width="1096pt" height="288pt"
 viewBox="0.00 0.00 1096.00 288.00" xmlns="http://www.w3.org/2000/svg" xmlns:xlink="http://www.w3.org/1999/xlink">
<g id="graph0" class="graph" transform="scale(1 1) rotate(0) translate(4 284)">
<title>Engine::saveGame</title>
<!-- Node1 -->
<g id="node1" class="node"><title>Node1</title>
<polygon fill="#bfbfbf" stroke="black" points="0,-79.5 0,-98.5 107,-98.5 107,-79.5 0,-79.5"/>
<text text-anchor="middle" x="53.5" y="-86.5" font-family="Helvetica,sans-Serif" font-size="10.00">Engine::saveGame</text>
</g>
<!-- Node2 -->
<g id="node2" class="node"><title>Node2</title>
<g id="a_node2"><a xlink:href="classMap.html#ae48ef4fa6a6f73d886211bca59123151" target="_top" xlink:title="Map::saveMapToFile">
<polygon fill="none" stroke="black" points="143,-98.5 143,-117.5 253,-117.5 253,-98.5 143,-98.5"/>
<text text-anchor="middle" x="198" y="-105.5" font-family="Helvetica,sans-Serif" font-size="10.00">Map::saveMapToFile</text>
</a>
</g>
</g>
<!-- Node1&#45;&gt;Node2 -->
<g id="edge1" class="edge"><title>Node1&#45;&gt;Node2</title>
<path fill="none" stroke="midnightblue" d="M107.157,-96.0209C115.477,-97.1302 124.16,-98.288 132.709,-99.4278"/>
<polygon fill="midnightblue" stroke="midnightblue" points="132.277,-102.901 142.652,-100.754 133.202,-95.9626 132.277,-102.901"/>
</g>
<!-- Node4 -->
<g id="node4" class="node"><title>Node4</title>
<g id="a_node4"><a xlink:href="classEngine.html#a260d4834150eae6eec2bde34df6dc827" target="_top" xlink:title="Creates a new game Creates a new game. ">
<polygon fill="none" stroke="black" points="146.5,-60.5 146.5,-79.5 249.5,-79.5 249.5,-60.5 146.5,-60.5"/>
<text text-anchor="middle" x="198" y="-67.5" font-family="Helvetica,sans-Serif" font-size="10.00">Engine::newGame</text>
</a>
</g>
</g>
<!-- Node1&#45;&gt;Node4 -->
<g id="edge3" class="edge"><title>Node1&#45;&gt;Node4</title>
<path fill="none" stroke="midnightblue" d="M107.157,-81.9791C116.689,-80.7081 126.699,-79.3734 136.437,-78.0751"/>
<polygon fill="midnightblue" stroke="midnightblue" points="137.005,-81.5305 146.454,-76.7394 136.079,-74.5919 137.005,-81.5305"/>
</g>
<!-- Node3 -->
<g id="node3" class="node"><title>Node3</title>
<g id="a_node3"><a xlink:href="compression_8hxx.html#a2b136078ca5d23222e9c24092a9918fa" target="_top" xlink:title="Compress a given string with zlib Compress the given string. Returns an empty string if something wen...">
<polygon fill="none" stroke="black" points="289,-98.5 289,-117.5 381,-117.5 381,-98.5 289,-98.5"/>
<text text-anchor="middle" x="335" y="-105.5" font-family="Helvetica,sans-Serif" font-size="10.00">compressString</text>
</a>
</g>
</g>
<!-- Node2&#45;&gt;Node3 -->
<g id="edge2" class="edge"><title>Node2&#45;&gt;Node3</title>
<path fill="none" stroke="midnightblue" d="M253.132,-108C261.58,-108 270.32,-108 278.792,-108"/>
<polygon fill="midnightblue" stroke="midnightblue" points="278.956,-111.5 288.956,-108 278.956,-104.5 278.956,-111.5"/>
</g>
<!-- Node5 -->
<g id="node5" class="node"><title>Node5</title>
<g id="a_node5"><a xlink:href="classSingleton.html#af5cb1e5749949e2b68416cfb8d378044" target="_top" xlink:title="Get an instance of the singleton. ">
<polygon fill="none" stroke="black" points="975,-4 975,-34 1088,-34 1088,-4 975,-4"/>
<text text-anchor="start" x="983" y="-22" font-family="Helvetica,sans-Serif" font-size="10.00">Singleton&lt; Settings</text>
<text text-anchor="middle" x="1031.5" y="-11" font-family="Helvetica,sans-Serif" font-size="10.00"> &gt;::instance</text>
</a>
</g>
</g>
<!-- Node4&#45;&gt;Node5 -->
<g id="edge4" class="edge"><title>Node4&#45;&gt;Node5</title>
<path fill="none" stroke="midnightblue" d="M222.222,-60.4136C270.83,-41.2423 387.226,-1.42109e-14 489,-0 489,-0 489,-0 680.5,-0 779.681,-0 894.44,-7.70133 964.74,-13.2978"/>
<polygon fill="midnightblue" stroke="midnightblue" points="964.533,-16.7924 974.782,-14.107 965.096,-9.815 964.533,-16.7924"/>
</g>
<!-- Node6 -->
<g id="node6" class="node"><title>Node6</title>
<g id="a_node6"><a xlink:href="classMap.html#a482ac34426e8aa66abb46f60ec329402" target="_top" xlink:title="Initialize the Map with node objects Initialize the Map with node objects. ">
<polygon fill="none" stroke="black" points="296.5,-60.5 296.5,-79.5 373.5,-79.5 373.5,-60.5 296.5,-60.5"/>
<text text-anchor="middle" x="335" y="-67.5" font-family="Helvetica,sans-Serif" font-size="10.00">Map::initMap</text>
</a>
</g>
</g>
<!-- Node4&#45;&gt;Node6 -->
<g id="edge5" class="edge"><title>Node4&#45;&gt;Node6</title>
<path fill="none" stroke="midnightblue" d="M249.653,-70C261.574,-70 274.243,-70 286.041,-70"/>
<polygon fill="midnightblue" stroke="midnightblue" points="286.144,-73.5001 296.144,-70 286.144,-66.5001 286.144,-73.5001"/>
</g>
<!-- Node7 -->
<g id="node7" class="node"><title>Node7</title>
<g id="a_node7"><a xlink:href="classMapLayers.html#a54ce1eeef2a8998a728ac7074efe8787" target="_top" xlink:title="Enable Drawing Layer Enable Drawing Layer (use bitwise OR to add layer) ">
<polygon fill="none" stroke="black" points="423.5,-82.5 423.5,-101.5 556.5,-101.5 556.5,-82.5 423.5,-82.5"/>
<text text-anchor="middle" x="490" y="-89.5" font-family="Helvetica,sans-Serif" font-size="10.00">MapLayers::enableLayer</text>
</a>
</g>
</g>
<!-- Node6&#45;&gt;Node7 -->
<g id="edge6" class="edge"><title>Node6&#45;&gt;Node7</title>
<path fill="none" stroke="midnightblue" d="M373.82,-75.4382C385.854,-77.1686 399.622,-79.1482 413.352,-81.1225"/>
<polygon fill="midnightblue" stroke="midnightblue" points="412.922,-84.5966 423.318,-82.5556 413.918,-77.6678 412.922,-84.5966"/>
</g>
<!-- Node8 -->
<g id="node8" class="node"><title>Node8</title>
<g id="a_node8"><a xlink:href="classTerrainGenerator.html#adcc251757a1f3a06471a49f17886b8ce" target="_top" xlink:title="TerrainGenerator::generate\lTerrain">
<polygon fill="none" stroke="black" points="417,-33 417,-63 563,-63 563,-33 417,-33"/>
<text text-anchor="start" x="425" y="-51" font-family="Helvetica,sans-Serif" font-size="10.00">TerrainGenerator::generate</text>
<text text-anchor="middle" x="490" y="-40" font-family="Helvetica,sans-Serif" font-size="10.00">Terrain</text>
</a>
</g>
</g>
<!-- Node6&#45;&gt;Node8 -->
<g id="edge7" class="edge"><title>Node6&#45;&gt;Node8</title>
<path fill="none" stroke="midnightblue" d="M373.82,-64.5618C383.95,-63.1053 395.307,-61.4722 406.837,-59.8143"/>
<polygon fill="midnightblue" stroke="midnightblue" points="407.587,-63.2425 416.987,-58.3548 406.591,-56.3138 407.587,-63.2425"/>
</g>
<!-- Node10 -->
<g id="node10" class="node"><title>Node10</title>
<g id="a_node10"><a xlink:href="classMap.html#a481b37ba71ef0e51e836fc42805762dd" target="_top" xlink:title="Update all mapNodes Updates all mapNode and its adjacent tiles regarding height information, draws slopes for adjacent tiles and sets tiling for mapNode sprite if applicable. ">
<polygon fill="none" stroke="black" points="430.5,-123.5 430.5,-142.5 549.5,-142.5 549.5,-123.5 430.5,-123.5"/>
<text text-anchor="middle" x="490" y="-130.5" font-family="Helvetica,sans-Serif" font-size="10.00">Map::updateAllNodes</text>
</a>
</g>
</g>
<!-- Node6&#45;&gt;Node10 -->
<g id="edge9" class="edge"><title>Node6&#45;&gt;Node10</title>
<path fill="none" stroke="midnightblue" d="M360.592,-79.6037C367.303,-82.4343 374.511,-85.6709 381,-89 397.684,-97.5595 399.898,-103.31 417,-111 424.797,-114.506 433.31,-117.656 441.664,-120.404"/>
<polygon fill="midnightblue" stroke="midnightblue" points="440.756,-123.787 451.345,-123.442 442.852,-117.109 440.756,-123.787"/>
</g>
<!-- Node9 -->
<g id="node9" class="node"><title>Node9</title>
<g id="a_node9"><a xlink:href="classTerrainGenerator.html#ac94cfaeb9dc89453018399361da5174a" target="_top" xlink:title="TerrainGenerator::loadTerrain\lDataFromJSON">
<polygon fill="none" stroke="black" points="602,-33 602,-63 757,-63 757,-33 602,-33"/>
<text text-anchor="start" x="610" y="-51" font-family="Helvetica,sans-Serif" font-size="10.00">TerrainGenerator::loadTerrain</text>
<text text-anchor="middle" x="679.5" y="-40" font-family="Helvetica,sans-Serif" font-size="10.00">DataFromJSON</text>
</a>
</g>
</g>
<!-- Node8&#45;&gt;Node9 -->
<g id="edge8" class="edge"><title>Node8&#45;&gt;Node9</title>
<path fill="none" stroke="midnightblue" d="M563.224,-48C572.543,-48 582.161,-48 591.684,-48"/>
<polygon fill="midnightblue" stroke="midnightblue" points="591.96,-51.5001 601.96,-48 591.96,-44.5001 591.96,-51.5001"/>
</g>
<!-- Node11 -->
<g id="node11" class="node"><title>Node11</title>
<g id="a_node11"><a xlink:href="classMap.html#a59d21f2688713fbcfe320eb1b24405ca" target="_top" xlink:title="Update mapNode and its adjacent tiles Updates mapNode height information, draws slopes for adjacent t...">
<polygon fill="none" stroke="black" points="599,-125.5 599,-144.5 760,-144.5 760,-125.5 599,-125.5"/>
<text text-anchor="middle" x="679.5" y="-132.5" font-family="Helvetica,sans-Serif" font-size="10.00">Map::updateNeighborsOfNode</text>
</a>
</g>
</g>
<!-- Node10&#45;&gt;Node11 -->
<g id="edge10" class="edge"><title>Node10&#45;&gt;Node11</title>
<path fill="none" stroke="midnightblue" d="M549.555,-133.625C561.97,-133.757 575.349,-133.9 588.625,-134.041"/>
<polygon fill="midnightblue" stroke="midnightblue" points="588.702,-137.542 598.738,-134.149 588.776,-130.543 588.702,-137.542"/>
</g>
<!-- Node12 -->
<g id="node12" class="node"><title>Node12</title>
<g id="a_node12"><a xlink:href="classMap.html#a63f0e5040c86652c7239475f8ff3a45a" target="_top" xlink:title="Get neighbor MapNode Objects Stores pointers to the neighboring nodes of the given coordinates in the...">
<polygon fill="none" stroke="black" points="814,-222.5 814,-241.5 921,-241.5 921,-222.5 814,-222.5"/>
<text text-anchor="middle" x="867.5" y="-229.5" font-family="Helvetica,sans-Serif" font-size="10.00">Map::getNeighbors</text>
</a>
</g>
</g>
<!-- Node11&#45;&gt;Node12 -->
<g id="edge11" class="edge"><title>Node11&#45;&gt;Node12</title>
<path fill="none" stroke="midnightblue" d="M691.861,-144.585C711.73,-160.89 754.626,-194.094 796,-213 801.244,-215.396 806.85,-217.541 812.524,-219.447"/>
<polygon fill="midnightblue" stroke="midnightblue" points="811.497,-222.793 822.086,-222.434 813.584,-216.112 811.497,-222.793"/>
</g>
<!-- Node13 -->
<g id="node13" class="node"><title>Node13</title>
<g id="a_node13"><a xlink:href="classMap.html#a0ff55eb041cdf29aa582a21145319ce0" target="_top" xlink:title="Get elevated neighbor positions in a bitmask Checks all neighboring tiles and returns the elevated ne...">
<polygon fill="none" stroke="black" points="796,-173 796,-203 939,-203 939,-173 796,-173"/>
<text text-anchor="start" x="804" y="-191" font-family="Helvetica,sans-Serif" font-size="10.00">Map::getElevatedNeighbor</text>
<text text-anchor="middle" x="867.5" y="-180" font-family="Helvetica,sans-Serif" font-size="10.00">Bitmask</text>
</a>
</g>
</g>
<!-- Node11&#45;&gt;Node13 -->
<g id="edge12" class="edge"><title>Node11&#45;&gt;Node13</title>
<path fill="none" stroke="midnightblue" d="M714.183,-144.598C739.108,-151.7 773.788,-161.582 803.762,-170.123"/>
<polygon fill="midnightblue" stroke="midnightblue" points="803.149,-173.588 813.726,-172.962 805.067,-166.856 803.149,-173.588"/>
</g>
<!-- Node14 -->
<g id="node14" class="node"><title>Node14</title>
<g id="a_node14"><a xlink:href="classMap.html#a05e7d896dc5062af07c9b838600a068d" target="_top" xlink:title="Demolish a node Invokes the tiles demolish function. ">
<polygon fill="none" stroke="black" points="975.5,-125.5 975.5,-144.5 1087.5,-144.5 1087.5,-125.5 975.5,-125.5"/>
<text text-anchor="middle" x="1031.5" y="-132.5" font-family="Helvetica,sans-Serif" font-size="10.00">Map::demolishNode</text>
</a>
</g>
</g>
<!-- Node11&#45;&gt;Node14 -->
<g id="edge13" class="edge"><title>Node11&#45;&gt;Node14</title>
<path fill="none" stroke="midnightblue" d="M760.358,-129.229C822.405,-127.808 907.378,-127.934 965.35,-129.608"/>
<polygon fill="midnightblue" stroke="midnightblue" points="965.384,-133.111 975.489,-129.926 965.604,-126.114 965.384,-133.111"/>
</g>
<!-- Node15 -->
<g id="node15" class="node"><title>Node15</title>
<g id="a_node15"><a xlink:href="classMap.html#a392940f84796653b8e811ed8dc296c84" target="_top" xlink:title="Get a bitmask that represents same&#45;tile neighbors Checks all neighboring tiles and returns the elevat...">
<polygon fill="none" stroke="black" points="799,-67 799,-97 936,-97 936,-67 799,-67"/>
<text text-anchor="start" x="807" y="-85" font-family="Helvetica,sans-Serif" font-size="10.00">Map::getNeighboringTiles</text>
<text text-anchor="middle" x="867.5" y="-74" font-family="Helvetica,sans-Serif" font-size="10.00">Bitmask</text>
</a>
</g>
</g>
<!-- Node11&#45;&gt;Node15 -->
<g id="edge15" class="edge"><title>Node11&#45;&gt;Node15</title>
<path fill="none" stroke="midnightblue" d="M714.183,-125.402C739.108,-118.3 773.788,-108.418 803.762,-99.877"/>
<polygon fill="midnightblue" stroke="midnightblue" points="805.067,-103.144 813.726,-97.0379 803.149,-96.4123 805.067,-103.144"/>
</g>
<!-- Node16 -->
<g id="node16" class="node"><title>Node16</title>
<g id="a_node16"><a xlink:href="classMap.html#aba5154a4d917900679a3c0f7ec701561" target="_top" xlink:title="Increase Height Increases the height of the node and checks the surrounding tiles. Either draw a slope sprite or elevate the tile if necessary. ">
<polygon fill="none" stroke="black" points="810,-28.5 810,-47.5 925,-47.5 925,-28.5 810,-28.5"/>
<text text-anchor="middle" x="867.5" y="-35.5" font-family="Helvetica,sans-Serif" font-size="10.00">Map::increaseHeight</text>
</a>
</g>
</g>
<!-- Node11&#45;&gt;Node16 -->
<g id="edge16" class="edge"><title>Node11&#45;&gt;Node16</title>
<path fill="none" stroke="midnightblue" d="M686.809,-125.296C703.502,-106.599 750.664,-68.7157 796,-48 797.369,-47.3744 798.763,-46.7659 800.176,-46.1753"/>
<polygon fill="midnightblue" stroke="midnightblue" points="801.627,-49.3681 809.73,-42.5425 799.139,-42.8252 801.627,-49.3681"/>
</g>
<!-- Node17 -->
<g id="node17" class="node"><title>Node17</title>
<g id="a_node17"><a xlink:href="classMap.html#afb8cc864df90d273a5074872d635dc40" target="_top" xlink:title="Decrease Height Decreases the height of the node and checks the surrounding tiles. Either draw a slope sprite or lower the tile if necessary. ">
<polygon fill="none" stroke="black" points="808,-260.5 808,-279.5 927,-279.5 927,-260.5 808,-260.5"/>
<text text-anchor="middle" x="867.5" y="-267.5" font-family="Helvetica,sans-Serif" font-size="10.00">Map::decreaseHeight</text>
</a>
</g>
</g>
<!-- Node11&#45;&gt;Node17 -->
<g id="edge20" class="edge"><title>Node11&#45;&gt;Node17</title>
<path fill="none" stroke="midnightblue" d="M691.427,-144.781C710.02,-166.265 750.27,-215.487 796,-242 808.934,-249.498 824.913,-254.12 838.387,-257.805"/>
<polygon fill="midnightblue" stroke="midnightblue" points="837.541,-261.202 848.111,-260.472 839.392,-254.451 837.541,-261.202"/>
</g>
<!-- Node14&#45;&gt;Node11 -->
<g id="edge14" class="edge"><title>Node14&#45;&gt;Node11</title>
<path fill="none" stroke="midnightblue" d="M975.489,-140.074C920.601,-141.945 835.34,-142.25 770.57,-140.987"/>
<polygon fill="midnightblue" stroke="midnightblue" points="770.43,-137.483 760.358,-140.771 770.282,-144.482 770.43,-137.483"/>
</g>
<!-- Node16&#45;&gt;Node5 -->
<g id="edge17" class="edge"><title>Node16&#45;&gt;Node5</title>
<path fill="none" stroke="midnightblue" d="M925.16,-31.3547C938.029,-29.8453 951.802,-28.23 965.005,-26.6816"/>
<polygon fill="midnightblue" stroke="midnightblue" points="965.441,-30.1545 974.965,-25.5134 964.625,-23.2022 965.441,-30.1545"/>
</g>
<!-- Node16&#45;&gt;Node11 -->
<g id="edge19" class="edge"><title>Node16&#45;&gt;Node11</title>
<path fill="none" stroke="midnightblue" d="M851.146,-47.5398C836.516,-52.4565 814.102,-57.7287 796,-66 763.943,-80.6482 730.972,-103.88 708.507,-119.527"/>
<polygon fill="midnightblue" stroke="midnightblue" points="706.371,-116.749 700.142,-125.319 710.356,-122.504 706.371,-116.749"/>
</g>
<!-- Node16&#45;&gt;Node14 -->
<g id="edge18" class="edge"><title>Node16&#45;&gt;Node14</title>
<path fill="none" stroke="midnightblue" d="M915.497,-47.5374C923.576,-50.0476 931.709,-53.1617 939,-57 969.113,-72.8531 997.981,-100.149 1014.98,-117.883"/>
<polygon fill="midnightblue" stroke="midnightblue" points="1012.52,-120.38 1021.91,-125.283 1017.63,-115.593 1012.52,-120.38"/>
</g>
<!-- Node17&#45;&gt;Node11 -->
<g id="edge22" class="edge"><title>Node17&#45;&gt;Node11</title>
<path fill="none" stroke="midnightblue" d="M807.812,-265.772C803.71,-264.084 799.729,-262.162 796,-260 748.935,-232.713 707.674,-181.372 689.854,-153.446"/>
<polygon fill="midnightblue" stroke="midnightblue" points="692.705,-151.395 684.558,-144.622 686.704,-154.997 692.705,-151.395"/>
</g>
<!-- Node17&#45;&gt;Node14 -->
<g id="edge21" class="edge"><title>Node17&#45;&gt;Node14</title>
<path fill="none" stroke="midnightblue" d="M919.505,-260.487C926.367,-258.016 933.074,-254.909 939,-251 977.162,-225.829 1006.54,-179.48 1020.86,-153.643"/>
<polygon fill="midnightblue" stroke="midnightblue" points="1023.95,-155.296 1025.6,-144.831 1017.78,-151.979 1023.95,-155.296"/>
</g>
</g>
</svg>
