<?xml version="1.0" encoding="UTF-8" standalone="no"?>
<!DOCTYPE svg PUBLIC "-//W3C//DTD SVG 1.1//EN"
 "http://www.w3.org/Graphics/SVG/1.1/DTD/svg11.dtd">
<!-- Generated by graphviz version 2.38.0 (20140413.2041)
 -->
<!-- Title: Map::getElevatedNeighborBitmask Pages: 1 -->
<!--zoomable 374 -->
<svg id="main" version="1.1" xmlns="http://www.w3.org/2000/svg" xmlns:xlink="http://www.w3.org/1999/xlink" xml:space="preserve" onload="init(evt)">
<style type="text/css"><![CDATA[
.edge:hover path { stroke: red; }
.edge:hover polygon { stroke: red; fill: red; }
]]></style>
<script type="text/javascript"><![CDATA[
var edges = document.getElementsByTagName('g');
if (edges && edges.length) {
  for (var i=0;i<edges.length;i++) {
    if (edges[i].id.substr(0,4)=='edge') {
      edges[i].setAttribute('class','edge');
    }
  }
}
]]></script>
        <defs>
                <circle id="rim" cx="0" cy="0" r="7"/>
                <circle id="rim2" cx="0" cy="0" r="3.5"/>
                <g id="zoomPlus">
                        <use xlink:href="#rim" fill="#404040">
                                <set attributeName="fill" to="#808080" begin="zoomplus.mouseover" end="zoomplus.mouseout"/>
                        </use>
                        <path d="M-4,0h8M0,-4v8" fill="none" stroke="white" stroke-width="1.5" pointer-events="none"/>
                </g>
                <g id="zoomMin">
                        <use xlink:href="#rim" fill="#404040">
                                <set attributeName="fill" to="#808080" begin="zoomminus.mouseover" end="zoomminus.mouseout"/>
                        </use>
                        <path d="M-4,0h8" fill="none" stroke="white" stroke-width="1.5" pointer-events="none"/>
                </g>
                <g id="dirArrow">
                        <path fill="none" stroke="white" stroke-width="1.5" d="M0,-3.0v7 M-2.5,-0.5L0,-3.0L2.5,-0.5"/>
                </g>
               <g id="resetDef">
                       <use xlink:href="#rim2" fill="#404040">
                               <set attributeName="fill" to="#808080" begin="reset.mouseover" end="reset.mouseout"/>
                       </use>
               </g>
        </defs>

<script type="text/javascript">
var viewWidth = 1799;
var viewHeight = 374;
var sectionId = 'dynsection-9';
</script>
<script xlink:href="svgpan.js"/>
<svg id="graph" class="graph">
<g id="viewport">
<title>Map::getElevatedNeighborBitmask</title>
<!-- Node1 -->
<g id="node1" class="node"><title>Node1</title>
<polygon fill="#bfbfbf" stroke="black" points="0,-271.678 0,-301.678 143,-301.678 143,-271.678 0,-271.678"/>
<text text-anchor="start" x="8" y="-289.678" font-family="Helvetica,sans-Serif" font-size="10.00">Map::getElevatedNeighbor</text>
<text text-anchor="middle" x="71.5" y="-278.678" font-family="Helvetica,sans-Serif" font-size="10.00">Bitmask</text>
</g>
<!-- Node2 -->
<g id="node2" class="node"><title>Node2</title>
<g id="a_node2"><a xlink:href="classMap.html#a59d21f2688713fbcfe320eb1b24405ca" target="_top" xlink:title="Update mapNode and its adjacent tiles Updates mapNode height information, draws slopes for adjacent t...">
<polygon fill="none" stroke="black" points="179,-277.178 179,-296.178 340,-296.178 340,-277.178 179,-277.178"/>
<text text-anchor="middle" x="259.5" y="-284.178" font-family="Helvetica,sans-Serif" font-size="10.00">Map::updateNeighborsOfNode</text>
</a>
</g>
</g>
<!-- Node1&#45;&gt;Node2 -->
<g id="edge1" class="edge"><title>Node1&#45;&gt;Node2</title>
<path fill="none" stroke="midnightblue" d="M153.351,-286.678C161.839,-286.678 170.465,-286.678 178.94,-286.678"/>
<polygon fill="midnightblue" stroke="midnightblue" points="153.084,-283.178 143.084,-286.678 153.084,-290.178 153.084,-283.178"/>
</g>
<!-- Node3 -->
<g id="node3" class="node"><title>Node3</title>
<g id="a_node3"><a xlink:href="classMap.html#aba5154a4d917900679a3c0f7ec701561" target="_top" xlink:title="Increase Height Increases the height of the node and checks the surrounding tiles. Either draw a slope sprite or elevate the tile if necessary. ">
<polygon fill="none" stroke="black" points="533,-346.178 533,-365.178 648,-365.178 648,-346.178 533,-346.178"/>
<text text-anchor="middle" x="590.5" y="-353.178" font-family="Helvetica,sans-Serif" font-size="10.00">Map::increaseHeight</text>
</a>
</g>
</g>
<!-- Node2&#45;&gt;Node3 -->
<g id="edge2" class="edge"><title>Node2&#45;&gt;Node3</title>
<path fill="none" stroke="midnightblue" d="M309.975,-299.665C330.123,-306.931 353.846,-315.285 376,-320.678 432.416,-334.412 499.069,-341.054 542.707,-346.17"/>
<polygon fill="midnightblue" stroke="midnightblue" points="310.989,-296.31 300.395,-296.203 308.61,-302.893 310.989,-296.31"/>
</g>
<!-- Node9 -->
<g id="node9" class="node"><title>Node9</title>
<g id="a_node9"><a xlink:href="classMap.html#afb8cc864df90d273a5074872d635dc40" target="_top" xlink:title="Decrease Height Decreases the height of the node and checks the surrounding tiles. Either draw a slope sprite or lower the tile if necessary. ">
<polygon fill="none" stroke="black" points="531,-257.178 531,-276.178 650,-276.178 650,-257.178 531,-257.178"/>
<text text-anchor="middle" x="590.5" y="-264.178" font-family="Helvetica,sans-Serif" font-size="10.00">Map::decreaseHeight</text>
</a>
</g>
</g>
<!-- Node2&#45;&gt;Node9 -->
<g id="edge9" class="edge"><title>Node2&#45;&gt;Node9</title>
<path fill="none" stroke="midnightblue" d="M336.34,-276.278C395.582,-271.251 476.702,-266.481 530.994,-264.929"/>
<polygon fill="midnightblue" stroke="midnightblue" points="335.946,-272.799 326.287,-277.152 336.553,-279.773 335.946,-272.799"/>
</g>
<!-- Node11 -->
<g id="node11" class="node"><title>Node11</title>
<g id="a_node11"><a xlink:href="classMap.html#a481b37ba71ef0e51e836fc42805762dd" target="_top" xlink:title="Update all mapNodes Updates all mapNode and its adjacent tiles regarding height information, draws slopes for adjacent tiles and sets tiling for mapNode sprite if applicable. ">
<polygon fill="none" stroke="black" points="376,-159.178 376,-178.178 495,-178.178 495,-159.178 376,-159.178"/>
<text text-anchor="middle" x="435.5" y="-166.178" font-family="Helvetica,sans-Serif" font-size="10.00">Map::updateAllNodes</text>
</a>
</g>
</g>
<!-- Node2&#45;&gt;Node11 -->
<g id="edge13" class="edge"><title>Node2&#45;&gt;Node11</title>
<path fill="none" stroke="midnightblue" d="M279.086,-270.506C301.242,-251.675 339.828,-220.274 376,-197.678 387.633,-190.411 401.338,-183.535 412.558,-178.304"/>
<polygon fill="midnightblue" stroke="midnightblue" points="276.752,-267.897 271.438,-277.063 281.308,-273.211 276.752,-267.897"/>
</g>
<!-- Node21 -->
<g id="node21" class="node"><title>Node21</title>
<g id="a_node21"><a xlink:href="classMap.html#ad4c2c2f80eab02ca32a748a62a56da12" target="_top" xlink:title="Set the Tile ID Of Node object Also invokes all necessary texture updates (auto&#45;tiling, slopes, ...) ">
<polygon fill="none" stroke="black" points="376,-207.178 376,-226.178 495,-226.178 495,-207.178 376,-207.178"/>
<text text-anchor="middle" x="435.5" y="-214.178" font-family="Helvetica,sans-Serif" font-size="10.00">Map::setTileIDOfNode</text>
</a>
</g>
</g>
<!-- Node2&#45;&gt;Node21 -->
<g id="edge33" class="edge"><title>Node2&#45;&gt;Node21</title>
<path fill="none" stroke="midnightblue" d="M293.892,-273.244C328.105,-259.481 380.442,-238.425 410.68,-226.261"/>
<polygon fill="midnightblue" stroke="midnightblue" points="292.3,-270.112 284.329,-277.092 294.913,-276.606 292.3,-270.112"/>
</g>
<!-- Node23 -->
<g id="node23" class="node"><title>Node23</title>
<g id="a_node23"><a xlink:href="classMap.html#a05e7d896dc5062af07c9b838600a068d" target="_top" xlink:title="Demolish a node Invokes the tiles demolish function. ">
<polygon fill="none" stroke="black" points="379.5,-301.178 379.5,-320.178 491.5,-320.178 491.5,-301.178 379.5,-301.178"/>
<text text-anchor="middle" x="435.5" y="-308.178" font-family="Helvetica,sans-Serif" font-size="10.00">Map::demolishNode</text>
</a>
</g>
</g>
<!-- Node2&#45;&gt;Node23 -->
<g id="edge36" class="edge"><title>Node2&#45;&gt;Node23</title>
<path fill="none" stroke="midnightblue" d="M350.182,-292.301C369.439,-294.998 388.52,-298.112 403.648,-301.122"/>
<polygon fill="midnightblue" stroke="midnightblue" points="350.497,-288.811 340.116,-290.931 349.553,-295.747 350.497,-288.811"/>
</g>
<!-- Node3&#45;&gt;Node2 -->
<g id="edge8" class="edge"><title>Node3&#45;&gt;Node2</title>
<path fill="none" stroke="midnightblue" d="M522.449,-359.314C480.02,-356.986 424.264,-350.427 376,-338.678 335.46,-328.809 289.665,-309.026 270.143,-296.18"/>
<polygon fill="midnightblue" stroke="midnightblue" points="522.504,-362.82 532.661,-359.804 522.84,-355.828 522.504,-362.82"/>
</g>
<!-- Node4 -->
<g id="node4" class="node"><title>Node4</title>
<g id="a_node4"><a xlink:href="classEngine.html#aa7210df73b284c19cd6edcfa99a4532e" target="_top" xlink:title="Increase Height Increases the height of the given map node Calls the according function of the Map ob...">
<polygon fill="none" stroke="black" points="853,-340.178 853,-359.178 980,-359.178 980,-340.178 853,-340.178"/>
<text text-anchor="middle" x="916.5" y="-347.178" font-family="Helvetica,sans-Serif" font-size="10.00">Engine::increaseHeight</text>
</a>
</g>
</g>
<!-- Node3&#45;&gt;Node4 -->
<g id="edge3" class="edge"><title>Node3&#45;&gt;Node4</title>
<path fill="none" stroke="midnightblue" d="M658.323,-354.44C715.46,-353.382 797.07,-351.871 852.943,-350.836"/>
<polygon fill="midnightblue" stroke="midnightblue" points="658.241,-350.941 648.307,-354.626 658.37,-357.94 658.241,-350.941"/>
</g>
<!-- Node5 -->
<g id="node5" class="node"><title>Node5</title>
<g id="a_node5"><a xlink:href="classEventManager.html#a65ec91fd5016d4f9c4167fb8babed2df" target="_top" xlink:title="EventManager::checkEvents">
<polygon fill="none" stroke="black" points="1194,-244.178 1194,-263.178 1346,-263.178 1346,-244.178 1194,-244.178"/>
<text text-anchor="middle" x="1270" y="-251.178" font-family="Helvetica,sans-Serif" font-size="10.00">EventManager::checkEvents</text>
</a>
</g>
</g>
<!-- Node4&#45;&gt;Node5 -->
<g id="edge4" class="edge"><title>Node4&#45;&gt;Node5</title>
<path fill="none" stroke="midnightblue" d="M990.518,-349.442C1036.45,-347.426 1096.38,-341.327 1147,-324.678 1190.53,-310.359 1235.56,-279.075 1256.68,-263.251"/>
<polygon fill="midnightblue" stroke="midnightblue" points="990.206,-345.952 980.348,-349.833 990.475,-352.947 990.206,-345.952"/>
</g>
<!-- Node6 -->
<g id="node6" class="node"><title>Node6</title>
<g id="a_node6"><a xlink:href="classGame.html#a1c2ab25d5216b2f4b2fe41efd2c09114" target="_top" xlink:title="Game::run">
<polygon fill="none" stroke="black" points="1518,-92.1779 1518,-111.178 1586,-111.178 1586,-92.1779 1518,-92.1779"/>
<text text-anchor="middle" x="1552" y="-99.1779" font-family="Helvetica,sans-Serif" font-size="10.00">Game::run</text>
</a>
</g>
</g>
<!-- Node5&#45;&gt;Node6 -->
<g id="edge5" class="edge"><title>Node5&#45;&gt;Node6</title>
<path fill="none" stroke="midnightblue" d="M1297.58,-239.249C1354.31,-208.451 1485.96,-136.983 1533.49,-111.183"/>
<polygon fill="midnightblue" stroke="midnightblue" points="1295.63,-236.323 1288.52,-244.17 1298.97,-242.475 1295.63,-236.323"/>
</g>
<!-- Node7 -->
<g id="node7" class="node"><title>Node7</title>
<g id="a_node7"><a xlink:href="main_8cxx.html#af582d708d899e67ead623eac34a22387" target="_top" xlink:title="protected_main">
<polygon fill="none" stroke="black" points="1622,-130.178 1622,-149.178 1714,-149.178 1714,-130.178 1622,-130.178"/>
<text text-anchor="middle" x="1668" y="-137.178" font-family="Helvetica,sans-Serif" font-size="10.00">protected_main</text>
</a>
</g>
</g>
<!-- Node6&#45;&gt;Node7 -->
<g id="edge6" class="edge"><title>Node6&#45;&gt;Node7</title>
<path fill="none" stroke="midnightblue" d="M1591.48,-114.504C1606.77,-119.603 1624.07,-125.367 1638.24,-130.092"/>
<polygon fill="midnightblue" stroke="midnightblue" points="1592.36,-111.109 1581.77,-111.267 1590.15,-117.75 1592.36,-111.109"/>
</g>
<!-- Node8 -->
<g id="node8" class="node"><title>Node8</title>
<g id="a_node8"><a xlink:href="main_8cxx.html#a3c04138a5bfe5d72780bb7e82a18e627" target="_top" xlink:title="main">
<polygon fill="none" stroke="black" points="1750,-130.178 1750,-149.178 1791,-149.178 1791,-130.178 1750,-130.178"/>
<text text-anchor="middle" x="1770.5" y="-137.178" font-family="Helvetica,sans-Serif" font-size="10.00">main</text>
</a>
</g>
</g>
<!-- Node7&#45;&gt;Node8 -->
<g id="edge7" class="edge"><title>Node7&#45;&gt;Node8</title>
<path fill="none" stroke="midnightblue" d="M1724.54,-139.678C1733.62,-139.678 1742.47,-139.678 1749.88,-139.678"/>
<polygon fill="midnightblue" stroke="midnightblue" points="1724.25,-136.178 1714.25,-139.678 1724.25,-143.178 1724.25,-136.178"/>
</g>
<!-- Node9&#45;&gt;Node2 -->
<g id="edge12" class="edge"><title>Node9&#45;&gt;Node2</title>
<path fill="none" stroke="midnightblue" d="M520.704,-276.47C468.044,-281.096 395.322,-285.606 340.142,-287.715"/>
<polygon fill="midnightblue" stroke="midnightblue" points="521.312,-279.929 530.957,-275.544 520.683,-272.958 521.312,-279.929"/>
</g>
<!-- Node10 -->
<g id="node10" class="node"><title>Node10</title>
<g id="a_node10"><a xlink:href="classEngine.html#a3e87fa5bbc0de7cde5fe6092ddf21a37" target="_top" xlink:title="Decrease Height Decreases the height of the given map node Calls the according function of the Map ob...">
<polygon fill="none" stroke="black" points="686,-259.178 686,-278.178 817,-278.178 817,-259.178 686,-259.178"/>
<text text-anchor="middle" x="751.5" y="-266.178" font-family="Helvetica,sans-Serif" font-size="10.00">Engine::decreaseHeight</text>
</a>
</g>
</g>
<!-- Node9&#45;&gt;Node10 -->
<g id="edge10" class="edge"><title>Node9&#45;&gt;Node10</title>
<path fill="none" stroke="midnightblue" d="M660.436,-267.545C668.87,-267.651 677.466,-267.759 685.835,-267.865"/>
<polygon fill="midnightblue" stroke="midnightblue" points="660.297,-264.043 650.254,-267.417 660.209,-271.043 660.297,-264.043"/>
</g>
<!-- Node10&#45;&gt;Node5 -->
<g id="edge11" class="edge"><title>Node10&#45;&gt;Node5</title>
<path fill="none" stroke="midnightblue" d="M827.243,-266.507C925.121,-263.665 1095.75,-258.709 1193.84,-255.861"/>
<polygon fill="midnightblue" stroke="midnightblue" points="827.025,-263.012 817.131,-266.801 827.229,-270.009 827.025,-263.012"/>
</g>
<!-- Node12 -->
<g id="node12" class="node"><title>Node12</title>
<g id="a_node12"><a xlink:href="classMap.html#a482ac34426e8aa66abb46f60ec329402" target="_top" xlink:title="Initialize the Map with node objects Initialize the Map with node objects. ">
<polygon fill="none" stroke="black" points="552,-121.178 552,-140.178 629,-140.178 629,-121.178 552,-121.178"/>
<text text-anchor="middle" x="590.5" y="-128.178" font-family="Helvetica,sans-Serif" font-size="10.00">Map::initMap</text>
</a>
</g>
</g>
<!-- Node11&#45;&gt;Node12 -->
<g id="edge14" class="edge"><title>Node11&#45;&gt;Node12</title>
<path fill="none" stroke="midnightblue" d="M485.093,-156.609C506.724,-151.237 531.804,-145.008 551.962,-140.001"/>
<polygon fill="midnightblue" stroke="midnightblue" points="483.97,-153.282 475.108,-159.089 485.657,-160.075 483.97,-153.282"/>
</g>
<!-- Node18 -->
<g id="node18" class="node"><title>Node18</title>
<g id="a_node18"><a xlink:href="classMap.html#afefe996cc1f62b61ec60d0ae415953bf" target="_top" xlink:title="Map::loadMapFromFile">
<polygon fill="none" stroke="black" points="690.5,-149.178 690.5,-168.178 812.5,-168.178 812.5,-149.178 690.5,-149.178"/>
<text text-anchor="middle" x="751.5" y="-156.178" font-family="Helvetica,sans-Serif" font-size="10.00">Map::loadMapFromFile</text>
</a>
</g>
</g>
<!-- Node11&#45;&gt;Node18 -->
<g id="edge32" class="edge"><title>Node11&#45;&gt;Node18</title>
<path fill="none" stroke="midnightblue" d="M505.264,-166.488C560.609,-164.725 637.617,-162.273 690.493,-160.589"/>
<polygon fill="midnightblue" stroke="midnightblue" points="505.076,-162.992 495.193,-166.809 505.299,-169.989 505.076,-162.992"/>
</g>
<!-- Node13 -->
<g id="node13" class="node"><title>Node13</title>
<g id="a_node13"><a xlink:href="classEngine.html#a260d4834150eae6eec2bde34df6dc827" target="_top" xlink:title="Creates a new game Creates a new game. ">
<polygon fill="none" stroke="black" points="865,-35.1779 865,-54.1779 968,-54.1779 968,-35.1779 865,-35.1779"/>
<text text-anchor="middle" x="916.5" y="-42.1779" font-family="Helvetica,sans-Serif" font-size="10.00">Engine::newGame</text>
</a>
</g>
</g>
<!-- Node12&#45;&gt;Node13 -->
<g id="edge15" class="edge"><title>Node12&#45;&gt;Node13</title>
<path fill="none" stroke="midnightblue" d="M637.386,-118.498C702.457,-101.226 820.205,-69.9724 879.428,-54.2527"/>
<polygon fill="midnightblue" stroke="midnightblue" points="636.179,-115.197 627.412,-121.146 637.975,-121.963 636.179,-115.197"/>
</g>
<!-- Node12&#45;&gt;Node18 -->
<g id="edge24" class="edge"><title>Node12&#45;&gt;Node18</title>
<path fill="none" stroke="midnightblue" d="M639.195,-139.077C657.257,-142.258 677.942,-145.9 696.54,-149.176"/>
<polygon fill="midnightblue" stroke="midnightblue" points="639.636,-135.601 629.181,-137.314 638.422,-142.495 639.636,-135.601"/>
</g>
<!-- Node13&#45;&gt;Node6 -->
<g id="edge23" class="edge"><title>Node13&#45;&gt;Node6</title>
<path fill="none" stroke="midnightblue" d="M952.102,-31.8482C970.746,-25.6132 994.314,-18.804 1016,-15.6779 1222.08,14.0279 1284.55,2.3814 1482,-63.6779 1502.36,-70.4901 1523.7,-83.2391 1537.16,-92.0808"/>
<polygon fill="midnightblue" stroke="midnightblue" points="950.883,-28.5661 942.567,-35.1296 953.161,-35.1851 950.883,-28.5661"/>
</g>
<!-- Node14 -->
<g id="node14" class="node"><title>Node14</title>
<g id="a_node14"><a xlink:href="classEngine.html#af7de8d74b0cfacaf06df53e7caf11538" target="_top" xlink:title="Engine::saveGame">
<polygon fill="none" stroke="black" points="1028,-35.1779 1028,-54.1779 1135,-54.1779 1135,-35.1779 1028,-35.1779"/>
<text text-anchor="middle" x="1081.5" y="-42.1779" font-family="Helvetica,sans-Serif" font-size="10.00">Engine::saveGame</text>
</a>
</g>
</g>
<!-- Node13&#45;&gt;Node14 -->
<g id="edge16" class="edge"><title>Node13&#45;&gt;Node14</title>
<path fill="none" stroke="midnightblue" d="M978.631,-44.6779C994.83,-44.6779 1012.18,-44.6779 1027.88,-44.6779"/>
<polygon fill="midnightblue" stroke="midnightblue" points="978.181,-41.178 968.181,-44.6779 978.181,-48.178 978.181,-41.178"/>
</g>
<!-- Node15 -->
<g id="node15" class="node"><title>Node15</title>
<g id="a_node15"><a xlink:href="classUIManager.html#aa78e356fc3b356d790c848319d1c387e" target="_top" xlink:title="UIManager::setCallbackFunctions">
<polygon fill="none" stroke="black" points="1183,-73.1779 1183,-92.1779 1357,-92.1779 1357,-73.1779 1183,-73.1779"/>
<text text-anchor="middle" x="1270" y="-80.1779" font-family="Helvetica,sans-Serif" font-size="10.00">UIManager::setCallbackFunctions</text>
</a>
</g>
</g>
<!-- Node13&#45;&gt;Node15 -->
<g id="edge20" class="edge"><title>Node13&#45;&gt;Node15</title>
<path fill="none" stroke="midnightblue" d="M963.152,-32.9497C1009.86,-22.7953 1084.28,-11.7481 1147,-25.6779 1188.08,-34.8012 1231.71,-59.2748 1253.99,-73.0019"/>
<polygon fill="midnightblue" stroke="midnightblue" points="962.32,-29.5493 953.333,-35.1603 963.857,-36.3784 962.32,-29.5493"/>
</g>
<!-- Node17 -->
<g id="node17" class="node"><title>Node17</title>
<g id="a_node17"><a xlink:href="classGame.html#a5ed7fc5be77080f7f6dd5363f7f007a1" target="_top" xlink:title="Game::mainMenu">
<polygon fill="none" stroke="black" points="1219,-149.178 1219,-168.178 1321,-168.178 1321,-149.178 1219,-149.178"/>
<text text-anchor="middle" x="1270" y="-156.178" font-family="Helvetica,sans-Serif" font-size="10.00">Game::mainMenu</text>
</a>
</g>
</g>
<!-- Node13&#45;&gt;Node17 -->
<g id="edge21" class="edge"><title>Node13&#45;&gt;Node17</title>
<path fill="none" stroke="midnightblue" d="M956.769,-57.4137C1027.83,-80.462 1176.26,-128.601 1239.47,-149.101"/>
<polygon fill="midnightblue" stroke="midnightblue" points="957.456,-53.9573 946.864,-54.2014 955.297,-60.6158 957.456,-53.9573"/>
</g>
<!-- Node14&#45;&gt;Node15 -->
<g id="edge17" class="edge"><title>Node14&#45;&gt;Node15</title>
<path fill="none" stroke="midnightblue" d="M1139.48,-56.2875C1166,-61.6919 1197.17,-68.0415 1222.28,-73.1579"/>
<polygon fill="midnightblue" stroke="midnightblue" points="1140.06,-52.834 1129.56,-54.267 1138.66,-59.6931 1140.06,-52.834"/>
</g>
<!-- Node16 -->
<g id="node16" class="node"><title>Node16</title>
<g id="a_node16"><a xlink:href="classUIManager.html#aedd9d0577af515a852425dfe414b2968" target="_top" xlink:title="Parses the UiLayout.json files and creates UI Elements. ">
<polygon fill="none" stroke="black" points="1393,-73.1779 1393,-92.1779 1482,-92.1779 1482,-73.1779 1393,-73.1779"/>
<text text-anchor="middle" x="1437.5" y="-80.1779" font-family="Helvetica,sans-Serif" font-size="10.00">UIManager::init</text>
</a>
</g>
</g>
<!-- Node15&#45;&gt;Node16 -->
<g id="edge18" class="edge"><title>Node15&#45;&gt;Node16</title>
<path fill="none" stroke="midnightblue" d="M1367.28,-82.6779C1376.19,-82.6779 1384.89,-82.6779 1392.95,-82.6779"/>
<polygon fill="midnightblue" stroke="midnightblue" points="1367.14,-79.178 1357.14,-82.6779 1367.14,-86.178 1367.14,-79.178"/>
</g>
<!-- Node16&#45;&gt;Node6 -->
<g id="edge19" class="edge"><title>Node16&#45;&gt;Node6</title>
<path fill="none" stroke="midnightblue" d="M1492.45,-91.7888C1501.15,-93.258 1509.92,-94.7397 1517.93,-96.0929"/>
<polygon fill="midnightblue" stroke="midnightblue" points="1492.76,-88.2925 1482.32,-90.0782 1491.6,-95.1948 1492.76,-88.2925"/>
</g>
<!-- Node17&#45;&gt;Node7 -->
<g id="edge22" class="edge"><title>Node17&#45;&gt;Node7</title>
<path fill="none" stroke="midnightblue" d="M1331.55,-155.773C1411.5,-151.937 1550.46,-145.27 1621.83,-141.845"/>
<polygon fill="midnightblue" stroke="midnightblue" points="1330.97,-152.296 1321.15,-156.272 1331.31,-159.288 1330.97,-152.296"/>
</g>
<!-- Node19 -->
<g id="node19" class="node"><title>Node19</title>
<g id="a_node19"><a xlink:href="classEngine.html#a83b7dbeee899b36a13d5b07c7ad87ebc" target="_top" xlink:title="Loads a saved game Loads a saved Game. ">
<polygon fill="none" stroke="black" points="864.5,-149.178 864.5,-168.178 968.5,-168.178 968.5,-149.178 864.5,-149.178"/>
<text text-anchor="middle" x="916.5" y="-156.178" font-family="Helvetica,sans-Serif" font-size="10.00">Engine::loadGame</text>
</a>
</g>
</g>
<!-- Node18&#45;&gt;Node19 -->
<g id="edge25" class="edge"><title>Node18&#45;&gt;Node19</title>
<path fill="none" stroke="midnightblue" d="M822.796,-158.678C836.759,-158.678 851.169,-158.678 864.344,-158.678"/>
<polygon fill="midnightblue" stroke="midnightblue" points="822.732,-155.178 812.732,-158.678 822.732,-162.178 822.732,-155.178"/>
</g>
<!-- Node19&#45;&gt;Node15 -->
<g id="edge30" class="edge"><title>Node19&#45;&gt;Node15</title>
<path fill="none" stroke="midnightblue" d="M971.553,-146.991C1041.13,-131.946 1160.71,-106.091 1225.02,-92.1874"/>
<polygon fill="midnightblue" stroke="midnightblue" points="970.696,-143.595 961.662,-149.129 972.176,-150.437 970.696,-143.595"/>
</g>
<!-- Node19&#45;&gt;Node17 -->
<g id="edge31" class="edge"><title>Node19&#45;&gt;Node17</title>
<path fill="none" stroke="midnightblue" d="M978.774,-158.678C1046.92,-158.678 1155.73,-158.678 1218.97,-158.678"/>
<polygon fill="midnightblue" stroke="midnightblue" points="978.611,-155.178 968.611,-158.678 978.611,-162.178 978.611,-155.178"/>
</g>
<!-- Node20 -->
<g id="node20" class="node"><title>Node20</title>
<g id="a_node20"><a xlink:href="classEngine.html#a0ba57971ffb5173ecc425461f65a4cd8" target="_top" xlink:title="Quits the game Sets m_running to false and quitting the game. ">
<polygon fill="none" stroke="black" points="1030.5,-187.178 1030.5,-206.178 1132.5,-206.178 1132.5,-187.178 1030.5,-187.178"/>
<text text-anchor="middle" x="1081.5" y="-194.178" font-family="Helvetica,sans-Serif" font-size="10.00">Engine::quitGame</text>
</a>
</g>
</g>
<!-- Node19&#45;&gt;Node20 -->
<g id="edge26" class="edge"><title>Node19&#45;&gt;Node20</title>
<path fill="none" stroke="midnightblue" d="M968.528,-170.574C991.439,-175.915 1018.1,-182.132 1039.66,-187.158"/>
<polygon fill="midnightblue" stroke="midnightblue" points="969.165,-167.129 958.632,-168.267 967.576,-173.946 969.165,-167.129"/>
</g>
<!-- Node20&#45;&gt;Node5 -->
<g id="edge27" class="edge"><title>Node20&#45;&gt;Node5</title>
<path fill="none" stroke="midnightblue" d="M1125.12,-209.13C1132.42,-211.294 1139.93,-213.537 1147,-215.678 1178.32,-225.167 1214.05,-236.336 1238.71,-244.1"/>
<polygon fill="midnightblue" stroke="midnightblue" points="1125.92,-205.719 1115.34,-206.246 1123.94,-212.433 1125.92,-205.719"/>
</g>
<!-- Node20&#45;&gt;Node15 -->
<g id="edge28" class="edge"><title>Node20&#45;&gt;Node15</title>
<path fill="none" stroke="midnightblue" d="M1106.68,-181.898C1145.52,-158.155 1220.76,-112.167 1253.33,-92.2545"/>
<polygon fill="midnightblue" stroke="midnightblue" points="1104.79,-178.953 1098.08,-187.154 1108.44,-184.925 1104.79,-178.953"/>
</g>
<!-- Node20&#45;&gt;Node17 -->
<g id="edge29" class="edge"><title>Node20&#45;&gt;Node17</title>
<path fill="none" stroke="midnightblue" d="M1139.48,-185.068C1166,-179.664 1197.17,-173.314 1222.28,-168.198"/>
<polygon fill="midnightblue" stroke="midnightblue" points="1138.66,-181.663 1129.56,-187.089 1140.06,-188.522 1138.66,-181.663"/>
</g>
<!-- Node22 -->
<g id="node22" class="node"><title>Node22</title>
<g id="a_node22"><a xlink:href="classEngine.html#a89f23eaccc126a355d287e1959b4556f" target="_top" xlink:title="Engine::setTileIDOfNode">
<polygon fill="none" stroke="black" points="1016,-225.178 1016,-244.178 1147,-244.178 1147,-225.178 1016,-225.178"/>
<text text-anchor="middle" x="1081.5" y="-232.178" font-family="Helvetica,sans-Serif" font-size="10.00">Engine::setTileIDOfNode</text>
</a>
</g>
</g>
<!-- Node21&#45;&gt;Node22 -->
<g id="edge34" class="edge"><title>Node21&#45;&gt;Node22</title>
<path fill="none" stroke="midnightblue" d="M505.293,-218.601C630.444,-222.099 893.683,-229.456 1015.77,-232.869"/>
<polygon fill="midnightblue" stroke="midnightblue" points="505.166,-215.096 495.072,-218.315 504.97,-222.093 505.166,-215.096"/>
</g>
<!-- Node22&#45;&gt;Node5 -->
<g id="edge35" class="edge"><title>Node22&#45;&gt;Node5</title>
<path fill="none" stroke="midnightblue" d="M1157.22,-242.29C1169.28,-243.519 1181.77,-244.791 1193.84,-246.021"/>
<polygon fill="midnightblue" stroke="midnightblue" points="1157.51,-238.802 1147.21,-241.27 1156.8,-245.765 1157.51,-238.802"/>
</g>
<!-- Node23&#45;&gt;Node2 -->
<g id="edge41" class="edge"><title>Node23&#45;&gt;Node2</title>
<path fill="none" stroke="midnightblue" d="M369.394,-308.254C342.596,-305.041 312.835,-300.515 291.207,-296.205"/>
<polygon fill="midnightblue" stroke="midnightblue" points="369.161,-311.75 379.496,-309.418 369.962,-304.796 369.161,-311.75"/>
</g>
<!-- Node23&#45;&gt;Node3 -->
<g id="edge39" class="edge"><title>Node23&#45;&gt;Node3</title>
<path fill="none" stroke="midnightblue" d="M478.795,-323.118C503.537,-330.395 534.29,-339.44 557.099,-346.148"/>
<polygon fill="midnightblue" stroke="midnightblue" points="479.529,-319.685 468.947,-320.221 477.553,-326.401 479.529,-319.685"/>
</g>
<!-- Node23&#45;&gt;Node9 -->
<g id="edge40" class="edge"><title>Node23&#45;&gt;Node9</title>
<path fill="none" stroke="midnightblue" d="M479.414,-298.337C503.783,-291.329 533.825,-282.689 556.366,-276.207"/>
<polygon fill="midnightblue" stroke="midnightblue" points="478.342,-295.003 469.699,-301.131 480.277,-301.73 478.342,-295.003"/>
</g>
<!-- Node24 -->
<g id="node24" class="node"><title>Node24</title>
<g id="a_node24"><a xlink:href="classEngine.html#a2824c5146c900c0d048d97c5e0e0ef69" target="_top" xlink:title="Engine::demolishNode">
<polygon fill="none" stroke="black" points="689.5,-301.178 689.5,-320.178 813.5,-320.178 813.5,-301.178 689.5,-301.178"/>
<text text-anchor="middle" x="751.5" y="-308.178" font-family="Helvetica,sans-Serif" font-size="10.00">Engine::demolishNode</text>
</a>
</g>
</g>
<!-- Node23&#45;&gt;Node24 -->
<g id="edge37" class="edge"><title>Node23&#45;&gt;Node24</title>
<path fill="none" stroke="midnightblue" d="M501.572,-310.678C556.744,-310.678 635.296,-310.678 689.327,-310.678"/>
<polygon fill="midnightblue" stroke="midnightblue" points="501.554,-307.178 491.554,-310.678 501.554,-314.178 501.554,-307.178"/>
</g>
<!-- Node24&#45;&gt;Node5 -->
<g id="edge38" class="edge"><title>Node24&#45;&gt;Node5</title>
<path fill="none" stroke="midnightblue" d="M824.124,-305.046C903.277,-298.526 1034.46,-286.849 1147,-272.678 1168.37,-269.986 1191.77,-266.48 1212.3,-263.213"/>
<polygon fill="midnightblue" stroke="midnightblue" points="823.465,-301.588 813.784,-305.892 824.036,-308.564 823.465,-301.588"/>
</g>
</g>
</svg>
        <g id="navigator" transform="translate(0 0)" fill="#404254">
                <rect fill="#f2f5e9" fill-opacity="0.5" stroke="#606060" stroke-width=".5" x="0" y="0" width="60" height="60"/>
                <use id="zoomplus" xlink:href="#zoomPlus" x="17" y="9" onmousedown="handleZoom(evt,'in')"/>
                <use id="zoomminus" xlink:href="#zoomMin" x="42" y="9" onmousedown="handleZoom(evt,'out')"/>
                <use id="reset" xlink:href="#resetDef" x="30" y="36" onmousedown="handleReset()"/>
                <g id="arrowUp" xlink:href="#dirArrow" transform="translate(30 24)" onmousedown="handlePan(0,-1)">
                  <use xlink:href="#rim" fill="#404040">
                        <set attributeName="fill" to="#808080" begin="arrowUp.mouseover" end="arrowUp.mouseout"/>
                  </use>
                  <path fill="none" stroke="white" stroke-width="1.5" d="M0,-3.0v7 M-2.5,-0.5L0,-3.0L2.5,-0.5"/>
                </g>
                <g id="arrowRight" xlink:href="#dirArrow" transform="rotate(90) translate(36 -43)" onmousedown="handlePan(1,0)">
                  <use xlink:href="#rim" fill="#404040">
                        <set attributeName="fill" to="#808080" begin="arrowRight.mouseover" end="arrowRight.mouseout"/>
                  </use>
                  <path fill="none" stroke="white" stroke-width="1.5" d="M0,-3.0v7 M-2.5,-0.5L0,-3.0L2.5,-0.5"/>
                </g>
                <g id="arrowDown" xlink:href="#dirArrow" transform="rotate(180) translate(-30 -48)" onmousedown="handlePan(0,1)">
                  <use xlink:href="#rim" fill="#404040">
                        <set attributeName="fill" to="#808080" begin="arrowDown.mouseover" end="arrowDown.mouseout"/>
                  </use>
                  <path fill="none" stroke="white" stroke-width="1.5" d="M0,-3.0v7 M-2.5,-0.5L0,-3.0L2.5,-0.5"/>
                </g>
                <g id="arrowLeft" xlink:href="#dirArrow" transform="rotate(270) translate(-36 17)" onmousedown="handlePan(-1,0)">
                  <use xlink:href="#rim" fill="#404040">
                        <set attributeName="fill" to="#808080" begin="arrowLeft.mouseover" end="arrowLeft.mouseout"/>
                  </use>
                  <path fill="none" stroke="white" stroke-width="1.5" d="M0,-3.0v7 M-2.5,-0.5L0,-3.0L2.5,-0.5"/>
                </g>
        </g>
        <svg viewBox="0 0 15 15" width="100%" height="30px" preserveAspectRatio="xMaxYMin meet">
         <g id="arrow_out" transform="scale(0.3 0.3)">
          <a xlink:href="classMap_a0ff55eb041cdf29aa582a21145319ce0_icgraph_org.svg" target="_base">
           <rect id="button" ry="5" rx="5" y="6" x="6" height="38" width="38"
                fill="#f2f5e9" fill-opacity="0.5" stroke="#606060" stroke-width="1.0"/>
           <path id="arrow"
             d="M 11.500037,31.436501 C 11.940474,20.09759 22.043105,11.32322 32.158766,21.979434 L 37.068811,17.246167 C 37.068811,17.246167 37.088388,32 37.088388,32 L 22.160133,31.978069 C 22.160133,31.978069 26.997745,27.140456 26.997745,27.140456 C 18.528582,18.264221 13.291696,25.230495 11.500037,31.436501 z"
             style="fill:#404040;"/>
          </a>
         </g>
        </svg>
</svg>
