<?xml version="1.0" encoding="UTF-8" standalone="no"?>
<!DOCTYPE svg PUBLIC "-//W3C//DTD SVG 1.1//EN"
 "http://www.w3.org/Graphics/SVG/1.1/DTD/svg11.dtd">
<!-- Generated by graphviz version 2.38.0 (20140413.2041)
 -->
<!-- Title: Settings Pages: 1 -->
<svg width="282pt" height="431pt"
 viewBox="0.00 0.00 282.00 431.00" xmlns="http://www.w3.org/2000/svg" xmlns:xlink="http://www.w3.org/1999/xlink">
<g id="graph0" class="graph" transform="scale(1 1) rotate(0) translate(4 427)">
<title>Settings</title>
<!-- Node1 -->
<g id="node1" class="node"><title>Node1</title>
<polygon fill="#bfbfbf" stroke="black" points="38.5,-0.5 38.5,-90.5 173.5,-90.5 173.5,-0.5 38.5,-0.5"/>
<text text-anchor="middle" x="106" y="-78.5" font-family="Helvetica,sans-Serif" font-size="10.00">Settings</text>
<polyline fill="none" stroke="black" points="38.5,-71.5 173.5,-71.5 "/>
<text text-anchor="start" x="46.5" y="-59.5" font-family="Helvetica,sans-Serif" font-size="10.00">+ Singleton&lt; Settings &gt;</text>
<polyline fill="none" stroke="black" points="38.5,-52.5 173.5,-52.5 "/>
<text text-anchor="start" x="46.5" y="-40.5" font-family="Helvetica,sans-Serif" font-size="10.00">+ readFile()</text>
<text text-anchor="start" x="46.5" y="-29.5" font-family="Helvetica,sans-Serif" font-size="10.00">+ writeFile()</text>
<text text-anchor="start" x="46.5" y="-18.5" font-family="Helvetica,sans-Serif" font-size="10.00">&#45; Settings()</text>
<text text-anchor="start" x="46.5" y="-7.5" font-family="Helvetica,sans-Serif" font-size="10.00">&#45; ~Settings()</text>
</g>
<!-- Node2 -->
<g id="node2" class="node"><title>Node2</title>
<g id="a_node2"><a xlink:href="structSettingsData.html" target="_top" xlink:title="{SettingsData\n|+ mapSize\l+ screenWidth\l+ screenHeight\l+ currentScreenWidth\l+ currentScreenHeight\l+ maxElevationHeight\l+ vSync\l+ fullScreen\l+ fullScreenMode\l+ musicVolume\land 10 more...\l|}">
<polygon fill="none" stroke="black" points="0,-128.5 0,-295.5 128,-295.5 128,-128.5 0,-128.5"/>
<text text-anchor="middle" x="64" y="-283.5" font-family="Helvetica,sans-Serif" font-size="10.00">SettingsData</text>
<polyline fill="none" stroke="black" points="0,-276.5 128,-276.5 "/>
<text text-anchor="start" x="8" y="-264.5" font-family="Helvetica,sans-Serif" font-size="10.00">+ mapSize</text>
<text text-anchor="start" x="8" y="-253.5" font-family="Helvetica,sans-Serif" font-size="10.00">+ screenWidth</text>
<text text-anchor="start" x="8" y="-242.5" font-family="Helvetica,sans-Serif" font-size="10.00">+ screenHeight</text>
<text text-anchor="start" x="8" y="-231.5" font-family="Helvetica,sans-Serif" font-size="10.00">+ currentScreenWidth</text>
<text text-anchor="start" x="8" y="-220.5" font-family="Helvetica,sans-Serif" font-size="10.00">+ currentScreenHeight</text>
<text text-anchor="start" x="8" y="-209.5" font-family="Helvetica,sans-Serif" font-size="10.00">+ maxElevationHeight</text>
<text text-anchor="start" x="8" y="-198.5" font-family="Helvetica,sans-Serif" font-size="10.00">+ vSync</text>
<text text-anchor="start" x="8" y="-187.5" font-family="Helvetica,sans-Serif" font-size="10.00">+ fullScreen</text>
<text text-anchor="start" x="8" y="-176.5" font-family="Helvetica,sans-Serif" font-size="10.00">+ fullScreenMode</text>
<text text-anchor="start" x="8" y="-165.5" font-family="Helvetica,sans-Serif" font-size="10.00">+ musicVolume</text>
<text text-anchor="start" x="8" y="-154.5" font-family="Helvetica,sans-Serif" font-size="10.00">and 10 more...</text>
<polyline fill="none" stroke="black" points="0,-147.5 128,-147.5 "/>
<text text-anchor="middle" x="64" y="-135.5" font-family="Helvetica,sans-Serif" font-size="10.00"> </text>
</a>
</g>
</g>
<!-- Node2&#45;&gt;Node1 -->
<g id="edge1" class="edge"><title>Node2&#45;&gt;Node1</title>
<path fill="none" stroke="midnightblue" d="M87.5991,-118.57C90.0641,-108.916 92.4805,-99.4512 94.7098,-90.7199"/>
<polygon fill="none" stroke="midnightblue" points="84.2057,-117.713 85.123,-128.268 90.9882,-119.445 84.2057,-117.713"/>
</g>
<!-- Node3 -->
<g id="node3" class="node"><title>Node3</title>
<g id="a_node3"><a xlink:href="classSingleton.html" target="_top" xlink:title="{Singleton\&lt; Settings \&gt;\n||+ instance()\l# Singleton()\l# ~Singleton()\l}">
<polygon fill="none" stroke="black" points="146,-172.5 146,-251.5 270,-251.5 270,-172.5 146,-172.5"/>
<text text-anchor="middle" x="208" y="-239.5" font-family="Helvetica,sans-Serif" font-size="10.00">Singleton&lt; Settings &gt;</text>
<polyline fill="none" stroke="black" points="146,-232.5 270,-232.5 "/>
<text text-anchor="middle" x="208" y="-220.5" font-family="Helvetica,sans-Serif" font-size="10.00"> </text>
<polyline fill="none" stroke="black" points="146,-213.5 270,-213.5 "/>
<text text-anchor="start" x="154" y="-201.5" font-family="Helvetica,sans-Serif" font-size="10.00">+ instance()</text>
<text text-anchor="start" x="154" y="-190.5" font-family="Helvetica,sans-Serif" font-size="10.00"># Singleton()</text>
<text text-anchor="start" x="154" y="-179.5" font-family="Helvetica,sans-Serif" font-size="10.00"># ~Singleton()</text>
</a>
</g>
</g>
<!-- Node3&#45;&gt;Node1 -->
<g id="edge2" class="edge"><title>Node3&#45;&gt;Node1</title>
<path fill="none" stroke="midnightblue" d="M178.761,-163.845C164.478,-140.811 147.393,-113.257 133.369,-90.6387"/>
<polygon fill="none" stroke="midnightblue" points="175.841,-165.778 184.086,-172.432 181.79,-162.089 175.841,-165.778"/>
</g>
<!-- Node4 -->
<g id="node4" class="node"><title>Node4</title>
<g id="a_node4"><a xlink:href="classSingleton.html" target="_top" xlink:title="Abstract Singleton implementation. ">
<polygon fill="none" stroke="black" points="163.5,-343.5 163.5,-422.5 252.5,-422.5 252.5,-343.5 163.5,-343.5"/>
<text text-anchor="middle" x="208" y="-410.5" font-family="Helvetica,sans-Serif" font-size="10.00">Singleton&lt; T &gt;</text>
<polyline fill="none" stroke="black" points="163.5,-403.5 252.5,-403.5 "/>
<text text-anchor="middle" x="208" y="-391.5" font-family="Helvetica,sans-Serif" font-size="10.00"> </text>
<polyline fill="none" stroke="black" points="163.5,-384.5 252.5,-384.5 "/>
<text text-anchor="start" x="171.5" y="-372.5" font-family="Helvetica,sans-Serif" font-size="10.00">+ instance()</text>
<text text-anchor="start" x="171.5" y="-361.5" font-family="Helvetica,sans-Serif" font-size="10.00"># Singleton()</text>
<text text-anchor="start" x="171.5" y="-350.5" font-family="Helvetica,sans-Serif" font-size="10.00"># ~Singleton()</text>
</a>
</g>
</g>
<!-- Node4&#45;&gt;Node3 -->
<g id="edge3" class="edge"><title>Node4&#45;&gt;Node3</title>
<path fill="none" stroke="orange" d="M208,-333.216C208,-307.269 208,-275.816 208,-251.592"/>
<polygon fill="orange" stroke="orange" points="204.5,-333.228 208,-343.228 211.5,-333.228 204.5,-333.228"/>
<text text-anchor="middle" x="241" y="-317" font-family="Helvetica,sans-Serif" font-size="10.00"> &lt; Settings &gt;</text>
</g>
</g>
</svg>
