<?xml version="1.0" encoding="UTF-8" standalone="no"?>
<!DOCTYPE svg PUBLIC "-//W3C//DTD SVG 1.1//EN"
 "http://www.w3.org/Graphics/SVG/1.1/DTD/svg11.dtd">
<!-- Generated by graphviz version 2.38.0 (20140413.2041)
 -->
<!-- Title: MapNode::getSprite Pages: 1 -->
<svg width="776pt" height="66pt"
 viewBox="0.00 0.00 776.00 66.00" xmlns="http://www.w3.org/2000/svg" xmlns:xlink="http://www.w3.org/1999/xlink">
<g id="graph0" class="graph" transform="scale(1 1) rotate(0) translate(4 62)">
<title>MapNode::getSprite</title>
<!-- Node1 -->
<g id="node1" class="node"><title>Node1</title>
<polygon fill="#bfbfbf" stroke="black" points="0,-19.5 0,-38.5 113,-38.5 113,-19.5 0,-19.5"/>
<text text-anchor="middle" x="56.5" y="-26.5" font-family="Helvetica,sans-Serif" font-size="10.00">MapNode::getSprite</text>
</g>
<!-- Node2 -->
<g id="node2" class="node"><title>Node2</title>
<g id="a_node2"><a xlink:href="classMap.html#a5464bd287786fafc3cb1a5aea3a70bd8" target="_top" xlink:title="Sets a node to be highlit This sets a node to be highlit, the highlighting is done during rendering...">
<polygon fill="none" stroke="black" points="155.5,-38.5 155.5,-57.5 264.5,-57.5 264.5,-38.5 155.5,-38.5"/>
<text text-anchor="middle" x="210" y="-45.5" font-family="Helvetica,sans-Serif" font-size="10.00">Map::highlightNode</text>
</a>
</g>
</g>
<!-- Node1&#45;&gt;Node2 -->
<g id="edge1" class="edge"><title>Node1&#45;&gt;Node2</title>
<path fill="none" stroke="midnightblue" d="M123.257,-37.2468C134.019,-38.5964 145.054,-39.9804 155.474,-41.2871"/>
<polygon fill="midnightblue" stroke="midnightblue" points="123.411,-33.7387 113.053,-35.967 122.539,-40.6843 123.411,-33.7387"/>
</g>
<!-- Node7 -->
<g id="node7" class="node"><title>Node7</title>
<g id="a_node7"><a xlink:href="classMap.html#a4b2fa896a5346d86a4c5a4a84579839a" target="_top" xlink:title="Sets a node to be unhighlit This sets a node to be unhighlit, the highlighting is done during renderi...">
<polygon fill="none" stroke="black" points="149,-0.5 149,-19.5 271,-19.5 271,-0.5 149,-0.5"/>
<text text-anchor="middle" x="210" y="-7.5" font-family="Helvetica,sans-Serif" font-size="10.00">Map::unHighlightNode</text>
</a>
</g>
</g>
<!-- Node1&#45;&gt;Node7 -->
<g id="edge6" class="edge"><title>Node1&#45;&gt;Node7</title>
<path fill="none" stroke="midnightblue" d="M123.022,-20.7827C131.607,-19.706 140.371,-18.6069 148.861,-17.5421"/>
<polygon fill="midnightblue" stroke="midnightblue" points="122.539,-17.3157 113.053,-22.033 123.411,-24.2613 122.539,-17.3157"/>
</g>
<!-- Node3 -->
<g id="node3" class="node"><title>Node3</title>
<g id="a_node3"><a xlink:href="classEventManager.html#a65ec91fd5016d4f9c4167fb8babed2df" target="_top" xlink:title="EventManager::checkEvents">
<polygon fill="none" stroke="black" points="307,-19.5 307,-38.5 459,-38.5 459,-19.5 307,-19.5"/>
<text text-anchor="middle" x="383" y="-26.5" font-family="Helvetica,sans-Serif" font-size="10.00">EventManager::checkEvents</text>
</a>
</g>
</g>
<!-- Node2&#45;&gt;Node3 -->
<g id="edge2" class="edge"><title>Node2&#45;&gt;Node3</title>
<path fill="none" stroke="midnightblue" d="M274.578,-40.9358C285.123,-39.7641 296.146,-38.5393 306.943,-37.3396"/>
<polygon fill="midnightblue" stroke="midnightblue" points="274.189,-37.4574 264.636,-42.0404 274.962,-44.4146 274.189,-37.4574"/>
</g>
<!-- Node4 -->
<g id="node4" class="node"><title>Node4</title>
<g id="a_node4"><a xlink:href="classGame.html#a1c2ab25d5216b2f4b2fe41efd2c09114" target="_top" xlink:title="Game::run">
<polygon fill="none" stroke="black" points="495,-19.5 495,-38.5 563,-38.5 563,-19.5 495,-19.5"/>
<text text-anchor="middle" x="529" y="-26.5" font-family="Helvetica,sans-Serif" font-size="10.00">Game::run</text>
</a>
</g>
</g>
<!-- Node3&#45;&gt;Node4 -->
<g id="edge3" class="edge"><title>Node3&#45;&gt;Node4</title>
<path fill="none" stroke="midnightblue" d="M469.473,-29C478.339,-29 486.922,-29 494.658,-29"/>
<polygon fill="midnightblue" stroke="midnightblue" points="469.374,-25.5001 459.374,-29 469.374,-32.5001 469.374,-25.5001"/>
</g>
<!-- Node5 -->
<g id="node5" class="node"><title>Node5</title>
<g id="a_node5"><a xlink:href="main_8cxx.html#af582d708d899e67ead623eac34a22387" target="_top" xlink:title="protected_main">
<polygon fill="none" stroke="black" points="599,-19.5 599,-38.5 691,-38.5 691,-19.5 599,-19.5"/>
<text text-anchor="middle" x="645" y="-26.5" font-family="Helvetica,sans-Serif" font-size="10.00">protected_main</text>
</a>
</g>
</g>
<!-- Node4&#45;&gt;Node5 -->
<g id="edge4" class="edge"><title>Node4&#45;&gt;Node5</title>
<path fill="none" stroke="midnightblue" d="M573.44,-29C581.674,-29 590.308,-29 598.601,-29"/>
<polygon fill="midnightblue" stroke="midnightblue" points="573.28,-25.5001 563.28,-29 573.28,-32.5001 573.28,-25.5001"/>
</g>
<!-- Node6 -->
<g id="node6" class="node"><title>Node6</title>
<g id="a_node6"><a xlink:href="main_8cxx.html#a3c04138a5bfe5d72780bb7e82a18e627" target="_top" xlink:title="main">
<polygon fill="none" stroke="black" points="727,-19.5 727,-38.5 768,-38.5 768,-19.5 727,-19.5"/>
<text text-anchor="middle" x="747.5" y="-26.5" font-family="Helvetica,sans-Serif" font-size="10.00">main</text>
</a>
</g>
</g>
<!-- Node5&#45;&gt;Node6 -->
<g id="edge5" class="edge"><title>Node5&#45;&gt;Node6</title>
<path fill="none" stroke="midnightblue" d="M701.539,-29C710.619,-29 719.466,-29 726.877,-29"/>
<polygon fill="midnightblue" stroke="midnightblue" points="701.252,-25.5001 691.252,-29 701.252,-32.5001 701.252,-25.5001"/>
</g>
<!-- Node7&#45;&gt;Node3 -->
<g id="edge7" class="edge"><title>Node7&#45;&gt;Node3</title>
<path fill="none" stroke="midnightblue" d="M281.44,-17.8267C289.864,-18.7626 298.488,-19.7209 306.974,-20.6637"/>
<polygon fill="midnightblue" stroke="midnightblue" points="281.614,-14.3245 271.288,-16.6987 280.841,-21.2817 281.614,-14.3245"/>
</g>
</g>
</svg>
