<?xml version="1.0" encoding="UTF-8" standalone="no"?>
<!DOCTYPE svg PUBLIC "-//W3C//DTD SVG 1.1//EN"
 "http://www.w3.org/Graphics/SVG/1.1/DTD/svg11.dtd">
<!-- Generated by graphviz version 2.38.0 (20140413.2041)
 -->
<!-- Title: ComboBox::checkBoundaries Pages: 1 -->
<svg width="409pt" height="180pt"
 viewBox="0.00 0.00 409.00 180.00" xmlns="http://www.w3.org/2000/svg" xmlns:xlink="http://www.w3.org/1999/xlink">
<g id="graph0" class="graph" transform="scale(1 1) rotate(0) translate(4 176)">
<title>ComboBox::checkBoundaries</title>
<!-- Node1 -->
<g id="node1" class="node"><title>Node1</title>
<polygon fill="#bfbfbf" stroke="black" points="0,-76.5 0,-95.5 157,-95.5 157,-76.5 0,-76.5"/>
<text text-anchor="middle" x="78.5" y="-83.5" font-family="Helvetica,sans-Serif" font-size="10.00">ComboBox::checkBoundaries</text>
</g>
<!-- Node2 -->
<g id="node2" class="node"><title>Node2</title>
<g id="a_node2"><a xlink:href="classComboBox.html#a59b31b2bb95999b152327b54f5c7cb9a" target="_top" xlink:title="Handling for the hovering event Check, if the mouse cursor is hovering over the element. virtual function to provide custom handling if necessary (e.g. Combobox) Per default, it&#39;s the same implementation as isMouseOver. ">
<polygon fill="none" stroke="black" points="193,-152.5 193,-171.5 401,-171.5 401,-152.5 193,-152.5"/>
<text text-anchor="middle" x="297" y="-159.5" font-family="Helvetica,sans-Serif" font-size="10.00">ComboBox::isMouseOverHoverableArea</text>
</a>
</g>
</g>
<!-- Node1&#45;&gt;Node2 -->
<g id="edge1" class="edge"><title>Node1&#45;&gt;Node2</title>
<path fill="none" stroke="midnightblue" d="M103.865,-100.789C126.274,-113.761 160.809,-132.192 193,-143 204.377,-146.82 216.734,-149.933 228.809,-152.45"/>
<polygon fill="midnightblue" stroke="midnightblue" points="105.44,-97.6543 95.0461,-95.6015 101.891,-103.688 105.44,-97.6543"/>
</g>
<!-- Node3 -->
<g id="node3" class="node"><title>Node3</title>
<g id="a_node3"><a xlink:href="classComboBox.html#a117f2c533682ff861d3d713123260408" target="_top" xlink:title="Checks if the mouse cursor is over the current UI Element Check if the coordinates match the ones sto...">
<polygon fill="none" stroke="black" points="228.5,-114.5 228.5,-133.5 365.5,-133.5 365.5,-114.5 228.5,-114.5"/>
<text text-anchor="middle" x="297" y="-121.5" font-family="Helvetica,sans-Serif" font-size="10.00">ComboBox::isMouseOver</text>
</a>
</g>
</g>
<!-- Node1&#45;&gt;Node3 -->
<g id="edge2" class="edge"><title>Node1&#45;&gt;Node3</title>
<path fill="none" stroke="midnightblue" d="M143.743,-97.2759C174.89,-102.743 211.896,-109.238 241.625,-114.456"/>
<polygon fill="midnightblue" stroke="midnightblue" points="144.307,-93.8215 133.853,-95.54 143.097,-100.716 144.307,-93.8215"/>
</g>
<!-- Node4 -->
<g id="node4" class="node"><title>Node4</title>
<g id="a_node4"><a xlink:href="classComboBox.html#af0d53d01cb6d97f6dec54647721d125e" target="_top" xlink:title="ComboBox::onMouseButtonUp">
<polygon fill="none" stroke="black" points="215,-76.5 215,-95.5 379,-95.5 379,-76.5 215,-76.5"/>
<text text-anchor="middle" x="297" y="-83.5" font-family="Helvetica,sans-Serif" font-size="10.00">ComboBox::onMouseButtonUp</text>
</a>
</g>
</g>
<!-- Node1&#45;&gt;Node4 -->
<g id="edge3" class="edge"><title>Node1&#45;&gt;Node4</title>
<path fill="none" stroke="midnightblue" d="M167.304,-86C183.061,-86 199.418,-86 214.973,-86"/>
<polygon fill="midnightblue" stroke="midnightblue" points="167.05,-82.5001 157.05,-86 167.05,-89.5001 167.05,-82.5001"/>
</g>
<!-- Node5 -->
<g id="node5" class="node"><title>Node5</title>
<g id="a_node5"><a xlink:href="classComboBox.html#a132276aba4ff900343458e81f318fd74" target="_top" xlink:title="ComboBox::onMouseButtonDown">
<polygon fill="none" stroke="black" points="208.5,-38.5 208.5,-57.5 385.5,-57.5 385.5,-38.5 208.5,-38.5"/>
<text text-anchor="middle" x="297" y="-45.5" font-family="Helvetica,sans-Serif" font-size="10.00">ComboBox::onMouseButtonDown</text>
</a>
</g>
</g>
<!-- Node1&#45;&gt;Node5 -->
<g id="edge4" class="edge"><title>Node1&#45;&gt;Node5</title>
<path fill="none" stroke="midnightblue" d="M143.743,-74.7241C174.89,-69.2571 211.896,-62.7619 241.625,-57.5439"/>
<polygon fill="midnightblue" stroke="midnightblue" points="143.097,-71.2839 133.853,-76.46 144.307,-78.1785 143.097,-71.2839"/>
</g>
<!-- Node6 -->
<g id="node6" class="node"><title>Node6</title>
<g id="a_node6"><a xlink:href="classComboBox.html#a9e34bb39454d682c02e434bcc0aa99a4" target="_top" xlink:title="ComboBox::onMouseMove">
<polygon fill="none" stroke="black" points="225,-0.5 225,-19.5 369,-19.5 369,-0.5 225,-0.5"/>
<text text-anchor="middle" x="297" y="-7.5" font-family="Helvetica,sans-Serif" font-size="10.00">ComboBox::onMouseMove</text>
</a>
</g>
</g>
<!-- Node1&#45;&gt;Node6 -->
<g id="edge5" class="edge"><title>Node1&#45;&gt;Node6</title>
<path fill="none" stroke="midnightblue" d="M103.865,-71.2115C126.274,-58.2395 160.809,-39.8078 193,-29 204.377,-25.1803 216.734,-22.0672 228.809,-19.5504"/>
<polygon fill="midnightblue" stroke="midnightblue" points="101.891,-68.3119 95.0461,-76.3985 105.44,-74.3457 101.891,-68.3119"/>
</g>
</g>
</svg>
