<?xml version="1.0" encoding="UTF-8" standalone="no"?>
<!DOCTYPE svg PUBLIC "-//W3C//DTD SVG 1.1//EN"
 "http://www.w3.org/Graphics/SVG/1.1/DTD/svg11.dtd">
<!-- Generated by graphviz version 2.38.0 (20140413.2041)
 -->
<!-- Title: Camera::setPinchDistance Pages: 1 -->
<!--zoomable 220 -->
<svg id="main" version="1.1" xmlns="http://www.w3.org/2000/svg" xmlns:xlink="http://www.w3.org/1999/xlink" xml:space="preserve" onload="init(evt)">
<style type="text/css"><![CDATA[
.edge:hover path { stroke: red; }
.edge:hover polygon { stroke: red; fill: red; }
]]></style>
<script type="text/javascript"><![CDATA[
var edges = document.getElementsByTagName('g');
if (edges && edges.length) {
  for (var i=0;i<edges.length;i++) {
    if (edges[i].id.substr(0,4)=='edge') {
      edges[i].setAttribute('class','edge');
    }
  }
}
]]></script>
        <defs>
                <circle id="rim" cx="0" cy="0" r="7"/>
                <circle id="rim2" cx="0" cy="0" r="3.5"/>
                <g id="zoomPlus">
                        <use xlink:href="#rim" fill="#404040">
                                <set attributeName="fill" to="#808080" begin="zoomplus.mouseover" end="zoomplus.mouseout"/>
                        </use>
                        <path d="M-4,0h8M0,-4v8" fill="none" stroke="white" stroke-width="1.5" pointer-events="none"/>
                </g>
                <g id="zoomMin">
                        <use xlink:href="#rim" fill="#404040">
                                <set attributeName="fill" to="#808080" begin="zoomminus.mouseover" end="zoomminus.mouseout"/>
                        </use>
                        <path d="M-4,0h8" fill="none" stroke="white" stroke-width="1.5" pointer-events="none"/>
                </g>
                <g id="dirArrow">
                        <path fill="none" stroke="white" stroke-width="1.5" d="M0,-3.0v7 M-2.5,-0.5L0,-3.0L2.5,-0.5"/>
                </g>
               <g id="resetDef">
                       <use xlink:href="#rim2" fill="#404040">
                               <set attributeName="fill" to="#808080" begin="reset.mouseover" end="reset.mouseout"/>
                       </use>
               </g>
        </defs>

<script type="text/javascript">
var viewWidth = 897;
var viewHeight = 220;
var sectionId = 'dynsection-9';
</script>
<script xlink:href="svgpan.js"/>
<svg id="graph" class="graph">
<g id="viewport">
<title>Camera::setPinchDistance</title>
<!-- Node1 -->
<g id="node1" class="node"><title>Node1</title>
<polygon fill="#bfbfbf" stroke="black" points="0,-120.053 0,-139.053 143,-139.053 143,-120.053 0,-120.053"/>
<text text-anchor="middle" x="71.5" y="-127.053" font-family="Helvetica,sans-Serif" font-size="10.00">Camera::setPinchDistance</text>
</g>
<!-- Node2 -->
<g id="node2" class="node"><title>Node2</title>
<g id="a_node2"><a xlink:href="classCamera.html#adfb240823ff20b97b69459490dbd8dc3" target="_top" xlink:title="Centers camera on given isometric coordinates Centers the camera on the given isometric coordinates...">
<polygon fill="none" stroke="black" points="374,-82.0534 374,-101.053 537,-101.053 537,-82.0534 374,-82.0534"/>
<text text-anchor="middle" x="455.5" y="-89.0534" font-family="Helvetica,sans-Serif" font-size="10.00">Camera::centerScreenOnPoint</text>
</a>
</g>
</g>
<!-- Node1&#45;&gt;Node2 -->
<g id="edge1" class="edge"><title>Node1&#45;&gt;Node2</title>
<path fill="none" stroke="midnightblue" d="M119.52,-120.04C137.994,-116.597 159.428,-112.967 179,-110.553 240.354,-102.987 309.793,-98.2227 363.609,-95.3571"/>
<polygon fill="midnightblue" stroke="midnightblue" points="364.008,-98.8412 373.813,-94.8265 363.645,-91.8506 364.008,-98.8412"/>
</g>
<!-- Node7 -->
<g id="node7" class="node"><title>Node7</title>
<g id="a_node7"><a xlink:href="classCamera.html#a0a8ee04ccb4f4cc9af52a964cf225f66" target="_top" xlink:title="Increases the zoom level of the camera Increases the zoom level of the camera. ">
<polygon fill="none" stroke="black" points="181,-158.053 181,-177.053 336,-177.053 336,-158.053 181,-158.053"/>
<text text-anchor="middle" x="258.5" y="-165.053" font-family="Helvetica,sans-Serif" font-size="10.00">Camera::increaseZoomLevel</text>
</a>
</g>
</g>
<!-- Node1&#45;&gt;Node7 -->
<g id="edge8" class="edge"><title>Node1&#45;&gt;Node7</title>
<path fill="none" stroke="midnightblue" d="M119.183,-139.142C144.146,-144.27 175.064,-150.621 201.334,-156.017"/>
<polygon fill="midnightblue" stroke="midnightblue" points="200.653,-159.45 211.152,-158.033 202.061,-152.593 200.653,-159.45"/>
</g>
<!-- Node8 -->
<g id="node8" class="node"><title>Node8</title>
<g id="a_node8"><a xlink:href="classCamera.html#aeea39f352d5873495dea6f376cf3207e" target="_top" xlink:title="Decreases the zoom level of the camera Decreases the zoom level of the camera. ">
<polygon fill="none" stroke="black" points="179,-120.053 179,-139.053 338,-139.053 338,-120.053 179,-120.053"/>
<text text-anchor="middle" x="258.5" y="-127.053" font-family="Helvetica,sans-Serif" font-size="10.00">Camera::decreaseZoomLevel</text>
</a>
</g>
</g>
<!-- Node1&#45;&gt;Node8 -->
<g id="edge12" class="edge"><title>Node1&#45;&gt;Node8</title>
<path fill="none" stroke="midnightblue" d="M143.232,-129.553C151.59,-129.553 160.2,-129.553 168.766,-129.553"/>
<polygon fill="midnightblue" stroke="midnightblue" points="168.785,-133.053 178.785,-129.553 168.784,-126.053 168.785,-133.053"/>
</g>
<!-- Node3 -->
<g id="node3" class="node"><title>Node3</title>
<g id="a_node3"><a xlink:href="isoMath_8cxx.html#abef3481b8248d064e79f9d0b2a27cfe7" target="_top" xlink:title="Check if given coordinates are within map boundaries Checks if coordinates are within map boundaries...">
<polygon fill="none" stroke="black" points="581,-26.0534 581,-45.0534 732,-45.0534 732,-26.0534 581,-26.0534"/>
<text text-anchor="middle" x="656.5" y="-33.0534" font-family="Helvetica,sans-Serif" font-size="10.00">isPointWithinMapBoundaries</text>
</a>
</g>
</g>
<!-- Node2&#45;&gt;Node3 -->
<g id="edge2" class="edge"><title>Node2&#45;&gt;Node3</title>
<path fill="none" stroke="midnightblue" d="M484.559,-81.9365C508.038,-74.0597 542.5,-62.894 573,-54.5534 581.954,-52.1048 591.511,-49.708 600.829,-47.4864"/>
<polygon fill="midnightblue" stroke="midnightblue" points="601.867,-50.838 610.806,-45.1504 600.271,-44.0224 601.867,-50.838"/>
</g>
<!-- Node4 -->
<g id="node4" class="node"><title>Node4</title>
<g id="a_node4"><a xlink:href="classSingleton.html#af5cb1e5749949e2b68416cfb8d378044" target="_top" xlink:title="Get an instance of the singleton. ">
<polygon fill="none" stroke="black" points="776,-105.553 776,-135.553 889,-135.553 889,-105.553 776,-105.553"/>
<text text-anchor="start" x="784" y="-123.553" font-family="Helvetica,sans-Serif" font-size="10.00">Singleton&lt; Settings</text>
<text text-anchor="middle" x="832.5" y="-112.553" font-family="Helvetica,sans-Serif" font-size="10.00"> &gt;::instance</text>
</a>
</g>
</g>
<!-- Node2&#45;&gt;Node4 -->
<g id="edge5" class="edge"><title>Node2&#45;&gt;Node4</title>
<path fill="none" stroke="midnightblue" d="M537.408,-92.1423C605.632,-95.8568 702.049,-103.442 765.634,-110.177"/>
<polygon fill="midnightblue" stroke="midnightblue" points="765.619,-113.696 775.938,-111.293 766.373,-106.737 765.619,-113.696"/>
</g>
<!-- Node2&#45;&gt;Node4 -->
<g id="edge6" class="edge"><title>Node2&#45;&gt;Node4</title>
<path fill="none" stroke="midnightblue" d="M514.272,-101.057C582.123,-108.504 694.431,-117.271 765.612,-120.741"/>
<polygon fill="midnightblue" stroke="midnightblue" points="765.654,-124.247 775.805,-121.214 765.978,-117.254 765.654,-124.247"/>
</g>
<!-- Node5 -->
<g id="node5" class="node"><title>Node5</title>
<g id="a_node5"><a xlink:href="isoMath_8cxx.html#a229d5dd54cd4e1f43ed5911e4fd266d3" target="_top" xlink:title="converts coordinates from isometric to screen space The given isometric coordinates (which contain he...">
<polygon fill="none" stroke="black" points="573,-64.0534 573,-83.0534 740,-83.0534 740,-64.0534 573,-64.0534"/>
<text text-anchor="middle" x="656.5" y="-71.0534" font-family="Helvetica,sans-Serif" font-size="10.00">convertIsoToScreenCoordinates</text>
</a>
</g>
</g>
<!-- Node2&#45;&gt;Node5 -->
<g id="edge4" class="edge"><title>Node2&#45;&gt;Node5</title>
<path fill="none" stroke="midnightblue" d="M537.154,-84.258C545.595,-83.4945 554.223,-82.7141 562.784,-81.9397"/>
<polygon fill="midnightblue" stroke="midnightblue" points="563.144,-85.4215 572.788,-81.0348 562.514,-78.45 563.144,-85.4215"/>
</g>
<!-- Node6 -->
<g id="node6" class="node"><title>Node6</title>
<g id="a_node6"><a xlink:href="classMap.html#ab69938ac0e56eb0da1d1701221f3d185" target="_top" xlink:title="Refresh all the map tile textures. ">
<polygon fill="none" stroke="black" points="618,-158.053 618,-177.053 695,-177.053 695,-158.053 618,-158.053"/>
<text text-anchor="middle" x="656.5" y="-165.053" font-family="Helvetica,sans-Serif" font-size="10.00">Map::refresh</text>
</a>
</g>
</g>
<!-- Node2&#45;&gt;Node6 -->
<g id="edge7" class="edge"><title>Node2&#45;&gt;Node6</title>
<path fill="none" stroke="midnightblue" d="M499.427,-101.162C511.916,-104.796 525.33,-109.546 537,-115.553 555.022,-124.831 554.947,-134.336 573,-143.553 583.898,-149.118 596.283,-153.58 608.083,-157.076"/>
<polygon fill="midnightblue" stroke="midnightblue" points="607.239,-160.474 617.811,-159.788 609.118,-153.731 607.239,-160.474"/>
</g>
<!-- Node3&#45;&gt;Node4 -->
<g id="edge3" class="edge"><title>Node3&#45;&gt;Node4</title>
<path fill="none" stroke="midnightblue" d="M713.09,-45.1487C722.287,-47.638 731.566,-50.7302 740,-54.5534 764.682,-65.7426 789.412,-84.1159 806.928,-98.6393"/>
<polygon fill="midnightblue" stroke="midnightblue" points="805.025,-101.614 814.916,-105.411 809.552,-96.2749 805.025,-101.614"/>
</g>
<!-- Node7&#45;&gt;Node2 -->
<g id="edge9" class="edge"><title>Node7&#45;&gt;Node2</title>
<path fill="none" stroke="midnightblue" d="M306.07,-158.05C316.695,-155.396 327.844,-152.218 338,-148.553 370.391,-136.867 405.657,-118.802 428.804,-106.149"/>
<polygon fill="midnightblue" stroke="midnightblue" points="430.587,-109.163 437.642,-101.259 427.198,-103.038 430.587,-109.163"/>
</g>
<!-- Node7&#45;&gt;Node4 -->
<g id="edge10" class="edge"><title>Node7&#45;&gt;Node4</title>
<path fill="none" stroke="midnightblue" d="M295,-177.1C376.193,-197.208 580.716,-238.006 740,-186.553 766.831,-177.886 792.419,-158.097 809.678,-142.435"/>
<polygon fill="midnightblue" stroke="midnightblue" points="812.088,-144.973 816.997,-135.584 807.304,-139.863 812.088,-144.973"/>
</g>
<!-- Node7&#45;&gt;Node6 -->
<g id="edge11" class="edge"><title>Node7&#45;&gt;Node6</title>
<path fill="none" stroke="midnightblue" d="M336.322,-167.553C416.598,-167.553 540.052,-167.553 607.479,-167.553"/>
<polygon fill="midnightblue" stroke="midnightblue" points="607.804,-171.053 617.804,-167.553 607.804,-164.053 607.804,-171.053"/>
</g>
<!-- Node8&#45;&gt;Node2 -->
<g id="edge13" class="edge"><title>Node8&#45;&gt;Node2</title>
<path fill="none" stroke="midnightblue" d="M308.455,-120.013C334.881,-114.864 367.694,-108.469 395.52,-103.047"/>
<polygon fill="midnightblue" stroke="midnightblue" points="396.379,-106.445 405.525,-101.097 395.04,-99.5747 396.379,-106.445"/>
</g>
<!-- Node8&#45;&gt;Node4 -->
<g id="edge14" class="edge"><title>Node8&#45;&gt;Node4</title>
<path fill="none" stroke="midnightblue" d="M276.121,-120.035C298.01,-107.793 337.951,-86.457 374,-72.5534 459.725,-39.4905 481.983,-29.1158 573,-16.5534 646.525,-6.40518 672.369,14.0247 740,-16.5534 775.947,-32.8061 803.396,-70.9336 818.478,-96.2278"/>
<polygon fill="midnightblue" stroke="midnightblue" points="815.628,-98.2938 823.644,-105.221 821.698,-94.8068 815.628,-98.2938"/>
</g>
<!-- Node8&#45;&gt;Node6 -->
<g id="edge15" class="edge"><title>Node8&#45;&gt;Node6</title>
<path fill="none" stroke="midnightblue" d="M338.21,-137.106C418.606,-144.821 540.835,-156.55 607.69,-162.965"/>
<polygon fill="midnightblue" stroke="midnightblue" points="607.641,-166.477 617.929,-163.948 608.309,-159.509 607.641,-166.477"/>
</g>
</g>
</svg>
        <g id="navigator" transform="translate(0 0)" fill="#404254">
                <rect fill="#f2f5e9" fill-opacity="0.5" stroke="#606060" stroke-width=".5" x="0" y="0" width="60" height="60"/>
                <use id="zoomplus" xlink:href="#zoomPlus" x="17" y="9" onmousedown="handleZoom(evt,'in')"/>
                <use id="zoomminus" xlink:href="#zoomMin" x="42" y="9" onmousedown="handleZoom(evt,'out')"/>
                <use id="reset" xlink:href="#resetDef" x="30" y="36" onmousedown="handleReset()"/>
                <g id="arrowUp" xlink:href="#dirArrow" transform="translate(30 24)" onmousedown="handlePan(0,-1)">
                  <use xlink:href="#rim" fill="#404040">
                        <set attributeName="fill" to="#808080" begin="arrowUp.mouseover" end="arrowUp.mouseout"/>
                  </use>
                  <path fill="none" stroke="white" stroke-width="1.5" d="M0,-3.0v7 M-2.5,-0.5L0,-3.0L2.5,-0.5"/>
                </g>
                <g id="arrowRight" xlink:href="#dirArrow" transform="rotate(90) translate(36 -43)" onmousedown="handlePan(1,0)">
                  <use xlink:href="#rim" fill="#404040">
                        <set attributeName="fill" to="#808080" begin="arrowRight.mouseover" end="arrowRight.mouseout"/>
                  </use>
                  <path fill="none" stroke="white" stroke-width="1.5" d="M0,-3.0v7 M-2.5,-0.5L0,-3.0L2.5,-0.5"/>
                </g>
                <g id="arrowDown" xlink:href="#dirArrow" transform="rotate(180) translate(-30 -48)" onmousedown="handlePan(0,1)">
                  <use xlink:href="#rim" fill="#404040">
                        <set attributeName="fill" to="#808080" begin="arrowDown.mouseover" end="arrowDown.mouseout"/>
                  </use>
                  <path fill="none" stroke="white" stroke-width="1.5" d="M0,-3.0v7 M-2.5,-0.5L0,-3.0L2.5,-0.5"/>
                </g>
                <g id="arrowLeft" xlink:href="#dirArrow" transform="rotate(270) translate(-36 17)" onmousedown="handlePan(-1,0)">
                  <use xlink:href="#rim" fill="#404040">
                        <set attributeName="fill" to="#808080" begin="arrowLeft.mouseover" end="arrowLeft.mouseout"/>
                  </use>
                  <path fill="none" stroke="white" stroke-width="1.5" d="M0,-3.0v7 M-2.5,-0.5L0,-3.0L2.5,-0.5"/>
                </g>
        </g>
        <svg viewBox="0 0 15 15" width="100%" height="30px" preserveAspectRatio="xMaxYMin meet">
         <g id="arrow_out" transform="scale(0.3 0.3)">
          <a xlink:href="classCamera_a1f8ecd427814c5a4970223c2d13b9310_cgraph_org.svg" target="_base">
           <rect id="button" ry="5" rx="5" y="6" x="6" height="38" width="38"
                fill="#f2f5e9" fill-opacity="0.5" stroke="#606060" stroke-width="1.0"/>
           <path id="arrow"
             d="M 11.500037,31.436501 C 11.940474,20.09759 22.043105,11.32322 32.158766,21.979434 L 37.068811,17.246167 C 37.068811,17.246167 37.088388,32 37.088388,32 L 22.160133,31.978069 C 22.160133,31.978069 26.997745,27.140456 26.997745,27.140456 C 18.528582,18.264221 13.291696,25.230495 11.500037,31.436501 z"
             style="fill:#404040;"/>
          </a>
         </g>
        </svg>
</svg>
