<?xml version="1.0" encoding="UTF-8" standalone="no"?>
<!DOCTYPE svg PUBLIC "-//W3C//DTD SVG 1.1//EN"
 "http://www.w3.org/Graphics/SVG/1.1/DTD/svg11.dtd">
<!-- Generated by graphviz version 2.38.0 (20140413.2041)
 -->
<!-- Title: Layout::arrangeElements Pages: 1 -->
<svg width="1010pt" height="128pt"
 viewBox="0.00 0.00 1010.00 128.06" xmlns="http://www.w3.org/2000/svg" xmlns:xlink="http://www.w3.org/1999/xlink">
<g id="graph0" class="graph" transform="scale(1 1) rotate(0) translate(4 124.062)">
<title>Layout::arrangeElements</title>
<!-- Node1 -->
<g id="node1" class="node"><title>Node1</title>
<polygon fill="#bfbfbf" stroke="black" points="0,-57.5 0,-76.5 137,-76.5 137,-57.5 0,-57.5"/>
<text text-anchor="middle" x="68.5" y="-64.5" font-family="Helvetica,sans-Serif" font-size="10.00">Layout::arrangeElements</text>
</g>
<!-- Node2 -->
<g id="node2" class="node"><title>Node2</title>
<g id="a_node2"><a xlink:href="classUIManager.html#aedd9d0577af515a852425dfe414b2968" target="_top" xlink:title="Parses the UiLayout.json files and creates UI Elements. ">
<polygon fill="none" stroke="black" points="604,-44.5 604,-63.5 693,-63.5 693,-44.5 604,-44.5"/>
<text text-anchor="middle" x="648.5" y="-51.5" font-family="Helvetica,sans-Serif" font-size="10.00">UIManager::init</text>
</a>
</g>
</g>
<!-- Node1&#45;&gt;Node2 -->
<g id="edge1" class="edge"><title>Node1&#45;&gt;Node2</title>
<path fill="none" stroke="midnightblue" d="M98.4623,-80.7618C118.802,-89.6397 146.925,-100.365 173,-105 346.249,-135.799 395.92,-114.773 568,-78 585.483,-74.264 604.681,-68.5164 619.832,-63.5825"/>
<polygon fill="midnightblue" stroke="midnightblue" points="99.7023,-77.4822 89.1454,-76.5867 96.8397,-83.8701 99.7023,-77.4822"/>
</g>
<!-- Node6 -->
<g id="node6" class="node"><title>Node6</title>
<g id="a_node6"><a xlink:href="classUIManager.html#a3ccb2fc669262f18ebdcdf3d5c43a3e8" target="_top" xlink:title="CallbackFunction that sets the Build Menu Position Used as callback function for the ComboBox that ho...">
<polygon fill="none" stroke="black" points="177.5,-76.5 177.5,-95.5 353.5,-95.5 353.5,-76.5 177.5,-76.5"/>
<text text-anchor="middle" x="265.5" y="-83.5" font-family="Helvetica,sans-Serif" font-size="10.00">UIManager::setBuildMenuPosition</text>
</a>
</g>
</g>
<!-- Node1&#45;&gt;Node6 -->
<g id="edge5" class="edge"><title>Node1&#45;&gt;Node6</title>
<path fill="none" stroke="midnightblue" d="M147.331,-74.5836C157.212,-75.5463 167.374,-76.5365 177.388,-77.5122"/>
<polygon fill="midnightblue" stroke="midnightblue" points="147.447,-71.0783 137.154,-73.592 146.768,-78.0453 147.447,-71.0783"/>
</g>
<!-- Node8 -->
<g id="node8" class="node"><title>Node8</title>
<g id="a_node8"><a xlink:href="classUIManager.html#ac927e1cd3dea979202ea9dbf1195b583" target="_top" xlink:title="UIManager::changeResolution">
<polygon fill="none" stroke="black" points="186.5,-0.5 186.5,-19.5 344.5,-19.5 344.5,-0.5 186.5,-0.5"/>
<text text-anchor="middle" x="265.5" y="-7.5" font-family="Helvetica,sans-Serif" font-size="10.00">UIManager::changeResolution</text>
</a>
</g>
</g>
<!-- Node1&#45;&gt;Node8 -->
<g id="edge8" class="edge"><title>Node1&#45;&gt;Node8</title>
<path fill="none" stroke="midnightblue" d="M101.962,-53.6829C122.156,-45.7504 148.8,-35.9144 173,-29 185.48,-25.4342 199.096,-22.2416 211.918,-19.5371"/>
<polygon fill="midnightblue" stroke="midnightblue" points="100.605,-50.4559 92.6061,-57.403 103.192,-56.9606 100.605,-50.4559"/>
</g>
<!-- Node10 -->
<g id="node10" class="node"><title>Node10</title>
<g id="a_node10"><a xlink:href="classUIManager.html#af2ffb4ee45e57152164643ef6cddda37" target="_top" xlink:title="UIManager::changeFullScreenMode">
<polygon fill="none" stroke="black" points="173,-38.5 173,-57.5 358,-57.5 358,-38.5 173,-38.5"/>
<text text-anchor="middle" x="265.5" y="-45.5" font-family="Helvetica,sans-Serif" font-size="10.00">UIManager::changeFullScreenMode</text>
</a>
</g>
</g>
<!-- Node1&#45;&gt;Node10 -->
<g id="edge12" class="edge"><title>Node1&#45;&gt;Node10</title>
<path fill="none" stroke="midnightblue" d="M147.308,-59.4187C155.729,-58.5982 164.355,-57.7577 172.921,-56.9231"/>
<polygon fill="midnightblue" stroke="midnightblue" points="146.768,-55.9547 137.154,-60.408 147.447,-62.9217 146.768,-55.9547"/>
</g>
<!-- Node3 -->
<g id="node3" class="node"><title>Node3</title>
<g id="a_node3"><a xlink:href="classGame.html#a1c2ab25d5216b2f4b2fe41efd2c09114" target="_top" xlink:title="Game::run">
<polygon fill="none" stroke="black" points="729,-44.5 729,-63.5 797,-63.5 797,-44.5 729,-44.5"/>
<text text-anchor="middle" x="763" y="-51.5" font-family="Helvetica,sans-Serif" font-size="10.00">Game::run</text>
</a>
</g>
</g>
<!-- Node2&#45;&gt;Node3 -->
<g id="edge2" class="edge"><title>Node2&#45;&gt;Node3</title>
<path fill="none" stroke="midnightblue" d="M703.446,-54C712.145,-54 720.918,-54 728.931,-54"/>
<polygon fill="midnightblue" stroke="midnightblue" points="703.318,-50.5001 693.318,-54 703.318,-57.5001 703.318,-50.5001"/>
</g>
<!-- Node4 -->
<g id="node4" class="node"><title>Node4</title>
<g id="a_node4"><a xlink:href="main_8cxx.html#af582d708d899e67ead623eac34a22387" target="_top" xlink:title="protected_main">
<polygon fill="none" stroke="black" points="833,-44.5 833,-63.5 925,-63.5 925,-44.5 833,-44.5"/>
<text text-anchor="middle" x="879" y="-51.5" font-family="Helvetica,sans-Serif" font-size="10.00">protected_main</text>
</a>
</g>
</g>
<!-- Node3&#45;&gt;Node4 -->
<g id="edge3" class="edge"><title>Node3&#45;&gt;Node4</title>
<path fill="none" stroke="midnightblue" d="M807.44,-54C815.674,-54 824.308,-54 832.601,-54"/>
<polygon fill="midnightblue" stroke="midnightblue" points="807.28,-50.5001 797.28,-54 807.28,-57.5001 807.28,-50.5001"/>
</g>
<!-- Node5 -->
<g id="node5" class="node"><title>Node5</title>
<g id="a_node5"><a xlink:href="main_8cxx.html#a3c04138a5bfe5d72780bb7e82a18e627" target="_top" xlink:title="main">
<polygon fill="none" stroke="black" points="961,-44.5 961,-63.5 1002,-63.5 1002,-44.5 961,-44.5"/>
<text text-anchor="middle" x="981.5" y="-51.5" font-family="Helvetica,sans-Serif" font-size="10.00">main</text>
</a>
</g>
</g>
<!-- Node4&#45;&gt;Node5 -->
<g id="edge4" class="edge"><title>Node4&#45;&gt;Node5</title>
<path fill="none" stroke="midnightblue" d="M935.539,-54C944.619,-54 953.466,-54 960.877,-54"/>
<polygon fill="midnightblue" stroke="midnightblue" points="935.252,-50.5001 925.252,-54 935.252,-57.5001 935.252,-50.5001"/>
</g>
<!-- Node7 -->
<g id="node7" class="node"><title>Node7</title>
<g id="a_node7"><a xlink:href="classUIManager.html#a5c4cb8e02504ffa0d3faf45181feab9d" target="_top" xlink:title="Fill UI Widgets whose ID start with a $ with data Used for filling widgets with data, like BuildMenu Position combobox, Screen Resolution ComboBox and so on. ">
<polygon fill="none" stroke="black" points="411,-39 411,-69 551,-69 551,-39 411,-39"/>
<text text-anchor="start" x="419" y="-57" font-family="Helvetica,sans-Serif" font-size="10.00">UIManager::initializeDollar</text>
<text text-anchor="middle" x="481" y="-46" font-family="Helvetica,sans-Serif" font-size="10.00">Variables</text>
</a>
</g>
</g>
<!-- Node6&#45;&gt;Node7 -->
<g id="edge6" class="edge"><title>Node6&#45;&gt;Node7</title>
<path fill="none" stroke="midnightblue" d="M340,-74.9836C362.944,-71.5447 388.165,-67.7645 410.804,-64.3714"/>
<polygon fill="midnightblue" stroke="midnightblue" points="339.35,-71.5419 329.979,-76.4856 340.387,-78.4646 339.35,-71.5419"/>
</g>
<!-- Node7&#45;&gt;Node2 -->
<g id="edge7" class="edge"><title>Node7&#45;&gt;Node2</title>
<path fill="none" stroke="midnightblue" d="M561.26,-54C575.817,-54 590.517,-54 603.556,-54"/>
<polygon fill="midnightblue" stroke="midnightblue" points="561.228,-50.5001 551.228,-54 561.228,-57.5001 561.228,-50.5001"/>
</g>
<!-- Node8&#45;&gt;Node7 -->
<g id="edge11" class="edge"><title>Node8&#45;&gt;Node7</title>
<path fill="none" stroke="midnightblue" d="M322.849,-21.6129C349.761,-27.1592 382.22,-33.8486 410.634,-39.7045"/>
<polygon fill="midnightblue" stroke="midnightblue" points="323.327,-18.1379 312.826,-19.5473 321.914,-24.9939 323.327,-18.1379"/>
</g>
<!-- Node9 -->
<g id="node9" class="node"><title>Node9</title>
<g id="a_node9"><a xlink:href="classUIManager.html#aa78e356fc3b356d790c848319d1c387e" target="_top" xlink:title="UIManager::setCallbackFunctions">
<polygon fill="none" stroke="black" points="394,-0.5 394,-19.5 568,-19.5 568,-0.5 394,-0.5"/>
<text text-anchor="middle" x="481" y="-7.5" font-family="Helvetica,sans-Serif" font-size="10.00">UIManager::setCallbackFunctions</text>
</a>
</g>
</g>
<!-- Node8&#45;&gt;Node9 -->
<g id="edge9" class="edge"><title>Node8&#45;&gt;Node9</title>
<path fill="none" stroke="midnightblue" d="M354.986,-10C367.819,-10 381.014,-10 393.801,-10"/>
<polygon fill="midnightblue" stroke="midnightblue" points="354.787,-6.5001 344.787,-10 354.787,-13.5001 354.787,-6.5001"/>
</g>
<!-- Node9&#45;&gt;Node2 -->
<g id="edge10" class="edge"><title>Node9&#45;&gt;Node2</title>
<path fill="none" stroke="midnightblue" d="M538.378,-21.7162C548.285,-23.9856 558.472,-26.4545 568,-29 585.193,-33.5932 604.217,-39.5439 619.344,-44.4872"/>
<polygon fill="midnightblue" stroke="midnightblue" points="539.122,-18.2961 528.597,-19.5179 537.586,-25.1258 539.122,-18.2961"/>
</g>
<!-- Node10&#45;&gt;Node7 -->
<g id="edge13" class="edge"><title>Node10&#45;&gt;Node7</title>
<path fill="none" stroke="midnightblue" d="M368.662,-50.8711C382.963,-51.273 397.375,-51.678 410.867,-52.0572"/>
<polygon fill="midnightblue" stroke="midnightblue" points="368.377,-47.3618 358.282,-50.5794 368.18,-54.359 368.377,-47.3618"/>
</g>
</g>
</svg>
