<?xml version="1.0" encoding="UTF-8" standalone="no"?>
<!DOCTYPE svg PUBLIC "-//W3C//DTD SVG 1.1//EN"
 "http://www.w3.org/Graphics/SVG/1.1/DTD/svg11.dtd">
<!-- Generated by graphviz version 2.38.0 (20140413.2041)
 -->
<!-- Title: MenuGroupBuild Pages: 1 -->
<!--zoomable 778 -->
<svg id="main" version="1.1" xmlns="http://www.w3.org/2000/svg" xmlns:xlink="http://www.w3.org/1999/xlink" xml:space="preserve" onload="init(evt)">
<style type="text/css"><![CDATA[
.edge:hover path { stroke: red; }
.edge:hover polygon { stroke: red; fill: red; }
]]></style>
<script type="text/javascript"><![CDATA[
var edges = document.getElementsByTagName('g');
if (edges && edges.length) {
  for (var i=0;i<edges.length;i++) {
    if (edges[i].id.substr(0,4)=='edge') {
      edges[i].setAttribute('class','edge');
    }
  }
}
]]></script>
        <defs>
                <circle id="rim" cx="0" cy="0" r="7"/>
                <circle id="rim2" cx="0" cy="0" r="3.5"/>
                <g id="zoomPlus">
                        <use xlink:href="#rim" fill="#404040">
                                <set attributeName="fill" to="#808080" begin="zoomplus.mouseover" end="zoomplus.mouseout"/>
                        </use>
                        <path d="M-4,0h8M0,-4v8" fill="none" stroke="white" stroke-width="1.5" pointer-events="none"/>
                </g>
                <g id="zoomMin">
                        <use xlink:href="#rim" fill="#404040">
                                <set attributeName="fill" to="#808080" begin="zoomminus.mouseover" end="zoomminus.mouseout"/>
                        </use>
                        <path d="M-4,0h8" fill="none" stroke="white" stroke-width="1.5" pointer-events="none"/>
                </g>
                <g id="dirArrow">
                        <path fill="none" stroke="white" stroke-width="1.5" d="M0,-3.0v7 M-2.5,-0.5L0,-3.0L2.5,-0.5"/>
                </g>
               <g id="resetDef">
                       <use xlink:href="#rim2" fill="#404040">
                               <set attributeName="fill" to="#808080" begin="reset.mouseover" end="reset.mouseout"/>
                       </use>
               </g>
        </defs>

<script type="text/javascript">
var viewWidth = 302;
var viewHeight = 778;
var sectionId = 'dynsection-1';
</script>
<script xlink:href="svgpan.js"/>
<svg id="graph" class="graph">
<g id="viewport">
<title>MenuGroupBuild</title>
<!-- Node1 -->
<g id="node1" class="node"><title>Node1</title>
<polygon fill="#bfbfbf" stroke="black" points="15.5,-0.5 15.5,-90.5 129.5,-90.5 129.5,-0.5 15.5,-0.5"/>
<text text-anchor="middle" x="72.5" y="-78.5" font-family="Helvetica,sans-Serif" font-size="10.00">MenuGroupBuild</text>
<polyline fill="none" stroke="black" points="15.5,-71.5 129.5,-71.5 "/>
<text text-anchor="middle" x="72.5" y="-59.5" font-family="Helvetica,sans-Serif" font-size="10.00"> </text>
<polyline fill="none" stroke="black" points="15.5,-52.5 129.5,-52.5 "/>
<text text-anchor="start" x="23.5" y="-40.5" font-family="Helvetica,sans-Serif" font-size="10.00">+ MenuGroupBuild()</text>
<text text-anchor="start" x="23.5" y="-29.5" font-family="Helvetica,sans-Serif" font-size="10.00">+ draw()</text>
<text text-anchor="start" x="23.5" y="-18.5" font-family="Helvetica,sans-Serif" font-size="10.00">+ constructMenu()</text>
<text text-anchor="start" x="23.5" y="-7.5" font-family="Helvetica,sans-Serif" font-size="10.00">&#45; arrangeElements()</text>
</g>
<!-- Node2 -->
<g id="node2" class="node"><title>Node2</title>
<g id="a_node2"><a xlink:href="classIMenuGroup.html" target="_top" xlink:title="Interface Class for Menu Groups Menu Groups can hold UiElements and format them in a special way...">
<polygon fill="none" stroke="black" points="0,-128.5 0,-218.5 145,-218.5 145,-128.5 0,-128.5"/>
<text text-anchor="middle" x="72.5" y="-206.5" font-family="Helvetica,sans-Serif" font-size="10.00">IMenuGroup</text>
<polyline fill="none" stroke="black" points="0,-199.5 145,-199.5 "/>
<text text-anchor="start" x="8" y="-187.5" font-family="Helvetica,sans-Serif" font-size="10.00">+ visible</text>
<text text-anchor="start" x="8" y="-176.5" font-family="Helvetica,sans-Serif" font-size="10.00"># m_groupElements</text>
<text text-anchor="start" x="8" y="-165.5" font-family="Helvetica,sans-Serif" font-size="10.00"># m_buildSubMenuGroups</text>
<polyline fill="none" stroke="black" points="0,-158.5 145,-158.5 "/>
<text text-anchor="start" x="8" y="-146.5" font-family="Helvetica,sans-Serif" font-size="10.00">+ draw()</text>
<text text-anchor="start" x="8" y="-135.5" font-family="Helvetica,sans-Serif" font-size="10.00">+ addToGroup()</text>
</a>
</g>
</g>
<!-- Node2&#45;&gt;Node1 -->
<g id="edge1" class="edge"><title>Node2&#45;&gt;Node1</title>
<path fill="none" stroke="midnightblue" d="M72.5,-118.226C72.5,-109.056 72.5,-99.6331 72.5,-90.7568"/>
<polygon fill="none" stroke="midnightblue" points="69.0001,-118.431 72.5,-128.431 76.0001,-118.431 69.0001,-118.431"/>
</g>
<!-- Node3 -->
<g id="node3" class="node"><title>Node3</title>
<g id="a_node3"><a xlink:href="classButtonGroup.html" target="_top" xlink:title="Class to group buttons and to make sure there&#39;s only one active toggle button in the group When addin...">
<polygon fill="none" stroke="black" points="4,-266.5 4,-422.5 141,-422.5 141,-266.5 4,-266.5"/>
<text text-anchor="middle" x="72.5" y="-410.5" font-family="Helvetica,sans-Serif" font-size="10.00">ButtonGroup</text>
<polyline fill="none" stroke="black" points="4,-403.5 141,-403.5 "/>
<text text-anchor="start" x="12" y="-391.5" font-family="Helvetica,sans-Serif" font-size="10.00">+ alwaysOn</text>
<text text-anchor="start" x="12" y="-380.5" font-family="Helvetica,sans-Serif" font-size="10.00">+ exclusive</text>
<text text-anchor="start" x="12" y="-369.5" font-family="Helvetica,sans-Serif" font-size="10.00">&#45; m_buttonGroup</text>
<polyline fill="none" stroke="black" points="4,-362.5 141,-362.5 "/>
<text text-anchor="start" x="12" y="-350.5" font-family="Helvetica,sans-Serif" font-size="10.00">+ ButtonGroup()</text>
<text text-anchor="start" x="12" y="-339.5" font-family="Helvetica,sans-Serif" font-size="10.00">+ ~ButtonGroup()</text>
<text text-anchor="start" x="12" y="-328.5" font-family="Helvetica,sans-Serif" font-size="10.00">+ addToGroup()</text>
<text text-anchor="start" x="12" y="-317.5" font-family="Helvetica,sans-Serif" font-size="10.00">+ onMouseButtonDown()</text>
<text text-anchor="start" x="12" y="-306.5" font-family="Helvetica,sans-Serif" font-size="10.00">+ onMouseButtonUp()</text>
<text text-anchor="start" x="12" y="-295.5" font-family="Helvetica,sans-Serif" font-size="10.00">+ count()</text>
<text text-anchor="start" x="12" y="-284.5" font-family="Helvetica,sans-Serif" font-size="10.00">+ getAllButtons()</text>
<text text-anchor="start" x="12" y="-273.5" font-family="Helvetica,sans-Serif" font-size="10.00">&#45; uncheckAllButtons()</text>
</a>
</g>
</g>
<!-- Node3&#45;&gt;Node2 -->
<g id="edge2" class="edge"><title>Node3&#45;&gt;Node2</title>
<path fill="none" stroke="#404040" d="M72.5,-266.418C72.5,-254.399 72.5,-242.179 72.5,-230.739"/>
<polygon fill="none" stroke="#404040" points="72.5001,-230.679 68.5,-224.679 72.5,-218.679 76.5,-224.679 72.5001,-230.679"/>
<text text-anchor="middle" x="125" y="-240" font-family="Helvetica,sans-Serif" font-size="10.00"> #m_buildMenuGroup</text>
</g>
<!-- Node4 -->
<g id="node4" class="node"><title>Node4</title>
<g id="a_node4"><a xlink:href="classUIElement.html" target="_top" xlink:title="Base class for UI Elements Provides functions and variables for derived user interface elements...">
<polygon fill="none" stroke="black" points="84.5,-470.5 84.5,-769.5 236.5,-769.5 236.5,-470.5 84.5,-470.5"/>
<text text-anchor="middle" x="160.5" y="-757.5" font-family="Helvetica,sans-Serif" font-size="10.00">UIElement</text>
<polyline fill="none" stroke="black" points="84.5,-750.5 236.5,-750.5 "/>
<text text-anchor="start" x="92.5" y="-738.5" font-family="Helvetica,sans-Serif" font-size="10.00"># m_texture</text>
<text text-anchor="start" x="92.5" y="-727.5" font-family="Helvetica,sans-Serif" font-size="10.00"># m_uiElementRect</text>
<text text-anchor="start" x="92.5" y="-716.5" font-family="Helvetica,sans-Serif" font-size="10.00">&#45; m_renderer</text>
<text text-anchor="start" x="92.5" y="-705.5" font-family="Helvetica,sans-Serif" font-size="10.00">&#45; m_window</text>
<text text-anchor="start" x="92.5" y="-694.5" font-family="Helvetica,sans-Serif" font-size="10.00">&#45; m_buttonState</text>
<text text-anchor="start" x="92.5" y="-683.5" font-family="Helvetica,sans-Serif" font-size="10.00">&#45; m_visible</text>
<polyline fill="none" stroke="black" points="84.5,-676.5 236.5,-676.5 "/>
<text text-anchor="start" x="92.5" y="-664.5" font-family="Helvetica,sans-Serif" font-size="10.00">+ UIElement()</text>
<text text-anchor="start" x="92.5" y="-653.5" font-family="Helvetica,sans-Serif" font-size="10.00">+ UIElement()</text>
<text text-anchor="start" x="92.5" y="-642.5" font-family="Helvetica,sans-Serif" font-size="10.00">+ ~UIElement()</text>
<text text-anchor="start" x="92.5" y="-631.5" font-family="Helvetica,sans-Serif" font-size="10.00">+ registerCallbackFunction()</text>
<text text-anchor="start" x="92.5" y="-620.5" font-family="Helvetica,sans-Serif" font-size="10.00">+ registerCallbackFunction()</text>
<text text-anchor="start" x="92.5" y="-609.5" font-family="Helvetica,sans-Serif" font-size="10.00">+ registerCallbackFunction()</text>
<text text-anchor="start" x="92.5" y="-598.5" font-family="Helvetica,sans-Serif" font-size="10.00">+ onMouseButtonUp()</text>
<text text-anchor="start" x="92.5" y="-587.5" font-family="Helvetica,sans-Serif" font-size="10.00">+ onMouseButtonDown()</text>
<text text-anchor="start" x="92.5" y="-576.5" font-family="Helvetica,sans-Serif" font-size="10.00">+ onMouseEnter()</text>
<text text-anchor="start" x="92.5" y="-565.5" font-family="Helvetica,sans-Serif" font-size="10.00">+ onMouseLeave()</text>
<text text-anchor="start" x="92.5" y="-554.5" font-family="Helvetica,sans-Serif" font-size="10.00">and 23 more...</text>
<text text-anchor="start" x="92.5" y="-543.5" font-family="Helvetica,sans-Serif" font-size="10.00"># renderTexture()</text>
<text text-anchor="start" x="92.5" y="-532.5" font-family="Helvetica,sans-Serif" font-size="10.00"># drawSolidRect()</text>
<text text-anchor="start" x="92.5" y="-521.5" font-family="Helvetica,sans-Serif" font-size="10.00"># drawLine()</text>
<text text-anchor="start" x="92.5" y="-510.5" font-family="Helvetica,sans-Serif" font-size="10.00"># drawTextFrame()</text>
<text text-anchor="start" x="92.5" y="-499.5" font-family="Helvetica,sans-Serif" font-size="10.00"># drawButtonFrame()</text>
<text text-anchor="start" x="92.5" y="-488.5" font-family="Helvetica,sans-Serif" font-size="10.00"># drawFrame()</text>
<text text-anchor="start" x="92.5" y="-477.5" font-family="Helvetica,sans-Serif" font-size="10.00"># changeTexture()</text>
</a>
</g>
</g>
<!-- Node4&#45;&gt;Node3 -->
<g id="edge3" class="edge"><title>Node4&#45;&gt;Node3</title>
<path fill="none" stroke="midnightblue" d="M109.554,-460.662C105.337,-447.557 101.208,-434.723 97.3264,-422.659"/>
<polygon fill="none" stroke="midnightblue" points="106.242,-461.797 112.637,-470.245 112.906,-459.653 106.242,-461.797"/>
</g>
<!-- Node5 -->
<g id="node5" class="node"><title>Node5</title>
<g id="a_node5"><a xlink:href="structUIElement_1_1ElementData.html" target="_top" xlink:title="{UIElement::ElementData\n|+ elementID\l+ text\l+ tooltipText\l+ actionID\l+ actionParameter\l+ textureID\l+ buildMenuID\l+ layoutGroupName\l+ isToggleButton\l|}">
<polygon fill="none" stroke="black" points="159,-272 159,-417 294,-417 294,-272 159,-272"/>
<text text-anchor="middle" x="226.5" y="-405" font-family="Helvetica,sans-Serif" font-size="10.00">UIElement::ElementData</text>
<polyline fill="none" stroke="black" points="159,-398 294,-398 "/>
<text text-anchor="start" x="167" y="-386" font-family="Helvetica,sans-Serif" font-size="10.00">+ elementID</text>
<text text-anchor="start" x="167" y="-375" font-family="Helvetica,sans-Serif" font-size="10.00">+ text</text>
<text text-anchor="start" x="167" y="-364" font-family="Helvetica,sans-Serif" font-size="10.00">+ tooltipText</text>
<text text-anchor="start" x="167" y="-353" font-family="Helvetica,sans-Serif" font-size="10.00">+ actionID</text>
<text text-anchor="start" x="167" y="-342" font-family="Helvetica,sans-Serif" font-size="10.00">+ actionParameter</text>
<text text-anchor="start" x="167" y="-331" font-family="Helvetica,sans-Serif" font-size="10.00">+ textureID</text>
<text text-anchor="start" x="167" y="-320" font-family="Helvetica,sans-Serif" font-size="10.00">+ buildMenuID</text>
<text text-anchor="start" x="167" y="-309" font-family="Helvetica,sans-Serif" font-size="10.00">+ layoutGroupName</text>
<text text-anchor="start" x="167" y="-298" font-family="Helvetica,sans-Serif" font-size="10.00">+ isToggleButton</text>
<polyline fill="none" stroke="black" points="159,-291 294,-291 "/>
<text text-anchor="middle" x="226.5" y="-279" font-family="Helvetica,sans-Serif" font-size="10.00"> </text>
</a>
</g>
</g>
<!-- Node4&#45;&gt;Node5 -->
<g id="edge5" class="edge"><title>Node4&#45;&gt;Node5</title>
<path fill="none" stroke="#404040" d="M150.638,-470.263C152.22,-460.249 154.456,-450.41 157.5,-441 158.888,-436.709 160.548,-432.449 162.424,-428.247"/>
<polygon fill="none" stroke="#404040" points="162.532,-428.029 161.608,-420.877 167.854,-417.274 168.778,-424.425 162.532,-428.029"/>
<text text-anchor="middle" x="179" y="-444" font-family="Helvetica,sans-Serif" font-size="10.00"> +parent</text>
</g>
<!-- Node5&#45;&gt;Node4 -->
<g id="edge4" class="edge"><title>Node5&#45;&gt;Node4</title>
<path fill="none" stroke="#404040" d="M212.235,-417.225C209.76,-428.873 207.133,-440.788 204.5,-452 203.995,-454.15 203.483,-456.315 202.964,-458.492"/>
<polygon fill="none" stroke="#404040" points="202.946,-458.567 205.427,-465.338 200.131,-470.232 197.65,-463.461 202.946,-458.567"/>
<text text-anchor="middle" x="243" y="-444" font-family="Helvetica,sans-Serif" font-size="10.00"> #elementData</text>
</g>
</g>
</svg>
        <g id="navigator" transform="translate(0 0)" fill="#404254">
                <rect fill="#f2f5e9" fill-opacity="0.5" stroke="#606060" stroke-width=".5" x="0" y="0" width="60" height="60"/>
                <use id="zoomplus" xlink:href="#zoomPlus" x="17" y="9" onmousedown="handleZoom(evt,'in')"/>
                <use id="zoomminus" xlink:href="#zoomMin" x="42" y="9" onmousedown="handleZoom(evt,'out')"/>
                <use id="reset" xlink:href="#resetDef" x="30" y="36" onmousedown="handleReset()"/>
                <g id="arrowUp" xlink:href="#dirArrow" transform="translate(30 24)" onmousedown="handlePan(0,-1)">
                  <use xlink:href="#rim" fill="#404040">
                        <set attributeName="fill" to="#808080" begin="arrowUp.mouseover" end="arrowUp.mouseout"/>
                  </use>
                  <path fill="none" stroke="white" stroke-width="1.5" d="M0,-3.0v7 M-2.5,-0.5L0,-3.0L2.5,-0.5"/>
                </g>
                <g id="arrowRight" xlink:href="#dirArrow" transform="rotate(90) translate(36 -43)" onmousedown="handlePan(1,0)">
                  <use xlink:href="#rim" fill="#404040">
                        <set attributeName="fill" to="#808080" begin="arrowRight.mouseover" end="arrowRight.mouseout"/>
                  </use>
                  <path fill="none" stroke="white" stroke-width="1.5" d="M0,-3.0v7 M-2.5,-0.5L0,-3.0L2.5,-0.5"/>
                </g>
                <g id="arrowDown" xlink:href="#dirArrow" transform="rotate(180) translate(-30 -48)" onmousedown="handlePan(0,1)">
                  <use xlink:href="#rim" fill="#404040">
                        <set attributeName="fill" to="#808080" begin="arrowDown.mouseover" end="arrowDown.mouseout"/>
                  </use>
                  <path fill="none" stroke="white" stroke-width="1.5" d="M0,-3.0v7 M-2.5,-0.5L0,-3.0L2.5,-0.5"/>
                </g>
                <g id="arrowLeft" xlink:href="#dirArrow" transform="rotate(270) translate(-36 17)" onmousedown="handlePan(-1,0)">
                  <use xlink:href="#rim" fill="#404040">
                        <set attributeName="fill" to="#808080" begin="arrowLeft.mouseover" end="arrowLeft.mouseout"/>
                  </use>
                  <path fill="none" stroke="white" stroke-width="1.5" d="M0,-3.0v7 M-2.5,-0.5L0,-3.0L2.5,-0.5"/>
                </g>
        </g>
        <svg viewBox="0 0 15 15" width="100%" height="30px" preserveAspectRatio="xMaxYMin meet">
         <g id="arrow_out" transform="scale(0.3 0.3)">
          <a xlink:href="classMenuGroupBuild__coll__graph_org.svg" target="_base">
           <rect id="button" ry="5" rx="5" y="6" x="6" height="38" width="38"
                fill="#f2f5e9" fill-opacity="0.5" stroke="#606060" stroke-width="1.0"/>
           <path id="arrow"
             d="M 11.500037,31.436501 C 11.940474,20.09759 22.043105,11.32322 32.158766,21.979434 L 37.068811,17.246167 C 37.068811,17.246167 37.088388,32 37.088388,32 L 22.160133,31.978069 C 22.160133,31.978069 26.997745,27.140456 26.997745,27.140456 C 18.528582,18.264221 13.291696,25.230495 11.500037,31.436501 z"
             style="fill:#404040;"/>
          </a>
         </g>
        </svg>
</svg>
