<?xml version="1.0" encoding="UTF-8" standalone="no"?>
<!DOCTYPE svg PUBLIC "-//W3C//DTD SVG 1.1//EN"
 "http://www.w3.org/Graphics/SVG/1.1/DTD/svg11.dtd">
<!-- Generated by graphviz version 2.38.0 (20140413.2041)
 -->
<!-- Title: Engine::newGame Pages: 1 -->
<svg width="931pt" height="267pt"
 viewBox="0.00 0.00 931.00 267.28" xmlns="http://www.w3.org/2000/svg" xmlns:xlink="http://www.w3.org/1999/xlink">
<g id="graph0" class="graph" transform="scale(1 1) rotate(0) translate(4 263.279)">
<title>Engine::newGame</title>
<!-- Node1 -->
<g id="node1" class="node"><title>Node1</title>
<polygon fill="#bfbfbf" stroke="black" points="0,-189.779 0,-208.779 103,-208.779 103,-189.779 0,-189.779"/>
<text text-anchor="middle" x="51.5" y="-196.779" font-family="Helvetica,sans-Serif" font-size="10.00">Engine::newGame</text>
</g>
<!-- Node2 -->
<g id="node2" class="node"><title>Node2</title>
<g id="a_node2"><a xlink:href="classSingleton.html#af5cb1e5749949e2b68416cfb8d378044" target="_top" xlink:title="Get an instance of the singleton. ">
<polygon fill="none" stroke="black" points="810,-225.279 810,-255.279 923,-255.279 923,-225.279 810,-225.279"/>
<text text-anchor="start" x="818" y="-243.279" font-family="Helvetica,sans-Serif" font-size="10.00">Singleton&lt; Settings</text>
<text text-anchor="middle" x="866.5" y="-232.279" font-family="Helvetica,sans-Serif" font-size="10.00"> &gt;::instance</text>
</a>
</g>
</g>
<!-- Node1&#45;&gt;Node2 -->
<g id="edge1" class="edge"><title>Node1&#45;&gt;Node2</title>
<path fill="none" stroke="midnightblue" d="M77.9152,-208.787C125.493,-225.705 231.558,-259.279 324,-259.279 324,-259.279 324,-259.279 515.5,-259.279 614.681,-259.279 729.44,-251.578 799.74,-245.982"/>
<polygon fill="midnightblue" stroke="midnightblue" points="800.096,-249.464 809.782,-245.172 799.533,-242.487 800.096,-249.464"/>
</g>
<!-- Node3 -->
<g id="node3" class="node"><title>Node3</title>
<g id="a_node3"><a xlink:href="classMap.html#a482ac34426e8aa66abb46f60ec329402" target="_top" xlink:title="Initialize the Map with node objects Initialize the Map with node objects. ">
<polygon fill="none" stroke="black" points="139,-107.779 139,-126.779 216,-126.779 216,-107.779 139,-107.779"/>
<text text-anchor="middle" x="177.5" y="-114.779" font-family="Helvetica,sans-Serif" font-size="10.00">Map::initMap</text>
</a>
</g>
</g>
<!-- Node1&#45;&gt;Node3 -->
<g id="edge2" class="edge"><title>Node1&#45;&gt;Node3</title>
<path fill="none" stroke="midnightblue" d="M67.2114,-189.551C88.466,-175.495 127.976,-149.368 153.215,-132.678"/>
<polygon fill="midnightblue" stroke="midnightblue" points="155.397,-135.431 161.808,-126.995 151.536,-129.592 155.397,-135.431"/>
</g>
<!-- Node4 -->
<g id="node4" class="node"><title>Node4</title>
<g id="a_node4"><a xlink:href="classMapLayers.html#a54ce1eeef2a8998a728ac7074efe8787" target="_top" xlink:title="Enable Drawing Layer Enable Drawing Layer (use bitwise OR to add layer) ">
<polygon fill="none" stroke="black" points="258.5,-88.7794 258.5,-107.779 391.5,-107.779 391.5,-88.7794 258.5,-88.7794"/>
<text text-anchor="middle" x="325" y="-95.7794" font-family="Helvetica,sans-Serif" font-size="10.00">MapLayers::enableLayer</text>
</a>
</g>
</g>
<!-- Node3&#45;&gt;Node4 -->
<g id="edge3" class="edge"><title>Node3&#45;&gt;Node4</title>
<path fill="none" stroke="midnightblue" d="M216.349,-112.337C226.212,-111.049 237.197,-109.614 248.274,-108.168"/>
<polygon fill="midnightblue" stroke="midnightblue" points="248.981,-111.605 258.444,-106.84 248.075,-104.664 248.981,-111.605"/>
</g>
<!-- Node5 -->
<g id="node5" class="node"><title>Node5</title>
<g id="a_node5"><a xlink:href="classTerrainGenerator.html#adcc251757a1f3a06471a49f17886b8ce" target="_top" xlink:title="TerrainGenerator::generate\lTerrain">
<polygon fill="none" stroke="black" points="252,-39.2794 252,-69.2794 398,-69.2794 398,-39.2794 252,-39.2794"/>
<text text-anchor="start" x="260" y="-57.2794" font-family="Helvetica,sans-Serif" font-size="10.00">TerrainGenerator::generate</text>
<text text-anchor="middle" x="325" y="-46.2794" font-family="Helvetica,sans-Serif" font-size="10.00">Terrain</text>
</a>
</g>
</g>
<!-- Node3&#45;&gt;Node5 -->
<g id="edge4" class="edge"><title>Node3&#45;&gt;Node5</title>
<path fill="none" stroke="midnightblue" d="M195.393,-107.666C210.079,-99.5222 232.07,-87.8396 252,-79.2794 257.091,-77.0927 262.443,-74.9525 267.835,-72.902"/>
<polygon fill="midnightblue" stroke="midnightblue" points="269.367,-76.0671 277.534,-69.3175 266.941,-69.5011 269.367,-76.0671"/>
</g>
<!-- Node7 -->
<g id="node7" class="node"><title>Node7</title>
<g id="a_node7"><a xlink:href="classMap.html#a481b37ba71ef0e51e836fc42805762dd" target="_top" xlink:title="Update all mapNodes Updates all mapNode and its adjacent tiles regarding height information, draws slopes for adjacent tiles and sets tiling for mapNode sprite if applicable. ">
<polygon fill="none" stroke="black" points="265.5,-126.779 265.5,-145.779 384.5,-145.779 384.5,-126.779 265.5,-126.779"/>
<text text-anchor="middle" x="325" y="-133.779" font-family="Helvetica,sans-Serif" font-size="10.00">Map::updateAllNodes</text>
</a>
</g>
</g>
<!-- Node3&#45;&gt;Node7 -->
<g id="edge6" class="edge"><title>Node3&#45;&gt;Node7</title>
<path fill="none" stroke="midnightblue" d="M216.349,-122.222C228.292,-123.781 241.88,-125.556 255.285,-127.306"/>
<polygon fill="midnightblue" stroke="midnightblue" points="255.101,-130.812 265.47,-128.636 256.007,-123.871 255.101,-130.812"/>
</g>
<!-- Node6 -->
<g id="node6" class="node"><title>Node6</title>
<g id="a_node6"><a xlink:href="classTerrainGenerator.html#ac94cfaeb9dc89453018399361da5174a" target="_top" xlink:title="TerrainGenerator::loadTerrain\lDataFromJSON">
<polygon fill="none" stroke="black" points="437,-39.2794 437,-69.2794 592,-69.2794 592,-39.2794 437,-39.2794"/>
<text text-anchor="start" x="445" y="-57.2794" font-family="Helvetica,sans-Serif" font-size="10.00">TerrainGenerator::loadTerrain</text>
<text text-anchor="middle" x="514.5" y="-46.2794" font-family="Helvetica,sans-Serif" font-size="10.00">DataFromJSON</text>
</a>
</g>
</g>
<!-- Node5&#45;&gt;Node6 -->
<g id="edge5" class="edge"><title>Node5&#45;&gt;Node6</title>
<path fill="none" stroke="midnightblue" d="M398.224,-54.2794C407.543,-54.2794 417.161,-54.2794 426.684,-54.2794"/>
<polygon fill="midnightblue" stroke="midnightblue" points="426.96,-57.7795 436.96,-54.2794 426.96,-50.7795 426.96,-57.7795"/>
</g>
<!-- Node8 -->
<g id="node8" class="node"><title>Node8</title>
<g id="a_node8"><a xlink:href="classMap.html#a59d21f2688713fbcfe320eb1b24405ca" target="_top" xlink:title="Update mapNode and its adjacent tiles Updates mapNode height information, draws slopes for adjacent t...">
<polygon fill="none" stroke="black" points="434,-107.779 434,-126.779 595,-126.779 595,-107.779 434,-107.779"/>
<text text-anchor="middle" x="514.5" y="-114.779" font-family="Helvetica,sans-Serif" font-size="10.00">Map::updateNeighborsOfNode</text>
</a>
</g>
</g>
<!-- Node7&#45;&gt;Node8 -->
<g id="edge7" class="edge"><title>Node7&#45;&gt;Node8</title>
<path fill="none" stroke="midnightblue" d="M384.555,-130.346C396.97,-129.088 410.349,-127.732 423.625,-126.387"/>
<polygon fill="midnightblue" stroke="midnightblue" points="424.142,-129.852 433.738,-125.362 423.436,-122.888 424.142,-129.852"/>
</g>
<!-- Node9 -->
<g id="node9" class="node"><title>Node9</title>
<g id="a_node9"><a xlink:href="classMap.html#a63f0e5040c86652c7239475f8ff3a45a" target="_top" xlink:title="Get neighbor MapNode Objects Stores pointers to the neighboring nodes of the given coordinates in the...">
<polygon fill="none" stroke="black" points="649,-173.779 649,-192.779 756,-192.779 756,-173.779 649,-173.779"/>
<text text-anchor="middle" x="702.5" y="-180.779" font-family="Helvetica,sans-Serif" font-size="10.00">Map::getNeighbors</text>
</a>
</g>
</g>
<!-- Node8&#45;&gt;Node9 -->
<g id="edge8" class="edge"><title>Node8&#45;&gt;Node9</title>
<path fill="none" stroke="midnightblue" d="M536.914,-126.922C559.878,-137.042 597.558,-153.017 631,-164.279 638.1,-166.671 645.679,-168.97 653.138,-171.093"/>
<polygon fill="midnightblue" stroke="midnightblue" points="652.252,-174.48 662.824,-173.776 654.121,-167.734 652.252,-174.48"/>
</g>
<!-- Node10 -->
<g id="node10" class="node"><title>Node10</title>
<g id="a_node10"><a xlink:href="classMap.html#a0ff55eb041cdf29aa582a21145319ce0" target="_top" xlink:title="Get elevated neighbor positions in a bitmask Checks all neighboring tiles and returns the elevated ne...">
<polygon fill="none" stroke="black" points="631,-124.279 631,-154.279 774,-154.279 774,-124.279 631,-124.279"/>
<text text-anchor="start" x="639" y="-142.279" font-family="Helvetica,sans-Serif" font-size="10.00">Map::getElevatedNeighbor</text>
<text text-anchor="middle" x="702.5" y="-131.279" font-family="Helvetica,sans-Serif" font-size="10.00">Bitmask</text>
</a>
</g>
</g>
<!-- Node8&#45;&gt;Node10 -->
<g id="edge9" class="edge"><title>Node8&#45;&gt;Node10</title>
<path fill="none" stroke="midnightblue" d="M595.19,-126.705C603.602,-127.7 612.162,-128.713 620.588,-129.709"/>
<polygon fill="midnightblue" stroke="midnightblue" points="620.437,-133.216 630.779,-130.915 621.26,-126.264 620.437,-133.216"/>
</g>
<!-- Node11 -->
<g id="node11" class="node"><title>Node11</title>
<g id="a_node11"><a xlink:href="classMap.html#a05e7d896dc5062af07c9b838600a068d" target="_top" xlink:title="Demolish a node Invokes the tiles demolish function. ">
<polygon fill="none" stroke="black" points="810.5,-37.7794 810.5,-56.7794 922.5,-56.7794 922.5,-37.7794 810.5,-37.7794"/>
<text text-anchor="middle" x="866.5" y="-44.7794" font-family="Helvetica,sans-Serif" font-size="10.00">Map::demolishNode</text>
</a>
</g>
</g>
<!-- Node8&#45;&gt;Node11 -->
<g id="edge10" class="edge"><title>Node8&#45;&gt;Node11</title>
<path fill="none" stroke="midnightblue" d="M527.09,-107.766C543.585,-99.1455 574.143,-87.2306 595,-69.2794 616.305,-50.9428 606.102,-30.325 631,-17.2794 701.706,19.7672 801,-11.9283 844.119,-33.0408"/>
<polygon fill="midnightblue" stroke="midnightblue" points="842.648,-36.221 853.133,-37.7443 845.886,-30.0151 842.648,-36.221"/>
</g>
<!-- Node12 -->
<g id="node12" class="node"><title>Node12</title>
<g id="a_node12"><a xlink:href="classMap.html#a392940f84796653b8e811ed8dc296c84" target="_top" xlink:title="Get a bitmask that represents same&#45;tile neighbors Checks all neighboring tiles and returns the elevat...">
<polygon fill="none" stroke="black" points="634,-36.2794 634,-66.2794 771,-66.2794 771,-36.2794 634,-36.2794"/>
<text text-anchor="start" x="642" y="-54.2794" font-family="Helvetica,sans-Serif" font-size="10.00">Map::getNeighboringTiles</text>
<text text-anchor="middle" x="702.5" y="-43.2794" font-family="Helvetica,sans-Serif" font-size="10.00">Bitmask</text>
</a>
</g>
</g>
<!-- Node8&#45;&gt;Node12 -->
<g id="edge12" class="edge"><title>Node8&#45;&gt;Node12</title>
<path fill="none" stroke="midnightblue" d="M542.57,-107.667C565.976,-99.3568 600.72,-87.0227 631,-76.2794 636.944,-74.1707 643.169,-71.9623 649.356,-69.7681"/>
<polygon fill="midnightblue" stroke="midnightblue" points="650.745,-72.9892 658.999,-66.348 648.405,-66.3918 650.745,-72.9892"/>
</g>
<!-- Node13 -->
<g id="node13" class="node"><title>Node13</title>
<g id="a_node13"><a xlink:href="classMap.html#aba5154a4d917900679a3c0f7ec701561" target="_top" xlink:title="Increase Height Increases the height of the node and checks the surrounding tiles. Either draw a slope sprite or elevate the tile if necessary. ">
<polygon fill="none" stroke="black" points="645,-211.779 645,-230.779 760,-230.779 760,-211.779 645,-211.779"/>
<text text-anchor="middle" x="702.5" y="-218.779" font-family="Helvetica,sans-Serif" font-size="10.00">Map::increaseHeight</text>
</a>
</g>
</g>
<!-- Node8&#45;&gt;Node13 -->
<g id="edge13" class="edge"><title>Node8&#45;&gt;Node13</title>
<path fill="none" stroke="midnightblue" d="M532.936,-127.03C554.447,-143.457 592.868,-174.914 631,-193.279 645.106,-200.073 662.012,-204.734 675.732,-208.75"/>
<polygon fill="midnightblue" stroke="midnightblue" points="674.918,-212.161 685.504,-211.72 676.954,-205.463 674.918,-212.161"/>
</g>
<!-- Node14 -->
<g id="node14" class="node"><title>Node14</title>
<g id="a_node14"><a xlink:href="classMap.html#afb8cc864df90d273a5074872d635dc40" target="_top" xlink:title="Decrease Height Decreases the height of the node and checks the surrounding tiles. Either draw a slope sprite or lower the tile if necessary. ">
<polygon fill="none" stroke="black" points="643,-85.7794 643,-104.779 762,-104.779 762,-85.7794 643,-85.7794"/>
<text text-anchor="middle" x="702.5" y="-92.7794" font-family="Helvetica,sans-Serif" font-size="10.00">Map::decreaseHeight</text>
</a>
</g>
</g>
<!-- Node8&#45;&gt;Node14 -->
<g id="edge17" class="edge"><title>Node8&#45;&gt;Node14</title>
<path fill="none" stroke="midnightblue" d="M550.485,-107.73C573.635,-103.747 604.77,-99.688 632.755,-96.8689"/>
<polygon fill="midnightblue" stroke="midnightblue" points="633.285,-100.334 642.902,-95.8888 632.612,-93.3665 633.285,-100.334"/>
</g>
<!-- Node11&#45;&gt;Node8 -->
<g id="edge11" class="edge"><title>Node11&#45;&gt;Node8</title>
<path fill="none" stroke="midnightblue" d="M826.44,-37.7115C777.725,-23.3465 693.274,-2.65057 631,-35.2794 606.102,-48.325 616.305,-68.9428 595,-87.2794 588.069,-93.2448 580.066,-98.5437 571.865,-103.051"/>
<polygon fill="midnightblue" stroke="midnightblue" points="570.235,-99.9528 562.928,-107.625 573.425,-106.184 570.235,-99.9528"/>
</g>
<!-- Node13&#45;&gt;Node2 -->
<g id="edge14" class="edge"><title>Node13&#45;&gt;Node2</title>
<path fill="none" stroke="midnightblue" d="M760.16,-227.925C773.029,-229.434 786.802,-231.049 800.005,-232.598"/>
<polygon fill="midnightblue" stroke="midnightblue" points="799.625,-236.077 809.965,-233.766 800.441,-229.125 799.625,-236.077"/>
</g>
<!-- Node13&#45;&gt;Node8 -->
<g id="edge16" class="edge"><title>Node13&#45;&gt;Node8</title>
<path fill="none" stroke="midnightblue" d="M644.64,-216.929C639.945,-215.258 635.34,-213.37 631,-211.279 589.629,-191.354 547.919,-156.019 527.832,-134.456"/>
<polygon fill="midnightblue" stroke="midnightblue" points="530.46,-132.143 521.238,-126.926 525.193,-136.755 530.46,-132.143"/>
</g>
<!-- Node13&#45;&gt;Node11 -->
<g id="edge15" class="edge"><title>Node13&#45;&gt;Node11</title>
<path fill="none" stroke="midnightblue" d="M756.823,-211.772C762.962,-209.303 768.855,-206.194 774,-202.279 820.698,-166.751 848.119,-99.9509 859.418,-66.8686"/>
<polygon fill="midnightblue" stroke="midnightblue" points="862.851,-67.6285 862.636,-57.0358 856.199,-65.4509 862.851,-67.6285"/>
</g>
<!-- Node14&#45;&gt;Node8 -->
<g id="edge19" class="edge"><title>Node14&#45;&gt;Node8</title>
<path fill="none" stroke="midnightblue" d="M666.8,-104.78C649.278,-107.802 627.128,-110.872 605.221,-113.413"/>
<polygon fill="midnightblue" stroke="midnightblue" points="604.736,-109.946 595.19,-114.542 605.519,-116.902 604.736,-109.946"/>
</g>
<!-- Node14&#45;&gt;Node11 -->
<g id="edge18" class="edge"><title>Node14&#45;&gt;Node11</title>
<path fill="none" stroke="midnightblue" d="M737.606,-85.7562C749.174,-82.4857 762.163,-78.7692 774,-75.2794 790.601,-70.3853 808.843,-64.8374 824.642,-59.9784"/>
<polygon fill="midnightblue" stroke="midnightblue" points="826.105,-63.19 834.63,-56.8986 824.042,-56.5008 826.105,-63.19"/>
</g>
</g>
</svg>
