<?xml version="1.0" encoding="UTF-8" standalone="no"?>
<!DOCTYPE svg PUBLIC "-//W3C//DTD SVG 1.1//EN"
 "http://www.w3.org/Graphics/SVG/1.1/DTD/svg11.dtd">
<!-- Generated by graphviz version 2.38.0 (20140413.2041)
 -->
<!-- Title: Tooltip Pages: 1 -->
<!--zoomable 1276 -->
<svg id="main" version="1.1" xmlns="http://www.w3.org/2000/svg" xmlns:xlink="http://www.w3.org/1999/xlink" xml:space="preserve" onload="init(evt)">
<style type="text/css"><![CDATA[
.edge:hover path { stroke: red; }
.edge:hover polygon { stroke: red; fill: red; }
]]></style>
<script type="text/javascript"><![CDATA[
var edges = document.getElementsByTagName('g');
if (edges && edges.length) {
  for (var i=0;i<edges.length;i++) {
    if (edges[i].id.substr(0,4)=='edge') {
      edges[i].setAttribute('class','edge');
    }
  }
}
]]></script>
        <defs>
                <circle id="rim" cx="0" cy="0" r="7"/>
                <circle id="rim2" cx="0" cy="0" r="3.5"/>
                <g id="zoomPlus">
                        <use xlink:href="#rim" fill="#404040">
                                <set attributeName="fill" to="#808080" begin="zoomplus.mouseover" end="zoomplus.mouseout"/>
                        </use>
                        <path d="M-4,0h8M0,-4v8" fill="none" stroke="white" stroke-width="1.5" pointer-events="none"/>
                </g>
                <g id="zoomMin">
                        <use xlink:href="#rim" fill="#404040">
                                <set attributeName="fill" to="#808080" begin="zoomminus.mouseover" end="zoomminus.mouseout"/>
                        </use>
                        <path d="M-4,0h8" fill="none" stroke="white" stroke-width="1.5" pointer-events="none"/>
                </g>
                <g id="dirArrow">
                        <path fill="none" stroke="white" stroke-width="1.5" d="M0,-3.0v7 M-2.5,-0.5L0,-3.0L2.5,-0.5"/>
                </g>
               <g id="resetDef">
                       <use xlink:href="#rim2" fill="#404040">
                               <set attributeName="fill" to="#808080" begin="reset.mouseover" end="reset.mouseout"/>
                       </use>
               </g>
        </defs>

<script type="text/javascript">
var viewWidth = 563;
var viewHeight = 1276;
var sectionId = 'dynsection-1';
</script>
<script xlink:href="svgpan.js"/>
<svg id="graph" class="graph">
<g id="viewport">
<title>Tooltip</title>
<!-- Node1 -->
<g id="node1" class="node"><title>Node1</title>
<polygon fill="#bfbfbf" stroke="black" points="213,-0.5 213,-112.5 302,-112.5 302,-0.5 213,-0.5"/>
<text text-anchor="middle" x="257.5" y="-100.5" font-family="Helvetica,sans-Serif" font-size="10.00">Tooltip</text>
<polyline fill="none" stroke="black" points="213,-93.5 302,-93.5 "/>
<text text-anchor="start" x="221" y="-81.5" font-family="Helvetica,sans-Serif" font-size="10.00">&#45; m_active</text>
<polyline fill="none" stroke="black" points="213,-74.5 302,-74.5 "/>
<text text-anchor="start" x="221" y="-62.5" font-family="Helvetica,sans-Serif" font-size="10.00">+ Tooltip()</text>
<text text-anchor="start" x="221" y="-51.5" font-family="Helvetica,sans-Serif" font-size="10.00">+ ~Tooltip()</text>
<text text-anchor="start" x="221" y="-40.5" font-family="Helvetica,sans-Serif" font-size="10.00">+ draw()</text>
<text text-anchor="start" x="221" y="-29.5" font-family="Helvetica,sans-Serif" font-size="10.00">+ startTimer()</text>
<text text-anchor="start" x="221" y="-18.5" font-family="Helvetica,sans-Serif" font-size="10.00">+ showTooltip()</text>
<text text-anchor="start" x="221" y="-7.5" font-family="Helvetica,sans-Serif" font-size="10.00">+ reset()</text>
</g>
<!-- Node2 -->
<g id="node2" class="node"><title>Node2</title>
<g id="a_node2"><a xlink:href="classText.html" target="_top" xlink:title="{Text\n|&#45; m_fontSize\l|+ Text()\l+ ~Text()\l+ draw()\l+ setText()\l+ setFontSize()\l+ getFontSize()\l&#45; createTextTexture()\l}">
<polygon fill="none" stroke="black" points="0,-248.5 0,-371.5 115,-371.5 115,-248.5 0,-248.5"/>
<text text-anchor="middle" x="57.5" y="-359.5" font-family="Helvetica,sans-Serif" font-size="10.00">Text</text>
<polyline fill="none" stroke="black" points="0,-352.5 115,-352.5 "/>
<text text-anchor="start" x="8" y="-340.5" font-family="Helvetica,sans-Serif" font-size="10.00">&#45; m_fontSize</text>
<polyline fill="none" stroke="black" points="0,-333.5 115,-333.5 "/>
<text text-anchor="start" x="8" y="-321.5" font-family="Helvetica,sans-Serif" font-size="10.00">+ Text()</text>
<text text-anchor="start" x="8" y="-310.5" font-family="Helvetica,sans-Serif" font-size="10.00">+ ~Text()</text>
<text text-anchor="start" x="8" y="-299.5" font-family="Helvetica,sans-Serif" font-size="10.00">+ draw()</text>
<text text-anchor="start" x="8" y="-288.5" font-family="Helvetica,sans-Serif" font-size="10.00">+ setText()</text>
<text text-anchor="start" x="8" y="-277.5" font-family="Helvetica,sans-Serif" font-size="10.00">+ setFontSize()</text>
<text text-anchor="start" x="8" y="-266.5" font-family="Helvetica,sans-Serif" font-size="10.00">+ getFontSize()</text>
<text text-anchor="start" x="8" y="-255.5" font-family="Helvetica,sans-Serif" font-size="10.00">&#45; createTextTexture()</text>
</a>
</g>
</g>
<!-- Node2&#45;&gt;Node1 -->
<g id="edge1" class="edge"><title>Node2&#45;&gt;Node1</title>
<path fill="none" stroke="midnightblue" d="M80.2142,-238.724C90.8028,-212.396 105.175,-183.255 123.5,-160 148.064,-128.828 184.166,-101.939 212.709,-83.5313"/>
<polygon fill="none" stroke="midnightblue" points="76.8597,-237.693 76.484,-248.281 83.3806,-240.238 76.8597,-237.693"/>
</g>
<!-- Node3 -->
<g id="node3" class="node"><title>Node3</title>
<g id="a_node3"><a xlink:href="classUIElement.html" target="_top" xlink:title="Base class for UI Elements Provides functions and variables for derived user interface elements...">
<polygon fill="none" stroke="black" points="58.5,-507.5 58.5,-806.5 210.5,-806.5 210.5,-507.5 58.5,-507.5"/>
<text text-anchor="middle" x="134.5" y="-794.5" font-family="Helvetica,sans-Serif" font-size="10.00">UIElement</text>
<polyline fill="none" stroke="black" points="58.5,-787.5 210.5,-787.5 "/>
<text text-anchor="start" x="66.5" y="-775.5" font-family="Helvetica,sans-Serif" font-size="10.00"># m_texture</text>
<text text-anchor="start" x="66.5" y="-764.5" font-family="Helvetica,sans-Serif" font-size="10.00"># m_uiElementRect</text>
<text text-anchor="start" x="66.5" y="-753.5" font-family="Helvetica,sans-Serif" font-size="10.00">&#45; m_renderer</text>
<text text-anchor="start" x="66.5" y="-742.5" font-family="Helvetica,sans-Serif" font-size="10.00">&#45; m_window</text>
<text text-anchor="start" x="66.5" y="-731.5" font-family="Helvetica,sans-Serif" font-size="10.00">&#45; m_buttonState</text>
<text text-anchor="start" x="66.5" y="-720.5" font-family="Helvetica,sans-Serif" font-size="10.00">&#45; m_visible</text>
<polyline fill="none" stroke="black" points="58.5,-713.5 210.5,-713.5 "/>
<text text-anchor="start" x="66.5" y="-701.5" font-family="Helvetica,sans-Serif" font-size="10.00">+ UIElement()</text>
<text text-anchor="start" x="66.5" y="-690.5" font-family="Helvetica,sans-Serif" font-size="10.00">+ UIElement()</text>
<text text-anchor="start" x="66.5" y="-679.5" font-family="Helvetica,sans-Serif" font-size="10.00">+ ~UIElement()</text>
<text text-anchor="start" x="66.5" y="-668.5" font-family="Helvetica,sans-Serif" font-size="10.00">+ registerCallbackFunction()</text>
<text text-anchor="start" x="66.5" y="-657.5" font-family="Helvetica,sans-Serif" font-size="10.00">+ registerCallbackFunction()</text>
<text text-anchor="start" x="66.5" y="-646.5" font-family="Helvetica,sans-Serif" font-size="10.00">+ registerCallbackFunction()</text>
<text text-anchor="start" x="66.5" y="-635.5" font-family="Helvetica,sans-Serif" font-size="10.00">+ onMouseButtonUp()</text>
<text text-anchor="start" x="66.5" y="-624.5" font-family="Helvetica,sans-Serif" font-size="10.00">+ onMouseButtonDown()</text>
<text text-anchor="start" x="66.5" y="-613.5" font-family="Helvetica,sans-Serif" font-size="10.00">+ onMouseEnter()</text>
<text text-anchor="start" x="66.5" y="-602.5" font-family="Helvetica,sans-Serif" font-size="10.00">+ onMouseLeave()</text>
<text text-anchor="start" x="66.5" y="-591.5" font-family="Helvetica,sans-Serif" font-size="10.00">and 23 more...</text>
<text text-anchor="start" x="66.5" y="-580.5" font-family="Helvetica,sans-Serif" font-size="10.00"># renderTexture()</text>
<text text-anchor="start" x="66.5" y="-569.5" font-family="Helvetica,sans-Serif" font-size="10.00"># drawSolidRect()</text>
<text text-anchor="start" x="66.5" y="-558.5" font-family="Helvetica,sans-Serif" font-size="10.00"># drawLine()</text>
<text text-anchor="start" x="66.5" y="-547.5" font-family="Helvetica,sans-Serif" font-size="10.00"># drawTextFrame()</text>
<text text-anchor="start" x="66.5" y="-536.5" font-family="Helvetica,sans-Serif" font-size="10.00"># drawButtonFrame()</text>
<text text-anchor="start" x="66.5" y="-525.5" font-family="Helvetica,sans-Serif" font-size="10.00"># drawFrame()</text>
<text text-anchor="start" x="66.5" y="-514.5" font-family="Helvetica,sans-Serif" font-size="10.00"># changeTexture()</text>
</a>
</g>
</g>
<!-- Node3&#45;&gt;Node2 -->
<g id="edge2" class="edge"><title>Node3&#45;&gt;Node2</title>
<path fill="none" stroke="midnightblue" d="M99.147,-497.6C89.1482,-452.8 78.8645,-406.724 71.0176,-371.566"/>
<polygon fill="none" stroke="midnightblue" points="95.748,-498.439 101.342,-507.436 102.58,-496.914 95.748,-498.439"/>
</g>
<!-- Node4 -->
<g id="node4" class="node"><title>Node4</title>
<g id="a_node4"><a xlink:href="structUIElement_1_1ElementData.html" target="_top" xlink:title="{UIElement::ElementData\n|+ elementID\l+ text\l+ tooltipText\l+ actionID\l+ actionParameter\l+ textureID\l+ buildMenuID\l+ layoutGroupName\l+ isToggleButton\l|}">
<polygon fill="none" stroke="black" points="133,-237.5 133,-382.5 268,-382.5 268,-237.5 133,-237.5"/>
<text text-anchor="middle" x="200.5" y="-370.5" font-family="Helvetica,sans-Serif" font-size="10.00">UIElement::ElementData</text>
<polyline fill="none" stroke="black" points="133,-363.5 268,-363.5 "/>
<text text-anchor="start" x="141" y="-351.5" font-family="Helvetica,sans-Serif" font-size="10.00">+ elementID</text>
<text text-anchor="start" x="141" y="-340.5" font-family="Helvetica,sans-Serif" font-size="10.00">+ text</text>
<text text-anchor="start" x="141" y="-329.5" font-family="Helvetica,sans-Serif" font-size="10.00">+ tooltipText</text>
<text text-anchor="start" x="141" y="-318.5" font-family="Helvetica,sans-Serif" font-size="10.00">+ actionID</text>
<text text-anchor="start" x="141" y="-307.5" font-family="Helvetica,sans-Serif" font-size="10.00">+ actionParameter</text>
<text text-anchor="start" x="141" y="-296.5" font-family="Helvetica,sans-Serif" font-size="10.00">+ textureID</text>
<text text-anchor="start" x="141" y="-285.5" font-family="Helvetica,sans-Serif" font-size="10.00">+ buildMenuID</text>
<text text-anchor="start" x="141" y="-274.5" font-family="Helvetica,sans-Serif" font-size="10.00">+ layoutGroupName</text>
<text text-anchor="start" x="141" y="-263.5" font-family="Helvetica,sans-Serif" font-size="10.00">+ isToggleButton</text>
<polyline fill="none" stroke="black" points="133,-256.5 268,-256.5 "/>
<text text-anchor="middle" x="200.5" y="-244.5" font-family="Helvetica,sans-Serif" font-size="10.00"> </text>
</a>
</g>
</g>
<!-- Node3&#45;&gt;Node4 -->
<g id="edge4" class="edge"><title>Node3&#45;&gt;Node4</title>
<path fill="none" stroke="#404040" d="M127.253,-507.454C128.222,-497.444 129.605,-487.55 131.5,-478 137.137,-449.595 147.681,-419.961 158.859,-393.677"/>
<polygon fill="none" stroke="#404040" points="158.88,-393.631 157.612,-386.532 163.677,-382.631 164.945,-389.73 158.88,-393.631"/>
<text text-anchor="middle" x="153" y="-481" font-family="Helvetica,sans-Serif" font-size="10.00"> +parent</text>
</g>
<!-- Node4&#45;&gt;Node3 -->
<g id="edge3" class="edge"><title>Node4&#45;&gt;Node3</title>
<path fill="none" stroke="#404040" d="M193.853,-382.8C190.267,-415.376 185.185,-454.296 178.5,-489 178.082,-491.169 177.652,-493.351 177.21,-495.545"/>
<polygon fill="none" stroke="#404040" points="177.196,-495.616 179.887,-502.306 174.747,-507.364 172.056,-500.674 177.196,-495.616"/>
<text text-anchor="middle" x="218" y="-481" font-family="Helvetica,sans-Serif" font-size="10.00"> #elementData</text>
</g>
<!-- Node5 -->
<g id="node5" class="node"><title>Node5</title>
<g id="a_node5"><a xlink:href="classTimer.html" target="_top" xlink:title="{Timer\n|&#45; m_loopTimer\l&#45; m_timeOut\l&#45; m_isActive\l&#45; m_timeUntilTimeOut\l&#45; m_timeSinceLastTimeOut\l&#45; m_elapsedTime\l&#45; m_startTime\l&#45; m_endTime\l&#45; m_lastTimeOutTime\l|+ Timer()\l+ ~Timer()\l+ getElapsedTime()\l+ getElapsedTimeSinceLastTimeOut()\l+ start()\l+ stop()\l+ pause()\l+ resume()\l+ isActive()\l+ isTimedOut()\l+ setTimer()\l+ registerCallbackFunction()\l+ loopTimer()\l+ checkTimeout()\l&#45; timeOut()\l}">
<polygon fill="none" stroke="black" points="286,-160.5 286,-459.5 485,-459.5 485,-160.5 286,-160.5"/>
<text text-anchor="middle" x="385.5" y="-447.5" font-family="Helvetica,sans-Serif" font-size="10.00">Timer</text>
<polyline fill="none" stroke="black" points="286,-440.5 485,-440.5 "/>
<text text-anchor="start" x="294" y="-428.5" font-family="Helvetica,sans-Serif" font-size="10.00">&#45; m_loopTimer</text>
<text text-anchor="start" x="294" y="-417.5" font-family="Helvetica,sans-Serif" font-size="10.00">&#45; m_timeOut</text>
<text text-anchor="start" x="294" y="-406.5" font-family="Helvetica,sans-Serif" font-size="10.00">&#45; m_isActive</text>
<text text-anchor="start" x="294" y="-395.5" font-family="Helvetica,sans-Serif" font-size="10.00">&#45; m_timeUntilTimeOut</text>
<text text-anchor="start" x="294" y="-384.5" font-family="Helvetica,sans-Serif" font-size="10.00">&#45; m_timeSinceLastTimeOut</text>
<text text-anchor="start" x="294" y="-373.5" font-family="Helvetica,sans-Serif" font-size="10.00">&#45; m_elapsedTime</text>
<text text-anchor="start" x="294" y="-362.5" font-family="Helvetica,sans-Serif" font-size="10.00">&#45; m_startTime</text>
<text text-anchor="start" x="294" y="-351.5" font-family="Helvetica,sans-Serif" font-size="10.00">&#45; m_endTime</text>
<text text-anchor="start" x="294" y="-340.5" font-family="Helvetica,sans-Serif" font-size="10.00">&#45; m_lastTimeOutTime</text>
<polyline fill="none" stroke="black" points="286,-333.5 485,-333.5 "/>
<text text-anchor="start" x="294" y="-321.5" font-family="Helvetica,sans-Serif" font-size="10.00">+ Timer()</text>
<text text-anchor="start" x="294" y="-310.5" font-family="Helvetica,sans-Serif" font-size="10.00">+ ~Timer()</text>
<text text-anchor="start" x="294" y="-299.5" font-family="Helvetica,sans-Serif" font-size="10.00">+ getElapsedTime()</text>
<text text-anchor="start" x="294" y="-288.5" font-family="Helvetica,sans-Serif" font-size="10.00">+ getElapsedTimeSinceLastTimeOut()</text>
<text text-anchor="start" x="294" y="-277.5" font-family="Helvetica,sans-Serif" font-size="10.00">+ start()</text>
<text text-anchor="start" x="294" y="-266.5" font-family="Helvetica,sans-Serif" font-size="10.00">+ stop()</text>
<text text-anchor="start" x="294" y="-255.5" font-family="Helvetica,sans-Serif" font-size="10.00">+ pause()</text>
<text text-anchor="start" x="294" y="-244.5" font-family="Helvetica,sans-Serif" font-size="10.00">+ resume()</text>
<text text-anchor="start" x="294" y="-233.5" font-family="Helvetica,sans-Serif" font-size="10.00">+ isActive()</text>
<text text-anchor="start" x="294" y="-222.5" font-family="Helvetica,sans-Serif" font-size="10.00">+ isTimedOut()</text>
<text text-anchor="start" x="294" y="-211.5" font-family="Helvetica,sans-Serif" font-size="10.00">+ setTimer()</text>
<text text-anchor="start" x="294" y="-200.5" font-family="Helvetica,sans-Serif" font-size="10.00">+ registerCallbackFunction()</text>
<text text-anchor="start" x="294" y="-189.5" font-family="Helvetica,sans-Serif" font-size="10.00">+ loopTimer()</text>
<text text-anchor="start" x="294" y="-178.5" font-family="Helvetica,sans-Serif" font-size="10.00">+ checkTimeout()</text>
<text text-anchor="start" x="294" y="-167.5" font-family="Helvetica,sans-Serif" font-size="10.00">&#45; timeOut()</text>
</a>
</g>
</g>
<!-- Node5&#45;&gt;Node1 -->
<g id="edge5" class="edge"><title>Node5&#45;&gt;Node1</title>
<path fill="none" stroke="#404040" d="M309.747,-160.157C303.243,-147.378 296.907,-134.928 291.019,-123.36"/>
<polygon fill="none" stroke="#404040" points="290.964,-123.252 284.678,-119.719 285.521,-112.557 291.808,-116.09 290.964,-123.252"/>
<text text-anchor="middle" x="339" y="-134" font-family="Helvetica,sans-Serif" font-size="10.00"> &#45;m_tooltipTimer</text>
</g>
<!-- Node6 -->
<g id="node6" class="node"><title>Node6</title>
<g id="a_node6"><a xlink:href="structSignal_1_1Signal.html" target="_top" xlink:title="{Signal::Signal\&lt; void()\&gt;\n||+ Signal()\l}">
<polygon fill="none" stroke="black" points="321.5,-628.5 321.5,-685.5 449.5,-685.5 449.5,-628.5 321.5,-628.5"/>
<text text-anchor="middle" x="385.5" y="-673.5" font-family="Helvetica,sans-Serif" font-size="10.00">Signal::Signal&lt; void()&gt;</text>
<polyline fill="none" stroke="black" points="321.5,-666.5 449.5,-666.5 "/>
<text text-anchor="middle" x="385.5" y="-654.5" font-family="Helvetica,sans-Serif" font-size="10.00"> </text>
<polyline fill="none" stroke="black" points="321.5,-647.5 449.5,-647.5 "/>
<text text-anchor="start" x="329.5" y="-635.5" font-family="Helvetica,sans-Serif" font-size="10.00">+ Signal()</text>
</a>
</g>
</g>
<!-- Node6&#45;&gt;Node5 -->
<g id="edge6" class="edge"><title>Node6&#45;&gt;Node5</title>
<path fill="none" stroke="#404040" d="M385.5,-628.35C385.5,-593.87 385.5,-532.139 385.5,-472.229"/>
<polygon fill="none" stroke="#404040" points="385.5,-471.882 381.5,-465.882 385.5,-459.882 389.5,-465.882 385.5,-471.882"/>
<text text-anchor="middle" x="431" y="-481" font-family="Helvetica,sans-Serif" font-size="10.00"> &#45;m_timeOutSignal</text>
</g>
<!-- Node7 -->
<g id="node7" class="node"><title>Node7</title>
<g id="a_node7"><a xlink:href="classSignal_1_1Lib_1_1ProtoSignal.html" target="_top" xlink:title="{Signal::Lib::ProtoSignal\l\&lt; void(), Lib::CollectorDefault\l\&lt; typename std::function\&lt; void\l() \&gt;::result_type \&gt; \&gt;\n||}">
<polygon fill="none" stroke="black" points="234.5,-941.5 234.5,-1031.5 404.5,-1031.5 404.5,-941.5 234.5,-941.5"/>
<text text-anchor="start" x="242.5" y="-1019.5" font-family="Helvetica,sans-Serif" font-size="10.00">Signal::Lib::ProtoSignal</text>
<text text-anchor="start" x="242.5" y="-1008.5" font-family="Helvetica,sans-Serif" font-size="10.00">&lt; void(), Lib::CollectorDefault</text>
<text text-anchor="start" x="242.5" y="-997.5" font-family="Helvetica,sans-Serif" font-size="10.00">&lt; typename std::function&lt; void</text>
<text text-anchor="middle" x="319.5" y="-986.5" font-family="Helvetica,sans-Serif" font-size="10.00">() &gt;::result_type &gt; &gt;</text>
<polyline fill="none" stroke="black" points="234.5,-979.5 404.5,-979.5 "/>
<text text-anchor="middle" x="319.5" y="-967.5" font-family="Helvetica,sans-Serif" font-size="10.00"> </text>
<polyline fill="none" stroke="black" points="234.5,-960.5 404.5,-960.5 "/>
<text text-anchor="middle" x="319.5" y="-948.5" font-family="Helvetica,sans-Serif" font-size="10.00"> </text>
</a>
</g>
</g>
<!-- Node7&#45;&gt;Node6 -->
<g id="edge7" class="edge"><title>Node7&#45;&gt;Node6</title>
<path fill="none" stroke="midnightblue" d="M330.425,-931.291C344.657,-860.669 369.007,-739.84 379.921,-685.682"/>
<polygon fill="none" stroke="midnightblue" points="326.946,-930.838 328.401,-941.332 333.808,-932.22 326.946,-930.838"/>
</g>
<!-- Node8 -->
<g id="node8" class="node"><title>Node8</title>
<g id="a_node8"><a xlink:href="classSignal_1_1Lib_1_1ProtoSignal.html" target="_top" xlink:title="ProtoSignal is the template implementation for callback list. ">
<polygon fill="none" stroke="black" points="322,-1199.5 322,-1267.5 465,-1267.5 465,-1199.5 322,-1199.5"/>
<text text-anchor="start" x="330" y="-1255.5" font-family="Helvetica,sans-Serif" font-size="10.00">Signal::Lib::ProtoSignal</text>
<text text-anchor="middle" x="393.5" y="-1244.5" font-family="Helvetica,sans-Serif" font-size="10.00">&lt; typename, typename &gt;</text>
<polyline fill="none" stroke="black" points="322,-1237.5 465,-1237.5 "/>
<text text-anchor="middle" x="393.5" y="-1225.5" font-family="Helvetica,sans-Serif" font-size="10.00"> </text>
<polyline fill="none" stroke="black" points="322,-1218.5 465,-1218.5 "/>
<text text-anchor="middle" x="393.5" y="-1206.5" font-family="Helvetica,sans-Serif" font-size="10.00"> </text>
</a>
</g>
</g>
<!-- Node8&#45;&gt;Node7 -->
<g id="edge8" class="edge"><title>Node8&#45;&gt;Node7</title>
<path fill="none" stroke="orange" d="M322.903,-1191.86C320.082,-1188.48 317.576,-1184.86 315.5,-1181 290.664,-1134.84 297.582,-1073.08 306.777,-1031.88"/>
<polygon fill="orange" stroke="orange" points="320.582,-1194.5 330.007,-1199.34 325.657,-1189.68 320.582,-1194.5"/>
<text text-anchor="start" x="315.5" y="-1173" font-family="Helvetica,sans-Serif" font-size="10.00"> &lt; void(), Lib::Collector</text>
<text text-anchor="start" x="315.5" y="-1162" font-family="Helvetica,sans-Serif" font-size="10.00">Default&lt; typename std</text>
<text text-anchor="start" x="315.5" y="-1151" font-family="Helvetica,sans-Serif" font-size="10.00">::function&lt; void() &gt;::result</text>
<text text-anchor="middle" x="379" y="-1140" font-family="Helvetica,sans-Serif" font-size="10.00">_type &gt; &gt;</text>
</g>
<!-- Node10 -->
<g id="node10" class="node"><title>Node10</title>
<g id="a_node10"><a xlink:href="classSignal_1_1Lib_1_1ProtoSignal.html" target="_top" xlink:title="{Signal::Lib::ProtoSignal\l\&lt; SignalSignature, Collector \&gt;\n||}">
<polygon fill="none" stroke="black" points="385,-1050.5 385,-1118.5 548,-1118.5 548,-1050.5 385,-1050.5"/>
<text text-anchor="start" x="393" y="-1106.5" font-family="Helvetica,sans-Serif" font-size="10.00">Signal::Lib::ProtoSignal</text>
<text text-anchor="middle" x="466.5" y="-1095.5" font-family="Helvetica,sans-Serif" font-size="10.00">&lt; SignalSignature, Collector &gt;</text>
<polyline fill="none" stroke="black" points="385,-1088.5 548,-1088.5 "/>
<text text-anchor="middle" x="466.5" y="-1076.5" font-family="Helvetica,sans-Serif" font-size="10.00"> </text>
<polyline fill="none" stroke="black" points="385,-1069.5 548,-1069.5 "/>
<text text-anchor="middle" x="466.5" y="-1057.5" font-family="Helvetica,sans-Serif" font-size="10.00"> </text>
</a>
</g>
</g>
<!-- Node8&#45;&gt;Node10 -->
<g id="edge11" class="edge"><title>Node8&#45;&gt;Node10</title>
<path fill="none" stroke="orange" d="M439.527,-1191.67C442.117,-1188.24 444.482,-1184.67 446.5,-1181 457.036,-1161.86 462.032,-1137.76 464.396,-1118.56"/>
<polygon fill="orange" stroke="orange" points="436.791,-1189.49 433.133,-1199.43 442.193,-1193.94 436.791,-1189.49"/>
<text text-anchor="start" x="460.5" y="-1162" font-family="Helvetica,sans-Serif" font-size="10.00"> &lt; SignalSignature,</text>
<text text-anchor="middle" x="507.5" y="-1151" font-family="Helvetica,sans-Serif" font-size="10.00"> Collector &gt;</text>
</g>
<!-- Node9 -->
<g id="node9" class="node"><title>Node9</title>
<g id="a_node9"><a xlink:href="structSignal_1_1Signal.html" target="_top" xlink:title="Signal is a template type providing an interface for arbitrary callback lists. A signal type needs to...">
<polygon fill="none" stroke="black" points="375,-854.5 375,-922.5 546,-922.5 546,-854.5 375,-854.5"/>
<text text-anchor="start" x="383" y="-910.5" font-family="Helvetica,sans-Serif" font-size="10.00">Signal::Signal&lt; SignalSignature,</text>
<text text-anchor="middle" x="460.5" y="-899.5" font-family="Helvetica,sans-Serif" font-size="10.00"> Collector &gt;</text>
<polyline fill="none" stroke="black" points="375,-892.5 546,-892.5 "/>
<text text-anchor="middle" x="460.5" y="-880.5" font-family="Helvetica,sans-Serif" font-size="10.00"> </text>
<polyline fill="none" stroke="black" points="375,-873.5 546,-873.5 "/>
<text text-anchor="start" x="383" y="-861.5" font-family="Helvetica,sans-Serif" font-size="10.00">+ Signal()</text>
</a>
</g>
</g>
<!-- Node9&#45;&gt;Node6 -->
<g id="edge9" class="edge"><title>Node9&#45;&gt;Node6</title>
<path fill="none" stroke="orange" d="M446.487,-844.62C431.279,-798.083 407.444,-725.148 394.536,-685.649"/>
<polygon fill="orange" stroke="orange" points="443.161,-845.711 449.594,-854.129 449.815,-843.536 443.161,-845.711"/>
<text text-anchor="middle" x="466.5" y="-828" font-family="Helvetica,sans-Serif" font-size="10.00"> &lt; void()&gt;</text>
</g>
<!-- Node10&#45;&gt;Node9 -->
<g id="edge10" class="edge"><title>Node10&#45;&gt;Node9</title>
<path fill="none" stroke="midnightblue" d="M465.157,-1040.08C464.059,-1004.58 462.53,-955.14 461.528,-922.739"/>
<polygon fill="none" stroke="midnightblue" points="461.661,-1040.26 465.469,-1050.15 468.658,-1040.05 461.661,-1040.26"/>
</g>
</g>
</svg>
        <g id="navigator" transform="translate(0 0)" fill="#404254">
                <rect fill="#f2f5e9" fill-opacity="0.5" stroke="#606060" stroke-width=".5" x="0" y="0" width="60" height="60"/>
                <use id="zoomplus" xlink:href="#zoomPlus" x="17" y="9" onmousedown="handleZoom(evt,'in')"/>
                <use id="zoomminus" xlink:href="#zoomMin" x="42" y="9" onmousedown="handleZoom(evt,'out')"/>
                <use id="reset" xlink:href="#resetDef" x="30" y="36" onmousedown="handleReset()"/>
                <g id="arrowUp" xlink:href="#dirArrow" transform="translate(30 24)" onmousedown="handlePan(0,-1)">
                  <use xlink:href="#rim" fill="#404040">
                        <set attributeName="fill" to="#808080" begin="arrowUp.mouseover" end="arrowUp.mouseout"/>
                  </use>
                  <path fill="none" stroke="white" stroke-width="1.5" d="M0,-3.0v7 M-2.5,-0.5L0,-3.0L2.5,-0.5"/>
                </g>
                <g id="arrowRight" xlink:href="#dirArrow" transform="rotate(90) translate(36 -43)" onmousedown="handlePan(1,0)">
                  <use xlink:href="#rim" fill="#404040">
                        <set attributeName="fill" to="#808080" begin="arrowRight.mouseover" end="arrowRight.mouseout"/>
                  </use>
                  <path fill="none" stroke="white" stroke-width="1.5" d="M0,-3.0v7 M-2.5,-0.5L0,-3.0L2.5,-0.5"/>
                </g>
                <g id="arrowDown" xlink:href="#dirArrow" transform="rotate(180) translate(-30 -48)" onmousedown="handlePan(0,1)">
                  <use xlink:href="#rim" fill="#404040">
                        <set attributeName="fill" to="#808080" begin="arrowDown.mouseover" end="arrowDown.mouseout"/>
                  </use>
                  <path fill="none" stroke="white" stroke-width="1.5" d="M0,-3.0v7 M-2.5,-0.5L0,-3.0L2.5,-0.5"/>
                </g>
                <g id="arrowLeft" xlink:href="#dirArrow" transform="rotate(270) translate(-36 17)" onmousedown="handlePan(-1,0)">
                  <use xlink:href="#rim" fill="#404040">
                        <set attributeName="fill" to="#808080" begin="arrowLeft.mouseover" end="arrowLeft.mouseout"/>
                  </use>
                  <path fill="none" stroke="white" stroke-width="1.5" d="M0,-3.0v7 M-2.5,-0.5L0,-3.0L2.5,-0.5"/>
                </g>
        </g>
        <svg viewBox="0 0 15 15" width="100%" height="30px" preserveAspectRatio="xMaxYMin meet">
         <g id="arrow_out" transform="scale(0.3 0.3)">
          <a xlink:href="classTooltip__coll__graph_org.svg" target="_base">
           <rect id="button" ry="5" rx="5" y="6" x="6" height="38" width="38"
                fill="#f2f5e9" fill-opacity="0.5" stroke="#606060" stroke-width="1.0"/>
           <path id="arrow"
             d="M 11.500037,31.436501 C 11.940474,20.09759 22.043105,11.32322 32.158766,21.979434 L 37.068811,17.246167 C 37.068811,17.246167 37.088388,32 37.088388,32 L 22.160133,31.978069 C 22.160133,31.978069 26.997745,27.140456 26.997745,27.140456 C 18.528582,18.264221 13.291696,25.230495 11.500037,31.436501 z"
             style="fill:#404040;"/>
          </a>
         </g>
        </svg>
</svg>
