<?xml version="1.0" encoding="UTF-8" standalone="no"?>
<!DOCTYPE svg PUBLIC "-//W3C//DTD SVG 1.1//EN"
 "http://www.w3.org/Graphics/SVG/1.1/DTD/svg11.dtd">
<!-- Generated by graphviz version 2.38.0 (20140413.2041)
 -->
<!-- Title: Camera::increaseZoomLevel Pages: 1 -->
<svg width="714pt" height="204pt"
 viewBox="0.00 0.00 714.00 203.80" xmlns="http://www.w3.org/2000/svg" xmlns:xlink="http://www.w3.org/1999/xlink">
<g id="graph0" class="graph" transform="scale(1 1) rotate(0) translate(4 199.802)">
<title>Camera::increaseZoomLevel</title>
<!-- Node1 -->
<g id="node1" class="node"><title>Node1</title>
<polygon fill="#bfbfbf" stroke="black" points="0,-44.3021 0,-63.3021 155,-63.3021 155,-44.3021 0,-44.3021"/>
<text text-anchor="middle" x="77.5" y="-51.3021" font-family="Helvetica,sans-Serif" font-size="10.00">Camera::increaseZoomLevel</text>
</g>
<!-- Node2 -->
<g id="node2" class="node"><title>Node2</title>
<g id="a_node2"><a xlink:href="classCamera.html#adfb240823ff20b97b69459490dbd8dc3" target="_top" xlink:title="Centers camera on given isometric coordinates Centers the camera on the given isometric coordinates...">
<polygon fill="none" stroke="black" points="191,-105.302 191,-124.302 354,-124.302 354,-105.302 191,-105.302"/>
<text text-anchor="middle" x="272.5" y="-112.302" font-family="Helvetica,sans-Serif" font-size="10.00">Camera::centerScreenOnPoint</text>
</a>
</g>
</g>
<!-- Node1&#45;&gt;Node2 -->
<g id="edge1" class="edge"><title>Node1&#45;&gt;Node2</title>
<path fill="none" stroke="midnightblue" d="M108.656,-63.3333C141.702,-73.7777 194.864,-90.5804 231.403,-102.129"/>
<polygon fill="midnightblue" stroke="midnightblue" points="230.648,-105.561 241.238,-105.237 232.757,-98.8863 230.648,-105.561"/>
</g>
<!-- Node4 -->
<g id="node4" class="node"><title>Node4</title>
<g id="a_node4"><a xlink:href="classSingleton.html#af5cb1e5749949e2b68416cfb8d378044" target="_top" xlink:title="Get an instance of the singleton. ">
<polygon fill="none" stroke="black" points="593,-123.802 593,-153.802 706,-153.802 706,-123.802 593,-123.802"/>
<text text-anchor="start" x="601" y="-141.802" font-family="Helvetica,sans-Serif" font-size="10.00">Singleton&lt; Settings</text>
<text text-anchor="middle" x="649.5" y="-130.802" font-family="Helvetica,sans-Serif" font-size="10.00"> &gt;::instance</text>
</a>
</g>
</g>
<!-- Node1&#45;&gt;Node4 -->
<g id="edge8" class="edge"><title>Node1&#45;&gt;Node4</title>
<path fill="none" stroke="midnightblue" d="M106.867,-44.2749C183.593,-20.2192 399.997,36.1837 557,-34.8021 592.947,-51.0549 620.396,-89.1823 635.478,-114.477"/>
<polygon fill="midnightblue" stroke="midnightblue" points="632.628,-116.543 640.644,-123.47 638.698,-113.056 632.628,-116.543"/>
</g>
<!-- Node6 -->
<g id="node6" class="node"><title>Node6</title>
<g id="a_node6"><a xlink:href="classMap.html#ab69938ac0e56eb0da1d1701221f3d185" target="_top" xlink:title="Refresh all the map tile textures. ">
<polygon fill="none" stroke="black" points="435,-44.3021 435,-63.3021 512,-63.3021 512,-44.3021 435,-44.3021"/>
<text text-anchor="middle" x="473.5" y="-51.3021" font-family="Helvetica,sans-Serif" font-size="10.00">Map::refresh</text>
</a>
</g>
</g>
<!-- Node1&#45;&gt;Node6 -->
<g id="edge9" class="edge"><title>Node1&#45;&gt;Node6</title>
<path fill="none" stroke="midnightblue" d="M155.402,-53.8021C235.225,-53.8021 357.585,-53.8021 424.573,-53.8021"/>
<polygon fill="midnightblue" stroke="midnightblue" points="424.834,-57.3022 434.834,-53.8021 424.834,-50.3022 424.834,-57.3022"/>
</g>
<!-- Node3 -->
<g id="node3" class="node"><title>Node3</title>
<g id="a_node3"><a xlink:href="isoMath_8cxx.html#abef3481b8248d064e79f9d0b2a27cfe7" target="_top" xlink:title="Check if given coordinates are within map boundaries Checks if coordinates are within map boundaries...">
<polygon fill="none" stroke="black" points="398,-176.302 398,-195.302 549,-195.302 549,-176.302 398,-176.302"/>
<text text-anchor="middle" x="473.5" y="-183.302" font-family="Helvetica,sans-Serif" font-size="10.00">isPointWithinMapBoundaries</text>
</a>
</g>
</g>
<!-- Node2&#45;&gt;Node3 -->
<g id="edge2" class="edge"><title>Node2&#45;&gt;Node3</title>
<path fill="none" stroke="midnightblue" d="M295.582,-124.484C318.828,-134.493 356.613,-150.244 390,-161.802 401.893,-165.919 414.909,-169.93 427.015,-173.457"/>
<polygon fill="midnightblue" stroke="midnightblue" points="426.348,-176.906 436.925,-176.297 428.276,-170.177 426.348,-176.906"/>
</g>
<!-- Node2&#45;&gt;Node4 -->
<g id="edge5" class="edge"><title>Node2&#45;&gt;Node4</title>
<path fill="none" stroke="midnightblue" d="M354.408,-114.312C422.632,-117.117 519.049,-123.416 582.634,-129.304"/>
<polygon fill="midnightblue" stroke="midnightblue" points="582.651,-132.821 592.938,-130.283 583.314,-125.853 582.651,-132.821"/>
</g>
<!-- Node2&#45;&gt;Node4 -->
<g id="edge6" class="edge"><title>Node2&#45;&gt;Node4</title>
<path fill="none" stroke="midnightblue" d="M339.679,-124.329C408.078,-130.653 514.225,-137.445 582.542,-139.866"/>
<polygon fill="midnightblue" stroke="midnightblue" points="582.644,-143.371 592.754,-140.204 582.875,-136.375 582.644,-143.371"/>
</g>
<!-- Node5 -->
<g id="node5" class="node"><title>Node5</title>
<g id="a_node5"><a xlink:href="isoMath_8cxx.html#a229d5dd54cd4e1f43ed5911e4fd266d3" target="_top" xlink:title="converts coordinates from isometric to screen space The given isometric coordinates (which contain he...">
<polygon fill="none" stroke="black" points="390,-82.3021 390,-101.302 557,-101.302 557,-82.3021 390,-82.3021"/>
<text text-anchor="middle" x="473.5" y="-89.3021" font-family="Helvetica,sans-Serif" font-size="10.00">convertIsoToScreenCoordinates</text>
</a>
</g>
</g>
<!-- Node2&#45;&gt;Node5 -->
<g id="edge4" class="edge"><title>Node2&#45;&gt;Node5</title>
<path fill="none" stroke="midnightblue" d="M354.154,-105.48C362.672,-104.496 371.382,-103.489 380.02,-102.491"/>
<polygon fill="midnightblue" stroke="midnightblue" points="380.58,-105.949 390.112,-101.324 379.777,-98.9956 380.58,-105.949"/>
</g>
<!-- Node2&#45;&gt;Node6 -->
<g id="edge7" class="edge"><title>Node2&#45;&gt;Node6</title>
<path fill="none" stroke="midnightblue" d="M297.319,-105.266C320.672,-96.1427 357.412,-82.3916 390,-72.8021 401.233,-69.4967 413.464,-66.4086 424.984,-63.7227"/>
<polygon fill="midnightblue" stroke="midnightblue" points="425.907,-67.102 434.881,-61.4704 424.354,-60.2765 425.907,-67.102"/>
</g>
<!-- Node3&#45;&gt;Node4 -->
<g id="edge3" class="edge"><title>Node3&#45;&gt;Node4</title>
<path fill="none" stroke="midnightblue" d="M509.711,-176.291C530.751,-170.608 558.145,-163.208 583.03,-156.486"/>
<polygon fill="midnightblue" stroke="midnightblue" points="584.046,-159.838 592.787,-153.851 582.221,-153.08 584.046,-159.838"/>
</g>
</g>
</svg>
