<?xml version="1.0" encoding="UTF-8" standalone="no"?>
<!DOCTYPE svg PUBLIC "-//W3C//DTD SVG 1.1//EN"
 "http://www.w3.org/Graphics/SVG/1.1/DTD/svg11.dtd">
<!-- Generated by graphviz version 2.38.0 (20140413.2041)
 -->
<!-- Title: WindowManager::WindowManager Pages: 1 -->
<svg width="560pt" height="95pt"
 viewBox="0.00 0.00 560.00 94.54" xmlns="http://www.w3.org/2000/svg" xmlns:xlink="http://www.w3.org/1999/xlink">
<g id="graph0" class="graph" transform="scale(1 1) rotate(0) translate(4 90.5432)">
<title>WindowManager::WindowManager</title>
<!-- Node1 -->
<g id="node1" class="node"><title>Node1</title>
<polygon fill="#bfbfbf" stroke="black" points="0,-44.5 0,-63.5 177,-63.5 177,-44.5 0,-44.5"/>
<text text-anchor="middle" x="88.5" y="-51.5" font-family="Helvetica,sans-Serif" font-size="10.00">WindowManager::WindowManager</text>
</g>
<!-- Node2 -->
<g id="node2" class="node"><title>Node2</title>
<g id="a_node2"><a xlink:href="classSingleton.html#af5cb1e5749949e2b68416cfb8d378044" target="_top" xlink:title="Get an instance of the singleton. ">
<polygon fill="none" stroke="black" points="439,-39 439,-69 552,-69 552,-39 439,-39"/>
<text text-anchor="start" x="447" y="-57" font-family="Helvetica,sans-Serif" font-size="10.00">Singleton&lt; Settings</text>
<text text-anchor="middle" x="495.5" y="-46" font-family="Helvetica,sans-Serif" font-size="10.00"> &gt;::instance</text>
</a>
</g>
</g>
<!-- Node1&#45;&gt;Node2 -->
<g id="edge1" class="edge"><title>Node1&#45;&gt;Node2</title>
<path fill="none" stroke="midnightblue" d="M126.495,-63.5023C150.877,-69.2644 183.615,-76.0556 213,-79 297.024,-87.419 319.305,-90.2279 403,-79 414.859,-77.4091 427.356,-74.7075 439.175,-71.6538"/>
<polygon fill="midnightblue" stroke="midnightblue" points="440.173,-75.0097 448.914,-69.0226 438.347,-68.252 440.173,-75.0097"/>
</g>
<!-- Node3 -->
<g id="node3" class="node"><title>Node3</title>
<g id="a_node3"><a xlink:href="classWindowManager.html#a5ad60806695b35cb347de8cab4ac93ab" target="_top" xlink:title="WindowManager::initialize\lScreenResolutions">
<polygon fill="none" stroke="black" points="239,-39 239,-69 377,-69 377,-39 239,-39"/>
<text text-anchor="start" x="247" y="-57" font-family="Helvetica,sans-Serif" font-size="10.00">WindowManager::initialize</text>
<text text-anchor="middle" x="308" y="-46" font-family="Helvetica,sans-Serif" font-size="10.00">ScreenResolutions</text>
</a>
</g>
</g>
<!-- Node1&#45;&gt;Node3 -->
<g id="edge2" class="edge"><title>Node1&#45;&gt;Node3</title>
<path fill="none" stroke="midnightblue" d="M177.025,-54C194.035,-54 211.764,-54 228.462,-54"/>
<polygon fill="midnightblue" stroke="midnightblue" points="228.71,-57.5001 238.71,-54 228.71,-50.5001 228.71,-57.5001"/>
</g>
<!-- Node4 -->
<g id="node4" class="node"><title>Node4</title>
<g id="a_node4"><a xlink:href="classWindowManager.html#a5c90941e00dd96547de3fd542f00fabf" target="_top" xlink:title="WindowManager::setFullScreenMode">
<polygon fill="none" stroke="black" points="213,-0.5 213,-19.5 403,-19.5 403,-0.5 213,-0.5"/>
<text text-anchor="middle" x="308" y="-7.5" font-family="Helvetica,sans-Serif" font-size="10.00">WindowManager::setFullScreenMode</text>
</a>
</g>
</g>
<!-- Node1&#45;&gt;Node4 -->
<g id="edge3" class="edge"><title>Node1&#45;&gt;Node4</title>
<path fill="none" stroke="midnightblue" d="M136.694,-44.4527C169.899,-37.7355 214.519,-28.7089 249.757,-21.5802"/>
<polygon fill="midnightblue" stroke="midnightblue" points="250.79,-24.9421 259.898,-19.5287 249.402,-18.0811 250.79,-24.9421"/>
</g>
<!-- Node4&#45;&gt;Node2 -->
<g id="edge4" class="edge"><title>Node4&#45;&gt;Node2</title>
<path fill="none" stroke="midnightblue" d="M355.954,-19.5387C371.013,-22.7187 387.74,-26.3775 403,-30 411.475,-32.0119 420.366,-34.2203 429.136,-36.4575"/>
<polygon fill="midnightblue" stroke="midnightblue" points="428.402,-39.8825 438.959,-38.9866 430.148,-33.1036 428.402,-39.8825"/>
</g>
</g>
</svg>
