<?xml version="1.0" encoding="UTF-8" standalone="no"?>
<!DOCTYPE svg PUBLIC "-//W3C//DTD SVG 1.1//EN"
 "http://www.w3.org/Graphics/SVG/1.1/DTD/svg11.dtd">
<!-- Generated by graphviz version 2.38.0 (20140413.2041)
 -->
<!-- Title: UIManager::changeResolution Pages: 1 -->
<svg width="810pt" height="78pt"
 viewBox="0.00 0.00 810.00 77.50" xmlns="http://www.w3.org/2000/svg" xmlns:xlink="http://www.w3.org/1999/xlink">
<g id="graph0" class="graph" transform="scale(1 1) rotate(0) translate(4 73.5)">
<title>UIManager::changeResolution</title>
<!-- Node1 -->
<g id="node1" class="node"><title>Node1</title>
<polygon fill="#bfbfbf" stroke="black" points="0,-28 0,-47 158,-47 158,-28 0,-28"/>
<text text-anchor="middle" x="79" y="-35" font-family="Helvetica,sans-Serif" font-size="10.00">UIManager::changeResolution</text>
</g>
<!-- Node2 -->
<g id="node2" class="node"><title>Node2</title>
<g id="a_node2"><a xlink:href="classUIManager.html#aa78e356fc3b356d790c848319d1c387e" target="_top" xlink:title="UIManager::setCallbackFunctions">
<polygon fill="none" stroke="black" points="194,-50 194,-69 368,-69 368,-50 194,-50"/>
<text text-anchor="middle" x="281" y="-57" font-family="Helvetica,sans-Serif" font-size="10.00">UIManager::setCallbackFunctions</text>
</a>
</g>
</g>
<!-- Node1&#45;&gt;Node2 -->
<g id="edge1" class="edge"><title>Node1&#45;&gt;Node2</title>
<path fill="none" stroke="midnightblue" d="M168.16,-47.1976C176.717,-48.1388 185.391,-49.093 193.927,-50.0319"/>
<polygon fill="midnightblue" stroke="midnightblue" points="168.507,-43.7148 158.185,-46.1003 167.742,-50.6728 168.507,-43.7148"/>
</g>
<!-- Node7 -->
<g id="node7" class="node"><title>Node7</title>
<g id="a_node7"><a xlink:href="classUIManager.html#a5c4cb8e02504ffa0d3faf45181feab9d" target="_top" xlink:title="Fill UI Widgets whose ID start with a $ with data Used for filling widgets with data, like BuildMenu Position combobox, Screen Resolution ComboBox and so on. ">
<polygon fill="none" stroke="black" points="211,-0.5 211,-30.5 351,-30.5 351,-0.5 211,-0.5"/>
<text text-anchor="start" x="219" y="-18.5" font-family="Helvetica,sans-Serif" font-size="10.00">UIManager::initializeDollar</text>
<text text-anchor="middle" x="281" y="-7.5" font-family="Helvetica,sans-Serif" font-size="10.00">Variables</text>
</a>
</g>
</g>
<!-- Node1&#45;&gt;Node7 -->
<g id="edge6" class="edge"><title>Node1&#45;&gt;Node7</title>
<path fill="none" stroke="midnightblue" d="M168.481,-27.7671C182.721,-26.2007 197.277,-24.5995 210.973,-23.093"/>
<polygon fill="midnightblue" stroke="midnightblue" points="167.742,-24.3272 158.185,-28.8997 168.507,-31.2852 167.742,-24.3272"/>
</g>
<!-- Node3 -->
<g id="node3" class="node"><title>Node3</title>
<g id="a_node3"><a xlink:href="classUIManager.html#aedd9d0577af515a852425dfe414b2968" target="_top" xlink:title="Parses the UiLayout.json files and creates UI Elements. ">
<polygon fill="none" stroke="black" points="404,-28 404,-47 493,-47 493,-28 404,-28"/>
<text text-anchor="middle" x="448.5" y="-35" font-family="Helvetica,sans-Serif" font-size="10.00">UIManager::init</text>
</a>
</g>
</g>
<!-- Node2&#45;&gt;Node3 -->
<g id="edge2" class="edge"><title>Node2&#45;&gt;Node3</title>
<path fill="none" stroke="midnightblue" d="M363.713,-48.6379C377.602,-46.7916 391.53,-44.9401 403.932,-43.2915"/>
<polygon fill="midnightblue" stroke="midnightblue" points="363.08,-45.1912 353.628,-49.9784 364.002,-52.1301 363.08,-45.1912"/>
</g>
<!-- Node4 -->
<g id="node4" class="node"><title>Node4</title>
<g id="a_node4"><a xlink:href="classGame.html#a1c2ab25d5216b2f4b2fe41efd2c09114" target="_top" xlink:title="Game::run">
<polygon fill="none" stroke="black" points="529,-28 529,-47 597,-47 597,-28 529,-28"/>
<text text-anchor="middle" x="563" y="-35" font-family="Helvetica,sans-Serif" font-size="10.00">Game::run</text>
</a>
</g>
</g>
<!-- Node3&#45;&gt;Node4 -->
<g id="edge3" class="edge"><title>Node3&#45;&gt;Node4</title>
<path fill="none" stroke="midnightblue" d="M503.446,-37.5C512.145,-37.5 520.918,-37.5 528.931,-37.5"/>
<polygon fill="midnightblue" stroke="midnightblue" points="503.318,-34.0001 493.318,-37.5 503.318,-41.0001 503.318,-34.0001"/>
</g>
<!-- Node5 -->
<g id="node5" class="node"><title>Node5</title>
<g id="a_node5"><a xlink:href="main_8cxx.html#af582d708d899e67ead623eac34a22387" target="_top" xlink:title="protected_main">
<polygon fill="none" stroke="black" points="633,-28 633,-47 725,-47 725,-28 633,-28"/>
<text text-anchor="middle" x="679" y="-35" font-family="Helvetica,sans-Serif" font-size="10.00">protected_main</text>
</a>
</g>
</g>
<!-- Node4&#45;&gt;Node5 -->
<g id="edge4" class="edge"><title>Node4&#45;&gt;Node5</title>
<path fill="none" stroke="midnightblue" d="M607.44,-37.5C615.674,-37.5 624.308,-37.5 632.601,-37.5"/>
<polygon fill="midnightblue" stroke="midnightblue" points="607.28,-34.0001 597.28,-37.5 607.28,-41.0001 607.28,-34.0001"/>
</g>
<!-- Node6 -->
<g id="node6" class="node"><title>Node6</title>
<g id="a_node6"><a xlink:href="main_8cxx.html#a3c04138a5bfe5d72780bb7e82a18e627" target="_top" xlink:title="main">
<polygon fill="none" stroke="black" points="761,-28 761,-47 802,-47 802,-28 761,-28"/>
<text text-anchor="middle" x="781.5" y="-35" font-family="Helvetica,sans-Serif" font-size="10.00">main</text>
</a>
</g>
</g>
<!-- Node5&#45;&gt;Node6 -->
<g id="edge5" class="edge"><title>Node5&#45;&gt;Node6</title>
<path fill="none" stroke="midnightblue" d="M735.539,-37.5C744.619,-37.5 753.466,-37.5 760.877,-37.5"/>
<polygon fill="midnightblue" stroke="midnightblue" points="735.252,-34.0001 725.252,-37.5 735.252,-41.0001 735.252,-34.0001"/>
</g>
<!-- Node7&#45;&gt;Node3 -->
<g id="edge7" class="edge"><title>Node7&#45;&gt;Node3</title>
<path fill="none" stroke="midnightblue" d="M361.26,-26.0361C375.817,-27.9711 390.517,-29.9253 403.556,-31.6586"/>
<polygon fill="midnightblue" stroke="midnightblue" points="361.602,-22.5508 351.228,-24.7025 360.68,-29.4898 361.602,-22.5508"/>
</g>
</g>
</svg>
