<?xml version="1.0" encoding="UTF-8" standalone="no"?>
<!DOCTYPE svg PUBLIC "-//W3C//DTD SVG 1.1//EN"
 "http://www.w3.org/Graphics/SVG/1.1/DTD/svg11.dtd">
<!-- Generated by graphviz version 2.38.0 (20140413.2041)
 -->
<!-- Title: EventManager Pages: 1 -->
<svg width="180pt" height="442pt"
 viewBox="0.00 0.00 179.50 442.00" xmlns="http://www.w3.org/2000/svg" xmlns:xlink="http://www.w3.org/1999/xlink">
<g id="graph0" class="graph" transform="scale(1 1) rotate(0) translate(4 438)">
<title>EventManager</title>
<!-- Node1 -->
<g id="node1" class="node"><title>Node1</title>
<polygon fill="#bfbfbf" stroke="black" points="8.5,-0.5 8.5,-189.5 144.5,-189.5 144.5,-0.5 8.5,-0.5"/>
<text text-anchor="middle" x="76.5" y="-177.5" font-family="Helvetica,sans-Serif" font-size="10.00">EventManager</text>
<polyline fill="none" stroke="black" points="8.5,-170.5 144.5,-170.5 "/>
<text text-anchor="start" x="16.5" y="-158.5" font-family="Helvetica,sans-Serif" font-size="10.00">&#45; m_uiManager</text>
<text text-anchor="start" x="16.5" y="-147.5" font-family="Helvetica,sans-Serif" font-size="10.00">&#45; m_lastHoveredElement</text>
<text text-anchor="start" x="16.5" y="-136.5" font-family="Helvetica,sans-Serif" font-size="10.00">&#45; m_panning</text>
<text text-anchor="start" x="16.5" y="-125.5" font-family="Helvetica,sans-Serif" font-size="10.00">&#45; m_skipLeftClick</text>
<text text-anchor="start" x="16.5" y="-114.5" font-family="Helvetica,sans-Serif" font-size="10.00">&#45; m_tileInfoMode</text>
<text text-anchor="start" x="16.5" y="-103.5" font-family="Helvetica,sans-Serif" font-size="10.00">&#45; pinchCenterCoords</text>
<text text-anchor="start" x="16.5" y="-92.5" font-family="Helvetica,sans-Serif" font-size="10.00">&#45; m_clickDownCoords</text>
<text text-anchor="start" x="16.5" y="-81.5" font-family="Helvetica,sans-Serif" font-size="10.00">&#45; m_highlitNode</text>
<text text-anchor="start" x="16.5" y="-70.5" font-family="Helvetica,sans-Serif" font-size="10.00">&#45; m_highlightedNodes</text>
<text text-anchor="start" x="16.5" y="-59.5" font-family="Helvetica,sans-Serif" font-size="10.00">&#45; timers</text>
<polyline fill="none" stroke="black" points="8.5,-52.5 144.5,-52.5 "/>
<text text-anchor="start" x="16.5" y="-40.5" font-family="Helvetica,sans-Serif" font-size="10.00">+ EventManager()</text>
<text text-anchor="start" x="16.5" y="-29.5" font-family="Helvetica,sans-Serif" font-size="10.00">+ ~EventManager()</text>
<text text-anchor="start" x="16.5" y="-18.5" font-family="Helvetica,sans-Serif" font-size="10.00">+ checkEvents()</text>
<text text-anchor="start" x="16.5" y="-7.5" font-family="Helvetica,sans-Serif" font-size="10.00">+ registerTimer()</text>
</g>
<!-- Node2 -->
<g id="node2" class="node"><title>Node2</title>
<g id="a_node2"><a xlink:href="classSingleton.html" target="_top" xlink:title="{Singleton\&lt; EventManager \&gt;\n||+ instance()\l# Singleton()\l# ~Singleton()\l}">
<polygon fill="none" stroke="black" points="0,-227.5 0,-306.5 153,-306.5 153,-227.5 0,-227.5"/>
<text text-anchor="middle" x="76.5" y="-294.5" font-family="Helvetica,sans-Serif" font-size="10.00">Singleton&lt; EventManager &gt;</text>
<polyline fill="none" stroke="black" points="0,-287.5 153,-287.5 "/>
<text text-anchor="middle" x="76.5" y="-275.5" font-family="Helvetica,sans-Serif" font-size="10.00"> </text>
<polyline fill="none" stroke="black" points="0,-268.5 153,-268.5 "/>
<text text-anchor="start" x="8" y="-256.5" font-family="Helvetica,sans-Serif" font-size="10.00">+ instance()</text>
<text text-anchor="start" x="8" y="-245.5" font-family="Helvetica,sans-Serif" font-size="10.00"># Singleton()</text>
<text text-anchor="start" x="8" y="-234.5" font-family="Helvetica,sans-Serif" font-size="10.00"># ~Singleton()</text>
</a>
</g>
</g>
<!-- Node2&#45;&gt;Node1 -->
<g id="edge1" class="edge"><title>Node2&#45;&gt;Node1</title>
<path fill="none" stroke="midnightblue" d="M76.5,-217.398C76.5,-208.579 76.5,-199.116 76.5,-189.507"/>
<polygon fill="none" stroke="midnightblue" points="73.0001,-217.424 76.5,-227.424 80.0001,-217.424 73.0001,-217.424"/>
</g>
<!-- Node3 -->
<g id="node3" class="node"><title>Node3</title>
<g id="a_node3"><a xlink:href="classSingleton.html" target="_top" xlink:title="Abstract Singleton implementation. ">
<polygon fill="none" stroke="black" points="32,-354.5 32,-433.5 121,-433.5 121,-354.5 32,-354.5"/>
<text text-anchor="middle" x="76.5" y="-421.5" font-family="Helvetica,sans-Serif" font-size="10.00">Singleton&lt; T &gt;</text>
<polyline fill="none" stroke="black" points="32,-414.5 121,-414.5 "/>
<text text-anchor="middle" x="76.5" y="-402.5" font-family="Helvetica,sans-Serif" font-size="10.00"> </text>
<polyline fill="none" stroke="black" points="32,-395.5 121,-395.5 "/>
<text text-anchor="start" x="40" y="-383.5" font-family="Helvetica,sans-Serif" font-size="10.00">+ instance()</text>
<text text-anchor="start" x="40" y="-372.5" font-family="Helvetica,sans-Serif" font-size="10.00"># Singleton()</text>
<text text-anchor="start" x="40" y="-361.5" font-family="Helvetica,sans-Serif" font-size="10.00"># ~Singleton()</text>
</a>
</g>
</g>
<!-- Node3&#45;&gt;Node2 -->
<g id="edge2" class="edge"><title>Node3&#45;&gt;Node2</title>
<path fill="none" stroke="orange" d="M76.5,-344.222C76.5,-331.745 76.5,-318.5 76.5,-306.612"/>
<polygon fill="orange" stroke="orange" points="73.0001,-344.476 76.5,-354.476 80.0001,-344.476 73.0001,-344.476"/>
<text text-anchor="middle" x="124" y="-328" font-family="Helvetica,sans-Serif" font-size="10.00"> &lt; EventManager &gt;</text>
</g>
</g>
</svg>
