<?xml version="1.0" encoding="UTF-8" standalone="no"?>
<!DOCTYPE svg PUBLIC "-//W3C//DTD SVG 1.1//EN"
 "http://www.w3.org/Graphics/SVG/1.1/DTD/svg11.dtd">
<!-- Generated by graphviz version 2.38.0 (20140413.2041)
 -->
<!-- Title: UIElement::setActionParameter Pages: 1 -->
<svg width="577pt" height="78pt"
 viewBox="0.00 0.00 577.00 77.50" xmlns="http://www.w3.org/2000/svg" xmlns:xlink="http://www.w3.org/1999/xlink">
<g id="graph0" class="graph" transform="scale(1 1) rotate(0) translate(4 73.5)">
<title>UIElement::setActionParameter</title>
<!-- Node1 -->
<g id="node1" class="node"><title>Node1</title>
<polygon fill="#bfbfbf" stroke="black" points="0,-28 0,-47 167,-47 167,-28 0,-28"/>
<text text-anchor="middle" x="83.5" y="-35" font-family="Helvetica,sans-Serif" font-size="10.00">UIElement::setActionParameter</text>
</g>
<!-- Node2 -->
<g id="node2" class="node"><title>Node2</title>
<g id="a_node2"><a xlink:href="classUIElement.html#ade4162d6216022e143c769369b64add7" target="_top" xlink:title="Set the button state Sets the mouse button pressed state. ">
<polygon fill="none" stroke="black" points="203,-28 203,-47 369,-47 369,-28 203,-28"/>
<text text-anchor="middle" x="286" y="-35" font-family="Helvetica,sans-Serif" font-size="10.00">UIElement::changeButtonState</text>
</a>
</g>
</g>
<!-- Node1&#45;&gt;Node2 -->
<g id="edge1" class="edge"><title>Node1&#45;&gt;Node2</title>
<path fill="none" stroke="midnightblue" d="M167.209,-37.5C175.568,-37.5 184.095,-37.5 192.548,-37.5"/>
<polygon fill="midnightblue" stroke="midnightblue" points="192.805,-41.0001 202.805,-37.5 192.805,-34.0001 192.805,-41.0001"/>
</g>
<!-- Node3 -->
<g id="node3" class="node"><title>Node3</title>
<g id="a_node3"><a xlink:href="classUIElement.html#afdf67550d4140097c7a328d4b22fc1fe" target="_top" xlink:title="UIElement::changeTexture">
<polygon fill="none" stroke="black" points="416,-50 416,-69 558,-69 558,-50 416,-50"/>
<text text-anchor="middle" x="487" y="-57" font-family="Helvetica,sans-Serif" font-size="10.00">UIElement::changeTexture</text>
</a>
</g>
</g>
<!-- Node2&#45;&gt;Node3 -->
<g id="edge2" class="edge"><title>Node2&#45;&gt;Node3</title>
<path fill="none" stroke="midnightblue" d="M369.09,-46.5753C381.218,-47.9161 393.703,-49.2963 405.792,-50.6328"/>
<polygon fill="midnightblue" stroke="midnightblue" points="405.514,-54.1233 415.838,-51.7434 406.283,-47.1657 405.514,-54.1233"/>
</g>
<!-- Node4 -->
<g id="node4" class="node"><title>Node4</title>
<g id="a_node4"><a xlink:href="classSingleton.html#af5cb1e5749949e2b68416cfb8d378044" target="_top" xlink:title="Get an instance of the singleton. ">
<polygon fill="none" stroke="black" points="405,-0.5 405,-30.5 569,-30.5 569,-0.5 405,-0.5"/>
<text text-anchor="start" x="413" y="-18.5" font-family="Helvetica,sans-Serif" font-size="10.00">Singleton&lt; ResourcesManager</text>
<text text-anchor="middle" x="487" y="-7.5" font-family="Helvetica,sans-Serif" font-size="10.00"> &gt;::instance</text>
</a>
</g>
</g>
<!-- Node2&#45;&gt;Node4 -->
<g id="edge3" class="edge"><title>Node2&#45;&gt;Node4</title>
<path fill="none" stroke="midnightblue" d="M369.09,-28.4247C377.555,-27.4889 386.193,-26.534 394.749,-25.588"/>
<polygon fill="midnightblue" stroke="midnightblue" points="395.186,-29.0612 404.741,-24.4834 394.417,-22.1036 395.186,-29.0612"/>
</g>
</g>
</svg>
