<?xml version="1.0" encoding="UTF-8" standalone="no"?>
<!DOCTYPE svg PUBLIC "-//W3C//DTD SVG 1.1//EN"
 "http://www.w3.org/Graphics/SVG/1.1/DTD/svg11.dtd">
<!-- Generated by graphviz version 2.38.0 (20140413.2041)
 -->
<!-- Title: Engine::increaseHeight Pages: 1 -->
<svg width="811pt" height="165pt"
 viewBox="0.00 0.00 811.00 165.00" xmlns="http://www.w3.org/2000/svg" xmlns:xlink="http://www.w3.org/1999/xlink">
<g id="graph0" class="graph" transform="scale(1 1) rotate(0) translate(4 161)">
<title>Engine::increaseHeight</title>
<!-- Node1 -->
<g id="node1" class="node"><title>Node1</title>
<polygon fill="#bfbfbf" stroke="black" points="0,-47.5 0,-66.5 127,-66.5 127,-47.5 0,-47.5"/>
<text text-anchor="middle" x="63.5" y="-54.5" font-family="Helvetica,sans-Serif" font-size="10.00">Engine::increaseHeight</text>
</g>
<!-- Node2 -->
<g id="node2" class="node"><title>Node2</title>
<g id="a_node2"><a xlink:href="classMap.html#aba5154a4d917900679a3c0f7ec701561" target="_top" xlink:title="Increase Height Increases the height of the node and checks the surrounding tiles. Either draw a slope sprite or elevate the tile if necessary. ">
<polygon fill="none" stroke="black" points="163,-47.5 163,-66.5 278,-66.5 278,-47.5 163,-47.5"/>
<text text-anchor="middle" x="220.5" y="-54.5" font-family="Helvetica,sans-Serif" font-size="10.00">Map::increaseHeight</text>
</a>
</g>
</g>
<!-- Node1&#45;&gt;Node2 -->
<g id="edge1" class="edge"><title>Node1&#45;&gt;Node2</title>
<path fill="none" stroke="midnightblue" d="M127.098,-57C135.46,-57 144.063,-57 152.498,-57"/>
<polygon fill="midnightblue" stroke="midnightblue" points="152.674,-60.5001 162.674,-57 152.674,-53.5001 152.674,-60.5001"/>
</g>
<!-- Node3 -->
<g id="node3" class="node"><title>Node3</title>
<g id="a_node3"><a xlink:href="classSingleton.html#af5cb1e5749949e2b68416cfb8d378044" target="_top" xlink:title="Get an instance of the singleton. ">
<polygon fill="none" stroke="black" points="314,-95 314,-125 427,-125 427,-95 314,-95"/>
<text text-anchor="start" x="322" y="-113" font-family="Helvetica,sans-Serif" font-size="10.00">Singleton&lt; Settings</text>
<text text-anchor="middle" x="370.5" y="-102" font-family="Helvetica,sans-Serif" font-size="10.00"> &gt;::instance</text>
</a>
</g>
</g>
<!-- Node2&#45;&gt;Node3 -->
<g id="edge2" class="edge"><title>Node2&#45;&gt;Node3</title>
<path fill="none" stroke="midnightblue" d="M248.302,-66.5979C267.703,-73.5457 294.533,-83.1538 318.019,-91.5641"/>
<polygon fill="midnightblue" stroke="midnightblue" points="316.913,-94.8857 327.507,-94.9621 319.273,-88.2955 316.913,-94.8857"/>
</g>
<!-- Node4 -->
<g id="node4" class="node"><title>Node4</title>
<g id="a_node4"><a xlink:href="classMap.html#a05e7d896dc5062af07c9b838600a068d" target="_top" xlink:title="Demolish a node Invokes the tiles demolish function. ">
<polygon fill="none" stroke="black" points="314.5,-0.5 314.5,-19.5 426.5,-19.5 426.5,-0.5 314.5,-0.5"/>
<text text-anchor="middle" x="370.5" y="-7.5" font-family="Helvetica,sans-Serif" font-size="10.00">Map::demolishNode</text>
</a>
</g>
</g>
<!-- Node2&#45;&gt;Node4 -->
<g id="edge3" class="edge"><title>Node2&#45;&gt;Node4</title>
<path fill="none" stroke="midnightblue" d="M251.45,-47.4888C273.944,-40.3456 304.975,-30.491 329.577,-22.6782"/>
<polygon fill="midnightblue" stroke="midnightblue" points="330.869,-25.9402 339.341,-19.5776 328.751,-19.2685 330.869,-25.9402"/>
</g>
<!-- Node5 -->
<g id="node5" class="node"><title>Node5</title>
<g id="a_node5"><a xlink:href="classMap.html#a59d21f2688713fbcfe320eb1b24405ca" target="_top" xlink:title="Update mapNode and its adjacent tiles Updates mapNode height information, draws slopes for adjacent t...">
<polygon fill="none" stroke="black" points="463,-44.5 463,-63.5 624,-63.5 624,-44.5 463,-44.5"/>
<text text-anchor="middle" x="543.5" y="-51.5" font-family="Helvetica,sans-Serif" font-size="10.00">Map::updateNeighborsOfNode</text>
</a>
</g>
</g>
<!-- Node2&#45;&gt;Node5 -->
<g id="edge13" class="edge"><title>Node2&#45;&gt;Node5</title>
<path fill="none" stroke="midnightblue" d="M278.149,-51.1791C326.44,-49.1221 396.711,-48.1854 452.665,-48.7084"/>
<polygon fill="midnightblue" stroke="midnightblue" points="452.899,-52.2111 462.937,-48.823 452.977,-45.2115 452.899,-52.2111"/>
</g>
<!-- Node4&#45;&gt;Node5 -->
<g id="edge4" class="edge"><title>Node4&#45;&gt;Node5</title>
<path fill="none" stroke="midnightblue" d="M426.547,-17.81C455.422,-24.4579 489.628,-33.6358 513.371,-41.2801"/>
<polygon fill="midnightblue" stroke="midnightblue" points="512.267,-44.6012 522.861,-44.4505 514.485,-37.962 512.267,-44.6012"/>
</g>
<!-- Node5&#45;&gt;Node2 -->
<g id="edge9" class="edge"><title>Node5&#45;&gt;Node2</title>
<path fill="none" stroke="midnightblue" d="M462.937,-60.6641C409.242,-62.3693 339.177,-62.9181 288.365,-61.9777"/>
<polygon fill="midnightblue" stroke="midnightblue" points="288.221,-58.474 278.149,-61.762 288.073,-65.4724 288.221,-58.474"/>
</g>
<!-- Node5&#45;&gt;Node4 -->
<g id="edge7" class="edge"><title>Node5&#45;&gt;Node4</title>
<path fill="none" stroke="midnightblue" d="M479.85,-44.4105C452.775,-37.9743 422.4,-29.7252 400.717,-22.7482"/>
<polygon fill="midnightblue" stroke="midnightblue" points="401.71,-19.3899 391.116,-19.5413 399.492,-26.0293 401.71,-19.3899"/>
</g>
<!-- Node6 -->
<g id="node6" class="node"><title>Node6</title>
<g id="a_node6"><a xlink:href="classMap.html#a63f0e5040c86652c7239475f8ff3a45a" target="_top" xlink:title="Get neighbor MapNode Objects Stores pointers to the neighboring nodes of the given coordinates in the...">
<polygon fill="none" stroke="black" points="678,-137.5 678,-156.5 785,-156.5 785,-137.5 678,-137.5"/>
<text text-anchor="middle" x="731.5" y="-144.5" font-family="Helvetica,sans-Serif" font-size="10.00">Map::getNeighbors</text>
</a>
</g>
</g>
<!-- Node5&#45;&gt;Node6 -->
<g id="edge5" class="edge"><title>Node5&#45;&gt;Node6</title>
<path fill="none" stroke="midnightblue" d="M556.598,-63.5529C576.876,-79.1352 619.492,-110.079 660,-128 665.421,-130.398 671.215,-132.555 677.063,-134.477"/>
<polygon fill="midnightblue" stroke="midnightblue" points="676.315,-137.908 686.902,-137.493 678.367,-131.216 676.315,-137.908"/>
</g>
<!-- Node7 -->
<g id="node7" class="node"><title>Node7</title>
<g id="a_node7"><a xlink:href="classMap.html#a0ff55eb041cdf29aa582a21145319ce0" target="_top" xlink:title="Get elevated neighbor positions in a bitmask Checks all neighboring tiles and returns the elevated ne...">
<polygon fill="none" stroke="black" points="660,-88 660,-118 803,-118 803,-88 660,-88"/>
<text text-anchor="start" x="668" y="-106" font-family="Helvetica,sans-Serif" font-size="10.00">Map::getElevatedNeighbor</text>
<text text-anchor="middle" x="731.5" y="-95" font-family="Helvetica,sans-Serif" font-size="10.00">Bitmask</text>
</a>
</g>
</g>
<!-- Node5&#45;&gt;Node7 -->
<g id="edge6" class="edge"><title>Node5&#45;&gt;Node7</title>
<path fill="none" stroke="midnightblue" d="M580.804,-63.564C604.352,-69.7676 635.743,-78.0371 663.696,-85.401"/>
<polygon fill="midnightblue" stroke="midnightblue" points="662.859,-88.8 673.421,-87.963 664.642,-82.0309 662.859,-88.8"/>
</g>
<!-- Node8 -->
<g id="node8" class="node"><title>Node8</title>
<g id="a_node8"><a xlink:href="classMap.html#a392940f84796653b8e811ed8dc296c84" target="_top" xlink:title="Get a bitmask that represents same&#45;tile neighbors Checks all neighboring tiles and returns the elevat...">
<polygon fill="none" stroke="black" points="663,-39 663,-69 800,-69 800,-39 663,-39"/>
<text text-anchor="start" x="671" y="-57" font-family="Helvetica,sans-Serif" font-size="10.00">Map::getNeighboringTiles</text>
<text text-anchor="middle" x="731.5" y="-46" font-family="Helvetica,sans-Serif" font-size="10.00">Bitmask</text>
</a>
</g>
</g>
<!-- Node5&#45;&gt;Node8 -->
<g id="edge8" class="edge"><title>Node5&#45;&gt;Node8</title>
<path fill="none" stroke="midnightblue" d="M624.19,-54C633.676,-54 643.35,-54 652.807,-54"/>
<polygon fill="midnightblue" stroke="midnightblue" points="652.965,-57.5001 662.965,-54 652.965,-50.5001 652.965,-57.5001"/>
</g>
<!-- Node9 -->
<g id="node9" class="node"><title>Node9</title>
<g id="a_node9"><a xlink:href="classMap.html#afb8cc864df90d273a5074872d635dc40" target="_top" xlink:title="Decrease Height Decreases the height of the node and checks the surrounding tiles. Either draw a slope sprite or lower the tile if necessary. ">
<polygon fill="none" stroke="black" points="672,-0.5 672,-19.5 791,-19.5 791,-0.5 672,-0.5"/>
<text text-anchor="middle" x="731.5" y="-7.5" font-family="Helvetica,sans-Serif" font-size="10.00">Map::decreaseHeight</text>
</a>
</g>
</g>
<!-- Node5&#45;&gt;Node9 -->
<g id="edge10" class="edge"><title>Node5&#45;&gt;Node9</title>
<path fill="none" stroke="midnightblue" d="M565.837,-44.4587C589.199,-36.9688 627.871,-27.1388 661.868,-19.6958"/>
<polygon fill="midnightblue" stroke="midnightblue" points="662.739,-23.0888 671.78,-17.566 661.268,-16.245 662.739,-23.0888"/>
</g>
<!-- Node9&#45;&gt;Node4 -->
<g id="edge11" class="edge"><title>Node9&#45;&gt;Node4</title>
<path fill="none" stroke="midnightblue" d="M671.848,-10C607.327,-10 503.908,-10 436.838,-10"/>
<polygon fill="midnightblue" stroke="midnightblue" points="436.807,-6.5001 426.807,-10 436.807,-13.5001 436.807,-6.5001"/>
</g>
<!-- Node9&#45;&gt;Node5 -->
<g id="edge12" class="edge"><title>Node9&#45;&gt;Node5</title>
<path fill="none" stroke="midnightblue" d="M708.905,-19.6241C687.657,-26.4191 653.926,-35.1171 622.532,-42.2126"/>
<polygon fill="midnightblue" stroke="midnightblue" points="621.442,-38.8692 612.44,-44.4555 622.961,-45.7025 621.442,-38.8692"/>
</g>
</g>
</svg>
