<?xml version="1.0" encoding="UTF-8" standalone="no"?>
<!DOCTYPE svg PUBLIC "-//W3C//DTD SVG 1.1//EN"
 "http://www.w3.org/Graphics/SVG/1.1/DTD/svg11.dtd">
<!-- Generated by graphviz version 2.38.0 (20140413.2041)
 -->
<!-- Title: UIElement::setVisibility Pages: 1 -->
<!--zoomable 343 -->
<svg id="main" version="1.1" xmlns="http://www.w3.org/2000/svg" xmlns:xlink="http://www.w3.org/1999/xlink" xml:space="preserve" onload="init(evt)">
<style type="text/css"><![CDATA[
.edge:hover path { stroke: red; }
.edge:hover polygon { stroke: red; fill: red; }
]]></style>
<script type="text/javascript"><![CDATA[
var edges = document.getElementsByTagName('g');
if (edges && edges.length) {
  for (var i=0;i<edges.length;i++) {
    if (edges[i].id.substr(0,4)=='edge') {
      edges[i].setAttribute('class','edge');
    }
  }
}
]]></script>
        <defs>
                <circle id="rim" cx="0" cy="0" r="7"/>
                <circle id="rim2" cx="0" cy="0" r="3.5"/>
                <g id="zoomPlus">
                        <use xlink:href="#rim" fill="#404040">
                                <set attributeName="fill" to="#808080" begin="zoomplus.mouseover" end="zoomplus.mouseout"/>
                        </use>
                        <path d="M-4,0h8M0,-4v8" fill="none" stroke="white" stroke-width="1.5" pointer-events="none"/>
                </g>
                <g id="zoomMin">
                        <use xlink:href="#rim" fill="#404040">
                                <set attributeName="fill" to="#808080" begin="zoomminus.mouseover" end="zoomminus.mouseout"/>
                        </use>
                        <path d="M-4,0h8" fill="none" stroke="white" stroke-width="1.5" pointer-events="none"/>
                </g>
                <g id="dirArrow">
                        <path fill="none" stroke="white" stroke-width="1.5" d="M0,-3.0v7 M-2.5,-0.5L0,-3.0L2.5,-0.5"/>
                </g>
               <g id="resetDef">
                       <use xlink:href="#rim2" fill="#404040">
                               <set attributeName="fill" to="#808080" begin="reset.mouseover" end="reset.mouseout"/>
                       </use>
               </g>
        </defs>

<script type="text/javascript">
var viewWidth = 1049;
var viewHeight = 343;
var sectionId = 'dynsection-39';
</script>
<script xlink:href="svgpan.js"/>
<svg id="graph" class="graph">
<g id="viewport">
<title>UIElement::setVisibility</title>
<!-- Node1 -->
<g id="node1" class="node"><title>Node1</title>
<polygon fill="#bfbfbf" stroke="black" points="0,-163.256 0,-182.256 125,-182.256 125,-163.256 0,-163.256"/>
<text text-anchor="middle" x="62.5" y="-170.256" font-family="Helvetica,sans-Serif" font-size="10.00">UIElement::setVisibility</text>
</g>
<!-- Node2 -->
<g id="node2" class="node"><title>Node2</title>
<g id="a_node2"><a xlink:href="classMenuGroupBuild.html#afe78eacb71e9b5ebe9adaae92c0378cc" target="_top" xlink:title="MenuGroupBuild::constructMenu">
<polygon fill="none" stroke="black" points="161,-315.256 161,-334.256 334,-334.256 334,-315.256 161,-315.256"/>
<text text-anchor="middle" x="247.5" y="-322.256" font-family="Helvetica,sans-Serif" font-size="10.00">MenuGroupBuild::constructMenu</text>
</a>
</g>
</g>
<!-- Node1&#45;&gt;Node2 -->
<g id="edge1" class="edge"><title>Node1&#45;&gt;Node2</title>
<path fill="none" stroke="midnightblue" d="M71.7694,-191.435C85.7275,-220.68 116.825,-276.912 161,-305.756 166.984,-309.663 173.653,-312.776 180.553,-315.255"/>
<polygon fill="midnightblue" stroke="midnightblue" points="74.9234,-189.916 67.5536,-182.304 68.5682,-192.851 74.9234,-189.916"/>
</g>
<!-- Node3 -->
<g id="node3" class="node"><title>Node3</title>
<g id="a_node3"><a xlink:href="classTooltip.html#a46a4bafd52456186b1fc7f48a554f8ef" target="_top" xlink:title="Tooltip::Tooltip">
<polygon fill="none" stroke="black" points="415.5,-239.256 415.5,-258.256 498.5,-258.256 498.5,-239.256 415.5,-239.256"/>
<text text-anchor="middle" x="457" y="-246.256" font-family="Helvetica,sans-Serif" font-size="10.00">Tooltip::Tooltip</text>
</a>
</g>
</g>
<!-- Node1&#45;&gt;Node3 -->
<g id="edge2" class="edge"><title>Node1&#45;&gt;Node3</title>
<path fill="none" stroke="midnightblue" d="M122.593,-184.287C135.264,-186.755 148.577,-189.345 161,-191.756 251.893,-209.393 358.563,-229.975 415.436,-240.939"/>
<polygon fill="midnightblue" stroke="midnightblue" points="123.082,-180.817 112.598,-182.339 121.744,-187.687 123.082,-180.817"/>
</g>
<!-- Node4 -->
<g id="node4" class="node"><title>Node4</title>
<g id="a_node4"><a xlink:href="classTooltip.html#ac48e36748acaf4cdd9838288f7732cc2" target="_top" xlink:title="starts the countdown to when the Tooltip appears starts the timer for the countdown to when the Toolt...">
<polygon fill="none" stroke="black" points="196.5,-239.256 196.5,-258.256 298.5,-258.256 298.5,-239.256 196.5,-239.256"/>
<text text-anchor="middle" x="247.5" y="-246.256" font-family="Helvetica,sans-Serif" font-size="10.00">Tooltip::startTimer</text>
</a>
</g>
</g>
<!-- Node1&#45;&gt;Node4 -->
<g id="edge3" class="edge"><title>Node1&#45;&gt;Node4</title>
<path fill="none" stroke="midnightblue" d="M87.6007,-187.505C106.915,-198.854 134.991,-214.313 161,-224.756 175.164,-230.443 191.16,-235.321 205.452,-239.164"/>
<polygon fill="midnightblue" stroke="midnightblue" points="89.2529,-184.416 78.8706,-182.304 85.6701,-190.429 89.2529,-184.416"/>
</g>
<!-- Node5 -->
<g id="node5" class="node"><title>Node5</title>
<g id="a_node5"><a xlink:href="classTooltip.html#ab7c16dc309b2b97523e842c57b0534eb" target="_top" xlink:title="makes the Tooltip visible makes the Tooltip visible ">
<polygon fill="none" stroke="black" points="194,-277.256 194,-296.256 301,-296.256 301,-277.256 194,-277.256"/>
<text text-anchor="middle" x="247.5" y="-284.256" font-family="Helvetica,sans-Serif" font-size="10.00">Tooltip::showTooltip</text>
</a>
</g>
</g>
<!-- Node1&#45;&gt;Node5 -->
<g id="edge4" class="edge"><title>Node1&#45;&gt;Node5</title>
<path fill="none" stroke="midnightblue" d="M76.4744,-190.385C93.4214,-212.074 125.185,-248.397 161,-267.756 171.033,-273.179 182.525,-277.055 193.761,-279.825"/>
<polygon fill="midnightblue" stroke="midnightblue" points="79.1861,-188.168 70.3416,-182.335 73.6181,-192.411 79.1861,-188.168"/>
</g>
<!-- Node6 -->
<g id="node6" class="node"><title>Node6</title>
<g id="a_node6"><a xlink:href="classTooltip.html#ad451a89f3aaaa61d6cef9ea4ba590c68" target="_top" xlink:title="resets the Tooltip Hides and deactivates the Tooltip and stops the timer ">
<polygon fill="none" stroke="black" points="209,-163.256 209,-182.256 286,-182.256 286,-163.256 209,-163.256"/>
<text text-anchor="middle" x="247.5" y="-170.256" font-family="Helvetica,sans-Serif" font-size="10.00">Tooltip::reset</text>
</a>
</g>
</g>
<!-- Node1&#45;&gt;Node6 -->
<g id="edge6" class="edge"><title>Node1&#45;&gt;Node6</title>
<path fill="none" stroke="midnightblue" d="M135.424,-172.756C160.493,-172.756 187.618,-172.756 208.788,-172.756"/>
<polygon fill="midnightblue" stroke="midnightblue" points="135.2,-169.256 125.2,-172.756 135.2,-176.256 135.2,-169.256"/>
</g>
<!-- Node7 -->
<g id="node7" class="node"><title>Node7</title>
<g id="a_node7"><a xlink:href="classUIManager.html#aedd9d0577af515a852425dfe414b2968" target="_top" xlink:title="Parses the UiLayout.json files and creates UI Elements. ">
<polygon fill="none" stroke="black" points="611.5,-87.2558 611.5,-106.256 700.5,-106.256 700.5,-87.2558 611.5,-87.2558"/>
<text text-anchor="middle" x="656" y="-94.2558" font-family="Helvetica,sans-Serif" font-size="10.00">UIManager::init</text>
</a>
</g>
</g>
<!-- Node1&#45;&gt;Node7 -->
<g id="edge7" class="edge"><title>Node1&#45;&gt;Node7</title>
<path fill="none" stroke="midnightblue" d="M77.2011,-155.156C94.3,-134.714 125.634,-101.981 161,-87.7558 322.154,-22.9379 537.456,-66.2953 620.407,-87.2482"/>
<polygon fill="midnightblue" stroke="midnightblue" points="74.3585,-153.104 70.7742,-163.074 79.7936,-157.516 74.3585,-153.104"/>
</g>
<!-- Node11 -->
<g id="node11" class="node"><title>Node11</title>
<g id="a_node11"><a xlink:href="classUIManager.html#a23bbbe53c18c31ff1c68c105dfa0dbd3" target="_top" xlink:title="Callback function for toggling the visibility of an UiGroup Callback function for Ui Widgets with the...">
<polygon fill="none" stroke="black" points="161.5,-125.256 161.5,-144.256 333.5,-144.256 333.5,-125.256 161.5,-125.256"/>
<text text-anchor="middle" x="247.5" y="-132.256" font-family="Helvetica,sans-Serif" font-size="10.00">UIManager::toggleGroupVisibility</text>
</a>
</g>
</g>
<!-- Node1&#45;&gt;Node11 -->
<g id="edge11" class="edge"><title>Node1&#45;&gt;Node11</title>
<path fill="none" stroke="midnightblue" d="M119.753,-161.075C145.705,-155.686 176.122,-149.37 200.653,-144.276"/>
<polygon fill="midnightblue" stroke="midnightblue" points="118.758,-157.707 109.679,-163.167 120.181,-164.56 118.758,-157.707"/>
</g>
<!-- Node14 -->
<g id="node14" class="node"><title>Node14</title>
<g id="a_node14"><a xlink:href="classUIManager.html#aae7a89e9d50bb6192e4140e07bd5f94b" target="_top" xlink:title="UIManager::createBuildMenu">
<polygon fill="none" stroke="black" points="379.5,-87.2558 379.5,-106.256 534.5,-106.256 534.5,-87.2558 379.5,-87.2558"/>
<text text-anchor="middle" x="457" y="-94.2558" font-family="Helvetica,sans-Serif" font-size="10.00">UIManager::createBuildMenu</text>
</a>
</g>
</g>
<!-- Node1&#45;&gt;Node14 -->
<g id="edge16" class="edge"><title>Node1&#45;&gt;Node14</title>
<path fill="none" stroke="midnightblue" d="M83.6548,-157.164C102.505,-143.546 132.025,-124.613 161,-115.756 232.779,-93.8133 318.824,-90.7408 379.409,-92.1392"/>
<polygon fill="midnightblue" stroke="midnightblue" points="81.497,-154.406 75.5465,-163.172 85.6647,-160.03 81.497,-154.406"/>
</g>
<!-- Node15 -->
<g id="node15" class="node"><title>Node15</title>
<g id="a_node15"><a xlink:href="classGame.html#a5ed7fc5be77080f7f6dd5363f7f007a1" target="_top" xlink:title="Game::mainMenu">
<polygon fill="none" stroke="black" points="605,-21.2558 605,-40.2558 707,-40.2558 707,-21.2558 605,-21.2558"/>
<text text-anchor="middle" x="656" y="-28.2558" font-family="Helvetica,sans-Serif" font-size="10.00">Game::mainMenu</text>
</a>
</g>
</g>
<!-- Node1&#45;&gt;Node15 -->
<g id="edge18" class="edge"><title>Node1&#45;&gt;Node15</title>
<path fill="none" stroke="midnightblue" d="M72.011,-153.761C85.9568,-125.231 116.632,-72.2647 161,-49.7558 311.977,26.838 523.575,-3.32046 612.744,-21.1967"/>
<polygon fill="midnightblue" stroke="midnightblue" points="68.724,-152.526 67.6356,-163.065 75.0585,-155.505 68.724,-152.526"/>
</g>
<!-- Node5&#45;&gt;Node3 -->
<g id="edge5" class="edge"><title>Node5&#45;&gt;Node3</title>
<path fill="none" stroke="midnightblue" d="M310.853,-275.337C344.707,-269.137 385.594,-261.649 415.333,-256.203"/>
<polygon fill="midnightblue" stroke="midnightblue" points="309.799,-271.972 300.593,-277.216 311.06,-278.857 309.799,-271.972"/>
</g>
<!-- Node8 -->
<g id="node8" class="node"><title>Node8</title>
<g id="a_node8"><a xlink:href="classGame.html#a1c2ab25d5216b2f4b2fe41efd2c09114" target="_top" xlink:title="Game::run">
<polygon fill="none" stroke="black" points="768,-87.2558 768,-106.256 836,-106.256 836,-87.2558 768,-87.2558"/>
<text text-anchor="middle" x="802" y="-94.2558" font-family="Helvetica,sans-Serif" font-size="10.00">Game::run</text>
</a>
</g>
</g>
<!-- Node7&#45;&gt;Node8 -->
<g id="edge8" class="edge"><title>Node7&#45;&gt;Node8</title>
<path fill="none" stroke="midnightblue" d="M710.679,-96.7558C729.774,-96.7558 750.712,-96.7558 767.616,-96.7558"/>
<polygon fill="midnightblue" stroke="midnightblue" points="710.596,-93.2559 700.596,-96.7558 710.595,-100.256 710.596,-93.2559"/>
</g>
<!-- Node9 -->
<g id="node9" class="node"><title>Node9</title>
<g id="a_node9"><a xlink:href="main_8cxx.html#af582d708d899e67ead623eac34a22387" target="_top" xlink:title="protected_main">
<polygon fill="none" stroke="black" points="872,-58.2558 872,-77.2558 964,-77.2558 964,-58.2558 872,-58.2558"/>
<text text-anchor="middle" x="918" y="-65.2558" font-family="Helvetica,sans-Serif" font-size="10.00">protected_main</text>
</a>
</g>
</g>
<!-- Node8&#45;&gt;Node9 -->
<g id="edge9" class="edge"><title>Node8&#45;&gt;Node9</title>
<path fill="none" stroke="midnightblue" d="M846.106,-85.7901C857.086,-82.9971 868.798,-80.0178 879.474,-77.302"/>
<polygon fill="midnightblue" stroke="midnightblue" points="845.108,-82.4324 836.28,-88.2898 846.834,-89.2164 845.108,-82.4324"/>
</g>
<!-- Node10 -->
<g id="node10" class="node"><title>Node10</title>
<g id="a_node10"><a xlink:href="main_8cxx.html#a3c04138a5bfe5d72780bb7e82a18e627" target="_top" xlink:title="main">
<polygon fill="none" stroke="black" points="1000,-58.2558 1000,-77.2558 1041,-77.2558 1041,-58.2558 1000,-58.2558"/>
<text text-anchor="middle" x="1020.5" y="-65.2558" font-family="Helvetica,sans-Serif" font-size="10.00">main</text>
</a>
</g>
</g>
<!-- Node9&#45;&gt;Node10 -->
<g id="edge10" class="edge"><title>Node9&#45;&gt;Node10</title>
<path fill="none" stroke="midnightblue" d="M974.539,-67.7558C983.619,-67.7558 992.466,-67.7558 999.877,-67.7558"/>
<polygon fill="midnightblue" stroke="midnightblue" points="974.252,-64.2559 964.252,-67.7558 974.252,-71.2559 974.252,-64.2559"/>
</g>
<!-- Node12 -->
<g id="node12" class="node"><title>Node12</title>
<g id="a_node12"><a xlink:href="classEventManager.html#a65ec91fd5016d4f9c4167fb8babed2df" target="_top" xlink:title="EventManager::checkEvents">
<polygon fill="none" stroke="black" points="580,-144.256 580,-163.256 732,-163.256 732,-144.256 580,-144.256"/>
<text text-anchor="middle" x="656" y="-151.256" font-family="Helvetica,sans-Serif" font-size="10.00">EventManager::checkEvents</text>
</a>
</g>
</g>
<!-- Node11&#45;&gt;Node12 -->
<g id="edge12" class="edge"><title>Node11&#45;&gt;Node12</title>
<path fill="none" stroke="midnightblue" d="M307.996,-145.946C327.66,-149.139 349.699,-152.178 370,-153.756 441.036,-159.276 522.332,-158.586 579.87,-156.926"/>
<polygon fill="midnightblue" stroke="midnightblue" points="308.392,-142.463 297.952,-144.269 307.239,-149.368 308.392,-142.463"/>
</g>
<!-- Node13 -->
<g id="node13" class="node"><title>Node13</title>
<g id="a_node13"><a xlink:href="classUIManager.html#aa78e356fc3b356d790c848319d1c387e" target="_top" xlink:title="UIManager::setCallbackFunctions">
<polygon fill="none" stroke="black" points="370,-125.256 370,-144.256 544,-144.256 544,-125.256 370,-125.256"/>
<text text-anchor="middle" x="457" y="-132.256" font-family="Helvetica,sans-Serif" font-size="10.00">UIManager::setCallbackFunctions</text>
</a>
</g>
</g>
<!-- Node11&#45;&gt;Node13 -->
<g id="edge14" class="edge"><title>Node11&#45;&gt;Node13</title>
<path fill="none" stroke="midnightblue" d="M343.858,-134.756C352.472,-134.756 361.163,-134.756 369.693,-134.756"/>
<polygon fill="midnightblue" stroke="midnightblue" points="343.797,-131.256 333.796,-134.756 343.796,-138.256 343.797,-131.256"/>
</g>
<!-- Node12&#45;&gt;Node8 -->
<g id="edge13" class="edge"><title>Node12&#45;&gt;Node8</title>
<path fill="none" stroke="midnightblue" d="M690.703,-140.415C717.114,-129.961 753.221,-115.668 776.819,-106.327"/>
<polygon fill="midnightblue" stroke="midnightblue" points="689.112,-137.28 681.102,-144.215 691.689,-143.789 689.112,-137.28"/>
</g>
<!-- Node13&#45;&gt;Node7 -->
<g id="edge15" class="edge"><title>Node13&#45;&gt;Node7</title>
<path fill="none" stroke="midnightblue" d="M517.445,-123.289C547.618,-117.469 583.625,-110.524 611.23,-105.199"/>
<polygon fill="midnightblue" stroke="midnightblue" points="516.613,-119.885 507.457,-125.216 517.939,-126.758 516.613,-119.885"/>
</g>
<!-- Node14&#45;&gt;Node7 -->
<g id="edge17" class="edge"><title>Node14&#45;&gt;Node7</title>
<path fill="none" stroke="midnightblue" d="M544.888,-96.7558C567.936,-96.7558 591.843,-96.7558 611.468,-96.7558"/>
<polygon fill="midnightblue" stroke="midnightblue" points="544.729,-93.2559 534.729,-96.7558 544.729,-100.256 544.729,-93.2559"/>
</g>
<!-- Node15&#45;&gt;Node9 -->
<g id="edge19" class="edge"><title>Node15&#45;&gt;Node9</title>
<path fill="none" stroke="midnightblue" d="M717.218,-39.3252C764.391,-46.0383 828.986,-55.2307 871.804,-61.3241"/>
<polygon fill="midnightblue" stroke="midnightblue" points="717.524,-35.8336 707.131,-37.8897 716.538,-42.7638 717.524,-35.8336"/>
</g>
</g>
</svg>
        <g id="navigator" transform="translate(0 0)" fill="#404254">
                <rect fill="#f2f5e9" fill-opacity="0.5" stroke="#606060" stroke-width=".5" x="0" y="0" width="60" height="60"/>
                <use id="zoomplus" xlink:href="#zoomPlus" x="17" y="9" onmousedown="handleZoom(evt,'in')"/>
                <use id="zoomminus" xlink:href="#zoomMin" x="42" y="9" onmousedown="handleZoom(evt,'out')"/>
                <use id="reset" xlink:href="#resetDef" x="30" y="36" onmousedown="handleReset()"/>
                <g id="arrowUp" xlink:href="#dirArrow" transform="translate(30 24)" onmousedown="handlePan(0,-1)">
                  <use xlink:href="#rim" fill="#404040">
                        <set attributeName="fill" to="#808080" begin="arrowUp.mouseover" end="arrowUp.mouseout"/>
                  </use>
                  <path fill="none" stroke="white" stroke-width="1.5" d="M0,-3.0v7 M-2.5,-0.5L0,-3.0L2.5,-0.5"/>
                </g>
                <g id="arrowRight" xlink:href="#dirArrow" transform="rotate(90) translate(36 -43)" onmousedown="handlePan(1,0)">
                  <use xlink:href="#rim" fill="#404040">
                        <set attributeName="fill" to="#808080" begin="arrowRight.mouseover" end="arrowRight.mouseout"/>
                  </use>
                  <path fill="none" stroke="white" stroke-width="1.5" d="M0,-3.0v7 M-2.5,-0.5L0,-3.0L2.5,-0.5"/>
                </g>
                <g id="arrowDown" xlink:href="#dirArrow" transform="rotate(180) translate(-30 -48)" onmousedown="handlePan(0,1)">
                  <use xlink:href="#rim" fill="#404040">
                        <set attributeName="fill" to="#808080" begin="arrowDown.mouseover" end="arrowDown.mouseout"/>
                  </use>
                  <path fill="none" stroke="white" stroke-width="1.5" d="M0,-3.0v7 M-2.5,-0.5L0,-3.0L2.5,-0.5"/>
                </g>
                <g id="arrowLeft" xlink:href="#dirArrow" transform="rotate(270) translate(-36 17)" onmousedown="handlePan(-1,0)">
                  <use xlink:href="#rim" fill="#404040">
                        <set attributeName="fill" to="#808080" begin="arrowLeft.mouseover" end="arrowLeft.mouseout"/>
                  </use>
                  <path fill="none" stroke="white" stroke-width="1.5" d="M0,-3.0v7 M-2.5,-0.5L0,-3.0L2.5,-0.5"/>
                </g>
        </g>
        <svg viewBox="0 0 15 15" width="100%" height="30px" preserveAspectRatio="xMaxYMin meet">
         <g id="arrow_out" transform="scale(0.3 0.3)">
          <a xlink:href="classUIElement_a440d645aa10dbf7d3c763ba6e1fc33a6_icgraph_org.svg" target="_base">
           <rect id="button" ry="5" rx="5" y="6" x="6" height="38" width="38"
                fill="#f2f5e9" fill-opacity="0.5" stroke="#606060" stroke-width="1.0"/>
           <path id="arrow"
             d="M 11.500037,31.436501 C 11.940474,20.09759 22.043105,11.32322 32.158766,21.979434 L 37.068811,17.246167 C 37.068811,17.246167 37.088388,32 37.088388,32 L 22.160133,31.978069 C 22.160133,31.978069 26.997745,27.140456 26.997745,27.140456 C 18.528582,18.264221 13.291696,25.230495 11.500037,31.436501 z"
             style="fill:#404040;"/>
          </a>
         </g>
        </svg>
</svg>
