<?xml version="1.0" encoding="UTF-8" standalone="no"?>
<!DOCTYPE svg PUBLIC "-//W3C//DTD SVG 1.1//EN"
 "http://www.w3.org/Graphics/SVG/1.1/DTD/svg11.dtd">
<!-- Generated by graphviz version 2.38.0 (20140413.2041)
 -->
<!-- Title: Layout::arrangeElements Pages: 1 -->
<svg width="787pt" height="235pt"
 viewBox="0.00 0.00 787.00 235.08" xmlns="http://www.w3.org/2000/svg" xmlns:xlink="http://www.w3.org/1999/xlink">
<g id="graph0" class="graph" transform="scale(1 1) rotate(0) translate(4 231.079)">
<title>Layout::arrangeElements</title>
<!-- Node1 -->
<g id="node1" class="node"><title>Node1</title>
<polygon fill="#bfbfbf" stroke="black" points="0,-177.5 0,-196.5 137,-196.5 137,-177.5 0,-177.5"/>
<text text-anchor="middle" x="68.5" y="-184.5" font-family="Helvetica,sans-Serif" font-size="10.00">Layout::arrangeElements</text>
</g>
<!-- Node2 -->
<g id="node2" class="node"><title>Node2</title>
<g id="a_node2"><a xlink:href="classSingleton.html#af5cb1e5749949e2b68416cfb8d378044" target="_top" xlink:title="Get an instance of the singleton. ">
<polygon fill="none" stroke="black" points="397.5,-172 397.5,-202 510.5,-202 510.5,-172 397.5,-172"/>
<text text-anchor="start" x="405.5" y="-190" font-family="Helvetica,sans-Serif" font-size="10.00">Singleton&lt; Settings</text>
<text text-anchor="middle" x="454" y="-179" font-family="Helvetica,sans-Serif" font-size="10.00"> &gt;::instance</text>
</a>
</g>
</g>
<!-- Node1&#45;&gt;Node2 -->
<g id="edge1" class="edge"><title>Node1&#45;&gt;Node2</title>
<path fill="none" stroke="midnightblue" d="M135.333,-196.526C147.751,-199.126 160.702,-201.536 173,-203 244.054,-211.46 262.828,-210.395 334,-203 351.465,-201.185 370.143,-197.911 387.402,-194.625"/>
<polygon fill="midnightblue" stroke="midnightblue" points="388.224,-198.031 397.38,-192.7 386.899,-191.158 388.224,-198.031"/>
</g>
<!-- Node1&#45;&gt;Node2 -->
<g id="edge4" class="edge"><title>Node1&#45;&gt;Node2</title>
<path fill="none" stroke="midnightblue" d="M81.4409,-196.524C100.533,-205.823 139.225,-216.979 173,-221 244.054,-229.46 262.828,-228.395 334,-221 361.071,-218.187 391.056,-211.867 414.154,-205.136"/>
<polygon fill="midnightblue" stroke="midnightblue" points="415.396,-208.416 423.925,-202.131 413.338,-201.726 415.396,-208.416"/>
</g>
<!-- Node3 -->
<g id="node3" class="node"><title>Node3</title>
<g id="a_node3"><a xlink:href="classLayout.html#a79480df6d9dd2d32b23468c05c6ac944" target="_top" xlink:title="Calculates height and width of layout groups. ">
<polygon fill="none" stroke="black" points="174,-172 174,-202 333,-202 333,-172 174,-172"/>
<text text-anchor="start" x="182" y="-190" font-family="Helvetica,sans-Serif" font-size="10.00">Layout::calculateLayoutGroup</text>
<text text-anchor="middle" x="253.5" y="-179" font-family="Helvetica,sans-Serif" font-size="10.00">Dimensions</text>
</a>
</g>
</g>
<!-- Node1&#45;&gt;Node3 -->
<g id="edge2" class="edge"><title>Node1&#45;&gt;Node3</title>
<path fill="none" stroke="midnightblue" d="M137.123,-187C145.778,-187 154.739,-187 163.667,-187"/>
<polygon fill="midnightblue" stroke="midnightblue" points="163.714,-190.5 173.714,-187 163.714,-183.5 163.714,-190.5"/>
</g>
<!-- Node4 -->
<g id="node4" class="node"><title>Node4</title>
<g id="a_node4"><a xlink:href="classUIManager.html#a0d32c5b63c4110ff8e43ab06c1c7d761" target="_top" xlink:title="Get the Layoutgroup container Returns the container, that holds LayoutGroups. ">
<polygon fill="none" stroke="black" points="370,-133.5 370,-152.5 538,-152.5 538,-133.5 370,-133.5"/>
<text text-anchor="middle" x="454" y="-140.5" font-family="Helvetica,sans-Serif" font-size="10.00">UIManager::getAllLayoutGroups</text>
</a>
</g>
</g>
<!-- Node1&#45;&gt;Node4 -->
<g id="edge5" class="edge"><title>Node1&#45;&gt;Node4</title>
<path fill="none" stroke="midnightblue" d="M104.684,-177.398C124.586,-172.332 150.018,-166.464 173,-163 234.926,-153.667 305.233,-148.665 359.905,-145.996"/>
<polygon fill="midnightblue" stroke="midnightblue" points="360.101,-149.491 369.925,-145.525 359.772,-142.499 360.101,-149.491"/>
</g>
<!-- Node5 -->
<g id="node5" class="node"><title>Node5</title>
<g id="a_node5"><a xlink:href="classLayout.html#ac2a5cc72ee1ff5d3ddf4861b3f28d58f" target="_top" xlink:title="Arrange Elements that are aligned to a parent This is a seperate function, so it can recurse if a par...">
<polygon fill="none" stroke="black" points="173,-95.5 173,-114.5 334,-114.5 334,-95.5 173,-95.5"/>
<text text-anchor="middle" x="253.5" y="-102.5" font-family="Helvetica,sans-Serif" font-size="10.00">Layout::arrangeChildElements</text>
</a>
</g>
</g>
<!-- Node1&#45;&gt;Node5 -->
<g id="edge6" class="edge"><title>Node1&#45;&gt;Node5</title>
<path fill="none" stroke="midnightblue" d="M84.065,-177.49C103.642,-165.028 139.827,-143.103 173,-129 183.158,-124.681 194.351,-120.799 205.052,-117.479"/>
<polygon fill="midnightblue" stroke="midnightblue" points="206.12,-120.812 214.696,-114.591 204.112,-114.107 206.12,-120.812"/>
</g>
<!-- Node3&#45;&gt;Node2 -->
<g id="edge3" class="edge"><title>Node3&#45;&gt;Node2</title>
<path fill="none" stroke="midnightblue" d="M333.238,-187C350.986,-187 369.649,-187 386.821,-187"/>
<polygon fill="midnightblue" stroke="midnightblue" points="387.299,-190.5 397.299,-187 387.299,-183.5 387.299,-190.5"/>
</g>
<!-- Node5&#45;&gt;Node2 -->
<g id="edge7" class="edge"><title>Node5&#45;&gt;Node2</title>
<path fill="none" stroke="midnightblue" d="M285.725,-114.677C308.609,-125.32 340.668,-141.437 370,-153 384.561,-158.74 400.989,-163.942 415.364,-168.7"/>
<polygon fill="midnightblue" stroke="midnightblue" points="414.347,-172.05 424.941,-171.923 416.58,-165.416 414.347,-172.05"/>
</g>
<!-- Node5&#45;&gt;Node2 -->
<g id="edge8" class="edge"><title>Node5&#45;&gt;Node2</title>
<path fill="none" stroke="midnightblue" d="M262.971,-114.564C281.773,-129.29 328.602,-154.681 370,-171 375.561,-173.192 381.394,-175.306 387.281,-177.279"/>
<polygon fill="midnightblue" stroke="midnightblue" points="386.611,-180.739 397.202,-180.456 388.746,-174.073 386.611,-180.739"/>
</g>
<!-- Node5&#45;&gt;Node4 -->
<g id="edge11" class="edge"><title>Node5&#45;&gt;Node4</title>
<path fill="none" stroke="midnightblue" d="M304.334,-114.54C331.234,-119.69 364.636,-126.084 392.961,-131.506"/>
<polygon fill="midnightblue" stroke="midnightblue" points="392.666,-135.013 403.146,-133.456 393.982,-128.138 392.666,-135.013"/>
</g>
<!-- Node6 -->
<g id="node6" class="node"><title>Node6</title>
<g id="a_node6"><a xlink:href="classUIManager.html#acc2fd1de357cb6745ea39d54a93caa27" target="_top" xlink:title="Get the Ui Element By ID Finds and returns an UiElement by its elementID parameter. ">
<polygon fill="none" stroke="black" points="373.5,-95.5 373.5,-114.5 534.5,-114.5 534.5,-95.5 373.5,-95.5"/>
<text text-anchor="middle" x="454" y="-102.5" font-family="Helvetica,sans-Serif" font-size="10.00">UIManager::getUiElementByID</text>
</a>
</g>
</g>
<!-- Node5&#45;&gt;Node6 -->
<g id="edge9" class="edge"><title>Node5&#45;&gt;Node6</title>
<path fill="none" stroke="midnightblue" d="M334.094,-105C343.7,-105 353.562,-105 363.301,-105"/>
<polygon fill="midnightblue" stroke="midnightblue" points="363.388,-108.5 373.388,-105 363.388,-101.5 363.388,-108.5"/>
</g>
<!-- Node7 -->
<g id="node7" class="node"><title>Node7</title>
<g id="a_node7"><a xlink:href="classUIElement.html#ad448eae9fd22723ca68f04db6a180de7" target="_top" xlink:title="UIElement::getUiElementData">
<polygon fill="none" stroke="black" points="373.5,-57.5 373.5,-76.5 534.5,-76.5 534.5,-57.5 373.5,-57.5"/>
<text text-anchor="middle" x="454" y="-64.5" font-family="Helvetica,sans-Serif" font-size="10.00">UIElement::getUiElementData</text>
</a>
</g>
</g>
<!-- Node5&#45;&gt;Node7 -->
<g id="edge10" class="edge"><title>Node5&#45;&gt;Node7</title>
<path fill="none" stroke="midnightblue" d="M304.334,-95.46C331.234,-90.3104 364.636,-83.916 392.961,-78.4935"/>
<polygon fill="midnightblue" stroke="midnightblue" points="393.982,-81.8618 403.146,-76.5439 392.666,-74.9866 393.982,-81.8618"/>
</g>
<!-- Node8 -->
<g id="node8" class="node"><title>Node8</title>
<g id="a_node8"><a xlink:href="classUIElement.html#a63a26f6f553d4e5d6ce3c3050b39453d" target="_top" xlink:title="Get the position and the size of this ui element Gets the position and the size of this ui element...">
<polygon fill="none" stroke="black" points="375,-19.5 375,-38.5 533,-38.5 533,-19.5 375,-19.5"/>
<text text-anchor="middle" x="454" y="-26.5" font-family="Helvetica,sans-Serif" font-size="10.00">UIElement::getUiElementRect</text>
</a>
</g>
</g>
<!-- Node5&#45;&gt;Node8 -->
<g id="edge12" class="edge"><title>Node5&#45;&gt;Node8</title>
<path fill="none" stroke="midnightblue" d="M270.799,-95.4305C292.696,-82.9349 333.131,-61.1141 370,-48 377.247,-45.4224 384.976,-43.1077 392.693,-41.0555"/>
<polygon fill="midnightblue" stroke="midnightblue" points="393.586,-44.4399 402.424,-38.5964 391.871,-37.6533 393.586,-44.4399"/>
</g>
<!-- Node9 -->
<g id="node9" class="node"><title>Node9</title>
<g id="a_node9"><a xlink:href="classUIElement.html#aa7f624963eaeb31043d74219ee24386c" target="_top" xlink:title="Checks if the mouse cursor is over the current UI Element Check if the coordinates match the ones sto...">
<polygon fill="none" stroke="black" points="609.5,-38.5 609.5,-57.5 743.5,-57.5 743.5,-38.5 609.5,-38.5"/>
<text text-anchor="middle" x="676.5" y="-45.5" font-family="Helvetica,sans-Serif" font-size="10.00">UIElement::isMouseOver</text>
</a>
</g>
</g>
<!-- Node8&#45;&gt;Node9 -->
<g id="edge13" class="edge"><title>Node8&#45;&gt;Node9</title>
<path fill="none" stroke="midnightblue" d="M533.05,-35.7254C554.547,-37.5778 577.835,-39.5844 599.23,-41.428"/>
<polygon fill="midnightblue" stroke="midnightblue" points="598.975,-44.9189 609.238,-42.2904 599.576,-37.9447 598.975,-44.9189"/>
</g>
<!-- Node10 -->
<g id="node10" class="node"><title>Node10</title>
<g id="a_node10"><a xlink:href="classUIElement.html#a570841bf8b7970ca935b1a00e571036a" target="_top" xlink:title="Handling for the hovering event Check, if the mouse cursor is hovering over the element. virtual function to provide custom handling if necessary (e.g. Combobox) Per default, it&#39;s the same implementation as isMouseOver. ">
<polygon fill="none" stroke="black" points="574,-0.5 574,-19.5 779,-19.5 779,-0.5 574,-0.5"/>
<text text-anchor="middle" x="676.5" y="-7.5" font-family="Helvetica,sans-Serif" font-size="10.00">UIElement::isMouseOverHoverableArea</text>
</a>
</g>
</g>
<!-- Node8&#45;&gt;Node10 -->
<g id="edge14" class="edge"><title>Node8&#45;&gt;Node10</title>
<path fill="none" stroke="midnightblue" d="M533.05,-22.2746C543.096,-21.409 553.533,-20.5097 563.984,-19.6091"/>
<polygon fill="midnightblue" stroke="midnightblue" points="564.335,-23.0919 573.997,-18.7463 563.734,-16.1178 564.335,-23.0919"/>
</g>
</g>
</svg>
