<?xml version="1.0" encoding="UTF-8" standalone="no"?>
<!DOCTYPE svg PUBLIC "-//W3C//DTD SVG 1.1//EN"
 "http://www.w3.org/Graphics/SVG/1.1/DTD/svg11.dtd">
<!-- Generated by graphviz version 2.38.0 (20140413.2041)
 -->
<!-- Title: Engine::quitGame Pages: 1 -->
<svg width="1255pt" height="266pt"
 viewBox="0.00 0.00 1255.00 265.50" xmlns="http://www.w3.org/2000/svg" xmlns:xlink="http://www.w3.org/1999/xlink">
<g id="graph0" class="graph" transform="scale(1 1) rotate(0) translate(4 261.5)">
<title>Engine::quitGame</title>
<!-- Node1 -->
<g id="node1" class="node"><title>Node1</title>
<polygon fill="#bfbfbf" stroke="black" points="0,-149 0,-168 102,-168 102,-149 0,-149"/>
<text text-anchor="middle" x="51" y="-156" font-family="Helvetica,sans-Serif" font-size="10.00">Engine::quitGame</text>
</g>
<!-- Node2 -->
<g id="node2" class="node"><title>Node2</title>
<g id="a_node2"><a xlink:href="classEngine.html#a83b7dbeee899b36a13d5b07c7ad87ebc" target="_top" xlink:title="Loads a saved game Loads a saved Game. ">
<polygon fill="none" stroke="black" points="138,-149 138,-168 242,-168 242,-149 138,-149"/>
<text text-anchor="middle" x="190" y="-156" font-family="Helvetica,sans-Serif" font-size="10.00">Engine::loadGame</text>
</a>
</g>
</g>
<!-- Node1&#45;&gt;Node2 -->
<g id="edge1" class="edge"><title>Node1&#45;&gt;Node2</title>
<path fill="none" stroke="midnightblue" d="M102.236,-158.5C110.488,-158.5 119.122,-158.5 127.609,-158.5"/>
<polygon fill="midnightblue" stroke="midnightblue" points="127.852,-162 137.852,-158.5 127.852,-155 127.852,-162"/>
</g>
<!-- Node3 -->
<g id="node3" class="node"><title>Node3</title>
<g id="a_node3"><a xlink:href="classMap.html#afefe996cc1f62b61ec60d0ae415953bf" target="_top" xlink:title="Map::loadMapFromFile">
<polygon fill="none" stroke="black" points="278,-149 278,-168 400,-168 400,-149 278,-149"/>
<text text-anchor="middle" x="339" y="-156" font-family="Helvetica,sans-Serif" font-size="10.00">Map::loadMapFromFile</text>
</a>
</g>
</g>
<!-- Node2&#45;&gt;Node3 -->
<g id="edge2" class="edge"><title>Node2&#45;&gt;Node3</title>
<path fill="none" stroke="midnightblue" d="M242.001,-158.5C250.345,-158.5 259.118,-158.5 267.827,-158.5"/>
<polygon fill="midnightblue" stroke="midnightblue" points="267.994,-162 277.994,-158.5 267.994,-155 267.994,-162"/>
</g>
<!-- Node4 -->
<g id="node4" class="node"><title>Node4</title>
<g id="a_node4"><a xlink:href="compression_8hxx.html#a25f341059256700f2f3ffd62d8113956" target="_top" xlink:title="decompresses given string Decompresses a given string. ">
<polygon fill="none" stroke="black" points="436,-206 436,-225 540,-225 540,-206 436,-206"/>
<text text-anchor="middle" x="488" y="-213" font-family="Helvetica,sans-Serif" font-size="10.00">decompressString</text>
</a>
</g>
</g>
<!-- Node3&#45;&gt;Node4 -->
<g id="edge3" class="edge"><title>Node3&#45;&gt;Node4</title>
<path fill="none" stroke="midnightblue" d="M363.619,-168.004C383.019,-175.773 411.236,-186.987 436,-196.5 440.945,-198.4 446.17,-200.378 451.315,-202.311"/>
<polygon fill="midnightblue" stroke="midnightblue" points="450.424,-205.714 461.017,-205.936 452.874,-199.157 450.424,-205.714"/>
</g>
<!-- Node5 -->
<g id="node5" class="node"><title>Node5</title>
<g id="a_node5"><a xlink:href="classMap.html#a1197ab65e40dd20b891ba165471e3163" target="_top" xlink:title="Map::Map">
<polygon fill="none" stroke="black" points="456.5,-168 456.5,-187 519.5,-187 519.5,-168 456.5,-168"/>
<text text-anchor="middle" x="488" y="-175" font-family="Helvetica,sans-Serif" font-size="10.00">Map::Map</text>
</a>
</g>
</g>
<!-- Node3&#45;&gt;Node5 -->
<g id="edge4" class="edge"><title>Node3&#45;&gt;Node5</title>
<path fill="none" stroke="midnightblue" d="M400.215,-166.283C415.783,-168.295 432.173,-170.414 446.466,-172.261"/>
<polygon fill="midnightblue" stroke="midnightblue" points="446.094,-175.742 456.461,-173.553 446.992,-168.8 446.094,-175.742"/>
</g>
<!-- Node6 -->
<g id="node6" class="node"><title>Node6</title>
<g id="a_node6"><a xlink:href="classMap.html#a482ac34426e8aa66abb46f60ec329402" target="_top" xlink:title="Initialize the Map with node objects Initialize the Map with node objects. ">
<polygon fill="none" stroke="black" points="449.5,-130 449.5,-149 526.5,-149 526.5,-130 449.5,-130"/>
<text text-anchor="middle" x="488" y="-137" font-family="Helvetica,sans-Serif" font-size="10.00">Map::initMap</text>
</a>
</g>
</g>
<!-- Node3&#45;&gt;Node6 -->
<g id="edge5" class="edge"><title>Node3&#45;&gt;Node6</title>
<path fill="none" stroke="midnightblue" d="M400.215,-150.717C413.223,-149.036 426.806,-147.28 439.259,-145.671"/>
<polygon fill="midnightblue" stroke="midnightblue" points="439.948,-149.111 449.417,-144.358 439.05,-142.169 439.948,-149.111"/>
</g>
<!-- Node10 -->
<g id="node10" class="node"><title>Node10</title>
<g id="a_node10"><a xlink:href="classMap.html#a481b37ba71ef0e51e836fc42805762dd" target="_top" xlink:title="Update all mapNodes Updates all mapNode and its adjacent tiles regarding height information, draws slopes for adjacent tiles and sets tiling for mapNode sprite if applicable. ">
<polygon fill="none" stroke="black" points="589.5,-88 589.5,-107 708.5,-107 708.5,-88 589.5,-88"/>
<text text-anchor="middle" x="649" y="-95" font-family="Helvetica,sans-Serif" font-size="10.00">Map::updateAllNodes</text>
</a>
</g>
</g>
<!-- Node3&#45;&gt;Node10 -->
<g id="edge23" class="edge"><title>Node3&#45;&gt;Node10</title>
<path fill="none" stroke="midnightblue" d="M359.71,-148.878C378.764,-140.019 408.681,-127.257 436,-120.5 482.979,-108.879 537.258,-103.129 579.132,-100.285"/>
<polygon fill="midnightblue" stroke="midnightblue" points="579.47,-103.77 589.226,-99.6384 579.023,-96.7844 579.47,-103.77"/>
</g>
<!-- Node7 -->
<g id="node7" class="node"><title>Node7</title>
<g id="a_node7"><a xlink:href="classMapLayers.html#a54ce1eeef2a8998a728ac7074efe8787" target="_top" xlink:title="Enable Drawing Layer Enable Drawing Layer (use bitwise OR to add layer) ">
<polygon fill="none" stroke="black" points="582.5,-176 582.5,-195 715.5,-195 715.5,-176 582.5,-176"/>
<text text-anchor="middle" x="649" y="-183" font-family="Helvetica,sans-Serif" font-size="10.00">MapLayers::enableLayer</text>
</a>
</g>
</g>
<!-- Node6&#45;&gt;Node7 -->
<g id="edge6" class="edge"><title>Node6&#45;&gt;Node7</title>
<path fill="none" stroke="midnightblue" d="M518.702,-149.064C535.472,-154.377 556.846,-161.003 576,-166.5 583.951,-168.782 592.425,-171.11 600.664,-173.318"/>
<polygon fill="midnightblue" stroke="midnightblue" points="599.984,-176.759 610.547,-175.942 601.78,-169.993 599.984,-176.759"/>
</g>
<!-- Node8 -->
<g id="node8" class="node"><title>Node8</title>
<g id="a_node8"><a xlink:href="classTerrainGenerator.html#adcc251757a1f3a06471a49f17886b8ce" target="_top" xlink:title="TerrainGenerator::generate\lTerrain">
<polygon fill="none" stroke="black" points="576,-126.5 576,-156.5 722,-156.5 722,-126.5 576,-126.5"/>
<text text-anchor="start" x="584" y="-144.5" font-family="Helvetica,sans-Serif" font-size="10.00">TerrainGenerator::generate</text>
<text text-anchor="middle" x="649" y="-133.5" font-family="Helvetica,sans-Serif" font-size="10.00">Terrain</text>
</a>
</g>
</g>
<!-- Node6&#45;&gt;Node8 -->
<g id="edge7" class="edge"><title>Node6&#45;&gt;Node8</title>
<path fill="none" stroke="midnightblue" d="M526.681,-139.974C538.578,-140.124 552.222,-140.295 565.968,-140.468"/>
<polygon fill="midnightblue" stroke="midnightblue" points="565.927,-143.968 575.971,-140.594 566.015,-136.968 565.927,-143.968"/>
</g>
<!-- Node6&#45;&gt;Node10 -->
<g id="edge9" class="edge"><title>Node6&#45;&gt;Node10</title>
<path fill="none" stroke="midnightblue" d="M524.978,-129.985C540.65,-125.841 559.233,-120.929 576,-116.5 584.355,-114.293 593.256,-111.943 601.847,-109.676"/>
<polygon fill="midnightblue" stroke="midnightblue" points="602.964,-113.001 611.74,-107.065 601.178,-106.233 602.964,-113.001"/>
</g>
<!-- Node9 -->
<g id="node9" class="node"><title>Node9</title>
<g id="a_node9"><a xlink:href="classTerrainGenerator.html#ac94cfaeb9dc89453018399361da5174a" target="_top" xlink:title="TerrainGenerator::loadTerrain\lDataFromJSON">
<polygon fill="none" stroke="black" points="761,-126.5 761,-156.5 916,-156.5 916,-126.5 761,-126.5"/>
<text text-anchor="start" x="769" y="-144.5" font-family="Helvetica,sans-Serif" font-size="10.00">TerrainGenerator::loadTerrain</text>
<text text-anchor="middle" x="838.5" y="-133.5" font-family="Helvetica,sans-Serif" font-size="10.00">DataFromJSON</text>
</a>
</g>
</g>
<!-- Node8&#45;&gt;Node9 -->
<g id="edge8" class="edge"><title>Node8&#45;&gt;Node9</title>
<path fill="none" stroke="midnightblue" d="M722.224,-141.5C731.543,-141.5 741.161,-141.5 750.684,-141.5"/>
<polygon fill="midnightblue" stroke="midnightblue" points="750.96,-145 760.96,-141.5 750.96,-138 750.96,-145"/>
</g>
<!-- Node11 -->
<g id="node11" class="node"><title>Node11</title>
<g id="a_node11"><a xlink:href="classMap.html#a59d21f2688713fbcfe320eb1b24405ca" target="_top" xlink:title="Update mapNode and its adjacent tiles Updates mapNode height information, draws slopes for adjacent t...">
<polygon fill="none" stroke="black" points="758,-88 758,-107 919,-107 919,-88 758,-88"/>
<text text-anchor="middle" x="838.5" y="-95" font-family="Helvetica,sans-Serif" font-size="10.00">Map::updateNeighborsOfNode</text>
</a>
</g>
</g>
<!-- Node10&#45;&gt;Node11 -->
<g id="edge10" class="edge"><title>Node10&#45;&gt;Node11</title>
<path fill="none" stroke="midnightblue" d="M708.555,-97.5C720.97,-97.5 734.349,-97.5 747.625,-97.5"/>
<polygon fill="midnightblue" stroke="midnightblue" points="747.738,-101 757.738,-97.5 747.738,-94.0001 747.738,-101"/>
</g>
<!-- Node12 -->
<g id="node12" class="node"><title>Node12</title>
<g id="a_node12"><a xlink:href="classMap.html#a63f0e5040c86652c7239475f8ff3a45a" target="_top" xlink:title="Get neighbor MapNode Objects Stores pointers to the neighboring nodes of the given coordinates in the...">
<polygon fill="none" stroke="black" points="973,-238 973,-257 1080,-257 1080,-238 973,-238"/>
<text text-anchor="middle" x="1026.5" y="-245" font-family="Helvetica,sans-Serif" font-size="10.00">Map::getNeighbors</text>
</a>
</g>
</g>
<!-- Node11&#45;&gt;Node12 -->
<g id="edge11" class="edge"><title>Node11&#45;&gt;Node12</title>
<path fill="none" stroke="midnightblue" d="M904.89,-107.015C910.032,-109.527 914.836,-112.642 919,-116.5 957.357,-152.033 917.156,-192.421 955,-228.5 957.602,-230.981 960.493,-233.145 963.576,-235.032"/>
<polygon fill="midnightblue" stroke="midnightblue" points="962.194,-238.256 972.697,-239.651 965.357,-232.011 962.194,-238.256"/>
</g>
<!-- Node13 -->
<g id="node13" class="node"><title>Node13</title>
<g id="a_node13"><a xlink:href="classMap.html#a0ff55eb041cdf29aa582a21145319ce0" target="_top" xlink:title="Get elevated neighbor positions in a bitmask Checks all neighboring tiles and returns the elevated ne...">
<polygon fill="none" stroke="black" points="955,-188.5 955,-218.5 1098,-218.5 1098,-188.5 955,-188.5"/>
<text text-anchor="start" x="963" y="-206.5" font-family="Helvetica,sans-Serif" font-size="10.00">Map::getElevatedNeighbor</text>
<text text-anchor="middle" x="1026.5" y="-195.5" font-family="Helvetica,sans-Serif" font-size="10.00">Bitmask</text>
</a>
</g>
</g>
<!-- Node11&#45;&gt;Node13 -->
<g id="edge12" class="edge"><title>Node11&#45;&gt;Node13</title>
<path fill="none" stroke="midnightblue" d="M901.099,-107.054C907.463,-109.523 913.576,-112.619 919,-116.5 943.368,-133.935 932.178,-154.085 955,-173.5 959.478,-177.31 964.512,-180.698 969.776,-183.698"/>
<polygon fill="midnightblue" stroke="midnightblue" points="968.307,-186.879 978.794,-188.383 971.534,-180.667 968.307,-186.879"/>
</g>
<!-- Node14 -->
<g id="node14" class="node"><title>Node14</title>
<g id="a_node14"><a xlink:href="classMap.html#a05e7d896dc5062af07c9b838600a068d" target="_top" xlink:title="Demolish a node Invokes the tiles demolish function. ">
<polygon fill="none" stroke="black" points="1134.5,-95 1134.5,-114 1246.5,-114 1246.5,-95 1134.5,-95"/>
<text text-anchor="middle" x="1190.5" y="-102" font-family="Helvetica,sans-Serif" font-size="10.00">Map::demolishNode</text>
</a>
</g>
</g>
<!-- Node11&#45;&gt;Node14 -->
<g id="edge13" class="edge"><title>Node11&#45;&gt;Node14</title>
<path fill="none" stroke="midnightblue" d="M917.132,-107.014C929.724,-109.224 942.674,-111.233 955,-112.5 1018.22,-118.999 1034.71,-118.329 1098,-112.5 1106.44,-111.722 1115.27,-110.549 1123.96,-109.253"/>
<polygon fill="midnightblue" stroke="midnightblue" points="1124.73,-112.676 1134.08,-107.692 1123.67,-105.758 1124.73,-112.676"/>
</g>
<!-- Node15 -->
<g id="node15" class="node"><title>Node15</title>
<g id="a_node15"><a xlink:href="classMap.html#a392940f84796653b8e811ed8dc296c84" target="_top" xlink:title="Get a bitmask that represents same&#45;tile neighbors Checks all neighboring tiles and returns the elevat...">
<polygon fill="none" stroke="black" points="958,-82.5 958,-112.5 1095,-112.5 1095,-82.5 958,-82.5"/>
<text text-anchor="start" x="966" y="-100.5" font-family="Helvetica,sans-Serif" font-size="10.00">Map::getNeighboringTiles</text>
<text text-anchor="middle" x="1026.5" y="-89.5" font-family="Helvetica,sans-Serif" font-size="10.00">Bitmask</text>
</a>
</g>
</g>
<!-- Node11&#45;&gt;Node15 -->
<g id="edge15" class="edge"><title>Node11&#45;&gt;Node15</title>
<path fill="none" stroke="midnightblue" d="M919.19,-97.5C928.676,-97.5 938.35,-97.5 947.807,-97.5"/>
<polygon fill="midnightblue" stroke="midnightblue" points="947.965,-101 957.965,-97.5 947.965,-94.0001 947.965,-101"/>
</g>
<!-- Node16 -->
<g id="node16" class="node"><title>Node16</title>
<g id="a_node16"><a xlink:href="classMap.html#aba5154a4d917900679a3c0f7ec701561" target="_top" xlink:title="Increase Height Increases the height of the node and checks the surrounding tiles. Either draw a slope sprite or elevate the tile if necessary. ">
<polygon fill="none" stroke="black" points="969,-6 969,-25 1084,-25 1084,-6 969,-6"/>
<text text-anchor="middle" x="1026.5" y="-13" font-family="Helvetica,sans-Serif" font-size="10.00">Map::increaseHeight</text>
</a>
</g>
</g>
<!-- Node11&#45;&gt;Node16 -->
<g id="edge16" class="edge"><title>Node11&#45;&gt;Node16</title>
<path fill="none" stroke="midnightblue" d="M847.033,-87.9865C865.02,-71.9684 912.175,-42.6695 955,-25.5 956.397,-24.9398 957.816,-24.3908 959.253,-23.8538"/>
<polygon fill="midnightblue" stroke="midnightblue" points="960.625,-27.0825 968.926,-20.4982 958.331,-20.4691 960.625,-27.0825"/>
</g>
<!-- Node18 -->
<g id="node18" class="node"><title>Node18</title>
<g id="a_node18"><a xlink:href="classMap.html#afb8cc864df90d273a5074872d635dc40" target="_top" xlink:title="Decrease Height Decreases the height of the node and checks the surrounding tiles. Either draw a slope sprite or lower the tile if necessary. ">
<polygon fill="none" stroke="black" points="967,-44 967,-63 1086,-63 1086,-44 967,-44"/>
<text text-anchor="middle" x="1026.5" y="-51" font-family="Helvetica,sans-Serif" font-size="10.00">Map::decreaseHeight</text>
</a>
</g>
</g>
<!-- Node11&#45;&gt;Node18 -->
<g id="edge20" class="edge"><title>Node11&#45;&gt;Node18</title>
<path fill="none" stroke="midnightblue" d="M860.837,-87.9587C884.199,-80.4688 922.871,-70.6388 956.868,-63.1958"/>
<polygon fill="midnightblue" stroke="midnightblue" points="957.739,-66.5888 966.78,-61.066 956.268,-59.745 957.739,-66.5888"/>
</g>
<!-- Node14&#45;&gt;Node11 -->
<g id="edge14" class="edge"><title>Node14&#45;&gt;Node11</title>
<path fill="none" stroke="midnightblue" d="M1175.66,-114.116C1157.84,-121.074 1125.83,-127.936 1098,-130.5 1034.71,-136.329 1018.22,-136.999 955,-130.5 922.669,-127.176 886.038,-118.751 862.862,-110.682"/>
<polygon fill="midnightblue" stroke="midnightblue" points="863.815,-107.3 853.224,-107.019 861.329,-113.843 863.815,-107.3"/>
</g>
<!-- Node16&#45;&gt;Node11 -->
<g id="edge19" class="edge"><title>Node16&#45;&gt;Node11</title>
<path fill="none" stroke="midnightblue" d="M1011.41,-25.0313C996.944,-30.3484 973.943,-35.9054 955,-43.5 927.174,-54.6559 897.521,-70.9326 875.228,-82.934"/>
<polygon fill="midnightblue" stroke="midnightblue" points="873.319,-79.9859 866.151,-87.7883 876.62,-86.1586 873.319,-79.9859"/>
</g>
<!-- Node16&#45;&gt;Node14 -->
<g id="edge18" class="edge"><title>Node16&#45;&gt;Node14</title>
<path fill="none" stroke="midnightblue" d="M1073.21,-25.0222C1081.67,-27.5599 1090.27,-30.6875 1098,-34.5 1126.36,-48.488 1154.6,-71.9026 1172.04,-87.7618"/>
<polygon fill="midnightblue" stroke="midnightblue" points="1169.98,-90.6253 1179.69,-94.8659 1174.74,-85.4961 1169.98,-90.6253"/>
</g>
<!-- Node17 -->
<g id="node17" class="node"><title>Node17</title>
<g id="a_node17"><a xlink:href="classSingleton.html#af5cb1e5749949e2b68416cfb8d378044" target="_top" xlink:title="Get an instance of the singleton. ">
<polygon fill="none" stroke="black" points="1134,-0.5 1134,-30.5 1247,-30.5 1247,-0.5 1134,-0.5"/>
<text text-anchor="start" x="1142" y="-18.5" font-family="Helvetica,sans-Serif" font-size="10.00">Singleton&lt; Settings</text>
<text text-anchor="middle" x="1190.5" y="-7.5" font-family="Helvetica,sans-Serif" font-size="10.00"> &gt;::instance</text>
</a>
</g>
</g>
<!-- Node16&#45;&gt;Node17 -->
<g id="edge17" class="edge"><title>Node16&#45;&gt;Node17</title>
<path fill="none" stroke="midnightblue" d="M1084.16,-15.5C1096.9,-15.5 1110.53,-15.5 1123.62,-15.5"/>
<polygon fill="midnightblue" stroke="midnightblue" points="1123.96,-19.0001 1133.96,-15.5 1123.96,-12.0001 1123.96,-19.0001"/>
</g>
<!-- Node18&#45;&gt;Node11 -->
<g id="edge22" class="edge"><title>Node18&#45;&gt;Node11</title>
<path fill="none" stroke="midnightblue" d="M1003.9,-63.1241C982.657,-69.9191 948.926,-78.6171 917.532,-85.7126"/>
<polygon fill="midnightblue" stroke="midnightblue" points="916.442,-82.3692 907.44,-87.9555 917.961,-89.2025 916.442,-82.3692"/>
</g>
<!-- Node18&#45;&gt;Node14 -->
<g id="edge21" class="edge"><title>Node18&#45;&gt;Node14</title>
<path fill="none" stroke="midnightblue" d="M1064.97,-63.0512C1075.68,-65.9304 1087.34,-69.2051 1098,-72.5 1116.68,-78.2757 1137.26,-85.4008 1154.15,-91.4605"/>
<polygon fill="midnightblue" stroke="midnightblue" points="1153.04,-94.7805 1163.64,-94.887 1155.42,-88.197 1153.04,-94.7805"/>
</g>
</g>
</svg>
