<?xml version="1.0" encoding="UTF-8" standalone="no"?>
<!DOCTYPE svg PUBLIC "-//W3C//DTD SVG 1.1//EN"
 "http://www.w3.org/Graphics/SVG/1.1/DTD/svg11.dtd">
<!-- Generated by graphviz version 2.38.0 (20140413.2041)
 -->
<!-- Title: UIElement::setLayoutGroupName Pages: 1 -->
<svg width="1011pt" height="47pt"
 viewBox="0.00 0.00 1011.00 47.00" xmlns="http://www.w3.org/2000/svg" xmlns:xlink="http://www.w3.org/1999/xlink">
<g id="graph0" class="graph" transform="scale(1 1) rotate(0) translate(4 43)">
<title>UIElement::setLayoutGroupName</title>
<!-- Node1 -->
<g id="node1" class="node"><title>Node1</title>
<polygon fill="#bfbfbf" stroke="black" points="0,-19.5 0,-38.5 178,-38.5 178,-19.5 0,-19.5"/>
<text text-anchor="middle" x="89" y="-26.5" font-family="Helvetica,sans-Serif" font-size="10.00">UIElement::setLayoutGroupName</text>
</g>
<!-- Node2 -->
<g id="node2" class="node"><title>Node2</title>
<g id="a_node2"><a xlink:href="classUIManager.html#a5c87a391279c342c25d859eb7f3b144d" target="_top" xlink:title="UIManager::addToLayoutGroup">
<polygon fill="none" stroke="black" points="214,-19.5 214,-38.5 378,-38.5 378,-19.5 214,-19.5"/>
<text text-anchor="middle" x="296" y="-26.5" font-family="Helvetica,sans-Serif" font-size="10.00">UIManager::addToLayoutGroup</text>
</a>
</g>
</g>
<!-- Node1&#45;&gt;Node2 -->
<g id="edge1" class="edge"><title>Node1&#45;&gt;Node2</title>
<path fill="none" stroke="midnightblue" d="M188.156,-29C196.726,-29 205.337,-29 213.749,-29"/>
<polygon fill="midnightblue" stroke="midnightblue" points="188.128,-25.5001 178.128,-29 188.128,-32.5001 188.128,-25.5001"/>
</g>
<!-- Node3 -->
<g id="node3" class="node"><title>Node3</title>
<g id="a_node3"><a xlink:href="classUIManager.html#aedd9d0577af515a852425dfe414b2968" target="_top" xlink:title="Parses the UiLayout.json files and creates UI Elements. ">
<polygon fill="none" stroke="black" points="605,-19.5 605,-38.5 694,-38.5 694,-19.5 605,-19.5"/>
<text text-anchor="middle" x="649.5" y="-26.5" font-family="Helvetica,sans-Serif" font-size="10.00">UIManager::init</text>
</a>
</g>
</g>
<!-- Node2&#45;&gt;Node3 -->
<g id="edge2" class="edge"><title>Node2&#45;&gt;Node3</title>
<path fill="none" stroke="midnightblue" d="M388.188,-29C457.879,-29 550.859,-29 604.757,-29"/>
<polygon fill="midnightblue" stroke="midnightblue" points="388.083,-25.5001 378.083,-29 388.083,-32.5001 388.083,-25.5001"/>
</g>
<!-- Node7 -->
<g id="node7" class="node"><title>Node7</title>
<g id="a_node7"><a xlink:href="classUIManager.html#aae7a89e9d50bb6192e4140e07bd5f94b" target="_top" xlink:title="UIManager::createBuildMenu">
<polygon fill="none" stroke="black" points="414,-0.5 414,-19.5 569,-19.5 569,-0.5 414,-0.5"/>
<text text-anchor="middle" x="491.5" y="-7.5" font-family="Helvetica,sans-Serif" font-size="10.00">UIManager::createBuildMenu</text>
</a>
</g>
</g>
<!-- Node2&#45;&gt;Node7 -->
<g id="edge6" class="edge"><title>Node2&#45;&gt;Node7</title>
<path fill="none" stroke="midnightblue" d="M388.227,-20.0423C396.788,-19.2017 405.407,-18.3554 413.814,-17.5299"/>
<polygon fill="midnightblue" stroke="midnightblue" points="387.83,-16.5643 378.22,-21.0249 388.515,-23.5308 387.83,-16.5643"/>
</g>
<!-- Node4 -->
<g id="node4" class="node"><title>Node4</title>
<g id="a_node4"><a xlink:href="classGame.html#a1c2ab25d5216b2f4b2fe41efd2c09114" target="_top" xlink:title="Game::run">
<polygon fill="none" stroke="black" points="730,-19.5 730,-38.5 798,-38.5 798,-19.5 730,-19.5"/>
<text text-anchor="middle" x="764" y="-26.5" font-family="Helvetica,sans-Serif" font-size="10.00">Game::run</text>
</a>
</g>
</g>
<!-- Node3&#45;&gt;Node4 -->
<g id="edge3" class="edge"><title>Node3&#45;&gt;Node4</title>
<path fill="none" stroke="midnightblue" d="M704.446,-29C713.145,-29 721.918,-29 729.931,-29"/>
<polygon fill="midnightblue" stroke="midnightblue" points="704.318,-25.5001 694.318,-29 704.318,-32.5001 704.318,-25.5001"/>
</g>
<!-- Node5 -->
<g id="node5" class="node"><title>Node5</title>
<g id="a_node5"><a xlink:href="main_8cxx.html#af582d708d899e67ead623eac34a22387" target="_top" xlink:title="protected_main">
<polygon fill="none" stroke="black" points="834,-19.5 834,-38.5 926,-38.5 926,-19.5 834,-19.5"/>
<text text-anchor="middle" x="880" y="-26.5" font-family="Helvetica,sans-Serif" font-size="10.00">protected_main</text>
</a>
</g>
</g>
<!-- Node4&#45;&gt;Node5 -->
<g id="edge4" class="edge"><title>Node4&#45;&gt;Node5</title>
<path fill="none" stroke="midnightblue" d="M808.44,-29C816.674,-29 825.308,-29 833.601,-29"/>
<polygon fill="midnightblue" stroke="midnightblue" points="808.28,-25.5001 798.28,-29 808.28,-32.5001 808.28,-25.5001"/>
</g>
<!-- Node6 -->
<g id="node6" class="node"><title>Node6</title>
<g id="a_node6"><a xlink:href="main_8cxx.html#a3c04138a5bfe5d72780bb7e82a18e627" target="_top" xlink:title="main">
<polygon fill="none" stroke="black" points="962,-19.5 962,-38.5 1003,-38.5 1003,-19.5 962,-19.5"/>
<text text-anchor="middle" x="982.5" y="-26.5" font-family="Helvetica,sans-Serif" font-size="10.00">main</text>
</a>
</g>
</g>
<!-- Node5&#45;&gt;Node6 -->
<g id="edge5" class="edge"><title>Node5&#45;&gt;Node6</title>
<path fill="none" stroke="midnightblue" d="M936.539,-29C945.619,-29 954.466,-29 961.877,-29"/>
<polygon fill="midnightblue" stroke="midnightblue" points="936.252,-25.5001 926.252,-29 936.252,-32.5001 936.252,-25.5001"/>
</g>
<!-- Node7&#45;&gt;Node3 -->
<g id="edge7" class="edge"><title>Node7&#45;&gt;Node3</title>
<path fill="none" stroke="midnightblue" d="M579.102,-20.5476C587.9,-21.6193 596.551,-22.6729 604.599,-23.6531"/>
<polygon fill="midnightblue" stroke="midnightblue" points="579.479,-17.0678 569.129,-19.333 578.632,-24.0164 579.479,-17.0678"/>
</g>
</g>
</svg>
