<?xml version="1.0" encoding="UTF-8" standalone="no"?>
<!DOCTYPE svg PUBLIC "-//W3C//DTD SVG 1.1//EN"
 "http://www.w3.org/Graphics/SVG/1.1/DTD/svg11.dtd">
<!-- Generated by graphviz version 2.38.0 (20140413.2041)
 -->
<!-- Title: Checkbox::draw Pages: 1 -->
<svg width="475pt" height="75pt"
 viewBox="0.00 0.00 475.00 75.00" xmlns="http://www.w3.org/2000/svg" xmlns:xlink="http://www.w3.org/1999/xlink">
<g id="graph0" class="graph" transform="scale(1 1) rotate(0) translate(4 71)">
<title>Checkbox::draw</title>
<!-- Node1 -->
<g id="node1" class="node"><title>Node1</title>
<polygon fill="#bfbfbf" stroke="black" points="0,-28.5 0,-47.5 92,-47.5 92,-28.5 0,-28.5"/>
<text text-anchor="middle" x="46" y="-35.5" font-family="Helvetica,sans-Serif" font-size="10.00">Checkbox::draw</text>
</g>
<!-- Node2 -->
<g id="node2" class="node"><title>Node2</title>
<g id="a_node2"><a xlink:href="classUIElement.html#afa1b8ca68981752ffb5e40e22ee2a946" target="_top" xlink:title="Change the Texture of the button Changes the texture. ">
<polygon fill="none" stroke="black" points="128,-28.5 128,-47.5 285,-47.5 285,-28.5 128,-28.5"/>
<text text-anchor="middle" x="206.5" y="-35.5" font-family="Helvetica,sans-Serif" font-size="10.00">UIElement::drawButtonFrame</text>
</a>
</g>
</g>
<!-- Node1&#45;&gt;Node2 -->
<g id="edge1" class="edge"><title>Node1&#45;&gt;Node2</title>
<path fill="none" stroke="midnightblue" d="M92.4197,-38C100.375,-38 108.891,-38 117.547,-38"/>
<polygon fill="midnightblue" stroke="midnightblue" points="117.747,-41.5001 127.747,-38 117.747,-34.5001 117.747,-41.5001"/>
</g>
<!-- Node3 -->
<g id="node3" class="node"><title>Node3</title>
<g id="a_node3"><a xlink:href="classUIElement.html#a98725ac250168ebb2fa676dd481ff495" target="_top" xlink:title="Get the button state Get the current mouse button pressed state. ">
<polygon fill="none" stroke="black" points="321,-47.5 321,-66.5 467,-66.5 467,-47.5 321,-47.5"/>
<text text-anchor="middle" x="394" y="-54.5" font-family="Helvetica,sans-Serif" font-size="10.00">UIElement::getButtonState</text>
</a>
</g>
</g>
<!-- Node1&#45;&gt;Node3 -->
<g id="edge4" class="edge"><title>Node1&#45;&gt;Node3</title>
<path fill="none" stroke="midnightblue" d="M79.8,-47.5069C94.417,-51.2713 111.93,-55.1405 128,-57 188.841,-64.0401 258.066,-63.7582 310.503,-61.8657"/>
<polygon fill="midnightblue" stroke="midnightblue" points="310.903,-65.3529 320.759,-61.4674 310.631,-58.3582 310.903,-65.3529"/>
</g>
<!-- Node4 -->
<g id="node4" class="node"><title>Node4</title>
<g id="a_node4"><a xlink:href="classUIElement.html#a93e23ad405b6275a99d5f71d32232f5c" target="_top" xlink:title="Draws a filled rectangle to the screen. Draws a filled rectangle to the screen. ">
<polygon fill="none" stroke="black" points="325,-0.5 325,-19.5 463,-19.5 463,-0.5 325,-0.5"/>
<text text-anchor="middle" x="394" y="-7.5" font-family="Helvetica,sans-Serif" font-size="10.00">UIElement::drawSolidRect</text>
</a>
</g>
</g>
<!-- Node1&#45;&gt;Node4 -->
<g id="edge5" class="edge"><title>Node1&#45;&gt;Node4</title>
<path fill="none" stroke="midnightblue" d="M81.0133,-28.4528C95.3921,-24.8274 112.393,-21.0749 128,-19 190.482,-10.693 261.936,-8.69752 314.89,-8.63841"/>
<polygon fill="midnightblue" stroke="midnightblue" points="314.887,-12.1383 324.891,-8.64994 314.895,-5.13831 314.887,-12.1383"/>
</g>
<!-- Node2&#45;&gt;Node3 -->
<g id="edge2" class="edge"><title>Node2&#45;&gt;Node3</title>
<path fill="none" stroke="midnightblue" d="M285.094,-45.9476C293.585,-46.8174 302.251,-47.705 310.796,-48.5802"/>
<polygon fill="midnightblue" stroke="midnightblue" points="310.449,-52.0629 320.754,-49.6001 311.163,-45.0993 310.449,-52.0629"/>
</g>
<!-- Node2&#45;&gt;Node4 -->
<g id="edge3" class="edge"><title>Node2&#45;&gt;Node4</title>
<path fill="none" stroke="midnightblue" d="M270.561,-28.4814C286.391,-26.0919 303.511,-23.5077 319.79,-21.0505"/>
<polygon fill="midnightblue" stroke="midnightblue" points="320.433,-24.4932 329.799,-19.5398 319.388,-17.5716 320.433,-24.4932"/>
</g>
</g>
</svg>
