<?xml version="1.0" encoding="UTF-8" standalone="no"?>
<!DOCTYPE svg PUBLIC "-//W3C//DTD SVG 1.1//EN"
 "http://www.w3.org/Graphics/SVG/1.1/DTD/svg11.dtd">
<!-- Generated by graphviz version 2.38.0 (20140413.2041)
 -->
<!-- Title: UIManager::setCallbackFunctions Pages: 1 -->
<!--zoomable 859 -->
<svg id="main" version="1.1" xmlns="http://www.w3.org/2000/svg" xmlns:xlink="http://www.w3.org/1999/xlink" xml:space="preserve" onload="init(evt)">
<style type="text/css"><![CDATA[
.edge:hover path { stroke: red; }
.edge:hover polygon { stroke: red; fill: red; }
]]></style>
<script type="text/javascript"><![CDATA[
var edges = document.getElementsByTagName('g');
if (edges && edges.length) {
  for (var i=0;i<edges.length;i++) {
    if (edges[i].id.substr(0,4)=='edge') {
      edges[i].setAttribute('class','edge');
    }
  }
}
]]></script>
        <defs>
                <circle id="rim" cx="0" cy="0" r="7"/>
                <circle id="rim2" cx="0" cy="0" r="3.5"/>
                <g id="zoomPlus">
                        <use xlink:href="#rim" fill="#404040">
                                <set attributeName="fill" to="#808080" begin="zoomplus.mouseover" end="zoomplus.mouseout"/>
                        </use>
                        <path d="M-4,0h8M0,-4v8" fill="none" stroke="white" stroke-width="1.5" pointer-events="none"/>
                </g>
                <g id="zoomMin">
                        <use xlink:href="#rim" fill="#404040">
                                <set attributeName="fill" to="#808080" begin="zoomminus.mouseover" end="zoomminus.mouseout"/>
                        </use>
                        <path d="M-4,0h8" fill="none" stroke="white" stroke-width="1.5" pointer-events="none"/>
                </g>
                <g id="dirArrow">
                        <path fill="none" stroke="white" stroke-width="1.5" d="M0,-3.0v7 M-2.5,-0.5L0,-3.0L2.5,-0.5"/>
                </g>
               <g id="resetDef">
                       <use xlink:href="#rim2" fill="#404040">
                               <set attributeName="fill" to="#808080" begin="reset.mouseover" end="reset.mouseout"/>
                       </use>
               </g>
        </defs>

<script type="text/javascript">
var viewWidth = 1882;
var viewHeight = 859;
var sectionId = 'dynsection-24';
</script>
<script xlink:href="svgpan.js"/>
<svg id="graph" class="graph">
<g id="viewport">
<title>UIManager::setCallbackFunctions</title>
<!-- Node1 -->
<g id="node1" class="node"><title>Node1</title>
<polygon fill="#bfbfbf" stroke="black" points="0,-346 0,-365 174,-365 174,-346 0,-346"/>
<text text-anchor="middle" x="87" y="-353" font-family="Helvetica,sans-Serif" font-size="10.00">UIManager::setCallbackFunctions</text>
</g>
<!-- Node2 -->
<g id="node2" class="node"><title>Node2</title>
<g id="a_node2"><a xlink:href="classUIElement.html#ad448eae9fd22723ca68f04db6a180de7" target="_top" xlink:title="UIElement::getUiElementData">
<polygon fill="none" stroke="black" points="1468.5,-403 1468.5,-422 1629.5,-422 1629.5,-403 1468.5,-403"/>
<text text-anchor="middle" x="1549" y="-410" font-family="Helvetica,sans-Serif" font-size="10.00">UIElement::getUiElementData</text>
</a>
</g>
</g>
<!-- Node1&#45;&gt;Node2 -->
<g id="edge1" class="edge"><title>Node1&#45;&gt;Node2</title>
<path fill="none" stroke="midnightblue" d="M115.35,-345.935C139.901,-337.601 177.042,-325.612 210,-317.5 301.251,-295.041 324.409,-287.979 418,-279.5 655.693,-257.966 716.333,-279.5 955,-279.5 955,-279.5 955,-279.5 1152.5,-279.5 1299.65,-279.5 1462.29,-363.24 1523.19,-397.826"/>
<polygon fill="midnightblue" stroke="midnightblue" points="1521.66,-400.983 1532.07,-402.935 1525.15,-394.915 1521.66,-400.983"/>
</g>
<!-- Node3 -->
<g id="node3" class="node"><title>Node3</title>
<g id="a_node3"><a xlink:href="classButton.html#a3389abc269a157d9440b5cf3f74c55e1" target="_top" xlink:title="Button::checkState">
<polygon fill="none" stroke="black" points="426,-479 426,-498 535,-498 535,-479 426,-479"/>
<text text-anchor="middle" x="480.5" y="-486" font-family="Helvetica,sans-Serif" font-size="10.00">Button::checkState</text>
</a>
</g>
</g>
<!-- Node1&#45;&gt;Node3 -->
<g id="edge2" class="edge"><title>Node1&#45;&gt;Node3</title>
<path fill="none" stroke="midnightblue" d="M98.4756,-365.228C118.477,-383.211 164.203,-421.547 210,-440.5 276.97,-468.216 359.793,-479.944 415.812,-484.897"/>
<polygon fill="midnightblue" stroke="midnightblue" points="415.694,-488.4 425.951,-485.746 416.277,-481.424 415.694,-488.4"/>
</g>
<!-- Node4 -->
<g id="node4" class="node"><title>Node4</title>
<g id="a_node4"><a xlink:href="namespaceSignal.html#a6e0df6c5db8c544e147a57b4d89171ca" target="_top" xlink:title="This function creates a std::function by binding object to the member function pointer method...">
<polygon fill="none" stroke="black" points="261.5,-166 261.5,-185 330.5,-185 330.5,-166 261.5,-166"/>
<text text-anchor="middle" x="296" y="-173" font-family="Helvetica,sans-Serif" font-size="10.00">Signal::slot</text>
</a>
</g>
</g>
<!-- Node1&#45;&gt;Node4 -->
<g id="edge3" class="edge"><title>Node1&#45;&gt;Node4</title>
<path fill="none" stroke="midnightblue" d="M92.4002,-345.63C105.638,-317.146 148.042,-234.312 210,-194.5 222.284,-186.607 237.395,-181.965 251.452,-179.245"/>
<polygon fill="midnightblue" stroke="midnightblue" points="252.155,-182.676 261.446,-177.584 251.007,-175.77 252.155,-182.676"/>
</g>
<!-- Node5 -->
<g id="node5" class="node"><title>Node5</title>
<g id="a_node5"><a xlink:href="classSingleton.html#af5cb1e5749949e2b68416cfb8d378044" target="_top" xlink:title="Get an instance of the singleton. ">
<polygon fill="none" stroke="black" points="1491,-605.5 1491,-635.5 1607,-635.5 1607,-605.5 1491,-605.5"/>
<text text-anchor="start" x="1499" y="-623.5" font-family="Helvetica,sans-Serif" font-size="10.00">Singleton&lt; Engine &gt;</text>
<text text-anchor="middle" x="1549" y="-612.5" font-family="Helvetica,sans-Serif" font-size="10.00">::instance</text>
</a>
</g>
</g>
<!-- Node1&#45;&gt;Node5 -->
<g id="edge4" class="edge"><title>Node1&#45;&gt;Node5</title>
<path fill="none" stroke="midnightblue" d="M98.8648,-365.319C118.138,-387.607 160.933,-439.816 210,-466.5 317.8,-525.126 356.79,-526.5 479.5,-526.5 479.5,-526.5 479.5,-526.5 1152.5,-526.5 1286.38,-526.5 1440.17,-573.63 1509.99,-601.417"/>
<polygon fill="midnightblue" stroke="midnightblue" points="1509.09,-604.83 1519.67,-605.369 1511.73,-598.349 1509.09,-604.83"/>
</g>
<!-- Node1&#45;&gt;Node5 -->
<g id="edge41" class="edge"><title>Node1&#45;&gt;Node5</title>
<path fill="none" stroke="midnightblue" d="M92.0676,-365.068C105.975,-390.085 153.886,-453.983 210,-484.5 317.8,-543.126 356.79,-544.5 479.5,-544.5 479.5,-544.5 479.5,-544.5 1152.5,-544.5 1270.19,-544.5 1403.28,-580.925 1481.17,-603.561"/>
<polygon fill="midnightblue" stroke="midnightblue" points="1480.28,-606.946 1490.86,-606.386 1482.24,-600.226 1480.28,-606.946"/>
</g>
<!-- Node6 -->
<g id="node6" class="node"><title>Node6</title>
<g id="a_node6"><a xlink:href="classEngine.html#a0ba57971ffb5173ecc425461f65a4cd8" target="_top" xlink:title="Quits the game Sets m_running to false and quitting the game. ">
<polygon fill="none" stroke="black" points="245,-204 245,-223 347,-223 347,-204 245,-204"/>
<text text-anchor="middle" x="296" y="-211" font-family="Helvetica,sans-Serif" font-size="10.00">Engine::quitGame</text>
</a>
</g>
</g>
<!-- Node1&#45;&gt;Node6 -->
<g id="edge5" class="edge"><title>Node1&#45;&gt;Node6</title>
<path fill="none" stroke="midnightblue" d="M95.1076,-345.925C112.273,-323.489 158.403,-267.177 210,-237.5 218.004,-232.896 226.946,-229.13 235.942,-226.063"/>
<polygon fill="midnightblue" stroke="midnightblue" points="237.191,-229.339 245.682,-223.002 235.093,-222.661 237.191,-229.339"/>
</g>
<!-- Node7 -->
<g id="node7" class="node"><title>Node7</title>
<g id="a_node7"><a xlink:href="classEngine.html#a83b7dbeee899b36a13d5b07c7ad87ebc" target="_top" xlink:title="Loads a saved game Loads a saved Game. ">
<polygon fill="none" stroke="black" points="428.5,-204 428.5,-223 532.5,-223 532.5,-204 428.5,-204"/>
<text text-anchor="middle" x="480.5" y="-211" font-family="Helvetica,sans-Serif" font-size="10.00">Engine::loadGame</text>
</a>
</g>
</g>
<!-- Node1&#45;&gt;Node7 -->
<g id="edge40" class="edge"><title>Node1&#45;&gt;Node7</title>
<path fill="none" stroke="midnightblue" d="M99.6478,-345.789C120.456,-328.938 165.97,-294.285 210,-275.5 229.559,-267.155 351.122,-240.666 424.135,-225.143"/>
<polygon fill="midnightblue" stroke="midnightblue" points="425.044,-228.528 434.1,-223.029 423.591,-221.681 425.044,-228.528"/>
</g>
<!-- Node23 -->
<g id="node23" class="node"><title>Node23</title>
<g id="a_node23"><a xlink:href="classUIManager.html#a23bbbe53c18c31ff1c68c105dfa0dbd3" target="_top" xlink:title="Callback function for toggling the visibility of an UiGroup Callback function for Ui Widgets with the...">
<polygon fill="none" stroke="black" points="210,-412 210,-431 382,-431 382,-412 210,-412"/>
<text text-anchor="middle" x="296" y="-419" font-family="Helvetica,sans-Serif" font-size="10.00">UIManager::toggleGroupVisibility</text>
</a>
</g>
</g>
<!-- Node1&#45;&gt;Node23 -->
<g id="edge29" class="edge"><title>Node1&#45;&gt;Node23</title>
<path fill="none" stroke="midnightblue" d="M118.1,-365.097C154.383,-376.665 215.46,-396.14 255.501,-408.906"/>
<polygon fill="midnightblue" stroke="midnightblue" points="254.609,-412.295 265.2,-411.999 256.736,-405.626 254.609,-412.295"/>
</g>
<!-- Node25 -->
<g id="node25" class="node"><title>Node25</title>
<g id="a_node25"><a xlink:href="classEngine.html#a260d4834150eae6eec2bde34df6dc827" target="_top" xlink:title="Creates a new game Creates a new game. ">
<polygon fill="none" stroke="black" points="588.5,-346 588.5,-365 691.5,-365 691.5,-346 588.5,-346"/>
<text text-anchor="middle" x="640" y="-353" font-family="Helvetica,sans-Serif" font-size="10.00">Engine::newGame</text>
</a>
</g>
</g>
<!-- Node1&#45;&gt;Node25 -->
<g id="edge33" class="edge"><title>Node1&#45;&gt;Node25</title>
<path fill="none" stroke="midnightblue" d="M174.394,-358.35C265.928,-360.925 414.672,-363.84 543,-360.5 554.355,-360.204 566.458,-359.713 578.109,-359.15"/>
<polygon fill="midnightblue" stroke="midnightblue" points="578.39,-362.64 588.201,-358.64 578.037,-355.649 578.39,-362.64"/>
</g>
<!-- Node26 -->
<g id="node26" class="node"><title>Node26</title>
<g id="a_node26"><a xlink:href="classEngine.html#af7de8d74b0cfacaf06df53e7caf11538" target="_top" xlink:title="Engine::saveGame">
<polygon fill="none" stroke="black" points="242.5,-327 242.5,-346 349.5,-346 349.5,-327 242.5,-327"/>
<text text-anchor="middle" x="296" y="-334" font-family="Helvetica,sans-Serif" font-size="10.00">Engine::saveGame</text>
</a>
</g>
</g>
<!-- Node1&#45;&gt;Node26 -->
<g id="edge36" class="edge"><title>Node1&#45;&gt;Node26</title>
<path fill="none" stroke="midnightblue" d="M174.288,-347.58C193.667,-345.801 213.874,-343.946 232.088,-342.275"/>
<polygon fill="midnightblue" stroke="midnightblue" points="232.633,-345.739 242.271,-341.34 231.993,-338.769 232.633,-345.739"/>
</g>
<!-- Node29 -->
<g id="node29" class="node"><title>Node29</title>
<g id="a_node29"><a xlink:href="classSettings.html#a53285dd5cbd5bfafe155187c74150dde" target="_top" xlink:title="Save settings to file. ">
<polygon fill="none" stroke="black" points="246,-128 246,-147 346,-147 346,-128 246,-128"/>
<text text-anchor="middle" x="296" y="-135" font-family="Helvetica,sans-Serif" font-size="10.00">Settings::writeFile</text>
</a>
</g>
</g>
<!-- Node1&#45;&gt;Node29 -->
<g id="edge42" class="edge"><title>Node1&#45;&gt;Node29</title>
<path fill="none" stroke="midnightblue" d="M90.9304,-345.719C101.241,-313.086 139.108,-207.15 210,-156.5 217.762,-150.954 226.86,-146.988 236.164,-144.16"/>
<polygon fill="midnightblue" stroke="midnightblue" points="237.105,-147.531 245.888,-141.606 235.327,-140.761 237.105,-147.531"/>
</g>
<!-- Node30 -->
<g id="node30" class="node"><title>Node30</title>
<g id="a_node30"><a xlink:href="classUIManager.html#ac927e1cd3dea979202ea9dbf1195b583" target="_top" xlink:title="UIManager::changeResolution">
<polygon fill="none" stroke="black" points="877,-623 877,-642 1035,-642 1035,-623 877,-623"/>
<text text-anchor="middle" x="956" y="-630" font-family="Helvetica,sans-Serif" font-size="10.00">UIManager::changeResolution</text>
</a>
</g>
</g>
<!-- Node1&#45;&gt;Node30 -->
<g id="edge43" class="edge"><title>Node1&#45;&gt;Node30</title>
<path fill="none" stroke="midnightblue" d="M90.6535,-365.121C100.314,-398.201 136.937,-508.004 210,-558.5 310.15,-627.717 357.759,-607.5 479.5,-607.5 479.5,-607.5 479.5,-607.5 641,-607.5 717.927,-607.5 805.121,-615.048 868.072,-621.85"/>
<polygon fill="midnightblue" stroke="midnightblue" points="868.032,-625.366 878.354,-622.977 868.795,-618.408 868.032,-625.366"/>
</g>
<!-- Node6&#45;&gt;Node7 -->
<g id="edge6" class="edge"><title>Node6&#45;&gt;Node7</title>
<path fill="none" stroke="midnightblue" d="M347.352,-213.5C369.317,-213.5 395.269,-213.5 418.334,-213.5"/>
<polygon fill="midnightblue" stroke="midnightblue" points="418.361,-217 428.361,-213.5 418.361,-210 418.361,-217"/>
</g>
<!-- Node8 -->
<g id="node8" class="node"><title>Node8</title>
<g id="a_node8"><a xlink:href="classMap.html#afefe996cc1f62b61ec60d0ae415953bf" target="_top" xlink:title="Map::loadMapFromFile">
<polygon fill="none" stroke="black" points="579,-194 579,-213 701,-213 701,-194 579,-194"/>
<text text-anchor="middle" x="640" y="-201" font-family="Helvetica,sans-Serif" font-size="10.00">Map::loadMapFromFile</text>
</a>
</g>
</g>
<!-- Node7&#45;&gt;Node8 -->
<g id="edge7" class="edge"><title>Node7&#45;&gt;Node8</title>
<path fill="none" stroke="midnightblue" d="M532.636,-210.253C544.144,-209.523 556.554,-208.735 568.692,-207.964"/>
<polygon fill="midnightblue" stroke="midnightblue" points="569.041,-211.449 578.799,-207.322 568.598,-204.463 569.041,-211.449"/>
</g>
<!-- Node9 -->
<g id="node9" class="node"><title>Node9</title>
<g id="a_node9"><a xlink:href="compression_8hxx.html#a25f341059256700f2f3ffd62d8113956" target="_top" xlink:title="decompresses given string Decompresses a given string. ">
<polygon fill="none" stroke="black" points="737,-194 737,-213 841,-213 841,-194 737,-194"/>
<text text-anchor="middle" x="789" y="-201" font-family="Helvetica,sans-Serif" font-size="10.00">decompressString</text>
</a>
</g>
</g>
<!-- Node8&#45;&gt;Node9 -->
<g id="edge8" class="edge"><title>Node8&#45;&gt;Node9</title>
<path fill="none" stroke="midnightblue" d="M701.215,-203.5C709.557,-203.5 718.136,-203.5 726.502,-203.5"/>
<polygon fill="midnightblue" stroke="midnightblue" points="726.57,-207 736.57,-203.5 726.57,-200 726.57,-207"/>
</g>
<!-- Node10 -->
<g id="node10" class="node"><title>Node10</title>
<g id="a_node10"><a xlink:href="classMap.html#a1197ab65e40dd20b891ba165471e3163" target="_top" xlink:title="Map::Map">
<polygon fill="none" stroke="black" points="757.5,-156 757.5,-175 820.5,-175 820.5,-156 757.5,-156"/>
<text text-anchor="middle" x="789" y="-163" font-family="Helvetica,sans-Serif" font-size="10.00">Map::Map</text>
</a>
</g>
</g>
<!-- Node8&#45;&gt;Node10 -->
<g id="edge9" class="edge"><title>Node8&#45;&gt;Node10</title>
<path fill="none" stroke="midnightblue" d="M678.094,-193.911C699.241,-188.445 725.766,-181.588 747.46,-175.98"/>
<polygon fill="midnightblue" stroke="midnightblue" points="748.557,-179.311 757.363,-173.42 746.805,-172.534 748.557,-179.311"/>
</g>
<!-- Node11 -->
<g id="node11" class="node"><title>Node11</title>
<g id="a_node11"><a xlink:href="classMap.html#a482ac34426e8aa66abb46f60ec329402" target="_top" xlink:title="Initialize the Map with node objects Initialize the Map with node objects. ">
<polygon fill="none" stroke="black" points="750.5,-232 750.5,-251 827.5,-251 827.5,-232 750.5,-232"/>
<text text-anchor="middle" x="789" y="-239" font-family="Helvetica,sans-Serif" font-size="10.00">Map::initMap</text>
</a>
</g>
</g>
<!-- Node8&#45;&gt;Node11 -->
<g id="edge10" class="edge"><title>Node8&#45;&gt;Node11</title>
<path fill="none" stroke="midnightblue" d="M678.094,-213.089C697.318,-218.058 720.986,-224.177 741.429,-229.461"/>
<polygon fill="midnightblue" stroke="midnightblue" points="740.615,-232.866 751.172,-231.98 742.367,-226.088 740.615,-232.866"/>
</g>
<!-- Node15 -->
<g id="node15" class="node"><title>Node15</title>
<g id="a_node15"><a xlink:href="classMap.html#a481b37ba71ef0e51e836fc42805762dd" target="_top" xlink:title="Update all mapNodes Updates all mapNode and its adjacent tiles regarding height information, draws slopes for adjacent tiles and sets tiling for mapNode sprite if applicable. ">
<polygon fill="none" stroke="black" points="896.5,-135 896.5,-154 1015.5,-154 1015.5,-135 896.5,-135"/>
<text text-anchor="middle" x="956" y="-142" font-family="Helvetica,sans-Serif" font-size="10.00">Map::updateAllNodes</text>
</a>
</g>
</g>
<!-- Node8&#45;&gt;Node15 -->
<g id="edge28" class="edge"><title>Node8&#45;&gt;Node15</title>
<path fill="none" stroke="midnightblue" d="M652.475,-193.895C669.588,-180.255 703.398,-155.89 737,-146.5 785.595,-132.92 842.696,-132.942 886.266,-136.081"/>
<polygon fill="midnightblue" stroke="midnightblue" points="886.227,-139.589 896.473,-136.891 886.781,-132.611 886.227,-139.589"/>
</g>
<!-- Node12 -->
<g id="node12" class="node"><title>Node12</title>
<g id="a_node12"><a xlink:href="classMapLayers.html#a54ce1eeef2a8998a728ac7074efe8787" target="_top" xlink:title="Enable Drawing Layer Enable Drawing Layer (use bitwise OR to add layer) ">
<polygon fill="none" stroke="black" points="889.5,-232 889.5,-251 1022.5,-251 1022.5,-232 889.5,-232"/>
<text text-anchor="middle" x="956" y="-239" font-family="Helvetica,sans-Serif" font-size="10.00">MapLayers::enableLayer</text>
</a>
</g>
</g>
<!-- Node11&#45;&gt;Node12 -->
<g id="edge11" class="edge"><title>Node11&#45;&gt;Node12</title>
<path fill="none" stroke="midnightblue" d="M827.854,-241.5C843.125,-241.5 861.316,-241.5 879.096,-241.5"/>
<polygon fill="midnightblue" stroke="midnightblue" points="879.491,-245 889.491,-241.5 879.491,-238 879.491,-245"/>
</g>
<!-- Node13 -->
<g id="node13" class="node"><title>Node13</title>
<g id="a_node13"><a xlink:href="classTerrainGenerator.html#adcc251757a1f3a06471a49f17886b8ce" target="_top" xlink:title="TerrainGenerator::generate\lTerrain">
<polygon fill="none" stroke="black" points="883,-182.5 883,-212.5 1029,-212.5 1029,-182.5 883,-182.5"/>
<text text-anchor="start" x="891" y="-200.5" font-family="Helvetica,sans-Serif" font-size="10.00">TerrainGenerator::generate</text>
<text text-anchor="middle" x="956" y="-189.5" font-family="Helvetica,sans-Serif" font-size="10.00">Terrain</text>
</a>
</g>
</g>
<!-- Node11&#45;&gt;Node13 -->
<g id="edge12" class="edge"><title>Node11&#45;&gt;Node13</title>
<path fill="none" stroke="midnightblue" d="M825.803,-231.953C844.214,-227.043 867.251,-220.9 888.755,-215.165"/>
<polygon fill="midnightblue" stroke="midnightblue" points="889.744,-218.524 898.505,-212.565 887.941,-211.76 889.744,-218.524"/>
</g>
<!-- Node11&#45;&gt;Node15 -->
<g id="edge14" class="edge"><title>Node11&#45;&gt;Node15</title>
<path fill="none" stroke="midnightblue" d="M824.385,-231.888C830.251,-229.377 836.042,-226.282 841,-222.5 862.771,-205.891 855.13,-188.978 877,-172.5 885.187,-166.331 894.859,-161.427 904.555,-157.562"/>
<polygon fill="midnightblue" stroke="midnightblue" points="906.015,-160.755 914.205,-154.034 903.612,-154.18 906.015,-160.755"/>
</g>
<!-- Node14 -->
<g id="node14" class="node"><title>Node14</title>
<g id="a_node14"><a xlink:href="classTerrainGenerator.html#ac94cfaeb9dc89453018399361da5174a" target="_top" xlink:title="TerrainGenerator::loadTerrain\lDataFromJSON">
<polygon fill="none" stroke="black" points="1074,-182.5 1074,-212.5 1229,-212.5 1229,-182.5 1074,-182.5"/>
<text text-anchor="start" x="1082" y="-200.5" font-family="Helvetica,sans-Serif" font-size="10.00">TerrainGenerator::loadTerrain</text>
<text text-anchor="middle" x="1151.5" y="-189.5" font-family="Helvetica,sans-Serif" font-size="10.00">DataFromJSON</text>
</a>
</g>
</g>
<!-- Node13&#45;&gt;Node14 -->
<g id="edge13" class="edge"><title>Node13&#45;&gt;Node14</title>
<path fill="none" stroke="midnightblue" d="M1029.05,-197.5C1040.35,-197.5 1052.14,-197.5 1063.73,-197.5"/>
<polygon fill="midnightblue" stroke="midnightblue" points="1063.85,-201 1073.85,-197.5 1063.85,-194 1063.85,-201"/>
</g>
<!-- Node16 -->
<g id="node16" class="node"><title>Node16</title>
<g id="a_node16"><a xlink:href="classMap.html#a59d21f2688713fbcfe320eb1b24405ca" target="_top" xlink:title="Update mapNode and its adjacent tiles Updates mapNode height information, draws slopes for adjacent t...">
<polygon fill="none" stroke="black" points="1071,-135 1071,-154 1232,-154 1232,-135 1071,-135"/>
<text text-anchor="middle" x="1151.5" y="-142" font-family="Helvetica,sans-Serif" font-size="10.00">Map::updateNeighborsOfNode</text>
</a>
</g>
</g>
<!-- Node15&#45;&gt;Node16 -->
<g id="edge15" class="edge"><title>Node15&#45;&gt;Node16</title>
<path fill="none" stroke="midnightblue" d="M1015.58,-144.5C1029.82,-144.5 1045.36,-144.5 1060.68,-144.5"/>
<polygon fill="midnightblue" stroke="midnightblue" points="1060.69,-148 1070.69,-144.5 1060.69,-141 1060.69,-148"/>
</g>
<!-- Node17 -->
<g id="node17" class="node"><title>Node17</title>
<g id="a_node17"><a xlink:href="classMap.html#a63f0e5040c86652c7239475f8ff3a45a" target="_top" xlink:title="Get neighbor MapNode Objects Stores pointers to the neighboring nodes of the given coordinates in the...">
<polygon fill="none" stroke="black" points="1295,-50 1295,-69 1402,-69 1402,-50 1295,-50"/>
<text text-anchor="middle" x="1348.5" y="-57" font-family="Helvetica,sans-Serif" font-size="10.00">Map::getNeighbors</text>
</a>
</g>
</g>
<!-- Node16&#45;&gt;Node17 -->
<g id="edge16" class="edge"><title>Node16&#45;&gt;Node17</title>
<path fill="none" stroke="midnightblue" d="M1166.42,-134.786C1187.49,-120.507 1229.13,-93.8836 1268,-78.5 1274.38,-75.9737 1281.19,-73.7237 1288.04,-71.7358"/>
<polygon fill="midnightblue" stroke="midnightblue" points="1289.32,-75.0137 1298.05,-69.0092 1287.48,-68.2597 1289.32,-75.0137"/>
</g>
<!-- Node18 -->
<g id="node18" class="node"><title>Node18</title>
<g id="a_node18"><a xlink:href="classMap.html#a0ff55eb041cdf29aa582a21145319ce0" target="_top" xlink:title="Get elevated neighbor positions in a bitmask Checks all neighboring tiles and returns the elevated ne...">
<polygon fill="none" stroke="black" points="1277,-0.5 1277,-30.5 1420,-30.5 1420,-0.5 1277,-0.5"/>
<text text-anchor="start" x="1285" y="-18.5" font-family="Helvetica,sans-Serif" font-size="10.00">Map::getElevatedNeighbor</text>
<text text-anchor="middle" x="1348.5" y="-7.5" font-family="Helvetica,sans-Serif" font-size="10.00">Bitmask</text>
</a>
</g>
</g>
<!-- Node16&#45;&gt;Node18 -->
<g id="edge17" class="edge"><title>Node16&#45;&gt;Node18</title>
<path fill="none" stroke="midnightblue" d="M1160.46,-134.984C1177.88,-114.718 1221.61,-66.9939 1268,-40.5 1271.85,-38.3016 1275.92,-36.2713 1280.09,-34.4004"/>
<polygon fill="midnightblue" stroke="midnightblue" points="1281.47,-37.617 1289.37,-30.5557 1278.8,-31.1501 1281.47,-37.617"/>
</g>
<!-- Node19 -->
<g id="node19" class="node"><title>Node19</title>
<g id="a_node19"><a xlink:href="classMap.html#a05e7d896dc5062af07c9b838600a068d" target="_top" xlink:title="Demolish a node Invokes the tiles demolish function. ">
<polygon fill="none" stroke="black" points="1493,-135 1493,-154 1605,-154 1605,-135 1493,-135"/>
<text text-anchor="middle" x="1549" y="-142" font-family="Helvetica,sans-Serif" font-size="10.00">Map::demolishNode</text>
</a>
</g>
</g>
<!-- Node16&#45;&gt;Node19 -->
<g id="edge18" class="edge"><title>Node16&#45;&gt;Node19</title>
<path fill="none" stroke="midnightblue" d="M1232.06,-138.963C1305.65,-137.232 1413.74,-137.354 1482.48,-139.328"/>
<polygon fill="midnightblue" stroke="midnightblue" points="1482.64,-142.834 1492.75,-139.646 1482.86,-135.838 1482.64,-142.834"/>
</g>
<!-- Node20 -->
<g id="node20" class="node"><title>Node20</title>
<g id="a_node20"><a xlink:href="classMap.html#a392940f84796653b8e811ed8dc296c84" target="_top" xlink:title="Get a bitmask that represents same&#45;tile neighbors Checks all neighboring tiles and returns the elevat...">
<polygon fill="none" stroke="black" points="1280,-220.5 1280,-250.5 1417,-250.5 1417,-220.5 1280,-220.5"/>
<text text-anchor="start" x="1288" y="-238.5" font-family="Helvetica,sans-Serif" font-size="10.00">Map::getNeighboringTiles</text>
<text text-anchor="middle" x="1348.5" y="-227.5" font-family="Helvetica,sans-Serif" font-size="10.00">Bitmask</text>
</a>
</g>
</g>
<!-- Node16&#45;&gt;Node20 -->
<g id="edge20" class="edge"><title>Node16&#45;&gt;Node20</title>
<path fill="none" stroke="midnightblue" d="M1191,-154.017C1204.61,-158.401 1219.6,-164.456 1232,-172.5 1251.52,-185.162 1248.27,-198.171 1268,-210.5 1271.35,-212.597 1274.9,-214.531 1278.56,-216.313"/>
<polygon fill="midnightblue" stroke="midnightblue" points="1277.27,-219.571 1287.83,-220.436 1280.12,-213.175 1277.27,-219.571"/>
</g>
<!-- Node21 -->
<g id="node21" class="node"><title>Node21</title>
<g id="a_node21"><a xlink:href="classMap.html#aba5154a4d917900679a3c0f7ec701561" target="_top" xlink:title="Increase Height Increases the height of the node and checks the surrounding tiles. Either draw a slope sprite or elevate the tile if necessary. ">
<polygon fill="none" stroke="black" points="1291,-182 1291,-201 1406,-201 1406,-182 1291,-182"/>
<text text-anchor="middle" x="1348.5" y="-189" font-family="Helvetica,sans-Serif" font-size="10.00">Map::increaseHeight</text>
</a>
</g>
</g>
<!-- Node16&#45;&gt;Node21 -->
<g id="edge21" class="edge"><title>Node16&#45;&gt;Node21</title>
<path fill="none" stroke="midnightblue" d="M1218.79,-154.045C1251.74,-161.294 1290,-170.955 1316.19,-178.839"/>
<polygon fill="midnightblue" stroke="midnightblue" points="1315.35,-182.244 1325.94,-181.875 1317.43,-175.56 1315.35,-182.244"/>
</g>
<!-- Node22 -->
<g id="node22" class="node"><title>Node22</title>
<g id="a_node22"><a xlink:href="classMap.html#afb8cc864df90d273a5074872d635dc40" target="_top" xlink:title="Decrease Height Decreases the height of the node and checks the surrounding tiles. Either draw a slope sprite or lower the tile if necessary. ">
<polygon fill="none" stroke="black" points="1289,-88 1289,-107 1408,-107 1408,-88 1289,-88"/>
<text text-anchor="middle" x="1348.5" y="-95" font-family="Helvetica,sans-Serif" font-size="10.00">Map::decreaseHeight</text>
</a>
</g>
</g>
<!-- Node16&#45;&gt;Node22 -->
<g id="edge25" class="edge"><title>Node16&#45;&gt;Node22</title>
<path fill="none" stroke="midnightblue" d="M1173.74,-134.979C1198.82,-126.839 1241.81,-115.785 1278.75,-107.589"/>
<polygon fill="midnightblue" stroke="midnightblue" points="1279.96,-110.907 1288.99,-105.358 1278.47,-104.067 1279.96,-110.907"/>
</g>
<!-- Node19&#45;&gt;Node16 -->
<g id="edge19" class="edge"><title>Node19&#45;&gt;Node16</title>
<path fill="none" stroke="midnightblue" d="M1492.75,-149.354C1427.84,-151.531 1319.27,-151.833 1242.24,-150.261"/>
<polygon fill="midnightblue" stroke="midnightblue" points="1242.13,-146.758 1232.06,-150.037 1241.98,-153.756 1242.13,-146.758"/>
</g>
<!-- Node21&#45;&gt;Node5 -->
<g id="edge22" class="edge"><title>Node21&#45;&gt;Node5</title>
<path fill="none" stroke="midnightblue" d="M1406.14,-196.305C1414.76,-199.334 1422.82,-203.848 1429,-210.5 1496.75,-283.394 1436.77,-336.072 1465,-431.5 1483.21,-493.067 1516.58,-561.026 1534.98,-596.277"/>
<polygon fill="midnightblue" stroke="midnightblue" points="1531.98,-598.105 1539.74,-605.32 1538.18,-594.842 1531.98,-598.105"/>
</g>
<!-- Node21&#45;&gt;Node16 -->
<g id="edge24" class="edge"><title>Node21&#45;&gt;Node16</title>
<path fill="none" stroke="midnightblue" d="M1290.66,-183.999C1255.75,-176.587 1212.36,-165.764 1183.62,-157.103"/>
<polygon fill="midnightblue" stroke="midnightblue" points="1184.33,-153.658 1173.74,-154.021 1182.24,-160.34 1184.33,-153.658"/>
</g>
<!-- Node21&#45;&gt;Node19 -->
<g id="edge23" class="edge"><title>Node21&#45;&gt;Node19</title>
<path fill="none" stroke="midnightblue" d="M1389.67,-181.989C1420.78,-174.623 1464.06,-164.375 1497.51,-156.455"/>
<polygon fill="midnightblue" stroke="midnightblue" points="1498.63,-159.788 1507.55,-154.078 1497.01,-152.976 1498.63,-159.788"/>
</g>
<!-- Node22&#45;&gt;Node16 -->
<g id="edge27" class="edge"><title>Node22&#45;&gt;Node16</title>
<path fill="none" stroke="midnightblue" d="M1325.94,-107.125C1302.56,-114.69 1263.89,-124.736 1229,-132.671"/>
<polygon fill="midnightblue" stroke="midnightblue" points="1227.78,-129.356 1218.79,-134.955 1229.31,-136.187 1227.78,-129.356"/>
</g>
<!-- Node22&#45;&gt;Node19 -->
<g id="edge26" class="edge"><title>Node22&#45;&gt;Node19</title>
<path fill="none" stroke="midnightblue" d="M1389.67,-107.011C1420.78,-114.377 1464.06,-124.625 1497.51,-132.545"/>
<polygon fill="midnightblue" stroke="midnightblue" points="1497.01,-136.024 1507.55,-134.922 1498.63,-129.212 1497.01,-136.024"/>
</g>
<!-- Node23&#45;&gt;Node2 -->
<g id="edge30" class="edge"><title>Node23&#45;&gt;Node2</title>
<path fill="none" stroke="midnightblue" d="M382.015,-418.02C451.203,-415.488 551.392,-412.5 639,-412.5 639,-412.5 639,-412.5 1152.5,-412.5 1257.53,-412.5 1378.24,-412.5 1458.4,-412.5"/>
<polygon fill="midnightblue" stroke="midnightblue" points="1458.46,-416 1468.46,-412.5 1458.46,-409 1458.46,-416"/>
</g>
<!-- Node23&#45;&gt;Node3 -->
<g id="edge32" class="edge"><title>Node23&#45;&gt;Node3</title>
<path fill="none" stroke="midnightblue" d="M320.666,-431.003C353.104,-444.011 408.461,-466.14 418,-469.5 424.087,-471.644 430.557,-473.788 436.929,-475.822"/>
<polygon fill="midnightblue" stroke="midnightblue" points="436.2,-479.261 446.789,-478.913 438.294,-472.582 436.2,-479.261"/>
</g>
<!-- Node24 -->
<g id="node24" class="node"><title>Node24</title>
<g id="a_node24"><a xlink:href="classUIElement.html#a440d645aa10dbf7d3c763ba6e1fc33a6" target="_top" xlink:title="Sets the UI Elements visibility. Set the UI Elements visibility. ">
<polygon fill="none" stroke="black" points="418,-441 418,-460 543,-460 543,-441 418,-441"/>
<text text-anchor="middle" x="480.5" y="-448" font-family="Helvetica,sans-Serif" font-size="10.00">UIElement::setVisibility</text>
</a>
</g>
</g>
<!-- Node23&#45;&gt;Node24 -->
<g id="edge31" class="edge"><title>Node23&#45;&gt;Node24</title>
<path fill="none" stroke="midnightblue" d="M357.01,-431.036C373.771,-433.699 392.132,-436.617 409.419,-439.364"/>
<polygon fill="midnightblue" stroke="midnightblue" points="409.028,-442.846 419.454,-440.958 410.127,-435.932 409.028,-442.846"/>
</g>
<!-- Node25&#45;&gt;Node5 -->
<g id="edge34" class="edge"><title>Node25&#45;&gt;Node5</title>
<path fill="none" stroke="midnightblue" d="M691.957,-356.387C821.947,-360.546 1173.63,-383.802 1429,-512.5 1470.19,-533.257 1507.8,-572.242 1529.29,-597.257"/>
<polygon fill="midnightblue" stroke="midnightblue" points="1526.82,-599.761 1535.93,-605.159 1532.17,-595.254 1526.82,-599.761"/>
</g>
<!-- Node25&#45;&gt;Node11 -->
<g id="edge35" class="edge"><title>Node25&#45;&gt;Node11</title>
<path fill="none" stroke="midnightblue" d="M657.492,-345.99C669.805,-338.669 686.871,-328.048 701,-317.5 726.274,-298.631 753.328,-274.264 770.437,-258.275"/>
<polygon fill="midnightblue" stroke="midnightblue" points="773.11,-260.565 777.986,-251.159 768.308,-255.471 773.11,-260.565"/>
</g>
<!-- Node26&#45;&gt;Node25 -->
<g id="edge39" class="edge"><title>Node26&#45;&gt;Node25</title>
<path fill="none" stroke="midnightblue" d="M349.688,-339.427C411.404,-342.856 513.448,-348.525 578.391,-352.133"/>
<polygon fill="midnightblue" stroke="midnightblue" points="578.305,-355.633 588.484,-352.694 578.693,-348.644 578.305,-355.633"/>
</g>
<!-- Node27 -->
<g id="node27" class="node"><title>Node27</title>
<g id="a_node27"><a xlink:href="classMap.html#ae48ef4fa6a6f73d886211bca59123151" target="_top" xlink:title="Map::saveMapToFile">
<polygon fill="none" stroke="black" points="425.5,-289 425.5,-308 535.5,-308 535.5,-289 425.5,-289"/>
<text text-anchor="middle" x="480.5" y="-296" font-family="Helvetica,sans-Serif" font-size="10.00">Map::saveMapToFile</text>
</a>
</g>
</g>
<!-- Node26&#45;&gt;Node27 -->
<g id="edge37" class="edge"><title>Node26&#45;&gt;Node27</title>
<path fill="none" stroke="midnightblue" d="M343.052,-326.911C367.569,-321.806 397.91,-315.489 423.75,-310.108"/>
<polygon fill="midnightblue" stroke="midnightblue" points="424.702,-313.485 433.779,-308.02 423.275,-306.632 424.702,-313.485"/>
</g>
<!-- Node28 -->
<g id="node28" class="node"><title>Node28</title>
<g id="a_node28"><a xlink:href="compression_8hxx.html#a2b136078ca5d23222e9c24092a9918fa" target="_top" xlink:title="Compress a given string with zlib Compress the given string. Returns an empty string if something wen...">
<polygon fill="none" stroke="black" points="594,-289 594,-308 686,-308 686,-289 594,-289"/>
<text text-anchor="middle" x="640" y="-296" font-family="Helvetica,sans-Serif" font-size="10.00">compressString</text>
</a>
</g>
</g>
<!-- Node27&#45;&gt;Node28 -->
<g id="edge38" class="edge"><title>Node27&#45;&gt;Node28</title>
<path fill="none" stroke="midnightblue" d="M535.703,-298.5C551.25,-298.5 568.216,-298.5 583.822,-298.5"/>
<polygon fill="midnightblue" stroke="midnightblue" points="583.852,-302 593.852,-298.5 583.852,-295 583.852,-302"/>
</g>
<!-- Node30&#45;&gt;Node5 -->
<g id="edge44" class="edge"><title>Node30&#45;&gt;Node5</title>
<path fill="none" stroke="midnightblue" d="M1035.18,-630.913C1152.03,-628.54 1370.28,-624.109 1480.55,-621.87"/>
<polygon fill="midnightblue" stroke="midnightblue" points="1480.95,-625.362 1490.87,-621.66 1480.81,-618.364 1480.95,-625.362"/>
</g>
<!-- Node31 -->
<g id="node31" class="node"><title>Node31</title>
<g id="a_node31"><a xlink:href="classWindowManager.html#a02ff8708c66cbb980399eb967a37a937" target="_top" xlink:title="WindowManager::setScreen\lResolution">
<polygon fill="none" stroke="black" points="1077,-573.5 1077,-603.5 1226,-603.5 1226,-573.5 1077,-573.5"/>
<text text-anchor="start" x="1085" y="-591.5" font-family="Helvetica,sans-Serif" font-size="10.00">WindowManager::setScreen</text>
<text text-anchor="middle" x="1151.5" y="-580.5" font-family="Helvetica,sans-Serif" font-size="10.00">Resolution</text>
</a>
</g>
</g>
<!-- Node30&#45;&gt;Node31 -->
<g id="edge45" class="edge"><title>Node30&#45;&gt;Node31</title>
<path fill="none" stroke="midnightblue" d="M998.987,-622.953C1020.97,-617.955 1048.57,-611.678 1074.17,-605.856"/>
<polygon fill="midnightblue" stroke="midnightblue" points="1075.27,-609.196 1084.25,-603.565 1073.72,-602.37 1075.27,-609.196"/>
</g>
<!-- Node32 -->
<g id="node32" class="node"><title>Node32</title>
<g id="a_node32"><a xlink:href="classComboBox.html#a5d3aaf4c524802d59e1445919715be78" target="_top" xlink:title="Get ID of selected element returns the ID of the selected element in the comboBox. ">
<polygon fill="none" stroke="black" points="1086.5,-777 1086.5,-796 1216.5,-796 1216.5,-777 1086.5,-777"/>
<text text-anchor="middle" x="1151.5" y="-784" font-family="Helvetica,sans-Serif" font-size="10.00">ComboBox::getActiveID</text>
</a>
</g>
</g>
<!-- Node30&#45;&gt;Node32 -->
<g id="edge47" class="edge"><title>Node30&#45;&gt;Node32</title>
<path fill="none" stroke="midnightblue" d="M969.104,-642.133C1001.48,-667.899 1090.32,-738.601 1130.4,-770.507"/>
<polygon fill="midnightblue" stroke="midnightblue" points="1128.4,-773.382 1138.4,-776.87 1132.76,-767.904 1128.4,-773.382"/>
</g>
<!-- Node34 -->
<g id="node34" class="node"><title>Node34</title>
<g id="a_node34"><a xlink:href="classLayout.html#afa734c5af10f59f3dadb066054fe81ab" target="_top" xlink:title="Arrange the layout elements. ">
<polygon fill="none" stroke="black" points="1083,-686 1083,-705 1220,-705 1220,-686 1083,-686"/>
<text text-anchor="middle" x="1151.5" y="-693" font-family="Helvetica,sans-Serif" font-size="10.00">Layout::arrangeElements</text>
</a>
</g>
</g>
<!-- Node30&#45;&gt;Node34 -->
<g id="edge49" class="edge"><title>Node30&#45;&gt;Node34</title>
<path fill="none" stroke="midnightblue" d="M986.388,-642.068C1019.73,-652.923 1074.26,-670.676 1111.22,-682.712"/>
<polygon fill="midnightblue" stroke="midnightblue" points="1110.56,-686.177 1121.15,-685.945 1112.73,-679.521 1110.56,-686.177"/>
</g>
<!-- Node31&#45;&gt;Node5 -->
<g id="edge46" class="edge"><title>Node31&#45;&gt;Node5</title>
<path fill="none" stroke="midnightblue" d="M1226.22,-592.253C1281.97,-595.344 1360.37,-600.234 1429,-606.5 1445.73,-608.027 1463.74,-609.984 1480.56,-611.947"/>
<polygon fill="midnightblue" stroke="midnightblue" points="1480.52,-615.466 1490.86,-613.166 1481.34,-608.515 1480.52,-615.466"/>
</g>
<!-- Node33 -->
<g id="node33" class="node"><title>Node33</title>
<g id="a_node33"><a xlink:href="classComboBox.html#ad0dba514b01ed2bb3c41c738c80a7d6a" target="_top" xlink:title="Set ID of selected element sets the ID of the selected element in the comboBox. ">
<polygon fill="none" stroke="black" points="1284,-831 1284,-850 1413,-850 1413,-831 1284,-831"/>
<text text-anchor="middle" x="1348.5" y="-838" font-family="Helvetica,sans-Serif" font-size="10.00">ComboBox::setActiveID</text>
</a>
</g>
</g>
<!-- Node32&#45;&gt;Node33 -->
<g id="edge48" class="edge"><title>Node32&#45;&gt;Node33</title>
<path fill="none" stroke="midnightblue" d="M1186.91,-796.03C1219.26,-804.986 1267.83,-818.437 1303.08,-828.199"/>
<polygon fill="midnightblue" stroke="midnightblue" points="1302.53,-831.679 1313.1,-830.975 1304.4,-824.933 1302.53,-831.679"/>
</g>
<!-- Node34&#45;&gt;Node5 -->
<g id="edge50" class="edge"><title>Node34&#45;&gt;Node5</title>
<path fill="none" stroke="midnightblue" d="M1182.88,-685.931C1246.3,-670.527 1394.08,-642.033 1480.94,-628"/>
<polygon fill="midnightblue" stroke="midnightblue" points="1481.64,-631.433 1490.97,-626.403 1480.54,-624.52 1481.64,-631.433"/>
</g>
<!-- Node34&#45;&gt;Node5 -->
<g id="edge53" class="edge"><title>Node34&#45;&gt;Node5</title>
<path fill="none" stroke="midnightblue" d="M1220.04,-687.922C1294,-675.959 1411.71,-653.602 1484.16,-637.729"/>
<polygon fill="midnightblue" stroke="midnightblue" points="1485.07,-641.113 1494.08,-635.534 1483.56,-634.278 1485.07,-641.113"/>
</g>
<!-- Node35 -->
<g id="node35" class="node"><title>Node35</title>
<g id="a_node35"><a xlink:href="classLayout.html#a79480df6d9dd2d32b23468c05c6ac944" target="_top" xlink:title="Calculates height and width of layout groups. ">
<polygon fill="none" stroke="black" points="1269,-705.5 1269,-735.5 1428,-735.5 1428,-705.5 1269,-705.5"/>
<text text-anchor="start" x="1277" y="-723.5" font-family="Helvetica,sans-Serif" font-size="10.00">Layout::calculateLayoutGroup</text>
<text text-anchor="middle" x="1348.5" y="-712.5" font-family="Helvetica,sans-Serif" font-size="10.00">Dimensions</text>
</a>
</g>
</g>
<!-- Node34&#45;&gt;Node35 -->
<g id="edge51" class="edge"><title>Node34&#45;&gt;Node35</title>
<path fill="none" stroke="midnightblue" d="M1220.15,-704.174C1232.69,-705.781 1245.95,-707.481 1259,-709.154"/>
<polygon fill="midnightblue" stroke="midnightblue" points="1258.55,-712.625 1268.92,-710.425 1259.44,-705.682 1258.55,-712.625"/>
</g>
<!-- Node36 -->
<g id="node36" class="node"><title>Node36</title>
<g id="a_node36"><a xlink:href="classUIManager.html#a0d32c5b63c4110ff8e43ab06c1c7d761" target="_top" xlink:title="Get the Layoutgroup container Returns the container, that holds LayoutGroups. ">
<polygon fill="none" stroke="black" points="1465,-793 1465,-812 1633,-812 1633,-793 1465,-793"/>
<text text-anchor="middle" x="1549" y="-800" font-family="Helvetica,sans-Serif" font-size="10.00">UIManager::getAllLayoutGroups</text>
</a>
</g>
</g>
<!-- Node34&#45;&gt;Node36 -->
<g id="edge54" class="edge"><title>Node34&#45;&gt;Node36</title>
<path fill="none" stroke="midnightblue" d="M1161.21,-705.163C1179.06,-724.201 1221.98,-766.21 1268,-783.5 1327.36,-805.804 1398.73,-810.34 1454.56,-809.41"/>
<polygon fill="midnightblue" stroke="midnightblue" points="1454.88,-812.904 1464.8,-809.176 1454.72,-805.906 1454.88,-812.904"/>
</g>
<!-- Node37 -->
<g id="node37" class="node"><title>Node37</title>
<g id="a_node37"><a xlink:href="classLayout.html#ac2a5cc72ee1ff5d3ddf4861b3f28d58f" target="_top" xlink:title="Arrange Elements that are aligned to a parent This is a seperate function, so it can recurse if a par...">
<polygon fill="none" stroke="black" points="1268,-755 1268,-774 1429,-774 1429,-755 1268,-755"/>
<text text-anchor="middle" x="1348.5" y="-762" font-family="Helvetica,sans-Serif" font-size="10.00">Layout::arrangeChildElements</text>
</a>
</g>
</g>
<!-- Node34&#45;&gt;Node37 -->
<g id="edge55" class="edge"><title>Node34&#45;&gt;Node37</title>
<path fill="none" stroke="midnightblue" d="M1171.72,-705.05C1194.31,-715.99 1233.17,-733.898 1268,-745.5 1275.66,-748.051 1283.84,-750.406 1291.93,-752.527"/>
<polygon fill="midnightblue" stroke="midnightblue" points="1291.16,-755.943 1301.71,-754.994 1292.87,-749.155 1291.16,-755.943"/>
</g>
<!-- Node35&#45;&gt;Node5 -->
<g id="edge52" class="edge"><title>Node35&#45;&gt;Node5</title>
<path fill="none" stroke="midnightblue" d="M1393.39,-705.47C1405.12,-701.038 1417.69,-695.912 1429,-690.5 1459.68,-675.823 1492.9,-655.914 1516.43,-641.08"/>
<polygon fill="midnightblue" stroke="midnightblue" points="1518.38,-643.985 1524.94,-635.665 1514.63,-638.078 1518.38,-643.985"/>
</g>
<!-- Node37&#45;&gt;Node2 -->
<g id="edge59" class="edge"><title>Node37&#45;&gt;Node2</title>
<path fill="none" stroke="midnightblue" d="M1415.96,-754.917C1420.75,-752.405 1425.18,-749.308 1429,-745.5 1477.23,-697.386 1442.9,-660.943 1465,-596.5 1486.43,-534.015 1521.3,-463.788 1538.2,-431.098"/>
<polygon fill="midnightblue" stroke="midnightblue" points="1541.32,-432.694 1542.83,-422.209 1535.11,-429.459 1541.32,-432.694"/>
</g>
<!-- Node37&#45;&gt;Node5 -->
<g id="edge56" class="edge"><title>Node37&#45;&gt;Node5</title>
<path fill="none" stroke="midnightblue" d="M1373.08,-754.922C1389.63,-751.183 1411.79,-746.432 1429,-736.5 1449.15,-724.87 1448.97,-715.361 1465,-698.5 1482.92,-679.647 1503.06,-658.535 1519.02,-642.868"/>
<polygon fill="midnightblue" stroke="midnightblue" points="1521.73,-645.115 1526.48,-635.647 1516.86,-640.083 1521.73,-645.115"/>
</g>
<!-- Node37&#45;&gt;Node5 -->
<g id="edge57" class="edge"><title>Node37&#45;&gt;Node5</title>
<path fill="none" stroke="midnightblue" d="M1428.26,-754.922C1428.51,-754.783 1428.75,-754.642 1429,-754.5 1449.15,-742.87 1448.97,-733.361 1465,-716.5 1488.41,-691.877 1515.6,-663.399 1532.3,-643.607"/>
<polygon fill="midnightblue" stroke="midnightblue" points="1535.15,-645.649 1538.78,-635.693 1529.74,-641.217 1535.15,-645.649"/>
</g>
<!-- Node37&#45;&gt;Node36 -->
<g id="edge60" class="edge"><title>Node37&#45;&gt;Node36</title>
<path fill="none" stroke="midnightblue" d="M1399.33,-774.04C1426.23,-779.19 1459.64,-785.584 1487.96,-791.006"/>
<polygon fill="midnightblue" stroke="midnightblue" points="1487.67,-794.513 1498.15,-792.956 1488.98,-787.638 1487.67,-794.513"/>
</g>
<!-- Node38 -->
<g id="node38" class="node"><title>Node38</title>
<g id="a_node38"><a xlink:href="classUIManager.html#acc2fd1de357cb6745ea39d54a93caa27" target="_top" xlink:title="Get the Ui Element By ID Finds and returns an UiElement by its elementID parameter. ">
<polygon fill="none" stroke="black" points="1468.5,-755 1468.5,-774 1629.5,-774 1629.5,-755 1468.5,-755"/>
<text text-anchor="middle" x="1549" y="-762" font-family="Helvetica,sans-Serif" font-size="10.00">UIManager::getUiElementByID</text>
</a>
</g>
</g>
<!-- Node37&#45;&gt;Node38 -->
<g id="edge58" class="edge"><title>Node37&#45;&gt;Node38</title>
<path fill="none" stroke="midnightblue" d="M1429.09,-764.5C1438.7,-764.5 1448.56,-764.5 1458.3,-764.5"/>
<polygon fill="midnightblue" stroke="midnightblue" points="1458.39,-768 1468.39,-764.5 1458.39,-761 1458.39,-768"/>
</g>
<!-- Node39 -->
<g id="node39" class="node"><title>Node39</title>
<g id="a_node39"><a xlink:href="classUIElement.html#a63a26f6f553d4e5d6ce3c3050b39453d" target="_top" xlink:title="Get the position and the size of this ui element Gets the position and the size of this ui element...">
<polygon fill="none" stroke="black" points="1470,-717 1470,-736 1628,-736 1628,-717 1470,-717"/>
<text text-anchor="middle" x="1549" y="-724" font-family="Helvetica,sans-Serif" font-size="10.00">UIElement::getUiElementRect</text>
</a>
</g>
</g>
<!-- Node37&#45;&gt;Node39 -->
<g id="edge61" class="edge"><title>Node37&#45;&gt;Node39</title>
<path fill="none" stroke="midnightblue" d="M1399.33,-754.96C1426.23,-749.81 1459.64,-743.416 1487.96,-737.994"/>
<polygon fill="midnightblue" stroke="midnightblue" points="1488.98,-741.362 1498.15,-736.044 1487.67,-734.487 1488.98,-741.362"/>
</g>
<!-- Node40 -->
<g id="node40" class="node"><title>Node40</title>
<g id="a_node40"><a xlink:href="classUIElement.html#aa7f624963eaeb31043d74219ee24386c" target="_top" xlink:title="Checks if the mouse cursor is over the current UI Element Check if the coordinates match the ones sto...">
<polygon fill="none" stroke="black" points="1704.5,-736 1704.5,-755 1838.5,-755 1838.5,-736 1704.5,-736"/>
<text text-anchor="middle" x="1771.5" y="-743" font-family="Helvetica,sans-Serif" font-size="10.00">UIElement::isMouseOver</text>
</a>
</g>
</g>
<!-- Node39&#45;&gt;Node40 -->
<g id="edge62" class="edge"><title>Node39&#45;&gt;Node40</title>
<path fill="none" stroke="midnightblue" d="M1628.05,-733.225C1649.55,-735.078 1672.83,-737.084 1694.23,-738.928"/>
<polygon fill="midnightblue" stroke="midnightblue" points="1693.97,-742.419 1704.24,-739.79 1694.58,-735.445 1693.97,-742.419"/>
</g>
<!-- Node41 -->
<g id="node41" class="node"><title>Node41</title>
<g id="a_node41"><a xlink:href="classUIElement.html#a570841bf8b7970ca935b1a00e571036a" target="_top" xlink:title="Handling for the hovering event Check, if the mouse cursor is hovering over the element. virtual function to provide custom handling if necessary (e.g. Combobox) Per default, it&#39;s the same implementation as isMouseOver. ">
<polygon fill="none" stroke="black" points="1669,-698 1669,-717 1874,-717 1874,-698 1669,-698"/>
<text text-anchor="middle" x="1771.5" y="-705" font-family="Helvetica,sans-Serif" font-size="10.00">UIElement::isMouseOverHoverableArea</text>
</a>
</g>
</g>
<!-- Node39&#45;&gt;Node41 -->
<g id="edge63" class="edge"><title>Node39&#45;&gt;Node41</title>
<path fill="none" stroke="midnightblue" d="M1628.05,-719.775C1638.1,-718.909 1648.53,-718.01 1658.98,-717.109"/>
<polygon fill="midnightblue" stroke="midnightblue" points="1659.33,-720.592 1669,-716.246 1658.73,-713.618 1659.33,-720.592"/>
</g>
</g>
</svg>
        <g id="navigator" transform="translate(0 0)" fill="#404254">
                <rect fill="#f2f5e9" fill-opacity="0.5" stroke="#606060" stroke-width=".5" x="0" y="0" width="60" height="60"/>
                <use id="zoomplus" xlink:href="#zoomPlus" x="17" y="9" onmousedown="handleZoom(evt,'in')"/>
                <use id="zoomminus" xlink:href="#zoomMin" x="42" y="9" onmousedown="handleZoom(evt,'out')"/>
                <use id="reset" xlink:href="#resetDef" x="30" y="36" onmousedown="handleReset()"/>
                <g id="arrowUp" xlink:href="#dirArrow" transform="translate(30 24)" onmousedown="handlePan(0,-1)">
                  <use xlink:href="#rim" fill="#404040">
                        <set attributeName="fill" to="#808080" begin="arrowUp.mouseover" end="arrowUp.mouseout"/>
                  </use>
                  <path fill="none" stroke="white" stroke-width="1.5" d="M0,-3.0v7 M-2.5,-0.5L0,-3.0L2.5,-0.5"/>
                </g>
                <g id="arrowRight" xlink:href="#dirArrow" transform="rotate(90) translate(36 -43)" onmousedown="handlePan(1,0)">
                  <use xlink:href="#rim" fill="#404040">
                        <set attributeName="fill" to="#808080" begin="arrowRight.mouseover" end="arrowRight.mouseout"/>
                  </use>
                  <path fill="none" stroke="white" stroke-width="1.5" d="M0,-3.0v7 M-2.5,-0.5L0,-3.0L2.5,-0.5"/>
                </g>
                <g id="arrowDown" xlink:href="#dirArrow" transform="rotate(180) translate(-30 -48)" onmousedown="handlePan(0,1)">
                  <use xlink:href="#rim" fill="#404040">
                        <set attributeName="fill" to="#808080" begin="arrowDown.mouseover" end="arrowDown.mouseout"/>
                  </use>
                  <path fill="none" stroke="white" stroke-width="1.5" d="M0,-3.0v7 M-2.5,-0.5L0,-3.0L2.5,-0.5"/>
                </g>
                <g id="arrowLeft" xlink:href="#dirArrow" transform="rotate(270) translate(-36 17)" onmousedown="handlePan(-1,0)">
                  <use xlink:href="#rim" fill="#404040">
                        <set attributeName="fill" to="#808080" begin="arrowLeft.mouseover" end="arrowLeft.mouseout"/>
                  </use>
                  <path fill="none" stroke="white" stroke-width="1.5" d="M0,-3.0v7 M-2.5,-0.5L0,-3.0L2.5,-0.5"/>
                </g>
        </g>
        <svg viewBox="0 0 15 15" width="100%" height="30px" preserveAspectRatio="xMaxYMin meet">
         <g id="arrow_out" transform="scale(0.3 0.3)">
          <a xlink:href="classUIManager_aa78e356fc3b356d790c848319d1c387e_cgraph_org.svg" target="_base">
           <rect id="button" ry="5" rx="5" y="6" x="6" height="38" width="38"
                fill="#f2f5e9" fill-opacity="0.5" stroke="#606060" stroke-width="1.0"/>
           <path id="arrow"
             d="M 11.500037,31.436501 C 11.940474,20.09759 22.043105,11.32322 32.158766,21.979434 L 37.068811,17.246167 C 37.068811,17.246167 37.088388,32 37.088388,32 L 22.160133,31.978069 C 22.160133,31.978069 26.997745,27.140456 26.997745,27.140456 C 18.528582,18.264221 13.291696,25.230495 11.500037,31.436501 z"
             style="fill:#404040;"/>
          </a>
         </g>
        </svg>
</svg>
