<?xml version="1.0" encoding="UTF-8" standalone="no"?>
<!DOCTYPE svg PUBLIC "-//W3C//DTD SVG 1.1//EN"
 "http://www.w3.org/Graphics/SVG/1.1/DTD/svg11.dtd">
<!-- Generated by graphviz version 2.38.0 (20140413.2041)
 -->
<!-- Title: ComboBox::addElement Pages: 1 -->
<svg width="751pt" height="39pt"
 viewBox="0.00 0.00 751.00 39.00" xmlns="http://www.w3.org/2000/svg" xmlns:xlink="http://www.w3.org/1999/xlink">
<g id="graph0" class="graph" transform="scale(1 1) rotate(0) translate(4 35)">
<title>ComboBox::addElement</title>
<!-- Node1 -->
<g id="node1" class="node"><title>Node1</title>
<polygon fill="#bfbfbf" stroke="black" points="0,-6 0,-25 133,-25 133,-6 0,-6"/>
<text text-anchor="middle" x="66.5" y="-13" font-family="Helvetica,sans-Serif" font-size="10.00">ComboBox::addElement</text>
</g>
<!-- Node2 -->
<g id="node2" class="node"><title>Node2</title>
<g id="a_node2"><a xlink:href="classUIManager.html#a5c4cb8e02504ffa0d3faf45181feab9d" target="_top" xlink:title="Fill UI Widgets whose ID start with a $ with data Used for filling widgets with data, like BuildMenu Position combobox, Screen Resolution ComboBox and so on. ">
<polygon fill="none" stroke="black" points="169,-0.5 169,-30.5 309,-30.5 309,-0.5 169,-0.5"/>
<text text-anchor="start" x="177" y="-18.5" font-family="Helvetica,sans-Serif" font-size="10.00">UIManager::initializeDollar</text>
<text text-anchor="middle" x="239" y="-7.5" font-family="Helvetica,sans-Serif" font-size="10.00">Variables</text>
</a>
</g>
</g>
<!-- Node1&#45;&gt;Node2 -->
<g id="edge1" class="edge"><title>Node1&#45;&gt;Node2</title>
<path fill="none" stroke="midnightblue" d="M143.601,-15.5C152.015,-15.5 160.549,-15.5 168.87,-15.5"/>
<polygon fill="midnightblue" stroke="midnightblue" points="143.42,-12.0001 133.42,-15.5 143.42,-19.0001 143.42,-12.0001"/>
</g>
<!-- Node3 -->
<g id="node3" class="node"><title>Node3</title>
<g id="a_node3"><a xlink:href="classUIManager.html#aedd9d0577af515a852425dfe414b2968" target="_top" xlink:title="Parses the UiLayout.json files and creates UI Elements. ">
<polygon fill="none" stroke="black" points="345,-6 345,-25 434,-25 434,-6 345,-6"/>
<text text-anchor="middle" x="389.5" y="-13" font-family="Helvetica,sans-Serif" font-size="10.00">UIManager::init</text>
</a>
</g>
</g>
<!-- Node2&#45;&gt;Node3 -->
<g id="edge2" class="edge"><title>Node2&#45;&gt;Node3</title>
<path fill="none" stroke="midnightblue" d="M319.274,-15.5C327.985,-15.5 336.604,-15.5 344.648,-15.5"/>
<polygon fill="midnightblue" stroke="midnightblue" points="319.033,-12.0001 309.033,-15.5 319.033,-19.0001 319.033,-12.0001"/>
</g>
<!-- Node4 -->
<g id="node4" class="node"><title>Node4</title>
<g id="a_node4"><a xlink:href="classGame.html#a1c2ab25d5216b2f4b2fe41efd2c09114" target="_top" xlink:title="Game::run">
<polygon fill="none" stroke="black" points="470,-6 470,-25 538,-25 538,-6 470,-6"/>
<text text-anchor="middle" x="504" y="-13" font-family="Helvetica,sans-Serif" font-size="10.00">Game::run</text>
</a>
</g>
</g>
<!-- Node3&#45;&gt;Node4 -->
<g id="edge3" class="edge"><title>Node3&#45;&gt;Node4</title>
<path fill="none" stroke="midnightblue" d="M444.446,-15.5C453.145,-15.5 461.918,-15.5 469.931,-15.5"/>
<polygon fill="midnightblue" stroke="midnightblue" points="444.318,-12.0001 434.318,-15.5 444.318,-19.0001 444.318,-12.0001"/>
</g>
<!-- Node5 -->
<g id="node5" class="node"><title>Node5</title>
<g id="a_node5"><a xlink:href="main_8cxx.html#af582d708d899e67ead623eac34a22387" target="_top" xlink:title="protected_main">
<polygon fill="none" stroke="black" points="574,-6 574,-25 666,-25 666,-6 574,-6"/>
<text text-anchor="middle" x="620" y="-13" font-family="Helvetica,sans-Serif" font-size="10.00">protected_main</text>
</a>
</g>
</g>
<!-- Node4&#45;&gt;Node5 -->
<g id="edge4" class="edge"><title>Node4&#45;&gt;Node5</title>
<path fill="none" stroke="midnightblue" d="M548.44,-15.5C556.674,-15.5 565.308,-15.5 573.601,-15.5"/>
<polygon fill="midnightblue" stroke="midnightblue" points="548.28,-12.0001 538.28,-15.5 548.28,-19.0001 548.28,-12.0001"/>
</g>
<!-- Node6 -->
<g id="node6" class="node"><title>Node6</title>
<g id="a_node6"><a xlink:href="main_8cxx.html#a3c04138a5bfe5d72780bb7e82a18e627" target="_top" xlink:title="main">
<polygon fill="none" stroke="black" points="702,-6 702,-25 743,-25 743,-6 702,-6"/>
<text text-anchor="middle" x="722.5" y="-13" font-family="Helvetica,sans-Serif" font-size="10.00">main</text>
</a>
</g>
</g>
<!-- Node5&#45;&gt;Node6 -->
<g id="edge5" class="edge"><title>Node5&#45;&gt;Node6</title>
<path fill="none" stroke="midnightblue" d="M676.539,-15.5C685.619,-15.5 694.466,-15.5 701.877,-15.5"/>
<polygon fill="midnightblue" stroke="midnightblue" points="676.252,-12.0001 666.252,-15.5 676.252,-19.0001 676.252,-12.0001"/>
</g>
</g>
</svg>
