<?xml version="1.0" encoding="UTF-8" standalone="no"?>
<!DOCTYPE svg PUBLIC "-//W3C//DTD SVG 1.1//EN"
 "http://www.w3.org/Graphics/SVG/1.1/DTD/svg11.dtd">
<!-- Generated by graphviz version 2.38.0 (20140413.2041)
 -->
<!-- Title: UIElement::isVisible Pages: 1 -->
<svg width="335pt" height="104pt"
 viewBox="0.00 0.00 335.00 104.00" xmlns="http://www.w3.org/2000/svg" xmlns:xlink="http://www.w3.org/1999/xlink">
<g id="graph0" class="graph" transform="scale(1 1) rotate(0) translate(4 100)">
<title>UIElement::isVisible</title>
<!-- Node1 -->
<g id="node1" class="node"><title>Node1</title>
<polygon fill="#bfbfbf" stroke="black" points="0,-38.5 0,-57.5 110,-57.5 110,-38.5 0,-38.5"/>
<text text-anchor="middle" x="55" y="-45.5" font-family="Helvetica,sans-Serif" font-size="10.00">UIElement::isVisible</text>
</g>
<!-- Node2 -->
<g id="node2" class="node"><title>Node2</title>
<g id="a_node2"><a xlink:href="classText.html#a8f486a54a21fafc7a5dfb75975f1621f" target="_top" xlink:title="implements draw function. Renders the SDL_Texture generated from the TTF. ">
<polygon fill="none" stroke="black" points="156.5,-76.5 156.5,-95.5 220.5,-95.5 220.5,-76.5 156.5,-76.5"/>
<text text-anchor="middle" x="188.5" y="-83.5" font-family="Helvetica,sans-Serif" font-size="10.00">Text::draw</text>
</a>
</g>
</g>
<!-- Node1&#45;&gt;Node2 -->
<g id="edge1" class="edge"><title>Node1&#45;&gt;Node2</title>
<path fill="none" stroke="midnightblue" d="M98.9256,-60.4043C117.575,-65.7934 139.02,-71.9906 156.138,-76.9373"/>
<polygon fill="midnightblue" stroke="midnightblue" points="99.7616,-57.0028 89.183,-57.589 97.8183,-63.7276 99.7616,-57.0028"/>
</g>
<!-- Node4 -->
<g id="node4" class="node"><title>Node4</title>
<g id="a_node4"><a xlink:href="classTextField.html#ad5c415ddf2b231d7940dc3cd06f8a068" target="_top" xlink:title="Draw the UI Element and/or render it&#39;s textures to the screen Renders the texture of the Ui Element...">
<polygon fill="none" stroke="black" points="146,-38.5 146,-57.5 231,-57.5 231,-38.5 146,-38.5"/>
<text text-anchor="middle" x="188.5" y="-45.5" font-family="Helvetica,sans-Serif" font-size="10.00">TextField::draw</text>
</a>
</g>
</g>
<!-- Node1&#45;&gt;Node4 -->
<g id="edge3" class="edge"><title>Node1&#45;&gt;Node4</title>
<path fill="none" stroke="midnightblue" d="M120.361,-48C129.021,-48 137.713,-48 145.836,-48"/>
<polygon fill="midnightblue" stroke="midnightblue" points="120.245,-44.5001 110.245,-48 120.245,-51.5001 120.245,-44.5001"/>
</g>
<!-- Node5 -->
<g id="node5" class="node"><title>Node5</title>
<g id="a_node5"><a xlink:href="classTooltip.html#af6075fc45363e3072fd532f7a1bf1376" target="_top" xlink:title="implements draw function. Renders the SDL_Texture generated from the TTF. ">
<polygon fill="none" stroke="black" points="151,-0.5 151,-19.5 226,-19.5 226,-0.5 151,-0.5"/>
<text text-anchor="middle" x="188.5" y="-7.5" font-family="Helvetica,sans-Serif" font-size="10.00">Tooltip::draw</text>
</a>
</g>
</g>
<!-- Node1&#45;&gt;Node5 -->
<g id="edge4" class="edge"><title>Node1&#45;&gt;Node5</title>
<path fill="none" stroke="midnightblue" d="M98.8778,-35.6094C116.886,-30.4055 137.51,-24.4459 154.328,-19.5859"/>
<polygon fill="midnightblue" stroke="midnightblue" points="97.8183,-32.2724 89.183,-38.411 99.7616,-38.9972 97.8183,-32.2724"/>
</g>
<!-- Node3 -->
<g id="node3" class="node"><title>Node3</title>
<g id="a_node3"><a xlink:href="classText.html#ab3e26143fccc52699bcc5149cae852bc" target="_top" xlink:title="default Constructor ">
<polygon fill="none" stroke="black" points="267,-76.5 267,-95.5 327,-95.5 327,-76.5 267,-76.5"/>
<text text-anchor="middle" x="297" y="-83.5" font-family="Helvetica,sans-Serif" font-size="10.00">Text::Text</text>
</a>
</g>
</g>
<!-- Node2&#45;&gt;Node3 -->
<g id="edge2" class="edge"><title>Node2&#45;&gt;Node3</title>
<path fill="none" stroke="midnightblue" d="M230.874,-86C242.9,-86 255.777,-86 266.88,-86"/>
<polygon fill="midnightblue" stroke="midnightblue" points="230.591,-82.5001 220.591,-86 230.59,-89.5001 230.591,-82.5001"/>
</g>
</g>
</svg>
