<?xml version="1.0" encoding="UTF-8" standalone="no"?>
<!DOCTYPE svg PUBLIC "-//W3C//DTD SVG 1.1//EN"
 "http://www.w3.org/Graphics/SVG/1.1/DTD/svg11.dtd">
<!-- Generated by graphviz version 2.38.0 (20140413.2041)
 -->
<!-- Title: Text::setText Pages: 1 -->
<svg width="426pt" height="142pt"
 viewBox="0.00 0.00 426.00 142.00" xmlns="http://www.w3.org/2000/svg" xmlns:xlink="http://www.w3.org/1999/xlink">
<g id="graph0" class="graph" transform="scale(1 1) rotate(0) translate(4 138)">
<title>Text::setText</title>
<!-- Node1 -->
<g id="node1" class="node"><title>Node1</title>
<polygon fill="#bfbfbf" stroke="black" points="0,-57.5 0,-76.5 75,-76.5 75,-57.5 0,-57.5"/>
<text text-anchor="middle" x="37.5" y="-64.5" font-family="Helvetica,sans-Serif" font-size="10.00">Text::setText</text>
</g>
<!-- Node2 -->
<g id="node2" class="node"><title>Node2</title>
<g id="a_node2"><a xlink:href="classText.html#a398a47abd355749d9e99bf74aa6a4a8d" target="_top" xlink:title="Sets the Font size of this element. ">
<polygon fill="none" stroke="black" points="113,-114.5 113,-133.5 211,-133.5 211,-114.5 113,-114.5"/>
<text text-anchor="middle" x="162" y="-121.5" font-family="Helvetica,sans-Serif" font-size="10.00">Text::setFontSize</text>
</a>
</g>
</g>
<!-- Node1&#45;&gt;Node2 -->
<g id="edge1" class="edge"><title>Node1&#45;&gt;Node2</title>
<path fill="none" stroke="midnightblue" d="M68.3665,-80.8971C90.7176,-91.2972 120.708,-105.252 140.429,-114.428"/>
<polygon fill="midnightblue" stroke="midnightblue" points="69.5469,-77.586 59.0037,-76.5405 66.5937,-83.9326 69.5469,-77.586"/>
</g>
<!-- Node3 -->
<g id="node3" class="node"><title>Node3</title>
<g id="a_node3"><a xlink:href="classText.html#ab3e26143fccc52699bcc5149cae852bc" target="_top" xlink:title="default Constructor ">
<polygon fill="none" stroke="black" points="265,-95.5 265,-114.5 325,-114.5 325,-95.5 265,-95.5"/>
<text text-anchor="middle" x="295" y="-102.5" font-family="Helvetica,sans-Serif" font-size="10.00">Text::Text</text>
</a>
</g>
</g>
<!-- Node1&#45;&gt;Node3 -->
<g id="edge3" class="edge"><title>Node1&#45;&gt;Node3</title>
<path fill="none" stroke="midnightblue" d="M85.1619,-73.9399C137.615,-81.7411 221.156,-94.1661 264.988,-100.685"/>
<polygon fill="midnightblue" stroke="midnightblue" points="85.513,-70.4537 75.1069,-72.4445 84.4832,-77.3776 85.513,-70.4537"/>
</g>
<!-- Node4 -->
<g id="node4" class="node"><title>Node4</title>
<g id="a_node4"><a xlink:href="classTextField.html#abe03b4b6ebf469645940cfa018bcdca2" target="_top" xlink:title="TextField::addText">
<polygon fill="none" stroke="black" points="112.5,-38.5 112.5,-57.5 211.5,-57.5 211.5,-38.5 112.5,-38.5"/>
<text text-anchor="middle" x="162" y="-45.5" font-family="Helvetica,sans-Serif" font-size="10.00">TextField::addText</text>
</a>
</g>
</g>
<!-- Node1&#45;&gt;Node4 -->
<g id="edge4" class="edge"><title>Node1&#45;&gt;Node4</title>
<path fill="none" stroke="midnightblue" d="M85.4157,-59.7233C94.2788,-58.3486 103.566,-56.9081 112.478,-55.5259"/>
<polygon fill="midnightblue" stroke="midnightblue" points="84.5994,-56.308 75.254,-61.2994 85.6724,-63.2252 84.5994,-56.308"/>
</g>
<!-- Node5 -->
<g id="node5" class="node"><title>Node5</title>
<g id="a_node5"><a xlink:href="classGame.html#a5ed7fc5be77080f7f6dd5363f7f007a1" target="_top" xlink:title="Game::mainMenu">
<polygon fill="none" stroke="black" points="111,-0.5 111,-19.5 213,-19.5 213,-0.5 111,-0.5"/>
<text text-anchor="middle" x="162" y="-7.5" font-family="Helvetica,sans-Serif" font-size="10.00">Game::mainMenu</text>
</a>
</g>
</g>
<!-- Node1&#45;&gt;Node5 -->
<g id="edge5" class="edge"><title>Node1&#45;&gt;Node5</title>
<path fill="none" stroke="midnightblue" d="M64.3442,-52.4915C78.019,-45.0618 95.2066,-36.109 111,-29 118.367,-25.6839 126.501,-22.4273 134.031,-19.5728"/>
<polygon fill="midnightblue" stroke="midnightblue" points="62.5782,-49.4683 55.4985,-57.3505 65.9484,-55.6036 62.5782,-49.4683"/>
</g>
<!-- Node2&#45;&gt;Node3 -->
<g id="edge2" class="edge"><title>Node2&#45;&gt;Node3</title>
<path fill="none" stroke="midnightblue" d="M221.3,-115.544C236.301,-113.369 251.812,-111.119 264.634,-109.259"/>
<polygon fill="midnightblue" stroke="midnightblue" points="220.43,-112.134 211.036,-117.033 221.435,-119.061 220.43,-112.134"/>
</g>
<!-- Node6 -->
<g id="node6" class="node"><title>Node6</title>
<g id="a_node6"><a xlink:href="main_8cxx.html#af582d708d899e67ead623eac34a22387" target="_top" xlink:title="protected_main">
<polygon fill="none" stroke="black" points="249,-0.5 249,-19.5 341,-19.5 341,-0.5 249,-0.5"/>
<text text-anchor="middle" x="295" y="-7.5" font-family="Helvetica,sans-Serif" font-size="10.00">protected_main</text>
</a>
</g>
</g>
<!-- Node5&#45;&gt;Node6 -->
<g id="edge6" class="edge"><title>Node5&#45;&gt;Node6</title>
<path fill="none" stroke="midnightblue" d="M223.543,-10C232.039,-10 240.647,-10 248.791,-10"/>
<polygon fill="midnightblue" stroke="midnightblue" points="223.273,-6.5001 213.273,-10 223.273,-13.5001 223.273,-6.5001"/>
</g>
<!-- Node7 -->
<g id="node7" class="node"><title>Node7</title>
<g id="a_node7"><a xlink:href="main_8cxx.html#a3c04138a5bfe5d72780bb7e82a18e627" target="_top" xlink:title="main">
<polygon fill="none" stroke="black" points="377,-0.5 377,-19.5 418,-19.5 418,-0.5 377,-0.5"/>
<text text-anchor="middle" x="397.5" y="-7.5" font-family="Helvetica,sans-Serif" font-size="10.00">main</text>
</a>
</g>
</g>
<!-- Node6&#45;&gt;Node7 -->
<g id="edge7" class="edge"><title>Node6&#45;&gt;Node7</title>
<path fill="none" stroke="midnightblue" d="M351.539,-10C360.619,-10 369.466,-10 376.877,-10"/>
<polygon fill="midnightblue" stroke="midnightblue" points="351.252,-6.5001 341.252,-10 351.252,-13.5001 351.252,-6.5001"/>
</g>
</g>
</svg>
