<?xml version="1.0" encoding="UTF-8" standalone="no"?>
<!DOCTYPE svg PUBLIC "-//W3C//DTD SVG 1.1//EN"
 "http://www.w3.org/Graphics/SVG/1.1/DTD/svg11.dtd">
<!-- Generated by graphviz version 2.38.0 (20140413.2041)
 -->
<!-- Title: Tooltip::startTimer Pages: 1 -->
<svg width="462pt" height="88pt"
 viewBox="0.00 0.00 462.00 88.00" xmlns="http://www.w3.org/2000/svg" xmlns:xlink="http://www.w3.org/1999/xlink">
<g id="graph0" class="graph" transform="scale(1 1) rotate(0) translate(4 84)">
<title>Tooltip::startTimer</title>
<!-- Node1 -->
<g id="node1" class="node"><title>Node1</title>
<polygon fill="#bfbfbf" stroke="black" points="0,-41.5 0,-60.5 102,-60.5 102,-41.5 0,-41.5"/>
<text text-anchor="middle" x="51" y="-48.5" font-family="Helvetica,sans-Serif" font-size="10.00">Tooltip::startTimer</text>
</g>
<!-- Node2 -->
<g id="node2" class="node"><title>Node2</title>
<g id="a_node2"><a xlink:href="classUIElement.html#a440d645aa10dbf7d3c763ba6e1fc33a6" target="_top" xlink:title="Sets the UI Elements visibility. Set the UI Elements visibility. ">
<polygon fill="none" stroke="black" points="138,-60.5 138,-79.5 263,-79.5 263,-60.5 138,-60.5"/>
<text text-anchor="middle" x="200.5" y="-67.5" font-family="Helvetica,sans-Serif" font-size="10.00">UIElement::setVisibility</text>
</a>
</g>
</g>
<!-- Node1&#45;&gt;Node2 -->
<g id="edge1" class="edge"><title>Node1&#45;&gt;Node2</title>
<path fill="none" stroke="midnightblue" d="M102.349,-57.4856C110.566,-58.5441 119.217,-59.6584 127.829,-60.7678"/>
<polygon fill="midnightblue" stroke="midnightblue" points="127.529,-64.258 137.894,-62.0643 128.423,-57.3153 127.529,-64.258"/>
</g>
<!-- Node3 -->
<g id="node3" class="node"><title>Node3</title>
<g id="a_node3"><a xlink:href="classTimer.html#a3a8b5272198d029779dc9302a54305a8" target="_top" xlink:title="Start / Reset the timer Starts or restarts the timer. If the timer is already running, it will be stopped and restarted. ">
<polygon fill="none" stroke="black" points="164.5,-22.5 164.5,-41.5 236.5,-41.5 236.5,-22.5 164.5,-22.5"/>
<text text-anchor="middle" x="200.5" y="-29.5" font-family="Helvetica,sans-Serif" font-size="10.00">Timer::start</text>
</a>
</g>
</g>
<!-- Node1&#45;&gt;Node3 -->
<g id="edge2" class="edge"><title>Node1&#45;&gt;Node3</title>
<path fill="none" stroke="midnightblue" d="M102.349,-44.5144C119.053,-42.3627 137.544,-39.9808 153.872,-37.8775"/>
<polygon fill="midnightblue" stroke="midnightblue" points="154.778,-41.2898 164.249,-36.5408 153.884,-34.3471 154.778,-41.2898"/>
</g>
<!-- Node4 -->
<g id="node4" class="node"><title>Node4</title>
<g id="a_node4"><a xlink:href="classSingleton.html#af5cb1e5749949e2b68416cfb8d378044" target="_top" xlink:title="Get an instance of the singleton. ">
<polygon fill="none" stroke="black" points="305.5,-39 305.5,-69 447.5,-69 447.5,-39 305.5,-39"/>
<text text-anchor="start" x="313.5" y="-57" font-family="Helvetica,sans-Serif" font-size="10.00">Singleton&lt; EventManager</text>
<text text-anchor="middle" x="376.5" y="-46" font-family="Helvetica,sans-Serif" font-size="10.00"> &gt;::instance</text>
</a>
</g>
</g>
<!-- Node3&#45;&gt;Node4 -->
<g id="edge3" class="edge"><title>Node3&#45;&gt;Node4</title>
<path fill="none" stroke="midnightblue" d="M236.711,-36.452C253.694,-38.5992 274.816,-41.2698 295.417,-43.8745"/>
<polygon fill="midnightblue" stroke="midnightblue" points="295.108,-47.3633 305.468,-45.1454 295.986,-40.4185 295.108,-47.3633"/>
</g>
<!-- Node5 -->
<g id="node5" class="node"><title>Node5</title>
<g id="a_node5"><a xlink:href="classEventManager.html#a6b80b0ed9a39bf7c1978fb6707cacd06" target="_top" xlink:title="EventManager::registerTimer">
<polygon fill="none" stroke="black" points="299,-0.5 299,-19.5 454,-19.5 454,-0.5 299,-0.5"/>
<text text-anchor="middle" x="376.5" y="-7.5" font-family="Helvetica,sans-Serif" font-size="10.00">EventManager::registerTimer</text>
</a>
</g>
</g>
<!-- Node3&#45;&gt;Node5 -->
<g id="edge4" class="edge"><title>Node3&#45;&gt;Node5</title>
<path fill="none" stroke="midnightblue" d="M236.711,-27.548C252.2,-25.5897 271.131,-23.1961 289.97,-20.8141"/>
<polygon fill="midnightblue" stroke="midnightblue" points="290.616,-24.2604 300.098,-19.5336 289.738,-17.3157 290.616,-24.2604"/>
</g>
</g>
</svg>
