<?xml version="1.0" encoding="UTF-8" standalone="no"?>
<!DOCTYPE svg PUBLIC "-//W3C//DTD SVG 1.1//EN"
 "http://www.w3.org/Graphics/SVG/1.1/DTD/svg11.dtd">
<!-- Generated by graphviz version 2.38.0 (20140413.2041)
 -->
<!-- Title: TileManager::getAllTileData Pages: 1 -->
<svg width="797pt" height="66pt"
 viewBox="0.00 0.00 797.00 66.00" xmlns="http://www.w3.org/2000/svg" xmlns:xlink="http://www.w3.org/1999/xlink">
<g id="graph0" class="graph" transform="scale(1 1) rotate(0) translate(4 62)">
<title>TileManager::getAllTileData</title>
<!-- Node1 -->
<g id="node1" class="node"><title>Node1</title>
<polygon fill="#bfbfbf" stroke="black" points="0,-19.5 0,-38.5 146,-38.5 146,-19.5 0,-19.5"/>
<text text-anchor="middle" x="73" y="-26.5" font-family="Helvetica,sans-Serif" font-size="10.00">TileManager::getAllTileData</text>
</g>
<!-- Node2 -->
<g id="node2" class="node"><title>Node2</title>
<g id="a_node2"><a xlink:href="classMenuGroupBuild.html#afe78eacb71e9b5ebe9adaae92c0378cc" target="_top" xlink:title="MenuGroupBuild::constructMenu">
<polygon fill="none" stroke="black" points="182,-38.5 182,-57.5 355,-57.5 355,-38.5 182,-38.5"/>
<text text-anchor="middle" x="268.5" y="-45.5" font-family="Helvetica,sans-Serif" font-size="10.00">MenuGroupBuild::constructMenu</text>
</a>
</g>
</g>
<!-- Node1&#45;&gt;Node2 -->
<g id="edge1" class="edge"><title>Node1&#45;&gt;Node2</title>
<path fill="none" stroke="midnightblue" d="M156.04,-37.0557C164.625,-37.8986 173.368,-38.7571 181.99,-39.6037"/>
<polygon fill="midnightblue" stroke="midnightblue" points="156.346,-33.569 146.052,-36.0749 155.662,-40.5354 156.346,-33.569"/>
</g>
<!-- Node3 -->
<g id="node3" class="node"><title>Node3</title>
<g id="a_node3"><a xlink:href="classUIManager.html#aae7a89e9d50bb6192e4140e07bd5f94b" target="_top" xlink:title="UIManager::createBuildMenu">
<polygon fill="none" stroke="black" points="191,-0.5 191,-19.5 346,-19.5 346,-0.5 191,-0.5"/>
<text text-anchor="middle" x="268.5" y="-7.5" font-family="Helvetica,sans-Serif" font-size="10.00">UIManager::createBuildMenu</text>
</a>
</g>
</g>
<!-- Node1&#45;&gt;Node3 -->
<g id="edge2" class="edge"><title>Node1&#45;&gt;Node3</title>
<path fill="none" stroke="midnightblue" d="M156.092,-20.9393C167.619,-19.8075 179.43,-18.6477 190.85,-17.5264"/>
<polygon fill="midnightblue" stroke="midnightblue" points="155.662,-17.4646 146.052,-21.9251 156.346,-24.431 155.662,-17.4646"/>
</g>
<!-- Node4 -->
<g id="node4" class="node"><title>Node4</title>
<g id="a_node4"><a xlink:href="classUIManager.html#aedd9d0577af515a852425dfe414b2968" target="_top" xlink:title="Parses the UiLayout.json files and creates UI Elements. ">
<polygon fill="none" stroke="black" points="391,-0.5 391,-19.5 480,-19.5 480,-0.5 391,-0.5"/>
<text text-anchor="middle" x="435.5" y="-7.5" font-family="Helvetica,sans-Serif" font-size="10.00">UIManager::init</text>
</a>
</g>
</g>
<!-- Node3&#45;&gt;Node4 -->
<g id="edge3" class="edge"><title>Node3&#45;&gt;Node4</title>
<path fill="none" stroke="midnightblue" d="M356.271,-10C368.249,-10 380.107,-10 390.831,-10"/>
<polygon fill="midnightblue" stroke="midnightblue" points="356.204,-6.5001 346.203,-10 356.203,-13.5001 356.204,-6.5001"/>
</g>
<!-- Node5 -->
<g id="node5" class="node"><title>Node5</title>
<g id="a_node5"><a xlink:href="classGame.html#a1c2ab25d5216b2f4b2fe41efd2c09114" target="_top" xlink:title="Game::run">
<polygon fill="none" stroke="black" points="516,-0.5 516,-19.5 584,-19.5 584,-0.5 516,-0.5"/>
<text text-anchor="middle" x="550" y="-7.5" font-family="Helvetica,sans-Serif" font-size="10.00">Game::run</text>
</a>
</g>
</g>
<!-- Node4&#45;&gt;Node5 -->
<g id="edge4" class="edge"><title>Node4&#45;&gt;Node5</title>
<path fill="none" stroke="midnightblue" d="M490.446,-10C499.145,-10 507.918,-10 515.931,-10"/>
<polygon fill="midnightblue" stroke="midnightblue" points="490.318,-6.5001 480.318,-10 490.318,-13.5001 490.318,-6.5001"/>
</g>
<!-- Node6 -->
<g id="node6" class="node"><title>Node6</title>
<g id="a_node6"><a xlink:href="main_8cxx.html#af582d708d899e67ead623eac34a22387" target="_top" xlink:title="protected_main">
<polygon fill="none" stroke="black" points="620,-0.5 620,-19.5 712,-19.5 712,-0.5 620,-0.5"/>
<text text-anchor="middle" x="666" y="-7.5" font-family="Helvetica,sans-Serif" font-size="10.00">protected_main</text>
</a>
</g>
</g>
<!-- Node5&#45;&gt;Node6 -->
<g id="edge5" class="edge"><title>Node5&#45;&gt;Node6</title>
<path fill="none" stroke="midnightblue" d="M594.44,-10C602.674,-10 611.308,-10 619.601,-10"/>
<polygon fill="midnightblue" stroke="midnightblue" points="594.28,-6.5001 584.28,-10 594.28,-13.5001 594.28,-6.5001"/>
</g>
<!-- Node7 -->
<g id="node7" class="node"><title>Node7</title>
<g id="a_node7"><a xlink:href="main_8cxx.html#a3c04138a5bfe5d72780bb7e82a18e627" target="_top" xlink:title="main">
<polygon fill="none" stroke="black" points="748,-0.5 748,-19.5 789,-19.5 789,-0.5 748,-0.5"/>
<text text-anchor="middle" x="768.5" y="-7.5" font-family="Helvetica,sans-Serif" font-size="10.00">main</text>
</a>
</g>
</g>
<!-- Node6&#45;&gt;Node7 -->
<g id="edge6" class="edge"><title>Node6&#45;&gt;Node7</title>
<path fill="none" stroke="midnightblue" d="M722.539,-10C731.619,-10 740.466,-10 747.877,-10"/>
<polygon fill="midnightblue" stroke="midnightblue" points="722.252,-6.5001 712.252,-10 722.252,-13.5001 722.252,-6.5001"/>
</g>
</g>
</svg>
