<?xml version="1.0" encoding="UTF-8" standalone="no"?>
<!DOCTYPE svg PUBLIC "-//W3C//DTD SVG 1.1//EN"
 "http://www.w3.org/Graphics/SVG/1.1/DTD/svg11.dtd">
<!-- Generated by graphviz version 2.38.0 (20140413.2041)
 -->
<!-- Title: Button::checkState Pages: 1 -->
<!--zoomable 66 -->
<svg id="main" version="1.1" xmlns="http://www.w3.org/2000/svg" xmlns:xlink="http://www.w3.org/1999/xlink" xml:space="preserve" onload="init(evt)">
<style type="text/css"><![CDATA[
.edge:hover path { stroke: red; }
.edge:hover polygon { stroke: red; fill: red; }
]]></style>
<script type="text/javascript"><![CDATA[
var edges = document.getElementsByTagName('g');
if (edges && edges.length) {
  for (var i=0;i<edges.length;i++) {
    if (edges[i].id.substr(0,4)=='edge') {
      edges[i].setAttribute('class','edge');
    }
  }
}
]]></script>
        <defs>
                <circle id="rim" cx="0" cy="0" r="7"/>
                <circle id="rim2" cx="0" cy="0" r="3.5"/>
                <g id="zoomPlus">
                        <use xlink:href="#rim" fill="#404040">
                                <set attributeName="fill" to="#808080" begin="zoomplus.mouseover" end="zoomplus.mouseout"/>
                        </use>
                        <path d="M-4,0h8M0,-4v8" fill="none" stroke="white" stroke-width="1.5" pointer-events="none"/>
                </g>
                <g id="zoomMin">
                        <use xlink:href="#rim" fill="#404040">
                                <set attributeName="fill" to="#808080" begin="zoomminus.mouseover" end="zoomminus.mouseout"/>
                        </use>
                        <path d="M-4,0h8" fill="none" stroke="white" stroke-width="1.5" pointer-events="none"/>
                </g>
                <g id="dirArrow">
                        <path fill="none" stroke="white" stroke-width="1.5" d="M0,-3.0v7 M-2.5,-0.5L0,-3.0L2.5,-0.5"/>
                </g>
               <g id="resetDef">
                       <use xlink:href="#rim2" fill="#404040">
                               <set attributeName="fill" to="#808080" begin="reset.mouseover" end="reset.mouseout"/>
                       </use>
               </g>
        </defs>

<script type="text/javascript">
var viewWidth = 1032;
var viewHeight = 66;
var sectionId = 'dynsection-4';
</script>
<script xlink:href="svgpan.js"/>
<svg id="graph" class="graph">
<g id="viewport">
<title>Button::checkState</title>
<!-- Node1 -->
<g id="node1" class="node"><title>Node1</title>
<polygon fill="#bfbfbf" stroke="black" points="0,-19.5 0,-38.5 109,-38.5 109,-19.5 0,-19.5"/>
<text text-anchor="middle" x="54.5" y="-26.5" font-family="Helvetica,sans-Serif" font-size="10.00">Button::checkState</text>
</g>
<!-- Node2 -->
<g id="node2" class="node"><title>Node2</title>
<g id="a_node2"><a xlink:href="classUIManager.html#a23bbbe53c18c31ff1c68c105dfa0dbd3" target="_top" xlink:title="Callback function for toggling the visibility of an UiGroup Callback function for Ui Widgets with the...">
<polygon fill="none" stroke="black" points="145,-38.5 145,-57.5 317,-57.5 317,-38.5 145,-38.5"/>
<text text-anchor="middle" x="231" y="-45.5" font-family="Helvetica,sans-Serif" font-size="10.00">UIManager::toggleGroupVisibility</text>
</a>
</g>
</g>
<!-- Node1&#45;&gt;Node2 -->
<g id="edge1" class="edge"><title>Node1&#45;&gt;Node2</title>
<path fill="none" stroke="midnightblue" d="M119.292,-35.9458C127.645,-36.8553 136.307,-37.7985 144.941,-38.7386"/>
<polygon fill="midnightblue" stroke="midnightblue" points="119.6,-32.4587 109.28,-34.8557 118.842,-39.4176 119.6,-32.4587"/>
</g>
<!-- Node7 -->
<g id="node7" class="node"><title>Node7</title>
<g id="a_node7"><a xlink:href="classUIManager.html#aa78e356fc3b356d790c848319d1c387e" target="_top" xlink:title="UIManager::setCallbackFunctions">
<polygon fill="none" stroke="black" points="353,-0.5 353,-19.5 527,-19.5 527,-0.5 353,-0.5"/>
<text text-anchor="middle" x="440" y="-7.5" font-family="Helvetica,sans-Serif" font-size="10.00">UIManager::setCallbackFunctions</text>
</a>
</g>
</g>
<!-- Node1&#45;&gt;Node7 -->
<g id="edge9" class="edge"><title>Node1&#45;&gt;Node7</title>
<path fill="none" stroke="midnightblue" d="M119.568,-25.8259C183.474,-22.6597 282.062,-17.7753 352.806,-14.2704"/>
<polygon fill="midnightblue" stroke="midnightblue" points="119.042,-22.3475 109.228,-26.3381 119.389,-29.3389 119.042,-22.3475"/>
</g>
<!-- Node3 -->
<g id="node3" class="node"><title>Node3</title>
<g id="a_node3"><a xlink:href="classEventManager.html#a65ec91fd5016d4f9c4167fb8babed2df" target="_top" xlink:title="EventManager::checkEvents">
<polygon fill="none" stroke="black" points="563,-38.5 563,-57.5 715,-57.5 715,-38.5 563,-38.5"/>
<text text-anchor="middle" x="639" y="-45.5" font-family="Helvetica,sans-Serif" font-size="10.00">EventManager::checkEvents</text>
</a>
</g>
</g>
<!-- Node2&#45;&gt;Node3 -->
<g id="edge2" class="edge"><title>Node2&#45;&gt;Node3</title>
<path fill="none" stroke="midnightblue" d="M327.526,-48C399.404,-48 496.542,-48 562.906,-48"/>
<polygon fill="midnightblue" stroke="midnightblue" points="327.111,-44.5001 317.111,-48 327.111,-51.5001 327.111,-44.5001"/>
</g>
<!-- Node2&#45;&gt;Node7 -->
<g id="edge6" class="edge"><title>Node2&#45;&gt;Node7</title>
<path fill="none" stroke="midnightblue" d="M293.811,-36.653C323.511,-31.2009 358.709,-24.7393 387.011,-19.5439"/>
<polygon fill="midnightblue" stroke="midnightblue" points="293.171,-33.2119 283.968,-38.46 294.435,-40.0969 293.171,-33.2119"/>
</g>
<!-- Node4 -->
<g id="node4" class="node"><title>Node4</title>
<g id="a_node4"><a xlink:href="classGame.html#a1c2ab25d5216b2f4b2fe41efd2c09114" target="_top" xlink:title="Game::run">
<polygon fill="none" stroke="black" points="751,-19.5 751,-38.5 819,-38.5 819,-19.5 751,-19.5"/>
<text text-anchor="middle" x="785" y="-26.5" font-family="Helvetica,sans-Serif" font-size="10.00">Game::run</text>
</a>
</g>
</g>
<!-- Node3&#45;&gt;Node4 -->
<g id="edge3" class="edge"><title>Node3&#45;&gt;Node4</title>
<path fill="none" stroke="midnightblue" d="M722.474,-37.118C732.464,-35.7999 742.179,-34.518 750.828,-33.3769"/>
<polygon fill="midnightblue" stroke="midnightblue" points="721.878,-33.6662 712.422,-38.4443 722.794,-40.6061 721.878,-33.6662"/>
</g>
<!-- Node5 -->
<g id="node5" class="node"><title>Node5</title>
<g id="a_node5"><a xlink:href="main_8cxx.html#af582d708d899e67ead623eac34a22387" target="_top" xlink:title="protected_main">
<polygon fill="none" stroke="black" points="855,-19.5 855,-38.5 947,-38.5 947,-19.5 855,-19.5"/>
<text text-anchor="middle" x="901" y="-26.5" font-family="Helvetica,sans-Serif" font-size="10.00">protected_main</text>
</a>
</g>
</g>
<!-- Node4&#45;&gt;Node5 -->
<g id="edge4" class="edge"><title>Node4&#45;&gt;Node5</title>
<path fill="none" stroke="midnightblue" d="M829.44,-29C837.674,-29 846.308,-29 854.601,-29"/>
<polygon fill="midnightblue" stroke="midnightblue" points="829.28,-25.5001 819.28,-29 829.28,-32.5001 829.28,-25.5001"/>
</g>
<!-- Node6 -->
<g id="node6" class="node"><title>Node6</title>
<g id="a_node6"><a xlink:href="main_8cxx.html#a3c04138a5bfe5d72780bb7e82a18e627" target="_top" xlink:title="main">
<polygon fill="none" stroke="black" points="983,-19.5 983,-38.5 1024,-38.5 1024,-19.5 983,-19.5"/>
<text text-anchor="middle" x="1003.5" y="-26.5" font-family="Helvetica,sans-Serif" font-size="10.00">main</text>
</a>
</g>
</g>
<!-- Node5&#45;&gt;Node6 -->
<g id="edge5" class="edge"><title>Node5&#45;&gt;Node6</title>
<path fill="none" stroke="midnightblue" d="M957.539,-29C966.619,-29 975.466,-29 982.877,-29"/>
<polygon fill="midnightblue" stroke="midnightblue" points="957.252,-25.5001 947.252,-29 957.252,-32.5001 957.252,-25.5001"/>
</g>
<!-- Node8 -->
<g id="node8" class="node"><title>Node8</title>
<g id="a_node8"><a xlink:href="classUIManager.html#aedd9d0577af515a852425dfe414b2968" target="_top" xlink:title="Parses the UiLayout.json files and creates UI Elements. ">
<polygon fill="none" stroke="black" points="594.5,-0.5 594.5,-19.5 683.5,-19.5 683.5,-0.5 594.5,-0.5"/>
<text text-anchor="middle" x="639" y="-7.5" font-family="Helvetica,sans-Serif" font-size="10.00">UIManager::init</text>
</a>
</g>
</g>
<!-- Node7&#45;&gt;Node8 -->
<g id="edge7" class="edge"><title>Node7&#45;&gt;Node8</title>
<path fill="none" stroke="midnightblue" d="M537.264,-10C557.329,-10 577.518,-10 594.498,-10"/>
<polygon fill="midnightblue" stroke="midnightblue" points="537.121,-6.5001 527.12,-10 537.12,-13.5001 537.121,-6.5001"/>
</g>
<!-- Node8&#45;&gt;Node4 -->
<g id="edge8" class="edge"><title>Node8&#45;&gt;Node4</title>
<path fill="none" stroke="midnightblue" d="M693.679,-17.0826C712.774,-19.6022 733.712,-22.3647 750.616,-24.5951"/>
<polygon fill="midnightblue" stroke="midnightblue" points="693.967,-13.5905 683.596,-15.7522 693.052,-20.5303 693.967,-13.5905"/>
</g>
</g>
</svg>
        <g id="navigator" transform="translate(0 0)" fill="#404254">
                <rect fill="#f2f5e9" fill-opacity="0.5" stroke="#606060" stroke-width=".5" x="0" y="0" width="60" height="60"/>
                <use id="zoomplus" xlink:href="#zoomPlus" x="17" y="9" onmousedown="handleZoom(evt,'in')"/>
                <use id="zoomminus" xlink:href="#zoomMin" x="42" y="9" onmousedown="handleZoom(evt,'out')"/>
                <use id="reset" xlink:href="#resetDef" x="30" y="36" onmousedown="handleReset()"/>
                <g id="arrowUp" xlink:href="#dirArrow" transform="translate(30 24)" onmousedown="handlePan(0,-1)">
                  <use xlink:href="#rim" fill="#404040">
                        <set attributeName="fill" to="#808080" begin="arrowUp.mouseover" end="arrowUp.mouseout"/>
                  </use>
                  <path fill="none" stroke="white" stroke-width="1.5" d="M0,-3.0v7 M-2.5,-0.5L0,-3.0L2.5,-0.5"/>
                </g>
                <g id="arrowRight" xlink:href="#dirArrow" transform="rotate(90) translate(36 -43)" onmousedown="handlePan(1,0)">
                  <use xlink:href="#rim" fill="#404040">
                        <set attributeName="fill" to="#808080" begin="arrowRight.mouseover" end="arrowRight.mouseout"/>
                  </use>
                  <path fill="none" stroke="white" stroke-width="1.5" d="M0,-3.0v7 M-2.5,-0.5L0,-3.0L2.5,-0.5"/>
                </g>
                <g id="arrowDown" xlink:href="#dirArrow" transform="rotate(180) translate(-30 -48)" onmousedown="handlePan(0,1)">
                  <use xlink:href="#rim" fill="#404040">
                        <set attributeName="fill" to="#808080" begin="arrowDown.mouseover" end="arrowDown.mouseout"/>
                  </use>
                  <path fill="none" stroke="white" stroke-width="1.5" d="M0,-3.0v7 M-2.5,-0.5L0,-3.0L2.5,-0.5"/>
                </g>
                <g id="arrowLeft" xlink:href="#dirArrow" transform="rotate(270) translate(-36 17)" onmousedown="handlePan(-1,0)">
                  <use xlink:href="#rim" fill="#404040">
                        <set attributeName="fill" to="#808080" begin="arrowLeft.mouseover" end="arrowLeft.mouseout"/>
                  </use>
                  <path fill="none" stroke="white" stroke-width="1.5" d="M0,-3.0v7 M-2.5,-0.5L0,-3.0L2.5,-0.5"/>
                </g>
        </g>
        <svg viewBox="0 0 15 15" width="100%" height="30px" preserveAspectRatio="xMaxYMin meet">
         <g id="arrow_out" transform="scale(0.3 0.3)">
          <a xlink:href="classButton_a3389abc269a157d9440b5cf3f74c55e1_icgraph_org.svg" target="_base">
           <rect id="button" ry="5" rx="5" y="6" x="6" height="38" width="38"
                fill="#f2f5e9" fill-opacity="0.5" stroke="#606060" stroke-width="1.0"/>
           <path id="arrow"
             d="M 11.500037,31.436501 C 11.940474,20.09759 22.043105,11.32322 32.158766,21.979434 L 37.068811,17.246167 C 37.068811,17.246167 37.088388,32 37.088388,32 L 22.160133,31.978069 C 22.160133,31.978069 26.997745,27.140456 26.997745,27.140456 C 18.528582,18.264221 13.291696,25.230495 11.500037,31.436501 z"
             style="fill:#404040;"/>
          </a>
         </g>
        </svg>
</svg>
