<?xml version="1.0" encoding="UTF-8" standalone="no"?>
<!DOCTYPE svg PUBLIC "-//W3C//DTD SVG 1.1//EN"
 "http://www.w3.org/Graphics/SVG/1.1/DTD/svg11.dtd">
<!-- Generated by graphviz version 2.38.0 (20140413.2041)
 -->
<!-- Title: MenuGroupBuild::constructMenu Pages: 1 -->
<svg width="1528pt" height="446pt"
 viewBox="0.00 0.00 1528.00 446.00" xmlns="http://www.w3.org/2000/svg" xmlns:xlink="http://www.w3.org/1999/xlink">
<g id="graph0" class="graph" transform="scale(1 1) rotate(0) translate(4 442)">
<title>MenuGroupBuild::constructMenu</title>
<!-- Node1 -->
<g id="node1" class="node"><title>Node1</title>
<polygon fill="#bfbfbf" stroke="black" points="0,-190.5 0,-209.5 173,-209.5 173,-190.5 0,-190.5"/>
<text text-anchor="middle" x="86.5" y="-197.5" font-family="Helvetica,sans-Serif" font-size="10.00">MenuGroupBuild::constructMenu</text>
</g>
<!-- Node2 -->
<g id="node2" class="node"><title>Node2</title>
<g id="a_node2"><a xlink:href="classButtonGroup.html#a6ea6c2ec59b6bd02e72eea5465d61c4f" target="_top" xlink:title="Add a (toggle&#45;)Button object to the button group Add a Button to the group. Only toggleable buttons s...">
<polygon fill="none" stroke="black" points="230.5,-418.5 230.5,-437.5 371.5,-437.5 371.5,-418.5 230.5,-418.5"/>
<text text-anchor="middle" x="301" y="-425.5" font-family="Helvetica,sans-Serif" font-size="10.00">ButtonGroup::addToGroup</text>
</a>
</g>
</g>
<!-- Node1&#45;&gt;Node2 -->
<g id="edge1" class="edge"><title>Node1&#45;&gt;Node2</title>
<path fill="none" stroke="midnightblue" d="M90.4044,-209.918C100.629,-243.027 138.217,-350.664 209,-404 214.742,-408.326 221.198,-411.874 227.953,-414.784"/>
<polygon fill="midnightblue" stroke="midnightblue" points="226.721,-418.06 237.312,-418.369 229.226,-411.523 226.721,-418.06"/>
</g>
<!-- Node3 -->
<g id="node3" class="node"><title>Node3</title>
<g id="a_node3"><a xlink:href="classButtonGroup.html#a96ffd665743b42765e883dd049ec64e7" target="_top" xlink:title="ButtonGroup::getAllButtons">
<polygon fill="none" stroke="black" points="441,-114.5 441,-133.5 590,-133.5 590,-114.5 441,-114.5"/>
<text text-anchor="middle" x="515.5" y="-121.5" font-family="Helvetica,sans-Serif" font-size="10.00">ButtonGroup::getAllButtons</text>
</a>
</g>
</g>
<!-- Node1&#45;&gt;Node3 -->
<g id="edge2" class="edge"><title>Node1&#45;&gt;Node3</title>
<path fill="none" stroke="midnightblue" d="M171.983,-209.504C235.329,-213.195 322.823,-210.838 393,-181 412.975,-172.507 410.034,-158.554 429,-148 437.299,-143.382 446.555,-139.596 455.826,-136.511"/>
<polygon fill="midnightblue" stroke="midnightblue" points="456.929,-139.833 465.454,-133.542 454.867,-133.144 456.929,-139.833"/>
</g>
<!-- Node4 -->
<g id="node4" class="node"><title>Node4</title>
<g id="a_node4"><a xlink:href="classSingleton.html#af5cb1e5749949e2b68416cfb8d378044" target="_top" xlink:title="Get an instance of the singleton. ">
<polygon fill="none" stroke="black" points="1389,-185 1389,-215 1520,-215 1520,-185 1389,-185"/>
<text text-anchor="start" x="1397" y="-203" font-family="Helvetica,sans-Serif" font-size="10.00">Singleton&lt; TileManager</text>
<text text-anchor="middle" x="1454.5" y="-192" font-family="Helvetica,sans-Serif" font-size="10.00"> &gt;::instance</text>
</a>
</g>
</g>
<!-- Node1&#45;&gt;Node4 -->
<g id="edge3" class="edge"><title>Node1&#45;&gt;Node4</title>
<path fill="none" stroke="midnightblue" d="M93.1504,-209.656C108.332,-234.649 152.694,-301.689 209,-333 329.712,-400.127 376.379,-390 514.5,-390 514.5,-390 514.5,-390 1090,-390 1208.17,-390 1253.22,-414.307 1353,-351 1400.68,-320.75 1430.87,-258.801 1444.68,-224.395"/>
<polygon fill="midnightblue" stroke="midnightblue" points="1447.95,-225.658 1448.29,-215.068 1441.42,-223.129 1447.95,-225.658"/>
</g>
<!-- Node5 -->
<g id="node5" class="node"><title>Node5</title>
<g id="a_node5"><a xlink:href="classTileManager.html#a682e1364119e3e5c41e4032fe4e206e1" target="_top" xlink:title="TileManager::getAllTileData">
<polygon fill="none" stroke="black" points="228,-304.5 228,-323.5 374,-323.5 374,-304.5 228,-304.5"/>
<text text-anchor="middle" x="301" y="-311.5" font-family="Helvetica,sans-Serif" font-size="10.00">TileManager::getAllTileData</text>
</a>
</g>
</g>
<!-- Node1&#45;&gt;Node5 -->
<g id="edge4" class="edge"><title>Node1&#45;&gt;Node5</title>
<path fill="none" stroke="midnightblue" d="M96.5498,-209.567C115.466,-228.952 161.4,-272.897 209,-295 214.345,-297.482 220.017,-299.643 225.814,-301.523"/>
<polygon fill="midnightblue" stroke="midnightblue" points="225.069,-304.952 235.651,-304.43 227.053,-298.239 225.069,-304.952"/>
</g>
<!-- Node13 -->
<g id="node13" class="node"><title>Node13</title>
<g id="a_node13"><a xlink:href="classUIElement.html#a452ffed1ff191ababc8c15d4c455f6c2" target="_top" xlink:title="Set the uiElements sprite ID Set the sprite ID this ui element. The texture will be retrieved from th...">
<polygon fill="none" stroke="black" points="235.5,-228.5 235.5,-247.5 366.5,-247.5 366.5,-228.5 235.5,-228.5"/>
<text text-anchor="middle" x="301" y="-235.5" font-family="Helvetica,sans-Serif" font-size="10.00">UIElement::setTextureID</text>
</a>
</g>
</g>
<!-- Node1&#45;&gt;Node13 -->
<g id="edge16" class="edge"><title>Node1&#45;&gt;Node13</title>
<path fill="none" stroke="midnightblue" d="M140.848,-209.54C169.898,-214.735 206.032,-221.196 236.524,-226.649"/>
<polygon fill="midnightblue" stroke="midnightblue" points="236.17,-230.141 246.63,-228.456 237.402,-223.25 236.17,-230.141"/>
</g>
<!-- Node15 -->
<g id="node15" class="node"><title>Node15</title>
<g id="a_node15"><a xlink:href="classButton.html#a6b08fa54560842dec2eabed9a93c3103" target="_top" xlink:title="Button::drawImageButtonFrame">
<polygon fill="none" stroke="black" points="216,-266.5 216,-285.5 386,-285.5 386,-266.5 216,-266.5"/>
<text text-anchor="middle" x="301" y="-273.5" font-family="Helvetica,sans-Serif" font-size="10.00">Button::drawImageButtonFrame</text>
</a>
</g>
</g>
<!-- Node1&#45;&gt;Node15 -->
<g id="edge19" class="edge"><title>Node1&#45;&gt;Node15</title>
<path fill="none" stroke="midnightblue" d="M104.678,-209.63C127.749,-222.192 170.324,-244.087 209,-257 217.032,-259.682 225.595,-262.062 234.132,-264.153"/>
<polygon fill="midnightblue" stroke="midnightblue" points="233.577,-267.617 244.11,-266.474 235.163,-260.799 233.577,-267.617"/>
</g>
<!-- Node18 -->
<g id="node18" class="node"><title>Node18</title>
<g id="a_node18"><a xlink:href="classUIElement.html#a440d645aa10dbf7d3c763ba6e1fc33a6" target="_top" xlink:title="Sets the UI Elements visibility. Set the UI Elements visibility. ">
<polygon fill="none" stroke="black" points="238.5,-152.5 238.5,-171.5 363.5,-171.5 363.5,-152.5 238.5,-152.5"/>
<text text-anchor="middle" x="301" y="-159.5" font-family="Helvetica,sans-Serif" font-size="10.00">UIElement::setVisibility</text>
</a>
</g>
</g>
<!-- Node1&#45;&gt;Node18 -->
<g id="edge22" class="edge"><title>Node1&#45;&gt;Node18</title>
<path fill="none" stroke="midnightblue" d="M140.848,-190.46C169.898,-185.265 206.032,-178.804 236.524,-173.351"/>
<polygon fill="midnightblue" stroke="midnightblue" points="237.402,-176.75 246.63,-171.544 236.17,-169.859 237.402,-176.75"/>
</g>
<!-- Node19 -->
<g id="node19" class="node"><title>Node19</title>
<g id="a_node19"><a xlink:href="classUIElement.html#a681f08cf2aeee4c376696695227cde9b" target="_top" xlink:title="Set the button mode to toggleButton Set the button mode to toggle button, which means it stays presse...">
<polygon fill="none" stroke="black" points="226.5,-114.5 226.5,-133.5 375.5,-133.5 375.5,-114.5 226.5,-114.5"/>
<text text-anchor="middle" x="301" y="-121.5" font-family="Helvetica,sans-Serif" font-size="10.00">UIElement::setToggleButton</text>
</a>
</g>
</g>
<!-- Node1&#45;&gt;Node19 -->
<g id="edge23" class="edge"><title>Node1&#45;&gt;Node19</title>
<path fill="none" stroke="midnightblue" d="M104.678,-190.37C127.749,-177.808 170.324,-155.913 209,-143 217.032,-140.318 225.595,-137.938 234.132,-135.847"/>
<polygon fill="midnightblue" stroke="midnightblue" points="235.163,-139.201 244.11,-133.526 233.577,-132.383 235.163,-139.201"/>
</g>
<!-- Node20 -->
<g id="node20" class="node"><title>Node20</title>
<g id="a_node20"><a xlink:href="classUIElement.html#ab14a33c04d137514d12e0707d96b3fd3" target="_top" xlink:title="Set the Action ID of the UI Element. Sets the ID of the action the UI Element should execute when it&#39;...">
<polygon fill="none" stroke="black" points="237.5,-76.5 237.5,-95.5 364.5,-95.5 364.5,-76.5 237.5,-76.5"/>
<text text-anchor="middle" x="301" y="-83.5" font-family="Helvetica,sans-Serif" font-size="10.00">UIElement::setActionID</text>
</a>
</g>
</g>
<!-- Node1&#45;&gt;Node20 -->
<g id="edge24" class="edge"><title>Node1&#45;&gt;Node20</title>
<path fill="none" stroke="midnightblue" d="M96.5498,-190.433C115.466,-171.048 161.4,-127.103 209,-105 214.764,-102.324 220.907,-100.021 227.177,-98.0406"/>
<polygon fill="midnightblue" stroke="midnightblue" points="228.456,-101.315 237.098,-95.1863 226.52,-94.5878 228.456,-101.315"/>
</g>
<!-- Node21 -->
<g id="node21" class="node"><title>Node21</title>
<g id="a_node21"><a xlink:href="classUIElement.html#a902b00b3e651b2a0e33345c3dbd810d4" target="_top" xlink:title="Set the Action Parameter of the UI Element. Sets the Parameter of the action the UI Element should ex...">
<polygon fill="none" stroke="black" points="217.5,-0.5 217.5,-19.5 384.5,-19.5 384.5,-0.5 217.5,-0.5"/>
<text text-anchor="middle" x="301" y="-7.5" font-family="Helvetica,sans-Serif" font-size="10.00">UIElement::setActionParameter</text>
</a>
</g>
</g>
<!-- Node1&#45;&gt;Node21 -->
<g id="edge25" class="edge"><title>Node1&#45;&gt;Node21</title>
<path fill="none" stroke="midnightblue" d="M91.3085,-190.328C103.469,-160.802 144.396,-71.2749 209,-29 212.157,-26.9343 215.496,-25.0875 218.957,-23.4367"/>
<polygon fill="midnightblue" stroke="midnightblue" points="220.486,-26.5914 228.366,-19.5093 217.789,-20.1316 220.486,-26.5914"/>
</g>
<!-- Node24 -->
<g id="node24" class="node"><title>Node24</title>
<g id="a_node24"><a xlink:href="classMenuGroupBuild.html#a69f560b31112d4f28b6ad4d101f48185" target="_top" xlink:title="MenuGroupBuild::arrangeElements">
<polygon fill="none" stroke="black" points="209,-38.5 209,-57.5 393,-57.5 393,-38.5 209,-38.5"/>
<text text-anchor="middle" x="301" y="-45.5" font-family="Helvetica,sans-Serif" font-size="10.00">MenuGroupBuild::arrangeElements</text>
</a>
</g>
</g>
<!-- Node1&#45;&gt;Node24 -->
<g id="edge29" class="edge"><title>Node1&#45;&gt;Node24</title>
<path fill="none" stroke="midnightblue" d="M93.1891,-190.413C108.464,-165.586 153.032,-98.9109 209,-67 212.891,-64.7817 217.007,-62.821 221.255,-61.0882"/>
<polygon fill="midnightblue" stroke="midnightblue" points="222.522,-64.3516 230.726,-57.6473 220.132,-57.7723 222.522,-64.3516"/>
</g>
<!-- Node6 -->
<g id="node6" class="node"><title>Node6</title>
<g id="a_node6"><a xlink:href="classTileManager.html#a1575d9a9530e13fe0286b8fece9e47ea" target="_top" xlink:title="TileManager::init">
<polygon fill="none" stroke="black" points="661.5,-285.5 661.5,-304.5 756.5,-304.5 756.5,-285.5 661.5,-285.5"/>
<text text-anchor="middle" x="709" y="-292.5" font-family="Helvetica,sans-Serif" font-size="10.00">TileManager::init</text>
</a>
</g>
</g>
<!-- Node5&#45;&gt;Node6 -->
<g id="edge5" class="edge"><title>Node5&#45;&gt;Node6</title>
<path fill="none" stroke="midnightblue" d="M353.708,-304.486C376.678,-300.721 404.1,-296.852 429,-295 505.623,-289.3 594.411,-290.664 650.869,-292.526"/>
<polygon fill="midnightblue" stroke="midnightblue" points="650.909,-296.029 661.025,-292.878 651.152,-289.034 650.909,-296.029"/>
</g>
<!-- Node11 -->
<g id="node11" class="node"><title>Node11</title>
<g id="a_node11"><a xlink:href="classTileManager.html#ac6f5d9eb4db57f9ad597223658574394" target="_top" xlink:title="TileManager::TileManager">
<polygon fill="none" stroke="black" points="446.5,-304.5 446.5,-323.5 584.5,-323.5 584.5,-304.5 446.5,-304.5"/>
<text text-anchor="middle" x="515.5" y="-311.5" font-family="Helvetica,sans-Serif" font-size="10.00">TileManager::TileManager</text>
</a>
</g>
</g>
<!-- Node5&#45;&gt;Node11 -->
<g id="edge13" class="edge"><title>Node5&#45;&gt;Node11</title>
<path fill="none" stroke="midnightblue" d="M374.239,-314C394.208,-314 415.968,-314 436.26,-314"/>
<polygon fill="midnightblue" stroke="midnightblue" points="436.404,-317.5 446.404,-314 436.404,-310.5 436.404,-317.5"/>
</g>
<!-- Node12 -->
<g id="node12" class="node"><title>Node12</title>
<g id="a_node12"><a xlink:href="classTileManager.html#a4ee920ba2d77b9b106151242deb48d4e" target="_top" xlink:title="TileManager::~TileManager">
<polygon fill="none" stroke="black" points="442.5,-342.5 442.5,-361.5 588.5,-361.5 588.5,-342.5 442.5,-342.5"/>
<text text-anchor="middle" x="515.5" y="-349.5" font-family="Helvetica,sans-Serif" font-size="10.00">TileManager::~TileManager</text>
</a>
</g>
</g>
<!-- Node5&#45;&gt;Node12 -->
<g id="edge15" class="edge"><title>Node5&#45;&gt;Node12</title>
<path fill="none" stroke="midnightblue" d="M355.348,-323.54C384.398,-328.735 420.532,-335.196 451.024,-340.649"/>
<polygon fill="midnightblue" stroke="midnightblue" points="450.67,-344.141 461.13,-342.456 451.902,-337.25 450.67,-344.141"/>
</g>
<!-- Node6&#45;&gt;Node4 -->
<g id="edge6" class="edge"><title>Node6&#45;&gt;Node4</title>
<path fill="none" stroke="midnightblue" d="M738.375,-304.534C831.694,-334.17 1135.53,-416.883 1353,-317 1394.54,-297.922 1425.37,-252.264 1441.3,-223.957"/>
<polygon fill="midnightblue" stroke="midnightblue" points="1444.42,-225.543 1446.12,-215.086 1438.27,-222.198 1444.42,-225.543"/>
</g>
<!-- Node7 -->
<g id="node7" class="node"><title>Node7</title>
<g id="a_node7"><a xlink:href="classTileManager.html#a7fadfb60a38e76b474996c59672812cf" target="_top" xlink:title="TileManager::addJSONObject\lToTileData">
<polygon fill="none" stroke="black" points="816,-253 816,-283 969,-283 969,-253 816,-253"/>
<text text-anchor="start" x="824" y="-271" font-family="Helvetica,sans-Serif" font-size="10.00">TileManager::addJSONObject</text>
<text text-anchor="middle" x="892.5" y="-260" font-family="Helvetica,sans-Serif" font-size="10.00">ToTileData</text>
</a>
</g>
</g>
<!-- Node6&#45;&gt;Node7 -->
<g id="edge7" class="edge"><title>Node6&#45;&gt;Node7</title>
<path fill="none" stroke="midnightblue" d="M756.741,-288.047C771.755,-285.813 788.889,-283.264 805.79,-280.75"/>
<polygon fill="midnightblue" stroke="midnightblue" points="806.32,-284.21 815.696,-279.277 805.29,-277.286 806.32,-284.21"/>
</g>
<!-- Node7&#45;&gt;Node4 -->
<g id="edge8" class="edge"><title>Node7&#45;&gt;Node4</title>
<path fill="none" stroke="midnightblue" d="M969.033,-254.89C981.057,-252.872 993.364,-250.847 1005,-249 1095.51,-234.635 1117.93,-229.223 1209,-219 1265.78,-212.626 1330.22,-207.713 1378.69,-204.482"/>
<polygon fill="midnightblue" stroke="midnightblue" points="1379.03,-207.967 1388.78,-203.818 1378.57,-200.982 1379.03,-207.967"/>
</g>
<!-- Node8 -->
<g id="node8" class="node"><title>Node8</title>
<g id="a_node8"><a xlink:href="classResourcesManager.html#a0a56e6316b8145494b7d551c29c41d80" target="_top" xlink:title="ResourcesManager::loadTexture">
<polygon fill="none" stroke="black" points="1005,-258.5 1005,-277.5 1173,-277.5 1173,-258.5 1005,-258.5"/>
<text text-anchor="middle" x="1089" y="-265.5" font-family="Helvetica,sans-Serif" font-size="10.00">ResourcesManager::loadTexture</text>
</a>
</g>
</g>
<!-- Node7&#45;&gt;Node8 -->
<g id="edge9" class="edge"><title>Node7&#45;&gt;Node8</title>
<path fill="none" stroke="midnightblue" d="M969.256,-268C977.521,-268 986.005,-268 994.452,-268"/>
<polygon fill="midnightblue" stroke="midnightblue" points="994.719,-271.5 1004.72,-268 994.719,-264.5 994.719,-271.5"/>
</g>
<!-- Node9 -->
<g id="node9" class="node"><title>Node9</title>
<g id="a_node9"><a xlink:href="classResourcesManager.html#a54721d26f52c4887b735d2cdaf60b078" target="_top" xlink:title="ResourcesManager::create\lSurfaceFromFile">
<polygon fill="none" stroke="black" points="1209,-278 1209,-308 1353,-308 1353,-278 1209,-278"/>
<text text-anchor="start" x="1217" y="-296" font-family="Helvetica,sans-Serif" font-size="10.00">ResourcesManager::create</text>
<text text-anchor="middle" x="1281" y="-285" font-family="Helvetica,sans-Serif" font-size="10.00">SurfaceFromFile</text>
</a>
</g>
</g>
<!-- Node8&#45;&gt;Node9 -->
<g id="edge10" class="edge"><title>Node8&#45;&gt;Node9</title>
<path fill="none" stroke="midnightblue" d="M1162.37,-277.523C1174.25,-279.086 1186.63,-280.715 1198.71,-282.304"/>
<polygon fill="midnightblue" stroke="midnightblue" points="1198.4,-285.793 1208.77,-283.628 1199.31,-278.853 1198.4,-285.793"/>
</g>
<!-- Node10 -->
<g id="node10" class="node"><title>Node10</title>
<g id="a_node10"><a xlink:href="classResourcesManager.html#ad7712ca96233a151d8bc22cd2ba17d01" target="_top" xlink:title="ResourcesManager::create\lTextureFromSurface">
<polygon fill="none" stroke="black" points="1209,-229 1209,-259 1353,-259 1353,-229 1209,-229"/>
<text text-anchor="start" x="1217" y="-247" font-family="Helvetica,sans-Serif" font-size="10.00">ResourcesManager::create</text>
<text text-anchor="middle" x="1281" y="-236" font-family="Helvetica,sans-Serif" font-size="10.00">TextureFromSurface</text>
</a>
</g>
</g>
<!-- Node8&#45;&gt;Node10 -->
<g id="edge11" class="edge"><title>Node8&#45;&gt;Node10</title>
<path fill="none" stroke="midnightblue" d="M1165.37,-258.48C1176.31,-257.097 1187.62,-255.669 1198.68,-254.272"/>
<polygon fill="midnightblue" stroke="midnightblue" points="1199.26,-257.726 1208.75,-253 1198.39,-250.781 1199.26,-257.726"/>
</g>
<!-- Node10&#45;&gt;Node4 -->
<g id="edge12" class="edge"><title>Node10&#45;&gt;Node4</title>
<path fill="none" stroke="midnightblue" d="M1340.54,-228.981C1354.81,-225.32 1370.2,-221.371 1384.89,-217.601"/>
<polygon fill="midnightblue" stroke="midnightblue" points="1386.12,-220.902 1394.93,-215.026 1384.38,-214.121 1386.12,-220.902"/>
</g>
<!-- Node11&#45;&gt;Node6 -->
<g id="edge14" class="edge"><title>Node11&#45;&gt;Node6</title>
<path fill="none" stroke="midnightblue" d="M584.555,-307.248C606.451,-305.075 630.461,-302.693 651.438,-300.612"/>
<polygon fill="midnightblue" stroke="midnightblue" points="651.864,-304.087 661.469,-299.617 651.173,-297.121 651.864,-304.087"/>
</g>
<!-- Node13&#45;&gt;Node4 -->
<g id="edge17" class="edge"><title>Node13&#45;&gt;Node4</title>
<path fill="none" stroke="midnightblue" d="M345.008,-228.38C360.639,-223.961 378.11,-217.91 393,-210 411.144,-200.361 409.868,-188.488 429,-181 544.738,-135.702 583.713,-162 708,-162 708,-162 708,-162 1090,-162 1190.29,-162 1305.32,-176.487 1378.64,-187.571"/>
<polygon fill="midnightblue" stroke="midnightblue" points="1378.29,-191.058 1388.71,-189.111 1379.35,-184.139 1378.29,-191.058"/>
</g>
<!-- Node14 -->
<g id="node14" class="node"><title>Node14</title>
<g id="a_node14"><a xlink:href="classResourcesManager.html#aae2a2032792aaa57862eb9c494ae1cf2" target="_top" xlink:title="ResourcesManager::getUITexture">
<polygon fill="none" stroke="black" points="429,-190.5 429,-209.5 602,-209.5 602,-190.5 429,-190.5"/>
<text text-anchor="middle" x="515.5" y="-197.5" font-family="Helvetica,sans-Serif" font-size="10.00">ResourcesManager::getUITexture</text>
</a>
</g>
</g>
<!-- Node13&#45;&gt;Node14 -->
<g id="edge18" class="edge"><title>Node13&#45;&gt;Node14</title>
<path fill="none" stroke="midnightblue" d="M355.348,-228.46C384.398,-223.265 420.532,-216.804 451.024,-211.351"/>
<polygon fill="midnightblue" stroke="midnightblue" points="451.902,-214.75 461.13,-209.544 450.67,-207.859 451.902,-214.75"/>
</g>
<!-- Node16 -->
<g id="node16" class="node"><title>Node16</title>
<g id="a_node16"><a xlink:href="classUIElement.html#af7c295301e56e32f3d00081e081bc71c" target="_top" xlink:title="UIElement::drawFrame">
<polygon fill="none" stroke="black" points="453,-228.5 453,-247.5 578,-247.5 578,-228.5 453,-228.5"/>
<text text-anchor="middle" x="515.5" y="-235.5" font-family="Helvetica,sans-Serif" font-size="10.00">UIElement::drawFrame</text>
</a>
</g>
</g>
<!-- Node15&#45;&gt;Node16 -->
<g id="edge20" class="edge"><title>Node15&#45;&gt;Node16</title>
<path fill="none" stroke="midnightblue" d="M355.348,-266.46C384.398,-261.265 420.532,-254.804 451.024,-249.351"/>
<polygon fill="midnightblue" stroke="midnightblue" points="451.902,-252.75 461.13,-247.544 450.67,-245.859 451.902,-252.75"/>
</g>
<!-- Node17 -->
<g id="node17" class="node"><title>Node17</title>
<g id="a_node17"><a xlink:href="classUIElement.html#a93e23ad405b6275a99d5f71d32232f5c" target="_top" xlink:title="Draws a filled rectangle to the screen. Draws a filled rectangle to the screen. ">
<polygon fill="none" stroke="black" points="640,-228.5 640,-247.5 778,-247.5 778,-228.5 640,-228.5"/>
<text text-anchor="middle" x="709" y="-235.5" font-family="Helvetica,sans-Serif" font-size="10.00">UIElement::drawSolidRect</text>
</a>
</g>
</g>
<!-- Node16&#45;&gt;Node17 -->
<g id="edge21" class="edge"><title>Node16&#45;&gt;Node17</title>
<path fill="none" stroke="midnightblue" d="M578.146,-238C594.598,-238 612.595,-238 629.809,-238"/>
<polygon fill="midnightblue" stroke="midnightblue" points="629.835,-241.5 639.835,-238 629.835,-234.5 629.835,-241.5"/>
</g>
<!-- Node22 -->
<g id="node22" class="node"><title>Node22</title>
<g id="a_node22"><a xlink:href="classUIElement.html#ade4162d6216022e143c769369b64add7" target="_top" xlink:title="Set the button state Sets the mouse button pressed state. ">
<polygon fill="none" stroke="black" points="432.5,-0.5 432.5,-19.5 598.5,-19.5 598.5,-0.5 432.5,-0.5"/>
<text text-anchor="middle" x="515.5" y="-7.5" font-family="Helvetica,sans-Serif" font-size="10.00">UIElement::changeButtonState</text>
</a>
</g>
</g>
<!-- Node21&#45;&gt;Node22 -->
<g id="edge26" class="edge"><title>Node21&#45;&gt;Node22</title>
<path fill="none" stroke="midnightblue" d="M384.767,-10C396.966,-10 409.601,-10 421.983,-10"/>
<polygon fill="midnightblue" stroke="midnightblue" points="422.309,-13.5001 432.309,-10 422.309,-6.5001 422.309,-13.5001"/>
</g>
<!-- Node22&#45;&gt;Node4 -->
<g id="edge28" class="edge"><title>Node22&#45;&gt;Node4</title>
<path fill="none" stroke="midnightblue" d="M598.8,-10C674.777,-10 790.751,-10 891.5,-10 891.5,-10 891.5,-10 1090,-10 1210.09,-10 1251.79,-7.36157 1353,-72 1393.65,-97.9589 1424.77,-146.212 1441,-175.485"/>
<polygon fill="midnightblue" stroke="midnightblue" points="1438.1,-177.482 1445.93,-184.625 1444.26,-174.161 1438.1,-177.482"/>
</g>
<!-- Node23 -->
<g id="node23" class="node"><title>Node23</title>
<g id="a_node23"><a xlink:href="classUIElement.html#afdf67550d4140097c7a328d4b22fc1fe" target="_top" xlink:title="UIElement::changeTexture">
<polygon fill="none" stroke="black" points="638,-38.5 638,-57.5 780,-57.5 780,-38.5 638,-38.5"/>
<text text-anchor="middle" x="709" y="-45.5" font-family="Helvetica,sans-Serif" font-size="10.00">UIElement::changeTexture</text>
</a>
</g>
</g>
<!-- Node22&#45;&gt;Node23 -->
<g id="edge27" class="edge"><title>Node22&#45;&gt;Node23</title>
<path fill="none" stroke="midnightblue" d="M564.824,-19.589C590.663,-24.7165 622.668,-31.0672 649.861,-36.4632"/>
<polygon fill="midnightblue" stroke="midnightblue" points="649.534,-39.9666 660.024,-38.4799 650.896,-33.1004 649.534,-39.9666"/>
</g>
<!-- Node24&#45;&gt;Node3 -->
<g id="edge31" class="edge"><title>Node24&#45;&gt;Node3</title>
<path fill="none" stroke="midnightblue" d="M368.556,-57.5304C377.029,-59.9948 385.389,-63.0964 393,-67 412.313,-76.9052 410.034,-89.4457 429,-100 437.299,-104.618 446.555,-108.404 455.826,-111.489"/>
<polygon fill="midnightblue" stroke="midnightblue" points="454.867,-114.856 465.454,-114.458 456.929,-108.167 454.867,-114.856"/>
</g>
<!-- Node24&#45;&gt;Node4 -->
<g id="edge30" class="edge"><title>Node24&#45;&gt;Node4</title>
<path fill="none" stroke="midnightblue" d="M359.088,-57.5403C380.911,-60.9243 406.061,-64.5071 429,-67 552.56,-80.4278 583.713,-86 708,-86 708,-86 708,-86 1090,-86 1214.5,-86 1352.45,-147.639 1416.75,-180.269"/>
<polygon fill="midnightblue" stroke="midnightblue" points="1415.2,-183.406 1425.69,-184.862 1418.4,-177.18 1415.2,-183.406"/>
</g>
<!-- Node25 -->
<g id="node25" class="node"><title>Node25</title>
<g id="a_node25"><a xlink:href="classButtonGroup.html#a68feb325c3ba486591ab9e33afd928bb" target="_top" xlink:title="ButtonGroup::count">
<polygon fill="none" stroke="black" points="460,-38.5 460,-57.5 571,-57.5 571,-38.5 460,-38.5"/>
<text text-anchor="middle" x="515.5" y="-45.5" font-family="Helvetica,sans-Serif" font-size="10.00">ButtonGroup::count</text>
</a>
</g>
</g>
<!-- Node24&#45;&gt;Node25 -->
<g id="edge32" class="edge"><title>Node24&#45;&gt;Node25</title>
<path fill="none" stroke="midnightblue" d="M393.044,-48C412.155,-48 431.935,-48 449.844,-48"/>
<polygon fill="midnightblue" stroke="midnightblue" points="449.868,-51.5001 459.868,-48 449.868,-44.5001 449.868,-51.5001"/>
</g>
</g>
</svg>
