<?xml version="1.0" encoding="UTF-8" standalone="no"?>
<!DOCTYPE svg PUBLIC "-//W3C//DTD SVG 1.1//EN"
 "http://www.w3.org/Graphics/SVG/1.1/DTD/svg11.dtd">
<!-- Generated by graphviz version 2.38.0 (20140413.2041)
 -->
<!-- Title: ResourcesManager Pages: 1 -->
<svg width="218pt" height="464pt"
 viewBox="0.00 0.00 218.00 464.00" xmlns="http://www.w3.org/2000/svg" xmlns:xlink="http://www.w3.org/1999/xlink">
<g id="graph0" class="graph" transform="scale(1 1) rotate(0) translate(4 460)">
<title>ResourcesManager</title>
<!-- Node1 -->
<g id="node1" class="node"><title>Node1</title>
<polygon fill="#bfbfbf" stroke="black" points="-1.42109e-14,-0.5 -1.42109e-14,-211.5 186,-211.5 186,-0.5 -1.42109e-14,-0.5"/>
<text text-anchor="middle" x="93" y="-199.5" font-family="Helvetica,sans-Serif" font-size="10.00">ResourcesManager</text>
<polyline fill="none" stroke="black" points="-1.42109e-14,-192.5 186,-192.5 "/>
<text text-anchor="start" x="8" y="-180.5" font-family="Helvetica,sans-Serif" font-size="10.00">+ Singleton&lt; ResourcesManager &gt;</text>
<text text-anchor="start" x="8" y="-169.5" font-family="Helvetica,sans-Serif" font-size="10.00">&#45; m_uiTextureMap</text>
<text text-anchor="start" x="8" y="-158.5" font-family="Helvetica,sans-Serif" font-size="10.00">&#45; m_tileTextureMap</text>
<text text-anchor="start" x="8" y="-147.5" font-family="Helvetica,sans-Serif" font-size="10.00">&#45; m_surfaceMap</text>
<polyline fill="none" stroke="black" points="-1.42109e-14,-140.5 186,-140.5 "/>
<text text-anchor="start" x="8" y="-128.5" font-family="Helvetica,sans-Serif" font-size="10.00">+ ResourcesManager()</text>
<text text-anchor="start" x="8" y="-117.5" font-family="Helvetica,sans-Serif" font-size="10.00">+ operator=()</text>
<text text-anchor="start" x="8" y="-106.5" font-family="Helvetica,sans-Serif" font-size="10.00">+ getUITexture()</text>
<text text-anchor="start" x="8" y="-95.5" font-family="Helvetica,sans-Serif" font-size="10.00">+ getTileTexture()</text>
<text text-anchor="start" x="8" y="-84.5" font-family="Helvetica,sans-Serif" font-size="10.00">+ getTileSurface()</text>
<text text-anchor="start" x="8" y="-73.5" font-family="Helvetica,sans-Serif" font-size="10.00">+ loadTexture()</text>
<text text-anchor="start" x="8" y="-62.5" font-family="Helvetica,sans-Serif" font-size="10.00">&#45; ResourcesManager()</text>
<text text-anchor="start" x="8" y="-51.5" font-family="Helvetica,sans-Serif" font-size="10.00">&#45; ~ResourcesManager()</text>
<text text-anchor="start" x="8" y="-40.5" font-family="Helvetica,sans-Serif" font-size="10.00">&#45; loadUITexture()</text>
<text text-anchor="start" x="8" y="-29.5" font-family="Helvetica,sans-Serif" font-size="10.00">&#45; flush()</text>
<text text-anchor="start" x="8" y="-18.5" font-family="Helvetica,sans-Serif" font-size="10.00">&#45; createSurfaceFromFile()</text>
<text text-anchor="start" x="8" y="-7.5" font-family="Helvetica,sans-Serif" font-size="10.00">&#45; createTextureFromSurface()</text>
</g>
<!-- Node2 -->
<g id="node2" class="node"><title>Node2</title>
<g id="a_node2"><a xlink:href="classSingleton.html" target="_top" xlink:title="{Singleton\&lt; ResourcesManager \&gt;\n||+ instance()\l# Singleton()\l# ~Singleton()\l}">
<polygon fill="none" stroke="black" points="5.5,-249.5 5.5,-328.5 180.5,-328.5 180.5,-249.5 5.5,-249.5"/>
<text text-anchor="middle" x="93" y="-316.5" font-family="Helvetica,sans-Serif" font-size="10.00">Singleton&lt; ResourcesManager &gt;</text>
<polyline fill="none" stroke="black" points="5.5,-309.5 180.5,-309.5 "/>
<text text-anchor="middle" x="93" y="-297.5" font-family="Helvetica,sans-Serif" font-size="10.00"> </text>
<polyline fill="none" stroke="black" points="5.5,-290.5 180.5,-290.5 "/>
<text text-anchor="start" x="13.5" y="-278.5" font-family="Helvetica,sans-Serif" font-size="10.00">+ instance()</text>
<text text-anchor="start" x="13.5" y="-267.5" font-family="Helvetica,sans-Serif" font-size="10.00"># Singleton()</text>
<text text-anchor="start" x="13.5" y="-256.5" font-family="Helvetica,sans-Serif" font-size="10.00"># ~Singleton()</text>
</a>
</g>
</g>
<!-- Node2&#45;&gt;Node1 -->
<g id="edge1" class="edge"><title>Node2&#45;&gt;Node1</title>
<path fill="none" stroke="midnightblue" d="M93,-238.975C93,-230.33 93,-221.041 93,-211.54"/>
<polygon fill="none" stroke="midnightblue" points="89.5001,-239.171 93,-249.171 96.5001,-239.171 89.5001,-239.171"/>
</g>
<!-- Node3 -->
<g id="node3" class="node"><title>Node3</title>
<g id="a_node3"><a xlink:href="classSingleton.html" target="_top" xlink:title="Abstract Singleton implementation. ">
<polygon fill="none" stroke="black" points="48.5,-376.5 48.5,-455.5 137.5,-455.5 137.5,-376.5 48.5,-376.5"/>
<text text-anchor="middle" x="93" y="-443.5" font-family="Helvetica,sans-Serif" font-size="10.00">Singleton&lt; T &gt;</text>
<polyline fill="none" stroke="black" points="48.5,-436.5 137.5,-436.5 "/>
<text text-anchor="middle" x="93" y="-424.5" font-family="Helvetica,sans-Serif" font-size="10.00"> </text>
<polyline fill="none" stroke="black" points="48.5,-417.5 137.5,-417.5 "/>
<text text-anchor="start" x="56.5" y="-405.5" font-family="Helvetica,sans-Serif" font-size="10.00">+ instance()</text>
<text text-anchor="start" x="56.5" y="-394.5" font-family="Helvetica,sans-Serif" font-size="10.00"># Singleton()</text>
<text text-anchor="start" x="56.5" y="-383.5" font-family="Helvetica,sans-Serif" font-size="10.00"># ~Singleton()</text>
</a>
</g>
</g>
<!-- Node3&#45;&gt;Node2 -->
<g id="edge2" class="edge"><title>Node3&#45;&gt;Node2</title>
<path fill="none" stroke="orange" d="M93,-366.222C93,-353.745 93,-340.5 93,-328.612"/>
<polygon fill="orange" stroke="orange" points="89.5001,-366.476 93,-376.476 96.5001,-366.476 89.5001,-366.476"/>
<text text-anchor="middle" x="151.5" y="-350" font-family="Helvetica,sans-Serif" font-size="10.00"> &lt; ResourcesManager &gt;</text>
</g>
</g>
</svg>
