<?xml version="1.0" encoding="UTF-8" standalone="no"?>
<!DOCTYPE svg PUBLIC "-//W3C//DTD SVG 1.1//EN"
 "http://www.w3.org/Graphics/SVG/1.1/DTD/svg11.dtd">
<!-- Generated by graphviz version 2.38.0 (20140413.2041)
 -->
<!-- Title: Button::onMouseEnter Pages: 1 -->
<svg width="534pt" height="94pt"
 viewBox="0.00 0.00 534.00 93.50" xmlns="http://www.w3.org/2000/svg" xmlns:xlink="http://www.w3.org/1999/xlink">
<g id="graph0" class="graph" transform="scale(1 1) rotate(0) translate(4 89.5)">
<title>Button::onMouseEnter</title>
<!-- Node1 -->
<g id="node1" class="node"><title>Node1</title>
<polygon fill="#bfbfbf" stroke="black" points="0,-47 0,-66 124,-66 124,-47 0,-47"/>
<text text-anchor="middle" x="62" y="-54" font-family="Helvetica,sans-Serif" font-size="10.00">Button::onMouseEnter</text>
</g>
<!-- Node2 -->
<g id="node2" class="node"><title>Node2</title>
<g id="a_node2"><a xlink:href="classUIElement.html#a98725ac250168ebb2fa676dd481ff495" target="_top" xlink:title="Get the button state Get the current mouse button pressed state. ">
<polygon fill="none" stroke="black" points="170,-66 170,-85 316,-85 316,-66 170,-66"/>
<text text-anchor="middle" x="243" y="-73" font-family="Helvetica,sans-Serif" font-size="10.00">UIElement::getButtonState</text>
</a>
</g>
</g>
<!-- Node1&#45;&gt;Node2 -->
<g id="edge1" class="edge"><title>Node1&#45;&gt;Node2</title>
<path fill="none" stroke="midnightblue" d="M124.101,-62.9856C135.574,-64.2034 147.742,-65.4949 159.735,-66.7679"/>
<polygon fill="midnightblue" stroke="midnightblue" points="159.435,-70.2557 169.749,-67.8309 160.174,-63.2948 159.435,-70.2557"/>
</g>
<!-- Node3 -->
<g id="node3" class="node"><title>Node3</title>
<g id="a_node3"><a xlink:href="classUIElement.html#ade4162d6216022e143c769369b64add7" target="_top" xlink:title="Set the button state Sets the mouse button pressed state. ">
<polygon fill="none" stroke="black" points="160,-28 160,-47 326,-47 326,-28 160,-28"/>
<text text-anchor="middle" x="243" y="-35" font-family="Helvetica,sans-Serif" font-size="10.00">UIElement::changeButtonState</text>
</a>
</g>
</g>
<!-- Node1&#45;&gt;Node3 -->
<g id="edge2" class="edge"><title>Node1&#45;&gt;Node3</title>
<path fill="none" stroke="midnightblue" d="M124.101,-50.0144C132.4,-49.1336 141.062,-48.2141 149.758,-47.291"/>
<polygon fill="midnightblue" stroke="midnightblue" points="150.388,-50.7439 159.963,-46.2078 149.65,-43.783 150.388,-50.7439"/>
</g>
<!-- Node4 -->
<g id="node4" class="node"><title>Node4</title>
<g id="a_node4"><a xlink:href="classUIElement.html#afdf67550d4140097c7a328d4b22fc1fe" target="_top" xlink:title="UIElement::changeTexture">
<polygon fill="none" stroke="black" points="373,-50 373,-69 515,-69 515,-50 373,-50"/>
<text text-anchor="middle" x="444" y="-57" font-family="Helvetica,sans-Serif" font-size="10.00">UIElement::changeTexture</text>
</a>
</g>
</g>
<!-- Node3&#45;&gt;Node4 -->
<g id="edge3" class="edge"><title>Node3&#45;&gt;Node4</title>
<path fill="none" stroke="midnightblue" d="M326.09,-46.5753C338.218,-47.9161 350.703,-49.2963 362.792,-50.6328"/>
<polygon fill="midnightblue" stroke="midnightblue" points="362.514,-54.1233 372.838,-51.7434 363.283,-47.1657 362.514,-54.1233"/>
</g>
<!-- Node5 -->
<g id="node5" class="node"><title>Node5</title>
<g id="a_node5"><a xlink:href="classSingleton.html#af5cb1e5749949e2b68416cfb8d378044" target="_top" xlink:title="Get an instance of the singleton. ">
<polygon fill="none" stroke="black" points="362,-0.5 362,-30.5 526,-30.5 526,-0.5 362,-0.5"/>
<text text-anchor="start" x="370" y="-18.5" font-family="Helvetica,sans-Serif" font-size="10.00">Singleton&lt; ResourcesManager</text>
<text text-anchor="middle" x="444" y="-7.5" font-family="Helvetica,sans-Serif" font-size="10.00"> &gt;::instance</text>
</a>
</g>
</g>
<!-- Node3&#45;&gt;Node5 -->
<g id="edge4" class="edge"><title>Node3&#45;&gt;Node5</title>
<path fill="none" stroke="midnightblue" d="M326.09,-28.4247C334.555,-27.4889 343.193,-26.534 351.749,-25.588"/>
<polygon fill="midnightblue" stroke="midnightblue" points="352.186,-29.0612 361.741,-24.4834 351.417,-22.1036 352.186,-29.0612"/>
</g>
</g>
</svg>
