<?xml version="1.0" encoding="UTF-8" standalone="no"?>
<!DOCTYPE svg PUBLIC "-//W3C//DTD SVG 1.1//EN"
 "http://www.w3.org/Graphics/SVG/1.1/DTD/svg11.dtd">
<!-- Generated by graphviz version 2.38.0 (20140413.2041)
 -->
<!-- Title: Map::increaseHeight Pages: 1 -->
<svg width="648pt" height="165pt"
 viewBox="0.00 0.00 648.00 165.00" xmlns="http://www.w3.org/2000/svg" xmlns:xlink="http://www.w3.org/1999/xlink">
<g id="graph0" class="graph" transform="scale(1 1) rotate(0) translate(4 161)">
<title>Map::increaseHeight</title>
<!-- Node1 -->
<g id="node1" class="node"><title>Node1</title>
<polygon fill="#bfbfbf" stroke="black" points="0,-47.5 0,-66.5 115,-66.5 115,-47.5 0,-47.5"/>
<text text-anchor="middle" x="57.5" y="-54.5" font-family="Helvetica,sans-Serif" font-size="10.00">Map::increaseHeight</text>
</g>
<!-- Node2 -->
<g id="node2" class="node"><title>Node2</title>
<g id="a_node2"><a xlink:href="classSingleton.html#af5cb1e5749949e2b68416cfb8d378044" target="_top" xlink:title="Get an instance of the singleton. ">
<polygon fill="none" stroke="black" points="151,-95 151,-125 264,-125 264,-95 151,-95"/>
<text text-anchor="start" x="159" y="-113" font-family="Helvetica,sans-Serif" font-size="10.00">Singleton&lt; Settings</text>
<text text-anchor="middle" x="207.5" y="-102" font-family="Helvetica,sans-Serif" font-size="10.00"> &gt;::instance</text>
</a>
</g>
</g>
<!-- Node1&#45;&gt;Node2 -->
<g id="edge1" class="edge"><title>Node1&#45;&gt;Node2</title>
<path fill="none" stroke="midnightblue" d="M85.3017,-66.5979C104.703,-73.5457 131.533,-83.1538 155.019,-91.5641"/>
<polygon fill="midnightblue" stroke="midnightblue" points="153.913,-94.8857 164.507,-94.9621 156.273,-88.2955 153.913,-94.8857"/>
</g>
<!-- Node3 -->
<g id="node3" class="node"><title>Node3</title>
<g id="a_node3"><a xlink:href="classMap.html#a05e7d896dc5062af07c9b838600a068d" target="_top" xlink:title="Demolish a node Invokes the tiles demolish function. ">
<polygon fill="none" stroke="black" points="151.5,-0.5 151.5,-19.5 263.5,-19.5 263.5,-0.5 151.5,-0.5"/>
<text text-anchor="middle" x="207.5" y="-7.5" font-family="Helvetica,sans-Serif" font-size="10.00">Map::demolishNode</text>
</a>
</g>
</g>
<!-- Node1&#45;&gt;Node3 -->
<g id="edge2" class="edge"><title>Node1&#45;&gt;Node3</title>
<path fill="none" stroke="midnightblue" d="M88.45,-47.4888C110.944,-40.3456 141.975,-30.491 166.577,-22.6782"/>
<polygon fill="midnightblue" stroke="midnightblue" points="167.869,-25.9402 176.341,-19.5776 165.751,-19.2685 167.869,-25.9402"/>
</g>
<!-- Node4 -->
<g id="node4" class="node"><title>Node4</title>
<g id="a_node4"><a xlink:href="classMap.html#a59d21f2688713fbcfe320eb1b24405ca" target="_top" xlink:title="Update mapNode and its adjacent tiles Updates mapNode height information, draws slopes for adjacent t...">
<polygon fill="none" stroke="black" points="300,-44.5 300,-63.5 461,-63.5 461,-44.5 300,-44.5"/>
<text text-anchor="middle" x="380.5" y="-51.5" font-family="Helvetica,sans-Serif" font-size="10.00">Map::updateNeighborsOfNode</text>
</a>
</g>
</g>
<!-- Node1&#45;&gt;Node4 -->
<g id="edge12" class="edge"><title>Node1&#45;&gt;Node4</title>
<path fill="none" stroke="midnightblue" d="M115.149,-51.1791C163.44,-49.1221 233.711,-48.1854 289.665,-48.7084"/>
<polygon fill="midnightblue" stroke="midnightblue" points="289.899,-52.2111 299.937,-48.823 289.977,-45.2115 289.899,-52.2111"/>
</g>
<!-- Node3&#45;&gt;Node4 -->
<g id="edge3" class="edge"><title>Node3&#45;&gt;Node4</title>
<path fill="none" stroke="midnightblue" d="M263.547,-17.81C292.422,-24.4579 326.628,-33.6358 350.371,-41.2801"/>
<polygon fill="midnightblue" stroke="midnightblue" points="349.267,-44.6012 359.861,-44.4505 351.485,-37.962 349.267,-44.6012"/>
</g>
<!-- Node4&#45;&gt;Node1 -->
<g id="edge8" class="edge"><title>Node4&#45;&gt;Node1</title>
<path fill="none" stroke="midnightblue" d="M299.937,-60.6641C246.242,-62.3693 176.177,-62.9181 125.365,-61.9777"/>
<polygon fill="midnightblue" stroke="midnightblue" points="125.221,-58.474 115.149,-61.762 125.073,-65.4724 125.221,-58.474"/>
</g>
<!-- Node4&#45;&gt;Node3 -->
<g id="edge6" class="edge"><title>Node4&#45;&gt;Node3</title>
<path fill="none" stroke="midnightblue" d="M316.85,-44.4105C289.775,-37.9743 259.4,-29.7252 237.717,-22.7482"/>
<polygon fill="midnightblue" stroke="midnightblue" points="238.71,-19.3899 228.116,-19.5413 236.492,-26.0293 238.71,-19.3899"/>
</g>
<!-- Node5 -->
<g id="node5" class="node"><title>Node5</title>
<g id="a_node5"><a xlink:href="classMap.html#a63f0e5040c86652c7239475f8ff3a45a" target="_top" xlink:title="Get neighbor MapNode Objects Stores pointers to the neighboring nodes of the given coordinates in the...">
<polygon fill="none" stroke="black" points="515,-137.5 515,-156.5 622,-156.5 622,-137.5 515,-137.5"/>
<text text-anchor="middle" x="568.5" y="-144.5" font-family="Helvetica,sans-Serif" font-size="10.00">Map::getNeighbors</text>
</a>
</g>
</g>
<!-- Node4&#45;&gt;Node5 -->
<g id="edge4" class="edge"><title>Node4&#45;&gt;Node5</title>
<path fill="none" stroke="midnightblue" d="M393.598,-63.5529C413.876,-79.1352 456.492,-110.079 497,-128 502.421,-130.398 508.215,-132.555 514.063,-134.477"/>
<polygon fill="midnightblue" stroke="midnightblue" points="513.315,-137.908 523.902,-137.493 515.367,-131.216 513.315,-137.908"/>
</g>
<!-- Node6 -->
<g id="node6" class="node"><title>Node6</title>
<g id="a_node6"><a xlink:href="classMap.html#a0ff55eb041cdf29aa582a21145319ce0" target="_top" xlink:title="Get elevated neighbor positions in a bitmask Checks all neighboring tiles and returns the elevated ne...">
<polygon fill="none" stroke="black" points="497,-88 497,-118 640,-118 640,-88 497,-88"/>
<text text-anchor="start" x="505" y="-106" font-family="Helvetica,sans-Serif" font-size="10.00">Map::getElevatedNeighbor</text>
<text text-anchor="middle" x="568.5" y="-95" font-family="Helvetica,sans-Serif" font-size="10.00">Bitmask</text>
</a>
</g>
</g>
<!-- Node4&#45;&gt;Node6 -->
<g id="edge5" class="edge"><title>Node4&#45;&gt;Node6</title>
<path fill="none" stroke="midnightblue" d="M417.804,-63.564C441.352,-69.7676 472.743,-78.0371 500.696,-85.401"/>
<polygon fill="midnightblue" stroke="midnightblue" points="499.859,-88.8 510.421,-87.963 501.642,-82.0309 499.859,-88.8"/>
</g>
<!-- Node7 -->
<g id="node7" class="node"><title>Node7</title>
<g id="a_node7"><a xlink:href="classMap.html#a392940f84796653b8e811ed8dc296c84" target="_top" xlink:title="Get a bitmask that represents same&#45;tile neighbors Checks all neighboring tiles and returns the elevat...">
<polygon fill="none" stroke="black" points="500,-39 500,-69 637,-69 637,-39 500,-39"/>
<text text-anchor="start" x="508" y="-57" font-family="Helvetica,sans-Serif" font-size="10.00">Map::getNeighboringTiles</text>
<text text-anchor="middle" x="568.5" y="-46" font-family="Helvetica,sans-Serif" font-size="10.00">Bitmask</text>
</a>
</g>
</g>
<!-- Node4&#45;&gt;Node7 -->
<g id="edge7" class="edge"><title>Node4&#45;&gt;Node7</title>
<path fill="none" stroke="midnightblue" d="M461.19,-54C470.676,-54 480.35,-54 489.807,-54"/>
<polygon fill="midnightblue" stroke="midnightblue" points="489.965,-57.5001 499.965,-54 489.965,-50.5001 489.965,-57.5001"/>
</g>
<!-- Node8 -->
<g id="node8" class="node"><title>Node8</title>
<g id="a_node8"><a xlink:href="classMap.html#afb8cc864df90d273a5074872d635dc40" target="_top" xlink:title="Decrease Height Decreases the height of the node and checks the surrounding tiles. Either draw a slope sprite or lower the tile if necessary. ">
<polygon fill="none" stroke="black" points="509,-0.5 509,-19.5 628,-19.5 628,-0.5 509,-0.5"/>
<text text-anchor="middle" x="568.5" y="-7.5" font-family="Helvetica,sans-Serif" font-size="10.00">Map::decreaseHeight</text>
</a>
</g>
</g>
<!-- Node4&#45;&gt;Node8 -->
<g id="edge9" class="edge"><title>Node4&#45;&gt;Node8</title>
<path fill="none" stroke="midnightblue" d="M402.837,-44.4587C426.199,-36.9688 464.871,-27.1388 498.868,-19.6958"/>
<polygon fill="midnightblue" stroke="midnightblue" points="499.739,-23.0888 508.78,-17.566 498.268,-16.245 499.739,-23.0888"/>
</g>
<!-- Node8&#45;&gt;Node3 -->
<g id="edge10" class="edge"><title>Node8&#45;&gt;Node3</title>
<path fill="none" stroke="midnightblue" d="M508.848,-10C444.327,-10 340.908,-10 273.838,-10"/>
<polygon fill="midnightblue" stroke="midnightblue" points="273.807,-6.5001 263.807,-10 273.807,-13.5001 273.807,-6.5001"/>
</g>
<!-- Node8&#45;&gt;Node4 -->
<g id="edge11" class="edge"><title>Node8&#45;&gt;Node4</title>
<path fill="none" stroke="midnightblue" d="M545.905,-19.6241C524.657,-26.4191 490.926,-35.1171 459.532,-42.2126"/>
<polygon fill="midnightblue" stroke="midnightblue" points="458.442,-38.8692 449.44,-44.4555 459.961,-45.7025 458.442,-38.8692"/>
</g>
</g>
</svg>
