<?xml version="1.0" encoding="UTF-8" standalone="no"?>
<!DOCTYPE svg PUBLIC "-//W3C//DTD SVG 1.1//EN"
 "http://www.w3.org/Graphics/SVG/1.1/DTD/svg11.dtd">
<!-- Generated by graphviz version 2.38.0 (20140413.2041)
 -->
<!-- Title: Button::setCheckState Pages: 1 -->
<svg width="551pt" height="66pt"
 viewBox="0.00 0.00 551.00 66.00" xmlns="http://www.w3.org/2000/svg" xmlns:xlink="http://www.w3.org/1999/xlink">
<g id="graph0" class="graph" transform="scale(1 1) rotate(0) translate(4 62)">
<title>Button::setCheckState</title>
<!-- Node1 -->
<g id="node1" class="node"><title>Node1</title>
<polygon fill="#bfbfbf" stroke="black" points="0,-19.5 0,-38.5 125,-38.5 125,-19.5 0,-19.5"/>
<text text-anchor="middle" x="62.5" y="-26.5" font-family="Helvetica,sans-Serif" font-size="10.00">Button::setCheckState</text>
</g>
<!-- Node2 -->
<g id="node2" class="node"><title>Node2</title>
<g id="a_node2"><a xlink:href="classButtonGroup.html#aa1a05dec9459ad23e5d7028fa9d35850" target="_top" xlink:title="Function to call the uncheck event of buttons. Function to call the uncheck event of buttons...">
<polygon fill="none" stroke="black" points="161,-38.5 161,-57.5 334,-57.5 334,-38.5 161,-38.5"/>
<text text-anchor="middle" x="247.5" y="-45.5" font-family="Helvetica,sans-Serif" font-size="10.00">ButtonGroup::uncheckAllButtons</text>
</a>
</g>
</g>
<!-- Node1&#45;&gt;Node2 -->
<g id="edge1" class="edge"><title>Node1&#45;&gt;Node2</title>
<path fill="none" stroke="midnightblue" d="M135.253,-36.4497C143.604,-37.3168 152.185,-38.2077 160.7,-39.0919"/>
<polygon fill="midnightblue" stroke="midnightblue" points="135.508,-32.9575 125.2,-35.406 134.785,-39.9201 135.508,-32.9575"/>
</g>
<!-- Node4 -->
<g id="node4" class="node"><title>Node4</title>
<g id="a_node4"><a xlink:href="classButton.html#acfeb33328b356d4fda989808888f81db" target="_top" xlink:title="Button::onMouseButtonUp">
<polygon fill="none" stroke="black" points="175.5,-0.5 175.5,-19.5 319.5,-19.5 319.5,-0.5 175.5,-0.5"/>
<text text-anchor="middle" x="247.5" y="-7.5" font-family="Helvetica,sans-Serif" font-size="10.00">Button::onMouseButtonUp</text>
</a>
</g>
</g>
<!-- Node1&#45;&gt;Node4 -->
<g id="edge3" class="edge"><title>Node1&#45;&gt;Node4</title>
<path fill="none" stroke="midnightblue" d="M135.152,-21.5607C148.339,-20.1915 162.104,-18.7624 175.278,-17.3946"/>
<polygon fill="midnightblue" stroke="midnightblue" points="134.785,-18.0799 125.2,-22.594 135.508,-25.0425 134.785,-18.0799"/>
</g>
<!-- Node3 -->
<g id="node3" class="node"><title>Node3</title>
<g id="a_node3"><a xlink:href="classButtonGroup.html#a295239eeae8b6c52735fe0cc7a093741" target="_top" xlink:title="ButtonGroup::onMouseButtonUp">
<polygon fill="none" stroke="black" points="370,-38.5 370,-57.5 543,-57.5 543,-38.5 370,-38.5"/>
<text text-anchor="middle" x="456.5" y="-45.5" font-family="Helvetica,sans-Serif" font-size="10.00">ButtonGroup::onMouseButtonUp</text>
</a>
</g>
</g>
<!-- Node2&#45;&gt;Node3 -->
<g id="edge2" class="edge"><title>Node2&#45;&gt;Node3</title>
<path fill="none" stroke="midnightblue" d="M344.198,-48C352.764,-48 361.402,-48 369.875,-48"/>
<polygon fill="midnightblue" stroke="midnightblue" points="344.189,-44.5001 334.189,-48 344.189,-51.5001 344.189,-44.5001"/>
</g>
</g>
</svg>
