<?xml version="1.0" encoding="UTF-8" standalone="no"?>
<!DOCTYPE svg PUBLIC "-//W3C//DTD SVG 1.1//EN"
 "http://www.w3.org/Graphics/SVG/1.1/DTD/svg11.dtd">
<!-- Generated by graphviz version 2.38.0 (20140413.2041)
 -->
<!-- Title: Frame::draw Pages: 1 -->
<svg width="418pt" height="28pt"
 viewBox="0.00 0.00 418.00 28.00" xmlns="http://www.w3.org/2000/svg" xmlns:xlink="http://www.w3.org/1999/xlink">
<g id="graph0" class="graph" transform="scale(1 1) rotate(0) translate(4 24)">
<title>Frame::draw</title>
<!-- Node1 -->
<g id="node1" class="node"><title>Node1</title>
<polygon fill="#bfbfbf" stroke="black" points="0,-0.5 0,-19.5 75,-19.5 75,-0.5 0,-0.5"/>
<text text-anchor="middle" x="37.5" y="-7.5" font-family="Helvetica,sans-Serif" font-size="10.00">Frame::draw</text>
</g>
<!-- Node2 -->
<g id="node2" class="node"><title>Node2</title>
<g id="a_node2"><a xlink:href="classUIElement.html#af7c295301e56e32f3d00081e081bc71c" target="_top" xlink:title="UIElement::drawFrame">
<polygon fill="none" stroke="black" points="111,-0.5 111,-19.5 236,-19.5 236,-0.5 111,-0.5"/>
<text text-anchor="middle" x="173.5" y="-7.5" font-family="Helvetica,sans-Serif" font-size="10.00">UIElement::drawFrame</text>
</a>
</g>
</g>
<!-- Node1&#45;&gt;Node2 -->
<g id="edge1" class="edge"><title>Node1&#45;&gt;Node2</title>
<path fill="none" stroke="midnightblue" d="M75.1161,-10C83.1672,-10 91.9609,-10 100.864,-10"/>
<polygon fill="midnightblue" stroke="midnightblue" points="100.929,-13.5001 110.929,-10 100.929,-6.5001 100.929,-13.5001"/>
</g>
<!-- Node3 -->
<g id="node3" class="node"><title>Node3</title>
<g id="a_node3"><a xlink:href="classUIElement.html#a93e23ad405b6275a99d5f71d32232f5c" target="_top" xlink:title="Draws a filled rectangle to the screen. Draws a filled rectangle to the screen. ">
<polygon fill="none" stroke="black" points="272,-0.5 272,-19.5 410,-19.5 410,-0.5 272,-0.5"/>
<text text-anchor="middle" x="341" y="-7.5" font-family="Helvetica,sans-Serif" font-size="10.00">UIElement::drawSolidRect</text>
</a>
</g>
</g>
<!-- Node2&#45;&gt;Node3 -->
<g id="edge2" class="edge"><title>Node2&#45;&gt;Node3</title>
<path fill="none" stroke="midnightblue" d="M236.126,-10C244.515,-10 253.214,-10 261.847,-10"/>
<polygon fill="midnightblue" stroke="midnightblue" points="261.927,-13.5001 271.927,-10 261.927,-6.5001 261.927,-13.5001"/>
</g>
</g>
</svg>
