<?xml version="1.0" encoding="UTF-8" standalone="no"?>
<!DOCTYPE svg PUBLIC "-//W3C//DTD SVG 1.1//EN"
 "http://www.w3.org/Graphics/SVG/1.1/DTD/svg11.dtd">
<!-- Generated by graphviz version 2.38.0 (20140413.2041)
 -->
<!-- Title: Map::findNodeInMap Pages: 1 -->
<svg width="656pt" height="196pt"
 viewBox="0.00 0.00 656.00 195.50" xmlns="http://www.w3.org/2000/svg" xmlns:xlink="http://www.w3.org/1999/xlink">
<g id="graph0" class="graph" transform="scale(1 1) rotate(0) translate(4 191.5)">
<title>Map::findNodeInMap</title>
<!-- Node1 -->
<g id="node1" class="node"><title>Node1</title>
<polygon fill="#bfbfbf" stroke="black" points="0,-130 0,-149 114,-149 114,-130 0,-130"/>
<text text-anchor="middle" x="57" y="-137" font-family="Helvetica,sans-Serif" font-size="10.00">Map::findNodeInMap</text>
</g>
<!-- Node2 -->
<g id="node2" class="node"><title>Node2</title>
<g id="a_node2"><a xlink:href="isoMath_8cxx.html#a0a076d973bc64ffa7859b894793c8000" target="_top" xlink:title="Calculates screen space coordinates to isometric space coordinates. A formula is used to calculate th...">
<polygon fill="none" stroke="black" points="150,-168 150,-187 281,-187 281,-168 150,-168"/>
<text text-anchor="middle" x="215.5" y="-175" font-family="Helvetica,sans-Serif" font-size="10.00">calculateIsoCoordinates</text>
</a>
</g>
</g>
<!-- Node1&#45;&gt;Node2 -->
<g id="edge1" class="edge"><title>Node1&#45;&gt;Node2</title>
<path fill="none" stroke="midnightblue" d="M97.4916,-149.089C118.143,-154.104 143.614,-160.288 165.512,-165.605"/>
<polygon fill="midnightblue" stroke="midnightblue" points="164.749,-169.021 175.292,-167.98 166.401,-162.219 164.749,-169.021"/>
</g>
<!-- Node3 -->
<g id="node3" class="node"><title>Node3</title>
<g id="a_node3"><a xlink:href="classSingleton.html#af5cb1e5749949e2b68416cfb8d378044" target="_top" xlink:title="Get an instance of the singleton. ">
<polygon fill="none" stroke="black" points="341,-126.5 341,-156.5 454,-156.5 454,-126.5 341,-126.5"/>
<text text-anchor="start" x="349" y="-144.5" font-family="Helvetica,sans-Serif" font-size="10.00">Singleton&lt; Settings</text>
<text text-anchor="middle" x="397.5" y="-133.5" font-family="Helvetica,sans-Serif" font-size="10.00"> &gt;::instance</text>
</a>
</g>
</g>
<!-- Node1&#45;&gt;Node3 -->
<g id="edge2" class="edge"><title>Node1&#45;&gt;Node3</title>
<path fill="none" stroke="midnightblue" d="M114.276,-139.833C173.845,-140.184 267.774,-140.739 330.72,-141.111"/>
<polygon fill="midnightblue" stroke="midnightblue" points="330.913,-144.612 340.933,-141.172 330.954,-137.613 330.913,-144.612"/>
</g>
<!-- Node4 -->
<g id="node4" class="node"><title>Node4</title>
<g id="a_node4"><a xlink:href="classMap.html#a4481133402bbf2899f9062c1d4061bef" target="_top" xlink:title="Map::isClickWithinTile">
<polygon fill="none" stroke="black" points="157.5,-89 157.5,-108 273.5,-108 273.5,-89 157.5,-89"/>
<text text-anchor="middle" x="215.5" y="-96" font-family="Helvetica,sans-Serif" font-size="10.00">Map::isClickWithinTile</text>
</a>
</g>
</g>
<!-- Node1&#45;&gt;Node4 -->
<g id="edge3" class="edge"><title>Node1&#45;&gt;Node4</title>
<path fill="none" stroke="midnightblue" d="M94.2976,-129.991C116.341,-124.216 144.691,-116.789 168.322,-110.598"/>
<polygon fill="midnightblue" stroke="midnightblue" points="169.342,-113.949 178.128,-108.029 167.568,-107.177 169.342,-113.949"/>
</g>
<!-- Node4&#45;&gt;Node3 -->
<g id="edge4" class="edge"><title>Node4&#45;&gt;Node3</title>
<path fill="none" stroke="midnightblue" d="M273.948,-105.882C297.609,-110.915 324.739,-117.481 347.448,-123.696"/>
<polygon fill="midnightblue" stroke="midnightblue" points="346.641,-127.104 357.214,-126.426 348.525,-120.363 346.641,-127.104"/>
</g>
<!-- Node4&#45;&gt;Node3 -->
<g id="edge9" class="edge"><title>Node4&#45;&gt;Node3</title>
<path fill="none" stroke="midnightblue" d="M237.501,-108.041C260.277,-115.433 297.786,-125.062 330.654,-132.299"/>
<polygon fill="midnightblue" stroke="midnightblue" points="330.171,-135.776 340.684,-134.463 331.648,-128.933 330.171,-135.776"/>
</g>
<!-- Node5 -->
<g id="node5" class="node"><title>Node5</title>
<g id="a_node5"><a xlink:href="classMapLayers.html#a1d810628821913c499b8348107b66891" target="_top" xlink:title="Check if given Layer is being drawn. ">
<polygon fill="none" stroke="black" points="329,-88 329,-107 466,-107 466,-88 329,-88"/>
<text text-anchor="middle" x="397.5" y="-95" font-family="Helvetica,sans-Serif" font-size="10.00">MapLayers::isLayerActive</text>
</a>
</g>
</g>
<!-- Node4&#45;&gt;Node5 -->
<g id="edge5" class="edge"><title>Node4&#45;&gt;Node5</title>
<path fill="none" stroke="midnightblue" d="M273.948,-98.1808C288.159,-98.1019 303.622,-98.016 318.627,-97.9326"/>
<polygon fill="midnightblue" stroke="midnightblue" points="318.94,-101.431 328.92,-97.8754 318.901,-94.4311 318.94,-101.431"/>
</g>
<!-- Node8 -->
<g id="node8" class="node"><title>Node8</title>
<g id="a_node8"><a xlink:href="classMap.html#a7a58d0e00e4990a1234a0afb5fd8be4f" target="_top" xlink:title="Map::getColorOfPixelInSurface">
<polygon fill="none" stroke="black" points="317,-50 317,-69 478,-69 478,-50 317,-50"/>
<text text-anchor="middle" x="397.5" y="-57" font-family="Helvetica,sans-Serif" font-size="10.00">Map::getColorOfPixelInSurface</text>
</a>
</g>
</g>
<!-- Node4&#45;&gt;Node8 -->
<g id="edge8" class="edge"><title>Node4&#45;&gt;Node8</title>
<path fill="none" stroke="midnightblue" d="M260.533,-88.9595C285.359,-83.5806 316.563,-76.8196 342.815,-71.1318"/>
<polygon fill="midnightblue" stroke="midnightblue" points="343.578,-74.5477 352.61,-69.0095 342.096,-67.7065 343.578,-74.5477"/>
</g>
<!-- Node9 -->
<g id="node9" class="node"><title>Node9</title>
<g id="a_node9"><a xlink:href="classResourcesManager.html#ad84710588e607e440931c6956a14aac7" target="_top" xlink:title="ResourcesManager::getTile\lSurface">
<polygon fill="none" stroke="black" points="325,-0.5 325,-30.5 470,-30.5 470,-0.5 325,-0.5"/>
<text text-anchor="start" x="333" y="-18.5" font-family="Helvetica,sans-Serif" font-size="10.00">ResourcesManager::getTile</text>
<text text-anchor="middle" x="397.5" y="-7.5" font-family="Helvetica,sans-Serif" font-size="10.00">Surface</text>
</a>
</g>
</g>
<!-- Node4&#45;&gt;Node9 -->
<g id="edge10" class="edge"><title>Node4&#45;&gt;Node9</title>
<path fill="none" stroke="midnightblue" d="M230.951,-88.8005C250.014,-76.3288 284.91,-54.6022 317,-40.5 322.261,-38.188 327.803,-35.9916 333.413,-33.9306"/>
<polygon fill="midnightblue" stroke="midnightblue" points="334.612,-37.2192 342.879,-30.5935 332.284,-30.6174 334.612,-37.2192"/>
</g>
<!-- Node6 -->
<g id="node6" class="node"><title>Node6</title>
<g id="a_node6"><a xlink:href="classMapLayers.html#a53d7fcd90e70eaf36239d7a75c0c5dda" target="_top" xlink:title="MapLayers::MapLayers">
<polygon fill="none" stroke="black" points="518,-107 518,-126 644,-126 644,-107 518,-107"/>
<text text-anchor="middle" x="581" y="-114" font-family="Helvetica,sans-Serif" font-size="10.00">MapLayers::MapLayers</text>
</a>
</g>
</g>
<!-- Node5&#45;&gt;Node6 -->
<g id="edge6" class="edge"><title>Node5&#45;&gt;Node6</title>
<path fill="none" stroke="midnightblue" d="M466.084,-104.575C479.577,-105.987 493.802,-107.477 507.454,-108.906"/>
<polygon fill="midnightblue" stroke="midnightblue" points="507.45,-112.424 517.76,-109.985 508.179,-105.462 507.45,-112.424"/>
</g>
<!-- Node7 -->
<g id="node7" class="node"><title>Node7</title>
<g id="a_node7"><a xlink:href="classMapLayers.html#aa7fa21110e27ec69f131692b0a510d66" target="_top" xlink:title="MapLayers::~MapLayers">
<polygon fill="none" stroke="black" points="514,-69 514,-88 648,-88 648,-69 514,-69"/>
<text text-anchor="middle" x="581" y="-76" font-family="Helvetica,sans-Serif" font-size="10.00">MapLayers::~MapLayers</text>
</a>
</g>
</g>
<!-- Node5&#45;&gt;Node7 -->
<g id="edge7" class="edge"><title>Node5&#45;&gt;Node7</title>
<path fill="none" stroke="midnightblue" d="M466.084,-90.4251C478.411,-89.1347 491.349,-87.7803 503.902,-86.4662"/>
<polygon fill="midnightblue" stroke="midnightblue" points="504.287,-89.9451 513.869,-85.4228 503.558,-82.9831 504.287,-89.9451"/>
</g>
</g>
</svg>
