<?xml version="1.0" encoding="UTF-8" standalone="no"?>
<!DOCTYPE svg PUBLIC "-//W3C//DTD SVG 1.1//EN"
 "http://www.w3.org/Graphics/SVG/1.1/DTD/svg11.dtd">
<!-- Generated by graphviz version 2.38.0 (20140413.2041)
 -->
<!-- Title: Timer::loopTimer Pages: 1 -->
<svg width="445pt" height="116pt"
 viewBox="0.00 0.00 445.00 115.50" xmlns="http://www.w3.org/2000/svg" xmlns:xlink="http://www.w3.org/1999/xlink">
<g id="graph0" class="graph" transform="scale(1 1) rotate(0) translate(4 111.5)">
<title>Timer::loopTimer</title>
<!-- Node1 -->
<g id="node1" class="node"><title>Node1</title>
<polygon fill="#bfbfbf" stroke="black" points="0,-38.5 0,-57.5 97,-57.5 97,-38.5 0,-38.5"/>
<text text-anchor="middle" x="48.5" y="-45.5" font-family="Helvetica,sans-Serif" font-size="10.00">Timer::loopTimer</text>
</g>
<!-- Node2 -->
<g id="node2" class="node"><title>Node2</title>
<g id="a_node2"><a xlink:href="classTimer.html#ab887910601a1a42b2549c99892653921" target="_top" xlink:title="Timer::checkTimeout">
<polygon fill="none" stroke="black" points="133,-38.5 133,-57.5 249,-57.5 249,-38.5 133,-38.5"/>
<text text-anchor="middle" x="191" y="-45.5" font-family="Helvetica,sans-Serif" font-size="10.00">Timer::checkTimeout</text>
</a>
</g>
</g>
<!-- Node1&#45;&gt;Node2 -->
<g id="edge1" class="edge"><title>Node1&#45;&gt;Node2</title>
<path fill="none" stroke="midnightblue" d="M97.0669,-48C105.306,-48 114.012,-48 122.66,-48"/>
<polygon fill="midnightblue" stroke="midnightblue" points="122.752,-51.5001 132.752,-48 122.752,-44.5001 122.752,-51.5001"/>
</g>
<!-- Node3 -->
<g id="node3" class="node"><title>Node3</title>
<g id="a_node3"><a xlink:href="classTimer.html#ab16249c34c11718cc8e99ff83a3febbc" target="_top" xlink:title="get elapsed time since last timeOut Returns the time in milliseconds, that has passed since the last ...">
<polygon fill="none" stroke="black" points="285,-77 285,-107 437,-107 437,-77 285,-77"/>
<text text-anchor="start" x="293" y="-95" font-family="Helvetica,sans-Serif" font-size="10.00">Timer::getElapsedTimeSince</text>
<text text-anchor="middle" x="361" y="-84" font-family="Helvetica,sans-Serif" font-size="10.00">LastTimeOut</text>
</a>
</g>
</g>
<!-- Node2&#45;&gt;Node3 -->
<g id="edge2" class="edge"><title>Node2&#45;&gt;Node3</title>
<path fill="none" stroke="midnightblue" d="M228.453,-57.5473C247.199,-62.457 270.656,-68.6004 292.551,-74.3347"/>
<polygon fill="midnightblue" stroke="midnightblue" points="291.917,-77.7868 302.478,-76.9346 293.691,-71.0152 291.917,-77.7868"/>
</g>
<!-- Node4 -->
<g id="node4" class="node"><title>Node4</title>
<g id="a_node4"><a xlink:href="classTimer.html#a1f02a25426e43a017f565671c32ebb6d" target="_top" xlink:title="Timer::timeOut">
<polygon fill="none" stroke="black" points="316.5,-38.5 316.5,-57.5 405.5,-57.5 405.5,-38.5 316.5,-38.5"/>
<text text-anchor="middle" x="361" y="-45.5" font-family="Helvetica,sans-Serif" font-size="10.00">Timer::timeOut</text>
</a>
</g>
</g>
<!-- Node2&#45;&gt;Node4 -->
<g id="edge3" class="edge"><title>Node2&#45;&gt;Node4</title>
<path fill="none" stroke="midnightblue" d="M249.346,-48C267.787,-48 288.14,-48 306.309,-48"/>
<polygon fill="midnightblue" stroke="midnightblue" points="306.436,-51.5001 316.436,-48 306.436,-44.5001 306.436,-51.5001"/>
</g>
<!-- Node5 -->
<g id="node5" class="node"><title>Node5</title>
<g id="a_node5"><a xlink:href="classTimer.html#a63f0eb44b27402196590a03781515dba" target="_top" xlink:title="Stop the timer Stops the timer and set it back to 0. ">
<polygon fill="none" stroke="black" points="325.5,-0.5 325.5,-19.5 396.5,-19.5 396.5,-0.5 325.5,-0.5"/>
<text text-anchor="middle" x="361" y="-7.5" font-family="Helvetica,sans-Serif" font-size="10.00">Timer::stop</text>
</a>
</g>
</g>
<!-- Node2&#45;&gt;Node5 -->
<g id="edge4" class="edge"><title>Node2&#45;&gt;Node5</title>
<path fill="none" stroke="midnightblue" d="M234.393,-38.411C259.084,-32.8263 290.19,-25.7903 315.27,-20.1175"/>
<polygon fill="midnightblue" stroke="midnightblue" points="316.279,-23.4778 325.26,-17.8578 314.735,-16.6503 316.279,-23.4778"/>
</g>
</g>
</svg>
