<?xml version="1.0" encoding="UTF-8" standalone="no"?>
<!DOCTYPE svg PUBLIC "-//W3C//DTD SVG 1.1//EN"
 "http://www.w3.org/Graphics/SVG/1.1/DTD/svg11.dtd">
<!-- Generated by graphviz version 2.38.0 (20140413.2041)
 -->
<!-- Title: Map::updateNeighborsOfNode Pages: 1 -->
<!--zoomable 374 -->
<svg id="main" version="1.1" xmlns="http://www.w3.org/2000/svg" xmlns:xlink="http://www.w3.org/1999/xlink" xml:space="preserve" onload="init(evt)">
<style type="text/css"><![CDATA[
.edge:hover path { stroke: red; }
.edge:hover polygon { stroke: red; fill: red; }
]]></style>
<script type="text/javascript"><![CDATA[
var edges = document.getElementsByTagName('g');
if (edges && edges.length) {
  for (var i=0;i<edges.length;i++) {
    if (edges[i].id.substr(0,4)=='edge') {
      edges[i].setAttribute('class','edge');
    }
  }
}
]]></script>
        <defs>
                <circle id="rim" cx="0" cy="0" r="7"/>
                <circle id="rim2" cx="0" cy="0" r="3.5"/>
                <g id="zoomPlus">
                        <use xlink:href="#rim" fill="#404040">
                                <set attributeName="fill" to="#808080" begin="zoomplus.mouseover" end="zoomplus.mouseout"/>
                        </use>
                        <path d="M-4,0h8M0,-4v8" fill="none" stroke="white" stroke-width="1.5" pointer-events="none"/>
                </g>
                <g id="zoomMin">
                        <use xlink:href="#rim" fill="#404040">
                                <set attributeName="fill" to="#808080" begin="zoomminus.mouseover" end="zoomminus.mouseout"/>
                        </use>
                        <path d="M-4,0h8" fill="none" stroke="white" stroke-width="1.5" pointer-events="none"/>
                </g>
                <g id="dirArrow">
                        <path fill="none" stroke="white" stroke-width="1.5" d="M0,-3.0v7 M-2.5,-0.5L0,-3.0L2.5,-0.5"/>
                </g>
               <g id="resetDef">
                       <use xlink:href="#rim2" fill="#404040">
                               <set attributeName="fill" to="#808080" begin="reset.mouseover" end="reset.mouseout"/>
                       </use>
               </g>
        </defs>

<script type="text/javascript">
var viewWidth = 1620;
var viewHeight = 374;
var sectionId = 'dynsection-34';
</script>
<script xlink:href="svgpan.js"/>
<svg id="graph" class="graph">
<g id="viewport">
<title>Map::updateNeighborsOfNode</title>
<!-- Node1 -->
<g id="node1" class="node"><title>Node1</title>
<polygon fill="#bfbfbf" stroke="black" points="0,-277.178 0,-296.178 161,-296.178 161,-277.178 0,-277.178"/>
<text text-anchor="middle" x="80.5" y="-284.178" font-family="Helvetica,sans-Serif" font-size="10.00">Map::updateNeighborsOfNode</text>
</g>
<!-- Node2 -->
<g id="node2" class="node"><title>Node2</title>
<g id="a_node2"><a xlink:href="classMap.html#aba5154a4d917900679a3c0f7ec701561" target="_top" xlink:title="Increase Height Increases the height of the node and checks the surrounding tiles. Either draw a slope sprite or elevate the tile if necessary. ">
<polygon fill="none" stroke="black" points="354,-346.178 354,-365.178 469,-365.178 469,-346.178 354,-346.178"/>
<text text-anchor="middle" x="411.5" y="-353.178" font-family="Helvetica,sans-Serif" font-size="10.00">Map::increaseHeight</text>
</a>
</g>
</g>
<!-- Node1&#45;&gt;Node2 -->
<g id="edge1" class="edge"><title>Node1&#45;&gt;Node2</title>
<path fill="none" stroke="midnightblue" d="M130.975,-299.665C151.123,-306.931 174.846,-315.285 197,-320.678 253.416,-334.412 320.069,-341.054 363.707,-346.17"/>
<polygon fill="midnightblue" stroke="midnightblue" points="131.989,-296.31 121.395,-296.203 129.61,-302.893 131.989,-296.31"/>
</g>
<!-- Node8 -->
<g id="node8" class="node"><title>Node8</title>
<g id="a_node8"><a xlink:href="classMap.html#afb8cc864df90d273a5074872d635dc40" target="_top" xlink:title="Decrease Height Decreases the height of the node and checks the surrounding tiles. Either draw a slope sprite or lower the tile if necessary. ">
<polygon fill="none" stroke="black" points="352,-257.178 352,-276.178 471,-276.178 471,-257.178 352,-257.178"/>
<text text-anchor="middle" x="411.5" y="-264.178" font-family="Helvetica,sans-Serif" font-size="10.00">Map::decreaseHeight</text>
</a>
</g>
</g>
<!-- Node1&#45;&gt;Node8 -->
<g id="edge8" class="edge"><title>Node1&#45;&gt;Node8</title>
<path fill="none" stroke="midnightblue" d="M157.34,-276.278C216.582,-271.251 297.702,-266.481 351.994,-264.929"/>
<polygon fill="midnightblue" stroke="midnightblue" points="156.946,-272.799 147.287,-277.152 157.553,-279.773 156.946,-272.799"/>
</g>
<!-- Node10 -->
<g id="node10" class="node"><title>Node10</title>
<g id="a_node10"><a xlink:href="classMap.html#a481b37ba71ef0e51e836fc42805762dd" target="_top" xlink:title="Update all mapNodes Updates all mapNode and its adjacent tiles regarding height information, draws slopes for adjacent tiles and sets tiling for mapNode sprite if applicable. ">
<polygon fill="none" stroke="black" points="197,-159.178 197,-178.178 316,-178.178 316,-159.178 197,-159.178"/>
<text text-anchor="middle" x="256.5" y="-166.178" font-family="Helvetica,sans-Serif" font-size="10.00">Map::updateAllNodes</text>
</a>
</g>
</g>
<!-- Node1&#45;&gt;Node10 -->
<g id="edge12" class="edge"><title>Node1&#45;&gt;Node10</title>
<path fill="none" stroke="midnightblue" d="M100.086,-270.506C122.242,-251.675 160.828,-220.274 197,-197.678 208.633,-190.411 222.338,-183.535 233.558,-178.304"/>
<polygon fill="midnightblue" stroke="midnightblue" points="97.7521,-267.897 92.4384,-277.063 102.308,-273.211 97.7521,-267.897"/>
</g>
<!-- Node20 -->
<g id="node20" class="node"><title>Node20</title>
<g id="a_node20"><a xlink:href="classMap.html#ad4c2c2f80eab02ca32a748a62a56da12" target="_top" xlink:title="Set the Tile ID Of Node object Also invokes all necessary texture updates (auto&#45;tiling, slopes, ...) ">
<polygon fill="none" stroke="black" points="197,-207.178 197,-226.178 316,-226.178 316,-207.178 197,-207.178"/>
<text text-anchor="middle" x="256.5" y="-214.178" font-family="Helvetica,sans-Serif" font-size="10.00">Map::setTileIDOfNode</text>
</a>
</g>
</g>
<!-- Node1&#45;&gt;Node20 -->
<g id="edge32" class="edge"><title>Node1&#45;&gt;Node20</title>
<path fill="none" stroke="midnightblue" d="M114.892,-273.244C149.105,-259.481 201.442,-238.425 231.68,-226.261"/>
<polygon fill="midnightblue" stroke="midnightblue" points="113.3,-270.112 105.329,-277.092 115.913,-276.606 113.3,-270.112"/>
</g>
<!-- Node22 -->
<g id="node22" class="node"><title>Node22</title>
<g id="a_node22"><a xlink:href="classMap.html#a05e7d896dc5062af07c9b838600a068d" target="_top" xlink:title="Demolish a node Invokes the tiles demolish function. ">
<polygon fill="none" stroke="black" points="200.5,-301.178 200.5,-320.178 312.5,-320.178 312.5,-301.178 200.5,-301.178"/>
<text text-anchor="middle" x="256.5" y="-308.178" font-family="Helvetica,sans-Serif" font-size="10.00">Map::demolishNode</text>
</a>
</g>
</g>
<!-- Node1&#45;&gt;Node22 -->
<g id="edge35" class="edge"><title>Node1&#45;&gt;Node22</title>
<path fill="none" stroke="midnightblue" d="M171.182,-292.301C190.439,-294.998 209.52,-298.112 224.648,-301.122"/>
<polygon fill="midnightblue" stroke="midnightblue" points="171.497,-288.811 161.116,-290.931 170.553,-295.747 171.497,-288.811"/>
</g>
<!-- Node2&#45;&gt;Node1 -->
<g id="edge7" class="edge"><title>Node2&#45;&gt;Node1</title>
<path fill="none" stroke="midnightblue" d="M343.449,-359.314C301.02,-356.986 245.264,-350.427 197,-338.678 156.46,-328.809 110.665,-309.026 91.1431,-296.18"/>
<polygon fill="midnightblue" stroke="midnightblue" points="343.504,-362.82 353.661,-359.804 343.84,-355.828 343.504,-362.82"/>
</g>
<!-- Node3 -->
<g id="node3" class="node"><title>Node3</title>
<g id="a_node3"><a xlink:href="classEngine.html#aa7210df73b284c19cd6edcfa99a4532e" target="_top" xlink:title="Increase Height Increases the height of the given map node Calls the according function of the Map ob...">
<polygon fill="none" stroke="black" points="674,-340.178 674,-359.178 801,-359.178 801,-340.178 674,-340.178"/>
<text text-anchor="middle" x="737.5" y="-347.178" font-family="Helvetica,sans-Serif" font-size="10.00">Engine::increaseHeight</text>
</a>
</g>
</g>
<!-- Node2&#45;&gt;Node3 -->
<g id="edge2" class="edge"><title>Node2&#45;&gt;Node3</title>
<path fill="none" stroke="midnightblue" d="M479.323,-354.44C536.46,-353.382 618.07,-351.871 673.943,-350.836"/>
<polygon fill="midnightblue" stroke="midnightblue" points="479.241,-350.941 469.307,-354.626 479.37,-357.94 479.241,-350.941"/>
</g>
<!-- Node4 -->
<g id="node4" class="node"><title>Node4</title>
<g id="a_node4"><a xlink:href="classEventManager.html#a65ec91fd5016d4f9c4167fb8babed2df" target="_top" xlink:title="EventManager::checkEvents">
<polygon fill="none" stroke="black" points="1015,-244.178 1015,-263.178 1167,-263.178 1167,-244.178 1015,-244.178"/>
<text text-anchor="middle" x="1091" y="-251.178" font-family="Helvetica,sans-Serif" font-size="10.00">EventManager::checkEvents</text>
</a>
</g>
</g>
<!-- Node3&#45;&gt;Node4 -->
<g id="edge3" class="edge"><title>Node3&#45;&gt;Node4</title>
<path fill="none" stroke="midnightblue" d="M811.518,-349.442C857.446,-347.426 917.384,-341.327 968,-324.678 1011.53,-310.359 1056.56,-279.075 1077.68,-263.251"/>
<polygon fill="midnightblue" stroke="midnightblue" points="811.206,-345.952 801.348,-349.833 811.475,-352.947 811.206,-345.952"/>
</g>
<!-- Node5 -->
<g id="node5" class="node"><title>Node5</title>
<g id="a_node5"><a xlink:href="classGame.html#a1c2ab25d5216b2f4b2fe41efd2c09114" target="_top" xlink:title="Game::run">
<polygon fill="none" stroke="black" points="1339,-92.1779 1339,-111.178 1407,-111.178 1407,-92.1779 1339,-92.1779"/>
<text text-anchor="middle" x="1373" y="-99.1779" font-family="Helvetica,sans-Serif" font-size="10.00">Game::run</text>
</a>
</g>
</g>
<!-- Node4&#45;&gt;Node5 -->
<g id="edge4" class="edge"><title>Node4&#45;&gt;Node5</title>
<path fill="none" stroke="midnightblue" d="M1118.58,-239.249C1175.31,-208.451 1306.96,-136.983 1354.49,-111.183"/>
<polygon fill="midnightblue" stroke="midnightblue" points="1116.63,-236.323 1109.52,-244.17 1119.97,-242.475 1116.63,-236.323"/>
</g>
<!-- Node6 -->
<g id="node6" class="node"><title>Node6</title>
<g id="a_node6"><a xlink:href="main_8cxx.html#af582d708d899e67ead623eac34a22387" target="_top" xlink:title="protected_main">
<polygon fill="none" stroke="black" points="1443,-130.178 1443,-149.178 1535,-149.178 1535,-130.178 1443,-130.178"/>
<text text-anchor="middle" x="1489" y="-137.178" font-family="Helvetica,sans-Serif" font-size="10.00">protected_main</text>
</a>
</g>
</g>
<!-- Node5&#45;&gt;Node6 -->
<g id="edge5" class="edge"><title>Node5&#45;&gt;Node6</title>
<path fill="none" stroke="midnightblue" d="M1412.48,-114.504C1427.77,-119.603 1445.07,-125.367 1459.24,-130.092"/>
<polygon fill="midnightblue" stroke="midnightblue" points="1413.36,-111.109 1402.77,-111.267 1411.15,-117.75 1413.36,-111.109"/>
</g>
<!-- Node7 -->
<g id="node7" class="node"><title>Node7</title>
<g id="a_node7"><a xlink:href="main_8cxx.html#a3c04138a5bfe5d72780bb7e82a18e627" target="_top" xlink:title="main">
<polygon fill="none" stroke="black" points="1571,-130.178 1571,-149.178 1612,-149.178 1612,-130.178 1571,-130.178"/>
<text text-anchor="middle" x="1591.5" y="-137.178" font-family="Helvetica,sans-Serif" font-size="10.00">main</text>
</a>
</g>
</g>
<!-- Node6&#45;&gt;Node7 -->
<g id="edge6" class="edge"><title>Node6&#45;&gt;Node7</title>
<path fill="none" stroke="midnightblue" d="M1545.54,-139.678C1554.62,-139.678 1563.47,-139.678 1570.88,-139.678"/>
<polygon fill="midnightblue" stroke="midnightblue" points="1545.25,-136.178 1535.25,-139.678 1545.25,-143.178 1545.25,-136.178"/>
</g>
<!-- Node8&#45;&gt;Node1 -->
<g id="edge11" class="edge"><title>Node8&#45;&gt;Node1</title>
<path fill="none" stroke="midnightblue" d="M341.704,-276.47C289.044,-281.096 216.322,-285.606 161.142,-287.715"/>
<polygon fill="midnightblue" stroke="midnightblue" points="342.312,-279.929 351.957,-275.544 341.683,-272.958 342.312,-279.929"/>
</g>
<!-- Node9 -->
<g id="node9" class="node"><title>Node9</title>
<g id="a_node9"><a xlink:href="classEngine.html#a3e87fa5bbc0de7cde5fe6092ddf21a37" target="_top" xlink:title="Decrease Height Decreases the height of the given map node Calls the according function of the Map ob...">
<polygon fill="none" stroke="black" points="507,-259.178 507,-278.178 638,-278.178 638,-259.178 507,-259.178"/>
<text text-anchor="middle" x="572.5" y="-266.178" font-family="Helvetica,sans-Serif" font-size="10.00">Engine::decreaseHeight</text>
</a>
</g>
</g>
<!-- Node8&#45;&gt;Node9 -->
<g id="edge9" class="edge"><title>Node8&#45;&gt;Node9</title>
<path fill="none" stroke="midnightblue" d="M481.436,-267.545C489.87,-267.651 498.466,-267.759 506.835,-267.865"/>
<polygon fill="midnightblue" stroke="midnightblue" points="481.297,-264.043 471.254,-267.417 481.209,-271.043 481.297,-264.043"/>
</g>
<!-- Node9&#45;&gt;Node4 -->
<g id="edge10" class="edge"><title>Node9&#45;&gt;Node4</title>
<path fill="none" stroke="midnightblue" d="M648.243,-266.507C746.121,-263.665 916.755,-258.709 1014.84,-255.861"/>
<polygon fill="midnightblue" stroke="midnightblue" points="648.025,-263.012 638.131,-266.801 648.229,-270.009 648.025,-263.012"/>
</g>
<!-- Node11 -->
<g id="node11" class="node"><title>Node11</title>
<g id="a_node11"><a xlink:href="classMap.html#a482ac34426e8aa66abb46f60ec329402" target="_top" xlink:title="Initialize the Map with node objects Initialize the Map with node objects. ">
<polygon fill="none" stroke="black" points="373,-121.178 373,-140.178 450,-140.178 450,-121.178 373,-121.178"/>
<text text-anchor="middle" x="411.5" y="-128.178" font-family="Helvetica,sans-Serif" font-size="10.00">Map::initMap</text>
</a>
</g>
</g>
<!-- Node10&#45;&gt;Node11 -->
<g id="edge13" class="edge"><title>Node10&#45;&gt;Node11</title>
<path fill="none" stroke="midnightblue" d="M306.093,-156.609C327.724,-151.237 352.804,-145.008 372.962,-140.001"/>
<polygon fill="midnightblue" stroke="midnightblue" points="304.97,-153.282 296.108,-159.089 306.657,-160.075 304.97,-153.282"/>
</g>
<!-- Node17 -->
<g id="node17" class="node"><title>Node17</title>
<g id="a_node17"><a xlink:href="classMap.html#afefe996cc1f62b61ec60d0ae415953bf" target="_top" xlink:title="Map::loadMapFromFile">
<polygon fill="none" stroke="black" points="511.5,-149.178 511.5,-168.178 633.5,-168.178 633.5,-149.178 511.5,-149.178"/>
<text text-anchor="middle" x="572.5" y="-156.178" font-family="Helvetica,sans-Serif" font-size="10.00">Map::loadMapFromFile</text>
</a>
</g>
</g>
<!-- Node10&#45;&gt;Node17 -->
<g id="edge31" class="edge"><title>Node10&#45;&gt;Node17</title>
<path fill="none" stroke="midnightblue" d="M326.264,-166.488C381.609,-164.725 458.617,-162.273 511.493,-160.589"/>
<polygon fill="midnightblue" stroke="midnightblue" points="326.076,-162.992 316.193,-166.809 326.299,-169.989 326.076,-162.992"/>
</g>
<!-- Node12 -->
<g id="node12" class="node"><title>Node12</title>
<g id="a_node12"><a xlink:href="classEngine.html#a260d4834150eae6eec2bde34df6dc827" target="_top" xlink:title="Creates a new game Creates a new game. ">
<polygon fill="none" stroke="black" points="686,-35.1779 686,-54.1779 789,-54.1779 789,-35.1779 686,-35.1779"/>
<text text-anchor="middle" x="737.5" y="-42.1779" font-family="Helvetica,sans-Serif" font-size="10.00">Engine::newGame</text>
</a>
</g>
</g>
<!-- Node11&#45;&gt;Node12 -->
<g id="edge14" class="edge"><title>Node11&#45;&gt;Node12</title>
<path fill="none" stroke="midnightblue" d="M458.386,-118.498C523.457,-101.226 641.205,-69.9724 700.428,-54.2527"/>
<polygon fill="midnightblue" stroke="midnightblue" points="457.179,-115.197 448.412,-121.146 458.975,-121.963 457.179,-115.197"/>
</g>
<!-- Node11&#45;&gt;Node17 -->
<g id="edge23" class="edge"><title>Node11&#45;&gt;Node17</title>
<path fill="none" stroke="midnightblue" d="M460.195,-139.077C478.257,-142.258 498.942,-145.9 517.54,-149.176"/>
<polygon fill="midnightblue" stroke="midnightblue" points="460.636,-135.601 450.181,-137.314 459.422,-142.495 460.636,-135.601"/>
</g>
<!-- Node12&#45;&gt;Node5 -->
<g id="edge22" class="edge"><title>Node12&#45;&gt;Node5</title>
<path fill="none" stroke="midnightblue" d="M773.102,-31.8482C791.746,-25.6132 815.314,-18.804 837,-15.6779 1043.08,14.0279 1105.55,2.3814 1303,-63.6779 1323.36,-70.4901 1344.7,-83.2391 1358.16,-92.0808"/>
<polygon fill="midnightblue" stroke="midnightblue" points="771.883,-28.5661 763.567,-35.1296 774.161,-35.1851 771.883,-28.5661"/>
</g>
<!-- Node13 -->
<g id="node13" class="node"><title>Node13</title>
<g id="a_node13"><a xlink:href="classEngine.html#af7de8d74b0cfacaf06df53e7caf11538" target="_top" xlink:title="Engine::saveGame">
<polygon fill="none" stroke="black" points="849,-35.1779 849,-54.1779 956,-54.1779 956,-35.1779 849,-35.1779"/>
<text text-anchor="middle" x="902.5" y="-42.1779" font-family="Helvetica,sans-Serif" font-size="10.00">Engine::saveGame</text>
</a>
</g>
</g>
<!-- Node12&#45;&gt;Node13 -->
<g id="edge15" class="edge"><title>Node12&#45;&gt;Node13</title>
<path fill="none" stroke="midnightblue" d="M799.631,-44.6779C815.83,-44.6779 833.176,-44.6779 848.879,-44.6779"/>
<polygon fill="midnightblue" stroke="midnightblue" points="799.181,-41.178 789.181,-44.6779 799.181,-48.178 799.181,-41.178"/>
</g>
<!-- Node14 -->
<g id="node14" class="node"><title>Node14</title>
<g id="a_node14"><a xlink:href="classUIManager.html#aa78e356fc3b356d790c848319d1c387e" target="_top" xlink:title="UIManager::setCallbackFunctions">
<polygon fill="none" stroke="black" points="1004,-73.1779 1004,-92.1779 1178,-92.1779 1178,-73.1779 1004,-73.1779"/>
<text text-anchor="middle" x="1091" y="-80.1779" font-family="Helvetica,sans-Serif" font-size="10.00">UIManager::setCallbackFunctions</text>
</a>
</g>
</g>
<!-- Node12&#45;&gt;Node14 -->
<g id="edge19" class="edge"><title>Node12&#45;&gt;Node14</title>
<path fill="none" stroke="midnightblue" d="M784.152,-32.9497C830.861,-22.7953 905.277,-11.7481 968,-25.6779 1009.08,-34.8012 1052.71,-59.2748 1074.99,-73.0019"/>
<polygon fill="midnightblue" stroke="midnightblue" points="783.32,-29.5493 774.333,-35.1603 784.857,-36.3784 783.32,-29.5493"/>
</g>
<!-- Node16 -->
<g id="node16" class="node"><title>Node16</title>
<g id="a_node16"><a xlink:href="classGame.html#a5ed7fc5be77080f7f6dd5363f7f007a1" target="_top" xlink:title="Game::mainMenu">
<polygon fill="none" stroke="black" points="1040,-149.178 1040,-168.178 1142,-168.178 1142,-149.178 1040,-149.178"/>
<text text-anchor="middle" x="1091" y="-156.178" font-family="Helvetica,sans-Serif" font-size="10.00">Game::mainMenu</text>
</a>
</g>
</g>
<!-- Node12&#45;&gt;Node16 -->
<g id="edge20" class="edge"><title>Node12&#45;&gt;Node16</title>
<path fill="none" stroke="midnightblue" d="M777.769,-57.4137C848.834,-80.462 997.262,-128.601 1060.47,-149.101"/>
<polygon fill="midnightblue" stroke="midnightblue" points="778.456,-53.9573 767.864,-54.2014 776.297,-60.6158 778.456,-53.9573"/>
</g>
<!-- Node13&#45;&gt;Node14 -->
<g id="edge16" class="edge"><title>Node13&#45;&gt;Node14</title>
<path fill="none" stroke="midnightblue" d="M960.478,-56.2875C987.003,-61.6919 1018.17,-68.0415 1043.28,-73.1579"/>
<polygon fill="midnightblue" stroke="midnightblue" points="961.059,-52.834 950.562,-54.267 959.662,-59.6931 961.059,-52.834"/>
</g>
<!-- Node15 -->
<g id="node15" class="node"><title>Node15</title>
<g id="a_node15"><a xlink:href="classUIManager.html#aedd9d0577af515a852425dfe414b2968" target="_top" xlink:title="Parses the UiLayout.json files and creates UI Elements. ">
<polygon fill="none" stroke="black" points="1214,-73.1779 1214,-92.1779 1303,-92.1779 1303,-73.1779 1214,-73.1779"/>
<text text-anchor="middle" x="1258.5" y="-80.1779" font-family="Helvetica,sans-Serif" font-size="10.00">UIManager::init</text>
</a>
</g>
</g>
<!-- Node14&#45;&gt;Node15 -->
<g id="edge17" class="edge"><title>Node14&#45;&gt;Node15</title>
<path fill="none" stroke="midnightblue" d="M1188.28,-82.6779C1197.19,-82.6779 1205.89,-82.6779 1213.95,-82.6779"/>
<polygon fill="midnightblue" stroke="midnightblue" points="1188.14,-79.178 1178.14,-82.6779 1188.14,-86.178 1188.14,-79.178"/>
</g>
<!-- Node15&#45;&gt;Node5 -->
<g id="edge18" class="edge"><title>Node15&#45;&gt;Node5</title>
<path fill="none" stroke="midnightblue" d="M1313.45,-91.7888C1322.15,-93.258 1330.92,-94.7397 1338.93,-96.0929"/>
<polygon fill="midnightblue" stroke="midnightblue" points="1313.76,-88.2925 1303.32,-90.0782 1312.6,-95.1948 1313.76,-88.2925"/>
</g>
<!-- Node16&#45;&gt;Node6 -->
<g id="edge21" class="edge"><title>Node16&#45;&gt;Node6</title>
<path fill="none" stroke="midnightblue" d="M1152.55,-155.773C1232.5,-151.937 1371.46,-145.27 1442.83,-141.845"/>
<polygon fill="midnightblue" stroke="midnightblue" points="1151.97,-152.296 1142.15,-156.272 1152.31,-159.288 1151.97,-152.296"/>
</g>
<!-- Node18 -->
<g id="node18" class="node"><title>Node18</title>
<g id="a_node18"><a xlink:href="classEngine.html#a83b7dbeee899b36a13d5b07c7ad87ebc" target="_top" xlink:title="Loads a saved game Loads a saved Game. ">
<polygon fill="none" stroke="black" points="685.5,-149.178 685.5,-168.178 789.5,-168.178 789.5,-149.178 685.5,-149.178"/>
<text text-anchor="middle" x="737.5" y="-156.178" font-family="Helvetica,sans-Serif" font-size="10.00">Engine::loadGame</text>
</a>
</g>
</g>
<!-- Node17&#45;&gt;Node18 -->
<g id="edge24" class="edge"><title>Node17&#45;&gt;Node18</title>
<path fill="none" stroke="midnightblue" d="M643.796,-158.678C657.759,-158.678 672.169,-158.678 685.344,-158.678"/>
<polygon fill="midnightblue" stroke="midnightblue" points="643.732,-155.178 633.732,-158.678 643.732,-162.178 643.732,-155.178"/>
</g>
<!-- Node18&#45;&gt;Node14 -->
<g id="edge29" class="edge"><title>Node18&#45;&gt;Node14</title>
<path fill="none" stroke="midnightblue" d="M792.553,-146.991C862.135,-131.946 981.712,-106.091 1046.02,-92.1874"/>
<polygon fill="midnightblue" stroke="midnightblue" points="791.696,-143.595 782.662,-149.129 793.176,-150.437 791.696,-143.595"/>
</g>
<!-- Node18&#45;&gt;Node16 -->
<g id="edge30" class="edge"><title>Node18&#45;&gt;Node16</title>
<path fill="none" stroke="midnightblue" d="M799.774,-158.678C867.925,-158.678 976.727,-158.678 1039.97,-158.678"/>
<polygon fill="midnightblue" stroke="midnightblue" points="799.611,-155.178 789.611,-158.678 799.611,-162.178 799.611,-155.178"/>
</g>
<!-- Node19 -->
<g id="node19" class="node"><title>Node19</title>
<g id="a_node19"><a xlink:href="classEngine.html#a0ba57971ffb5173ecc425461f65a4cd8" target="_top" xlink:title="Quits the game Sets m_running to false and quitting the game. ">
<polygon fill="none" stroke="black" points="851.5,-187.178 851.5,-206.178 953.5,-206.178 953.5,-187.178 851.5,-187.178"/>
<text text-anchor="middle" x="902.5" y="-194.178" font-family="Helvetica,sans-Serif" font-size="10.00">Engine::quitGame</text>
</a>
</g>
</g>
<!-- Node18&#45;&gt;Node19 -->
<g id="edge25" class="edge"><title>Node18&#45;&gt;Node19</title>
<path fill="none" stroke="midnightblue" d="M789.528,-170.574C812.439,-175.915 839.104,-182.132 860.664,-187.158"/>
<polygon fill="midnightblue" stroke="midnightblue" points="790.165,-167.129 779.632,-168.267 788.576,-173.946 790.165,-167.129"/>
</g>
<!-- Node19&#45;&gt;Node4 -->
<g id="edge26" class="edge"><title>Node19&#45;&gt;Node4</title>
<path fill="none" stroke="midnightblue" d="M946.116,-209.13C953.422,-211.294 960.934,-213.537 968,-215.678 999.316,-225.167 1035.05,-236.336 1059.71,-244.1"/>
<polygon fill="midnightblue" stroke="midnightblue" points="946.924,-205.719 936.342,-206.246 944.942,-212.433 946.924,-205.719"/>
</g>
<!-- Node19&#45;&gt;Node14 -->
<g id="edge27" class="edge"><title>Node19&#45;&gt;Node14</title>
<path fill="none" stroke="midnightblue" d="M927.68,-181.898C966.523,-158.155 1041.76,-112.167 1074.33,-92.2545"/>
<polygon fill="midnightblue" stroke="midnightblue" points="925.787,-178.953 919.08,-187.154 929.438,-184.925 925.787,-178.953"/>
</g>
<!-- Node19&#45;&gt;Node16 -->
<g id="edge28" class="edge"><title>Node19&#45;&gt;Node16</title>
<path fill="none" stroke="midnightblue" d="M960.478,-185.068C987.003,-179.664 1018.17,-173.314 1043.28,-168.198"/>
<polygon fill="midnightblue" stroke="midnightblue" points="959.662,-181.663 950.562,-187.089 961.059,-188.522 959.662,-181.663"/>
</g>
<!-- Node21 -->
<g id="node21" class="node"><title>Node21</title>
<g id="a_node21"><a xlink:href="classEngine.html#a89f23eaccc126a355d287e1959b4556f" target="_top" xlink:title="Engine::setTileIDOfNode">
<polygon fill="none" stroke="black" points="837,-225.178 837,-244.178 968,-244.178 968,-225.178 837,-225.178"/>
<text text-anchor="middle" x="902.5" y="-232.178" font-family="Helvetica,sans-Serif" font-size="10.00">Engine::setTileIDOfNode</text>
</a>
</g>
</g>
<!-- Node20&#45;&gt;Node21 -->
<g id="edge33" class="edge"><title>Node20&#45;&gt;Node21</title>
<path fill="none" stroke="midnightblue" d="M326.293,-218.601C451.444,-222.099 714.683,-229.456 836.773,-232.869"/>
<polygon fill="midnightblue" stroke="midnightblue" points="326.166,-215.096 316.072,-218.315 325.97,-222.093 326.166,-215.096"/>
</g>
<!-- Node21&#45;&gt;Node4 -->
<g id="edge34" class="edge"><title>Node21&#45;&gt;Node4</title>
<path fill="none" stroke="midnightblue" d="M978.217,-242.29C990.279,-243.519 1002.77,-244.791 1014.84,-246.021"/>
<polygon fill="midnightblue" stroke="midnightblue" points="978.509,-238.802 968.205,-241.27 977.799,-245.765 978.509,-238.802"/>
</g>
<!-- Node22&#45;&gt;Node1 -->
<g id="edge40" class="edge"><title>Node22&#45;&gt;Node1</title>
<path fill="none" stroke="midnightblue" d="M190.394,-308.254C163.596,-305.041 133.835,-300.515 112.207,-296.205"/>
<polygon fill="midnightblue" stroke="midnightblue" points="190.161,-311.75 200.496,-309.418 190.962,-304.796 190.161,-311.75"/>
</g>
<!-- Node22&#45;&gt;Node2 -->
<g id="edge38" class="edge"><title>Node22&#45;&gt;Node2</title>
<path fill="none" stroke="midnightblue" d="M299.795,-323.118C324.537,-330.395 355.29,-339.44 378.099,-346.148"/>
<polygon fill="midnightblue" stroke="midnightblue" points="300.529,-319.685 289.947,-320.221 298.553,-326.401 300.529,-319.685"/>
</g>
<!-- Node22&#45;&gt;Node8 -->
<g id="edge39" class="edge"><title>Node22&#45;&gt;Node8</title>
<path fill="none" stroke="midnightblue" d="M300.414,-298.337C324.783,-291.329 354.825,-282.689 377.366,-276.207"/>
<polygon fill="midnightblue" stroke="midnightblue" points="299.342,-295.003 290.699,-301.131 301.277,-301.73 299.342,-295.003"/>
</g>
<!-- Node23 -->
<g id="node23" class="node"><title>Node23</title>
<g id="a_node23"><a xlink:href="classEngine.html#a2824c5146c900c0d048d97c5e0e0ef69" target="_top" xlink:title="Engine::demolishNode">
<polygon fill="none" stroke="black" points="510.5,-301.178 510.5,-320.178 634.5,-320.178 634.5,-301.178 510.5,-301.178"/>
<text text-anchor="middle" x="572.5" y="-308.178" font-family="Helvetica,sans-Serif" font-size="10.00">Engine::demolishNode</text>
</a>
</g>
</g>
<!-- Node22&#45;&gt;Node23 -->
<g id="edge36" class="edge"><title>Node22&#45;&gt;Node23</title>
<path fill="none" stroke="midnightblue" d="M322.572,-310.678C377.744,-310.678 456.296,-310.678 510.327,-310.678"/>
<polygon fill="midnightblue" stroke="midnightblue" points="322.554,-307.178 312.554,-310.678 322.554,-314.178 322.554,-307.178"/>
</g>
<!-- Node23&#45;&gt;Node4 -->
<g id="edge37" class="edge"><title>Node23&#45;&gt;Node4</title>
<path fill="none" stroke="midnightblue" d="M645.124,-305.046C724.277,-298.526 855.462,-286.849 968,-272.678 989.374,-269.986 1012.77,-266.48 1033.3,-263.213"/>
<polygon fill="midnightblue" stroke="midnightblue" points="644.465,-301.588 634.784,-305.892 645.036,-308.564 644.465,-301.588"/>
</g>
</g>
</svg>
        <g id="navigator" transform="translate(0 0)" fill="#404254">
                <rect fill="#f2f5e9" fill-opacity="0.5" stroke="#606060" stroke-width=".5" x="0" y="0" width="60" height="60"/>
                <use id="zoomplus" xlink:href="#zoomPlus" x="17" y="9" onmousedown="handleZoom(evt,'in')"/>
                <use id="zoomminus" xlink:href="#zoomMin" x="42" y="9" onmousedown="handleZoom(evt,'out')"/>
                <use id="reset" xlink:href="#resetDef" x="30" y="36" onmousedown="handleReset()"/>
                <g id="arrowUp" xlink:href="#dirArrow" transform="translate(30 24)" onmousedown="handlePan(0,-1)">
                  <use xlink:href="#rim" fill="#404040">
                        <set attributeName="fill" to="#808080" begin="arrowUp.mouseover" end="arrowUp.mouseout"/>
                  </use>
                  <path fill="none" stroke="white" stroke-width="1.5" d="M0,-3.0v7 M-2.5,-0.5L0,-3.0L2.5,-0.5"/>
                </g>
                <g id="arrowRight" xlink:href="#dirArrow" transform="rotate(90) translate(36 -43)" onmousedown="handlePan(1,0)">
                  <use xlink:href="#rim" fill="#404040">
                        <set attributeName="fill" to="#808080" begin="arrowRight.mouseover" end="arrowRight.mouseout"/>
                  </use>
                  <path fill="none" stroke="white" stroke-width="1.5" d="M0,-3.0v7 M-2.5,-0.5L0,-3.0L2.5,-0.5"/>
                </g>
                <g id="arrowDown" xlink:href="#dirArrow" transform="rotate(180) translate(-30 -48)" onmousedown="handlePan(0,1)">
                  <use xlink:href="#rim" fill="#404040">
                        <set attributeName="fill" to="#808080" begin="arrowDown.mouseover" end="arrowDown.mouseout"/>
                  </use>
                  <path fill="none" stroke="white" stroke-width="1.5" d="M0,-3.0v7 M-2.5,-0.5L0,-3.0L2.5,-0.5"/>
                </g>
                <g id="arrowLeft" xlink:href="#dirArrow" transform="rotate(270) translate(-36 17)" onmousedown="handlePan(-1,0)">
                  <use xlink:href="#rim" fill="#404040">
                        <set attributeName="fill" to="#808080" begin="arrowLeft.mouseover" end="arrowLeft.mouseout"/>
                  </use>
                  <path fill="none" stroke="white" stroke-width="1.5" d="M0,-3.0v7 M-2.5,-0.5L0,-3.0L2.5,-0.5"/>
                </g>
        </g>
        <svg viewBox="0 0 15 15" width="100%" height="30px" preserveAspectRatio="xMaxYMin meet">
         <g id="arrow_out" transform="scale(0.3 0.3)">
          <a xlink:href="classMap_a59d21f2688713fbcfe320eb1b24405ca_icgraph_org.svg" target="_base">
           <rect id="button" ry="5" rx="5" y="6" x="6" height="38" width="38"
                fill="#f2f5e9" fill-opacity="0.5" stroke="#606060" stroke-width="1.0"/>
           <path id="arrow"
             d="M 11.500037,31.436501 C 11.940474,20.09759 22.043105,11.32322 32.158766,21.979434 L 37.068811,17.246167 C 37.068811,17.246167 37.088388,32 37.088388,32 L 22.160133,31.978069 C 22.160133,31.978069 26.997745,27.140456 26.997745,27.140456 C 18.528582,18.264221 13.291696,25.230495 11.500037,31.436501 z"
             style="fill:#404040;"/>
          </a>
         </g>
        </svg>
</svg>
