<?xml version="1.0" encoding="UTF-8" standalone="no"?>
<!DOCTYPE svg PUBLIC "-//W3C//DTD SVG 1.1//EN"
 "http://www.w3.org/Graphics/SVG/1.1/DTD/svg11.dtd">
<!-- Generated by graphviz version 2.38.0 (20140413.2041)
 -->
<!-- Title: Camera::centerScreenOnPoint Pages: 1 -->
<svg width="523pt" height="160pt"
 viewBox="0.00 0.00 523.00 160.00" xmlns="http://www.w3.org/2000/svg" xmlns:xlink="http://www.w3.org/1999/xlink">
<g id="graph0" class="graph" transform="scale(1 1) rotate(0) translate(4 156)">
<title>Camera::centerScreenOnPoint</title>
<!-- Node1 -->
<g id="node1" class="node"><title>Node1</title>
<polygon fill="#bfbfbf" stroke="black" points="0,-85.5 0,-104.5 163,-104.5 163,-85.5 0,-85.5"/>
<text text-anchor="middle" x="81.5" y="-92.5" font-family="Helvetica,sans-Serif" font-size="10.00">Camera::centerScreenOnPoint</text>
</g>
<!-- Node2 -->
<g id="node2" class="node"><title>Node2</title>
<g id="a_node2"><a xlink:href="isoMath_8cxx.html#abef3481b8248d064e79f9d0b2a27cfe7" target="_top" xlink:title="Check if given coordinates are within map boundaries Checks if coordinates are within map boundaries...">
<polygon fill="none" stroke="black" points="207,-132.5 207,-151.5 358,-151.5 358,-132.5 207,-132.5"/>
<text text-anchor="middle" x="282.5" y="-139.5" font-family="Helvetica,sans-Serif" font-size="10.00">isPointWithinMapBoundaries</text>
</a>
</g>
</g>
<!-- Node1&#45;&gt;Node2 -->
<g id="edge1" class="edge"><title>Node1&#45;&gt;Node2</title>
<path fill="none" stroke="midnightblue" d="M122.771,-104.511C153.957,-111.877 197.348,-122.125 230.882,-130.045"/>
<polygon fill="midnightblue" stroke="midnightblue" points="230.411,-133.53 240.948,-132.422 232.021,-126.718 230.411,-133.53"/>
</g>
<!-- Node3 -->
<g id="node3" class="node"><title>Node3</title>
<g id="a_node3"><a xlink:href="classSingleton.html#af5cb1e5749949e2b68416cfb8d378044" target="_top" xlink:title="Get an instance of the singleton. ">
<polygon fill="none" stroke="black" points="402,-80 402,-110 515,-110 515,-80 402,-80"/>
<text text-anchor="start" x="410" y="-98" font-family="Helvetica,sans-Serif" font-size="10.00">Singleton&lt; Settings</text>
<text text-anchor="middle" x="458.5" y="-87" font-family="Helvetica,sans-Serif" font-size="10.00"> &gt;::instance</text>
</a>
</g>
</g>
<!-- Node1&#45;&gt;Node3 -->
<g id="edge4" class="edge"><title>Node1&#45;&gt;Node3</title>
<path fill="none" stroke="midnightblue" d="M163.408,-89.3321C231.632,-87.7706 328.049,-87.8991 391.634,-89.7175"/>
<polygon fill="midnightblue" stroke="midnightblue" points="391.834,-93.2253 401.938,-90.0369 392.051,-86.2286 391.834,-93.2253"/>
</g>
<!-- Node1&#45;&gt;Node3 -->
<g id="edge5" class="edge"><title>Node1&#45;&gt;Node3</title>
<path fill="none" stroke="midnightblue" d="M163.408,-100.668C231.632,-102.229 328.049,-102.101 391.634,-100.283"/>
<polygon fill="midnightblue" stroke="midnightblue" points="392.051,-103.771 401.938,-99.9631 391.834,-96.7747 392.051,-103.771"/>
</g>
<!-- Node4 -->
<g id="node4" class="node"><title>Node4</title>
<g id="a_node4"><a xlink:href="isoMath_8cxx.html#a229d5dd54cd4e1f43ed5911e4fd266d3" target="_top" xlink:title="converts coordinates from isometric to screen space The given isometric coordinates (which contain he...">
<polygon fill="none" stroke="black" points="199,-38.5 199,-57.5 366,-57.5 366,-38.5 199,-38.5"/>
<text text-anchor="middle" x="282.5" y="-45.5" font-family="Helvetica,sans-Serif" font-size="10.00">convertIsoToScreenCoordinates</text>
</a>
</g>
</g>
<!-- Node1&#45;&gt;Node4 -->
<g id="edge3" class="edge"><title>Node1&#45;&gt;Node4</title>
<path fill="none" stroke="midnightblue" d="M122.771,-85.4888C153.957,-78.1233 197.348,-67.8752 230.882,-59.955"/>
<polygon fill="midnightblue" stroke="midnightblue" points="232.021,-63.2825 240.948,-57.5776 230.411,-56.4699 232.021,-63.2825"/>
</g>
<!-- Node5 -->
<g id="node5" class="node"><title>Node5</title>
<g id="a_node5"><a xlink:href="classMap.html#ab69938ac0e56eb0da1d1701221f3d185" target="_top" xlink:title="Refresh all the map tile textures. ">
<polygon fill="none" stroke="black" points="244,-0.5 244,-19.5 321,-19.5 321,-0.5 244,-0.5"/>
<text text-anchor="middle" x="282.5" y="-7.5" font-family="Helvetica,sans-Serif" font-size="10.00">Map::refresh</text>
</a>
</g>
</g>
<!-- Node1&#45;&gt;Node5 -->
<g id="edge6" class="edge"><title>Node1&#45;&gt;Node5</title>
<path fill="none" stroke="midnightblue" d="M96.1914,-85.4878C117.321,-71.2238 159.569,-44.3345 199,-29 210.019,-24.7149 222.258,-21.2468 233.863,-18.5053"/>
<polygon fill="midnightblue" stroke="midnightblue" points="234.852,-21.871 243.852,-16.281 233.33,-15.0384 234.852,-21.871"/>
</g>
<!-- Node2&#45;&gt;Node3 -->
<g id="edge2" class="edge"><title>Node2&#45;&gt;Node3</title>
<path fill="none" stroke="midnightblue" d="M318.711,-132.489C339.751,-126.806 367.145,-119.406 392.03,-112.684"/>
<polygon fill="midnightblue" stroke="midnightblue" points="393.046,-116.036 401.787,-110.049 391.221,-109.278 393.046,-116.036"/>
</g>
</g>
</svg>
