<?xml version="1.0" encoding="UTF-8" standalone="no"?>
<!DOCTYPE svg PUBLIC "-//W3C//DTD SVG 1.1//EN"
 "http://www.w3.org/Graphics/SVG/1.1/DTD/svg11.dtd">
<!-- Generated by graphviz version 2.38.0 (20140413.2041)
 -->
<!-- Title: UIElement::drawButtonFrame Pages: 1 -->
<svg width="299pt" height="142pt"
 viewBox="0.00 0.00 299.00 142.00" xmlns="http://www.w3.org/2000/svg" xmlns:xlink="http://www.w3.org/1999/xlink">
<g id="graph0" class="graph" transform="scale(1 1) rotate(0) translate(4 138)">
<title>UIElement::drawButtonFrame</title>
<!-- Node1 -->
<g id="node1" class="node"><title>Node1</title>
<polygon fill="#bfbfbf" stroke="black" points="0,-57.5 0,-76.5 157,-76.5 157,-57.5 0,-57.5"/>
<text text-anchor="middle" x="78.5" y="-64.5" font-family="Helvetica,sans-Serif" font-size="10.00">UIElement::drawButtonFrame</text>
</g>
<!-- Node2 -->
<g id="node2" class="node"><title>Node2</title>
<g id="a_node2"><a xlink:href="classButton.html#af4d14cf544d8e0620f4ffcd7984103f7" target="_top" xlink:title="Draw the UI Element and/or render it&#39;s textures to the screen Renders the texture of the Ui Element...">
<polygon fill="none" stroke="black" points="203.5,-114.5 203.5,-133.5 280.5,-133.5 280.5,-114.5 203.5,-114.5"/>
<text text-anchor="middle" x="242" y="-121.5" font-family="Helvetica,sans-Serif" font-size="10.00">Button::draw</text>
</a>
</g>
</g>
<!-- Node1&#45;&gt;Node2 -->
<g id="edge1" class="edge"><title>Node1&#45;&gt;Node2</title>
<path fill="none" stroke="midnightblue" d="M116.131,-79.9285C145.846,-90.4164 187.065,-104.964 213.88,-114.428"/>
<polygon fill="midnightblue" stroke="midnightblue" points="117.126,-76.5683 106.531,-76.5405 114.796,-83.1693 117.126,-76.5683"/>
</g>
<!-- Node3 -->
<g id="node3" class="node"><title>Node3</title>
<g id="a_node3"><a xlink:href="classCheckbox.html#a05078cbd151f1192fc70ad2a7528aade" target="_top" xlink:title="Draw the UI Element and/or render it&#39;s textures to the screen Renders the texture of the Ui Element...">
<polygon fill="none" stroke="black" points="196,-76.5 196,-95.5 288,-95.5 288,-76.5 196,-76.5"/>
<text text-anchor="middle" x="242" y="-83.5" font-family="Helvetica,sans-Serif" font-size="10.00">Checkbox::draw</text>
</a>
</g>
</g>
<!-- Node1&#45;&gt;Node3 -->
<g id="edge2" class="edge"><title>Node1&#45;&gt;Node3</title>
<path fill="none" stroke="midnightblue" d="M167.639,-77.3693C177.426,-78.5207 187.066,-79.6549 195.98,-80.7035"/>
<polygon fill="midnightblue" stroke="midnightblue" points="167.752,-73.8585 157.412,-76.1661 166.934,-80.8106 167.752,-73.8585"/>
</g>
<!-- Node4 -->
<g id="node4" class="node"><title>Node4</title>
<g id="a_node4"><a xlink:href="classComboBox.html#a1e4e851a79fccea5a1bd69b96c3bdec7" target="_top" xlink:title="Draw the UI Element and/or render it&#39;s textures to the screen Renders the texture of the Ui Element...">
<polygon fill="none" stroke="black" points="193,-38.5 193,-57.5 291,-57.5 291,-38.5 193,-38.5"/>
<text text-anchor="middle" x="242" y="-45.5" font-family="Helvetica,sans-Serif" font-size="10.00">ComboBox::draw</text>
</a>
</g>
</g>
<!-- Node1&#45;&gt;Node4 -->
<g id="edge3" class="edge"><title>Node1&#45;&gt;Node4</title>
<path fill="none" stroke="midnightblue" d="M167.616,-56.6334C176.285,-55.6135 184.84,-54.6071 192.876,-53.6616"/>
<polygon fill="midnightblue" stroke="midnightblue" points="166.934,-53.1894 157.412,-57.8339 167.752,-60.1415 166.934,-53.1894"/>
</g>
<!-- Node5 -->
<g id="node5" class="node"><title>Node5</title>
<g id="a_node5"><a xlink:href="classSlider.html#a4a3727f40be79a7cc6543086435b8194" target="_top" xlink:title="Draw the UI Element and/or render it&#39;s textures to the screen Renders the texture of the Ui Element...">
<polygon fill="none" stroke="black" points="206,-0.5 206,-19.5 278,-19.5 278,-0.5 206,-0.5"/>
<text text-anchor="middle" x="242" y="-7.5" font-family="Helvetica,sans-Serif" font-size="10.00">Slider::draw</text>
</a>
</g>
</g>
<!-- Node1&#45;&gt;Node5 -->
<g id="edge4" class="edge"><title>Node1&#45;&gt;Node5</title>
<path fill="none" stroke="midnightblue" d="M116.131,-54.0715C145.846,-43.5836 187.065,-29.0361 213.88,-19.5716"/>
<polygon fill="midnightblue" stroke="midnightblue" points="114.796,-50.8307 106.531,-57.4595 117.126,-57.4317 114.796,-50.8307"/>
</g>
</g>
</svg>
