<?xml version="1.0" encoding="UTF-8" standalone="no"?>
<!DOCTYPE svg PUBLIC "-//W3C//DTD SVG 1.1//EN"
 "http://www.w3.org/Graphics/SVG/1.1/DTD/svg11.dtd">
<!-- Generated by graphviz version 2.38.0 (20140413.2041)
 -->
<!-- Title: Game::initialize Pages: 1 -->
<svg width="284pt" height="88pt"
 viewBox="0.00 0.00 284.00 88.00" xmlns="http://www.w3.org/2000/svg" xmlns:xlink="http://www.w3.org/1999/xlink">
<g id="graph0" class="graph" transform="scale(1 1) rotate(0) translate(4 84)">
<title>Game::initialize</title>
<!-- Node1 -->
<g id="node1" class="node"><title>Node1</title>
<polygon fill="#bfbfbf" stroke="black" points="0,-55 0,-74 90,-74 90,-55 0,-55"/>
<text text-anchor="middle" x="45" y="-62" font-family="Helvetica,sans-Serif" font-size="10.00">Game::initialize</text>
</g>
<!-- Node2 -->
<g id="node2" class="node"><title>Node2</title>
<g id="a_node2"><a xlink:href="classSingleton.html#af5cb1e5749949e2b68416cfb8d378044" target="_top" xlink:title="Get an instance of the singleton. ">
<polygon fill="none" stroke="black" points="126,-49.5 126,-79.5 276,-79.5 276,-49.5 126,-49.5"/>
<text text-anchor="start" x="134" y="-67.5" font-family="Helvetica,sans-Serif" font-size="10.00">Singleton&lt; WindowManager</text>
<text text-anchor="middle" x="201" y="-56.5" font-family="Helvetica,sans-Serif" font-size="10.00"> &gt;::instance</text>
</a>
</g>
</g>
<!-- Node1&#45;&gt;Node2 -->
<g id="edge1" class="edge"><title>Node1&#45;&gt;Node2</title>
<path fill="none" stroke="midnightblue" d="M90.1302,-58.3294C98.2669,-58.0246 107.006,-57.84 115.873,-57.7758"/>
<polygon fill="midnightblue" stroke="midnightblue" points="115.92,-61.2758 125.913,-57.7543 115.905,-54.2758 115.92,-61.2758"/>
</g>
<!-- Node1&#45;&gt;Node2 -->
<g id="edge3" class="edge"><title>Node1&#45;&gt;Node2</title>
<path fill="none" stroke="midnightblue" d="M90.1302,-70.6706C98.2669,-70.9754 107.006,-71.16 115.873,-71.2242"/>
<polygon fill="midnightblue" stroke="midnightblue" points="115.905,-74.7242 125.913,-71.2457 115.92,-67.7242 115.905,-74.7242"/>
</g>
<!-- Node3 -->
<g id="node3" class="node"><title>Node3</title>
<g id="a_node3"><a xlink:href="classWindowManager.html#a2c3864d9a5b567c83b4799d97b38383a" target="_top" xlink:title="WindowManager::setWindow\lTitle">
<polygon fill="none" stroke="black" points="126,-0.5 126,-30.5 276,-30.5 276,-0.5 126,-0.5"/>
<text text-anchor="start" x="134" y="-18.5" font-family="Helvetica,sans-Serif" font-size="10.00">WindowManager::setWindow</text>
<text text-anchor="middle" x="201" y="-7.5" font-family="Helvetica,sans-Serif" font-size="10.00">Title</text>
</a>
</g>
</g>
<!-- Node1&#45;&gt;Node3 -->
<g id="edge2" class="edge"><title>Node1&#45;&gt;Node3</title>
<path fill="none" stroke="midnightblue" d="M76.0583,-54.936C95.1295,-48.8679 120.413,-40.823 143.169,-33.5826"/>
<polygon fill="midnightblue" stroke="midnightblue" points="144.273,-36.9043 152.741,-30.537 142.15,-30.2338 144.273,-36.9043"/>
</g>
</g>
</svg>
