<?xml version="1.0" encoding="UTF-8" standalone="no"?>
<!DOCTYPE svg PUBLIC "-//W3C//DTD SVG 1.1//EN"
 "http://www.w3.org/Graphics/SVG/1.1/DTD/svg11.dtd">
<!-- Generated by graphviz version 2.38.0 (20140413.2041)
 -->
<!-- Title: UIElement Pages: 1 -->
<!--zoomable 782 -->
<svg id="main" version="1.1" xmlns="http://www.w3.org/2000/svg" xmlns:xlink="http://www.w3.org/1999/xlink" xml:space="preserve" onload="init(evt)">
<style type="text/css"><![CDATA[
.edge:hover path { stroke: red; }
.edge:hover polygon { stroke: red; fill: red; }
]]></style>
<script type="text/javascript"><![CDATA[
var edges = document.getElementsByTagName('g');
if (edges && edges.length) {
  for (var i=0;i<edges.length;i++) {
    if (edges[i].id.substr(0,4)=='edge') {
      edges[i].setAttribute('class','edge');
    }
  }
}
]]></script>
        <defs>
                <circle id="rim" cx="0" cy="0" r="7"/>
                <circle id="rim2" cx="0" cy="0" r="3.5"/>
                <g id="zoomPlus">
                        <use xlink:href="#rim" fill="#404040">
                                <set attributeName="fill" to="#808080" begin="zoomplus.mouseover" end="zoomplus.mouseout"/>
                        </use>
                        <path d="M-4,0h8M0,-4v8" fill="none" stroke="white" stroke-width="1.5" pointer-events="none"/>
                </g>
                <g id="zoomMin">
                        <use xlink:href="#rim" fill="#404040">
                                <set attributeName="fill" to="#808080" begin="zoomminus.mouseover" end="zoomminus.mouseout"/>
                        </use>
                        <path d="M-4,0h8" fill="none" stroke="white" stroke-width="1.5" pointer-events="none"/>
                </g>
                <g id="dirArrow">
                        <path fill="none" stroke="white" stroke-width="1.5" d="M0,-3.0v7 M-2.5,-0.5L0,-3.0L2.5,-0.5"/>
                </g>
               <g id="resetDef">
                       <use xlink:href="#rim2" fill="#404040">
                               <set attributeName="fill" to="#808080" begin="reset.mouseover" end="reset.mouseout"/>
                       </use>
               </g>
        </defs>

<script type="text/javascript">
var viewWidth = 1426;
var viewHeight = 782;
var sectionId = 'dynsection-0';
</script>
<script xlink:href="svgpan.js"/>
<svg id="graph" class="graph">
<g id="viewport">
<title>UIElement</title>
<!-- Node1 -->
<g id="node1" class="node"><title>Node1</title>
<polygon fill="#bfbfbf" stroke="black" points="660,-463.5 660,-773.5 812,-773.5 812,-463.5 660,-463.5"/>
<text text-anchor="middle" x="736" y="-761.5" font-family="Helvetica,sans-Serif" font-size="10.00">UIElement</text>
<polyline fill="none" stroke="black" points="660,-754.5 812,-754.5 "/>
<text text-anchor="start" x="668" y="-742.5" font-family="Helvetica,sans-Serif" font-size="10.00"># elementData</text>
<text text-anchor="start" x="668" y="-731.5" font-family="Helvetica,sans-Serif" font-size="10.00"># m_texture</text>
<text text-anchor="start" x="668" y="-720.5" font-family="Helvetica,sans-Serif" font-size="10.00"># m_uiElementRect</text>
<text text-anchor="start" x="668" y="-709.5" font-family="Helvetica,sans-Serif" font-size="10.00">&#45; m_renderer</text>
<text text-anchor="start" x="668" y="-698.5" font-family="Helvetica,sans-Serif" font-size="10.00">&#45; m_window</text>
<text text-anchor="start" x="668" y="-687.5" font-family="Helvetica,sans-Serif" font-size="10.00">&#45; m_buttonState</text>
<text text-anchor="start" x="668" y="-676.5" font-family="Helvetica,sans-Serif" font-size="10.00">&#45; m_visible</text>
<polyline fill="none" stroke="black" points="660,-669.5 812,-669.5 "/>
<text text-anchor="start" x="668" y="-657.5" font-family="Helvetica,sans-Serif" font-size="10.00">+ UIElement()</text>
<text text-anchor="start" x="668" y="-646.5" font-family="Helvetica,sans-Serif" font-size="10.00">+ UIElement()</text>
<text text-anchor="start" x="668" y="-635.5" font-family="Helvetica,sans-Serif" font-size="10.00">+ ~UIElement()</text>
<text text-anchor="start" x="668" y="-624.5" font-family="Helvetica,sans-Serif" font-size="10.00">+ registerCallbackFunction()</text>
<text text-anchor="start" x="668" y="-613.5" font-family="Helvetica,sans-Serif" font-size="10.00">+ registerCallbackFunction()</text>
<text text-anchor="start" x="668" y="-602.5" font-family="Helvetica,sans-Serif" font-size="10.00">+ registerCallbackFunction()</text>
<text text-anchor="start" x="668" y="-591.5" font-family="Helvetica,sans-Serif" font-size="10.00">+ onMouseButtonUp()</text>
<text text-anchor="start" x="668" y="-580.5" font-family="Helvetica,sans-Serif" font-size="10.00">+ onMouseButtonDown()</text>
<text text-anchor="start" x="668" y="-569.5" font-family="Helvetica,sans-Serif" font-size="10.00">+ onMouseEnter()</text>
<text text-anchor="start" x="668" y="-558.5" font-family="Helvetica,sans-Serif" font-size="10.00">+ onMouseLeave()</text>
<text text-anchor="start" x="668" y="-547.5" font-family="Helvetica,sans-Serif" font-size="10.00">and 23 more...</text>
<text text-anchor="start" x="668" y="-536.5" font-family="Helvetica,sans-Serif" font-size="10.00"># renderTexture()</text>
<text text-anchor="start" x="668" y="-525.5" font-family="Helvetica,sans-Serif" font-size="10.00"># drawSolidRect()</text>
<text text-anchor="start" x="668" y="-514.5" font-family="Helvetica,sans-Serif" font-size="10.00"># drawLine()</text>
<text text-anchor="start" x="668" y="-503.5" font-family="Helvetica,sans-Serif" font-size="10.00"># drawTextFrame()</text>
<text text-anchor="start" x="668" y="-492.5" font-family="Helvetica,sans-Serif" font-size="10.00"># drawButtonFrame()</text>
<text text-anchor="start" x="668" y="-481.5" font-family="Helvetica,sans-Serif" font-size="10.00"># drawFrame()</text>
<text text-anchor="start" x="668" y="-470.5" font-family="Helvetica,sans-Serif" font-size="10.00"># changeTexture()</text>
</g>
<!-- Node2 -->
<g id="node2" class="node"><title>Node2</title>
<g id="a_node2"><a xlink:href="classBar.html" target="_top" xlink:title="{Bar\n||+ Bar()\l+ ~Bar()\l}">
<polygon fill="none" stroke="black" points="-3.55271e-15,-259.5 -3.55271e-15,-327.5 60,-327.5 60,-259.5 -3.55271e-15,-259.5"/>
<text text-anchor="middle" x="30" y="-315.5" font-family="Helvetica,sans-Serif" font-size="10.00">Bar</text>
<polyline fill="none" stroke="black" points="-3.55271e-15,-308.5 60,-308.5 "/>
<text text-anchor="middle" x="30" y="-296.5" font-family="Helvetica,sans-Serif" font-size="10.00"> </text>
<polyline fill="none" stroke="black" points="-3.55271e-15,-289.5 60,-289.5 "/>
<text text-anchor="start" x="8" y="-277.5" font-family="Helvetica,sans-Serif" font-size="10.00">+ Bar()</text>
<text text-anchor="start" x="8" y="-266.5" font-family="Helvetica,sans-Serif" font-size="10.00">+ ~Bar()</text>
</a>
</g>
</g>
<!-- Node1&#45;&gt;Node2 -->
<g id="edge1" class="edge"><title>Node1&#45;&gt;Node2</title>
<path fill="none" stroke="midnightblue" d="M649.893,-603.473C489.002,-575.615 151.541,-508.879 69,-427 42.5276,-400.74 33.8256,-357.494 31.0729,-327.587"/>
<polygon fill="none" stroke="midnightblue" points="649.314,-606.924 659.763,-605.171 650.501,-600.026 649.314,-606.924"/>
</g>
<!-- Node3 -->
<g id="node3" class="node"><title>Node3</title>
<g id="a_node3"><a xlink:href="classButton.html" target="_top" xlink:title="A Button GUI Widget. ">
<polygon fill="none" stroke="black" points="78,-171.5 78,-415.5 230,-415.5 230,-171.5 78,-171.5"/>
<text text-anchor="middle" x="154" y="-403.5" font-family="Helvetica,sans-Serif" font-size="10.00">Button</text>
<polyline fill="none" stroke="black" points="78,-396.5 230,-396.5 "/>
<text text-anchor="start" x="86" y="-384.5" font-family="Helvetica,sans-Serif" font-size="10.00">&#45; m_frameRect</text>
<text text-anchor="start" x="86" y="-373.5" font-family="Helvetica,sans-Serif" font-size="10.00">&#45; m_buttonLabel</text>
<text text-anchor="start" x="86" y="-362.5" font-family="Helvetica,sans-Serif" font-size="10.00">&#45; m_isMouseButtonDown</text>
<text text-anchor="start" x="86" y="-351.5" font-family="Helvetica,sans-Serif" font-size="10.00">&#45; m_drawFrame</text>
<text text-anchor="start" x="86" y="-340.5" font-family="Helvetica,sans-Serif" font-size="10.00">&#45; m_checkState</text>
<text text-anchor="start" x="86" y="-329.5" font-family="Helvetica,sans-Serif" font-size="10.00">&#45; clickSignal</text>
<text text-anchor="start" x="86" y="-318.5" font-family="Helvetica,sans-Serif" font-size="10.00">&#45; clickSignalSender</text>
<text text-anchor="start" x="86" y="-307.5" font-family="Helvetica,sans-Serif" font-size="10.00">&#45; clickSignalString</text>
<polyline fill="none" stroke="black" points="78,-300.5 230,-300.5 "/>
<text text-anchor="start" x="86" y="-288.5" font-family="Helvetica,sans-Serif" font-size="10.00">+ Button()</text>
<text text-anchor="start" x="86" y="-277.5" font-family="Helvetica,sans-Serif" font-size="10.00">+ ~Button()</text>
<text text-anchor="start" x="86" y="-266.5" font-family="Helvetica,sans-Serif" font-size="10.00">+ draw()</text>
<text text-anchor="start" x="86" y="-255.5" font-family="Helvetica,sans-Serif" font-size="10.00">+ setText()</text>
<text text-anchor="start" x="86" y="-244.5" font-family="Helvetica,sans-Serif" font-size="10.00">+ onMouseButtonUp()</text>
<text text-anchor="start" x="86" y="-233.5" font-family="Helvetica,sans-Serif" font-size="10.00">+ onMouseButtonDown()</text>
<text text-anchor="start" x="86" y="-222.5" font-family="Helvetica,sans-Serif" font-size="10.00">+ onMouseEnter()</text>
<text text-anchor="start" x="86" y="-211.5" font-family="Helvetica,sans-Serif" font-size="10.00">+ onMouseLeave()</text>
<text text-anchor="start" x="86" y="-200.5" font-family="Helvetica,sans-Serif" font-size="10.00">+ drawImageButtonFrame()</text>
<text text-anchor="start" x="86" y="-189.5" font-family="Helvetica,sans-Serif" font-size="10.00">+ registerCallbackFunction()</text>
<text text-anchor="start" x="86" y="-178.5" font-family="Helvetica,sans-Serif" font-size="10.00">and 6 more...</text>
</a>
</g>
</g>
<!-- Node1&#45;&gt;Node3 -->
<g id="edge2" class="edge"><title>Node1&#45;&gt;Node3</title>
<path fill="none" stroke="midnightblue" d="M649.675,-601.473C543.684,-578.218 362.899,-526.566 240,-427 235.632,-423.461 231.412,-419.639 227.344,-415.603"/>
<polygon fill="none" stroke="midnightblue" points="649.18,-604.946 659.694,-603.635 650.657,-598.104 649.18,-604.946"/>
</g>
<!-- Node4 -->
<g id="node4" class="node"><title>Node4</title>
<g id="a_node4"><a xlink:href="classButtonGroup.html" target="_top" xlink:title="Class to group buttons and to make sure there&#39;s only one active toggle button in the group When addin...">
<polygon fill="none" stroke="black" points="248.5,-215.5 248.5,-371.5 385.5,-371.5 385.5,-215.5 248.5,-215.5"/>
<text text-anchor="middle" x="317" y="-359.5" font-family="Helvetica,sans-Serif" font-size="10.00">ButtonGroup</text>
<polyline fill="none" stroke="black" points="248.5,-352.5 385.5,-352.5 "/>
<text text-anchor="start" x="256.5" y="-340.5" font-family="Helvetica,sans-Serif" font-size="10.00">+ alwaysOn</text>
<text text-anchor="start" x="256.5" y="-329.5" font-family="Helvetica,sans-Serif" font-size="10.00">+ exclusive</text>
<text text-anchor="start" x="256.5" y="-318.5" font-family="Helvetica,sans-Serif" font-size="10.00">&#45; m_buttonGroup</text>
<polyline fill="none" stroke="black" points="248.5,-311.5 385.5,-311.5 "/>
<text text-anchor="start" x="256.5" y="-299.5" font-family="Helvetica,sans-Serif" font-size="10.00">+ ButtonGroup()</text>
<text text-anchor="start" x="256.5" y="-288.5" font-family="Helvetica,sans-Serif" font-size="10.00">+ ~ButtonGroup()</text>
<text text-anchor="start" x="256.5" y="-277.5" font-family="Helvetica,sans-Serif" font-size="10.00">+ addToGroup()</text>
<text text-anchor="start" x="256.5" y="-266.5" font-family="Helvetica,sans-Serif" font-size="10.00">+ onMouseButtonDown()</text>
<text text-anchor="start" x="256.5" y="-255.5" font-family="Helvetica,sans-Serif" font-size="10.00">+ onMouseButtonUp()</text>
<text text-anchor="start" x="256.5" y="-244.5" font-family="Helvetica,sans-Serif" font-size="10.00">+ count()</text>
<text text-anchor="start" x="256.5" y="-233.5" font-family="Helvetica,sans-Serif" font-size="10.00">+ getAllButtons()</text>
<text text-anchor="start" x="256.5" y="-222.5" font-family="Helvetica,sans-Serif" font-size="10.00">&#45; uncheckAllButtons()</text>
</a>
</g>
</g>
<!-- Node1&#45;&gt;Node4 -->
<g id="edge3" class="edge"><title>Node1&#45;&gt;Node4</title>
<path fill="none" stroke="midnightblue" d="M650.434,-584.85C576.107,-553.212 469.053,-499.398 395,-427 378.776,-411.138 364.727,-391.203 353.196,-371.647"/>
<polygon fill="none" stroke="midnightblue" points="649.212,-588.133 659.787,-588.787 651.928,-581.681 649.212,-588.133"/>
</g>
<!-- Node5 -->
<g id="node5" class="node"><title>Node5</title>
<g id="a_node5"><a xlink:href="classCheckbox.html" target="_top" xlink:title="A Checkbox GUI Widget. ">
<polygon fill="none" stroke="black" points="403.5,-221 403.5,-366 540.5,-366 540.5,-221 403.5,-221"/>
<text text-anchor="middle" x="472" y="-354" font-family="Helvetica,sans-Serif" font-size="10.00">Checkbox</text>
<polyline fill="none" stroke="black" points="403.5,-347 540.5,-347 "/>
<text text-anchor="start" x="411.5" y="-335" font-family="Helvetica,sans-Serif" font-size="10.00">&#45; m_isMouseButtonDown</text>
<text text-anchor="start" x="411.5" y="-324" font-family="Helvetica,sans-Serif" font-size="10.00">&#45; clickSignal</text>
<text text-anchor="start" x="411.5" y="-313" font-family="Helvetica,sans-Serif" font-size="10.00">&#45; toggleGroupSignal</text>
<polyline fill="none" stroke="black" points="403.5,-306 540.5,-306 "/>
<text text-anchor="start" x="411.5" y="-294" font-family="Helvetica,sans-Serif" font-size="10.00">+ Checkbox()</text>
<text text-anchor="start" x="411.5" y="-283" font-family="Helvetica,sans-Serif" font-size="10.00">+ ~Checkbox()</text>
<text text-anchor="start" x="411.5" y="-272" font-family="Helvetica,sans-Serif" font-size="10.00">+ draw()</text>
<text text-anchor="start" x="411.5" y="-261" font-family="Helvetica,sans-Serif" font-size="10.00">+ onMouseButtonUp()</text>
<text text-anchor="start" x="411.5" y="-250" font-family="Helvetica,sans-Serif" font-size="10.00">+ onMouseButtonDown()</text>
<text text-anchor="start" x="411.5" y="-239" font-family="Helvetica,sans-Serif" font-size="10.00">+ onMouseEnter()</text>
<text text-anchor="start" x="411.5" y="-228" font-family="Helvetica,sans-Serif" font-size="10.00">+ onMouseLeave()</text>
</a>
</g>
</g>
<!-- Node1&#45;&gt;Node5 -->
<g id="edge4" class="edge"><title>Node1&#45;&gt;Node5</title>
<path fill="none" stroke="midnightblue" d="M652.071,-540.156C618.379,-506.989 580.407,-466.771 550,-427 535.652,-408.233 521.902,-386.606 510.052,-366.34"/>
<polygon fill="none" stroke="midnightblue" points="650.041,-543.066 659.637,-547.557 654.935,-538.062 650.041,-543.066"/>
</g>
<!-- Node6 -->
<g id="node6" class="node"><title>Node6</title>
<g id="a_node6"><a xlink:href="classComboBox.html" target="_top" xlink:title="{ComboBox\n|+ activeText\l&#45; m_activeID\l&#45; m_dropDownRect\l&#45; m_wholeElementRect\l&#45; m_textField\l&#45; m_isMenuOpened\l&#45; m_buttonLabel\l&#45; clickSignalSender\l|+ ComboBox()\l+ ~ComboBox()\l+ onMouseButtonUp()\l+ onMouseButtonDown()\l+ onMouseLeave()\l+ onMouseMove()\l+ draw()\l+ setPosition()\l+ isMouseOver()\l+ isMouseOverHoverableArea()\land 6 more...\l&#45; centerTextLabel()\l&#45; checkBoundaries()\l}">
<polygon fill="none" stroke="black" points="559,-160.5 559,-426.5 727,-426.5 727,-160.5 559,-160.5"/>
<text text-anchor="middle" x="643" y="-414.5" font-family="Helvetica,sans-Serif" font-size="10.00">ComboBox</text>
<polyline fill="none" stroke="black" points="559,-407.5 727,-407.5 "/>
<text text-anchor="start" x="567" y="-395.5" font-family="Helvetica,sans-Serif" font-size="10.00">+ activeText</text>
<text text-anchor="start" x="567" y="-384.5" font-family="Helvetica,sans-Serif" font-size="10.00">&#45; m_activeID</text>
<text text-anchor="start" x="567" y="-373.5" font-family="Helvetica,sans-Serif" font-size="10.00">&#45; m_dropDownRect</text>
<text text-anchor="start" x="567" y="-362.5" font-family="Helvetica,sans-Serif" font-size="10.00">&#45; m_wholeElementRect</text>
<text text-anchor="start" x="567" y="-351.5" font-family="Helvetica,sans-Serif" font-size="10.00">&#45; m_textField</text>
<text text-anchor="start" x="567" y="-340.5" font-family="Helvetica,sans-Serif" font-size="10.00">&#45; m_isMenuOpened</text>
<text text-anchor="start" x="567" y="-329.5" font-family="Helvetica,sans-Serif" font-size="10.00">&#45; m_buttonLabel</text>
<text text-anchor="start" x="567" y="-318.5" font-family="Helvetica,sans-Serif" font-size="10.00">&#45; clickSignalSender</text>
<polyline fill="none" stroke="black" points="559,-311.5 727,-311.5 "/>
<text text-anchor="start" x="567" y="-299.5" font-family="Helvetica,sans-Serif" font-size="10.00">+ ComboBox()</text>
<text text-anchor="start" x="567" y="-288.5" font-family="Helvetica,sans-Serif" font-size="10.00">+ ~ComboBox()</text>
<text text-anchor="start" x="567" y="-277.5" font-family="Helvetica,sans-Serif" font-size="10.00">+ onMouseButtonUp()</text>
<text text-anchor="start" x="567" y="-266.5" font-family="Helvetica,sans-Serif" font-size="10.00">+ onMouseButtonDown()</text>
<text text-anchor="start" x="567" y="-255.5" font-family="Helvetica,sans-Serif" font-size="10.00">+ onMouseLeave()</text>
<text text-anchor="start" x="567" y="-244.5" font-family="Helvetica,sans-Serif" font-size="10.00">+ onMouseMove()</text>
<text text-anchor="start" x="567" y="-233.5" font-family="Helvetica,sans-Serif" font-size="10.00">+ draw()</text>
<text text-anchor="start" x="567" y="-222.5" font-family="Helvetica,sans-Serif" font-size="10.00">+ setPosition()</text>
<text text-anchor="start" x="567" y="-211.5" font-family="Helvetica,sans-Serif" font-size="10.00">+ isMouseOver()</text>
<text text-anchor="start" x="567" y="-200.5" font-family="Helvetica,sans-Serif" font-size="10.00">+ isMouseOverHoverableArea()</text>
<text text-anchor="start" x="567" y="-189.5" font-family="Helvetica,sans-Serif" font-size="10.00">and 6 more...</text>
<text text-anchor="start" x="567" y="-178.5" font-family="Helvetica,sans-Serif" font-size="10.00">&#45; centerTextLabel()</text>
<text text-anchor="start" x="567" y="-167.5" font-family="Helvetica,sans-Serif" font-size="10.00">&#45; checkBoundaries()</text>
</a>
</g>
</g>
<!-- Node1&#45;&gt;Node6 -->
<g id="edge5" class="edge"><title>Node1&#45;&gt;Node6</title>
<path fill="none" stroke="midnightblue" d="M688.75,-453.395C686.176,-444.455 683.605,-435.526 681.069,-426.716"/>
<polygon fill="none" stroke="midnightblue" points="685.413,-454.454 691.543,-463.095 692.139,-452.517 685.413,-454.454"/>
</g>
<!-- Node7 -->
<g id="node7" class="node"><title>Node7</title>
<g id="a_node7"><a xlink:href="classFrame.html" target="_top" xlink:title="A Frame GUI Widget. ">
<polygon fill="none" stroke="black" points="745,-248.5 745,-338.5 913,-338.5 913,-248.5 745,-248.5"/>
<text text-anchor="middle" x="829" y="-326.5" font-family="Helvetica,sans-Serif" font-size="10.00">Frame</text>
<polyline fill="none" stroke="black" points="745,-319.5 913,-319.5 "/>
<text text-anchor="middle" x="829" y="-307.5" font-family="Helvetica,sans-Serif" font-size="10.00"> </text>
<polyline fill="none" stroke="black" points="745,-300.5 913,-300.5 "/>
<text text-anchor="start" x="753" y="-288.5" font-family="Helvetica,sans-Serif" font-size="10.00">+ Frame()</text>
<text text-anchor="start" x="753" y="-277.5" font-family="Helvetica,sans-Serif" font-size="10.00">+ ~Frame()</text>
<text text-anchor="start" x="753" y="-266.5" font-family="Helvetica,sans-Serif" font-size="10.00">+ draw()</text>
<text text-anchor="start" x="753" y="-255.5" font-family="Helvetica,sans-Serif" font-size="10.00">+ isMouseOverHoverableArea()</text>
</a>
</g>
</g>
<!-- Node1&#45;&gt;Node7 -->
<g id="edge6" class="edge"><title>Node1&#45;&gt;Node7</title>
<path fill="none" stroke="midnightblue" d="M783.227,-453.475C795.436,-411.071 807.579,-368.899 816.286,-338.656"/>
<polygon fill="none" stroke="midnightblue" points="779.861,-452.517 780.457,-463.095 786.587,-454.454 779.861,-452.517"/>
</g>
<!-- Node8 -->
<g id="node8" class="node"><title>Node8</title>
<g id="a_node8"><a xlink:href="classImage.html" target="_top" xlink:title="An Image GUI Widget. ">
<polygon fill="none" stroke="black" points="930.5,-248.5 930.5,-338.5 1019.5,-338.5 1019.5,-248.5 930.5,-248.5"/>
<text text-anchor="middle" x="975" y="-326.5" font-family="Helvetica,sans-Serif" font-size="10.00">Image</text>
<polyline fill="none" stroke="black" points="930.5,-319.5 1019.5,-319.5 "/>
<text text-anchor="start" x="938.5" y="-307.5" font-family="Helvetica,sans-Serif" font-size="10.00">&#45; m_alphaLevel</text>
<polyline fill="none" stroke="black" points="930.5,-300.5 1019.5,-300.5 "/>
<text text-anchor="start" x="938.5" y="-288.5" font-family="Helvetica,sans-Serif" font-size="10.00">+ Image()</text>
<text text-anchor="start" x="938.5" y="-277.5" font-family="Helvetica,sans-Serif" font-size="10.00">+ ~Image()</text>
<text text-anchor="start" x="938.5" y="-266.5" font-family="Helvetica,sans-Serif" font-size="10.00">+ draw()</text>
<text text-anchor="start" x="938.5" y="-255.5" font-family="Helvetica,sans-Serif" font-size="10.00">+ setOpacity()</text>
</a>
</g>
</g>
<!-- Node1&#45;&gt;Node8 -->
<g id="edge7" class="edge"><title>Node1&#45;&gt;Node8</title>
<path fill="none" stroke="midnightblue" d="M819.511,-545.697C854.607,-512.299 893.752,-470.401 922,-427 939.772,-399.694 953.271,-365.48 962.197,-338.659"/>
<polygon fill="none" stroke="midnightblue" points="816.966,-543.287 812.089,-552.693 821.767,-548.381 816.966,-543.287"/>
</g>
<!-- Node9 -->
<g id="node9" class="node"><title>Node9</title>
<g id="a_node9"><a xlink:href="classSlider.html" target="_top" xlink:title="A Slider GUI Widget. ">
<polygon fill="none" stroke="black" points="1037.5,-226.5 1037.5,-360.5 1138.5,-360.5 1138.5,-226.5 1037.5,-226.5"/>
<text text-anchor="middle" x="1088" y="-348.5" font-family="Helvetica,sans-Serif" font-size="10.00">Slider</text>
<polyline fill="none" stroke="black" points="1037.5,-341.5 1138.5,-341.5 "/>
<text text-anchor="start" x="1045.5" y="-329.5" font-family="Helvetica,sans-Serif" font-size="10.00">&#45; m_lineThickness</text>
<text text-anchor="start" x="1045.5" y="-318.5" font-family="Helvetica,sans-Serif" font-size="10.00">&#45; sliderLine</text>
<text text-anchor="start" x="1045.5" y="-307.5" font-family="Helvetica,sans-Serif" font-size="10.00">&#45; sliderButton</text>
<text text-anchor="start" x="1045.5" y="-296.5" font-family="Helvetica,sans-Serif" font-size="10.00">&#45; m_minVal</text>
<text text-anchor="start" x="1045.5" y="-285.5" font-family="Helvetica,sans-Serif" font-size="10.00">&#45; m_maxVal</text>
<polyline fill="none" stroke="black" points="1037.5,-278.5 1138.5,-278.5 "/>
<text text-anchor="start" x="1045.5" y="-266.5" font-family="Helvetica,sans-Serif" font-size="10.00">+ Slider()</text>
<text text-anchor="start" x="1045.5" y="-255.5" font-family="Helvetica,sans-Serif" font-size="10.00">+ Slider()</text>
<text text-anchor="start" x="1045.5" y="-244.5" font-family="Helvetica,sans-Serif" font-size="10.00">+ ~Slider()</text>
<text text-anchor="start" x="1045.5" y="-233.5" font-family="Helvetica,sans-Serif" font-size="10.00">+ draw()</text>
</a>
</g>
</g>
<!-- Node1&#45;&gt;Node9 -->
<g id="edge8" class="edge"><title>Node1&#45;&gt;Node9</title>
<path fill="none" stroke="midnightblue" d="M821.436,-578.769C885.616,-546.051 971.929,-493.855 1029,-427 1045.35,-407.848 1057.93,-383.441 1067.19,-360.806"/>
<polygon fill="none" stroke="midnightblue" points="819.49,-575.83 812.133,-583.454 822.639,-582.082 819.49,-575.83"/>
</g>
<!-- Node10 -->
<g id="node10" class="node"><title>Node10</title>
<g id="a_node10"><a xlink:href="classText.html" target="_top" xlink:title="{Text\n|&#45; m_fontSize\l|+ Text()\l+ ~Text()\l+ draw()\l+ setText()\l+ setFontSize()\l+ getFontSize()\l&#45; createTextTexture()\l}">
<polygon fill="none" stroke="black" points="1156.5,-232 1156.5,-355 1271.5,-355 1271.5,-232 1156.5,-232"/>
<text text-anchor="middle" x="1214" y="-343" font-family="Helvetica,sans-Serif" font-size="10.00">Text</text>
<polyline fill="none" stroke="black" points="1156.5,-336 1271.5,-336 "/>
<text text-anchor="start" x="1164.5" y="-324" font-family="Helvetica,sans-Serif" font-size="10.00">&#45; m_fontSize</text>
<polyline fill="none" stroke="black" points="1156.5,-317 1271.5,-317 "/>
<text text-anchor="start" x="1164.5" y="-305" font-family="Helvetica,sans-Serif" font-size="10.00">+ Text()</text>
<text text-anchor="start" x="1164.5" y="-294" font-family="Helvetica,sans-Serif" font-size="10.00">+ ~Text()</text>
<text text-anchor="start" x="1164.5" y="-283" font-family="Helvetica,sans-Serif" font-size="10.00">+ draw()</text>
<text text-anchor="start" x="1164.5" y="-272" font-family="Helvetica,sans-Serif" font-size="10.00">+ setText()</text>
<text text-anchor="start" x="1164.5" y="-261" font-family="Helvetica,sans-Serif" font-size="10.00">+ setFontSize()</text>
<text text-anchor="start" x="1164.5" y="-250" font-family="Helvetica,sans-Serif" font-size="10.00">+ getFontSize()</text>
<text text-anchor="start" x="1164.5" y="-239" font-family="Helvetica,sans-Serif" font-size="10.00">&#45; createTextTexture()</text>
</a>
</g>
</g>
<!-- Node1&#45;&gt;Node10 -->
<g id="edge9" class="edge"><title>Node1&#45;&gt;Node10</title>
<path fill="none" stroke="midnightblue" d="M821.83,-596.158C912.665,-569.763 1055.42,-516.929 1148,-427 1168.37,-407.213 1183.45,-379.822 1194.01,-355.077"/>
<polygon fill="none" stroke="midnightblue" points="820.763,-592.823 812.112,-598.939 822.689,-599.553 820.763,-592.823"/>
</g>
<!-- Node12 -->
<g id="node12" class="node"><title>Node12</title>
<g id="a_node12"><a xlink:href="classTextField.html" target="_top" xlink:title="A TextField GUI Widget. ">
<polygon fill="none" stroke="black" points="1290,-160.5 1290,-426.5 1418,-426.5 1418,-160.5 1290,-160.5"/>
<text text-anchor="middle" x="1354" y="-414.5" font-family="Helvetica,sans-Serif" font-size="10.00">TextField</text>
<polyline fill="none" stroke="black" points="1290,-407.5 1418,-407.5 "/>
<text text-anchor="start" x="1298" y="-395.5" font-family="Helvetica,sans-Serif" font-size="10.00">+ centerText</text>
<text text-anchor="start" x="1298" y="-384.5" font-family="Helvetica,sans-Serif" font-size="10.00">+ selectedID</text>
<text text-anchor="start" x="1298" y="-373.5" font-family="Helvetica,sans-Serif" font-size="10.00">+ hoveredID</text>
<text text-anchor="start" x="1298" y="-362.5" font-family="Helvetica,sans-Serif" font-size="10.00">+ textAlignment</text>
<text text-anchor="start" x="1298" y="-351.5" font-family="Helvetica,sans-Serif" font-size="10.00">&#45; m_count</text>
<text text-anchor="start" x="1298" y="-340.5" font-family="Helvetica,sans-Serif" font-size="10.00">&#45; m_textElements</text>
<text text-anchor="start" x="1298" y="-329.5" font-family="Helvetica,sans-Serif" font-size="10.00">&#45; m_textElementHeight</text>
<text text-anchor="start" x="1298" y="-318.5" font-family="Helvetica,sans-Serif" font-size="10.00">&#45; m_highlightingRect</text>
<polyline fill="none" stroke="black" points="1290,-311.5 1418,-311.5 "/>
<text text-anchor="start" x="1298" y="-299.5" font-family="Helvetica,sans-Serif" font-size="10.00">+ TextField()</text>
<text text-anchor="start" x="1298" y="-288.5" font-family="Helvetica,sans-Serif" font-size="10.00">+ TextField()</text>
<text text-anchor="start" x="1298" y="-277.5" font-family="Helvetica,sans-Serif" font-size="10.00">+ ~TextField()</text>
<text text-anchor="start" x="1298" y="-266.5" font-family="Helvetica,sans-Serif" font-size="10.00">+ addText()</text>
<text text-anchor="start" x="1298" y="-255.5" font-family="Helvetica,sans-Serif" font-size="10.00">+ getTextFromID()</text>
<text text-anchor="start" x="1298" y="-244.5" font-family="Helvetica,sans-Serif" font-size="10.00">+ getSize()</text>
<text text-anchor="start" x="1298" y="-233.5" font-family="Helvetica,sans-Serif" font-size="10.00">+ setPosition()</text>
<text text-anchor="start" x="1298" y="-222.5" font-family="Helvetica,sans-Serif" font-size="10.00">+ draw()</text>
<text text-anchor="start" x="1298" y="-211.5" font-family="Helvetica,sans-Serif" font-size="10.00">+ onMouseButtonUp()</text>
<text text-anchor="start" x="1298" y="-200.5" font-family="Helvetica,sans-Serif" font-size="10.00">+ onMouseMove()</text>
<text text-anchor="start" x="1298" y="-189.5" font-family="Helvetica,sans-Serif" font-size="10.00">+ onMouseLeave()</text>
<text text-anchor="start" x="1298" y="-178.5" font-family="Helvetica,sans-Serif" font-size="10.00">+ count()</text>
<text text-anchor="start" x="1298" y="-167.5" font-family="Helvetica,sans-Serif" font-size="10.00">+ clear()</text>
</a>
</g>
</g>
<!-- Node1&#45;&gt;Node12 -->
<g id="edge11" class="edge"><title>Node1&#45;&gt;Node12</title>
<path fill="none" stroke="midnightblue" d="M822.221,-606.793C938.352,-588.41 1146,-541.113 1281,-427 1284.01,-424.457 1286.92,-421.757 1289.72,-418.927"/>
<polygon fill="none" stroke="midnightblue" points="821.652,-603.339 812.305,-608.328 822.722,-610.257 821.652,-603.339"/>
</g>
<!-- Node11 -->
<g id="node11" class="node"><title>Node11</title>
<g id="a_node11"><a xlink:href="classTooltip.html" target="_top" xlink:title="{Tooltip\n|&#45; m_tooltipTimer\l&#45; m_active\l|+ Tooltip()\l+ ~Tooltip()\l+ draw()\l+ startTimer()\l+ showTooltip()\l+ reset()\l}">
<polygon fill="none" stroke="black" points="1166.5,-0.5 1166.5,-123.5 1261.5,-123.5 1261.5,-0.5 1166.5,-0.5"/>
<text text-anchor="middle" x="1214" y="-111.5" font-family="Helvetica,sans-Serif" font-size="10.00">Tooltip</text>
<polyline fill="none" stroke="black" points="1166.5,-104.5 1261.5,-104.5 "/>
<text text-anchor="start" x="1174.5" y="-92.5" font-family="Helvetica,sans-Serif" font-size="10.00">&#45; m_tooltipTimer</text>
<text text-anchor="start" x="1174.5" y="-81.5" font-family="Helvetica,sans-Serif" font-size="10.00">&#45; m_active</text>
<polyline fill="none" stroke="black" points="1166.5,-74.5 1261.5,-74.5 "/>
<text text-anchor="start" x="1174.5" y="-62.5" font-family="Helvetica,sans-Serif" font-size="10.00">+ Tooltip()</text>
<text text-anchor="start" x="1174.5" y="-51.5" font-family="Helvetica,sans-Serif" font-size="10.00">+ ~Tooltip()</text>
<text text-anchor="start" x="1174.5" y="-40.5" font-family="Helvetica,sans-Serif" font-size="10.00">+ draw()</text>
<text text-anchor="start" x="1174.5" y="-29.5" font-family="Helvetica,sans-Serif" font-size="10.00">+ startTimer()</text>
<text text-anchor="start" x="1174.5" y="-18.5" font-family="Helvetica,sans-Serif" font-size="10.00">+ showTooltip()</text>
<text text-anchor="start" x="1174.5" y="-7.5" font-family="Helvetica,sans-Serif" font-size="10.00">+ reset()</text>
</a>
</g>
</g>
<!-- Node10&#45;&gt;Node11 -->
<g id="edge10" class="edge"><title>Node10&#45;&gt;Node11</title>
<path fill="none" stroke="midnightblue" d="M1214,-221.884C1214,-190.418 1214,-153.729 1214,-123.54"/>
<polygon fill="none" stroke="midnightblue" points="1210.5,-221.901 1214,-231.901 1217.5,-221.901 1210.5,-221.901"/>
</g>
</g>
</svg>
        <g id="navigator" transform="translate(0 0)" fill="#404254">
                <rect fill="#f2f5e9" fill-opacity="0.5" stroke="#606060" stroke-width=".5" x="0" y="0" width="60" height="60"/>
                <use id="zoomplus" xlink:href="#zoomPlus" x="17" y="9" onmousedown="handleZoom(evt,'in')"/>
                <use id="zoomminus" xlink:href="#zoomMin" x="42" y="9" onmousedown="handleZoom(evt,'out')"/>
                <use id="reset" xlink:href="#resetDef" x="30" y="36" onmousedown="handleReset()"/>
                <g id="arrowUp" xlink:href="#dirArrow" transform="translate(30 24)" onmousedown="handlePan(0,-1)">
                  <use xlink:href="#rim" fill="#404040">
                        <set attributeName="fill" to="#808080" begin="arrowUp.mouseover" end="arrowUp.mouseout"/>
                  </use>
                  <path fill="none" stroke="white" stroke-width="1.5" d="M0,-3.0v7 M-2.5,-0.5L0,-3.0L2.5,-0.5"/>
                </g>
                <g id="arrowRight" xlink:href="#dirArrow" transform="rotate(90) translate(36 -43)" onmousedown="handlePan(1,0)">
                  <use xlink:href="#rim" fill="#404040">
                        <set attributeName="fill" to="#808080" begin="arrowRight.mouseover" end="arrowRight.mouseout"/>
                  </use>
                  <path fill="none" stroke="white" stroke-width="1.5" d="M0,-3.0v7 M-2.5,-0.5L0,-3.0L2.5,-0.5"/>
                </g>
                <g id="arrowDown" xlink:href="#dirArrow" transform="rotate(180) translate(-30 -48)" onmousedown="handlePan(0,1)">
                  <use xlink:href="#rim" fill="#404040">
                        <set attributeName="fill" to="#808080" begin="arrowDown.mouseover" end="arrowDown.mouseout"/>
                  </use>
                  <path fill="none" stroke="white" stroke-width="1.5" d="M0,-3.0v7 M-2.5,-0.5L0,-3.0L2.5,-0.5"/>
                </g>
                <g id="arrowLeft" xlink:href="#dirArrow" transform="rotate(270) translate(-36 17)" onmousedown="handlePan(-1,0)">
                  <use xlink:href="#rim" fill="#404040">
                        <set attributeName="fill" to="#808080" begin="arrowLeft.mouseover" end="arrowLeft.mouseout"/>
                  </use>
                  <path fill="none" stroke="white" stroke-width="1.5" d="M0,-3.0v7 M-2.5,-0.5L0,-3.0L2.5,-0.5"/>
                </g>
        </g>
        <svg viewBox="0 0 15 15" width="100%" height="30px" preserveAspectRatio="xMaxYMin meet">
         <g id="arrow_out" transform="scale(0.3 0.3)">
          <a xlink:href="classUIElement__inherit__graph_org.svg" target="_base">
           <rect id="button" ry="5" rx="5" y="6" x="6" height="38" width="38"
                fill="#f2f5e9" fill-opacity="0.5" stroke="#606060" stroke-width="1.0"/>
           <path id="arrow"
             d="M 11.500037,31.436501 C 11.940474,20.09759 22.043105,11.32322 32.158766,21.979434 L 37.068811,17.246167 C 37.068811,17.246167 37.088388,32 37.088388,32 L 22.160133,31.978069 C 22.160133,31.978069 26.997745,27.140456 26.997745,27.140456 C 18.528582,18.264221 13.291696,25.230495 11.500037,31.436501 z"
             style="fill:#404040;"/>
          </a>
         </g>
        </svg>
</svg>
