<?xml version="1.0" encoding="UTF-8" standalone="no"?>
<!DOCTYPE svg PUBLIC "-//W3C//DTD SVG 1.1//EN"
 "http://www.w3.org/Graphics/SVG/1.1/DTD/svg11.dtd">
<!-- Generated by graphviz version 2.38.0 (20140413.2041)
 -->
<!-- Title: ButtonGroup::uncheckAllButtons Pages: 1 -->
<svg width="742pt" height="100pt"
 viewBox="0.00 0.00 742.00 99.50" xmlns="http://www.w3.org/2000/svg" xmlns:xlink="http://www.w3.org/1999/xlink">
<g id="graph0" class="graph" transform="scale(1 1) rotate(0) translate(4 95.5)">
<title>ButtonGroup::uncheckAllButtons</title>
<!-- Node1 -->
<g id="node1" class="node"><title>Node1</title>
<polygon fill="#bfbfbf" stroke="black" points="0,-44.5 0,-63.5 173,-63.5 173,-44.5 0,-44.5"/>
<text text-anchor="middle" x="86.5" y="-51.5" font-family="Helvetica,sans-Serif" font-size="10.00">ButtonGroup::uncheckAllButtons</text>
</g>
<!-- Node2 -->
<g id="node2" class="node"><title>Node2</title>
<g id="a_node2"><a xlink:href="classSingleton.html#af5cb1e5749949e2b68416cfb8d378044" target="_top" xlink:title="Get an instance of the singleton. ">
<polygon fill="none" stroke="black" points="600.5,-61 600.5,-91 725.5,-91 725.5,-61 600.5,-61"/>
<text text-anchor="start" x="608.5" y="-79" font-family="Helvetica,sans-Serif" font-size="10.00">Singleton&lt; UIManager</text>
<text text-anchor="middle" x="663" y="-68" font-family="Helvetica,sans-Serif" font-size="10.00"> &gt;::instance</text>
</a>
</g>
</g>
<!-- Node1&#45;&gt;Node2 -->
<g id="edge1" class="edge"><title>Node1&#45;&gt;Node2</title>
<path fill="none" stroke="midnightblue" d="M123.887,-63.502C147.87,-69.2639 180.076,-76.0552 209,-79 343.104,-92.6537 500.695,-86.6801 590.211,-81.2404"/>
<polygon fill="midnightblue" stroke="midnightblue" points="590.489,-84.7299 600.253,-80.615 590.054,-77.7435 590.489,-84.7299"/>
</g>
<!-- Node3 -->
<g id="node3" class="node"><title>Node3</title>
<g id="a_node3"><a xlink:href="classUIManager.html#ae408c7d3e00cf7f9b64627d0e69cf31b" target="_top" xlink:title="Get the UiElements Of aroup get Elements that are in UiGroup (m_uiGroups) ">
<polygon fill="none" stroke="black" points="209,-39 209,-69 354,-69 354,-39 209,-39"/>
<text text-anchor="start" x="217" y="-57" font-family="Helvetica,sans-Serif" font-size="10.00">UIManager::getUiElements</text>
<text text-anchor="middle" x="281.5" y="-46" font-family="Helvetica,sans-Serif" font-size="10.00">OfGroup</text>
</a>
</g>
</g>
<!-- Node1&#45;&gt;Node3 -->
<g id="edge2" class="edge"><title>Node1&#45;&gt;Node3</title>
<path fill="none" stroke="midnightblue" d="M173.277,-54C181.722,-54 190.279,-54 198.683,-54"/>
<polygon fill="midnightblue" stroke="midnightblue" points="198.842,-57.5001 208.842,-54 198.842,-50.5001 198.842,-57.5001"/>
</g>
<!-- Node4 -->
<g id="node4" class="node"><title>Node4</title>
<g id="a_node4"><a xlink:href="classButton.html#a25f11ea415fdbb64cb897421bf746918" target="_top" xlink:title="Button::setCheckState">
<polygon fill="none" stroke="black" points="219,-0.5 219,-19.5 344,-19.5 344,-0.5 219,-0.5"/>
<text text-anchor="middle" x="281.5" y="-7.5" font-family="Helvetica,sans-Serif" font-size="10.00">Button::setCheckState</text>
</a>
</g>
</g>
<!-- Node1&#45;&gt;Node4 -->
<g id="edge3" class="edge"><title>Node1&#45;&gt;Node4</title>
<path fill="none" stroke="midnightblue" d="M129.378,-44.4527C158.589,-37.7931 197.757,-28.8637 228.898,-21.7642"/>
<polygon fill="midnightblue" stroke="midnightblue" points="229.732,-25.164 238.704,-19.5287 228.176,-18.3391 229.732,-25.164"/>
</g>
<!-- Node5 -->
<g id="node5" class="node"><title>Node5</title>
<g id="a_node5"><a xlink:href="classUIElement.html#ade4162d6216022e143c769369b64add7" target="_top" xlink:title="Set the button state Sets the mouse button pressed state. ">
<polygon fill="none" stroke="black" points="390,-11.5 390,-30.5 556,-30.5 556,-11.5 390,-11.5"/>
<text text-anchor="middle" x="473" y="-18.5" font-family="Helvetica,sans-Serif" font-size="10.00">UIElement::changeButtonState</text>
</a>
</g>
</g>
<!-- Node4&#45;&gt;Node5 -->
<g id="edge4" class="edge"><title>Node4&#45;&gt;Node5</title>
<path fill="none" stroke="midnightblue" d="M344.025,-13.5714C355.423,-14.233 367.556,-14.9373 379.637,-15.6386"/>
<polygon fill="midnightblue" stroke="midnightblue" points="379.57,-19.1404 389.756,-16.2259 379.975,-12.1522 379.57,-19.1404"/>
</g>
<!-- Node5&#45;&gt;Node2 -->
<g id="edge6" class="edge"><title>Node5&#45;&gt;Node2</title>
<path fill="none" stroke="midnightblue" d="M506.747,-30.5803C532.568,-38.1341 569.309,-48.883 600.568,-58.028"/>
<polygon fill="midnightblue" stroke="midnightblue" points="599.923,-61.4859 610.504,-60.9346 601.889,-54.7675 599.923,-61.4859"/>
</g>
<!-- Node6 -->
<g id="node6" class="node"><title>Node6</title>
<g id="a_node6"><a xlink:href="classUIElement.html#afdf67550d4140097c7a328d4b22fc1fe" target="_top" xlink:title="UIElement::changeTexture">
<polygon fill="none" stroke="black" points="592,-11.5 592,-30.5 734,-30.5 734,-11.5 592,-11.5"/>
<text text-anchor="middle" x="663" y="-18.5" font-family="Helvetica,sans-Serif" font-size="10.00">UIElement::changeTexture</text>
</a>
</g>
</g>
<!-- Node5&#45;&gt;Node6 -->
<g id="edge5" class="edge"><title>Node5&#45;&gt;Node6</title>
<path fill="none" stroke="midnightblue" d="M556.186,-21C564.615,-21 573.173,-21 581.583,-21"/>
<polygon fill="midnightblue" stroke="midnightblue" points="581.749,-24.5001 591.749,-21 581.749,-17.5001 581.749,-24.5001"/>
</g>
</g>
</svg>
