<?xml version="1.0" encoding="UTF-8" standalone="no"?>
<!DOCTYPE svg PUBLIC "-//W3C//DTD SVG 1.1//EN"
 "http://www.w3.org/Graphics/SVG/1.1/DTD/svg11.dtd">
<!-- Generated by graphviz version 2.38.0 (20140413.2041)
 -->
<!-- Title: Map::updateAllNodes Pages: 1 -->
<!--zoomable 182 -->
<svg id="main" version="1.1" xmlns="http://www.w3.org/2000/svg" xmlns:xlink="http://www.w3.org/1999/xlink" xml:space="preserve" onload="init(evt)">
<style type="text/css"><![CDATA[
.edge:hover path { stroke: red; }
.edge:hover polygon { stroke: red; fill: red; }
]]></style>
<script type="text/javascript"><![CDATA[
var edges = document.getElementsByTagName('g');
if (edges && edges.length) {
  for (var i=0;i<edges.length;i++) {
    if (edges[i].id.substr(0,4)=='edge') {
      edges[i].setAttribute('class','edge');
    }
  }
}
]]></script>
        <defs>
                <circle id="rim" cx="0" cy="0" r="7"/>
                <circle id="rim2" cx="0" cy="0" r="3.5"/>
                <g id="zoomPlus">
                        <use xlink:href="#rim" fill="#404040">
                                <set attributeName="fill" to="#808080" begin="zoomplus.mouseover" end="zoomplus.mouseout"/>
                        </use>
                        <path d="M-4,0h8M0,-4v8" fill="none" stroke="white" stroke-width="1.5" pointer-events="none"/>
                </g>
                <g id="zoomMin">
                        <use xlink:href="#rim" fill="#404040">
                                <set attributeName="fill" to="#808080" begin="zoomminus.mouseover" end="zoomminus.mouseout"/>
                        </use>
                        <path d="M-4,0h8" fill="none" stroke="white" stroke-width="1.5" pointer-events="none"/>
                </g>
                <g id="dirArrow">
                        <path fill="none" stroke="white" stroke-width="1.5" d="M0,-3.0v7 M-2.5,-0.5L0,-3.0L2.5,-0.5"/>
                </g>
               <g id="resetDef">
                       <use xlink:href="#rim2" fill="#404040">
                               <set attributeName="fill" to="#808080" begin="reset.mouseover" end="reset.mouseout"/>
                       </use>
               </g>
        </defs>

<script type="text/javascript">
var viewWidth = 1388;
var viewHeight = 182;
var sectionId = 'dynsection-32';
</script>
<script xlink:href="svgpan.js"/>
<svg id="graph" class="graph">
<g id="viewport">
<title>Map::updateAllNodes</title>
<!-- Node1 -->
<g id="node1" class="node"><title>Node1</title>
<polygon fill="#bfbfbf" stroke="black" points="0,-56.724 0,-75.724 119,-75.724 119,-56.724 0,-56.724"/>
<text text-anchor="middle" x="59.5" y="-63.724" font-family="Helvetica,sans-Serif" font-size="10.00">Map::updateAllNodes</text>
</g>
<!-- Node2 -->
<g id="node2" class="node"><title>Node2</title>
<g id="a_node2"><a xlink:href="classMap.html#a482ac34426e8aa66abb46f60ec329402" target="_top" xlink:title="Initialize the Map with node objects Initialize the Map with node objects. ">
<polygon fill="none" stroke="black" points="155,-37.724 155,-56.724 232,-56.724 232,-37.724 155,-37.724"/>
<text text-anchor="middle" x="193.5" y="-44.724" font-family="Helvetica,sans-Serif" font-size="10.00">Map::initMap</text>
</a>
</g>
</g>
<!-- Node1&#45;&gt;Node2 -->
<g id="edge1" class="edge"><title>Node1&#45;&gt;Node2</title>
<path fill="none" stroke="midnightblue" d="M129.148,-56.3429C137.995,-55.0694 146.779,-53.8051 154.862,-52.6416"/>
<polygon fill="midnightblue" stroke="midnightblue" points="128.565,-52.8906 119.166,-57.7797 129.563,-59.8192 128.565,-52.8906"/>
</g>
<!-- Node11 -->
<g id="node11" class="node"><title>Node11</title>
<g id="a_node11"><a xlink:href="classMap.html#afefe996cc1f62b61ec60d0ae415953bf" target="_top" xlink:title="Map::loadMapFromFile">
<polygon fill="none" stroke="black" points="268,-75.724 268,-94.724 390,-94.724 390,-75.724 268,-75.724"/>
<text text-anchor="middle" x="329" y="-82.724" font-family="Helvetica,sans-Serif" font-size="10.00">Map::loadMapFromFile</text>
</a>
</g>
</g>
<!-- Node1&#45;&gt;Node11 -->
<g id="edge22" class="edge"><title>Node1&#45;&gt;Node11</title>
<path fill="none" stroke="midnightblue" d="M129.249,-71.1071C172.009,-74.1443 226.48,-78.0132 267.579,-80.9324"/>
<polygon fill="midnightblue" stroke="midnightblue" points="129.427,-67.611 119.204,-70.3936 128.931,-74.5934 129.427,-67.611"/>
</g>
<!-- Node3 -->
<g id="node3" class="node"><title>Node3</title>
<g id="a_node3"><a xlink:href="classEngine.html#a260d4834150eae6eec2bde34df6dc827" target="_top" xlink:title="Creates a new game Creates a new game. ">
<polygon fill="none" stroke="black" points="426.5,-23.724 426.5,-42.724 529.5,-42.724 529.5,-23.724 426.5,-23.724"/>
<text text-anchor="middle" x="478" y="-30.724" font-family="Helvetica,sans-Serif" font-size="10.00">Engine::newGame</text>
</a>
</g>
</g>
<!-- Node2&#45;&gt;Node3 -->
<g id="edge2" class="edge"><title>Node2&#45;&gt;Node3</title>
<path fill="none" stroke="midnightblue" d="M242.14,-44.8631C293.278,-42.3288 374.191,-38.319 426.432,-35.73"/>
<polygon fill="midnightblue" stroke="midnightblue" points="241.828,-41.3741 232.014,-45.3649 242.175,-48.3655 241.828,-41.3741"/>
</g>
<!-- Node2&#45;&gt;Node11 -->
<g id="edge13" class="edge"><title>Node2&#45;&gt;Node11</title>
<path fill="none" stroke="midnightblue" d="M238.03,-59.6145C256.312,-64.8185 277.249,-70.7781 294.323,-75.638"/>
<polygon fill="midnightblue" stroke="midnightblue" points="238.764,-56.1845 228.188,-56.813 236.847,-62.917 238.764,-56.1845"/>
</g>
<!-- Node4 -->
<g id="node4" class="node"><title>Node4</title>
<g id="a_node4"><a xlink:href="classEngine.html#af7de8d74b0cfacaf06df53e7caf11538" target="_top" xlink:title="Engine::saveGame">
<polygon fill="none" stroke="black" points="566,-23.724 566,-42.724 673,-42.724 673,-23.724 566,-23.724"/>
<text text-anchor="middle" x="619.5" y="-30.724" font-family="Helvetica,sans-Serif" font-size="10.00">Engine::saveGame</text>
</a>
</g>
</g>
<!-- Node3&#45;&gt;Node4 -->
<g id="edge3" class="edge"><title>Node3&#45;&gt;Node4</title>
<path fill="none" stroke="midnightblue" d="M539.767,-33.224C548.395,-33.224 557.209,-33.224 565.669,-33.224"/>
<polygon fill="midnightblue" stroke="midnightblue" points="539.757,-29.7241 529.757,-33.224 539.757,-36.7241 539.757,-29.7241"/>
</g>
<!-- Node5 -->
<g id="node5" class="node"><title>Node5</title>
<g id="a_node5"><a xlink:href="classUIManager.html#aa78e356fc3b356d790c848319d1c387e" target="_top" xlink:title="UIManager::setCallbackFunctions">
<polygon fill="none" stroke="black" points="709,-61.724 709,-80.724 883,-80.724 883,-61.724 709,-61.724"/>
<text text-anchor="middle" x="796" y="-68.724" font-family="Helvetica,sans-Serif" font-size="10.00">UIManager::setCallbackFunctions</text>
</a>
</g>
</g>
<!-- Node3&#45;&gt;Node5 -->
<g id="edge9" class="edge"><title>Node3&#45;&gt;Node5</title>
<path fill="none" stroke="midnightblue" d="M522.2,-21.2945C561.828,-12.1612 621.943,-2.88493 673,-14.224 714.08,-23.3472 757.706,-47.8208 779.989,-61.548"/>
<polygon fill="midnightblue" stroke="midnightblue" points="521.243,-17.9247 512.336,-23.6626 522.877,-24.7313 521.243,-17.9247"/>
</g>
<!-- Node7 -->
<g id="node7" class="node"><title>Node7</title>
<g id="a_node7"><a xlink:href="classGame.html#a1c2ab25d5216b2f4b2fe41efd2c09114" target="_top" xlink:title="Game::run">
<polygon fill="none" stroke="black" points="1107,-80.724 1107,-99.724 1175,-99.724 1175,-80.724 1107,-80.724"/>
<text text-anchor="middle" x="1141" y="-87.724" font-family="Helvetica,sans-Serif" font-size="10.00">Game::run</text>
</a>
</g>
</g>
<!-- Node3&#45;&gt;Node7 -->
<g id="edge12" class="edge"><title>Node3&#45;&gt;Node7</title>
<path fill="none" stroke="midnightblue" d="M510.574,-19.9694C526.82,-13.8562 547.129,-7.28633 566,-4.22399 612.941,3.39357 625.53,-1.37181 673,-4.22399 850.85,-14.9099 901.415,2.41882 1071,-52.224 1091.57,-58.8508 1113.03,-71.7726 1126.45,-80.6947"/>
<polygon fill="midnightblue" stroke="midnightblue" points="509.083,-16.7938 501.032,-23.6813 511.621,-23.3175 509.083,-16.7938"/>
</g>
<!-- Node10 -->
<g id="node10" class="node"><title>Node10</title>
<g id="a_node10"><a xlink:href="classGame.html#a5ed7fc5be77080f7f6dd5363f7f007a1" target="_top" xlink:title="Game::mainMenu">
<polygon fill="none" stroke="black" points="745,-137.724 745,-156.724 847,-156.724 847,-137.724 745,-137.724"/>
<text text-anchor="middle" x="796" y="-144.724" font-family="Helvetica,sans-Serif" font-size="10.00">Game::mainMenu</text>
</a>
</g>
</g>
<!-- Node3&#45;&gt;Node10 -->
<g id="edge10" class="edge"><title>Node3&#45;&gt;Node10</title>
<path fill="none" stroke="midnightblue" d="M503.467,-48.6847C512.414,-55.0213 522.236,-62.8378 530,-71.224 550.355,-93.2112 540.38,-112.687 566,-128.224 620.237,-161.115 695.44,-160.478 744.643,-155.274"/>
<polygon fill="midnightblue" stroke="midnightblue" points="505.158,-45.602 494.92,-42.875 501.222,-51.3912 505.158,-45.602"/>
</g>
<!-- Node4&#45;&gt;Node5 -->
<g id="edge4" class="edge"><title>Node4&#45;&gt;Node5</title>
<path fill="none" stroke="midnightblue" d="M674.469,-44.9766C699.143,-50.3498 727.995,-56.6326 751.283,-61.7039"/>
<polygon fill="midnightblue" stroke="midnightblue" points="675.049,-41.521 664.534,-42.813 673.56,-48.3607 675.049,-41.521"/>
</g>
<!-- Node6 -->
<g id="node6" class="node"><title>Node6</title>
<g id="a_node6"><a xlink:href="classUIManager.html#aedd9d0577af515a852425dfe414b2968" target="_top" xlink:title="Parses the UiLayout.json files and creates UI Elements. ">
<polygon fill="none" stroke="black" points="950.5,-61.724 950.5,-80.724 1039.5,-80.724 1039.5,-61.724 950.5,-61.724"/>
<text text-anchor="middle" x="995" y="-68.724" font-family="Helvetica,sans-Serif" font-size="10.00">UIManager::init</text>
</a>
</g>
</g>
<!-- Node5&#45;&gt;Node6 -->
<g id="edge5" class="edge"><title>Node5&#45;&gt;Node6</title>
<path fill="none" stroke="midnightblue" d="M893.264,-71.224C913.329,-71.224 933.518,-71.224 950.498,-71.224"/>
<polygon fill="midnightblue" stroke="midnightblue" points="893.121,-67.7241 883.12,-71.224 893.12,-74.7241 893.121,-67.7241"/>
</g>
<!-- Node6&#45;&gt;Node7 -->
<g id="edge6" class="edge"><title>Node6&#45;&gt;Node7</title>
<path fill="none" stroke="midnightblue" d="M1049.68,-78.3066C1068.77,-80.8261 1089.71,-83.5887 1106.62,-85.8191"/>
<polygon fill="midnightblue" stroke="midnightblue" points="1049.97,-74.8144 1039.6,-76.9762 1049.05,-81.7543 1049.97,-74.8144"/>
</g>
<!-- Node8 -->
<g id="node8" class="node"><title>Node8</title>
<g id="a_node8"><a xlink:href="main_8cxx.html#af582d708d899e67ead623eac34a22387" target="_top" xlink:title="protected_main">
<polygon fill="none" stroke="black" points="1211,-108.724 1211,-127.724 1303,-127.724 1303,-108.724 1211,-108.724"/>
<text text-anchor="middle" x="1257" y="-115.724" font-family="Helvetica,sans-Serif" font-size="10.00">protected_main</text>
</a>
</g>
</g>
<!-- Node7&#45;&gt;Node8 -->
<g id="edge7" class="edge"><title>Node7&#45;&gt;Node8</title>
<path fill="none" stroke="midnightblue" d="M1185.14,-100.82C1195.69,-103.411 1206.92,-106.169 1217.25,-108.707"/>
<polygon fill="midnightblue" stroke="midnightblue" points="1185.83,-97.3844 1175.28,-98.398 1184.16,-104.182 1185.83,-97.3844"/>
</g>
<!-- Node9 -->
<g id="node9" class="node"><title>Node9</title>
<g id="a_node9"><a xlink:href="main_8cxx.html#a3c04138a5bfe5d72780bb7e82a18e627" target="_top" xlink:title="main">
<polygon fill="none" stroke="black" points="1339,-108.724 1339,-127.724 1380,-127.724 1380,-108.724 1339,-108.724"/>
<text text-anchor="middle" x="1359.5" y="-115.724" font-family="Helvetica,sans-Serif" font-size="10.00">main</text>
</a>
</g>
</g>
<!-- Node8&#45;&gt;Node9 -->
<g id="edge8" class="edge"><title>Node8&#45;&gt;Node9</title>
<path fill="none" stroke="midnightblue" d="M1313.54,-118.224C1322.62,-118.224 1331.47,-118.224 1338.88,-118.224"/>
<polygon fill="midnightblue" stroke="midnightblue" points="1313.25,-114.724 1303.25,-118.224 1313.25,-121.724 1313.25,-114.724"/>
</g>
<!-- Node10&#45;&gt;Node8 -->
<g id="edge11" class="edge"><title>Node10&#45;&gt;Node8</title>
<path fill="none" stroke="midnightblue" d="M857.575,-143.397C950.963,-137.496 1127.97,-126.313 1210.95,-121.07"/>
<polygon fill="midnightblue" stroke="midnightblue" points="857.193,-139.914 847.434,-144.038 857.635,-146.9 857.193,-139.914"/>
</g>
<!-- Node12 -->
<g id="node12" class="node"><title>Node12</title>
<g id="a_node12"><a xlink:href="classEngine.html#a83b7dbeee899b36a13d5b07c7ad87ebc" target="_top" xlink:title="Loads a saved game Loads a saved Game. ">
<polygon fill="none" stroke="black" points="426,-80.724 426,-99.724 530,-99.724 530,-80.724 426,-80.724"/>
<text text-anchor="middle" x="478" y="-87.724" font-family="Helvetica,sans-Serif" font-size="10.00">Engine::loadGame</text>
</a>
</g>
</g>
<!-- Node11&#45;&gt;Node12 -->
<g id="edge14" class="edge"><title>Node11&#45;&gt;Node12</title>
<path fill="none" stroke="midnightblue" d="M400.478,-87.6212C408.938,-87.909 417.452,-88.1986 425.57,-88.4747"/>
<polygon fill="midnightblue" stroke="midnightblue" points="400.328,-84.1142 390.215,-87.2721 400.09,-91.1101 400.328,-84.1142"/>
</g>
<!-- Node12&#45;&gt;Node5 -->
<g id="edge20" class="edge"><title>Node12&#45;&gt;Node5</title>
<path fill="none" stroke="midnightblue" d="M540.346,-86.5354C588.267,-83.6541 655.45,-79.6146 708.779,-76.4082"/>
<polygon fill="midnightblue" stroke="midnightblue" points="539.894,-83.0562 530.122,-87.1502 540.314,-90.0436 539.894,-83.0562"/>
</g>
<!-- Node12&#45;&gt;Node10 -->
<g id="edge21" class="edge"><title>Node12&#45;&gt;Node10</title>
<path fill="none" stroke="midnightblue" d="M493.419,-107.489C509.172,-124.875 536.171,-150.597 566,-161.224 633.163,-185.151 718.362,-168.773 763.539,-156.756"/>
<polygon fill="midnightblue" stroke="midnightblue" points="495.845,-104.947 486.626,-99.7272 490.578,-109.557 495.845,-104.947"/>
</g>
<!-- Node13 -->
<g id="node13" class="node"><title>Node13</title>
<g id="a_node13"><a xlink:href="classEngine.html#a0ba57971ffb5173ecc425461f65a4cd8" target="_top" xlink:title="Quits the game Sets m_running to false and quitting the game. ">
<polygon fill="none" stroke="black" points="568.5,-99.724 568.5,-118.724 670.5,-118.724 670.5,-99.724 568.5,-99.724"/>
<text text-anchor="middle" x="619.5" y="-106.724" font-family="Helvetica,sans-Serif" font-size="10.00">Engine::quitGame</text>
</a>
</g>
</g>
<!-- Node12&#45;&gt;Node13 -->
<g id="edge15" class="edge"><title>Node12&#45;&gt;Node13</title>
<path fill="none" stroke="midnightblue" d="M540.214,-98.5614C549.593,-99.8388 559.181,-101.145 568.285,-102.385"/>
<polygon fill="midnightblue" stroke="midnightblue" points="540.533,-95.0726 530.153,-97.191 539.589,-102.009 540.533,-95.0726"/>
</g>
<!-- Node13&#45;&gt;Node5 -->
<g id="edge18" class="edge"><title>Node13&#45;&gt;Node5</title>
<path fill="none" stroke="midnightblue" d="M674.469,-97.4714C699.143,-92.0982 727.995,-85.8154 751.283,-80.744"/>
<polygon fill="midnightblue" stroke="midnightblue" points="673.56,-94.0873 664.534,-99.635 675.049,-100.927 673.56,-94.0873"/>
</g>
<!-- Node13&#45;&gt;Node10 -->
<g id="edge19" class="edge"><title>Node13&#45;&gt;Node10</title>
<path fill="none" stroke="midnightblue" d="M674.469,-120.977C699.143,-126.35 727.995,-132.633 751.283,-137.704"/>
<polygon fill="midnightblue" stroke="midnightblue" points="675.049,-117.521 664.534,-118.813 673.56,-124.361 675.049,-117.521"/>
</g>
<!-- Node14 -->
<g id="node14" class="node"><title>Node14</title>
<g id="a_node14"><a xlink:href="classEventManager.html#a65ec91fd5016d4f9c4167fb8babed2df" target="_top" xlink:title="EventManager::checkEvents">
<polygon fill="none" stroke="black" points="919,-99.724 919,-118.724 1071,-118.724 1071,-99.724 919,-99.724"/>
<text text-anchor="middle" x="995" y="-106.724" font-family="Helvetica,sans-Serif" font-size="10.00">EventManager::checkEvents</text>
</a>
</g>
</g>
<!-- Node13&#45;&gt;Node14 -->
<g id="edge16" class="edge"><title>Node13&#45;&gt;Node14</title>
<path fill="none" stroke="midnightblue" d="M680.945,-109.224C745.822,-109.224 848.973,-109.224 918.987,-109.224"/>
<polygon fill="midnightblue" stroke="midnightblue" points="680.872,-105.724 670.872,-109.224 680.872,-112.724 680.872,-105.724"/>
</g>
<!-- Node14&#45;&gt;Node7 -->
<g id="edge17" class="edge"><title>Node14&#45;&gt;Node7</title>
<path fill="none" stroke="midnightblue" d="M1078.47,-98.342C1088.46,-97.0239 1098.18,-95.742 1106.83,-94.6009"/>
<polygon fill="midnightblue" stroke="midnightblue" points="1077.88,-94.8902 1068.42,-99.6683 1078.79,-101.83 1077.88,-94.8902"/>
</g>
</g>
</svg>
        <g id="navigator" transform="translate(0 0)" fill="#404254">
                <rect fill="#f2f5e9" fill-opacity="0.5" stroke="#606060" stroke-width=".5" x="0" y="0" width="60" height="60"/>
                <use id="zoomplus" xlink:href="#zoomPlus" x="17" y="9" onmousedown="handleZoom(evt,'in')"/>
                <use id="zoomminus" xlink:href="#zoomMin" x="42" y="9" onmousedown="handleZoom(evt,'out')"/>
                <use id="reset" xlink:href="#resetDef" x="30" y="36" onmousedown="handleReset()"/>
                <g id="arrowUp" xlink:href="#dirArrow" transform="translate(30 24)" onmousedown="handlePan(0,-1)">
                  <use xlink:href="#rim" fill="#404040">
                        <set attributeName="fill" to="#808080" begin="arrowUp.mouseover" end="arrowUp.mouseout"/>
                  </use>
                  <path fill="none" stroke="white" stroke-width="1.5" d="M0,-3.0v7 M-2.5,-0.5L0,-3.0L2.5,-0.5"/>
                </g>
                <g id="arrowRight" xlink:href="#dirArrow" transform="rotate(90) translate(36 -43)" onmousedown="handlePan(1,0)">
                  <use xlink:href="#rim" fill="#404040">
                        <set attributeName="fill" to="#808080" begin="arrowRight.mouseover" end="arrowRight.mouseout"/>
                  </use>
                  <path fill="none" stroke="white" stroke-width="1.5" d="M0,-3.0v7 M-2.5,-0.5L0,-3.0L2.5,-0.5"/>
                </g>
                <g id="arrowDown" xlink:href="#dirArrow" transform="rotate(180) translate(-30 -48)" onmousedown="handlePan(0,1)">
                  <use xlink:href="#rim" fill="#404040">
                        <set attributeName="fill" to="#808080" begin="arrowDown.mouseover" end="arrowDown.mouseout"/>
                  </use>
                  <path fill="none" stroke="white" stroke-width="1.5" d="M0,-3.0v7 M-2.5,-0.5L0,-3.0L2.5,-0.5"/>
                </g>
                <g id="arrowLeft" xlink:href="#dirArrow" transform="rotate(270) translate(-36 17)" onmousedown="handlePan(-1,0)">
                  <use xlink:href="#rim" fill="#404040">
                        <set attributeName="fill" to="#808080" begin="arrowLeft.mouseover" end="arrowLeft.mouseout"/>
                  </use>
                  <path fill="none" stroke="white" stroke-width="1.5" d="M0,-3.0v7 M-2.5,-0.5L0,-3.0L2.5,-0.5"/>
                </g>
        </g>
        <svg viewBox="0 0 15 15" width="100%" height="30px" preserveAspectRatio="xMaxYMin meet">
         <g id="arrow_out" transform="scale(0.3 0.3)">
          <a xlink:href="classMap_a481b37ba71ef0e51e836fc42805762dd_icgraph_org.svg" target="_base">
           <rect id="button" ry="5" rx="5" y="6" x="6" height="38" width="38"
                fill="#f2f5e9" fill-opacity="0.5" stroke="#606060" stroke-width="1.0"/>
           <path id="arrow"
             d="M 11.500037,31.436501 C 11.940474,20.09759 22.043105,11.32322 32.158766,21.979434 L 37.068811,17.246167 C 37.068811,17.246167 37.088388,32 37.088388,32 L 22.160133,31.978069 C 22.160133,31.978069 26.997745,27.140456 26.997745,27.140456 C 18.528582,18.264221 13.291696,25.230495 11.500037,31.436501 z"
             style="fill:#404040;"/>
          </a>
         </g>
        </svg>
</svg>
