<?xml version="1.0" encoding="UTF-8" standalone="no"?>
<!DOCTYPE svg PUBLIC "-//W3C//DTD SVG 1.1//EN"
 "http://www.w3.org/Graphics/SVG/1.1/DTD/svg11.dtd">
<!-- Generated by graphviz version 2.38.0 (20140413.2041)
 -->
<!-- Title: MapNode::updateTexture Pages: 1 -->
<svg width="331pt" height="137pt"
 viewBox="0.00 0.00 331.00 137.00" xmlns="http://www.w3.org/2000/svg" xmlns:xlink="http://www.w3.org/1999/xlink">
<g id="graph0" class="graph" transform="scale(1 1) rotate(0) translate(4 133)">
<title>MapNode::updateTexture</title>
<!-- Node1 -->
<g id="node1" class="node"><title>Node1</title>
<polygon fill="#bfbfbf" stroke="black" points="0,-55 0,-74 137,-74 137,-55 0,-55"/>
<text text-anchor="middle" x="68.5" y="-62" font-family="Helvetica,sans-Serif" font-size="10.00">MapNode::updateTexture</text>
</g>
<!-- Node2 -->
<g id="node2" class="node"><title>Node2</title>
<g id="a_node2"><a xlink:href="classSingleton.html#af5cb1e5749949e2b68416cfb8d378044" target="_top" xlink:title="Get an instance of the singleton. ">
<polygon fill="none" stroke="black" points="182.5,-98.5 182.5,-128.5 313.5,-128.5 313.5,-98.5 182.5,-98.5"/>
<text text-anchor="start" x="190.5" y="-116.5" font-family="Helvetica,sans-Serif" font-size="10.00">Singleton&lt; TileManager</text>
<text text-anchor="middle" x="248" y="-105.5" font-family="Helvetica,sans-Serif" font-size="10.00"> &gt;::instance</text>
</a>
</g>
</g>
<!-- Node1&#45;&gt;Node2 -->
<g id="edge1" class="edge"><title>Node1&#45;&gt;Node2</title>
<path fill="none" stroke="midnightblue" d="M104.145,-74.064C126.421,-80.2134 156.05,-88.3928 182.549,-95.7078"/>
<polygon fill="midnightblue" stroke="midnightblue" points="181.959,-99.1757 192.529,-98.463 183.821,-92.4281 181.959,-99.1757"/>
</g>
<!-- Node3 -->
<g id="node3" class="node"><title>Node3</title>
<g id="a_node3"><a xlink:href="classTileManager.html#a519b2d5c91877025a2faa0dff3ba099c" target="_top" xlink:title="TileManager::calculateSlope\lOrientation">
<polygon fill="none" stroke="black" points="173,-49.5 173,-79.5 323,-79.5 323,-49.5 173,-49.5"/>
<text text-anchor="start" x="181" y="-67.5" font-family="Helvetica,sans-Serif" font-size="10.00">TileManager::calculateSlope</text>
<text text-anchor="middle" x="248" y="-56.5" font-family="Helvetica,sans-Serif" font-size="10.00">Orientation</text>
</a>
</g>
</g>
<!-- Node1&#45;&gt;Node3 -->
<g id="edge2" class="edge"><title>Node1&#45;&gt;Node3</title>
<path fill="none" stroke="midnightblue" d="M137.111,-64.5C145.491,-64.5 154.138,-64.5 162.728,-64.5"/>
<polygon fill="midnightblue" stroke="midnightblue" points="162.768,-68.0001 172.768,-64.5 162.768,-61.0001 162.768,-68.0001"/>
</g>
<!-- Node4 -->
<g id="node4" class="node"><title>Node4</title>
<g id="a_node4"><a xlink:href="classTileManager.html#ae1ac0c18d79cc2e1de86416d07d1591b" target="_top" xlink:title="TileManager::calculateTile\lOrientation">
<polygon fill="none" stroke="black" points="178.5,-0.5 178.5,-30.5 317.5,-30.5 317.5,-0.5 178.5,-0.5"/>
<text text-anchor="start" x="186.5" y="-18.5" font-family="Helvetica,sans-Serif" font-size="10.00">TileManager::calculateTile</text>
<text text-anchor="middle" x="248" y="-7.5" font-family="Helvetica,sans-Serif" font-size="10.00">Orientation</text>
</a>
</g>
</g>
<!-- Node1&#45;&gt;Node4 -->
<g id="edge3" class="edge"><title>Node1&#45;&gt;Node4</title>
<path fill="none" stroke="midnightblue" d="M104.145,-54.936C126.421,-48.7866 156.05,-40.6072 182.549,-33.2922"/>
<polygon fill="midnightblue" stroke="midnightblue" points="183.821,-36.5719 192.529,-30.537 181.959,-29.8243 183.821,-36.5719"/>
</g>
</g>
</svg>
