<?xml version="1.0" encoding="UTF-8" standalone="no"?>
<!DOCTYPE svg PUBLIC "-//W3C//DTD SVG 1.1//EN"
 "http://www.w3.org/Graphics/SVG/1.1/DTD/svg11.dtd">
<!-- Generated by graphviz version 2.38.0 (20140413.2041)
 -->
<!-- Title: Tooltip::Tooltip Pages: 1 -->
<svg width="454pt" height="180pt"
 viewBox="0.00 0.00 454.00 180.00" xmlns="http://www.w3.org/2000/svg" xmlns:xlink="http://www.w3.org/1999/xlink">
<g id="graph0" class="graph" transform="scale(1 1) rotate(0) translate(4 176)">
<title>Tooltip::Tooltip</title>
<!-- Node1 -->
<g id="node1" class="node"><title>Node1</title>
<polygon fill="#bfbfbf" stroke="black" points="0,-76.5 0,-95.5 83,-95.5 83,-76.5 0,-76.5"/>
<text text-anchor="middle" x="41.5" y="-83.5" font-family="Helvetica,sans-Serif" font-size="10.00">Tooltip::Tooltip</text>
</g>
<!-- Node2 -->
<g id="node2" class="node"><title>Node2</title>
<g id="a_node2"><a xlink:href="classTimer.html#a0b231ea71c5b402295888cb75dc03af7" target="_top" xlink:title="Register callback function for this timer Register one or more callback functions that should be exec...">
<polygon fill="none" stroke="black" points="119,-152.5 119,-171.5 285,-171.5 285,-152.5 119,-152.5"/>
<text text-anchor="middle" x="202" y="-159.5" font-family="Helvetica,sans-Serif" font-size="10.00">Timer::registerCallbackFunction</text>
</a>
</g>
</g>
<!-- Node1&#45;&gt;Node2 -->
<g id="edge1" class="edge"><title>Node1&#45;&gt;Node2</title>
<path fill="none" stroke="midnightblue" d="M52.4947,-95.6289C66.3122,-108.397 92.5526,-130.742 119,-143 124.351,-145.48 130.053,-147.651 135.862,-149.547"/>
<polygon fill="midnightblue" stroke="midnightblue" points="135.113,-152.976 145.697,-152.487 137.118,-146.27 135.113,-152.976"/>
</g>
<!-- Node3 -->
<g id="node3" class="node"><title>Node3</title>
<g id="a_node3"><a xlink:href="namespaceSignal.html#a6e0df6c5db8c544e147a57b4d89171ca" target="_top" xlink:title="This function creates a std::function by binding object to the member function pointer method...">
<polygon fill="none" stroke="black" points="167.5,-114.5 167.5,-133.5 236.5,-133.5 236.5,-114.5 167.5,-114.5"/>
<text text-anchor="middle" x="202" y="-121.5" font-family="Helvetica,sans-Serif" font-size="10.00">Signal::slot</text>
</a>
</g>
</g>
<!-- Node1&#45;&gt;Node3 -->
<g id="edge2" class="edge"><title>Node1&#45;&gt;Node3</title>
<path fill="none" stroke="midnightblue" d="M80.6048,-95.5893C92.8548,-98.6385 106.492,-101.998 119,-105 131.433,-107.984 144.947,-111.148 157.35,-114.02"/>
<polygon fill="midnightblue" stroke="midnightblue" points="156.928,-117.515 167.459,-116.354 158.503,-110.694 156.928,-117.515"/>
</g>
<!-- Node4 -->
<g id="node4" class="node"><title>Node4</title>
<g id="a_node4"><a xlink:href="classTooltip.html#ab7c16dc309b2b97523e842c57b0534eb" target="_top" xlink:title="makes the Tooltip visible makes the Tooltip visible ">
<polygon fill="none" stroke="black" points="148.5,-76.5 148.5,-95.5 255.5,-95.5 255.5,-76.5 148.5,-76.5"/>
<text text-anchor="middle" x="202" y="-83.5" font-family="Helvetica,sans-Serif" font-size="10.00">Tooltip::showTooltip</text>
</a>
</g>
</g>
<!-- Node1&#45;&gt;Node4 -->
<g id="edge3" class="edge"><title>Node1&#45;&gt;Node4</title>
<path fill="none" stroke="midnightblue" d="M83.3177,-86C100.034,-86 119.761,-86 138.237,-86"/>
<polygon fill="midnightblue" stroke="midnightblue" points="138.346,-89.5001 148.346,-86 138.346,-82.5001 138.346,-89.5001"/>
</g>
<!-- Node5 -->
<g id="node5" class="node"><title>Node5</title>
<g id="a_node5"><a xlink:href="classUIElement.html#a440d645aa10dbf7d3c763ba6e1fc33a6" target="_top" xlink:title="Sets the UI Elements visibility. Set the UI Elements visibility. ">
<polygon fill="none" stroke="black" points="321,-57.5 321,-76.5 446,-76.5 446,-57.5 321,-57.5"/>
<text text-anchor="middle" x="383.5" y="-64.5" font-family="Helvetica,sans-Serif" font-size="10.00">UIElement::setVisibility</text>
</a>
</g>
</g>
<!-- Node1&#45;&gt;Node5 -->
<g id="edge6" class="edge"><title>Node1&#45;&gt;Node5</title>
<path fill="none" stroke="midnightblue" d="M73.4436,-76.4945C87.2422,-72.7303 103.786,-68.861 119,-67 183.521,-59.1074 257.596,-59.9764 310.742,-62.3122"/>
<polygon fill="midnightblue" stroke="midnightblue" points="310.596,-65.8091 320.749,-62.7802 310.923,-58.8168 310.596,-65.8091"/>
</g>
<!-- Node6 -->
<g id="node6" class="node"><title>Node6</title>
<g id="a_node6"><a xlink:href="classTimer.html#a880967eacd324ee909029754c53b17ba" target="_top" xlink:title="Sets a timer Sets a timer. When a timer is set, a signal is emitted and the registered callback funct...">
<polygon fill="none" stroke="black" points="156,-0.5 156,-19.5 248,-19.5 248,-0.5 156,-0.5"/>
<text text-anchor="middle" x="202" y="-7.5" font-family="Helvetica,sans-Serif" font-size="10.00">Timer::setTimer</text>
</a>
</g>
</g>
<!-- Node1&#45;&gt;Node6 -->
<g id="edge5" class="edge"><title>Node1&#45;&gt;Node6</title>
<path fill="none" stroke="midnightblue" d="M53.9868,-76.4843C68.3749,-64.9831 94.1648,-45.7182 119,-34 128.556,-29.4911 139.143,-25.6332 149.448,-22.4131"/>
<polygon fill="midnightblue" stroke="midnightblue" points="150.606,-25.7203 159.197,-19.5208 148.615,-19.0094 150.606,-25.7203"/>
</g>
<!-- Node4&#45;&gt;Node5 -->
<g id="edge4" class="edge"><title>Node4&#45;&gt;Node5</title>
<path fill="none" stroke="midnightblue" d="M255.885,-80.4021C273.074,-78.5826 292.447,-76.532 310.775,-74.5921"/>
<polygon fill="midnightblue" stroke="midnightblue" points="311.252,-78.0612 320.828,-73.5279 310.515,-71.1001 311.252,-78.0612"/>
</g>
</g>
</svg>
