<?xml version="1.0" encoding="UTF-8" standalone="no"?>
<!DOCTYPE svg PUBLIC "-//W3C//DTD SVG 1.1//EN"
 "http://www.w3.org/Graphics/SVG/1.1/DTD/svg11.dtd">
<!-- Generated by graphviz version 2.38.0 (20140413.2041)
 -->
<!-- Title: TileManager::TileManager Pages: 1 -->
<!--zoomable 143 -->
<svg id="main" version="1.1" xmlns="http://www.w3.org/2000/svg" xmlns:xlink="http://www.w3.org/1999/xlink" xml:space="preserve" onload="init(evt)">
<style type="text/css"><![CDATA[
.edge:hover path { stroke: red; }
.edge:hover polygon { stroke: red; fill: red; }
]]></style>
<script type="text/javascript"><![CDATA[
var edges = document.getElementsByTagName('g');
if (edges && edges.length) {
  for (var i=0;i<edges.length;i++) {
    if (edges[i].id.substr(0,4)=='edge') {
      edges[i].setAttribute('class','edge');
    }
  }
}
]]></script>
        <defs>
                <circle id="rim" cx="0" cy="0" r="7"/>
                <circle id="rim2" cx="0" cy="0" r="3.5"/>
                <g id="zoomPlus">
                        <use xlink:href="#rim" fill="#404040">
                                <set attributeName="fill" to="#808080" begin="zoomplus.mouseover" end="zoomplus.mouseout"/>
                        </use>
                        <path d="M-4,0h8M0,-4v8" fill="none" stroke="white" stroke-width="1.5" pointer-events="none"/>
                </g>
                <g id="zoomMin">
                        <use xlink:href="#rim" fill="#404040">
                                <set attributeName="fill" to="#808080" begin="zoomminus.mouseover" end="zoomminus.mouseout"/>
                        </use>
                        <path d="M-4,0h8" fill="none" stroke="white" stroke-width="1.5" pointer-events="none"/>
                </g>
                <g id="dirArrow">
                        <path fill="none" stroke="white" stroke-width="1.5" d="M0,-3.0v7 M-2.5,-0.5L0,-3.0L2.5,-0.5"/>
                </g>
               <g id="resetDef">
                       <use xlink:href="#rim2" fill="#404040">
                               <set attributeName="fill" to="#808080" begin="reset.mouseover" end="reset.mouseout"/>
                       </use>
               </g>
        </defs>

<script type="text/javascript">
var viewWidth = 999;
var viewHeight = 143;
var sectionId = 'dynsection-2';
</script>
<script xlink:href="svgpan.js"/>
<svg id="graph" class="graph">
<g id="viewport">
<title>TileManager::TileManager</title>
<!-- Node1 -->
<g id="node1" class="node"><title>Node1</title>
<polygon fill="#bfbfbf" stroke="black" points="0,-115 0,-134 138,-134 138,-115 0,-115"/>
<text text-anchor="middle" x="69" y="-122" font-family="Helvetica,sans-Serif" font-size="10.00">TileManager::TileManager</text>
</g>
<!-- Node2 -->
<g id="node2" class="node"><title>Node2</title>
<g id="a_node2"><a xlink:href="classTileManager.html#a1575d9a9530e13fe0286b8fece9e47ea" target="_top" xlink:title="TileManager::init">
<polygon fill="none" stroke="black" points="174,-115 174,-134 269,-134 269,-115 174,-115"/>
<text text-anchor="middle" x="221.5" y="-122" font-family="Helvetica,sans-Serif" font-size="10.00">TileManager::init</text>
</a>
</g>
</g>
<!-- Node1&#45;&gt;Node2 -->
<g id="edge1" class="edge"><title>Node1&#45;&gt;Node2</title>
<path fill="none" stroke="midnightblue" d="M138.204,-124.5C146.626,-124.5 155.166,-124.5 163.398,-124.5"/>
<polygon fill="midnightblue" stroke="midnightblue" points="163.629,-128 173.629,-124.5 163.629,-121 163.629,-128"/>
</g>
<!-- Node3 -->
<g id="node3" class="node"><title>Node3</title>
<g id="a_node3"><a xlink:href="classSingleton.html#af5cb1e5749949e2b68416cfb8d378044" target="_top" xlink:title="Get an instance of the singleton. ">
<polygon fill="none" stroke="black" points="878,-93.5 878,-123.5 991,-123.5 991,-93.5 878,-93.5"/>
<text text-anchor="start" x="886" y="-111.5" font-family="Helvetica,sans-Serif" font-size="10.00">Singleton&lt; Settings</text>
<text text-anchor="middle" x="934.5" y="-100.5" font-family="Helvetica,sans-Serif" font-size="10.00"> &gt;::instance</text>
</a>
</g>
</g>
<!-- Node2&#45;&gt;Node3 -->
<g id="edge2" class="edge"><title>Node2&#45;&gt;Node3</title>
<path fill="none" stroke="midnightblue" d="M269.215,-126.357C372.61,-129.994 628.558,-136.391 842,-120.5 850.383,-119.876 859.173,-119.003 867.852,-118.011"/>
<polygon fill="midnightblue" stroke="midnightblue" points="868.446,-121.465 877.957,-116.798 867.612,-114.515 868.446,-121.465"/>
</g>
<!-- Node4 -->
<g id="node4" class="node"><title>Node4</title>
<g id="a_node4"><a xlink:href="classTileManager.html#a7fadfb60a38e76b474996c59672812cf" target="_top" xlink:title="TileManager::addJSONObject\lToTileData">
<polygon fill="none" stroke="black" points="305,-87.5 305,-117.5 458,-117.5 458,-87.5 305,-87.5"/>
<text text-anchor="start" x="313" y="-105.5" font-family="Helvetica,sans-Serif" font-size="10.00">TileManager::addJSONObject</text>
<text text-anchor="middle" x="381.5" y="-94.5" font-family="Helvetica,sans-Serif" font-size="10.00">ToTileData</text>
</a>
</g>
</g>
<!-- Node2&#45;&gt;Node4 -->
<g id="edge3" class="edge"><title>Node2&#45;&gt;Node4</title>
<path fill="none" stroke="midnightblue" d="M269.051,-118.018C277.252,-116.876 286.017,-115.656 294.895,-114.42"/>
<polygon fill="midnightblue" stroke="midnightblue" points="295.52,-117.867 304.942,-113.021 294.555,-110.933 295.52,-117.867"/>
</g>
<!-- Node4&#45;&gt;Node3 -->
<g id="edge4" class="edge"><title>Node4&#45;&gt;Node3</title>
<path fill="none" stroke="midnightblue" d="M458.247,-103.325C566.76,-104.506 764.68,-106.662 867.514,-107.781"/>
<polygon fill="midnightblue" stroke="midnightblue" points="867.728,-111.284 877.765,-107.893 867.804,-104.284 867.728,-111.284"/>
</g>
<!-- Node5 -->
<g id="node5" class="node"><title>Node5</title>
<g id="a_node5"><a xlink:href="classResourcesManager.html#a0a56e6316b8145494b7d551c29c41d80" target="_top" xlink:title="ResourcesManager::loadTexture">
<polygon fill="none" stroke="black" points="494,-55 494,-74 662,-74 662,-55 494,-55"/>
<text text-anchor="middle" x="578" y="-62" font-family="Helvetica,sans-Serif" font-size="10.00">ResourcesManager::loadTexture</text>
</a>
</g>
</g>
<!-- Node4&#45;&gt;Node5 -->
<g id="edge5" class="edge"><title>Node4&#45;&gt;Node5</title>
<path fill="none" stroke="midnightblue" d="M458.256,-87.6994C478.237,-83.7955 499.494,-79.6426 518.417,-75.9456"/>
<polygon fill="midnightblue" stroke="midnightblue" points="519.229,-79.3532 528.372,-74.0005 517.887,-72.483 519.229,-79.3532"/>
</g>
<!-- Node6 -->
<g id="node6" class="node"><title>Node6</title>
<g id="a_node6"><a xlink:href="classResourcesManager.html#a54721d26f52c4887b735d2cdaf60b078" target="_top" xlink:title="ResourcesManager::create\lSurfaceFromFile">
<polygon fill="none" stroke="black" points="698,-49.5 698,-79.5 842,-79.5 842,-49.5 698,-49.5"/>
<text text-anchor="start" x="706" y="-67.5" font-family="Helvetica,sans-Serif" font-size="10.00">ResourcesManager::create</text>
<text text-anchor="middle" x="770" y="-56.5" font-family="Helvetica,sans-Serif" font-size="10.00">SurfaceFromFile</text>
</a>
</g>
</g>
<!-- Node5&#45;&gt;Node6 -->
<g id="edge6" class="edge"><title>Node5&#45;&gt;Node6</title>
<path fill="none" stroke="midnightblue" d="M662.06,-64.5C670.508,-64.5 679.084,-64.5 687.515,-64.5"/>
<polygon fill="midnightblue" stroke="midnightblue" points="687.709,-68.0001 697.709,-64.5 687.709,-61.0001 687.709,-68.0001"/>
</g>
<!-- Node7 -->
<g id="node7" class="node"><title>Node7</title>
<g id="a_node7"><a xlink:href="classResourcesManager.html#ad7712ca96233a151d8bc22cd2ba17d01" target="_top" xlink:title="ResourcesManager::create\lTextureFromSurface">
<polygon fill="none" stroke="black" points="698,-0.5 698,-30.5 842,-30.5 842,-0.5 698,-0.5"/>
<text text-anchor="start" x="706" y="-18.5" font-family="Helvetica,sans-Serif" font-size="10.00">ResourcesManager::create</text>
<text text-anchor="middle" x="770" y="-7.5" font-family="Helvetica,sans-Serif" font-size="10.00">TextureFromSurface</text>
</a>
</g>
</g>
<!-- Node5&#45;&gt;Node7 -->
<g id="edge7" class="edge"><title>Node5&#45;&gt;Node7</title>
<path fill="none" stroke="midnightblue" d="M616.085,-54.936C640.14,-48.7324 672.205,-40.4629 700.759,-33.099"/>
<polygon fill="midnightblue" stroke="midnightblue" points="701.884,-36.4234 710.693,-30.537 700.136,-29.6452 701.884,-36.4234"/>
</g>
<!-- Node7&#45;&gt;Node3 -->
<g id="edge8" class="edge"><title>Node7&#45;&gt;Node3</title>
<path fill="none" stroke="midnightblue" d="M822.251,-30.6162C829.037,-33.2524 835.787,-36.2178 842,-39.5 866.34,-52.3591 891.097,-71.4736 908.711,-86.3256"/>
<polygon fill="midnightblue" stroke="midnightblue" points="906.884,-89.3696 916.751,-93.228 911.444,-84.0585 906.884,-89.3696"/>
</g>
</g>
</svg>
        <g id="navigator" transform="translate(0 0)" fill="#404254">
                <rect fill="#f2f5e9" fill-opacity="0.5" stroke="#606060" stroke-width=".5" x="0" y="0" width="60" height="60"/>
                <use id="zoomplus" xlink:href="#zoomPlus" x="17" y="9" onmousedown="handleZoom(evt,'in')"/>
                <use id="zoomminus" xlink:href="#zoomMin" x="42" y="9" onmousedown="handleZoom(evt,'out')"/>
                <use id="reset" xlink:href="#resetDef" x="30" y="36" onmousedown="handleReset()"/>
                <g id="arrowUp" xlink:href="#dirArrow" transform="translate(30 24)" onmousedown="handlePan(0,-1)">
                  <use xlink:href="#rim" fill="#404040">
                        <set attributeName="fill" to="#808080" begin="arrowUp.mouseover" end="arrowUp.mouseout"/>
                  </use>
                  <path fill="none" stroke="white" stroke-width="1.5" d="M0,-3.0v7 M-2.5,-0.5L0,-3.0L2.5,-0.5"/>
                </g>
                <g id="arrowRight" xlink:href="#dirArrow" transform="rotate(90) translate(36 -43)" onmousedown="handlePan(1,0)">
                  <use xlink:href="#rim" fill="#404040">
                        <set attributeName="fill" to="#808080" begin="arrowRight.mouseover" end="arrowRight.mouseout"/>
                  </use>
                  <path fill="none" stroke="white" stroke-width="1.5" d="M0,-3.0v7 M-2.5,-0.5L0,-3.0L2.5,-0.5"/>
                </g>
                <g id="arrowDown" xlink:href="#dirArrow" transform="rotate(180) translate(-30 -48)" onmousedown="handlePan(0,1)">
                  <use xlink:href="#rim" fill="#404040">
                        <set attributeName="fill" to="#808080" begin="arrowDown.mouseover" end="arrowDown.mouseout"/>
                  </use>
                  <path fill="none" stroke="white" stroke-width="1.5" d="M0,-3.0v7 M-2.5,-0.5L0,-3.0L2.5,-0.5"/>
                </g>
                <g id="arrowLeft" xlink:href="#dirArrow" transform="rotate(270) translate(-36 17)" onmousedown="handlePan(-1,0)">
                  <use xlink:href="#rim" fill="#404040">
                        <set attributeName="fill" to="#808080" begin="arrowLeft.mouseover" end="arrowLeft.mouseout"/>
                  </use>
                  <path fill="none" stroke="white" stroke-width="1.5" d="M0,-3.0v7 M-2.5,-0.5L0,-3.0L2.5,-0.5"/>
                </g>
        </g>
        <svg viewBox="0 0 15 15" width="100%" height="30px" preserveAspectRatio="xMaxYMin meet">
         <g id="arrow_out" transform="scale(0.3 0.3)">
          <a xlink:href="classTileManager_ac6f5d9eb4db57f9ad597223658574394_cgraph_org.svg" target="_base">
           <rect id="button" ry="5" rx="5" y="6" x="6" height="38" width="38"
                fill="#f2f5e9" fill-opacity="0.5" stroke="#606060" stroke-width="1.0"/>
           <path id="arrow"
             d="M 11.500037,31.436501 C 11.940474,20.09759 22.043105,11.32322 32.158766,21.979434 L 37.068811,17.246167 C 37.068811,17.246167 37.088388,32 37.088388,32 L 22.160133,31.978069 C 22.160133,31.978069 26.997745,27.140456 26.997745,27.140456 C 18.528582,18.264221 13.291696,25.230495 11.500037,31.436501 z"
             style="fill:#404040;"/>
          </a>
         </g>
        </svg>
</svg>
