<?xml version="1.0" encoding="UTF-8" standalone="no"?>
<!DOCTYPE svg PUBLIC "-//W3C//DTD SVG 1.1//EN"
 "http://www.w3.org/Graphics/SVG/1.1/DTD/svg11.dtd">
<!-- Generated by graphviz version 2.38.0 (20140413.2041)
 -->
<!-- Title: MapLayers::~MapLayers Pages: 1 -->
<svg width="1383pt" height="256pt"
 viewBox="0.00 0.00 1383.00 256.00" xmlns="http://www.w3.org/2000/svg" xmlns:xlink="http://www.w3.org/1999/xlink">
<g id="graph0" class="graph" transform="scale(1 1) rotate(0) translate(4 252)">
<title>MapLayers::~MapLayers</title>
<!-- Node1 -->
<g id="node1" class="node"><title>Node1</title>
<polygon fill="#bfbfbf" stroke="black" points="0,-114.5 0,-133.5 134,-133.5 134,-114.5 0,-114.5"/>
<text text-anchor="middle" x="67" y="-121.5" font-family="Helvetica,sans-Serif" font-size="10.00">MapLayers::~MapLayers</text>
</g>
<!-- Node2 -->
<g id="node2" class="node"><title>Node2</title>
<g id="a_node2"><a xlink:href="classMapLayers.html#a1d810628821913c499b8348107b66891" target="_top" xlink:title="Check if given Layer is being drawn. ">
<polygon fill="none" stroke="black" points="170,-114.5 170,-133.5 307,-133.5 307,-114.5 170,-114.5"/>
<text text-anchor="middle" x="238.5" y="-121.5" font-family="Helvetica,sans-Serif" font-size="10.00">MapLayers::isLayerActive</text>
</a>
</g>
</g>
<!-- Node1&#45;&gt;Node2 -->
<g id="edge1" class="edge"><title>Node1&#45;&gt;Node2</title>
<path fill="none" stroke="midnightblue" d="M144.078,-124C152.714,-124 161.471,-124 169.986,-124"/>
<polygon fill="midnightblue" stroke="midnightblue" points="144.019,-120.5 134.018,-124 144.018,-127.5 144.019,-120.5"/>
</g>
<!-- Node3 -->
<g id="node3" class="node"><title>Node3</title>
<g id="a_node3"><a xlink:href="classMapNode.html#aeb5b24dd3643788a9d61035b8c3f0b5f" target="_top" xlink:title="MapNode::getActiveMapNodeData">
<polygon fill="none" stroke="black" points="343,-228.5 343,-247.5 525,-247.5 525,-228.5 343,-228.5"/>
<text text-anchor="middle" x="434" y="-235.5" font-family="Helvetica,sans-Serif" font-size="10.00">MapNode::getActiveMapNodeData</text>
</a>
</g>
</g>
<!-- Node2&#45;&gt;Node3 -->
<g id="edge2" class="edge"><title>Node2&#45;&gt;Node3</title>
<path fill="none" stroke="midnightblue" d="M253.243,-141.382C271.393,-163.081 305.475,-199.686 343,-219 350.525,-222.873 358.793,-225.957 367.172,-228.412"/>
<polygon fill="midnightblue" stroke="midnightblue" points="255.925,-139.132 246.886,-133.604 250.505,-143.562 255.925,-139.132"/>
</g>
<!-- Node4 -->
<g id="node4" class="node"><title>Node4</title>
<g id="a_node4"><a xlink:href="classMapNode.html#a604f1e438222bd6d77a6d59a7b39276a" target="_top" xlink:title="MapNode::demolishNode">
<polygon fill="none" stroke="black" points="365.5,-190.5 365.5,-209.5 502.5,-209.5 502.5,-190.5 365.5,-190.5"/>
<text text-anchor="middle" x="434" y="-197.5" font-family="Helvetica,sans-Serif" font-size="10.00">MapNode::demolishNode</text>
</a>
</g>
</g>
<!-- Node2&#45;&gt;Node4 -->
<g id="edge3" class="edge"><title>Node2&#45;&gt;Node4</title>
<path fill="none" stroke="midnightblue" d="M262.144,-139.043C282.509,-151.933 313.651,-170.096 343,-181 353.179,-184.782 364.301,-187.895 375.146,-190.428"/>
<polygon fill="midnightblue" stroke="midnightblue" points="263.893,-136.007 253.59,-133.536 260.104,-141.892 263.893,-136.007"/>
</g>
<!-- Node5 -->
<g id="node5" class="node"><title>Node5</title>
<g id="a_node5"><a xlink:href="classMap.html#a4481133402bbf2899f9062c1d4061bef" target="_top" xlink:title="Map::isClickWithinTile">
<polygon fill="none" stroke="black" points="376,-152.5 376,-171.5 492,-171.5 492,-152.5 376,-152.5"/>
<text text-anchor="middle" x="434" y="-159.5" font-family="Helvetica,sans-Serif" font-size="10.00">Map::isClickWithinTile</text>
</a>
</g>
</g>
<!-- Node2&#45;&gt;Node5 -->
<g id="edge4" class="edge"><title>Node2&#45;&gt;Node5</title>
<path fill="none" stroke="midnightblue" d="M298.253,-135.538C325.852,-140.958 358.355,-147.341 384.523,-152.48"/>
<polygon fill="midnightblue" stroke="midnightblue" points="298.815,-132.082 288.328,-133.589 297.466,-138.951 298.815,-132.082"/>
</g>
<!-- Node12 -->
<g id="node12" class="node"><title>Node12</title>
<g id="a_node12"><a xlink:href="classSprite.html#aff433fc35fa9259b5020858cc9749c7c" target="_top" xlink:title="Sprite::render">
<polygon fill="none" stroke="black" points="392.5,-114.5 392.5,-133.5 475.5,-133.5 475.5,-114.5 392.5,-114.5"/>
<text text-anchor="middle" x="434" y="-121.5" font-family="Helvetica,sans-Serif" font-size="10.00">Sprite::render</text>
</a>
</g>
</g>
<!-- Node2&#45;&gt;Node12 -->
<g id="edge11" class="edge"><title>Node2&#45;&gt;Node12</title>
<path fill="none" stroke="midnightblue" d="M317.311,-124C343.052,-124 370.655,-124 392.44,-124"/>
<polygon fill="midnightblue" stroke="midnightblue" points="317.177,-120.5 307.177,-124 317.177,-127.5 317.177,-120.5"/>
</g>
<!-- Node13 -->
<g id="node13" class="node"><title>Node13</title>
<g id="a_node13"><a xlink:href="classSprite.html#a87428873289f8ec84f4b75d9162c9d7c" target="_top" xlink:title="Sprite::getActiveClipRect">
<polygon fill="none" stroke="black" points="367,-76.5 367,-95.5 501,-95.5 501,-76.5 367,-76.5"/>
<text text-anchor="middle" x="434" y="-83.5" font-family="Helvetica,sans-Serif" font-size="10.00">Sprite::getActiveClipRect</text>
</a>
</g>
</g>
<!-- Node2&#45;&gt;Node13 -->
<g id="edge12" class="edge"><title>Node2&#45;&gt;Node13</title>
<path fill="none" stroke="midnightblue" d="M298.253,-112.462C325.852,-107.042 358.355,-100.659 384.523,-95.5201"/>
<polygon fill="midnightblue" stroke="midnightblue" points="297.466,-109.049 288.328,-114.411 298.815,-115.918 297.466,-109.049"/>
</g>
<!-- Node14 -->
<g id="node14" class="node"><title>Node14</title>
<g id="a_node14"><a xlink:href="classSprite.html#a7376c698bf914312fbcc7c2b8180cbed" target="_top" xlink:title="Sprite::isLayerUsed">
<polygon fill="none" stroke="black" points="379,-38.5 379,-57.5 489,-57.5 489,-38.5 379,-38.5"/>
<text text-anchor="middle" x="434" y="-45.5" font-family="Helvetica,sans-Serif" font-size="10.00">Sprite::isLayerUsed</text>
</a>
</g>
</g>
<!-- Node2&#45;&gt;Node14 -->
<g id="edge13" class="edge"><title>Node2&#45;&gt;Node14</title>
<path fill="none" stroke="midnightblue" d="M262.144,-108.957C282.509,-96.0666 313.651,-77.904 343,-67 354.377,-62.7731 366.931,-59.3814 378.96,-56.7015"/>
<polygon fill="midnightblue" stroke="midnightblue" points="260.104,-106.108 253.59,-114.464 263.893,-111.993 260.104,-106.108"/>
</g>
<!-- Node15 -->
<g id="node15" class="node"><title>Node15</title>
<g id="a_node15"><a xlink:href="classSprite.html#aedfac1c3b8a22c5ae4d97bd9586a6a26" target="_top" xlink:title="Sprite::getActiveDestRect">
<polygon fill="none" stroke="black" points="364.5,-0.5 364.5,-19.5 503.5,-19.5 503.5,-0.5 364.5,-0.5"/>
<text text-anchor="middle" x="434" y="-7.5" font-family="Helvetica,sans-Serif" font-size="10.00">Sprite::getActiveDestRect</text>
</a>
</g>
</g>
<!-- Node2&#45;&gt;Node15 -->
<g id="edge14" class="edge"><title>Node2&#45;&gt;Node15</title>
<path fill="none" stroke="midnightblue" d="M253.243,-106.618C271.393,-84.9192 305.475,-48.3135 343,-29 350.525,-25.1267 358.793,-22.0428 367.172,-19.5875"/>
<polygon fill="midnightblue" stroke="midnightblue" points="250.505,-104.438 246.886,-114.396 255.925,-108.868 250.505,-104.438"/>
</g>
<!-- Node6 -->
<g id="node6" class="node"><title>Node6</title>
<g id="a_node6"><a xlink:href="classMap.html#a4619fa631a0082754a92f1d3a8530bba" target="_top" xlink:title="Returns the node at given screencoordinates. ">
<polygon fill="none" stroke="black" points="561,-152.5 561,-171.5 675,-171.5 675,-152.5 561,-152.5"/>
<text text-anchor="middle" x="618" y="-159.5" font-family="Helvetica,sans-Serif" font-size="10.00">Map::findNodeInMap</text>
</a>
</g>
</g>
<!-- Node5&#45;&gt;Node6 -->
<g id="edge5" class="edge"><title>Node5&#45;&gt;Node6</title>
<path fill="none" stroke="midnightblue" d="M502.283,-162C521.507,-162 542.249,-162 560.74,-162"/>
<polygon fill="midnightblue" stroke="midnightblue" points="502.087,-158.5 492.087,-162 502.087,-165.5 502.087,-158.5"/>
</g>
<!-- Node7 -->
<g id="node7" class="node"><title>Node7</title>
<g id="a_node7"><a xlink:href="isoMath_8hxx.html#ad3c5f070c4a876bc6e8978635d02ce52" target="_top" xlink:title="converts screen space coordinates to isometric space coordinates. To convert screen coordinates in to...">
<polygon fill="none" stroke="black" points="711,-152.5 711,-171.5 878,-171.5 878,-152.5 711,-152.5"/>
<text text-anchor="middle" x="794.5" y="-159.5" font-family="Helvetica,sans-Serif" font-size="10.00">convertScreenToIsoCoordinates</text>
</a>
</g>
</g>
<!-- Node6&#45;&gt;Node7 -->
<g id="edge6" class="edge"><title>Node6&#45;&gt;Node7</title>
<path fill="none" stroke="midnightblue" d="M685.203,-162C693.556,-162 702.182,-162 710.749,-162"/>
<polygon fill="midnightblue" stroke="midnightblue" points="685.173,-158.5 675.173,-162 685.173,-165.5 685.173,-158.5"/>
</g>
<!-- Node8 -->
<g id="node8" class="node"><title>Node8</title>
<g id="a_node8"><a xlink:href="classEventManager.html#a65ec91fd5016d4f9c4167fb8babed2df" target="_top" xlink:title="EventManager::checkEvents">
<polygon fill="none" stroke="black" points="914,-152.5 914,-171.5 1066,-171.5 1066,-152.5 914,-152.5"/>
<text text-anchor="middle" x="990" y="-159.5" font-family="Helvetica,sans-Serif" font-size="10.00">EventManager::checkEvents</text>
</a>
</g>
</g>
<!-- Node7&#45;&gt;Node8 -->
<g id="edge7" class="edge"><title>Node7&#45;&gt;Node8</title>
<path fill="none" stroke="midnightblue" d="M888.142,-162C896.707,-162 905.315,-162 913.698,-162"/>
<polygon fill="midnightblue" stroke="midnightblue" points="888.123,-158.5 878.123,-162 888.123,-165.5 888.123,-158.5"/>
</g>
<!-- Node9 -->
<g id="node9" class="node"><title>Node9</title>
<g id="a_node9"><a xlink:href="classGame.html#a1c2ab25d5216b2f4b2fe41efd2c09114" target="_top" xlink:title="Game::run">
<polygon fill="none" stroke="black" points="1102,-152.5 1102,-171.5 1170,-171.5 1170,-152.5 1102,-152.5"/>
<text text-anchor="middle" x="1136" y="-159.5" font-family="Helvetica,sans-Serif" font-size="10.00">Game::run</text>
</a>
</g>
</g>
<!-- Node8&#45;&gt;Node9 -->
<g id="edge8" class="edge"><title>Node8&#45;&gt;Node9</title>
<path fill="none" stroke="midnightblue" d="M1076.47,-162C1085.34,-162 1093.92,-162 1101.66,-162"/>
<polygon fill="midnightblue" stroke="midnightblue" points="1076.37,-158.5 1066.37,-162 1076.37,-165.5 1076.37,-158.5"/>
</g>
<!-- Node10 -->
<g id="node10" class="node"><title>Node10</title>
<g id="a_node10"><a xlink:href="main_8cxx.html#af582d708d899e67ead623eac34a22387" target="_top" xlink:title="protected_main">
<polygon fill="none" stroke="black" points="1206,-152.5 1206,-171.5 1298,-171.5 1298,-152.5 1206,-152.5"/>
<text text-anchor="middle" x="1252" y="-159.5" font-family="Helvetica,sans-Serif" font-size="10.00">protected_main</text>
</a>
</g>
</g>
<!-- Node9&#45;&gt;Node10 -->
<g id="edge9" class="edge"><title>Node9&#45;&gt;Node10</title>
<path fill="none" stroke="midnightblue" d="M1180.44,-162C1188.67,-162 1197.31,-162 1205.6,-162"/>
<polygon fill="midnightblue" stroke="midnightblue" points="1180.28,-158.5 1170.28,-162 1180.28,-165.5 1180.28,-158.5"/>
</g>
<!-- Node11 -->
<g id="node11" class="node"><title>Node11</title>
<g id="a_node11"><a xlink:href="main_8cxx.html#a3c04138a5bfe5d72780bb7e82a18e627" target="_top" xlink:title="main">
<polygon fill="none" stroke="black" points="1334,-152.5 1334,-171.5 1375,-171.5 1375,-152.5 1334,-152.5"/>
<text text-anchor="middle" x="1354.5" y="-159.5" font-family="Helvetica,sans-Serif" font-size="10.00">main</text>
</a>
</g>
</g>
<!-- Node10&#45;&gt;Node11 -->
<g id="edge10" class="edge"><title>Node10&#45;&gt;Node11</title>
<path fill="none" stroke="midnightblue" d="M1308.54,-162C1317.62,-162 1326.47,-162 1333.88,-162"/>
<polygon fill="midnightblue" stroke="midnightblue" points="1308.25,-158.5 1298.25,-162 1308.25,-165.5 1308.25,-158.5"/>
</g>
</g>
</svg>
