<?xml version="1.0" encoding="UTF-8" standalone="no"?>
<!DOCTYPE svg PUBLIC "-//W3C//DTD SVG 1.1//EN"
 "http://www.w3.org/Graphics/SVG/1.1/DTD/svg11.dtd">
<!-- Generated by graphviz version 2.38.0 (20140413.2041)
 -->
<!-- Title: UIManager::getUiElementByID Pages: 1 -->
<!--zoomable 171 -->
<svg id="main" version="1.1" xmlns="http://www.w3.org/2000/svg" xmlns:xlink="http://www.w3.org/1999/xlink" xml:space="preserve" onload="init(evt)">
<style type="text/css"><![CDATA[
.edge:hover path { stroke: red; }
.edge:hover polygon { stroke: red; fill: red; }
]]></style>
<script type="text/javascript"><![CDATA[
var edges = document.getElementsByTagName('g');
if (edges && edges.length) {
  for (var i=0;i<edges.length;i++) {
    if (edges[i].id.substr(0,4)=='edge') {
      edges[i].setAttribute('class','edge');
    }
  }
}
]]></script>
        <defs>
                <circle id="rim" cx="0" cy="0" r="7"/>
                <circle id="rim2" cx="0" cy="0" r="3.5"/>
                <g id="zoomPlus">
                        <use xlink:href="#rim" fill="#404040">
                                <set attributeName="fill" to="#808080" begin="zoomplus.mouseover" end="zoomplus.mouseout"/>
                        </use>
                        <path d="M-4,0h8M0,-4v8" fill="none" stroke="white" stroke-width="1.5" pointer-events="none"/>
                </g>
                <g id="zoomMin">
                        <use xlink:href="#rim" fill="#404040">
                                <set attributeName="fill" to="#808080" begin="zoomminus.mouseover" end="zoomminus.mouseout"/>
                        </use>
                        <path d="M-4,0h8" fill="none" stroke="white" stroke-width="1.5" pointer-events="none"/>
                </g>
                <g id="dirArrow">
                        <path fill="none" stroke="white" stroke-width="1.5" d="M0,-3.0v7 M-2.5,-0.5L0,-3.0L2.5,-0.5"/>
                </g>
               <g id="resetDef">
                       <use xlink:href="#rim2" fill="#404040">
                               <set attributeName="fill" to="#808080" begin="reset.mouseover" end="reset.mouseout"/>
                       </use>
               </g>
        </defs>

<script type="text/javascript">
var viewWidth = 1404;
var viewHeight = 171;
var sectionId = 'dynsection-14';
</script>
<script xlink:href="svgpan.js"/>
<svg id="graph" class="graph">
<g id="viewport">
<title>UIManager::getUiElementByID</title>
<!-- Node1 -->
<g id="node1" class="node"><title>Node1</title>
<polygon fill="#bfbfbf" stroke="black" points="0,-22.6884 0,-41.6884 161,-41.6884 161,-22.6884 0,-22.6884"/>
<text text-anchor="middle" x="80.5" y="-29.6884" font-family="Helvetica,sans-Serif" font-size="10.00">UIManager::getUiElementByID</text>
</g>
<!-- Node2 -->
<g id="node2" class="node"><title>Node2</title>
<g id="a_node2"><a xlink:href="classLayout.html#ac2a5cc72ee1ff5d3ddf4861b3f28d58f" target="_top" xlink:title="Arrange Elements that are aligned to a parent This is a seperate function, so it can recurse if a par...">
<polygon fill="none" stroke="black" points="197,-51.6884 197,-70.6884 358,-70.6884 358,-51.6884 197,-51.6884"/>
<text text-anchor="middle" x="277.5" y="-58.6884" font-family="Helvetica,sans-Serif" font-size="10.00">Layout::arrangeChildElements</text>
</a>
</g>
</g>
<!-- Node1&#45;&gt;Node2 -->
<g id="edge1" class="edge"><title>Node1&#45;&gt;Node2</title>
<path fill="none" stroke="midnightblue" d="M155.565,-43.2032C174.261,-45.9835 194.178,-48.9457 212.341,-51.6468"/>
<polygon fill="midnightblue" stroke="midnightblue" points="156.026,-39.7334 145.62,-41.7242 154.997,-46.6572 156.026,-39.7334"/>
</g>
<!-- Node4 -->
<g id="node4" class="node"><title>Node4</title>
<g id="a_node4"><a xlink:href="classUIManager.html#aedd9d0577af515a852425dfe414b2968" target="_top" xlink:title="Parses the UiLayout.json files and creates UI Elements. ">
<polygon fill="none" stroke="black" points="998,-54.6884 998,-73.6884 1087,-73.6884 1087,-54.6884 998,-54.6884"/>
<text text-anchor="middle" x="1042.5" y="-61.6884" font-family="Helvetica,sans-Serif" font-size="10.00">UIManager::init</text>
</a>
</g>
</g>
<!-- Node1&#45;&gt;Node4 -->
<g id="edge16" class="edge"><title>Node1&#45;&gt;Node4</title>
<path fill="none" stroke="midnightblue" d="M171.204,-21.8407C248.119,-13.8647 361.947,-4.18838 461.5,-4.18838 461.5,-4.18838 461.5,-4.18838 660.5,-4.18838 794.766,-4.18838 832.582,12.5651 962,-23.1884 986.399,-29.929 1011.96,-44.7077 1027.31,-54.5558"/>
<polygon fill="midnightblue" stroke="midnightblue" points="170.652,-18.3793 161.072,-22.9037 171.383,-25.3411 170.652,-18.3793"/>
</g>
<!-- Node3 -->
<g id="node3" class="node"><title>Node3</title>
<g id="a_node3"><a xlink:href="classLayout.html#afa734c5af10f59f3dadb066054fe81ab" target="_top" xlink:title="Arrange the layout elements. ">
<polygon fill="none" stroke="black" points="394,-70.6884 394,-89.6884 531,-89.6884 531,-70.6884 394,-70.6884"/>
<text text-anchor="middle" x="462.5" y="-77.6884" font-family="Helvetica,sans-Serif" font-size="10.00">Layout::arrangeElements</text>
</a>
</g>
</g>
<!-- Node2&#45;&gt;Node3 -->
<g id="edge2" class="edge"><title>Node2&#45;&gt;Node3</title>
<path fill="none" stroke="midnightblue" d="M368.276,-70.5093C376.853,-71.3999 385.45,-72.2925 393.766,-73.1559"/>
<polygon fill="midnightblue" stroke="midnightblue" points="368.542,-67.0183 358.234,-69.4668 367.819,-73.9809 368.542,-67.0183"/>
</g>
<!-- Node3&#45;&gt;Node4 -->
<g id="edge3" class="edge"><title>Node3&#45;&gt;Node4</title>
<path fill="none" stroke="midnightblue" d="M484.317,-95.8125C504.315,-109.772 535.989,-129.214 567,-137.188 737.421,-181.013 795.314,-166.577 962,-110.188 987.377,-101.604 1013.68,-84.4758 1028.77,-73.7149"/>
<polygon fill="midnightblue" stroke="midnightblue" points="486.161,-92.8278 475.994,-89.8451 482.082,-98.5166 486.161,-92.8278"/>
</g>
<!-- Node8 -->
<g id="node8" class="node"><title>Node8</title>
<g id="a_node8"><a xlink:href="classUIManager.html#a3ccb2fc669262f18ebdcdf3d5c43a3e8" target="_top" xlink:title="CallbackFunction that sets the Build Menu Position Used as callback function for the ComboBox that ho...">
<polygon fill="none" stroke="black" points="571.5,-108.688 571.5,-127.688 747.5,-127.688 747.5,-108.688 571.5,-108.688"/>
<text text-anchor="middle" x="659.5" y="-115.688" font-family="Helvetica,sans-Serif" font-size="10.00">UIManager::setBuildMenuPosition</text>
</a>
</g>
</g>
<!-- Node3&#45;&gt;Node8 -->
<g id="edge7" class="edge"><title>Node3&#45;&gt;Node8</title>
<path fill="none" stroke="midnightblue" d="M522.459,-91.6778C550.282,-97.0997 583.096,-103.494 609.525,-108.644"/>
<polygon fill="midnightblue" stroke="midnightblue" points="522.94,-88.2058 512.455,-89.7283 521.601,-95.0765 522.94,-88.2058"/>
</g>
<!-- Node10 -->
<g id="node10" class="node"><title>Node10</title>
<g id="a_node10"><a xlink:href="classUIManager.html#ac927e1cd3dea979202ea9dbf1195b583" target="_top" xlink:title="UIManager::changeResolution">
<polygon fill="none" stroke="black" points="580.5,-32.6884 580.5,-51.6884 738.5,-51.6884 738.5,-32.6884 580.5,-32.6884"/>
<text text-anchor="middle" x="659.5" y="-39.6884" font-family="Helvetica,sans-Serif" font-size="10.00">UIManager::changeResolution</text>
</a>
</g>
</g>
<!-- Node3&#45;&gt;Node10 -->
<g id="edge10" class="edge"><title>Node3&#45;&gt;Node10</title>
<path fill="none" stroke="midnightblue" d="M522.459,-68.699C550.282,-63.277 583.096,-56.8825 609.525,-51.7323"/>
<polygon fill="midnightblue" stroke="midnightblue" points="521.601,-65.3002 512.455,-70.6484 522.94,-72.171 521.601,-65.3002"/>
</g>
<!-- Node12 -->
<g id="node12" class="node"><title>Node12</title>
<g id="a_node12"><a xlink:href="classUIManager.html#af2ffb4ee45e57152164643ef6cddda37" target="_top" xlink:title="UIManager::changeFullScreenMode">
<polygon fill="none" stroke="black" points="567,-70.6884 567,-89.6884 752,-89.6884 752,-70.6884 567,-70.6884"/>
<text text-anchor="middle" x="659.5" y="-77.6884" font-family="Helvetica,sans-Serif" font-size="10.00">UIManager::changeFullScreenMode</text>
</a>
</g>
</g>
<!-- Node3&#45;&gt;Node12 -->
<g id="edge14" class="edge"><title>Node3&#45;&gt;Node12</title>
<path fill="none" stroke="midnightblue" d="M541.308,-80.1884C549.729,-80.1884 558.355,-80.1884 566.921,-80.1884"/>
<polygon fill="midnightblue" stroke="midnightblue" points="541.154,-76.6885 531.154,-80.1884 541.154,-83.6885 541.154,-76.6885"/>
</g>
<!-- Node5 -->
<g id="node5" class="node"><title>Node5</title>
<g id="a_node5"><a xlink:href="classGame.html#a1c2ab25d5216b2f4b2fe41efd2c09114" target="_top" xlink:title="Game::run">
<polygon fill="none" stroke="black" points="1123,-54.6884 1123,-73.6884 1191,-73.6884 1191,-54.6884 1123,-54.6884"/>
<text text-anchor="middle" x="1157" y="-61.6884" font-family="Helvetica,sans-Serif" font-size="10.00">Game::run</text>
</a>
</g>
</g>
<!-- Node4&#45;&gt;Node5 -->
<g id="edge4" class="edge"><title>Node4&#45;&gt;Node5</title>
<path fill="none" stroke="midnightblue" d="M1097.45,-64.1884C1106.15,-64.1884 1114.92,-64.1884 1122.93,-64.1884"/>
<polygon fill="midnightblue" stroke="midnightblue" points="1097.32,-60.6885 1087.32,-64.1884 1097.32,-67.6885 1097.32,-60.6885"/>
</g>
<!-- Node6 -->
<g id="node6" class="node"><title>Node6</title>
<g id="a_node6"><a xlink:href="main_8cxx.html#af582d708d899e67ead623eac34a22387" target="_top" xlink:title="protected_main">
<polygon fill="none" stroke="black" points="1227,-54.6884 1227,-73.6884 1319,-73.6884 1319,-54.6884 1227,-54.6884"/>
<text text-anchor="middle" x="1273" y="-61.6884" font-family="Helvetica,sans-Serif" font-size="10.00">protected_main</text>
</a>
</g>
</g>
<!-- Node5&#45;&gt;Node6 -->
<g id="edge5" class="edge"><title>Node5&#45;&gt;Node6</title>
<path fill="none" stroke="midnightblue" d="M1201.44,-64.1884C1209.67,-64.1884 1218.31,-64.1884 1226.6,-64.1884"/>
<polygon fill="midnightblue" stroke="midnightblue" points="1201.28,-60.6885 1191.28,-64.1884 1201.28,-67.6885 1201.28,-60.6885"/>
</g>
<!-- Node7 -->
<g id="node7" class="node"><title>Node7</title>
<g id="a_node7"><a xlink:href="main_8cxx.html#a3c04138a5bfe5d72780bb7e82a18e627" target="_top" xlink:title="main">
<polygon fill="none" stroke="black" points="1355,-54.6884 1355,-73.6884 1396,-73.6884 1396,-54.6884 1355,-54.6884"/>
<text text-anchor="middle" x="1375.5" y="-61.6884" font-family="Helvetica,sans-Serif" font-size="10.00">main</text>
</a>
</g>
</g>
<!-- Node6&#45;&gt;Node7 -->
<g id="edge6" class="edge"><title>Node6&#45;&gt;Node7</title>
<path fill="none" stroke="midnightblue" d="M1329.54,-64.1884C1338.62,-64.1884 1347.47,-64.1884 1354.88,-64.1884"/>
<polygon fill="midnightblue" stroke="midnightblue" points="1329.25,-60.6885 1319.25,-64.1884 1329.25,-67.6885 1329.25,-60.6885"/>
</g>
<!-- Node9 -->
<g id="node9" class="node"><title>Node9</title>
<g id="a_node9"><a xlink:href="classUIManager.html#a5c4cb8e02504ffa0d3faf45181feab9d" target="_top" xlink:title="Fill UI Widgets whose ID start with a $ with data Used for filling widgets with data, like BuildMenu Position combobox, Screen Resolution ComboBox and so on. ">
<polygon fill="none" stroke="black" points="805,-71.1884 805,-101.188 945,-101.188 945,-71.1884 805,-71.1884"/>
<text text-anchor="start" x="813" y="-89.1884" font-family="Helvetica,sans-Serif" font-size="10.00">UIManager::initializeDollar</text>
<text text-anchor="middle" x="875" y="-78.1884" font-family="Helvetica,sans-Serif" font-size="10.00">Variables</text>
</a>
</g>
</g>
<!-- Node8&#45;&gt;Node9 -->
<g id="edge8" class="edge"><title>Node8&#45;&gt;Node9</title>
<path fill="none" stroke="midnightblue" d="M734,-107.172C756.944,-103.733 782.165,-99.9529 804.804,-96.5597"/>
<polygon fill="midnightblue" stroke="midnightblue" points="733.35,-103.73 723.979,-108.674 734.387,-110.653 733.35,-103.73"/>
</g>
<!-- Node9&#45;&gt;Node4 -->
<g id="edge9" class="edge"><title>Node9&#45;&gt;Node4</title>
<path fill="none" stroke="midnightblue" d="M955.26,-75.6523C969.817,-73.7173 984.517,-71.7631 997.556,-70.0298"/>
<polygon fill="midnightblue" stroke="midnightblue" points="954.68,-72.1986 945.228,-76.9859 955.602,-79.1376 954.68,-72.1986"/>
</g>
<!-- Node10&#45;&gt;Node9 -->
<g id="edge13" class="edge"><title>Node10&#45;&gt;Node9</title>
<path fill="none" stroke="midnightblue" d="M716.849,-53.8013C743.761,-59.3476 776.22,-66.037 804.634,-71.8929"/>
<polygon fill="midnightblue" stroke="midnightblue" points="717.327,-50.3263 706.826,-51.7357 715.914,-57.1822 717.327,-50.3263"/>
</g>
<!-- Node11 -->
<g id="node11" class="node"><title>Node11</title>
<g id="a_node11"><a xlink:href="classUIManager.html#aa78e356fc3b356d790c848319d1c387e" target="_top" xlink:title="UIManager::setCallbackFunctions">
<polygon fill="none" stroke="black" points="788,-32.6884 788,-51.6884 962,-51.6884 962,-32.6884 788,-32.6884"/>
<text text-anchor="middle" x="875" y="-39.6884" font-family="Helvetica,sans-Serif" font-size="10.00">UIManager::setCallbackFunctions</text>
</a>
</g>
</g>
<!-- Node10&#45;&gt;Node11 -->
<g id="edge11" class="edge"><title>Node10&#45;&gt;Node11</title>
<path fill="none" stroke="midnightblue" d="M748.986,-42.1884C761.819,-42.1884 775.014,-42.1884 787.801,-42.1884"/>
<polygon fill="midnightblue" stroke="midnightblue" points="748.787,-38.6885 738.787,-42.1884 748.787,-45.6885 748.787,-38.6885"/>
</g>
<!-- Node11&#45;&gt;Node4 -->
<g id="edge12" class="edge"><title>Node11&#45;&gt;Node4</title>
<path fill="none" stroke="midnightblue" d="M957.713,-53.0505C971.602,-54.8968 985.53,-56.7483 997.932,-58.3969"/>
<polygon fill="midnightblue" stroke="midnightblue" points="958.002,-49.5583 947.628,-51.7099 957.08,-56.4972 958.002,-49.5583"/>
</g>
<!-- Node12&#45;&gt;Node9 -->
<g id="edge15" class="edge"><title>Node12&#45;&gt;Node9</title>
<path fill="none" stroke="midnightblue" d="M762.662,-83.0594C776.963,-83.4614 791.375,-83.8664 804.867,-84.2455"/>
<polygon fill="midnightblue" stroke="midnightblue" points="762.377,-79.5501 752.282,-82.7677 762.18,-86.5474 762.377,-79.5501"/>
</g>
</g>
</svg>
        <g id="navigator" transform="translate(0 0)" fill="#404254">
                <rect fill="#f2f5e9" fill-opacity="0.5" stroke="#606060" stroke-width=".5" x="0" y="0" width="60" height="60"/>
                <use id="zoomplus" xlink:href="#zoomPlus" x="17" y="9" onmousedown="handleZoom(evt,'in')"/>
                <use id="zoomminus" xlink:href="#zoomMin" x="42" y="9" onmousedown="handleZoom(evt,'out')"/>
                <use id="reset" xlink:href="#resetDef" x="30" y="36" onmousedown="handleReset()"/>
                <g id="arrowUp" xlink:href="#dirArrow" transform="translate(30 24)" onmousedown="handlePan(0,-1)">
                  <use xlink:href="#rim" fill="#404040">
                        <set attributeName="fill" to="#808080" begin="arrowUp.mouseover" end="arrowUp.mouseout"/>
                  </use>
                  <path fill="none" stroke="white" stroke-width="1.5" d="M0,-3.0v7 M-2.5,-0.5L0,-3.0L2.5,-0.5"/>
                </g>
                <g id="arrowRight" xlink:href="#dirArrow" transform="rotate(90) translate(36 -43)" onmousedown="handlePan(1,0)">
                  <use xlink:href="#rim" fill="#404040">
                        <set attributeName="fill" to="#808080" begin="arrowRight.mouseover" end="arrowRight.mouseout"/>
                  </use>
                  <path fill="none" stroke="white" stroke-width="1.5" d="M0,-3.0v7 M-2.5,-0.5L0,-3.0L2.5,-0.5"/>
                </g>
                <g id="arrowDown" xlink:href="#dirArrow" transform="rotate(180) translate(-30 -48)" onmousedown="handlePan(0,1)">
                  <use xlink:href="#rim" fill="#404040">
                        <set attributeName="fill" to="#808080" begin="arrowDown.mouseover" end="arrowDown.mouseout"/>
                  </use>
                  <path fill="none" stroke="white" stroke-width="1.5" d="M0,-3.0v7 M-2.5,-0.5L0,-3.0L2.5,-0.5"/>
                </g>
                <g id="arrowLeft" xlink:href="#dirArrow" transform="rotate(270) translate(-36 17)" onmousedown="handlePan(-1,0)">
                  <use xlink:href="#rim" fill="#404040">
                        <set attributeName="fill" to="#808080" begin="arrowLeft.mouseover" end="arrowLeft.mouseout"/>
                  </use>
                  <path fill="none" stroke="white" stroke-width="1.5" d="M0,-3.0v7 M-2.5,-0.5L0,-3.0L2.5,-0.5"/>
                </g>
        </g>
        <svg viewBox="0 0 15 15" width="100%" height="30px" preserveAspectRatio="xMaxYMin meet">
         <g id="arrow_out" transform="scale(0.3 0.3)">
          <a xlink:href="classUIManager_acc2fd1de357cb6745ea39d54a93caa27_icgraph_org.svg" target="_base">
           <rect id="button" ry="5" rx="5" y="6" x="6" height="38" width="38"
                fill="#f2f5e9" fill-opacity="0.5" stroke="#606060" stroke-width="1.0"/>
           <path id="arrow"
             d="M 11.500037,31.436501 C 11.940474,20.09759 22.043105,11.32322 32.158766,21.979434 L 37.068811,17.246167 C 37.068811,17.246167 37.088388,32 37.088388,32 L 22.160133,31.978069 C 22.160133,31.978069 26.997745,27.140456 26.997745,27.140456 C 18.528582,18.264221 13.291696,25.230495 11.500037,31.436501 z"
             style="fill:#404040;"/>
          </a>
         </g>
        </svg>
</svg>
