<?xml version="1.0" encoding="UTF-8" standalone="no"?>
<!DOCTYPE svg PUBLIC "-//W3C//DTD SVG 1.1//EN"
 "http://www.w3.org/Graphics/SVG/1.1/DTD/svg11.dtd">
<!-- Generated by graphviz version 2.38.0 (20140413.2041)
 -->
<!-- Title: UIManager::toggleGroupVisibility Pages: 1 -->
<svg width="377pt" height="104pt"
 viewBox="0.00 0.00 377.00 104.00" xmlns="http://www.w3.org/2000/svg" xmlns:xlink="http://www.w3.org/1999/xlink">
<g id="graph0" class="graph" transform="scale(1 1) rotate(0) translate(4 100)">
<title>UIManager::toggleGroupVisibility</title>
<!-- Node1 -->
<g id="node1" class="node"><title>Node1</title>
<polygon fill="#bfbfbf" stroke="black" points="0,-38.5 0,-57.5 172,-57.5 172,-38.5 0,-38.5"/>
<text text-anchor="middle" x="86" y="-45.5" font-family="Helvetica,sans-Serif" font-size="10.00">UIManager::toggleGroupVisibility</text>
</g>
<!-- Node2 -->
<g id="node2" class="node"><title>Node2</title>
<g id="a_node2"><a xlink:href="classUIElement.html#ad448eae9fd22723ca68f04db6a180de7" target="_top" xlink:title="UIElement::getUiElementData">
<polygon fill="none" stroke="black" points="208,-76.5 208,-95.5 369,-95.5 369,-76.5 208,-76.5"/>
<text text-anchor="middle" x="288.5" y="-83.5" font-family="Helvetica,sans-Serif" font-size="10.00">UIElement::getUiElementData</text>
</a>
</g>
</g>
<!-- Node1&#45;&gt;Node2 -->
<g id="edge1" class="edge"><title>Node1&#45;&gt;Node2</title>
<path fill="none" stroke="midnightblue" d="M137.336,-57.54C164.626,-62.7122 198.542,-69.1401 227.233,-74.5778"/>
<polygon fill="midnightblue" stroke="midnightblue" points="226.667,-78.0327 237.143,-76.4561 227.97,-71.1551 226.667,-78.0327"/>
</g>
<!-- Node3 -->
<g id="node3" class="node"><title>Node3</title>
<g id="a_node3"><a xlink:href="classUIElement.html#a440d645aa10dbf7d3c763ba6e1fc33a6" target="_top" xlink:title="Sets the UI Elements visibility. Set the UI Elements visibility. ">
<polygon fill="none" stroke="black" points="226,-38.5 226,-57.5 351,-57.5 351,-38.5 226,-38.5"/>
<text text-anchor="middle" x="288.5" y="-45.5" font-family="Helvetica,sans-Serif" font-size="10.00">UIElement::setVisibility</text>
</a>
</g>
</g>
<!-- Node1&#45;&gt;Node3 -->
<g id="edge2" class="edge"><title>Node1&#45;&gt;Node3</title>
<path fill="none" stroke="midnightblue" d="M172.03,-48C186.545,-48 201.495,-48 215.626,-48"/>
<polygon fill="midnightblue" stroke="midnightblue" points="215.752,-51.5001 225.752,-48 215.752,-44.5001 215.752,-51.5001"/>
</g>
<!-- Node4 -->
<g id="node4" class="node"><title>Node4</title>
<g id="a_node4"><a xlink:href="classButton.html#a3389abc269a157d9440b5cf3f74c55e1" target="_top" xlink:title="Button::checkState">
<polygon fill="none" stroke="black" points="234,-0.5 234,-19.5 343,-19.5 343,-0.5 234,-0.5"/>
<text text-anchor="middle" x="288.5" y="-7.5" font-family="Helvetica,sans-Serif" font-size="10.00">Button::checkState</text>
</a>
</g>
</g>
<!-- Node1&#45;&gt;Node4 -->
<g id="edge3" class="edge"><title>Node1&#45;&gt;Node4</title>
<path fill="none" stroke="midnightblue" d="M137.336,-38.46C164.626,-33.2878 198.542,-26.8599 227.233,-21.4222"/>
<polygon fill="midnightblue" stroke="midnightblue" points="227.97,-24.8449 237.143,-19.5439 226.667,-17.9673 227.97,-24.8449"/>
</g>
</g>
</svg>
