<?xml version="1.0" encoding="UTF-8" standalone="no"?>
<!DOCTYPE svg PUBLIC "-//W3C//DTD SVG 1.1//EN"
 "http://www.w3.org/Graphics/SVG/1.1/DTD/svg11.dtd">
<!-- Generated by graphviz version 2.38.0 (20140413.2041)
 -->
<!-- Title: Sprite::render Pages: 1 -->
<svg width="447pt" height="97pt"
 viewBox="0.00 0.00 447.00 96.50" xmlns="http://www.w3.org/2000/svg" xmlns:xlink="http://www.w3.org/1999/xlink">
<g id="graph0" class="graph" transform="scale(1 1) rotate(0) translate(4 92.5)">
<title>Sprite::render</title>
<!-- Node1 -->
<g id="node1" class="node"><title>Node1</title>
<polygon fill="#bfbfbf" stroke="black" points="0,-28 0,-47 83,-47 83,-28 0,-28"/>
<text text-anchor="middle" x="41.5" y="-35" font-family="Helvetica,sans-Serif" font-size="10.00">Sprite::render</text>
</g>
<!-- Node2 -->
<g id="node2" class="node"><title>Node2</title>
<g id="a_node2"><a xlink:href="classMapLayers.html#a1d810628821913c499b8348107b66891" target="_top" xlink:title="Check if given Layer is being drawn. ">
<polygon fill="none" stroke="black" points="125.5,-50 125.5,-69 262.5,-69 262.5,-50 125.5,-50"/>
<text text-anchor="middle" x="194" y="-57" font-family="Helvetica,sans-Serif" font-size="10.00">MapLayers::isLayerActive</text>
</a>
</g>
</g>
<!-- Node1&#45;&gt;Node2 -->
<g id="edge1" class="edge"><title>Node1&#45;&gt;Node2</title>
<path fill="none" stroke="midnightblue" d="M83.2275,-43.4535C93.9731,-45.0243 105.918,-46.7704 117.859,-48.5159"/>
<polygon fill="midnightblue" stroke="midnightblue" points="117.461,-51.9949 127.862,-49.9782 118.474,-45.0685 117.461,-51.9949"/>
</g>
<!-- Node5 -->
<g id="node5" class="node"><title>Node5</title>
<g id="a_node5"><a xlink:href="classSingleton.html#af5cb1e5749949e2b68416cfb8d378044" target="_top" xlink:title="Get an instance of the singleton. ">
<polygon fill="none" stroke="black" points="119,-0.5 119,-30.5 269,-30.5 269,-0.5 119,-0.5"/>
<text text-anchor="start" x="127" y="-18.5" font-family="Helvetica,sans-Serif" font-size="10.00">Singleton&lt; WindowManager</text>
<text text-anchor="middle" x="194" y="-7.5" font-family="Helvetica,sans-Serif" font-size="10.00"> &gt;::instance</text>
</a>
</g>
</g>
<!-- Node1&#45;&gt;Node5 -->
<g id="edge4" class="edge"><title>Node1&#45;&gt;Node5</title>
<path fill="none" stroke="midnightblue" d="M83.2275,-31.5465C91.2602,-30.3723 99.9629,-29.1001 108.833,-27.8034"/>
<polygon fill="midnightblue" stroke="midnightblue" points="109.504,-31.2427 118.893,-26.333 108.492,-24.3163 109.504,-31.2427"/>
</g>
<!-- Node3 -->
<g id="node3" class="node"><title>Node3</title>
<g id="a_node3"><a xlink:href="classMapLayers.html#a53d7fcd90e70eaf36239d7a75c0c5dda" target="_top" xlink:title="MapLayers::MapLayers">
<polygon fill="none" stroke="black" points="309,-69 309,-88 435,-88 435,-69 309,-69"/>
<text text-anchor="middle" x="372" y="-76" font-family="Helvetica,sans-Serif" font-size="10.00">MapLayers::MapLayers</text>
</a>
</g>
</g>
<!-- Node2&#45;&gt;Node3 -->
<g id="edge2" class="edge"><title>Node2&#45;&gt;Node3</title>
<path fill="none" stroke="midnightblue" d="M262.543,-66.7916C274.433,-68.0752 286.851,-69.4157 298.861,-70.7123"/>
<polygon fill="midnightblue" stroke="midnightblue" points="298.515,-74.1952 308.833,-71.7888 299.266,-67.2356 298.515,-74.1952"/>
</g>
<!-- Node4 -->
<g id="node4" class="node"><title>Node4</title>
<g id="a_node4"><a xlink:href="classMapLayers.html#aa7fa21110e27ec69f131692b0a510d66" target="_top" xlink:title="MapLayers::~MapLayers">
<polygon fill="none" stroke="black" points="305,-31 305,-50 439,-50 439,-31 305,-31"/>
<text text-anchor="middle" x="372" y="-38" font-family="Helvetica,sans-Serif" font-size="10.00">MapLayers::~MapLayers</text>
</a>
</g>
</g>
<!-- Node2&#45;&gt;Node4 -->
<g id="edge3" class="edge"><title>Node2&#45;&gt;Node4</title>
<path fill="none" stroke="midnightblue" d="M262.543,-52.2084C273.048,-51.0744 283.965,-49.8959 294.648,-48.7425"/>
<polygon fill="midnightblue" stroke="midnightblue" points="295.232,-52.1999 304.799,-47.6467 294.481,-45.2403 295.232,-52.1999"/>
</g>
</g>
</svg>
