<?xml version="1.0" encoding="UTF-8" standalone="no"?>
<!DOCTYPE svg PUBLIC "-//W3C//DTD SVG 1.1//EN"
 "http://www.w3.org/Graphics/SVG/1.1/DTD/svg11.dtd">
<!-- Generated by graphviz version 2.38.0 (20140413.2041)
 -->
<!-- Title: UIManager::setBuildMenuPosition Pages: 1 -->
<svg width="1033pt" height="319pt"
 viewBox="0.00 0.00 1033.00 318.56" xmlns="http://www.w3.org/2000/svg" xmlns:xlink="http://www.w3.org/1999/xlink">
<g id="graph0" class="graph" transform="scale(1 1) rotate(0) translate(4 314.558)">
<title>UIManager::setBuildMenuPosition</title>
<!-- Node1 -->
<g id="node1" class="node"><title>Node1</title>
<polygon fill="#bfbfbf" stroke="black" points="0,-152 0,-171 176,-171 176,-152 0,-152"/>
<text text-anchor="middle" x="88" y="-159" font-family="Helvetica,sans-Serif" font-size="10.00">UIManager::setBuildMenuPosition</text>
</g>
<!-- Node2 -->
<g id="node2" class="node"><title>Node2</title>
<g id="a_node2"><a xlink:href="classSingleton.html#af5cb1e5749949e2b68416cfb8d378044" target="_top" xlink:title="Get an instance of the singleton. ">
<polygon fill="none" stroke="black" points="643.5,-205.5 643.5,-235.5 756.5,-235.5 756.5,-205.5 643.5,-205.5"/>
<text text-anchor="start" x="651.5" y="-223.5" font-family="Helvetica,sans-Serif" font-size="10.00">Singleton&lt; Settings</text>
<text text-anchor="middle" x="700" y="-212.5" font-family="Helvetica,sans-Serif" font-size="10.00"> &gt;::instance</text>
</a>
</g>
</g>
<!-- Node1&#45;&gt;Node2 -->
<g id="edge1" class="edge"><title>Node1&#45;&gt;Node2</title>
<path fill="none" stroke="midnightblue" d="M105.421,-171.114C152.338,-197.938 291.787,-273.221 419,-297.5 489.287,-310.914 511.374,-317.766 580,-297.5 616.362,-286.762 652.061,-261.057 674.723,-242.291"/>
<polygon fill="midnightblue" stroke="midnightblue" points="677.095,-244.868 682.459,-235.731 672.569,-239.529 677.095,-244.868"/>
</g>
<!-- Node3 -->
<g id="node3" class="node"><title>Node3</title>
<g id="a_node3"><a xlink:href="classComboBox.html#a5d3aaf4c524802d59e1445919715be78" target="_top" xlink:title="Get ID of selected element returns the ID of the selected element in the comboBox. ">
<polygon fill="none" stroke="black" points="232.5,-118 232.5,-137 362.5,-137 362.5,-118 232.5,-118"/>
<text text-anchor="middle" x="297.5" y="-125" font-family="Helvetica,sans-Serif" font-size="10.00">ComboBox::getActiveID</text>
</a>
</g>
</g>
<!-- Node1&#45;&gt;Node3 -->
<g id="edge2" class="edge"><title>Node1&#45;&gt;Node3</title>
<path fill="none" stroke="midnightblue" d="M147.076,-151.984C172.379,-147.838 202.209,-142.95 228.536,-138.636"/>
<polygon fill="midnightblue" stroke="midnightblue" points="229.135,-142.085 238.438,-137.014 228.003,-135.177 229.135,-142.085"/>
</g>
<!-- Node5 -->
<g id="node5" class="node"><title>Node5</title>
<g id="a_node5"><a xlink:href="classUIManager.html#af885d42286536573cd418ed008abfc07" target="_top" xlink:title="UIManager::setBuildMenuLayout">
<polygon fill="none" stroke="black" points="212,-50 212,-69 383,-69 383,-50 212,-50"/>
<text text-anchor="middle" x="297.5" y="-57" font-family="Helvetica,sans-Serif" font-size="10.00">UIManager::setBuildMenuLayout</text>
</a>
</g>
</g>
<!-- Node1&#45;&gt;Node5 -->
<g id="edge4" class="edge"><title>Node1&#45;&gt;Node5</title>
<path fill="none" stroke="midnightblue" d="M108.521,-151.904C145.288,-133.831 224.953,-94.6699 267.82,-73.5983"/>
<polygon fill="midnightblue" stroke="midnightblue" points="269.449,-76.6973 276.88,-69.1447 266.361,-70.4152 269.449,-76.6973"/>
</g>
<!-- Node8 -->
<g id="node8" class="node"><title>Node8</title>
<g id="a_node8"><a xlink:href="classLayout.html#afa734c5af10f59f3dadb066054fe81ab" target="_top" xlink:title="Arrange the layout elements. ">
<polygon fill="none" stroke="black" points="229,-187 229,-206 366,-206 366,-187 229,-187"/>
<text text-anchor="middle" x="297.5" y="-194" font-family="Helvetica,sans-Serif" font-size="10.00">Layout::arrangeElements</text>
</a>
</g>
</g>
<!-- Node1&#45;&gt;Node8 -->
<g id="edge7" class="edge"><title>Node1&#45;&gt;Node8</title>
<path fill="none" stroke="midnightblue" d="M145.426,-171.018C171.613,-175.435 202.918,-180.715 230.223,-185.321"/>
<polygon fill="midnightblue" stroke="midnightblue" points="229.642,-188.772 240.085,-186.984 230.806,-181.87 229.642,-188.772"/>
</g>
<!-- Node4 -->
<g id="node4" class="node"><title>Node4</title>
<g id="a_node4"><a xlink:href="classComboBox.html#ad0dba514b01ed2bb3c41c738c80a7d6a" target="_top" xlink:title="Set ID of selected element sets the ID of the selected element in the comboBox. ">
<polygon fill="none" stroke="black" points="435,-88 435,-107 564,-107 564,-88 435,-88"/>
<text text-anchor="middle" x="499.5" y="-95" font-family="Helvetica,sans-Serif" font-size="10.00">ComboBox::setActiveID</text>
</a>
</g>
</g>
<!-- Node3&#45;&gt;Node4 -->
<g id="edge3" class="edge"><title>Node3&#45;&gt;Node4</title>
<path fill="none" stroke="midnightblue" d="M362.056,-117.967C382.108,-114.959 404.426,-111.611 425.106,-108.509"/>
<polygon fill="midnightblue" stroke="midnightblue" points="425.739,-111.953 435.109,-107.009 424.701,-105.031 425.739,-111.953"/>
</g>
<!-- Node6 -->
<g id="node6" class="node"><title>Node6</title>
<g id="a_node6"><a xlink:href="namespaceutils_1_1strings.html#a1460a4e19b93604e32bb76f8407c4221" target="_top" xlink:title="checks if a string ends with a certain substring ">
<polygon fill="none" stroke="black" points="437.5,-50 437.5,-69 561.5,-69 561.5,-50 437.5,-50"/>
<text text-anchor="middle" x="499.5" y="-57" font-family="Helvetica,sans-Serif" font-size="10.00">utils::strings::endsWith</text>
</a>
</g>
</g>
<!-- Node5&#45;&gt;Node6 -->
<g id="edge5" class="edge"><title>Node5&#45;&gt;Node6</title>
<path fill="none" stroke="midnightblue" d="M383.028,-59.5C397.698,-59.5 412.823,-59.5 427.099,-59.5"/>
<polygon fill="midnightblue" stroke="midnightblue" points="427.325,-63.0001 437.325,-59.5 427.325,-56.0001 427.325,-63.0001"/>
</g>
<!-- Node7 -->
<g id="node7" class="node"><title>Node7</title>
<g id="a_node7"><a xlink:href="namespaceutils_1_1strings.html#ab8a6e07e519cb0ee76d762fe635901c1" target="_top" xlink:title="Erase First Occurrence of given substring from main string. ">
<polygon fill="none" stroke="black" points="431.5,-0.5 431.5,-30.5 567.5,-30.5 567.5,-0.5 431.5,-0.5"/>
<text text-anchor="start" x="439.5" y="-18.5" font-family="Helvetica,sans-Serif" font-size="10.00">utils::strings::removeSub</text>
<text text-anchor="middle" x="499.5" y="-7.5" font-family="Helvetica,sans-Serif" font-size="10.00">String</text>
</a>
</g>
</g>
<!-- Node5&#45;&gt;Node7 -->
<g id="edge6" class="edge"><title>Node5&#45;&gt;Node7</title>
<path fill="none" stroke="midnightblue" d="M341.897,-49.9527C365.124,-44.8428 394.425,-38.3965 421.382,-32.4659"/>
<polygon fill="midnightblue" stroke="midnightblue" points="422.178,-35.8747 431.192,-30.3078 420.674,-29.0382 422.178,-35.8747"/>
</g>
<!-- Node8&#45;&gt;Node2 -->
<g id="edge8" class="edge"><title>Node8&#45;&gt;Node2</title>
<path fill="none" stroke="midnightblue" d="M366.439,-195.354C440.934,-197.754 559.647,-204.888 633.259,-211.405"/>
<polygon fill="midnightblue" stroke="midnightblue" points="633.061,-214.902 643.337,-212.32 633.694,-207.93 633.061,-214.902"/>
</g>
<!-- Node8&#45;&gt;Node2 -->
<g id="edge11" class="edge"><title>Node8&#45;&gt;Node2</title>
<path fill="none" stroke="midnightblue" d="M366.439,-205.788C440.934,-212.317 559.647,-219.41 633.259,-221.716"/>
<polygon fill="midnightblue" stroke="midnightblue" points="633.239,-225.216 643.337,-222.009 633.443,-218.219 633.239,-225.216"/>
</g>
<!-- Node9 -->
<g id="node9" class="node"><title>Node9</title>
<g id="a_node9"><a xlink:href="classLayout.html#a79480df6d9dd2d32b23468c05c6ac944" target="_top" xlink:title="Calculates height and width of layout groups. ">
<polygon fill="none" stroke="black" points="420,-258.5 420,-288.5 579,-288.5 579,-258.5 420,-258.5"/>
<text text-anchor="start" x="428" y="-276.5" font-family="Helvetica,sans-Serif" font-size="10.00">Layout::calculateLayoutGroup</text>
<text text-anchor="middle" x="499.5" y="-265.5" font-family="Helvetica,sans-Serif" font-size="10.00">Dimensions</text>
</a>
</g>
</g>
<!-- Node8&#45;&gt;Node9 -->
<g id="edge9" class="edge"><title>Node8&#45;&gt;Node9</title>
<path fill="none" stroke="midnightblue" d="M322.933,-206.121C347.255,-215.677 385.666,-230.71 419,-243.5 428.707,-247.224 439.094,-251.172 449.052,-254.937"/>
<polygon fill="midnightblue" stroke="midnightblue" points="447.84,-258.221 458.431,-258.478 450.312,-251.672 447.84,-258.221"/>
</g>
<!-- Node10 -->
<g id="node10" class="node"><title>Node10</title>
<g id="a_node10"><a xlink:href="classUIManager.html#a0d32c5b63c4110ff8e43ab06c1c7d761" target="_top" xlink:title="Get the Layoutgroup container Returns the container, that holds LayoutGroups. ">
<polygon fill="none" stroke="black" points="616,-164 616,-183 784,-183 784,-164 616,-164"/>
<text text-anchor="middle" x="700" y="-171" font-family="Helvetica,sans-Serif" font-size="10.00">UIManager::getAllLayoutGroups</text>
</a>
</g>
</g>
<!-- Node8&#45;&gt;Node10 -->
<g id="edge12" class="edge"><title>Node8&#45;&gt;Node10</title>
<path fill="none" stroke="midnightblue" d="M366.439,-192.598C432.195,-188.822 532.403,-183.067 605.635,-178.862"/>
<polygon fill="midnightblue" stroke="midnightblue" points="606,-182.347 615.782,-178.279 605.598,-175.358 606,-182.347"/>
</g>
<!-- Node11 -->
<g id="node11" class="node"><title>Node11</title>
<g id="a_node11"><a xlink:href="classLayout.html#ac2a5cc72ee1ff5d3ddf4861b3f28d58f" target="_top" xlink:title="Arrange Elements that are aligned to a parent This is a seperate function, so it can recurse if a par...">
<polygon fill="none" stroke="black" points="419,-126 419,-145 580,-145 580,-126 419,-126"/>
<text text-anchor="middle" x="499.5" y="-133" font-family="Helvetica,sans-Serif" font-size="10.00">Layout::arrangeChildElements</text>
</a>
</g>
</g>
<!-- Node8&#45;&gt;Node11 -->
<g id="edge13" class="edge"><title>Node8&#45;&gt;Node11</title>
<path fill="none" stroke="midnightblue" d="M329.445,-186.954C353.778,-179.459 388.539,-168.774 419,-159.5 431.284,-155.76 444.643,-151.717 456.842,-148.036"/>
<polygon fill="midnightblue" stroke="midnightblue" points="458.204,-151.281 466.767,-145.042 456.183,-144.579 458.204,-151.281"/>
</g>
<!-- Node9&#45;&gt;Node2 -->
<g id="edge10" class="edge"><title>Node9&#45;&gt;Node2</title>
<path fill="none" stroke="midnightblue" d="M556.851,-258.454C580.731,-252.078 608.715,-244.606 633.507,-237.987"/>
<polygon fill="midnightblue" stroke="midnightblue" points="634.436,-241.361 643.195,-235.4 632.631,-234.598 634.436,-241.361"/>
</g>
<!-- Node11&#45;&gt;Node2 -->
<g id="edge14" class="edge"><title>Node11&#45;&gt;Node2</title>
<path fill="none" stroke="midnightblue" d="M532.332,-145.111C555.238,-155.617 587.068,-171.543 616,-183.5 631.68,-189.98 649.456,-196.13 664.524,-201.751"/>
<polygon fill="midnightblue" stroke="midnightblue" points="663.395,-205.067 673.985,-205.367 665.894,-198.528 663.395,-205.067"/>
</g>
<!-- Node11&#45;&gt;Node2 -->
<g id="edge15" class="edge"><title>Node11&#45;&gt;Node2</title>
<path fill="none" stroke="midnightblue" d="M509.299,-145.184C528.366,-159.74 575.082,-184.589 616,-201.5 621.718,-203.863 627.716,-206.183 633.759,-208.376"/>
<polygon fill="midnightblue" stroke="midnightblue" points="632.665,-211.701 643.26,-211.708 634.981,-205.096 632.665,-211.701"/>
</g>
<!-- Node11&#45;&gt;Node10 -->
<g id="edge18" class="edge"><title>Node11&#45;&gt;Node10</title>
<path fill="none" stroke="midnightblue" d="M550.334,-145.04C577.234,-150.19 610.636,-156.584 638.961,-162.006"/>
<polygon fill="midnightblue" stroke="midnightblue" points="638.666,-165.513 649.146,-163.956 639.982,-158.638 638.666,-165.513"/>
</g>
<!-- Node12 -->
<g id="node12" class="node"><title>Node12</title>
<g id="a_node12"><a xlink:href="classUIManager.html#acc2fd1de357cb6745ea39d54a93caa27" target="_top" xlink:title="Get the Ui Element By ID Finds and returns an UiElement by its elementID parameter. ">
<polygon fill="none" stroke="black" points="619.5,-126 619.5,-145 780.5,-145 780.5,-126 619.5,-126"/>
<text text-anchor="middle" x="700" y="-133" font-family="Helvetica,sans-Serif" font-size="10.00">UIManager::getUiElementByID</text>
</a>
</g>
</g>
<!-- Node11&#45;&gt;Node12 -->
<g id="edge16" class="edge"><title>Node11&#45;&gt;Node12</title>
<path fill="none" stroke="midnightblue" d="M580.094,-135.5C589.7,-135.5 599.562,-135.5 609.301,-135.5"/>
<polygon fill="midnightblue" stroke="midnightblue" points="609.388,-139 619.388,-135.5 609.388,-132 609.388,-139"/>
</g>
<!-- Node13 -->
<g id="node13" class="node"><title>Node13</title>
<g id="a_node13"><a xlink:href="classUIElement.html#ad448eae9fd22723ca68f04db6a180de7" target="_top" xlink:title="UIElement::getUiElementData">
<polygon fill="none" stroke="black" points="619.5,-88 619.5,-107 780.5,-107 780.5,-88 619.5,-88"/>
<text text-anchor="middle" x="700" y="-95" font-family="Helvetica,sans-Serif" font-size="10.00">UIElement::getUiElementData</text>
</a>
</g>
</g>
<!-- Node11&#45;&gt;Node13 -->
<g id="edge17" class="edge"><title>Node11&#45;&gt;Node13</title>
<path fill="none" stroke="midnightblue" d="M550.334,-125.96C577.234,-120.81 610.636,-114.416 638.961,-108.994"/>
<polygon fill="midnightblue" stroke="midnightblue" points="639.982,-112.362 649.146,-107.044 638.666,-105.487 639.982,-112.362"/>
</g>
<!-- Node14 -->
<g id="node14" class="node"><title>Node14</title>
<g id="a_node14"><a xlink:href="classUIElement.html#a63a26f6f553d4e5d6ce3c3050b39453d" target="_top" xlink:title="Get the position and the size of this ui element Gets the position and the size of this ui element...">
<polygon fill="none" stroke="black" points="621,-50 621,-69 779,-69 779,-50 621,-50"/>
<text text-anchor="middle" x="700" y="-57" font-family="Helvetica,sans-Serif" font-size="10.00">UIElement::getUiElementRect</text>
</a>
</g>
</g>
<!-- Node11&#45;&gt;Node14 -->
<g id="edge19" class="edge"><title>Node11&#45;&gt;Node14</title>
<path fill="none" stroke="midnightblue" d="M558.067,-125.97C565.716,-123.504 573.24,-120.402 580,-116.5 600.149,-104.87 595.796,-90.034 616,-78.5 619.934,-76.2544 624.115,-74.2742 628.427,-72.528"/>
<polygon fill="midnightblue" stroke="midnightblue" points="629.813,-75.7491 638.035,-69.0668 627.44,-69.1634 629.813,-75.7491"/>
</g>
<!-- Node15 -->
<g id="node15" class="node"><title>Node15</title>
<g id="a_node15"><a xlink:href="classUIElement.html#aa7f624963eaeb31043d74219ee24386c" target="_top" xlink:title="Checks if the mouse cursor is over the current UI Element Check if the coordinates match the ones sto...">
<polygon fill="none" stroke="black" points="855.5,-69 855.5,-88 989.5,-88 989.5,-69 855.5,-69"/>
<text text-anchor="middle" x="922.5" y="-76" font-family="Helvetica,sans-Serif" font-size="10.00">UIElement::isMouseOver</text>
</a>
</g>
</g>
<!-- Node14&#45;&gt;Node15 -->
<g id="edge20" class="edge"><title>Node14&#45;&gt;Node15</title>
<path fill="none" stroke="midnightblue" d="M779.05,-66.2254C800.547,-68.0778 823.835,-70.0844 845.23,-71.928"/>
<polygon fill="midnightblue" stroke="midnightblue" points="844.975,-75.4189 855.238,-72.7904 845.576,-68.4447 844.975,-75.4189"/>
</g>
<!-- Node16 -->
<g id="node16" class="node"><title>Node16</title>
<g id="a_node16"><a xlink:href="classUIElement.html#a570841bf8b7970ca935b1a00e571036a" target="_top" xlink:title="Handling for the hovering event Check, if the mouse cursor is hovering over the element. virtual function to provide custom handling if necessary (e.g. Combobox) Per default, it&#39;s the same implementation as isMouseOver. ">
<polygon fill="none" stroke="black" points="820,-31 820,-50 1025,-50 1025,-31 820,-31"/>
<text text-anchor="middle" x="922.5" y="-38" font-family="Helvetica,sans-Serif" font-size="10.00">UIElement::isMouseOverHoverableArea</text>
</a>
</g>
</g>
<!-- Node14&#45;&gt;Node16 -->
<g id="edge21" class="edge"><title>Node14&#45;&gt;Node16</title>
<path fill="none" stroke="midnightblue" d="M779.05,-52.7746C789.096,-51.909 799.533,-51.0097 809.984,-50.1091"/>
<polygon fill="midnightblue" stroke="midnightblue" points="810.335,-53.5919 819.997,-49.2463 809.734,-46.6178 810.335,-53.5919"/>
</g>
</g>
</svg>
