<?xml version="1.0" encoding="UTF-8" standalone="no"?>
<!DOCTYPE svg PUBLIC "-//W3C//DTD SVG 1.1//EN"
 "http://www.w3.org/Graphics/SVG/1.1/DTD/svg11.dtd">
<!-- Generated by graphviz version 2.38.0 (20140413.2041)
 -->
<!-- Title: ComboBox::centerTextLabel Pages: 1 -->
<svg width="968pt" height="104pt"
 viewBox="0.00 0.00 968.00 104.00" xmlns="http://www.w3.org/2000/svg" xmlns:xlink="http://www.w3.org/1999/xlink">
<g id="graph0" class="graph" transform="scale(1 1) rotate(0) translate(4 100)">
<title>ComboBox::centerTextLabel</title>
<!-- Node1 -->
<g id="node1" class="node"><title>Node1</title>
<polygon fill="#bfbfbf" stroke="black" points="0,-38.5 0,-57.5 150,-57.5 150,-38.5 0,-38.5"/>
<text text-anchor="middle" x="75" y="-45.5" font-family="Helvetica,sans-Serif" font-size="10.00">ComboBox::centerTextLabel</text>
</g>
<!-- Node2 -->
<g id="node2" class="node"><title>Node2</title>
<g id="a_node2"><a xlink:href="classComboBox.html#a21357bdfab5f30acbcc8bdd4bda79b99" target="_top" xlink:title="Sets the x,y position of this ui element Sets the x,y position of the ui element. ...">
<polygon fill="none" stroke="black" points="204,-76.5 204,-95.5 332,-95.5 332,-76.5 204,-76.5"/>
<text text-anchor="middle" x="268" y="-83.5" font-family="Helvetica,sans-Serif" font-size="10.00">ComboBox::setPosition</text>
</a>
</g>
</g>
<!-- Node1&#45;&gt;Node2 -->
<g id="edge1" class="edge"><title>Node1&#45;&gt;Node2</title>
<path fill="none" stroke="midnightblue" d="M134.353,-59.6095C161.518,-65.014 193.432,-71.3635 219.149,-76.4799"/>
<polygon fill="midnightblue" stroke="midnightblue" points="134.688,-56.1076 124.197,-57.589 133.322,-62.9731 134.688,-56.1076"/>
</g>
<!-- Node3 -->
<g id="node3" class="node"><title>Node3</title>
<g id="a_node3"><a xlink:href="classComboBox.html#a0c422945ffd5c8d65bc4d61bd092bece" target="_top" xlink:title="ComboBox::addElement">
<polygon fill="none" stroke="black" points="201.5,-38.5 201.5,-57.5 334.5,-57.5 334.5,-38.5 201.5,-38.5"/>
<text text-anchor="middle" x="268" y="-45.5" font-family="Helvetica,sans-Serif" font-size="10.00">ComboBox::addElement</text>
</a>
</g>
</g>
<!-- Node1&#45;&gt;Node3 -->
<g id="edge2" class="edge"><title>Node1&#45;&gt;Node3</title>
<path fill="none" stroke="midnightblue" d="M160.504,-48C174.187,-48 188.176,-48 201.326,-48"/>
<polygon fill="midnightblue" stroke="midnightblue" points="160.119,-44.5001 150.119,-48 160.119,-51.5001 160.119,-44.5001"/>
</g>
<!-- Node9 -->
<g id="node9" class="node"><title>Node9</title>
<g id="a_node9"><a xlink:href="classComboBox.html#af0d53d01cb6d97f6dec54647721d125e" target="_top" xlink:title="ComboBox::onMouseButtonUp">
<polygon fill="none" stroke="black" points="186,-0.5 186,-19.5 350,-19.5 350,-0.5 186,-0.5"/>
<text text-anchor="middle" x="268" y="-7.5" font-family="Helvetica,sans-Serif" font-size="10.00">ComboBox::onMouseButtonUp</text>
</a>
</g>
</g>
<!-- Node1&#45;&gt;Node9 -->
<g id="edge8" class="edge"><title>Node1&#45;&gt;Node9</title>
<path fill="none" stroke="midnightblue" d="M134.353,-36.3905C161.518,-30.986 193.432,-24.6365 219.149,-19.5201"/>
<polygon fill="midnightblue" stroke="midnightblue" points="133.322,-33.0269 124.197,-38.411 134.688,-39.8924 133.322,-33.0269"/>
</g>
<!-- Node4 -->
<g id="node4" class="node"><title>Node4</title>
<g id="a_node4"><a xlink:href="classUIManager.html#a5c4cb8e02504ffa0d3faf45181feab9d" target="_top" xlink:title="Fill UI Widgets whose ID start with a $ with data Used for filling widgets with data, like BuildMenu Position combobox, Screen Resolution ComboBox and so on. ">
<polygon fill="none" stroke="black" points="386,-33 386,-63 526,-63 526,-33 386,-33"/>
<text text-anchor="start" x="394" y="-51" font-family="Helvetica,sans-Serif" font-size="10.00">UIManager::initializeDollar</text>
<text text-anchor="middle" x="456" y="-40" font-family="Helvetica,sans-Serif" font-size="10.00">Variables</text>
</a>
</g>
</g>
<!-- Node3&#45;&gt;Node4 -->
<g id="edge3" class="edge"><title>Node3&#45;&gt;Node4</title>
<path fill="none" stroke="midnightblue" d="M344.849,-48C358.438,-48 372.533,-48 385.919,-48"/>
<polygon fill="midnightblue" stroke="midnightblue" points="344.577,-44.5001 334.577,-48 344.577,-51.5001 344.577,-44.5001"/>
</g>
<!-- Node5 -->
<g id="node5" class="node"><title>Node5</title>
<g id="a_node5"><a xlink:href="classUIManager.html#aedd9d0577af515a852425dfe414b2968" target="_top" xlink:title="Parses the UiLayout.json files and creates UI Elements. ">
<polygon fill="none" stroke="black" points="562,-38.5 562,-57.5 651,-57.5 651,-38.5 562,-38.5"/>
<text text-anchor="middle" x="606.5" y="-45.5" font-family="Helvetica,sans-Serif" font-size="10.00">UIManager::init</text>
</a>
</g>
</g>
<!-- Node4&#45;&gt;Node5 -->
<g id="edge4" class="edge"><title>Node4&#45;&gt;Node5</title>
<path fill="none" stroke="midnightblue" d="M536.274,-48C544.985,-48 553.604,-48 561.648,-48"/>
<polygon fill="midnightblue" stroke="midnightblue" points="536.033,-44.5001 526.033,-48 536.033,-51.5001 536.033,-44.5001"/>
</g>
<!-- Node6 -->
<g id="node6" class="node"><title>Node6</title>
<g id="a_node6"><a xlink:href="classGame.html#a1c2ab25d5216b2f4b2fe41efd2c09114" target="_top" xlink:title="Game::run">
<polygon fill="none" stroke="black" points="687,-38.5 687,-57.5 755,-57.5 755,-38.5 687,-38.5"/>
<text text-anchor="middle" x="721" y="-45.5" font-family="Helvetica,sans-Serif" font-size="10.00">Game::run</text>
</a>
</g>
</g>
<!-- Node5&#45;&gt;Node6 -->
<g id="edge5" class="edge"><title>Node5&#45;&gt;Node6</title>
<path fill="none" stroke="midnightblue" d="M661.446,-48C670.145,-48 678.918,-48 686.931,-48"/>
<polygon fill="midnightblue" stroke="midnightblue" points="661.318,-44.5001 651.318,-48 661.318,-51.5001 661.318,-44.5001"/>
</g>
<!-- Node7 -->
<g id="node7" class="node"><title>Node7</title>
<g id="a_node7"><a xlink:href="main_8cxx.html#af582d708d899e67ead623eac34a22387" target="_top" xlink:title="protected_main">
<polygon fill="none" stroke="black" points="791,-38.5 791,-57.5 883,-57.5 883,-38.5 791,-38.5"/>
<text text-anchor="middle" x="837" y="-45.5" font-family="Helvetica,sans-Serif" font-size="10.00">protected_main</text>
</a>
</g>
</g>
<!-- Node6&#45;&gt;Node7 -->
<g id="edge6" class="edge"><title>Node6&#45;&gt;Node7</title>
<path fill="none" stroke="midnightblue" d="M765.44,-48C773.674,-48 782.308,-48 790.601,-48"/>
<polygon fill="midnightblue" stroke="midnightblue" points="765.28,-44.5001 755.28,-48 765.28,-51.5001 765.28,-44.5001"/>
</g>
<!-- Node8 -->
<g id="node8" class="node"><title>Node8</title>
<g id="a_node8"><a xlink:href="main_8cxx.html#a3c04138a5bfe5d72780bb7e82a18e627" target="_top" xlink:title="main">
<polygon fill="none" stroke="black" points="919,-38.5 919,-57.5 960,-57.5 960,-38.5 919,-38.5"/>
<text text-anchor="middle" x="939.5" y="-45.5" font-family="Helvetica,sans-Serif" font-size="10.00">main</text>
</a>
</g>
</g>
<!-- Node7&#45;&gt;Node8 -->
<g id="edge7" class="edge"><title>Node7&#45;&gt;Node8</title>
<path fill="none" stroke="midnightblue" d="M893.539,-48C902.619,-48 911.466,-48 918.877,-48"/>
<polygon fill="midnightblue" stroke="midnightblue" points="893.252,-44.5001 883.252,-48 893.252,-51.5001 893.252,-44.5001"/>
</g>
</g>
</svg>
