<?xml version="1.0" encoding="UTF-8" standalone="no"?>
<!DOCTYPE svg PUBLIC "-//W3C//DTD SVG 1.1//EN"
 "http://www.w3.org/Graphics/SVG/1.1/DTD/svg11.dtd">
<!-- Generated by graphviz version 2.38.0 (20140413.2041)
 -->
<!-- Title: UIManager::initializeDollarVariables Pages: 1 -->
<svg width="582pt" height="39pt"
 viewBox="0.00 0.00 582.00 39.00" xmlns="http://www.w3.org/2000/svg" xmlns:xlink="http://www.w3.org/1999/xlink">
<g id="graph0" class="graph" transform="scale(1 1) rotate(0) translate(4 35)">
<title>UIManager::initializeDollarVariables</title>
<!-- Node1 -->
<g id="node1" class="node"><title>Node1</title>
<polygon fill="#bfbfbf" stroke="black" points="0,-0.5 0,-30.5 140,-30.5 140,-0.5 0,-0.5"/>
<text text-anchor="start" x="8" y="-18.5" font-family="Helvetica,sans-Serif" font-size="10.00">UIManager::initializeDollar</text>
<text text-anchor="middle" x="70" y="-7.5" font-family="Helvetica,sans-Serif" font-size="10.00">Variables</text>
</g>
<!-- Node2 -->
<g id="node2" class="node"><title>Node2</title>
<g id="a_node2"><a xlink:href="classUIManager.html#aedd9d0577af515a852425dfe414b2968" target="_top" xlink:title="Parses the UiLayout.json files and creates UI Elements. ">
<polygon fill="none" stroke="black" points="176,-6 176,-25 265,-25 265,-6 176,-6"/>
<text text-anchor="middle" x="220.5" y="-13" font-family="Helvetica,sans-Serif" font-size="10.00">UIManager::init</text>
</a>
</g>
</g>
<!-- Node1&#45;&gt;Node2 -->
<g id="edge1" class="edge"><title>Node1&#45;&gt;Node2</title>
<path fill="none" stroke="midnightblue" d="M150.274,-15.5C158.985,-15.5 167.604,-15.5 175.648,-15.5"/>
<polygon fill="midnightblue" stroke="midnightblue" points="150.033,-12.0001 140.033,-15.5 150.033,-19.0001 150.033,-12.0001"/>
</g>
<!-- Node3 -->
<g id="node3" class="node"><title>Node3</title>
<g id="a_node3"><a xlink:href="classGame.html#a1c2ab25d5216b2f4b2fe41efd2c09114" target="_top" xlink:title="Game::run">
<polygon fill="none" stroke="black" points="301,-6 301,-25 369,-25 369,-6 301,-6"/>
<text text-anchor="middle" x="335" y="-13" font-family="Helvetica,sans-Serif" font-size="10.00">Game::run</text>
</a>
</g>
</g>
<!-- Node2&#45;&gt;Node3 -->
<g id="edge2" class="edge"><title>Node2&#45;&gt;Node3</title>
<path fill="none" stroke="midnightblue" d="M275.446,-15.5C284.145,-15.5 292.918,-15.5 300.931,-15.5"/>
<polygon fill="midnightblue" stroke="midnightblue" points="275.318,-12.0001 265.318,-15.5 275.318,-19.0001 275.318,-12.0001"/>
</g>
<!-- Node4 -->
<g id="node4" class="node"><title>Node4</title>
<g id="a_node4"><a xlink:href="main_8cxx.html#af582d708d899e67ead623eac34a22387" target="_top" xlink:title="protected_main">
<polygon fill="none" stroke="black" points="405,-6 405,-25 497,-25 497,-6 405,-6"/>
<text text-anchor="middle" x="451" y="-13" font-family="Helvetica,sans-Serif" font-size="10.00">protected_main</text>
</a>
</g>
</g>
<!-- Node3&#45;&gt;Node4 -->
<g id="edge3" class="edge"><title>Node3&#45;&gt;Node4</title>
<path fill="none" stroke="midnightblue" d="M379.44,-15.5C387.674,-15.5 396.308,-15.5 404.601,-15.5"/>
<polygon fill="midnightblue" stroke="midnightblue" points="379.28,-12.0001 369.28,-15.5 379.28,-19.0001 379.28,-12.0001"/>
</g>
<!-- Node5 -->
<g id="node5" class="node"><title>Node5</title>
<g id="a_node5"><a xlink:href="main_8cxx.html#a3c04138a5bfe5d72780bb7e82a18e627" target="_top" xlink:title="main">
<polygon fill="none" stroke="black" points="533,-6 533,-25 574,-25 574,-6 533,-6"/>
<text text-anchor="middle" x="553.5" y="-13" font-family="Helvetica,sans-Serif" font-size="10.00">main</text>
</a>
</g>
</g>
<!-- Node4&#45;&gt;Node5 -->
<g id="edge4" class="edge"><title>Node4&#45;&gt;Node5</title>
<path fill="none" stroke="midnightblue" d="M507.539,-15.5C516.619,-15.5 525.466,-15.5 532.877,-15.5"/>
<polygon fill="midnightblue" stroke="midnightblue" points="507.252,-12.0001 497.252,-15.5 507.252,-19.0001 507.252,-12.0001"/>
</g>
</g>
</svg>
