<?xml version="1.0" encoding="UTF-8" standalone="no"?>
<!DOCTYPE svg PUBLIC "-//W3C//DTD SVG 1.1//EN"
 "http://www.w3.org/Graphics/SVG/1.1/DTD/svg11.dtd">
<!-- Generated by graphviz version 2.38.0 (20140413.2041)
 -->
<!-- Title: AudioMixer::AudioMixer Pages: 1 -->
<svg width="474pt" height="53pt"
 viewBox="0.00 0.00 474.00 52.50" xmlns="http://www.w3.org/2000/svg" xmlns:xlink="http://www.w3.org/1999/xlink">
<g id="graph0" class="graph" transform="scale(1 1) rotate(0) translate(4 48.5)">
<title>AudioMixer::AudioMixer</title>
<!-- Node1 -->
<g id="node1" class="node"><title>Node1</title>
<polygon fill="#bfbfbf" stroke="black" points="0,-19.5 0,-38.5 128,-38.5 128,-19.5 0,-19.5"/>
<text text-anchor="middle" x="64" y="-26.5" font-family="Helvetica,sans-Serif" font-size="10.00">AudioMixer::AudioMixer</text>
</g>
<!-- Node2 -->
<g id="node2" class="node"><title>Node2</title>
<g id="a_node2"><a xlink:href="classSingleton.html#af5cb1e5749949e2b68416cfb8d378044" target="_top" xlink:title="Get an instance of the singleton. ">
<polygon fill="none" stroke="black" points="353,-14 353,-44 466,-44 466,-14 353,-14"/>
<text text-anchor="start" x="361" y="-32" font-family="Helvetica,sans-Serif" font-size="10.00">Singleton&lt; Settings</text>
<text text-anchor="middle" x="409.5" y="-21" font-family="Helvetica,sans-Serif" font-size="10.00"> &gt;::instance</text>
</a>
</g>
</g>
<!-- Node1&#45;&gt;Node2 -->
<g id="edge1" class="edge"><title>Node1&#45;&gt;Node2</title>
<path fill="none" stroke="midnightblue" d="M128.003,-29C189.007,-29 281.104,-29 342.954,-29"/>
<polygon fill="midnightblue" stroke="midnightblue" points="342.992,-32.5001 352.992,-29 342.992,-25.5001 342.992,-32.5001"/>
</g>
<!-- Node3 -->
<g id="node3" class="node"><title>Node3</title>
<g id="a_node3"><a xlink:href="classAudioMixer.html#afc0514838e689814491f29c2e98bcf65" target="_top" xlink:title="sets the music volume ">
<polygon fill="none" stroke="black" points="164,-0.5 164,-19.5 317,-19.5 317,-0.5 164,-0.5"/>
<text text-anchor="middle" x="240.5" y="-7.5" font-family="Helvetica,sans-Serif" font-size="10.00">AudioMixer::setMusicVolume</text>
</a>
</g>
</g>
<!-- Node1&#45;&gt;Node3 -->
<g id="edge2" class="edge"><title>Node1&#45;&gt;Node3</title>
<path fill="none" stroke="midnightblue" d="M128.492,-22.0868C136.757,-21.1869 145.33,-20.2535 153.882,-19.3223"/>
<polygon fill="midnightblue" stroke="midnightblue" points="154.329,-22.7944 163.891,-18.2324 153.571,-15.8355 154.329,-22.7944"/>
</g>
<!-- Node3&#45;&gt;Node2 -->
<g id="edge3" class="edge"><title>Node3&#45;&gt;Node2</title>
<path fill="none" stroke="midnightblue" d="M317.182,-18.6105C325.649,-19.5738 334.224,-20.5494 342.555,-21.4973"/>
<polygon fill="midnightblue" stroke="midnightblue" points="342.241,-24.984 352.572,-22.6369 343.032,-18.0289 342.241,-24.984"/>
</g>
</g>
</svg>
