<?xml version="1.0" encoding="UTF-8" standalone="no"?>
<!DOCTYPE svg PUBLIC "-//W3C//DTD SVG 1.1//EN"
 "http://www.w3.org/Graphics/SVG/1.1/DTD/svg11.dtd">
<!-- Generated by graphviz version 2.38.0 (20140413.2041)
 -->
<!-- Title: Engine::decreaseHeight Pages: 1 -->
<svg width="967pt" height="171pt"
 viewBox="0.00 0.00 967.00 170.50" xmlns="http://www.w3.org/2000/svg" xmlns:xlink="http://www.w3.org/1999/xlink">
<g id="graph0" class="graph" transform="scale(1 1) rotate(0) translate(4 166.5)">
<title>Engine::decreaseHeight</title>
<!-- Node1 -->
<g id="node1" class="node"><title>Node1</title>
<polygon fill="#bfbfbf" stroke="black" points="0,-53 0,-72 131,-72 131,-53 0,-53"/>
<text text-anchor="middle" x="65.5" y="-60" font-family="Helvetica,sans-Serif" font-size="10.00">Engine::decreaseHeight</text>
</g>
<!-- Node2 -->
<g id="node2" class="node"><title>Node2</title>
<g id="a_node2"><a xlink:href="classMap.html#afb8cc864df90d273a5074872d635dc40" target="_top" xlink:title="Decrease Height Decreases the height of the node and checks the surrounding tiles. Either draw a slope sprite or lower the tile if necessary. ">
<polygon fill="none" stroke="black" points="167,-53 167,-72 286,-72 286,-53 167,-53"/>
<text text-anchor="middle" x="226.5" y="-60" font-family="Helvetica,sans-Serif" font-size="10.00">Map::decreaseHeight</text>
</a>
</g>
</g>
<!-- Node1&#45;&gt;Node2 -->
<g id="edge1" class="edge"><title>Node1&#45;&gt;Node2</title>
<path fill="none" stroke="midnightblue" d="M131.171,-62.5C139.545,-62.5 148.147,-62.5 156.586,-62.5"/>
<polygon fill="midnightblue" stroke="midnightblue" points="156.774,-66.0001 166.774,-62.5 156.774,-59.0001 156.774,-66.0001"/>
</g>
<!-- Node3 -->
<g id="node3" class="node"><title>Node3</title>
<g id="a_node3"><a xlink:href="classMap.html#a05e7d896dc5062af07c9b838600a068d" target="_top" xlink:title="Demolish a node Invokes the tiles demolish function. ">
<polygon fill="none" stroke="black" points="322,-6 322,-25 434,-25 434,-6 322,-6"/>
<text text-anchor="middle" x="378" y="-13" font-family="Helvetica,sans-Serif" font-size="10.00">Map::demolishNode</text>
</a>
</g>
</g>
<!-- Node2&#45;&gt;Node3 -->
<g id="edge2" class="edge"><title>Node2&#45;&gt;Node3</title>
<path fill="none" stroke="midnightblue" d="M257.754,-52.9888C280.475,-45.8456 311.821,-35.991 336.673,-28.1782"/>
<polygon fill="midnightblue" stroke="midnightblue" points="338.045,-31.4156 346.535,-25.0776 335.946,-24.7378 338.045,-31.4156"/>
</g>
<!-- Node4 -->
<g id="node4" class="node"><title>Node4</title>
<g id="a_node4"><a xlink:href="classMap.html#a59d21f2688713fbcfe320eb1b24405ca" target="_top" xlink:title="Update mapNode and its adjacent tiles Updates mapNode height information, draws slopes for adjacent t...">
<polygon fill="none" stroke="black" points="470,-50 470,-69 631,-69 631,-50 470,-50"/>
<text text-anchor="middle" x="550.5" y="-57" font-family="Helvetica,sans-Serif" font-size="10.00">Map::updateNeighborsOfNode</text>
</a>
</g>
</g>
<!-- Node2&#45;&gt;Node4 -->
<g id="edge13" class="edge"><title>Node2&#45;&gt;Node4</title>
<path fill="none" stroke="midnightblue" d="M286.185,-56.6011C334.598,-54.5968 404.087,-53.6906 459.524,-54.2097"/>
<polygon fill="midnightblue" stroke="midnightblue" points="459.665,-57.7114 469.704,-54.3232 459.743,-50.7118 459.665,-57.7114"/>
</g>
<!-- Node3&#45;&gt;Node4 -->
<g id="edge3" class="edge"><title>Node3&#45;&gt;Node4</title>
<path fill="none" stroke="midnightblue" d="M434.356,-23.4188C462.986,-30.0434 496.765,-39.138 520.304,-46.7308"/>
<polygon fill="midnightblue" stroke="midnightblue" points="519.437,-50.1316 530.031,-49.99 521.661,-43.4943 519.437,-50.1316"/>
</g>
<!-- Node4&#45;&gt;Node2 -->
<g id="edge12" class="edge"><title>Node4&#45;&gt;Node2</title>
<path fill="none" stroke="midnightblue" d="M469.704,-66.1637C416.485,-67.8488 347.23,-68.4049 296.414,-67.5109"/>
<polygon fill="midnightblue" stroke="midnightblue" points="296.254,-64.007 286.185,-67.3053 296.113,-71.0056 296.254,-64.007"/>
</g>
<!-- Node4&#45;&gt;Node3 -->
<g id="edge6" class="edge"><title>Node4&#45;&gt;Node3</title>
<path fill="none" stroke="midnightblue" d="M487.033,-49.9105C460.037,-43.4743 429.751,-35.2252 408.131,-28.2482"/>
<polygon fill="midnightblue" stroke="midnightblue" points="409.152,-24.8992 398.559,-25.0413 406.929,-31.5367 409.152,-24.8992"/>
</g>
<!-- Node5 -->
<g id="node5" class="node"><title>Node5</title>
<g id="a_node5"><a xlink:href="classMap.html#a63f0e5040c86652c7239475f8ff3a45a" target="_top" xlink:title="Get neighbor MapNode Objects Stores pointers to the neighboring nodes of the given coordinates in the...">
<polygon fill="none" stroke="black" points="685,-143 685,-162 792,-162 792,-143 685,-143"/>
<text text-anchor="middle" x="738.5" y="-150" font-family="Helvetica,sans-Serif" font-size="10.00">Map::getNeighbors</text>
</a>
</g>
</g>
<!-- Node4&#45;&gt;Node5 -->
<g id="edge4" class="edge"><title>Node4&#45;&gt;Node5</title>
<path fill="none" stroke="midnightblue" d="M563.598,-69.0529C583.876,-84.6352 626.492,-115.579 667,-133.5 672.421,-135.898 678.215,-138.055 684.063,-139.977"/>
<polygon fill="midnightblue" stroke="midnightblue" points="683.315,-143.408 693.902,-142.993 685.367,-136.716 683.315,-143.408"/>
</g>
<!-- Node6 -->
<g id="node6" class="node"><title>Node6</title>
<g id="a_node6"><a xlink:href="classMap.html#a0ff55eb041cdf29aa582a21145319ce0" target="_top" xlink:title="Get elevated neighbor positions in a bitmask Checks all neighboring tiles and returns the elevated ne...">
<polygon fill="none" stroke="black" points="667,-93.5 667,-123.5 810,-123.5 810,-93.5 667,-93.5"/>
<text text-anchor="start" x="675" y="-111.5" font-family="Helvetica,sans-Serif" font-size="10.00">Map::getElevatedNeighbor</text>
<text text-anchor="middle" x="738.5" y="-100.5" font-family="Helvetica,sans-Serif" font-size="10.00">Bitmask</text>
</a>
</g>
</g>
<!-- Node4&#45;&gt;Node6 -->
<g id="edge5" class="edge"><title>Node4&#45;&gt;Node6</title>
<path fill="none" stroke="midnightblue" d="M587.804,-69.064C611.352,-75.2676 642.743,-83.5371 670.696,-90.901"/>
<polygon fill="midnightblue" stroke="midnightblue" points="669.859,-94.3 680.421,-93.463 671.642,-87.5309 669.859,-94.3"/>
</g>
<!-- Node7 -->
<g id="node7" class="node"><title>Node7</title>
<g id="a_node7"><a xlink:href="classMap.html#a392940f84796653b8e811ed8dc296c84" target="_top" xlink:title="Get a bitmask that represents same&#45;tile neighbors Checks all neighboring tiles and returns the elevat...">
<polygon fill="none" stroke="black" points="670,-44.5 670,-74.5 807,-74.5 807,-44.5 670,-44.5"/>
<text text-anchor="start" x="678" y="-62.5" font-family="Helvetica,sans-Serif" font-size="10.00">Map::getNeighboringTiles</text>
<text text-anchor="middle" x="738.5" y="-51.5" font-family="Helvetica,sans-Serif" font-size="10.00">Bitmask</text>
</a>
</g>
</g>
<!-- Node4&#45;&gt;Node7 -->
<g id="edge7" class="edge"><title>Node4&#45;&gt;Node7</title>
<path fill="none" stroke="midnightblue" d="M631.19,-59.5C640.676,-59.5 650.35,-59.5 659.807,-59.5"/>
<polygon fill="midnightblue" stroke="midnightblue" points="659.965,-63.0001 669.965,-59.5 659.965,-56.0001 659.965,-63.0001"/>
</g>
<!-- Node8 -->
<g id="node8" class="node"><title>Node8</title>
<g id="a_node8"><a xlink:href="classMap.html#aba5154a4d917900679a3c0f7ec701561" target="_top" xlink:title="Increase Height Increases the height of the node and checks the surrounding tiles. Either draw a slope sprite or elevate the tile if necessary. ">
<polygon fill="none" stroke="black" points="681,-6 681,-25 796,-25 796,-6 681,-6"/>
<text text-anchor="middle" x="738.5" y="-13" font-family="Helvetica,sans-Serif" font-size="10.00">Map::increaseHeight</text>
</a>
</g>
</g>
<!-- Node4&#45;&gt;Node8 -->
<g id="edge8" class="edge"><title>Node4&#45;&gt;Node8</title>
<path fill="none" stroke="midnightblue" d="M572.837,-49.9587C596.633,-42.3296 636.314,-32.2726 670.759,-24.7833"/>
<polygon fill="midnightblue" stroke="midnightblue" points="671.736,-28.1538 680.786,-22.6453 670.276,-21.3076 671.736,-28.1538"/>
</g>
<!-- Node8&#45;&gt;Node3 -->
<g id="edge10" class="edge"><title>Node8&#45;&gt;Node3</title>
<path fill="none" stroke="midnightblue" d="M680.726,-15.5C616.461,-15.5 511.944,-15.5 444.339,-15.5"/>
<polygon fill="midnightblue" stroke="midnightblue" points="444.23,-12.0001 434.23,-15.5 444.23,-19.0001 444.23,-12.0001"/>
</g>
<!-- Node8&#45;&gt;Node4 -->
<g id="edge11" class="edge"><title>Node8&#45;&gt;Node4</title>
<path fill="none" stroke="midnightblue" d="M715.905,-25.1241C694.657,-31.9191 660.926,-40.6171 629.532,-47.7126"/>
<polygon fill="midnightblue" stroke="midnightblue" points="628.442,-44.3692 619.44,-49.9555 629.961,-51.2025 628.442,-44.3692"/>
</g>
<!-- Node9 -->
<g id="node9" class="node"><title>Node9</title>
<g id="a_node9"><a xlink:href="classSingleton.html#af5cb1e5749949e2b68416cfb8d378044" target="_top" xlink:title="Get an instance of the singleton. ">
<polygon fill="none" stroke="black" points="846,-0.5 846,-30.5 959,-30.5 959,-0.5 846,-0.5"/>
<text text-anchor="start" x="854" y="-18.5" font-family="Helvetica,sans-Serif" font-size="10.00">Singleton&lt; Settings</text>
<text text-anchor="middle" x="902.5" y="-7.5" font-family="Helvetica,sans-Serif" font-size="10.00"> &gt;::instance</text>
</a>
</g>
</g>
<!-- Node8&#45;&gt;Node9 -->
<g id="edge9" class="edge"><title>Node8&#45;&gt;Node9</title>
<path fill="none" stroke="midnightblue" d="M796.16,-15.5C808.903,-15.5 822.532,-15.5 835.616,-15.5"/>
<polygon fill="midnightblue" stroke="midnightblue" points="835.965,-19.0001 845.965,-15.5 835.965,-12.0001 835.965,-19.0001"/>
</g>
</g>
</svg>
