<?xml version="1.0" encoding="UTF-8" standalone="no"?>
<!DOCTYPE svg PUBLIC "-//W3C//DTD SVG 1.1//EN"
 "http://www.w3.org/Graphics/SVG/1.1/DTD/svg11.dtd">
<!-- Generated by graphviz version 2.38.0 (20140413.2041)
 -->
<!-- Title: Engine::loadGame Pages: 1 -->
<svg width="957pt" height="104pt"
 viewBox="0.00 0.00 957.00 104.00" xmlns="http://www.w3.org/2000/svg" xmlns:xlink="http://www.w3.org/1999/xlink">
<g id="graph0" class="graph" transform="scale(1 1) rotate(0) translate(4 100)">
<title>Engine::loadGame</title>
<!-- Node1 -->
<g id="node1" class="node"><title>Node1</title>
<polygon fill="#bfbfbf" stroke="black" points="0,-38.5 0,-57.5 104,-57.5 104,-38.5 0,-38.5"/>
<text text-anchor="middle" x="52" y="-45.5" font-family="Helvetica,sans-Serif" font-size="10.00">Engine::loadGame</text>
</g>
<!-- Node2 -->
<g id="node2" class="node"><title>Node2</title>
<g id="a_node2"><a xlink:href="classEngine.html#a0ba57971ffb5173ecc425461f65a4cd8" target="_top" xlink:title="Quits the game Sets m_running to false and quitting the game. ">
<polygon fill="none" stroke="black" points="140,-38.5 140,-57.5 242,-57.5 242,-38.5 140,-38.5"/>
<text text-anchor="middle" x="191" y="-45.5" font-family="Helvetica,sans-Serif" font-size="10.00">Engine::quitGame</text>
</a>
</g>
</g>
<!-- Node1&#45;&gt;Node2 -->
<g id="edge1" class="edge"><title>Node1&#45;&gt;Node2</title>
<path fill="none" stroke="midnightblue" d="M114.039,-48C122.67,-48 131.461,-48 139.855,-48"/>
<polygon fill="midnightblue" stroke="midnightblue" points="114.014,-44.5001 104.014,-48 114.014,-51.5001 114.014,-44.5001"/>
</g>
<!-- Node7 -->
<g id="node7" class="node"><title>Node7</title>
<g id="a_node7"><a xlink:href="classUIManager.html#aa78e356fc3b356d790c848319d1c387e" target="_top" xlink:title="UIManager::setCallbackFunctions">
<polygon fill="none" stroke="black" points="278,-76.5 278,-95.5 452,-95.5 452,-76.5 278,-76.5"/>
<text text-anchor="middle" x="365" y="-83.5" font-family="Helvetica,sans-Serif" font-size="10.00">UIManager::setCallbackFunctions</text>
</a>
</g>
</g>
<!-- Node1&#45;&gt;Node7 -->
<g id="edge11" class="edge"><title>Node1&#45;&gt;Node7</title>
<path fill="none" stroke="midnightblue" d="M101.179,-59.6941C113.755,-62.4237 127.334,-65.0882 140,-67 185.248,-73.8301 236.037,-78.3894 277.8,-81.3252"/>
<polygon fill="midnightblue" stroke="midnightblue" points="101.867,-56.2616 91.3449,-57.5041 100.345,-63.0942 101.867,-56.2616"/>
</g>
<!-- Node9 -->
<g id="node9" class="node"><title>Node9</title>
<g id="a_node9"><a xlink:href="classGame.html#a5ed7fc5be77080f7f6dd5363f7f007a1" target="_top" xlink:title="Game::mainMenu">
<polygon fill="none" stroke="black" points="314,-0.5 314,-19.5 416,-19.5 416,-0.5 314,-0.5"/>
<text text-anchor="middle" x="365" y="-7.5" font-family="Helvetica,sans-Serif" font-size="10.00">Game::mainMenu</text>
</a>
</g>
</g>
<!-- Node1&#45;&gt;Node9 -->
<g id="edge12" class="edge"><title>Node1&#45;&gt;Node9</title>
<path fill="none" stroke="midnightblue" d="M101.179,-36.3059C113.755,-33.5763 127.334,-30.9118 140,-29 199.431,-20.0291 268.419,-14.9756 313.96,-12.3728"/>
<polygon fill="midnightblue" stroke="midnightblue" points="100.345,-32.9058 91.3449,-38.4959 101.867,-39.7384 100.345,-32.9058"/>
</g>
<!-- Node3 -->
<g id="node3" class="node"><title>Node3</title>
<g id="a_node3"><a xlink:href="classEventManager.html#a65ec91fd5016d4f9c4167fb8babed2df" target="_top" xlink:title="EventManager::checkEvents">
<polygon fill="none" stroke="black" points="488,-38.5 488,-57.5 640,-57.5 640,-38.5 488,-38.5"/>
<text text-anchor="middle" x="564" y="-45.5" font-family="Helvetica,sans-Serif" font-size="10.00">EventManager::checkEvents</text>
</a>
</g>
</g>
<!-- Node2&#45;&gt;Node3 -->
<g id="edge2" class="edge"><title>Node2&#45;&gt;Node3</title>
<path fill="none" stroke="midnightblue" d="M252.405,-48C316.656,-48 418.402,-48 487.802,-48"/>
<polygon fill="midnightblue" stroke="midnightblue" points="252.035,-44.5001 242.035,-48 252.035,-51.5001 252.035,-44.5001"/>
</g>
<!-- Node2&#45;&gt;Node7 -->
<g id="edge6" class="edge"><title>Node2&#45;&gt;Node7</title>
<path fill="none" stroke="midnightblue" d="M245.196,-59.7526C269.517,-65.1258 297.955,-71.4086 320.909,-76.4799"/>
<polygon fill="midnightblue" stroke="midnightblue" points="245.922,-56.3288 235.403,-57.589 244.412,-63.164 245.922,-56.3288"/>
</g>
<!-- Node2&#45;&gt;Node9 -->
<g id="edge9" class="edge"><title>Node2&#45;&gt;Node9</title>
<path fill="none" stroke="midnightblue" d="M245.196,-36.2474C269.517,-30.8742 297.955,-24.5914 320.909,-19.5201"/>
<polygon fill="midnightblue" stroke="midnightblue" points="244.412,-32.836 235.403,-38.411 245.922,-39.6712 244.412,-32.836"/>
</g>
<!-- Node4 -->
<g id="node4" class="node"><title>Node4</title>
<g id="a_node4"><a xlink:href="classGame.html#a1c2ab25d5216b2f4b2fe41efd2c09114" target="_top" xlink:title="Game::run">
<polygon fill="none" stroke="black" points="676,-38.5 676,-57.5 744,-57.5 744,-38.5 676,-38.5"/>
<text text-anchor="middle" x="710" y="-45.5" font-family="Helvetica,sans-Serif" font-size="10.00">Game::run</text>
</a>
</g>
</g>
<!-- Node3&#45;&gt;Node4 -->
<g id="edge3" class="edge"><title>Node3&#45;&gt;Node4</title>
<path fill="none" stroke="midnightblue" d="M650.473,-48C659.339,-48 667.922,-48 675.658,-48"/>
<polygon fill="midnightblue" stroke="midnightblue" points="650.374,-44.5001 640.374,-48 650.374,-51.5001 650.374,-44.5001"/>
</g>
<!-- Node5 -->
<g id="node5" class="node"><title>Node5</title>
<g id="a_node5"><a xlink:href="main_8cxx.html#af582d708d899e67ead623eac34a22387" target="_top" xlink:title="protected_main">
<polygon fill="none" stroke="black" points="780,-19.5 780,-38.5 872,-38.5 872,-19.5 780,-19.5"/>
<text text-anchor="middle" x="826" y="-26.5" font-family="Helvetica,sans-Serif" font-size="10.00">protected_main</text>
</a>
</g>
</g>
<!-- Node4&#45;&gt;Node5 -->
<g id="edge4" class="edge"><title>Node4&#45;&gt;Node5</title>
<path fill="none" stroke="midnightblue" d="M754.165,-40.8058C762.482,-39.4197 771.216,-37.9639 779.601,-36.5665"/>
<polygon fill="midnightblue" stroke="midnightblue" points="753.568,-37.3569 744.28,-42.4533 754.719,-44.2616 753.568,-37.3569"/>
</g>
<!-- Node6 -->
<g id="node6" class="node"><title>Node6</title>
<g id="a_node6"><a xlink:href="main_8cxx.html#a3c04138a5bfe5d72780bb7e82a18e627" target="_top" xlink:title="main">
<polygon fill="none" stroke="black" points="908,-19.5 908,-38.5 949,-38.5 949,-19.5 908,-19.5"/>
<text text-anchor="middle" x="928.5" y="-26.5" font-family="Helvetica,sans-Serif" font-size="10.00">main</text>
</a>
</g>
</g>
<!-- Node5&#45;&gt;Node6 -->
<g id="edge5" class="edge"><title>Node5&#45;&gt;Node6</title>
<path fill="none" stroke="midnightblue" d="M882.539,-29C891.619,-29 900.466,-29 907.877,-29"/>
<polygon fill="midnightblue" stroke="midnightblue" points="882.252,-25.5001 872.252,-29 882.252,-32.5001 882.252,-25.5001"/>
</g>
<!-- Node8 -->
<g id="node8" class="node"><title>Node8</title>
<g id="a_node8"><a xlink:href="classUIManager.html#aedd9d0577af515a852425dfe414b2968" target="_top" xlink:title="Parses the UiLayout.json files and creates UI Elements. ">
<polygon fill="none" stroke="black" points="519.5,-76.5 519.5,-95.5 608.5,-95.5 608.5,-76.5 519.5,-76.5"/>
<text text-anchor="middle" x="564" y="-83.5" font-family="Helvetica,sans-Serif" font-size="10.00">UIManager::init</text>
</a>
</g>
</g>
<!-- Node7&#45;&gt;Node8 -->
<g id="edge7" class="edge"><title>Node7&#45;&gt;Node8</title>
<path fill="none" stroke="midnightblue" d="M462.264,-86C482.329,-86 502.518,-86 519.498,-86"/>
<polygon fill="midnightblue" stroke="midnightblue" points="462.121,-82.5001 452.12,-86 462.12,-89.5001 462.121,-82.5001"/>
</g>
<!-- Node8&#45;&gt;Node4 -->
<g id="edge8" class="edge"><title>Node8&#45;&gt;Node4</title>
<path fill="none" stroke="midnightblue" d="M613.113,-73.9676C622.059,-71.686 631.32,-69.2944 640,-67 651.652,-63.9201 664.38,-60.4464 675.697,-57.3195"/>
<polygon fill="midnightblue" stroke="midnightblue" points="612.025,-70.6327 603.194,-76.4859 613.747,-77.4174 612.025,-70.6327"/>
</g>
<!-- Node9&#45;&gt;Node5 -->
<g id="edge10" class="edge"><title>Node9&#45;&gt;Node5</title>
<path fill="none" stroke="midnightblue" d="M426.575,-12.5075C519.963,-16.3732 696.974,-23.7005 779.949,-27.1352"/>
<polygon fill="midnightblue" stroke="midnightblue" points="426.57,-9.00436 416.434,-12.0877 426.281,-15.9984 426.57,-9.00436"/>
</g>
</g>
</svg>
