<?xml version="1.0" encoding="UTF-8" standalone="no"?>
<!DOCTYPE svg PUBLIC "-//W3C//DTD SVG 1.1//EN"
 "http://www.w3.org/Graphics/SVG/1.1/DTD/svg11.dtd">
<!-- Generated by graphviz version 2.38.0 (20140413.2041)
 -->
<!-- Title: MapNode::updateTexture Pages: 1 -->
<svg width="468pt" height="120pt"
 viewBox="0.00 0.00 468.00 119.60" xmlns="http://www.w3.org/2000/svg" xmlns:xlink="http://www.w3.org/1999/xlink">
<g id="graph0" class="graph" transform="scale(1 1) rotate(0) translate(4 115.597)">
<title>MapNode::updateTexture</title>
<!-- Node1 -->
<g id="node1" class="node"><title>Node1</title>
<polygon fill="#bfbfbf" stroke="black" points="0,-57.5 0,-76.5 137,-76.5 137,-57.5 0,-57.5"/>
<text text-anchor="middle" x="68.5" y="-64.5" font-family="Helvetica,sans-Serif" font-size="10.00">MapNode::updateTexture</text>
</g>
<!-- Node2 -->
<g id="node2" class="node"><title>Node2</title>
<g id="a_node2"><a xlink:href="classMapNode.html#ac2fd11448837a8b56a58601238e824b2" target="_top" xlink:title="MapNode::MapNode">
<polygon fill="none" stroke="black" points="346,-76.5 346,-95.5 460,-95.5 460,-76.5 346,-76.5"/>
<text text-anchor="middle" x="403" y="-83.5" font-family="Helvetica,sans-Serif" font-size="10.00">MapNode::MapNode</text>
</a>
</g>
</g>
<!-- Node1&#45;&gt;Node2 -->
<g id="edge1" class="edge"><title>Node1&#45;&gt;Node2</title>
<path fill="none" stroke="midnightblue" d="M98.4623,-80.7618C118.802,-89.6397 146.925,-100.365 173,-105 232.949,-115.657 249.427,-111.19 310,-105 328.172,-103.143 348.053,-99.2743 364.669,-95.5094"/>
<polygon fill="midnightblue" stroke="midnightblue" points="99.7023,-77.4822 89.1454,-76.5867 96.8397,-83.8701 99.7023,-77.4822"/>
</g>
<!-- Node3 -->
<g id="node3" class="node"><title>Node3</title>
<g id="a_node3"><a xlink:href="classMapNode.html#a56edbdd0e77eeeb82db4d5884c96048b" target="_top" xlink:title="MapNode::setBitmask">
<polygon fill="none" stroke="black" points="180.5,-76.5 180.5,-95.5 302.5,-95.5 302.5,-76.5 180.5,-76.5"/>
<text text-anchor="middle" x="241.5" y="-83.5" font-family="Helvetica,sans-Serif" font-size="10.00">MapNode::setBitmask</text>
</a>
</g>
</g>
<!-- Node1&#45;&gt;Node3 -->
<g id="edge2" class="edge"><title>Node1&#45;&gt;Node3</title>
<path fill="none" stroke="midnightblue" d="M147.22,-75.6355C158.335,-76.8706 169.627,-78.1252 180.336,-79.3151"/>
<polygon fill="midnightblue" stroke="midnightblue" points="147.409,-72.1351 137.084,-74.5093 146.636,-79.0923 147.409,-72.1351"/>
</g>
<!-- Node4 -->
<g id="node4" class="node"><title>Node4</title>
<g id="a_node4"><a xlink:href="classMapNode.html#a397a62e9263feef6c9c85b4e17ef31cb" target="_top" xlink:title="MapNode::setTileID">
<polygon fill="none" stroke="black" points="187,-38.5 187,-57.5 296,-57.5 296,-38.5 187,-38.5"/>
<text text-anchor="middle" x="241.5" y="-45.5" font-family="Helvetica,sans-Serif" font-size="10.00">MapNode::setTileID</text>
</a>
</g>
</g>
<!-- Node1&#45;&gt;Node4 -->
<g id="edge3" class="edge"><title>Node1&#45;&gt;Node4</title>
<path fill="none" stroke="midnightblue" d="M147.247,-58.3615C160.63,-56.8744 174.27,-55.3589 186.838,-53.9624"/>
<polygon fill="midnightblue" stroke="midnightblue" points="146.636,-54.9077 137.084,-59.4907 147.409,-61.8649 146.636,-54.9077"/>
</g>
<!-- Node5 -->
<g id="node5" class="node"><title>Node5</title>
<g id="a_node5"><a xlink:href="classMapNode.html#a604f1e438222bd6d77a6d59a7b39276a" target="_top" xlink:title="MapNode::demolishNode">
<polygon fill="none" stroke="black" points="173,-0.5 173,-19.5 310,-19.5 310,-0.5 173,-0.5"/>
<text text-anchor="middle" x="241.5" y="-7.5" font-family="Helvetica,sans-Serif" font-size="10.00">MapNode::demolishNode</text>
</a>
</g>
</g>
<!-- Node1&#45;&gt;Node5 -->
<g id="edge5" class="edge"><title>Node1&#45;&gt;Node5</title>
<path fill="none" stroke="midnightblue" d="M103.343,-53.8218C123.449,-46.1818 149.525,-36.6006 173,-29 183.192,-25.6999 194.353,-22.4236 204.613,-19.5445"/>
<polygon fill="midnightblue" stroke="midnightblue" points="102.079,-50.5577 93.9897,-57.3993 104.58,-57.0957 102.079,-50.5577"/>
</g>
<!-- Node4&#45;&gt;Node2 -->
<g id="edge4" class="edge"><title>Node4&#45;&gt;Node2</title>
<path fill="none" stroke="midnightblue" d="M292.734,-59.968C315.086,-65.2931 341.038,-71.4762 362.041,-76.4799"/>
<polygon fill="midnightblue" stroke="midnightblue" points="293.288,-56.502 282.749,-57.589 291.665,-63.3114 293.288,-56.502"/>
</g>
</g>
</svg>
