<?xml version="1.0" encoding="UTF-8" standalone="no"?>
<!DOCTYPE svg PUBLIC "-//W3C//DTD SVG 1.1//EN"
 "http://www.w3.org/Graphics/SVG/1.1/DTD/svg11.dtd">
<!-- Generated by graphviz version 2.38.0 (20140413.2041)
 -->
<!-- Title: Map::initMap Pages: 1 -->
<svg width="1233pt" height="182pt"
 viewBox="0.00 0.00 1233.00 181.95" xmlns="http://www.w3.org/2000/svg" xmlns:xlink="http://www.w3.org/1999/xlink">
<g id="graph0" class="graph" transform="scale(1 1) rotate(0) translate(4 177.952)">
<title>Map::initMap</title>
<!-- Node1 -->
<g id="node1" class="node"><title>Node1</title>
<polygon fill="#bfbfbf" stroke="black" points="0,-51.724 0,-70.724 77,-70.724 77,-51.724 0,-51.724"/>
<text text-anchor="middle" x="38.5" y="-58.724" font-family="Helvetica,sans-Serif" font-size="10.00">Map::initMap</text>
</g>
<!-- Node2 -->
<g id="node2" class="node"><title>Node2</title>
<g id="a_node2"><a xlink:href="classEngine.html#a260d4834150eae6eec2bde34df6dc827" target="_top" xlink:title="Creates a new game Creates a new game. ">
<polygon fill="none" stroke="black" points="271.5,-23.724 271.5,-42.724 374.5,-42.724 374.5,-23.724 271.5,-23.724"/>
<text text-anchor="middle" x="323" y="-30.724" font-family="Helvetica,sans-Serif" font-size="10.00">Engine::newGame</text>
</a>
</g>
</g>
<!-- Node1&#45;&gt;Node2 -->
<g id="edge1" class="edge"><title>Node1&#45;&gt;Node2</title>
<path fill="none" stroke="midnightblue" d="M87.14,-56.5021C138.278,-51.4336 219.191,-43.4139 271.432,-38.236"/>
<polygon fill="midnightblue" stroke="midnightblue" points="86.6198,-53.0365 77.0138,-57.5058 87.3103,-60.0023 86.6198,-53.0365"/>
</g>
<!-- Node10 -->
<g id="node10" class="node"><title>Node10</title>
<g id="a_node10"><a xlink:href="classMap.html#afefe996cc1f62b61ec60d0ae415953bf" target="_top" xlink:title="Map::loadMapFromFile">
<polygon fill="none" stroke="black" points="113,-75.724 113,-94.724 235,-94.724 235,-75.724 113,-75.724"/>
<text text-anchor="middle" x="174" y="-82.724" font-family="Helvetica,sans-Serif" font-size="10.00">Map::loadMapFromFile</text>
</a>
</g>
</g>
<!-- Node1&#45;&gt;Node10 -->
<g id="edge12" class="edge"><title>Node1&#45;&gt;Node10</title>
<path fill="none" stroke="midnightblue" d="M86.9779,-69.7593C97.61,-71.6707 108.956,-73.7104 119.803,-75.6604"/>
<polygon fill="midnightblue" stroke="midnightblue" points="87.504,-66.2979 77.0425,-67.9732 86.2654,-73.1874 87.504,-66.2979"/>
</g>
<!-- Node3 -->
<g id="node3" class="node"><title>Node3</title>
<g id="a_node3"><a xlink:href="classEngine.html#af7de8d74b0cfacaf06df53e7caf11538" target="_top" xlink:title="Engine::saveGame">
<polygon fill="none" stroke="black" points="411,-23.724 411,-42.724 518,-42.724 518,-23.724 411,-23.724"/>
<text text-anchor="middle" x="464.5" y="-30.724" font-family="Helvetica,sans-Serif" font-size="10.00">Engine::saveGame</text>
</a>
</g>
</g>
<!-- Node2&#45;&gt;Node3 -->
<g id="edge2" class="edge"><title>Node2&#45;&gt;Node3</title>
<path fill="none" stroke="midnightblue" d="M384.767,-33.224C393.395,-33.224 402.209,-33.224 410.669,-33.224"/>
<polygon fill="midnightblue" stroke="midnightblue" points="384.757,-29.7241 374.757,-33.224 384.757,-36.7241 384.757,-29.7241"/>
</g>
<!-- Node4 -->
<g id="node4" class="node"><title>Node4</title>
<g id="a_node4"><a xlink:href="classUIManager.html#aa78e356fc3b356d790c848319d1c387e" target="_top" xlink:title="UIManager::setCallbackFunctions">
<polygon fill="none" stroke="black" points="554,-61.724 554,-80.724 728,-80.724 728,-61.724 554,-61.724"/>
<text text-anchor="middle" x="641" y="-68.724" font-family="Helvetica,sans-Serif" font-size="10.00">UIManager::setCallbackFunctions</text>
</a>
</g>
</g>
<!-- Node2&#45;&gt;Node4 -->
<g id="edge8" class="edge"><title>Node2&#45;&gt;Node4</title>
<path fill="none" stroke="midnightblue" d="M367.2,-21.2945C406.828,-12.1612 466.943,-2.88493 518,-14.224 559.08,-23.3472 602.706,-47.8208 624.989,-61.548"/>
<polygon fill="midnightblue" stroke="midnightblue" points="366.243,-17.9247 357.336,-23.6626 367.877,-24.7313 366.243,-17.9247"/>
</g>
<!-- Node6 -->
<g id="node6" class="node"><title>Node6</title>
<g id="a_node6"><a xlink:href="classGame.html#a1c2ab25d5216b2f4b2fe41efd2c09114" target="_top" xlink:title="Game::run">
<polygon fill="none" stroke="black" points="952,-80.724 952,-99.724 1020,-99.724 1020,-80.724 952,-80.724"/>
<text text-anchor="middle" x="986" y="-87.724" font-family="Helvetica,sans-Serif" font-size="10.00">Game::run</text>
</a>
</g>
</g>
<!-- Node2&#45;&gt;Node6 -->
<g id="edge11" class="edge"><title>Node2&#45;&gt;Node6</title>
<path fill="none" stroke="midnightblue" d="M355.574,-19.9694C371.82,-13.8562 392.129,-7.28633 411,-4.22399 457.941,3.39357 470.53,-1.37181 518,-4.22399 695.85,-14.9099 746.415,2.41882 916,-52.224 936.566,-58.8508 958.03,-71.7726 971.449,-80.6947"/>
<polygon fill="midnightblue" stroke="midnightblue" points="354.083,-16.7938 346.032,-23.6813 356.621,-23.3175 354.083,-16.7938"/>
</g>
<!-- Node9 -->
<g id="node9" class="node"><title>Node9</title>
<g id="a_node9"><a xlink:href="classGame.html#a5ed7fc5be77080f7f6dd5363f7f007a1" target="_top" xlink:title="Game::mainMenu">
<polygon fill="none" stroke="black" points="590,-137.724 590,-156.724 692,-156.724 692,-137.724 590,-137.724"/>
<text text-anchor="middle" x="641" y="-144.724" font-family="Helvetica,sans-Serif" font-size="10.00">Game::mainMenu</text>
</a>
</g>
</g>
<!-- Node2&#45;&gt;Node9 -->
<g id="edge9" class="edge"><title>Node2&#45;&gt;Node9</title>
<path fill="none" stroke="midnightblue" d="M348.467,-48.6847C357.414,-55.0213 367.236,-62.8378 375,-71.224 395.355,-93.2112 385.38,-112.687 411,-128.224 465.237,-161.115 540.44,-160.478 589.643,-155.274"/>
<polygon fill="midnightblue" stroke="midnightblue" points="350.158,-45.602 339.92,-42.875 346.222,-51.3912 350.158,-45.602"/>
</g>
<!-- Node3&#45;&gt;Node4 -->
<g id="edge3" class="edge"><title>Node3&#45;&gt;Node4</title>
<path fill="none" stroke="midnightblue" d="M519.469,-44.9766C544.143,-50.3498 572.995,-56.6326 596.283,-61.7039"/>
<polygon fill="midnightblue" stroke="midnightblue" points="520.049,-41.521 509.534,-42.813 518.56,-48.3607 520.049,-41.521"/>
</g>
<!-- Node5 -->
<g id="node5" class="node"><title>Node5</title>
<g id="a_node5"><a xlink:href="classUIManager.html#aedd9d0577af515a852425dfe414b2968" target="_top" xlink:title="Parses the UiLayout.json files and creates UI Elements. ">
<polygon fill="none" stroke="black" points="795.5,-61.724 795.5,-80.724 884.5,-80.724 884.5,-61.724 795.5,-61.724"/>
<text text-anchor="middle" x="840" y="-68.724" font-family="Helvetica,sans-Serif" font-size="10.00">UIManager::init</text>
</a>
</g>
</g>
<!-- Node4&#45;&gt;Node5 -->
<g id="edge4" class="edge"><title>Node4&#45;&gt;Node5</title>
<path fill="none" stroke="midnightblue" d="M738.264,-71.224C758.329,-71.224 778.518,-71.224 795.498,-71.224"/>
<polygon fill="midnightblue" stroke="midnightblue" points="738.121,-67.7241 728.12,-71.224 738.12,-74.7241 738.121,-67.7241"/>
</g>
<!-- Node5&#45;&gt;Node6 -->
<g id="edge5" class="edge"><title>Node5&#45;&gt;Node6</title>
<path fill="none" stroke="midnightblue" d="M894.679,-78.3066C913.774,-80.8261 934.712,-83.5887 951.616,-85.8191"/>
<polygon fill="midnightblue" stroke="midnightblue" points="894.967,-74.8144 884.596,-76.9762 894.052,-81.7543 894.967,-74.8144"/>
</g>
<!-- Node7 -->
<g id="node7" class="node"><title>Node7</title>
<g id="a_node7"><a xlink:href="main_8cxx.html#af582d708d899e67ead623eac34a22387" target="_top" xlink:title="protected_main">
<polygon fill="none" stroke="black" points="1056,-108.724 1056,-127.724 1148,-127.724 1148,-108.724 1056,-108.724"/>
<text text-anchor="middle" x="1102" y="-115.724" font-family="Helvetica,sans-Serif" font-size="10.00">protected_main</text>
</a>
</g>
</g>
<!-- Node6&#45;&gt;Node7 -->
<g id="edge6" class="edge"><title>Node6&#45;&gt;Node7</title>
<path fill="none" stroke="midnightblue" d="M1030.14,-100.82C1040.69,-103.411 1051.92,-106.169 1062.25,-108.707"/>
<polygon fill="midnightblue" stroke="midnightblue" points="1030.83,-97.3844 1020.28,-98.398 1029.16,-104.182 1030.83,-97.3844"/>
</g>
<!-- Node8 -->
<g id="node8" class="node"><title>Node8</title>
<g id="a_node8"><a xlink:href="main_8cxx.html#a3c04138a5bfe5d72780bb7e82a18e627" target="_top" xlink:title="main">
<polygon fill="none" stroke="black" points="1184,-108.724 1184,-127.724 1225,-127.724 1225,-108.724 1184,-108.724"/>
<text text-anchor="middle" x="1204.5" y="-115.724" font-family="Helvetica,sans-Serif" font-size="10.00">main</text>
</a>
</g>
</g>
<!-- Node7&#45;&gt;Node8 -->
<g id="edge7" class="edge"><title>Node7&#45;&gt;Node8</title>
<path fill="none" stroke="midnightblue" d="M1158.54,-118.224C1167.62,-118.224 1176.47,-118.224 1183.88,-118.224"/>
<polygon fill="midnightblue" stroke="midnightblue" points="1158.25,-114.724 1148.25,-118.224 1158.25,-121.724 1158.25,-114.724"/>
</g>
<!-- Node9&#45;&gt;Node7 -->
<g id="edge10" class="edge"><title>Node9&#45;&gt;Node7</title>
<path fill="none" stroke="midnightblue" d="M702.575,-143.397C795.963,-137.496 972.974,-126.313 1055.95,-121.07"/>
<polygon fill="midnightblue" stroke="midnightblue" points="702.193,-139.914 692.434,-144.038 702.635,-146.9 702.193,-139.914"/>
</g>
<!-- Node11 -->
<g id="node11" class="node"><title>Node11</title>
<g id="a_node11"><a xlink:href="classEngine.html#a83b7dbeee899b36a13d5b07c7ad87ebc" target="_top" xlink:title="Loads a saved game Loads a saved Game. ">
<polygon fill="none" stroke="black" points="271,-80.724 271,-99.724 375,-99.724 375,-80.724 271,-80.724"/>
<text text-anchor="middle" x="323" y="-87.724" font-family="Helvetica,sans-Serif" font-size="10.00">Engine::loadGame</text>
</a>
</g>
</g>
<!-- Node10&#45;&gt;Node11 -->
<g id="edge13" class="edge"><title>Node10&#45;&gt;Node11</title>
<path fill="none" stroke="midnightblue" d="M245.478,-87.6212C253.938,-87.909 262.452,-88.1986 270.57,-88.4747"/>
<polygon fill="midnightblue" stroke="midnightblue" points="245.328,-84.1142 235.215,-87.2721 245.09,-91.1101 245.328,-84.1142"/>
</g>
<!-- Node11&#45;&gt;Node4 -->
<g id="edge19" class="edge"><title>Node11&#45;&gt;Node4</title>
<path fill="none" stroke="midnightblue" d="M385.346,-86.5354C433.267,-83.6541 500.45,-79.6146 553.779,-76.4082"/>
<polygon fill="midnightblue" stroke="midnightblue" points="384.894,-83.0562 375.122,-87.1502 385.314,-90.0436 384.894,-83.0562"/>
</g>
<!-- Node11&#45;&gt;Node9 -->
<g id="edge20" class="edge"><title>Node11&#45;&gt;Node9</title>
<path fill="none" stroke="midnightblue" d="M338.419,-107.489C354.172,-124.875 381.171,-150.597 411,-161.224 478.163,-185.151 563.362,-168.773 608.539,-156.756"/>
<polygon fill="midnightblue" stroke="midnightblue" points="340.845,-104.947 331.626,-99.7272 335.578,-109.557 340.845,-104.947"/>
</g>
<!-- Node12 -->
<g id="node12" class="node"><title>Node12</title>
<g id="a_node12"><a xlink:href="classEngine.html#a0ba57971ffb5173ecc425461f65a4cd8" target="_top" xlink:title="Quits the game Sets m_running to false and quitting the game. ">
<polygon fill="none" stroke="black" points="413.5,-99.724 413.5,-118.724 515.5,-118.724 515.5,-99.724 413.5,-99.724"/>
<text text-anchor="middle" x="464.5" y="-106.724" font-family="Helvetica,sans-Serif" font-size="10.00">Engine::quitGame</text>
</a>
</g>
</g>
<!-- Node11&#45;&gt;Node12 -->
<g id="edge14" class="edge"><title>Node11&#45;&gt;Node12</title>
<path fill="none" stroke="midnightblue" d="M385.214,-98.5614C394.593,-99.8388 404.181,-101.145 413.285,-102.385"/>
<polygon fill="midnightblue" stroke="midnightblue" points="385.533,-95.0726 375.153,-97.191 384.589,-102.009 385.533,-95.0726"/>
</g>
<!-- Node12&#45;&gt;Node4 -->
<g id="edge17" class="edge"><title>Node12&#45;&gt;Node4</title>
<path fill="none" stroke="midnightblue" d="M519.469,-97.4714C544.143,-92.0982 572.995,-85.8154 596.283,-80.744"/>
<polygon fill="midnightblue" stroke="midnightblue" points="518.56,-94.0873 509.534,-99.635 520.049,-100.927 518.56,-94.0873"/>
</g>
<!-- Node12&#45;&gt;Node9 -->
<g id="edge18" class="edge"><title>Node12&#45;&gt;Node9</title>
<path fill="none" stroke="midnightblue" d="M519.469,-120.977C544.143,-126.35 572.995,-132.633 596.283,-137.704"/>
<polygon fill="midnightblue" stroke="midnightblue" points="520.049,-117.521 509.534,-118.813 518.56,-124.361 520.049,-117.521"/>
</g>
<!-- Node13 -->
<g id="node13" class="node"><title>Node13</title>
<g id="a_node13"><a xlink:href="classEventManager.html#a65ec91fd5016d4f9c4167fb8babed2df" target="_top" xlink:title="EventManager::checkEvents">
<polygon fill="none" stroke="black" points="764,-99.724 764,-118.724 916,-118.724 916,-99.724 764,-99.724"/>
<text text-anchor="middle" x="840" y="-106.724" font-family="Helvetica,sans-Serif" font-size="10.00">EventManager::checkEvents</text>
</a>
</g>
</g>
<!-- Node12&#45;&gt;Node13 -->
<g id="edge15" class="edge"><title>Node12&#45;&gt;Node13</title>
<path fill="none" stroke="midnightblue" d="M525.945,-109.224C590.822,-109.224 693.973,-109.224 763.987,-109.224"/>
<polygon fill="midnightblue" stroke="midnightblue" points="525.872,-105.724 515.872,-109.224 525.872,-112.724 525.872,-105.724"/>
</g>
<!-- Node13&#45;&gt;Node6 -->
<g id="edge16" class="edge"><title>Node13&#45;&gt;Node6</title>
<path fill="none" stroke="midnightblue" d="M923.474,-98.342C933.464,-97.0239 943.179,-95.742 951.828,-94.6009"/>
<polygon fill="midnightblue" stroke="midnightblue" points="922.878,-94.8902 913.422,-99.6683 923.794,-101.83 922.878,-94.8902"/>
</g>
</g>
</svg>
