<?xml version="1.0" encoding="UTF-8" standalone="no"?>
<!DOCTYPE svg PUBLIC "-//W3C//DTD SVG 1.1//EN"
 "http://www.w3.org/Graphics/SVG/1.1/DTD/svg11.dtd">
<!-- Generated by graphviz version 2.38.0 (20140413.2041)
 -->
<!-- Title: UIManager::setBuildMenuPosition Pages: 1 -->
<!--zoomable 39 -->
<svg id="main" version="1.1" xmlns="http://www.w3.org/2000/svg" xmlns:xlink="http://www.w3.org/1999/xlink" xml:space="preserve" onload="init(evt)">
<style type="text/css"><![CDATA[
.edge:hover path { stroke: red; }
.edge:hover polygon { stroke: red; fill: red; }
]]></style>
<script type="text/javascript"><![CDATA[
var edges = document.getElementsByTagName('g');
if (edges && edges.length) {
  for (var i=0;i<edges.length;i++) {
    if (edges[i].id.substr(0,4)=='edge') {
      edges[i].setAttribute('class','edge');
    }
  }
}
]]></script>
        <defs>
                <circle id="rim" cx="0" cy="0" r="7"/>
                <circle id="rim2" cx="0" cy="0" r="3.5"/>
                <g id="zoomPlus">
                        <use xlink:href="#rim" fill="#404040">
                                <set attributeName="fill" to="#808080" begin="zoomplus.mouseover" end="zoomplus.mouseout"/>
                        </use>
                        <path d="M-4,0h8M0,-4v8" fill="none" stroke="white" stroke-width="1.5" pointer-events="none"/>
                </g>
                <g id="zoomMin">
                        <use xlink:href="#rim" fill="#404040">
                                <set attributeName="fill" to="#808080" begin="zoomminus.mouseover" end="zoomminus.mouseout"/>
                        </use>
                        <path d="M-4,0h8" fill="none" stroke="white" stroke-width="1.5" pointer-events="none"/>
                </g>
                <g id="dirArrow">
                        <path fill="none" stroke="white" stroke-width="1.5" d="M0,-3.0v7 M-2.5,-0.5L0,-3.0L2.5,-0.5"/>
                </g>
               <g id="resetDef">
                       <use xlink:href="#rim2" fill="#404040">
                               <set attributeName="fill" to="#808080" begin="reset.mouseover" end="reset.mouseout"/>
                       </use>
               </g>
        </defs>

<script type="text/javascript">
var viewWidth = 794;
var viewHeight = 39;
var sectionId = 'dynsection-23';
</script>
<script xlink:href="svgpan.js"/>
<svg id="graph" class="graph">
<g id="viewport">
<title>UIManager::setBuildMenuPosition</title>
<!-- Node1 -->
<g id="node1" class="node"><title>Node1</title>
<polygon fill="#bfbfbf" stroke="black" points="0,-6 0,-25 176,-25 176,-6 0,-6"/>
<text text-anchor="middle" x="88" y="-13" font-family="Helvetica,sans-Serif" font-size="10.00">UIManager::setBuildMenuPosition</text>
</g>
<!-- Node2 -->
<g id="node2" class="node"><title>Node2</title>
<g id="a_node2"><a xlink:href="classUIManager.html#a5c4cb8e02504ffa0d3faf45181feab9d" target="_top" xlink:title="Fill UI Widgets whose ID start with a $ with data Used for filling widgets with data, like BuildMenu Position combobox, Screen Resolution ComboBox and so on. ">
<polygon fill="none" stroke="black" points="212,-0.5 212,-30.5 352,-30.5 352,-0.5 212,-0.5"/>
<text text-anchor="start" x="220" y="-18.5" font-family="Helvetica,sans-Serif" font-size="10.00">UIManager::initializeDollar</text>
<text text-anchor="middle" x="282" y="-7.5" font-family="Helvetica,sans-Serif" font-size="10.00">Variables</text>
</a>
</g>
</g>
<!-- Node1&#45;&gt;Node2 -->
<g id="edge1" class="edge"><title>Node1&#45;&gt;Node2</title>
<path fill="none" stroke="midnightblue" d="M186.169,-15.5C194.832,-15.5 203.481,-15.5 211.836,-15.5"/>
<polygon fill="midnightblue" stroke="midnightblue" points="186.012,-12.0001 176.012,-15.5 186.012,-19.0001 186.012,-12.0001"/>
</g>
<!-- Node3 -->
<g id="node3" class="node"><title>Node3</title>
<g id="a_node3"><a xlink:href="classUIManager.html#aedd9d0577af515a852425dfe414b2968" target="_top" xlink:title="Parses the UiLayout.json files and creates UI Elements. ">
<polygon fill="none" stroke="black" points="388,-6 388,-25 477,-25 477,-6 388,-6"/>
<text text-anchor="middle" x="432.5" y="-13" font-family="Helvetica,sans-Serif" font-size="10.00">UIManager::init</text>
</a>
</g>
</g>
<!-- Node2&#45;&gt;Node3 -->
<g id="edge2" class="edge"><title>Node2&#45;&gt;Node3</title>
<path fill="none" stroke="midnightblue" d="M362.274,-15.5C370.985,-15.5 379.604,-15.5 387.648,-15.5"/>
<polygon fill="midnightblue" stroke="midnightblue" points="362.033,-12.0001 352.033,-15.5 362.033,-19.0001 362.033,-12.0001"/>
</g>
<!-- Node4 -->
<g id="node4" class="node"><title>Node4</title>
<g id="a_node4"><a xlink:href="classGame.html#a1c2ab25d5216b2f4b2fe41efd2c09114" target="_top" xlink:title="Game::run">
<polygon fill="none" stroke="black" points="513,-6 513,-25 581,-25 581,-6 513,-6"/>
<text text-anchor="middle" x="547" y="-13" font-family="Helvetica,sans-Serif" font-size="10.00">Game::run</text>
</a>
</g>
</g>
<!-- Node3&#45;&gt;Node4 -->
<g id="edge3" class="edge"><title>Node3&#45;&gt;Node4</title>
<path fill="none" stroke="midnightblue" d="M487.446,-15.5C496.145,-15.5 504.918,-15.5 512.931,-15.5"/>
<polygon fill="midnightblue" stroke="midnightblue" points="487.318,-12.0001 477.318,-15.5 487.318,-19.0001 487.318,-12.0001"/>
</g>
<!-- Node5 -->
<g id="node5" class="node"><title>Node5</title>
<g id="a_node5"><a xlink:href="main_8cxx.html#af582d708d899e67ead623eac34a22387" target="_top" xlink:title="protected_main">
<polygon fill="none" stroke="black" points="617,-6 617,-25 709,-25 709,-6 617,-6"/>
<text text-anchor="middle" x="663" y="-13" font-family="Helvetica,sans-Serif" font-size="10.00">protected_main</text>
</a>
</g>
</g>
<!-- Node4&#45;&gt;Node5 -->
<g id="edge4" class="edge"><title>Node4&#45;&gt;Node5</title>
<path fill="none" stroke="midnightblue" d="M591.44,-15.5C599.674,-15.5 608.308,-15.5 616.601,-15.5"/>
<polygon fill="midnightblue" stroke="midnightblue" points="591.28,-12.0001 581.28,-15.5 591.28,-19.0001 591.28,-12.0001"/>
</g>
<!-- Node6 -->
<g id="node6" class="node"><title>Node6</title>
<g id="a_node6"><a xlink:href="main_8cxx.html#a3c04138a5bfe5d72780bb7e82a18e627" target="_top" xlink:title="main">
<polygon fill="none" stroke="black" points="745,-6 745,-25 786,-25 786,-6 745,-6"/>
<text text-anchor="middle" x="765.5" y="-13" font-family="Helvetica,sans-Serif" font-size="10.00">main</text>
</a>
</g>
</g>
<!-- Node5&#45;&gt;Node6 -->
<g id="edge5" class="edge"><title>Node5&#45;&gt;Node6</title>
<path fill="none" stroke="midnightblue" d="M719.539,-15.5C728.619,-15.5 737.466,-15.5 744.877,-15.5"/>
<polygon fill="midnightblue" stroke="midnightblue" points="719.252,-12.0001 709.252,-15.5 719.252,-19.0001 719.252,-12.0001"/>
</g>
</g>
</svg>
        <g id="navigator" transform="translate(0 0)" fill="#404254">
                <rect fill="#f2f5e9" fill-opacity="0.5" stroke="#606060" stroke-width=".5" x="0" y="0" width="60" height="60"/>
                <use id="zoomplus" xlink:href="#zoomPlus" x="17" y="9" onmousedown="handleZoom(evt,'in')"/>
                <use id="zoomminus" xlink:href="#zoomMin" x="42" y="9" onmousedown="handleZoom(evt,'out')"/>
                <use id="reset" xlink:href="#resetDef" x="30" y="36" onmousedown="handleReset()"/>
                <g id="arrowUp" xlink:href="#dirArrow" transform="translate(30 24)" onmousedown="handlePan(0,-1)">
                  <use xlink:href="#rim" fill="#404040">
                        <set attributeName="fill" to="#808080" begin="arrowUp.mouseover" end="arrowUp.mouseout"/>
                  </use>
                  <path fill="none" stroke="white" stroke-width="1.5" d="M0,-3.0v7 M-2.5,-0.5L0,-3.0L2.5,-0.5"/>
                </g>
                <g id="arrowRight" xlink:href="#dirArrow" transform="rotate(90) translate(36 -43)" onmousedown="handlePan(1,0)">
                  <use xlink:href="#rim" fill="#404040">
                        <set attributeName="fill" to="#808080" begin="arrowRight.mouseover" end="arrowRight.mouseout"/>
                  </use>
                  <path fill="none" stroke="white" stroke-width="1.5" d="M0,-3.0v7 M-2.5,-0.5L0,-3.0L2.5,-0.5"/>
                </g>
                <g id="arrowDown" xlink:href="#dirArrow" transform="rotate(180) translate(-30 -48)" onmousedown="handlePan(0,1)">
                  <use xlink:href="#rim" fill="#404040">
                        <set attributeName="fill" to="#808080" begin="arrowDown.mouseover" end="arrowDown.mouseout"/>
                  </use>
                  <path fill="none" stroke="white" stroke-width="1.5" d="M0,-3.0v7 M-2.5,-0.5L0,-3.0L2.5,-0.5"/>
                </g>
                <g id="arrowLeft" xlink:href="#dirArrow" transform="rotate(270) translate(-36 17)" onmousedown="handlePan(-1,0)">
                  <use xlink:href="#rim" fill="#404040">
                        <set attributeName="fill" to="#808080" begin="arrowLeft.mouseover" end="arrowLeft.mouseout"/>
                  </use>
                  <path fill="none" stroke="white" stroke-width="1.5" d="M0,-3.0v7 M-2.5,-0.5L0,-3.0L2.5,-0.5"/>
                </g>
        </g>
        <svg viewBox="0 0 15 15" width="100%" height="30px" preserveAspectRatio="xMaxYMin meet">
         <g id="arrow_out" transform="scale(0.3 0.3)">
          <a xlink:href="classUIManager_a3ccb2fc669262f18ebdcdf3d5c43a3e8_icgraph_org.svg" target="_base">
           <rect id="button" ry="5" rx="5" y="6" x="6" height="38" width="38"
                fill="#f2f5e9" fill-opacity="0.5" stroke="#606060" stroke-width="1.0"/>
           <path id="arrow"
             d="M 11.500037,31.436501 C 11.940474,20.09759 22.043105,11.32322 32.158766,21.979434 L 37.068811,17.246167 C 37.068811,17.246167 37.088388,32 37.088388,32 L 22.160133,31.978069 C 22.160133,31.978069 26.997745,27.140456 26.997745,27.140456 C 18.528582,18.264221 13.291696,25.230495 11.500037,31.436501 z"
             style="fill:#404040;"/>
          </a>
         </g>
        </svg>
</svg>
