<?xml version="1.0" encoding="UTF-8" standalone="no"?>
<!DOCTYPE svg PUBLIC "-//W3C//DTD SVG 1.1//EN"
 "http://www.w3.org/Graphics/SVG/1.1/DTD/svg11.dtd">
<!-- Generated by graphviz version 2.38.0 (20140413.2041)
 -->
<!-- Title: Button::onMouseButtonUp Pages: 1 -->
<svg width="736pt" height="142pt"
 viewBox="0.00 0.00 736.00 142.00" xmlns="http://www.w3.org/2000/svg" xmlns:xlink="http://www.w3.org/1999/xlink">
<g id="graph0" class="graph" transform="scale(1 1) rotate(0) translate(4 138)">
<title>Button::onMouseButtonUp</title>
<!-- Node1 -->
<g id="node1" class="node"><title>Node1</title>
<polygon fill="#bfbfbf" stroke="black" points="0,-57.5 0,-76.5 144,-76.5 144,-57.5 0,-57.5"/>
<text text-anchor="middle" x="72" y="-64.5" font-family="Helvetica,sans-Serif" font-size="10.00">Button::onMouseButtonUp</text>
</g>
<!-- Node2 -->
<g id="node2" class="node"><title>Node2</title>
<g id="a_node2"><a xlink:href="classUIElement.html#aa7f624963eaeb31043d74219ee24386c" target="_top" xlink:title="Checks if the mouse cursor is over the current UI Element Check if the coordinates match the ones sto...">
<polygon fill="none" stroke="black" points="186,-114.5 186,-133.5 320,-133.5 320,-114.5 186,-114.5"/>
<text text-anchor="middle" x="253" y="-121.5" font-family="Helvetica,sans-Serif" font-size="10.00">UIElement::isMouseOver</text>
</a>
</g>
</g>
<!-- Node1&#45;&gt;Node2 -->
<g id="edge1" class="edge"><title>Node1&#45;&gt;Node2</title>
<path fill="none" stroke="midnightblue" d="M102.961,-76.5405C132.905,-86.076 179.124,-100.794 212.149,-111.31"/>
<polygon fill="midnightblue" stroke="midnightblue" points="211.351,-114.729 221.942,-114.428 213.475,-108.059 211.351,-114.729"/>
</g>
<!-- Node3 -->
<g id="node3" class="node"><title>Node3</title>
<g id="a_node3"><a xlink:href="classUIElement.html#ade4162d6216022e143c769369b64add7" target="_top" xlink:title="Set the button state Sets the mouse button pressed state. ">
<polygon fill="none" stroke="black" points="362,-38.5 362,-57.5 528,-57.5 528,-38.5 362,-38.5"/>
<text text-anchor="middle" x="445" y="-45.5" font-family="Helvetica,sans-Serif" font-size="10.00">UIElement::changeButtonState</text>
</a>
</g>
</g>
<!-- Node1&#45;&gt;Node3 -->
<g id="edge2" class="edge"><title>Node1&#45;&gt;Node3</title>
<path fill="none" stroke="midnightblue" d="M144.006,-70.0203C194.784,-71.4437 264.703,-71.9034 326,-67 345.637,-65.4292 366.937,-62.4104 385.967,-59.2336"/>
<polygon fill="midnightblue" stroke="midnightblue" points="386.722,-62.6554 395.985,-57.513 385.536,-55.7564 386.722,-62.6554"/>
</g>
<!-- Node6 -->
<g id="node6" class="node"><title>Node6</title>
<g id="a_node6"><a xlink:href="classUIElement.html#a98725ac250168ebb2fa676dd481ff495" target="_top" xlink:title="Get the button state Get the current mouse button pressed state. ">
<polygon fill="none" stroke="black" points="180,-38.5 180,-57.5 326,-57.5 326,-38.5 180,-38.5"/>
<text text-anchor="middle" x="253" y="-45.5" font-family="Helvetica,sans-Serif" font-size="10.00">UIElement::getButtonState</text>
</a>
</g>
</g>
<!-- Node1&#45;&gt;Node6 -->
<g id="edge5" class="edge"><title>Node1&#45;&gt;Node6</title>
<path fill="none" stroke="midnightblue" d="M144.003,-59.4634C152.492,-58.5623 161.213,-57.6367 169.842,-56.7207"/>
<polygon fill="midnightblue" stroke="midnightblue" points="170.336,-60.188 179.911,-55.6519 169.597,-53.2271 170.336,-60.188"/>
</g>
<!-- Node7 -->
<g id="node7" class="node"><title>Node7</title>
<g id="a_node7"><a xlink:href="classButton.html#a25f11ea415fdbb64cb897421bf746918" target="_top" xlink:title="Button::setCheckState">
<polygon fill="none" stroke="black" points="190.5,-0.5 190.5,-19.5 315.5,-19.5 315.5,-0.5 190.5,-0.5"/>
<text text-anchor="middle" x="253" y="-7.5" font-family="Helvetica,sans-Serif" font-size="10.00">Button::setCheckState</text>
</a>
</g>
</g>
<!-- Node1&#45;&gt;Node7 -->
<g id="edge6" class="edge"><title>Node1&#45;&gt;Node7</title>
<path fill="none" stroke="midnightblue" d="M98.3115,-57.3393C119.868,-49.274 151.748,-37.7279 180,-29 187.556,-26.6658 195.612,-24.3622 203.498,-22.208"/>
<polygon fill="midnightblue" stroke="midnightblue" points="204.592,-25.5382 213.344,-19.568 202.779,-18.777 204.592,-25.5382"/>
</g>
<!-- Node4 -->
<g id="node4" class="node"><title>Node4</title>
<g id="a_node4"><a xlink:href="classUIElement.html#afdf67550d4140097c7a328d4b22fc1fe" target="_top" xlink:title="UIElement::changeTexture">
<polygon fill="none" stroke="black" points="575,-60.5 575,-79.5 717,-79.5 717,-60.5 575,-60.5"/>
<text text-anchor="middle" x="646" y="-67.5" font-family="Helvetica,sans-Serif" font-size="10.00">UIElement::changeTexture</text>
</a>
</g>
</g>
<!-- Node3&#45;&gt;Node4 -->
<g id="edge3" class="edge"><title>Node3&#45;&gt;Node4</title>
<path fill="none" stroke="midnightblue" d="M528.09,-57.0753C540.218,-58.4161 552.703,-59.7963 564.792,-61.1328"/>
<polygon fill="midnightblue" stroke="midnightblue" points="564.514,-64.6233 574.838,-62.2434 565.283,-57.6657 564.514,-64.6233"/>
</g>
<!-- Node5 -->
<g id="node5" class="node"><title>Node5</title>
<g id="a_node5"><a xlink:href="classSingleton.html#af5cb1e5749949e2b68416cfb8d378044" target="_top" xlink:title="Get an instance of the singleton. ">
<polygon fill="none" stroke="black" points="564,-11 564,-41 728,-41 728,-11 564,-11"/>
<text text-anchor="start" x="572" y="-29" font-family="Helvetica,sans-Serif" font-size="10.00">Singleton&lt; ResourcesManager</text>
<text text-anchor="middle" x="646" y="-18" font-family="Helvetica,sans-Serif" font-size="10.00"> &gt;::instance</text>
</a>
</g>
</g>
<!-- Node3&#45;&gt;Node5 -->
<g id="edge4" class="edge"><title>Node3&#45;&gt;Node5</title>
<path fill="none" stroke="midnightblue" d="M528.09,-38.9247C536.555,-37.9889 545.193,-37.034 553.749,-36.088"/>
<polygon fill="midnightblue" stroke="midnightblue" points="554.186,-39.5612 563.741,-34.9834 553.417,-32.6036 554.186,-39.5612"/>
</g>
<!-- Node7&#45;&gt;Node3 -->
<g id="edge7" class="edge"><title>Node7&#45;&gt;Node3</title>
<path fill="none" stroke="midnightblue" d="M301.945,-19.589C327.582,-24.7165 359.336,-31.0672 386.316,-36.4632"/>
<polygon fill="midnightblue" stroke="midnightblue" points="385.908,-39.9507 396.4,-38.4799 387.28,-33.0867 385.908,-39.9507"/>
</g>
</g>
</svg>
