<?xml version="1.0" encoding="UTF-8" standalone="no"?>
<!DOCTYPE svg PUBLIC "-//W3C//DTD SVG 1.1//EN"
 "http://www.w3.org/Graphics/SVG/1.1/DTD/svg11.dtd">
<!-- Generated by graphviz version 2.38.0 (20140413.2041)
 -->
<!-- Title: TerrainGenerator::generateTerrain Pages: 1 -->
<svg width="1415pt" height="182pt"
 viewBox="0.00 0.00 1415.00 181.95" xmlns="http://www.w3.org/2000/svg" xmlns:xlink="http://www.w3.org/1999/xlink">
<g id="graph0" class="graph" transform="scale(1 1) rotate(0) translate(4 177.952)">
<title>TerrainGenerator::generateTerrain</title>
<!-- Node1 -->
<g id="node1" class="node"><title>Node1</title>
<polygon fill="#bfbfbf" stroke="black" points="0,-46.224 0,-76.224 146,-76.224 146,-46.224 0,-46.224"/>
<text text-anchor="start" x="8" y="-64.224" font-family="Helvetica,sans-Serif" font-size="10.00">TerrainGenerator::generate</text>
<text text-anchor="middle" x="73" y="-53.224" font-family="Helvetica,sans-Serif" font-size="10.00">Terrain</text>
</g>
<!-- Node2 -->
<g id="node2" class="node"><title>Node2</title>
<g id="a_node2"><a xlink:href="classMap.html#a482ac34426e8aa66abb46f60ec329402" target="_top" xlink:title="Initialize the Map with node objects Initialize the Map with node objects. ">
<polygon fill="none" stroke="black" points="182,-51.724 182,-70.724 259,-70.724 259,-51.724 182,-51.724"/>
<text text-anchor="middle" x="220.5" y="-58.724" font-family="Helvetica,sans-Serif" font-size="10.00">Map::initMap</text>
</a>
</g>
</g>
<!-- Node1&#45;&gt;Node2 -->
<g id="edge1" class="edge"><title>Node1&#45;&gt;Node2</title>
<path fill="none" stroke="midnightblue" d="M156.362,-61.224C165.205,-61.224 173.856,-61.224 181.779,-61.224"/>
<polygon fill="midnightblue" stroke="midnightblue" points="156.324,-57.7241 146.324,-61.224 156.324,-64.7241 156.324,-57.7241"/>
</g>
<!-- Node3 -->
<g id="node3" class="node"><title>Node3</title>
<g id="a_node3"><a xlink:href="classEngine.html#a260d4834150eae6eec2bde34df6dc827" target="_top" xlink:title="Creates a new game Creates a new game. ">
<polygon fill="none" stroke="black" points="453.5,-23.724 453.5,-42.724 556.5,-42.724 556.5,-23.724 453.5,-23.724"/>
<text text-anchor="middle" x="505" y="-30.724" font-family="Helvetica,sans-Serif" font-size="10.00">Engine::newGame</text>
</a>
</g>
</g>
<!-- Node2&#45;&gt;Node3 -->
<g id="edge2" class="edge"><title>Node2&#45;&gt;Node3</title>
<path fill="none" stroke="midnightblue" d="M269.14,-56.5021C320.278,-51.4336 401.191,-43.4139 453.432,-38.236"/>
<polygon fill="midnightblue" stroke="midnightblue" points="268.62,-53.0365 259.014,-57.5058 269.31,-60.0023 268.62,-53.0365"/>
</g>
<!-- Node11 -->
<g id="node11" class="node"><title>Node11</title>
<g id="a_node11"><a xlink:href="classMap.html#afefe996cc1f62b61ec60d0ae415953bf" target="_top" xlink:title="Map::loadMapFromFile">
<polygon fill="none" stroke="black" points="295,-75.724 295,-94.724 417,-94.724 417,-75.724 295,-75.724"/>
<text text-anchor="middle" x="356" y="-82.724" font-family="Helvetica,sans-Serif" font-size="10.00">Map::loadMapFromFile</text>
</a>
</g>
</g>
<!-- Node2&#45;&gt;Node11 -->
<g id="edge13" class="edge"><title>Node2&#45;&gt;Node11</title>
<path fill="none" stroke="midnightblue" d="M268.978,-69.7593C279.61,-71.6707 290.956,-73.7104 301.803,-75.6604"/>
<polygon fill="midnightblue" stroke="midnightblue" points="269.504,-66.2979 259.042,-67.9732 268.265,-73.1874 269.504,-66.2979"/>
</g>
<!-- Node4 -->
<g id="node4" class="node"><title>Node4</title>
<g id="a_node4"><a xlink:href="classEngine.html#af7de8d74b0cfacaf06df53e7caf11538" target="_top" xlink:title="Engine::saveGame">
<polygon fill="none" stroke="black" points="593,-23.724 593,-42.724 700,-42.724 700,-23.724 593,-23.724"/>
<text text-anchor="middle" x="646.5" y="-30.724" font-family="Helvetica,sans-Serif" font-size="10.00">Engine::saveGame</text>
</a>
</g>
</g>
<!-- Node3&#45;&gt;Node4 -->
<g id="edge3" class="edge"><title>Node3&#45;&gt;Node4</title>
<path fill="none" stroke="midnightblue" d="M566.767,-33.224C575.395,-33.224 584.209,-33.224 592.669,-33.224"/>
<polygon fill="midnightblue" stroke="midnightblue" points="566.757,-29.7241 556.757,-33.224 566.757,-36.7241 566.757,-29.7241"/>
</g>
<!-- Node5 -->
<g id="node5" class="node"><title>Node5</title>
<g id="a_node5"><a xlink:href="classUIManager.html#aa78e356fc3b356d790c848319d1c387e" target="_top" xlink:title="UIManager::setCallbackFunctions">
<polygon fill="none" stroke="black" points="736,-61.724 736,-80.724 910,-80.724 910,-61.724 736,-61.724"/>
<text text-anchor="middle" x="823" y="-68.724" font-family="Helvetica,sans-Serif" font-size="10.00">UIManager::setCallbackFunctions</text>
</a>
</g>
</g>
<!-- Node3&#45;&gt;Node5 -->
<g id="edge9" class="edge"><title>Node3&#45;&gt;Node5</title>
<path fill="none" stroke="midnightblue" d="M549.2,-21.2945C588.828,-12.1612 648.943,-2.88493 700,-14.224 741.08,-23.3472 784.706,-47.8208 806.989,-61.548"/>
<polygon fill="midnightblue" stroke="midnightblue" points="548.243,-17.9247 539.336,-23.6626 549.877,-24.7313 548.243,-17.9247"/>
</g>
<!-- Node7 -->
<g id="node7" class="node"><title>Node7</title>
<g id="a_node7"><a xlink:href="classGame.html#a1c2ab25d5216b2f4b2fe41efd2c09114" target="_top" xlink:title="Game::run">
<polygon fill="none" stroke="black" points="1134,-80.724 1134,-99.724 1202,-99.724 1202,-80.724 1134,-80.724"/>
<text text-anchor="middle" x="1168" y="-87.724" font-family="Helvetica,sans-Serif" font-size="10.00">Game::run</text>
</a>
</g>
</g>
<!-- Node3&#45;&gt;Node7 -->
<g id="edge12" class="edge"><title>Node3&#45;&gt;Node7</title>
<path fill="none" stroke="midnightblue" d="M537.574,-19.9694C553.82,-13.8562 574.129,-7.28633 593,-4.22399 639.941,3.39357 652.53,-1.37181 700,-4.22399 877.85,-14.9099 928.415,2.41882 1098,-52.224 1118.57,-58.8508 1140.03,-71.7726 1153.45,-80.6947"/>
<polygon fill="midnightblue" stroke="midnightblue" points="536.083,-16.7938 528.032,-23.6813 538.621,-23.3175 536.083,-16.7938"/>
</g>
<!-- Node10 -->
<g id="node10" class="node"><title>Node10</title>
<g id="a_node10"><a xlink:href="classGame.html#a5ed7fc5be77080f7f6dd5363f7f007a1" target="_top" xlink:title="Game::mainMenu">
<polygon fill="none" stroke="black" points="772,-137.724 772,-156.724 874,-156.724 874,-137.724 772,-137.724"/>
<text text-anchor="middle" x="823" y="-144.724" font-family="Helvetica,sans-Serif" font-size="10.00">Game::mainMenu</text>
</a>
</g>
</g>
<!-- Node3&#45;&gt;Node10 -->
<g id="edge10" class="edge"><title>Node3&#45;&gt;Node10</title>
<path fill="none" stroke="midnightblue" d="M530.467,-48.6847C539.414,-55.0213 549.236,-62.8378 557,-71.224 577.355,-93.2112 567.38,-112.687 593,-128.224 647.237,-161.115 722.44,-160.478 771.643,-155.274"/>
<polygon fill="midnightblue" stroke="midnightblue" points="532.158,-45.602 521.92,-42.875 528.222,-51.3912 532.158,-45.602"/>
</g>
<!-- Node4&#45;&gt;Node5 -->
<g id="edge4" class="edge"><title>Node4&#45;&gt;Node5</title>
<path fill="none" stroke="midnightblue" d="M701.469,-44.9766C726.143,-50.3498 754.995,-56.6326 778.283,-61.7039"/>
<polygon fill="midnightblue" stroke="midnightblue" points="702.049,-41.521 691.534,-42.813 700.56,-48.3607 702.049,-41.521"/>
</g>
<!-- Node6 -->
<g id="node6" class="node"><title>Node6</title>
<g id="a_node6"><a xlink:href="classUIManager.html#aedd9d0577af515a852425dfe414b2968" target="_top" xlink:title="Parses the UiLayout.json files and creates UI Elements. ">
<polygon fill="none" stroke="black" points="977.5,-61.724 977.5,-80.724 1066.5,-80.724 1066.5,-61.724 977.5,-61.724"/>
<text text-anchor="middle" x="1022" y="-68.724" font-family="Helvetica,sans-Serif" font-size="10.00">UIManager::init</text>
</a>
</g>
</g>
<!-- Node5&#45;&gt;Node6 -->
<g id="edge5" class="edge"><title>Node5&#45;&gt;Node6</title>
<path fill="none" stroke="midnightblue" d="M920.264,-71.224C940.329,-71.224 960.518,-71.224 977.498,-71.224"/>
<polygon fill="midnightblue" stroke="midnightblue" points="920.121,-67.7241 910.12,-71.224 920.12,-74.7241 920.121,-67.7241"/>
</g>
<!-- Node6&#45;&gt;Node7 -->
<g id="edge6" class="edge"><title>Node6&#45;&gt;Node7</title>
<path fill="none" stroke="midnightblue" d="M1076.68,-78.3066C1095.77,-80.8261 1116.71,-83.5887 1133.62,-85.8191"/>
<polygon fill="midnightblue" stroke="midnightblue" points="1076.97,-74.8144 1066.6,-76.9762 1076.05,-81.7543 1076.97,-74.8144"/>
</g>
<!-- Node8 -->
<g id="node8" class="node"><title>Node8</title>
<g id="a_node8"><a xlink:href="main_8cxx.html#af582d708d899e67ead623eac34a22387" target="_top" xlink:title="protected_main">
<polygon fill="none" stroke="black" points="1238,-108.724 1238,-127.724 1330,-127.724 1330,-108.724 1238,-108.724"/>
<text text-anchor="middle" x="1284" y="-115.724" font-family="Helvetica,sans-Serif" font-size="10.00">protected_main</text>
</a>
</g>
</g>
<!-- Node7&#45;&gt;Node8 -->
<g id="edge7" class="edge"><title>Node7&#45;&gt;Node8</title>
<path fill="none" stroke="midnightblue" d="M1212.14,-100.82C1222.69,-103.411 1233.92,-106.169 1244.25,-108.707"/>
<polygon fill="midnightblue" stroke="midnightblue" points="1212.83,-97.3844 1202.28,-98.398 1211.16,-104.182 1212.83,-97.3844"/>
</g>
<!-- Node9 -->
<g id="node9" class="node"><title>Node9</title>
<g id="a_node9"><a xlink:href="main_8cxx.html#a3c04138a5bfe5d72780bb7e82a18e627" target="_top" xlink:title="main">
<polygon fill="none" stroke="black" points="1366,-108.724 1366,-127.724 1407,-127.724 1407,-108.724 1366,-108.724"/>
<text text-anchor="middle" x="1386.5" y="-115.724" font-family="Helvetica,sans-Serif" font-size="10.00">main</text>
</a>
</g>
</g>
<!-- Node8&#45;&gt;Node9 -->
<g id="edge8" class="edge"><title>Node8&#45;&gt;Node9</title>
<path fill="none" stroke="midnightblue" d="M1340.54,-118.224C1349.62,-118.224 1358.47,-118.224 1365.88,-118.224"/>
<polygon fill="midnightblue" stroke="midnightblue" points="1340.25,-114.724 1330.25,-118.224 1340.25,-121.724 1340.25,-114.724"/>
</g>
<!-- Node10&#45;&gt;Node8 -->
<g id="edge11" class="edge"><title>Node10&#45;&gt;Node8</title>
<path fill="none" stroke="midnightblue" d="M884.575,-143.397C977.963,-137.496 1154.97,-126.313 1237.95,-121.07"/>
<polygon fill="midnightblue" stroke="midnightblue" points="884.193,-139.914 874.434,-144.038 884.635,-146.9 884.193,-139.914"/>
</g>
<!-- Node12 -->
<g id="node12" class="node"><title>Node12</title>
<g id="a_node12"><a xlink:href="classEngine.html#a83b7dbeee899b36a13d5b07c7ad87ebc" target="_top" xlink:title="Loads a saved game Loads a saved Game. ">
<polygon fill="none" stroke="black" points="453,-80.724 453,-99.724 557,-99.724 557,-80.724 453,-80.724"/>
<text text-anchor="middle" x="505" y="-87.724" font-family="Helvetica,sans-Serif" font-size="10.00">Engine::loadGame</text>
</a>
</g>
</g>
<!-- Node11&#45;&gt;Node12 -->
<g id="edge14" class="edge"><title>Node11&#45;&gt;Node12</title>
<path fill="none" stroke="midnightblue" d="M427.478,-87.6212C435.938,-87.909 444.452,-88.1986 452.57,-88.4747"/>
<polygon fill="midnightblue" stroke="midnightblue" points="427.328,-84.1142 417.215,-87.2721 427.09,-91.1101 427.328,-84.1142"/>
</g>
<!-- Node12&#45;&gt;Node5 -->
<g id="edge20" class="edge"><title>Node12&#45;&gt;Node5</title>
<path fill="none" stroke="midnightblue" d="M567.346,-86.5354C615.267,-83.6541 682.45,-79.6146 735.779,-76.4082"/>
<polygon fill="midnightblue" stroke="midnightblue" points="566.894,-83.0562 557.122,-87.1502 567.314,-90.0436 566.894,-83.0562"/>
</g>
<!-- Node12&#45;&gt;Node10 -->
<g id="edge21" class="edge"><title>Node12&#45;&gt;Node10</title>
<path fill="none" stroke="midnightblue" d="M520.419,-107.489C536.172,-124.875 563.171,-150.597 593,-161.224 660.163,-185.151 745.362,-168.773 790.539,-156.756"/>
<polygon fill="midnightblue" stroke="midnightblue" points="522.845,-104.947 513.626,-99.7272 517.578,-109.557 522.845,-104.947"/>
</g>
<!-- Node13 -->
<g id="node13" class="node"><title>Node13</title>
<g id="a_node13"><a xlink:href="classEngine.html#a0ba57971ffb5173ecc425461f65a4cd8" target="_top" xlink:title="Quits the game Sets m_running to false and quitting the game. ">
<polygon fill="none" stroke="black" points="595.5,-99.724 595.5,-118.724 697.5,-118.724 697.5,-99.724 595.5,-99.724"/>
<text text-anchor="middle" x="646.5" y="-106.724" font-family="Helvetica,sans-Serif" font-size="10.00">Engine::quitGame</text>
</a>
</g>
</g>
<!-- Node12&#45;&gt;Node13 -->
<g id="edge15" class="edge"><title>Node12&#45;&gt;Node13</title>
<path fill="none" stroke="midnightblue" d="M567.214,-98.5614C576.593,-99.8388 586.181,-101.145 595.285,-102.385"/>
<polygon fill="midnightblue" stroke="midnightblue" points="567.533,-95.0726 557.153,-97.191 566.589,-102.009 567.533,-95.0726"/>
</g>
<!-- Node13&#45;&gt;Node5 -->
<g id="edge18" class="edge"><title>Node13&#45;&gt;Node5</title>
<path fill="none" stroke="midnightblue" d="M701.469,-97.4714C726.143,-92.0982 754.995,-85.8154 778.283,-80.744"/>
<polygon fill="midnightblue" stroke="midnightblue" points="700.56,-94.0873 691.534,-99.635 702.049,-100.927 700.56,-94.0873"/>
</g>
<!-- Node13&#45;&gt;Node10 -->
<g id="edge19" class="edge"><title>Node13&#45;&gt;Node10</title>
<path fill="none" stroke="midnightblue" d="M701.469,-120.977C726.143,-126.35 754.995,-132.633 778.283,-137.704"/>
<polygon fill="midnightblue" stroke="midnightblue" points="702.049,-117.521 691.534,-118.813 700.56,-124.361 702.049,-117.521"/>
</g>
<!-- Node14 -->
<g id="node14" class="node"><title>Node14</title>
<g id="a_node14"><a xlink:href="classEventManager.html#a65ec91fd5016d4f9c4167fb8babed2df" target="_top" xlink:title="EventManager::checkEvents">
<polygon fill="none" stroke="black" points="946,-99.724 946,-118.724 1098,-118.724 1098,-99.724 946,-99.724"/>
<text text-anchor="middle" x="1022" y="-106.724" font-family="Helvetica,sans-Serif" font-size="10.00">EventManager::checkEvents</text>
</a>
</g>
</g>
<!-- Node13&#45;&gt;Node14 -->
<g id="edge16" class="edge"><title>Node13&#45;&gt;Node14</title>
<path fill="none" stroke="midnightblue" d="M707.945,-109.224C772.822,-109.224 875.973,-109.224 945.987,-109.224"/>
<polygon fill="midnightblue" stroke="midnightblue" points="707.872,-105.724 697.872,-109.224 707.872,-112.724 707.872,-105.724"/>
</g>
<!-- Node14&#45;&gt;Node7 -->
<g id="edge17" class="edge"><title>Node14&#45;&gt;Node7</title>
<path fill="none" stroke="midnightblue" d="M1105.47,-98.342C1115.46,-97.0239 1125.18,-95.742 1133.83,-94.6009"/>
<polygon fill="midnightblue" stroke="midnightblue" points="1104.88,-94.8902 1095.42,-99.6683 1105.79,-101.83 1104.88,-94.8902"/>
</g>
</g>
</svg>
