<?xml version="1.0" encoding="UTF-8" standalone="no"?>
<!DOCTYPE svg PUBLIC "-//W3C//DTD SVG 1.1//EN"
 "http://www.w3.org/Graphics/SVG/1.1/DTD/svg11.dtd">
<!-- Generated by graphviz version 2.38.0 (20140413.2041)
 -->
<!-- Title: WindowManager::setScreenResolution Pages: 1 -->
<svg width="995pt" height="78pt"
 viewBox="0.00 0.00 995.00 77.50" xmlns="http://www.w3.org/2000/svg" xmlns:xlink="http://www.w3.org/1999/xlink">
<g id="graph0" class="graph" transform="scale(1 1) rotate(0) translate(4 73.5)">
<title>WindowManager::setScreenResolution</title>
<!-- Node1 -->
<g id="node1" class="node"><title>Node1</title>
<polygon fill="#bfbfbf" stroke="black" points="0,-22.5 0,-52.5 149,-52.5 149,-22.5 0,-22.5"/>
<text text-anchor="start" x="8" y="-40.5" font-family="Helvetica,sans-Serif" font-size="10.00">WindowManager::setScreen</text>
<text text-anchor="middle" x="74.5" y="-29.5" font-family="Helvetica,sans-Serif" font-size="10.00">Resolution</text>
</g>
<!-- Node2 -->
<g id="node2" class="node"><title>Node2</title>
<g id="a_node2"><a xlink:href="classUIManager.html#ac927e1cd3dea979202ea9dbf1195b583" target="_top" xlink:title="UIManager::changeResolution">
<polygon fill="none" stroke="black" points="185,-28 185,-47 343,-47 343,-28 185,-28"/>
<text text-anchor="middle" x="264" y="-35" font-family="Helvetica,sans-Serif" font-size="10.00">UIManager::changeResolution</text>
</a>
</g>
</g>
<!-- Node1&#45;&gt;Node2 -->
<g id="edge1" class="edge"><title>Node1&#45;&gt;Node2</title>
<path fill="none" stroke="midnightblue" d="M159.301,-37.5C167.751,-37.5 176.31,-37.5 184.699,-37.5"/>
<polygon fill="midnightblue" stroke="midnightblue" points="159.067,-34.0001 149.067,-37.5 159.067,-41.0001 159.067,-34.0001"/>
</g>
<!-- Node3 -->
<g id="node3" class="node"><title>Node3</title>
<g id="a_node3"><a xlink:href="classUIManager.html#aa78e356fc3b356d790c848319d1c387e" target="_top" xlink:title="UIManager::setCallbackFunctions">
<polygon fill="none" stroke="black" points="379,-50 379,-69 553,-69 553,-50 379,-50"/>
<text text-anchor="middle" x="466" y="-57" font-family="Helvetica,sans-Serif" font-size="10.00">UIManager::setCallbackFunctions</text>
</a>
</g>
</g>
<!-- Node2&#45;&gt;Node3 -->
<g id="edge2" class="edge"><title>Node2&#45;&gt;Node3</title>
<path fill="none" stroke="midnightblue" d="M353.16,-47.1976C361.717,-48.1388 370.391,-49.093 378.927,-50.0319"/>
<polygon fill="midnightblue" stroke="midnightblue" points="353.507,-43.7148 343.185,-46.1003 352.742,-50.6728 353.507,-43.7148"/>
</g>
<!-- Node8 -->
<g id="node8" class="node"><title>Node8</title>
<g id="a_node8"><a xlink:href="classUIManager.html#a5c4cb8e02504ffa0d3faf45181feab9d" target="_top" xlink:title="Fill UI Widgets whose ID start with a $ with data Used for filling widgets with data, like BuildMenu Position combobox, Screen Resolution ComboBox and so on. ">
<polygon fill="none" stroke="black" points="396,-0.5 396,-30.5 536,-30.5 536,-0.5 396,-0.5"/>
<text text-anchor="start" x="404" y="-18.5" font-family="Helvetica,sans-Serif" font-size="10.00">UIManager::initializeDollar</text>
<text text-anchor="middle" x="466" y="-7.5" font-family="Helvetica,sans-Serif" font-size="10.00">Variables</text>
</a>
</g>
</g>
<!-- Node2&#45;&gt;Node8 -->
<g id="edge7" class="edge"><title>Node2&#45;&gt;Node8</title>
<path fill="none" stroke="midnightblue" d="M353.481,-27.7671C367.721,-26.2007 382.277,-24.5995 395.973,-23.093"/>
<polygon fill="midnightblue" stroke="midnightblue" points="352.742,-24.3272 343.185,-28.8997 353.507,-31.2852 352.742,-24.3272"/>
</g>
<!-- Node4 -->
<g id="node4" class="node"><title>Node4</title>
<g id="a_node4"><a xlink:href="classUIManager.html#aedd9d0577af515a852425dfe414b2968" target="_top" xlink:title="Parses the UiLayout.json files and creates UI Elements. ">
<polygon fill="none" stroke="black" points="589,-28 589,-47 678,-47 678,-28 589,-28"/>
<text text-anchor="middle" x="633.5" y="-35" font-family="Helvetica,sans-Serif" font-size="10.00">UIManager::init</text>
</a>
</g>
</g>
<!-- Node3&#45;&gt;Node4 -->
<g id="edge3" class="edge"><title>Node3&#45;&gt;Node4</title>
<path fill="none" stroke="midnightblue" d="M548.713,-48.6379C562.602,-46.7916 576.53,-44.9401 588.932,-43.2915"/>
<polygon fill="midnightblue" stroke="midnightblue" points="548.08,-45.1912 538.628,-49.9784 549.002,-52.1301 548.08,-45.1912"/>
</g>
<!-- Node5 -->
<g id="node5" class="node"><title>Node5</title>
<g id="a_node5"><a xlink:href="classGame.html#a1c2ab25d5216b2f4b2fe41efd2c09114" target="_top" xlink:title="Game::run">
<polygon fill="none" stroke="black" points="714,-28 714,-47 782,-47 782,-28 714,-28"/>
<text text-anchor="middle" x="748" y="-35" font-family="Helvetica,sans-Serif" font-size="10.00">Game::run</text>
</a>
</g>
</g>
<!-- Node4&#45;&gt;Node5 -->
<g id="edge4" class="edge"><title>Node4&#45;&gt;Node5</title>
<path fill="none" stroke="midnightblue" d="M688.446,-37.5C697.145,-37.5 705.918,-37.5 713.931,-37.5"/>
<polygon fill="midnightblue" stroke="midnightblue" points="688.318,-34.0001 678.318,-37.5 688.318,-41.0001 688.318,-34.0001"/>
</g>
<!-- Node6 -->
<g id="node6" class="node"><title>Node6</title>
<g id="a_node6"><a xlink:href="main_8cxx.html#af582d708d899e67ead623eac34a22387" target="_top" xlink:title="protected_main">
<polygon fill="none" stroke="black" points="818,-28 818,-47 910,-47 910,-28 818,-28"/>
<text text-anchor="middle" x="864" y="-35" font-family="Helvetica,sans-Serif" font-size="10.00">protected_main</text>
</a>
</g>
</g>
<!-- Node5&#45;&gt;Node6 -->
<g id="edge5" class="edge"><title>Node5&#45;&gt;Node6</title>
<path fill="none" stroke="midnightblue" d="M792.44,-37.5C800.674,-37.5 809.308,-37.5 817.601,-37.5"/>
<polygon fill="midnightblue" stroke="midnightblue" points="792.28,-34.0001 782.28,-37.5 792.28,-41.0001 792.28,-34.0001"/>
</g>
<!-- Node7 -->
<g id="node7" class="node"><title>Node7</title>
<g id="a_node7"><a xlink:href="main_8cxx.html#a3c04138a5bfe5d72780bb7e82a18e627" target="_top" xlink:title="main">
<polygon fill="none" stroke="black" points="946,-28 946,-47 987,-47 987,-28 946,-28"/>
<text text-anchor="middle" x="966.5" y="-35" font-family="Helvetica,sans-Serif" font-size="10.00">main</text>
</a>
</g>
</g>
<!-- Node6&#45;&gt;Node7 -->
<g id="edge6" class="edge"><title>Node6&#45;&gt;Node7</title>
<path fill="none" stroke="midnightblue" d="M920.539,-37.5C929.619,-37.5 938.466,-37.5 945.877,-37.5"/>
<polygon fill="midnightblue" stroke="midnightblue" points="920.252,-34.0001 910.252,-37.5 920.252,-41.0001 920.252,-34.0001"/>
</g>
<!-- Node8&#45;&gt;Node4 -->
<g id="edge8" class="edge"><title>Node8&#45;&gt;Node4</title>
<path fill="none" stroke="midnightblue" d="M546.26,-26.0361C560.817,-27.9711 575.517,-29.9253 588.556,-31.6586"/>
<polygon fill="midnightblue" stroke="midnightblue" points="546.602,-22.5508 536.228,-24.7025 545.68,-29.4898 546.602,-22.5508"/>
</g>
</g>
</svg>
