<?xml version="1.0" encoding="UTF-8" standalone="no"?>
<!DOCTYPE svg PUBLIC "-//W3C//DTD SVG 1.1//EN"
 "http://www.w3.org/Graphics/SVG/1.1/DTD/svg11.dtd">
<!-- Generated by graphviz version 2.38.0 (20140413.2041)
 -->
<!-- Title: MessageQueue::wakeCondition Pages: 1 -->
<svg width="380pt" height="66pt"
 viewBox="0.00 0.00 380.00 66.00" xmlns="http://www.w3.org/2000/svg" xmlns:xlink="http://www.w3.org/1999/xlink">
<g id="graph0" class="graph" transform="scale(1 1) rotate(0) translate(4 62)">
<title>MessageQueue::wakeCondition</title>
<!-- Node1 -->
<g id="node1" class="node"><title>Node1</title>
<polygon fill="#bfbfbf" stroke="black" points="0,-19.5 0,-38.5 166,-38.5 166,-19.5 0,-19.5"/>
<text text-anchor="middle" x="83" y="-26.5" font-family="Helvetica,sans-Serif" font-size="10.00">MessageQueue::wakeCondition</text>
</g>
<!-- Node2 -->
<g id="node2" class="node"><title>Node2</title>
<g id="a_node2"><a xlink:href="classMessageQueue.html#ab96b913f05b4ea1b3c1ac1c8ac3cb78a" target="_top" xlink:title="MessageQueue::peek">
<polygon fill="none" stroke="black" points="227,-38.5 227,-57.5 347,-57.5 347,-38.5 227,-38.5"/>
<text text-anchor="middle" x="287" y="-45.5" font-family="Helvetica,sans-Serif" font-size="10.00">MessageQueue::peek</text>
</a>
</g>
</g>
<!-- Node1&#45;&gt;Node2 -->
<g id="edge1" class="edge"><title>Node1&#45;&gt;Node2</title>
<path fill="none" stroke="midnightblue" d="M176.231,-37.6752C193.425,-39.2925 210.962,-40.942 226.826,-42.4342"/>
<polygon fill="midnightblue" stroke="midnightblue" points="176.445,-34.18 166.161,-36.728 175.789,-41.1492 176.445,-34.18"/>
</g>
<!-- Node3 -->
<g id="node3" class="node"><title>Node3</title>
<g id="a_node3"><a xlink:href="classMessageQueue.html#aac168320314e624c72c8a7c65f672b70" target="_top" xlink:title="MessageQueue::getEnumerable">
<polygon fill="none" stroke="black" points="202,-0.5 202,-19.5 372,-19.5 372,-0.5 202,-0.5"/>
<text text-anchor="middle" x="287" y="-7.5" font-family="Helvetica,sans-Serif" font-size="10.00">MessageQueue::getEnumerable</text>
</a>
</g>
</g>
<!-- Node1&#45;&gt;Node3 -->
<g id="edge2" class="edge"><title>Node1&#45;&gt;Node3</title>
<path fill="none" stroke="midnightblue" d="M176.184,-20.3292C184.768,-19.5218 193.438,-18.7063 201.943,-17.9064"/>
<polygon fill="midnightblue" stroke="midnightblue" points="175.789,-16.8508 166.161,-21.272 176.445,-23.82 175.789,-16.8508"/>
</g>
</g>
</svg>
