<?xml version="1.0" encoding="UTF-8" standalone="no"?>
<!DOCTYPE svg PUBLIC "-//W3C//DTD SVG 1.1//EN"
 "http://www.w3.org/Graphics/SVG/1.1/DTD/svg11.dtd">
<!-- Generated by graphviz version 2.38.0 (20140413.2041)
 -->
<!-- Title: UIElement::getButtonState Pages: 1 -->
<svg width="495pt" height="372pt"
 viewBox="0.00 0.00 495.00 372.19" xmlns="http://www.w3.org/2000/svg" xmlns:xlink="http://www.w3.org/1999/xlink">
<g id="graph0" class="graph" transform="scale(1 1) rotate(0) translate(4 368.194)">
<title>UIElement::getButtonState</title>
<!-- Node1 -->
<g id="node1" class="node"><title>Node1</title>
<polygon fill="#bfbfbf" stroke="black" points="0,-171.5 0,-190.5 146,-190.5 146,-171.5 0,-171.5"/>
<text text-anchor="middle" x="73" y="-178.5" font-family="Helvetica,sans-Serif" font-size="10.00">UIElement::getButtonState</text>
</g>
<!-- Node2 -->
<g id="node2" class="node"><title>Node2</title>
<g id="a_node2"><a xlink:href="classUIElement.html#afa1b8ca68981752ffb5e40e22ee2a946" target="_top" xlink:title="Change the Texture of the button Changes the texture. ">
<polygon fill="none" stroke="black" points="189,-304.5 189,-323.5 346,-323.5 346,-304.5 189,-304.5"/>
<text text-anchor="middle" x="267.5" y="-311.5" font-family="Helvetica,sans-Serif" font-size="10.00">UIElement::drawButtonFrame</text>
</a>
</g>
</g>
<!-- Node1&#45;&gt;Node2 -->
<g id="edge1" class="edge"><title>Node1&#45;&gt;Node2</title>
<path fill="none" stroke="midnightblue" d="M85.9145,-199.185C103.669,-224.751 139.569,-270.886 182,-295 188.798,-298.863 196.321,-301.941 203.993,-304.393"/>
<polygon fill="midnightblue" stroke="midnightblue" points="88.7231,-197.091 80.2159,-190.776 82.9282,-201.017 88.7231,-197.091"/>
</g>
<!-- Node4 -->
<g id="node4" class="node"><title>Node4</title>
<g id="a_node4"><a xlink:href="classCheckbox.html#a05078cbd151f1192fc70ad2a7528aade" target="_top" xlink:title="Draw the UI Element and/or render it&#39;s textures to the screen Renders the texture of the Ui Element...">
<polygon fill="none" stroke="black" points="392,-342.5 392,-361.5 484,-361.5 484,-342.5 392,-342.5"/>
<text text-anchor="middle" x="438" y="-349.5" font-family="Helvetica,sans-Serif" font-size="10.00">Checkbox::draw</text>
</a>
</g>
</g>
<!-- Node1&#45;&gt;Node4 -->
<g id="edge9" class="edge"><title>Node1&#45;&gt;Node4</title>
<path fill="none" stroke="midnightblue" d="M81.263,-200.343C95.0676,-234.056 128.575,-302.856 182,-333 247.535,-369.977 338.076,-366.318 391.781,-359.623"/>
<polygon fill="midnightblue" stroke="midnightblue" points="84.3952,-198.745 77.4731,-190.724 77.8824,-201.311 84.3952,-198.745"/>
</g>
<!-- Node7 -->
<g id="node7" class="node"><title>Node7</title>
<g id="a_node7"><a xlink:href="classButton.html#acfeb33328b356d4fda989808888f81db" target="_top" xlink:title="Button::onMouseButtonUp">
<polygon fill="none" stroke="black" points="195.5,-266.5 195.5,-285.5 339.5,-285.5 339.5,-266.5 195.5,-266.5"/>
<text text-anchor="middle" x="267.5" y="-273.5" font-family="Helvetica,sans-Serif" font-size="10.00">Button::onMouseButtonUp</text>
</a>
</g>
</g>
<!-- Node1&#45;&gt;Node7 -->
<g id="edge6" class="edge"><title>Node1&#45;&gt;Node7</title>
<path fill="none" stroke="midnightblue" d="M92.0408,-197.098C112.448,-214.453 147.366,-241.65 182,-257 190.66,-260.838 200.176,-263.938 209.601,-266.431"/>
<polygon fill="midnightblue" stroke="midnightblue" points="94.3214,-194.443 84.4711,-190.541 89.7384,-199.734 94.3214,-194.443"/>
</g>
<!-- Node8 -->
<g id="node8" class="node"><title>Node8</title>
<g id="a_node8"><a xlink:href="classButton.html#af890652b6918d511cae071f9982c5f2b" target="_top" xlink:title="Button::onMouseEnter">
<polygon fill="none" stroke="black" points="205.5,-228.5 205.5,-247.5 329.5,-247.5 329.5,-228.5 205.5,-228.5"/>
<text text-anchor="middle" x="267.5" y="-235.5" font-family="Helvetica,sans-Serif" font-size="10.00">Button::onMouseEnter</text>
</a>
</g>
</g>
<!-- Node1&#45;&gt;Node8 -->
<g id="edge7" class="edge"><title>Node1&#45;&gt;Node8</title>
<path fill="none" stroke="midnightblue" d="M108.096,-194.15C129.187,-201.996 156.932,-211.798 182,-219 193.995,-222.446 207.095,-225.655 219.321,-228.418"/>
<polygon fill="midnightblue" stroke="midnightblue" points="109.205,-190.828 98.6132,-190.589 106.744,-197.381 109.205,-190.828"/>
</g>
<!-- Node9 -->
<g id="node9" class="node"><title>Node9</title>
<g id="a_node9"><a xlink:href="classButton.html#a30125723c03d6f675c1ecdbfe2b6d265" target="_top" xlink:title="Button::onMouseLeave">
<polygon fill="none" stroke="black" points="204,-190.5 204,-209.5 331,-209.5 331,-190.5 204,-190.5"/>
<text text-anchor="middle" x="267.5" y="-197.5" font-family="Helvetica,sans-Serif" font-size="10.00">Button::onMouseLeave</text>
</a>
</g>
</g>
<!-- Node1&#45;&gt;Node9 -->
<g id="edge8" class="edge"><title>Node1&#45;&gt;Node9</title>
<path fill="none" stroke="midnightblue" d="M156.575,-189.15C172.46,-190.718 188.852,-192.336 203.974,-193.829"/>
<polygon fill="midnightblue" stroke="midnightblue" points="156.523,-185.628 146.228,-188.129 155.835,-192.594 156.523,-185.628"/>
</g>
<!-- Node10 -->
<g id="node10" class="node"><title>Node10</title>
<g id="a_node10"><a xlink:href="classCheckbox.html#ae58c2c6329459ca23d025f1761c0c78e" target="_top" xlink:title="Checkbox::onMouseButtonUp">
<polygon fill="none" stroke="black" points="188.5,-152.5 188.5,-171.5 346.5,-171.5 346.5,-152.5 188.5,-152.5"/>
<text text-anchor="middle" x="267.5" y="-159.5" font-family="Helvetica,sans-Serif" font-size="10.00">Checkbox::onMouseButtonUp</text>
</a>
</g>
</g>
<!-- Node1&#45;&gt;Node10 -->
<g id="edge10" class="edge"><title>Node1&#45;&gt;Node10</title>
<path fill="none" stroke="midnightblue" d="M156.333,-172.874C166.964,-171.824 177.827,-170.752 188.388,-169.71"/>
<polygon fill="midnightblue" stroke="midnightblue" points="155.835,-169.406 146.228,-173.871 156.523,-176.372 155.835,-169.406"/>
</g>
<!-- Node11 -->
<g id="node11" class="node"><title>Node11</title>
<g id="a_node11"><a xlink:href="classCheckbox.html#a77988b3bf139576b2d33ce755c6bbca5" target="_top" xlink:title="Checkbox::onMouseButtonDown">
<polygon fill="none" stroke="black" points="182,-114.5 182,-133.5 353,-133.5 353,-114.5 182,-114.5"/>
<text text-anchor="middle" x="267.5" y="-121.5" font-family="Helvetica,sans-Serif" font-size="10.00">Checkbox::onMouseButtonDown</text>
</a>
</g>
</g>
<!-- Node1&#45;&gt;Node11 -->
<g id="edge11" class="edge"><title>Node1&#45;&gt;Node11</title>
<path fill="none" stroke="midnightblue" d="M108.096,-167.85C129.187,-160.004 156.932,-150.202 182,-143 193.995,-139.554 207.095,-136.345 219.321,-133.582"/>
<polygon fill="midnightblue" stroke="midnightblue" points="106.744,-164.619 98.6132,-171.411 109.205,-171.172 106.744,-164.619"/>
</g>
<!-- Node12 -->
<g id="node12" class="node"><title>Node12</title>
<g id="a_node12"><a xlink:href="classCheckbox.html#ae54b2346527479a073493ececaaef099" target="_top" xlink:title="Checkbox::onMouseEnter">
<polygon fill="none" stroke="black" points="198.5,-76.5 198.5,-95.5 336.5,-95.5 336.5,-76.5 198.5,-76.5"/>
<text text-anchor="middle" x="267.5" y="-83.5" font-family="Helvetica,sans-Serif" font-size="10.00">Checkbox::onMouseEnter</text>
</a>
</g>
</g>
<!-- Node1&#45;&gt;Node12 -->
<g id="edge12" class="edge"><title>Node1&#45;&gt;Node12</title>
<path fill="none" stroke="midnightblue" d="M92.0408,-164.902C112.448,-147.547 147.366,-120.35 182,-105 190.66,-101.162 200.176,-98.0618 209.601,-95.5694"/>
<polygon fill="midnightblue" stroke="midnightblue" points="89.7384,-162.266 84.4711,-171.459 94.3214,-167.557 89.7384,-162.266"/>
</g>
<!-- Node13 -->
<g id="node13" class="node"><title>Node13</title>
<g id="a_node13"><a xlink:href="classCheckbox.html#a304b657ec5d71ba0a344c4ffc3279d2f" target="_top" xlink:title="Checkbox::onMouseLeave">
<polygon fill="none" stroke="black" points="197,-38.5 197,-57.5 338,-57.5 338,-38.5 197,-38.5"/>
<text text-anchor="middle" x="267.5" y="-45.5" font-family="Helvetica,sans-Serif" font-size="10.00">Checkbox::onMouseLeave</text>
</a>
</g>
</g>
<!-- Node1&#45;&gt;Node13 -->
<g id="edge13" class="edge"><title>Node1&#45;&gt;Node13</title>
<path fill="none" stroke="midnightblue" d="M85.9145,-162.815C103.669,-137.249 139.569,-91.1145 182,-67 188.798,-63.1367 196.321,-60.0589 203.993,-57.6069"/>
<polygon fill="midnightblue" stroke="midnightblue" points="82.9282,-160.983 80.2159,-171.224 88.7231,-164.909 82.9282,-160.983"/>
</g>
<!-- Node14 -->
<g id="node14" class="node"><title>Node14</title>
<g id="a_node14"><a xlink:href="classComboBox.html#a9e34bb39454d682c02e434bcc0aa99a4" target="_top" xlink:title="ComboBox::onMouseMove">
<polygon fill="none" stroke="black" points="195.5,-0.5 195.5,-19.5 339.5,-19.5 339.5,-0.5 195.5,-0.5"/>
<text text-anchor="middle" x="267.5" y="-7.5" font-family="Helvetica,sans-Serif" font-size="10.00">ComboBox::onMouseMove</text>
</a>
</g>
</g>
<!-- Node1&#45;&gt;Node14 -->
<g id="edge14" class="edge"><title>Node1&#45;&gt;Node14</title>
<path fill="none" stroke="midnightblue" d="M81.949,-161.967C96.6212,-129.3 131.173,-62.8189 182,-29 187.759,-25.1684 194.176,-22.1004 200.829,-19.6451"/>
<polygon fill="midnightblue" stroke="midnightblue" points="78.6683,-160.735 77.8884,-171.301 85.0872,-163.527 78.6683,-160.735"/>
</g>
<!-- Node3 -->
<g id="node3" class="node"><title>Node3</title>
<g id="a_node3"><a xlink:href="classButton.html#af4d14cf544d8e0620f4ffcd7984103f7" target="_top" xlink:title="Draw the UI Element and/or render it&#39;s textures to the screen Renders the texture of the Ui Element...">
<polygon fill="none" stroke="black" points="399.5,-304.5 399.5,-323.5 476.5,-323.5 476.5,-304.5 399.5,-304.5"/>
<text text-anchor="middle" x="438" y="-311.5" font-family="Helvetica,sans-Serif" font-size="10.00">Button::draw</text>
</a>
</g>
</g>
<!-- Node2&#45;&gt;Node3 -->
<g id="edge2" class="edge"><title>Node2&#45;&gt;Node3</title>
<path fill="none" stroke="midnightblue" d="M356.738,-314C371.755,-314 386.603,-314 399.367,-314"/>
<polygon fill="midnightblue" stroke="midnightblue" points="356.338,-310.5 346.338,-314 356.338,-317.5 356.338,-310.5"/>
</g>
<!-- Node2&#45;&gt;Node4 -->
<g id="edge3" class="edge"><title>Node2&#45;&gt;Node4</title>
<path fill="none" stroke="midnightblue" d="M320.931,-325.824C344.687,-331.182 372.399,-337.431 394.786,-342.48"/>
<polygon fill="midnightblue" stroke="midnightblue" points="321.545,-322.375 311.02,-323.589 320.005,-329.203 321.545,-322.375"/>
</g>
<!-- Node5 -->
<g id="node5" class="node"><title>Node5</title>
<g id="a_node5"><a xlink:href="classComboBox.html#a1e4e851a79fccea5a1bd69b96c3bdec7" target="_top" xlink:title="Draw the UI Element and/or render it&#39;s textures to the screen Renders the texture of the Ui Element...">
<polygon fill="none" stroke="black" points="389,-266.5 389,-285.5 487,-285.5 487,-266.5 389,-266.5"/>
<text text-anchor="middle" x="438" y="-273.5" font-family="Helvetica,sans-Serif" font-size="10.00">ComboBox::draw</text>
</a>
</g>
</g>
<!-- Node2&#45;&gt;Node5 -->
<g id="edge4" class="edge"><title>Node2&#45;&gt;Node5</title>
<path fill="none" stroke="midnightblue" d="M321.026,-302.2C331.613,-299.819 342.662,-297.331 353,-295 366.564,-291.941 381.359,-288.597 394.7,-285.579"/>
<polygon fill="midnightblue" stroke="midnightblue" points="320.045,-298.833 311.056,-304.442 321.581,-305.663 320.045,-298.833"/>
</g>
<!-- Node6 -->
<g id="node6" class="node"><title>Node6</title>
<g id="a_node6"><a xlink:href="classSlider.html#a4a3727f40be79a7cc6543086435b8194" target="_top" xlink:title="Draw the UI Element and/or render it&#39;s textures to the screen Renders the texture of the Ui Element...">
<polygon fill="none" stroke="black" points="402,-228.5 402,-247.5 474,-247.5 474,-228.5 402,-228.5"/>
<text text-anchor="middle" x="438" y="-235.5" font-family="Helvetica,sans-Serif" font-size="10.00">Slider::draw</text>
</a>
</g>
</g>
<!-- Node2&#45;&gt;Node6 -->
<g id="edge5" class="edge"><title>Node2&#45;&gt;Node6</title>
<path fill="none" stroke="midnightblue" d="M340.594,-300.944C344.898,-299.204 349.07,-297.233 353,-295 373.226,-283.505 369.729,-270.033 389,-257 394.494,-253.284 400.822,-250.129 407.044,-247.521"/>
<polygon fill="midnightblue" stroke="midnightblue" points="339.232,-297.714 331.007,-304.393 341.601,-304.301 339.232,-297.714"/>
</g>
</g>
</svg>
