<?xml version="1.0" encoding="UTF-8" standalone="no"?>
<!DOCTYPE svg PUBLIC "-//W3C//DTD SVG 1.1//EN"
 "http://www.w3.org/Graphics/SVG/1.1/DTD/svg11.dtd">
<!-- Generated by graphviz version 2.38.0 (20140413.2041)
 -->
<!-- Title: Timer::stop Pages: 1 -->
<svg width="364pt" height="104pt"
 viewBox="0.00 0.00 364.00 104.00" xmlns="http://www.w3.org/2000/svg" xmlns:xlink="http://www.w3.org/1999/xlink">
<g id="graph0" class="graph" transform="scale(1 1) rotate(0) translate(4 100)">
<title>Timer::stop</title>
<!-- Node1 -->
<g id="node1" class="node"><title>Node1</title>
<polygon fill="#bfbfbf" stroke="black" points="0,-38.5 0,-57.5 71,-57.5 71,-38.5 0,-38.5"/>
<text text-anchor="middle" x="35.5" y="-45.5" font-family="Helvetica,sans-Serif" font-size="10.00">Timer::stop</text>
</g>
<!-- Node2 -->
<g id="node2" class="node"><title>Node2</title>
<g id="a_node2"><a xlink:href="classTimer.html#a14fa469c4c295c5fa6e66a4ad1092146" target="_top" xlink:title="Timer::~Timer">
<polygon fill="none" stroke="black" points="122.5,-76.5 122.5,-95.5 207.5,-95.5 207.5,-76.5 122.5,-76.5"/>
<text text-anchor="middle" x="165" y="-83.5" font-family="Helvetica,sans-Serif" font-size="10.00">Timer::~Timer</text>
</a>
</g>
</g>
<!-- Node1&#45;&gt;Node2 -->
<g id="edge1" class="edge"><title>Node1&#45;&gt;Node2</title>
<path fill="none" stroke="midnightblue" d="M78.5592,-60.5353C95.9041,-65.7048 115.681,-71.5991 131.837,-76.4141"/>
<polygon fill="midnightblue" stroke="midnightblue" points="79.2568,-57.0911 68.6736,-57.589 77.2574,-63.7995 79.2568,-57.0911"/>
</g>
<!-- Node3 -->
<g id="node3" class="node"><title>Node3</title>
<g id="a_node3"><a xlink:href="classTimer.html#ab887910601a1a42b2549c99892653921" target="_top" xlink:title="Timer::checkTimeout">
<polygon fill="none" stroke="black" points="107,-38.5 107,-57.5 223,-57.5 223,-38.5 107,-38.5"/>
<text text-anchor="middle" x="165" y="-45.5" font-family="Helvetica,sans-Serif" font-size="10.00">Timer::checkTimeout</text>
</a>
</g>
</g>
<!-- Node1&#45;&gt;Node3 -->
<g id="edge2" class="edge"><title>Node1&#45;&gt;Node3</title>
<path fill="none" stroke="midnightblue" d="M81.2046,-48C89.4958,-48 98.2602,-48 106.862,-48"/>
<polygon fill="midnightblue" stroke="midnightblue" points="81.0034,-44.5001 71.0033,-48 81.0033,-51.5001 81.0034,-44.5001"/>
</g>
<!-- Node5 -->
<g id="node5" class="node"><title>Node5</title>
<g id="a_node5"><a xlink:href="classTooltip.html#ad451a89f3aaaa61d6cef9ea4ba590c68" target="_top" xlink:title="resets the Tooltip Hides and deactivates the Tooltip and stops the timer ">
<polygon fill="none" stroke="black" points="126.5,-0.5 126.5,-19.5 203.5,-19.5 203.5,-0.5 126.5,-0.5"/>
<text text-anchor="middle" x="165" y="-7.5" font-family="Helvetica,sans-Serif" font-size="10.00">Tooltip::reset</text>
</a>
</g>
</g>
<!-- Node1&#45;&gt;Node5 -->
<g id="edge4" class="edge"><title>Node1&#45;&gt;Node5</title>
<path fill="none" stroke="midnightblue" d="M78.5592,-35.4647C95.9041,-30.2952 115.681,-24.4009 131.837,-19.5859"/>
<polygon fill="midnightblue" stroke="midnightblue" points="77.2574,-32.2005 68.6736,-38.411 79.2568,-38.9089 77.2574,-32.2005"/>
</g>
<!-- Node4 -->
<g id="node4" class="node"><title>Node4</title>
<g id="a_node4"><a xlink:href="classTimer.html#ae6d9bf74a35a78b0d9bf81d2d573f03d" target="_top" xlink:title="Loop Timer Specify if the timeout callback is called once or everytime the counter hits zero...">
<polygon fill="none" stroke="black" points="259,-38.5 259,-57.5 356,-57.5 356,-38.5 259,-38.5"/>
<text text-anchor="middle" x="307.5" y="-45.5" font-family="Helvetica,sans-Serif" font-size="10.00">Timer::loopTimer</text>
</a>
</g>
</g>
<!-- Node3&#45;&gt;Node4 -->
<g id="edge3" class="edge"><title>Node3&#45;&gt;Node4</title>
<path fill="none" stroke="midnightblue" d="M233.238,-48C241.884,-48 250.592,-48 258.835,-48"/>
<polygon fill="midnightblue" stroke="midnightblue" points="233.147,-44.5001 223.147,-48 233.147,-51.5001 233.147,-44.5001"/>
</g>
</g>
</svg>
