<?xml version="1.0" encoding="UTF-8" standalone="no"?>
<!DOCTYPE svg PUBLIC "-//W3C//DTD SVG 1.1//EN"
 "http://www.w3.org/Graphics/SVG/1.1/DTD/svg11.dtd">
<!-- Generated by graphviz version 2.38.0 (20140413.2041)
 -->
<!-- Title: Layout::arrangeChildElements Pages: 1 -->
<svg width="614pt" height="211pt"
 viewBox="0.00 0.00 614.00 210.50" xmlns="http://www.w3.org/2000/svg" xmlns:xlink="http://www.w3.org/1999/xlink">
<g id="graph0" class="graph" transform="scale(1 1) rotate(0) translate(4 206.5)">
<title>Layout::arrangeChildElements</title>
<!-- Node1 -->
<g id="node1" class="node"><title>Node1</title>
<polygon fill="#bfbfbf" stroke="black" points="0,-114.5 0,-133.5 161,-133.5 161,-114.5 0,-114.5"/>
<text text-anchor="middle" x="80.5" y="-121.5" font-family="Helvetica,sans-Serif" font-size="10.00">Layout::arrangeChildElements</text>
</g>
<!-- Node2 -->
<g id="node2" class="node"><title>Node2</title>
<g id="a_node2"><a xlink:href="classSingleton.html#af5cb1e5749949e2b68416cfb8d378044" target="_top" xlink:title="Get an instance of the singleton. ">
<polygon fill="none" stroke="black" points="224.5,-172 224.5,-202 337.5,-202 337.5,-172 224.5,-172"/>
<text text-anchor="start" x="232.5" y="-190" font-family="Helvetica,sans-Serif" font-size="10.00">Singleton&lt; Settings</text>
<text text-anchor="middle" x="281" y="-179" font-family="Helvetica,sans-Serif" font-size="10.00"> &gt;::instance</text>
</a>
</g>
</g>
<!-- Node1&#45;&gt;Node2 -->
<g id="edge1" class="edge"><title>Node1&#45;&gt;Node2</title>
<path fill="none" stroke="midnightblue" d="M135.177,-133.517C154.618,-139.399 176.765,-146.625 197,-153 212.744,-157.96 230.234,-163.259 245.083,-168.404"/>
<polygon fill="midnightblue" stroke="midnightblue" points="244.294,-171.84 254.888,-171.936 246.666,-165.254 244.294,-171.84"/>
</g>
<!-- Node1&#45;&gt;Node2 -->
<g id="edge2" class="edge"><title>Node1&#45;&gt;Node2</title>
<path fill="none" stroke="midnightblue" d="M93.6065,-133.53C114.601,-144.171 159.148,-159.075 197,-171 202.609,-172.767 208.44,-174.577 214.294,-176.344"/>
<polygon fill="midnightblue" stroke="midnightblue" points="213.55,-179.774 224.133,-179.262 215.54,-173.063 213.55,-179.774"/>
</g>
<!-- Node3 -->
<g id="node3" class="node"><title>Node3</title>
<g id="a_node3"><a xlink:href="classUIManager.html#acc2fd1de357cb6745ea39d54a93caa27" target="_top" xlink:title="Get the Ui Element By ID Finds and returns an UiElement by its elementID parameter. ">
<polygon fill="none" stroke="black" points="200.5,-133.5 200.5,-152.5 361.5,-152.5 361.5,-133.5 200.5,-133.5"/>
<text text-anchor="middle" x="281" y="-140.5" font-family="Helvetica,sans-Serif" font-size="10.00">UIManager::getUiElementByID</text>
</a>
</g>
</g>
<!-- Node1&#45;&gt;Node3 -->
<g id="edge3" class="edge"><title>Node1&#45;&gt;Node3</title>
<path fill="none" stroke="midnightblue" d="M161.094,-131.619C170.7,-132.538 180.562,-133.482 190.301,-134.414"/>
<polygon fill="midnightblue" stroke="midnightblue" points="190.1,-137.911 200.388,-135.38 190.767,-130.943 190.1,-137.911"/>
</g>
<!-- Node4 -->
<g id="node4" class="node"><title>Node4</title>
<g id="a_node4"><a xlink:href="classUIElement.html#ad448eae9fd22723ca68f04db6a180de7" target="_top" xlink:title="UIElement::getUiElementData">
<polygon fill="none" stroke="black" points="200.5,-95.5 200.5,-114.5 361.5,-114.5 361.5,-95.5 200.5,-95.5"/>
<text text-anchor="middle" x="281" y="-102.5" font-family="Helvetica,sans-Serif" font-size="10.00">UIElement::getUiElementData</text>
</a>
</g>
</g>
<!-- Node1&#45;&gt;Node4 -->
<g id="edge4" class="edge"><title>Node1&#45;&gt;Node4</title>
<path fill="none" stroke="midnightblue" d="M161.094,-116.381C170.7,-115.462 180.562,-114.518 190.301,-113.586"/>
<polygon fill="midnightblue" stroke="midnightblue" points="190.767,-117.057 200.388,-112.62 190.1,-110.089 190.767,-117.057"/>
</g>
<!-- Node5 -->
<g id="node5" class="node"><title>Node5</title>
<g id="a_node5"><a xlink:href="classUIManager.html#a0d32c5b63c4110ff8e43ab06c1c7d761" target="_top" xlink:title="Get the Layoutgroup container Returns the container, that holds LayoutGroups. ">
<polygon fill="none" stroke="black" points="197,-57.5 197,-76.5 365,-76.5 365,-57.5 197,-57.5"/>
<text text-anchor="middle" x="281" y="-64.5" font-family="Helvetica,sans-Serif" font-size="10.00">UIManager::getAllLayoutGroups</text>
</a>
</g>
</g>
<!-- Node1&#45;&gt;Node5 -->
<g id="edge5" class="edge"><title>Node1&#45;&gt;Node5</title>
<path fill="none" stroke="midnightblue" d="M108.354,-114.379C131.625,-106.232 166.292,-94.5465 197,-86 205.89,-83.5259 215.379,-81.1287 224.647,-78.918"/>
<polygon fill="midnightblue" stroke="midnightblue" points="225.636,-82.2811 234.578,-76.5975 224.044,-75.4647 225.636,-82.2811"/>
</g>
<!-- Node6 -->
<g id="node6" class="node"><title>Node6</title>
<g id="a_node6"><a xlink:href="classUIElement.html#a63a26f6f553d4e5d6ce3c3050b39453d" target="_top" xlink:title="Get the position and the size of this ui element Gets the position and the size of this ui element...">
<polygon fill="none" stroke="black" points="202,-19.5 202,-38.5 360,-38.5 360,-19.5 202,-19.5"/>
<text text-anchor="middle" x="281" y="-26.5" font-family="Helvetica,sans-Serif" font-size="10.00">UIElement::getUiElementRect</text>
</a>
</g>
</g>
<!-- Node1&#45;&gt;Node6 -->
<g id="edge6" class="edge"><title>Node1&#45;&gt;Node6</title>
<path fill="none" stroke="midnightblue" d="M93.152,-114.254C113.117,-98.0533 155.718,-65.6249 197,-48 202.888,-45.486 209.16,-43.2788 215.517,-41.3466"/>
<polygon fill="midnightblue" stroke="midnightblue" points="216.853,-44.6067 225.534,-38.5319 214.96,-37.8677 216.853,-44.6067"/>
</g>
<!-- Node7 -->
<g id="node7" class="node"><title>Node7</title>
<g id="a_node7"><a xlink:href="classUIElement.html#aa7f624963eaeb31043d74219ee24386c" target="_top" xlink:title="Checks if the mouse cursor is over the current UI Element Check if the coordinates match the ones sto...">
<polygon fill="none" stroke="black" points="436.5,-38.5 436.5,-57.5 570.5,-57.5 570.5,-38.5 436.5,-38.5"/>
<text text-anchor="middle" x="503.5" y="-45.5" font-family="Helvetica,sans-Serif" font-size="10.00">UIElement::isMouseOver</text>
</a>
</g>
</g>
<!-- Node6&#45;&gt;Node7 -->
<g id="edge7" class="edge"><title>Node6&#45;&gt;Node7</title>
<path fill="none" stroke="midnightblue" d="M360.05,-35.7254C381.547,-37.5778 404.835,-39.5844 426.23,-41.428"/>
<polygon fill="midnightblue" stroke="midnightblue" points="425.975,-44.9189 436.238,-42.2904 426.576,-37.9447 425.975,-44.9189"/>
</g>
<!-- Node8 -->
<g id="node8" class="node"><title>Node8</title>
<g id="a_node8"><a xlink:href="classUIElement.html#a570841bf8b7970ca935b1a00e571036a" target="_top" xlink:title="Handling for the hovering event Check, if the mouse cursor is hovering over the element. virtual function to provide custom handling if necessary (e.g. Combobox) Per default, it&#39;s the same implementation as isMouseOver. ">
<polygon fill="none" stroke="black" points="401,-0.5 401,-19.5 606,-19.5 606,-0.5 401,-0.5"/>
<text text-anchor="middle" x="503.5" y="-7.5" font-family="Helvetica,sans-Serif" font-size="10.00">UIElement::isMouseOverHoverableArea</text>
</a>
</g>
</g>
<!-- Node6&#45;&gt;Node8 -->
<g id="edge8" class="edge"><title>Node6&#45;&gt;Node8</title>
<path fill="none" stroke="midnightblue" d="M360.05,-22.2746C370.096,-21.409 380.533,-20.5097 390.984,-19.6091"/>
<polygon fill="midnightblue" stroke="midnightblue" points="391.335,-23.0919 400.997,-18.7463 390.734,-16.1178 391.335,-23.0919"/>
</g>
</g>
</svg>
