<?xml version="1.0" encoding="UTF-8" standalone="no"?>
<!DOCTYPE svg PUBLIC "-//W3C//DTD SVG 1.1//EN"
 "http://www.w3.org/Graphics/SVG/1.1/DTD/svg11.dtd">
<!-- Generated by graphviz version 2.38.0 (20140413.2041)
 -->
<!-- Title: Map::setTileIDOfNode Pages: 1 -->
<svg width="652pt" height="266pt"
 viewBox="0.00 0.00 652.00 265.50" xmlns="http://www.w3.org/2000/svg" xmlns:xlink="http://www.w3.org/1999/xlink">
<g id="graph0" class="graph" transform="scale(1 1) rotate(0) translate(4 261.5)">
<title>Map::setTileIDOfNode</title>
<!-- Node1 -->
<g id="node1" class="node"><title>Node1</title>
<polygon fill="#bfbfbf" stroke="black" points="0,-88 0,-107 119,-107 119,-88 0,-88"/>
<text text-anchor="middle" x="59.5" y="-95" font-family="Helvetica,sans-Serif" font-size="10.00">Map::setTileIDOfNode</text>
</g>
<!-- Node2 -->
<g id="node2" class="node"><title>Node2</title>
<g id="a_node2"><a xlink:href="classMap.html#a59d21f2688713fbcfe320eb1b24405ca" target="_top" xlink:title="Update mapNode and its adjacent tiles Updates mapNode height information, draws slopes for adjacent t...">
<polygon fill="none" stroke="black" points="155,-88 155,-107 316,-107 316,-88 155,-88"/>
<text text-anchor="middle" x="235.5" y="-95" font-family="Helvetica,sans-Serif" font-size="10.00">Map::updateNeighborsOfNode</text>
</a>
</g>
</g>
<!-- Node1&#45;&gt;Node2 -->
<g id="edge1" class="edge"><title>Node1&#45;&gt;Node2</title>
<path fill="none" stroke="midnightblue" d="M119.408,-97.5C127.629,-97.5 136.223,-97.5 144.853,-97.5"/>
<polygon fill="midnightblue" stroke="midnightblue" points="144.979,-101 154.979,-97.5 144.979,-94.0001 144.979,-101"/>
</g>
<!-- Node3 -->
<g id="node3" class="node"><title>Node3</title>
<g id="a_node3"><a xlink:href="classMap.html#a63f0e5040c86652c7239475f8ff3a45a" target="_top" xlink:title="Get neighbor MapNode Objects Stores pointers to the neighboring nodes of the given coordinates in the...">
<polygon fill="none" stroke="black" points="370,-238 370,-257 477,-257 477,-238 370,-238"/>
<text text-anchor="middle" x="423.5" y="-245" font-family="Helvetica,sans-Serif" font-size="10.00">Map::getNeighbors</text>
</a>
</g>
</g>
<!-- Node2&#45;&gt;Node3 -->
<g id="edge2" class="edge"><title>Node2&#45;&gt;Node3</title>
<path fill="none" stroke="midnightblue" d="M242.138,-107.122C256.897,-131.431 299.196,-195.709 352,-228.5 355.416,-230.621 359.067,-232.508 362.844,-234.187"/>
<polygon fill="midnightblue" stroke="midnightblue" points="361.838,-237.552 372.426,-237.945 364.394,-231.035 361.838,-237.552"/>
</g>
<!-- Node4 -->
<g id="node4" class="node"><title>Node4</title>
<g id="a_node4"><a xlink:href="classMap.html#a0ff55eb041cdf29aa582a21145319ce0" target="_top" xlink:title="Get elevated neighbor positions in a bitmask Checks all neighboring tiles and returns the elevated ne...">
<polygon fill="none" stroke="black" points="352,-188.5 352,-218.5 495,-218.5 495,-188.5 352,-188.5"/>
<text text-anchor="start" x="360" y="-206.5" font-family="Helvetica,sans-Serif" font-size="10.00">Map::getElevatedNeighbor</text>
<text text-anchor="middle" x="423.5" y="-195.5" font-family="Helvetica,sans-Serif" font-size="10.00">Bitmask</text>
</a>
</g>
</g>
<!-- Node2&#45;&gt;Node4 -->
<g id="edge3" class="edge"><title>Node2&#45;&gt;Node4</title>
<path fill="none" stroke="midnightblue" d="M249.532,-107.201C270.437,-122.499 313.075,-152.63 352,-173.5 359.006,-177.256 366.584,-180.894 374.084,-184.264"/>
<polygon fill="midnightblue" stroke="midnightblue" points="372.929,-187.578 383.494,-188.377 375.733,-181.165 372.929,-187.578"/>
</g>
<!-- Node5 -->
<g id="node5" class="node"><title>Node5</title>
<g id="a_node5"><a xlink:href="classMap.html#a05e7d896dc5062af07c9b838600a068d" target="_top" xlink:title="Demolish a node Invokes the tiles demolish function. ">
<polygon fill="none" stroke="black" points="531.5,-95 531.5,-114 643.5,-114 643.5,-95 531.5,-95"/>
<text text-anchor="middle" x="587.5" y="-102" font-family="Helvetica,sans-Serif" font-size="10.00">Map::demolishNode</text>
</a>
</g>
</g>
<!-- Node2&#45;&gt;Node5 -->
<g id="edge4" class="edge"><title>Node2&#45;&gt;Node5</title>
<path fill="none" stroke="midnightblue" d="M310.057,-107.029C323.907,-109.628 338.332,-112.038 352,-113.5 415.195,-120.261 431.744,-119.663 495,-113.5 503.455,-112.676 512.287,-111.434 520.988,-110.057"/>
<polygon fill="midnightblue" stroke="midnightblue" points="521.809,-113.469 531.11,-108.396 520.675,-106.562 521.809,-113.469"/>
</g>
<!-- Node6 -->
<g id="node6" class="node"><title>Node6</title>
<g id="a_node6"><a xlink:href="classMap.html#a392940f84796653b8e811ed8dc296c84" target="_top" xlink:title="Get a bitmask that represents same&#45;tile neighbors Checks all neighboring tiles and returns the elevat...">
<polygon fill="none" stroke="black" points="355,-82.5 355,-112.5 492,-112.5 492,-82.5 355,-82.5"/>
<text text-anchor="start" x="363" y="-100.5" font-family="Helvetica,sans-Serif" font-size="10.00">Map::getNeighboringTiles</text>
<text text-anchor="middle" x="423.5" y="-89.5" font-family="Helvetica,sans-Serif" font-size="10.00">Bitmask</text>
</a>
</g>
</g>
<!-- Node2&#45;&gt;Node6 -->
<g id="edge6" class="edge"><title>Node2&#45;&gt;Node6</title>
<path fill="none" stroke="midnightblue" d="M316.19,-97.5C325.676,-97.5 335.35,-97.5 344.807,-97.5"/>
<polygon fill="midnightblue" stroke="midnightblue" points="344.965,-101 354.965,-97.5 344.965,-94.0001 344.965,-101"/>
</g>
<!-- Node7 -->
<g id="node7" class="node"><title>Node7</title>
<g id="a_node7"><a xlink:href="classMap.html#aba5154a4d917900679a3c0f7ec701561" target="_top" xlink:title="Increase Height Increases the height of the node and checks the surrounding tiles. Either draw a slope sprite or elevate the tile if necessary. ">
<polygon fill="none" stroke="black" points="366,-6 366,-25 481,-25 481,-6 366,-6"/>
<text text-anchor="middle" x="423.5" y="-13" font-family="Helvetica,sans-Serif" font-size="10.00">Map::increaseHeight</text>
</a>
</g>
</g>
<!-- Node2&#45;&gt;Node7 -->
<g id="edge7" class="edge"><title>Node2&#45;&gt;Node7</title>
<path fill="none" stroke="midnightblue" d="M244.033,-87.9865C262.02,-71.9684 309.175,-42.6695 352,-25.5 353.397,-24.9398 354.816,-24.3908 356.253,-23.8538"/>
<polygon fill="midnightblue" stroke="midnightblue" points="357.625,-27.0825 365.926,-20.4982 355.331,-20.4691 357.625,-27.0825"/>
</g>
<!-- Node9 -->
<g id="node9" class="node"><title>Node9</title>
<g id="a_node9"><a xlink:href="classMap.html#afb8cc864df90d273a5074872d635dc40" target="_top" xlink:title="Decrease Height Decreases the height of the node and checks the surrounding tiles. Either draw a slope sprite or lower the tile if necessary. ">
<polygon fill="none" stroke="black" points="364,-44 364,-63 483,-63 483,-44 364,-44"/>
<text text-anchor="middle" x="423.5" y="-51" font-family="Helvetica,sans-Serif" font-size="10.00">Map::decreaseHeight</text>
</a>
</g>
</g>
<!-- Node2&#45;&gt;Node9 -->
<g id="edge11" class="edge"><title>Node2&#45;&gt;Node9</title>
<path fill="none" stroke="midnightblue" d="M257.837,-87.9587C281.199,-80.4688 319.871,-70.6388 353.868,-63.1958"/>
<polygon fill="midnightblue" stroke="midnightblue" points="354.739,-66.5888 363.78,-61.066 353.268,-59.745 354.739,-66.5888"/>
</g>
<!-- Node5&#45;&gt;Node2 -->
<g id="edge5" class="edge"><title>Node5&#45;&gt;Node2</title>
<path fill="none" stroke="midnightblue" d="M573.285,-114.066C555.603,-121.35 523.199,-128.753 495,-131.5 431.744,-137.663 415.195,-138.261 352,-131.5 319.449,-128.018 282.605,-119.164 259.465,-110.808"/>
<polygon fill="midnightblue" stroke="midnightblue" points="260.449,-107.434 249.862,-107.026 257.883,-113.947 260.449,-107.434"/>
</g>
<!-- Node7&#45;&gt;Node2 -->
<g id="edge10" class="edge"><title>Node7&#45;&gt;Node2</title>
<path fill="none" stroke="midnightblue" d="M408.406,-25.0313C393.944,-30.3484 370.943,-35.9054 352,-43.5 324.174,-54.6559 294.521,-70.9326 272.228,-82.934"/>
<polygon fill="midnightblue" stroke="midnightblue" points="270.319,-79.9859 263.151,-87.7883 273.62,-86.1586 270.319,-79.9859"/>
</g>
<!-- Node7&#45;&gt;Node5 -->
<g id="edge9" class="edge"><title>Node7&#45;&gt;Node5</title>
<path fill="none" stroke="midnightblue" d="M470.212,-25.0222C478.671,-27.5599 487.269,-30.6875 495,-34.5 523.365,-48.488 551.599,-71.9026 569.041,-87.7618"/>
<polygon fill="midnightblue" stroke="midnightblue" points="566.981,-90.6253 576.69,-94.8659 571.745,-85.4961 566.981,-90.6253"/>
</g>
<!-- Node8 -->
<g id="node8" class="node"><title>Node8</title>
<g id="a_node8"><a xlink:href="classSingleton.html#af5cb1e5749949e2b68416cfb8d378044" target="_top" xlink:title="Get an instance of the singleton. ">
<polygon fill="none" stroke="black" points="531,-0.5 531,-30.5 644,-30.5 644,-0.5 531,-0.5"/>
<text text-anchor="start" x="539" y="-18.5" font-family="Helvetica,sans-Serif" font-size="10.00">Singleton&lt; Settings</text>
<text text-anchor="middle" x="587.5" y="-7.5" font-family="Helvetica,sans-Serif" font-size="10.00"> &gt;::instance</text>
</a>
</g>
</g>
<!-- Node7&#45;&gt;Node8 -->
<g id="edge8" class="edge"><title>Node7&#45;&gt;Node8</title>
<path fill="none" stroke="midnightblue" d="M481.16,-15.5C493.903,-15.5 507.532,-15.5 520.616,-15.5"/>
<polygon fill="midnightblue" stroke="midnightblue" points="520.965,-19.0001 530.965,-15.5 520.965,-12.0001 520.965,-19.0001"/>
</g>
<!-- Node9&#45;&gt;Node2 -->
<g id="edge13" class="edge"><title>Node9&#45;&gt;Node2</title>
<path fill="none" stroke="midnightblue" d="M400.905,-63.1241C379.657,-69.9191 345.926,-78.6171 314.532,-85.7126"/>
<polygon fill="midnightblue" stroke="midnightblue" points="313.442,-82.3692 304.44,-87.9555 314.961,-89.2025 313.442,-82.3692"/>
</g>
<!-- Node9&#45;&gt;Node5 -->
<g id="edge12" class="edge"><title>Node9&#45;&gt;Node5</title>
<path fill="none" stroke="midnightblue" d="M459.386,-63.0222C470.775,-66.2307 483.459,-69.9104 495,-73.5 513.038,-79.1102 532.914,-85.7841 549.52,-91.4999"/>
<polygon fill="midnightblue" stroke="midnightblue" points="548.796,-94.9531 559.391,-94.9169 551.086,-88.3382 548.796,-94.9531"/>
</g>
</g>
</svg>
