<?xml version="1.0" encoding="UTF-8" standalone="no"?>
<!DOCTYPE svg PUBLIC "-//W3C//DTD SVG 1.1//EN"
 "http://www.w3.org/Graphics/SVG/1.1/DTD/svg11.dtd">
<!-- Generated by graphviz version 2.38.0 (20140413.2041)
 -->
<!-- Title: UIElement::getUiElementData Pages: 1 -->
<!--zoomable 238 -->
<svg id="main" version="1.1" xmlns="http://www.w3.org/2000/svg" xmlns:xlink="http://www.w3.org/1999/xlink" xml:space="preserve" onload="init(evt)">
<style type="text/css"><![CDATA[
.edge:hover path { stroke: red; }
.edge:hover polygon { stroke: red; fill: red; }
]]></style>
<script type="text/javascript"><![CDATA[
var edges = document.getElementsByTagName('g');
if (edges && edges.length) {
  for (var i=0;i<edges.length;i++) {
    if (edges[i].id.substr(0,4)=='edge') {
      edges[i].setAttribute('class','edge');
    }
  }
}
]]></script>
        <defs>
                <circle id="rim" cx="0" cy="0" r="7"/>
                <circle id="rim2" cx="0" cy="0" r="3.5"/>
                <g id="zoomPlus">
                        <use xlink:href="#rim" fill="#404040">
                                <set attributeName="fill" to="#808080" begin="zoomplus.mouseover" end="zoomplus.mouseout"/>
                        </use>
                        <path d="M-4,0h8M0,-4v8" fill="none" stroke="white" stroke-width="1.5" pointer-events="none"/>
                </g>
                <g id="zoomMin">
                        <use xlink:href="#rim" fill="#404040">
                                <set attributeName="fill" to="#808080" begin="zoomminus.mouseover" end="zoomminus.mouseout"/>
                        </use>
                        <path d="M-4,0h8" fill="none" stroke="white" stroke-width="1.5" pointer-events="none"/>
                </g>
                <g id="dirArrow">
                        <path fill="none" stroke="white" stroke-width="1.5" d="M0,-3.0v7 M-2.5,-0.5L0,-3.0L2.5,-0.5"/>
                </g>
               <g id="resetDef">
                       <use xlink:href="#rim2" fill="#404040">
                               <set attributeName="fill" to="#808080" begin="reset.mouseover" end="reset.mouseout"/>
                       </use>
               </g>
        </defs>

<script type="text/javascript">
var viewWidth = 1485;
var viewHeight = 238;
var sectionId = 'dynsection-16';
</script>
<script xlink:href="svgpan.js"/>
<svg id="graph" class="graph">
<g id="viewport">
<title>UIElement::getUiElementData</title>
<!-- Node1 -->
<g id="node1" class="node"><title>Node1</title>
<polygon fill="#bfbfbf" stroke="black" points="0,-153.739 0,-172.739 161,-172.739 161,-153.739 0,-153.739"/>
<text text-anchor="middle" x="80.5" y="-160.739" font-family="Helvetica,sans-Serif" font-size="10.00">UIElement::getUiElementData</text>
</g>
<!-- Node2 -->
<g id="node2" class="node"><title>Node2</title>
<g id="a_node2"><a xlink:href="classLayout.html#ac2a5cc72ee1ff5d3ddf4861b3f28d58f" target="_top" xlink:title="Arrange Elements that are aligned to a parent This is a seperate function, so it can recurse if a par...">
<polygon fill="none" stroke="black" points="197,-77.7386 197,-96.7386 358,-96.7386 358,-77.7386 197,-77.7386"/>
<text text-anchor="middle" x="277.5" y="-84.7386" font-family="Helvetica,sans-Serif" font-size="10.00">Layout::arrangeChildElements</text>
</a>
</g>
</g>
<!-- Node1&#45;&gt;Node2 -->
<g id="edge1" class="edge"><title>Node1&#45;&gt;Node2</title>
<path fill="none" stroke="midnightblue" d="M115.568,-149.961C154.581,-134.756 217.535,-110.22 252.004,-96.7859"/>
<polygon fill="midnightblue" stroke="midnightblue" points="114.243,-146.721 106.197,-153.613 116.785,-153.243 114.243,-146.721"/>
</g>
<!-- Node11 -->
<g id="node11" class="node"><title>Node11</title>
<g id="a_node11"><a xlink:href="classUIManager.html#aa78e356fc3b356d790c848319d1c387e" target="_top" xlink:title="UIManager::setCallbackFunctions">
<polygon fill="none" stroke="black" points="806,-134.739 806,-153.739 980,-153.739 980,-134.739 806,-134.739"/>
<text text-anchor="middle" x="893" y="-141.739" font-family="Helvetica,sans-Serif" font-size="10.00">UIManager::setCallbackFunctions</text>
</a>
</g>
</g>
<!-- Node1&#45;&gt;Node11 -->
<g id="edge20" class="edge"><title>Node1&#45;&gt;Node11</title>
<path fill="none" stroke="midnightblue" d="M171.166,-161.137C328.285,-157.453 651.316,-149.881 805.891,-146.257"/>
<polygon fill="midnightblue" stroke="midnightblue" points="170.976,-157.64 161.061,-161.374 171.14,-164.638 170.976,-157.64"/>
</g>
<!-- Node13 -->
<g id="node13" class="node"><title>Node13</title>
<g id="a_node13"><a xlink:href="classUIManager.html#a23bbbe53c18c31ff1c68c105dfa0dbd3" target="_top" xlink:title="Callback function for toggling the visibility of an UiGroup Callback function for Ui Widgets with the...">
<polygon fill="none" stroke="black" points="591.5,-172.739 591.5,-191.739 763.5,-191.739 763.5,-172.739 591.5,-172.739"/>
<text text-anchor="middle" x="677.5" y="-179.739" font-family="Helvetica,sans-Serif" font-size="10.00">UIManager::toggleGroupVisibility</text>
</a>
</g>
</g>
<!-- Node1&#45;&gt;Node13 -->
<g id="edge16" class="edge"><title>Node1&#45;&gt;Node13</title>
<path fill="none" stroke="midnightblue" d="M171.196,-166.103C284.889,-169.733 479.478,-175.947 591.092,-179.511"/>
<polygon fill="midnightblue" stroke="midnightblue" points="171.234,-162.602 161.127,-165.781 171.01,-169.599 171.234,-162.602"/>
</g>
<!-- Node15 -->
<g id="node15" class="node"><title>Node15</title>
<g id="a_node15"><a xlink:href="classUIManager.html#aae7a89e9d50bb6192e4140e07bd5f94b" target="_top" xlink:title="UIManager::createBuildMenu">
<polygon fill="none" stroke="black" points="394,-210.739 394,-229.739 549,-229.739 549,-210.739 394,-210.739"/>
<text text-anchor="middle" x="471.5" y="-217.739" font-family="Helvetica,sans-Serif" font-size="10.00">UIManager::createBuildMenu</text>
</a>
</g>
</g>
<!-- Node1&#45;&gt;Node15 -->
<g id="edge21" class="edge"><title>Node1&#45;&gt;Node15</title>
<path fill="none" stroke="midnightblue" d="M118.932,-175.898C141.33,-182.977 170.503,-191.337 197,-196.239 262.852,-208.42 338.803,-214.46 393.932,-217.43"/>
<polygon fill="midnightblue" stroke="midnightblue" points="119.743,-172.482 109.152,-172.752 117.6,-179.146 119.743,-172.482"/>
</g>
<!-- Node3 -->
<g id="node3" class="node"><title>Node3</title>
<g id="a_node3"><a xlink:href="classLayout.html#afa734c5af10f59f3dadb066054fe81ab" target="_top" xlink:title="Arrange the layout elements. ">
<polygon fill="none" stroke="black" points="403,-58.7386 403,-77.7386 540,-77.7386 540,-58.7386 403,-58.7386"/>
<text text-anchor="middle" x="471.5" y="-65.7386" font-family="Helvetica,sans-Serif" font-size="10.00">Layout::arrangeElements</text>
</a>
</g>
</g>
<!-- Node2&#45;&gt;Node3 -->
<g id="edge2" class="edge"><title>Node2&#45;&gt;Node3</title>
<path fill="none" stroke="midnightblue" d="M368.406,-78.3417C380.01,-77.1934 391.732,-76.0334 402.892,-74.929"/>
<polygon fill="midnightblue" stroke="midnightblue" points="367.864,-74.8782 358.257,-79.346 368.553,-81.8441 367.864,-74.8782"/>
</g>
<!-- Node4 -->
<g id="node4" class="node"><title>Node4</title>
<g id="a_node4"><a xlink:href="classUIManager.html#aedd9d0577af515a852425dfe414b2968" target="_top" xlink:title="Parses the UiLayout.json files and creates UI Elements. ">
<polygon fill="none" stroke="black" points="1047.5,-134.739 1047.5,-153.739 1136.5,-153.739 1136.5,-134.739 1047.5,-134.739"/>
<text text-anchor="middle" x="1092" y="-141.739" font-family="Helvetica,sans-Serif" font-size="10.00">UIManager::init</text>
</a>
</g>
</g>
<!-- Node3&#45;&gt;Node4 -->
<g id="edge3" class="edge"><title>Node3&#45;&gt;Node4</title>
<path fill="none" stroke="midnightblue" d="M494.752,-52.9752C516.606,-38.9796 551.459,-19.2509 585,-11.2386 664.972,7.8649 688.296,-2.01995 770,-11.2386 865.137,-21.973 893.343,-18.5359 980,-59.2386 1022.18,-79.051 1063.53,-116.957 1081.57,-134.672"/>
<polygon fill="midnightblue" stroke="midnightblue" points="492.664,-50.1591 486.223,-58.5715 496.504,-56.0117 492.664,-50.1591"/>
</g>
<!-- Node8 -->
<g id="node8" class="node"><title>Node8</title>
<g id="a_node8"><a xlink:href="classUIManager.html#a3ccb2fc669262f18ebdcdf3d5c43a3e8" target="_top" xlink:title="CallbackFunction that sets the Build Menu Position Used as callback function for the ComboBox that ho...">
<polygon fill="none" stroke="black" points="589.5,-58.7386 589.5,-77.7386 765.5,-77.7386 765.5,-58.7386 589.5,-58.7386"/>
<text text-anchor="middle" x="677.5" y="-65.7386" font-family="Helvetica,sans-Serif" font-size="10.00">UIManager::setBuildMenuPosition</text>
</a>
</g>
</g>
<!-- Node3&#45;&gt;Node8 -->
<g id="edge7" class="edge"><title>Node3&#45;&gt;Node8</title>
<path fill="none" stroke="midnightblue" d="M550.276,-68.2386C563.074,-68.2386 576.411,-68.2386 589.417,-68.2386"/>
<polygon fill="midnightblue" stroke="midnightblue" points="550.146,-64.7387 540.146,-68.2386 550.146,-71.7387 550.146,-64.7387"/>
</g>
<!-- Node10 -->
<g id="node10" class="node"><title>Node10</title>
<g id="a_node10"><a xlink:href="classUIManager.html#ac927e1cd3dea979202ea9dbf1195b583" target="_top" xlink:title="UIManager::changeResolution">
<polygon fill="none" stroke="black" points="598.5,-96.7386 598.5,-115.739 756.5,-115.739 756.5,-96.7386 598.5,-96.7386"/>
<text text-anchor="middle" x="677.5" y="-103.739" font-family="Helvetica,sans-Serif" font-size="10.00">UIManager::changeResolution</text>
</a>
</g>
</g>
<!-- Node3&#45;&gt;Node10 -->
<g id="edge10" class="edge"><title>Node3&#45;&gt;Node10</title>
<path fill="none" stroke="midnightblue" d="M533.797,-79.6568C562.986,-85.0939 597.494,-91.5219 625.264,-96.6948"/>
<polygon fill="midnightblue" stroke="midnightblue" points="534.186,-76.1691 523.714,-77.7786 532.904,-83.0507 534.186,-76.1691"/>
</g>
<!-- Node12 -->
<g id="node12" class="node"><title>Node12</title>
<g id="a_node12"><a xlink:href="classUIManager.html#af2ffb4ee45e57152164643ef6cddda37" target="_top" xlink:title="UIManager::changeFullScreenMode">
<polygon fill="none" stroke="black" points="585,-20.7386 585,-39.7386 770,-39.7386 770,-20.7386 585,-20.7386"/>
<text text-anchor="middle" x="677.5" y="-27.7386" font-family="Helvetica,sans-Serif" font-size="10.00">UIManager::changeFullScreenMode</text>
</a>
</g>
</g>
<!-- Node3&#45;&gt;Node12 -->
<g id="edge14" class="edge"><title>Node3&#45;&gt;Node12</title>
<path fill="none" stroke="midnightblue" d="M533.797,-56.8205C562.986,-51.3834 597.494,-44.9554 625.264,-39.7825"/>
<polygon fill="midnightblue" stroke="midnightblue" points="532.904,-53.4266 523.714,-58.6987 534.186,-60.3082 532.904,-53.4266"/>
</g>
<!-- Node5 -->
<g id="node5" class="node"><title>Node5</title>
<g id="a_node5"><a xlink:href="classGame.html#a1c2ab25d5216b2f4b2fe41efd2c09114" target="_top" xlink:title="Game::run">
<polygon fill="none" stroke="black" points="1204,-153.739 1204,-172.739 1272,-172.739 1272,-153.739 1204,-153.739"/>
<text text-anchor="middle" x="1238" y="-160.739" font-family="Helvetica,sans-Serif" font-size="10.00">Game::run</text>
</a>
</g>
</g>
<!-- Node4&#45;&gt;Node5 -->
<g id="edge4" class="edge"><title>Node4&#45;&gt;Node5</title>
<path fill="none" stroke="midnightblue" d="M1146.68,-151.321C1165.77,-153.841 1186.71,-156.603 1203.62,-158.834"/>
<polygon fill="midnightblue" stroke="midnightblue" points="1146.97,-147.829 1136.6,-149.991 1146.05,-154.769 1146.97,-147.829"/>
</g>
<!-- Node6 -->
<g id="node6" class="node"><title>Node6</title>
<g id="a_node6"><a xlink:href="main_8cxx.html#af582d708d899e67ead623eac34a22387" target="_top" xlink:title="protected_main">
<polygon fill="none" stroke="black" points="1308,-153.739 1308,-172.739 1400,-172.739 1400,-153.739 1308,-153.739"/>
<text text-anchor="middle" x="1354" y="-160.739" font-family="Helvetica,sans-Serif" font-size="10.00">protected_main</text>
</a>
</g>
</g>
<!-- Node5&#45;&gt;Node6 -->
<g id="edge5" class="edge"><title>Node5&#45;&gt;Node6</title>
<path fill="none" stroke="midnightblue" d="M1282.44,-163.239C1290.67,-163.239 1299.31,-163.239 1307.6,-163.239"/>
<polygon fill="midnightblue" stroke="midnightblue" points="1282.28,-159.739 1272.28,-163.239 1282.28,-166.739 1282.28,-159.739"/>
</g>
<!-- Node7 -->
<g id="node7" class="node"><title>Node7</title>
<g id="a_node7"><a xlink:href="main_8cxx.html#a3c04138a5bfe5d72780bb7e82a18e627" target="_top" xlink:title="main">
<polygon fill="none" stroke="black" points="1436,-153.739 1436,-172.739 1477,-172.739 1477,-153.739 1436,-153.739"/>
<text text-anchor="middle" x="1456.5" y="-160.739" font-family="Helvetica,sans-Serif" font-size="10.00">main</text>
</a>
</g>
</g>
<!-- Node6&#45;&gt;Node7 -->
<g id="edge6" class="edge"><title>Node6&#45;&gt;Node7</title>
<path fill="none" stroke="midnightblue" d="M1410.54,-163.239C1419.62,-163.239 1428.47,-163.239 1435.88,-163.239"/>
<polygon fill="midnightblue" stroke="midnightblue" points="1410.25,-159.739 1400.25,-163.239 1410.25,-166.739 1410.25,-159.739"/>
</g>
<!-- Node9 -->
<g id="node9" class="node"><title>Node9</title>
<g id="a_node9"><a xlink:href="classUIManager.html#a5c4cb8e02504ffa0d3faf45181feab9d" target="_top" xlink:title="Fill UI Widgets whose ID start with a $ with data Used for filling widgets with data, like BuildMenu Position combobox, Screen Resolution ComboBox and so on. ">
<polygon fill="none" stroke="black" points="823,-69.2386 823,-99.2386 963,-99.2386 963,-69.2386 823,-69.2386"/>
<text text-anchor="start" x="831" y="-87.2386" font-family="Helvetica,sans-Serif" font-size="10.00">UIManager::initializeDollar</text>
<text text-anchor="middle" x="893" y="-76.2386" font-family="Helvetica,sans-Serif" font-size="10.00">Variables</text>
</a>
</g>
</g>
<!-- Node8&#45;&gt;Node9 -->
<g id="edge8" class="edge"><title>Node8&#45;&gt;Node9</title>
<path fill="none" stroke="midnightblue" d="M775.971,-75.5433C791.764,-76.7268 807.83,-77.9308 822.772,-79.0506"/>
<polygon fill="midnightblue" stroke="midnightblue" points="775.88,-72.0267 765.647,-74.7695 775.357,-79.0072 775.88,-72.0267"/>
</g>
<!-- Node9&#45;&gt;Node4 -->
<g id="edge9" class="edge"><title>Node9&#45;&gt;Node4</title>
<path fill="none" stroke="midnightblue" d="M953.108,-102.241C988.14,-112.911 1031.13,-126.005 1059.7,-134.707"/>
<polygon fill="midnightblue" stroke="midnightblue" points="954.043,-98.8672 943.457,-99.3017 952.004,-105.564 954.043,-98.8672"/>
</g>
<!-- Node10&#45;&gt;Node9 -->
<g id="edge13" class="edge"><title>Node10&#45;&gt;Node9</title>
<path fill="none" stroke="midnightblue" d="M766.79,-97.1409C785.508,-95.2121 805.007,-93.2028 822.89,-91.3601"/>
<polygon fill="midnightblue" stroke="midnightblue" points="766.376,-93.6649 756.787,-98.1716 767.093,-100.628 766.376,-93.6649"/>
</g>
<!-- Node10&#45;&gt;Node11 -->
<g id="edge11" class="edge"><title>Node10&#45;&gt;Node11</title>
<path fill="none" stroke="midnightblue" d="M742.252,-117.586C772.884,-123.038 809.188,-129.499 838.378,-134.695"/>
<polygon fill="midnightblue" stroke="midnightblue" points="742.558,-114.085 732.099,-115.779 741.331,-120.977 742.558,-114.085"/>
</g>
<!-- Node11&#45;&gt;Node4 -->
<g id="edge12" class="edge"><title>Node11&#45;&gt;Node4</title>
<path fill="none" stroke="midnightblue" d="M990.264,-144.239C1010.33,-144.239 1030.52,-144.239 1047.5,-144.239"/>
<polygon fill="midnightblue" stroke="midnightblue" points="990.121,-140.739 980.12,-144.239 990.12,-147.739 990.121,-140.739"/>
</g>
<!-- Node12&#45;&gt;Node9 -->
<g id="edge15" class="edge"><title>Node12&#45;&gt;Node9</title>
<path fill="none" stroke="midnightblue" d="M738.117,-41.9464C748.766,-44.2286 759.735,-46.7041 770,-49.2386 794.067,-55.1808 820.541,-62.6595 842.66,-69.1767"/>
<polygon fill="midnightblue" stroke="midnightblue" points="738.546,-38.46 728.039,-39.822 737.102,-45.3094 738.546,-38.46"/>
</g>
<!-- Node13&#45;&gt;Node11 -->
<g id="edge19" class="edge"><title>Node13&#45;&gt;Node11</title>
<path fill="none" stroke="midnightblue" d="M742.252,-170.892C772.884,-165.44 809.188,-158.978 838.378,-153.783"/>
<polygon fill="midnightblue" stroke="midnightblue" points="741.331,-167.5 732.099,-172.699 742.558,-174.392 741.331,-167.5"/>
</g>
<!-- Node14 -->
<g id="node14" class="node"><title>Node14</title>
<g id="a_node14"><a xlink:href="classEventManager.html#a65ec91fd5016d4f9c4167fb8babed2df" target="_top" xlink:title="EventManager::checkEvents">
<polygon fill="none" stroke="black" points="1016,-172.739 1016,-191.739 1168,-191.739 1168,-172.739 1016,-172.739"/>
<text text-anchor="middle" x="1092" y="-179.739" font-family="Helvetica,sans-Serif" font-size="10.00">EventManager::checkEvents</text>
</a>
</g>
</g>
<!-- Node13&#45;&gt;Node14 -->
<g id="edge17" class="edge"><title>Node13&#45;&gt;Node14</title>
<path fill="none" stroke="midnightblue" d="M774.161,-182.239C847.678,-182.239 947.812,-182.239 1015.69,-182.239"/>
<polygon fill="midnightblue" stroke="midnightblue" points="773.97,-178.739 763.97,-182.239 773.97,-185.739 773.97,-178.739"/>
</g>
<!-- Node14&#45;&gt;Node5 -->
<g id="edge18" class="edge"><title>Node14&#45;&gt;Node5</title>
<path fill="none" stroke="midnightblue" d="M1175.47,-171.357C1185.46,-170.039 1195.18,-168.757 1203.83,-167.616"/>
<polygon fill="midnightblue" stroke="midnightblue" points="1174.88,-167.905 1165.42,-172.683 1175.79,-174.845 1174.88,-167.905"/>
</g>
<!-- Node15&#45;&gt;Node4 -->
<g id="edge22" class="edge"><title>Node15&#45;&gt;Node4</title>
<path fill="none" stroke="midnightblue" d="M559.249,-217.262C618.716,-214.594 699.325,-209.743 770,-201.239 869.888,-189.219 985.819,-166.411 1047.36,-153.591"/>
<polygon fill="midnightblue" stroke="midnightblue" points="558.984,-213.77 549.146,-217.703 559.29,-220.763 558.984,-213.77"/>
</g>
</g>
</svg>
        <g id="navigator" transform="translate(0 0)" fill="#404254">
                <rect fill="#f2f5e9" fill-opacity="0.5" stroke="#606060" stroke-width=".5" x="0" y="0" width="60" height="60"/>
                <use id="zoomplus" xlink:href="#zoomPlus" x="17" y="9" onmousedown="handleZoom(evt,'in')"/>
                <use id="zoomminus" xlink:href="#zoomMin" x="42" y="9" onmousedown="handleZoom(evt,'out')"/>
                <use id="reset" xlink:href="#resetDef" x="30" y="36" onmousedown="handleReset()"/>
                <g id="arrowUp" xlink:href="#dirArrow" transform="translate(30 24)" onmousedown="handlePan(0,-1)">
                  <use xlink:href="#rim" fill="#404040">
                        <set attributeName="fill" to="#808080" begin="arrowUp.mouseover" end="arrowUp.mouseout"/>
                  </use>
                  <path fill="none" stroke="white" stroke-width="1.5" d="M0,-3.0v7 M-2.5,-0.5L0,-3.0L2.5,-0.5"/>
                </g>
                <g id="arrowRight" xlink:href="#dirArrow" transform="rotate(90) translate(36 -43)" onmousedown="handlePan(1,0)">
                  <use xlink:href="#rim" fill="#404040">
                        <set attributeName="fill" to="#808080" begin="arrowRight.mouseover" end="arrowRight.mouseout"/>
                  </use>
                  <path fill="none" stroke="white" stroke-width="1.5" d="M0,-3.0v7 M-2.5,-0.5L0,-3.0L2.5,-0.5"/>
                </g>
                <g id="arrowDown" xlink:href="#dirArrow" transform="rotate(180) translate(-30 -48)" onmousedown="handlePan(0,1)">
                  <use xlink:href="#rim" fill="#404040">
                        <set attributeName="fill" to="#808080" begin="arrowDown.mouseover" end="arrowDown.mouseout"/>
                  </use>
                  <path fill="none" stroke="white" stroke-width="1.5" d="M0,-3.0v7 M-2.5,-0.5L0,-3.0L2.5,-0.5"/>
                </g>
                <g id="arrowLeft" xlink:href="#dirArrow" transform="rotate(270) translate(-36 17)" onmousedown="handlePan(-1,0)">
                  <use xlink:href="#rim" fill="#404040">
                        <set attributeName="fill" to="#808080" begin="arrowLeft.mouseover" end="arrowLeft.mouseout"/>
                  </use>
                  <path fill="none" stroke="white" stroke-width="1.5" d="M0,-3.0v7 M-2.5,-0.5L0,-3.0L2.5,-0.5"/>
                </g>
        </g>
        <svg viewBox="0 0 15 15" width="100%" height="30px" preserveAspectRatio="xMaxYMin meet">
         <g id="arrow_out" transform="scale(0.3 0.3)">
          <a xlink:href="classUIElement_ad448eae9fd22723ca68f04db6a180de7_icgraph_org.svg" target="_base">
           <rect id="button" ry="5" rx="5" y="6" x="6" height="38" width="38"
                fill="#f2f5e9" fill-opacity="0.5" stroke="#606060" stroke-width="1.0"/>
           <path id="arrow"
             d="M 11.500037,31.436501 C 11.940474,20.09759 22.043105,11.32322 32.158766,21.979434 L 37.068811,17.246167 C 37.068811,17.246167 37.088388,32 37.088388,32 L 22.160133,31.978069 C 22.160133,31.978069 26.997745,27.140456 26.997745,27.140456 C 18.528582,18.264221 13.291696,25.230495 11.500037,31.436501 z"
             style="fill:#404040;"/>
          </a>
         </g>
        </svg>
</svg>
