<?xml version="1.0" encoding="UTF-8" standalone="no"?>
<!DOCTYPE svg PUBLIC "-//W3C//DTD SVG 1.1//EN"
 "http://www.w3.org/Graphics/SVG/1.1/DTD/svg11.dtd">
<!-- Generated by graphviz version 2.38.0 (20140413.2041)
 -->
<!-- Title: ComboBox::setActiveID Pages: 1 -->
<svg width="1168pt" height="129pt"
 viewBox="0.00 0.00 1168.00 128.85" xmlns="http://www.w3.org/2000/svg" xmlns:xlink="http://www.w3.org/1999/xlink">
<g id="graph0" class="graph" transform="scale(1 1) rotate(0) translate(4 124.849)">
<title>ComboBox::setActiveID</title>
<!-- Node1 -->
<g id="node1" class="node"><title>Node1</title>
<polygon fill="#bfbfbf" stroke="black" points="0,-15.3487 0,-34.3487 129,-34.3487 129,-15.3487 0,-15.3487"/>
<text text-anchor="middle" x="64.5" y="-22.3487" font-family="Helvetica,sans-Serif" font-size="10.00">ComboBox::setActiveID</text>
</g>
<!-- Node2 -->
<g id="node2" class="node"><title>Node2</title>
<g id="a_node2"><a xlink:href="classComboBox.html#a5d3aaf4c524802d59e1445919715be78" target="_top" xlink:title="Get ID of selected element returns the ID of the selected element in the comboBox. ">
<polygon fill="none" stroke="black" points="165,-44.3487 165,-63.3487 295,-63.3487 295,-44.3487 165,-44.3487"/>
<text text-anchor="middle" x="230" y="-51.3487" font-family="Helvetica,sans-Serif" font-size="10.00">ComboBox::getActiveID</text>
</a>
</g>
</g>
<!-- Node1&#45;&gt;Node2 -->
<g id="edge1" class="edge"><title>Node1&#45;&gt;Node2</title>
<path fill="none" stroke="midnightblue" d="M129.339,-36.1718C144.555,-38.8706 160.641,-41.7238 175.346,-44.3321"/>
<polygon fill="midnightblue" stroke="midnightblue" points="129.947,-32.725 119.489,-34.4247 128.724,-39.6174 129.947,-32.725"/>
</g>
<!-- Node4 -->
<g id="node4" class="node"><title>Node4</title>
<g id="a_node4"><a xlink:href="classUIManager.html#a5c4cb8e02504ffa0d3faf45181feab9d" target="_top" xlink:title="Fill UI Widgets whose ID start with a $ with data Used for filling widgets with data, like BuildMenu Position combobox, Screen Resolution ComboBox and so on. ">
<polygon fill="none" stroke="black" points="569,-51.8487 569,-81.8487 709,-81.8487 709,-51.8487 569,-51.8487"/>
<text text-anchor="start" x="577" y="-69.8487" font-family="Helvetica,sans-Serif" font-size="10.00">UIManager::initializeDollar</text>
<text text-anchor="middle" x="639" y="-58.8487" font-family="Helvetica,sans-Serif" font-size="10.00">Variables</text>
</a>
</g>
</g>
<!-- Node1&#45;&gt;Node4 -->
<g id="edge14" class="edge"><title>Node1&#45;&gt;Node4</title>
<path fill="none" stroke="midnightblue" d="M136.763,-14.0048C226.291,-2.52518 384.172,10.5967 516,-15.8487 550.213,-22.7119 586.808,-39.4045 610.894,-51.8346"/>
<polygon fill="midnightblue" stroke="midnightblue" points="136.182,-10.551 126.722,-15.3224 137.092,-17.4915 136.182,-10.551"/>
</g>
<!-- Node3 -->
<g id="node3" class="node"><title>Node3</title>
<g id="a_node3"><a xlink:href="classUIManager.html#a3ccb2fc669262f18ebdcdf3d5c43a3e8" target="_top" xlink:title="CallbackFunction that sets the Build Menu Position Used as callback function for the ComboBox that ho...">
<polygon fill="none" stroke="black" points="335.5,-63.3487 335.5,-82.3487 511.5,-82.3487 511.5,-63.3487 335.5,-63.3487"/>
<text text-anchor="middle" x="423.5" y="-70.3487" font-family="Helvetica,sans-Serif" font-size="10.00">UIManager::setBuildMenuPosition</text>
</a>
</g>
</g>
<!-- Node2&#45;&gt;Node3 -->
<g id="edge2" class="edge"><title>Node2&#45;&gt;Node3</title>
<path fill="none" stroke="midnightblue" d="M305.195,-61.2101C315.077,-62.1905 325.283,-63.2031 335.36,-64.2029"/>
<polygon fill="midnightblue" stroke="midnightblue" points="305.33,-57.7063 295.033,-60.2018 304.639,-64.6721 305.33,-57.7063"/>
</g>
<!-- Node9 -->
<g id="node9" class="node"><title>Node9</title>
<g id="a_node9"><a xlink:href="classUIManager.html#ac927e1cd3dea979202ea9dbf1195b583" target="_top" xlink:title="UIManager::changeResolution">
<polygon fill="none" stroke="black" points="344.5,-101.349 344.5,-120.349 502.5,-120.349 502.5,-101.349 344.5,-101.349"/>
<text text-anchor="middle" x="423.5" y="-108.349" font-family="Helvetica,sans-Serif" font-size="10.00">UIManager::changeResolution</text>
</a>
</g>
</g>
<!-- Node2&#45;&gt;Node9 -->
<g id="edge8" class="edge"><title>Node2&#45;&gt;Node9</title>
<path fill="none" stroke="midnightblue" d="M262.588,-67.3263C282.051,-75.259 307.665,-85.0387 331,-91.8487 343.304,-95.4393 356.728,-98.6232 369.408,-101.31"/>
<polygon fill="midnightblue" stroke="midnightblue" points="263.869,-64.0689 253.291,-63.4871 261.198,-70.539 263.869,-64.0689"/>
</g>
<!-- Node11 -->
<g id="node11" class="node"><title>Node11</title>
<g id="a_node11"><a xlink:href="classUIManager.html#af2ffb4ee45e57152164643ef6cddda37" target="_top" xlink:title="UIManager::changeFullScreenMode">
<polygon fill="none" stroke="black" points="331,-25.3487 331,-44.3487 516,-44.3487 516,-25.3487 331,-25.3487"/>
<text text-anchor="middle" x="423.5" y="-32.3487" font-family="Helvetica,sans-Serif" font-size="10.00">UIManager::changeFullScreenMode</text>
</a>
</g>
</g>
<!-- Node2&#45;&gt;Node11 -->
<g id="edge12" class="edge"><title>Node2&#45;&gt;Node11</title>
<path fill="none" stroke="midnightblue" d="M305.182,-46.4885C313.614,-45.652 322.281,-44.7921 330.903,-43.9366"/>
<polygon fill="midnightblue" stroke="midnightblue" points="304.639,-43.0252 295.033,-47.4955 305.33,-49.991 304.639,-43.0252"/>
</g>
<!-- Node3&#45;&gt;Node4 -->
<g id="edge3" class="edge"><title>Node3&#45;&gt;Node4</title>
<path fill="none" stroke="midnightblue" d="M521.971,-70.1094C537.764,-69.6656 553.83,-69.2141 568.772,-68.7942"/>
<polygon fill="midnightblue" stroke="midnightblue" points="521.544,-66.6199 511.647,-70.3996 521.741,-73.6172 521.544,-66.6199"/>
</g>
<!-- Node5 -->
<g id="node5" class="node"><title>Node5</title>
<g id="a_node5"><a xlink:href="classUIManager.html#aedd9d0577af515a852425dfe414b2968" target="_top" xlink:title="Parses the UiLayout.json files and creates UI Elements. ">
<polygon fill="none" stroke="black" points="762,-79.3487 762,-98.3487 851,-98.3487 851,-79.3487 762,-79.3487"/>
<text text-anchor="middle" x="806.5" y="-86.3487" font-family="Helvetica,sans-Serif" font-size="10.00">UIManager::init</text>
</a>
</g>
</g>
<!-- Node4&#45;&gt;Node5 -->
<g id="edge4" class="edge"><title>Node4&#45;&gt;Node5</title>
<path fill="none" stroke="midnightblue" d="M719.26,-77.3848C733.817,-79.3198 748.517,-81.2739 761.556,-83.0072"/>
<polygon fill="midnightblue" stroke="midnightblue" points="719.602,-73.8995 709.228,-76.0512 718.68,-80.8384 719.602,-73.8995"/>
</g>
<!-- Node6 -->
<g id="node6" class="node"><title>Node6</title>
<g id="a_node6"><a xlink:href="classGame.html#a1c2ab25d5216b2f4b2fe41efd2c09114" target="_top" xlink:title="Game::run">
<polygon fill="none" stroke="black" points="887,-79.3487 887,-98.3487 955,-98.3487 955,-79.3487 887,-79.3487"/>
<text text-anchor="middle" x="921" y="-86.3487" font-family="Helvetica,sans-Serif" font-size="10.00">Game::run</text>
</a>
</g>
</g>
<!-- Node5&#45;&gt;Node6 -->
<g id="edge5" class="edge"><title>Node5&#45;&gt;Node6</title>
<path fill="none" stroke="midnightblue" d="M861.446,-88.8487C870.145,-88.8487 878.918,-88.8487 886.931,-88.8487"/>
<polygon fill="midnightblue" stroke="midnightblue" points="861.318,-85.3488 851.318,-88.8487 861.318,-92.3488 861.318,-85.3488"/>
</g>
<!-- Node7 -->
<g id="node7" class="node"><title>Node7</title>
<g id="a_node7"><a xlink:href="main_8cxx.html#af582d708d899e67ead623eac34a22387" target="_top" xlink:title="protected_main">
<polygon fill="none" stroke="black" points="991,-79.3487 991,-98.3487 1083,-98.3487 1083,-79.3487 991,-79.3487"/>
<text text-anchor="middle" x="1037" y="-86.3487" font-family="Helvetica,sans-Serif" font-size="10.00">protected_main</text>
</a>
</g>
</g>
<!-- Node6&#45;&gt;Node7 -->
<g id="edge6" class="edge"><title>Node6&#45;&gt;Node7</title>
<path fill="none" stroke="midnightblue" d="M965.44,-88.8487C973.674,-88.8487 982.308,-88.8487 990.601,-88.8487"/>
<polygon fill="midnightblue" stroke="midnightblue" points="965.28,-85.3488 955.28,-88.8487 965.28,-92.3488 965.28,-85.3488"/>
</g>
<!-- Node8 -->
<g id="node8" class="node"><title>Node8</title>
<g id="a_node8"><a xlink:href="main_8cxx.html#a3c04138a5bfe5d72780bb7e82a18e627" target="_top" xlink:title="main">
<polygon fill="none" stroke="black" points="1119,-79.3487 1119,-98.3487 1160,-98.3487 1160,-79.3487 1119,-79.3487"/>
<text text-anchor="middle" x="1139.5" y="-86.3487" font-family="Helvetica,sans-Serif" font-size="10.00">main</text>
</a>
</g>
</g>
<!-- Node7&#45;&gt;Node8 -->
<g id="edge7" class="edge"><title>Node7&#45;&gt;Node8</title>
<path fill="none" stroke="midnightblue" d="M1093.54,-88.8487C1102.62,-88.8487 1111.47,-88.8487 1118.88,-88.8487"/>
<polygon fill="midnightblue" stroke="midnightblue" points="1093.25,-85.3488 1083.25,-88.8487 1093.25,-92.3488 1093.25,-85.3488"/>
</g>
<!-- Node9&#45;&gt;Node4 -->
<g id="edge11" class="edge"><title>Node9&#45;&gt;Node4</title>
<path fill="none" stroke="midnightblue" d="M480.849,-99.2357C507.761,-93.6895 540.22,-87 568.634,-81.1442"/>
<polygon fill="midnightblue" stroke="midnightblue" points="479.914,-95.8548 470.826,-101.301 481.327,-102.711 479.914,-95.8548"/>
</g>
<!-- Node10 -->
<g id="node10" class="node"><title>Node10</title>
<g id="a_node10"><a xlink:href="classUIManager.html#aa78e356fc3b356d790c848319d1c387e" target="_top" xlink:title="UIManager::setCallbackFunctions">
<polygon fill="none" stroke="black" points="552,-101.349 552,-120.349 726,-120.349 726,-101.349 552,-101.349"/>
<text text-anchor="middle" x="639" y="-108.349" font-family="Helvetica,sans-Serif" font-size="10.00">UIManager::setCallbackFunctions</text>
</a>
</g>
</g>
<!-- Node9&#45;&gt;Node10 -->
<g id="edge9" class="edge"><title>Node9&#45;&gt;Node10</title>
<path fill="none" stroke="midnightblue" d="M512.986,-110.849C525.819,-110.849 539.014,-110.849 551.801,-110.849"/>
<polygon fill="midnightblue" stroke="midnightblue" points="512.787,-107.349 502.787,-110.849 512.787,-114.349 512.787,-107.349"/>
</g>
<!-- Node10&#45;&gt;Node5 -->
<g id="edge10" class="edge"><title>Node10&#45;&gt;Node5</title>
<path fill="none" stroke="midnightblue" d="M721.713,-99.9866C735.602,-98.1402 749.53,-96.2887 761.932,-94.6401"/>
<polygon fill="midnightblue" stroke="midnightblue" points="721.08,-96.5398 711.628,-101.327 722.002,-103.479 721.08,-96.5398"/>
</g>
<!-- Node11&#45;&gt;Node4 -->
<g id="edge13" class="edge"><title>Node11&#45;&gt;Node4</title>
<path fill="none" stroke="midnightblue" d="M498,-45.865C520.944,-49.304 546.165,-53.0842 568.804,-56.4773"/>
<polygon fill="midnightblue" stroke="midnightblue" points="498.387,-42.3841 487.979,-44.3631 497.35,-49.3068 498.387,-42.3841"/>
</g>
</g>
</svg>
