<?xml version="1.0" encoding="UTF-8" standalone="no"?>
<!DOCTYPE svg PUBLIC "-//W3C//DTD SVG 1.1//EN"
 "http://www.w3.org/Graphics/SVG/1.1/DTD/svg11.dtd">
<!-- Generated by graphviz version 2.38.0 (20140413.2041)
 -->
<!-- Title: UIElement::isMouseOverHoverableArea Pages: 1 -->
<!--zoomable 189 -->
<svg id="main" version="1.1" xmlns="http://www.w3.org/2000/svg" xmlns:xlink="http://www.w3.org/1999/xlink" xml:space="preserve" onload="init(evt)">
<style type="text/css"><![CDATA[
.edge:hover path { stroke: red; }
.edge:hover polygon { stroke: red; fill: red; }
]]></style>
<script type="text/javascript"><![CDATA[
var edges = document.getElementsByTagName('g');
if (edges && edges.length) {
  for (var i=0;i<edges.length;i++) {
    if (edges[i].id.substr(0,4)=='edge') {
      edges[i].setAttribute('class','edge');
    }
  }
}
]]></script>
        <defs>
                <circle id="rim" cx="0" cy="0" r="7"/>
                <circle id="rim2" cx="0" cy="0" r="3.5"/>
                <g id="zoomPlus">
                        <use xlink:href="#rim" fill="#404040">
                                <set attributeName="fill" to="#808080" begin="zoomplus.mouseover" end="zoomplus.mouseout"/>
                        </use>
                        <path d="M-4,0h8M0,-4v8" fill="none" stroke="white" stroke-width="1.5" pointer-events="none"/>
                </g>
                <g id="zoomMin">
                        <use xlink:href="#rim" fill="#404040">
                                <set attributeName="fill" to="#808080" begin="zoomminus.mouseover" end="zoomminus.mouseout"/>
                        </use>
                        <path d="M-4,0h8" fill="none" stroke="white" stroke-width="1.5" pointer-events="none"/>
                </g>
                <g id="dirArrow">
                        <path fill="none" stroke="white" stroke-width="1.5" d="M0,-3.0v7 M-2.5,-0.5L0,-3.0L2.5,-0.5"/>
                </g>
               <g id="resetDef">
                       <use xlink:href="#rim2" fill="#404040">
                               <set attributeName="fill" to="#808080" begin="reset.mouseover" end="reset.mouseout"/>
                       </use>
               </g>
        </defs>

<script type="text/javascript">
var viewWidth = 1657;
var viewHeight = 189;
var sectionId = 'dynsection-20';
</script>
<script xlink:href="svgpan.js"/>
<svg id="graph" class="graph">
<g id="viewport">
<title>UIElement::isMouseOverHoverableArea</title>
<!-- Node1 -->
<g id="node1" class="node"><title>Node1</title>
<polygon fill="#bfbfbf" stroke="black" points="0,-47.5 0,-66.5 205,-66.5 205,-47.5 0,-47.5"/>
<text text-anchor="middle" x="102.5" y="-54.5" font-family="Helvetica,sans-Serif" font-size="10.00">UIElement::isMouseOverHoverableArea</text>
</g>
<!-- Node2 -->
<g id="node2" class="node"><title>Node2</title>
<g id="a_node2"><a xlink:href="classEventManager.html#a65ec91fd5016d4f9c4167fb8babed2df" target="_top" xlink:title="EventManager::checkEvents">
<polygon fill="none" stroke="black" points="632,-161.5 632,-180.5 784,-180.5 784,-161.5 632,-161.5"/>
<text text-anchor="middle" x="708" y="-168.5" font-family="Helvetica,sans-Serif" font-size="10.00">EventManager::checkEvents</text>
</a>
</g>
</g>
<!-- Node1&#45;&gt;Node2 -->
<g id="edge1" class="edge"><title>Node1&#45;&gt;Node2</title>
<path fill="none" stroke="midnightblue" d="M163.948,-68.4186C282.958,-90.8993 545.663,-140.524 656.303,-161.423"/>
<polygon fill="midnightblue" stroke="midnightblue" points="164.392,-64.9406 153.916,-66.5235 163.093,-71.8189 164.392,-64.9406"/>
</g>
<!-- Node6 -->
<g id="node6" class="node"><title>Node6</title>
<g id="a_node6"><a xlink:href="classUIElement.html#a63a26f6f553d4e5d6ce3c3050b39453d" target="_top" xlink:title="Get the position and the size of this ui element Gets the position and the size of this ui element...">
<polygon fill="none" stroke="black" points="241,-47.5 241,-66.5 399,-66.5 399,-47.5 241,-47.5"/>
<text text-anchor="middle" x="320" y="-54.5" font-family="Helvetica,sans-Serif" font-size="10.00">UIElement::getUiElementRect</text>
</a>
</g>
</g>
<!-- Node1&#45;&gt;Node6 -->
<g id="edge5" class="edge"><title>Node1&#45;&gt;Node6</title>
<path fill="none" stroke="midnightblue" d="M215.38,-57C224.002,-57 232.589,-57 240.92,-57"/>
<polygon fill="midnightblue" stroke="midnightblue" points="215.255,-53.5001 205.255,-57 215.255,-60.5001 215.255,-53.5001"/>
</g>
<!-- Node16 -->
<g id="node16" class="node"><title>Node16</title>
<g id="a_node16"><a xlink:href="classGame.html#a5ed7fc5be77080f7f6dd5363f7f007a1" target="_top" xlink:title="Game::mainMenu">
<polygon fill="none" stroke="black" points="464.5,-9.5 464.5,-28.5 566.5,-28.5 566.5,-9.5 464.5,-9.5"/>
<text text-anchor="middle" x="515.5" y="-16.5" font-family="Helvetica,sans-Serif" font-size="10.00">Game::mainMenu</text>
</a>
</g>
</g>
<!-- Node1&#45;&gt;Node16 -->
<g id="edge22" class="edge"><title>Node1&#45;&gt;Node16</title>
<path fill="none" stroke="midnightblue" d="M175.808,-46.0691C196.8,-43.1505 219.783,-40.2003 241,-38 318.643,-29.9481 409.05,-24.4151 464.003,-21.4781"/>
<polygon fill="midnightblue" stroke="midnightblue" points="175.093,-42.6351 165.679,-47.4958 176.07,-49.5666 175.093,-42.6351"/>
</g>
<!-- Node3 -->
<g id="node3" class="node"><title>Node3</title>
<g id="a_node3"><a xlink:href="classGame.html#a1c2ab25d5216b2f4b2fe41efd2c09114" target="_top" xlink:title="Game::run">
<polygon fill="none" stroke="black" points="1376,-72.5 1376,-91.5 1444,-91.5 1444,-72.5 1376,-72.5"/>
<text text-anchor="middle" x="1410" y="-79.5" font-family="Helvetica,sans-Serif" font-size="10.00">Game::run</text>
</a>
</g>
</g>
<!-- Node2&#45;&gt;Node3 -->
<g id="edge2" class="edge"><title>Node2&#45;&gt;Node3</title>
<path fill="none" stroke="midnightblue" d="M794.42,-171.426C895.614,-170.555 1068.91,-164.72 1215,-138 1276.04,-126.837 1345.41,-104.34 1382.42,-91.518"/>
<polygon fill="midnightblue" stroke="midnightblue" points="794.227,-167.928 784.253,-171.499 794.278,-174.927 794.227,-167.928"/>
</g>
<!-- Node4 -->
<g id="node4" class="node"><title>Node4</title>
<g id="a_node4"><a xlink:href="main_8cxx.html#af582d708d899e67ead623eac34a22387" target="_top" xlink:title="protected_main">
<polygon fill="none" stroke="black" points="1480,-31.5 1480,-50.5 1572,-50.5 1572,-31.5 1480,-31.5"/>
<text text-anchor="middle" x="1526" y="-38.5" font-family="Helvetica,sans-Serif" font-size="10.00">protected_main</text>
</a>
</g>
</g>
<!-- Node3&#45;&gt;Node4 -->
<g id="edge3" class="edge"><title>Node3&#45;&gt;Node4</title>
<path fill="none" stroke="midnightblue" d="M1446.87,-69.0998C1463.52,-63.1107 1482.98,-56.1135 1498.31,-50.5997"/>
<polygon fill="midnightblue" stroke="midnightblue" points="1445.67,-65.8129 1437.44,-72.4907 1448.03,-72.3999 1445.67,-65.8129"/>
</g>
<!-- Node5 -->
<g id="node5" class="node"><title>Node5</title>
<g id="a_node5"><a xlink:href="main_8cxx.html#a3c04138a5bfe5d72780bb7e82a18e627" target="_top" xlink:title="main">
<polygon fill="none" stroke="black" points="1608,-31.5 1608,-50.5 1649,-50.5 1649,-31.5 1608,-31.5"/>
<text text-anchor="middle" x="1628.5" y="-38.5" font-family="Helvetica,sans-Serif" font-size="10.00">main</text>
</a>
</g>
</g>
<!-- Node4&#45;&gt;Node5 -->
<g id="edge4" class="edge"><title>Node4&#45;&gt;Node5</title>
<path fill="none" stroke="midnightblue" d="M1582.54,-41C1591.62,-41 1600.47,-41 1607.88,-41"/>
<polygon fill="midnightblue" stroke="midnightblue" points="1582.25,-37.5001 1572.25,-41 1582.25,-44.5001 1582.25,-37.5001"/>
</g>
<!-- Node7 -->
<g id="node7" class="node"><title>Node7</title>
<g id="a_node7"><a xlink:href="classLayout.html#ac2a5cc72ee1ff5d3ddf4861b3f28d58f" target="_top" xlink:title="Arrange Elements that are aligned to a parent This is a seperate function, so it can recurse if a par...">
<polygon fill="none" stroke="black" points="435,-85.5 435,-104.5 596,-104.5 596,-85.5 435,-85.5"/>
<text text-anchor="middle" x="515.5" y="-92.5" font-family="Helvetica,sans-Serif" font-size="10.00">Layout::arrangeChildElements</text>
</a>
</g>
</g>
<!-- Node6&#45;&gt;Node7 -->
<g id="edge6" class="edge"><title>Node6&#45;&gt;Node7</title>
<path fill="none" stroke="midnightblue" d="M379.753,-68.5381C407.352,-73.958 439.855,-80.341 466.023,-85.4799"/>
<polygon fill="midnightblue" stroke="midnightblue" points="380.315,-65.0817 369.828,-66.589 378.966,-71.9505 380.315,-65.0817"/>
</g>
<!-- Node15 -->
<g id="node15" class="node"><title>Node15</title>
<g id="a_node15"><a xlink:href="classTextField.html#abe03b4b6ebf469645940cfa018bcdca2" target="_top" xlink:title="TextField::addText">
<polygon fill="none" stroke="black" points="466,-47.5 466,-66.5 565,-66.5 565,-47.5 466,-47.5"/>
<text text-anchor="middle" x="515.5" y="-54.5" font-family="Helvetica,sans-Serif" font-size="10.00">TextField::addText</text>
</a>
</g>
</g>
<!-- Node6&#45;&gt;Node15 -->
<g id="edge19" class="edge"><title>Node6&#45;&gt;Node15</title>
<path fill="none" stroke="midnightblue" d="M409.264,-57C428.726,-57 448.648,-57 465.85,-57"/>
<polygon fill="midnightblue" stroke="midnightblue" points="409.146,-53.5001 399.146,-57 409.146,-60.5001 409.146,-53.5001"/>
</g>
<!-- Node6&#45;&gt;Node16 -->
<g id="edge20" class="edge"><title>Node6&#45;&gt;Node16</title>
<path fill="none" stroke="midnightblue" d="M379.753,-45.4619C407.352,-40.042 439.855,-33.659 466.023,-28.5201"/>
<polygon fill="midnightblue" stroke="midnightblue" points="378.966,-42.0495 369.828,-47.411 380.315,-48.9183 378.966,-42.0495"/>
</g>
<!-- Node8 -->
<g id="node8" class="node"><title>Node8</title>
<g id="a_node8"><a xlink:href="classLayout.html#afa734c5af10f59f3dadb066054fe81ab" target="_top" xlink:title="Arrange the layout elements. ">
<polygon fill="none" stroke="black" points="639.5,-85.5 639.5,-104.5 776.5,-104.5 776.5,-85.5 639.5,-85.5"/>
<text text-anchor="middle" x="708" y="-92.5" font-family="Helvetica,sans-Serif" font-size="10.00">Layout::arrangeElements</text>
</a>
</g>
</g>
<!-- Node7&#45;&gt;Node8 -->
<g id="edge7" class="edge"><title>Node7&#45;&gt;Node8</title>
<path fill="none" stroke="midnightblue" d="M606.356,-95C617.48,-95 628.702,-95 639.414,-95"/>
<polygon fill="midnightblue" stroke="midnightblue" points="606.185,-91.5001 596.185,-95 606.185,-98.5001 606.185,-91.5001"/>
</g>
<!-- Node9 -->
<g id="node9" class="node"><title>Node9</title>
<g id="a_node9"><a xlink:href="classUIManager.html#aedd9d0577af515a852425dfe414b2968" target="_top" xlink:title="Parses the UiLayout.json files and creates UI Elements. ">
<polygon fill="none" stroke="black" points="1251,-72.5 1251,-91.5 1340,-91.5 1340,-72.5 1251,-72.5"/>
<text text-anchor="middle" x="1295.5" y="-79.5" font-family="Helvetica,sans-Serif" font-size="10.00">UIManager::init</text>
</a>
</g>
</g>
<!-- Node8&#45;&gt;Node9 -->
<g id="edge8" class="edge"><title>Node8&#45;&gt;Node9</title>
<path fill="none" stroke="midnightblue" d="M739.571,-108.526C761.478,-117.452 791.948,-128.331 820,-133 993.578,-161.889 1042.92,-142.773 1215,-106 1232.48,-102.264 1251.68,-96.5164 1266.83,-91.5825"/>
<polygon fill="midnightblue" stroke="midnightblue" points="740.725,-105.214 730.148,-104.591 738.028,-111.674 740.725,-105.214"/>
</g>
<!-- Node10 -->
<g id="node10" class="node"><title>Node10</title>
<g id="a_node10"><a xlink:href="classUIManager.html#a3ccb2fc669262f18ebdcdf3d5c43a3e8" target="_top" xlink:title="CallbackFunction that sets the Build Menu Position Used as callback function for the ComboBox that ho...">
<polygon fill="none" stroke="black" points="824.5,-104.5 824.5,-123.5 1000.5,-123.5 1000.5,-104.5 824.5,-104.5"/>
<text text-anchor="middle" x="912.5" y="-111.5" font-family="Helvetica,sans-Serif" font-size="10.00">UIManager::setBuildMenuPosition</text>
</a>
</g>
</g>
<!-- Node8&#45;&gt;Node10 -->
<g id="edge10" class="edge"><title>Node8&#45;&gt;Node10</title>
<path fill="none" stroke="midnightblue" d="M786.895,-102.309C799.174,-103.461 811.938,-104.658 824.409,-105.829"/>
<polygon fill="midnightblue" stroke="midnightblue" points="786.994,-98.8027 776.711,-101.353 786.34,-105.772 786.994,-98.8027"/>
</g>
<!-- Node12 -->
<g id="node12" class="node"><title>Node12</title>
<g id="a_node12"><a xlink:href="classUIManager.html#ac927e1cd3dea979202ea9dbf1195b583" target="_top" xlink:title="UIManager::changeResolution">
<polygon fill="none" stroke="black" points="833.5,-28.5 833.5,-47.5 991.5,-47.5 991.5,-28.5 833.5,-28.5"/>
<text text-anchor="middle" x="912.5" y="-35.5" font-family="Helvetica,sans-Serif" font-size="10.00">UIManager::changeResolution</text>
</a>
</g>
</g>
<!-- Node8&#45;&gt;Node12 -->
<g id="edge13" class="edge"><title>Node8&#45;&gt;Node12</title>
<path fill="none" stroke="midnightblue" d="M743.312,-82.0106C765.071,-74.0842 793.934,-64.1378 820,-57 832.831,-53.4862 846.831,-50.274 859.933,-47.5308"/>
<polygon fill="midnightblue" stroke="midnightblue" points="742.025,-78.7544 733.85,-85.493 744.443,-85.3237 742.025,-78.7544"/>
</g>
<!-- Node14 -->
<g id="node14" class="node"><title>Node14</title>
<g id="a_node14"><a xlink:href="classUIManager.html#af2ffb4ee45e57152164643ef6cddda37" target="_top" xlink:title="UIManager::changeFullScreenMode">
<polygon fill="none" stroke="black" points="820,-66.5 820,-85.5 1005,-85.5 1005,-66.5 820,-66.5"/>
<text text-anchor="middle" x="912.5" y="-73.5" font-family="Helvetica,sans-Serif" font-size="10.00">UIManager::changeFullScreenMode</text>
</a>
</g>
</g>
<!-- Node8&#45;&gt;Node14 -->
<g id="edge17" class="edge"><title>Node8&#45;&gt;Node14</title>
<path fill="none" stroke="midnightblue" d="M786.883,-87.6924C797.63,-86.6841 808.748,-85.641 819.716,-84.6118"/>
<polygon fill="midnightblue" stroke="midnightblue" points="786.34,-84.2279 776.711,-88.6469 786.994,-91.1973 786.34,-84.2279"/>
</g>
<!-- Node9&#45;&gt;Node3 -->
<g id="edge9" class="edge"><title>Node9&#45;&gt;Node3</title>
<path fill="none" stroke="midnightblue" d="M1350.45,-82C1359.15,-82 1367.92,-82 1375.93,-82"/>
<polygon fill="midnightblue" stroke="midnightblue" points="1350.32,-78.5001 1340.32,-82 1350.32,-85.5001 1350.32,-78.5001"/>
</g>
<!-- Node11 -->
<g id="node11" class="node"><title>Node11</title>
<g id="a_node11"><a xlink:href="classUIManager.html#a5c4cb8e02504ffa0d3faf45181feab9d" target="_top" xlink:title="Fill UI Widgets whose ID start with a $ with data Used for filling widgets with data, like BuildMenu Position combobox, Screen Resolution ComboBox and so on. ">
<polygon fill="none" stroke="black" points="1058,-67 1058,-97 1198,-97 1198,-67 1058,-67"/>
<text text-anchor="start" x="1066" y="-85" font-family="Helvetica,sans-Serif" font-size="10.00">UIManager::initializeDollar</text>
<text text-anchor="middle" x="1128" y="-74" font-family="Helvetica,sans-Serif" font-size="10.00">Variables</text>
</a>
</g>
</g>
<!-- Node10&#45;&gt;Node11 -->
<g id="edge11" class="edge"><title>Node10&#45;&gt;Node11</title>
<path fill="none" stroke="midnightblue" d="M987,-102.984C1009.94,-99.5447 1035.17,-95.7645 1057.8,-92.3714"/>
<polygon fill="midnightblue" stroke="midnightblue" points="986.35,-99.5419 976.979,-104.486 987.387,-106.465 986.35,-99.5419"/>
</g>
<!-- Node11&#45;&gt;Node9 -->
<g id="edge12" class="edge"><title>Node11&#45;&gt;Node9</title>
<path fill="none" stroke="midnightblue" d="M1208.26,-82C1222.82,-82 1237.52,-82 1250.56,-82"/>
<polygon fill="midnightblue" stroke="midnightblue" points="1208.23,-78.5001 1198.23,-82 1208.23,-85.5001 1208.23,-78.5001"/>
</g>
<!-- Node12&#45;&gt;Node11 -->
<g id="edge16" class="edge"><title>Node12&#45;&gt;Node11</title>
<path fill="none" stroke="midnightblue" d="M969.849,-49.6129C996.761,-55.1592 1029.22,-61.8486 1057.63,-67.7045"/>
<polygon fill="midnightblue" stroke="midnightblue" points="970.327,-46.1379 959.826,-47.5473 968.914,-52.9939 970.327,-46.1379"/>
</g>
<!-- Node13 -->
<g id="node13" class="node"><title>Node13</title>
<g id="a_node13"><a xlink:href="classUIManager.html#aa78e356fc3b356d790c848319d1c387e" target="_top" xlink:title="UIManager::setCallbackFunctions">
<polygon fill="none" stroke="black" points="1041,-28.5 1041,-47.5 1215,-47.5 1215,-28.5 1041,-28.5"/>
<text text-anchor="middle" x="1128" y="-35.5" font-family="Helvetica,sans-Serif" font-size="10.00">UIManager::setCallbackFunctions</text>
</a>
</g>
</g>
<!-- Node12&#45;&gt;Node13 -->
<g id="edge14" class="edge"><title>Node12&#45;&gt;Node13</title>
<path fill="none" stroke="midnightblue" d="M1001.99,-38C1014.82,-38 1028.01,-38 1040.8,-38"/>
<polygon fill="midnightblue" stroke="midnightblue" points="1001.79,-34.5001 991.787,-38 1001.79,-41.5001 1001.79,-34.5001"/>
</g>
<!-- Node13&#45;&gt;Node9 -->
<g id="edge15" class="edge"><title>Node13&#45;&gt;Node9</title>
<path fill="none" stroke="midnightblue" d="M1185.38,-49.7162C1195.29,-51.9856 1205.47,-54.4545 1215,-57 1232.19,-61.5932 1251.22,-67.5439 1266.34,-72.4872"/>
<polygon fill="midnightblue" stroke="midnightblue" points="1186.12,-46.2961 1175.6,-47.5179 1184.59,-53.1258 1186.12,-46.2961"/>
</g>
<!-- Node14&#45;&gt;Node11 -->
<g id="edge18" class="edge"><title>Node14&#45;&gt;Node11</title>
<path fill="none" stroke="midnightblue" d="M1015.66,-78.8711C1029.96,-79.273 1044.37,-79.678 1057.87,-80.0572"/>
<polygon fill="midnightblue" stroke="midnightblue" points="1015.38,-75.3618 1005.28,-78.5794 1015.18,-82.359 1015.38,-75.3618"/>
</g>
<!-- Node16&#45;&gt;Node4 -->
<g id="edge21" class="edge"><title>Node16&#45;&gt;Node4</title>
<path fill="none" stroke="midnightblue" d="M576.707,-14.3017C654.12,-8.67526 792.737,-0 911.5,-0 911.5,-0 911.5,-0 1296.5,-0 1367.43,-0 1448.84,-19.3789 1492.78,-31.4907"/>
<polygon fill="midnightblue" stroke="midnightblue" points="576.374,-10.8167 566.657,-15.0401 576.887,-17.7979 576.374,-10.8167"/>
</g>
</g>
</svg>
        <g id="navigator" transform="translate(0 0)" fill="#404254">
                <rect fill="#f2f5e9" fill-opacity="0.5" stroke="#606060" stroke-width=".5" x="0" y="0" width="60" height="60"/>
                <use id="zoomplus" xlink:href="#zoomPlus" x="17" y="9" onmousedown="handleZoom(evt,'in')"/>
                <use id="zoomminus" xlink:href="#zoomMin" x="42" y="9" onmousedown="handleZoom(evt,'out')"/>
                <use id="reset" xlink:href="#resetDef" x="30" y="36" onmousedown="handleReset()"/>
                <g id="arrowUp" xlink:href="#dirArrow" transform="translate(30 24)" onmousedown="handlePan(0,-1)">
                  <use xlink:href="#rim" fill="#404040">
                        <set attributeName="fill" to="#808080" begin="arrowUp.mouseover" end="arrowUp.mouseout"/>
                  </use>
                  <path fill="none" stroke="white" stroke-width="1.5" d="M0,-3.0v7 M-2.5,-0.5L0,-3.0L2.5,-0.5"/>
                </g>
                <g id="arrowRight" xlink:href="#dirArrow" transform="rotate(90) translate(36 -43)" onmousedown="handlePan(1,0)">
                  <use xlink:href="#rim" fill="#404040">
                        <set attributeName="fill" to="#808080" begin="arrowRight.mouseover" end="arrowRight.mouseout"/>
                  </use>
                  <path fill="none" stroke="white" stroke-width="1.5" d="M0,-3.0v7 M-2.5,-0.5L0,-3.0L2.5,-0.5"/>
                </g>
                <g id="arrowDown" xlink:href="#dirArrow" transform="rotate(180) translate(-30 -48)" onmousedown="handlePan(0,1)">
                  <use xlink:href="#rim" fill="#404040">
                        <set attributeName="fill" to="#808080" begin="arrowDown.mouseover" end="arrowDown.mouseout"/>
                  </use>
                  <path fill="none" stroke="white" stroke-width="1.5" d="M0,-3.0v7 M-2.5,-0.5L0,-3.0L2.5,-0.5"/>
                </g>
                <g id="arrowLeft" xlink:href="#dirArrow" transform="rotate(270) translate(-36 17)" onmousedown="handlePan(-1,0)">
                  <use xlink:href="#rim" fill="#404040">
                        <set attributeName="fill" to="#808080" begin="arrowLeft.mouseover" end="arrowLeft.mouseout"/>
                  </use>
                  <path fill="none" stroke="white" stroke-width="1.5" d="M0,-3.0v7 M-2.5,-0.5L0,-3.0L2.5,-0.5"/>
                </g>
        </g>
        <svg viewBox="0 0 15 15" width="100%" height="30px" preserveAspectRatio="xMaxYMin meet">
         <g id="arrow_out" transform="scale(0.3 0.3)">
          <a xlink:href="classUIElement_a570841bf8b7970ca935b1a00e571036a_icgraph_org.svg" target="_base">
           <rect id="button" ry="5" rx="5" y="6" x="6" height="38" width="38"
                fill="#f2f5e9" fill-opacity="0.5" stroke="#606060" stroke-width="1.0"/>
           <path id="arrow"
             d="M 11.500037,31.436501 C 11.940474,20.09759 22.043105,11.32322 32.158766,21.979434 L 37.068811,17.246167 C 37.068811,17.246167 37.088388,32 37.088388,32 L 22.160133,31.978069 C 22.160133,31.978069 26.997745,27.140456 26.997745,27.140456 C 18.528582,18.264221 13.291696,25.230495 11.500037,31.436501 z"
             style="fill:#404040;"/>
          </a>
         </g>
        </svg>
</svg>
