<?xml version="1.0" encoding="UTF-8" standalone="no"?>
<!DOCTYPE svg PUBLIC "-//W3C//DTD SVG 1.1//EN"
 "http://www.w3.org/Graphics/SVG/1.1/DTD/svg11.dtd">
<!-- Generated by graphviz version 2.38.0 (20140413.2041)
 -->
<!-- Title: ComboBox::onMouseMove Pages: 1 -->
<svg width="554pt" height="132pt"
 viewBox="0.00 0.00 554.00 131.50" xmlns="http://www.w3.org/2000/svg" xmlns:xlink="http://www.w3.org/1999/xlink">
<g id="graph0" class="graph" transform="scale(1 1) rotate(0) translate(4 127.5)">
<title>ComboBox::onMouseMove</title>
<!-- Node1 -->
<g id="node1" class="node"><title>Node1</title>
<polygon fill="#bfbfbf" stroke="black" points="0,-66 0,-85 144,-85 144,-66 0,-66"/>
<text text-anchor="middle" x="72" y="-73" font-family="Helvetica,sans-Serif" font-size="10.00">ComboBox::onMouseMove</text>
</g>
<!-- Node2 -->
<g id="node2" class="node"><title>Node2</title>
<g id="a_node2"><a xlink:href="classComboBox.html#a0d22df3316d734401c6a60f14f186134" target="_top" xlink:title="ComboBox::checkBoundaries">
<polygon fill="none" stroke="black" points="184.5,-104 184.5,-123 341.5,-123 341.5,-104 184.5,-104"/>
<text text-anchor="middle" x="263" y="-111" font-family="Helvetica,sans-Serif" font-size="10.00">ComboBox::checkBoundaries</text>
</a>
</g>
</g>
<!-- Node1&#45;&gt;Node2 -->
<g id="edge1" class="edge"><title>Node1&#45;&gt;Node2</title>
<path fill="none" stroke="midnightblue" d="M120.693,-85.089C146.195,-90.2165 177.782,-96.5672 204.62,-101.963"/>
<polygon fill="midnightblue" stroke="midnightblue" points="204.157,-105.44 214.65,-103.98 205.536,-98.5774 204.157,-105.44"/>
</g>
<!-- Node3 -->
<g id="node3" class="node"><title>Node3</title>
<g id="a_node3"><a xlink:href="classUIElement.html#a98725ac250168ebb2fa676dd481ff495" target="_top" xlink:title="Get the button state Get the current mouse button pressed state. ">
<polygon fill="none" stroke="black" points="190,-66 190,-85 336,-85 336,-66 190,-66"/>
<text text-anchor="middle" x="263" y="-73" font-family="Helvetica,sans-Serif" font-size="10.00">UIElement::getButtonState</text>
</a>
</g>
</g>
<!-- Node1&#45;&gt;Node3 -->
<g id="edge2" class="edge"><title>Node1&#45;&gt;Node3</title>
<path fill="none" stroke="midnightblue" d="M144.183,-75.5C155.757,-75.5 167.828,-75.5 179.642,-75.5"/>
<polygon fill="midnightblue" stroke="midnightblue" points="179.938,-79.0001 189.938,-75.5 179.938,-72.0001 179.938,-79.0001"/>
</g>
<!-- Node4 -->
<g id="node4" class="node"><title>Node4</title>
<g id="a_node4"><a xlink:href="classUIElement.html#ade4162d6216022e143c769369b64add7" target="_top" xlink:title="Set the button state Sets the mouse button pressed state. ">
<polygon fill="none" stroke="black" points="180,-28 180,-47 346,-47 346,-28 180,-28"/>
<text text-anchor="middle" x="263" y="-35" font-family="Helvetica,sans-Serif" font-size="10.00">UIElement::changeButtonState</text>
</a>
</g>
</g>
<!-- Node1&#45;&gt;Node4 -->
<g id="edge3" class="edge"><title>Node1&#45;&gt;Node4</title>
<path fill="none" stroke="midnightblue" d="M120.693,-65.911C146.195,-60.7835 177.782,-54.4328 204.62,-49.0368"/>
<polygon fill="midnightblue" stroke="midnightblue" points="205.536,-52.4226 214.65,-47.0201 204.157,-45.5599 205.536,-52.4226"/>
</g>
<!-- Node5 -->
<g id="node5" class="node"><title>Node5</title>
<g id="a_node5"><a xlink:href="classUIElement.html#afdf67550d4140097c7a328d4b22fc1fe" target="_top" xlink:title="UIElement::changeTexture">
<polygon fill="none" stroke="black" points="393,-50 393,-69 535,-69 535,-50 393,-50"/>
<text text-anchor="middle" x="464" y="-57" font-family="Helvetica,sans-Serif" font-size="10.00">UIElement::changeTexture</text>
</a>
</g>
</g>
<!-- Node4&#45;&gt;Node5 -->
<g id="edge4" class="edge"><title>Node4&#45;&gt;Node5</title>
<path fill="none" stroke="midnightblue" d="M346.09,-46.5753C358.218,-47.9161 370.703,-49.2963 382.792,-50.6328"/>
<polygon fill="midnightblue" stroke="midnightblue" points="382.514,-54.1233 392.838,-51.7434 383.283,-47.1657 382.514,-54.1233"/>
</g>
<!-- Node6 -->
<g id="node6" class="node"><title>Node6</title>
<g id="a_node6"><a xlink:href="classSingleton.html#af5cb1e5749949e2b68416cfb8d378044" target="_top" xlink:title="Get an instance of the singleton. ">
<polygon fill="none" stroke="black" points="382,-0.5 382,-30.5 546,-30.5 546,-0.5 382,-0.5"/>
<text text-anchor="start" x="390" y="-18.5" font-family="Helvetica,sans-Serif" font-size="10.00">Singleton&lt; ResourcesManager</text>
<text text-anchor="middle" x="464" y="-7.5" font-family="Helvetica,sans-Serif" font-size="10.00"> &gt;::instance</text>
</a>
</g>
</g>
<!-- Node4&#45;&gt;Node6 -->
<g id="edge5" class="edge"><title>Node4&#45;&gt;Node6</title>
<path fill="none" stroke="midnightblue" d="M346.09,-28.4247C354.555,-27.4889 363.193,-26.534 371.749,-25.588"/>
<polygon fill="midnightblue" stroke="midnightblue" points="372.186,-29.0612 381.741,-24.4834 371.417,-22.1036 372.186,-29.0612"/>
</g>
</g>
</svg>
