<?xml version="1.0" encoding="UTF-8" standalone="no"?>
<!DOCTYPE svg PUBLIC "-//W3C//DTD SVG 1.1//EN"
 "http://www.w3.org/Graphics/SVG/1.1/DTD/svg11.dtd">
<!-- Generated by graphviz version 2.38.0 (20140413.2041)
 -->
<!-- Title: UIManager::changeFullScreenMode Pages: 1 -->
<svg width="1061pt" height="288pt"
 viewBox="0.00 0.00 1061.00 288.09" xmlns="http://www.w3.org/2000/svg" xmlns:xlink="http://www.w3.org/1999/xlink">
<g id="graph0" class="graph" transform="scale(1 1) rotate(0) translate(4 284.094)">
<title>UIManager::changeFullScreenMode</title>
<!-- Node1 -->
<g id="node1" class="node"><title>Node1</title>
<polygon fill="#bfbfbf" stroke="black" points="0,-200.5 0,-219.5 185,-219.5 185,-200.5 0,-200.5"/>
<text text-anchor="middle" x="92.5" y="-207.5" font-family="Helvetica,sans-Serif" font-size="10.00">UIManager::changeFullScreenMode</text>
</g>
<!-- Node2 -->
<g id="node2" class="node"><title>Node2</title>
<g id="a_node2"><a xlink:href="classSingleton.html#af5cb1e5749949e2b68416cfb8d378044" target="_top" xlink:title="Get an instance of the singleton. ">
<polygon fill="none" stroke="black" points="653,-206 653,-236 803,-236 803,-206 653,-206"/>
<text text-anchor="start" x="661" y="-224" font-family="Helvetica,sans-Serif" font-size="10.00">Singleton&lt; WindowManager</text>
<text text-anchor="middle" x="728" y="-213" font-family="Helvetica,sans-Serif" font-size="10.00"> &gt;::instance</text>
</a>
</g>
</g>
<!-- Node1&#45;&gt;Node2 -->
<g id="edge1" class="edge"><title>Node1&#45;&gt;Node2</title>
<path fill="none" stroke="midnightblue" d="M113.679,-219.635C138.341,-230.851 181.656,-248.76 221,-256 390.169,-287.129 438.143,-287.124 608,-260 632.854,-256.031 659.566,-247.676 681.371,-239.714"/>
<polygon fill="midnightblue" stroke="midnightblue" points="682.883,-242.885 691.021,-236.1 680.428,-236.329 682.883,-242.885"/>
</g>
<!-- Node3 -->
<g id="node3" class="node"><title>Node3</title>
<g id="a_node3"><a xlink:href="classWindowManager.html#a5c90941e00dd96547de3fd542f00fabf" target="_top" xlink:title="WindowManager::setFullScreenMode">
<polygon fill="none" stroke="black" points="221,-227.5 221,-246.5 411,-246.5 411,-227.5 221,-227.5"/>
<text text-anchor="middle" x="316" y="-234.5" font-family="Helvetica,sans-Serif" font-size="10.00">WindowManager::setFullScreenMode</text>
</a>
</g>
</g>
<!-- Node1&#45;&gt;Node3 -->
<g id="edge2" class="edge"><title>Node1&#45;&gt;Node3</title>
<path fill="none" stroke="midnightblue" d="M171.593,-219.519C189.458,-221.697 208.569,-224.026 226.825,-226.252"/>
<polygon fill="midnightblue" stroke="midnightblue" points="226.516,-229.74 236.866,-227.476 227.363,-222.791 226.516,-229.74"/>
</g>
<!-- Node4 -->
<g id="node4" class="node"><title>Node4</title>
<g id="a_node4"><a xlink:href="classComboBox.html#a5d3aaf4c524802d59e1445919715be78" target="_top" xlink:title="Get ID of selected element returns the ID of the selected element in the comboBox. ">
<polygon fill="none" stroke="black" points="251,-94.5 251,-113.5 381,-113.5 381,-94.5 251,-94.5"/>
<text text-anchor="middle" x="316" y="-101.5" font-family="Helvetica,sans-Serif" font-size="10.00">ComboBox::getActiveID</text>
</a>
</g>
</g>
<!-- Node1&#45;&gt;Node4 -->
<g id="edge4" class="edge"><title>Node1&#45;&gt;Node4</title>
<path fill="none" stroke="midnightblue" d="M113.547,-200.406C152.819,-181.613 240.026,-139.879 285.744,-118"/>
<polygon fill="midnightblue" stroke="midnightblue" points="287.329,-121.122 294.838,-113.648 284.307,-114.808 287.329,-121.122"/>
</g>
<!-- Node6 -->
<g id="node6" class="node"><title>Node6</title>
<g id="a_node6"><a xlink:href="classLayout.html#afa734c5af10f59f3dadb066054fe81ab" target="_top" xlink:title="Arrange the layout elements. ">
<polygon fill="none" stroke="black" points="247.5,-173.5 247.5,-192.5 384.5,-192.5 384.5,-173.5 247.5,-173.5"/>
<text text-anchor="middle" x="316" y="-180.5" font-family="Helvetica,sans-Serif" font-size="10.00">Layout::arrangeElements</text>
</a>
</g>
</g>
<!-- Node1&#45;&gt;Node6 -->
<g id="edge6" class="edge"><title>Node1&#45;&gt;Node6</title>
<path fill="none" stroke="midnightblue" d="M171.593,-200.481C192.882,-197.886 215.94,-195.075 237.213,-192.482"/>
<polygon fill="midnightblue" stroke="midnightblue" points="237.669,-195.952 247.172,-191.268 236.822,-189.004 237.669,-195.952"/>
</g>
<!-- Node3&#45;&gt;Node2 -->
<g id="edge3" class="edge"><title>Node3&#45;&gt;Node2</title>
<path fill="none" stroke="midnightblue" d="M411.234,-244.949C468.299,-248.352 542.477,-250.274 608,-244 621.99,-242.66 636.78,-240.454 651,-237.925"/>
<polygon fill="midnightblue" stroke="midnightblue" points="652.037,-241.293 661.234,-236.034 650.765,-234.409 652.037,-241.293"/>
</g>
<!-- Node5 -->
<g id="node5" class="node"><title>Node5</title>
<g id="a_node5"><a xlink:href="classComboBox.html#ad0dba514b01ed2bb3c41c738c80a7d6a" target="_top" xlink:title="Set ID of selected element sets the ID of the selected element in the comboBox. ">
<polygon fill="none" stroke="black" points="463,-38.5 463,-57.5 592,-57.5 592,-38.5 463,-38.5"/>
<text text-anchor="middle" x="527.5" y="-45.5" font-family="Helvetica,sans-Serif" font-size="10.00">ComboBox::setActiveID</text>
</a>
</g>
</g>
<!-- Node4&#45;&gt;Node5 -->
<g id="edge5" class="edge"><title>Node4&#45;&gt;Node5</title>
<path fill="none" stroke="midnightblue" d="M348.95,-94.4949C375.202,-86.7846 413.402,-75.7918 447,-67 456.074,-64.6256 465.761,-62.2108 475.141,-59.9347"/>
<polygon fill="midnightblue" stroke="midnightblue" points="476.249,-63.268 485.154,-57.5278 474.613,-56.4619 476.249,-63.268"/>
</g>
<!-- Node6&#45;&gt;Node2 -->
<g id="edge7" class="edge"><title>Node6&#45;&gt;Node2</title>
<path fill="none" stroke="midnightblue" d="M384.703,-184.109C455.446,-188.7 566.561,-198.862 642.889,-207.63"/>
<polygon fill="midnightblue" stroke="midnightblue" points="642.615,-211.122 652.952,-208.802 643.424,-204.169 642.615,-211.122"/>
</g>
<!-- Node6&#45;&gt;Node2 -->
<g id="edge10" class="edge"><title>Node6&#45;&gt;Node2</title>
<path fill="none" stroke="midnightblue" d="M369.343,-192.539C438.353,-201.346 560.609,-212.974 642.723,-218.767"/>
<polygon fill="midnightblue" stroke="midnightblue" points="642.564,-222.264 652.781,-219.46 643.045,-215.281 642.564,-222.264"/>
</g>
<!-- Node7 -->
<g id="node7" class="node"><title>Node7</title>
<g id="a_node7"><a xlink:href="classLayout.html#a79480df6d9dd2d32b23468c05c6ac944" target="_top" xlink:title="Calculates height and width of layout groups. ">
<polygon fill="none" stroke="black" points="448,-153 448,-183 607,-183 607,-153 448,-153"/>
<text text-anchor="start" x="456" y="-171" font-family="Helvetica,sans-Serif" font-size="10.00">Layout::calculateLayoutGroup</text>
<text text-anchor="middle" x="527.5" y="-160" font-family="Helvetica,sans-Serif" font-size="10.00">Dimensions</text>
</a>
</g>
</g>
<!-- Node6&#45;&gt;Node7 -->
<g id="edge8" class="edge"><title>Node6&#45;&gt;Node7</title>
<path fill="none" stroke="midnightblue" d="M384.729,-178.151C401.518,-176.949 419.763,-175.642 437.403,-174.379"/>
<polygon fill="midnightblue" stroke="midnightblue" points="437.978,-177.847 447.703,-173.642 437.478,-170.865 437.978,-177.847"/>
</g>
<!-- Node8 -->
<g id="node8" class="node"><title>Node8</title>
<g id="a_node8"><a xlink:href="classUIManager.html#a0d32c5b63c4110ff8e43ab06c1c7d761" target="_top" xlink:title="Get the Layoutgroup container Returns the container, that holds LayoutGroups. ">
<polygon fill="none" stroke="black" points="644,-114.5 644,-133.5 812,-133.5 812,-114.5 644,-114.5"/>
<text text-anchor="middle" x="728" y="-121.5" font-family="Helvetica,sans-Serif" font-size="10.00">UIManager::getAllLayoutGroups</text>
</a>
</g>
</g>
<!-- Node6&#45;&gt;Node8 -->
<g id="edge11" class="edge"><title>Node6&#45;&gt;Node8</title>
<path fill="none" stroke="midnightblue" d="M341.976,-173.423C367.837,-163.959 409.618,-149.923 447,-143 508.676,-131.578 579.129,-126.839 633.935,-124.95"/>
<polygon fill="midnightblue" stroke="midnightblue" points="634.098,-128.446 643.981,-124.629 633.874,-121.45 634.098,-128.446"/>
</g>
<!-- Node9 -->
<g id="node9" class="node"><title>Node9</title>
<g id="a_node9"><a xlink:href="classLayout.html#ac2a5cc72ee1ff5d3ddf4861b3f28d58f" target="_top" xlink:title="Arrange Elements that are aligned to a parent This is a seperate function, so it can recurse if a par...">
<polygon fill="none" stroke="black" points="447,-76.5 447,-95.5 608,-95.5 608,-76.5 447,-76.5"/>
<text text-anchor="middle" x="527.5" y="-83.5" font-family="Helvetica,sans-Serif" font-size="10.00">Layout::arrangeChildElements</text>
</a>
</g>
</g>
<!-- Node6&#45;&gt;Node9 -->
<g id="edge12" class="edge"><title>Node6&#45;&gt;Node9</title>
<path fill="none" stroke="midnightblue" d="M331.666,-173.351C355.192,-158.204 403.177,-128.653 447,-110 457.156,-105.677 468.349,-101.793 479.049,-98.4722"/>
<polygon fill="midnightblue" stroke="midnightblue" points="480.117,-101.806 488.693,-95.5844 478.109,-95.1 480.117,-101.806"/>
</g>
<!-- Node7&#45;&gt;Node2 -->
<g id="edge9" class="edge"><title>Node7&#45;&gt;Node2</title>
<path fill="none" stroke="midnightblue" d="M584.851,-183.046C608.424,-189.34 635.996,-196.702 660.549,-203.257"/>
<polygon fill="midnightblue" stroke="midnightblue" points="659.943,-206.718 670.508,-205.916 661.749,-199.955 659.943,-206.718"/>
</g>
<!-- Node9&#45;&gt;Node2 -->
<g id="edge13" class="edge"><title>Node9&#45;&gt;Node2</title>
<path fill="none" stroke="midnightblue" d="M548.995,-95.6316C585.74,-117.48 662.677,-169.693 702.28,-199.545"/>
<polygon fill="midnightblue" stroke="midnightblue" points="700.524,-202.609 710.591,-205.912 704.781,-197.052 700.524,-202.609"/>
</g>
<!-- Node9&#45;&gt;Node2 -->
<g id="edge14" class="edge"><title>Node9&#45;&gt;Node2</title>
<path fill="none" stroke="midnightblue" d="M538.074,-95.621C564.848,-117.7 641.603,-170.686 688.635,-200.37"/>
<polygon fill="midnightblue" stroke="midnightblue" points="687,-203.476 697.336,-205.805 690.708,-197.539 687,-203.476"/>
</g>
<!-- Node9&#45;&gt;Node8 -->
<g id="edge17" class="edge"><title>Node9&#45;&gt;Node8</title>
<path fill="none" stroke="midnightblue" d="M578.334,-95.54C605.234,-100.69 638.636,-107.084 666.961,-112.506"/>
<polygon fill="midnightblue" stroke="midnightblue" points="666.666,-116.013 677.146,-114.456 667.982,-109.138 666.666,-116.013"/>
</g>
<!-- Node10 -->
<g id="node10" class="node"><title>Node10</title>
<g id="a_node10"><a xlink:href="classUIManager.html#acc2fd1de357cb6745ea39d54a93caa27" target="_top" xlink:title="Get the Ui Element By ID Finds and returns an UiElement by its elementID parameter. ">
<polygon fill="none" stroke="black" points="647.5,-38.5 647.5,-57.5 808.5,-57.5 808.5,-38.5 647.5,-38.5"/>
<text text-anchor="middle" x="728" y="-45.5" font-family="Helvetica,sans-Serif" font-size="10.00">UIManager::getUiElementByID</text>
</a>
</g>
</g>
<!-- Node9&#45;&gt;Node10 -->
<g id="edge15" class="edge"><title>Node9&#45;&gt;Node10</title>
<path fill="none" stroke="midnightblue" d="M578.334,-76.46C605.234,-71.3104 638.636,-64.916 666.961,-59.4935"/>
<polygon fill="midnightblue" stroke="midnightblue" points="667.982,-62.8618 677.146,-57.5439 666.666,-55.9866 667.982,-62.8618"/>
</g>
<!-- Node11 -->
<g id="node11" class="node"><title>Node11</title>
<g id="a_node11"><a xlink:href="classUIElement.html#ad448eae9fd22723ca68f04db6a180de7" target="_top" xlink:title="UIElement::getUiElementData">
<polygon fill="none" stroke="black" points="647.5,-0.5 647.5,-19.5 808.5,-19.5 808.5,-0.5 647.5,-0.5"/>
<text text-anchor="middle" x="728" y="-7.5" font-family="Helvetica,sans-Serif" font-size="10.00">UIElement::getUiElementData</text>
</a>
</g>
</g>
<!-- Node9&#45;&gt;Node11 -->
<g id="edge16" class="edge"><title>Node9&#45;&gt;Node11</title>
<path fill="none" stroke="midnightblue" d="M586.067,-76.4703C593.716,-74.0041 601.24,-70.9018 608,-67 628.149,-55.3696 623.796,-40.534 644,-29 647.934,-26.7544 652.115,-24.7742 656.427,-23.028"/>
<polygon fill="midnightblue" stroke="midnightblue" points="657.813,-26.2491 666.035,-19.5668 655.44,-19.6634 657.813,-26.2491"/>
</g>
<!-- Node12 -->
<g id="node12" class="node"><title>Node12</title>
<g id="a_node12"><a xlink:href="classUIElement.html#a63a26f6f553d4e5d6ce3c3050b39453d" target="_top" xlink:title="Get the position and the size of this ui element Gets the position and the size of this ui element...">
<polygon fill="none" stroke="black" points="649,-76.5 649,-95.5 807,-95.5 807,-76.5 649,-76.5"/>
<text text-anchor="middle" x="728" y="-83.5" font-family="Helvetica,sans-Serif" font-size="10.00">UIElement::getUiElementRect</text>
</a>
</g>
</g>
<!-- Node9&#45;&gt;Node12 -->
<g id="edge18" class="edge"><title>Node9&#45;&gt;Node12</title>
<path fill="none" stroke="midnightblue" d="M608.094,-86C618.125,-86 628.435,-86 638.592,-86"/>
<polygon fill="midnightblue" stroke="midnightblue" points="638.681,-89.5001 648.681,-86 638.681,-82.5001 638.681,-89.5001"/>
</g>
<!-- Node13 -->
<g id="node13" class="node"><title>Node13</title>
<g id="a_node13"><a xlink:href="classUIElement.html#aa7f624963eaeb31043d74219ee24386c" target="_top" xlink:title="Checks if the mouse cursor is over the current UI Element Check if the coordinates match the ones sto...">
<polygon fill="none" stroke="black" points="883.5,-95.5 883.5,-114.5 1017.5,-114.5 1017.5,-95.5 883.5,-95.5"/>
<text text-anchor="middle" x="950.5" y="-102.5" font-family="Helvetica,sans-Serif" font-size="10.00">UIElement::isMouseOver</text>
</a>
</g>
</g>
<!-- Node12&#45;&gt;Node13 -->
<g id="edge19" class="edge"><title>Node12&#45;&gt;Node13</title>
<path fill="none" stroke="midnightblue" d="M807.05,-92.7254C828.547,-94.5778 851.835,-96.5844 873.23,-98.428"/>
<polygon fill="midnightblue" stroke="midnightblue" points="872.975,-101.919 883.238,-99.2904 873.576,-94.9447 872.975,-101.919"/>
</g>
<!-- Node14 -->
<g id="node14" class="node"><title>Node14</title>
<g id="a_node14"><a xlink:href="classUIElement.html#a570841bf8b7970ca935b1a00e571036a" target="_top" xlink:title="Handling for the hovering event Check, if the mouse cursor is hovering over the element. virtual function to provide custom handling if necessary (e.g. Combobox) Per default, it&#39;s the same implementation as isMouseOver. ">
<polygon fill="none" stroke="black" points="848,-57.5 848,-76.5 1053,-76.5 1053,-57.5 848,-57.5"/>
<text text-anchor="middle" x="950.5" y="-64.5" font-family="Helvetica,sans-Serif" font-size="10.00">UIElement::isMouseOverHoverableArea</text>
</a>
</g>
</g>
<!-- Node12&#45;&gt;Node14 -->
<g id="edge20" class="edge"><title>Node12&#45;&gt;Node14</title>
<path fill="none" stroke="midnightblue" d="M807.05,-79.2746C817.096,-78.409 827.533,-77.5097 837.984,-76.6091"/>
<polygon fill="midnightblue" stroke="midnightblue" points="838.335,-80.0919 847.997,-75.7463 837.734,-73.1178 838.335,-80.0919"/>
</g>
</g>
</svg>
