<?xml version="1.0" encoding="UTF-8" standalone="no"?>
<!DOCTYPE svg PUBLIC "-//W3C//DTD SVG 1.1//EN"
 "http://www.w3.org/Graphics/SVG/1.1/DTD/svg11.dtd">
<!-- Generated by graphviz version 2.38.0 (20140413.2041)
 -->
<!-- Title: EventManager Pages: 1 -->
<svg width="713pt" height="890pt"
 viewBox="0.00 0.00 712.50 890.00" xmlns="http://www.w3.org/2000/svg" xmlns:xlink="http://www.w3.org/1999/xlink">
<g id="graph0" class="graph" transform="scale(1 1) rotate(0) translate(4 886)">
<title>EventManager</title>
<!-- Node1 -->
<g id="node1" class="node"><title>Node1</title>
<polygon fill="#bfbfbf" stroke="black" points="199.5,-6 199.5,-140 321.5,-140 321.5,-6 199.5,-6"/>
<text text-anchor="middle" x="260.5" y="-128" font-family="Helvetica,sans-Serif" font-size="10.00">EventManager</text>
<polyline fill="none" stroke="black" points="199.5,-121 321.5,-121 "/>
<text text-anchor="start" x="207.5" y="-109" font-family="Helvetica,sans-Serif" font-size="10.00">&#45; m_panning</text>
<text text-anchor="start" x="207.5" y="-98" font-family="Helvetica,sans-Serif" font-size="10.00">&#45; m_skipLeftClick</text>
<text text-anchor="start" x="207.5" y="-87" font-family="Helvetica,sans-Serif" font-size="10.00">&#45; m_tileInfoMode</text>
<text text-anchor="start" x="207.5" y="-76" font-family="Helvetica,sans-Serif" font-size="10.00">&#45; m_highlightedNodes</text>
<text text-anchor="start" x="207.5" y="-65" font-family="Helvetica,sans-Serif" font-size="10.00">&#45; timers</text>
<polyline fill="none" stroke="black" points="199.5,-58 321.5,-58 "/>
<text text-anchor="start" x="207.5" y="-46" font-family="Helvetica,sans-Serif" font-size="10.00">+ EventManager()</text>
<text text-anchor="start" x="207.5" y="-35" font-family="Helvetica,sans-Serif" font-size="10.00">+ ~EventManager()</text>
<text text-anchor="start" x="207.5" y="-24" font-family="Helvetica,sans-Serif" font-size="10.00">+ checkEvents()</text>
<text text-anchor="start" x="207.5" y="-13" font-family="Helvetica,sans-Serif" font-size="10.00">+ registerTimer()</text>
</g>
<!-- Node2 -->
<g id="node2" class="node"><title>Node2</title>
<g id="a_node2"><a xlink:href="classSingleton.html" target="_top" xlink:title="{Singleton\&lt; EventManager \&gt;\n||+ instance()\l# Singleton()\l# ~Singleton()\l}">
<polygon fill="none" stroke="black" points="0,-577.5 0,-656.5 153,-656.5 153,-577.5 0,-577.5"/>
<text text-anchor="middle" x="76.5" y="-644.5" font-family="Helvetica,sans-Serif" font-size="10.00">Singleton&lt; EventManager &gt;</text>
<polyline fill="none" stroke="black" points="0,-637.5 153,-637.5 "/>
<text text-anchor="middle" x="76.5" y="-625.5" font-family="Helvetica,sans-Serif" font-size="10.00"> </text>
<polyline fill="none" stroke="black" points="0,-618.5 153,-618.5 "/>
<text text-anchor="start" x="8" y="-606.5" font-family="Helvetica,sans-Serif" font-size="10.00">+ instance()</text>
<text text-anchor="start" x="8" y="-595.5" font-family="Helvetica,sans-Serif" font-size="10.00"># Singleton()</text>
<text text-anchor="start" x="8" y="-584.5" font-family="Helvetica,sans-Serif" font-size="10.00"># ~Singleton()</text>
</a>
</g>
</g>
<!-- Node2&#45;&gt;Node1 -->
<g id="edge1" class="edge"><title>Node2&#45;&gt;Node1</title>
<path fill="none" stroke="midnightblue" d="M67.1671,-567.233C54.5965,-488.567 39.8173,-330.786 96.5,-215 118.623,-169.809 162.52,-133.296 199.335,-108.757"/>
<polygon fill="none" stroke="midnightblue" points="63.7538,-568.045 68.8402,-577.339 70.6598,-566.902 63.7538,-568.045"/>
</g>
<!-- Node3 -->
<g id="node3" class="node"><title>Node3</title>
<g id="a_node3"><a xlink:href="classSingleton.html" target="_top" xlink:title="Abstract Singleton implementation. ">
<polygon fill="none" stroke="black" points="91,-802.5 91,-881.5 180,-881.5 180,-802.5 91,-802.5"/>
<text text-anchor="middle" x="135.5" y="-869.5" font-family="Helvetica,sans-Serif" font-size="10.00">Singleton&lt; T &gt;</text>
<polyline fill="none" stroke="black" points="91,-862.5 180,-862.5 "/>
<text text-anchor="middle" x="135.5" y="-850.5" font-family="Helvetica,sans-Serif" font-size="10.00"> </text>
<polyline fill="none" stroke="black" points="91,-843.5 180,-843.5 "/>
<text text-anchor="start" x="99" y="-831.5" font-family="Helvetica,sans-Serif" font-size="10.00">+ instance()</text>
<text text-anchor="start" x="99" y="-820.5" font-family="Helvetica,sans-Serif" font-size="10.00"># Singleton()</text>
<text text-anchor="start" x="99" y="-809.5" font-family="Helvetica,sans-Serif" font-size="10.00"># ~Singleton()</text>
</a>
</g>
</g>
<!-- Node3&#45;&gt;Node2 -->
<g id="edge2" class="edge"><title>Node3&#45;&gt;Node2</title>
<path fill="none" stroke="orange" d="M83.8597,-800.811C79.7154,-795.598 76.123,-789.974 73.5,-784 55.6557,-743.355 60.366,-691.54 66.9523,-656.701"/>
<polygon fill="orange" stroke="orange" points="81.5318,-803.464 90.7662,-808.658 86.7863,-798.839 81.5318,-803.464"/>
<text text-anchor="middle" x="121" y="-776" font-family="Helvetica,sans-Serif" font-size="10.00"> &lt; EventManager &gt;</text>
</g>
<!-- Node5 -->
<g id="node5" class="node"><title>Node5</title>
<g id="a_node5"><a xlink:href="classSingleton.html" target="_top" xlink:title="{Singleton\&lt; UIManager \&gt;\n||+ instance()\l# Singleton()\l# ~Singleton()\l}">
<polygon fill="none" stroke="black" points="125.5,-675.5 125.5,-754.5 261.5,-754.5 261.5,-675.5 125.5,-675.5"/>
<text text-anchor="middle" x="193.5" y="-742.5" font-family="Helvetica,sans-Serif" font-size="10.00">Singleton&lt; UIManager &gt;</text>
<polyline fill="none" stroke="black" points="125.5,-735.5 261.5,-735.5 "/>
<text text-anchor="middle" x="193.5" y="-723.5" font-family="Helvetica,sans-Serif" font-size="10.00"> </text>
<polyline fill="none" stroke="black" points="125.5,-716.5 261.5,-716.5 "/>
<text text-anchor="start" x="133.5" y="-704.5" font-family="Helvetica,sans-Serif" font-size="10.00">+ instance()</text>
<text text-anchor="start" x="133.5" y="-693.5" font-family="Helvetica,sans-Serif" font-size="10.00"># Singleton()</text>
<text text-anchor="start" x="133.5" y="-682.5" font-family="Helvetica,sans-Serif" font-size="10.00"># ~Singleton()</text>
</a>
</g>
</g>
<!-- Node3&#45;&gt;Node5 -->
<g id="edge5" class="edge"><title>Node3&#45;&gt;Node5</title>
<path fill="none" stroke="orange" d="M167.694,-793.464C169.411,-790.312 171.03,-787.141 172.5,-784 176.794,-774.823 180.492,-764.549 183.535,-754.821"/>
<polygon fill="orange" stroke="orange" points="164.588,-791.845 162.647,-802.261 170.66,-795.329 164.588,-791.845"/>
<text text-anchor="middle" x="216.5" y="-776" font-family="Helvetica,sans-Serif" font-size="10.00"> &lt; UIManager &gt;</text>
</g>
<!-- Node4 -->
<g id="node4" class="node"><title>Node4</title>
<g id="a_node4"><a xlink:href="classUIManager.html" target="_top" xlink:title="Draws the UI to the screen Parses UiLayout.json file and instantiates UI widgets accordingly. Also takes care of layouting. ">
<polygon fill="none" stroke="black" points="105.5,-215.5 105.5,-558.5 281.5,-558.5 281.5,-215.5 105.5,-215.5"/>
<text text-anchor="middle" x="193.5" y="-546.5" font-family="Helvetica,sans-Serif" font-size="10.00">UIManager</text>
<polyline fill="none" stroke="black" points="105.5,-539.5 281.5,-539.5 "/>
<text text-anchor="start" x="113.5" y="-527.5" font-family="Helvetica,sans-Serif" font-size="10.00">+ Singleton&lt; UIManager &gt;</text>
<text text-anchor="start" x="113.5" y="-516.5" font-family="Helvetica,sans-Serif" font-size="10.00">&#45; buildMenuLayout</text>
<text text-anchor="start" x="113.5" y="-505.5" font-family="Helvetica,sans-Serif" font-size="10.00">&#45; m_uiElements</text>
<text text-anchor="start" x="113.5" y="-494.5" font-family="Helvetica,sans-Serif" font-size="10.00">&#45; m_uiElementsForEventHandling</text>
<text text-anchor="start" x="113.5" y="-483.5" font-family="Helvetica,sans-Serif" font-size="10.00">&#45; m_uiGroups</text>
<text text-anchor="start" x="113.5" y="-472.5" font-family="Helvetica,sans-Serif" font-size="10.00">&#45; m_layoutGroups</text>
<text text-anchor="start" x="113.5" y="-461.5" font-family="Helvetica,sans-Serif" font-size="10.00">&#45; m_buttonGroups</text>
<text text-anchor="start" x="113.5" y="-450.5" font-family="Helvetica,sans-Serif" font-size="10.00">&#45; m_tooltip</text>
<text text-anchor="start" x="113.5" y="-439.5" font-family="Helvetica,sans-Serif" font-size="10.00">&#45; m_fpsCounter</text>
<text text-anchor="start" x="113.5" y="-428.5" font-family="Helvetica,sans-Serif" font-size="10.00">&#45; m_showDebugMenu</text>
<polyline fill="none" stroke="black" points="105.5,-421.5 281.5,-421.5 "/>
<text text-anchor="start" x="113.5" y="-409.5" font-family="Helvetica,sans-Serif" font-size="10.00">+ init()</text>
<text text-anchor="start" x="113.5" y="-398.5" font-family="Helvetica,sans-Serif" font-size="10.00">+ initializeDollarVariables()</text>
<text text-anchor="start" x="113.5" y="-387.5" font-family="Helvetica,sans-Serif" font-size="10.00">+ drawUI()</text>
<text text-anchor="start" x="113.5" y="-376.5" font-family="Helvetica,sans-Serif" font-size="10.00">+ toggleGroupVisibility()</text>
<text text-anchor="start" x="113.5" y="-365.5" font-family="Helvetica,sans-Serif" font-size="10.00">+ toggleDebugMenu()</text>
<text text-anchor="start" x="113.5" y="-354.5" font-family="Helvetica,sans-Serif" font-size="10.00">+ setFPSCounterText()</text>
<text text-anchor="start" x="113.5" y="-343.5" font-family="Helvetica,sans-Serif" font-size="10.00">+ setBuildMenuPosition()</text>
<text text-anchor="start" x="113.5" y="-332.5" font-family="Helvetica,sans-Serif" font-size="10.00">+ getAllUiElements()</text>
<text text-anchor="start" x="113.5" y="-321.5" font-family="Helvetica,sans-Serif" font-size="10.00">+ getAllUiElementsForEvent</text>
<text text-anchor="start" x="113.5" y="-310.5" font-family="Helvetica,sans-Serif" font-size="10.00">Handling()</text>
<text text-anchor="start" x="113.5" y="-299.5" font-family="Helvetica,sans-Serif" font-size="10.00">+ getUiElementsOfGroup()</text>
<text text-anchor="start" x="113.5" y="-288.5" font-family="Helvetica,sans-Serif" font-size="10.00">and 7 more...</text>
<text text-anchor="start" x="113.5" y="-277.5" font-family="Helvetica,sans-Serif" font-size="10.00">&#45; UIManager()</text>
<text text-anchor="start" x="113.5" y="-266.5" font-family="Helvetica,sans-Serif" font-size="10.00">&#45; ~UIManager()</text>
<text text-anchor="start" x="113.5" y="-255.5" font-family="Helvetica,sans-Serif" font-size="10.00">&#45; setCallbackFunctions()</text>
<text text-anchor="start" x="113.5" y="-244.5" font-family="Helvetica,sans-Serif" font-size="10.00">&#45; createBuildMenu()</text>
<text text-anchor="start" x="113.5" y="-233.5" font-family="Helvetica,sans-Serif" font-size="10.00">&#45; setBuildMenuLayout()</text>
<text text-anchor="start" x="113.5" y="-222.5" font-family="Helvetica,sans-Serif" font-size="10.00">&#45; addToLayoutGroup()</text>
</a>
</g>
</g>
<!-- Node4&#45;&gt;Node1 -->
<g id="edge3" class="edge"><title>Node4&#45;&gt;Node1</title>
<path fill="none" stroke="#404040" d="M212.021,-215.424C215.268,-197.932 219.065,-180.528 223.5,-164 224.584,-159.962 225.804,-155.863 227.124,-151.753"/>
<polygon fill="none" stroke="#404040" points="227.197,-151.539 225.352,-144.568 231.077,-140.183 232.922,-147.155 227.197,-151.539"/>
<text text-anchor="middle" x="260" y="-178" font-family="Helvetica,sans-Serif" font-size="10.00"> &#45;m_uiManager</text>
</g>
<!-- Node5&#45;&gt;Node4 -->
<g id="edge4" class="edge"><title>Node5&#45;&gt;Node4</title>
<path fill="none" stroke="midnightblue" d="M193.5,-665.144C193.5,-636.294 193.5,-597.864 193.5,-558.834"/>
<polygon fill="none" stroke="midnightblue" points="190,-665.323 193.5,-675.323 197,-665.323 190,-665.323"/>
</g>
<!-- Node6 -->
<g id="node6" class="node"><title>Node6</title>
<g id="a_node6"><a xlink:href="structPoint.html" target="_top" xlink:title="{Point\n|+ x\l+ y\l+ z\l+ height\l|}">
<polygon fill="none" stroke="black" points="299.5,-342 299.5,-432 357.5,-432 357.5,-342 299.5,-342"/>
<text text-anchor="middle" x="328.5" y="-420" font-family="Helvetica,sans-Serif" font-size="10.00">Point</text>
<polyline fill="none" stroke="black" points="299.5,-413 357.5,-413 "/>
<text text-anchor="start" x="307.5" y="-401" font-family="Helvetica,sans-Serif" font-size="10.00">+ x</text>
<text text-anchor="start" x="307.5" y="-390" font-family="Helvetica,sans-Serif" font-size="10.00">+ y</text>
<text text-anchor="start" x="307.5" y="-379" font-family="Helvetica,sans-Serif" font-size="10.00">+ z</text>
<text text-anchor="start" x="307.5" y="-368" font-family="Helvetica,sans-Serif" font-size="10.00">+ height</text>
<polyline fill="none" stroke="black" points="299.5,-361 357.5,-361 "/>
<text text-anchor="middle" x="328.5" y="-349" font-family="Helvetica,sans-Serif" font-size="10.00"> </text>
</a>
</g>
</g>
<!-- Node6&#45;&gt;Node1 -->
<g id="edge6" class="edge"><title>Node6&#45;&gt;Node1</title>
<path fill="none" stroke="#404040" d="M325.255,-341.993C321.201,-296.751 312.728,-224.557 296.5,-164 295.422,-159.977 294.216,-155.89 292.916,-151.791"/>
<polygon fill="none" stroke="#404040" points="292.858,-151.617 287.156,-147.203 289.037,-140.242 294.739,-144.656 292.858,-151.617"/>
<text text-anchor="middle" x="354.5" y="-189" font-family="Helvetica,sans-Serif" font-size="10.00"> &#45;pinchCenterCoords</text>
<text text-anchor="middle" x="354.5" y="-178" font-family="Helvetica,sans-Serif" font-size="10.00">&#45;m_highlitNode</text>
<text text-anchor="middle" x="354.5" y="-167" font-family="Helvetica,sans-Serif" font-size="10.00">&#45;m_clickDownCoords</text>
</g>
<!-- Node7 -->
<g id="node7" class="node"><title>Node7</title>
<g id="a_node7"><a xlink:href="classUIElement.html" target="_top" xlink:title="Base class for UI Elements Provides functions and variables for derived user interface elements...">
<polygon fill="none" stroke="black" points="508.5,-237.5 508.5,-536.5 660.5,-536.5 660.5,-237.5 508.5,-237.5"/>
<text text-anchor="middle" x="584.5" y="-524.5" font-family="Helvetica,sans-Serif" font-size="10.00">UIElement</text>
<polyline fill="none" stroke="black" points="508.5,-517.5 660.5,-517.5 "/>
<text text-anchor="start" x="516.5" y="-505.5" font-family="Helvetica,sans-Serif" font-size="10.00"># m_texture</text>
<text text-anchor="start" x="516.5" y="-494.5" font-family="Helvetica,sans-Serif" font-size="10.00"># m_uiElementRect</text>
<text text-anchor="start" x="516.5" y="-483.5" font-family="Helvetica,sans-Serif" font-size="10.00">&#45; m_renderer</text>
<text text-anchor="start" x="516.5" y="-472.5" font-family="Helvetica,sans-Serif" font-size="10.00">&#45; m_window</text>
<text text-anchor="start" x="516.5" y="-461.5" font-family="Helvetica,sans-Serif" font-size="10.00">&#45; m_buttonState</text>
<text text-anchor="start" x="516.5" y="-450.5" font-family="Helvetica,sans-Serif" font-size="10.00">&#45; m_visible</text>
<polyline fill="none" stroke="black" points="508.5,-443.5 660.5,-443.5 "/>
<text text-anchor="start" x="516.5" y="-431.5" font-family="Helvetica,sans-Serif" font-size="10.00">+ UIElement()</text>
<text text-anchor="start" x="516.5" y="-420.5" font-family="Helvetica,sans-Serif" font-size="10.00">+ UIElement()</text>
<text text-anchor="start" x="516.5" y="-409.5" font-family="Helvetica,sans-Serif" font-size="10.00">+ ~UIElement()</text>
<text text-anchor="start" x="516.5" y="-398.5" font-family="Helvetica,sans-Serif" font-size="10.00">+ registerCallbackFunction()</text>
<text text-anchor="start" x="516.5" y="-387.5" font-family="Helvetica,sans-Serif" font-size="10.00">+ registerCallbackFunction()</text>
<text text-anchor="start" x="516.5" y="-376.5" font-family="Helvetica,sans-Serif" font-size="10.00">+ registerCallbackFunction()</text>
<text text-anchor="start" x="516.5" y="-365.5" font-family="Helvetica,sans-Serif" font-size="10.00">+ onMouseButtonUp()</text>
<text text-anchor="start" x="516.5" y="-354.5" font-family="Helvetica,sans-Serif" font-size="10.00">+ onMouseButtonDown()</text>
<text text-anchor="start" x="516.5" y="-343.5" font-family="Helvetica,sans-Serif" font-size="10.00">+ onMouseEnter()</text>
<text text-anchor="start" x="516.5" y="-332.5" font-family="Helvetica,sans-Serif" font-size="10.00">+ onMouseLeave()</text>
<text text-anchor="start" x="516.5" y="-321.5" font-family="Helvetica,sans-Serif" font-size="10.00">and 23 more...</text>
<text text-anchor="start" x="516.5" y="-310.5" font-family="Helvetica,sans-Serif" font-size="10.00"># renderTexture()</text>
<text text-anchor="start" x="516.5" y="-299.5" font-family="Helvetica,sans-Serif" font-size="10.00"># drawSolidRect()</text>
<text text-anchor="start" x="516.5" y="-288.5" font-family="Helvetica,sans-Serif" font-size="10.00"># drawLine()</text>
<text text-anchor="start" x="516.5" y="-277.5" font-family="Helvetica,sans-Serif" font-size="10.00"># drawTextFrame()</text>
<text text-anchor="start" x="516.5" y="-266.5" font-family="Helvetica,sans-Serif" font-size="10.00"># drawButtonFrame()</text>
<text text-anchor="start" x="516.5" y="-255.5" font-family="Helvetica,sans-Serif" font-size="10.00"># drawFrame()</text>
<text text-anchor="start" x="516.5" y="-244.5" font-family="Helvetica,sans-Serif" font-size="10.00"># changeTexture()</text>
</a>
</g>
</g>
<!-- Node7&#45;&gt;Node1 -->
<g id="edge7" class="edge"><title>Node7&#45;&gt;Node1</title>
<path fill="none" stroke="#404040" d="M508.287,-274.291C479.588,-236.735 444.998,-196.232 408.5,-164 385.72,-143.882 357.86,-125.622 332.482,-110.888"/>
<polygon fill="none" stroke="#404040" points="332.208,-110.732 325.014,-111.239 321.78,-104.795 328.973,-104.287 332.208,-110.732"/>
<text text-anchor="middle" x="502.5" y="-178" font-family="Helvetica,sans-Serif" font-size="10.00"> &#45;m_lastHoveredElement</text>
</g>
<!-- Node8 -->
<g id="node8" class="node"><title>Node8</title>
<g id="a_node8"><a xlink:href="structUIElement_1_1ElementData.html" target="_top" xlink:title="{UIElement::ElementData\n|+ elementID\l+ text\l+ tooltipText\l+ actionID\l+ actionParameter\l+ textureID\l+ buildMenuID\l+ layoutGroupName\l+ isToggleButton\l|}">
<polygon fill="none" stroke="black" points="550,-0.5 550,-145.5 685,-145.5 685,-0.5 550,-0.5"/>
<text text-anchor="middle" x="617.5" y="-133.5" font-family="Helvetica,sans-Serif" font-size="10.00">UIElement::ElementData</text>
<polyline fill="none" stroke="black" points="550,-126.5 685,-126.5 "/>
<text text-anchor="start" x="558" y="-114.5" font-family="Helvetica,sans-Serif" font-size="10.00">+ elementID</text>
<text text-anchor="start" x="558" y="-103.5" font-family="Helvetica,sans-Serif" font-size="10.00">+ text</text>
<text text-anchor="start" x="558" y="-92.5" font-family="Helvetica,sans-Serif" font-size="10.00">+ tooltipText</text>
<text text-anchor="start" x="558" y="-81.5" font-family="Helvetica,sans-Serif" font-size="10.00">+ actionID</text>
<text text-anchor="start" x="558" y="-70.5" font-family="Helvetica,sans-Serif" font-size="10.00">+ actionParameter</text>
<text text-anchor="start" x="558" y="-59.5" font-family="Helvetica,sans-Serif" font-size="10.00">+ textureID</text>
<text text-anchor="start" x="558" y="-48.5" font-family="Helvetica,sans-Serif" font-size="10.00">+ buildMenuID</text>
<text text-anchor="start" x="558" y="-37.5" font-family="Helvetica,sans-Serif" font-size="10.00">+ layoutGroupName</text>
<text text-anchor="start" x="558" y="-26.5" font-family="Helvetica,sans-Serif" font-size="10.00">+ isToggleButton</text>
<polyline fill="none" stroke="black" points="550,-19.5 685,-19.5 "/>
<text text-anchor="middle" x="617.5" y="-7.5" font-family="Helvetica,sans-Serif" font-size="10.00"> </text>
</a>
</g>
</g>
<!-- Node7&#45;&gt;Node8 -->
<g id="edge9" class="edge"><title>Node7&#45;&gt;Node8</title>
<path fill="none" stroke="#404040" d="M574.149,-237.484C574.809,-212.791 576.962,-187.561 581.5,-164 581.917,-161.832 582.387,-159.651 582.901,-157.462"/>
<polygon fill="none" stroke="#404040" points="582.939,-157.32 580.63,-150.489 586.049,-145.73 588.357,-152.562 582.939,-157.32"/>
<text text-anchor="middle" x="603" y="-178" font-family="Helvetica,sans-Serif" font-size="10.00"> +parent</text>
</g>
<!-- Node8&#45;&gt;Node7 -->
<g id="edge8" class="edge"><title>Node8&#45;&gt;Node7</title>
<path fill="none" stroke="#404040" d="M627.054,-145.651C627.639,-151.848 628.136,-158.029 628.5,-164 629.718,-183.999 628.704,-204.838 626.301,-225.39"/>
<polygon fill="none" stroke="#404040" points="626.28,-225.55 629.472,-232.016 624.731,-237.449 621.539,-230.983 626.28,-225.55"/>
<text text-anchor="middle" x="667" y="-178" font-family="Helvetica,sans-Serif" font-size="10.00"> #elementData</text>
</g>
</g>
</svg>
