<?xml version="1.0" encoding="UTF-8" standalone="no"?>
<!DOCTYPE svg PUBLIC "-//W3C//DTD SVG 1.1//EN"
 "http://www.w3.org/Graphics/SVG/1.1/DTD/svg11.dtd">
<!-- Generated by graphviz version 2.38.0 (20140413.2041)
 -->
<!-- Title: MapNode::MapNode Pages: 1 -->
<svg width="626pt" height="157pt"
 viewBox="0.00 0.00 626.00 157.00" xmlns="http://www.w3.org/2000/svg" xmlns:xlink="http://www.w3.org/1999/xlink">
<g id="graph0" class="graph" transform="scale(1 1) rotate(0) translate(4 153)">
<title>MapNode::MapNode</title>
<!-- Node1 -->
<g id="node1" class="node"><title>Node1</title>
<polygon fill="#bfbfbf" stroke="black" points="0,-49 0,-68 114,-68 114,-49 0,-49"/>
<text text-anchor="middle" x="57" y="-56" font-family="Helvetica,sans-Serif" font-size="10.00">MapNode::MapNode</text>
</g>
<!-- Node2 -->
<g id="node2" class="node"><title>Node2</title>
<g id="a_node2"><a xlink:href="classMapNode.html#a397a62e9263feef6c9c85b4e17ef31cb" target="_top" xlink:title="MapNode::setTileID">
<polygon fill="none" stroke="black" points="150,-68 150,-87 259,-87 259,-68 150,-68"/>
<text text-anchor="middle" x="204.5" y="-75" font-family="Helvetica,sans-Serif" font-size="10.00">MapNode::setTileID</text>
</a>
</g>
</g>
<!-- Node1&#45;&gt;Node2 -->
<g id="edge1" class="edge"><title>Node1&#45;&gt;Node2</title>
<path fill="none" stroke="midnightblue" d="M114.254,-65.8459C122.555,-66.9298 131.157,-68.0532 139.599,-69.1555"/>
<polygon fill="midnightblue" stroke="midnightblue" points="139.416,-72.6612 149.785,-70.4856 140.322,-65.7201 139.416,-72.6612"/>
</g>
<!-- Node6 -->
<g id="node6" class="node"><title>Node6</title>
<g id="a_node6"><a xlink:href="classMapNode.html#a0951fd739ee0a3e0263ef412596811dd" target="_top" xlink:title="MapNode::updateTexture">
<polygon fill="none" stroke="black" points="295,-30 295,-49 432,-49 432,-30 295,-30"/>
<text text-anchor="middle" x="363.5" y="-37" font-family="Helvetica,sans-Serif" font-size="10.00">MapNode::updateTexture</text>
</a>
</g>
</g>
<!-- Node1&#45;&gt;Node6 -->
<g id="edge9" class="edge"><title>Node1&#45;&gt;Node6</title>
<path fill="none" stroke="midnightblue" d="M114.205,-54.993C162.152,-52.0012 231.579,-47.6691 284.835,-44.3461"/>
<polygon fill="midnightblue" stroke="midnightblue" points="285.158,-47.8328 294.921,-43.7168 284.722,-40.8464 285.158,-47.8328"/>
</g>
<!-- Node3 -->
<g id="node3" class="node"><title>Node3</title>
<g id="a_node3"><a xlink:href="classSingleton.html#af5cb1e5749949e2b68416cfb8d378044" target="_top" xlink:title="Get an instance of the singleton. ">
<polygon fill="none" stroke="black" points="477.5,-118.5 477.5,-148.5 608.5,-148.5 608.5,-118.5 477.5,-118.5"/>
<text text-anchor="start" x="485.5" y="-136.5" font-family="Helvetica,sans-Serif" font-size="10.00">Singleton&lt; TileManager</text>
<text text-anchor="middle" x="543" y="-125.5" font-family="Helvetica,sans-Serif" font-size="10.00"> &gt;::instance</text>
</a>
</g>
</g>
<!-- Node2&#45;&gt;Node3 -->
<g id="edge2" class="edge"><title>Node2&#45;&gt;Node3</title>
<path fill="none" stroke="midnightblue" d="M216.063,-87.1354C231.85,-100.812 263.165,-125.223 295,-134.5 351.138,-150.858 417.548,-149.507 467.362,-144.67"/>
<polygon fill="midnightblue" stroke="midnightblue" points="467.828,-148.141 477.412,-143.626 467.104,-141.178 467.828,-148.141"/>
</g>
<!-- Node4 -->
<g id="node4" class="node"><title>Node4</title>
<g id="a_node4"><a xlink:href="classMapNode.html#a0af11cf90ab29c77b05d09da63a3bb33" target="_top" xlink:title="MapNode::getTileData">
<polygon fill="none" stroke="black" points="302,-106 302,-125 425,-125 425,-106 302,-106"/>
<text text-anchor="middle" x="363.5" y="-113" font-family="Helvetica,sans-Serif" font-size="10.00">MapNode::getTileData</text>
</a>
</g>
</g>
<!-- Node2&#45;&gt;Node4 -->
<g id="edge3" class="edge"><title>Node2&#45;&gt;Node4</title>
<path fill="none" stroke="midnightblue" d="M245.118,-87.089C265.836,-92.1035 291.388,-98.2881 313.356,-103.605"/>
<polygon fill="midnightblue" stroke="midnightblue" points="312.624,-107.029 323.167,-105.98 314.271,-100.226 312.624,-107.029"/>
</g>
<!-- Node5 -->
<g id="node5" class="node"><title>Node5</title>
<g id="a_node5"><a xlink:href="classTileManager.html#a0635992377296446c67c5d41b48e8826" target="_top" xlink:title="TileManager::getTileData">
<polygon fill="none" stroke="black" points="296,-68 296,-87 431,-87 431,-68 296,-68"/>
<text text-anchor="middle" x="363.5" y="-75" font-family="Helvetica,sans-Serif" font-size="10.00">TileManager::getTileData</text>
</a>
</g>
</g>
<!-- Node2&#45;&gt;Node5 -->
<g id="edge4" class="edge"><title>Node2&#45;&gt;Node5</title>
<path fill="none" stroke="midnightblue" d="M259.091,-77.5C267.675,-77.5 276.703,-77.5 285.7,-77.5"/>
<polygon fill="midnightblue" stroke="midnightblue" points="285.821,-81.0001 295.821,-77.5 285.821,-74.0001 285.821,-81.0001"/>
</g>
<!-- Node2&#45;&gt;Node6 -->
<g id="edge5" class="edge"><title>Node2&#45;&gt;Node6</title>
<path fill="none" stroke="midnightblue" d="M245.118,-67.911C265.836,-62.8965 291.388,-56.7119 313.356,-51.3947"/>
<polygon fill="midnightblue" stroke="midnightblue" points="314.271,-54.7744 323.167,-49.0201 312.624,-47.9708 314.271,-54.7744"/>
</g>
<!-- Node6&#45;&gt;Node3 -->
<g id="edge6" class="edge"><title>Node6&#45;&gt;Node3</title>
<path fill="none" stroke="midnightblue" d="M409.155,-49.0826C417.005,-51.5962 424.921,-54.6998 432,-58.5 450.604,-68.4863 450.86,-77.1686 468,-89.5 479.602,-97.8473 492.862,-106.098 504.922,-113.159"/>
<polygon fill="midnightblue" stroke="midnightblue" points="503.451,-116.351 513.863,-118.309 506.944,-110.285 503.451,-116.351"/>
</g>
<!-- Node7 -->
<g id="node7" class="node"><title>Node7</title>
<g id="a_node7"><a xlink:href="classTileManager.html#a519b2d5c91877025a2faa0dff3ba099c" target="_top" xlink:title="TileManager::calculateSlope\lOrientation">
<polygon fill="none" stroke="black" points="468,-49.5 468,-79.5 618,-79.5 618,-49.5 468,-49.5"/>
<text text-anchor="start" x="476" y="-67.5" font-family="Helvetica,sans-Serif" font-size="10.00">TileManager::calculateSlope</text>
<text text-anchor="middle" x="543" y="-56.5" font-family="Helvetica,sans-Serif" font-size="10.00">Orientation</text>
</a>
</g>
</g>
<!-- Node6&#45;&gt;Node7 -->
<g id="edge7" class="edge"><title>Node6&#45;&gt;Node7</title>
<path fill="none" stroke="midnightblue" d="M432.111,-49.0227C440.491,-50.203 449.138,-51.4208 457.728,-52.6307"/>
<polygon fill="midnightblue" stroke="midnightblue" points="457.377,-56.1157 467.768,-54.0447 458.353,-49.1842 457.377,-56.1157"/>
</g>
<!-- Node8 -->
<g id="node8" class="node"><title>Node8</title>
<g id="a_node8"><a xlink:href="classTileManager.html#ae1ac0c18d79cc2e1de86416d07d1591b" target="_top" xlink:title="TileManager::calculateTile\lOrientation">
<polygon fill="none" stroke="black" points="473.5,-0.5 473.5,-30.5 612.5,-30.5 612.5,-0.5 473.5,-0.5"/>
<text text-anchor="start" x="481.5" y="-18.5" font-family="Helvetica,sans-Serif" font-size="10.00">TileManager::calculateTile</text>
<text text-anchor="middle" x="543" y="-7.5" font-family="Helvetica,sans-Serif" font-size="10.00">Orientation</text>
</a>
</g>
</g>
<!-- Node6&#45;&gt;Node8 -->
<g id="edge8" class="edge"><title>Node6&#45;&gt;Node8</title>
<path fill="none" stroke="midnightblue" d="M432.111,-30.3582C442.357,-28.9728 453.002,-27.5335 463.455,-26.1201"/>
<polygon fill="midnightblue" stroke="midnightblue" points="463.959,-29.584 473.4,-24.7755 463.021,-22.6471 463.959,-29.584"/>
</g>
</g>
</svg>
