<?xml version="1.0" encoding="UTF-8" standalone="no"?>
<!DOCTYPE svg PUBLIC "-//W3C//DTD SVG 1.1//EN"
 "http://www.w3.org/Graphics/SVG/1.1/DTD/svg11.dtd">
<!-- Generated by graphviz version 2.38.0 (20140413.2041)
 -->
<!-- Title: Map::demolishNode Pages: 1 -->
<svg width="645pt" height="203pt"
 viewBox="0.00 0.00 645.00 203.00" xmlns="http://www.w3.org/2000/svg" xmlns:xlink="http://www.w3.org/1999/xlink">
<g id="graph0" class="graph" transform="scale(1 1) rotate(0) translate(4 199)">
<title>Map::demolishNode</title>
<!-- Node1 -->
<g id="node1" class="node"><title>Node1</title>
<polygon fill="#bfbfbf" stroke="black" points="0,-57.5 0,-76.5 112,-76.5 112,-57.5 0,-57.5"/>
<text text-anchor="middle" x="56" y="-64.5" font-family="Helvetica,sans-Serif" font-size="10.00">Map::demolishNode</text>
</g>
<!-- Node2 -->
<g id="node2" class="node"><title>Node2</title>
<g id="a_node2"><a xlink:href="classMap.html#a59d21f2688713fbcfe320eb1b24405ca" target="_top" xlink:title="Update mapNode and its adjacent tiles Updates mapNode height information, draws slopes for adjacent t...">
<polygon fill="none" stroke="black" points="148,-76.5 148,-95.5 309,-95.5 309,-76.5 148,-76.5"/>
<text text-anchor="middle" x="228.5" y="-83.5" font-family="Helvetica,sans-Serif" font-size="10.00">Map::updateNeighborsOfNode</text>
</a>
</g>
</g>
<!-- Node1&#45;&gt;Node2 -->
<g id="edge1" class="edge"><title>Node1&#45;&gt;Node2</title>
<path fill="none" stroke="midnightblue" d="M112.356,-66.802C134.918,-68.7145 160.679,-71.692 182.105,-74.895"/>
<polygon fill="midnightblue" stroke="midnightblue" points="181.821,-78.3931 192.242,-76.4819 182.903,-71.4774 181.821,-78.3931"/>
</g>
<!-- Node2&#45;&gt;Node1 -->
<g id="edge4" class="edge"><title>Node2&#45;&gt;Node1</title>
<path fill="none" stroke="midnightblue" d="M147.924,-83.869C132.23,-82.1938 116.278,-80.1837 102.209,-78.0771"/>
<polygon fill="midnightblue" stroke="midnightblue" points="102.749,-74.6191 92.3277,-76.5295 101.666,-81.5348 102.749,-74.6191"/>
</g>
<!-- Node3 -->
<g id="node3" class="node"><title>Node3</title>
<g id="a_node3"><a xlink:href="classMap.html#a63f0e5040c86652c7239475f8ff3a45a" target="_top" xlink:title="Get neighbor MapNode Objects Stores pointers to the neighboring nodes of the given coordinates in the...">
<polygon fill="none" stroke="black" points="363,-175.5 363,-194.5 470,-194.5 470,-175.5 363,-175.5"/>
<text text-anchor="middle" x="416.5" y="-182.5" font-family="Helvetica,sans-Serif" font-size="10.00">Map::getNeighbors</text>
</a>
</g>
</g>
<!-- Node2&#45;&gt;Node3 -->
<g id="edge2" class="edge"><title>Node2&#45;&gt;Node3</title>
<path fill="none" stroke="midnightblue" d="M240.5,-95.5829C260.157,-112.237 303.182,-146.593 345,-166 350.031,-168.335 355.401,-170.426 360.847,-172.29"/>
<polygon fill="midnightblue" stroke="midnightblue" points="360.088,-175.72 370.678,-175.401 362.2,-169.046 360.088,-175.72"/>
</g>
<!-- Node4 -->
<g id="node4" class="node"><title>Node4</title>
<g id="a_node4"><a xlink:href="classMap.html#a0ff55eb041cdf29aa582a21145319ce0" target="_top" xlink:title="Get elevated neighbor positions in a bitmask Checks all neighboring tiles and returns the elevated ne...">
<polygon fill="none" stroke="black" points="345,-126 345,-156 488,-156 488,-126 345,-126"/>
<text text-anchor="start" x="353" y="-144" font-family="Helvetica,sans-Serif" font-size="10.00">Map::getElevatedNeighbor</text>
<text text-anchor="middle" x="416.5" y="-133" font-family="Helvetica,sans-Serif" font-size="10.00">Bitmask</text>
</a>
</g>
</g>
<!-- Node2&#45;&gt;Node4 -->
<g id="edge3" class="edge"><title>Node2&#45;&gt;Node4</title>
<path fill="none" stroke="midnightblue" d="M261.899,-95.5803C287.444,-103.134 323.795,-113.883 354.722,-123.028"/>
<polygon fill="midnightblue" stroke="midnightblue" points="353.97,-126.455 364.552,-125.935 355.955,-119.743 353.97,-126.455"/>
</g>
<!-- Node5 -->
<g id="node5" class="node"><title>Node5</title>
<g id="a_node5"><a xlink:href="classMap.html#a392940f84796653b8e811ed8dc296c84" target="_top" xlink:title="Get a bitmask that represents same&#45;tile neighbors Checks all neighboring tiles and returns the elevat...">
<polygon fill="none" stroke="black" points="348,-77 348,-107 485,-107 485,-77 348,-77"/>
<text text-anchor="start" x="356" y="-95" font-family="Helvetica,sans-Serif" font-size="10.00">Map::getNeighboringTiles</text>
<text text-anchor="middle" x="416.5" y="-84" font-family="Helvetica,sans-Serif" font-size="10.00">Bitmask</text>
</a>
</g>
</g>
<!-- Node2&#45;&gt;Node5 -->
<g id="edge5" class="edge"><title>Node2&#45;&gt;Node5</title>
<path fill="none" stroke="midnightblue" d="M309.19,-88.5707C318.676,-88.8766 328.35,-89.1887 337.807,-89.4938"/>
<polygon fill="midnightblue" stroke="midnightblue" points="337.857,-92.9971 347.965,-89.8215 338.083,-86.0008 337.857,-92.9971"/>
</g>
<!-- Node6 -->
<g id="node6" class="node"><title>Node6</title>
<g id="a_node6"><a xlink:href="classMap.html#aba5154a4d917900679a3c0f7ec701561" target="_top" xlink:title="Increase Height Increases the height of the node and checks the surrounding tiles. Either draw a slope sprite or elevate the tile if necessary. ">
<polygon fill="none" stroke="black" points="359,-38.5 359,-57.5 474,-57.5 474,-38.5 359,-38.5"/>
<text text-anchor="middle" x="416.5" y="-45.5" font-family="Helvetica,sans-Serif" font-size="10.00">Map::increaseHeight</text>
</a>
</g>
</g>
<!-- Node2&#45;&gt;Node6 -->
<g id="edge6" class="edge"><title>Node2&#45;&gt;Node6</title>
<path fill="none" stroke="midnightblue" d="M253.435,-76.4076C277.443,-69.6659 315.519,-61.286 348.732,-55.1352"/>
<polygon fill="midnightblue" stroke="midnightblue" points="349.646,-58.5268 358.863,-53.3022 348.4,-51.6387 349.646,-58.5268"/>
</g>
<!-- Node8 -->
<g id="node8" class="node"><title>Node8</title>
<g id="a_node8"><a xlink:href="classMap.html#afb8cc864df90d273a5074872d635dc40" target="_top" xlink:title="Decrease Height Decreases the height of the node and checks the surrounding tiles. Either draw a slope sprite or lower the tile if necessary. ">
<polygon fill="none" stroke="black" points="357,-0.5 357,-19.5 476,-19.5 476,-0.5 357,-0.5"/>
<text text-anchor="middle" x="416.5" y="-7.5" font-family="Helvetica,sans-Serif" font-size="10.00">Map::decreaseHeight</text>
</a>
</g>
</g>
<!-- Node2&#45;&gt;Node8 -->
<g id="edge10" class="edge"><title>Node2&#45;&gt;Node8</title>
<path fill="none" stroke="midnightblue" d="M237.936,-76.345C256.668,-61.4392 303.367,-35.7108 345,-20 345.712,-19.7315 346.429,-19.4651 347.15,-19.201"/>
<polygon fill="midnightblue" stroke="midnightblue" points="348.422,-22.4652 356.746,-15.9116 346.152,-15.8434 348.422,-22.4652"/>
</g>
<!-- Node6&#45;&gt;Node1 -->
<g id="edge8" class="edge"><title>Node6&#45;&gt;Node1</title>
<path fill="none" stroke="midnightblue" d="M358.726,-51.0089C294.461,-54.4149 189.944,-59.9541 122.339,-63.5371"/>
<polygon fill="midnightblue" stroke="midnightblue" points="122.031,-60.0485 112.23,-64.0729 122.401,-67.0386 122.031,-60.0485"/>
</g>
<!-- Node6&#45;&gt;Node2 -->
<g id="edge9" class="edge"><title>Node6&#45;&gt;Node2</title>
<path fill="none" stroke="midnightblue" d="M391.884,-57.5025C373.179,-62.7712 345.794,-69.0552 318.822,-74.4968"/>
<polygon fill="midnightblue" stroke="midnightblue" points="318.049,-71.0819 308.92,-76.46 319.41,-77.9482 318.049,-71.0819"/>
</g>
<!-- Node7 -->
<g id="node7" class="node"><title>Node7</title>
<g id="a_node7"><a xlink:href="classSingleton.html#af5cb1e5749949e2b68416cfb8d378044" target="_top" xlink:title="Get an instance of the singleton. ">
<polygon fill="none" stroke="black" points="524,-33 524,-63 637,-63 637,-33 524,-33"/>
<text text-anchor="start" x="532" y="-51" font-family="Helvetica,sans-Serif" font-size="10.00">Singleton&lt; Settings</text>
<text text-anchor="middle" x="580.5" y="-40" font-family="Helvetica,sans-Serif" font-size="10.00"> &gt;::instance</text>
</a>
</g>
</g>
<!-- Node6&#45;&gt;Node7 -->
<g id="edge7" class="edge"><title>Node6&#45;&gt;Node7</title>
<path fill="none" stroke="midnightblue" d="M474.16,-48C486.903,-48 500.532,-48 513.616,-48"/>
<polygon fill="midnightblue" stroke="midnightblue" points="513.965,-51.5001 523.965,-48 513.965,-44.5001 513.965,-51.5001"/>
</g>
<!-- Node8&#45;&gt;Node1 -->
<g id="edge11" class="edge"><title>Node8&#45;&gt;Node1</title>
<path fill="none" stroke="midnightblue" d="M356.997,-18.5891C302.764,-26.6409 219.858,-39.1774 148,-51 138.933,-52.4917 129.368,-54.1169 119.981,-55.7412"/>
<polygon fill="midnightblue" stroke="midnightblue" points="119.149,-52.3334 109.898,-57.497 120.35,-59.2296 119.149,-52.3334"/>
</g>
<!-- Node8&#45;&gt;Node2 -->
<g id="edge12" class="edge"><title>Node8&#45;&gt;Node2</title>
<path fill="none" stroke="midnightblue" d="M401.736,-19.5905C387.341,-25.0669 364.213,-30.7496 345,-38 319.122,-47.7656 291.286,-61.4016 269.426,-71.8727"/>
<polygon fill="midnightblue" stroke="midnightblue" points="267.666,-68.8339 260.14,-76.2905 270.674,-75.155 267.666,-68.8339"/>
</g>
</g>
</svg>
