<?xml version="1.0" encoding="UTF-8" standalone="no"?>
<!DOCTYPE svg PUBLIC "-//W3C//DTD SVG 1.1//EN"
 "http://www.w3.org/Graphics/SVG/1.1/DTD/svg11.dtd">
<!-- Generated by graphviz version 2.38.0 (20140413.2041)
 -->
<!-- Title: Timer::getElapsedTimeSinceLastTimeOut Pages: 1 -->
<svg width="445pt" height="39pt"
 viewBox="0.00 0.00 445.00 39.00" xmlns="http://www.w3.org/2000/svg" xmlns:xlink="http://www.w3.org/1999/xlink">
<g id="graph0" class="graph" transform="scale(1 1) rotate(0) translate(4 35)">
<title>Timer::getElapsedTimeSinceLastTimeOut</title>
<!-- Node1 -->
<g id="node1" class="node"><title>Node1</title>
<polygon fill="#bfbfbf" stroke="black" points="0,-0.5 0,-30.5 152,-30.5 152,-0.5 0,-0.5"/>
<text text-anchor="start" x="8" y="-18.5" font-family="Helvetica,sans-Serif" font-size="10.00">Timer::getElapsedTimeSince</text>
<text text-anchor="middle" x="76" y="-7.5" font-family="Helvetica,sans-Serif" font-size="10.00">LastTimeOut</text>
</g>
<!-- Node2 -->
<g id="node2" class="node"><title>Node2</title>
<g id="a_node2"><a xlink:href="classTimer.html#ab887910601a1a42b2549c99892653921" target="_top" xlink:title="Timer::checkTimeout">
<polygon fill="none" stroke="black" points="188,-6 188,-25 304,-25 304,-6 188,-6"/>
<text text-anchor="middle" x="246" y="-13" font-family="Helvetica,sans-Serif" font-size="10.00">Timer::checkTimeout</text>
</a>
</g>
</g>
<!-- Node1&#45;&gt;Node2 -->
<g id="edge1" class="edge"><title>Node1&#45;&gt;Node2</title>
<path fill="none" stroke="midnightblue" d="M162.29,-15.5C170.934,-15.5 179.561,-15.5 187.802,-15.5"/>
<polygon fill="midnightblue" stroke="midnightblue" points="162.155,-12.0001 152.155,-15.5 162.155,-19.0001 162.155,-12.0001"/>
</g>
<!-- Node3 -->
<g id="node3" class="node"><title>Node3</title>
<g id="a_node3"><a xlink:href="classTimer.html#ae6d9bf74a35a78b0d9bf81d2d573f03d" target="_top" xlink:title="Loop Timer Specify if the timeout callback is called once or everytime the counter hits zero...">
<polygon fill="none" stroke="black" points="340,-6 340,-25 437,-25 437,-6 340,-6"/>
<text text-anchor="middle" x="388.5" y="-13" font-family="Helvetica,sans-Serif" font-size="10.00">Timer::loopTimer</text>
</a>
</g>
</g>
<!-- Node2&#45;&gt;Node3 -->
<g id="edge2" class="edge"><title>Node2&#45;&gt;Node3</title>
<path fill="none" stroke="midnightblue" d="M314.238,-15.5C322.884,-15.5 331.592,-15.5 339.835,-15.5"/>
<polygon fill="midnightblue" stroke="midnightblue" points="314.147,-12.0001 304.147,-15.5 314.147,-19.0001 314.147,-12.0001"/>
</g>
</g>
</svg>
