<?xml version="1.0" encoding="UTF-8" standalone="no"?>
<!DOCTYPE svg PUBLIC "-//W3C//DTD SVG 1.1//EN"
 "http://www.w3.org/Graphics/SVG/1.1/DTD/svg11.dtd">
<!-- Generated by graphviz version 2.38.0 (20140413.2041)
 -->
<!-- Title: Slider::draw Pages: 1 -->
<svg width="455pt" height="66pt"
 viewBox="0.00 0.00 455.00 66.00" xmlns="http://www.w3.org/2000/svg" xmlns:xlink="http://www.w3.org/1999/xlink">
<g id="graph0" class="graph" transform="scale(1 1) rotate(0) translate(4 62)">
<title>Slider::draw</title>
<!-- Node1 -->
<g id="node1" class="node"><title>Node1</title>
<polygon fill="#bfbfbf" stroke="black" points="0,-19.5 0,-38.5 72,-38.5 72,-19.5 0,-19.5"/>
<text text-anchor="middle" x="36" y="-26.5" font-family="Helvetica,sans-Serif" font-size="10.00">Slider::draw</text>
</g>
<!-- Node2 -->
<g id="node2" class="node"><title>Node2</title>
<g id="a_node2"><a xlink:href="classUIElement.html#af7c295301e56e32f3d00081e081bc71c" target="_top" xlink:title="UIElement::drawFrame">
<polygon fill="none" stroke="black" points="124,-38.5 124,-57.5 249,-57.5 249,-38.5 124,-38.5"/>
<text text-anchor="middle" x="186.5" y="-45.5" font-family="Helvetica,sans-Serif" font-size="10.00">UIElement::drawFrame</text>
</a>
</g>
</g>
<!-- Node1&#45;&gt;Node2 -->
<g id="edge1" class="edge"><title>Node1&#45;&gt;Node2</title>
<path fill="none" stroke="midnightblue" d="M72.1924,-33.5027C84.7361,-35.1076 99.3587,-36.9786 113.849,-38.8326"/>
<polygon fill="midnightblue" stroke="midnightblue" points="113.469,-42.3124 123.833,-40.1099 114.358,-35.369 113.469,-42.3124"/>
</g>
<!-- Node4 -->
<g id="node4" class="node"><title>Node4</title>
<g id="a_node4"><a xlink:href="classUIElement.html#afa1b8ca68981752ffb5e40e22ee2a946" target="_top" xlink:title="Change the Texture of the button Changes the texture. ">
<polygon fill="none" stroke="black" points="108,-0.5 108,-19.5 265,-19.5 265,-0.5 108,-0.5"/>
<text text-anchor="middle" x="186.5" y="-7.5" font-family="Helvetica,sans-Serif" font-size="10.00">UIElement::drawButtonFrame</text>
</a>
</g>
</g>
<!-- Node1&#45;&gt;Node4 -->
<g id="edge3" class="edge"><title>Node1&#45;&gt;Node4</title>
<path fill="none" stroke="midnightblue" d="M72.1924,-24.4973C81.0051,-23.3697 90.8441,-22.1109 100.942,-20.8188"/>
<polygon fill="midnightblue" stroke="midnightblue" points="101.624,-24.2603 111.099,-19.5194 100.735,-17.3169 101.624,-24.2603"/>
</g>
<!-- Node3 -->
<g id="node3" class="node"><title>Node3</title>
<g id="a_node3"><a xlink:href="classUIElement.html#a93e23ad405b6275a99d5f71d32232f5c" target="_top" xlink:title="Draws a filled rectangle to the screen. Draws a filled rectangle to the screen. ">
<polygon fill="none" stroke="black" points="305,-38.5 305,-57.5 443,-57.5 443,-38.5 305,-38.5"/>
<text text-anchor="middle" x="374" y="-45.5" font-family="Helvetica,sans-Serif" font-size="10.00">UIElement::drawSolidRect</text>
</a>
</g>
</g>
<!-- Node2&#45;&gt;Node3 -->
<g id="edge2" class="edge"><title>Node2&#45;&gt;Node3</title>
<path fill="none" stroke="midnightblue" d="M249.011,-48C263.578,-48 279.309,-48 294.516,-48"/>
<polygon fill="midnightblue" stroke="midnightblue" points="294.94,-51.5001 304.94,-48 294.94,-44.5001 294.94,-51.5001"/>
</g>
<!-- Node4&#45;&gt;Node3 -->
<g id="edge5" class="edge"><title>Node4&#45;&gt;Node3</title>
<path fill="none" stroke="midnightblue" d="M234.309,-19.589C259.34,-24.7165 290.341,-31.0672 316.682,-36.4632"/>
<polygon fill="midnightblue" stroke="midnightblue" points="316.028,-39.9018 326.527,-38.4799 317.433,-33.0442 316.028,-39.9018"/>
</g>
<!-- Node5 -->
<g id="node5" class="node"><title>Node5</title>
<g id="a_node5"><a xlink:href="classUIElement.html#a98725ac250168ebb2fa676dd481ff495" target="_top" xlink:title="Get the button state Get the current mouse button pressed state. ">
<polygon fill="none" stroke="black" points="301,-0.5 301,-19.5 447,-19.5 447,-0.5 301,-0.5"/>
<text text-anchor="middle" x="374" y="-7.5" font-family="Helvetica,sans-Serif" font-size="10.00">UIElement::getButtonState</text>
</a>
</g>
</g>
<!-- Node4&#45;&gt;Node5 -->
<g id="edge4" class="edge"><title>Node4&#45;&gt;Node5</title>
<path fill="none" stroke="midnightblue" d="M265.094,-10C273.493,-10 282.063,-10 290.518,-10"/>
<polygon fill="midnightblue" stroke="midnightblue" points="290.754,-13.5001 300.754,-10 290.754,-6.5001 290.754,-13.5001"/>
</g>
</g>
</svg>
