<?xml version="1.0" encoding="UTF-8" standalone="no"?>
<!DOCTYPE svg PUBLIC "-//W3C//DTD SVG 1.1//EN"
 "http://www.w3.org/Graphics/SVG/1.1/DTD/svg11.dtd">
<!-- Generated by graphviz version 2.38.0 (20140413.2041)
 -->
<!-- Title: Tooltip::draw Pages: 1 -->
<svg width="436pt" height="104pt"
 viewBox="0.00 0.00 436.00 104.00" xmlns="http://www.w3.org/2000/svg" xmlns:xlink="http://www.w3.org/1999/xlink">
<g id="graph0" class="graph" transform="scale(1 1) rotate(0) translate(4 100)">
<title>Tooltip::draw</title>
<!-- Node1 -->
<g id="node1" class="node"><title>Node1</title>
<polygon fill="#bfbfbf" stroke="black" points="0,-38.5 0,-57.5 75,-57.5 75,-38.5 0,-38.5"/>
<text text-anchor="middle" x="37.5" y="-45.5" font-family="Helvetica,sans-Serif" font-size="10.00">Tooltip::draw</text>
</g>
<!-- Node2 -->
<g id="node2" class="node"><title>Node2</title>
<g id="a_node2"><a xlink:href="classUIElement.html#abba9217ad94f67e16654cf236577b6c2" target="_top" xlink:title="Check the UI Elements visibility. Check if the UI Element is visibile. ">
<polygon fill="none" stroke="black" points="127.5,-76.5 127.5,-95.5 237.5,-95.5 237.5,-76.5 127.5,-76.5"/>
<text text-anchor="middle" x="182.5" y="-83.5" font-family="Helvetica,sans-Serif" font-size="10.00">UIElement::isVisible</text>
</a>
</g>
</g>
<!-- Node1&#45;&gt;Node2 -->
<g id="edge1" class="edge"><title>Node1&#45;&gt;Node2</title>
<path fill="none" stroke="midnightblue" d="M74.5849,-57.589C93.1296,-62.5169 115.926,-68.5749 135.699,-73.8291"/>
<polygon fill="midnightblue" stroke="midnightblue" points="134.863,-77.2284 145.427,-76.4141 136.661,-70.4632 134.863,-77.2284"/>
</g>
<!-- Node3 -->
<g id="node3" class="node"><title>Node3</title>
<g id="a_node3"><a xlink:href="classUIElement.html#a76e9fe4cfcc0318e21c627eb4f6864e9" target="_top" xlink:title="Draws a frame around a textfield Draws a frame around around an existing textfield. This function cannot be used without an existing textfield. ">
<polygon fill="none" stroke="black" points="111,-38.5 111,-57.5 254,-57.5 254,-38.5 111,-38.5"/>
<text text-anchor="middle" x="182.5" y="-45.5" font-family="Helvetica,sans-Serif" font-size="10.00">UIElement::drawTextFrame</text>
</a>
</g>
</g>
<!-- Node1&#45;&gt;Node3 -->
<g id="edge2" class="edge"><title>Node1&#45;&gt;Node3</title>
<path fill="none" stroke="midnightblue" d="M75.3261,-48C83.2626,-48 91.9513,-48 100.832,-48"/>
<polygon fill="midnightblue" stroke="midnightblue" points="100.91,-51.5001 110.91,-48 100.91,-44.5001 100.91,-51.5001"/>
</g>
<!-- Node5 -->
<g id="node5" class="node"><title>Node5</title>
<g id="a_node5"><a xlink:href="classUIElement.html#a870367e90702e8021b090d5a11152def" target="_top" xlink:title="UIElement::renderTexture">
<polygon fill="none" stroke="black" points="113.5,-0.5 113.5,-19.5 251.5,-19.5 251.5,-0.5 113.5,-0.5"/>
<text text-anchor="middle" x="182.5" y="-7.5" font-family="Helvetica,sans-Serif" font-size="10.00">UIElement::renderTexture</text>
</a>
</g>
</g>
<!-- Node1&#45;&gt;Node5 -->
<g id="edge4" class="edge"><title>Node1&#45;&gt;Node5</title>
<path fill="none" stroke="midnightblue" d="M74.5849,-38.411C93.1296,-33.4831 115.926,-27.4251 135.699,-22.1709"/>
<polygon fill="midnightblue" stroke="midnightblue" points="136.661,-25.5368 145.427,-19.5859 134.863,-18.7716 136.661,-25.5368"/>
</g>
<!-- Node4 -->
<g id="node4" class="node"><title>Node4</title>
<g id="a_node4"><a xlink:href="classUIElement.html#a93e23ad405b6275a99d5f71d32232f5c" target="_top" xlink:title="Draws a filled rectangle to the screen. Draws a filled rectangle to the screen. ">
<polygon fill="none" stroke="black" points="290,-38.5 290,-57.5 428,-57.5 428,-38.5 290,-38.5"/>
<text text-anchor="middle" x="359" y="-45.5" font-family="Helvetica,sans-Serif" font-size="10.00">UIElement::drawSolidRect</text>
</a>
</g>
</g>
<!-- Node3&#45;&gt;Node4 -->
<g id="edge3" class="edge"><title>Node3&#45;&gt;Node4</title>
<path fill="none" stroke="midnightblue" d="M254.224,-48C262.553,-48 271.09,-48 279.517,-48"/>
<polygon fill="midnightblue" stroke="midnightblue" points="279.72,-51.5001 289.72,-48 279.719,-44.5001 279.72,-51.5001"/>
</g>
</g>
</svg>
