<?xml version="1.0" encoding="UTF-8" standalone="no"?>
<!DOCTYPE svg PUBLIC "-//W3C//DTD SVG 1.1//EN"
 "http://www.w3.org/Graphics/SVG/1.1/DTD/svg11.dtd">
<!-- Generated by graphviz version 2.38.0 (20140413.2041)
 -->
<!-- Title: MessageQueue::getEnumerable Pages: 1 -->
<svg width="385pt" height="104pt"
 viewBox="0.00 0.00 385.00 104.00" xmlns="http://www.w3.org/2000/svg" xmlns:xlink="http://www.w3.org/1999/xlink">
<g id="graph0" class="graph" transform="scale(1 1) rotate(0) translate(4 100)">
<title>MessageQueue::getEnumerable</title>
<!-- Node1 -->
<g id="node1" class="node"><title>Node1</title>
<polygon fill="#bfbfbf" stroke="black" points="0,-38.5 0,-57.5 170,-57.5 170,-38.5 0,-38.5"/>
<text text-anchor="middle" x="85" y="-45.5" font-family="Helvetica,sans-Serif" font-size="10.00">MessageQueue::getEnumerable</text>
</g>
<!-- Node2 -->
<g id="node2" class="node"><title>Node2</title>
<g id="a_node2"><a xlink:href="classMessageQueue.html#afc84268bde4f0c15be84e5465d41402c" target="_top" xlink:title="MessageQueue::wakeCondition">
<polygon fill="none" stroke="black" points="208.5,-76.5 208.5,-95.5 374.5,-95.5 374.5,-76.5 208.5,-76.5"/>
<text text-anchor="middle" x="291.5" y="-83.5" font-family="Helvetica,sans-Serif" font-size="10.00">MessageQueue::wakeCondition</text>
</a>
</g>
</g>
<!-- Node1&#45;&gt;Node2 -->
<g id="edge1" class="edge"><title>Node1&#45;&gt;Node2</title>
<path fill="none" stroke="midnightblue" d="M137.34,-57.54C165.175,-62.7122 199.767,-69.1401 229.03,-74.5778"/>
<polygon fill="midnightblue" stroke="midnightblue" points="228.668,-78.0702 239.139,-76.4561 229.947,-71.188 228.668,-78.0702"/>
</g>
<!-- Node3 -->
<g id="node3" class="node"><title>Node3</title>
<g id="a_node3"><a xlink:href="classMessageQueue.html#a3444f64f61f70e15051baa78dce0863b" target="_top" xlink:title="MessageQueue::operator=">
<polygon fill="none" stroke="black" points="218.5,-38.5 218.5,-57.5 364.5,-57.5 364.5,-38.5 218.5,-38.5"/>
<text text-anchor="middle" x="291.5" y="-45.5" font-family="Helvetica,sans-Serif" font-size="10.00">MessageQueue::operator=</text>
</a>
</g>
</g>
<!-- Node1&#45;&gt;Node3 -->
<g id="edge2" class="edge"><title>Node1&#45;&gt;Node3</title>
<path fill="none" stroke="midnightblue" d="M170.063,-48C182.543,-48 195.396,-48 207.846,-48"/>
<polygon fill="midnightblue" stroke="midnightblue" points="208.192,-51.5001 218.192,-48 208.192,-44.5001 208.192,-51.5001"/>
</g>
<!-- Node4 -->
<g id="node4" class="node"><title>Node4</title>
<g id="a_node4"><a xlink:href="classMessageQueue.html#af546d0f2cbba0136be99afc51e8a2445" target="_top" xlink:title="MessageQueue::MessageQueue">
<polygon fill="none" stroke="black" points="206,-0.5 206,-19.5 377,-19.5 377,-0.5 206,-0.5"/>
<text text-anchor="middle" x="291.5" y="-7.5" font-family="Helvetica,sans-Serif" font-size="10.00">MessageQueue::MessageQueue</text>
</a>
</g>
</g>
<!-- Node1&#45;&gt;Node4 -->
<g id="edge3" class="edge"><title>Node1&#45;&gt;Node4</title>
<path fill="none" stroke="midnightblue" d="M137.34,-38.46C165.175,-33.2878 199.767,-26.8599 229.03,-21.4222"/>
<polygon fill="midnightblue" stroke="midnightblue" points="229.947,-24.812 239.139,-19.5439 228.668,-17.9298 229.947,-24.812"/>
</g>
</g>
</svg>
