<?xml version="1.0" encoding="UTF-8" standalone="no"?>
<!DOCTYPE svg PUBLIC "-//W3C//DTD SVG 1.1//EN"
 "http://www.w3.org/Graphics/SVG/1.1/DTD/svg11.dtd">
<!-- Generated by graphviz version 2.38.0 (20140413.2041)
 -->
<!-- Title: UIManager::toggleGroupVisibility Pages: 1 -->
<svg width="887pt" height="66pt"
 viewBox="0.00 0.00 887.00 66.00" xmlns="http://www.w3.org/2000/svg" xmlns:xlink="http://www.w3.org/1999/xlink">
<g id="graph0" class="graph" transform="scale(1 1) rotate(0) translate(4 62)">
<title>UIManager::toggleGroupVisibility</title>
<!-- Node1 -->
<g id="node1" class="node"><title>Node1</title>
<polygon fill="#bfbfbf" stroke="black" points="0,-19.5 0,-38.5 172,-38.5 172,-19.5 0,-19.5"/>
<text text-anchor="middle" x="86" y="-26.5" font-family="Helvetica,sans-Serif" font-size="10.00">UIManager::toggleGroupVisibility</text>
</g>
<!-- Node2 -->
<g id="node2" class="node"><title>Node2</title>
<g id="a_node2"><a xlink:href="classEventManager.html#a65ec91fd5016d4f9c4167fb8babed2df" target="_top" xlink:title="EventManager::checkEvents">
<polygon fill="none" stroke="black" points="418,-38.5 418,-57.5 570,-57.5 570,-38.5 418,-38.5"/>
<text text-anchor="middle" x="494" y="-45.5" font-family="Helvetica,sans-Serif" font-size="10.00">EventManager::checkEvents</text>
</a>
</g>
</g>
<!-- Node1&#45;&gt;Node2 -->
<g id="edge1" class="edge"><title>Node1&#45;&gt;Node2</title>
<path fill="none" stroke="midnightblue" d="M182.526,-33.4704C254.404,-36.8342 351.542,-41.38 417.906,-44.4857"/>
<polygon fill="midnightblue" stroke="midnightblue" points="182.264,-29.9544 172.111,-32.983 181.936,-36.9468 182.264,-29.9544"/>
</g>
<!-- Node6 -->
<g id="node6" class="node"><title>Node6</title>
<g id="a_node6"><a xlink:href="classUIManager.html#aa78e356fc3b356d790c848319d1c387e" target="_top" xlink:title="UIManager::setCallbackFunctions">
<polygon fill="none" stroke="black" points="208,-0.5 208,-19.5 382,-19.5 382,-0.5 208,-0.5"/>
<text text-anchor="middle" x="295" y="-7.5" font-family="Helvetica,sans-Serif" font-size="10.00">UIManager::setCallbackFunctions</text>
</a>
</g>
</g>
<!-- Node1&#45;&gt;Node6 -->
<g id="edge5" class="edge"><title>Node1&#45;&gt;Node6</title>
<path fill="none" stroke="midnightblue" d="M182.128,-20.2684C190.721,-19.4797 199.392,-18.6839 207.901,-17.9028"/>
<polygon fill="midnightblue" stroke="midnightblue" points="181.729,-16.7902 172.091,-21.1897 182.369,-23.7609 181.729,-16.7902"/>
</g>
<!-- Node3 -->
<g id="node3" class="node"><title>Node3</title>
<g id="a_node3"><a xlink:href="classGame.html#a1c2ab25d5216b2f4b2fe41efd2c09114" target="_top" xlink:title="Game::run">
<polygon fill="none" stroke="black" points="606,-19.5 606,-38.5 674,-38.5 674,-19.5 606,-19.5"/>
<text text-anchor="middle" x="640" y="-26.5" font-family="Helvetica,sans-Serif" font-size="10.00">Game::run</text>
</a>
</g>
</g>
<!-- Node2&#45;&gt;Node3 -->
<g id="edge2" class="edge"><title>Node2&#45;&gt;Node3</title>
<path fill="none" stroke="midnightblue" d="M577.474,-37.118C587.464,-35.7999 597.179,-34.518 605.828,-33.3769"/>
<polygon fill="midnightblue" stroke="midnightblue" points="576.878,-33.6662 567.422,-38.4443 577.794,-40.6061 576.878,-33.6662"/>
</g>
<!-- Node4 -->
<g id="node4" class="node"><title>Node4</title>
<g id="a_node4"><a xlink:href="main_8cxx.html#af582d708d899e67ead623eac34a22387" target="_top" xlink:title="protected_main">
<polygon fill="none" stroke="black" points="710,-19.5 710,-38.5 802,-38.5 802,-19.5 710,-19.5"/>
<text text-anchor="middle" x="756" y="-26.5" font-family="Helvetica,sans-Serif" font-size="10.00">protected_main</text>
</a>
</g>
</g>
<!-- Node3&#45;&gt;Node4 -->
<g id="edge3" class="edge"><title>Node3&#45;&gt;Node4</title>
<path fill="none" stroke="midnightblue" d="M684.44,-29C692.674,-29 701.308,-29 709.601,-29"/>
<polygon fill="midnightblue" stroke="midnightblue" points="684.28,-25.5001 674.28,-29 684.28,-32.5001 684.28,-25.5001"/>
</g>
<!-- Node5 -->
<g id="node5" class="node"><title>Node5</title>
<g id="a_node5"><a xlink:href="main_8cxx.html#a3c04138a5bfe5d72780bb7e82a18e627" target="_top" xlink:title="main">
<polygon fill="none" stroke="black" points="838,-19.5 838,-38.5 879,-38.5 879,-19.5 838,-19.5"/>
<text text-anchor="middle" x="858.5" y="-26.5" font-family="Helvetica,sans-Serif" font-size="10.00">main</text>
</a>
</g>
</g>
<!-- Node4&#45;&gt;Node5 -->
<g id="edge4" class="edge"><title>Node4&#45;&gt;Node5</title>
<path fill="none" stroke="midnightblue" d="M812.539,-29C821.619,-29 830.466,-29 837.877,-29"/>
<polygon fill="midnightblue" stroke="midnightblue" points="812.252,-25.5001 802.252,-29 812.252,-32.5001 812.252,-25.5001"/>
</g>
<!-- Node7 -->
<g id="node7" class="node"><title>Node7</title>
<g id="a_node7"><a xlink:href="classUIManager.html#aedd9d0577af515a852425dfe414b2968" target="_top" xlink:title="Parses the UiLayout.json files and creates UI Elements. ">
<polygon fill="none" stroke="black" points="449.5,-0.5 449.5,-19.5 538.5,-19.5 538.5,-0.5 449.5,-0.5"/>
<text text-anchor="middle" x="494" y="-7.5" font-family="Helvetica,sans-Serif" font-size="10.00">UIManager::init</text>
</a>
</g>
</g>
<!-- Node6&#45;&gt;Node7 -->
<g id="edge6" class="edge"><title>Node6&#45;&gt;Node7</title>
<path fill="none" stroke="midnightblue" d="M392.264,-10C412.329,-10 432.518,-10 449.498,-10"/>
<polygon fill="midnightblue" stroke="midnightblue" points="392.121,-6.5001 382.12,-10 392.12,-13.5001 392.121,-6.5001"/>
</g>
<!-- Node7&#45;&gt;Node3 -->
<g id="edge7" class="edge"><title>Node7&#45;&gt;Node3</title>
<path fill="none" stroke="midnightblue" d="M548.679,-17.0826C567.774,-19.6022 588.712,-22.3647 605.616,-24.5951"/>
<polygon fill="midnightblue" stroke="midnightblue" points="548.967,-13.5905 538.596,-15.7522 548.052,-20.5303 548.967,-13.5905"/>
</g>
</g>
</svg>
