<?xml version="1.0" encoding="UTF-8" standalone="no"?>
<!DOCTYPE svg PUBLIC "-//W3C//DTD SVG 1.1//EN"
 "http://www.w3.org/Graphics/SVG/1.1/DTD/svg11.dtd">
<!-- Generated by graphviz version 2.38.0 (20140413.2041)
 -->
<!-- Title: src/engine/ui/widgets/Combobox.hxx Pages: 1 -->
<!--zoomable 431 -->
<svg id="main" version="1.1" xmlns="http://www.w3.org/2000/svg" xmlns:xlink="http://www.w3.org/1999/xlink" xml:space="preserve" onload="init(evt)">
<style type="text/css"><![CDATA[
.edge:hover path { stroke: red; }
.edge:hover polygon { stroke: red; fill: red; }
]]></style>
<script type="text/javascript"><![CDATA[
var edges = document.getElementsByTagName('g');
if (edges && edges.length) {
  for (var i=0;i<edges.length;i++) {
    if (edges[i].id.substr(0,4)=='edge') {
      edges[i].setAttribute('class','edge');
    }
  }
}
]]></script>
        <defs>
                <circle id="rim" cx="0" cy="0" r="7"/>
                <circle id="rim2" cx="0" cy="0" r="3.5"/>
                <g id="zoomPlus">
                        <use xlink:href="#rim" fill="#404040">
                                <set attributeName="fill" to="#808080" begin="zoomplus.mouseover" end="zoomplus.mouseout"/>
                        </use>
                        <path d="M-4,0h8M0,-4v8" fill="none" stroke="white" stroke-width="1.5" pointer-events="none"/>
                </g>
                <g id="zoomMin">
                        <use xlink:href="#rim" fill="#404040">
                                <set attributeName="fill" to="#808080" begin="zoomminus.mouseover" end="zoomminus.mouseout"/>
                        </use>
                        <path d="M-4,0h8" fill="none" stroke="white" stroke-width="1.5" pointer-events="none"/>
                </g>
                <g id="dirArrow">
                        <path fill="none" stroke="white" stroke-width="1.5" d="M0,-3.0v7 M-2.5,-0.5L0,-3.0L2.5,-0.5"/>
                </g>
               <g id="resetDef">
                       <use xlink:href="#rim2" fill="#404040">
                               <set attributeName="fill" to="#808080" begin="reset.mouseover" end="reset.mouseout"/>
                       </use>
               </g>
        </defs>

<script type="text/javascript">
var viewWidth = 961;
var viewHeight = 431;
var sectionId = 'dynsection-0';
</script>
<script xlink:href="svgpan.js"/>
<svg id="graph" class="graph">
<g id="viewport">
<title>src/engine/ui/widgets/Combobox.hxx</title>
<!-- Node1 -->
<g id="node1" class="node"><title>Node1</title>
<polygon fill="#bfbfbf" stroke="black" points="472,-392.5 472,-422.5 588,-422.5 588,-392.5 472,-392.5"/>
<text text-anchor="start" x="480" y="-410.5" font-family="Helvetica,sans-Serif" font-size="10.00">src/engine/ui/widgets</text>
<text text-anchor="middle" x="530" y="-399.5" font-family="Helvetica,sans-Serif" font-size="10.00">/Combobox.hxx</text>
</g>
<!-- Node2 -->
<g id="node2" class="node"><title>Node2</title>
<polygon fill="none" stroke="#bfbfbf" points="686.5,-112.5 686.5,-131.5 743.5,-131.5 743.5,-112.5 686.5,-112.5"/>
<text text-anchor="middle" x="715" y="-119.5" font-family="Helvetica,sans-Serif" font-size="10.00">memory</text>
</g>
<!-- Node1&#45;&gt;Node2 -->
<g id="edge1" class="edge"><title>Node1&#45;&gt;Node2</title>
<path fill="none" stroke="midnightblue" d="M588.37,-392.831C637.908,-377.354 701,-346.708 701,-291 701,-291 701,-291 701,-233 701,-200.541 707.073,-163.121 711.219,-141.356"/>
<polygon fill="midnightblue" stroke="midnightblue" points="714.66,-142 713.17,-131.511 707.793,-140.64 714.66,-142"/>
</g>
<!-- Node3 -->
<g id="node3" class="node"><title>Node3</title>
<g id="a_node3"><a xlink:href="UIElement_8hxx.html" target="_top" xlink:title="../basics/UIElement.hxx">
<polygon fill="none" stroke="black" points="414,-224.5 414,-243.5 542,-243.5 542,-224.5 414,-224.5"/>
<text text-anchor="middle" x="478" y="-231.5" font-family="Helvetica,sans-Serif" font-size="10.00">../basics/UIElement.hxx</text>
</a>
</g>
</g>
<!-- Node1&#45;&gt;Node3 -->
<g id="edge2" class="edge"><title>Node1&#45;&gt;Node3</title>
<path fill="none" stroke="midnightblue" d="M526.431,-392.394C522.765,-378.118 516.79,-355.438 511,-336 502.335,-306.912 491.177,-273.494 484.309,-253.328"/>
<polygon fill="midnightblue" stroke="midnightblue" points="487.529,-251.926 480.979,-243.599 480.906,-254.193 487.529,-251.926"/>
</g>
<!-- Node20 -->
<g id="node20" class="node"><title>Node20</title>
<g id="a_node20"><a xlink:href="TextField_8hxx.html" target="_top" xlink:title="TextField.hxx">
<polygon fill="none" stroke="black" points="426,-336.5 426,-355.5 502,-355.5 502,-336.5 426,-336.5"/>
<text text-anchor="middle" x="464" y="-343.5" font-family="Helvetica,sans-Serif" font-size="10.00">TextField.hxx</text>
</a>
</g>
</g>
<!-- Node1&#45;&gt;Node20 -->
<g id="edge31" class="edge"><title>Node1&#45;&gt;Node20</title>
<path fill="none" stroke="midnightblue" d="M514.359,-392.399C504.373,-383.397 491.422,-371.721 481.155,-362.465"/>
<polygon fill="midnightblue" stroke="midnightblue" points="483.375,-359.754 473.604,-355.658 478.687,-364.953 483.375,-359.754"/>
</g>
<!-- Node4 -->
<g id="node4" class="node"><title>Node4</title>
<polygon fill="none" stroke="#bfbfbf" points="298,-0.5 298,-19.5 342,-19.5 342,-0.5 298,-0.5"/>
<text text-anchor="middle" x="320" y="-7.5" font-family="Helvetica,sans-Serif" font-size="10.00">string</text>
</g>
<!-- Node3&#45;&gt;Node4 -->
<g id="edge3" class="edge"><title>Node3&#45;&gt;Node4</title>
<path fill="none" stroke="midnightblue" d="M511.557,-224.382C567.131,-208.285 669.217,-169.949 638,-112 616.545,-72.1717 594.9,-73.0601 553,-56 484.678,-28.1818 397.946,-17.2633 351.979,-13.2129"/>
<polygon fill="midnightblue" stroke="midnightblue" points="352.263,-9.72445 342.008,-12.3866 351.684,-16.7005 352.263,-9.72445"/>
</g>
<!-- Node5 -->
<g id="node5" class="node"><title>Node5</title>
<g id="a_node5"><a xlink:href="mapEdit_8hxx.html" target="_top" xlink:title="../../basics/mapEdit.hxx">
<polygon fill="none" stroke="black" points="42.5,-168.5 42.5,-187.5 169.5,-187.5 169.5,-168.5 42.5,-168.5"/>
<text text-anchor="middle" x="106" y="-175.5" font-family="Helvetica,sans-Serif" font-size="10.00">../../basics/mapEdit.hxx</text>
</a>
</g>
</g>
<!-- Node3&#45;&gt;Node5 -->
<g id="edge4" class="edge"><title>Node3&#45;&gt;Node5</title>
<path fill="none" stroke="midnightblue" d="M419.055,-224.444C352.665,-214.806 244.904,-199.163 174.739,-188.978"/>
<polygon fill="midnightblue" stroke="midnightblue" points="175.068,-185.489 164.669,-187.516 174.062,-192.417 175.068,-185.489"/>
</g>
<!-- Node6 -->
<g id="node6" class="node"><title>Node6</title>
<g id="a_node6"><a xlink:href="ResourcesManager_8hxx.html" target="_top" xlink:title="../../ResourcesManager.hxx">
<polygon fill="none" stroke="black" points="203,-168.5 203,-187.5 347,-187.5 347,-168.5 203,-168.5"/>
<text text-anchor="middle" x="275" y="-175.5" font-family="Helvetica,sans-Serif" font-size="10.00">../../ResourcesManager.hxx</text>
</a>
</g>
</g>
<!-- Node3&#45;&gt;Node6 -->
<g id="edge6" class="edge"><title>Node3&#45;&gt;Node6</title>
<path fill="none" stroke="midnightblue" d="M445.834,-224.444C410.941,-215.162 355.107,-200.309 316.829,-190.127"/>
<polygon fill="midnightblue" stroke="midnightblue" points="317.579,-186.705 307.015,-187.516 315.78,-193.47 317.579,-186.705"/>
</g>
<!-- Node9 -->
<g id="node9" class="node"><title>Node9</title>
<polygon fill="none" stroke="#bfbfbf" points="480.5,-56.5 480.5,-75.5 525.5,-75.5 525.5,-56.5 480.5,-56.5"/>
<text text-anchor="middle" x="503" y="-63.5" font-family="Helvetica,sans-Serif" font-size="10.00">SDL.h</text>
</g>
<!-- Node3&#45;&gt;Node9 -->
<g id="edge30" class="edge"><title>Node3&#45;&gt;Node9</title>
<path fill="none" stroke="midnightblue" d="M485.151,-224.364C491.773,-215.763 501.157,-201.873 505,-188 514.731,-152.867 510.352,-109.77 506.52,-85.6467"/>
<polygon fill="midnightblue" stroke="midnightblue" points="509.955,-84.9749 504.798,-75.7199 503.058,-86.1709 509.955,-84.9749"/>
</g>
<!-- Node14 -->
<g id="node14" class="node"><title>Node14</title>
<g id="a_node14"><a xlink:href="WindowManager_8hxx.html" target="_top" xlink:title="../../WindowManager.hxx">
<polygon fill="none" stroke="black" points="365.5,-168.5 365.5,-187.5 496.5,-187.5 496.5,-168.5 365.5,-168.5"/>
<text text-anchor="middle" x="431" y="-175.5" font-family="Helvetica,sans-Serif" font-size="10.00">../../WindowManager.hxx</text>
</a>
</g>
</g>
<!-- Node3&#45;&gt;Node14 -->
<g id="edge18" class="edge"><title>Node3&#45;&gt;Node14</title>
<path fill="none" stroke="midnightblue" d="M470.239,-224.083C463.463,-216.298 453.457,-204.801 445.245,-195.367"/>
<polygon fill="midnightblue" stroke="midnightblue" points="447.822,-192.996 438.617,-187.751 442.542,-197.592 447.822,-192.996"/>
</g>
<!-- Node16 -->
<g id="node16" class="node"><title>Node16</title>
<g id="a_node16"><a xlink:href="signal_8hxx.html" target="_top" xlink:title="../../basics/signal.hxx">
<polygon fill="none" stroke="black" points="732.5,-168.5 732.5,-187.5 847.5,-187.5 847.5,-168.5 732.5,-168.5"/>
<text text-anchor="middle" x="790" y="-175.5" font-family="Helvetica,sans-Serif" font-size="10.00">../../basics/signal.hxx</text>
</a>
</g>
</g>
<!-- Node3&#45;&gt;Node16 -->
<g id="edge24" class="edge"><title>Node3&#45;&gt;Node16</title>
<path fill="none" stroke="midnightblue" d="M527.437,-224.444C582.664,-214.885 672.021,-199.419 730.895,-189.23"/>
<polygon fill="midnightblue" stroke="midnightblue" points="731.537,-192.671 740.794,-187.516 730.344,-185.773 731.537,-192.671"/>
</g>
<!-- Node5&#45;&gt;Node4 -->
<g id="edge5" class="edge"><title>Node5&#45;&gt;Node4</title>
<path fill="none" stroke="midnightblue" d="M97.0664,-168.426C76.0057,-147.194 27.1912,-91.3424 57,-56 86.1502,-21.4385 223.766,-13.42 287.481,-11.5607"/>
<polygon fill="midnightblue" stroke="midnightblue" points="287.856,-15.0523 297.762,-11.2959 287.675,-8.05466 287.856,-15.0523"/>
</g>
<!-- Node7 -->
<g id="node7" class="node"><title>Node7</title>
<polygon fill="none" stroke="#bfbfbf" points="352.5,-112.5 352.5,-131.5 411.5,-131.5 411.5,-112.5 352.5,-112.5"/>
<text text-anchor="middle" x="382" y="-119.5" font-family="Helvetica,sans-Serif" font-size="10.00">iostream</text>
</g>
<!-- Node6&#45;&gt;Node7 -->
<g id="edge7" class="edge"><title>Node6&#45;&gt;Node7</title>
<path fill="none" stroke="midnightblue" d="M292.191,-168.324C309.351,-159.664 335.946,-146.242 355.747,-136.249"/>
<polygon fill="midnightblue" stroke="midnightblue" points="357.501,-139.285 364.851,-131.655 354.347,-133.035 357.501,-139.285"/>
</g>
<!-- Node8 -->
<g id="node8" class="node"><title>Node8</title>
<polygon fill="none" stroke="#bfbfbf" points="66.5,-56.5 66.5,-75.5 159.5,-75.5 159.5,-56.5 66.5,-56.5"/>
<text text-anchor="middle" x="113" y="-63.5" font-family="Helvetica,sans-Serif" font-size="10.00">unordered_map</text>
</g>
<!-- Node6&#45;&gt;Node8 -->
<g id="edge8" class="edge"><title>Node6&#45;&gt;Node8</title>
<path fill="none" stroke="midnightblue" d="M257.186,-168.4C240.203,-159.93 214.155,-146.229 193,-132 170.198,-116.663 145.965,-96.3371 130.224,-82.5264"/>
<polygon fill="midnightblue" stroke="midnightblue" points="132.218,-79.6164 122.415,-75.5971 127.572,-84.8523 132.218,-79.6164"/>
</g>
<!-- Node6&#45;&gt;Node9 -->
<g id="edge9" class="edge"><title>Node6&#45;&gt;Node9</title>
<path fill="none" stroke="midnightblue" d="M281.554,-168.455C292.675,-154.546 316.616,-127.054 343,-112 343.089,-111.949 424.041,-89.1923 470.748,-76.0643"/>
<polygon fill="midnightblue" stroke="midnightblue" points="471.751,-79.4181 480.431,-73.3428 469.857,-72.6792 471.751,-79.4181"/>
</g>
<!-- Node10 -->
<g id="node10" class="node"><title>Node10</title>
<g id="a_node10"><a xlink:href="TileManager_8hxx.html" target="_top" xlink:title="TileManager.hxx">
<polygon fill="none" stroke="black" points="202.5,-112.5 202.5,-131.5 295.5,-131.5 295.5,-112.5 202.5,-112.5"/>
<text text-anchor="middle" x="249" y="-119.5" font-family="Helvetica,sans-Serif" font-size="10.00">TileManager.hxx</text>
</a>
</g>
</g>
<!-- Node6&#45;&gt;Node10 -->
<g id="edge10" class="edge"><title>Node6&#45;&gt;Node10</title>
<path fill="none" stroke="midnightblue" d="M270.707,-168.083C267.148,-160.691 261.978,-149.953 257.576,-140.811"/>
<polygon fill="midnightblue" stroke="midnightblue" points="260.705,-139.243 253.213,-131.751 254.398,-142.279 260.705,-139.243"/>
</g>
<!-- Node10&#45;&gt;Node4 -->
<g id="edge13" class="edge"><title>Node10&#45;&gt;Node4</title>
<path fill="none" stroke="midnightblue" d="M282.799,-112.388C301.393,-105.735 322.89,-94.4531 334,-76 342.72,-61.5167 336.881,-42.3316 330.287,-28.5644"/>
<polygon fill="midnightblue" stroke="midnightblue" points="333.33,-26.8328 325.55,-19.642 327.148,-30.1155 333.33,-26.8328"/>
</g>
<!-- Node10&#45;&gt;Node8 -->
<g id="edge12" class="edge"><title>Node10&#45;&gt;Node8</title>
<path fill="none" stroke="midnightblue" d="M227.45,-112.444C204.969,-103.517 169.512,-89.4387 144.02,-79.3168"/>
<polygon fill="midnightblue" stroke="midnightblue" points="145.035,-75.9539 134.449,-75.5164 142.451,-82.4598 145.035,-75.9539"/>
</g>
<!-- Node10&#45;&gt;Node9 -->
<g id="edge11" class="edge"><title>Node10&#45;&gt;Node9</title>
<path fill="none" stroke="midnightblue" d="M295.567,-112.601C338.528,-104.62 404.273,-91.8179 470.549,-75.9618"/>
<polygon fill="midnightblue" stroke="midnightblue" points="471.43,-79.3499 480.329,-73.6004 469.787,-72.5454 471.43,-79.3499"/>
</g>
<!-- Node11 -->
<g id="node11" class="node"><title>Node11</title>
<g id="a_node11"><a xlink:href="tileData_8hxx.html" target="_top" xlink:title="tileData.hxx">
<polygon fill="none" stroke="black" points="251,-56.5 251,-75.5 325,-75.5 325,-56.5 251,-56.5"/>
<text text-anchor="middle" x="288" y="-63.5" font-family="Helvetica,sans-Serif" font-size="10.00">tileData.hxx</text>
</a>
</g>
</g>
<!-- Node10&#45;&gt;Node11 -->
<g id="edge14" class="edge"><title>Node10&#45;&gt;Node11</title>
<path fill="none" stroke="midnightblue" d="M255.44,-112.083C260.949,-104.455 269.031,-93.2645 275.765,-83.9408"/>
<polygon fill="midnightblue" stroke="midnightblue" points="278.662,-85.9071 281.68,-75.7511 272.987,-81.8087 278.662,-85.9071"/>
</g>
<!-- Node12 -->
<g id="node12" class="node"><title>Node12</title>
<polygon fill="none" stroke="#bfbfbf" points="177,-56.5 177,-75.5 233,-75.5 233,-56.5 177,-56.5"/>
<text text-anchor="middle" x="205" y="-63.5" font-family="Helvetica,sans-Serif" font-size="10.00">json.hxx</text>
</g>
<!-- Node10&#45;&gt;Node12 -->
<g id="edge16" class="edge"><title>Node10&#45;&gt;Node12</title>
<path fill="none" stroke="midnightblue" d="M241.734,-112.083C235.455,-104.377 226.212,-93.0333 218.569,-83.6531"/>
<polygon fill="midnightblue" stroke="midnightblue" points="221.161,-81.2926 212.131,-75.7511 215.734,-85.7143 221.161,-81.2926"/>
</g>
<!-- Node13 -->
<g id="node13" class="node"><title>Node13</title>
<g id="a_node13"><a xlink:href="Singleton_8hxx.html" target="_top" xlink:title="Singleton.hxx">
<polygon fill="none" stroke="black" points="381.5,-56.5 381.5,-75.5 462.5,-75.5 462.5,-56.5 381.5,-56.5"/>
<text text-anchor="middle" x="422" y="-63.5" font-family="Helvetica,sans-Serif" font-size="10.00">Singleton.hxx</text>
</a>
</g>
</g>
<!-- Node10&#45;&gt;Node13 -->
<g id="edge17" class="edge"><title>Node10&#45;&gt;Node13</title>
<path fill="none" stroke="midnightblue" d="M276.412,-112.444C305.769,-103.28 352.519,-88.6876 385.096,-78.5192"/>
<polygon fill="midnightblue" stroke="midnightblue" points="386.213,-81.8371 394.716,-75.5164 384.127,-75.1551 386.213,-81.8371"/>
</g>
<!-- Node11&#45;&gt;Node4 -->
<g id="edge15" class="edge"><title>Node11&#45;&gt;Node4</title>
<path fill="none" stroke="midnightblue" d="M293.284,-56.083C297.711,-48.6127 304.163,-37.7244 309.618,-28.5199"/>
<polygon fill="midnightblue" stroke="midnightblue" points="312.727,-30.1383 314.814,-19.7511 306.705,-26.5697 312.727,-30.1383"/>
</g>
<!-- Node14&#45;&gt;Node4 -->
<g id="edge19" class="edge"><title>Node14&#45;&gt;Node4</title>
<path fill="none" stroke="midnightblue" d="M448.339,-168.46C485.932,-148.844 568.856,-98.9479 534,-56 511.459,-28.2257 406.153,-16.9579 352.139,-12.945"/>
<polygon fill="midnightblue" stroke="midnightblue" points="352.28,-9.44641 342.06,-12.2364 351.789,-16.4292 352.28,-9.44641"/>
</g>
<!-- Node14&#45;&gt;Node7 -->
<g id="edge20" class="edge"><title>Node14&#45;&gt;Node7</title>
<path fill="none" stroke="midnightblue" d="M422.909,-168.083C415.845,-160.298 405.412,-148.801 396.851,-139.367"/>
<polygon fill="midnightblue" stroke="midnightblue" points="399.253,-136.805 389.941,-131.751 394.069,-141.509 399.253,-136.805"/>
</g>
<!-- Node14&#45;&gt;Node9 -->
<g id="edge22" class="edge"><title>Node14&#45;&gt;Node9</title>
<path fill="none" stroke="midnightblue" d="M436.65,-168.368C448.532,-150.215 476.294,-107.802 491.879,-83.9902"/>
<polygon fill="midnightblue" stroke="midnightblue" points="494.828,-85.8753 497.377,-75.5914 488.971,-82.0416 494.828,-85.8753"/>
</g>
<!-- Node14&#45;&gt;Node13 -->
<g id="edge23" class="edge"><title>Node14&#45;&gt;Node13</title>
<path fill="none" stroke="midnightblue" d="M430.294,-168.368C428.841,-150.617 425.491,-109.666 423.522,-85.5974"/>
<polygon fill="midnightblue" stroke="midnightblue" points="427.007,-85.2727 422.703,-75.5914 420.03,-85.8436 427.007,-85.2727"/>
</g>
<!-- Node15 -->
<g id="node15" class="node"><title>Node15</title>
<polygon fill="none" stroke="#bfbfbf" points="582.5,-112.5 582.5,-131.5 629.5,-131.5 629.5,-112.5 582.5,-112.5"/>
<text text-anchor="middle" x="606" y="-119.5" font-family="Helvetica,sans-Serif" font-size="10.00">vector</text>
</g>
<!-- Node14&#45;&gt;Node15 -->
<g id="edge21" class="edge"><title>Node14&#45;&gt;Node15</title>
<path fill="none" stroke="midnightblue" d="M458.729,-168.444C489.648,-158.903 539.641,-143.477 572.665,-133.286"/>
<polygon fill="midnightblue" stroke="midnightblue" points="573.806,-136.597 582.329,-130.304 571.742,-129.908 573.806,-136.597"/>
</g>
<!-- Node16&#45;&gt;Node2 -->
<g id="edge25" class="edge"><title>Node16&#45;&gt;Node2</title>
<path fill="none" stroke="midnightblue" d="M777.95,-168.324C766.537,-160.107 749.169,-147.602 735.565,-137.807"/>
<polygon fill="midnightblue" stroke="midnightblue" points="737.43,-134.837 727.269,-131.834 733.34,-140.517 737.43,-134.837"/>
</g>
<!-- Node16&#45;&gt;Node15 -->
<g id="edge28" class="edge"><title>Node16&#45;&gt;Node15</title>
<path fill="none" stroke="midnightblue" d="M760.845,-168.444C727.826,-158.753 674.121,-142.992 639.432,-132.811"/>
<polygon fill="midnightblue" stroke="midnightblue" points="640.334,-129.429 629.753,-129.971 638.363,-136.145 640.334,-129.429"/>
</g>
<!-- Node17 -->
<g id="node17" class="node"><title>Node17</title>
<polygon fill="none" stroke="#bfbfbf" points="761.5,-112.5 761.5,-131.5 824.5,-131.5 824.5,-112.5 761.5,-112.5"/>
<text text-anchor="middle" x="793" y="-119.5" font-family="Helvetica,sans-Serif" font-size="10.00">functional</text>
</g>
<!-- Node16&#45;&gt;Node17 -->
<g id="edge26" class="edge"><title>Node16&#45;&gt;Node17</title>
<path fill="none" stroke="midnightblue" d="M790.495,-168.083C790.889,-161.006 791.452,-150.861 791.945,-141.986"/>
<polygon fill="midnightblue" stroke="midnightblue" points="795.454,-141.93 792.514,-131.751 788.464,-141.542 795.454,-141.93"/>
</g>
<!-- Node18 -->
<g id="node18" class="node"><title>Node18</title>
<polygon fill="none" stroke="#bfbfbf" points="843,-112.5 843,-131.5 873,-131.5 873,-112.5 843,-112.5"/>
<text text-anchor="middle" x="858" y="-119.5" font-family="Helvetica,sans-Serif" font-size="10.00">list</text>
</g>
<!-- Node16&#45;&gt;Node18 -->
<g id="edge27" class="edge"><title>Node16&#45;&gt;Node18</title>
<path fill="none" stroke="midnightblue" d="M800.925,-168.324C811.175,-160.185 826.721,-147.839 839.001,-138.087"/>
<polygon fill="midnightblue" stroke="midnightblue" points="841.221,-140.794 846.876,-131.834 836.868,-135.312 841.221,-140.794"/>
</g>
<!-- Node19 -->
<g id="node19" class="node"><title>Node19</title>
<polygon fill="none" stroke="#bfbfbf" points="891,-112.5 891,-131.5 953,-131.5 953,-112.5 891,-112.5"/>
<text text-anchor="middle" x="922" y="-119.5" font-family="Helvetica,sans-Serif" font-size="10.00">algorithm</text>
</g>
<!-- Node16&#45;&gt;Node19 -->
<g id="edge29" class="edge"><title>Node16&#45;&gt;Node19</title>
<path fill="none" stroke="midnightblue" d="M810.916,-168.444C832.736,-159.517 867.15,-145.439 891.892,-135.317"/>
<polygon fill="midnightblue" stroke="midnightblue" points="893.252,-138.542 901.182,-131.516 890.601,-132.063 893.252,-138.542"/>
</g>
<!-- Node20&#45;&gt;Node3 -->
<g id="edge32" class="edge"><title>Node20&#45;&gt;Node3</title>
<path fill="none" stroke="midnightblue" d="M465.099,-336.368C467.358,-318.617 472.57,-277.666 475.633,-253.597"/>
<polygon fill="midnightblue" stroke="midnightblue" points="479.116,-253.953 476.907,-243.591 472.172,-253.069 479.116,-253.953"/>
</g>
<!-- Node21 -->
<g id="node21" class="node"><title>Node21</title>
<g id="a_node21"><a xlink:href="Text_8hxx.html" target="_top" xlink:title="Text.hxx">
<polygon fill="none" stroke="black" points="394.5,-280.5 394.5,-299.5 449.5,-299.5 449.5,-280.5 394.5,-280.5"/>
<text text-anchor="middle" x="422" y="-287.5" font-family="Helvetica,sans-Serif" font-size="10.00">Text.hxx</text>
</a>
</g>
</g>
<!-- Node20&#45;&gt;Node21 -->
<g id="edge33" class="edge"><title>Node20&#45;&gt;Node21</title>
<path fill="none" stroke="midnightblue" d="M457.065,-336.083C451.071,-328.377 442.248,-317.033 434.952,-307.653"/>
<polygon fill="midnightblue" stroke="midnightblue" points="437.709,-305.496 428.806,-299.751 432.183,-309.793 437.709,-305.496"/>
</g>
<!-- Node21&#45;&gt;Node3 -->
<g id="edge35" class="edge"><title>Node21&#45;&gt;Node3</title>
<path fill="none" stroke="midnightblue" d="M430.997,-280.324C439.194,-272.42 451.506,-260.548 461.472,-250.938"/>
<polygon fill="midnightblue" stroke="midnightblue" points="464.07,-253.295 468.839,-243.834 459.211,-248.256 464.07,-253.295"/>
</g>
<!-- Node21&#45;&gt;Node4 -->
<g id="edge34" class="edge"><title>Node21&#45;&gt;Node4</title>
<path fill="none" stroke="midnightblue" d="M394.311,-287.772C300.428,-282.863 0,-260.769 0,-179 0,-179 0,-179 0,-121 0,-85.8636 15.3002,-74.7747 45,-56 84.9125,-30.7692 223.855,-17.8516 287.594,-13.1393"/>
<polygon fill="midnightblue" stroke="midnightblue" points="288.143,-16.609 297.867,-12.403 287.642,-9.62691 288.143,-16.609"/>
</g>
</g>
</svg>
        <g id="navigator" transform="translate(0 0)" fill="#404254">
                <rect fill="#f2f5e9" fill-opacity="0.5" stroke="#606060" stroke-width=".5" x="0" y="0" width="60" height="60"/>
                <use id="zoomplus" xlink:href="#zoomPlus" x="17" y="9" onmousedown="handleZoom(evt,'in')"/>
                <use id="zoomminus" xlink:href="#zoomMin" x="42" y="9" onmousedown="handleZoom(evt,'out')"/>
                <use id="reset" xlink:href="#resetDef" x="30" y="36" onmousedown="handleReset()"/>
                <g id="arrowUp" xlink:href="#dirArrow" transform="translate(30 24)" onmousedown="handlePan(0,-1)">
                  <use xlink:href="#rim" fill="#404040">
                        <set attributeName="fill" to="#808080" begin="arrowUp.mouseover" end="arrowUp.mouseout"/>
                  </use>
                  <path fill="none" stroke="white" stroke-width="1.5" d="M0,-3.0v7 M-2.5,-0.5L0,-3.0L2.5,-0.5"/>
                </g>
                <g id="arrowRight" xlink:href="#dirArrow" transform="rotate(90) translate(36 -43)" onmousedown="handlePan(1,0)">
                  <use xlink:href="#rim" fill="#404040">
                        <set attributeName="fill" to="#808080" begin="arrowRight.mouseover" end="arrowRight.mouseout"/>
                  </use>
                  <path fill="none" stroke="white" stroke-width="1.5" d="M0,-3.0v7 M-2.5,-0.5L0,-3.0L2.5,-0.5"/>
                </g>
                <g id="arrowDown" xlink:href="#dirArrow" transform="rotate(180) translate(-30 -48)" onmousedown="handlePan(0,1)">
                  <use xlink:href="#rim" fill="#404040">
                        <set attributeName="fill" to="#808080" begin="arrowDown.mouseover" end="arrowDown.mouseout"/>
                  </use>
                  <path fill="none" stroke="white" stroke-width="1.5" d="M0,-3.0v7 M-2.5,-0.5L0,-3.0L2.5,-0.5"/>
                </g>
                <g id="arrowLeft" xlink:href="#dirArrow" transform="rotate(270) translate(-36 17)" onmousedown="handlePan(-1,0)">
                  <use xlink:href="#rim" fill="#404040">
                        <set attributeName="fill" to="#808080" begin="arrowLeft.mouseover" end="arrowLeft.mouseout"/>
                  </use>
                  <path fill="none" stroke="white" stroke-width="1.5" d="M0,-3.0v7 M-2.5,-0.5L0,-3.0L2.5,-0.5"/>
                </g>
        </g>
        <svg viewBox="0 0 15 15" width="100%" height="30px" preserveAspectRatio="xMaxYMin meet">
         <g id="arrow_out" transform="scale(0.3 0.3)">
          <a xlink:href="Combobox_8hxx__incl_org.svg" target="_base">
           <rect id="button" ry="5" rx="5" y="6" x="6" height="38" width="38"
                fill="#f2f5e9" fill-opacity="0.5" stroke="#606060" stroke-width="1.0"/>
           <path id="arrow"
             d="M 11.500037,31.436501 C 11.940474,20.09759 22.043105,11.32322 32.158766,21.979434 L 37.068811,17.246167 C 37.068811,17.246167 37.088388,32 37.088388,32 L 22.160133,31.978069 C 22.160133,31.978069 26.997745,27.140456 26.997745,27.140456 C 18.528582,18.264221 13.291696,25.230495 11.500037,31.436501 z"
             style="fill:#404040;"/>
          </a>
         </g>
        </svg>
</svg>
