<?xml version="1.0" encoding="UTF-8" standalone="no"?>
<!DOCTYPE svg PUBLIC "-//W3C//DTD SVG 1.1//EN"
 "http://www.w3.org/Graphics/SVG/1.1/DTD/svg11.dtd">
<!-- Generated by graphviz version 2.38.0 (20140413.2041)
 -->
<!-- Title: src/engine/ui/widgets/Combobox.cxx Pages: 1 -->
<!--zoomable 487 -->
<svg id="main" version="1.1" xmlns="http://www.w3.org/2000/svg" xmlns:xlink="http://www.w3.org/1999/xlink" xml:space="preserve" onload="init(evt)">
<style type="text/css"><![CDATA[
.edge:hover path { stroke: red; }
.edge:hover polygon { stroke: red; fill: red; }
]]></style>
<script type="text/javascript"><![CDATA[
var edges = document.getElementsByTagName('g');
if (edges && edges.length) {
  for (var i=0;i<edges.length;i++) {
    if (edges[i].id.substr(0,4)=='edge') {
      edges[i].setAttribute('class','edge');
    }
  }
}
]]></script>
        <defs>
                <circle id="rim" cx="0" cy="0" r="7"/>
                <circle id="rim2" cx="0" cy="0" r="3.5"/>
                <g id="zoomPlus">
                        <use xlink:href="#rim" fill="#404040">
                                <set attributeName="fill" to="#808080" begin="zoomplus.mouseover" end="zoomplus.mouseout"/>
                        </use>
                        <path d="M-4,0h8M0,-4v8" fill="none" stroke="white" stroke-width="1.5" pointer-events="none"/>
                </g>
                <g id="zoomMin">
                        <use xlink:href="#rim" fill="#404040">
                                <set attributeName="fill" to="#808080" begin="zoomminus.mouseover" end="zoomminus.mouseout"/>
                        </use>
                        <path d="M-4,0h8" fill="none" stroke="white" stroke-width="1.5" pointer-events="none"/>
                </g>
                <g id="dirArrow">
                        <path fill="none" stroke="white" stroke-width="1.5" d="M0,-3.0v7 M-2.5,-0.5L0,-3.0L2.5,-0.5"/>
                </g>
               <g id="resetDef">
                       <use xlink:href="#rim2" fill="#404040">
                               <set attributeName="fill" to="#808080" begin="reset.mouseover" end="reset.mouseout"/>
                       </use>
               </g>
        </defs>

<script type="text/javascript">
var viewWidth = 1207;
var viewHeight = 487;
var sectionId = 'dynsection-0';
</script>
<script xlink:href="svgpan.js"/>
<svg id="graph" class="graph">
<g id="viewport">
<title>src/engine/ui/widgets/Combobox.cxx</title>
<!-- Node1 -->
<g id="node1" class="node"><title>Node1</title>
<polygon fill="#bfbfbf" stroke="black" points="491.5,-448.5 491.5,-478.5 607.5,-478.5 607.5,-448.5 491.5,-448.5"/>
<text text-anchor="start" x="499.5" y="-466.5" font-family="Helvetica,sans-Serif" font-size="10.00">src/engine/ui/widgets</text>
<text text-anchor="middle" x="549.5" y="-455.5" font-family="Helvetica,sans-Serif" font-size="10.00">/Combobox.cxx</text>
</g>
<!-- Node2 -->
<g id="node2" class="node"><title>Node2</title>
<g id="a_node2"><a xlink:href="Combobox_8hxx.html" target="_top" xlink:title="Combobox.hxx">
<polygon fill="none" stroke="black" points="310.5,-392.5 310.5,-411.5 398.5,-411.5 398.5,-392.5 310.5,-392.5"/>
<text text-anchor="middle" x="354.5" y="-399.5" font-family="Helvetica,sans-Serif" font-size="10.00">Combobox.hxx</text>
</a>
</g>
</g>
<!-- Node1&#45;&gt;Node2 -->
<g id="edge1" class="edge"><title>Node1&#45;&gt;Node2</title>
<path fill="none" stroke="midnightblue" d="M503.288,-448.399C469.446,-438.073 424.08,-424.231 392.372,-414.556"/>
<polygon fill="midnightblue" stroke="midnightblue" points="393.176,-411.142 382.59,-411.571 391.133,-417.837 393.176,-411.142"/>
</g>
<!-- Node23 -->
<g id="node23" class="node"><title>Node23</title>
<g id="a_node23"><a xlink:href="LOG_8hxx.html" target="_top" xlink:title="../../basics/LOG.hxx">
<polygon fill="none" stroke="black" points="912,-168.5 912,-187.5 1019,-187.5 1019,-168.5 912,-168.5"/>
<text text-anchor="middle" x="965.5" y="-175.5" font-family="Helvetica,sans-Serif" font-size="10.00">../../basics/LOG.hxx</text>
</a>
</g>
</g>
<!-- Node1&#45;&gt;Node23 -->
<g id="edge37" class="edge"><title>Node1&#45;&gt;Node23</title>
<path fill="none" stroke="midnightblue" d="M603.777,-448.47C651.193,-432.556 712.5,-401.452 712.5,-347 712.5,-347 712.5,-347 712.5,-289 712.5,-206.661 826.594,-185.303 901.545,-180.157"/>
<polygon fill="midnightblue" stroke="midnightblue" points="902.075,-183.631 911.845,-179.533 901.652,-176.644 902.075,-183.631"/>
</g>
<!-- Node3 -->
<g id="node3" class="node"><title>Node3</title>
<polygon fill="none" stroke="#bfbfbf" points="0,-112.5 0,-131.5 57,-131.5 57,-112.5 0,-112.5"/>
<text text-anchor="middle" x="28.5" y="-119.5" font-family="Helvetica,sans-Serif" font-size="10.00">memory</text>
</g>
<!-- Node2&#45;&gt;Node3 -->
<g id="edge2" class="edge"><title>Node2&#45;&gt;Node3</title>
<path fill="none" stroke="midnightblue" d="M310.229,-395.037C223.261,-382.078 38.5,-347.856 38.5,-291 38.5,-291 38.5,-291 38.5,-233 38.5,-200.816 34.2018,-163.552 31.2412,-141.702"/>
<polygon fill="midnightblue" stroke="midnightblue" points="34.6695,-140.947 29.8073,-131.534 27.7381,-141.925 34.6695,-140.947"/>
</g>
<!-- Node4 -->
<g id="node4" class="node"><title>Node4</title>
<g id="a_node4"><a xlink:href="UIElement_8hxx.html" target="_top" xlink:title="../basics/UIElement.hxx">
<polygon fill="none" stroke="black" points="304.5,-224.5 304.5,-243.5 432.5,-243.5 432.5,-224.5 304.5,-224.5"/>
<text text-anchor="middle" x="368.5" y="-231.5" font-family="Helvetica,sans-Serif" font-size="10.00">../basics/UIElement.hxx</text>
</a>
</g>
</g>
<!-- Node2&#45;&gt;Node4 -->
<g id="edge3" class="edge"><title>Node2&#45;&gt;Node4</title>
<path fill="none" stroke="midnightblue" d="M358.1,-392.222C361.556,-383.285 366.533,-368.942 368.5,-356 373.952,-320.126 372.046,-277.575 370.23,-253.69"/>
<polygon fill="midnightblue" stroke="midnightblue" points="373.705,-253.246 369.378,-243.575 366.73,-253.833 373.705,-253.246"/>
</g>
<!-- Node21 -->
<g id="node21" class="node"><title>Node21</title>
<g id="a_node21"><a xlink:href="TextField_8hxx.html" target="_top" xlink:title="TextField.hxx">
<polygon fill="none" stroke="black" points="283.5,-336.5 283.5,-355.5 359.5,-355.5 359.5,-336.5 283.5,-336.5"/>
<text text-anchor="middle" x="321.5" y="-343.5" font-family="Helvetica,sans-Serif" font-size="10.00">TextField.hxx</text>
</a>
</g>
</g>
<!-- Node2&#45;&gt;Node21 -->
<g id="edge32" class="edge"><title>Node2&#45;&gt;Node21</title>
<path fill="none" stroke="midnightblue" d="M349.051,-392.083C344.486,-384.613 337.832,-373.724 332.207,-364.52"/>
<polygon fill="midnightblue" stroke="midnightblue" points="335.049,-362.459 326.848,-355.751 329.076,-366.109 335.049,-362.459"/>
</g>
<!-- Node5 -->
<g id="node5" class="node"><title>Node5</title>
<polygon fill="none" stroke="#bfbfbf" points="368.5,-0.5 368.5,-19.5 412.5,-19.5 412.5,-0.5 368.5,-0.5"/>
<text text-anchor="middle" x="390.5" y="-7.5" font-family="Helvetica,sans-Serif" font-size="10.00">string</text>
</g>
<!-- Node4&#45;&gt;Node5 -->
<g id="edge4" class="edge"><title>Node4&#45;&gt;Node5</title>
<path fill="none" stroke="midnightblue" d="M304.472,-225.852C252.096,-218.794 183.39,-206.375 162.5,-188 136.274,-164.932 123.009,-140.984 142.5,-112 191.386,-39.3058 302.675,-18.9059 358.012,-13.2014"/>
<polygon fill="midnightblue" stroke="midnightblue" points="358.665,-16.6559 368.298,-12.2453 358.017,-9.68595 358.665,-16.6559"/>
</g>
<!-- Node6 -->
<g id="node6" class="node"><title>Node6</title>
<g id="a_node6"><a xlink:href="mapEdit_8hxx.html" target="_top" xlink:title="../../basics/mapEdit.hxx">
<polygon fill="none" stroke="black" points="305,-168.5 305,-187.5 432,-187.5 432,-168.5 305,-168.5"/>
<text text-anchor="middle" x="368.5" y="-175.5" font-family="Helvetica,sans-Serif" font-size="10.00">../../basics/mapEdit.hxx</text>
</a>
</g>
</g>
<!-- Node4&#45;&gt;Node6 -->
<g id="edge5" class="edge"><title>Node4&#45;&gt;Node6</title>
<path fill="none" stroke="midnightblue" d="M368.5,-224.083C368.5,-217.006 368.5,-206.861 368.5,-197.986"/>
<polygon fill="midnightblue" stroke="midnightblue" points="372,-197.751 368.5,-187.751 365,-197.751 372,-197.751"/>
</g>
<!-- Node7 -->
<g id="node7" class="node"><title>Node7</title>
<g id="a_node7"><a xlink:href="ResourcesManager_8hxx.html" target="_top" xlink:title="../../ResourcesManager.hxx">
<polygon fill="none" stroke="black" points="599.5,-168.5 599.5,-187.5 743.5,-187.5 743.5,-168.5 599.5,-168.5"/>
<text text-anchor="middle" x="671.5" y="-175.5" font-family="Helvetica,sans-Serif" font-size="10.00">../../ResourcesManager.hxx</text>
</a>
</g>
</g>
<!-- Node4&#45;&gt;Node7 -->
<g id="edge7" class="edge"><title>Node4&#45;&gt;Node7</title>
<path fill="none" stroke="midnightblue" d="M416.511,-224.444C470.034,-214.905 556.565,-199.483 613.745,-189.293"/>
<polygon fill="midnightblue" stroke="midnightblue" points="614.483,-192.717 623.713,-187.516 613.254,-185.825 614.483,-192.717"/>
</g>
<!-- Node10 -->
<g id="node10" class="node"><title>Node10</title>
<polygon fill="none" stroke="#bfbfbf" points="852,-56.5 852,-75.5 897,-75.5 897,-56.5 852,-56.5"/>
<text text-anchor="middle" x="874.5" y="-63.5" font-family="Helvetica,sans-Serif" font-size="10.00">SDL.h</text>
</g>
<!-- Node4&#45;&gt;Node10 -->
<g id="edge31" class="edge"><title>Node4&#45;&gt;Node10</title>
<path fill="none" stroke="midnightblue" d="M432.569,-232.863C510.089,-231.036 643.737,-222.519 752.5,-188 802.165,-172.238 822.793,-172.562 855.5,-132 866.215,-118.712 870.887,-99.5894 872.925,-85.5241"/>
<polygon fill="midnightblue" stroke="midnightblue" points="876.408,-85.8675 874.059,-75.5364 869.453,-85.0776 876.408,-85.8675"/>
</g>
<!-- Node15 -->
<g id="node15" class="node"><title>Node15</title>
<g id="a_node15"><a xlink:href="WindowManager_8hxx.html" target="_top" xlink:title="../../WindowManager.hxx">
<polygon fill="none" stroke="black" points="450,-168.5 450,-187.5 581,-187.5 581,-168.5 450,-168.5"/>
<text text-anchor="middle" x="515.5" y="-175.5" font-family="Helvetica,sans-Serif" font-size="10.00">../../WindowManager.hxx</text>
</a>
</g>
</g>
<!-- Node4&#45;&gt;Node15 -->
<g id="edge19" class="edge"><title>Node4&#45;&gt;Node15</title>
<path fill="none" stroke="midnightblue" d="M391.793,-224.444C416.307,-215.438 455.096,-201.189 482.7,-191.049"/>
<polygon fill="midnightblue" stroke="midnightblue" points="484.137,-194.25 492.316,-187.516 481.723,-187.679 484.137,-194.25"/>
</g>
<!-- Node17 -->
<g id="node17" class="node"><title>Node17</title>
<g id="a_node17"><a xlink:href="signal_8hxx.html" target="_top" xlink:title="../../basics/signal.hxx">
<polygon fill="none" stroke="black" points="172,-168.5 172,-187.5 287,-187.5 287,-168.5 172,-168.5"/>
<text text-anchor="middle" x="229.5" y="-175.5" font-family="Helvetica,sans-Serif" font-size="10.00">../../basics/signal.hxx</text>
</a>
</g>
</g>
<!-- Node4&#45;&gt;Node17 -->
<g id="edge25" class="edge"><title>Node4&#45;&gt;Node17</title>
<path fill="none" stroke="midnightblue" d="M346.475,-224.444C323.396,-215.478 286.938,-201.314 260.859,-191.183"/>
<polygon fill="midnightblue" stroke="midnightblue" points="262.011,-187.875 251.422,-187.516 259.476,-194.4 262.011,-187.875"/>
</g>
<!-- Node6&#45;&gt;Node5 -->
<g id="edge6" class="edge"><title>Node6&#45;&gt;Node5</title>
<path fill="none" stroke="midnightblue" d="M369.683,-168.075C373.146,-141.945 383.315,-65.2106 388.038,-29.577"/>
<polygon fill="midnightblue" stroke="midnightblue" points="391.52,-29.9413 389.364,-19.5681 384.581,-29.0216 391.52,-29.9413"/>
</g>
<!-- Node8 -->
<g id="node8" class="node"><title>Node8</title>
<polygon fill="none" stroke="#bfbfbf" points="787,-112.5 787,-131.5 846,-131.5 846,-112.5 787,-112.5"/>
<text text-anchor="middle" x="816.5" y="-119.5" font-family="Helvetica,sans-Serif" font-size="10.00">iostream</text>
</g>
<!-- Node7&#45;&gt;Node8 -->
<g id="edge8" class="edge"><title>Node7&#45;&gt;Node8</title>
<path fill="none" stroke="midnightblue" d="M694.476,-168.444C718.657,-159.438 756.918,-145.189 784.146,-135.049"/>
<polygon fill="midnightblue" stroke="midnightblue" points="785.482,-138.286 793.632,-131.516 783.039,-131.727 785.482,-138.286"/>
</g>
<!-- Node9 -->
<g id="node9" class="node"><title>Node9</title>
<polygon fill="none" stroke="#bfbfbf" points="537,-56.5 537,-75.5 630,-75.5 630,-56.5 537,-56.5"/>
<text text-anchor="middle" x="583.5" y="-63.5" font-family="Helvetica,sans-Serif" font-size="10.00">unordered_map</text>
</g>
<!-- Node7&#45;&gt;Node9 -->
<g id="edge9" class="edge"><title>Node7&#45;&gt;Node9</title>
<path fill="none" stroke="midnightblue" d="M641.511,-168.478C623.341,-161.672 601.434,-150.196 589.5,-132 580.663,-118.526 579.792,-99.9672 580.763,-86.129"/>
<polygon fill="midnightblue" stroke="midnightblue" points="584.282,-86.1491 581.879,-75.8303 577.322,-85.3953 584.282,-86.1491"/>
</g>
<!-- Node7&#45;&gt;Node10 -->
<g id="edge10" class="edge"><title>Node7&#45;&gt;Node10</title>
<path fill="none" stroke="midnightblue" d="M684.597,-168.287C704.335,-155.313 743.066,-130.465 777.5,-112 799.613,-100.142 825.416,-88.261 844.848,-79.6871"/>
<polygon fill="midnightblue" stroke="midnightblue" points="846.343,-82.8536 854.103,-75.6406 843.538,-76.4398 846.343,-82.8536"/>
</g>
<!-- Node11 -->
<g id="node11" class="node"><title>Node11</title>
<g id="a_node11"><a xlink:href="TileManager_8hxx.html" target="_top" xlink:title="TileManager.hxx">
<polygon fill="none" stroke="black" points="599,-112.5 599,-131.5 692,-131.5 692,-112.5 599,-112.5"/>
<text text-anchor="middle" x="645.5" y="-119.5" font-family="Helvetica,sans-Serif" font-size="10.00">TileManager.hxx</text>
</a>
</g>
</g>
<!-- Node7&#45;&gt;Node11 -->
<g id="edge11" class="edge"><title>Node7&#45;&gt;Node11</title>
<path fill="none" stroke="midnightblue" d="M667.207,-168.083C663.648,-160.691 658.478,-149.953 654.076,-140.811"/>
<polygon fill="midnightblue" stroke="midnightblue" points="657.205,-139.243 649.713,-131.751 650.898,-142.279 657.205,-139.243"/>
</g>
<!-- Node11&#45;&gt;Node5 -->
<g id="edge14" class="edge"><title>Node11&#45;&gt;Node5</title>
<path fill="none" stroke="midnightblue" d="M692.35,-114.074C734.191,-106.818 790.916,-93.9622 804.5,-76 809.862,-68.9102 810.436,-62.6163 804.5,-56 779.102,-27.6913 515.758,-15.5172 422.785,-12.0795"/>
<polygon fill="midnightblue" stroke="midnightblue" points="422.688,-8.57377 412.568,-11.7117 422.436,-15.5692 422.688,-8.57377"/>
</g>
<!-- Node11&#45;&gt;Node9 -->
<g id="edge13" class="edge"><title>Node11&#45;&gt;Node9</title>
<path fill="none" stroke="midnightblue" d="M635.539,-112.324C626.373,-104.341 612.563,-92.3128 601.472,-82.6529"/>
<polygon fill="midnightblue" stroke="midnightblue" points="603.482,-79.7624 593.643,-75.8339 598.885,-85.041 603.482,-79.7624"/>
</g>
<!-- Node11&#45;&gt;Node10 -->
<g id="edge12" class="edge"><title>Node11&#45;&gt;Node10</title>
<path fill="none" stroke="midnightblue" d="M682.329,-112.465C720.996,-103.481 783.554,-88.8827 837.5,-76 838.947,-75.6545 840.425,-75.3002 841.918,-74.9414"/>
<polygon fill="midnightblue" stroke="midnightblue" points="842.911,-78.3023 851.809,-72.5513 841.267,-71.4981 842.911,-78.3023"/>
</g>
<!-- Node12 -->
<g id="node12" class="node"><title>Node12</title>
<g id="a_node12"><a xlink:href="tileData_8hxx.html" target="_top" xlink:title="tileData.hxx">
<polygon fill="none" stroke="black" points="721.5,-56.5 721.5,-75.5 795.5,-75.5 795.5,-56.5 721.5,-56.5"/>
<text text-anchor="middle" x="758.5" y="-63.5" font-family="Helvetica,sans-Serif" font-size="10.00">tileData.hxx</text>
</a>
</g>
</g>
<!-- Node11&#45;&gt;Node12 -->
<g id="edge15" class="edge"><title>Node11&#45;&gt;Node12</title>
<path fill="none" stroke="midnightblue" d="M663.405,-112.444C681.754,-103.675 710.505,-89.9355 731.594,-79.8579"/>
<polygon fill="midnightblue" stroke="midnightblue" points="733.165,-82.9862 740.679,-75.5164 730.147,-76.6703 733.165,-82.9862"/>
</g>
<!-- Node13 -->
<g id="node13" class="node"><title>Node13</title>
<polygon fill="none" stroke="#bfbfbf" points="647.5,-56.5 647.5,-75.5 703.5,-75.5 703.5,-56.5 647.5,-56.5"/>
<text text-anchor="middle" x="675.5" y="-63.5" font-family="Helvetica,sans-Serif" font-size="10.00">json.hxx</text>
</g>
<!-- Node11&#45;&gt;Node13 -->
<g id="edge17" class="edge"><title>Node11&#45;&gt;Node13</title>
<path fill="none" stroke="midnightblue" d="M650.454,-112.083C654.604,-104.613 660.653,-93.7244 665.767,-84.5199"/>
<polygon fill="midnightblue" stroke="midnightblue" points="668.841,-86.1924 670.638,-75.7511 662.722,-82.7929 668.841,-86.1924"/>
</g>
<!-- Node14 -->
<g id="node14" class="node"><title>Node14</title>
<g id="a_node14"><a xlink:href="Singleton_8hxx.html" target="_top" xlink:title="Singleton.hxx">
<polygon fill="none" stroke="black" points="438,-56.5 438,-75.5 519,-75.5 519,-56.5 438,-56.5"/>
<text text-anchor="middle" x="478.5" y="-63.5" font-family="Helvetica,sans-Serif" font-size="10.00">Singleton.hxx</text>
</a>
</g>
</g>
<!-- Node11&#45;&gt;Node14 -->
<g id="edge18" class="edge"><title>Node11&#45;&gt;Node14</title>
<path fill="none" stroke="midnightblue" d="M619.038,-112.444C590.822,-103.32 545.96,-88.8133 514.532,-78.6509"/>
<polygon fill="midnightblue" stroke="midnightblue" points="515.43,-75.263 504.838,-75.5164 513.276,-81.9234 515.43,-75.263"/>
</g>
<!-- Node12&#45;&gt;Node5 -->
<g id="edge16" class="edge"><title>Node12&#45;&gt;Node5</title>
<path fill="none" stroke="midnightblue" d="M721.374,-57.5566C718.376,-57.0101 715.389,-56.4842 712.5,-56 606.898,-38.3038 480.997,-22.125 422.862,-14.9313"/>
<polygon fill="midnightblue" stroke="midnightblue" points="423.168,-11.4427 412.816,-13.6943 422.313,-18.3902 423.168,-11.4427"/>
</g>
<!-- Node15&#45;&gt;Node5 -->
<g id="edge20" class="edge"><title>Node15&#45;&gt;Node5</title>
<path fill="none" stroke="midnightblue" d="M507.002,-168.265C490.723,-151.298 454.454,-112.352 428.5,-76 417.605,-60.7406 406.989,-42.1749 399.76,-28.7985"/>
<polygon fill="midnightblue" stroke="midnightblue" points="402.723,-26.9146 394.944,-19.7217 396.54,-30.1957 402.723,-26.9146"/>
</g>
<!-- Node15&#45;&gt;Node8 -->
<g id="edge21" class="edge"><title>Node15&#45;&gt;Node8</title>
<path fill="none" stroke="midnightblue" d="M563.194,-168.444C622.217,-157.855 721.648,-140.017 776.743,-130.132"/>
<polygon fill="midnightblue" stroke="midnightblue" points="777.596,-133.535 786.821,-128.325 776.36,-126.645 777.596,-133.535"/>
</g>
<!-- Node15&#45;&gt;Node10 -->
<g id="edge23" class="edge"><title>Node15&#45;&gt;Node10</title>
<path fill="none" stroke="midnightblue" d="M562.697,-168.441C600.578,-160.879 654.793,-148.489 700.5,-132 719.572,-125.12 722.748,-119.709 741.5,-112 775.085,-98.1926 814.62,-85.2167 841.807,-76.78"/>
<polygon fill="midnightblue" stroke="midnightblue" points="843.053,-80.0588 851.584,-73.7765 840.997,-73.3674 843.053,-80.0588"/>
</g>
<!-- Node15&#45;&gt;Node14 -->
<g id="edge24" class="edge"><title>Node15&#45;&gt;Node14</title>
<path fill="none" stroke="midnightblue" d="M512.597,-168.368C506.599,-150.537 492.727,-109.295 484.646,-85.2717"/>
<polygon fill="midnightblue" stroke="midnightblue" points="487.895,-83.9537 481.39,-75.5914 481.261,-86.1855 487.895,-83.9537"/>
</g>
<!-- Node16 -->
<g id="node16" class="node"><title>Node16</title>
<polygon fill="none" stroke="#bfbfbf" points="400,-112.5 400,-131.5 447,-131.5 447,-112.5 400,-112.5"/>
<text text-anchor="middle" x="423.5" y="-119.5" font-family="Helvetica,sans-Serif" font-size="10.00">vector</text>
</g>
<!-- Node15&#45;&gt;Node16 -->
<g id="edge22" class="edge"><title>Node15&#45;&gt;Node16</title>
<path fill="none" stroke="midnightblue" d="M500.719,-168.324C486.233,-159.822 463.927,-146.729 447.007,-136.797"/>
<polygon fill="midnightblue" stroke="midnightblue" points="448.641,-133.698 438.245,-131.655 445.097,-139.735 448.641,-133.698"/>
</g>
<!-- Node17&#45;&gt;Node3 -->
<g id="edge26" class="edge"><title>Node17&#45;&gt;Node3</title>
<path fill="none" stroke="midnightblue" d="M197.651,-168.444C162.187,-158.916 104.876,-143.519 66.9445,-133.328"/>
<polygon fill="midnightblue" stroke="midnightblue" points="67.8349,-129.944 57.2692,-130.729 66.0186,-136.704 67.8349,-129.944"/>
</g>
<!-- Node17&#45;&gt;Node16 -->
<g id="edge29" class="edge"><title>Node17&#45;&gt;Node16</title>
<path fill="none" stroke="midnightblue" d="M260.24,-168.444C295.69,-158.576 353.758,-142.413 390.241,-132.258"/>
<polygon fill="midnightblue" stroke="midnightblue" points="391.226,-135.617 399.922,-129.563 389.349,-128.873 391.226,-135.617"/>
</g>
<!-- Node18 -->
<g id="node18" class="node"><title>Node18</title>
<polygon fill="none" stroke="#bfbfbf" points="280,-112.5 280,-131.5 343,-131.5 343,-112.5 280,-112.5"/>
<text text-anchor="middle" x="311.5" y="-119.5" font-family="Helvetica,sans-Serif" font-size="10.00">functional</text>
</g>
<!-- Node17&#45;&gt;Node18 -->
<g id="edge27" class="edge"><title>Node17&#45;&gt;Node18</title>
<path fill="none" stroke="midnightblue" d="M242.675,-168.324C255.347,-159.979 274.733,-147.212 289.706,-137.352"/>
<polygon fill="midnightblue" stroke="midnightblue" points="291.931,-140.078 298.358,-131.655 288.081,-134.231 291.931,-140.078"/>
</g>
<!-- Node19 -->
<g id="node19" class="node"><title>Node19</title>
<polygon fill="none" stroke="#bfbfbf" points="151.5,-112.5 151.5,-131.5 181.5,-131.5 181.5,-112.5 151.5,-112.5"/>
<text text-anchor="middle" x="166.5" y="-119.5" font-family="Helvetica,sans-Serif" font-size="10.00">list</text>
</g>
<!-- Node17&#45;&gt;Node19 -->
<g id="edge28" class="edge"><title>Node17&#45;&gt;Node19</title>
<path fill="none" stroke="midnightblue" d="M219.378,-168.324C209.974,-160.263 195.756,-148.077 184.431,-138.369"/>
<polygon fill="midnightblue" stroke="midnightblue" points="186.677,-135.684 176.806,-131.834 182.121,-140.999 186.677,-135.684"/>
</g>
<!-- Node20 -->
<g id="node20" class="node"><title>Node20</title>
<polygon fill="none" stroke="#bfbfbf" points="199.5,-112.5 199.5,-131.5 261.5,-131.5 261.5,-112.5 199.5,-112.5"/>
<text text-anchor="middle" x="230.5" y="-119.5" font-family="Helvetica,sans-Serif" font-size="10.00">algorithm</text>
</g>
<!-- Node17&#45;&gt;Node20 -->
<g id="edge30" class="edge"><title>Node17&#45;&gt;Node20</title>
<path fill="none" stroke="midnightblue" d="M229.665,-168.083C229.796,-161.006 229.984,-150.861 230.148,-141.986"/>
<polygon fill="midnightblue" stroke="midnightblue" points="233.652,-141.814 230.338,-131.751 226.653,-141.685 233.652,-141.814"/>
</g>
<!-- Node21&#45;&gt;Node4 -->
<g id="edge33" class="edge"><title>Node21&#45;&gt;Node4</title>
<path fill="none" stroke="midnightblue" d="M325.188,-336.368C332.841,-318.456 350.587,-276.923 360.831,-252.948"/>
<polygon fill="midnightblue" stroke="midnightblue" points="364.118,-254.162 364.829,-243.591 357.681,-251.412 364.118,-254.162"/>
</g>
<!-- Node22 -->
<g id="node22" class="node"><title>Node22</title>
<g id="a_node22"><a xlink:href="Text_8hxx.html" target="_top" xlink:title="Text.hxx">
<polygon fill="none" stroke="black" points="266,-280.5 266,-299.5 321,-299.5 321,-280.5 266,-280.5"/>
<text text-anchor="middle" x="293.5" y="-287.5" font-family="Helvetica,sans-Serif" font-size="10.00">Text.hxx</text>
</a>
</g>
</g>
<!-- Node21&#45;&gt;Node22 -->
<g id="edge34" class="edge"><title>Node21&#45;&gt;Node22</title>
<path fill="none" stroke="midnightblue" d="M316.876,-336.083C313.044,-328.691 307.476,-317.953 302.735,-308.811"/>
<polygon fill="midnightblue" stroke="midnightblue" points="305.748,-307.018 298.038,-299.751 299.534,-310.24 305.748,-307.018"/>
</g>
<!-- Node22&#45;&gt;Node4 -->
<g id="edge36" class="edge"><title>Node22&#45;&gt;Node4</title>
<path fill="none" stroke="midnightblue" d="M305.55,-280.324C316.963,-272.107 334.331,-259.602 347.935,-249.807"/>
<polygon fill="midnightblue" stroke="midnightblue" points="350.16,-252.517 356.231,-243.834 346.07,-246.837 350.16,-252.517"/>
</g>
<!-- Node22&#45;&gt;Node5 -->
<g id="edge35" class="edge"><title>Node22&#45;&gt;Node5</title>
<path fill="none" stroke="midnightblue" d="M265.879,-287.032C209.299,-281.343 85.5,-259.679 85.5,-179 85.5,-179 85.5,-179 85.5,-121 85.5,-72.0183 129.737,-75.8876 174.5,-56 236.106,-28.6289 315.09,-17.6238 358.444,-13.4184"/>
<polygon fill="midnightblue" stroke="midnightblue" points="358.77,-16.9033 368.412,-12.5115 358.136,-9.93211 358.77,-16.9033"/>
</g>
<!-- Node23&#45;&gt;Node8 -->
<g id="edge38" class="edge"><title>Node23&#45;&gt;Node8</title>
<path fill="none" stroke="midnightblue" d="M941.891,-168.444C917.042,-159.438 877.726,-145.189 849.746,-135.049"/>
<polygon fill="midnightblue" stroke="midnightblue" points="850.593,-131.633 839.999,-131.516 848.208,-138.214 850.593,-131.633"/>
</g>
<!-- Node23&#45;&gt;Node10 -->
<g id="edge43" class="edge"><title>Node23&#45;&gt;Node10</title>
<path fill="none" stroke="midnightblue" d="M958.359,-168.368C943.209,-150.055 907.631,-107.049 888.036,-83.3624"/>
<polygon fill="midnightblue" stroke="midnightblue" points="890.679,-81.0656 881.607,-75.5914 885.285,-85.5276 890.679,-81.0656"/>
</g>
<!-- Node24 -->
<g id="node24" class="node"><title>Node24</title>
<polygon fill="none" stroke="#bfbfbf" points="940.5,-112.5 940.5,-131.5 990.5,-131.5 990.5,-112.5 940.5,-112.5"/>
<text text-anchor="middle" x="965.5" y="-119.5" font-family="Helvetica,sans-Serif" font-size="10.00">chrono</text>
</g>
<!-- Node23&#45;&gt;Node24 -->
<g id="edge39" class="edge"><title>Node23&#45;&gt;Node24</title>
<path fill="none" stroke="midnightblue" d="M965.5,-168.083C965.5,-161.006 965.5,-150.861 965.5,-141.986"/>
<polygon fill="midnightblue" stroke="midnightblue" points="969,-141.751 965.5,-131.751 962,-141.751 969,-141.751"/>
</g>
<!-- Node25 -->
<g id="node25" class="node"><title>Node25</title>
<polygon fill="none" stroke="#bfbfbf" points="1008.5,-112.5 1008.5,-131.5 1052.5,-131.5 1052.5,-112.5 1008.5,-112.5"/>
<text text-anchor="middle" x="1030.5" y="-119.5" font-family="Helvetica,sans-Serif" font-size="10.00">ctime</text>
</g>
<!-- Node23&#45;&gt;Node25 -->
<g id="edge40" class="edge"><title>Node23&#45;&gt;Node25</title>
<path fill="none" stroke="midnightblue" d="M975.943,-168.324C985.646,-160.263 1000.32,-148.077 1012,-138.369"/>
<polygon fill="midnightblue" stroke="midnightblue" points="1014.41,-140.916 1019.87,-131.834 1009.94,-135.532 1014.41,-140.916"/>
</g>
<!-- Node26 -->
<g id="node26" class="node"><title>Node26</title>
<polygon fill="none" stroke="#bfbfbf" points="1070.5,-112.5 1070.5,-131.5 1124.5,-131.5 1124.5,-112.5 1070.5,-112.5"/>
<text text-anchor="middle" x="1097.5" y="-119.5" font-family="Helvetica,sans-Serif" font-size="10.00">fstream</text>
</g>
<!-- Node23&#45;&gt;Node26 -->
<g id="edge41" class="edge"><title>Node23&#45;&gt;Node26</title>
<path fill="none" stroke="midnightblue" d="M986.416,-168.444C1008.24,-159.517 1042.65,-145.439 1067.39,-135.317"/>
<polygon fill="midnightblue" stroke="midnightblue" points="1068.75,-138.542 1076.68,-131.516 1066.1,-132.063 1068.75,-138.542"/>
</g>
<!-- Node27 -->
<g id="node27" class="node"><title>Node27</title>
<polygon fill="none" stroke="#bfbfbf" points="1142.5,-112.5 1142.5,-131.5 1198.5,-131.5 1198.5,-112.5 1142.5,-112.5"/>
<text text-anchor="middle" x="1170.5" y="-119.5" font-family="Helvetica,sans-Serif" font-size="10.00">sstream</text>
</g>
<!-- Node23&#45;&gt;Node27 -->
<g id="edge42" class="edge"><title>Node23&#45;&gt;Node27</title>
<path fill="none" stroke="midnightblue" d="M997.983,-168.444C1034.57,-158.807 1093.95,-143.165 1132.61,-132.98"/>
<polygon fill="midnightblue" stroke="midnightblue" points="1133.67,-136.32 1142.45,-130.388 1131.89,-129.551 1133.67,-136.32"/>
</g>
</g>
</svg>
        <g id="navigator" transform="translate(0 0)" fill="#404254">
                <rect fill="#f2f5e9" fill-opacity="0.5" stroke="#606060" stroke-width=".5" x="0" y="0" width="60" height="60"/>
                <use id="zoomplus" xlink:href="#zoomPlus" x="17" y="9" onmousedown="handleZoom(evt,'in')"/>
                <use id="zoomminus" xlink:href="#zoomMin" x="42" y="9" onmousedown="handleZoom(evt,'out')"/>
                <use id="reset" xlink:href="#resetDef" x="30" y="36" onmousedown="handleReset()"/>
                <g id="arrowUp" xlink:href="#dirArrow" transform="translate(30 24)" onmousedown="handlePan(0,-1)">
                  <use xlink:href="#rim" fill="#404040">
                        <set attributeName="fill" to="#808080" begin="arrowUp.mouseover" end="arrowUp.mouseout"/>
                  </use>
                  <path fill="none" stroke="white" stroke-width="1.5" d="M0,-3.0v7 M-2.5,-0.5L0,-3.0L2.5,-0.5"/>
                </g>
                <g id="arrowRight" xlink:href="#dirArrow" transform="rotate(90) translate(36 -43)" onmousedown="handlePan(1,0)">
                  <use xlink:href="#rim" fill="#404040">
                        <set attributeName="fill" to="#808080" begin="arrowRight.mouseover" end="arrowRight.mouseout"/>
                  </use>
                  <path fill="none" stroke="white" stroke-width="1.5" d="M0,-3.0v7 M-2.5,-0.5L0,-3.0L2.5,-0.5"/>
                </g>
                <g id="arrowDown" xlink:href="#dirArrow" transform="rotate(180) translate(-30 -48)" onmousedown="handlePan(0,1)">
                  <use xlink:href="#rim" fill="#404040">
                        <set attributeName="fill" to="#808080" begin="arrowDown.mouseover" end="arrowDown.mouseout"/>
                  </use>
                  <path fill="none" stroke="white" stroke-width="1.5" d="M0,-3.0v7 M-2.5,-0.5L0,-3.0L2.5,-0.5"/>
                </g>
                <g id="arrowLeft" xlink:href="#dirArrow" transform="rotate(270) translate(-36 17)" onmousedown="handlePan(-1,0)">
                  <use xlink:href="#rim" fill="#404040">
                        <set attributeName="fill" to="#808080" begin="arrowLeft.mouseover" end="arrowLeft.mouseout"/>
                  </use>
                  <path fill="none" stroke="white" stroke-width="1.5" d="M0,-3.0v7 M-2.5,-0.5L0,-3.0L2.5,-0.5"/>
                </g>
        </g>
        <svg viewBox="0 0 15 15" width="100%" height="30px" preserveAspectRatio="xMaxYMin meet">
         <g id="arrow_out" transform="scale(0.3 0.3)">
          <a xlink:href="Combobox_8cxx__incl_org.svg" target="_base">
           <rect id="button" ry="5" rx="5" y="6" x="6" height="38" width="38"
                fill="#f2f5e9" fill-opacity="0.5" stroke="#606060" stroke-width="1.0"/>
           <path id="arrow"
             d="M 11.500037,31.436501 C 11.940474,20.09759 22.043105,11.32322 32.158766,21.979434 L 37.068811,17.246167 C 37.068811,17.246167 37.088388,32 37.088388,32 L 22.160133,31.978069 C 22.160133,31.978069 26.997745,27.140456 26.997745,27.140456 C 18.528582,18.264221 13.291696,25.230495 11.500037,31.436501 z"
             style="fill:#404040;"/>
          </a>
         </g>
        </svg>
</svg>
