<?xml version="1.0" encoding="UTF-8" standalone="no"?>
<!DOCTYPE svg PUBLIC "-//W3C//DTD SVG 1.1//EN"
 "http://www.w3.org/Graphics/SVG/1.1/DTD/svg11.dtd">
<!-- Generated by graphviz version 2.38.0 (20140413.2041)
 -->
<!-- Title: src/engine/ui/widgets/Combobox.hxx Pages: 1 -->
<svg width="804pt" height="229pt"
 viewBox="0.00 0.00 804.00 229.00" xmlns="http://www.w3.org/2000/svg" xmlns:xlink="http://www.w3.org/1999/xlink">
<g id="graph0" class="graph" transform="scale(1 1) rotate(0) translate(4 225)">
<title>src/engine/ui/widgets/Combobox.hxx</title>
<!-- Node1 -->
<g id="node1" class="node"><title>Node1</title>
<polygon fill="#bfbfbf" stroke="black" points="470.5,-190.5 470.5,-220.5 586.5,-220.5 586.5,-190.5 470.5,-190.5"/>
<text text-anchor="start" x="478.5" y="-208.5" font-family="Helvetica,sans-Serif" font-size="10.00">src/engine/ui/widgets</text>
<text text-anchor="middle" x="528.5" y="-197.5" font-family="Helvetica,sans-Serif" font-size="10.00">/Combobox.hxx</text>
</g>
<!-- Node2 -->
<g id="node2" class="node"><title>Node2</title>
<g id="a_node2"><a xlink:href="UIManager_8hxx.html" target="_top" xlink:title="src/engine/UIManager.hxx">
<polygon fill="none" stroke="black" points="385.5,-129 385.5,-148 525.5,-148 525.5,-129 385.5,-129"/>
<text text-anchor="middle" x="455.5" y="-136" font-family="Helvetica,sans-Serif" font-size="10.00">src/engine/UIManager.hxx</text>
</a>
</g>
</g>
<!-- Node1&#45;&gt;Node2 -->
<g id="edge1" class="edge"><title>Node1&#45;&gt;Node2</title>
<path fill="none" stroke="midnightblue" d="M505.109,-183.672C491.63,-171.671 475.401,-157.22 465.265,-148.195"/>
<polygon fill="midnightblue" stroke="midnightblue" points="502.864,-186.36 512.66,-190.396 507.519,-181.132 502.864,-186.36"/>
</g>
<!-- Node10 -->
<g id="node10" class="node"><title>Node10</title>
<g id="a_node10"><a xlink:href="Combobox_8cxx.html" target="_top" xlink:title="src/engine/ui/widgets\l/Combobox.cxx">
<polygon fill="none" stroke="black" points="543.5,-123.5 543.5,-153.5 659.5,-153.5 659.5,-123.5 543.5,-123.5"/>
<text text-anchor="start" x="551.5" y="-141.5" font-family="Helvetica,sans-Serif" font-size="10.00">src/engine/ui/widgets</text>
<text text-anchor="middle" x="601.5" y="-130.5" font-family="Helvetica,sans-Serif" font-size="10.00">/Combobox.cxx</text>
</a>
</g>
</g>
<!-- Node1&#45;&gt;Node10 -->
<g id="edge10" class="edge"><title>Node1&#45;&gt;Node10</title>
<path fill="none" stroke="midnightblue" d="M551.975,-183.598C562.997,-173.783 575.844,-162.344 585.691,-153.577"/>
<polygon fill="midnightblue" stroke="midnightblue" points="549.481,-181.132 544.34,-190.396 554.136,-186.36 549.481,-181.132"/>
</g>
<!-- Node3 -->
<g id="node3" class="node"><title>Node3</title>
<g id="a_node3"><a xlink:href="EventManager_8hxx.html" target="_top" xlink:title="src/engine/EventManager.hxx">
<polygon fill="none" stroke="black" points="172,-62 172,-81 329,-81 329,-62 172,-62"/>
<text text-anchor="middle" x="250.5" y="-69" font-family="Helvetica,sans-Serif" font-size="10.00">src/engine/EventManager.hxx</text>
</a>
</g>
</g>
<!-- Node2&#45;&gt;Node3 -->
<g id="edge2" class="edge"><title>Node2&#45;&gt;Node3</title>
<path fill="none" stroke="midnightblue" d="M418.491,-125.765C377.872,-112.886 313.644,-92.5214 277.508,-81.0637"/>
<polygon fill="midnightblue" stroke="midnightblue" points="417.687,-129.182 428.278,-128.869 419.803,-122.51 417.687,-129.182"/>
</g>
<!-- Node6 -->
<g id="node6" class="node"><title>Node6</title>
<g id="a_node6"><a xlink:href="Game_8cxx.html" target="_top" xlink:title="src/Game.cxx">
<polygon fill="none" stroke="black" points="339.5,-0.5 339.5,-19.5 421.5,-19.5 421.5,-0.5 339.5,-0.5"/>
<text text-anchor="middle" x="380.5" y="-7.5" font-family="Helvetica,sans-Serif" font-size="10.00">src/Game.cxx</text>
</a>
</g>
</g>
<!-- Node2&#45;&gt;Node6 -->
<g id="edge9" class="edge"><title>Node2&#45;&gt;Node6</title>
<path fill="none" stroke="midnightblue" d="M430.015,-123.845C416.34,-115.149 400.493,-102.588 391.5,-87 378.976,-65.2895 378.914,-34.479 379.765,-19.6427"/>
<polygon fill="midnightblue" stroke="midnightblue" points="428.219,-126.849 438.594,-128.994 431.821,-120.847 428.219,-126.849"/>
</g>
<!-- Node7 -->
<g id="node7" class="node"><title>Node7</title>
<g id="a_node7"><a xlink:href="ButtonGroup_8cxx.html" target="_top" xlink:title="src/engine/ui/basics\l/ButtonGroup.cxx">
<polygon fill="none" stroke="black" points="400.5,-56.5 400.5,-86.5 510.5,-86.5 510.5,-56.5 400.5,-56.5"/>
<text text-anchor="start" x="408.5" y="-74.5" font-family="Helvetica,sans-Serif" font-size="10.00">src/engine/ui/basics</text>
<text text-anchor="middle" x="455.5" y="-63.5" font-family="Helvetica,sans-Serif" font-size="10.00">/ButtonGroup.cxx</text>
</a>
</g>
</g>
<!-- Node2&#45;&gt;Node7 -->
<g id="edge6" class="edge"><title>Node2&#45;&gt;Node7</title>
<path fill="none" stroke="midnightblue" d="M455.5,-118.411C455.5,-108.222 455.5,-95.901 455.5,-86.589"/>
<polygon fill="midnightblue" stroke="midnightblue" points="452,-118.734 455.5,-128.734 459,-118.734 452,-118.734"/>
</g>
<!-- Node8 -->
<g id="node8" class="node"><title>Node8</title>
<g id="a_node8"><a xlink:href="Layout_8cxx.html" target="_top" xlink:title="src/engine/ui/basics\l/Layout.cxx">
<polygon fill="none" stroke="black" points="528.5,-56.5 528.5,-86.5 638.5,-86.5 638.5,-56.5 528.5,-56.5"/>
<text text-anchor="start" x="536.5" y="-74.5" font-family="Helvetica,sans-Serif" font-size="10.00">src/engine/ui/basics</text>
<text text-anchor="middle" x="583.5" y="-63.5" font-family="Helvetica,sans-Serif" font-size="10.00">/Layout.cxx</text>
</a>
</g>
</g>
<!-- Node2&#45;&gt;Node8 -->
<g id="edge7" class="edge"><title>Node2&#45;&gt;Node8</title>
<path fill="none" stroke="midnightblue" d="M481.702,-124.194C503.233,-113.261 533.658,-97.8102 555.632,-86.6516"/>
<polygon fill="midnightblue" stroke="midnightblue" points="479.829,-121.22 472.497,-128.869 482.998,-127.461 479.829,-121.22"/>
</g>
<!-- Node9 -->
<g id="node9" class="node"><title>Node9</title>
<g id="a_node9"><a xlink:href="UIManager_8cxx.html" target="_top" xlink:title="src/engine/UIManager.cxx">
<polygon fill="none" stroke="black" points="657,-62 657,-81 796,-81 796,-62 657,-62"/>
<text text-anchor="middle" x="726.5" y="-69" font-family="Helvetica,sans-Serif" font-size="10.00">src/engine/UIManager.cxx</text>
</a>
</g>
</g>
<!-- Node2&#45;&gt;Node9 -->
<g id="edge8" class="edge"><title>Node2&#45;&gt;Node9</title>
<path fill="none" stroke="midnightblue" d="M501.094,-126.564C554.52,-113.75 641.928,-92.7848 690.714,-81.0834"/>
<polygon fill="midnightblue" stroke="midnightblue" points="500.115,-123.2 491.207,-128.936 501.748,-130.007 500.115,-123.2"/>
</g>
<!-- Node4 -->
<g id="node4" class="node"><title>Node4</title>
<g id="a_node4"><a xlink:href="Timer_8cxx.html" target="_top" xlink:title="src/engine/basics/Timer.cxx">
<polygon fill="none" stroke="black" points="0,-0.5 0,-19.5 147,-19.5 147,-0.5 0,-0.5"/>
<text text-anchor="middle" x="73.5" y="-7.5" font-family="Helvetica,sans-Serif" font-size="10.00">src/engine/basics/Timer.cxx</text>
</a>
</g>
</g>
<!-- Node3&#45;&gt;Node4 -->
<g id="edge3" class="edge"><title>Node3&#45;&gt;Node4</title>
<path fill="none" stroke="midnightblue" d="M215.493,-58.732C181.086,-47.166 129.416,-29.7966 98.8127,-19.5091"/>
<polygon fill="midnightblue" stroke="midnightblue" points="214.546,-62.1062 225.14,-61.9751 216.777,-55.4711 214.546,-62.1062"/>
</g>
<!-- Node5 -->
<g id="node5" class="node"><title>Node5</title>
<g id="a_node5"><a xlink:href="EventManager_8cxx.html" target="_top" xlink:title="src/engine/EventManager.cxx">
<polygon fill="none" stroke="black" points="165.5,-0.5 165.5,-19.5 321.5,-19.5 321.5,-0.5 165.5,-0.5"/>
<text text-anchor="middle" x="243.5" y="-7.5" font-family="Helvetica,sans-Serif" font-size="10.00">src/engine/EventManager.cxx</text>
</a>
</g>
</g>
<!-- Node3&#45;&gt;Node5 -->
<g id="edge4" class="edge"><title>Node3&#45;&gt;Node5</title>
<path fill="none" stroke="midnightblue" d="M248.302,-51.8165C247.029,-40.9962 245.488,-27.898 244.501,-19.5091"/>
<polygon fill="midnightblue" stroke="midnightblue" points="244.853,-52.4526 249.497,-61.9751 251.805,-51.6346 244.853,-52.4526"/>
</g>
<!-- Node3&#45;&gt;Node6 -->
<g id="edge5" class="edge"><title>Node3&#45;&gt;Node6</title>
<path fill="none" stroke="midnightblue" d="M278.523,-57.6742C303.748,-46.1287 340.107,-29.4875 361.909,-19.5091"/>
<polygon fill="midnightblue" stroke="midnightblue" points="276.762,-54.6308 269.126,-61.9751 279.675,-60.9958 276.762,-54.6308"/>
</g>
</g>
</svg>
