<?xml version="1.0" encoding="UTF-8" standalone="no"?>
<!DOCTYPE svg PUBLIC "-//W3C//DTD SVG 1.1//EN"
 "http://www.w3.org/Graphics/SVG/1.1/DTD/svg11.dtd">
<!-- Generated by graphviz version 2.38.0 (20140413.2041)
 -->
<!-- Title: decompressString Pages: 1 -->
<svg width="1255pt" height="104pt"
 viewBox="0.00 0.00 1255.00 104.00" xmlns="http://www.w3.org/2000/svg" xmlns:xlink="http://www.w3.org/1999/xlink">
<g id="graph0" class="graph" transform="scale(1 1) rotate(0) translate(4 100)">
<title>decompressString</title>
<!-- Node1 -->
<g id="node1" class="node"><title>Node1</title>
<polygon fill="#bfbfbf" stroke="black" points="0,-38.5 0,-57.5 104,-57.5 104,-38.5 0,-38.5"/>
<text text-anchor="middle" x="52" y="-45.5" font-family="Helvetica,sans-Serif" font-size="10.00">decompressString</text>
</g>
<!-- Node2 -->
<g id="node2" class="node"><title>Node2</title>
<g id="a_node2"><a xlink:href="classMap.html#afefe996cc1f62b61ec60d0ae415953bf" target="_top" xlink:title="Map::loadMapFromFile">
<polygon fill="none" stroke="black" points="140,-38.5 140,-57.5 262,-57.5 262,-38.5 140,-38.5"/>
<text text-anchor="middle" x="201" y="-45.5" font-family="Helvetica,sans-Serif" font-size="10.00">Map::loadMapFromFile</text>
</a>
</g>
</g>
<!-- Node1&#45;&gt;Node2 -->
<g id="edge1" class="edge"><title>Node1&#45;&gt;Node2</title>
<path fill="none" stroke="midnightblue" d="M114.244,-48C122.76,-48 131.501,-48 139.994,-48"/>
<polygon fill="midnightblue" stroke="midnightblue" points="114.001,-44.5001 104.001,-48 114.001,-51.5001 114.001,-44.5001"/>
</g>
<!-- Node3 -->
<g id="node3" class="node"><title>Node3</title>
<g id="a_node3"><a xlink:href="classEngine.html#a83b7dbeee899b36a13d5b07c7ad87ebc" target="_top" xlink:title="Loads a saved game Loads a saved Game. ">
<polygon fill="none" stroke="black" points="298,-38.5 298,-57.5 402,-57.5 402,-38.5 298,-38.5"/>
<text text-anchor="middle" x="350" y="-45.5" font-family="Helvetica,sans-Serif" font-size="10.00">Engine::loadGame</text>
</a>
</g>
</g>
<!-- Node2&#45;&gt;Node3 -->
<g id="edge2" class="edge"><title>Node2&#45;&gt;Node3</title>
<path fill="none" stroke="midnightblue" d="M272.478,-48C280.938,-48 289.452,-48 297.57,-48"/>
<polygon fill="midnightblue" stroke="midnightblue" points="272.215,-44.5001 262.215,-48 272.215,-51.5001 272.215,-44.5001"/>
</g>
<!-- Node4 -->
<g id="node4" class="node"><title>Node4</title>
<g id="a_node4"><a xlink:href="classEngine.html#a0ba57971ffb5173ecc425461f65a4cd8" target="_top" xlink:title="Quits the game Sets m_running to false and quitting the game. ">
<polygon fill="none" stroke="black" points="438,-38.5 438,-57.5 540,-57.5 540,-38.5 438,-38.5"/>
<text text-anchor="middle" x="489" y="-45.5" font-family="Helvetica,sans-Serif" font-size="10.00">Engine::quitGame</text>
</a>
</g>
</g>
<!-- Node3&#45;&gt;Node4 -->
<g id="edge3" class="edge"><title>Node3&#45;&gt;Node4</title>
<path fill="none" stroke="midnightblue" d="M412.039,-48C420.67,-48 429.461,-48 437.855,-48"/>
<polygon fill="midnightblue" stroke="midnightblue" points="412.014,-44.5001 402.014,-48 412.014,-51.5001 412.014,-44.5001"/>
</g>
<!-- Node9 -->
<g id="node9" class="node"><title>Node9</title>
<g id="a_node9"><a xlink:href="classUIManager.html#aa78e356fc3b356d790c848319d1c387e" target="_top" xlink:title="UIManager::setCallbackFunctions">
<polygon fill="none" stroke="black" points="576,-76.5 576,-95.5 750,-95.5 750,-76.5 576,-76.5"/>
<text text-anchor="middle" x="663" y="-83.5" font-family="Helvetica,sans-Serif" font-size="10.00">UIManager::setCallbackFunctions</text>
</a>
</g>
</g>
<!-- Node3&#45;&gt;Node9 -->
<g id="edge13" class="edge"><title>Node3&#45;&gt;Node9</title>
<path fill="none" stroke="midnightblue" d="M399.179,-59.6941C411.755,-62.4237 425.334,-65.0882 438,-67 483.248,-73.8301 534.037,-78.3894 575.8,-81.3252"/>
<polygon fill="midnightblue" stroke="midnightblue" points="399.867,-56.2616 389.345,-57.5041 398.345,-63.0942 399.867,-56.2616"/>
</g>
<!-- Node11 -->
<g id="node11" class="node"><title>Node11</title>
<g id="a_node11"><a xlink:href="classGame.html#a5ed7fc5be77080f7f6dd5363f7f007a1" target="_top" xlink:title="Game::mainMenu">
<polygon fill="none" stroke="black" points="612,-0.5 612,-19.5 714,-19.5 714,-0.5 612,-0.5"/>
<text text-anchor="middle" x="663" y="-7.5" font-family="Helvetica,sans-Serif" font-size="10.00">Game::mainMenu</text>
</a>
</g>
</g>
<!-- Node3&#45;&gt;Node11 -->
<g id="edge14" class="edge"><title>Node3&#45;&gt;Node11</title>
<path fill="none" stroke="midnightblue" d="M399.179,-36.3059C411.755,-33.5763 425.334,-30.9118 438,-29 497.431,-20.0291 566.419,-14.9756 611.96,-12.3728"/>
<polygon fill="midnightblue" stroke="midnightblue" points="398.345,-32.9058 389.345,-38.4959 399.867,-39.7384 398.345,-32.9058"/>
</g>
<!-- Node5 -->
<g id="node5" class="node"><title>Node5</title>
<g id="a_node5"><a xlink:href="classEventManager.html#a65ec91fd5016d4f9c4167fb8babed2df" target="_top" xlink:title="EventManager::checkEvents">
<polygon fill="none" stroke="black" points="786,-38.5 786,-57.5 938,-57.5 938,-38.5 786,-38.5"/>
<text text-anchor="middle" x="862" y="-45.5" font-family="Helvetica,sans-Serif" font-size="10.00">EventManager::checkEvents</text>
</a>
</g>
</g>
<!-- Node4&#45;&gt;Node5 -->
<g id="edge4" class="edge"><title>Node4&#45;&gt;Node5</title>
<path fill="none" stroke="midnightblue" d="M550.405,-48C614.656,-48 716.402,-48 785.802,-48"/>
<polygon fill="midnightblue" stroke="midnightblue" points="550.035,-44.5001 540.035,-48 550.035,-51.5001 550.035,-44.5001"/>
</g>
<!-- Node4&#45;&gt;Node9 -->
<g id="edge8" class="edge"><title>Node4&#45;&gt;Node9</title>
<path fill="none" stroke="midnightblue" d="M543.196,-59.7526C567.517,-65.1258 595.955,-71.4086 618.909,-76.4799"/>
<polygon fill="midnightblue" stroke="midnightblue" points="543.922,-56.3288 533.403,-57.589 542.412,-63.164 543.922,-56.3288"/>
</g>
<!-- Node4&#45;&gt;Node11 -->
<g id="edge11" class="edge"><title>Node4&#45;&gt;Node11</title>
<path fill="none" stroke="midnightblue" d="M543.196,-36.2474C567.517,-30.8742 595.955,-24.5914 618.909,-19.5201"/>
<polygon fill="midnightblue" stroke="midnightblue" points="542.412,-32.836 533.403,-38.411 543.922,-39.6712 542.412,-32.836"/>
</g>
<!-- Node6 -->
<g id="node6" class="node"><title>Node6</title>
<g id="a_node6"><a xlink:href="classGame.html#a1c2ab25d5216b2f4b2fe41efd2c09114" target="_top" xlink:title="Game::run">
<polygon fill="none" stroke="black" points="974,-38.5 974,-57.5 1042,-57.5 1042,-38.5 974,-38.5"/>
<text text-anchor="middle" x="1008" y="-45.5" font-family="Helvetica,sans-Serif" font-size="10.00">Game::run</text>
</a>
</g>
</g>
<!-- Node5&#45;&gt;Node6 -->
<g id="edge5" class="edge"><title>Node5&#45;&gt;Node6</title>
<path fill="none" stroke="midnightblue" d="M948.473,-48C957.339,-48 965.922,-48 973.658,-48"/>
<polygon fill="midnightblue" stroke="midnightblue" points="948.374,-44.5001 938.374,-48 948.374,-51.5001 948.374,-44.5001"/>
</g>
<!-- Node7 -->
<g id="node7" class="node"><title>Node7</title>
<g id="a_node7"><a xlink:href="main_8cxx.html#af582d708d899e67ead623eac34a22387" target="_top" xlink:title="protected_main">
<polygon fill="none" stroke="black" points="1078,-19.5 1078,-38.5 1170,-38.5 1170,-19.5 1078,-19.5"/>
<text text-anchor="middle" x="1124" y="-26.5" font-family="Helvetica,sans-Serif" font-size="10.00">protected_main</text>
</a>
</g>
</g>
<!-- Node6&#45;&gt;Node7 -->
<g id="edge6" class="edge"><title>Node6&#45;&gt;Node7</title>
<path fill="none" stroke="midnightblue" d="M1052.17,-40.8058C1060.48,-39.4197 1069.22,-37.9639 1077.6,-36.5665"/>
<polygon fill="midnightblue" stroke="midnightblue" points="1051.57,-37.3569 1042.28,-42.4533 1052.72,-44.2616 1051.57,-37.3569"/>
</g>
<!-- Node8 -->
<g id="node8" class="node"><title>Node8</title>
<g id="a_node8"><a xlink:href="main_8cxx.html#a3c04138a5bfe5d72780bb7e82a18e627" target="_top" xlink:title="main">
<polygon fill="none" stroke="black" points="1206,-19.5 1206,-38.5 1247,-38.5 1247,-19.5 1206,-19.5"/>
<text text-anchor="middle" x="1226.5" y="-26.5" font-family="Helvetica,sans-Serif" font-size="10.00">main</text>
</a>
</g>
</g>
<!-- Node7&#45;&gt;Node8 -->
<g id="edge7" class="edge"><title>Node7&#45;&gt;Node8</title>
<path fill="none" stroke="midnightblue" d="M1180.54,-29C1189.62,-29 1198.47,-29 1205.88,-29"/>
<polygon fill="midnightblue" stroke="midnightblue" points="1180.25,-25.5001 1170.25,-29 1180.25,-32.5001 1180.25,-25.5001"/>
</g>
<!-- Node10 -->
<g id="node10" class="node"><title>Node10</title>
<g id="a_node10"><a xlink:href="classUIManager.html#aedd9d0577af515a852425dfe414b2968" target="_top" xlink:title="Parses the UiLayout.json files and creates UI Elements. ">
<polygon fill="none" stroke="black" points="817.5,-76.5 817.5,-95.5 906.5,-95.5 906.5,-76.5 817.5,-76.5"/>
<text text-anchor="middle" x="862" y="-83.5" font-family="Helvetica,sans-Serif" font-size="10.00">UIManager::init</text>
</a>
</g>
</g>
<!-- Node9&#45;&gt;Node10 -->
<g id="edge9" class="edge"><title>Node9&#45;&gt;Node10</title>
<path fill="none" stroke="midnightblue" d="M760.264,-86C780.329,-86 800.518,-86 817.498,-86"/>
<polygon fill="midnightblue" stroke="midnightblue" points="760.121,-82.5001 750.12,-86 760.12,-89.5001 760.121,-82.5001"/>
</g>
<!-- Node10&#45;&gt;Node6 -->
<g id="edge10" class="edge"><title>Node10&#45;&gt;Node6</title>
<path fill="none" stroke="midnightblue" d="M911.113,-73.9676C920.059,-71.686 929.32,-69.2944 938,-67 949.652,-63.9201 962.38,-60.4464 973.697,-57.3195"/>
<polygon fill="midnightblue" stroke="midnightblue" points="910.025,-70.6327 901.194,-76.4859 911.747,-77.4174 910.025,-70.6327"/>
</g>
<!-- Node11&#45;&gt;Node7 -->
<g id="edge12" class="edge"><title>Node11&#45;&gt;Node7</title>
<path fill="none" stroke="midnightblue" d="M724.575,-12.5075C817.963,-16.3732 994.974,-23.7005 1077.95,-27.1352"/>
<polygon fill="midnightblue" stroke="midnightblue" points="724.57,-9.00436 714.434,-12.0877 724.281,-15.9984 724.57,-9.00436"/>
</g>
</g>
</svg>
