<?xml version="1.0" encoding="UTF-8" standalone="no"?>
<!DOCTYPE svg PUBLIC "-//W3C//DTD SVG 1.1//EN"
 "http://www.w3.org/Graphics/SVG/1.1/DTD/svg11.dtd">
<!-- Generated by graphviz version 2.38.0 (20140413.2041)
 -->
<!-- Title: src/engine Pages: 1 -->
<svg width="236pt" height="471pt"
 viewBox="0.00 0.00 236.00 471.00" xmlns="http://www.w3.org/2000/svg" xmlns:xlink="http://www.w3.org/1999/xlink">
<g id="graph0" class="graph" transform="scale(1 1) rotate(0) translate(4 467)">
<title>src/engine</title>
<g id="clust1" class="cluster"><title>clusterdir_68267d1309a1af8e8297ef4c3efbcdba</title>
<g id="a_clust1"><a xlink:href="dir_68267d1309a1af8e8297ef4c3efbcdba.html" target="_top" xlink:title="src">
<polygon fill="#ddddee" stroke="black" points="8,-8 8,-455 166,-455 166,-8 8,-8"/>
<text text-anchor="middle" x="87" y="-443" font-family="Helvetica,sans-Serif" font-size="10.00">src</text>
</a>
</g>
</g>
<g id="clust2" class="cluster"><title>clusterdir_2052808828190f934b76e979ee65af8a</title>
<g id="a_clust2"><a xlink:href="dir_2052808828190f934b76e979ee65af8a.html" target="_top">
<polygon fill="#eeeeff" stroke="black" points="16,-16 16,-428 158,-428 158,-16 16,-16"/>
</a>
</g>
</g>
<!-- dir_2052808828190f934b76e979ee65af8a -->
<g id="node1" class="node"><title>dir_2052808828190f934b76e979ee65af8a</title>
<text text-anchor="middle" x="123" y="-399.5" font-family="Helvetica,sans-Serif" font-size="10.00">engine</text>
</g>
<!-- dir_4fe8ccee3eb27515a7d94c329d7794e3 -->
<g id="node2" class="node"><title>dir_4fe8ccee3eb27515a7d94c329d7794e3</title>
<g id="a_node2"><a xlink:href="dir_4fe8ccee3eb27515a7d94c329d7794e3.html" target="_top" xlink:title="audio">
<polygon fill="white" stroke="black" points="150,-348 96,-348 96,-312 150,-312 150,-348"/>
<text text-anchor="middle" x="123" y="-327.5" font-family="Helvetica,sans-Serif" font-size="10.00">audio</text>
</a>
</g>
</g>
<!-- dir_2052808828190f934b76e979ee65af8a&#45;&gt;dir_4fe8ccee3eb27515a7d94c329d7794e3 -->
<g id="edge1" class="edge"><title>dir_2052808828190f934b76e979ee65af8a&#45;&gt;dir_4fe8ccee3eb27515a7d94c329d7794e3</title>
<path fill="none" stroke="black" d="M123,-383.697C123,-375.983 123,-366.712 123,-358.112"/>
<polygon fill="black" stroke="black" points="126.5,-358.104 123,-348.104 119.5,-358.104 126.5,-358.104"/>
<g id="a_edge1&#45;headlabel"><a xlink:href="dir_000001_000002.html" target="_top" xlink:title="2">
<text text-anchor="middle" x="129.339" y="-359.199" font-family="Helvetica,sans-Serif" font-size="10.00">2</text>
</a>
</g>
</g>
<!-- dir_8c0f887d135e3a09c81f308091ce630b -->
<g id="node3" class="node"><title>dir_8c0f887d135e3a09c81f308091ce630b</title>
<g id="a_node3"><a xlink:href="dir_8c0f887d135e3a09c81f308091ce630b.html" target="_top" xlink:title="basics">
<polygon fill="white" stroke="black" points="150,-276 96,-276 96,-240 150,-240 150,-276"/>
<text text-anchor="middle" x="123" y="-255.5" font-family="Helvetica,sans-Serif" font-size="10.00">basics</text>
</a>
</g>
</g>
<!-- dir_4fe8ccee3eb27515a7d94c329d7794e3&#45;&gt;dir_8c0f887d135e3a09c81f308091ce630b -->
<g id="edge9" class="edge"><title>dir_4fe8ccee3eb27515a7d94c329d7794e3&#45;&gt;dir_8c0f887d135e3a09c81f308091ce630b</title>
<path fill="none" stroke="black" d="M123,-311.697C123,-303.983 123,-294.712 123,-286.112"/>
<polygon fill="black" stroke="black" points="126.5,-286.104 123,-276.104 119.5,-286.104 126.5,-286.104"/>
<g id="a_edge9&#45;headlabel"><a xlink:href="dir_000002_000003.html" target="_top" xlink:title="4">
<text text-anchor="middle" x="129.339" y="-287.199" font-family="Helvetica,sans-Serif" font-size="10.00">4</text>
</a>
</g>
</g>
<!-- dir_3ccf6d3192f3ffcbe7eee38747026054 -->
<g id="node4" class="node"><title>dir_3ccf6d3192f3ffcbe7eee38747026054</title>
<g id="a_node4"><a xlink:href="dir_3ccf6d3192f3ffcbe7eee38747026054.html" target="_top" xlink:title="common">
<polygon fill="white" stroke="black" points="106.5,-204 47.5,-204 47.5,-168 106.5,-168 106.5,-204"/>
<text text-anchor="middle" x="77" y="-183.5" font-family="Helvetica,sans-Serif" font-size="10.00">common</text>
</a>
</g>
</g>
<!-- dir_8c0f887d135e3a09c81f308091ce630b&#45;&gt;dir_3ccf6d3192f3ffcbe7eee38747026054 -->
<g id="edge14" class="edge"><title>dir_8c0f887d135e3a09c81f308091ce630b&#45;&gt;dir_3ccf6d3192f3ffcbe7eee38747026054</title>
<path fill="none" stroke="black" d="M105.713,-239.697C99.5909,-231.644 92.9739,-221.894 87.5274,-212.982"/>
<polygon fill="black" stroke="black" points="90.409,-210.976 82.345,-204.104 84.3636,-214.505 90.409,-210.976"/>
<g id="a_edge14&#45;headlabel"><a xlink:href="dir_000003_000004.html" target="_top" xlink:title="2">
<text text-anchor="middle" x="94.6732" y="-210.149" font-family="Helvetica,sans-Serif" font-size="10.00">2</text>
</a>
</g>
</g>
<!-- dir_b7878ad5ecbf2506f4125b9d34c97e45 -->
<g id="node8" class="node"><title>dir_b7878ad5ecbf2506f4125b9d34c97e45</title>
<g id="a_node8"><a xlink:href="dir_b7878ad5ecbf2506f4125b9d34c97e45.html" target="_top" xlink:title="util">
<polygon fill="none" stroke="black" points="228,-204 174,-204 174,-168 228,-168 228,-204"/>
<text text-anchor="middle" x="201" y="-183.5" font-family="Helvetica,sans-Serif" font-size="10.00">util</text>
</a>
</g>
</g>
<!-- dir_8c0f887d135e3a09c81f308091ce630b&#45;&gt;dir_b7878ad5ecbf2506f4125b9d34c97e45 -->
<g id="edge13" class="edge"><title>dir_8c0f887d135e3a09c81f308091ce630b&#45;&gt;dir_b7878ad5ecbf2506f4125b9d34c97e45</title>
<path fill="none" stroke="black" d="M142.281,-239.697C151.915,-231.05 163.729,-220.449 174.227,-211.027"/>
<polygon fill="black" stroke="black" points="176.836,-213.388 181.941,-204.104 172.161,-208.179 176.836,-213.388"/>
<g id="a_edge13&#45;headlabel"><a xlink:href="dir_000003_000012.html" target="_top" xlink:title="1">
<text text-anchor="middle" x="176.057" y="-215.402" font-family="Helvetica,sans-Serif" font-size="10.00">1</text>
</a>
</g>
</g>
<!-- dir_3ccf6d3192f3ffcbe7eee38747026054&#45;&gt;dir_8c0f887d135e3a09c81f308091ce630b -->
<g id="edge8" class="edge"><title>dir_3ccf6d3192f3ffcbe7eee38747026054&#45;&gt;dir_8c0f887d135e3a09c81f308091ce630b</title>
<path fill="none" stroke="black" d="M94.135,-204.104C100.249,-212.129 106.872,-221.871 112.338,-230.797"/>
<polygon fill="black" stroke="black" points="109.474,-232.833 117.545,-239.697 115.516,-229.298 109.474,-232.833"/>
<g id="a_edge8&#45;headlabel"><a xlink:href="dir_000004_000003.html" target="_top" xlink:title="2">
<text text-anchor="middle" x="105.208" y="-228.664" font-family="Helvetica,sans-Serif" font-size="10.00">2</text>
</a>
</g>
</g>
<!-- dir_e1c1a612157aa4e0d7fb3dd5a06054d7 -->
<g id="node5" class="node"><title>dir_e1c1a612157aa4e0d7fb3dd5a06054d7</title>
<g id="a_node5"><a xlink:href="dir_e1c1a612157aa4e0d7fb3dd5a06054d7.html" target="_top" xlink:title="GameObjects">
<polygon fill="white" stroke="black" points="142,-60 60,-60 60,-24 142,-24 142,-60"/>
<text text-anchor="middle" x="101" y="-39.5" font-family="Helvetica,sans-Serif" font-size="10.00">GameObjects</text>
</a>
</g>
</g>
<!-- dir_3ccf6d3192f3ffcbe7eee38747026054&#45;&gt;dir_e1c1a612157aa4e0d7fb3dd5a06054d7 -->
<g id="edge7" class="edge"><title>dir_3ccf6d3192f3ffcbe7eee38747026054&#45;&gt;dir_e1c1a612157aa4e0d7fb3dd5a06054d7</title>
<path fill="none" stroke="black" d="M63.7654,-167.914C55.4377,-149.731 48.5303,-120.291 56,-96 59.0406,-86.1123 64.623,-76.414 70.9307,-68.0725"/>
<polygon fill="black" stroke="black" points="73.7419,-70.165 77.4129,-60.2264 68.3454,-65.7065 73.7419,-70.165"/>
<g id="a_edge7&#45;headlabel"><a xlink:href="dir_000004_000005.html" target="_top" xlink:title="1">
<text text-anchor="middle" x="73.6413" y="-72.2445" font-family="Helvetica,sans-Serif" font-size="10.00">1</text>
</a>
</g>
</g>
<!-- dir_3e7675e027e995ce76f0b1e50f5f7211 -->
<g id="node6" class="node"><title>dir_3e7675e027e995ce76f0b1e50f5f7211</title>
<g id="a_node6"><a xlink:href="dir_3e7675e027e995ce76f0b1e50f5f7211.html" target="_top" xlink:title="map">
<polygon fill="white" stroke="black" points="128,-132 74,-132 74,-96 128,-96 128,-132"/>
<text text-anchor="middle" x="101" y="-111.5" font-family="Helvetica,sans-Serif" font-size="10.00">map</text>
</a>
</g>
</g>
<!-- dir_3ccf6d3192f3ffcbe7eee38747026054&#45;&gt;dir_3e7675e027e995ce76f0b1e50f5f7211 -->
<g id="edge6" class="edge"><title>dir_3ccf6d3192f3ffcbe7eee38747026054&#45;&gt;dir_3e7675e027e995ce76f0b1e50f5f7211</title>
<path fill="none" stroke="black" d="M77.0169,-167.697C78.9066,-159.813 81.9481,-150.304 85.3265,-141.546"/>
<polygon fill="black" stroke="black" points="88.6444,-142.682 89.2406,-132.104 82.1779,-140.002 88.6444,-142.682"/>
<g id="a_edge6&#45;headlabel"><a xlink:href="dir_000004_000006.html" target="_top" xlink:title="1">
<text text-anchor="middle" x="89.8907" y="-144.59" font-family="Helvetica,sans-Serif" font-size="10.00">1</text>
</a>
</g>
</g>
<!-- dir_e1c1a612157aa4e0d7fb3dd5a06054d7&#45;&gt;dir_8c0f887d135e3a09c81f308091ce630b -->
<g id="edge12" class="edge"><title>dir_e1c1a612157aa4e0d7fb3dd5a06054d7&#45;&gt;dir_8c0f887d135e3a09c81f308091ce630b</title>
<path fill="none" stroke="black" d="M116.61,-60.2264C124.373,-69.9695 132.946,-82.8163 137,-96 150.99,-141.493 140.291,-197.391 131.481,-229.928"/>
<polygon fill="black" stroke="black" points="128.091,-229.052 128.72,-239.628 134.824,-230.968 128.091,-229.052"/>
<g id="a_edge12&#45;headlabel"><a xlink:href="dir_000005_000003.html" target="_top" xlink:title="2">
<text text-anchor="middle" x="126.344" y="-222.317" font-family="Helvetica,sans-Serif" font-size="10.00">2</text>
</a>
</g>
</g>
<!-- dir_e1c1a612157aa4e0d7fb3dd5a06054d7&#45;&gt;dir_3ccf6d3192f3ffcbe7eee38747026054 -->
<g id="edge11" class="edge"><title>dir_e1c1a612157aa4e0d7fb3dd5a06054d7&#45;&gt;dir_3ccf6d3192f3ffcbe7eee38747026054</title>
<path fill="none" stroke="black" d="M93.3673,-60.2264C86.6271,-69.9695 78.0541,-82.8163 74,-96 67.785,-116.211 71.5229,-139.986 75.0743,-157.877"/>
<polygon fill="black" stroke="black" points="71.6934,-158.814 77.119,-167.914 78.5525,-157.417 71.6934,-158.814"/>
<g id="a_edge11&#45;headlabel"><a xlink:href="dir_000005_000004.html" target="_top" xlink:title="1">
<text text-anchor="middle" x="68.1939" y="-153.359" font-family="Helvetica,sans-Serif" font-size="10.00">1</text>
</a>
</g>
</g>
<!-- dir_e1c1a612157aa4e0d7fb3dd5a06054d7&#45;&gt;dir_3e7675e027e995ce76f0b1e50f5f7211 -->
<g id="edge10" class="edge"><title>dir_e1c1a612157aa4e0d7fb3dd5a06054d7&#45;&gt;dir_3e7675e027e995ce76f0b1e50f5f7211</title>
<path fill="none" stroke="black" d="M106.895,-60.1043C107.701,-67.7913 107.937,-77.0537 107.604,-85.6651"/>
<polygon fill="black" stroke="black" points="104.109,-85.4805 106.916,-95.6966 111.092,-85.9597 104.109,-85.4805"/>
<g id="a_edge10&#45;headlabel"><a xlink:href="dir_000005_000006.html" target="_top" xlink:title="1">
<text text-anchor="middle" x="101.522" y="-79.2" font-family="Helvetica,sans-Serif" font-size="10.00">1</text>
</a>
</g>
</g>
<!-- dir_3e7675e027e995ce76f0b1e50f5f7211&#45;&gt;dir_8c0f887d135e3a09c81f308091ce630b -->
<g id="edge5" class="edge"><title>dir_3e7675e027e995ce76f0b1e50f5f7211&#45;&gt;dir_8c0f887d135e3a09c81f308091ce630b</title>
<path fill="none" stroke="black" d="M106.28,-132.023C109.282,-142.338 112.859,-155.815 115,-168 118.602,-188.498 120.626,-211.954 121.736,-229.639"/>
<polygon fill="black" stroke="black" points="118.253,-230.04 122.316,-239.826 125.242,-229.643 118.253,-230.04"/>
<g id="a_edge5&#45;headlabel"><a xlink:href="dir_000006_000003.html" target="_top" xlink:title="1">
<text text-anchor="middle" x="115.215" y="-224.113" font-family="Helvetica,sans-Serif" font-size="10.00">1</text>
</a>
</g>
</g>
<!-- dir_3e7675e027e995ce76f0b1e50f5f7211&#45;&gt;dir_3ccf6d3192f3ffcbe7eee38747026054 -->
<g id="edge3" class="edge"><title>dir_3e7675e027e995ce76f0b1e50f5f7211&#45;&gt;dir_3ccf6d3192f3ffcbe7eee38747026054</title>
<path fill="none" stroke="black" d="M101.031,-132.104C99.1605,-139.96 96.1316,-149.462 92.7589,-158.232"/>
<polygon fill="black" stroke="black" points="89.4322,-157.118 88.8483,-167.697 95.9018,-159.791 89.4322,-157.118"/>
<g id="a_edge3&#45;headlabel"><a xlink:href="dir_000006_000004.html" target="_top" xlink:title="3">
<text text-anchor="middle" x="88.1807" y="-150.211" font-family="Helvetica,sans-Serif" font-size="10.00">3</text>
</a>
</g>
</g>
<!-- dir_3e7675e027e995ce76f0b1e50f5f7211&#45;&gt;dir_e1c1a612157aa4e0d7fb3dd5a06054d7 -->
<g id="edge4" class="edge"><title>dir_3e7675e027e995ce76f0b1e50f5f7211&#45;&gt;dir_e1c1a612157aa4e0d7fb3dd5a06054d7</title>
<path fill="none" stroke="black" d="M95.0843,-95.6966C94.2886,-87.9827 94.0621,-78.7125 94.4047,-70.1124"/>
<polygon fill="black" stroke="black" points="97.8984,-70.3243 95.105,-60.1043 90.9154,-69.8356 97.8984,-70.3243"/>
<g id="a_edge4&#45;headlabel"><a xlink:href="dir_000006_000005.html" target="_top" xlink:title="1">
<text text-anchor="middle" x="100.48" y="-71.6083" font-family="Helvetica,sans-Serif" font-size="10.00">1</text>
</a>
</g>
</g>
<!-- dir_dafb870456d4817504c840071e25f057 -->
<g id="node7" class="node"><title>dir_dafb870456d4817504c840071e25f057</title>
<g id="a_node7"><a xlink:href="dir_dafb870456d4817504c840071e25f057.html" target="_top" xlink:title="ui">
<polygon fill="white" stroke="red" points="78,-348 24,-348 24,-312 78,-312 78,-348"/>
<text text-anchor="middle" x="51" y="-327.5" font-family="Helvetica,sans-Serif" font-size="10.00">ui</text>
</a>
</g>
</g>
<!-- dir_dafb870456d4817504c840071e25f057&#45;&gt;dir_8c0f887d135e3a09c81f308091ce630b -->
<g id="edge2" class="edge"><title>dir_dafb870456d4817504c840071e25f057&#45;&gt;dir_8c0f887d135e3a09c81f308091ce630b</title>
<path fill="none" stroke="black" d="M68.7978,-311.697C77.604,-303.135 88.3821,-292.656 98.0011,-283.304"/>
<polygon fill="black" stroke="black" points="100.677,-285.585 105.407,-276.104 95.7972,-280.566 100.677,-285.585"/>
<g id="a_edge2&#45;headlabel"><a xlink:href="dir_000007_000003.html" target="_top" xlink:title="14">
<text text-anchor="middle" x="100.079" y="-287.626" font-family="Helvetica,sans-Serif" font-size="10.00">14</text>
</a>
</g>
</g>
</g>
</svg>
