<?xml version="1.0" encoding="UTF-8" standalone="no"?>
<!DOCTYPE svg PUBLIC "-//W3C//DTD SVG 1.1//EN"
 "http://www.w3.org/Graphics/SVG/1.1/DTD/svg11.dtd">
<!-- Generated by graphviz version 2.38.0 (20140413.2041)
 -->
<!-- Title: src/engine/GameObjects Pages: 1 -->
<svg width="203pt" height="188pt"
 viewBox="0.00 0.00 202.96 188.00" xmlns="http://www.w3.org/2000/svg" xmlns:xlink="http://www.w3.org/1999/xlink">
<g id="graph0" class="graph" transform="scale(1 1) rotate(0) translate(4 184)">
<title>src/engine/GameObjects</title>
<g id="clust1" class="cluster"><title>clusterdir_2052808828190f934b76e979ee65af8a</title>
<g id="a_clust1"><a xlink:href="dir_2052808828190f934b76e979ee65af8a.html" target="_top" xlink:title="engine">
<polygon fill="#ddddee" stroke="black" points="8,-64 8,-135 106,-135 106,-64 8,-64"/>
<text text-anchor="middle" x="57" y="-123" font-family="Helvetica,sans-Serif" font-size="10.00">engine</text>
</a>
</g>
</g>
<!-- dir_e1c1a612157aa4e0d7fb3dd5a06054d7 -->
<g id="node1" class="node"><title>dir_e1c1a612157aa4e0d7fb3dd5a06054d7</title>
<g id="a_node1"><a xlink:href="dir_e1c1a612157aa4e0d7fb3dd5a06054d7.html" target="_top" xlink:title="GameObjects">
<polygon fill="#eeeeff" stroke="black" points="98,-108 16,-108 16,-72 98,-72 98,-108"/>
<text text-anchor="middle" x="57" y="-87.5" font-family="Helvetica,sans-Serif" font-size="10.00">GameObjects</text>
</a>
</g>
</g>
<!-- dir_3e7675e027e995ce76f0b1e50f5f7211 -->
<g id="node2" class="node"><title>dir_3e7675e027e995ce76f0b1e50f5f7211</title>
<g id="a_node2"><a xlink:href="dir_3e7675e027e995ce76f0b1e50f5f7211.html" target="_top" xlink:title="map">
<polygon fill="none" stroke="black" points="173,-180 119,-180 119,-144 173,-144 173,-180"/>
<text text-anchor="middle" x="146" y="-159.5" font-family="Helvetica,sans-Serif" font-size="10.00">map</text>
</a>
</g>
</g>
<!-- dir_e1c1a612157aa4e0d7fb3dd5a06054d7&#45;&gt;dir_3e7675e027e995ce76f0b1e50f5f7211 -->
<g id="edge7" class="edge"><title>dir_e1c1a612157aa4e0d7fb3dd5a06054d7&#45;&gt;dir_3e7675e027e995ce76f0b1e50f5f7211</title>
<path fill="none" stroke="black" d="M67.8307,-108.236C76.3749,-116.578 88.0648,-126.584 99,-135 102.516,-137.706 106.293,-140.46 110.145,-143.116"/>
<polygon fill="black" stroke="black" points="108.35,-146.125 118.625,-148.711 112.206,-140.282 108.35,-146.125"/>
<g id="a_edge7&#45;headlabel"><a xlink:href="dir_000005_000006.html" target="_top" xlink:title="1">
<text text-anchor="middle" x="103.786" y="-144.014" font-family="Helvetica,sans-Serif" font-size="10.00">1</text>
</a>
</g>
</g>
<!-- dir_3ccf6d3192f3ffcbe7eee38747026054 -->
<g id="node3" class="node"><title>dir_3ccf6d3192f3ffcbe7eee38747026054</title>
<g id="a_node3"><a xlink:href="dir_3ccf6d3192f3ffcbe7eee38747026054.html" target="_top" xlink:title="common">
<polygon fill="none" stroke="black" points="175.5,-108 116.5,-108 116.5,-72 175.5,-72 175.5,-108"/>
<text text-anchor="middle" x="146" y="-87.5" font-family="Helvetica,sans-Serif" font-size="10.00">common</text>
</a>
</g>
</g>
<!-- dir_e1c1a612157aa4e0d7fb3dd5a06054d7&#45;&gt;dir_3ccf6d3192f3ffcbe7eee38747026054 -->
<g id="edge8" class="edge"><title>dir_e1c1a612157aa4e0d7fb3dd5a06054d7&#45;&gt;dir_3ccf6d3192f3ffcbe7eee38747026054</title>
<path fill="none" stroke="black" d="M98.0234,-90C100.797,-90 103.572,-90 106.346,-90"/>
<polygon fill="black" stroke="black" points="106.39,-93.5001 116.389,-90 106.389,-86.5001 106.39,-93.5001"/>
<g id="a_edge8&#45;headlabel"><a xlink:href="dir_000005_000004.html" target="_top" xlink:title="1">
<text text-anchor="middle" x="102.795" y="-93.8393" font-family="Helvetica,sans-Serif" font-size="10.00">1</text>
</a>
</g>
</g>
<!-- dir_8c0f887d135e3a09c81f308091ce630b -->
<g id="node4" class="node"><title>dir_8c0f887d135e3a09c81f308091ce630b</title>
<g id="a_node4"><a xlink:href="dir_8c0f887d135e3a09c81f308091ce630b.html" target="_top" xlink:title="basics">
<polygon fill="none" stroke="black" points="173,-36 119,-36 119,-0 173,-0 173,-36"/>
<text text-anchor="middle" x="146" y="-15.5" font-family="Helvetica,sans-Serif" font-size="10.00">basics</text>
</a>
</g>
</g>
<!-- dir_e1c1a612157aa4e0d7fb3dd5a06054d7&#45;&gt;dir_8c0f887d135e3a09c81f308091ce630b -->
<g id="edge9" class="edge"><title>dir_e1c1a612157aa4e0d7fb3dd5a06054d7&#45;&gt;dir_8c0f887d135e3a09c81f308091ce630b</title>
<path fill="none" stroke="black" d="M79,-71.6966C90.2088,-62.8807 104.002,-52.0321 116.154,-42.4742"/>
<polygon fill="black" stroke="black" points="118.557,-45.0375 124.253,-36.1043 114.229,-39.5354 118.557,-45.0375"/>
<g id="a_edge9&#45;headlabel"><a xlink:href="dir_000005_000003.html" target="_top" xlink:title="2">
<text text-anchor="middle" x="117.487" y="-46.9914" font-family="Helvetica,sans-Serif" font-size="10.00">2</text>
</a>
</g>
</g>
<!-- dir_3e7675e027e995ce76f0b1e50f5f7211&#45;&gt;dir_e1c1a612157aa4e0d7fb3dd5a06054d7 -->
<g id="edge2" class="edge"><title>dir_3e7675e027e995ce76f0b1e50f5f7211&#45;&gt;dir_e1c1a612157aa4e0d7fb3dd5a06054d7</title>
<path fill="none" stroke="black" d="M128.852,-143.759C124.907,-140.908 120.801,-137.925 117,-135 108.643,-128.568 99.8451,-121.208 91.5606,-114.371"/>
<polygon fill="black" stroke="black" points="93.7614,-111.65 83.8061,-108.024 89.3278,-117.067 93.7614,-111.65"/>
<g id="a_edge2&#45;headlabel"><a xlink:href="dir_000006_000005.html" target="_top" xlink:title="1">
<text text-anchor="middle" x="98.3414" y="-109.229" font-family="Helvetica,sans-Serif" font-size="10.00">1</text>
</a>
</g>
</g>
<!-- dir_3e7675e027e995ce76f0b1e50f5f7211&#45;&gt;dir_3ccf6d3192f3ffcbe7eee38747026054 -->
<g id="edge1" class="edge"><title>dir_3e7675e027e995ce76f0b1e50f5f7211&#45;&gt;dir_3ccf6d3192f3ffcbe7eee38747026054</title>
<path fill="none" stroke="black" d="M140.084,-143.697C139.289,-135.983 139.062,-126.712 139.405,-118.112"/>
<polygon fill="black" stroke="black" points="142.898,-118.324 140.105,-108.104 135.915,-117.836 142.898,-118.324"/>
<g id="a_edge1&#45;headlabel"><a xlink:href="dir_000006_000004.html" target="_top" xlink:title="3">
<text text-anchor="middle" x="145.48" y="-119.608" font-family="Helvetica,sans-Serif" font-size="10.00">3</text>
</a>
</g>
</g>
<!-- dir_3e7675e027e995ce76f0b1e50f5f7211&#45;&gt;dir_8c0f887d135e3a09c81f308091ce630b -->
<g id="edge3" class="edge"><title>dir_3e7675e027e995ce76f0b1e50f5f7211&#45;&gt;dir_8c0f887d135e3a09c81f308091ce630b</title>
<path fill="none" stroke="black" d="M173.196,-148.019C177.941,-144.482 182.235,-140.166 185,-135 199.89,-107.178 196.029,-93.5655 185,-64 182.317,-56.808 177.91,-50.0023 173.004,-43.964"/>
<polygon fill="black" stroke="black" points="175.387,-41.3774 166.12,-36.2413 170.161,-46.0352 175.387,-41.3774"/>
<g id="a_edge3&#45;headlabel"><a xlink:href="dir_000006_000003.html" target="_top" xlink:title="1">
<text text-anchor="middle" x="179.898" y="-39.6716" font-family="Helvetica,sans-Serif" font-size="10.00">1</text>
</a>
</g>
</g>
<!-- dir_3ccf6d3192f3ffcbe7eee38747026054&#45;&gt;dir_e1c1a612157aa4e0d7fb3dd5a06054d7 -->
<g id="edge5" class="edge"><title>dir_3ccf6d3192f3ffcbe7eee38747026054&#45;&gt;dir_e1c1a612157aa4e0d7fb3dd5a06054d7</title>
<path fill="none" stroke="black" d="M116.389,-90C113.615,-90 110.841,-90 108.067,-90"/>
<polygon fill="black" stroke="black" points="108.023,-86.5001 98.0234,-90 108.023,-93.5001 108.023,-86.5001"/>
<g id="a_edge5&#45;headlabel"><a xlink:href="dir_000004_000005.html" target="_top" xlink:title="1">
<text text-anchor="middle" x="111.618" y="-81.1607" font-family="Helvetica,sans-Serif" font-size="10.00">1</text>
</a>
</g>
</g>
<!-- dir_3ccf6d3192f3ffcbe7eee38747026054&#45;&gt;dir_3e7675e027e995ce76f0b1e50f5f7211 -->
<g id="edge4" class="edge"><title>dir_3ccf6d3192f3ffcbe7eee38747026054&#45;&gt;dir_3e7675e027e995ce76f0b1e50f5f7211</title>
<path fill="none" stroke="black" d="M151.895,-108.104C152.701,-115.791 152.937,-125.054 152.604,-133.665"/>
<polygon fill="black" stroke="black" points="149.109,-133.48 151.916,-143.697 156.092,-133.96 149.109,-133.48"/>
<g id="a_edge4&#45;headlabel"><a xlink:href="dir_000004_000006.html" target="_top" xlink:title="1">
<text text-anchor="middle" x="146.522" y="-127.2" font-family="Helvetica,sans-Serif" font-size="10.00">1</text>
</a>
</g>
</g>
<!-- dir_3ccf6d3192f3ffcbe7eee38747026054&#45;&gt;dir_8c0f887d135e3a09c81f308091ce630b -->
<g id="edge6" class="edge"><title>dir_3ccf6d3192f3ffcbe7eee38747026054&#45;&gt;dir_8c0f887d135e3a09c81f308091ce630b</title>
<path fill="none" stroke="black" d="M140.084,-71.6966C139.289,-63.9827 139.062,-54.7125 139.405,-46.1124"/>
<polygon fill="black" stroke="black" points="142.898,-46.3243 140.105,-36.1043 135.915,-45.8356 142.898,-46.3243"/>
<g id="a_edge6&#45;headlabel"><a xlink:href="dir_000004_000003.html" target="_top" xlink:title="2">
<text text-anchor="middle" x="145.48" y="-47.6083" font-family="Helvetica,sans-Serif" font-size="10.00">2</text>
</a>
</g>
</g>
<!-- dir_8c0f887d135e3a09c81f308091ce630b&#45;&gt;dir_3ccf6d3192f3ffcbe7eee38747026054 -->
<g id="edge10" class="edge"><title>dir_8c0f887d135e3a09c81f308091ce630b&#45;&gt;dir_3ccf6d3192f3ffcbe7eee38747026054</title>
<path fill="none" stroke="black" d="M151.895,-36.1043C152.701,-43.7913 152.937,-53.0537 152.604,-61.6651"/>
<polygon fill="black" stroke="black" points="149.109,-61.4805 151.916,-71.6966 156.092,-61.9597 149.109,-61.4805"/>
<g id="a_edge10&#45;headlabel"><a xlink:href="dir_000003_000004.html" target="_top" xlink:title="2">
<text text-anchor="middle" x="146.522" y="-55.2" font-family="Helvetica,sans-Serif" font-size="10.00">2</text>
</a>
</g>
</g>
</g>
</svg>
