<?xml version="1.0" encoding="UTF-8" standalone="no"?>
<!DOCTYPE svg PUBLIC "-//W3C//DTD SVG 1.1//EN"
 "http://www.w3.org/Graphics/SVG/1.1/DTD/svg11.dtd">
<!-- Generated by graphviz version 2.38.0 (20140413.2041)
 -->
<!-- Title: src/engine/ui/menuGroups Pages: 1 -->
<svg width="118pt" height="223pt"
 viewBox="0.00 0.00 118.00 223.00" xmlns="http://www.w3.org/2000/svg" xmlns:xlink="http://www.w3.org/1999/xlink">
<g id="graph0" class="graph" transform="scale(1 1) rotate(0) translate(4 219)">
<title>src/engine/ui/menuGroups</title>
<g id="clust1" class="cluster"><title>clusterdir_dafb870456d4817504c840071e25f057</title>
<g id="a_clust1"><a xlink:href="dir_dafb870456d4817504c840071e25f057.html" target="_top" xlink:title="ui">
<polygon fill="#ddddee" stroke="black" points="8,-136 8,-207 102,-207 102,-136 8,-136"/>
<text text-anchor="middle" x="55" y="-195" font-family="Helvetica,sans-Serif" font-size="10.00">ui</text>
</a>
</g>
</g>
<!-- dir_12bf07b2862220ce91530ffb27a5906b -->
<g id="node1" class="node"><title>dir_12bf07b2862220ce91530ffb27a5906b</title>
<g id="a_node1"><a xlink:href="dir_12bf07b2862220ce91530ffb27a5906b.html" target="_top" xlink:title="menuGroups">
<polygon fill="#eeeeff" stroke="black" points="94.5,-180 15.5,-180 15.5,-144 94.5,-144 94.5,-180"/>
<text text-anchor="middle" x="55" y="-159.5" font-family="Helvetica,sans-Serif" font-size="10.00">menuGroups</text>
</a>
</g>
</g>
<!-- dir_5430acbacf25f3c993fa948280e8f66e -->
<g id="node2" class="node"><title>dir_5430acbacf25f3c993fa948280e8f66e</title>
<g id="a_node2"><a xlink:href="dir_5430acbacf25f3c993fa948280e8f66e.html" target="_top" xlink:title="basics">
<polygon fill="none" stroke="black" points="55,-108 1,-108 1,-72 55,-72 55,-108"/>
<text text-anchor="middle" x="28" y="-87.5" font-family="Helvetica,sans-Serif" font-size="10.00">basics</text>
</a>
</g>
</g>
<!-- dir_12bf07b2862220ce91530ffb27a5906b&#45;&gt;dir_5430acbacf25f3c993fa948280e8f66e -->
<g id="edge2" class="edge"><title>dir_12bf07b2862220ce91530ffb27a5906b&#45;&gt;dir_5430acbacf25f3c993fa948280e8f66e</title>
<path fill="none" stroke="black" d="M48.3258,-143.697C45.2851,-135.813 41.6173,-126.304 38.2393,-117.546"/>
<polygon fill="black" stroke="black" points="41.4617,-116.175 34.5974,-108.104 34.9307,-118.694 41.4617,-116.175"/>
<g id="a_edge2&#45;headlabel"><a xlink:href="dir_000009_000008.html" target="_top" xlink:title="2">
<text text-anchor="middle" x="45.4043" y="-116.007" font-family="Helvetica,sans-Serif" font-size="10.00">2</text>
</a>
</g>
</g>
<!-- dir_8c0f887d135e3a09c81f308091ce630b -->
<g id="node3" class="node"><title>dir_8c0f887d135e3a09c81f308091ce630b</title>
<g id="a_node3"><a xlink:href="dir_8c0f887d135e3a09c81f308091ce630b.html" target="_top" xlink:title="basics">
<polygon fill="none" stroke="black" points="82,-36 28,-36 28,-0 82,-0 82,-36"/>
<text text-anchor="middle" x="55" y="-15.5" font-family="Helvetica,sans-Serif" font-size="10.00">basics</text>
</a>
</g>
</g>
<!-- dir_12bf07b2862220ce91530ffb27a5906b&#45;&gt;dir_8c0f887d135e3a09c81f308091ce630b -->
<g id="edge3" class="edge"><title>dir_12bf07b2862220ce91530ffb27a5906b&#45;&gt;dir_8c0f887d135e3a09c81f308091ce630b</title>
<path fill="none" stroke="black" d="M58.6538,-143.908C60.6758,-133.569 62.9808,-120.09 64,-108 65.3441,-92.0566 65.3441,-87.9434 64,-72 63.2834,-63.4991 61.9311,-54.3119 60.4884,-46.0122"/>
<polygon fill="black" stroke="black" points="63.9142,-45.2892 58.6538,-36.0925 57.0309,-46.5623 63.9142,-45.2892"/>
<g id="a_edge3&#45;headlabel"><a xlink:href="dir_000009_000003.html" target="_top" xlink:title="3">
<text text-anchor="middle" x="67.3597" y="-45.8075" font-family="Helvetica,sans-Serif" font-size="10.00">3</text>
</a>
</g>
</g>
<!-- dir_5430acbacf25f3c993fa948280e8f66e&#45;&gt;dir_8c0f887d135e3a09c81f308091ce630b -->
<g id="edge1" class="edge"><title>dir_5430acbacf25f3c993fa948280e8f66e&#45;&gt;dir_8c0f887d135e3a09c81f308091ce630b</title>
<path fill="none" stroke="black" d="M34.6742,-71.6966C37.7149,-63.8132 41.3827,-54.3042 44.7607,-45.5464"/>
<polygon fill="black" stroke="black" points="48.0693,-46.6939 48.4026,-36.1043 41.5383,-44.1748 48.0693,-46.6939"/>
<g id="a_edge1&#45;headlabel"><a xlink:href="dir_000008_000003.html" target="_top" xlink:title="6">
<text text-anchor="middle" x="49.4248" y="-48.5695" font-family="Helvetica,sans-Serif" font-size="10.00">6</text>
</a>
</g>
</g>
</g>
</svg>
