<?xml version="1.0" encoding="UTF-8" standalone="no"?>
<!DOCTYPE svg PUBLIC "-//W3C//DTD SVG 1.1//EN"
 "http://www.w3.org/Graphics/SVG/1.1/DTD/svg11.dtd">
<!-- Generated by graphviz version 2.38.0 (20140413.2041)
 -->
<!-- Title: src/engine/Engine.cxx Pages: 1 -->
<svg width="1421pt" height="420pt"
 viewBox="0.00 0.00 1420.50 420.00" xmlns="http://www.w3.org/2000/svg" xmlns:xlink="http://www.w3.org/1999/xlink">
<g id="graph0" class="graph" transform="scale(1 1) rotate(0) translate(4 416)">
<title>src/engine/Engine.cxx</title>
<!-- Node1 -->
<g id="node1" class="node"><title>Node1</title>
<polygon fill="#bfbfbf" stroke="black" points="1098,-392.5 1098,-411.5 1218,-411.5 1218,-392.5 1098,-392.5"/>
<text text-anchor="middle" x="1158" y="-399.5" font-family="Helvetica,sans-Serif" font-size="10.00">src/engine/Engine.cxx</text>
</g>
<!-- Node2 -->
<g id="node2" class="node"><title>Node2</title>
<g id="a_node2"><a xlink:href="Engine_8hxx.html" target="_top" xlink:title="Engine.hxx">
<polygon fill="none" stroke="black" points="723,-336.5 723,-355.5 791,-355.5 791,-336.5 723,-336.5"/>
<text text-anchor="middle" x="757" y="-343.5" font-family="Helvetica,sans-Serif" font-size="10.00">Engine.hxx</text>
</a>
</g>
</g>
<!-- Node1&#45;&gt;Node2 -->
<g id="edge1" class="edge"><title>Node1&#45;&gt;Node2</title>
<path fill="none" stroke="midnightblue" d="M1097.97,-392.916C1016.65,-381.965 873.374,-362.671 801.194,-352.951"/>
<polygon fill="midnightblue" stroke="midnightblue" points="801.454,-349.455 791.076,-351.589 800.52,-356.392 801.454,-349.455"/>
</g>
<!-- Node23 -->
<g id="node23" class="node"><title>Node23</title>
<g id="a_node23"><a xlink:href="Camera_8hxx.html" target="_top" xlink:title="basics/Camera.hxx">
<polygon fill="none" stroke="black" points="66.5,-112.5 66.5,-131.5 173.5,-131.5 173.5,-112.5 66.5,-112.5"/>
<text text-anchor="middle" x="120" y="-119.5" font-family="Helvetica,sans-Serif" font-size="10.00">basics/Camera.hxx</text>
</a>
</g>
</g>
<!-- Node1&#45;&gt;Node23 -->
<g id="edge39" class="edge"><title>Node1&#45;&gt;Node23</title>
<path fill="none" stroke="midnightblue" d="M1097.78,-398.47C860.078,-388.092 0,-346.693 0,-291 0,-291 0,-291 0,-233 0,-185.08 52.643,-152.382 88.1941,-135.764"/>
<polygon fill="midnightblue" stroke="midnightblue" points="90.013,-138.785 97.7102,-131.504 87.1529,-132.396 90.013,-138.785"/>
</g>
<!-- Node24 -->
<g id="node24" class="node"><title>Node24</title>
<g id="a_node24"><a xlink:href="mapEdit_8hxx.html" target="_top" xlink:title="basics/mapEdit.hxx">
<polygon fill="none" stroke="black" points="1192.5,-280.5 1192.5,-299.5 1301.5,-299.5 1301.5,-280.5 1192.5,-280.5"/>
<text text-anchor="middle" x="1247" y="-287.5" font-family="Helvetica,sans-Serif" font-size="10.00">basics/mapEdit.hxx</text>
</a>
</g>
</g>
<!-- Node1&#45;&gt;Node24 -->
<g id="edge42" class="edge"><title>Node1&#45;&gt;Node24</title>
<path fill="none" stroke="midnightblue" d="M1164.98,-392.368C1179.74,-374.135 1214.29,-331.426 1233.51,-307.675"/>
<polygon fill="midnightblue" stroke="midnightblue" points="1236.48,-309.567 1240.05,-299.591 1231.04,-305.164 1236.48,-309.567"/>
</g>
<!-- Node25 -->
<g id="node25" class="node"><title>Node25</title>
<g id="a_node25"><a xlink:href="Settings_8hxx.html" target="_top" xlink:title="basics/Settings.hxx">
<polygon fill="none" stroke="black" points="1303.5,-112.5 1303.5,-131.5 1412.5,-131.5 1412.5,-112.5 1303.5,-112.5"/>
<text text-anchor="middle" x="1358" y="-119.5" font-family="Helvetica,sans-Serif" font-size="10.00">basics/Settings.hxx</text>
</a>
</g>
</g>
<!-- Node1&#45;&gt;Node25 -->
<g id="edge44" class="edge"><title>Node1&#45;&gt;Node25</title>
<path fill="none" stroke="midnightblue" d="M1205.36,-392.425C1257.18,-379.99 1333,-351.467 1333,-291 1333,-291 1333,-291 1333,-233 1333,-199.995 1343.83,-162.774 1351.24,-141.192"/>
<polygon fill="midnightblue" stroke="midnightblue" points="1354.57,-142.282 1354.63,-131.687 1347.97,-139.93 1354.57,-142.282"/>
</g>
<!-- Node26 -->
<g id="node26" class="node"><title>Node26</title>
<g id="a_node26"><a xlink:href="ResourcesManager_8hxx.html" target="_top" xlink:title="ResourcesManager.hxx">
<polygon fill="none" stroke="black" points="940,-168.5 940,-187.5 1066,-187.5 1066,-168.5 940,-168.5"/>
<text text-anchor="middle" x="1003" y="-175.5" font-family="Helvetica,sans-Serif" font-size="10.00">ResourcesManager.hxx</text>
</a>
</g>
</g>
<!-- Node1&#45;&gt;Node26 -->
<g id="edge47" class="edge"><title>Node1&#45;&gt;Node26</title>
<path fill="none" stroke="midnightblue" d="M1151.92,-392.297C1128.83,-359.217 1046.23,-240.909 1015.04,-196.241"/>
<polygon fill="midnightblue" stroke="midnightblue" points="1017.8,-194.079 1009.2,-187.884 1012.06,-198.087 1017.8,-194.079"/>
</g>
<!-- Node3 -->
<g id="node3" class="node"><title>Node3</title>
<polygon fill="none" stroke="#bfbfbf" points="668.5,-56.5 668.5,-75.5 713.5,-75.5 713.5,-56.5 668.5,-56.5"/>
<text text-anchor="middle" x="691" y="-63.5" font-family="Helvetica,sans-Serif" font-size="10.00">SDL.h</text>
</g>
<!-- Node2&#45;&gt;Node3 -->
<g id="edge2" class="edge"><title>Node2&#45;&gt;Node3</title>
<path fill="none" stroke="midnightblue" d="M751.299,-336.288C740.033,-318.205 716,-274.946 716,-235 716,-235 716,-235 716,-177 716,-143.995 705.166,-106.774 697.762,-85.1916"/>
<polygon fill="midnightblue" stroke="midnightblue" points="701.028,-83.9302 694.372,-75.6873 694.435,-86.282 701.028,-83.9302"/>
</g>
<!-- Node4 -->
<g id="node4" class="node"><title>Node4</title>
<g id="a_node4"><a xlink:href="WindowManager_8hxx.html" target="_top" xlink:title="WindowManager.hxx">
<polygon fill="none" stroke="black" points="782.5,-112.5 782.5,-131.5 895.5,-131.5 895.5,-112.5 782.5,-112.5"/>
<text text-anchor="middle" x="839" y="-119.5" font-family="Helvetica,sans-Serif" font-size="10.00">WindowManager.hxx</text>
</a>
</g>
</g>
<!-- Node2&#45;&gt;Node4 -->
<g id="edge3" class="edge"><title>Node2&#45;&gt;Node4</title>
<path fill="none" stroke="midnightblue" d="M760.214,-336.297C772.331,-303.494 815.403,-186.884 832.212,-141.377"/>
<polygon fill="midnightblue" stroke="midnightblue" points="835.537,-142.477 835.719,-131.884 828.97,-140.052 835.537,-142.477"/>
</g>
<!-- Node8 -->
<g id="node8" class="node"><title>Node8</title>
<g id="a_node8"><a xlink:href="Singleton_8hxx.html" target="_top" xlink:title="../util/Singleton.hxx">
<polygon fill="none" stroke="black" points="1163.5,-56.5 1163.5,-75.5 1270.5,-75.5 1270.5,-56.5 1163.5,-56.5"/>
<text text-anchor="middle" x="1217" y="-63.5" font-family="Helvetica,sans-Serif" font-size="10.00">../util/Singleton.hxx</text>
</a>
</g>
</g>
<!-- Node2&#45;&gt;Node8 -->
<g id="edge38" class="edge"><title>Node2&#45;&gt;Node8</title>
<path fill="none" stroke="midnightblue" d="M791.15,-342.008C881.514,-333.155 1120,-303.32 1120,-235 1120,-235 1120,-235 1120,-177 1120,-133.347 1163.51,-98.8276 1192.24,-80.7868"/>
<polygon fill="midnightblue" stroke="midnightblue" points="1194.23,-83.6789 1200.98,-75.5177 1190.61,-77.6844 1194.23,-83.6789"/>
</g>
<!-- Node9 -->
<g id="node9" class="node"><title>Node9</title>
<g id="a_node9"><a xlink:href="point_8hxx.html" target="_top" xlink:title="basics/point.hxx">
<polygon fill="none" stroke="black" points="114.5,-56.5 114.5,-75.5 207.5,-75.5 207.5,-56.5 114.5,-56.5"/>
<text text-anchor="middle" x="161" y="-63.5" font-family="Helvetica,sans-Serif" font-size="10.00">basics/point.hxx</text>
</a>
</g>
</g>
<!-- Node2&#45;&gt;Node9 -->
<g id="edge9" class="edge"><title>Node2&#45;&gt;Node9</title>
<path fill="none" stroke="midnightblue" d="M722.805,-343.427C579.917,-336.408 38,-305.164 38,-235 38,-235 38,-235 38,-177 38,-146.902 37.077,-134.56 57,-112 71.0926,-96.0421 91.8549,-85.5345 111.13,-78.7208"/>
<polygon fill="midnightblue" stroke="midnightblue" points="112.319,-82.0144 120.732,-75.5752 110.14,-75.3622 112.319,-82.0144"/>
</g>
<!-- Node10 -->
<g id="node10" class="node"><title>Node10</title>
<g id="a_node10"><a xlink:href="Map_8hxx.html" target="_top" xlink:title="Map.hxx">
<polygon fill="none" stroke="black" points="390,-280.5 390,-299.5 446,-299.5 446,-280.5 390,-280.5"/>
<text text-anchor="middle" x="418" y="-287.5" font-family="Helvetica,sans-Serif" font-size="10.00">Map.hxx</text>
</a>
</g>
</g>
<!-- Node2&#45;&gt;Node10 -->
<g id="edge10" class="edge"><title>Node2&#45;&gt;Node10</title>
<path fill="none" stroke="midnightblue" d="M722.943,-339.575C659.352,-329.446 522.979,-307.722 456.297,-297.1"/>
<polygon fill="midnightblue" stroke="midnightblue" points="456.641,-293.611 446.215,-295.494 455.54,-300.524 456.641,-293.611"/>
</g>
<!-- Node4&#45;&gt;Node3 -->
<g id="edge7" class="edge"><title>Node4&#45;&gt;Node3</title>
<path fill="none" stroke="midnightblue" d="M815.549,-112.444C790.722,-103.385 751.355,-89.0213 723.534,-78.8705"/>
<polygon fill="midnightblue" stroke="midnightblue" points="724.449,-75.4787 713.855,-75.339 722.05,-82.0547 724.449,-75.4787"/>
</g>
<!-- Node5 -->
<g id="node5" class="node"><title>Node5</title>
<polygon fill="none" stroke="#bfbfbf" points="932,-0.5 932,-19.5 976,-19.5 976,-0.5 932,-0.5"/>
<text text-anchor="middle" x="954" y="-7.5" font-family="Helvetica,sans-Serif" font-size="10.00">string</text>
</g>
<!-- Node4&#45;&gt;Node5 -->
<g id="edge4" class="edge"><title>Node4&#45;&gt;Node5</title>
<path fill="none" stroke="midnightblue" d="M813.741,-112.465C784.328,-101.173 742.042,-79.8864 761,-56 780.678,-31.2066 871.772,-18.8067 921.456,-13.7929"/>
<polygon fill="midnightblue" stroke="midnightblue" points="922.062,-17.2508 931.68,-12.8066 921.39,-10.2832 922.062,-17.2508"/>
</g>
<!-- Node6 -->
<g id="node6" class="node"><title>Node6</title>
<polygon fill="none" stroke="#bfbfbf" points="770.5,-56.5 770.5,-75.5 829.5,-75.5 829.5,-56.5 770.5,-56.5"/>
<text text-anchor="middle" x="800" y="-63.5" font-family="Helvetica,sans-Serif" font-size="10.00">iostream</text>
</g>
<!-- Node4&#45;&gt;Node6 -->
<g id="edge5" class="edge"><title>Node4&#45;&gt;Node6</title>
<path fill="none" stroke="midnightblue" d="M832.56,-112.083C827.051,-104.455 818.969,-93.2645 812.235,-83.9408"/>
<polygon fill="midnightblue" stroke="midnightblue" points="815.013,-81.8087 806.32,-75.7511 809.338,-85.9071 815.013,-81.8087"/>
</g>
<!-- Node7 -->
<g id="node7" class="node"><title>Node7</title>
<polygon fill="none" stroke="#bfbfbf" points="292.5,-56.5 292.5,-75.5 339.5,-75.5 339.5,-56.5 292.5,-56.5"/>
<text text-anchor="middle" x="316" y="-63.5" font-family="Helvetica,sans-Serif" font-size="10.00">vector</text>
</g>
<!-- Node4&#45;&gt;Node7 -->
<g id="edge6" class="edge"><title>Node4&#45;&gt;Node7</title>
<path fill="none" stroke="midnightblue" d="M782.139,-117.291C692.82,-111.088 514.311,-97.167 364,-76 359.437,-75.3575 354.649,-74.5822 349.936,-73.7595"/>
<polygon fill="midnightblue" stroke="midnightblue" points="350.323,-70.2723 339.857,-71.9157 349.064,-77.158 350.323,-70.2723"/>
</g>
<!-- Node4&#45;&gt;Node8 -->
<g id="edge8" class="edge"><title>Node4&#45;&gt;Node8</title>
<path fill="none" stroke="midnightblue" d="M895.59,-112.916C964.59,-103.059 1080.91,-86.4418 1153.07,-76.1322"/>
<polygon fill="midnightblue" stroke="midnightblue" points="1153.99,-79.5375 1163.39,-74.6584 1153,-72.6079 1153.99,-79.5375"/>
</g>
<!-- Node10&#45;&gt;Node7 -->
<g id="edge11" class="edge"><title>Node10&#45;&gt;Node7</title>
<path fill="none" stroke="midnightblue" d="M389.9,-288.223C359.119,-285.685 311.066,-276.393 288,-244 253.016,-194.869 287.074,-118.646 305.669,-84.5377"/>
<polygon fill="midnightblue" stroke="midnightblue" points="308.771,-86.1631 310.642,-75.7348 302.676,-82.7199 308.771,-86.1631"/>
</g>
<!-- Node11 -->
<g id="node11" class="node"><title>Node11</title>
<g id="a_node11"><a xlink:href="MapNode_8hxx.html" target="_top" xlink:title="GameObjects/MapNode.hxx">
<polygon fill="none" stroke="black" points="400,-168.5 400,-187.5 550,-187.5 550,-168.5 400,-168.5"/>
<text text-anchor="middle" x="475" y="-175.5" font-family="Helvetica,sans-Serif" font-size="10.00">GameObjects/MapNode.hxx</text>
</a>
</g>
</g>
<!-- Node10&#45;&gt;Node11 -->
<g id="edge12" class="edge"><title>Node10&#45;&gt;Node11</title>
<path fill="none" stroke="midnightblue" d="M423.947,-280.247C429.884,-271.33 439.096,-257.003 446,-244 454.231,-228.499 462.255,-210.19 467.769,-196.961"/>
<polygon fill="midnightblue" stroke="midnightblue" points="471.055,-198.171 471.608,-187.591 464.578,-195.517 471.055,-198.171"/>
</g>
<!-- Node21 -->
<g id="node21" class="node"><title>Node21</title>
<g id="a_node21"><a xlink:href="TerrainGenerator_8hxx.html" target="_top" xlink:title="map/TerrainGenerator.hxx">
<polygon fill="none" stroke="black" points="297,-224.5 297,-243.5 437,-243.5 437,-224.5 297,-224.5"/>
<text text-anchor="middle" x="367" y="-231.5" font-family="Helvetica,sans-Serif" font-size="10.00">map/TerrainGenerator.hxx</text>
</a>
</g>
</g>
<!-- Node10&#45;&gt;Node21 -->
<g id="edge34" class="edge"><title>Node10&#45;&gt;Node21</title>
<path fill="none" stroke="midnightblue" d="M409.578,-280.083C402.152,-272.22 391.148,-260.569 382.188,-251.081"/>
<polygon fill="midnightblue" stroke="midnightblue" points="384.676,-248.618 375.265,-243.751 379.587,-253.424 384.676,-248.618"/>
</g>
<!-- Node11&#45;&gt;Node3 -->
<g id="edge13" class="edge"><title>Node11&#45;&gt;Node3</title>
<path fill="none" stroke="midnightblue" d="M550.051,-171.596C584.537,-165.935 624.277,-154.586 654,-132 669.474,-120.241 679.502,-100.014 685.162,-85.2395"/>
<polygon fill="midnightblue" stroke="midnightblue" points="688.52,-86.2392 688.527,-75.6443 681.915,-83.9225 688.52,-86.2392"/>
</g>
<!-- Node11&#45;&gt;Node5 -->
<g id="edge15" class="edge"><title>Node11&#45;&gt;Node5</title>
<path fill="none" stroke="midnightblue" d="M540.473,-168.45C567.834,-162.123 598.439,-151.121 621,-132 649.809,-107.583 628.469,-78.2264 659,-56 700.447,-25.827 854.123,-15.4118 921.729,-12.2387"/>
<polygon fill="midnightblue" stroke="midnightblue" points="921.976,-15.7313 931.81,-11.7897 921.664,-8.73824 921.976,-15.7313"/>
</g>
<!-- Node11&#45;&gt;Node7 -->
<g id="edge17" class="edge"><title>Node11&#45;&gt;Node7</title>
<path fill="none" stroke="midnightblue" d="M405.495,-168.456C380.358,-162.122 353.612,-151.114 335,-132 323.092,-119.77 318.579,-100.506 316.904,-86.119"/>
<polygon fill="midnightblue" stroke="midnightblue" points="320.369,-85.5433 316.082,-75.8547 313.392,-86.1023 320.369,-85.5433"/>
</g>
<!-- Node11&#45;&gt;Node9 -->
<g id="edge25" class="edge"><title>Node11&#45;&gt;Node9</title>
<path fill="none" stroke="midnightblue" d="M441.723,-168.43C410.117,-160.035 361.41,-146.43 320,-132 273.752,-115.884 221.407,-93.6953 189.82,-79.8577"/>
<polygon fill="midnightblue" stroke="midnightblue" points="190.891,-76.5047 180.328,-75.6767 188.069,-82.9108 190.891,-76.5047"/>
</g>
<!-- Node12 -->
<g id="node12" class="node"><title>Node12</title>
<polygon fill="none" stroke="#bfbfbf" points="474.5,-112.5 474.5,-131.5 531.5,-131.5 531.5,-112.5 474.5,-112.5"/>
<text text-anchor="middle" x="503" y="-119.5" font-family="Helvetica,sans-Serif" font-size="10.00">memory</text>
</g>
<!-- Node11&#45;&gt;Node12 -->
<g id="edge14" class="edge"><title>Node11&#45;&gt;Node12</title>
<path fill="none" stroke="midnightblue" d="M479.624,-168.083C483.456,-160.691 489.024,-149.953 493.765,-140.811"/>
<polygon fill="midnightblue" stroke="midnightblue" points="496.966,-142.24 498.462,-131.751 490.752,-139.018 496.966,-142.24"/>
</g>
<!-- Node13 -->
<g id="node13" class="node"><title>Node13</title>
<polygon fill="none" stroke="#bfbfbf" points="550,-112.5 550,-131.5 612,-131.5 612,-112.5 550,-112.5"/>
<text text-anchor="middle" x="581" y="-119.5" font-family="Helvetica,sans-Serif" font-size="10.00">algorithm</text>
</g>
<!-- Node11&#45;&gt;Node13 -->
<g id="edge16" class="edge"><title>Node11&#45;&gt;Node13</title>
<path fill="none" stroke="midnightblue" d="M492.031,-168.324C509.03,-159.664 535.376,-146.242 554.993,-136.249"/>
<polygon fill="midnightblue" stroke="midnightblue" points="556.69,-139.312 564.012,-131.655 553.512,-133.075 556.69,-139.312"/>
</g>
<!-- Node14 -->
<g id="node14" class="node"><title>Node14</title>
<g id="a_node14"><a xlink:href="Sprite_8hxx.html" target="_top" xlink:title="../Sprite.hxx">
<polygon fill="none" stroke="black" points="344,-112.5 344,-131.5 418,-131.5 418,-112.5 344,-112.5"/>
<text text-anchor="middle" x="381" y="-119.5" font-family="Helvetica,sans-Serif" font-size="10.00">../Sprite.hxx</text>
</a>
</g>
</g>
<!-- Node11&#45;&gt;Node14 -->
<g id="edge18" class="edge"><title>Node11&#45;&gt;Node14</title>
<path fill="none" stroke="midnightblue" d="M459.897,-168.324C445.097,-159.822 422.306,-146.729 405.018,-136.797"/>
<polygon fill="midnightblue" stroke="midnightblue" points="406.48,-133.601 396.065,-131.655 402.993,-139.671 406.48,-133.601"/>
</g>
<!-- Node15 -->
<g id="node15" class="node"><title>Node15</title>
<g id="a_node15"><a xlink:href="enums_8hxx.html" target="_top" xlink:title="common/enums.hxx">
<polygon fill="none" stroke="black" points="373.5,-56.5 373.5,-75.5 488.5,-75.5 488.5,-56.5 373.5,-56.5"/>
<text text-anchor="middle" x="431" y="-63.5" font-family="Helvetica,sans-Serif" font-size="10.00">common/enums.hxx</text>
</a>
</g>
</g>
<!-- Node11&#45;&gt;Node15 -->
<g id="edge24" class="edge"><title>Node11&#45;&gt;Node15</title>
<path fill="none" stroke="midnightblue" d="M471.547,-168.368C464.383,-150.456 447.769,-108.923 438.179,-84.9482"/>
<polygon fill="midnightblue" stroke="midnightblue" points="441.4,-83.5763 434.437,-75.5914 434.901,-86.1761 441.4,-83.5763"/>
</g>
<!-- Node17 -->
<g id="node17" class="node"><title>Node17</title>
<g id="a_node17"><a xlink:href="TileManager_8hxx.html" target="_top" xlink:title="../TileManager.hxx">
<polygon fill="none" stroke="black" points="952,-112.5 952,-131.5 1054,-131.5 1054,-112.5 952,-112.5"/>
<text text-anchor="middle" x="1003" y="-119.5" font-family="Helvetica,sans-Serif" font-size="10.00">../TileManager.hxx</text>
</a>
</g>
</g>
<!-- Node11&#45;&gt;Node17 -->
<g id="edge26" class="edge"><title>Node11&#45;&gt;Node17</title>
<path fill="none" stroke="midnightblue" d="M550.089,-169.32C655.268,-158.563 844.458,-139.215 941.667,-129.273"/>
<polygon fill="midnightblue" stroke="midnightblue" points="942.042,-132.753 951.634,-128.253 941.33,-125.789 942.042,-132.753"/>
</g>
<!-- Node14&#45;&gt;Node3 -->
<g id="edge19" class="edge"><title>Node14&#45;&gt;Node3</title>
<path fill="none" stroke="midnightblue" d="M418.085,-114.54C479.208,-103.893 600.116,-82.8314 658.262,-72.7028"/>
<polygon fill="midnightblue" stroke="midnightblue" points="659.109,-76.108 668.36,-70.9438 657.908,-69.2118 659.109,-76.108"/>
</g>
<!-- Node14&#45;&gt;Node7 -->
<g id="edge20" class="edge"><title>Node14&#45;&gt;Node7</title>
<path fill="none" stroke="midnightblue" d="M370.557,-112.324C360.854,-104.263 346.185,-92.0765 334.5,-82.3695"/>
<polygon fill="midnightblue" stroke="midnightblue" points="336.562,-79.532 326.633,-75.8339 332.089,-84.9163 336.562,-79.532"/>
</g>
<!-- Node14&#45;&gt;Node9 -->
<g id="edge21" class="edge"><title>Node14&#45;&gt;Node9</title>
<path fill="none" stroke="midnightblue" d="M346.14,-112.444C308.084,-103.102 247.042,-88.1194 205.54,-77.9326"/>
<polygon fill="midnightblue" stroke="midnightblue" points="206.243,-74.5012 195.697,-75.5164 204.574,-81.2994 206.243,-74.5012"/>
</g>
<!-- Node14&#45;&gt;Node15 -->
<g id="edge22" class="edge"><title>Node14&#45;&gt;Node15</title>
<path fill="none" stroke="midnightblue" d="M389.256,-112.083C396.465,-104.298 407.11,-92.8015 415.846,-83.3665"/>
<polygon fill="midnightblue" stroke="midnightblue" points="418.671,-85.4666 422.897,-75.7511 413.535,-80.7108 418.671,-85.4666"/>
</g>
<!-- Node16 -->
<g id="node16" class="node"><title>Node16</title>
<polygon fill="none" stroke="#bfbfbf" points="403.5,-0.5 403.5,-19.5 458.5,-19.5 458.5,-0.5 403.5,-0.5"/>
<text text-anchor="middle" x="431" y="-7.5" font-family="Helvetica,sans-Serif" font-size="10.00">stddef.h</text>
</g>
<!-- Node15&#45;&gt;Node16 -->
<g id="edge23" class="edge"><title>Node15&#45;&gt;Node16</title>
<path fill="none" stroke="midnightblue" d="M431,-56.083C431,-49.0059 431,-38.8611 431,-29.9865"/>
<polygon fill="midnightblue" stroke="midnightblue" points="434.5,-29.751 431,-19.7511 427.5,-29.7511 434.5,-29.751"/>
</g>
<!-- Node17&#45;&gt;Node3 -->
<g id="edge27" class="edge"><title>Node17&#45;&gt;Node3</title>
<path fill="none" stroke="midnightblue" d="M953.563,-112.444C889.155,-101.296 778.324,-82.1137 723.566,-72.6363"/>
<polygon fill="midnightblue" stroke="midnightblue" points="724.155,-69.1864 713.704,-70.9296 722.961,-76.0838 724.155,-69.1864"/>
</g>
<!-- Node17&#45;&gt;Node5 -->
<g id="edge29" class="edge"><title>Node17&#45;&gt;Node5</title>
<path fill="none" stroke="midnightblue" d="M1005.63,-112.113C1008.97,-99.1333 1013.36,-74.5234 1005,-56 999.384,-43.5553 988.437,-33.1723 978.121,-25.5273"/>
<polygon fill="midnightblue" stroke="midnightblue" points="979.958,-22.5431 969.734,-19.7643 975.994,-28.3123 979.958,-22.5431"/>
</g>
<!-- Node17&#45;&gt;Node8 -->
<g id="edge33" class="edge"><title>Node17&#45;&gt;Node8</title>
<path fill="none" stroke="midnightblue" d="M1036.91,-112.444C1073.85,-103.122 1133.05,-88.1828 1173.42,-77.9972"/>
<polygon fill="midnightblue" stroke="midnightblue" points="1174.41,-81.3568 1183.25,-75.5164 1172.7,-74.5695 1174.41,-81.3568"/>
</g>
<!-- Node18 -->
<g id="node18" class="node"><title>Node18</title>
<polygon fill="none" stroke="#bfbfbf" points="1052.5,-56.5 1052.5,-75.5 1145.5,-75.5 1145.5,-56.5 1052.5,-56.5"/>
<text text-anchor="middle" x="1099" y="-63.5" font-family="Helvetica,sans-Serif" font-size="10.00">unordered_map</text>
</g>
<!-- Node17&#45;&gt;Node18 -->
<g id="edge28" class="edge"><title>Node17&#45;&gt;Node18</title>
<path fill="none" stroke="midnightblue" d="M1018.42,-112.324C1033.54,-103.822 1056.82,-90.7288 1074.47,-80.7975"/>
<polygon fill="midnightblue" stroke="midnightblue" points="1076.61,-83.6077 1083.61,-75.6545 1073.18,-77.5066 1076.61,-83.6077"/>
</g>
<!-- Node19 -->
<g id="node19" class="node"><title>Node19</title>
<g id="a_node19"><a xlink:href="tileData_8hxx.html" target="_top" xlink:title="tileData.hxx">
<polygon fill="none" stroke="black" points="848,-56.5 848,-75.5 922,-75.5 922,-56.5 848,-56.5"/>
<text text-anchor="middle" x="885" y="-63.5" font-family="Helvetica,sans-Serif" font-size="10.00">tileData.hxx</text>
</a>
</g>
</g>
<!-- Node17&#45;&gt;Node19 -->
<g id="edge30" class="edge"><title>Node17&#45;&gt;Node19</title>
<path fill="none" stroke="midnightblue" d="M984.303,-112.444C965.056,-103.636 934.848,-89.8116 912.8,-79.722"/>
<polygon fill="midnightblue" stroke="midnightblue" points="914.16,-76.4951 903.61,-75.5164 911.247,-82.8603 914.16,-76.4951"/>
</g>
<!-- Node20 -->
<g id="node20" class="node"><title>Node20</title>
<polygon fill="none" stroke="#bfbfbf" points="940,-56.5 940,-75.5 996,-75.5 996,-56.5 940,-56.5"/>
<text text-anchor="middle" x="968" y="-63.5" font-family="Helvetica,sans-Serif" font-size="10.00">json.hxx</text>
</g>
<!-- Node17&#45;&gt;Node20 -->
<g id="edge32" class="edge"><title>Node17&#45;&gt;Node20</title>
<path fill="none" stroke="midnightblue" d="M997.22,-112.083C992.328,-104.534 985.173,-93.4948 979.167,-84.2298"/>
<polygon fill="midnightblue" stroke="midnightblue" points="982.048,-82.239 973.672,-75.7511 976.174,-86.0463 982.048,-82.239"/>
</g>
<!-- Node19&#45;&gt;Node5 -->
<g id="edge31" class="edge"><title>Node19&#45;&gt;Node5</title>
<path fill="none" stroke="midnightblue" d="M896.086,-56.324C906.486,-48.1849 922.261,-35.8395 934.722,-26.0874"/>
<polygon fill="midnightblue" stroke="midnightblue" points="936.994,-28.7533 942.712,-19.8339 932.68,-23.2407 936.994,-28.7533"/>
</g>
<!-- Node21&#45;&gt;Node7 -->
<g id="edge37" class="edge"><title>Node21&#45;&gt;Node7</title>
<path fill="none" stroke="midnightblue" d="M359.358,-224.29C352.128,-215.634 341.451,-201.704 335,-188 319.208,-154.449 316.114,-110.462 315.747,-85.824"/>
<polygon fill="midnightblue" stroke="midnightblue" points="319.247,-85.6893 315.738,-75.6925 312.247,-85.6957 319.247,-85.6893"/>
</g>
<!-- Node21&#45;&gt;Node11 -->
<g id="edge35" class="edge"><title>Node21&#45;&gt;Node11</title>
<path fill="none" stroke="midnightblue" d="M384.352,-224.324C401.672,-215.664 428.515,-202.242 448.502,-192.249"/>
<polygon fill="midnightblue" stroke="midnightblue" points="450.312,-195.257 457.691,-187.655 447.181,-188.996 450.312,-195.257"/>
</g>
<!-- Node22 -->
<g id="node22" class="node"><title>Node22</title>
<polygon fill="none" stroke="#bfbfbf" points="344,-168.5 344,-187.5 382,-187.5 382,-168.5 344,-168.5"/>
<text text-anchor="middle" x="363" y="-175.5" font-family="Helvetica,sans-Serif" font-size="10.00">map</text>
</g>
<!-- Node21&#45;&gt;Node22 -->
<g id="edge36" class="edge"><title>Node21&#45;&gt;Node22</title>
<path fill="none" stroke="midnightblue" d="M366.339,-224.083C365.815,-217.006 365.064,-206.861 364.406,-197.986"/>
<polygon fill="midnightblue" stroke="midnightblue" points="367.877,-197.465 363.648,-187.751 360.897,-197.982 367.877,-197.465"/>
</g>
<!-- Node23&#45;&gt;Node3 -->
<g id="edge40" class="edge"><title>Node23&#45;&gt;Node3</title>
<path fill="none" stroke="midnightblue" d="M173.718,-115.92C290.403,-104.885 564.1,-79.001 658.395,-70.0835"/>
<polygon fill="midnightblue" stroke="midnightblue" points="658.852,-73.556 668.478,-69.1299 658.193,-66.5871 658.852,-73.556"/>
</g>
<!-- Node23&#45;&gt;Node9 -->
<g id="edge41" class="edge"><title>Node23&#45;&gt;Node9</title>
<path fill="none" stroke="midnightblue" d="M126.77,-112.083C132.562,-104.455 141.058,-93.2645 148.138,-83.9408"/>
<polygon fill="midnightblue" stroke="midnightblue" points="151.096,-85.8321 154.356,-75.7511 145.521,-81.5991 151.096,-85.8321"/>
</g>
<!-- Node24&#45;&gt;Node5 -->
<g id="edge43" class="edge"><title>Node24&#45;&gt;Node5</title>
<path fill="none" stroke="midnightblue" d="M1249.87,-280.351C1262.22,-242.331 1308.97,-90.4059 1279,-56 1241.29,-12.7078 1061.45,-9.69294 986.697,-10.3672"/>
<polygon fill="midnightblue" stroke="midnightblue" points="986.418,-6.87017 976.46,-10.4891 986.501,-13.8697 986.418,-6.87017"/>
</g>
<!-- Node25&#45;&gt;Node5 -->
<g id="edge45" class="edge"><title>Node25&#45;&gt;Node5</title>
<path fill="none" stroke="midnightblue" d="M1354.64,-112.046C1348.69,-97.5504 1334.83,-69.234 1313,-56 1258.36,-22.8787 1063.86,-13.981 986.285,-11.7234"/>
<polygon fill="midnightblue" stroke="midnightblue" points="986.233,-8.22075 976.141,-11.447 986.042,-15.2182 986.233,-8.22075"/>
</g>
<!-- Node25&#45;&gt;Node8 -->
<g id="edge46" class="edge"><title>Node25&#45;&gt;Node8</title>
<path fill="none" stroke="midnightblue" d="M1335.66,-112.444C1312.25,-103.478 1275.26,-89.314 1248.81,-79.1827"/>
<polygon fill="midnightblue" stroke="midnightblue" points="1249.83,-75.8245 1239.24,-75.5164 1247.32,-82.3615 1249.83,-75.8245"/>
</g>
<!-- Node26&#45;&gt;Node3 -->
<g id="edge50" class="edge"><title>Node26&#45;&gt;Node3</title>
<path fill="none" stroke="midnightblue" d="M939.509,-172.722C891.877,-167.613 826.029,-156.432 773,-132 746.867,-119.96 721.681,-97.936 706.275,-82.8917"/>
<polygon fill="midnightblue" stroke="midnightblue" points="708.695,-80.362 699.156,-75.7506 703.737,-85.3038 708.695,-80.362"/>
</g>
<!-- Node26&#45;&gt;Node6 -->
<g id="edge48" class="edge"><title>Node26&#45;&gt;Node6</title>
<path fill="none" stroke="midnightblue" d="M991.222,-168.3C973.078,-155.124 936.935,-129.765 904,-112 880.682,-99.422 853.116,-87.6242 832.225,-79.2667"/>
<polygon fill="midnightblue" stroke="midnightblue" points="833.432,-75.9802 822.845,-75.5653 830.862,-82.4916 833.432,-75.9802"/>
</g>
<!-- Node26&#45;&gt;Node17 -->
<g id="edge51" class="edge"><title>Node26&#45;&gt;Node17</title>
<path fill="none" stroke="midnightblue" d="M1003,-168.083C1003,-161.006 1003,-150.861 1003,-141.986"/>
<polygon fill="midnightblue" stroke="midnightblue" points="1006.5,-141.751 1003,-131.751 999.5,-141.751 1006.5,-141.751"/>
</g>
<!-- Node26&#45;&gt;Node18 -->
<g id="edge49" class="edge"><title>Node26&#45;&gt;Node18</title>
<path fill="none" stroke="midnightblue" d="M1017.71,-168.463C1030.79,-160.334 1049.83,-147.121 1063,-132 1075.29,-117.892 1085.21,-98.9071 1091.5,-85.0992"/>
<polygon fill="midnightblue" stroke="midnightblue" points="1094.8,-86.2819 1095.58,-75.7158 1088.38,-83.4892 1094.8,-86.2819"/>
</g>
</g>
</svg>
