<?xml version="1.0" encoding="UTF-8" standalone="no"?>
<!DOCTYPE svg PUBLIC "-//W3C//DTD SVG 1.1//EN"
 "http://www.w3.org/Graphics/SVG/1.1/DTD/svg11.dtd">
<!-- Generated by graphviz version 2.38.0 (20140413.2041)
 -->
<!-- Title: src/engine/Engine.hxx Pages: 1 -->
<svg width="1102pt" height="364pt"
 viewBox="0.00 0.00 1101.50 364.00" xmlns="http://www.w3.org/2000/svg" xmlns:xlink="http://www.w3.org/1999/xlink">
<g id="graph0" class="graph" transform="scale(1 1) rotate(0) translate(4 360)">
<title>src/engine/Engine.hxx</title>
<!-- Node1 -->
<g id="node1" class="node"><title>Node1</title>
<polygon fill="#bfbfbf" stroke="black" points="481,-336.5 481,-355.5 602,-355.5 602,-336.5 481,-336.5"/>
<text text-anchor="middle" x="541.5" y="-343.5" font-family="Helvetica,sans-Serif" font-size="10.00">src/engine/Engine.hxx</text>
</g>
<!-- Node2 -->
<g id="node2" class="node"><title>Node2</title>
<polygon fill="none" stroke="#bfbfbf" points="557,-56.5 557,-75.5 602,-75.5 602,-56.5 557,-56.5"/>
<text text-anchor="middle" x="579.5" y="-63.5" font-family="Helvetica,sans-Serif" font-size="10.00">SDL.h</text>
</g>
<!-- Node1&#45;&gt;Node2 -->
<g id="edge1" class="edge"><title>Node1&#45;&gt;Node2</title>
<path fill="none" stroke="midnightblue" d="M541.5,-336.442C541.5,-317.936 541.5,-272.812 541.5,-235 541.5,-235 541.5,-235 541.5,-177 541.5,-142.813 558.1,-105.764 569.357,-84.5707"/>
<polygon fill="midnightblue" stroke="midnightblue" points="572.447,-86.2151 574.216,-75.769 566.319,-82.832 572.447,-86.2151"/>
</g>
<!-- Node3 -->
<g id="node3" class="node"><title>Node3</title>
<g id="a_node3"><a xlink:href="WindowManager_8hxx.html" target="_top" xlink:title="WindowManager.hxx">
<polygon fill="none" stroke="black" points="129,-112.5 129,-131.5 242,-131.5 242,-112.5 129,-112.5"/>
<text text-anchor="middle" x="185.5" y="-119.5" font-family="Helvetica,sans-Serif" font-size="10.00">WindowManager.hxx</text>
</a>
</g>
</g>
<!-- Node1&#45;&gt;Node3 -->
<g id="edge2" class="edge"><title>Node1&#45;&gt;Node3</title>
<path fill="none" stroke="midnightblue" d="M480.795,-339.775C417.162,-333.304 322.352,-320.551 292.5,-300 234.872,-260.327 202.983,-178.511 191.035,-141.685"/>
<polygon fill="midnightblue" stroke="midnightblue" points="194.272,-140.307 187.961,-131.797 187.588,-142.385 194.272,-140.307"/>
</g>
<!-- Node7 -->
<g id="node7" class="node"><title>Node7</title>
<g id="a_node7"><a xlink:href="Singleton_8hxx.html" target="_top" xlink:title="../util/Singleton.hxx">
<polygon fill="none" stroke="black" points="116,-56.5 116,-75.5 223,-75.5 223,-56.5 116,-56.5"/>
<text text-anchor="middle" x="169.5" y="-63.5" font-family="Helvetica,sans-Serif" font-size="10.00">../util/Singleton.hxx</text>
</a>
</g>
</g>
<!-- Node1&#45;&gt;Node7 -->
<g id="edge37" class="edge"><title>Node1&#45;&gt;Node7</title>
<path fill="none" stroke="midnightblue" d="M480.982,-342.149C411.353,-335.233 306.5,-312.03 306.5,-235 306.5,-235 306.5,-235 306.5,-177 306.5,-125.995 248.051,-94.6906 207.507,-79.1111"/>
<polygon fill="midnightblue" stroke="midnightblue" points="208.48,-75.7399 197.886,-75.5759 206.066,-82.3103 208.48,-75.7399"/>
</g>
<!-- Node8 -->
<g id="node8" class="node"><title>Node8</title>
<g id="a_node8"><a xlink:href="point_8hxx.html" target="_top" xlink:title="basics/point.hxx">
<polygon fill="none" stroke="black" points="958,-56.5 958,-75.5 1051,-75.5 1051,-56.5 958,-56.5"/>
<text text-anchor="middle" x="1004.5" y="-63.5" font-family="Helvetica,sans-Serif" font-size="10.00">basics/point.hxx</text>
</a>
</g>
</g>
<!-- Node1&#45;&gt;Node8 -->
<g id="edge8" class="edge"><title>Node1&#45;&gt;Node8</title>
<path fill="none" stroke="midnightblue" d="M602.153,-345.563C745.547,-345.263 1093.5,-334.306 1093.5,-235 1093.5,-235 1093.5,-235 1093.5,-177 1093.5,-134.846 1053.51,-99.7791 1027.14,-81.2392"/>
<polygon fill="midnightblue" stroke="midnightblue" points="1029.04,-78.3003 1018.8,-75.5989 1025.12,-84.0994 1029.04,-78.3003"/>
</g>
<!-- Node9 -->
<g id="node9" class="node"><title>Node9</title>
<g id="a_node9"><a xlink:href="Map_8hxx.html" target="_top" xlink:title="Map.hxx">
<polygon fill="none" stroke="black" points="776.5,-280.5 776.5,-299.5 832.5,-299.5 832.5,-280.5 776.5,-280.5"/>
<text text-anchor="middle" x="804.5" y="-287.5" font-family="Helvetica,sans-Serif" font-size="10.00">Map.hxx</text>
</a>
</g>
</g>
<!-- Node1&#45;&gt;Node9 -->
<g id="edge9" class="edge"><title>Node1&#45;&gt;Node9</title>
<path fill="none" stroke="midnightblue" d="M583.173,-336.444C633.611,-326.087 717.823,-308.797 766.534,-298.795"/>
<polygon fill="midnightblue" stroke="midnightblue" points="767.273,-302.217 776.365,-296.777 765.865,-295.36 767.273,-302.217"/>
</g>
<!-- Node3&#45;&gt;Node2 -->
<g id="edge6" class="edge"><title>Node3&#45;&gt;Node2</title>
<path fill="none" stroke="midnightblue" d="M242.046,-116.624C311.616,-110.652 433.419,-98.2834 546.971,-75.8083"/>
<polygon fill="midnightblue" stroke="midnightblue" points="547.763,-79.2192 556.877,-73.8173 546.383,-72.3565 547.763,-79.2192"/>
</g>
<!-- Node4 -->
<g id="node4" class="node"><title>Node4</title>
<polygon fill="none" stroke="#bfbfbf" points="354.5,-0.5 354.5,-19.5 398.5,-19.5 398.5,-0.5 354.5,-0.5"/>
<text text-anchor="middle" x="376.5" y="-7.5" font-family="Helvetica,sans-Serif" font-size="10.00">string</text>
</g>
<!-- Node3&#45;&gt;Node4 -->
<g id="edge3" class="edge"><title>Node3&#45;&gt;Node4</title>
<path fill="none" stroke="midnightblue" d="M159.969,-112.425C129.949,-101.011 86.5817,-79.5127 106.5,-56 136.615,-20.4501 279.002,-12.9585 344.002,-11.3991"/>
<polygon fill="midnightblue" stroke="midnightblue" points="344.18,-14.8963 354.105,-11.19 344.035,-7.89777 344.18,-14.8963"/>
</g>
<!-- Node5 -->
<g id="node5" class="node"><title>Node5</title>
<polygon fill="none" stroke="#bfbfbf" points="0,-56.5 0,-75.5 59,-75.5 59,-56.5 0,-56.5"/>
<text text-anchor="middle" x="29.5" y="-63.5" font-family="Helvetica,sans-Serif" font-size="10.00">iostream</text>
</g>
<!-- Node3&#45;&gt;Node5 -->
<g id="edge4" class="edge"><title>Node3&#45;&gt;Node5</title>
<path fill="none" stroke="midnightblue" d="M160.781,-112.444C134.652,-103.399 93.2406,-89.064 63.9236,-78.9158"/>
<polygon fill="midnightblue" stroke="midnightblue" points="64.6978,-75.4801 54.103,-75.5164 62.408,-82.0951 64.6978,-75.4801"/>
</g>
<!-- Node6 -->
<g id="node6" class="node"><title>Node6</title>
<polygon fill="none" stroke="#bfbfbf" points="893,-56.5 893,-75.5 940,-75.5 940,-56.5 893,-56.5"/>
<text text-anchor="middle" x="916.5" y="-63.5" font-family="Helvetica,sans-Serif" font-size="10.00">vector</text>
</g>
<!-- Node3&#45;&gt;Node6 -->
<g id="edge5" class="edge"><title>Node3&#45;&gt;Node6</title>
<path fill="none" stroke="midnightblue" d="M242.243,-117.767C354.876,-111.192 614.627,-95.2418 832.5,-76 849.119,-74.5323 867.553,-72.592 882.909,-70.8888"/>
<polygon fill="midnightblue" stroke="midnightblue" points="883.441,-74.3512 892.988,-69.7564 882.66,-67.3949 883.441,-74.3512"/>
</g>
<!-- Node3&#45;&gt;Node7 -->
<g id="edge7" class="edge"><title>Node3&#45;&gt;Node7</title>
<path fill="none" stroke="midnightblue" d="M182.858,-112.083C180.714,-104.849 177.621,-94.4087 174.951,-85.3968"/>
<polygon fill="midnightblue" stroke="midnightblue" points="178.29,-84.3447 172.093,-75.7511 171.578,-86.3334 178.29,-84.3447"/>
</g>
<!-- Node9&#45;&gt;Node6 -->
<g id="edge10" class="edge"><title>Node9&#45;&gt;Node6</title>
<path fill="none" stroke="midnightblue" d="M832.52,-287.95C863.669,-285.174 913.064,-275.676 939.5,-244 977.366,-198.629 976.155,-167.369 955.5,-112 951.327,-100.812 942.98,-90.5598 935.076,-82.6759"/>
<polygon fill="midnightblue" stroke="midnightblue" points="937.201,-79.8724 927.49,-75.6346 932.438,-85.0029 937.201,-79.8724"/>
</g>
<!-- Node10 -->
<g id="node10" class="node"><title>Node10</title>
<g id="a_node10"><a xlink:href="MapNode_8hxx.html" target="_top" xlink:title="GameObjects/MapNode.hxx">
<polygon fill="none" stroke="black" points="676.5,-168.5 676.5,-187.5 826.5,-187.5 826.5,-168.5 676.5,-168.5"/>
<text text-anchor="middle" x="751.5" y="-175.5" font-family="Helvetica,sans-Serif" font-size="10.00">GameObjects/MapNode.hxx</text>
</a>
</g>
</g>
<!-- Node9&#45;&gt;Node10 -->
<g id="edge11" class="edge"><title>Node9&#45;&gt;Node10</title>
<path fill="none" stroke="midnightblue" d="M799.988,-280.425C795.274,-271.408 787.714,-256.783 781.5,-244 773.869,-228.3 765.581,-210.262 759.654,-197.177"/>
<polygon fill="midnightblue" stroke="midnightblue" points="762.765,-195.562 755.464,-187.884 756.384,-198.439 762.765,-195.562"/>
</g>
<!-- Node20 -->
<g id="node20" class="node"><title>Node20</title>
<g id="a_node20"><a xlink:href="TerrainGenerator_8hxx.html" target="_top" xlink:title="map/TerrainGenerator.hxx">
<polygon fill="none" stroke="black" points="790.5,-224.5 790.5,-243.5 930.5,-243.5 930.5,-224.5 790.5,-224.5"/>
<text text-anchor="middle" x="860.5" y="-231.5" font-family="Helvetica,sans-Serif" font-size="10.00">map/TerrainGenerator.hxx</text>
</a>
</g>
</g>
<!-- Node9&#45;&gt;Node20 -->
<g id="edge33" class="edge"><title>Node9&#45;&gt;Node20</title>
<path fill="none" stroke="midnightblue" d="M813.497,-280.324C821.694,-272.42 834.006,-260.548 843.972,-250.938"/>
<polygon fill="midnightblue" stroke="midnightblue" points="846.57,-253.295 851.339,-243.834 841.711,-248.256 846.57,-253.295"/>
</g>
<!-- Node10&#45;&gt;Node2 -->
<g id="edge12" class="edge"><title>Node10&#45;&gt;Node2</title>
<path fill="none" stroke="midnightblue" d="M678.041,-168.422C651.783,-162.077 623.721,-151.071 603.5,-132 590.668,-119.898 584.662,-100.336 581.873,-85.8294"/>
<polygon fill="midnightblue" stroke="midnightblue" points="585.326,-85.2591 580.306,-75.9288 578.412,-86.3529 585.326,-85.2591"/>
</g>
<!-- Node10&#45;&gt;Node4 -->
<g id="edge14" class="edge"><title>Node10&#45;&gt;Node4</title>
<path fill="none" stroke="midnightblue" d="M729.544,-168.404C711.589,-160.669 686.201,-148.06 667.5,-132 635.468,-104.492 646.303,-78.3793 610.5,-56 547.066,-16.3503 456.497,-10.2618 408.774,-10.1051"/>
<polygon fill="midnightblue" stroke="midnightblue" points="408.693,-6.60534 398.712,-10.1593 408.731,-13.6052 408.693,-6.60534"/>
</g>
<!-- Node10&#45;&gt;Node6 -->
<g id="edge16" class="edge"><title>Node10&#45;&gt;Node6</title>
<path fill="none" stroke="midnightblue" d="M815.112,-168.446C858.035,-161.219 909.193,-149.262 922.5,-132 932.645,-118.84 929.201,-99.4317 924.405,-85.2498"/>
<polygon fill="midnightblue" stroke="midnightblue" points="927.55,-83.6775 920.678,-75.6136 921.021,-86.2029 927.55,-83.6775"/>
</g>
<!-- Node10&#45;&gt;Node8 -->
<g id="edge24" class="edge"><title>Node10&#45;&gt;Node8</title>
<path fill="none" stroke="midnightblue" d="M826.828,-168.911C862.967,-162.638 905.831,-151.55 940.5,-132 961.748,-120.018 980.596,-98.9235 992.241,-84.0196"/>
<polygon fill="midnightblue" stroke="midnightblue" points="995.302,-85.7721 998.517,-75.6767 989.708,-81.5639 995.302,-85.7721"/>
</g>
<!-- Node11 -->
<g id="node11" class="node"><title>Node11</title>
<polygon fill="none" stroke="#bfbfbf" points="684,-112.5 684,-131.5 741,-131.5 741,-112.5 684,-112.5"/>
<text text-anchor="middle" x="712.5" y="-119.5" font-family="Helvetica,sans-Serif" font-size="10.00">memory</text>
</g>
<!-- Node10&#45;&gt;Node11 -->
<g id="edge13" class="edge"><title>Node10&#45;&gt;Node11</title>
<path fill="none" stroke="midnightblue" d="M745.06,-168.083C739.551,-160.455 731.469,-149.264 724.735,-139.941"/>
<polygon fill="midnightblue" stroke="midnightblue" points="727.513,-137.809 718.82,-131.751 721.838,-141.907 727.513,-137.809"/>
</g>
<!-- Node12 -->
<g id="node12" class="node"><title>Node12</title>
<polygon fill="none" stroke="#bfbfbf" points="759.5,-112.5 759.5,-131.5 821.5,-131.5 821.5,-112.5 759.5,-112.5"/>
<text text-anchor="middle" x="790.5" y="-119.5" font-family="Helvetica,sans-Serif" font-size="10.00">algorithm</text>
</g>
<!-- Node10&#45;&gt;Node12 -->
<g id="edge15" class="edge"><title>Node10&#45;&gt;Node12</title>
<path fill="none" stroke="midnightblue" d="M757.94,-168.083C763.449,-160.455 771.531,-149.264 778.265,-139.941"/>
<polygon fill="midnightblue" stroke="midnightblue" points="781.162,-141.907 784.18,-131.751 775.487,-137.809 781.162,-141.907"/>
</g>
<!-- Node13 -->
<g id="node13" class="node"><title>Node13</title>
<g id="a_node13"><a xlink:href="Sprite_8hxx.html" target="_top" xlink:title="../Sprite.hxx">
<polygon fill="none" stroke="black" points="839.5,-112.5 839.5,-131.5 913.5,-131.5 913.5,-112.5 839.5,-112.5"/>
<text text-anchor="middle" x="876.5" y="-119.5" font-family="Helvetica,sans-Serif" font-size="10.00">../Sprite.hxx</text>
</a>
</g>
</g>
<!-- Node10&#45;&gt;Node13 -->
<g id="edge17" class="edge"><title>Node10&#45;&gt;Node13</title>
<path fill="none" stroke="midnightblue" d="M771.307,-168.444C791.787,-159.596 823.983,-145.687 847.365,-135.586"/>
<polygon fill="midnightblue" stroke="midnightblue" points="848.994,-138.695 856.786,-131.516 846.218,-132.269 848.994,-138.695"/>
</g>
<!-- Node14 -->
<g id="node14" class="node"><title>Node14</title>
<g id="a_node14"><a xlink:href="enums_8hxx.html" target="_top" xlink:title="common/enums.hxx">
<polygon fill="none" stroke="black" points="709,-56.5 709,-75.5 824,-75.5 824,-56.5 709,-56.5"/>
<text text-anchor="middle" x="766.5" y="-63.5" font-family="Helvetica,sans-Serif" font-size="10.00">common/enums.hxx</text>
</a>
</g>
</g>
<!-- Node10&#45;&gt;Node14 -->
<g id="edge23" class="edge"><title>Node10&#45;&gt;Node14</title>
<path fill="none" stroke="midnightblue" d="M725.938,-168.464C697.876,-157.615 658.754,-137.23 674.5,-112 684.258,-96.3644 701.197,-86.013 717.902,-79.2301"/>
<polygon fill="midnightblue" stroke="midnightblue" points="719.482,-82.378 727.655,-75.6357 717.062,-75.8098 719.482,-82.378"/>
</g>
<!-- Node16 -->
<g id="node16" class="node"><title>Node16</title>
<g id="a_node16"><a xlink:href="TileManager_8hxx.html" target="_top" xlink:title="../TileManager.hxx">
<polygon fill="none" stroke="black" points="367.5,-112.5 367.5,-131.5 469.5,-131.5 469.5,-112.5 367.5,-112.5"/>
<text text-anchor="middle" x="418.5" y="-119.5" font-family="Helvetica,sans-Serif" font-size="10.00">../TileManager.hxx</text>
</a>
</g>
</g>
<!-- Node10&#45;&gt;Node16 -->
<g id="edge25" class="edge"><title>Node10&#45;&gt;Node16</title>
<path fill="none" stroke="midnightblue" d="M698.735,-168.444C639.236,-158.795 542.617,-143.127 479.814,-132.943"/>
<polygon fill="midnightblue" stroke="midnightblue" points="480.083,-129.441 469.652,-131.295 478.962,-136.351 480.083,-129.441"/>
</g>
<!-- Node13&#45;&gt;Node2 -->
<g id="edge18" class="edge"><title>Node13&#45;&gt;Node2</title>
<path fill="none" stroke="midnightblue" d="M839.353,-113.68C836.359,-113.106 833.379,-112.54 830.5,-112 752.222,-97.3264 660.013,-81.0542 612.106,-72.676"/>
<polygon fill="midnightblue" stroke="midnightblue" points="612.475,-69.1875 602.021,-70.9147 611.27,-76.0831 612.475,-69.1875"/>
</g>
<!-- Node13&#45;&gt;Node6 -->
<g id="edge19" class="edge"><title>Node13&#45;&gt;Node6</title>
<path fill="none" stroke="midnightblue" d="M883.105,-112.083C888.755,-104.455 897.045,-93.2645 903.951,-83.9408"/>
<polygon fill="midnightblue" stroke="midnightblue" points="906.878,-85.87 910.018,-75.7511 901.253,-81.7034 906.878,-85.87"/>
</g>
<!-- Node13&#45;&gt;Node8 -->
<g id="edge20" class="edge"><title>Node13&#45;&gt;Node8</title>
<path fill="none" stroke="midnightblue" d="M896.782,-112.444C917.847,-103.557 951.017,-89.5632 974.986,-79.4514"/>
<polygon fill="midnightblue" stroke="midnightblue" points="976.46,-82.6283 984.313,-75.5164 973.739,-76.1787 976.46,-82.6283"/>
</g>
<!-- Node13&#45;&gt;Node14 -->
<g id="edge21" class="edge"><title>Node13&#45;&gt;Node14</title>
<path fill="none" stroke="midnightblue" d="M858.827,-112.324C841.106,-103.625 813.597,-90.1202 793.212,-80.113"/>
<polygon fill="midnightblue" stroke="midnightblue" points="794.649,-76.9195 784.13,-75.6545 791.564,-83.2031 794.649,-76.9195"/>
</g>
<!-- Node15 -->
<g id="node15" class="node"><title>Node15</title>
<polygon fill="none" stroke="#bfbfbf" points="739,-0.5 739,-19.5 794,-19.5 794,-0.5 739,-0.5"/>
<text text-anchor="middle" x="766.5" y="-7.5" font-family="Helvetica,sans-Serif" font-size="10.00">stddef.h</text>
</g>
<!-- Node14&#45;&gt;Node15 -->
<g id="edge22" class="edge"><title>Node14&#45;&gt;Node15</title>
<path fill="none" stroke="midnightblue" d="M766.5,-56.083C766.5,-49.0059 766.5,-38.8611 766.5,-29.9865"/>
<polygon fill="midnightblue" stroke="midnightblue" points="770,-29.751 766.5,-19.7511 763,-29.7511 770,-29.751"/>
</g>
<!-- Node16&#45;&gt;Node2 -->
<g id="edge26" class="edge"><title>Node16&#45;&gt;Node2</title>
<path fill="none" stroke="midnightblue" d="M444.011,-112.444C471.972,-103.065 516.889,-88.0001 547.267,-77.8112"/>
<polygon fill="midnightblue" stroke="midnightblue" points="548.598,-81.0563 556.966,-74.558 546.372,-74.4197 548.598,-81.0563"/>
</g>
<!-- Node16&#45;&gt;Node4 -->
<g id="edge28" class="edge"><title>Node16&#45;&gt;Node4</title>
<path fill="none" stroke="midnightblue" d="M367.22,-120.11C333.851,-116.525 292.568,-105.775 270.5,-76 248.022,-45.6715 305.715,-26.4472 344.539,-17.3085"/>
<polygon fill="midnightblue" stroke="midnightblue" points="345.428,-20.6962 354.424,-15.0995 343.902,-13.8647 345.428,-20.6962"/>
</g>
<!-- Node16&#45;&gt;Node7 -->
<g id="edge32" class="edge"><title>Node16&#45;&gt;Node7</title>
<path fill="none" stroke="midnightblue" d="M379.045,-112.444C335.608,-103.023 265.714,-87.8656 218.724,-77.6752"/>
<polygon fill="midnightblue" stroke="midnightblue" points="219.285,-74.2154 208.77,-75.5164 217.801,-81.0564 219.285,-74.2154"/>
</g>
<!-- Node17 -->
<g id="node17" class="node"><title>Node17</title>
<polygon fill="none" stroke="#bfbfbf" points="280,-56.5 280,-75.5 373,-75.5 373,-56.5 280,-56.5"/>
<text text-anchor="middle" x="326.5" y="-63.5" font-family="Helvetica,sans-Serif" font-size="10.00">unordered_map</text>
</g>
<!-- Node16&#45;&gt;Node17 -->
<g id="edge27" class="edge"><title>Node16&#45;&gt;Node17</title>
<path fill="none" stroke="midnightblue" d="M403.719,-112.324C389.233,-103.822 366.927,-90.7288 350.007,-80.7975"/>
<polygon fill="midnightblue" stroke="midnightblue" points="351.641,-77.6981 341.245,-75.6545 348.097,-83.735 351.641,-77.6981"/>
</g>
<!-- Node18 -->
<g id="node18" class="node"><title>Node18</title>
<g id="a_node18"><a xlink:href="tileData_8hxx.html" target="_top" xlink:title="tileData.hxx">
<polygon fill="none" stroke="black" points="464.5,-56.5 464.5,-75.5 538.5,-75.5 538.5,-56.5 464.5,-56.5"/>
<text text-anchor="middle" x="501.5" y="-63.5" font-family="Helvetica,sans-Serif" font-size="10.00">tileData.hxx</text>
</a>
</g>
</g>
<!-- Node16&#45;&gt;Node18 -->
<g id="edge29" class="edge"><title>Node16&#45;&gt;Node18</title>
<path fill="none" stroke="midnightblue" d="M431.835,-112.324C444.662,-103.979 464.285,-91.2122 479.44,-81.3524"/>
<polygon fill="midnightblue" stroke="midnightblue" points="481.724,-84.0417 488.198,-75.6545 477.907,-78.1742 481.724,-84.0417"/>
</g>
<!-- Node19 -->
<g id="node19" class="node"><title>Node19</title>
<polygon fill="none" stroke="#bfbfbf" points="390.5,-56.5 390.5,-75.5 446.5,-75.5 446.5,-56.5 390.5,-56.5"/>
<text text-anchor="middle" x="418.5" y="-63.5" font-family="Helvetica,sans-Serif" font-size="10.00">json.hxx</text>
</g>
<!-- Node16&#45;&gt;Node19 -->
<g id="edge31" class="edge"><title>Node16&#45;&gt;Node19</title>
<path fill="none" stroke="midnightblue" d="M418.5,-112.083C418.5,-105.006 418.5,-94.8611 418.5,-85.9865"/>
<polygon fill="midnightblue" stroke="midnightblue" points="422,-85.751 418.5,-75.7511 415,-85.7511 422,-85.751"/>
</g>
<!-- Node18&#45;&gt;Node4 -->
<g id="edge30" class="edge"><title>Node18&#45;&gt;Node4</title>
<path fill="none" stroke="midnightblue" d="M481.693,-56.4435C461.213,-47.5961 429.017,-33.6875 405.635,-23.5865"/>
<polygon fill="midnightblue" stroke="midnightblue" points="406.782,-20.2692 396.214,-19.5164 404.006,-26.6953 406.782,-20.2692"/>
</g>
<!-- Node20&#45;&gt;Node6 -->
<g id="edge36" class="edge"><title>Node20&#45;&gt;Node6</title>
<path fill="none" stroke="midnightblue" d="M870.925,-224.326C889.229,-208.332 926.529,-172.139 940.5,-132 946.164,-115.727 937.977,-97.3158 929.665,-84.253"/>
<polygon fill="midnightblue" stroke="midnightblue" points="932.367,-82.0085 923.787,-75.7936 926.619,-86.0029 932.367,-82.0085"/>
</g>
<!-- Node20&#45;&gt;Node10 -->
<g id="edge34" class="edge"><title>Node20&#45;&gt;Node10</title>
<path fill="none" stroke="midnightblue" d="M842.987,-224.324C825.428,-215.625 798.169,-202.12 777.969,-192.113"/>
<polygon fill="midnightblue" stroke="midnightblue" points="779.484,-188.958 768.969,-187.655 776.376,-195.23 779.484,-188.958"/>
</g>
<!-- Node21 -->
<g id="node21" class="node"><title>Node21</title>
<polygon fill="none" stroke="#bfbfbf" points="844.5,-168.5 844.5,-187.5 882.5,-187.5 882.5,-168.5 844.5,-168.5"/>
<text text-anchor="middle" x="863.5" y="-175.5" font-family="Helvetica,sans-Serif" font-size="10.00">map</text>
</g>
<!-- Node20&#45;&gt;Node21 -->
<g id="edge35" class="edge"><title>Node20&#45;&gt;Node21</title>
<path fill="none" stroke="midnightblue" d="M860.995,-224.083C861.389,-217.006 861.952,-206.861 862.445,-197.986"/>
<polygon fill="midnightblue" stroke="midnightblue" points="865.954,-197.93 863.014,-187.751 858.964,-197.542 865.954,-197.93"/>
</g>
</g>
</svg>
