<?xml version="1.0" encoding="UTF-8" standalone="no"?>
<!DOCTYPE svg PUBLIC "-//W3C//DTD SVG 1.1//EN"
 "http://www.w3.org/Graphics/SVG/1.1/DTD/svg11.dtd">
<!-- Generated by graphviz version 2.38.0 (20140413.2041)
 -->
<!-- Title: src/engine/Engine.hxx Pages: 1 -->
<svg width="852pt" height="140pt"
 viewBox="0.00 0.00 852.00 140.00" xmlns="http://www.w3.org/2000/svg" xmlns:xlink="http://www.w3.org/1999/xlink">
<g id="graph0" class="graph" transform="scale(1 1) rotate(0) translate(4 136)">
<title>src/engine/Engine.hxx</title>
<!-- Node1 -->
<g id="node1" class="node"><title>Node1</title>
<polygon fill="#bfbfbf" stroke="black" points="424,-112.5 424,-131.5 545,-131.5 545,-112.5 424,-112.5"/>
<text text-anchor="middle" x="484.5" y="-119.5" font-family="Helvetica,sans-Serif" font-size="10.00">src/engine/Engine.hxx</text>
</g>
<!-- Node2 -->
<g id="node2" class="node"><title>Node2</title>
<g id="a_node2"><a xlink:href="Camera_8cxx.html" target="_top" xlink:title="src/engine/basics/Camera.cxx">
<polygon fill="none" stroke="black" points="0,-56.5 0,-75.5 159,-75.5 159,-56.5 0,-56.5"/>
<text text-anchor="middle" x="79.5" y="-63.5" font-family="Helvetica,sans-Serif" font-size="10.00">src/engine/basics/Camera.cxx</text>
</a>
</g>
</g>
<!-- Node1&#45;&gt;Node2 -->
<g id="edge1" class="edge"><title>Node1&#45;&gt;Node2</title>
<path fill="none" stroke="midnightblue" d="M413.87,-111.583C337.601,-101.413 217.171,-85.3562 143.561,-75.5414"/>
<polygon fill="midnightblue" stroke="midnightblue" points="413.493,-115.063 423.867,-112.916 414.418,-108.125 413.493,-115.063"/>
</g>
<!-- Node3 -->
<g id="node3" class="node"><title>Node3</title>
<g id="a_node3"><a xlink:href="isoMath_8cxx.html" target="_top" xlink:title="src/engine/basics/isoMath.cxx">
<polygon fill="none" stroke="black" points="176.5,-56.5 176.5,-75.5 334.5,-75.5 334.5,-56.5 176.5,-56.5"/>
<text text-anchor="middle" x="255.5" y="-63.5" font-family="Helvetica,sans-Serif" font-size="10.00">src/engine/basics/isoMath.cxx</text>
</a>
</g>
</g>
<!-- Node1&#45;&gt;Node3 -->
<g id="edge2" class="edge"><title>Node1&#45;&gt;Node3</title>
<path fill="none" stroke="midnightblue" d="M438.227,-110.088C394.963,-99.8865 331.245,-84.8612 291.616,-75.5164"/>
<polygon fill="midnightblue" stroke="midnightblue" points="437.678,-113.555 448.214,-112.444 439.285,-106.742 437.678,-113.555"/>
</g>
<!-- Node4 -->
<g id="node4" class="node"><title>Node4</title>
<g id="a_node4"><a xlink:href="EventManager_8hxx.html" target="_top" xlink:title="src/engine/EventManager.hxx">
<polygon fill="none" stroke="black" points="353,-56.5 353,-75.5 510,-75.5 510,-56.5 353,-56.5"/>
<text text-anchor="middle" x="431.5" y="-63.5" font-family="Helvetica,sans-Serif" font-size="10.00">src/engine/EventManager.hxx</text>
</a>
</g>
</g>
<!-- Node1&#45;&gt;Node4 -->
<g id="edge3" class="edge"><title>Node1&#45;&gt;Node4</title>
<path fill="none" stroke="midnightblue" d="M468.519,-104.718C459.178,-95.1997 447.754,-83.5608 440.089,-75.7511"/>
<polygon fill="midnightblue" stroke="midnightblue" points="466.246,-107.398 475.748,-112.083 471.241,-102.494 466.246,-107.398"/>
</g>
<!-- Node7 -->
<g id="node7" class="node"><title>Node7</title>
<g id="a_node7"><a xlink:href="Game_8cxx.html" target="_top" xlink:title="src/Game.cxx">
<polygon fill="none" stroke="black" points="512.5,-0.5 512.5,-19.5 594.5,-19.5 594.5,-0.5 512.5,-0.5"/>
<text text-anchor="middle" x="553.5" y="-7.5" font-family="Helvetica,sans-Serif" font-size="10.00">src/Game.cxx</text>
</a>
</g>
</g>
<!-- Node1&#45;&gt;Node7 -->
<g id="edge9" class="edge"><title>Node1&#45;&gt;Node7</title>
<path fill="none" stroke="midnightblue" d="M498.412,-104.59C505.152,-96.2826 513.143,-85.8855 519.5,-76 531.899,-56.7191 543.671,-32.417 549.568,-19.6869"/>
<polygon fill="midnightblue" stroke="midnightblue" points="495.643,-102.446 491.961,-112.381 501.034,-106.911 495.643,-102.446"/>
</g>
<!-- Node8 -->
<g id="node8" class="node"><title>Node8</title>
<g id="a_node8"><a xlink:href="Engine_8cxx.html" target="_top" xlink:title="src/engine/Engine.cxx">
<polygon fill="none" stroke="black" points="566.5,-56.5 566.5,-75.5 686.5,-75.5 686.5,-56.5 566.5,-56.5"/>
<text text-anchor="middle" x="626.5" y="-63.5" font-family="Helvetica,sans-Serif" font-size="10.00">src/engine/Engine.cxx</text>
</a>
</g>
</g>
<!-- Node1&#45;&gt;Node8 -->
<g id="edge7" class="edge"><title>Node1&#45;&gt;Node8</title>
<path fill="none" stroke="midnightblue" d="M516.655,-108.772C543.328,-98.6287 580.569,-84.4669 604.105,-75.5164"/>
<polygon fill="midnightblue" stroke="midnightblue" points="515.103,-105.618 507,-112.444 517.591,-112.16 515.103,-105.618"/>
</g>
<!-- Node9 -->
<g id="node9" class="node"><title>Node9</title>
<g id="a_node9"><a xlink:href="UIManager_8cxx.html" target="_top" xlink:title="src/engine/UIManager.cxx">
<polygon fill="none" stroke="black" points="705,-56.5 705,-75.5 844,-75.5 844,-56.5 705,-56.5"/>
<text text-anchor="middle" x="774.5" y="-63.5" font-family="Helvetica,sans-Serif" font-size="10.00">src/engine/UIManager.cxx</text>
</a>
</g>
</g>
<!-- Node1&#45;&gt;Node9 -->
<g id="edge8" class="edge"><title>Node1&#45;&gt;Node9</title>
<path fill="none" stroke="midnightblue" d="M540.348,-110.601C595.155,-100.395 677.732,-85.0189 728.764,-75.5164"/>
<polygon fill="midnightblue" stroke="midnightblue" points="539.642,-107.172 530.451,-112.444 540.923,-114.054 539.642,-107.172"/>
</g>
<!-- Node5 -->
<g id="node5" class="node"><title>Node5</title>
<g id="a_node5"><a xlink:href="Timer_8cxx.html" target="_top" xlink:title="src/engine/basics/Timer.cxx">
<polygon fill="none" stroke="black" points="173,-0.5 173,-19.5 320,-19.5 320,-0.5 173,-0.5"/>
<text text-anchor="middle" x="246.5" y="-7.5" font-family="Helvetica,sans-Serif" font-size="10.00">src/engine/basics/Timer.cxx</text>
</a>
</g>
</g>
<!-- Node4&#45;&gt;Node5 -->
<g id="edge4" class="edge"><title>Node4&#45;&gt;Node5</title>
<path fill="none" stroke="midnightblue" d="M392.334,-53.5677C357.435,-43.381 307.151,-28.7034 275.677,-19.5164"/>
<polygon fill="midnightblue" stroke="midnightblue" points="391.606,-57.0013 402.186,-56.4435 393.567,-50.2817 391.606,-57.0013"/>
</g>
<!-- Node6 -->
<g id="node6" class="node"><title>Node6</title>
<g id="a_node6"><a xlink:href="EventManager_8cxx.html" target="_top" xlink:title="src/engine/EventManager.cxx">
<polygon fill="none" stroke="black" points="338.5,-0.5 338.5,-19.5 494.5,-19.5 494.5,-0.5 338.5,-0.5"/>
<text text-anchor="middle" x="416.5" y="-7.5" font-family="Helvetica,sans-Serif" font-size="10.00">src/engine/EventManager.cxx</text>
</a>
</g>
</g>
<!-- Node4&#45;&gt;Node6 -->
<g id="edge5" class="edge"><title>Node4&#45;&gt;Node6</title>
<path fill="none" stroke="midnightblue" d="M426.332,-46.3956C423.823,-37.362 420.927,-26.936 418.931,-19.7511"/>
<polygon fill="midnightblue" stroke="midnightblue" points="422.974,-47.3846 429.023,-56.083 429.719,-45.511 422.974,-47.3846"/>
</g>
<!-- Node4&#45;&gt;Node7 -->
<g id="edge6" class="edge"><title>Node4&#45;&gt;Node7</title>
<path fill="none" stroke="midnightblue" d="M460.039,-52.3678C482.886,-42.2553 514.305,-28.3486 534.259,-19.5164"/>
<polygon fill="midnightblue" stroke="midnightblue" points="458.559,-49.1955 450.831,-56.4435 461.392,-55.5965 458.559,-49.1955"/>
</g>
</g>
</svg>
