<?xml version="1.0" encoding="UTF-8" standalone="no"?>
<!DOCTYPE svg PUBLIC "-//W3C//DTD SVG 1.1//EN"
 "http://www.w3.org/Graphics/SVG/1.1/DTD/svg11.dtd">
<!-- Generated by graphviz version 2.38.0 (20140413.2041)
 -->
<!-- Title: src/engine/ui/widgets/Image.cxx Pages: 1 -->
<svg width="961pt" height="375pt"
 viewBox="0.00 0.00 960.50 375.00" xmlns="http://www.w3.org/2000/svg" xmlns:xlink="http://www.w3.org/1999/xlink">
<g id="graph0" class="graph" transform="scale(1 1) rotate(0) translate(4 371)">
<title>src/engine/ui/widgets/Image.cxx</title>
<!-- Node1 -->
<g id="node1" class="node"><title>Node1</title>
<polygon fill="#bfbfbf" stroke="black" points="88,-336.5 88,-366.5 204,-366.5 204,-336.5 88,-336.5"/>
<text text-anchor="start" x="96" y="-354.5" font-family="Helvetica,sans-Serif" font-size="10.00">src/engine/ui/widgets</text>
<text text-anchor="middle" x="146" y="-343.5" font-family="Helvetica,sans-Serif" font-size="10.00">/Image.cxx</text>
</g>
<!-- Node2 -->
<g id="node2" class="node"><title>Node2</title>
<g id="a_node2"><a xlink:href="Image_8hxx.html" target="_top" xlink:title="Image.hxx">
<polygon fill="none" stroke="black" points="113,-280.5 113,-299.5 179,-299.5 179,-280.5 113,-280.5"/>
<text text-anchor="middle" x="146" y="-287.5" font-family="Helvetica,sans-Serif" font-size="10.00">Image.hxx</text>
</a>
</g>
</g>
<!-- Node1&#45;&gt;Node2 -->
<g id="edge1" class="edge"><title>Node1&#45;&gt;Node2</title>
<path fill="none" stroke="midnightblue" d="M146,-336.399C146,-328.466 146,-318.458 146,-309.858"/>
<polygon fill="midnightblue" stroke="midnightblue" points="149.5,-309.658 146,-299.658 142.5,-309.658 149.5,-309.658"/>
</g>
<!-- Node3 -->
<g id="node3" class="node"><title>Node3</title>
<polygon fill="none" stroke="#bfbfbf" points="165,-0.5 165,-19.5 209,-19.5 209,-0.5 165,-0.5"/>
<text text-anchor="middle" x="187" y="-7.5" font-family="Helvetica,sans-Serif" font-size="10.00">string</text>
</g>
<!-- Node2&#45;&gt;Node3 -->
<g id="edge2" class="edge"><title>Node2&#45;&gt;Node3</title>
<path fill="none" stroke="midnightblue" d="M113.96,-280.435C70.9822,-266.779 0,-235.649 0,-179 0,-179 0,-179 0,-121 0,-50.0239 101.32,-23.9364 154.8,-15.1101"/>
<polygon fill="midnightblue" stroke="midnightblue" points="155.464,-18.5493 164.814,-13.5669 154.398,-11.6309 155.464,-18.5493"/>
</g>
<!-- Node4 -->
<g id="node4" class="node"><title>Node4</title>
<g id="a_node4"><a xlink:href="UIElement_8hxx.html" target="_top" xlink:title="../basics/UIElement.hxx">
<polygon fill="none" stroke="black" points="229,-224.5 229,-243.5 357,-243.5 357,-224.5 229,-224.5"/>
<text text-anchor="middle" x="293" y="-231.5" font-family="Helvetica,sans-Serif" font-size="10.00">../basics/UIElement.hxx</text>
</a>
</g>
</g>
<!-- Node2&#45;&gt;Node4 -->
<g id="edge3" class="edge"><title>Node2&#45;&gt;Node4</title>
<path fill="none" stroke="midnightblue" d="M169.293,-280.444C193.807,-271.438 232.596,-257.189 260.2,-247.049"/>
<polygon fill="midnightblue" stroke="midnightblue" points="261.637,-250.25 269.816,-243.516 259.223,-243.679 261.637,-250.25"/>
</g>
<!-- Node4&#45;&gt;Node3 -->
<g id="edge4" class="edge"><title>Node4&#45;&gt;Node3</title>
<path fill="none" stroke="midnightblue" d="M228.964,-229.427C168.09,-224.533 82.8184,-213.265 62,-188 38.8138,-159.861 -15.0973,-180.055 85,-56 102.285,-34.5774 131.845,-23.0689 154.707,-17.0707"/>
<polygon fill="midnightblue" stroke="midnightblue" points="155.76,-20.4176 164.671,-14.6867 154.131,-13.6097 155.76,-20.4176"/>
</g>
<!-- Node5 -->
<g id="node5" class="node"><title>Node5</title>
<g id="a_node5"><a xlink:href="mapEdit_8hxx.html" target="_top" xlink:title="../../basics/mapEdit.hxx">
<polygon fill="none" stroke="black" points="71.5,-168.5 71.5,-187.5 198.5,-187.5 198.5,-168.5 71.5,-168.5"/>
<text text-anchor="middle" x="135" y="-175.5" font-family="Helvetica,sans-Serif" font-size="10.00">../../basics/mapEdit.hxx</text>
</a>
</g>
</g>
<!-- Node4&#45;&gt;Node5 -->
<g id="edge5" class="edge"><title>Node4&#45;&gt;Node5</title>
<path fill="none" stroke="midnightblue" d="M267.964,-224.444C241.384,-215.359 199.191,-200.939 169.477,-190.783"/>
<polygon fill="midnightblue" stroke="midnightblue" points="170.513,-187.439 159.918,-187.516 168.249,-194.062 170.513,-187.439"/>
</g>
<!-- Node6 -->
<g id="node6" class="node"><title>Node6</title>
<g id="a_node6"><a xlink:href="ResourcesManager_8hxx.html" target="_top" xlink:title="../../ResourcesManager.hxx">
<polygon fill="none" stroke="black" points="221,-168.5 221,-187.5 365,-187.5 365,-168.5 221,-168.5"/>
<text text-anchor="middle" x="293" y="-175.5" font-family="Helvetica,sans-Serif" font-size="10.00">../../ResourcesManager.hxx</text>
</a>
</g>
</g>
<!-- Node4&#45;&gt;Node6 -->
<g id="edge7" class="edge"><title>Node4&#45;&gt;Node6</title>
<path fill="none" stroke="midnightblue" d="M293,-224.083C293,-217.006 293,-206.861 293,-197.986"/>
<polygon fill="midnightblue" stroke="midnightblue" points="296.5,-197.751 293,-187.751 289.5,-197.751 296.5,-197.751"/>
</g>
<!-- Node9 -->
<g id="node9" class="node"><title>Node9</title>
<polygon fill="none" stroke="#bfbfbf" points="419.5,-56.5 419.5,-75.5 464.5,-75.5 464.5,-56.5 419.5,-56.5"/>
<text text-anchor="middle" x="442" y="-63.5" font-family="Helvetica,sans-Serif" font-size="10.00">SDL.h</text>
</g>
<!-- Node4&#45;&gt;Node9 -->
<g id="edge31" class="edge"><title>Node4&#45;&gt;Node9</title>
<path fill="none" stroke="midnightblue" d="M315.792,-224.391C333.347,-216.874 357.352,-204.567 374,-188 382.169,-179.871 416.1,-116.326 432.73,-84.7237"/>
<polygon fill="midnightblue" stroke="midnightblue" points="435.919,-86.1776 437.466,-75.6963 429.721,-82.925 435.919,-86.1776"/>
</g>
<!-- Node14 -->
<g id="node14" class="node"><title>Node14</title>
<g id="a_node14"><a xlink:href="WindowManager_8hxx.html" target="_top" xlink:title="../../WindowManager.hxx">
<polygon fill="none" stroke="black" points="469.5,-168.5 469.5,-187.5 600.5,-187.5 600.5,-168.5 469.5,-168.5"/>
<text text-anchor="middle" x="535" y="-175.5" font-family="Helvetica,sans-Serif" font-size="10.00">../../WindowManager.hxx</text>
</a>
</g>
</g>
<!-- Node4&#45;&gt;Node14 -->
<g id="edge19" class="edge"><title>Node4&#45;&gt;Node14</title>
<path fill="none" stroke="midnightblue" d="M331.346,-224.444C373.473,-215.043 441.206,-199.929 486.872,-189.739"/>
<polygon fill="midnightblue" stroke="midnightblue" points="487.836,-193.11 496.834,-187.516 486.312,-186.278 487.836,-193.11"/>
</g>
<!-- Node16 -->
<g id="node16" class="node"><title>Node16</title>
<g id="a_node16"><a xlink:href="signal_8hxx.html" target="_top" xlink:title="../../basics/signal.hxx">
<polygon fill="none" stroke="black" points="691.5,-168.5 691.5,-187.5 806.5,-187.5 806.5,-168.5 691.5,-168.5"/>
<text text-anchor="middle" x="749" y="-175.5" font-family="Helvetica,sans-Serif" font-size="10.00">../../basics/signal.hxx</text>
</a>
</g>
</g>
<!-- Node4&#45;&gt;Node16 -->
<g id="edge25" class="edge"><title>Node4&#45;&gt;Node16</title>
<path fill="none" stroke="midnightblue" d="M357.367,-225.378C443.089,-215.226 594.038,-197.351 681.377,-187.008"/>
<polygon fill="midnightblue" stroke="midnightblue" points="681.925,-190.468 691.444,-185.816 681.102,-183.516 681.925,-190.468"/>
</g>
<!-- Node5&#45;&gt;Node3 -->
<g id="edge6" class="edge"><title>Node5&#45;&gt;Node3</title>
<path fill="none" stroke="midnightblue" d="M127.509,-168.488C110.306,-147.862 71.2208,-94.1025 95,-56 108.025,-35.1298 133.844,-23.6742 154.824,-17.5529"/>
<polygon fill="midnightblue" stroke="midnightblue" points="155.88,-20.894 164.656,-14.9586 154.094,-14.1256 155.88,-20.894"/>
</g>
<!-- Node7 -->
<g id="node7" class="node"><title>Node7</title>
<polygon fill="none" stroke="#bfbfbf" points="428.5,-112.5 428.5,-131.5 487.5,-131.5 487.5,-112.5 428.5,-112.5"/>
<text text-anchor="middle" x="458" y="-119.5" font-family="Helvetica,sans-Serif" font-size="10.00">iostream</text>
</g>
<!-- Node6&#45;&gt;Node7 -->
<g id="edge8" class="edge"><title>Node6&#45;&gt;Node7</title>
<path fill="none" stroke="midnightblue" d="M319.145,-168.444C347.023,-159.32 391.348,-144.813 422.4,-134.651"/>
<polygon fill="midnightblue" stroke="midnightblue" points="423.562,-137.953 431.978,-131.516 421.385,-131.3 423.562,-137.953"/>
</g>
<!-- Node8 -->
<g id="node8" class="node"><title>Node8</title>
<polygon fill="none" stroke="#bfbfbf" points="104.5,-56.5 104.5,-75.5 197.5,-75.5 197.5,-56.5 104.5,-56.5"/>
<text text-anchor="middle" x="151" y="-63.5" font-family="Helvetica,sans-Serif" font-size="10.00">unordered_map</text>
</g>
<!-- Node6&#45;&gt;Node8 -->
<g id="edge9" class="edge"><title>Node6&#45;&gt;Node8</title>
<path fill="none" stroke="midnightblue" d="M280.502,-168.231C267.875,-159.301 247.875,-144.964 231,-132 209.447,-115.442 185.311,-95.6533 169.242,-82.2947"/>
<polygon fill="midnightblue" stroke="midnightblue" points="171.133,-79.3145 161.212,-75.5961 166.649,-84.6897 171.133,-79.3145"/>
</g>
<!-- Node6&#45;&gt;Node9 -->
<g id="edge10" class="edge"><title>Node6&#45;&gt;Node9</title>
<path fill="none" stroke="midnightblue" d="M304.692,-168.368C330.151,-149.573 390.841,-104.768 422.314,-81.5334"/>
<polygon fill="midnightblue" stroke="midnightblue" points="424.396,-84.3466 430.363,-75.5914 420.239,-78.715 424.396,-84.3466"/>
</g>
<!-- Node10 -->
<g id="node10" class="node"><title>Node10</title>
<g id="a_node10"><a xlink:href="TileManager_8hxx.html" target="_top" xlink:title="TileManager.hxx">
<polygon fill="none" stroke="black" points="240.5,-112.5 240.5,-131.5 333.5,-131.5 333.5,-112.5 240.5,-112.5"/>
<text text-anchor="middle" x="287" y="-119.5" font-family="Helvetica,sans-Serif" font-size="10.00">TileManager.hxx</text>
</a>
</g>
</g>
<!-- Node6&#45;&gt;Node10 -->
<g id="edge11" class="edge"><title>Node6&#45;&gt;Node10</title>
<path fill="none" stroke="midnightblue" d="M292.009,-168.083C291.214,-160.927 290.071,-150.635 289.077,-141.691"/>
<polygon fill="midnightblue" stroke="midnightblue" points="292.555,-141.303 287.972,-131.751 285.598,-142.076 292.555,-141.303"/>
</g>
<!-- Node10&#45;&gt;Node3 -->
<g id="edge14" class="edge"><title>Node10&#45;&gt;Node3</title>
<path fill="none" stroke="midnightblue" d="M288.566,-112.079C290.416,-98.6161 291.896,-72.8874 280,-56 265.708,-35.7116 239.699,-24.2089 218.813,-17.9215"/>
<polygon fill="midnightblue" stroke="midnightblue" points="219.615,-14.5123 209.045,-15.2383 217.761,-21.2622 219.615,-14.5123"/>
</g>
<!-- Node10&#45;&gt;Node8 -->
<g id="edge13" class="edge"><title>Node10&#45;&gt;Node8</title>
<path fill="none" stroke="midnightblue" d="M265.45,-112.444C242.969,-103.517 207.512,-89.4387 182.02,-79.3168"/>
<polygon fill="midnightblue" stroke="midnightblue" points="183.035,-75.9539 172.449,-75.5164 180.451,-82.4598 183.035,-75.9539"/>
</g>
<!-- Node10&#45;&gt;Node9 -->
<g id="edge12" class="edge"><title>Node10&#45;&gt;Node9</title>
<path fill="none" stroke="midnightblue" d="M311.56,-112.444C337.981,-103.239 380.125,-88.5565 409.328,-78.3826"/>
<polygon fill="midnightblue" stroke="midnightblue" points="410.779,-81.5835 419.071,-74.9883 408.476,-74.9731 410.779,-81.5835"/>
</g>
<!-- Node11 -->
<g id="node11" class="node"><title>Node11</title>
<g id="a_node11"><a xlink:href="tileData_8hxx.html" target="_top" xlink:title="tileData.hxx">
<polygon fill="none" stroke="black" points="327,-56.5 327,-75.5 401,-75.5 401,-56.5 327,-56.5"/>
<text text-anchor="middle" x="364" y="-63.5" font-family="Helvetica,sans-Serif" font-size="10.00">tileData.hxx</text>
</a>
</g>
</g>
<!-- Node10&#45;&gt;Node11 -->
<g id="edge15" class="edge"><title>Node10&#45;&gt;Node11</title>
<path fill="none" stroke="midnightblue" d="M299.371,-112.324C311.158,-104.058 329.132,-91.4527 343.136,-81.6322"/>
<polygon fill="midnightblue" stroke="midnightblue" points="345.482,-84.2619 351.659,-75.6545 341.462,-78.5307 345.482,-84.2619"/>
</g>
<!-- Node12 -->
<g id="node12" class="node"><title>Node12</title>
<polygon fill="none" stroke="#bfbfbf" points="215,-56.5 215,-75.5 271,-75.5 271,-56.5 215,-56.5"/>
<text text-anchor="middle" x="243" y="-63.5" font-family="Helvetica,sans-Serif" font-size="10.00">json.hxx</text>
</g>
<!-- Node10&#45;&gt;Node12 -->
<g id="edge17" class="edge"><title>Node10&#45;&gt;Node12</title>
<path fill="none" stroke="midnightblue" d="M279.734,-112.083C273.455,-104.377 264.212,-93.0333 256.569,-83.6531"/>
<polygon fill="midnightblue" stroke="midnightblue" points="259.161,-81.2926 250.131,-75.7511 253.734,-85.7143 259.161,-81.2926"/>
</g>
<!-- Node13 -->
<g id="node13" class="node"><title>Node13</title>
<g id="a_node13"><a xlink:href="Singleton_8hxx.html" target="_top" xlink:title="Singleton.hxx">
<polygon fill="none" stroke="black" points="482.5,-56.5 482.5,-75.5 563.5,-75.5 563.5,-56.5 482.5,-56.5"/>
<text text-anchor="middle" x="523" y="-63.5" font-family="Helvetica,sans-Serif" font-size="10.00">Singleton.hxx</text>
</a>
</g>
</g>
<!-- Node10&#45;&gt;Node13 -->
<g id="edge18" class="edge"><title>Node10&#45;&gt;Node13</title>
<path fill="none" stroke="midnightblue" d="M324.395,-112.444C365.392,-103.063 431.254,-87.9926 475.784,-77.8036"/>
<polygon fill="midnightblue" stroke="midnightblue" points="476.813,-81.1588 485.78,-75.5164 475.251,-74.3352 476.813,-81.1588"/>
</g>
<!-- Node11&#45;&gt;Node3 -->
<g id="edge16" class="edge"><title>Node11&#45;&gt;Node3</title>
<path fill="none" stroke="midnightblue" d="M335.954,-56.4435C304.063,-46.7141 252.111,-30.8642 218.755,-20.688"/>
<polygon fill="midnightblue" stroke="midnightblue" points="219.629,-17.2955 209.043,-17.7251 217.587,-23.9909 219.629,-17.2955"/>
</g>
<!-- Node14&#45;&gt;Node3 -->
<g id="edge20" class="edge"><title>Node14&#45;&gt;Node3</title>
<path fill="none" stroke="midnightblue" d="M542.647,-168.195C560.607,-146.436 601.791,-89.4764 572,-56 548.675,-29.7896 307.844,-16.4193 219.371,-12.3634"/>
<polygon fill="midnightblue" stroke="midnightblue" points="219.269,-8.85542 209.123,-11.9043 218.956,-15.8484 219.269,-8.85542"/>
</g>
<!-- Node14&#45;&gt;Node7 -->
<g id="edge21" class="edge"><title>Node14&#45;&gt;Node7</title>
<path fill="none" stroke="midnightblue" d="M522.629,-168.324C510.842,-160.058 492.868,-147.453 478.864,-137.632"/>
<polygon fill="midnightblue" stroke="midnightblue" points="480.538,-134.531 470.341,-131.655 476.518,-140.262 480.538,-134.531"/>
</g>
<!-- Node14&#45;&gt;Node9 -->
<g id="edge23" class="edge"><title>Node14&#45;&gt;Node9</title>
<path fill="none" stroke="midnightblue" d="M531.013,-168.406C524.719,-155.37 511.58,-130.191 496,-112 486.228,-100.591 473.369,-89.7494 462.65,-81.5676"/>
<polygon fill="midnightblue" stroke="midnightblue" points="464.732,-78.7543 454.613,-75.6161 460.567,-84.3799 464.732,-78.7543"/>
</g>
<!-- Node14&#45;&gt;Node13 -->
<g id="edge24" class="edge"><title>Node14&#45;&gt;Node13</title>
<path fill="none" stroke="midnightblue" d="M534.537,-168.148C533.833,-155.62 532.323,-132.012 530,-112 528.985,-103.253 527.528,-93.5994 526.206,-85.4838"/>
<polygon fill="midnightblue" stroke="midnightblue" points="529.654,-84.8794 524.541,-75.5998 522.751,-86.0423 529.654,-84.8794"/>
</g>
<!-- Node15 -->
<g id="node15" class="node"><title>Node15</title>
<polygon fill="none" stroke="#bfbfbf" points="620.5,-112.5 620.5,-131.5 667.5,-131.5 667.5,-112.5 620.5,-112.5"/>
<text text-anchor="middle" x="644" y="-119.5" font-family="Helvetica,sans-Serif" font-size="10.00">vector</text>
</g>
<!-- Node14&#45;&gt;Node15 -->
<g id="edge22" class="edge"><title>Node14&#45;&gt;Node15</title>
<path fill="none" stroke="midnightblue" d="M552.513,-168.324C570.072,-159.625 597.331,-146.12 617.531,-136.113"/>
<polygon fill="midnightblue" stroke="midnightblue" points="619.124,-139.23 626.531,-131.655 616.016,-132.958 619.124,-139.23"/>
</g>
<!-- Node16&#45;&gt;Node15 -->
<g id="edge29" class="edge"><title>Node16&#45;&gt;Node15</title>
<path fill="none" stroke="midnightblue" d="M732.13,-168.324C715.291,-159.664 689.193,-146.242 669.762,-136.249"/>
<polygon fill="midnightblue" stroke="midnightblue" points="671.322,-133.116 660.828,-131.655 668.12,-139.341 671.322,-133.116"/>
</g>
<!-- Node17 -->
<g id="node17" class="node"><title>Node17</title>
<polygon fill="none" stroke="#bfbfbf" points="895.5,-112.5 895.5,-131.5 952.5,-131.5 952.5,-112.5 895.5,-112.5"/>
<text text-anchor="middle" x="924" y="-119.5" font-family="Helvetica,sans-Serif" font-size="10.00">memory</text>
</g>
<!-- Node16&#45;&gt;Node17 -->
<g id="edge26" class="edge"><title>Node16&#45;&gt;Node17</title>
<path fill="none" stroke="midnightblue" d="M776.729,-168.444C806.426,-159.28 853.716,-144.688 886.669,-134.519"/>
<polygon fill="midnightblue" stroke="midnightblue" points="887.877,-137.809 896.4,-131.516 885.813,-131.121 887.877,-137.809"/>
</g>
<!-- Node18 -->
<g id="node18" class="node"><title>Node18</title>
<polygon fill="none" stroke="#bfbfbf" points="685.5,-112.5 685.5,-131.5 748.5,-131.5 748.5,-112.5 685.5,-112.5"/>
<text text-anchor="middle" x="717" y="-119.5" font-family="Helvetica,sans-Serif" font-size="10.00">functional</text>
</g>
<!-- Node16&#45;&gt;Node18 -->
<g id="edge27" class="edge"><title>Node16&#45;&gt;Node18</title>
<path fill="none" stroke="midnightblue" d="M743.716,-168.083C739.289,-160.613 732.837,-149.724 727.382,-140.52"/>
<polygon fill="midnightblue" stroke="midnightblue" points="730.295,-138.57 722.186,-131.751 724.273,-142.138 730.295,-138.57"/>
</g>
<!-- Node19 -->
<g id="node19" class="node"><title>Node19</title>
<polygon fill="none" stroke="#bfbfbf" points="767,-112.5 767,-131.5 797,-131.5 797,-112.5 767,-112.5"/>
<text text-anchor="middle" x="782" y="-119.5" font-family="Helvetica,sans-Serif" font-size="10.00">list</text>
</g>
<!-- Node16&#45;&gt;Node19 -->
<g id="edge28" class="edge"><title>Node16&#45;&gt;Node19</title>
<path fill="none" stroke="midnightblue" d="M754.449,-168.083C759.014,-160.613 765.668,-149.724 771.293,-140.52"/>
<polygon fill="midnightblue" stroke="midnightblue" points="774.424,-142.109 776.652,-131.751 768.451,-138.459 774.424,-142.109"/>
</g>
<!-- Node20 -->
<g id="node20" class="node"><title>Node20</title>
<polygon fill="none" stroke="#bfbfbf" points="815,-112.5 815,-131.5 877,-131.5 877,-112.5 815,-112.5"/>
<text text-anchor="middle" x="846" y="-119.5" font-family="Helvetica,sans-Serif" font-size="10.00">algorithm</text>
</g>
<!-- Node16&#45;&gt;Node20 -->
<g id="edge30" class="edge"><title>Node16&#45;&gt;Node20</title>
<path fill="none" stroke="midnightblue" d="M764.585,-168.324C779.999,-159.743 803.812,-146.486 821.71,-136.522"/>
<polygon fill="midnightblue" stroke="midnightblue" points="823.419,-139.577 830.454,-131.655 820.014,-133.461 823.419,-139.577"/>
</g>
</g>
</svg>
