<?xml version="1.0" encoding="UTF-8" standalone="no"?>
<!DOCTYPE svg PUBLIC "-//W3C//DTD SVG 1.1//EN"
 "http://www.w3.org/Graphics/SVG/1.1/DTD/svg11.dtd">
<!-- Generated by graphviz version 2.38.0 (20140413.2041)
 -->
<!-- Title: src/engine/ui/widgets/Image.hxx Pages: 1 -->
<svg width="224pt" height="106pt"
 viewBox="0.00 0.00 224.00 106.00" xmlns="http://www.w3.org/2000/svg" xmlns:xlink="http://www.w3.org/1999/xlink">
<g id="graph0" class="graph" transform="scale(1 1) rotate(0) translate(4 102)">
<title>src/engine/ui/widgets/Image.hxx</title>
<!-- Node1 -->
<g id="node1" class="node"><title>Node1</title>
<polygon fill="#bfbfbf" stroke="black" points="58,-67.5 58,-97.5 174,-97.5 174,-67.5 58,-67.5"/>
<text text-anchor="start" x="66" y="-85.5" font-family="Helvetica,sans-Serif" font-size="10.00">src/engine/ui/widgets</text>
<text text-anchor="middle" x="116" y="-74.5" font-family="Helvetica,sans-Serif" font-size="10.00">/Image.hxx</text>
</g>
<!-- Node2 -->
<g id="node2" class="node"><title>Node2</title>
<g id="a_node2"><a xlink:href="Image_8cxx.html" target="_top" xlink:title="src/engine/ui/widgets\l/Image.cxx">
<polygon fill="none" stroke="black" points="0,-0.5 0,-30.5 116,-30.5 116,-0.5 0,-0.5"/>
<text text-anchor="start" x="8" y="-18.5" font-family="Helvetica,sans-Serif" font-size="10.00">src/engine/ui/widgets</text>
<text text-anchor="middle" x="58" y="-7.5" font-family="Helvetica,sans-Serif" font-size="10.00">/Image.cxx</text>
</a>
</g>
</g>
<!-- Node1&#45;&gt;Node2 -->
<g id="edge1" class="edge"><title>Node1&#45;&gt;Node2</title>
<path fill="none" stroke="midnightblue" d="M96.58,-59.7362C87.9985,-50.119 78.1562,-39.0888 70.5606,-30.5765"/>
<polygon fill="midnightblue" stroke="midnightblue" points="94.1455,-62.2648 103.415,-67.396 99.3685,-57.6043 94.1455,-62.2648"/>
</g>
<!-- Node3 -->
<g id="node3" class="node"><title>Node3</title>
<g id="a_node3"><a xlink:href="Game_8cxx.html" target="_top" xlink:title="src/Game.cxx">
<polygon fill="none" stroke="black" points="134,-6 134,-25 216,-25 216,-6 134,-6"/>
<text text-anchor="middle" x="175" y="-13" font-family="Helvetica,sans-Serif" font-size="10.00">src/Game.cxx</text>
</a>
</g>
</g>
<!-- Node1&#45;&gt;Node3 -->
<g id="edge2" class="edge"><title>Node1&#45;&gt;Node3</title>
<path fill="none" stroke="midnightblue" d="M135.827,-59.6571C146.531,-47.8646 159.145,-33.9672 167.108,-25.1945"/>
<polygon fill="midnightblue" stroke="midnightblue" points="132.932,-57.639 128.802,-67.396 138.115,-62.3438 132.932,-57.639"/>
</g>
</g>
</svg>
