<?xml version="1.0" encoding="UTF-8" standalone="no"?>
<!DOCTYPE svg PUBLIC "-//W3C//DTD SVG 1.1//EN"
 "http://www.w3.org/Graphics/SVG/1.1/DTD/svg11.dtd">
<!-- Generated by graphviz version 2.38.0 (20140413.2041)
 -->
<!-- Title: Graphical Class Hierarchy Pages: 1 -->
<svg width="293pt" height="78pt"
 viewBox="0.00 0.00 293.00 77.50" xmlns="http://www.w3.org/2000/svg" xmlns:xlink="http://www.w3.org/1999/xlink">
<g id="graph0" class="graph" transform="scale(1 1) rotate(0) translate(4 73.5)">
<title>Graphical Class Hierarchy</title>
<!-- Node1 -->
<g id="node1" class="node"><title>Node1</title>
<polygon fill="none" stroke="#bfbfbf" points="32,-50 32,-69 77,-69 77,-50 32,-50"/>
<text text-anchor="middle" x="54.5" y="-57" font-family="Helvetica,sans-Serif" font-size="10.00">Model</text>
</g>
<!-- Node2 -->
<g id="node2" class="node"><title>Node2</title>
<g id="a_node2"><a xlink:href="classTransitiveModel.html" target="_top" xlink:title="TransitiveModel\&lt; Model \&gt;">
<polygon fill="none" stroke="black" points="145,-28 145,-47 285,-47 285,-28 145,-28"/>
<text text-anchor="middle" x="215" y="-35" font-family="Helvetica,sans-Serif" font-size="10.00">TransitiveModel&lt; Model &gt;</text>
</a>
</g>
</g>
<!-- Node1&#45;&gt;Node2 -->
<g id="edge1" class="edge"><title>Node1&#45;&gt;Node2</title>
<path fill="none" stroke="darkgreen" d="M87.4559,-55.0645C104.099,-52.7544 125.13,-49.8353 145.243,-47.0435"/>
<polygon fill="darkgreen" stroke="darkgreen" points="86.6302,-51.6454 77.2064,-56.4871 87.5927,-58.579 86.6302,-51.6454"/>
</g>
<!-- Node3 -->
<g id="node3" class="node"><title>Node3</title>
<g id="a_node3"><a xlink:href="classSubject.html" target="_top" xlink:title="Subject\&lt; Transition\l\&lt; Model \&gt; \&gt;">
<polygon fill="none" stroke="black" points="0,-0.5 0,-30.5 109,-30.5 109,-0.5 0,-0.5"/>
<text text-anchor="start" x="8" y="-18.5" font-family="Helvetica,sans-Serif" font-size="10.00">Subject&lt; Transition</text>
<text text-anchor="middle" x="54.5" y="-7.5" font-family="Helvetica,sans-Serif" font-size="10.00">&lt; Model &gt; &gt;</text>
</a>
</g>
</g>
<!-- Node3&#45;&gt;Node2 -->
<g id="edge2" class="edge"><title>Node3&#45;&gt;Node2</title>
<path fill="none" stroke="midnightblue" d="M119.183,-24.3392C127.843,-25.5413 136.761,-26.7792 145.502,-27.9924"/>
<polygon fill="midnightblue" stroke="midnightblue" points="119.547,-20.8563 109.161,-22.9482 118.585,-27.7899 119.547,-20.8563"/>
</g>
</g>
</svg>
