<?xml version="1.0" encoding="UTF-8" standalone="no"?>
<!DOCTYPE svg PUBLIC "-//W3C//DTD SVG 1.1//EN"
 "http://www.w3.org/Graphics/SVG/1.1/DTD/svg11.dtd">
<!-- Generated by graphviz version 2.38.0 (20140413.2041)
 -->
<!-- Title: Graphical Class Hierarchy Pages: 1 -->
<svg width="224pt" height="66pt"
 viewBox="0.00 0.00 224.00 66.00" xmlns="http://www.w3.org/2000/svg" xmlns:xlink="http://www.w3.org/1999/xlink">
<g id="graph0" class="graph" transform="scale(1 1) rotate(0) translate(4 62)">
<title>Graphical Class Hierarchy</title>
<!-- Node1 -->
<g id="node1" class="node"><title>Node1</title>
<g id="a_node1"><a xlink:href="structSettingsData.html" target="_top" xlink:title="SettingsData">
<polygon fill="none" stroke="black" points="22,-38.5 22,-57.5 102,-57.5 102,-38.5 22,-38.5"/>
<text text-anchor="middle" x="62" y="-45.5" font-family="Helvetica,sans-Serif" font-size="10.00">SettingsData</text>
</a>
</g>
</g>
<!-- Node2 -->
<g id="node2" class="node"><title>Node2</title>
<g id="a_node2"><a xlink:href="classSettings.html" target="_top" xlink:title="the settings of the client ">
<polygon fill="none" stroke="black" points="160,-19.5 160,-38.5 216,-38.5 216,-19.5 160,-19.5"/>
<text text-anchor="middle" x="188" y="-26.5" font-family="Helvetica,sans-Serif" font-size="10.00">Settings</text>
</a>
</g>
</g>
<!-- Node1&#45;&gt;Node2 -->
<g id="edge1" class="edge"><title>Node1&#45;&gt;Node2</title>
<path fill="none" stroke="midnightblue" d="M112.136,-40.4711C128.362,-37.9849 145.817,-35.3103 159.788,-33.1696"/>
<polygon fill="midnightblue" stroke="midnightblue" points="111.589,-37.014 102.234,-41.9883 112.649,-43.9332 111.589,-37.014"/>
</g>
<!-- Node3 -->
<g id="node3" class="node"><title>Node3</title>
<g id="a_node3"><a xlink:href="classSingleton.html" target="_top" xlink:title="Singleton\&lt; Settings \&gt;">
<polygon fill="none" stroke="black" points="0,-0.5 0,-19.5 124,-19.5 124,-0.5 0,-0.5"/>
<text text-anchor="middle" x="62" y="-7.5" font-family="Helvetica,sans-Serif" font-size="10.00">Singleton&lt; Settings &gt;</text>
</a>
</g>
</g>
<!-- Node3&#45;&gt;Node2 -->
<g id="edge2" class="edge"><title>Node3&#45;&gt;Node2</title>
<path fill="none" stroke="midnightblue" d="M134.163,-20.904C143.215,-22.291 152.001,-23.6373 159.725,-24.8208"/>
<polygon fill="midnightblue" stroke="midnightblue" points="134.688,-17.4437 124.273,-19.3887 133.628,-24.363 134.688,-17.4437"/>
</g>
</g>
</svg>
