<?xml version="1.0" encoding="UTF-8" standalone="no"?>
<!DOCTYPE svg PUBLIC "-//W3C//DTD SVG 1.1//EN"
 "http://www.w3.org/Graphics/SVG/1.1/DTD/svg11.dtd">
<!-- Generated by graphviz version 2.38.0 (20140413.2041)
 -->
<!-- Title: calculateIsoCoordinates Pages: 1 -->
<svg width="989pt" height="47pt"
 viewBox="0.00 0.00 989.00 47.00" xmlns="http://www.w3.org/2000/svg" xmlns:xlink="http://www.w3.org/1999/xlink">
<g id="graph0" class="graph" transform="scale(1 1) rotate(0) translate(4 43)">
<title>calculateIsoCoordinates</title>
<!-- Node1 -->
<g id="node1" class="node"><title>Node1</title>
<polygon fill="#bfbfbf" stroke="black" points="0,-19.5 0,-38.5 131,-38.5 131,-19.5 0,-19.5"/>
<text text-anchor="middle" x="65.5" y="-26.5" font-family="Helvetica,sans-Serif" font-size="10.00">calculateIsoCoordinates</text>
</g>
<!-- Node2 -->
<g id="node2" class="node"><title>Node2</title>
<g id="a_node2"><a xlink:href="isoMath_8hxx.html#ad3c5f070c4a876bc6e8978635d02ce52" target="_top" xlink:title="converts screen space coordinates to isometric space coordinates. To convert screen coordinates in to...">
<polygon fill="none" stroke="black" points="317,-19.5 317,-38.5 484,-38.5 484,-19.5 317,-19.5"/>
<text text-anchor="middle" x="400.5" y="-26.5" font-family="Helvetica,sans-Serif" font-size="10.00">convertScreenToIsoCoordinates</text>
</a>
</g>
</g>
<!-- Node1&#45;&gt;Node2 -->
<g id="edge1" class="edge"><title>Node1&#45;&gt;Node2</title>
<path fill="none" stroke="midnightblue" d="M141.282,-29C193.402,-29 262.951,-29 316.737,-29"/>
<polygon fill="midnightblue" stroke="midnightblue" points="141.101,-25.5001 131.101,-29 141.101,-32.5001 141.101,-25.5001"/>
</g>
<!-- Node7 -->
<g id="node7" class="node"><title>Node7</title>
<g id="a_node7"><a xlink:href="classMap.html#a4619fa631a0082754a92f1d3a8530bba" target="_top" xlink:title="Returns the node at given screencoordinates. ">
<polygon fill="none" stroke="black" points="167,-0.5 167,-19.5 281,-19.5 281,-0.5 167,-0.5"/>
<text text-anchor="middle" x="224" y="-7.5" font-family="Helvetica,sans-Serif" font-size="10.00">Map::findNodeInMap</text>
</a>
</g>
</g>
<!-- Node1&#45;&gt;Node7 -->
<g id="edge6" class="edge"><title>Node1&#45;&gt;Node7</title>
<path fill="none" stroke="midnightblue" d="M141.081,-19.9455C149.663,-18.9036 158.304,-17.8545 166.59,-16.8485"/>
<polygon fill="midnightblue" stroke="midnightblue" points="140.563,-16.4825 131.058,-21.1623 141.407,-23.4315 140.563,-16.4825"/>
</g>
<!-- Node3 -->
<g id="node3" class="node"><title>Node3</title>
<g id="a_node3"><a xlink:href="classEventManager.html#a65ec91fd5016d4f9c4167fb8babed2df" target="_top" xlink:title="EventManager::checkEvents">
<polygon fill="none" stroke="black" points="520,-19.5 520,-38.5 672,-38.5 672,-19.5 520,-19.5"/>
<text text-anchor="middle" x="596" y="-26.5" font-family="Helvetica,sans-Serif" font-size="10.00">EventManager::checkEvents</text>
</a>
</g>
</g>
<!-- Node2&#45;&gt;Node3 -->
<g id="edge2" class="edge"><title>Node2&#45;&gt;Node3</title>
<path fill="none" stroke="midnightblue" d="M494.142,-29C502.707,-29 511.315,-29 519.698,-29"/>
<polygon fill="midnightblue" stroke="midnightblue" points="494.123,-25.5001 484.123,-29 494.123,-32.5001 494.123,-25.5001"/>
</g>
<!-- Node4 -->
<g id="node4" class="node"><title>Node4</title>
<g id="a_node4"><a xlink:href="classGame.html#a1c2ab25d5216b2f4b2fe41efd2c09114" target="_top" xlink:title="Game::run">
<polygon fill="none" stroke="black" points="708,-19.5 708,-38.5 776,-38.5 776,-19.5 708,-19.5"/>
<text text-anchor="middle" x="742" y="-26.5" font-family="Helvetica,sans-Serif" font-size="10.00">Game::run</text>
</a>
</g>
</g>
<!-- Node3&#45;&gt;Node4 -->
<g id="edge3" class="edge"><title>Node3&#45;&gt;Node4</title>
<path fill="none" stroke="midnightblue" d="M682.473,-29C691.339,-29 699.922,-29 707.658,-29"/>
<polygon fill="midnightblue" stroke="midnightblue" points="682.374,-25.5001 672.374,-29 682.374,-32.5001 682.374,-25.5001"/>
</g>
<!-- Node5 -->
<g id="node5" class="node"><title>Node5</title>
<g id="a_node5"><a xlink:href="main_8cxx.html#af582d708d899e67ead623eac34a22387" target="_top" xlink:title="protected_main">
<polygon fill="none" stroke="black" points="812,-19.5 812,-38.5 904,-38.5 904,-19.5 812,-19.5"/>
<text text-anchor="middle" x="858" y="-26.5" font-family="Helvetica,sans-Serif" font-size="10.00">protected_main</text>
</a>
</g>
</g>
<!-- Node4&#45;&gt;Node5 -->
<g id="edge4" class="edge"><title>Node4&#45;&gt;Node5</title>
<path fill="none" stroke="midnightblue" d="M786.44,-29C794.674,-29 803.308,-29 811.601,-29"/>
<polygon fill="midnightblue" stroke="midnightblue" points="786.28,-25.5001 776.28,-29 786.28,-32.5001 786.28,-25.5001"/>
</g>
<!-- Node6 -->
<g id="node6" class="node"><title>Node6</title>
<g id="a_node6"><a xlink:href="main_8cxx.html#a3c04138a5bfe5d72780bb7e82a18e627" target="_top" xlink:title="main">
<polygon fill="none" stroke="black" points="940,-19.5 940,-38.5 981,-38.5 981,-19.5 940,-19.5"/>
<text text-anchor="middle" x="960.5" y="-26.5" font-family="Helvetica,sans-Serif" font-size="10.00">main</text>
</a>
</g>
</g>
<!-- Node5&#45;&gt;Node6 -->
<g id="edge5" class="edge"><title>Node5&#45;&gt;Node6</title>
<path fill="none" stroke="midnightblue" d="M914.539,-29C923.619,-29 932.466,-29 939.877,-29"/>
<polygon fill="midnightblue" stroke="midnightblue" points="914.252,-25.5001 904.252,-29 914.252,-32.5001 914.252,-25.5001"/>
</g>
<!-- Node7&#45;&gt;Node2 -->
<g id="edge7" class="edge"><title>Node7&#45;&gt;Node2</title>
<path fill="none" stroke="midnightblue" d="M291.203,-17.2084C299.556,-18.1178 308.182,-19.057 316.749,-19.9899"/>
<polygon fill="midnightblue" stroke="midnightblue" points="291.494,-13.7194 281.173,-16.1163 290.736,-20.6783 291.494,-13.7194"/>
</g>
</g>
</svg>
