<?xml version="1.0" encoding="UTF-8" standalone="no"?>
<!DOCTYPE svg PUBLIC "-//W3C//DTD SVG 1.1//EN"
 "http://www.w3.org/Graphics/SVG/1.1/DTD/svg11.dtd">
<!-- Generated by graphviz version 2.38.0 (20140413.2041)
 -->
<!-- Title: convertScreenToIsoCoordinates Pages: 1 -->
<!--zoomable 165 -->
<svg id="main" version="1.1" xmlns="http://www.w3.org/2000/svg" xmlns:xlink="http://www.w3.org/1999/xlink" xml:space="preserve" onload="init(evt)">
<style type="text/css"><![CDATA[
.edge:hover path { stroke: red; }
.edge:hover polygon { stroke: red; fill: red; }
]]></style>
<script type="text/javascript"><![CDATA[
var edges = document.getElementsByTagName('g');
if (edges && edges.length) {
  for (var i=0;i<edges.length;i++) {
    if (edges[i].id.substr(0,4)=='edge') {
      edges[i].setAttribute('class','edge');
    }
  }
}
]]></script>
        <defs>
                <circle id="rim" cx="0" cy="0" r="7"/>
                <circle id="rim2" cx="0" cy="0" r="3.5"/>
                <g id="zoomPlus">
                        <use xlink:href="#rim" fill="#404040">
                                <set attributeName="fill" to="#808080" begin="zoomplus.mouseover" end="zoomplus.mouseout"/>
                        </use>
                        <path d="M-4,0h8M0,-4v8" fill="none" stroke="white" stroke-width="1.5" pointer-events="none"/>
                </g>
                <g id="zoomMin">
                        <use xlink:href="#rim" fill="#404040">
                                <set attributeName="fill" to="#808080" begin="zoomminus.mouseover" end="zoomminus.mouseout"/>
                        </use>
                        <path d="M-4,0h8" fill="none" stroke="white" stroke-width="1.5" pointer-events="none"/>
                </g>
                <g id="dirArrow">
                        <path fill="none" stroke="white" stroke-width="1.5" d="M0,-3.0v7 M-2.5,-0.5L0,-3.0L2.5,-0.5"/>
                </g>
               <g id="resetDef">
                       <use xlink:href="#rim2" fill="#404040">
                               <set attributeName="fill" to="#808080" begin="reset.mouseover" end="reset.mouseout"/>
                       </use>
               </g>
        </defs>

<script type="text/javascript">
var viewWidth = 859;
var viewHeight = 165;
var sectionId = 'dynsection-4';
</script>
<script xlink:href="svgpan.js"/>
<svg id="graph" class="graph">
<g id="viewport">
<title>convertScreenToIsoCoordinates</title>
<!-- Node1 -->
<g id="node1" class="node"><title>Node1</title>
<polygon fill="#bfbfbf" stroke="black" points="0,-121 0,-140 167,-140 167,-121 0,-121"/>
<text text-anchor="middle" x="83.5" y="-128" font-family="Helvetica,sans-Serif" font-size="10.00">convertScreenToIsoCoordinates</text>
</g>
<!-- Node2 -->
<g id="node2" class="node"><title>Node2</title>
<g id="a_node2"><a xlink:href="classSingleton.html#af5cb1e5749949e2b68416cfb8d378044" target="_top" xlink:title="Get an instance of the singleton. ">
<polygon fill="none" stroke="black" points="542.5,-126.5 542.5,-156.5 658.5,-156.5 658.5,-126.5 542.5,-126.5"/>
<text text-anchor="start" x="550.5" y="-144.5" font-family="Helvetica,sans-Serif" font-size="10.00">Singleton&lt; Engine &gt;</text>
<text text-anchor="middle" x="600.5" y="-133.5" font-family="Helvetica,sans-Serif" font-size="10.00">::instance</text>
</a>
</g>
</g>
<!-- Node1&#45;&gt;Node2 -->
<g id="edge1" class="edge"><title>Node1&#45;&gt;Node2</title>
<path fill="none" stroke="midnightblue" d="M167.244,-127.153C268.646,-127.016 438.505,-130.773 532.257,-135.335"/>
<polygon fill="midnightblue" stroke="midnightblue" points="532.309,-138.842 542.472,-135.851 532.662,-131.851 532.309,-138.842"/>
</g>
<!-- Node1&#45;&gt;Node2 -->
<g id="edge14" class="edge"><title>Node1&#45;&gt;Node2</title>
<path fill="none" stroke="midnightblue" d="M167.244,-137.382C268.646,-141.85 438.505,-145.35 532.257,-144.793"/>
<polygon fill="midnightblue" stroke="midnightblue" points="532.5,-148.291 542.472,-144.713 532.445,-141.291 532.5,-148.291"/>
</g>
<!-- Node3 -->
<g id="node3" class="node"><title>Node3</title>
<g id="a_node3"><a xlink:href="classMap.html#a4619fa631a0082754a92f1d3a8530bba" target="_top" xlink:title="Returns the node at given screencoordinates. ">
<polygon fill="none" stroke="black" points="203,-88 203,-107 317,-107 317,-88 203,-88"/>
<text text-anchor="middle" x="260" y="-95" font-family="Helvetica,sans-Serif" font-size="10.00">Map::findNodeInMap</text>
</a>
</g>
</g>
<!-- Node1&#45;&gt;Node3 -->
<g id="edge2" class="edge"><title>Node1&#45;&gt;Node3</title>
<path fill="none" stroke="midnightblue" d="M134.973,-120.955C154.868,-117.193 177.887,-112.84 198.652,-108.913"/>
<polygon fill="midnightblue" stroke="midnightblue" points="199.465,-112.321 208.641,-107.024 198.165,-105.443 199.465,-112.321"/>
</g>
<!-- Node4 -->
<g id="node4" class="node"><title>Node4</title>
<g id="a_node4"><a xlink:href="isoMath_8cxx.html#a0a076d973bc64ffa7859b894793c8000" target="_top" xlink:title="Calculates screen space coordinates to isometric space coordinates. A formula is used to calculate th...">
<polygon fill="none" stroke="black" points="353,-31 353,-50 484,-50 484,-31 353,-31"/>
<text text-anchor="middle" x="418.5" y="-38" font-family="Helvetica,sans-Serif" font-size="10.00">calculateIsoCoordinates</text>
</a>
</g>
</g>
<!-- Node1&#45;&gt;Node4 -->
<g id="edge13" class="edge"><title>Node1&#45;&gt;Node4</title>
<path fill="none" stroke="midnightblue" d="M102.857,-120.796C125.713,-109.105 166.235,-89.6485 203,-78.5 248.472,-64.7111 300.976,-55.3039 342.658,-49.2988"/>
<polygon fill="midnightblue" stroke="midnightblue" points="343.322,-52.74 352.737,-47.8823 342.347,-45.8081 343.322,-52.74"/>
</g>
<!-- Node3&#45;&gt;Node2 -->
<g id="edge4" class="edge"><title>Node3&#45;&gt;Node2</title>
<path fill="none" stroke="midnightblue" d="M317.276,-104.815C376.311,-112.489 469.092,-124.549 532.019,-132.728"/>
<polygon fill="midnightblue" stroke="midnightblue" points="531.872,-136.239 542.24,-134.057 532.775,-129.297 531.872,-136.239"/>
</g>
<!-- Node3&#45;&gt;Node4 -->
<g id="edge3" class="edge"><title>Node3&#45;&gt;Node4</title>
<path fill="none" stroke="midnightblue" d="M283.344,-87.9535C306.052,-78.3093 339.718,-64.1847 353,-59.5 359.361,-57.2564 366.137,-55.0576 372.815,-52.9978"/>
<polygon fill="midnightblue" stroke="midnightblue" points="373.906,-56.3248 382.472,-50.0902 371.887,-49.6221 373.906,-56.3248"/>
</g>
<!-- Node5 -->
<g id="node5" class="node"><title>Node5</title>
<g id="a_node5"><a xlink:href="classMap.html#a4481133402bbf2899f9062c1d4061bef" target="_top" xlink:title="Map::isClickWithinTile">
<polygon fill="none" stroke="black" points="360.5,-69 360.5,-88 476.5,-88 476.5,-69 360.5,-69"/>
<text text-anchor="middle" x="418.5" y="-76" font-family="Helvetica,sans-Serif" font-size="10.00">Map::isClickWithinTile</text>
</a>
</g>
</g>
<!-- Node3&#45;&gt;Node5 -->
<g id="edge5" class="edge"><title>Node3&#45;&gt;Node5</title>
<path fill="none" stroke="midnightblue" d="M317.058,-90.6942C327.802,-89.3898 339.155,-88.0116 350.21,-86.6694"/>
<polygon fill="midnightblue" stroke="midnightblue" points="350.747,-90.13 360.252,-85.4502 349.903,-83.181 350.747,-90.13"/>
</g>
<!-- Node5&#45;&gt;Node2 -->
<g id="edge6" class="edge"><title>Node5&#45;&gt;Node2</title>
<path fill="none" stroke="midnightblue" d="M469.529,-88.0728C474.423,-89.8706 479.31,-91.7155 484,-93.5 500.045,-99.6047 503.803,-101.811 520,-107.5 534.61,-112.632 550.898,-117.842 564.909,-122.826"/>
<polygon fill="midnightblue" stroke="midnightblue" points="564.058,-126.242 574.652,-126.411 566.475,-119.673 564.058,-126.242"/>
</g>
<!-- Node5&#45;&gt;Node2 -->
<g id="edge11" class="edge"><title>Node5&#45;&gt;Node2</title>
<path fill="none" stroke="midnightblue" d="M429.133,-88.2083C441.755,-95.6766 464.569,-104.107 484,-111.5 500.045,-117.605 503.803,-119.811 520,-125.5 524.183,-126.969 528.503,-128.445 532.868,-129.889"/>
<polygon fill="midnightblue" stroke="midnightblue" points="531.868,-133.244 542.46,-132.985 534.018,-126.582 531.868,-133.244"/>
</g>
<!-- Node6 -->
<g id="node6" class="node"><title>Node6</title>
<g id="a_node6"><a xlink:href="classMapLayers.html#a1d810628821913c499b8348107b66891" target="_top" xlink:title="Check if given Layer is being drawn. ">
<polygon fill="none" stroke="black" points="532,-88 532,-107 669,-107 669,-88 532,-88"/>
<text text-anchor="middle" x="600.5" y="-95" font-family="Helvetica,sans-Serif" font-size="10.00">MapLayers::isLayerActive</text>
</a>
</g>
</g>
<!-- Node5&#45;&gt;Node6 -->
<g id="edge7" class="edge"><title>Node5&#45;&gt;Node6</title>
<path fill="none" stroke="midnightblue" d="M476.948,-84.564C491.159,-86.064 506.622,-87.6962 521.627,-89.2801"/>
<polygon fill="midnightblue" stroke="midnightblue" points="521.608,-92.7975 531.92,-90.3666 522.343,-85.8361 521.608,-92.7975"/>
</g>
<!-- Node9 -->
<g id="node9" class="node"><title>Node9</title>
<g id="a_node9"><a xlink:href="classMap.html#a7a58d0e00e4990a1234a0afb5fd8be4f" target="_top" xlink:title="Map::getColorOfPixelInSurface">
<polygon fill="none" stroke="black" points="520,-50 520,-69 681,-69 681,-50 520,-50"/>
<text text-anchor="middle" x="600.5" y="-57" font-family="Helvetica,sans-Serif" font-size="10.00">Map::getColorOfPixelInSurface</text>
</a>
</g>
</g>
<!-- Node5&#45;&gt;Node9 -->
<g id="edge10" class="edge"><title>Node5&#45;&gt;Node9</title>
<path fill="none" stroke="midnightblue" d="M476.948,-72.436C487.425,-71.3302 498.582,-70.1525 509.734,-68.9753"/>
<polygon fill="midnightblue" stroke="midnightblue" points="510.377,-72.4269 519.955,-67.8964 509.643,-65.4656 510.377,-72.4269"/>
</g>
<!-- Node10 -->
<g id="node10" class="node"><title>Node10</title>
<g id="a_node10"><a xlink:href="classResourcesManager.html#ad84710588e607e440931c6956a14aac7" target="_top" xlink:title="ResourcesManager::getTile\lSurface">
<polygon fill="none" stroke="black" points="528,-0.5 528,-30.5 673,-30.5 673,-0.5 528,-0.5"/>
<text text-anchor="start" x="536" y="-18.5" font-family="Helvetica,sans-Serif" font-size="10.00">ResourcesManager::getTile</text>
<text text-anchor="middle" x="600.5" y="-7.5" font-family="Helvetica,sans-Serif" font-size="10.00">Surface</text>
</a>
</g>
</g>
<!-- Node5&#45;&gt;Node10 -->
<g id="edge12" class="edge"><title>Node5&#45;&gt;Node10</title>
<path fill="none" stroke="midnightblue" d="M456.434,-68.994C465.566,-66.2698 475.24,-63.0603 484,-59.5 500.76,-52.688 503.302,-47.4643 520,-40.5 525.475,-38.2165 531.235,-36.0232 537.049,-33.9497"/>
<polygon fill="midnightblue" stroke="midnightblue" points="538.527,-37.1427 546.844,-30.5786 536.249,-30.5237 538.527,-37.1427"/>
</g>
<!-- Node7 -->
<g id="node7" class="node"><title>Node7</title>
<g id="a_node7"><a xlink:href="classMapLayers.html#a53d7fcd90e70eaf36239d7a75c0c5dda" target="_top" xlink:title="MapLayers::MapLayers">
<polygon fill="none" stroke="black" points="721,-107 721,-126 847,-126 847,-107 721,-107"/>
<text text-anchor="middle" x="784" y="-114" font-family="Helvetica,sans-Serif" font-size="10.00">MapLayers::MapLayers</text>
</a>
</g>
</g>
<!-- Node6&#45;&gt;Node7 -->
<g id="edge8" class="edge"><title>Node6&#45;&gt;Node7</title>
<path fill="none" stroke="midnightblue" d="M669.084,-104.575C682.577,-105.987 696.802,-107.477 710.454,-108.906"/>
<polygon fill="midnightblue" stroke="midnightblue" points="710.45,-112.424 720.76,-109.985 711.179,-105.462 710.45,-112.424"/>
</g>
<!-- Node8 -->
<g id="node8" class="node"><title>Node8</title>
<g id="a_node8"><a xlink:href="classMapLayers.html#aa7fa21110e27ec69f131692b0a510d66" target="_top" xlink:title="MapLayers::~MapLayers">
<polygon fill="none" stroke="black" points="717,-69 717,-88 851,-88 851,-69 717,-69"/>
<text text-anchor="middle" x="784" y="-76" font-family="Helvetica,sans-Serif" font-size="10.00">MapLayers::~MapLayers</text>
</a>
</g>
</g>
<!-- Node6&#45;&gt;Node8 -->
<g id="edge9" class="edge"><title>Node6&#45;&gt;Node8</title>
<path fill="none" stroke="midnightblue" d="M669.084,-90.4251C681.411,-89.1347 694.349,-87.7803 706.902,-86.4662"/>
<polygon fill="midnightblue" stroke="midnightblue" points="707.287,-89.9451 716.869,-85.4228 706.558,-82.9831 707.287,-89.9451"/>
</g>
</g>
</svg>
        <g id="navigator" transform="translate(0 0)" fill="#404254">
                <rect fill="#f2f5e9" fill-opacity="0.5" stroke="#606060" stroke-width=".5" x="0" y="0" width="60" height="60"/>
                <use id="zoomplus" xlink:href="#zoomPlus" x="17" y="9" onmousedown="handleZoom(evt,'in')"/>
                <use id="zoomminus" xlink:href="#zoomMin" x="42" y="9" onmousedown="handleZoom(evt,'out')"/>
                <use id="reset" xlink:href="#resetDef" x="30" y="36" onmousedown="handleReset()"/>
                <g id="arrowUp" xlink:href="#dirArrow" transform="translate(30 24)" onmousedown="handlePan(0,-1)">
                  <use xlink:href="#rim" fill="#404040">
                        <set attributeName="fill" to="#808080" begin="arrowUp.mouseover" end="arrowUp.mouseout"/>
                  </use>
                  <path fill="none" stroke="white" stroke-width="1.5" d="M0,-3.0v7 M-2.5,-0.5L0,-3.0L2.5,-0.5"/>
                </g>
                <g id="arrowRight" xlink:href="#dirArrow" transform="rotate(90) translate(36 -43)" onmousedown="handlePan(1,0)">
                  <use xlink:href="#rim" fill="#404040">
                        <set attributeName="fill" to="#808080" begin="arrowRight.mouseover" end="arrowRight.mouseout"/>
                  </use>
                  <path fill="none" stroke="white" stroke-width="1.5" d="M0,-3.0v7 M-2.5,-0.5L0,-3.0L2.5,-0.5"/>
                </g>
                <g id="arrowDown" xlink:href="#dirArrow" transform="rotate(180) translate(-30 -48)" onmousedown="handlePan(0,1)">
                  <use xlink:href="#rim" fill="#404040">
                        <set attributeName="fill" to="#808080" begin="arrowDown.mouseover" end="arrowDown.mouseout"/>
                  </use>
                  <path fill="none" stroke="white" stroke-width="1.5" d="M0,-3.0v7 M-2.5,-0.5L0,-3.0L2.5,-0.5"/>
                </g>
                <g id="arrowLeft" xlink:href="#dirArrow" transform="rotate(270) translate(-36 17)" onmousedown="handlePan(-1,0)">
                  <use xlink:href="#rim" fill="#404040">
                        <set attributeName="fill" to="#808080" begin="arrowLeft.mouseover" end="arrowLeft.mouseout"/>
                  </use>
                  <path fill="none" stroke="white" stroke-width="1.5" d="M0,-3.0v7 M-2.5,-0.5L0,-3.0L2.5,-0.5"/>
                </g>
        </g>
        <svg viewBox="0 0 15 15" width="100%" height="30px" preserveAspectRatio="xMaxYMin meet">
         <g id="arrow_out" transform="scale(0.3 0.3)">
          <a xlink:href="isoMath_8hxx_ad3c5f070c4a876bc6e8978635d02ce52_cgraph_org.svg" target="_base">
           <rect id="button" ry="5" rx="5" y="6" x="6" height="38" width="38"
                fill="#f2f5e9" fill-opacity="0.5" stroke="#606060" stroke-width="1.0"/>
           <path id="arrow"
             d="M 11.500037,31.436501 C 11.940474,20.09759 22.043105,11.32322 32.158766,21.979434 L 37.068811,17.246167 C 37.068811,17.246167 37.088388,32 37.088388,32 L 22.160133,31.978069 C 22.160133,31.978069 26.997745,27.140456 26.997745,27.140456 C 18.528582,18.264221 13.291696,25.230495 11.500037,31.436501 z"
             style="fill:#404040;"/>
          </a>
         </g>
        </svg>
</svg>
