<?xml version="1.0" encoding="UTF-8" standalone="no"?>
<!DOCTYPE svg PUBLIC "-//W3C//DTD SVG 1.1//EN"
 "http://www.w3.org/Graphics/SVG/1.1/DTD/svg11.dtd">
<!-- Generated by graphviz version 2.38.0 (20140413.2041)
 -->
<!-- Title: convertIsoToScreenCoordinates Pages: 1 -->
<!--zoomable 192 -->
<svg id="main" version="1.1" xmlns="http://www.w3.org/2000/svg" xmlns:xlink="http://www.w3.org/1999/xlink" xml:space="preserve" onload="init(evt)">
<style type="text/css"><![CDATA[
.edge:hover path { stroke: red; }
.edge:hover polygon { stroke: red; fill: red; }
]]></style>
<script type="text/javascript"><![CDATA[
var edges = document.getElementsByTagName('g');
if (edges && edges.length) {
  for (var i=0;i<edges.length;i++) {
    if (edges[i].id.substr(0,4)=='edge') {
      edges[i].setAttribute('class','edge');
    }
  }
}
]]></script>
        <defs>
                <circle id="rim" cx="0" cy="0" r="7"/>
                <circle id="rim2" cx="0" cy="0" r="3.5"/>
                <g id="zoomPlus">
                        <use xlink:href="#rim" fill="#404040">
                                <set attributeName="fill" to="#808080" begin="zoomplus.mouseover" end="zoomplus.mouseout"/>
                        </use>
                        <path d="M-4,0h8M0,-4v8" fill="none" stroke="white" stroke-width="1.5" pointer-events="none"/>
                </g>
                <g id="zoomMin">
                        <use xlink:href="#rim" fill="#404040">
                                <set attributeName="fill" to="#808080" begin="zoomminus.mouseover" end="zoomminus.mouseout"/>
                        </use>
                        <path d="M-4,0h8" fill="none" stroke="white" stroke-width="1.5" pointer-events="none"/>
                </g>
                <g id="dirArrow">
                        <path fill="none" stroke="white" stroke-width="1.5" d="M0,-3.0v7 M-2.5,-0.5L0,-3.0L2.5,-0.5"/>
                </g>
               <g id="resetDef">
                       <use xlink:href="#rim2" fill="#404040">
                               <set attributeName="fill" to="#808080" begin="reset.mouseover" end="reset.mouseout"/>
                       </use>
               </g>
        </defs>

<script type="text/javascript">
var viewWidth = 1261;
var viewHeight = 192;
var sectionId = 'dynsection-3';
</script>
<script xlink:href="svgpan.js"/>
<svg id="graph" class="graph">
<g id="viewport">
<title>convertIsoToScreenCoordinates</title>
<!-- Node1 -->
<g id="node1" class="node"><title>Node1</title>
<polygon fill="#bfbfbf" stroke="black" points="0,-38.5 0,-57.5 167,-57.5 167,-38.5 0,-38.5"/>
<text text-anchor="middle" x="83.5" y="-45.5" font-family="Helvetica,sans-Serif" font-size="10.00">convertIsoToScreenCoordinates</text>
</g>
<!-- Node2 -->
<g id="node2" class="node"><title>Node2</title>
<g id="a_node2"><a xlink:href="classCamera.html#adfb240823ff20b97b69459490dbd8dc3" target="_top" xlink:title="Centers camera on given isometric coordinates Centers the camera on the given isometric coordinates...">
<polygon fill="none" stroke="black" points="203,-76.5 203,-95.5 366,-95.5 366,-76.5 203,-76.5"/>
<text text-anchor="middle" x="284.5" y="-83.5" font-family="Helvetica,sans-Serif" font-size="10.00">Camera::centerScreenOnPoint</text>
</a>
</g>
</g>
<!-- Node1&#45;&gt;Node2 -->
<g id="edge1" class="edge"><title>Node1&#45;&gt;Node2</title>
<path fill="none" stroke="midnightblue" d="M144.295,-59.4181C172.768,-64.8552 206.431,-71.2832 233.52,-76.4561"/>
<polygon fill="midnightblue" stroke="midnightblue" points="144.938,-55.9778 134.459,-57.54 143.625,-62.8536 144.938,-55.9778"/>
</g>
<!-- Node11 -->
<g id="node11" class="node"><title>Node11</title>
<g id="a_node11"><a xlink:href="classSprite.html#abcd3ca18d49d4eef5cfd5955b9975518" target="_top" xlink:title="Sprite::Sprite">
<polygon fill="none" stroke="black" points="244.5,-38.5 244.5,-57.5 324.5,-57.5 324.5,-38.5 244.5,-38.5"/>
<text text-anchor="middle" x="284.5" y="-45.5" font-family="Helvetica,sans-Serif" font-size="10.00">Sprite::Sprite</text>
</a>
</g>
</g>
<!-- Node1&#45;&gt;Node11 -->
<g id="edge15" class="edge"><title>Node1&#45;&gt;Node11</title>
<path fill="none" stroke="midnightblue" d="M177.239,-48C200.854,-48 224.978,-48 244.26,-48"/>
<polygon fill="midnightblue" stroke="midnightblue" points="177.165,-44.5001 167.165,-48 177.165,-51.5001 177.165,-44.5001"/>
</g>
<!-- Node12 -->
<g id="node12" class="node"><title>Node12</title>
<g id="a_node12"><a xlink:href="classSprite.html#a9f2df90a866c027dc7d6c688ff6c9c90" target="_top" xlink:title="Sprite::refresh">
<polygon fill="none" stroke="black" points="242,-0.5 242,-19.5 327,-19.5 327,-0.5 242,-0.5"/>
<text text-anchor="middle" x="284.5" y="-7.5" font-family="Helvetica,sans-Serif" font-size="10.00">Sprite::refresh</text>
</a>
</g>
</g>
<!-- Node1&#45;&gt;Node12 -->
<g id="edge16" class="edge"><title>Node1&#45;&gt;Node12</title>
<path fill="none" stroke="midnightblue" d="M144.435,-36.5551C175.906,-30.5455 213.686,-23.3314 241.919,-17.94"/>
<polygon fill="midnightblue" stroke="midnightblue" points="143.625,-33.1464 134.459,-38.46 144.938,-40.0222 143.625,-33.1464"/>
</g>
<!-- Node3 -->
<g id="node3" class="node"><title>Node3</title>
<g id="a_node3"><a xlink:href="classCamera.html#a0a8ee04ccb4f4cc9af52a964cf225f66" target="_top" xlink:title="Increases the zoom level of the camera Increases the zoom level of the camera. ">
<polygon fill="none" stroke="black" points="404,-114.5 404,-133.5 559,-133.5 559,-114.5 404,-114.5"/>
<text text-anchor="middle" x="481.5" y="-121.5" font-family="Helvetica,sans-Serif" font-size="10.00">Camera::increaseZoomLevel</text>
</a>
</g>
</g>
<!-- Node2&#45;&gt;Node3 -->
<g id="edge2" class="edge"><title>Node2&#45;&gt;Node3</title>
<path fill="none" stroke="midnightblue" d="M344.459,-97.4894C372.282,-102.911 405.096,-109.306 431.525,-114.456"/>
<polygon fill="midnightblue" stroke="midnightblue" points="344.94,-94.0174 334.455,-95.54 343.601,-100.888 344.94,-94.0174"/>
</g>
<!-- Node4 -->
<g id="node4" class="node"><title>Node4</title>
<g id="a_node4"><a xlink:href="classCamera.html#a1f8ecd427814c5a4970223c2d13b9310" target="_top" xlink:title="Camera::setPinchDistance">
<polygon fill="none" stroke="black" points="605,-76.5 605,-95.5 748,-95.5 748,-76.5 605,-76.5"/>
<text text-anchor="middle" x="676.5" y="-83.5" font-family="Helvetica,sans-Serif" font-size="10.00">Camera::setPinchDistance</text>
</a>
</g>
</g>
<!-- Node2&#45;&gt;Node4 -->
<g id="edge12" class="edge"><title>Node2&#45;&gt;Node4</title>
<path fill="none" stroke="midnightblue" d="M376.403,-86C446.099,-86 540.894,-86 604.936,-86"/>
<polygon fill="midnightblue" stroke="midnightblue" points="376.308,-82.5001 366.308,-86 376.308,-89.5001 376.308,-82.5001"/>
</g>
<!-- Node9 -->
<g id="node9" class="node"><title>Node9</title>
<g id="a_node9"><a xlink:href="classCamera.html#aeea39f352d5873495dea6f376cf3207e" target="_top" xlink:title="Decreases the zoom level of the camera Decreases the zoom level of the camera. ">
<polygon fill="none" stroke="black" points="402,-38.5 402,-57.5 561,-57.5 561,-38.5 402,-38.5"/>
<text text-anchor="middle" x="481.5" y="-45.5" font-family="Helvetica,sans-Serif" font-size="10.00">Camera::decreaseZoomLevel</text>
</a>
</g>
</g>
<!-- Node2&#45;&gt;Node9 -->
<g id="edge9" class="edge"><title>Node2&#45;&gt;Node9</title>
<path fill="none" stroke="midnightblue" d="M344.459,-74.5106C372.282,-69.0886 405.096,-62.6942 431.525,-57.5439"/>
<polygon fill="midnightblue" stroke="midnightblue" points="343.601,-71.1118 334.455,-76.46 344.94,-77.9826 343.601,-71.1118"/>
</g>
<!-- Node10 -->
<g id="node10" class="node"><title>Node10</title>
<g id="a_node10"><a xlink:href="classCamera.html#af29da768f8948f3afbf0a9b43530eb1d" target="_top" xlink:title="Centers camera on the middle of the map Centers the camera on the middle of the map. ">
<polygon fill="none" stroke="black" points="597,-153 597,-183 756,-183 756,-153 597,-153"/>
<text text-anchor="start" x="605" y="-171" font-family="Helvetica,sans-Serif" font-size="10.00">Camera::centerScreenOnMap</text>
<text text-anchor="middle" x="676.5" y="-160" font-family="Helvetica,sans-Serif" font-size="10.00">Center</text>
</a>
</g>
</g>
<!-- Node2&#45;&gt;Node10 -->
<g id="edge13" class="edge"><title>Node2&#45;&gt;Node10</title>
<path fill="none" stroke="midnightblue" d="M309.263,-100.846C332.109,-114.323 368.079,-133.499 402,-143 466.05,-160.94 541.508,-166.751 596.923,-168.326"/>
<polygon fill="midnightblue" stroke="midnightblue" points="310.98,-97.7942 300.606,-95.6396 307.372,-103.793 310.98,-97.7942"/>
</g>
<!-- Node3&#45;&gt;Node4 -->
<g id="edge3" class="edge"><title>Node3&#45;&gt;Node4</title>
<path fill="none" stroke="midnightblue" d="M541.102,-112.462C568.629,-107.042 601.048,-100.659 627.148,-95.5201"/>
<polygon fill="midnightblue" stroke="midnightblue" points="540.338,-109.045 531.202,-114.411 541.69,-115.913 540.338,-109.045"/>
</g>
<!-- Node5 -->
<g id="node5" class="node"><title>Node5</title>
<g id="a_node5"><a xlink:href="classEventManager.html#a65ec91fd5016d4f9c4167fb8babed2df" target="_top" xlink:title="EventManager::checkEvents">
<polygon fill="none" stroke="black" points="792,-87.5 792,-106.5 944,-106.5 944,-87.5 792,-87.5"/>
<text text-anchor="middle" x="868" y="-94.5" font-family="Helvetica,sans-Serif" font-size="10.00">EventManager::checkEvents</text>
</a>
</g>
</g>
<!-- Node3&#45;&gt;Node5 -->
<g id="edge8" class="edge"><title>Node3&#45;&gt;Node5</title>
<path fill="none" stroke="midnightblue" d="M569.314,-118.027C623.083,-114.313 693.555,-109.419 756,-105 767.564,-104.182 779.804,-103.307 791.769,-102.449"/>
<polygon fill="midnightblue" stroke="midnightblue" points="568.868,-114.549 559.133,-118.73 569.35,-121.532 568.868,-114.549"/>
</g>
<!-- Node4&#45;&gt;Node5 -->
<g id="edge4" class="edge"><title>Node4&#45;&gt;Node5</title>
<path fill="none" stroke="midnightblue" d="M758.237,-90.6866C769.417,-91.3356 780.863,-92 791.934,-92.6426"/>
<polygon fill="midnightblue" stroke="midnightblue" points="758.249,-87.1815 748.063,-90.096 757.843,-94.1697 758.249,-87.1815"/>
</g>
<!-- Node6 -->
<g id="node6" class="node"><title>Node6</title>
<g id="a_node6"><a xlink:href="classGame.html#a1c2ab25d5216b2f4b2fe41efd2c09114" target="_top" xlink:title="Game::run">
<polygon fill="none" stroke="black" points="980,-117.5 980,-136.5 1048,-136.5 1048,-117.5 980,-117.5"/>
<text text-anchor="middle" x="1014" y="-124.5" font-family="Helvetica,sans-Serif" font-size="10.00">Game::run</text>
</a>
</g>
</g>
<!-- Node5&#45;&gt;Node6 -->
<g id="edge5" class="edge"><title>Node5&#45;&gt;Node6</title>
<path fill="none" stroke="midnightblue" d="M924.797,-108.624C943.375,-112.495 963.472,-116.682 979.783,-120.08"/>
<polygon fill="midnightblue" stroke="midnightblue" points="925.462,-105.188 914.958,-106.575 924.034,-112.041 925.462,-105.188"/>
</g>
<!-- Node7 -->
<g id="node7" class="node"><title>Node7</title>
<g id="a_node7"><a xlink:href="main_8cxx.html#af582d708d899e67ead623eac34a22387" target="_top" xlink:title="protected_main">
<polygon fill="none" stroke="black" points="1084,-117.5 1084,-136.5 1176,-136.5 1176,-117.5 1084,-117.5"/>
<text text-anchor="middle" x="1130" y="-124.5" font-family="Helvetica,sans-Serif" font-size="10.00">protected_main</text>
</a>
</g>
</g>
<!-- Node6&#45;&gt;Node7 -->
<g id="edge6" class="edge"><title>Node6&#45;&gt;Node7</title>
<path fill="none" stroke="midnightblue" d="M1058.44,-127C1066.67,-127 1075.31,-127 1083.6,-127"/>
<polygon fill="midnightblue" stroke="midnightblue" points="1058.28,-123.5 1048.28,-127 1058.28,-130.5 1058.28,-123.5"/>
</g>
<!-- Node8 -->
<g id="node8" class="node"><title>Node8</title>
<g id="a_node8"><a xlink:href="main_8cxx.html#a3c04138a5bfe5d72780bb7e82a18e627" target="_top" xlink:title="main">
<polygon fill="none" stroke="black" points="1212,-117.5 1212,-136.5 1253,-136.5 1253,-117.5 1212,-117.5"/>
<text text-anchor="middle" x="1232.5" y="-124.5" font-family="Helvetica,sans-Serif" font-size="10.00">main</text>
</a>
</g>
</g>
<!-- Node7&#45;&gt;Node8 -->
<g id="edge7" class="edge"><title>Node7&#45;&gt;Node8</title>
<path fill="none" stroke="midnightblue" d="M1186.54,-127C1195.62,-127 1204.47,-127 1211.88,-127"/>
<polygon fill="midnightblue" stroke="midnightblue" points="1186.25,-123.5 1176.25,-127 1186.25,-130.5 1186.25,-123.5"/>
</g>
<!-- Node9&#45;&gt;Node4 -->
<g id="edge10" class="edge"><title>Node9&#45;&gt;Node4</title>
<path fill="none" stroke="midnightblue" d="M541.102,-59.5381C568.629,-64.958 601.048,-71.341 627.148,-76.4799"/>
<polygon fill="midnightblue" stroke="midnightblue" points="541.69,-56.0868 531.202,-57.589 540.338,-62.955 541.69,-56.0868"/>
</g>
<!-- Node9&#45;&gt;Node5 -->
<g id="edge11" class="edge"><title>Node9&#45;&gt;Node5</title>
<path fill="none" stroke="midnightblue" d="M571.268,-49.8001C625.032,-51.9707 694.817,-56.7078 756,-67 784.151,-71.7355 815.487,-80.5414 837.666,-87.3926"/>
<polygon fill="midnightblue" stroke="midnightblue" points="571.205,-46.2952 561.079,-49.4115 570.938,-53.2901 571.205,-46.2952"/>
</g>
<!-- Node10&#45;&gt;Node6 -->
<g id="edge14" class="edge"><title>Node10&#45;&gt;Node6</title>
<path fill="none" stroke="midnightblue" d="M766.345,-157.143C836.613,-148.555 930.802,-137.045 979.972,-131.036"/>
<polygon fill="midnightblue" stroke="midnightblue" points="765.661,-153.7 756.16,-158.387 766.511,-160.648 765.661,-153.7"/>
</g>
<!-- Node13 -->
<g id="node13" class="node"><title>Node13</title>
<g id="a_node13"><a xlink:href="classSprite.html#afe62071332bb38f2e262b63c3ee37736" target="_top" xlink:title="Sprite::setTexture">
<polygon fill="none" stroke="black" points="431,-0.5 431,-19.5 532,-19.5 532,-0.5 431,-0.5"/>
<text text-anchor="middle" x="481.5" y="-7.5" font-family="Helvetica,sans-Serif" font-size="10.00">Sprite::setTexture</text>
</a>
</g>
</g>
<!-- Node12&#45;&gt;Node13 -->
<g id="edge17" class="edge"><title>Node12&#45;&gt;Node13</title>
<path fill="none" stroke="midnightblue" d="M337.645,-10C366.549,-10 402.294,-10 430.798,-10"/>
<polygon fill="midnightblue" stroke="midnightblue" points="337.332,-6.5001 327.332,-10 337.332,-13.5001 337.332,-6.5001"/>
</g>
</g>
</svg>
        <g id="navigator" transform="translate(0 0)" fill="#404254">
                <rect fill="#f2f5e9" fill-opacity="0.5" stroke="#606060" stroke-width=".5" x="0" y="0" width="60" height="60"/>
                <use id="zoomplus" xlink:href="#zoomPlus" x="17" y="9" onmousedown="handleZoom(evt,'in')"/>
                <use id="zoomminus" xlink:href="#zoomMin" x="42" y="9" onmousedown="handleZoom(evt,'out')"/>
                <use id="reset" xlink:href="#resetDef" x="30" y="36" onmousedown="handleReset()"/>
                <g id="arrowUp" xlink:href="#dirArrow" transform="translate(30 24)" onmousedown="handlePan(0,-1)">
                  <use xlink:href="#rim" fill="#404040">
                        <set attributeName="fill" to="#808080" begin="arrowUp.mouseover" end="arrowUp.mouseout"/>
                  </use>
                  <path fill="none" stroke="white" stroke-width="1.5" d="M0,-3.0v7 M-2.5,-0.5L0,-3.0L2.5,-0.5"/>
                </g>
                <g id="arrowRight" xlink:href="#dirArrow" transform="rotate(90) translate(36 -43)" onmousedown="handlePan(1,0)">
                  <use xlink:href="#rim" fill="#404040">
                        <set attributeName="fill" to="#808080" begin="arrowRight.mouseover" end="arrowRight.mouseout"/>
                  </use>
                  <path fill="none" stroke="white" stroke-width="1.5" d="M0,-3.0v7 M-2.5,-0.5L0,-3.0L2.5,-0.5"/>
                </g>
                <g id="arrowDown" xlink:href="#dirArrow" transform="rotate(180) translate(-30 -48)" onmousedown="handlePan(0,1)">
                  <use xlink:href="#rim" fill="#404040">
                        <set attributeName="fill" to="#808080" begin="arrowDown.mouseover" end="arrowDown.mouseout"/>
                  </use>
                  <path fill="none" stroke="white" stroke-width="1.5" d="M0,-3.0v7 M-2.5,-0.5L0,-3.0L2.5,-0.5"/>
                </g>
                <g id="arrowLeft" xlink:href="#dirArrow" transform="rotate(270) translate(-36 17)" onmousedown="handlePan(-1,0)">
                  <use xlink:href="#rim" fill="#404040">
                        <set attributeName="fill" to="#808080" begin="arrowLeft.mouseover" end="arrowLeft.mouseout"/>
                  </use>
                  <path fill="none" stroke="white" stroke-width="1.5" d="M0,-3.0v7 M-2.5,-0.5L0,-3.0L2.5,-0.5"/>
                </g>
        </g>
        <svg viewBox="0 0 15 15" width="100%" height="30px" preserveAspectRatio="xMaxYMin meet">
         <g id="arrow_out" transform="scale(0.3 0.3)">
          <a xlink:href="isoMath_8hxx_a391008ab09b55454e07562478b3f4103_icgraph_org.svg" target="_base">
           <rect id="button" ry="5" rx="5" y="6" x="6" height="38" width="38"
                fill="#f2f5e9" fill-opacity="0.5" stroke="#606060" stroke-width="1.0"/>
           <path id="arrow"
             d="M 11.500037,31.436501 C 11.940474,20.09759 22.043105,11.32322 32.158766,21.979434 L 37.068811,17.246167 C 37.068811,17.246167 37.088388,32 37.088388,32 L 22.160133,31.978069 C 22.160133,31.978069 26.997745,27.140456 26.997745,27.140456 C 18.528582,18.264221 13.291696,25.230495 11.500037,31.436501 z"
             style="fill:#404040;"/>
          </a>
         </g>
        </svg>
</svg>
