<?xml version="1.0" encoding="UTF-8" standalone="no"?>
<!DOCTYPE svg PUBLIC "-//W3C//DTD SVG 1.1//EN"
 "http://www.w3.org/Graphics/SVG/1.1/DTD/svg11.dtd">
<!-- Generated by graphviz version 2.38.0 (20140413.2041)
 -->
<!-- Title: isPointWithinMapBoundaries Pages: 1 -->
<svg width="1245pt" height="173pt"
 viewBox="0.00 0.00 1245.00 173.29" xmlns="http://www.w3.org/2000/svg" xmlns:xlink="http://www.w3.org/1999/xlink">
<g id="graph0" class="graph" transform="scale(1 1) rotate(0) translate(4 169.293)">
<title>isPointWithinMapBoundaries</title>
<!-- Node1 -->
<g id="node1" class="node"><title>Node1</title>
<polygon fill="#bfbfbf" stroke="black" points="0,-126 0,-145 151,-145 151,-126 0,-126"/>
<text text-anchor="middle" x="75.5" y="-133" font-family="Helvetica,sans-Serif" font-size="10.00">isPointWithinMapBoundaries</text>
</g>
<!-- Node2 -->
<g id="node2" class="node"><title>Node2</title>
<g id="a_node2"><a xlink:href="classCamera.html#adfb240823ff20b97b69459490dbd8dc3" target="_top" xlink:title="Centers camera on given isometric coordinates Centers the camera on the given isometric coordinates...">
<polygon fill="none" stroke="black" points="187,-88 187,-107 350,-107 350,-88 187,-88"/>
<text text-anchor="middle" x="268.5" y="-95" font-family="Helvetica,sans-Serif" font-size="10.00">Camera::centerScreenOnPoint</text>
</a>
</g>
</g>
<!-- Node1&#45;&gt;Node2 -->
<g id="edge1" class="edge"><title>Node1&#45;&gt;Node2</title>
<path fill="none" stroke="midnightblue" d="M134.853,-123.89C162.018,-118.486 193.932,-112.136 219.649,-107.02"/>
<polygon fill="midnightblue" stroke="midnightblue" points="133.822,-120.527 124.697,-125.911 135.188,-127.392 133.822,-120.527"/>
</g>
<!-- Node5 -->
<g id="node5" class="node"><title>Node5</title>
<g id="a_node5"><a xlink:href="classEventManager.html#a65ec91fd5016d4f9c4167fb8babed2df" target="_top" xlink:title="EventManager::checkEvents">
<polygon fill="none" stroke="black" points="776,-88 776,-107 928,-107 928,-88 776,-88"/>
<text text-anchor="middle" x="852" y="-95" font-family="Helvetica,sans-Serif" font-size="10.00">EventManager::checkEvents</text>
</a>
</g>
</g>
<!-- Node1&#45;&gt;Node5 -->
<g id="edge15" class="edge"><title>Node1&#45;&gt;Node5</title>
<path fill="none" stroke="midnightblue" d="M152.193,-146.302C276.584,-161.714 531.266,-183.392 740,-137.5 772.21,-130.418 807.809,-116.423 829.794,-107.011"/>
<polygon fill="midnightblue" stroke="midnightblue" points="152.374,-142.798 142.015,-145.019 151.499,-149.743 152.374,-142.798"/>
</g>
<!-- Node3 -->
<g id="node3" class="node"><title>Node3</title>
<g id="a_node3"><a xlink:href="classCamera.html#a0a8ee04ccb4f4cc9af52a964cf225f66" target="_top" xlink:title="Increases the zoom level of the camera Increases the zoom level of the camera. ">
<polygon fill="none" stroke="black" points="388,-126 388,-145 543,-145 543,-126 388,-126"/>
<text text-anchor="middle" x="465.5" y="-133" font-family="Helvetica,sans-Serif" font-size="10.00">Camera::increaseZoomLevel</text>
</a>
</g>
</g>
<!-- Node2&#45;&gt;Node3 -->
<g id="edge2" class="edge"><title>Node2&#45;&gt;Node3</title>
<path fill="none" stroke="midnightblue" d="M328.459,-108.989C356.282,-114.411 389.096,-120.806 415.525,-125.956"/>
<polygon fill="midnightblue" stroke="midnightblue" points="328.94,-105.517 318.455,-107.04 327.601,-112.388 328.94,-105.517"/>
</g>
<!-- Node4 -->
<g id="node4" class="node"><title>Node4</title>
<g id="a_node4"><a xlink:href="classCamera.html#a1f8ecd427814c5a4970223c2d13b9310" target="_top" xlink:title="Camera::setPinchDistance">
<polygon fill="none" stroke="black" points="589,-88 589,-107 732,-107 732,-88 589,-88"/>
<text text-anchor="middle" x="660.5" y="-95" font-family="Helvetica,sans-Serif" font-size="10.00">Camera::setPinchDistance</text>
</a>
</g>
</g>
<!-- Node2&#45;&gt;Node4 -->
<g id="edge12" class="edge"><title>Node2&#45;&gt;Node4</title>
<path fill="none" stroke="midnightblue" d="M360.403,-97.5C430.099,-97.5 524.894,-97.5 588.936,-97.5"/>
<polygon fill="midnightblue" stroke="midnightblue" points="360.308,-94.0001 350.308,-97.5 360.308,-101 360.308,-94.0001"/>
</g>
<!-- Node9 -->
<g id="node9" class="node"><title>Node9</title>
<g id="a_node9"><a xlink:href="classCamera.html#aeea39f352d5873495dea6f376cf3207e" target="_top" xlink:title="Decreases the zoom level of the camera Decreases the zoom level of the camera. ">
<polygon fill="none" stroke="black" points="386,-50 386,-69 545,-69 545,-50 386,-50"/>
<text text-anchor="middle" x="465.5" y="-57" font-family="Helvetica,sans-Serif" font-size="10.00">Camera::decreaseZoomLevel</text>
</a>
</g>
</g>
<!-- Node2&#45;&gt;Node9 -->
<g id="edge9" class="edge"><title>Node2&#45;&gt;Node9</title>
<path fill="none" stroke="midnightblue" d="M328.459,-86.0106C356.282,-80.5886 389.096,-74.1942 415.525,-69.0439"/>
<polygon fill="midnightblue" stroke="midnightblue" points="327.601,-82.6118 318.455,-87.96 328.94,-89.4826 327.601,-82.6118"/>
</g>
<!-- Node10 -->
<g id="node10" class="node"><title>Node10</title>
<g id="a_node10"><a xlink:href="classCamera.html#af29da768f8948f3afbf0a9b43530eb1d" target="_top" xlink:title="Centers camera on the middle of the map Centers the camera on the middle of the map. ">
<polygon fill="none" stroke="black" points="581,-0.5 581,-30.5 740,-30.5 740,-0.5 581,-0.5"/>
<text text-anchor="start" x="589" y="-18.5" font-family="Helvetica,sans-Serif" font-size="10.00">Camera::centerScreenOnMap</text>
<text text-anchor="middle" x="660.5" y="-7.5" font-family="Helvetica,sans-Serif" font-size="10.00">Center</text>
</a>
</g>
</g>
<!-- Node2&#45;&gt;Node10 -->
<g id="edge13" class="edge"><title>Node2&#45;&gt;Node10</title>
<path fill="none" stroke="midnightblue" d="M293.263,-82.6544C316.109,-69.1768 352.079,-50.0009 386,-40.5 450.05,-22.5605 525.508,-16.7487 580.923,-15.1743"/>
<polygon fill="midnightblue" stroke="midnightblue" points="291.372,-79.7071 284.606,-87.8604 294.98,-85.7058 291.372,-79.7071"/>
</g>
<!-- Node3&#45;&gt;Node4 -->
<g id="edge3" class="edge"><title>Node3&#45;&gt;Node4</title>
<path fill="none" stroke="midnightblue" d="M525.102,-123.962C552.629,-118.542 585.048,-112.159 611.148,-107.02"/>
<polygon fill="midnightblue" stroke="midnightblue" points="524.338,-120.545 515.202,-125.911 525.69,-127.413 524.338,-120.545"/>
</g>
<!-- Node3&#45;&gt;Node5 -->
<g id="edge8" class="edge"><title>Node3&#45;&gt;Node5</title>
<path fill="none" stroke="midnightblue" d="M553.231,-131.699C607.113,-128.786 677.734,-123.973 740,-116.5 760.285,-114.065 782.506,-110.453 801.701,-107.029"/>
<polygon fill="midnightblue" stroke="midnightblue" points="552.83,-128.215 543.029,-132.238 553.2,-135.205 552.83,-128.215"/>
</g>
<!-- Node4&#45;&gt;Node5 -->
<g id="edge4" class="edge"><title>Node4&#45;&gt;Node5</title>
<path fill="none" stroke="midnightblue" d="M742.237,-97.5C753.417,-97.5 764.863,-97.5 775.934,-97.5"/>
<polygon fill="midnightblue" stroke="midnightblue" points="742.063,-94.0001 732.063,-97.5 742.063,-101 742.063,-94.0001"/>
</g>
<!-- Node6 -->
<g id="node6" class="node"><title>Node6</title>
<g id="a_node6"><a xlink:href="classGame.html#a1c2ab25d5216b2f4b2fe41efd2c09114" target="_top" xlink:title="Game::run">
<polygon fill="none" stroke="black" points="964,-58 964,-77 1032,-77 1032,-58 964,-58"/>
<text text-anchor="middle" x="998" y="-65" font-family="Helvetica,sans-Serif" font-size="10.00">Game::run</text>
</a>
</g>
</g>
<!-- Node5&#45;&gt;Node6 -->
<g id="edge5" class="edge"><title>Node5&#45;&gt;Node6</title>
<path fill="none" stroke="midnightblue" d="M908.797,-85.8756C927.375,-82.0051 947.472,-77.8184 963.783,-74.4203"/>
<polygon fill="midnightblue" stroke="midnightblue" points="908.034,-82.4593 898.958,-87.9253 909.462,-89.3121 908.034,-82.4593"/>
</g>
<!-- Node7 -->
<g id="node7" class="node"><title>Node7</title>
<g id="a_node7"><a xlink:href="main_8cxx.html#af582d708d899e67ead623eac34a22387" target="_top" xlink:title="protected_main">
<polygon fill="none" stroke="black" points="1068,-58 1068,-77 1160,-77 1160,-58 1068,-58"/>
<text text-anchor="middle" x="1114" y="-65" font-family="Helvetica,sans-Serif" font-size="10.00">protected_main</text>
</a>
</g>
</g>
<!-- Node6&#45;&gt;Node7 -->
<g id="edge6" class="edge"><title>Node6&#45;&gt;Node7</title>
<path fill="none" stroke="midnightblue" d="M1042.44,-67.5C1050.67,-67.5 1059.31,-67.5 1067.6,-67.5"/>
<polygon fill="midnightblue" stroke="midnightblue" points="1042.28,-64.0001 1032.28,-67.5 1042.28,-71.0001 1042.28,-64.0001"/>
</g>
<!-- Node8 -->
<g id="node8" class="node"><title>Node8</title>
<g id="a_node8"><a xlink:href="main_8cxx.html#a3c04138a5bfe5d72780bb7e82a18e627" target="_top" xlink:title="main">
<polygon fill="none" stroke="black" points="1196,-58 1196,-77 1237,-77 1237,-58 1196,-58"/>
<text text-anchor="middle" x="1216.5" y="-65" font-family="Helvetica,sans-Serif" font-size="10.00">main</text>
</a>
</g>
</g>
<!-- Node7&#45;&gt;Node8 -->
<g id="edge7" class="edge"><title>Node7&#45;&gt;Node8</title>
<path fill="none" stroke="midnightblue" d="M1170.54,-67.5C1179.62,-67.5 1188.47,-67.5 1195.88,-67.5"/>
<polygon fill="midnightblue" stroke="midnightblue" points="1170.25,-64.0001 1160.25,-67.5 1170.25,-71.0001 1170.25,-64.0001"/>
</g>
<!-- Node9&#45;&gt;Node4 -->
<g id="edge10" class="edge"><title>Node9&#45;&gt;Node4</title>
<path fill="none" stroke="midnightblue" d="M525.102,-71.0381C552.629,-76.458 585.048,-82.841 611.148,-87.9799"/>
<polygon fill="midnightblue" stroke="midnightblue" points="525.69,-67.5868 515.202,-69.089 524.338,-74.455 525.69,-67.5868"/>
</g>
<!-- Node9&#45;&gt;Node5 -->
<g id="edge11" class="edge"><title>Node9&#45;&gt;Node5</title>
<path fill="none" stroke="midnightblue" d="M555.256,-63.4113C608.874,-66.3341 678.511,-71.1204 740,-78.5 760.285,-80.9345 782.506,-84.5475 801.701,-87.9711"/>
<polygon fill="midnightblue" stroke="midnightblue" points="555.268,-59.907 545.095,-62.8692 554.895,-66.897 555.268,-59.907"/>
</g>
<!-- Node10&#45;&gt;Node6 -->
<g id="edge14" class="edge"><title>Node10&#45;&gt;Node6</title>
<path fill="none" stroke="midnightblue" d="M750.345,-29.2704C820.613,-40.1614 914.802,-54.76 963.972,-62.3809"/>
<polygon fill="midnightblue" stroke="midnightblue" points="750.578,-25.7647 740.16,-27.6917 749.506,-32.6821 750.578,-25.7647"/>
</g>
</g>
</svg>
