<?xml version="1.0" encoding="UTF-8" standalone="no"?>
<!DOCTYPE svg PUBLIC "-//W3C//DTD SVG 1.1//EN"
 "http://www.w3.org/Graphics/SVG/1.1/DTD/svg11.dtd">
<!-- Generated by graphviz version 2.38.0 (20140413.2041)
 -->
<!-- Title: src/engine/basics/isoMath.hxx Pages: 1 -->
<svg width="277pt" height="84pt"
 viewBox="0.00 0.00 277.00 84.00" xmlns="http://www.w3.org/2000/svg" xmlns:xlink="http://www.w3.org/1999/xlink">
<g id="graph0" class="graph" transform="scale(1 1) rotate(0) translate(4 80)">
<title>src/engine/basics/isoMath.hxx</title>
<!-- Node1 -->
<g id="node1" class="node"><title>Node1</title>
<polygon fill="#bfbfbf" stroke="black" points="53.5,-56.5 53.5,-75.5 212.5,-75.5 212.5,-56.5 53.5,-56.5"/>
<text text-anchor="middle" x="133" y="-63.5" font-family="Helvetica,sans-Serif" font-size="10.00">src/engine/basics/isoMath.hxx</text>
</g>
<!-- Node2 -->
<g id="node2" class="node"><title>Node2</title>
<g id="a_node2"><a xlink:href="point_8hxx.html" target="_top" xlink:title="point.hxx">
<polygon fill="none" stroke="black" points="0,-0.5 0,-19.5 60,-19.5 60,-0.5 0,-0.5"/>
<text text-anchor="middle" x="30" y="-7.5" font-family="Helvetica,sans-Serif" font-size="10.00">point.hxx</text>
</a>
</g>
</g>
<!-- Node1&#45;&gt;Node2 -->
<g id="edge1" class="edge"><title>Node1&#45;&gt;Node2</title>
<path fill="none" stroke="midnightblue" d="M116.451,-56.324C100.008,-47.7034 74.5652,-34.3643 55.5316,-24.3855"/>
<polygon fill="midnightblue" stroke="midnightblue" points="56.9895,-21.198 46.5077,-19.6545 53.7391,-27.3977 56.9895,-21.198"/>
</g>
<!-- Node3 -->
<g id="node3" class="node"><title>Node3</title>
<polygon fill="none" stroke="#bfbfbf" points="78.5,-0.5 78.5,-19.5 123.5,-19.5 123.5,-0.5 78.5,-0.5"/>
<text text-anchor="middle" x="101" y="-7.5" font-family="Helvetica,sans-Serif" font-size="10.00">SDL.h</text>
</g>
<!-- Node1&#45;&gt;Node3 -->
<g id="edge2" class="edge"><title>Node1&#45;&gt;Node3</title>
<path fill="none" stroke="midnightblue" d="M127.716,-56.083C123.289,-48.6127 116.837,-37.7244 111.382,-28.5199"/>
<polygon fill="midnightblue" stroke="midnightblue" points="114.295,-26.5697 106.186,-19.7511 108.273,-30.1383 114.295,-26.5697"/>
</g>
<!-- Node4 -->
<g id="node4" class="node"><title>Node4</title>
<polygon fill="none" stroke="#bfbfbf" points="141.5,-0.5 141.5,-19.5 188.5,-19.5 188.5,-0.5 141.5,-0.5"/>
<text text-anchor="middle" x="165" y="-7.5" font-family="Helvetica,sans-Serif" font-size="10.00">vector</text>
</g>
<!-- Node1&#45;&gt;Node4 -->
<g id="edge3" class="edge"><title>Node1&#45;&gt;Node4</title>
<path fill="none" stroke="midnightblue" d="M138.284,-56.083C142.711,-48.6127 149.163,-37.7244 154.618,-28.5199"/>
<polygon fill="midnightblue" stroke="midnightblue" points="157.727,-30.1383 159.814,-19.7511 151.705,-26.5697 157.727,-30.1383"/>
</g>
<!-- Node5 -->
<g id="node5" class="node"><title>Node5</title>
<polygon fill="none" stroke="#bfbfbf" points="207,-0.5 207,-19.5 269,-19.5 269,-0.5 207,-0.5"/>
<text text-anchor="middle" x="238" y="-7.5" font-family="Helvetica,sans-Serif" font-size="10.00">algorithm</text>
</g>
<!-- Node1&#45;&gt;Node5 -->
<g id="edge4" class="edge"><title>Node1&#45;&gt;Node5</title>
<path fill="none" stroke="midnightblue" d="M149.87,-56.324C166.709,-47.6641 192.807,-34.2424 212.238,-24.249"/>
<polygon fill="midnightblue" stroke="midnightblue" points="213.88,-27.3405 221.172,-19.6545 210.678,-21.1155 213.88,-27.3405"/>
</g>
</g>
</svg>
