<?xml version="1.0" encoding="UTF-8" standalone="no"?>
<!DOCTYPE svg PUBLIC "-//W3C//DTD SVG 1.1//EN"
 "http://www.w3.org/Graphics/SVG/1.1/DTD/svg11.dtd">
<!-- Generated by graphviz version 2.38.0 (20140413.2041)
 -->
<!-- Title: src/engine/common/JsonSerialization.hxx Pages: 1 -->
<svg width="506pt" height="84pt"
 viewBox="0.00 0.00 505.50 84.00" xmlns="http://www.w3.org/2000/svg" xmlns:xlink="http://www.w3.org/1999/xlink">
<g id="graph0" class="graph" transform="scale(1 1) rotate(0) translate(4 80)">
<title>src/engine/common/JsonSerialization.hxx</title>
<!-- Node1 -->
<g id="node1" class="node"><title>Node1</title>
<polygon fill="#bfbfbf" stroke="black" points="169.5,-56.5 169.5,-75.5 381.5,-75.5 381.5,-56.5 169.5,-56.5"/>
<text text-anchor="middle" x="275.5" y="-63.5" font-family="Helvetica,sans-Serif" font-size="10.00">src/engine/common/JsonSerialization.hxx</text>
</g>
<!-- Node2 -->
<g id="node2" class="node"><title>Node2</title>
<g id="a_node2"><a xlink:href="Settings_8cxx.html" target="_top" xlink:title="src/engine/basics/Settings.cxx">
<polygon fill="none" stroke="black" points="0,-0.5 0,-19.5 161,-19.5 161,-0.5 0,-0.5"/>
<text text-anchor="middle" x="80.5" y="-7.5" font-family="Helvetica,sans-Serif" font-size="10.00">src/engine/basics/Settings.cxx</text>
</a>
</g>
</g>
<!-- Node1&#45;&gt;Node2 -->
<g id="edge1" class="edge"><title>Node1&#45;&gt;Node2</title>
<path fill="none" stroke="midnightblue" d="M234.69,-53.6986C197.887,-43.507 144.571,-28.7429 111.254,-19.5164"/>
<polygon fill="midnightblue" stroke="midnightblue" points="234.03,-57.1477 244.602,-56.4435 235.898,-50.4016 234.03,-57.1477"/>
</g>
<!-- Node3 -->
<g id="node3" class="node"><title>Node3</title>
<g id="a_node3"><a xlink:href="TerrainGenerator_8cxx.html" target="_top" xlink:title="src/engine/map/TerrainGenerator.cxx">
<polygon fill="none" stroke="black" points="179.5,-0.5 179.5,-19.5 371.5,-19.5 371.5,-0.5 179.5,-0.5"/>
<text text-anchor="middle" x="275.5" y="-7.5" font-family="Helvetica,sans-Serif" font-size="10.00">src/engine/map/TerrainGenerator.cxx</text>
</a>
</g>
</g>
<!-- Node1&#45;&gt;Node3 -->
<g id="edge2" class="edge"><title>Node1&#45;&gt;Node3</title>
<path fill="none" stroke="midnightblue" d="M275.5,-45.8045C275.5,-36.9102 275.5,-26.7798 275.5,-19.7511"/>
<polygon fill="midnightblue" stroke="midnightblue" points="272,-46.083 275.5,-56.083 279,-46.083 272,-46.083"/>
</g>
<!-- Node4 -->
<g id="node4" class="node"><title>Node4</title>
<g id="a_node4"><a xlink:href="Map_8cxx.html" target="_top" xlink:title="src/engine/Map.cxx">
<polygon fill="none" stroke="black" points="389.5,-0.5 389.5,-19.5 497.5,-19.5 497.5,-0.5 389.5,-0.5"/>
<text text-anchor="middle" x="443.5" y="-7.5" font-family="Helvetica,sans-Serif" font-size="10.00">src/engine/Map.cxx</text>
</a>
</g>
</g>
<!-- Node1&#45;&gt;Node4 -->
<g id="edge3" class="edge"><title>Node1&#45;&gt;Node4</title>
<path fill="none" stroke="midnightblue" d="M311.886,-53.3044C343.542,-43.1294 388.668,-28.6246 417.004,-19.5164"/>
<polygon fill="midnightblue" stroke="midnightblue" points="310.569,-50.0513 302.12,-56.4435 312.711,-56.7155 310.569,-50.0513"/>
</g>
</g>
</svg>
