<?xml version="1.0" encoding="UTF-8" standalone="no"?>
<!DOCTYPE svg PUBLIC "-//W3C//DTD SVG 1.1//EN"
 "http://www.w3.org/Graphics/SVG/1.1/DTD/svg11.dtd">
<!-- Generated by graphviz version 2.38.0 (20140413.2041)
 -->
<!-- Title: src/engine/common/JsonSerialization.hxx Pages: 1 -->
<svg width="832pt" height="308pt"
 viewBox="0.00 0.00 831.50 308.00" xmlns="http://www.w3.org/2000/svg" xmlns:xlink="http://www.w3.org/1999/xlink">
<g id="graph0" class="graph" transform="scale(1 1) rotate(0) translate(4 304)">
<title>src/engine/common/JsonSerialization.hxx</title>
<!-- Node1 -->
<g id="node1" class="node"><title>Node1</title>
<polygon fill="#bfbfbf" stroke="black" points="119,-280.5 119,-299.5 331,-299.5 331,-280.5 119,-280.5"/>
<text text-anchor="middle" x="225" y="-287.5" font-family="Helvetica,sans-Serif" font-size="10.00">src/engine/common/JsonSerialization.hxx</text>
</g>
<!-- Node2 -->
<g id="node2" class="node"><title>Node2</title>
<polygon fill="none" stroke="#bfbfbf" points="0,-56.5 0,-75.5 56,-75.5 56,-56.5 0,-56.5"/>
<text text-anchor="middle" x="28" y="-63.5" font-family="Helvetica,sans-Serif" font-size="10.00">json.hxx</text>
</g>
<!-- Node1&#45;&gt;Node2 -->
<g id="edge1" class="edge"><title>Node1&#45;&gt;Node2</title>
<path fill="none" stroke="midnightblue" d="M217.277,-280.297C187.738,-247.01 81.6169,-127.421 42.5606,-83.4084"/>
<polygon fill="midnightblue" stroke="midnightblue" points="45.1386,-81.0403 35.8833,-75.8837 39.9028,-85.6865 45.1386,-81.0403"/>
</g>
<!-- Node3 -->
<g id="node3" class="node"><title>Node3</title>
<g id="a_node3"><a xlink:href="point_8hxx.html" target="_top" xlink:title="point.hxx">
<polygon fill="none" stroke="black" points="212,-56.5 212,-75.5 272,-75.5 272,-56.5 212,-56.5"/>
<text text-anchor="middle" x="242" y="-63.5" font-family="Helvetica,sans-Serif" font-size="10.00">point.hxx</text>
</a>
</g>
</g>
<!-- Node1&#45;&gt;Node3 -->
<g id="edge2" class="edge"><title>Node1&#45;&gt;Node3</title>
<path fill="none" stroke="midnightblue" d="M225.666,-280.297C228.168,-247.633 237.033,-131.866 240.548,-85.9573"/>
<polygon fill="midnightblue" stroke="midnightblue" points="244.046,-86.1218 241.32,-75.8837 237.066,-85.5873 244.046,-86.1218"/>
</g>
<!-- Node4 -->
<g id="node4" class="node"><title>Node4</title>
<g id="a_node4"><a xlink:href="MapNode_8hxx.html" target="_top" xlink:title="GameObjects/MapNode.hxx">
<polygon fill="none" stroke="black" points="442,-168.5 442,-187.5 592,-187.5 592,-168.5 442,-168.5"/>
<text text-anchor="middle" x="517" y="-175.5" font-family="Helvetica,sans-Serif" font-size="10.00">GameObjects/MapNode.hxx</text>
</a>
</g>
</g>
<!-- Node1&#45;&gt;Node4 -->
<g id="edge3" class="edge"><title>Node1&#45;&gt;Node4</title>
<path fill="none" stroke="midnightblue" d="M247.913,-280.368C299.513,-260.93 424.955,-213.674 484.541,-191.228"/>
<polygon fill="midnightblue" stroke="midnightblue" points="486.07,-194.392 494.194,-187.591 483.602,-187.841 486.07,-194.392"/>
</g>
<!-- Node17 -->
<g id="node17" class="node"><title>Node17</title>
<g id="a_node17"><a xlink:href="TerrainGenerator_8hxx.html" target="_top" xlink:title="TerrainGenerator.hxx">
<polygon fill="none" stroke="black" points="515,-224.5 515,-243.5 631,-243.5 631,-224.5 515,-224.5"/>
<text text-anchor="middle" x="573" y="-231.5" font-family="Helvetica,sans-Serif" font-size="10.00">TerrainGenerator.hxx</text>
</a>
</g>
</g>
<!-- Node1&#45;&gt;Node17 -->
<g id="edge25" class="edge"><title>Node1&#45;&gt;Node17</title>
<path fill="none" stroke="midnightblue" d="M280.142,-280.444C341.995,-270.846 442.232,-255.292 507.887,-245.104"/>
<polygon fill="midnightblue" stroke="midnightblue" points="508.771,-248.508 518.116,-243.516 507.698,-241.591 508.771,-248.508"/>
</g>
<!-- Node19 -->
<g id="node19" class="node"><title>Node19</title>
<g id="a_node19"><a xlink:href="Settings_8hxx.html" target="_top" xlink:title="Settings.hxx">
<polygon fill="none" stroke="black" points="115,-112.5 115,-131.5 191,-131.5 191,-112.5 115,-112.5"/>
<text text-anchor="middle" x="153" y="-119.5" font-family="Helvetica,sans-Serif" font-size="10.00">Settings.hxx</text>
</a>
</g>
</g>
<!-- Node1&#45;&gt;Node19 -->
<g id="edge29" class="edge"><title>Node1&#45;&gt;Node19</title>
<path fill="none" stroke="midnightblue" d="M221.129,-280.075C209.746,-253.832 176.224,-176.545 160.858,-141.117"/>
<polygon fill="midnightblue" stroke="midnightblue" points="163.906,-139.35 156.716,-131.568 157.485,-142.135 163.906,-139.35"/>
</g>
<!-- Node4&#45;&gt;Node3 -->
<g id="edge16" class="edge"><title>Node4&#45;&gt;Node3</title>
<path fill="none" stroke="midnightblue" d="M441.799,-169.238C383.152,-161.982 307.511,-149.61 282,-132 265.679,-120.734 254.769,-100.423 248.522,-85.4943"/>
<polygon fill="midnightblue" stroke="midnightblue" points="251.643,-83.8588 244.787,-75.7816 245.11,-86.3715 251.643,-83.8588"/>
</g>
<!-- Node5 -->
<g id="node5" class="node"><title>Node5</title>
<polygon fill="none" stroke="#bfbfbf" points="580.5,-56.5 580.5,-75.5 625.5,-75.5 625.5,-56.5 580.5,-56.5"/>
<text text-anchor="middle" x="603" y="-63.5" font-family="Helvetica,sans-Serif" font-size="10.00">SDL.h</text>
</g>
<!-- Node4&#45;&gt;Node5 -->
<g id="edge4" class="edge"><title>Node4&#45;&gt;Node5</title>
<path fill="none" stroke="midnightblue" d="M545.045,-168.442C562.673,-161.532 584.233,-149.954 596,-132 604.846,-118.502 606.025,-99.9464 605.325,-86.1151"/>
<polygon fill="midnightblue" stroke="midnightblue" points="608.783,-85.4786 604.422,-75.8228 601.809,-86.0905 608.783,-85.4786"/>
</g>
<!-- Node6 -->
<g id="node6" class="node"><title>Node6</title>
<polygon fill="none" stroke="#bfbfbf" points="449.5,-112.5 449.5,-131.5 506.5,-131.5 506.5,-112.5 449.5,-112.5"/>
<text text-anchor="middle" x="478" y="-119.5" font-family="Helvetica,sans-Serif" font-size="10.00">memory</text>
</g>
<!-- Node4&#45;&gt;Node6 -->
<g id="edge5" class="edge"><title>Node4&#45;&gt;Node6</title>
<path fill="none" stroke="midnightblue" d="M510.56,-168.083C505.051,-160.455 496.969,-149.264 490.235,-139.941"/>
<polygon fill="midnightblue" stroke="midnightblue" points="493.013,-137.809 484.32,-131.751 487.338,-141.907 493.013,-137.809"/>
</g>
<!-- Node7 -->
<g id="node7" class="node"><title>Node7</title>
<polygon fill="none" stroke="#bfbfbf" points="421,-0.5 421,-19.5 465,-19.5 465,-0.5 421,-0.5"/>
<text text-anchor="middle" x="443" y="-7.5" font-family="Helvetica,sans-Serif" font-size="10.00">string</text>
</g>
<!-- Node4&#45;&gt;Node7 -->
<g id="edge6" class="edge"><title>Node4&#45;&gt;Node7</title>
<path fill="none" stroke="midnightblue" d="M491.263,-168.352C463.029,-157.393 423.738,-136.9 440,-112 461.764,-78.6756 500.236,-109.324 522,-76 526.861,-68.5577 526.467,-63.685 522,-56 511.855,-38.5462 492.129,-27.3002 474.926,-20.4157"/>
<polygon fill="midnightblue" stroke="midnightblue" points="475.775,-16.9994 465.181,-16.8522 473.371,-23.5737 475.775,-16.9994"/>
</g>
<!-- Node8 -->
<g id="node8" class="node"><title>Node8</title>
<polygon fill="none" stroke="#bfbfbf" points="525,-112.5 525,-131.5 587,-131.5 587,-112.5 525,-112.5"/>
<text text-anchor="middle" x="556" y="-119.5" font-family="Helvetica,sans-Serif" font-size="10.00">algorithm</text>
</g>
<!-- Node4&#45;&gt;Node8 -->
<g id="edge7" class="edge"><title>Node4&#45;&gt;Node8</title>
<path fill="none" stroke="midnightblue" d="M523.44,-168.083C528.949,-160.455 537.031,-149.264 543.765,-139.941"/>
<polygon fill="midnightblue" stroke="midnightblue" points="546.662,-141.907 549.68,-131.751 540.987,-137.809 546.662,-141.907"/>
</g>
<!-- Node9 -->
<g id="node9" class="node"><title>Node9</title>
<polygon fill="none" stroke="#bfbfbf" points="776.5,-56.5 776.5,-75.5 823.5,-75.5 823.5,-56.5 776.5,-56.5"/>
<text text-anchor="middle" x="800" y="-63.5" font-family="Helvetica,sans-Serif" font-size="10.00">vector</text>
</g>
<!-- Node4&#45;&gt;Node9 -->
<g id="edge8" class="edge"><title>Node4&#45;&gt;Node9</title>
<path fill="none" stroke="midnightblue" d="M584.168,-168.48C640.701,-160.433 716.454,-147.33 743,-132 762.831,-120.547 779.271,-99.6569 789.318,-84.6468"/>
<polygon fill="midnightblue" stroke="midnightblue" points="792.54,-86.1034 794.968,-75.7905 786.639,-82.3384 792.54,-86.1034"/>
</g>
<!-- Node10 -->
<g id="node10" class="node"><title>Node10</title>
<g id="a_node10"><a xlink:href="Sprite_8hxx.html" target="_top" xlink:title="../Sprite.hxx">
<polygon fill="none" stroke="black" points="643,-112.5 643,-131.5 717,-131.5 717,-112.5 643,-112.5"/>
<text text-anchor="middle" x="680" y="-119.5" font-family="Helvetica,sans-Serif" font-size="10.00">../Sprite.hxx</text>
</a>
</g>
</g>
<!-- Node4&#45;&gt;Node10 -->
<g id="edge9" class="edge"><title>Node4&#45;&gt;Node10</title>
<path fill="none" stroke="midnightblue" d="M542.828,-168.444C570.249,-159.359 613.777,-144.939 644.432,-134.783"/>
<polygon fill="midnightblue" stroke="midnightblue" points="645.901,-137.984 654.293,-131.516 643.7,-131.339 645.901,-137.984"/>
</g>
<!-- Node11 -->
<g id="node11" class="node"><title>Node11</title>
<g id="a_node11"><a xlink:href="enums_8hxx.html" target="_top" xlink:title="common/enums.hxx">
<polygon fill="none" stroke="black" points="643.5,-56.5 643.5,-75.5 758.5,-75.5 758.5,-56.5 643.5,-56.5"/>
<text text-anchor="middle" x="701" y="-63.5" font-family="Helvetica,sans-Serif" font-size="10.00">common/enums.hxx</text>
</a>
</g>
</g>
<!-- Node4&#45;&gt;Node11 -->
<g id="edge15" class="edge"><title>Node4&#45;&gt;Node11</title>
<path fill="none" stroke="midnightblue" d="M573.805,-168.499C632.338,-159.162 716.38,-143.911 726,-132 737.449,-117.823 726.752,-97.809 716.016,-83.745"/>
<polygon fill="midnightblue" stroke="midnightblue" points="718.584,-81.3568 709.525,-75.8624 713.18,-85.8067 718.584,-81.3568"/>
</g>
<!-- Node13 -->
<g id="node13" class="node"><title>Node13</title>
<g id="a_node13"><a xlink:href="TileManager_8hxx.html" target="_top" xlink:title="../TileManager.hxx">
<polygon fill="none" stroke="black" points="291,-112.5 291,-131.5 393,-131.5 393,-112.5 291,-112.5"/>
<text text-anchor="middle" x="342" y="-119.5" font-family="Helvetica,sans-Serif" font-size="10.00">../TileManager.hxx</text>
</a>
</g>
</g>
<!-- Node4&#45;&gt;Node13 -->
<g id="edge17" class="edge"><title>Node4&#45;&gt;Node13</title>
<path fill="none" stroke="midnightblue" d="M489.271,-168.444C459.574,-159.28 412.284,-144.688 379.331,-134.519"/>
<polygon fill="midnightblue" stroke="midnightblue" points="380.187,-131.121 369.6,-131.516 378.123,-137.809 380.187,-131.121"/>
</g>
<!-- Node10&#45;&gt;Node3 -->
<g id="edge12" class="edge"><title>Node10&#45;&gt;Node3</title>
<path fill="none" stroke="midnightblue" d="M642.911,-116.95C554.622,-107.294 335.798,-83.268 282.123,-75.9772"/>
<polygon fill="midnightblue" stroke="midnightblue" points="282.621,-72.5129 272.215,-74.5031 281.591,-79.4367 282.621,-72.5129"/>
</g>
<!-- Node10&#45;&gt;Node5 -->
<g id="edge10" class="edge"><title>Node10&#45;&gt;Node5</title>
<path fill="none" stroke="midnightblue" d="M667.629,-112.324C655.842,-104.058 637.868,-91.4527 623.864,-81.6322"/>
<polygon fill="midnightblue" stroke="midnightblue" points="625.538,-78.5307 615.341,-75.6545 621.518,-84.2619 625.538,-78.5307"/>
</g>
<!-- Node10&#45;&gt;Node9 -->
<g id="edge11" class="edge"><title>Node10&#45;&gt;Node9</title>
<path fill="none" stroke="midnightblue" d="M699.014,-112.444C718.588,-103.636 749.308,-89.8116 771.729,-79.722"/>
<polygon fill="midnightblue" stroke="midnightblue" points="773.392,-82.8119 781.075,-75.5164 770.519,-76.4284 773.392,-82.8119"/>
</g>
<!-- Node10&#45;&gt;Node11 -->
<g id="edge13" class="edge"><title>Node10&#45;&gt;Node11</title>
<path fill="none" stroke="midnightblue" d="M683.468,-112.083C686.312,-104.77 690.429,-94.1814 693.96,-85.1034"/>
<polygon fill="midnightblue" stroke="midnightblue" points="697.234,-86.3397 697.597,-75.7511 690.71,-83.8025 697.234,-86.3397"/>
</g>
<!-- Node12 -->
<g id="node12" class="node"><title>Node12</title>
<polygon fill="none" stroke="#bfbfbf" points="673.5,-0.5 673.5,-19.5 728.5,-19.5 728.5,-0.5 673.5,-0.5"/>
<text text-anchor="middle" x="701" y="-7.5" font-family="Helvetica,sans-Serif" font-size="10.00">stddef.h</text>
</g>
<!-- Node11&#45;&gt;Node12 -->
<g id="edge14" class="edge"><title>Node11&#45;&gt;Node12</title>
<path fill="none" stroke="midnightblue" d="M701,-56.083C701,-49.0059 701,-38.8611 701,-29.9865"/>
<polygon fill="midnightblue" stroke="midnightblue" points="704.5,-29.751 701,-19.7511 697.5,-29.7511 704.5,-29.751"/>
</g>
<!-- Node13&#45;&gt;Node2 -->
<g id="edge23" class="edge"><title>Node13&#45;&gt;Node2</title>
<path fill="none" stroke="midnightblue" d="M292.246,-112.444C229.406,-101.637 122.66,-83.279 65.9837,-73.5322"/>
<polygon fill="midnightblue" stroke="midnightblue" points="66.4541,-70.0618 56.0056,-71.8162 65.2677,-76.9606 66.4541,-70.0618"/>
</g>
<!-- Node13&#45;&gt;Node5 -->
<g id="edge18" class="edge"><title>Node13&#45;&gt;Node5</title>
<path fill="none" stroke="midnightblue" d="M383.356,-112.444C435.206,-101.716 523.019,-83.5478 570.385,-73.748"/>
<polygon fill="midnightblue" stroke="midnightblue" points="571.321,-77.1285 580.405,-71.6749 569.903,-70.2736 571.321,-77.1285"/>
</g>
<!-- Node13&#45;&gt;Node7 -->
<g id="edge20" class="edge"><title>Node13&#45;&gt;Node7</title>
<path fill="none" stroke="midnightblue" d="M352.182,-112.459C362.398,-103.707 378.385,-89.5048 391,-76 405.427,-60.5547 420.342,-41.5428 430.478,-28.0802"/>
<polygon fill="midnightblue" stroke="midnightblue" points="433.507,-29.8714 436.667,-19.7586 427.891,-25.6938 433.507,-29.8714"/>
</g>
<!-- Node14 -->
<g id="node14" class="node"><title>Node14</title>
<polygon fill="none" stroke="#bfbfbf" points="289.5,-56.5 289.5,-75.5 382.5,-75.5 382.5,-56.5 289.5,-56.5"/>
<text text-anchor="middle" x="336" y="-63.5" font-family="Helvetica,sans-Serif" font-size="10.00">unordered_map</text>
</g>
<!-- Node13&#45;&gt;Node14 -->
<g id="edge19" class="edge"><title>Node13&#45;&gt;Node14</title>
<path fill="none" stroke="midnightblue" d="M341.009,-112.083C340.214,-104.927 339.071,-94.6353 338.077,-85.6911"/>
<polygon fill="midnightblue" stroke="midnightblue" points="341.555,-85.3034 336.972,-75.7511 334.598,-86.0765 341.555,-85.3034"/>
</g>
<!-- Node15 -->
<g id="node15" class="node"><title>Node15</title>
<g id="a_node15"><a xlink:href="tileData_8hxx.html" target="_top" xlink:title="tileData.hxx">
<polygon fill="none" stroke="black" points="439,-56.5 439,-75.5 513,-75.5 513,-56.5 439,-56.5"/>
<text text-anchor="middle" x="476" y="-63.5" font-family="Helvetica,sans-Serif" font-size="10.00">tileData.hxx</text>
</a>
</g>
</g>
<!-- Node13&#45;&gt;Node15 -->
<g id="edge21" class="edge"><title>Node13&#45;&gt;Node15</title>
<path fill="none" stroke="midnightblue" d="M363.233,-112.444C385.384,-103.517 420.319,-89.4387 445.436,-79.3168"/>
<polygon fill="midnightblue" stroke="midnightblue" points="446.9,-82.5006 454.867,-75.5164 444.283,-76.0079 446.9,-82.5006"/>
</g>
<!-- Node16 -->
<g id="node16" class="node"><title>Node16</title>
<g id="a_node16"><a xlink:href="Singleton_8hxx.html" target="_top" xlink:title="Singleton.hxx">
<polygon fill="none" stroke="black" points="112.5,-56.5 112.5,-75.5 193.5,-75.5 193.5,-56.5 112.5,-56.5"/>
<text text-anchor="middle" x="153" y="-63.5" font-family="Helvetica,sans-Serif" font-size="10.00">Singleton.hxx</text>
</a>
</g>
</g>
<!-- Node13&#45;&gt;Node16 -->
<g id="edge24" class="edge"><title>Node13&#45;&gt;Node16</title>
<path fill="none" stroke="midnightblue" d="M312.052,-112.444C279.842,-103.241 228.466,-88.5617 192.858,-78.3879"/>
<polygon fill="midnightblue" stroke="midnightblue" points="193.384,-74.8984 182.808,-75.5164 191.461,-81.629 193.384,-74.8984"/>
</g>
<!-- Node15&#45;&gt;Node7 -->
<g id="edge22" class="edge"><title>Node15&#45;&gt;Node7</title>
<path fill="none" stroke="midnightblue" d="M470.551,-56.083C465.986,-48.6127 459.332,-37.7244 453.707,-28.5199"/>
<polygon fill="midnightblue" stroke="midnightblue" points="456.549,-26.4588 448.348,-19.7511 450.576,-30.109 456.549,-26.4588"/>
</g>
<!-- Node17&#45;&gt;Node4 -->
<g id="edge26" class="edge"><title>Node17&#45;&gt;Node4</title>
<path fill="none" stroke="midnightblue" d="M564.003,-224.324C555.806,-216.42 543.494,-204.548 533.528,-194.938"/>
<polygon fill="midnightblue" stroke="midnightblue" points="535.789,-192.256 526.161,-187.834 530.93,-197.295 535.789,-192.256"/>
</g>
<!-- Node17&#45;&gt;Node9 -->
<g id="edge28" class="edge"><title>Node17&#45;&gt;Node9</title>
<path fill="none" stroke="midnightblue" d="M602.583,-224.436C644.48,-210.972 721.3,-181.192 769,-132 781.761,-118.839 790.074,-99.4314 794.847,-85.2496"/>
<polygon fill="midnightblue" stroke="midnightblue" points="798.217,-86.2011 797.823,-75.6135 791.528,-84.1356 798.217,-86.2011"/>
</g>
<!-- Node18 -->
<g id="node18" class="node"><title>Node18</title>
<polygon fill="none" stroke="#bfbfbf" points="610,-168.5 610,-187.5 648,-187.5 648,-168.5 610,-168.5"/>
<text text-anchor="middle" x="629" y="-175.5" font-family="Helvetica,sans-Serif" font-size="10.00">map</text>
</g>
<!-- Node17&#45;&gt;Node18 -->
<g id="edge27" class="edge"><title>Node17&#45;&gt;Node18</title>
<path fill="none" stroke="midnightblue" d="M581.997,-224.324C590.194,-216.42 602.506,-204.548 612.472,-194.938"/>
<polygon fill="midnightblue" stroke="midnightblue" points="615.07,-197.295 619.839,-187.834 610.211,-192.256 615.07,-197.295"/>
</g>
<!-- Node19&#45;&gt;Node7 -->
<g id="edge30" class="edge"><title>Node19&#45;&gt;Node7</title>
<path fill="none" stroke="midnightblue" d="M137.93,-112.311C117.691,-99.5784 86.1096,-75.2731 103,-56 123.14,-33.0186 329.608,-17.9581 410.625,-12.8928"/>
<polygon fill="midnightblue" stroke="midnightblue" points="410.984,-16.3774 420.751,-12.2711 410.555,-9.39059 410.984,-16.3774"/>
</g>
<!-- Node19&#45;&gt;Node16 -->
<g id="edge31" class="edge"><title>Node19&#45;&gt;Node16</title>
<path fill="none" stroke="midnightblue" d="M153,-112.083C153,-105.006 153,-94.8611 153,-85.9865"/>
<polygon fill="midnightblue" stroke="midnightblue" points="156.5,-85.751 153,-75.7511 149.5,-85.7511 156.5,-85.751"/>
</g>
</g>
</svg>
