<?xml version="1.0" encoding="UTF-8" standalone="no"?>
<!DOCTYPE svg PUBLIC "-//W3C//DTD SVG 1.1//EN"
 "http://www.w3.org/Graphics/SVG/1.1/DTD/svg11.dtd">
<!-- Generated by graphviz version 2.38.0 (20140413.2041)
 -->
<!-- Title: src/engine/ui/basics/Layout.hxx Pages: 1 -->
<svg width="805pt" height="218pt"
 viewBox="0.00 0.00 804.50 218.00" xmlns="http://www.w3.org/2000/svg" xmlns:xlink="http://www.w3.org/1999/xlink">
<g id="graph0" class="graph" transform="scale(1 1) rotate(0) translate(4 214)">
<title>src/engine/ui/basics/Layout.hxx</title>
<!-- Node1 -->
<g id="node1" class="node"><title>Node1</title>
<polygon fill="#bfbfbf" stroke="black" points="543.5,-179.5 543.5,-209.5 653.5,-209.5 653.5,-179.5 543.5,-179.5"/>
<text text-anchor="start" x="551.5" y="-197.5" font-family="Helvetica,sans-Serif" font-size="10.00">src/engine/ui/basics</text>
<text text-anchor="middle" x="598.5" y="-186.5" font-family="Helvetica,sans-Serif" font-size="10.00">/Layout.hxx</text>
</g>
<!-- Node2 -->
<g id="node2" class="node"><title>Node2</title>
<g id="a_node2"><a xlink:href="UIManager_8hxx.html" target="_top" xlink:title="src/engine/UIManager.hxx">
<polygon fill="none" stroke="black" points="432.5,-123.5 432.5,-142.5 572.5,-142.5 572.5,-123.5 432.5,-123.5"/>
<text text-anchor="middle" x="502.5" y="-130.5" font-family="Helvetica,sans-Serif" font-size="10.00">src/engine/UIManager.hxx</text>
</a>
</g>
</g>
<!-- Node1&#45;&gt;Node2 -->
<g id="edge1" class="edge"><title>Node1&#45;&gt;Node2</title>
<path fill="none" stroke="midnightblue" d="M567.149,-174.069C550.036,-163.462 529.7,-150.859 516.469,-142.658"/>
<polygon fill="midnightblue" stroke="midnightblue" points="565.406,-177.106 575.749,-179.399 569.093,-171.156 565.406,-177.106"/>
</g>
<!-- Node8 -->
<g id="node8" class="node"><title>Node8</title>
<g id="a_node8"><a xlink:href="Layout_8cxx.html" target="_top" xlink:title="src/engine/ui/basics\l/Layout.cxx">
<polygon fill="none" stroke="black" points="686.5,-56.5 686.5,-86.5 796.5,-86.5 796.5,-56.5 686.5,-56.5"/>
<text text-anchor="start" x="694.5" y="-74.5" font-family="Helvetica,sans-Serif" font-size="10.00">src/engine/ui/basics</text>
<text text-anchor="middle" x="741.5" y="-63.5" font-family="Helvetica,sans-Serif" font-size="10.00">/Layout.cxx</text>
</a>
</g>
</g>
<!-- Node1&#45;&gt;Node8 -->
<g id="edge10" class="edge"><title>Node1&#45;&gt;Node8</title>
<path fill="none" stroke="midnightblue" d="M622.855,-172.892C651.939,-148.282 699.8,-107.785 724.922,-86.5271"/>
<polygon fill="midnightblue" stroke="midnightblue" points="620.557,-170.252 615.184,-179.383 625.078,-175.595 620.557,-170.252"/>
</g>
<!-- Node3 -->
<g id="node3" class="node"><title>Node3</title>
<g id="a_node3"><a xlink:href="EventManager_8hxx.html" target="_top" xlink:title="src/engine/EventManager.hxx">
<polygon fill="none" stroke="black" points="172,-62 172,-81 329,-81 329,-62 172,-62"/>
<text text-anchor="middle" x="250.5" y="-69" font-family="Helvetica,sans-Serif" font-size="10.00">src/engine/EventManager.hxx</text>
</a>
</g>
</g>
<!-- Node2&#45;&gt;Node3 -->
<g id="edge2" class="edge"><title>Node2&#45;&gt;Node3</title>
<path fill="none" stroke="midnightblue" d="M456.394,-121.114C407.482,-109.565 331.231,-91.5615 286.538,-81.0091"/>
<polygon fill="midnightblue" stroke="midnightblue" points="455.858,-124.583 466.395,-123.475 457.466,-117.771 455.858,-124.583"/>
</g>
<!-- Node6 -->
<g id="node6" class="node"><title>Node6</title>
<g id="a_node6"><a xlink:href="Game_8cxx.html" target="_top" xlink:title="src/Game.cxx">
<polygon fill="none" stroke="black" points="339.5,-0.5 339.5,-19.5 421.5,-19.5 421.5,-0.5 339.5,-0.5"/>
<text text-anchor="middle" x="380.5" y="-7.5" font-family="Helvetica,sans-Serif" font-size="10.00">src/Game.cxx</text>
</a>
</g>
</g>
<!-- Node2&#45;&gt;Node6 -->
<g id="edge9" class="edge"><title>Node2&#45;&gt;Node6</title>
<path fill="none" stroke="midnightblue" d="M443.172,-120.401C423.936,-113.743 404.283,-103.312 391.5,-87 375.876,-67.062 377.384,-34.8555 379.201,-19.5742"/>
<polygon fill="midnightblue" stroke="midnightblue" points="442.262,-123.784 452.852,-123.462 444.373,-117.109 442.262,-123.784"/>
</g>
<!-- Node7 -->
<g id="node7" class="node"><title>Node7</title>
<g id="a_node7"><a xlink:href="ButtonGroup_8cxx.html" target="_top" xlink:title="src/engine/ui/basics\l/ButtonGroup.cxx">
<polygon fill="none" stroke="black" points="400.5,-56.5 400.5,-86.5 510.5,-86.5 510.5,-56.5 400.5,-56.5"/>
<text text-anchor="start" x="408.5" y="-74.5" font-family="Helvetica,sans-Serif" font-size="10.00">src/engine/ui/basics</text>
<text text-anchor="middle" x="455.5" y="-63.5" font-family="Helvetica,sans-Serif" font-size="10.00">/ButtonGroup.cxx</text>
</a>
</g>
</g>
<!-- Node2&#45;&gt;Node7 -->
<g id="edge6" class="edge"><title>Node2&#45;&gt;Node7</title>
<path fill="none" stroke="midnightblue" d="M489.49,-115.53C482.292,-106.417 473.442,-95.2136 466.577,-86.523"/>
<polygon fill="midnightblue" stroke="midnightblue" points="486.821,-117.797 495.766,-123.475 492.314,-113.458 486.821,-117.797"/>
</g>
<!-- Node2&#45;&gt;Node8 -->
<g id="edge7" class="edge"><title>Node2&#45;&gt;Node8</title>
<path fill="none" stroke="midnightblue" d="M546.571,-121.028C585.894,-111.239 643.651,-96.8598 686.091,-86.2942"/>
<polygon fill="midnightblue" stroke="midnightblue" points="545.601,-117.663 536.743,-123.475 547.292,-124.456 545.601,-117.663"/>
</g>
<!-- Node9 -->
<g id="node9" class="node"><title>Node9</title>
<g id="a_node9"><a xlink:href="UIManager_8cxx.html" target="_top" xlink:title="src/engine/UIManager.cxx">
<polygon fill="none" stroke="black" points="529,-62 529,-81 668,-81 668,-62 529,-62"/>
<text text-anchor="middle" x="598.5" y="-69" font-family="Helvetica,sans-Serif" font-size="10.00">src/engine/UIManager.cxx</text>
</a>
</g>
</g>
<!-- Node2&#45;&gt;Node9 -->
<g id="edge8" class="edge"><title>Node2&#45;&gt;Node9</title>
<path fill="none" stroke="midnightblue" d="M524.948,-118.087C543.475,-106.604 569.17,-90.6784 584.771,-81.0091"/>
<polygon fill="midnightblue" stroke="midnightblue" points="522.91,-115.232 516.254,-123.475 526.598,-121.182 522.91,-115.232"/>
</g>
<!-- Node4 -->
<g id="node4" class="node"><title>Node4</title>
<g id="a_node4"><a xlink:href="Timer_8cxx.html" target="_top" xlink:title="src/engine/basics/Timer.cxx">
<polygon fill="none" stroke="black" points="0,-0.5 0,-19.5 147,-19.5 147,-0.5 0,-0.5"/>
<text text-anchor="middle" x="73.5" y="-7.5" font-family="Helvetica,sans-Serif" font-size="10.00">src/engine/basics/Timer.cxx</text>
</a>
</g>
</g>
<!-- Node3&#45;&gt;Node4 -->
<g id="edge3" class="edge"><title>Node3&#45;&gt;Node4</title>
<path fill="none" stroke="midnightblue" d="M215.493,-58.732C181.086,-47.166 129.416,-29.7966 98.8127,-19.5091"/>
<polygon fill="midnightblue" stroke="midnightblue" points="214.546,-62.1062 225.14,-61.9751 216.777,-55.4711 214.546,-62.1062"/>
</g>
<!-- Node5 -->
<g id="node5" class="node"><title>Node5</title>
<g id="a_node5"><a xlink:href="EventManager_8cxx.html" target="_top" xlink:title="src/engine/EventManager.cxx">
<polygon fill="none" stroke="black" points="165.5,-0.5 165.5,-19.5 321.5,-19.5 321.5,-0.5 165.5,-0.5"/>
<text text-anchor="middle" x="243.5" y="-7.5" font-family="Helvetica,sans-Serif" font-size="10.00">src/engine/EventManager.cxx</text>
</a>
</g>
</g>
<!-- Node3&#45;&gt;Node5 -->
<g id="edge4" class="edge"><title>Node3&#45;&gt;Node5</title>
<path fill="none" stroke="midnightblue" d="M248.302,-51.8165C247.029,-40.9962 245.488,-27.898 244.501,-19.5091"/>
<polygon fill="midnightblue" stroke="midnightblue" points="244.853,-52.4526 249.497,-61.9751 251.805,-51.6346 244.853,-52.4526"/>
</g>
<!-- Node3&#45;&gt;Node6 -->
<g id="edge5" class="edge"><title>Node3&#45;&gt;Node6</title>
<path fill="none" stroke="midnightblue" d="M278.523,-57.6742C303.748,-46.1287 340.107,-29.4875 361.909,-19.5091"/>
<polygon fill="midnightblue" stroke="midnightblue" points="276.762,-54.6308 269.126,-61.9751 279.675,-60.9958 276.762,-54.6308"/>
</g>
</g>
</svg>
