<?xml version="1.0" encoding="UTF-8" standalone="no"?>
<!DOCTYPE svg PUBLIC "-//W3C//DTD SVG 1.1//EN"
 "http://www.w3.org/Graphics/SVG/1.1/DTD/svg11.dtd">
<!-- Generated by graphviz version 2.38.0 (20140413.2041)
 -->
<!-- Title: src/engine/ui/basics/Layout.cxx Pages: 1 -->
<!--zoomable 543 -->
<svg id="main" version="1.1" xmlns="http://www.w3.org/2000/svg" xmlns:xlink="http://www.w3.org/1999/xlink" xml:space="preserve" onload="init(evt)">
<style type="text/css"><![CDATA[
.edge:hover path { stroke: red; }
.edge:hover polygon { stroke: red; fill: red; }
]]></style>
<script type="text/javascript"><![CDATA[
var edges = document.getElementsByTagName('g');
if (edges && edges.length) {
  for (var i=0;i<edges.length;i++) {
    if (edges[i].id.substr(0,4)=='edge') {
      edges[i].setAttribute('class','edge');
    }
  }
}
]]></script>
        <defs>
                <circle id="rim" cx="0" cy="0" r="7"/>
                <circle id="rim2" cx="0" cy="0" r="3.5"/>
                <g id="zoomPlus">
                        <use xlink:href="#rim" fill="#404040">
                                <set attributeName="fill" to="#808080" begin="zoomplus.mouseover" end="zoomplus.mouseout"/>
                        </use>
                        <path d="M-4,0h8M0,-4v8" fill="none" stroke="white" stroke-width="1.5" pointer-events="none"/>
                </g>
                <g id="zoomMin">
                        <use xlink:href="#rim" fill="#404040">
                                <set attributeName="fill" to="#808080" begin="zoomminus.mouseover" end="zoomminus.mouseout"/>
                        </use>
                        <path d="M-4,0h8" fill="none" stroke="white" stroke-width="1.5" pointer-events="none"/>
                </g>
                <g id="dirArrow">
                        <path fill="none" stroke="white" stroke-width="1.5" d="M0,-3.0v7 M-2.5,-0.5L0,-3.0L2.5,-0.5"/>
                </g>
               <g id="resetDef">
                       <use xlink:href="#rim2" fill="#404040">
                               <set attributeName="fill" to="#808080" begin="reset.mouseover" end="reset.mouseout"/>
                       </use>
               </g>
        </defs>

<script type="text/javascript">
var viewWidth = 1689;
var viewHeight = 543;
var sectionId = 'dynsection-0';
</script>
<script xlink:href="svgpan.js"/>
<svg id="graph" class="graph">
<g id="viewport">
<title>src/engine/ui/basics/Layout.cxx</title>
<!-- Node1 -->
<g id="node1" class="node"><title>Node1</title>
<polygon fill="#bfbfbf" stroke="black" points="585,-504.5 585,-534.5 695,-534.5 695,-504.5 585,-504.5"/>
<text text-anchor="start" x="593" y="-522.5" font-family="Helvetica,sans-Serif" font-size="10.00">src/engine/ui/basics</text>
<text text-anchor="middle" x="640" y="-511.5" font-family="Helvetica,sans-Serif" font-size="10.00">/Layout.cxx</text>
</g>
<!-- Node2 -->
<g id="node2" class="node"><title>Node2</title>
<g id="a_node2"><a xlink:href="Layout_8hxx.html" target="_top" xlink:title="Layout.hxx">
<polygon fill="none" stroke="black" points="570,-280.5 570,-299.5 638,-299.5 638,-280.5 570,-280.5"/>
<text text-anchor="middle" x="604" y="-287.5" font-family="Helvetica,sans-Serif" font-size="10.00">Layout.hxx</text>
</a>
</g>
</g>
<!-- Node1&#45;&gt;Node2 -->
<g id="edge1" class="edge"><title>Node1&#45;&gt;Node2</title>
<path fill="none" stroke="midnightblue" d="M634.935,-504.405C625.236,-476.524 604.433,-412.162 598,-356 596.224,-340.499 598.094,-322.872 600.201,-309.888"/>
<polygon fill="midnightblue" stroke="midnightblue" points="603.682,-310.309 602.029,-299.844 596.795,-309.056 603.682,-310.309"/>
</g>
<!-- Node21 -->
<g id="node21" class="node"><title>Node21</title>
<g id="a_node21"><a xlink:href="LOG_8hxx.html" target="_top" xlink:title="../../basics/LOG.hxx">
<polygon fill="none" stroke="black" points="221.5,-224.5 221.5,-243.5 328.5,-243.5 328.5,-224.5 221.5,-224.5"/>
<text text-anchor="middle" x="275" y="-231.5" font-family="Helvetica,sans-Serif" font-size="10.00">../../basics/LOG.hxx</text>
</a>
</g>
</g>
<!-- Node1&#45;&gt;Node21 -->
<g id="edge33" class="edge"><title>Node1&#45;&gt;Node21</title>
<path fill="none" stroke="midnightblue" d="M584.699,-510.567C491.689,-495.655 314,-459.742 314,-403 314,-403 314,-403 314,-345 314,-310.716 296.963,-273.698 285.41,-252.537"/>
<polygon fill="midnightblue" stroke="midnightblue" points="288.403,-250.72 280.423,-243.75 282.315,-254.175 288.403,-250.72"/>
</g>
<!-- Node26 -->
<g id="node26" class="node"><title>Node26</title>
<g id="a_node26"><a xlink:href="Settings_8hxx.html" target="_top" xlink:title="../../basics/Settings.hxx">
<polygon fill="none" stroke="black" points="1553.5,-112.5 1553.5,-131.5 1680.5,-131.5 1680.5,-112.5 1553.5,-112.5"/>
<text text-anchor="middle" x="1617" y="-119.5" font-family="Helvetica,sans-Serif" font-size="10.00">../../basics/Settings.hxx</text>
</a>
</g>
</g>
<!-- Node1&#45;&gt;Node26 -->
<g id="edge40" class="edge"><title>Node1&#45;&gt;Node26</title>
<path fill="none" stroke="midnightblue" d="M695.182,-517.633C897.936,-513.729 1590,-493.757 1590,-403 1590,-403 1590,-403 1590,-233 1590,-199.861 1601.7,-162.682 1609.7,-141.144"/>
<polygon fill="midnightblue" stroke="midnightblue" points="1613.02,-142.252 1613.36,-131.662 1606.49,-139.73 1613.02,-142.252"/>
</g>
<!-- Node27 -->
<g id="node27" class="node"><title>Node27</title>
<g id="a_node27"><a xlink:href="UIManager_8hxx.html" target="_top" xlink:title="../../UIManager.hxx">
<polygon fill="none" stroke="black" points="799.5,-448.5 799.5,-467.5 904.5,-467.5 904.5,-448.5 799.5,-448.5"/>
<text text-anchor="middle" x="852" y="-455.5" font-family="Helvetica,sans-Serif" font-size="10.00">../../UIManager.hxx</text>
</a>
</g>
</g>
<!-- Node1&#45;&gt;Node27 -->
<g id="edge43" class="edge"><title>Node1&#45;&gt;Node27</title>
<path fill="none" stroke="midnightblue" d="M689.973,-504.475C727.186,-494.03 777.328,-479.958 811.927,-470.247"/>
<polygon fill="midnightblue" stroke="midnightblue" points="813.009,-473.578 821.692,-467.506 811.118,-466.839 813.009,-473.578"/>
</g>
<!-- Node3 -->
<g id="node3" class="node"><title>Node3</title>
<g id="a_node3"><a xlink:href="UIElement_8hxx.html" target="_top" xlink:title="UIElement.hxx">
<polygon fill="none" stroke="black" points="909,-224.5 909,-243.5 995,-243.5 995,-224.5 909,-224.5"/>
<text text-anchor="middle" x="952" y="-231.5" font-family="Helvetica,sans-Serif" font-size="10.00">UIElement.hxx</text>
</a>
</g>
</g>
<!-- Node2&#45;&gt;Node3 -->
<g id="edge2" class="edge"><title>Node2&#45;&gt;Node3</title>
<path fill="none" stroke="midnightblue" d="M638.001,-283.724C698.723,-274.302 826.218,-254.518 898.683,-243.273"/>
<polygon fill="midnightblue" stroke="midnightblue" points="899.616,-246.671 908.961,-241.678 898.542,-239.753 899.616,-246.671"/>
</g>
<!-- Node4 -->
<g id="node4" class="node"><title>Node4</title>
<polygon fill="none" stroke="#bfbfbf" points="973,-0.5 973,-19.5 1017,-19.5 1017,-0.5 973,-0.5"/>
<text text-anchor="middle" x="995" y="-7.5" font-family="Helvetica,sans-Serif" font-size="10.00">string</text>
</g>
<!-- Node2&#45;&gt;Node4 -->
<g id="edge31" class="edge"><title>Node2&#45;&gt;Node4</title>
<path fill="none" stroke="midnightblue" d="M569.95,-281.69C566.596,-281.074 563.237,-280.497 560,-280 406.311,-256.391 363.577,-278.675 212,-244 131.526,-225.591 38,-261.553 38,-179 38,-179 38,-179 38,-121 38,-25.7781 795.438,-12.9221 962.609,-11.2442"/>
<polygon fill="midnightblue" stroke="midnightblue" points="962.786,-14.7428 972.753,-11.1491 962.72,-7.74315 962.786,-14.7428"/>
</g>
<!-- Node15 -->
<g id="node15" class="node"><title>Node15</title>
<polygon fill="none" stroke="#bfbfbf" points="741.5,-112.5 741.5,-131.5 788.5,-131.5 788.5,-112.5 741.5,-112.5"/>
<text text-anchor="middle" x="765" y="-119.5" font-family="Helvetica,sans-Serif" font-size="10.00">vector</text>
</g>
<!-- Node2&#45;&gt;Node15 -->
<g id="edge32" class="edge"><title>Node2&#45;&gt;Node15</title>
<path fill="none" stroke="midnightblue" d="M612.656,-280.075C638.657,-253.267 716.322,-173.19 749.593,-138.885"/>
<polygon fill="midnightblue" stroke="midnightblue" points="752.24,-141.183 756.69,-131.568 747.215,-136.31 752.24,-141.183"/>
</g>
<!-- Node3&#45;&gt;Node4 -->
<g id="edge3" class="edge"><title>Node3&#45;&gt;Node4</title>
<path fill="none" stroke="midnightblue" d="M995.465,-228.18C1049.75,-221.43 1138.7,-207.732 1165,-188 1210.17,-154.113 1211.25,-130.772 1225,-76 1227.16,-67.3785 1230.65,-62.8623 1225,-56 1200.34,-26.0478 1084.78,-15.7486 1027.44,-12.4434"/>
<polygon fill="midnightblue" stroke="midnightblue" points="1027.29,-8.93043 1017.12,-11.8881 1026.92,-15.9203 1027.29,-8.93043"/>
</g>
<!-- Node5 -->
<g id="node5" class="node"><title>Node5</title>
<g id="a_node5"><a xlink:href="mapEdit_8hxx.html" target="_top" xlink:title="../../basics/mapEdit.hxx">
<polygon fill="none" stroke="black" points="1372.5,-56.5 1372.5,-75.5 1499.5,-75.5 1499.5,-56.5 1372.5,-56.5"/>
<text text-anchor="middle" x="1436" y="-63.5" font-family="Helvetica,sans-Serif" font-size="10.00">../../basics/mapEdit.hxx</text>
</a>
</g>
</g>
<!-- Node3&#45;&gt;Node5 -->
<g id="edge4" class="edge"><title>Node3&#45;&gt;Node5</title>
<path fill="none" stroke="midnightblue" d="M995.005,-232.741C1055.84,-231.049 1169.57,-222.954 1259,-188 1324.32,-162.471 1389.36,-108.982 1419.16,-82.5144"/>
<polygon fill="midnightblue" stroke="midnightblue" points="1421.83,-84.8145 1426.92,-75.5191 1417.15,-79.6153 1421.83,-84.8145"/>
</g>
<!-- Node6 -->
<g id="node6" class="node"><title>Node6</title>
<g id="a_node6"><a xlink:href="ResourcesManager_8hxx.html" target="_top" xlink:title="../../ResourcesManager.hxx">
<polygon fill="none" stroke="black" points="1012,-168.5 1012,-187.5 1156,-187.5 1156,-168.5 1012,-168.5"/>
<text text-anchor="middle" x="1084" y="-175.5" font-family="Helvetica,sans-Serif" font-size="10.00">../../ResourcesManager.hxx</text>
</a>
</g>
</g>
<!-- Node3&#45;&gt;Node6 -->
<g id="edge6" class="edge"><title>Node3&#45;&gt;Node6</title>
<path fill="none" stroke="midnightblue" d="M972.916,-224.444C994.736,-215.517 1029.15,-201.439 1053.89,-191.317"/>
<polygon fill="midnightblue" stroke="midnightblue" points="1055.25,-194.542 1063.18,-187.516 1052.6,-188.063 1055.25,-194.542"/>
</g>
<!-- Node9 -->
<g id="node9" class="node"><title>Node9</title>
<polygon fill="none" stroke="#bfbfbf" points="794.5,-56.5 794.5,-75.5 839.5,-75.5 839.5,-56.5 794.5,-56.5"/>
<text text-anchor="middle" x="817" y="-63.5" font-family="Helvetica,sans-Serif" font-size="10.00">SDL.h</text>
</g>
<!-- Node3&#45;&gt;Node9 -->
<g id="edge30" class="edge"><title>Node3&#45;&gt;Node9</title>
<path fill="none" stroke="midnightblue" d="M915.414,-224.444C894.45,-217.777 869.174,-206.461 853,-188 827.335,-158.705 819.954,-111.777 817.84,-85.8114"/>
<polygon fill="midnightblue" stroke="midnightblue" points="821.331,-85.5453 817.206,-75.7864 814.345,-85.9876 821.331,-85.5453"/>
</g>
<!-- Node14 -->
<g id="node14" class="node"><title>Node14</title>
<g id="a_node14"><a xlink:href="WindowManager_8hxx.html" target="_top" xlink:title="../../WindowManager.hxx">
<polygon fill="none" stroke="black" points="862.5,-168.5 862.5,-187.5 993.5,-187.5 993.5,-168.5 862.5,-168.5"/>
<text text-anchor="middle" x="928" y="-175.5" font-family="Helvetica,sans-Serif" font-size="10.00">../../WindowManager.hxx</text>
</a>
</g>
</g>
<!-- Node3&#45;&gt;Node14 -->
<g id="edge18" class="edge"><title>Node3&#45;&gt;Node14</title>
<path fill="none" stroke="midnightblue" d="M948.037,-224.083C944.787,-216.77 940.081,-206.181 936.046,-197.103"/>
<polygon fill="midnightblue" stroke="midnightblue" points="939.149,-195.468 931.889,-187.751 932.752,-198.311 939.149,-195.468"/>
</g>
<!-- Node16 -->
<g id="node16" class="node"><title>Node16</title>
<g id="a_node16"><a xlink:href="signal_8hxx.html" target="_top" xlink:title="../../basics/signal.hxx">
<polygon fill="none" stroke="black" points="522.5,-168.5 522.5,-187.5 637.5,-187.5 637.5,-168.5 522.5,-168.5"/>
<text text-anchor="middle" x="580" y="-175.5" font-family="Helvetica,sans-Serif" font-size="10.00">../../basics/signal.hxx</text>
</a>
</g>
</g>
<!-- Node3&#45;&gt;Node16 -->
<g id="edge24" class="edge"><title>Node3&#45;&gt;Node16</title>
<path fill="none" stroke="midnightblue" d="M908.963,-226.753C844.809,-217.44 723.517,-199.833 647.491,-188.797"/>
<polygon fill="midnightblue" stroke="midnightblue" points="647.933,-185.325 637.534,-187.352 646.928,-192.252 647.933,-185.325"/>
</g>
<!-- Node5&#45;&gt;Node4 -->
<g id="edge5" class="edge"><title>Node5&#45;&gt;Node4</title>
<path fill="none" stroke="midnightblue" d="M1372.3,-57.1427C1369.15,-56.7561 1366.04,-56.3735 1363,-56 1239.2,-40.7989 1091.95,-22.8255 1027.7,-14.9877"/>
<polygon fill="midnightblue" stroke="midnightblue" points="1027.75,-11.4683 1017.4,-13.7317 1026.91,-18.4168 1027.75,-11.4683"/>
</g>
<!-- Node7 -->
<g id="node7" class="node"><title>Node7</title>
<polygon fill="none" stroke="#bfbfbf" points="845.5,-112.5 845.5,-131.5 904.5,-131.5 904.5,-112.5 845.5,-112.5"/>
<text text-anchor="middle" x="875" y="-119.5" font-family="Helvetica,sans-Serif" font-size="10.00">iostream</text>
</g>
<!-- Node6&#45;&gt;Node7 -->
<g id="edge7" class="edge"><title>Node6&#45;&gt;Node7</title>
<path fill="none" stroke="midnightblue" d="M1050.88,-168.444C1013.82,-158.868 953.82,-143.365 914.385,-133.176"/>
<polygon fill="midnightblue" stroke="midnightblue" points="915.14,-129.756 904.583,-130.643 913.389,-136.534 915.14,-129.756"/>
</g>
<!-- Node8 -->
<g id="node8" class="node"><title>Node8</title>
<polygon fill="none" stroke="#bfbfbf" points="1123.5,-56.5 1123.5,-75.5 1216.5,-75.5 1216.5,-56.5 1123.5,-56.5"/>
<text text-anchor="middle" x="1170" y="-63.5" font-family="Helvetica,sans-Serif" font-size="10.00">unordered_map</text>
</g>
<!-- Node6&#45;&gt;Node8 -->
<g id="edge8" class="edge"><title>Node6&#45;&gt;Node8</title>
<path fill="none" stroke="midnightblue" d="M1097.65,-168.382C1109.75,-160.198 1127.28,-146.951 1139,-132 1150.08,-117.872 1158.48,-99.1396 1163.73,-85.415"/>
<polygon fill="midnightblue" stroke="midnightblue" points="1167.14,-86.2597 1167.25,-75.6654 1160.56,-83.8834 1167.14,-86.2597"/>
</g>
<!-- Node6&#45;&gt;Node9 -->
<g id="edge9" class="edge"><title>Node6&#45;&gt;Node9</title>
<path fill="none" stroke="midnightblue" d="M1064.41,-168.39C1035.53,-155.755 979.81,-131.571 932,-112 904.049,-100.558 872.035,-88.0819 848.895,-79.1747"/>
<polygon fill="midnightblue" stroke="midnightblue" points="850.149,-75.907 839.559,-75.5893 847.64,-82.4417 850.149,-75.907"/>
</g>
<!-- Node10 -->
<g id="node10" class="node"><title>Node10</title>
<g id="a_node10"><a xlink:href="TileManager_8hxx.html" target="_top" xlink:title="TileManager.hxx">
<polygon fill="none" stroke="black" points="1037.5,-112.5 1037.5,-131.5 1130.5,-131.5 1130.5,-112.5 1037.5,-112.5"/>
<text text-anchor="middle" x="1084" y="-119.5" font-family="Helvetica,sans-Serif" font-size="10.00">TileManager.hxx</text>
</a>
</g>
</g>
<!-- Node6&#45;&gt;Node10 -->
<g id="edge10" class="edge"><title>Node6&#45;&gt;Node10</title>
<path fill="none" stroke="midnightblue" d="M1084,-168.083C1084,-161.006 1084,-150.861 1084,-141.986"/>
<polygon fill="midnightblue" stroke="midnightblue" points="1087.5,-141.751 1084,-131.751 1080.5,-141.751 1087.5,-141.751"/>
</g>
<!-- Node10&#45;&gt;Node4 -->
<g id="edge13" class="edge"><title>Node10&#45;&gt;Node4</title>
<path fill="none" stroke="midnightblue" d="M1041.39,-112.454C1006.11,-104.411 960.051,-91.3321 949,-76 936.565,-58.7479 955.684,-38.7595 972.925,-25.5525"/>
<polygon fill="midnightblue" stroke="midnightblue" points="975.033,-28.3472 981.092,-19.6555 970.935,-22.6721 975.033,-28.3472"/>
</g>
<!-- Node10&#45;&gt;Node8 -->
<g id="edge12" class="edge"><title>Node10&#45;&gt;Node8</title>
<path fill="none" stroke="midnightblue" d="M1097.82,-112.324C1111.23,-103.9 1131.82,-90.9709 1147.59,-81.0741"/>
<polygon fill="midnightblue" stroke="midnightblue" points="1149.61,-83.9364 1156.22,-75.6545 1145.89,-78.0081 1149.61,-83.9364"/>
</g>
<!-- Node10&#45;&gt;Node9 -->
<g id="edge11" class="edge"><title>Node10&#45;&gt;Node9</title>
<path fill="none" stroke="midnightblue" d="M1041.69,-112.444C988.403,-101.666 897.977,-83.3774 849.687,-73.6108"/>
<polygon fill="midnightblue" stroke="midnightblue" points="850.264,-70.1568 839.769,-71.6049 848.876,-77.0179 850.264,-70.1568"/>
</g>
<!-- Node11 -->
<g id="node11" class="node"><title>Node11</title>
<g id="a_node11"><a xlink:href="tileData_8hxx.html" target="_top" xlink:title="tileData.hxx">
<polygon fill="none" stroke="black" points="958,-56.5 958,-75.5 1032,-75.5 1032,-56.5 958,-56.5"/>
<text text-anchor="middle" x="995" y="-63.5" font-family="Helvetica,sans-Serif" font-size="10.00">tileData.hxx</text>
</a>
</g>
</g>
<!-- Node10&#45;&gt;Node11 -->
<g id="edge14" class="edge"><title>Node10&#45;&gt;Node11</title>
<path fill="none" stroke="midnightblue" d="M1069.7,-112.324C1055.82,-103.9 1034.51,-90.9709 1018.2,-81.0741"/>
<polygon fill="midnightblue" stroke="midnightblue" points="1019.63,-77.8495 1009.26,-75.6545 1016,-83.8341 1019.63,-77.8495"/>
</g>
<!-- Node12 -->
<g id="node12" class="node"><title>Node12</title>
<polygon fill="none" stroke="#bfbfbf" points="1050,-56.5 1050,-75.5 1106,-75.5 1106,-56.5 1050,-56.5"/>
<text text-anchor="middle" x="1078" y="-63.5" font-family="Helvetica,sans-Serif" font-size="10.00">json.hxx</text>
</g>
<!-- Node10&#45;&gt;Node12 -->
<g id="edge16" class="edge"><title>Node10&#45;&gt;Node12</title>
<path fill="none" stroke="midnightblue" d="M1083.01,-112.083C1082.21,-104.927 1081.07,-94.6353 1080.08,-85.6911"/>
<polygon fill="midnightblue" stroke="midnightblue" points="1083.56,-85.3034 1078.97,-75.7511 1076.6,-86.0765 1083.56,-85.3034"/>
</g>
<!-- Node13 -->
<g id="node13" class="node"><title>Node13</title>
<g id="a_node13"><a xlink:href="Singleton_8hxx.html" target="_top" xlink:title="Singleton.hxx">
<polygon fill="none" stroke="black" points="1273.5,-56.5 1273.5,-75.5 1354.5,-75.5 1354.5,-56.5 1273.5,-56.5"/>
<text text-anchor="middle" x="1314" y="-63.5" font-family="Helvetica,sans-Serif" font-size="10.00">Singleton.hxx</text>
</a>
</g>
</g>
<!-- Node10&#45;&gt;Node13 -->
<g id="edge17" class="edge"><title>Node10&#45;&gt;Node13</title>
<path fill="none" stroke="midnightblue" d="M1120.44,-112.444C1160.4,-103.063 1224.59,-87.9926 1267.98,-77.8036"/>
<polygon fill="midnightblue" stroke="midnightblue" points="1268.79,-81.2095 1277.73,-75.5164 1267.19,-74.3948 1268.79,-81.2095"/>
</g>
<!-- Node11&#45;&gt;Node4 -->
<g id="edge15" class="edge"><title>Node11&#45;&gt;Node4</title>
<path fill="none" stroke="midnightblue" d="M995,-56.083C995,-49.0059 995,-38.8611 995,-29.9865"/>
<polygon fill="midnightblue" stroke="midnightblue" points="998.5,-29.751 995,-19.7511 991.5,-29.7511 998.5,-29.751"/>
</g>
<!-- Node14&#45;&gt;Node4 -->
<g id="edge19" class="edge"><title>Node14&#45;&gt;Node4</title>
<path fill="none" stroke="midnightblue" d="M928.828,-168.326C931.416,-141.433 939.345,-60.9652 942,-56 948.67,-43.5259 960.339,-33.0426 971.033,-25.3413"/>
<polygon fill="midnightblue" stroke="midnightblue" points="973.31,-28.0281 979.656,-19.5439 969.404,-22.2191 973.31,-28.0281"/>
</g>
<!-- Node14&#45;&gt;Node7 -->
<g id="edge20" class="edge"><title>Node14&#45;&gt;Node7</title>
<path fill="none" stroke="midnightblue" d="M919.248,-168.083C911.53,-160.22 900.095,-148.569 890.783,-139.081"/>
<polygon fill="midnightblue" stroke="midnightblue" points="893.092,-136.436 883.589,-131.751 888.096,-141.34 893.092,-136.436"/>
</g>
<!-- Node14&#45;&gt;Node9 -->
<g id="edge22" class="edge"><title>Node14&#45;&gt;Node9</title>
<path fill="none" stroke="midnightblue" d="M928.286,-168.401C928.283,-154.902 926.393,-128.575 913,-112 897.093,-92.3142 870.579,-80.7933 849.441,-74.3456"/>
<polygon fill="midnightblue" stroke="midnightblue" points="850.14,-70.9066 839.566,-71.5743 848.248,-77.6462 850.14,-70.9066"/>
</g>
<!-- Node14&#45;&gt;Node13 -->
<g id="edge23" class="edge"><title>Node14&#45;&gt;Node13</title>
<path fill="none" stroke="midnightblue" d="M977.961,-168.466C1021.04,-160.606 1084.69,-147.787 1139,-132 1191.12,-116.85 1249.94,-93.7053 1284.39,-79.5089"/>
<polygon fill="midnightblue" stroke="midnightblue" points="1285.95,-82.6488 1293.85,-75.5827 1283.27,-76.1836 1285.95,-82.6488"/>
</g>
<!-- Node14&#45;&gt;Node15 -->
<g id="edge21" class="edge"><title>Node14&#45;&gt;Node15</title>
<path fill="none" stroke="midnightblue" d="M902.172,-168.444C874.105,-159.145 829.165,-144.257 798.426,-134.073"/>
<polygon fill="midnightblue" stroke="midnightblue" points="799.183,-130.638 788.59,-130.815 796.982,-137.282 799.183,-130.638"/>
</g>
<!-- Node16&#45;&gt;Node15 -->
<g id="edge28" class="edge"><title>Node16&#45;&gt;Node15</title>
<path fill="none" stroke="midnightblue" d="M609.314,-168.444C642.604,-158.726 696.81,-142.904 731.678,-132.726"/>
<polygon fill="midnightblue" stroke="midnightblue" points="732.781,-136.05 741.4,-129.889 730.82,-129.331 732.781,-136.05"/>
</g>
<!-- Node17 -->
<g id="node17" class="node"><title>Node17</title>
<polygon fill="none" stroke="#bfbfbf" points="666.5,-112.5 666.5,-131.5 723.5,-131.5 723.5,-112.5 666.5,-112.5"/>
<text text-anchor="middle" x="695" y="-119.5" font-family="Helvetica,sans-Serif" font-size="10.00">memory</text>
</g>
<!-- Node16&#45;&gt;Node17 -->
<g id="edge25" class="edge"><title>Node16&#45;&gt;Node17</title>
<path fill="none" stroke="midnightblue" d="M598.222,-168.444C616.896,-159.675 646.156,-145.935 667.617,-135.858"/>
<polygon fill="midnightblue" stroke="midnightblue" points="669.299,-138.935 676.863,-131.516 666.324,-132.599 669.299,-138.935"/>
</g>
<!-- Node18 -->
<g id="node18" class="node"><title>Node18</title>
<polygon fill="none" stroke="#bfbfbf" points="456.5,-112.5 456.5,-131.5 519.5,-131.5 519.5,-112.5 456.5,-112.5"/>
<text text-anchor="middle" x="488" y="-119.5" font-family="Helvetica,sans-Serif" font-size="10.00">functional</text>
</g>
<!-- Node16&#45;&gt;Node18 -->
<g id="edge26" class="edge"><title>Node16&#45;&gt;Node18</title>
<path fill="none" stroke="midnightblue" d="M565.219,-168.324C550.733,-159.822 528.427,-146.729 511.507,-136.797"/>
<polygon fill="midnightblue" stroke="midnightblue" points="513.141,-133.698 502.745,-131.655 509.597,-139.735 513.141,-133.698"/>
</g>
<!-- Node19 -->
<g id="node19" class="node"><title>Node19</title>
<polygon fill="none" stroke="#bfbfbf" points="538,-112.5 538,-131.5 568,-131.5 568,-112.5 538,-112.5"/>
<text text-anchor="middle" x="553" y="-119.5" font-family="Helvetica,sans-Serif" font-size="10.00">list</text>
</g>
<!-- Node16&#45;&gt;Node19 -->
<g id="edge27" class="edge"><title>Node16&#45;&gt;Node19</title>
<path fill="none" stroke="midnightblue" d="M575.541,-168.083C571.846,-160.691 566.477,-149.953 561.906,-140.811"/>
<polygon fill="midnightblue" stroke="midnightblue" points="564.978,-139.13 557.376,-131.751 558.717,-142.261 564.978,-139.13"/>
</g>
<!-- Node20 -->
<g id="node20" class="node"><title>Node20</title>
<polygon fill="none" stroke="#bfbfbf" points="586,-112.5 586,-131.5 648,-131.5 648,-112.5 586,-112.5"/>
<text text-anchor="middle" x="617" y="-119.5" font-family="Helvetica,sans-Serif" font-size="10.00">algorithm</text>
</g>
<!-- Node16&#45;&gt;Node20 -->
<g id="edge29" class="edge"><title>Node16&#45;&gt;Node20</title>
<path fill="none" stroke="midnightblue" d="M586.11,-168.083C591.282,-160.534 598.846,-149.495 605.194,-140.23"/>
<polygon fill="midnightblue" stroke="midnightblue" points="608.239,-141.979 611.004,-131.751 602.464,-138.022 608.239,-141.979"/>
</g>
<!-- Node21&#45;&gt;Node7 -->
<g id="edge34" class="edge"><title>Node21&#45;&gt;Node7</title>
<path fill="none" stroke="midnightblue" d="M328.56,-229.14C401.057,-223.317 534.212,-210.502 646,-188 715.912,-173.927 795.621,-149.293 840.156,-134.73"/>
<polygon fill="midnightblue" stroke="midnightblue" points="841.498,-137.973 849.901,-131.52 839.308,-131.324 841.498,-137.973"/>
</g>
<!-- Node21&#45;&gt;Node9 -->
<g id="edge39" class="edge"><title>Node21&#45;&gt;Node9</title>
<path fill="none" stroke="midnightblue" d="M264.423,-224.256C250.25,-211.454 228.269,-187.063 241,-168 277.075,-113.981 313.021,-127.91 376,-112 524.993,-74.3603 709.861,-68.0605 783.992,-67.1104"/>
<polygon fill="midnightblue" stroke="midnightblue" points="784.145,-70.6091 794.108,-67.0059 784.073,-63.6095 784.145,-70.6091"/>
</g>
<!-- Node22 -->
<g id="node22" class="node"><title>Node22</title>
<polygon fill="none" stroke="#bfbfbf" points="250,-168.5 250,-187.5 300,-187.5 300,-168.5 250,-168.5"/>
<text text-anchor="middle" x="275" y="-175.5" font-family="Helvetica,sans-Serif" font-size="10.00">chrono</text>
</g>
<!-- Node21&#45;&gt;Node22 -->
<g id="edge35" class="edge"><title>Node21&#45;&gt;Node22</title>
<path fill="none" stroke="midnightblue" d="M275,-224.083C275,-217.006 275,-206.861 275,-197.986"/>
<polygon fill="midnightblue" stroke="midnightblue" points="278.5,-197.751 275,-187.751 271.5,-197.751 278.5,-197.751"/>
</g>
<!-- Node23 -->
<g id="node23" class="node"><title>Node23</title>
<polygon fill="none" stroke="#bfbfbf" points="318,-168.5 318,-187.5 362,-187.5 362,-168.5 318,-168.5"/>
<text text-anchor="middle" x="340" y="-175.5" font-family="Helvetica,sans-Serif" font-size="10.00">ctime</text>
</g>
<!-- Node21&#45;&gt;Node23 -->
<g id="edge36" class="edge"><title>Node21&#45;&gt;Node23</title>
<path fill="none" stroke="midnightblue" d="M285.443,-224.324C295.146,-216.263 309.815,-204.077 321.5,-194.369"/>
<polygon fill="midnightblue" stroke="midnightblue" points="323.911,-196.916 329.367,-187.834 319.438,-191.532 323.911,-196.916"/>
</g>
<!-- Node24 -->
<g id="node24" class="node"><title>Node24</title>
<polygon fill="none" stroke="#bfbfbf" points="140,-168.5 140,-187.5 194,-187.5 194,-168.5 140,-168.5"/>
<text text-anchor="middle" x="167" y="-175.5" font-family="Helvetica,sans-Serif" font-size="10.00">fstream</text>
</g>
<!-- Node21&#45;&gt;Node24 -->
<g id="edge37" class="edge"><title>Node21&#45;&gt;Node24</title>
<path fill="none" stroke="midnightblue" d="M257.648,-224.324C240.328,-215.664 213.485,-202.242 193.498,-192.249"/>
<polygon fill="midnightblue" stroke="midnightblue" points="194.819,-188.996 184.309,-187.655 191.688,-195.257 194.819,-188.996"/>
</g>
<!-- Node25 -->
<g id="node25" class="node"><title>Node25</title>
<polygon fill="none" stroke="#bfbfbf" points="66,-168.5 66,-187.5 122,-187.5 122,-168.5 66,-168.5"/>
<text text-anchor="middle" x="94" y="-175.5" font-family="Helvetica,sans-Serif" font-size="10.00">sstream</text>
</g>
<!-- Node21&#45;&gt;Node25 -->
<g id="edge38" class="edge"><title>Node21&#45;&gt;Node25</title>
<path fill="none" stroke="midnightblue" d="M246.32,-224.444C215.382,-215.214 165.982,-200.475 131.87,-190.298"/>
<polygon fill="midnightblue" stroke="midnightblue" points="132.831,-186.933 122.248,-187.428 130.83,-193.64 132.831,-186.933"/>
</g>
<!-- Node26&#45;&gt;Node4 -->
<g id="edge41" class="edge"><title>Node26&#45;&gt;Node4</title>
<path fill="none" stroke="midnightblue" d="M1610.26,-112.336C1598.31,-97.726 1571.86,-68.5574 1542,-56 1448.15,-16.5339 1129.85,-11.6 1027.2,-11.0472"/>
<polygon fill="midnightblue" stroke="midnightblue" points="1027.14,-7.54699 1017.13,-11.0036 1027.11,-14.5469 1027.14,-7.54699"/>
</g>
<!-- Node26&#45;&gt;Node13 -->
<g id="edge42" class="edge"><title>Node26&#45;&gt;Node13</title>
<path fill="none" stroke="midnightblue" d="M1568.29,-112.464C1519.34,-103.866 1441.45,-90.1255 1364.93,-76.341"/>
<polygon fill="midnightblue" stroke="midnightblue" points="1365.1,-72.8148 1354.64,-74.4846 1363.86,-79.7037 1365.1,-72.8148"/>
</g>
<!-- Node27&#45;&gt;Node2 -->
<g id="edge47" class="edge"><title>Node27&#45;&gt;Node2</title>
<path fill="none" stroke="midnightblue" d="M799.394,-453.09C740.912,-447.633 651.566,-435.624 628,-412 600.991,-384.924 599.984,-336.746 601.846,-310.08"/>
<polygon fill="midnightblue" stroke="midnightblue" points="605.362,-310.07 602.786,-299.793 598.391,-309.433 605.362,-310.07"/>
</g>
<!-- Node27&#45;&gt;Node3 -->
<g id="edge46" class="edge"><title>Node27&#45;&gt;Node3</title>
<path fill="none" stroke="midnightblue" d="M853.665,-448.287C856.298,-435.524 862.059,-411.181 871,-392 879.124,-374.571 885.543,-372.744 895,-356 914.994,-320.598 934.302,-277.021 944.509,-253.011"/>
<polygon fill="midnightblue" stroke="midnightblue" points="947.763,-254.303 948.416,-243.728 941.311,-251.588 947.763,-254.303"/>
</g>
<!-- Node27&#45;&gt;Node9 -->
<g id="edge44" class="edge"><title>Node27&#45;&gt;Node9</title>
<path fill="none" stroke="midnightblue" d="M799.344,-454.707C742.924,-450.811 651.56,-440.305 578,-412 485.263,-376.315 390,-390.366 390,-291 390,-291 390,-291 390,-177 390,-142.605 402.799,-130.175 432,-112 490.565,-75.5481 702.243,-68.62 784.237,-67.3062"/>
<polygon fill="midnightblue" stroke="midnightblue" points="784.299,-70.8058 794.248,-67.1638 784.199,-63.8065 784.299,-70.8058"/>
</g>
<!-- Node27&#45;&gt;Node13 -->
<g id="edge80" class="edge"><title>Node27&#45;&gt;Node13</title>
<path fill="none" stroke="midnightblue" d="M904.663,-454.517C1010.4,-449.114 1245,-434.904 1322,-412 1381.64,-394.259 1446,-409.224 1446,-347 1446,-347 1446,-347 1446,-177 1446,-126.812 1388.99,-95.081 1349.9,-79.2238"/>
<polygon fill="midnightblue" stroke="midnightblue" points="1350.98,-75.8898 1340.39,-75.5327 1348.45,-82.4151 1350.98,-75.8898"/>
</g>
<!-- Node27&#45;&gt;Node15 -->
<g id="edge45" class="edge"><title>Node27&#45;&gt;Node15</title>
<path fill="none" stroke="midnightblue" d="M799.176,-451.834C748.738,-445.68 677.971,-433.434 661,-412 643.201,-389.52 728.725,-200.809 756.516,-141.063"/>
<polygon fill="midnightblue" stroke="midnightblue" points="759.8,-142.302 760.863,-131.76 753.459,-139.339 759.8,-142.302"/>
</g>
<!-- Node28 -->
<g id="node28" class="node"><title>Node28</title>
<g id="a_node28"><a xlink:href="ButtonGroup_8hxx.html" target="_top" xlink:title="ui/basics/ButtonGroup.hxx">
<polygon fill="none" stroke="black" points="1036,-392.5 1036,-411.5 1178,-411.5 1178,-392.5 1036,-392.5"/>
<text text-anchor="middle" x="1107" y="-399.5" font-family="Helvetica,sans-Serif" font-size="10.00">ui/basics/ButtonGroup.hxx</text>
</a>
</g>
</g>
<!-- Node27&#45;&gt;Node28 -->
<g id="edge48" class="edge"><title>Node27&#45;&gt;Node28</title>
<path fill="none" stroke="midnightblue" d="M892.406,-448.444C936.983,-439.004 1008.77,-423.802 1056.89,-413.611"/>
<polygon fill="midnightblue" stroke="midnightblue" points="1057.73,-417.012 1066.78,-411.516 1056.28,-410.164 1057.73,-417.012"/>
</g>
<!-- Node29 -->
<g id="node29" class="node"><title>Node29</title>
<g id="a_node29"><a xlink:href="Button_8hxx.html" target="_top" xlink:title="../widgets/Button.hxx">
<polygon fill="none" stroke="black" points="1018,-336.5 1018,-355.5 1134,-355.5 1134,-336.5 1018,-336.5"/>
<text text-anchor="middle" x="1076" y="-343.5" font-family="Helvetica,sans-Serif" font-size="10.00">../widgets/Button.hxx</text>
</a>
</g>
</g>
<!-- Node27&#45;&gt;Node29 -->
<g id="edge55" class="edge"><title>Node27&#45;&gt;Node29</title>
<path fill="none" stroke="midnightblue" d="M904.7,-457.958C989.643,-458.247 1150.97,-453.189 1187,-412 1209.16,-386.664 1166.75,-368.63 1128.12,-358.082"/>
<polygon fill="midnightblue" stroke="midnightblue" points="1128.98,-354.689 1118.42,-355.562 1127.22,-361.464 1128.98,-354.689"/>
</g>
<!-- Node30 -->
<g id="node30" class="node"><title>Node30</title>
<g id="a_node30"><a xlink:href="Text_8hxx.html" target="_top" xlink:title="Text.hxx">
<polygon fill="none" stroke="black" points="1093.5,-280.5 1093.5,-299.5 1148.5,-299.5 1148.5,-280.5 1093.5,-280.5"/>
<text text-anchor="middle" x="1121" y="-287.5" font-family="Helvetica,sans-Serif" font-size="10.00">Text.hxx</text>
</a>
</g>
</g>
<!-- Node27&#45;&gt;Node30 -->
<g id="edge66" class="edge"><title>Node27&#45;&gt;Node30</title>
<path fill="none" stroke="midnightblue" d="M904.768,-457.704C995.769,-457.796 1176.91,-452.686 1223,-412 1248.75,-389.269 1256.4,-364.34 1237,-336 1227.74,-322.469 1188.65,-309.158 1158.38,-300.567"/>
<polygon fill="midnightblue" stroke="midnightblue" points="1159.08,-297.129 1148.51,-297.841 1157.22,-303.877 1159.08,-297.129"/>
</g>
<!-- Node31 -->
<g id="node31" class="node"><title>Node31</title>
<g id="a_node31"><a xlink:href="Checkbox_8hxx.html" target="_top" xlink:title="ui/widgets/Checkbox.hxx">
<polygon fill="none" stroke="black" points="1284.5,-336.5 1284.5,-355.5 1417.5,-355.5 1417.5,-336.5 1284.5,-336.5"/>
<text text-anchor="middle" x="1351" y="-343.5" font-family="Helvetica,sans-Serif" font-size="10.00">ui/widgets/Checkbox.hxx</text>
</a>
</g>
</g>
<!-- Node27&#45;&gt;Node31 -->
<g id="edge56" class="edge"><title>Node27&#45;&gt;Node31</title>
<path fill="none" stroke="midnightblue" d="M904.624,-456.542C1007.1,-454.866 1229.25,-447.158 1296,-412 1316.17,-401.376 1332,-379.963 1341.4,-364.616"/>
<polygon fill="midnightblue" stroke="midnightblue" points="1344.65,-365.989 1346.62,-355.581 1338.59,-362.483 1344.65,-365.989"/>
</g>
<!-- Node32 -->
<g id="node32" class="node"><title>Node32</title>
<g id="a_node32"><a xlink:href="Combobox_8hxx.html" target="_top" xlink:title="ui/widgets/Combobox.hxx">
<polygon fill="none" stroke="black" points="880,-392.5 880,-411.5 1018,-411.5 1018,-392.5 880,-392.5"/>
<text text-anchor="middle" x="949" y="-399.5" font-family="Helvetica,sans-Serif" font-size="10.00">ui/widgets/Combobox.hxx</text>
</a>
</g>
</g>
<!-- Node27&#45;&gt;Node32 -->
<g id="edge58" class="edge"><title>Node27&#45;&gt;Node32</title>
<path fill="none" stroke="midnightblue" d="M867.585,-448.324C882.999,-439.743 906.812,-426.486 924.71,-416.522"/>
<polygon fill="midnightblue" stroke="midnightblue" points="926.419,-419.577 933.454,-411.655 923.014,-413.461 926.419,-419.577"/>
</g>
<!-- Node33 -->
<g id="node33" class="node"><title>Node33</title>
<g id="a_node33"><a xlink:href="TextField_8hxx.html" target="_top" xlink:title="TextField.hxx">
<polygon fill="none" stroke="black" points="1152,-336.5 1152,-355.5 1228,-355.5 1228,-336.5 1152,-336.5"/>
<text text-anchor="middle" x="1190" y="-343.5" font-family="Helvetica,sans-Serif" font-size="10.00">TextField.hxx</text>
</a>
</g>
</g>
<!-- Node27&#45;&gt;Node33 -->
<g id="edge67" class="edge"><title>Node27&#45;&gt;Node33</title>
<path fill="none" stroke="midnightblue" d="M904.578,-454.074C998.11,-448.329 1185.48,-434.168 1205,-412 1216.44,-399.006 1209.41,-379.021 1201.57,-364.642"/>
<polygon fill="midnightblue" stroke="midnightblue" points="1204.38,-362.517 1196.23,-355.738 1198.37,-366.115 1204.38,-362.517"/>
</g>
<!-- Node34 -->
<g id="node34" class="node"><title>Node34</title>
<g id="a_node34"><a xlink:href="Frame_8hxx.html" target="_top" xlink:title="ui/widgets/Frame.hxx">
<polygon fill="none" stroke="black" points="670,-392.5 670,-411.5 786,-411.5 786,-392.5 670,-392.5"/>
<text text-anchor="middle" x="728" y="-399.5" font-family="Helvetica,sans-Serif" font-size="10.00">ui/widgets/Frame.hxx</text>
</a>
</g>
</g>
<!-- Node27&#45;&gt;Node34 -->
<g id="edge64" class="edge"><title>Node27&#45;&gt;Node34</title>
<path fill="none" stroke="midnightblue" d="M832.352,-448.444C812.035,-439.596 780.097,-425.687 756.902,-415.586"/>
<polygon fill="midnightblue" stroke="midnightblue" points="758.122,-412.3 747.556,-411.516 755.327,-418.718 758.122,-412.3"/>
</g>
<!-- Node35 -->
<g id="node35" class="node"><title>Node35</title>
<g id="a_node35"><a xlink:href="Tooltip_8hxx.html" target="_top" xlink:title="ui/widgets/Tooltip.hxx">
<polygon fill="none" stroke="black" points="770,-336.5 770,-355.5 886,-355.5 886,-336.5 770,-336.5"/>
<text text-anchor="middle" x="828" y="-343.5" font-family="Helvetica,sans-Serif" font-size="10.00">ui/widgets/Tooltip.hxx</text>
</a>
</g>
</g>
<!-- Node27&#45;&gt;Node35 -->
<g id="edge68" class="edge"><title>Node27&#45;&gt;Node35</title>
<path fill="none" stroke="midnightblue" d="M848.931,-448.478C845.798,-439.504 840.985,-424.914 838,-412 834.46,-396.685 831.836,-379.044 830.166,-366.007"/>
<polygon fill="midnightblue" stroke="midnightblue" points="833.62,-365.418 828.945,-355.911 826.671,-366.259 833.62,-365.418"/>
</g>
<!-- Node38 -->
<g id="node38" class="node"><title>Node38</title>
<g id="a_node38"><a xlink:href="Slider_8hxx.html" target="_top" xlink:title="ui/widgets/Slider.hxx">
<polygon fill="none" stroke="black" points="438.5,-280.5 438.5,-299.5 551.5,-299.5 551.5,-280.5 438.5,-280.5"/>
<text text-anchor="middle" x="495" y="-287.5" font-family="Helvetica,sans-Serif" font-size="10.00">ui/widgets/Slider.hxx</text>
</a>
</g>
</g>
<!-- Node27&#45;&gt;Node38 -->
<g id="edge77" class="edge"><title>Node27&#45;&gt;Node38</title>
<path fill="none" stroke="midnightblue" d="M799.097,-456.324C748.097,-453.625 670.161,-443.978 611,-412 563.825,-386.501 524.461,-335.016 506.106,-308.168"/>
<polygon fill="midnightblue" stroke="midnightblue" points="508.973,-306.158 500.511,-299.782 503.149,-310.043 508.973,-306.158"/>
</g>
<!-- Node28&#45;&gt;Node3 -->
<g id="edge49" class="edge"><title>Node28&#45;&gt;Node3</title>
<path fill="none" stroke="midnightblue" d="M1074.51,-392.416C1053.62,-385.496 1027.09,-373.916 1009,-356 993.57,-340.72 970.262,-283.182 958.822,-253.288"/>
<polygon fill="midnightblue" stroke="midnightblue" points="961.991,-251.771 955.182,-243.655 955.443,-254.246 961.991,-251.771"/>
</g>
<!-- Node28&#45;&gt;Node29 -->
<g id="edge50" class="edge"><title>Node28&#45;&gt;Node29</title>
<path fill="none" stroke="midnightblue" d="M1101.88,-392.083C1097.59,-384.613 1091.34,-373.724 1086.06,-364.52"/>
<polygon fill="midnightblue" stroke="midnightblue" points="1089.04,-362.681 1081.02,-355.751 1082.97,-366.166 1089.04,-362.681"/>
</g>
<!-- Node29&#45;&gt;Node3 -->
<g id="edge51" class="edge"><title>Node29&#45;&gt;Node3</title>
<path fill="none" stroke="midnightblue" d="M1066.28,-336.103C1052.5,-323.522 1026.46,-299.852 1004,-280 992.679,-269.993 979.842,-258.882 969.755,-250.204"/>
<polygon fill="midnightblue" stroke="midnightblue" points="971.89,-247.424 962.023,-243.565 967.33,-252.735 971.89,-247.424"/>
</g>
<!-- Node29&#45;&gt;Node30 -->
<g id="edge52" class="edge"><title>Node29&#45;&gt;Node30</title>
<path fill="none" stroke="midnightblue" d="M1083.43,-336.083C1089.85,-328.377 1099.31,-317.033 1107.12,-307.653"/>
<polygon fill="midnightblue" stroke="midnightblue" points="1109.99,-309.674 1113.71,-299.751 1104.62,-305.193 1109.99,-309.674"/>
</g>
<!-- Node30&#45;&gt;Node3 -->
<g id="edge54" class="edge"><title>Node30&#45;&gt;Node3</title>
<path fill="none" stroke="midnightblue" d="M1094.22,-280.444C1065.67,-271.32 1020.27,-256.813 988.463,-246.651"/>
<polygon fill="midnightblue" stroke="midnightblue" points="989.244,-243.226 978.653,-243.516 987.114,-249.894 989.244,-243.226"/>
</g>
<!-- Node30&#45;&gt;Node4 -->
<g id="edge53" class="edge"><title>Node30&#45;&gt;Node4</title>
<path fill="none" stroke="midnightblue" d="M1148.72,-284.02C1254.97,-263.857 1624.55,-183.219 1508,-56 1475.49,-20.5081 1134.64,-12.8849 1027.23,-11.3588"/>
<polygon fill="midnightblue" stroke="midnightblue" points="1027.06,-7.85632 1017.01,-11.2223 1026.96,-14.8557 1027.06,-7.85632"/>
</g>
<!-- Node31&#45;&gt;Node3 -->
<g id="edge57" class="edge"><title>Node31&#45;&gt;Node3</title>
<path fill="none" stroke="midnightblue" d="M1331.62,-336.398C1300.29,-322.778 1236.33,-296.14 1180,-280 1121.1,-263.123 1051.85,-250.434 1005.25,-242.903"/>
<polygon fill="midnightblue" stroke="midnightblue" points="1005.8,-239.447 995.377,-241.329 1004.7,-246.36 1005.8,-239.447"/>
</g>
<!-- Node32&#45;&gt;Node3 -->
<g id="edge60" class="edge"><title>Node32&#45;&gt;Node3</title>
<path fill="none" stroke="midnightblue" d="M949.161,-392.075C949.634,-365.945 951.02,-289.211 951.664,-253.577"/>
<polygon fill="midnightblue" stroke="midnightblue" points="955.164,-253.63 951.845,-243.568 948.165,-253.503 955.164,-253.63"/>
</g>
<!-- Node32&#45;&gt;Node17 -->
<g id="edge59" class="edge"><title>Node32&#45;&gt;Node17</title>
<path fill="none" stroke="midnightblue" d="M884.043,-392.494C836.998,-385.068 778.686,-372.832 761,-356 739.198,-335.25 742,-321.098 742,-291 742,-291 742,-291 742,-233 742,-197.702 721.282,-160.786 707.356,-139.96"/>
<polygon fill="midnightblue" stroke="midnightblue" points="710.117,-137.8 701.535,-131.587 704.37,-141.796 710.117,-137.8"/>
</g>
<!-- Node32&#45;&gt;Node33 -->
<g id="edge61" class="edge"><title>Node32&#45;&gt;Node33</title>
<path fill="none" stroke="midnightblue" d="M987.187,-392.444C1029.14,-383.043 1096.59,-367.929 1142.07,-357.739"/>
<polygon fill="midnightblue" stroke="midnightblue" points="1143,-361.118 1151.99,-355.516 1141.47,-354.288 1143,-361.118"/>
</g>
<!-- Node33&#45;&gt;Node3 -->
<g id="edge62" class="edge"><title>Node33&#45;&gt;Node3</title>
<path fill="none" stroke="midnightblue" d="M1188.12,-336.309C1184.6,-322.191 1175.62,-294.406 1157,-280 1133.7,-261.969 1058.03,-248.761 1005.45,-241.478"/>
<polygon fill="midnightblue" stroke="midnightblue" points="1005.65,-237.973 995.268,-240.101 1004.71,-244.91 1005.65,-237.973"/>
</g>
<!-- Node33&#45;&gt;Node30 -->
<g id="edge63" class="edge"><title>Node33&#45;&gt;Node30</title>
<path fill="none" stroke="midnightblue" d="M1178.91,-336.324C1168.51,-328.185 1152.74,-315.839 1140.28,-306.087"/>
<polygon fill="midnightblue" stroke="midnightblue" points="1142.32,-303.241 1132.29,-299.834 1138.01,-308.753 1142.32,-303.241"/>
</g>
<!-- Node34&#45;&gt;Node3 -->
<g id="edge65" class="edge"><title>Node34&#45;&gt;Node3</title>
<path fill="none" stroke="midnightblue" d="M730.488,-392.407C734.767,-378.918 744.671,-352.603 761,-336 804.952,-291.311 872.906,-261.929 914.801,-246.912"/>
<polygon fill="midnightblue" stroke="midnightblue" points="916.062,-250.179 924.348,-243.577 913.753,-243.571 916.062,-250.179"/>
</g>
<!-- Node35&#45;&gt;Node3 -->
<g id="edge69" class="edge"><title>Node35&#45;&gt;Node3</title>
<path fill="none" stroke="midnightblue" d="M837.724,-336.103C851.505,-323.522 877.54,-299.852 900,-280 911.321,-269.993 924.158,-258.882 934.245,-250.204"/>
<polygon fill="midnightblue" stroke="midnightblue" points="936.67,-252.735 941.977,-243.565 932.11,-247.424 936.67,-252.735"/>
</g>
<!-- Node35&#45;&gt;Node30 -->
<g id="edge70" class="edge"><title>Node35&#45;&gt;Node30</title>
<path fill="none" stroke="midnightblue" d="M874.427,-336.444C932.215,-325.793 1029.8,-307.809 1083.23,-297.961"/>
<polygon fill="midnightblue" stroke="midnightblue" points="1084.11,-301.359 1093.31,-296.104 1082.84,-294.475 1084.11,-301.359"/>
</g>
<!-- Node36 -->
<g id="node36" class="node"><title>Node36</title>
<g id="a_node36"><a xlink:href="Timer_8hxx.html" target="_top" xlink:title="../../basics/Timer.hxx">
<polygon fill="none" stroke="black" points="421.5,-224.5 421.5,-243.5 534.5,-243.5 534.5,-224.5 421.5,-224.5"/>
<text text-anchor="middle" x="478" y="-231.5" font-family="Helvetica,sans-Serif" font-size="10.00">../../basics/Timer.hxx</text>
</a>
</g>
</g>
<!-- Node35&#45;&gt;Node36 -->
<g id="edge71" class="edge"><title>Node35&#45;&gt;Node36</title>
<path fill="none" stroke="midnightblue" d="M806.191,-336.492C772.387,-323.458 705.167,-298.153 647,-280 605.452,-267.034 557.443,-254.478 523.237,-245.94"/>
<polygon fill="midnightblue" stroke="midnightblue" points="524.079,-242.543 513.531,-243.532 522.394,-249.337 524.079,-242.543"/>
</g>
<!-- Node36&#45;&gt;Node9 -->
<g id="edge75" class="edge"><title>Node36&#45;&gt;Node9</title>
<path fill="none" stroke="midnightblue" d="M469.517,-224.234C461.946,-215.75 451.396,-202.131 447,-188 436.966,-155.747 424.604,-137.285 447,-112 469.241,-86.8898 698.19,-72.9344 784.403,-68.5372"/>
<polygon fill="midnightblue" stroke="midnightblue" points="784.607,-72.0314 794.42,-68.0367 784.258,-65.0401 784.607,-72.0314"/>
</g>
<!-- Node36&#45;&gt;Node16 -->
<g id="edge76" class="edge"><title>Node36&#45;&gt;Node16</title>
<path fill="none" stroke="midnightblue" d="M494.388,-224.324C510.671,-215.703 535.867,-202.364 554.716,-192.386"/>
<polygon fill="midnightblue" stroke="midnightblue" points="556.452,-195.427 563.653,-187.655 553.177,-189.24 556.452,-195.427"/>
</g>
<!-- Node36&#45;&gt;Node22 -->
<g id="edge73" class="edge"><title>Node36&#45;&gt;Node22</title>
<path fill="none" stroke="midnightblue" d="M445.834,-224.444C408.786,-214.588 348.13,-198.453 309.946,-188.296"/>
<polygon fill="midnightblue" stroke="midnightblue" points="310.845,-184.913 300.281,-185.725 309.045,-191.678 310.845,-184.913"/>
</g>
<!-- Node36&#45;&gt;Node23 -->
<g id="edge72" class="edge"><title>Node36&#45;&gt;Node23</title>
<path fill="none" stroke="midnightblue" d="M456.133,-224.444C433.221,-215.478 397.025,-201.314 371.134,-191.183"/>
<polygon fill="midnightblue" stroke="midnightblue" points="372.352,-187.901 361.764,-187.516 369.801,-194.42 372.352,-187.901"/>
</g>
<!-- Node37 -->
<g id="node37" class="node"><title>Node37</title>
<polygon fill="none" stroke="#bfbfbf" points="456,-168.5 456,-187.5 504,-187.5 504,-168.5 456,-168.5"/>
<text text-anchor="middle" x="480" y="-175.5" font-family="Helvetica,sans-Serif" font-size="10.00">thread</text>
</g>
<!-- Node36&#45;&gt;Node37 -->
<g id="edge74" class="edge"><title>Node36&#45;&gt;Node37</title>
<path fill="none" stroke="midnightblue" d="M478.33,-224.083C478.592,-217.006 478.968,-206.861 479.297,-197.986"/>
<polygon fill="midnightblue" stroke="midnightblue" points="482.803,-197.874 479.676,-187.751 475.808,-197.615 482.803,-197.874"/>
</g>
<!-- Node38&#45;&gt;Node3 -->
<g id="edge79" class="edge"><title>Node38&#45;&gt;Node3</title>
<path fill="none" stroke="midnightblue" d="M551.515,-281.214C554.723,-280.797 557.902,-280.389 561,-280 681.599,-264.839 823.385,-249.02 898.685,-240.778"/>
<polygon fill="midnightblue" stroke="midnightblue" points="899.3,-244.232 908.86,-239.666 898.539,-237.273 899.3,-244.232"/>
</g>
<!-- Node38&#45;&gt;Node4 -->
<g id="edge78" class="edge"><title>Node38&#45;&gt;Node4</title>
<path fill="none" stroke="midnightblue" d="M438.319,-288.484C334.663,-286.686 119.201,-278.747 54,-244 20.8552,-226.337 0,-216.558 0,-179 0,-179 0,-179 0,-121 0,-61.9023 59.2193,-72.386 116,-56 279.49,-8.81954 823.815,-9.67249 962.583,-10.6917"/>
<polygon fill="midnightblue" stroke="midnightblue" points="962.922,-14.1944 972.949,-10.7739 962.977,-7.1946 962.922,-14.1944"/>
</g>
</g>
</svg>
        <g id="navigator" transform="translate(0 0)" fill="#404254">
                <rect fill="#f2f5e9" fill-opacity="0.5" stroke="#606060" stroke-width=".5" x="0" y="0" width="60" height="60"/>
                <use id="zoomplus" xlink:href="#zoomPlus" x="17" y="9" onmousedown="handleZoom(evt,'in')"/>
                <use id="zoomminus" xlink:href="#zoomMin" x="42" y="9" onmousedown="handleZoom(evt,'out')"/>
                <use id="reset" xlink:href="#resetDef" x="30" y="36" onmousedown="handleReset()"/>
                <g id="arrowUp" xlink:href="#dirArrow" transform="translate(30 24)" onmousedown="handlePan(0,-1)">
                  <use xlink:href="#rim" fill="#404040">
                        <set attributeName="fill" to="#808080" begin="arrowUp.mouseover" end="arrowUp.mouseout"/>
                  </use>
                  <path fill="none" stroke="white" stroke-width="1.5" d="M0,-3.0v7 M-2.5,-0.5L0,-3.0L2.5,-0.5"/>
                </g>
                <g id="arrowRight" xlink:href="#dirArrow" transform="rotate(90) translate(36 -43)" onmousedown="handlePan(1,0)">
                  <use xlink:href="#rim" fill="#404040">
                        <set attributeName="fill" to="#808080" begin="arrowRight.mouseover" end="arrowRight.mouseout"/>
                  </use>
                  <path fill="none" stroke="white" stroke-width="1.5" d="M0,-3.0v7 M-2.5,-0.5L0,-3.0L2.5,-0.5"/>
                </g>
                <g id="arrowDown" xlink:href="#dirArrow" transform="rotate(180) translate(-30 -48)" onmousedown="handlePan(0,1)">
                  <use xlink:href="#rim" fill="#404040">
                        <set attributeName="fill" to="#808080" begin="arrowDown.mouseover" end="arrowDown.mouseout"/>
                  </use>
                  <path fill="none" stroke="white" stroke-width="1.5" d="M0,-3.0v7 M-2.5,-0.5L0,-3.0L2.5,-0.5"/>
                </g>
                <g id="arrowLeft" xlink:href="#dirArrow" transform="rotate(270) translate(-36 17)" onmousedown="handlePan(-1,0)">
                  <use xlink:href="#rim" fill="#404040">
                        <set attributeName="fill" to="#808080" begin="arrowLeft.mouseover" end="arrowLeft.mouseout"/>
                  </use>
                  <path fill="none" stroke="white" stroke-width="1.5" d="M0,-3.0v7 M-2.5,-0.5L0,-3.0L2.5,-0.5"/>
                </g>
        </g>
        <svg viewBox="0 0 15 15" width="100%" height="30px" preserveAspectRatio="xMaxYMin meet">
         <g id="arrow_out" transform="scale(0.3 0.3)">
          <a xlink:href="Layout_8cxx__incl_org.svg" target="_base">
           <rect id="button" ry="5" rx="5" y="6" x="6" height="38" width="38"
                fill="#f2f5e9" fill-opacity="0.5" stroke="#606060" stroke-width="1.0"/>
           <path id="arrow"
             d="M 11.500037,31.436501 C 11.940474,20.09759 22.043105,11.32322 32.158766,21.979434 L 37.068811,17.246167 C 37.068811,17.246167 37.088388,32 37.088388,32 L 22.160133,31.978069 C 22.160133,31.978069 26.997745,27.140456 26.997745,27.140456 C 18.528582,18.264221 13.291696,25.230495 11.500037,31.436501 z"
             style="fill:#404040;"/>
          </a>
         </g>
        </svg>
</svg>
