<?xml version="1.0" encoding="UTF-8" standalone="no"?>
<!DOCTYPE svg PUBLIC "-//W3C//DTD SVG 1.1//EN"
 "http://www.w3.org/Graphics/SVG/1.1/DTD/svg11.dtd">
<!-- Generated by graphviz version 2.38.0 (20140413.2041)
 -->
<!-- Title: src/main.cxx Pages: 1 -->
<svg width="188pt" height="140pt"
 viewBox="0.00 0.00 188.00 140.00" xmlns="http://www.w3.org/2000/svg" xmlns:xlink="http://www.w3.org/1999/xlink">
<g id="graph0" class="graph" transform="scale(1 1) rotate(0) translate(4 136)">
<title>src/main.cxx</title>
<!-- Node1 -->
<g id="node1" class="node"><title>Node1</title>
<polygon fill="#bfbfbf" stroke="black" points="72,-112.5 72,-131.5 149,-131.5 149,-112.5 72,-112.5"/>
<text text-anchor="middle" x="110.5" y="-119.5" font-family="Helvetica,sans-Serif" font-size="10.00">src/main.cxx</text>
</g>
<!-- Node2 -->
<g id="node2" class="node"><title>Node2</title>
<g id="a_node2"><a xlink:href="Game_8hxx.html" target="_top" xlink:title="Game.hxx">
<polygon fill="none" stroke="black" points="38,-56.5 38,-75.5 103,-75.5 103,-56.5 38,-56.5"/>
<text text-anchor="middle" x="70.5" y="-63.5" font-family="Helvetica,sans-Serif" font-size="10.00">Game.hxx</text>
</a>
</g>
</g>
<!-- Node1&#45;&gt;Node2 -->
<g id="edge1" class="edge"><title>Node1&#45;&gt;Node2</title>
<path fill="none" stroke="midnightblue" d="M103.895,-112.083C98.2448,-104.455 89.9552,-93.2645 83.0488,-83.9408"/>
<polygon fill="midnightblue" stroke="midnightblue" points="85.7471,-81.7034 76.9823,-75.7511 80.1221,-85.87 85.7471,-81.7034"/>
</g>
<!-- Node4 -->
<g id="node4" class="node"><title>Node4</title>
<polygon fill="none" stroke="#bfbfbf" points="121,-56.5 121,-75.5 180,-75.5 180,-56.5 121,-56.5"/>
<text text-anchor="middle" x="150.5" y="-63.5" font-family="Helvetica,sans-Serif" font-size="10.00">iostream</text>
</g>
<!-- Node1&#45;&gt;Node4 -->
<g id="edge3" class="edge"><title>Node1&#45;&gt;Node4</title>
<path fill="none" stroke="midnightblue" d="M117.105,-112.083C122.755,-104.455 131.045,-93.2645 137.951,-83.9408"/>
<polygon fill="midnightblue" stroke="midnightblue" points="140.878,-85.87 144.018,-75.7511 135.253,-81.7034 140.878,-85.87"/>
</g>
<!-- Node3 -->
<g id="node3" class="node"><title>Node3</title>
<g id="a_node3"><a xlink:href="ScriptEngine_8hxx.html" target="_top" xlink:title="Scripting/ScriptEngine.hxx">
<polygon fill="none" stroke="black" points="0,-0.5 0,-19.5 141,-19.5 141,-0.5 0,-0.5"/>
<text text-anchor="middle" x="70.5" y="-7.5" font-family="Helvetica,sans-Serif" font-size="10.00">Scripting/ScriptEngine.hxx</text>
</a>
</g>
</g>
<!-- Node2&#45;&gt;Node3 -->
<g id="edge2" class="edge"><title>Node2&#45;&gt;Node3</title>
<path fill="none" stroke="midnightblue" d="M70.5,-56.083C70.5,-49.0059 70.5,-38.8611 70.5,-29.9865"/>
<polygon fill="midnightblue" stroke="midnightblue" points="74.0001,-29.751 70.5,-19.7511 67.0001,-29.7511 74.0001,-29.751"/>
</g>
</g>
</svg>
