<?xml version="1.0" encoding="UTF-8" standalone="no"?>
<!DOCTYPE svg PUBLIC "-//W3C//DTD SVG 1.1//EN"
 "http://www.w3.org/Graphics/SVG/1.1/DTD/svg11.dtd">
<!-- Generated by graphviz version 2.38.0 (20140413.2041)
 -->
<!-- Title: src/engine/Map.cxx Pages: 1 -->
<!--zoomable 364 -->
<svg id="main" version="1.1" xmlns="http://www.w3.org/2000/svg" xmlns:xlink="http://www.w3.org/1999/xlink" xml:space="preserve" onload="init(evt)">
<style type="text/css"><![CDATA[
.edge:hover path { stroke: red; }
.edge:hover polygon { stroke: red; fill: red; }
]]></style>
<script type="text/javascript"><![CDATA[
var edges = document.getElementsByTagName('g');
if (edges && edges.length) {
  for (var i=0;i<edges.length;i++) {
    if (edges[i].id.substr(0,4)=='edge') {
      edges[i].setAttribute('class','edge');
    }
  }
}
]]></script>
        <defs>
                <circle id="rim" cx="0" cy="0" r="7"/>
                <circle id="rim2" cx="0" cy="0" r="3.5"/>
                <g id="zoomPlus">
                        <use xlink:href="#rim" fill="#404040">
                                <set attributeName="fill" to="#808080" begin="zoomplus.mouseover" end="zoomplus.mouseout"/>
                        </use>
                        <path d="M-4,0h8M0,-4v8" fill="none" stroke="white" stroke-width="1.5" pointer-events="none"/>
                </g>
                <g id="zoomMin">
                        <use xlink:href="#rim" fill="#404040">
                                <set attributeName="fill" to="#808080" begin="zoomminus.mouseover" end="zoomminus.mouseout"/>
                        </use>
                        <path d="M-4,0h8" fill="none" stroke="white" stroke-width="1.5" pointer-events="none"/>
                </g>
                <g id="dirArrow">
                        <path fill="none" stroke="white" stroke-width="1.5" d="M0,-3.0v7 M-2.5,-0.5L0,-3.0L2.5,-0.5"/>
                </g>
               <g id="resetDef">
                       <use xlink:href="#rim2" fill="#404040">
                               <set attributeName="fill" to="#808080" begin="reset.mouseover" end="reset.mouseout"/>
                       </use>
               </g>
        </defs>

<script type="text/javascript">
var viewWidth = 1887;
var viewHeight = 364;
var sectionId = 'dynsection-0';
</script>
<script xlink:href="svgpan.js"/>
<svg id="graph" class="graph">
<g id="viewport">
<title>src/engine/Map.cxx</title>
<!-- Node1 -->
<g id="node1" class="node"><title>Node1</title>
<polygon fill="#bfbfbf" stroke="black" points="1128.5,-336.5 1128.5,-355.5 1236.5,-355.5 1236.5,-336.5 1128.5,-336.5"/>
<text text-anchor="middle" x="1182.5" y="-343.5" font-family="Helvetica,sans-Serif" font-size="10.00">src/engine/Map.cxx</text>
</g>
<!-- Node2 -->
<g id="node2" class="node"><title>Node2</title>
<g id="a_node2"><a xlink:href="Map_8hxx.html" target="_top" xlink:title="Map.hxx">
<polygon fill="none" stroke="black" points="362.5,-280.5 362.5,-299.5 418.5,-299.5 418.5,-280.5 362.5,-280.5"/>
<text text-anchor="middle" x="390.5" y="-287.5" font-family="Helvetica,sans-Serif" font-size="10.00">Map.hxx</text>
</a>
</g>
</g>
<!-- Node1&#45;&gt;Node2 -->
<g id="edge1" class="edge"><title>Node1&#45;&gt;Node2</title>
<path fill="none" stroke="midnightblue" d="M1128.37,-341.31C978.071,-331.062 558.152,-302.431 428.873,-293.616"/>
<polygon fill="midnightblue" stroke="midnightblue" points="428.887,-290.109 418.672,-292.921 428.41,-297.093 428.887,-290.109"/>
</g>
<!-- Node7 -->
<g id="node7" class="node"><title>Node7</title>
<polygon fill="none" stroke="#bfbfbf" points="1307.5,-0.5 1307.5,-19.5 1351.5,-19.5 1351.5,-0.5 1307.5,-0.5"/>
<text text-anchor="middle" x="1329.5" y="-7.5" font-family="Helvetica,sans-Serif" font-size="10.00">string</text>
</g>
<!-- Node1&#45;&gt;Node7 -->
<g id="edge68" class="edge"><title>Node1&#45;&gt;Node7</title>
<path fill="none" stroke="midnightblue" d="M1236.64,-343.918C1366.07,-340.852 1685.43,-330.272 1722.5,-300 1745.81,-280.963 1741.5,-265.098 1741.5,-235 1741.5,-235 1741.5,-235 1741.5,-121 1741.5,-42.5059 1458.82,-18.5756 1361.76,-12.6726"/>
<polygon fill="midnightblue" stroke="midnightblue" points="1361.84,-9.17128 1351.65,-12.0828 1361.43,-16.1594 1361.84,-9.17128"/>
</g>
<!-- Node16 -->
<g id="node16" class="node"><title>Node16</title>
<polygon fill="none" stroke="#bfbfbf" points="1200.5,-56.5 1200.5,-75.5 1256.5,-75.5 1256.5,-56.5 1200.5,-56.5"/>
<text text-anchor="middle" x="1228.5" y="-63.5" font-family="Helvetica,sans-Serif" font-size="10.00">json.hxx</text>
</g>
<!-- Node1&#45;&gt;Node16 -->
<g id="edge66" class="edge"><title>Node1&#45;&gt;Node16</title>
<path fill="none" stroke="midnightblue" d="M1186.68,-336.393C1195.14,-318.156 1213.5,-274.087 1213.5,-235 1213.5,-235 1213.5,-235 1213.5,-177 1213.5,-144.502 1220.01,-107.095 1224.45,-85.343"/>
<polygon fill="midnightblue" stroke="midnightblue" points="1227.89,-86.0128 1226.54,-75.5039 1221.04,-84.5586 1227.89,-86.0128"/>
</g>
<!-- Node20 -->
<g id="node20" class="node"><title>Node20</title>
<g id="a_node20"><a xlink:href="Camera_8hxx.html" target="_top" xlink:title="basics/Camera.hxx">
<polygon fill="none" stroke="black" points="768,-112.5 768,-131.5 875,-131.5 875,-112.5 768,-112.5"/>
<text text-anchor="middle" x="821.5" y="-119.5" font-family="Helvetica,sans-Serif" font-size="10.00">basics/Camera.hxx</text>
</a>
</g>
</g>
<!-- Node1&#45;&gt;Node20 -->
<g id="edge29" class="edge"><title>Node1&#45;&gt;Node20</title>
<path fill="none" stroke="midnightblue" d="M1164.13,-336.431C1145.91,-327.771 1117.36,-313.739 1093.5,-300 996.667,-244.234 886.612,-168.635 841.946,-137.408"/>
<polygon fill="midnightblue" stroke="midnightblue" points="843.868,-134.481 833.671,-131.606 839.85,-140.213 843.868,-134.481"/>
</g>
<!-- Node21 -->
<g id="node21" class="node"><title>Node21</title>
<g id="a_node21"><a xlink:href="isoMath_8hxx.html" target="_top" xlink:title="basics/isoMath.hxx">
<polygon fill="none" stroke="black" points="528,-112.5 528,-131.5 635,-131.5 635,-112.5 528,-112.5"/>
<text text-anchor="middle" x="581.5" y="-119.5" font-family="Helvetica,sans-Serif" font-size="10.00">basics/isoMath.hxx</text>
</a>
</g>
</g>
<!-- Node1&#45;&gt;Node21 -->
<g id="edge32" class="edge"><title>Node1&#45;&gt;Node21</title>
<path fill="none" stroke="midnightblue" d="M1128.48,-345.087C1021.46,-344.408 786.844,-338.43 717.5,-300 650.864,-263.07 606.369,-178.477 589.307,-141.205"/>
<polygon fill="midnightblue" stroke="midnightblue" points="592.318,-139.361 585.061,-131.642 585.92,-142.202 592.318,-139.361"/>
</g>
<!-- Node22 -->
<g id="node22" class="node"><title>Node22</title>
<g id="a_node22"><a xlink:href="mapEdit_8hxx.html" target="_top" xlink:title="basics/mapEdit.hxx">
<polygon fill="none" stroke="black" points="1770,-224.5 1770,-243.5 1879,-243.5 1879,-224.5 1770,-224.5"/>
<text text-anchor="middle" x="1824.5" y="-231.5" font-family="Helvetica,sans-Serif" font-size="10.00">basics/mapEdit.hxx</text>
</a>
</g>
</g>
<!-- Node1&#45;&gt;Node22 -->
<g id="edge37" class="edge"><title>Node1&#45;&gt;Node22</title>
<path fill="none" stroke="midnightblue" d="M1236.85,-345.286C1361.36,-345.215 1663.58,-340.715 1755.5,-300 1779.15,-289.525 1799.76,-267.415 1812.16,-251.903"/>
<polygon fill="midnightblue" stroke="midnightblue" points="1815.16,-253.736 1818.47,-243.67 1809.61,-249.479 1815.16,-253.736"/>
</g>
<!-- Node23 -->
<g id="node23" class="node"><title>Node23</title>
<g id="a_node23"><a xlink:href="Settings_8hxx.html" target="_top" xlink:title="basics/Settings.hxx">
<polygon fill="none" stroke="black" points="1076,-224.5 1076,-243.5 1185,-243.5 1185,-224.5 1076,-224.5"/>
<text text-anchor="middle" x="1130.5" y="-231.5" font-family="Helvetica,sans-Serif" font-size="10.00">basics/Settings.hxx</text>
</a>
</g>
</g>
<!-- Node1&#45;&gt;Node23 -->
<g id="edge39" class="edge"><title>Node1&#45;&gt;Node23</title>
<path fill="none" stroke="midnightblue" d="M1178.42,-336.368C1169.95,-318.456 1150.32,-276.923 1138.98,-252.948"/>
<polygon fill="midnightblue" stroke="midnightblue" points="1142,-251.136 1134.56,-243.591 1135.67,-254.128 1142,-251.136"/>
</g>
<!-- Node24 -->
<g id="node24" class="node"><title>Node24</title>
<g id="a_node24"><a xlink:href="LOG_8hxx.html" target="_top" xlink:title="basics/LOG.hxx">
<polygon fill="none" stroke="black" points="1335,-168.5 1335,-187.5 1424,-187.5 1424,-168.5 1335,-168.5"/>
<text text-anchor="middle" x="1379.5" y="-175.5" font-family="Helvetica,sans-Serif" font-size="10.00">basics/LOG.hxx</text>
</a>
</g>
</g>
<!-- Node1&#45;&gt;Node24 -->
<g id="edge42" class="edge"><title>Node1&#45;&gt;Node24</title>
<path fill="none" stroke="midnightblue" d="M1192.81,-336.309C1224.6,-309.528 1321.31,-228.035 1361.59,-194.09"/>
<polygon fill="midnightblue" stroke="midnightblue" points="1363.9,-196.725 1369.29,-187.605 1359.39,-191.372 1363.9,-196.725"/>
</g>
<!-- Node29 -->
<g id="node29" class="node"><title>Node29</title>
<polygon fill="none" stroke="#bfbfbf" points="1559.5,-112.5 1559.5,-131.5 1615.5,-131.5 1615.5,-112.5 1559.5,-112.5"/>
<text text-anchor="middle" x="1587.5" y="-119.5" font-family="Helvetica,sans-Serif" font-size="10.00">sstream</text>
</g>
<!-- Node1&#45;&gt;Node29 -->
<g id="edge67" class="edge"><title>Node1&#45;&gt;Node29</title>
<path fill="none" stroke="midnightblue" d="M1198.13,-336.433C1259.89,-302.581 1487.23,-177.962 1562.85,-136.51"/>
<polygon fill="midnightblue" stroke="midnightblue" points="1564.61,-139.537 1571.7,-131.661 1561.25,-133.398 1564.61,-139.537"/>
</g>
<!-- Node30 -->
<g id="node30" class="node"><title>Node30</title>
<g id="a_node30"><a xlink:href="compression_8hxx.html" target="_top" xlink:title="basics/compression.hxx">
<polygon fill="none" stroke="black" points="1582,-280.5 1582,-299.5 1713,-299.5 1713,-280.5 1582,-280.5"/>
<text text-anchor="middle" x="1647.5" y="-287.5" font-family="Helvetica,sans-Serif" font-size="10.00">basics/compression.hxx</text>
</a>
</g>
</g>
<!-- Node1&#45;&gt;Node30 -->
<g id="edge49" class="edge"><title>Node1&#45;&gt;Node30</title>
<path fill="none" stroke="midnightblue" d="M1236.59,-338.886C1310.07,-330.556 1445.83,-315.079 1571.54,-300.226"/>
<polygon fill="midnightblue" stroke="midnightblue" points="1572.22,-303.671 1581.74,-299.021 1571.39,-296.72 1572.22,-303.671"/>
</g>
<!-- Node32 -->
<g id="node32" class="node"><title>Node32</title>
<g id="a_node32"><a xlink:href="Constants_8hxx.html" target="_top" xlink:title="common/Constants.hxx">
<polygon fill="none" stroke="black" points="1433,-280.5 1433,-299.5 1564,-299.5 1564,-280.5 1433,-280.5"/>
<text text-anchor="middle" x="1498.5" y="-287.5" font-family="Helvetica,sans-Serif" font-size="10.00">common/Constants.hxx</text>
</a>
</g>
</g>
<!-- Node1&#45;&gt;Node32 -->
<g id="edge52" class="edge"><title>Node1&#45;&gt;Node32</title>
<path fill="none" stroke="midnightblue" d="M1232.57,-336.444C1288.51,-326.885 1379.01,-311.419 1438.64,-301.23"/>
<polygon fill="midnightblue" stroke="midnightblue" points="1439.4,-304.651 1448.66,-299.516 1438.22,-297.751 1439.4,-304.651"/>
</g>
<!-- Node33 -->
<g id="node33" class="node"><title>Node33</title>
<g id="a_node33"><a xlink:href="ResourcesManager_8hxx.html" target="_top" xlink:title="ResourcesManager.hxx">
<polygon fill="none" stroke="black" points="983.5,-168.5 983.5,-187.5 1109.5,-187.5 1109.5,-168.5 983.5,-168.5"/>
<text text-anchor="middle" x="1046.5" y="-175.5" font-family="Helvetica,sans-Serif" font-size="10.00">ResourcesManager.hxx</text>
</a>
</g>
</g>
<!-- Node1&#45;&gt;Node33 -->
<g id="edge53" class="edge"><title>Node1&#45;&gt;Node33</title>
<path fill="none" stroke="midnightblue" d="M1168.09,-336.316C1143.6,-320.83 1093.86,-286.089 1066.5,-244 1057.35,-229.925 1052.19,-211.433 1049.42,-197.773"/>
<polygon fill="midnightblue" stroke="midnightblue" points="1052.81,-196.868 1047.61,-187.638 1045.92,-198.097 1052.81,-196.868"/>
</g>
<!-- Node34 -->
<g id="node34" class="node"><title>Node34</title>
<g id="a_node34"><a xlink:href="MapLayers_8hxx.html" target="_top" xlink:title="map/MapLayers.hxx">
<polygon fill="none" stroke="black" points="0,-224.5 0,-243.5 113,-243.5 113,-224.5 0,-224.5"/>
<text text-anchor="middle" x="56.5" y="-231.5" font-family="Helvetica,sans-Serif" font-size="10.00">map/MapLayers.hxx</text>
</a>
</g>
</g>
<!-- Node1&#45;&gt;Node34 -->
<g id="edge58" class="edge"><title>Node1&#45;&gt;Node34</title>
<path fill="none" stroke="midnightblue" d="M1128.39,-345.072C995.693,-344.596 643.796,-339.384 353.5,-300 260.985,-287.449 154.528,-261.211 97.5613,-246.192"/>
<polygon fill="midnightblue" stroke="midnightblue" points="98.4125,-242.797 87.8492,-243.613 96.6162,-249.562 98.4125,-242.797"/>
</g>
<!-- Node35 -->
<g id="node35" class="node"><title>Node35</title>
<g id="a_node35"><a xlink:href="JsonSerialization_8hxx.html" target="_top" xlink:title="common/JsonSerialization.hxx">
<polygon fill="none" stroke="black" points="726.5,-280.5 726.5,-299.5 886.5,-299.5 886.5,-280.5 726.5,-280.5"/>
<text text-anchor="middle" x="806.5" y="-287.5" font-family="Helvetica,sans-Serif" font-size="10.00">common/JsonSerialization.hxx</text>
</a>
</g>
</g>
<!-- Node1&#45;&gt;Node35 -->
<g id="edge60" class="edge"><title>Node1&#45;&gt;Node35</title>
<path fill="none" stroke="midnightblue" d="M1128.23,-337.206C1061.61,-327.637 948.528,-311.398 875.716,-300.941"/>
<polygon fill="midnightblue" stroke="midnightblue" points="876.114,-297.462 865.718,-299.505 875.119,-304.391 876.114,-297.462"/>
</g>
<!-- Node3 -->
<g id="node3" class="node"><title>Node3</title>
<polygon fill="none" stroke="#bfbfbf" points="244,-56.5 244,-75.5 291,-75.5 291,-56.5 244,-56.5"/>
<text text-anchor="middle" x="267.5" y="-63.5" font-family="Helvetica,sans-Serif" font-size="10.00">vector</text>
</g>
<!-- Node2&#45;&gt;Node3 -->
<g id="edge2" class="edge"><title>Node2&#45;&gt;Node3</title>
<path fill="none" stroke="midnightblue" d="M362.313,-287.774C332.245,-284.806 285.808,-275.102 262.5,-244 226.914,-196.514 247.836,-120.005 260.282,-85.2395"/>
<polygon fill="midnightblue" stroke="midnightblue" points="263.562,-86.4609 263.801,-75.8688 257.009,-84.0003 263.562,-86.4609"/>
</g>
<!-- Node4 -->
<g id="node4" class="node"><title>Node4</title>
<g id="a_node4"><a xlink:href="MapNode_8hxx.html" target="_top" xlink:title="GameObjects/MapNode.hxx">
<polygon fill="none" stroke="black" points="364.5,-168.5 364.5,-187.5 514.5,-187.5 514.5,-168.5 364.5,-168.5"/>
<text text-anchor="middle" x="439.5" y="-175.5" font-family="Helvetica,sans-Serif" font-size="10.00">GameObjects/MapNode.hxx</text>
</a>
</g>
</g>
<!-- Node2&#45;&gt;Node4 -->
<g id="edge3" class="edge"><title>Node2&#45;&gt;Node4</title>
<path fill="none" stroke="midnightblue" d="M397.568,-280.177C404.274,-271.436 414.232,-257.446 420.5,-244 427.485,-229.015 432.529,-210.879 435.657,-197.576"/>
<polygon fill="midnightblue" stroke="midnightblue" points="439.097,-198.233 437.835,-187.713 432.261,-196.724 439.097,-198.233"/>
</g>
<!-- Node18 -->
<g id="node18" class="node"><title>Node18</title>
<g id="a_node18"><a xlink:href="TerrainGenerator_8hxx.html" target="_top" xlink:title="map/TerrainGenerator.hxx">
<polygon fill="none" stroke="black" points="271.5,-224.5 271.5,-243.5 411.5,-243.5 411.5,-224.5 271.5,-224.5"/>
<text text-anchor="middle" x="341.5" y="-231.5" font-family="Helvetica,sans-Serif" font-size="10.00">map/TerrainGenerator.hxx</text>
</a>
</g>
</g>
<!-- Node2&#45;&gt;Node18 -->
<g id="edge25" class="edge"><title>Node2&#45;&gt;Node18</title>
<path fill="none" stroke="midnightblue" d="M382.409,-280.083C375.345,-272.298 364.912,-260.801 356.351,-251.367"/>
<polygon fill="midnightblue" stroke="midnightblue" points="358.753,-248.805 349.441,-243.751 353.569,-253.509 358.753,-248.805"/>
</g>
<!-- Node4&#45;&gt;Node3 -->
<g id="edge8" class="edge"><title>Node4&#45;&gt;Node3</title>
<path fill="none" stroke="midnightblue" d="M382.505,-168.429C340.606,-160.896 288.609,-148.552 274.5,-132 263.81,-119.459 262.994,-100.236 264.29,-85.9441"/>
<polygon fill="midnightblue" stroke="midnightblue" points="267.796,-86.1333 265.635,-75.7611 260.856,-85.217 267.796,-86.1333"/>
</g>
<!-- Node5 -->
<g id="node5" class="node"><title>Node5</title>
<polygon fill="none" stroke="#bfbfbf" points="796,-56.5 796,-75.5 841,-75.5 841,-56.5 796,-56.5"/>
<text text-anchor="middle" x="818.5" y="-63.5" font-family="Helvetica,sans-Serif" font-size="10.00">SDL.h</text>
</g>
<!-- Node4&#45;&gt;Node5 -->
<g id="edge4" class="edge"><title>Node4&#45;&gt;Node5</title>
<path fill="none" stroke="midnightblue" d="M499.056,-168.457C544.886,-161.079 609.481,-148.923 664.5,-132 710.803,-117.758 762.202,-94.4511 792.363,-79.9573"/>
<polygon fill="midnightblue" stroke="midnightblue" points="793.906,-83.0985 801.375,-75.5839 790.85,-76.8008 793.906,-83.0985"/>
</g>
<!-- Node6 -->
<g id="node6" class="node"><title>Node6</title>
<polygon fill="none" stroke="#bfbfbf" points="284,-112.5 284,-131.5 341,-131.5 341,-112.5 284,-112.5"/>
<text text-anchor="middle" x="312.5" y="-119.5" font-family="Helvetica,sans-Serif" font-size="10.00">memory</text>
</g>
<!-- Node4&#45;&gt;Node6 -->
<g id="edge5" class="edge"><title>Node4&#45;&gt;Node6</title>
<path fill="none" stroke="midnightblue" d="M419.376,-168.444C398.476,-159.557 365.565,-145.563 341.784,-135.451"/>
<polygon fill="midnightblue" stroke="midnightblue" points="343.102,-132.208 332.529,-131.516 340.362,-138.65 343.102,-132.208"/>
</g>
<!-- Node4&#45;&gt;Node7 -->
<g id="edge6" class="edge"><title>Node4&#45;&gt;Node7</title>
<path fill="none" stroke="midnightblue" d="M433.045,-168.173C424.727,-155.675 412.058,-132.102 418.5,-112 427.834,-82.873 431.674,-70.6928 458.5,-56 533.078,-15.153 1147.39,-11.3421 1296.83,-11.0215"/>
<polygon fill="midnightblue" stroke="midnightblue" points="1297.16,-14.521 1307.16,-11.0034 1297.15,-7.521 1297.16,-14.521"/>
</g>
<!-- Node8 -->
<g id="node8" class="node"><title>Node8</title>
<polygon fill="none" stroke="#bfbfbf" points="467.5,-56.5 467.5,-75.5 529.5,-75.5 529.5,-56.5 467.5,-56.5"/>
<text text-anchor="middle" x="498.5" y="-63.5" font-family="Helvetica,sans-Serif" font-size="10.00">algorithm</text>
</g>
<!-- Node4&#45;&gt;Node8 -->
<g id="edge7" class="edge"><title>Node4&#45;&gt;Node8</title>
<path fill="none" stroke="midnightblue" d="M434.324,-168.438C427.201,-155.444 416.347,-130.319 426.5,-112 434.589,-97.405 449.603,-86.9185 463.836,-79.7608"/>
<polygon fill="midnightblue" stroke="midnightblue" points="465.386,-82.9002 472.996,-75.5282 462.45,-76.5459 465.386,-82.9002"/>
</g>
<!-- Node9 -->
<g id="node9" class="node"><title>Node9</title>
<g id="a_node9"><a xlink:href="Sprite_8hxx.html" target="_top" xlink:title="../Sprite.hxx">
<polygon fill="none" stroke="black" points="435.5,-112.5 435.5,-131.5 509.5,-131.5 509.5,-112.5 435.5,-112.5"/>
<text text-anchor="middle" x="472.5" y="-119.5" font-family="Helvetica,sans-Serif" font-size="10.00">../Sprite.hxx</text>
</a>
</g>
</g>
<!-- Node4&#45;&gt;Node9 -->
<g id="edge9" class="edge"><title>Node4&#45;&gt;Node9</title>
<path fill="none" stroke="midnightblue" d="M444.949,-168.083C449.514,-160.613 456.168,-149.724 461.793,-140.52"/>
<polygon fill="midnightblue" stroke="midnightblue" points="464.924,-142.109 467.152,-131.751 458.951,-138.459 464.924,-142.109"/>
</g>
<!-- Node10 -->
<g id="node10" class="node"><title>Node10</title>
<g id="a_node10"><a xlink:href="point_8hxx.html" target="_top" xlink:title="basics/point.hxx">
<polygon fill="none" stroke="black" points="617,-56.5 617,-75.5 710,-75.5 710,-56.5 617,-56.5"/>
<text text-anchor="middle" x="663.5" y="-63.5" font-family="Helvetica,sans-Serif" font-size="10.00">basics/point.hxx</text>
</a>
</g>
</g>
<!-- Node4&#45;&gt;Node10 -->
<g id="edge16" class="edge"><title>Node4&#45;&gt;Node10</title>
<path fill="none" stroke="midnightblue" d="M514.1,-168.483C564.298,-161.305 624.633,-149.391 643.5,-132 656.368,-120.139 661.039,-100.224 662.692,-85.5563"/>
<polygon fill="midnightblue" stroke="midnightblue" points="666.182,-85.8209 663.454,-75.5835 659.202,-85.288 666.182,-85.8209"/>
</g>
<!-- Node11 -->
<g id="node11" class="node"><title>Node11</title>
<g id="a_node11"><a xlink:href="enums_8hxx.html" target="_top" xlink:title="common/enums.hxx">
<polygon fill="none" stroke="black" points="111,-56.5 111,-75.5 226,-75.5 226,-56.5 111,-56.5"/>
<text text-anchor="middle" x="168.5" y="-63.5" font-family="Helvetica,sans-Serif" font-size="10.00">common/enums.hxx</text>
</a>
</g>
</g>
<!-- Node4&#45;&gt;Node11 -->
<g id="edge15" class="edge"><title>Node4&#45;&gt;Node11</title>
<path fill="none" stroke="midnightblue" d="M385.554,-168.454C349.6,-161.527 301.894,-149.923 262.5,-132 233.788,-118.937 204.484,-97.0297 186.397,-82.3016"/>
<polygon fill="midnightblue" stroke="midnightblue" points="188.4,-79.4152 178.471,-75.7183 183.927,-84.8001 188.4,-79.4152"/>
</g>
<!-- Node13 -->
<g id="node13" class="node"><title>Node13</title>
<g id="a_node13"><a xlink:href="TileManager_8hxx.html" target="_top" xlink:title="../TileManager.hxx">
<polygon fill="none" stroke="black" points="969.5,-112.5 969.5,-131.5 1071.5,-131.5 1071.5,-112.5 969.5,-112.5"/>
<text text-anchor="middle" x="1020.5" y="-119.5" font-family="Helvetica,sans-Serif" font-size="10.00">../TileManager.hxx</text>
</a>
</g>
</g>
<!-- Node4&#45;&gt;Node13 -->
<g id="edge17" class="edge"><title>Node4&#45;&gt;Node13</title>
<path fill="none" stroke="midnightblue" d="M514.563,-170.023C630.758,-159.224 851.936,-138.667 959.167,-128.7"/>
<polygon fill="midnightblue" stroke="midnightblue" points="959.548,-132.18 969.182,-127.77 958.901,-125.21 959.548,-132.18"/>
</g>
<!-- Node9&#45;&gt;Node3 -->
<g id="edge11" class="edge"><title>Node9&#45;&gt;Node3</title>
<path fill="none" stroke="midnightblue" d="M440.017,-112.444C401.982,-102.425 339.308,-85.9152 300.887,-75.7947"/>
<polygon fill="midnightblue" stroke="midnightblue" points="301.765,-72.4065 291.203,-73.2437 299.982,-79.1756 301.765,-72.4065"/>
</g>
<!-- Node9&#45;&gt;Node5 -->
<g id="edge10" class="edge"><title>Node9&#45;&gt;Node5</title>
<path fill="none" stroke="midnightblue" d="M509.631,-113.589C512.629,-113.035 515.613,-112.499 518.5,-112 615.321,-95.2752 730.351,-79.0281 785.629,-71.4447"/>
<polygon fill="midnightblue" stroke="midnightblue" points="786.431,-74.8678 795.865,-70.046 785.483,-67.9322 786.431,-74.8678"/>
</g>
<!-- Node9&#45;&gt;Node10 -->
<g id="edge12" class="edge"><title>Node9&#45;&gt;Node10</title>
<path fill="none" stroke="midnightblue" d="M502.765,-112.444C535.455,-103.201 587.682,-88.4356 623.683,-78.2572"/>
<polygon fill="midnightblue" stroke="midnightblue" points="624.706,-81.6051 633.377,-75.5164 622.802,-74.8691 624.706,-81.6051"/>
</g>
<!-- Node9&#45;&gt;Node11 -->
<g id="edge13" class="edge"><title>Node9&#45;&gt;Node11</title>
<path fill="none" stroke="midnightblue" d="M435.224,-114.379C383.109,-105.121 287.977,-88.2228 226.541,-77.3099"/>
<polygon fill="midnightblue" stroke="midnightblue" points="227.065,-73.8482 216.607,-75.5453 225.84,-80.7404 227.065,-73.8482"/>
</g>
<!-- Node12 -->
<g id="node12" class="node"><title>Node12</title>
<polygon fill="none" stroke="#bfbfbf" points="141,-0.5 141,-19.5 196,-19.5 196,-0.5 141,-0.5"/>
<text text-anchor="middle" x="168.5" y="-7.5" font-family="Helvetica,sans-Serif" font-size="10.00">stddef.h</text>
</g>
<!-- Node11&#45;&gt;Node12 -->
<g id="edge14" class="edge"><title>Node11&#45;&gt;Node12</title>
<path fill="none" stroke="midnightblue" d="M168.5,-56.083C168.5,-49.0059 168.5,-38.8611 168.5,-29.9865"/>
<polygon fill="midnightblue" stroke="midnightblue" points="172,-29.751 168.5,-19.7511 165,-29.7511 172,-29.751"/>
</g>
<!-- Node13&#45;&gt;Node5 -->
<g id="edge18" class="edge"><title>Node13&#45;&gt;Node5</title>
<path fill="none" stroke="midnightblue" d="M987.552,-112.439C955.283,-104.019 904.464,-90.6652 851.186,-76.1564"/>
<polygon fill="midnightblue" stroke="midnightblue" points="851.782,-72.6911 841.214,-73.4348 849.939,-79.4441 851.782,-72.6911"/>
</g>
<!-- Node13&#45;&gt;Node7 -->
<g id="edge20" class="edge"><title>Node13&#45;&gt;Node7</title>
<path fill="none" stroke="midnightblue" d="M1008.41,-112.386C991.511,-99.3228 964.575,-74.1098 980.5,-56 1001.3,-32.3488 1215.04,-17.602 1297.39,-12.7605"/>
<polygon fill="midnightblue" stroke="midnightblue" points="1297.65,-16.2512 1307.44,-12.181 1297.25,-9.26286 1297.65,-16.2512"/>
</g>
<!-- Node14 -->
<g id="node14" class="node"><title>Node14</title>
<polygon fill="none" stroke="#bfbfbf" points="990,-56.5 990,-75.5 1083,-75.5 1083,-56.5 990,-56.5"/>
<text text-anchor="middle" x="1036.5" y="-63.5" font-family="Helvetica,sans-Serif" font-size="10.00">unordered_map</text>
</g>
<!-- Node13&#45;&gt;Node14 -->
<g id="edge19" class="edge"><title>Node13&#45;&gt;Node14</title>
<path fill="none" stroke="midnightblue" d="M1023.14,-112.083C1025.29,-104.849 1028.38,-94.4087 1031.05,-85.3968"/>
<polygon fill="midnightblue" stroke="midnightblue" points="1034.42,-86.3334 1033.91,-75.7511 1027.71,-84.3447 1034.42,-86.3334"/>
</g>
<!-- Node15 -->
<g id="node15" class="node"><title>Node15</title>
<g id="a_node15"><a xlink:href="tileData_8hxx.html" target="_top" xlink:title="tileData.hxx">
<polygon fill="none" stroke="black" points="859.5,-56.5 859.5,-75.5 933.5,-75.5 933.5,-56.5 859.5,-56.5"/>
<text text-anchor="middle" x="896.5" y="-63.5" font-family="Helvetica,sans-Serif" font-size="10.00">tileData.hxx</text>
</a>
</g>
</g>
<!-- Node13&#45;&gt;Node15 -->
<g id="edge21" class="edge"><title>Node13&#45;&gt;Node15</title>
<path fill="none" stroke="midnightblue" d="M1000.85,-112.444C980.535,-103.596 948.597,-89.6875 925.402,-79.5865"/>
<polygon fill="midnightblue" stroke="midnightblue" points="926.622,-76.3002 916.056,-75.5164 923.827,-82.7181 926.622,-76.3002"/>
</g>
<!-- Node13&#45;&gt;Node16 -->
<g id="edge23" class="edge"><title>Node13&#45;&gt;Node16</title>
<path fill="none" stroke="midnightblue" d="M1053.46,-112.444C1090.76,-102.759 1151.43,-87.0098 1190.64,-76.8287"/>
<polygon fill="midnightblue" stroke="midnightblue" points="1191.57,-80.2048 1200.37,-74.3042 1189.81,-73.4294 1191.57,-80.2048"/>
</g>
<!-- Node17 -->
<g id="node17" class="node"><title>Node17</title>
<g id="a_node17"><a xlink:href="Singleton_8hxx.html" target="_top" xlink:title="Singleton.hxx">
<polygon fill="none" stroke="black" points="1101,-56.5 1101,-75.5 1182,-75.5 1182,-56.5 1101,-56.5"/>
<text text-anchor="middle" x="1141.5" y="-63.5" font-family="Helvetica,sans-Serif" font-size="10.00">Singleton.hxx</text>
</a>
</g>
</g>
<!-- Node13&#45;&gt;Node17 -->
<g id="edge24" class="edge"><title>Node13&#45;&gt;Node17</title>
<path fill="none" stroke="midnightblue" d="M1039.67,-112.444C1059.41,-103.636 1090.39,-89.8116 1112.99,-79.722"/>
<polygon fill="midnightblue" stroke="midnightblue" points="1114.71,-82.788 1122.42,-75.5164 1111.86,-76.3957 1114.71,-82.788"/>
</g>
<!-- Node15&#45;&gt;Node7 -->
<g id="edge22" class="edge"><title>Node15&#45;&gt;Node7</title>
<path fill="none" stroke="midnightblue" d="M933.507,-58.2123C938.21,-57.4253 942.963,-56.6669 947.5,-56 1076.74,-37.0008 1231.5,-20.7629 1297.33,-14.1592"/>
<polygon fill="midnightblue" stroke="midnightblue" points="1297.88,-17.6224 1307.48,-13.1471 1297.18,-10.657 1297.88,-17.6224"/>
</g>
<!-- Node18&#45;&gt;Node3 -->
<g id="edge28" class="edge"><title>Node18&#45;&gt;Node3</title>
<path fill="none" stroke="midnightblue" d="M330.882,-224.399C312.293,-208.522 274.673,-172.507 262.5,-132 257.919,-116.757 259.88,-98.6472 262.577,-85.4192"/>
<polygon fill="midnightblue" stroke="midnightblue" points="265.998,-86.1628 264.889,-75.6262 259.185,-84.5544 265.998,-86.1628"/>
</g>
<!-- Node18&#45;&gt;Node4 -->
<g id="edge26" class="edge"><title>Node18&#45;&gt;Node4</title>
<path fill="none" stroke="midnightblue" d="M357.245,-224.324C372.819,-215.743 396.877,-202.486 414.959,-192.522"/>
<polygon fill="midnightblue" stroke="midnightblue" points="416.724,-195.546 423.794,-187.655 413.346,-189.415 416.724,-195.546"/>
</g>
<!-- Node19 -->
<g id="node19" class="node"><title>Node19</title>
<polygon fill="none" stroke="#bfbfbf" points="308.5,-168.5 308.5,-187.5 346.5,-187.5 346.5,-168.5 308.5,-168.5"/>
<text text-anchor="middle" x="327.5" y="-175.5" font-family="Helvetica,sans-Serif" font-size="10.00">map</text>
</g>
<!-- Node18&#45;&gt;Node19 -->
<g id="edge27" class="edge"><title>Node18&#45;&gt;Node19</title>
<path fill="none" stroke="midnightblue" d="M339.188,-224.083C337.333,-216.927 334.665,-206.635 332.346,-197.691"/>
<polygon fill="midnightblue" stroke="midnightblue" points="335.666,-196.553 329.769,-187.751 328.891,-198.309 335.666,-196.553"/>
</g>
<!-- Node20&#45;&gt;Node5 -->
<g id="edge30" class="edge"><title>Node20&#45;&gt;Node5</title>
<path fill="none" stroke="midnightblue" d="M821.005,-112.083C820.611,-105.006 820.048,-94.8611 819.555,-85.9865"/>
<polygon fill="midnightblue" stroke="midnightblue" points="823.036,-85.5415 818.986,-75.7511 816.046,-85.9299 823.036,-85.5415"/>
</g>
<!-- Node20&#45;&gt;Node10 -->
<g id="edge31" class="edge"><title>Node20&#45;&gt;Node10</title>
<path fill="none" stroke="midnightblue" d="M796.464,-112.444C769.884,-103.359 727.691,-88.9388 697.977,-78.7831"/>
<polygon fill="midnightblue" stroke="midnightblue" points="699.013,-75.4386 688.418,-75.5164 696.749,-82.0625 699.013,-75.4386"/>
</g>
<!-- Node21&#45;&gt;Node3 -->
<g id="edge35" class="edge"><title>Node21&#45;&gt;Node3</title>
<path fill="none" stroke="midnightblue" d="M531.746,-112.444C467.25,-101.352 356.501,-82.3058 301.107,-72.7796"/>
<polygon fill="midnightblue" stroke="midnightblue" points="301.563,-69.3066 291.114,-71.061 300.376,-76.2053 301.563,-69.3066"/>
</g>
<!-- Node21&#45;&gt;Node5 -->
<g id="edge34" class="edge"><title>Node21&#45;&gt;Node5</title>
<path fill="none" stroke="midnightblue" d="M619.053,-112.444C665.092,-101.954 742.354,-84.3496 785.97,-74.4118"/>
<polygon fill="midnightblue" stroke="midnightblue" points="786.805,-77.8113 795.778,-72.1772 785.25,-70.9863 786.805,-77.8113"/>
</g>
<!-- Node21&#45;&gt;Node8 -->
<g id="edge36" class="edge"><title>Node21&#45;&gt;Node8</title>
<path fill="none" stroke="midnightblue" d="M568.165,-112.324C555.338,-103.979 535.715,-91.2122 520.56,-81.3524"/>
<polygon fill="midnightblue" stroke="midnightblue" points="522.093,-78.1742 511.802,-75.6545 518.276,-84.0417 522.093,-78.1742"/>
</g>
<!-- Node21&#45;&gt;Node10 -->
<g id="edge33" class="edge"><title>Node21&#45;&gt;Node10</title>
<path fill="none" stroke="midnightblue" d="M594.675,-112.324C607.347,-103.979 626.733,-91.2122 641.706,-81.3524"/>
<polygon fill="midnightblue" stroke="midnightblue" points="643.931,-84.0776 650.358,-75.6545 640.081,-78.2313 643.931,-84.0776"/>
</g>
<!-- Node22&#45;&gt;Node7 -->
<g id="edge38" class="edge"><title>Node22&#45;&gt;Node7</title>
<path fill="none" stroke="midnightblue" d="M1824.09,-224.146C1822.22,-194.63 1811.86,-99.0361 1755.5,-56 1724.34,-32.2052 1455.47,-17.0777 1361.64,-12.4838"/>
<polygon fill="midnightblue" stroke="midnightblue" points="1361.75,-8.98525 1351.6,-11.9997 1361.42,-15.9771 1361.75,-8.98525"/>
</g>
<!-- Node23&#45;&gt;Node7 -->
<g id="edge40" class="edge"><title>Node23&#45;&gt;Node7</title>
<path fill="none" stroke="midnightblue" d="M1162.76,-224.418C1204.14,-211.616 1274.8,-183.337 1310.5,-132 1331.98,-101.115 1332.84,-55.1337 1331.33,-29.669"/>
<polygon fill="midnightblue" stroke="midnightblue" points="1334.81,-29.235 1330.53,-19.5407 1327.83,-29.7847 1334.81,-29.235"/>
</g>
<!-- Node23&#45;&gt;Node17 -->
<g id="edge41" class="edge"><title>Node23&#45;&gt;Node17</title>
<path fill="none" stroke="midnightblue" d="M1131.09,-224.075C1132.82,-197.945 1137.91,-121.211 1140.27,-85.577"/>
<polygon fill="midnightblue" stroke="midnightblue" points="1143.76,-85.7777 1140.93,-75.5681 1136.78,-85.3148 1143.76,-85.7777"/>
</g>
<!-- Node24&#45;&gt;Node5 -->
<g id="edge48" class="edge"><title>Node24&#45;&gt;Node5</title>
<path fill="none" stroke="midnightblue" d="M1334.94,-177.799C1257.12,-177.978 1092.2,-172.922 960.5,-132 942.649,-126.453 940.33,-120.135 923.5,-112 898.99,-100.154 870.577,-88.0738 849.493,-79.4166"/>
<polygon fill="midnightblue" stroke="midnightblue" points="850.653,-76.11 840.072,-75.5756 848.011,-82.5919 850.653,-76.11"/>
</g>
<!-- Node25 -->
<g id="node25" class="node"><title>Node25</title>
<polygon fill="none" stroke="#bfbfbf" points="1242,-112.5 1242,-131.5 1301,-131.5 1301,-112.5 1242,-112.5"/>
<text text-anchor="middle" x="1271.5" y="-119.5" font-family="Helvetica,sans-Serif" font-size="10.00">iostream</text>
</g>
<!-- Node24&#45;&gt;Node25 -->
<g id="edge43" class="edge"><title>Node24&#45;&gt;Node25</title>
<path fill="none" stroke="midnightblue" d="M1362.15,-168.324C1344.83,-159.664 1317.98,-146.242 1298,-136.249"/>
<polygon fill="midnightblue" stroke="midnightblue" points="1299.32,-132.996 1288.81,-131.655 1296.19,-139.257 1299.32,-132.996"/>
</g>
<!-- Node26 -->
<g id="node26" class="node"><title>Node26</title>
<polygon fill="none" stroke="#bfbfbf" points="1491.5,-112.5 1491.5,-131.5 1541.5,-131.5 1541.5,-112.5 1491.5,-112.5"/>
<text text-anchor="middle" x="1516.5" y="-119.5" font-family="Helvetica,sans-Serif" font-size="10.00">chrono</text>
</g>
<!-- Node24&#45;&gt;Node26 -->
<g id="edge44" class="edge"><title>Node24&#45;&gt;Node26</title>
<path fill="none" stroke="midnightblue" d="M1401.21,-168.444C1423.85,-159.517 1459.57,-145.439 1485.25,-135.317"/>
<polygon fill="midnightblue" stroke="midnightblue" points="1486.87,-138.44 1494.89,-131.516 1484.31,-131.927 1486.87,-138.44"/>
</g>
<!-- Node27 -->
<g id="node27" class="node"><title>Node27</title>
<polygon fill="none" stroke="#bfbfbf" points="1357.5,-112.5 1357.5,-131.5 1401.5,-131.5 1401.5,-112.5 1357.5,-112.5"/>
<text text-anchor="middle" x="1379.5" y="-119.5" font-family="Helvetica,sans-Serif" font-size="10.00">ctime</text>
</g>
<!-- Node24&#45;&gt;Node27 -->
<g id="edge45" class="edge"><title>Node24&#45;&gt;Node27</title>
<path fill="none" stroke="midnightblue" d="M1379.5,-168.083C1379.5,-161.006 1379.5,-150.861 1379.5,-141.986"/>
<polygon fill="midnightblue" stroke="midnightblue" points="1383,-141.751 1379.5,-131.751 1376,-141.751 1383,-141.751"/>
</g>
<!-- Node28 -->
<g id="node28" class="node"><title>Node28</title>
<polygon fill="none" stroke="#bfbfbf" points="1419.5,-112.5 1419.5,-131.5 1473.5,-131.5 1473.5,-112.5 1419.5,-112.5"/>
<text text-anchor="middle" x="1446.5" y="-119.5" font-family="Helvetica,sans-Serif" font-size="10.00">fstream</text>
</g>
<!-- Node24&#45;&gt;Node28 -->
<g id="edge46" class="edge"><title>Node24&#45;&gt;Node28</title>
<path fill="none" stroke="midnightblue" d="M1390.26,-168.324C1400.27,-160.263 1415.39,-148.077 1427.43,-138.369"/>
<polygon fill="midnightblue" stroke="midnightblue" points="1429.95,-140.834 1435.54,-131.834 1425.56,-135.384 1429.95,-140.834"/>
</g>
<!-- Node24&#45;&gt;Node29 -->
<g id="edge47" class="edge"><title>Node24&#45;&gt;Node29</title>
<path fill="none" stroke="midnightblue" d="M1412.46,-168.444C1449.76,-158.759 1510.43,-143.01 1549.64,-132.829"/>
<polygon fill="midnightblue" stroke="midnightblue" points="1550.57,-136.205 1559.37,-130.304 1548.81,-129.429 1550.57,-136.205"/>
</g>
<!-- Node30&#45;&gt;Node7 -->
<g id="edge51" class="edge"><title>Node30&#45;&gt;Node7</title>
<path fill="none" stroke="midnightblue" d="M1646.98,-280.446C1645.89,-261.948 1643.5,-216.837 1643.5,-179 1643.5,-179 1643.5,-179 1643.5,-121 1643.5,-61.712 1441.59,-26.776 1361.59,-15.2605"/>
<polygon fill="midnightblue" stroke="midnightblue" points="1361.97,-11.7797 1351.58,-13.851 1360.99,-18.7113 1361.97,-11.7797"/>
</g>
<!-- Node31 -->
<g id="node31" class="node"><title>Node31</title>
<polygon fill="none" stroke="#bfbfbf" points="1672,-224.5 1672,-243.5 1713,-243.5 1713,-224.5 1672,-224.5"/>
<text text-anchor="middle" x="1692.5" y="-231.5" font-family="Helvetica,sans-Serif" font-size="10.00">zlib.h</text>
</g>
<!-- Node30&#45;&gt;Node31 -->
<g id="edge50" class="edge"><title>Node30&#45;&gt;Node31</title>
<path fill="none" stroke="midnightblue" d="M1654.93,-280.083C1661.35,-272.377 1670.81,-261.033 1678.62,-251.653"/>
<polygon fill="midnightblue" stroke="midnightblue" points="1681.49,-253.674 1685.21,-243.751 1676.12,-249.193 1681.49,-253.674"/>
</g>
<!-- Node33&#45;&gt;Node5 -->
<g id="edge56" class="edge"><title>Node33&#45;&gt;Node5</title>
<path fill="none" stroke="midnightblue" d="M1019.94,-168.462C995.454,-160.238 958.333,-146.88 927.5,-132 895.726,-116.666 861.056,-95.0844 839.544,-81.0697"/>
<polygon fill="midnightblue" stroke="midnightblue" points="841.455,-78.1375 831.177,-75.567 837.609,-83.9861 841.455,-78.1375"/>
</g>
<!-- Node33&#45;&gt;Node13 -->
<g id="edge57" class="edge"><title>Node33&#45;&gt;Node13</title>
<path fill="none" stroke="midnightblue" d="M1042.21,-168.083C1038.65,-160.691 1033.48,-149.953 1029.08,-140.811"/>
<polygon fill="midnightblue" stroke="midnightblue" points="1032.21,-139.243 1024.71,-131.751 1025.9,-142.279 1032.21,-139.243"/>
</g>
<!-- Node33&#45;&gt;Node14 -->
<g id="edge55" class="edge"><title>Node33&#45;&gt;Node14</title>
<path fill="none" stroke="midnightblue" d="M1056.43,-168.421C1069.28,-156.217 1089.06,-132.992 1080.5,-112 1075.7,-100.225 1066.17,-89.8564 1057.21,-82.0486"/>
<polygon fill="midnightblue" stroke="midnightblue" points="1059.25,-79.2048 1049.28,-75.6314 1054.85,-84.6448 1059.25,-79.2048"/>
</g>
<!-- Node33&#45;&gt;Node25 -->
<g id="edge54" class="edge"><title>Node33&#45;&gt;Node25</title>
<path fill="none" stroke="midnightblue" d="M1082.15,-168.444C1122.91,-158.663 1189.43,-142.697 1231.8,-132.527"/>
<polygon fill="midnightblue" stroke="midnightblue" points="1232.86,-135.874 1241.76,-130.137 1231.22,-129.067 1232.86,-135.874"/>
</g>
<!-- Node34&#45;&gt;Node11 -->
<g id="edge59" class="edge"><title>Node34&#45;&gt;Node11</title>
<path fill="none" stroke="midnightblue" d="M60.7501,-224.408C70.9856,-204.05 98.3245,-151.616 127.5,-112 135.004,-101.81 144.458,-91.3085 152.396,-83.0154"/>
<polygon fill="midnightblue" stroke="midnightblue" points="154.939,-85.4201 159.429,-75.8233 149.935,-80.526 154.939,-85.4201"/>
</g>
<!-- Node35&#45;&gt;Node4 -->
<g id="edge63" class="edge"><title>Node35&#45;&gt;Node4</title>
<path fill="none" stroke="midnightblue" d="M778.008,-280.46C712.622,-260.862 551.76,-212.647 477.813,-190.483"/>
<polygon fill="midnightblue" stroke="midnightblue" points="478.558,-187.053 467.974,-187.535 476.548,-193.758 478.558,-187.053"/>
</g>
<!-- Node35&#45;&gt;Node10 -->
<g id="edge62" class="edge"><title>Node35&#45;&gt;Node10</title>
<path fill="none" stroke="midnightblue" d="M800.894,-280.297C779.63,-247.286 703.697,-129.404 674.787,-84.522"/>
<polygon fill="midnightblue" stroke="midnightblue" points="677.58,-82.3953 669.222,-75.8837 671.695,-86.186 677.58,-82.3953"/>
</g>
<!-- Node35&#45;&gt;Node16 -->
<g id="edge61" class="edge"><title>Node35&#45;&gt;Node16</title>
<path fill="none" stroke="midnightblue" d="M859.792,-280.448C924.967,-268.117 1036.69,-240.785 1118.5,-188 1162.05,-159.897 1199.43,-110.333 1217.29,-84.215"/>
<polygon fill="midnightblue" stroke="midnightblue" points="1220.31,-85.9942 1222.96,-75.7364 1214.5,-82.1021 1220.31,-85.9942"/>
</g>
<!-- Node35&#45;&gt;Node18 -->
<g id="edge64" class="edge"><title>Node35&#45;&gt;Node18</title>
<path fill="none" stroke="midnightblue" d="M733.076,-280.473C648.39,-270.639 509.611,-254.523 422.031,-244.352"/>
<polygon fill="midnightblue" stroke="midnightblue" points="422.212,-240.85 411.875,-243.173 421.404,-247.803 422.212,-240.85"/>
</g>
<!-- Node35&#45;&gt;Node23 -->
<g id="edge65" class="edge"><title>Node35&#45;&gt;Node23</title>
<path fill="none" stroke="midnightblue" d="M857.839,-280.444C915.308,-270.865 1008.37,-255.356 1069.5,-245.167"/>
<polygon fill="midnightblue" stroke="midnightblue" points="1070.11,-248.613 1079.4,-243.516 1068.96,-241.708 1070.11,-248.613"/>
</g>
</g>
</svg>
        <g id="navigator" transform="translate(0 0)" fill="#404254">
                <rect fill="#f2f5e9" fill-opacity="0.5" stroke="#606060" stroke-width=".5" x="0" y="0" width="60" height="60"/>
                <use id="zoomplus" xlink:href="#zoomPlus" x="17" y="9" onmousedown="handleZoom(evt,'in')"/>
                <use id="zoomminus" xlink:href="#zoomMin" x="42" y="9" onmousedown="handleZoom(evt,'out')"/>
                <use id="reset" xlink:href="#resetDef" x="30" y="36" onmousedown="handleReset()"/>
                <g id="arrowUp" xlink:href="#dirArrow" transform="translate(30 24)" onmousedown="handlePan(0,-1)">
                  <use xlink:href="#rim" fill="#404040">
                        <set attributeName="fill" to="#808080" begin="arrowUp.mouseover" end="arrowUp.mouseout"/>
                  </use>
                  <path fill="none" stroke="white" stroke-width="1.5" d="M0,-3.0v7 M-2.5,-0.5L0,-3.0L2.5,-0.5"/>
                </g>
                <g id="arrowRight" xlink:href="#dirArrow" transform="rotate(90) translate(36 -43)" onmousedown="handlePan(1,0)">
                  <use xlink:href="#rim" fill="#404040">
                        <set attributeName="fill" to="#808080" begin="arrowRight.mouseover" end="arrowRight.mouseout"/>
                  </use>
                  <path fill="none" stroke="white" stroke-width="1.5" d="M0,-3.0v7 M-2.5,-0.5L0,-3.0L2.5,-0.5"/>
                </g>
                <g id="arrowDown" xlink:href="#dirArrow" transform="rotate(180) translate(-30 -48)" onmousedown="handlePan(0,1)">
                  <use xlink:href="#rim" fill="#404040">
                        <set attributeName="fill" to="#808080" begin="arrowDown.mouseover" end="arrowDown.mouseout"/>
                  </use>
                  <path fill="none" stroke="white" stroke-width="1.5" d="M0,-3.0v7 M-2.5,-0.5L0,-3.0L2.5,-0.5"/>
                </g>
                <g id="arrowLeft" xlink:href="#dirArrow" transform="rotate(270) translate(-36 17)" onmousedown="handlePan(-1,0)">
                  <use xlink:href="#rim" fill="#404040">
                        <set attributeName="fill" to="#808080" begin="arrowLeft.mouseover" end="arrowLeft.mouseout"/>
                  </use>
                  <path fill="none" stroke="white" stroke-width="1.5" d="M0,-3.0v7 M-2.5,-0.5L0,-3.0L2.5,-0.5"/>
                </g>
        </g>
        <svg viewBox="0 0 15 15" width="100%" height="30px" preserveAspectRatio="xMaxYMin meet">
         <g id="arrow_out" transform="scale(0.3 0.3)">
          <a xlink:href="Map_8cxx__incl_org.svg" target="_base">
           <rect id="button" ry="5" rx="5" y="6" x="6" height="38" width="38"
                fill="#f2f5e9" fill-opacity="0.5" stroke="#606060" stroke-width="1.0"/>
           <path id="arrow"
             d="M 11.500037,31.436501 C 11.940474,20.09759 22.043105,11.32322 32.158766,21.979434 L 37.068811,17.246167 C 37.068811,17.246167 37.088388,32 37.088388,32 L 22.160133,31.978069 C 22.160133,31.978069 26.997745,27.140456 26.997745,27.140456 C 18.528582,18.264221 13.291696,25.230495 11.500037,31.436501 z"
             style="fill:#404040;"/>
          </a>
         </g>
        </svg>
</svg>
