<?xml version="1.0" encoding="UTF-8" standalone="no"?>
<!DOCTYPE svg PUBLIC "-//W3C//DTD SVG 1.1//EN"
 "http://www.w3.org/Graphics/SVG/1.1/DTD/svg11.dtd">
<!-- Generated by graphviz version 2.38.0 (20140413.2041)
 -->
<!-- Title: src/engine/Map.hxx Pages: 1 -->
<svg width="964pt" height="308pt"
 viewBox="0.00 0.00 964.29 308.00" xmlns="http://www.w3.org/2000/svg" xmlns:xlink="http://www.w3.org/1999/xlink">
<g id="graph0" class="graph" transform="scale(1 1) rotate(0) translate(4 304)">
<title>src/engine/Map.hxx</title>
<!-- Node1 -->
<g id="node1" class="node"><title>Node1</title>
<polygon fill="#bfbfbf" stroke="black" points="811.5,-280.5 811.5,-299.5 920.5,-299.5 920.5,-280.5 811.5,-280.5"/>
<text text-anchor="middle" x="866" y="-287.5" font-family="Helvetica,sans-Serif" font-size="10.00">src/engine/Map.hxx</text>
</g>
<!-- Node2 -->
<g id="node2" class="node"><title>Node2</title>
<polygon fill="none" stroke="#bfbfbf" points="827.5,-56.5 827.5,-75.5 874.5,-75.5 874.5,-56.5 827.5,-56.5"/>
<text text-anchor="middle" x="851" y="-63.5" font-family="Helvetica,sans-Serif" font-size="10.00">vector</text>
</g>
<!-- Node1&#45;&gt;Node2 -->
<g id="edge1" class="edge"><title>Node1&#45;&gt;Node2</title>
<path fill="none" stroke="midnightblue" d="M895.881,-280.387C913.54,-273.587 934.451,-262.15 945,-244 961.974,-214.797 957.364,-199.433 945,-168 930.383,-130.839 894.943,-99.2475 871.997,-81.7294"/>
<polygon fill="midnightblue" stroke="midnightblue" points="874.004,-78.8601 863.884,-75.7222 869.838,-84.4859 874.004,-78.8601"/>
</g>
<!-- Node3 -->
<g id="node3" class="node"><title>Node3</title>
<g id="a_node3"><a xlink:href="MapNode_8hxx.html" target="_top" xlink:title="GameObjects/MapNode.hxx">
<polygon fill="none" stroke="black" points="563,-168.5 563,-187.5 713,-187.5 713,-168.5 563,-168.5"/>
<text text-anchor="middle" x="638" y="-175.5" font-family="Helvetica,sans-Serif" font-size="10.00">GameObjects/MapNode.hxx</text>
</a>
</g>
</g>
<!-- Node1&#45;&gt;Node3 -->
<g id="edge2" class="edge"><title>Node1&#45;&gt;Node3</title>
<path fill="none" stroke="midnightblue" d="M848.109,-280.368C808.318,-261.171 712.29,-214.842 665.099,-192.074"/>
<polygon fill="midnightblue" stroke="midnightblue" points="666.335,-188.784 655.808,-187.591 663.293,-195.089 666.335,-188.784"/>
</g>
<!-- Node17 -->
<g id="node17" class="node"><title>Node17</title>
<g id="a_node17"><a xlink:href="TerrainGenerator_8hxx.html" target="_top" xlink:title="map/TerrainGenerator.hxx">
<polygon fill="none" stroke="black" points="796,-224.5 796,-243.5 936,-243.5 936,-224.5 796,-224.5"/>
<text text-anchor="middle" x="866" y="-231.5" font-family="Helvetica,sans-Serif" font-size="10.00">map/TerrainGenerator.hxx</text>
</a>
</g>
</g>
<!-- Node1&#45;&gt;Node17 -->
<g id="edge24" class="edge"><title>Node1&#45;&gt;Node17</title>
<path fill="none" stroke="midnightblue" d="M866,-280.083C866,-273.006 866,-262.861 866,-253.986"/>
<polygon fill="midnightblue" stroke="midnightblue" points="869.5,-253.751 866,-243.751 862.5,-253.751 869.5,-253.751"/>
</g>
<!-- Node3&#45;&gt;Node2 -->
<g id="edge7" class="edge"><title>Node3&#45;&gt;Node2</title>
<path fill="none" stroke="midnightblue" d="M713.018,-170.791C746.303,-164.929 784.334,-153.644 813,-132 828.614,-120.211 838.959,-99.9884 844.86,-85.2236"/>
<polygon fill="midnightblue" stroke="midnightblue" points="848.219,-86.2294 848.382,-75.6358 841.648,-83.8153 848.219,-86.2294"/>
</g>
<!-- Node4 -->
<g id="node4" class="node"><title>Node4</title>
<polygon fill="none" stroke="#bfbfbf" points="454.5,-56.5 454.5,-75.5 499.5,-75.5 499.5,-56.5 454.5,-56.5"/>
<text text-anchor="middle" x="477" y="-63.5" font-family="Helvetica,sans-Serif" font-size="10.00">SDL.h</text>
</g>
<!-- Node3&#45;&gt;Node4 -->
<g id="edge3" class="edge"><title>Node3&#45;&gt;Node4</title>
<path fill="none" stroke="midnightblue" d="M598.217,-168.443C573.72,-161.664 542.76,-150.23 520,-132 504.364,-119.476 492.431,-99.6955 485.148,-85.2421"/>
<polygon fill="midnightblue" stroke="midnightblue" points="488.133,-83.3693 480.68,-75.8392 481.81,-86.3736 488.133,-83.3693"/>
</g>
<!-- Node5 -->
<g id="node5" class="node"><title>Node5</title>
<polygon fill="none" stroke="#bfbfbf" points="666.5,-112.5 666.5,-131.5 723.5,-131.5 723.5,-112.5 666.5,-112.5"/>
<text text-anchor="middle" x="695" y="-119.5" font-family="Helvetica,sans-Serif" font-size="10.00">memory</text>
</g>
<!-- Node3&#45;&gt;Node5 -->
<g id="edge4" class="edge"><title>Node3&#45;&gt;Node5</title>
<path fill="none" stroke="midnightblue" d="M647.158,-168.324C655.501,-160.42 668.032,-148.548 678.177,-138.938"/>
<polygon fill="midnightblue" stroke="midnightblue" points="680.823,-141.252 685.675,-131.834 676.009,-136.171 680.823,-141.252"/>
</g>
<!-- Node6 -->
<g id="node6" class="node"><title>Node6</title>
<polygon fill="none" stroke="#bfbfbf" points="254,-0.5 254,-19.5 298,-19.5 298,-0.5 254,-0.5"/>
<text text-anchor="middle" x="276" y="-7.5" font-family="Helvetica,sans-Serif" font-size="10.00">string</text>
</g>
<!-- Node3&#45;&gt;Node6 -->
<g id="edge5" class="edge"><title>Node3&#45;&gt;Node6</title>
<path fill="none" stroke="midnightblue" d="M598.67,-168.433C569.933,-161.2 530.624,-149.24 499,-132 452.132,-106.45 452.608,-82.0212 406,-56 374.565,-38.4498 335.075,-25.9652 307.916,-18.6658"/>
<polygon fill="midnightblue" stroke="midnightblue" points="308.713,-15.2566 298.154,-16.1223 306.948,-22.0304 308.713,-15.2566"/>
</g>
<!-- Node7 -->
<g id="node7" class="node"><title>Node7</title>
<polygon fill="none" stroke="#bfbfbf" points="742,-112.5 742,-131.5 804,-131.5 804,-112.5 742,-112.5"/>
<text text-anchor="middle" x="773" y="-119.5" font-family="Helvetica,sans-Serif" font-size="10.00">algorithm</text>
</g>
<!-- Node3&#45;&gt;Node7 -->
<g id="edge6" class="edge"><title>Node3&#45;&gt;Node7</title>
<path fill="none" stroke="midnightblue" d="M659.391,-168.444C681.707,-159.517 716.903,-145.439 742.208,-135.317"/>
<polygon fill="midnightblue" stroke="midnightblue" points="743.724,-138.48 751.709,-131.516 741.124,-131.981 743.724,-138.48"/>
</g>
<!-- Node8 -->
<g id="node8" class="node"><title>Node8</title>
<g id="a_node8"><a xlink:href="Sprite_8hxx.html" target="_top" xlink:title="../Sprite.hxx">
<polygon fill="none" stroke="black" points="536,-112.5 536,-131.5 610,-131.5 610,-112.5 536,-112.5"/>
<text text-anchor="middle" x="573" y="-119.5" font-family="Helvetica,sans-Serif" font-size="10.00">../Sprite.hxx</text>
</a>
</g>
</g>
<!-- Node3&#45;&gt;Node8 -->
<g id="edge8" class="edge"><title>Node3&#45;&gt;Node8</title>
<path fill="none" stroke="midnightblue" d="M627.557,-168.324C617.854,-160.263 603.185,-148.077 591.5,-138.369"/>
<polygon fill="midnightblue" stroke="midnightblue" points="593.562,-135.532 583.633,-131.834 589.089,-140.916 593.562,-135.532"/>
</g>
<!-- Node9 -->
<g id="node9" class="node"><title>Node9</title>
<g id="a_node9"><a xlink:href="point_8hxx.html" target="_top" xlink:title="basics/point.hxx">
<polygon fill="none" stroke="black" points="517.5,-56.5 517.5,-75.5 610.5,-75.5 610.5,-56.5 517.5,-56.5"/>
<text text-anchor="middle" x="564" y="-63.5" font-family="Helvetica,sans-Serif" font-size="10.00">basics/point.hxx</text>
</a>
</g>
</g>
<!-- Node3&#45;&gt;Node9 -->
<g id="edge15" class="edge"><title>Node3&#45;&gt;Node9</title>
<path fill="none" stroke="midnightblue" d="M583.92,-168.468C562.477,-162.146 539.896,-151.143 527,-132 515.982,-115.644 531.06,-95.8175 545.148,-82.3949"/>
<polygon fill="midnightblue" stroke="midnightblue" points="547.567,-84.9273 552.701,-75.6594 542.908,-79.7029 547.567,-84.9273"/>
</g>
<!-- Node10 -->
<g id="node10" class="node"><title>Node10</title>
<g id="a_node10"><a xlink:href="enums_8hxx.html" target="_top" xlink:title="common/enums.hxx">
<polygon fill="none" stroke="black" points="628.5,-56.5 628.5,-75.5 743.5,-75.5 743.5,-56.5 628.5,-56.5"/>
<text text-anchor="middle" x="686" y="-63.5" font-family="Helvetica,sans-Serif" font-size="10.00">common/enums.hxx</text>
</a>
</g>
</g>
<!-- Node3&#45;&gt;Node10 -->
<g id="edge14" class="edge"><title>Node3&#45;&gt;Node10</title>
<path fill="none" stroke="midnightblue" d="M639.705,-168.305C642.387,-155.565 648.208,-131.25 657,-112 661.489,-102.172 667.881,-91.9903 673.522,-83.803"/>
<polygon fill="midnightblue" stroke="midnightblue" points="676.466,-85.7032 679.431,-75.5316 670.77,-81.6343 676.466,-85.7032"/>
</g>
<!-- Node12 -->
<g id="node12" class="node"><title>Node12</title>
<g id="a_node12"><a xlink:href="TileManager_8hxx.html" target="_top" xlink:title="../TileManager.hxx">
<polygon fill="none" stroke="black" points="225,-112.5 225,-131.5 327,-131.5 327,-112.5 225,-112.5"/>
<text text-anchor="middle" x="276" y="-119.5" font-family="Helvetica,sans-Serif" font-size="10.00">../TileManager.hxx</text>
</a>
</g>
</g>
<!-- Node3&#45;&gt;Node12 -->
<g id="edge16" class="edge"><title>Node3&#45;&gt;Node12</title>
<path fill="none" stroke="midnightblue" d="M580.64,-168.444C514.27,-158.543 405.414,-142.305 337.382,-132.156"/>
<polygon fill="midnightblue" stroke="midnightblue" points="337.646,-128.657 327.239,-130.643 336.613,-135.58 337.646,-128.657"/>
</g>
<!-- Node8&#45;&gt;Node2 -->
<g id="edge10" class="edge"><title>Node8&#45;&gt;Node2</title>
<path fill="none" stroke="midnightblue" d="M610.204,-113.773C664.602,-103.207 765.046,-83.6962 817.352,-73.536"/>
<polygon fill="midnightblue" stroke="midnightblue" points="818.297,-76.9178 827.446,-71.5752 816.962,-70.0463 818.297,-76.9178"/>
</g>
<!-- Node8&#45;&gt;Node4 -->
<g id="edge9" class="edge"><title>Node8&#45;&gt;Node4</title>
<path fill="none" stroke="midnightblue" d="M557.576,-112.324C542.46,-103.822 519.185,-90.7288 501.529,-80.7975"/>
<polygon fill="midnightblue" stroke="midnightblue" points="502.817,-77.5066 492.386,-75.6545 499.386,-83.6077 502.817,-77.5066"/>
</g>
<!-- Node8&#45;&gt;Node9 -->
<g id="edge11" class="edge"><title>Node8&#45;&gt;Node9</title>
<path fill="none" stroke="midnightblue" d="M571.514,-112.083C570.321,-104.927 568.606,-94.6353 567.115,-85.6911"/>
<polygon fill="midnightblue" stroke="midnightblue" points="570.555,-85.0396 565.459,-75.7511 563.65,-86.1904 570.555,-85.0396"/>
</g>
<!-- Node8&#45;&gt;Node10 -->
<g id="edge12" class="edge"><title>Node8&#45;&gt;Node10</title>
<path fill="none" stroke="midnightblue" d="M590.905,-112.444C609.254,-103.675 638.005,-89.9355 659.094,-79.8579"/>
<polygon fill="midnightblue" stroke="midnightblue" points="660.665,-82.9862 668.179,-75.5164 657.647,-76.6703 660.665,-82.9862"/>
</g>
<!-- Node11 -->
<g id="node11" class="node"><title>Node11</title>
<polygon fill="none" stroke="#bfbfbf" points="658.5,-0.5 658.5,-19.5 713.5,-19.5 713.5,-0.5 658.5,-0.5"/>
<text text-anchor="middle" x="686" y="-7.5" font-family="Helvetica,sans-Serif" font-size="10.00">stddef.h</text>
</g>
<!-- Node10&#45;&gt;Node11 -->
<g id="edge13" class="edge"><title>Node10&#45;&gt;Node11</title>
<path fill="none" stroke="midnightblue" d="M686,-56.083C686,-49.0059 686,-38.8611 686,-29.9865"/>
<polygon fill="midnightblue" stroke="midnightblue" points="689.5,-29.751 686,-19.7511 682.5,-29.7511 689.5,-29.751"/>
</g>
<!-- Node12&#45;&gt;Node4 -->
<g id="edge17" class="edge"><title>Node12&#45;&gt;Node4</title>
<path fill="none" stroke="midnightblue" d="M307.849,-112.444C345.186,-102.413 406.737,-85.8766 444.397,-75.7591"/>
<polygon fill="midnightblue" stroke="midnightblue" points="445.595,-79.0612 454.345,-73.0865 443.779,-72.3009 445.595,-79.0612"/>
</g>
<!-- Node12&#45;&gt;Node6 -->
<g id="edge19" class="edge"><title>Node12&#45;&gt;Node6</title>
<path fill="none" stroke="midnightblue" d="M276,-112.368C276,-94.617 276,-53.6664 276,-29.5974"/>
<polygon fill="midnightblue" stroke="midnightblue" points="279.5,-29.5914 276,-19.5914 272.5,-29.5915 279.5,-29.5914"/>
</g>
<!-- Node13 -->
<g id="node13" class="node"><title>Node13</title>
<polygon fill="none" stroke="#bfbfbf" points="304.5,-56.5 304.5,-75.5 397.5,-75.5 397.5,-56.5 304.5,-56.5"/>
<text text-anchor="middle" x="351" y="-63.5" font-family="Helvetica,sans-Serif" font-size="10.00">unordered_map</text>
</g>
<!-- Node12&#45;&gt;Node13 -->
<g id="edge18" class="edge"><title>Node12&#45;&gt;Node13</title>
<path fill="none" stroke="midnightblue" d="M288.05,-112.324C299.463,-104.107 316.831,-91.6017 330.435,-81.8069"/>
<polygon fill="midnightblue" stroke="midnightblue" points="332.66,-84.5174 338.731,-75.8339 328.57,-78.8366 332.66,-84.5174"/>
</g>
<!-- Node14 -->
<g id="node14" class="node"><title>Node14</title>
<g id="a_node14"><a xlink:href="tileData_8hxx.html" target="_top" xlink:title="tileData.hxx">
<polygon fill="none" stroke="black" points="0,-56.5 0,-75.5 74,-75.5 74,-56.5 0,-56.5"/>
<text text-anchor="middle" x="37" y="-63.5" font-family="Helvetica,sans-Serif" font-size="10.00">tileData.hxx</text>
</a>
</g>
</g>
<!-- Node12&#45;&gt;Node14 -->
<g id="edge20" class="edge"><title>Node12&#45;&gt;Node14</title>
<path fill="none" stroke="midnightblue" d="M238.13,-112.444C196.402,-103.015 129.237,-87.8402 84.134,-77.6495"/>
<polygon fill="midnightblue" stroke="midnightblue" points="84.8252,-74.2175 74.2997,-75.4275 83.2824,-81.0454 84.8252,-74.2175"/>
</g>
<!-- Node15 -->
<g id="node15" class="node"><title>Node15</title>
<polygon fill="none" stroke="#bfbfbf" points="92,-56.5 92,-75.5 148,-75.5 148,-56.5 92,-56.5"/>
<text text-anchor="middle" x="120" y="-63.5" font-family="Helvetica,sans-Serif" font-size="10.00">json.hxx</text>
</g>
<!-- Node12&#45;&gt;Node15 -->
<g id="edge22" class="edge"><title>Node12&#45;&gt;Node15</title>
<path fill="none" stroke="midnightblue" d="M251.281,-112.444C225.152,-103.399 183.741,-89.064 154.424,-78.9158"/>
<polygon fill="midnightblue" stroke="midnightblue" points="155.198,-75.4801 144.603,-75.5164 152.908,-82.0951 155.198,-75.4801"/>
</g>
<!-- Node16 -->
<g id="node16" class="node"><title>Node16</title>
<g id="a_node16"><a xlink:href="Singleton_8hxx.html" target="_top" xlink:title="Singleton.hxx">
<polygon fill="none" stroke="black" points="166.5,-56.5 166.5,-75.5 247.5,-75.5 247.5,-56.5 166.5,-56.5"/>
<text text-anchor="middle" x="207" y="-63.5" font-family="Helvetica,sans-Serif" font-size="10.00">Singleton.hxx</text>
</a>
</g>
</g>
<!-- Node12&#45;&gt;Node16 -->
<g id="edge23" class="edge"><title>Node12&#45;&gt;Node16</title>
<path fill="none" stroke="midnightblue" d="M264.914,-112.324C254.514,-104.185 238.739,-91.8395 226.278,-82.0874"/>
<polygon fill="midnightblue" stroke="midnightblue" points="228.32,-79.2407 218.288,-75.8339 224.006,-84.7533 228.32,-79.2407"/>
</g>
<!-- Node14&#45;&gt;Node6 -->
<g id="edge21" class="edge"><title>Node14&#45;&gt;Node6</title>
<path fill="none" stroke="midnightblue" d="M74.0815,-56.6217C120.693,-46.0903 199.922,-28.1892 244.002,-18.2298"/>
<polygon fill="midnightblue" stroke="midnightblue" points="244.908,-21.6133 253.89,-15.9955 243.365,-14.7854 244.908,-21.6133"/>
</g>
<!-- Node17&#45;&gt;Node2 -->
<g id="edge27" class="edge"><title>Node17&#45;&gt;Node2</title>
<path fill="none" stroke="midnightblue" d="M865.194,-224.075C862.832,-197.945 855.899,-121.211 852.679,-85.577"/>
<polygon fill="midnightblue" stroke="midnightblue" points="856.16,-85.2125 851.774,-75.5681 849.188,-85.8425 856.16,-85.2125"/>
</g>
<!-- Node17&#45;&gt;Node3 -->
<g id="edge25" class="edge"><title>Node17&#45;&gt;Node3</title>
<path fill="none" stroke="midnightblue" d="M829.873,-224.444C790.349,-215.083 726.903,-200.056 683.887,-189.868"/>
<polygon fill="midnightblue" stroke="midnightblue" points="684.496,-186.415 673.958,-187.516 682.882,-193.227 684.496,-186.415"/>
</g>
<!-- Node18 -->
<g id="node18" class="node"><title>Node18</title>
<polygon fill="none" stroke="#bfbfbf" points="898,-168.5 898,-187.5 936,-187.5 936,-168.5 898,-168.5"/>
<text text-anchor="middle" x="917" y="-175.5" font-family="Helvetica,sans-Serif" font-size="10.00">map</text>
</g>
<!-- Node17&#45;&gt;Node18 -->
<g id="edge26" class="edge"><title>Node17&#45;&gt;Node18</title>
<path fill="none" stroke="midnightblue" d="M874.422,-224.083C881.848,-216.22 892.852,-204.569 901.812,-195.081"/>
<polygon fill="midnightblue" stroke="midnightblue" points="904.413,-197.424 908.735,-187.751 899.324,-192.618 904.413,-197.424"/>
</g>
</g>
</svg>
