<?xml version="1.0" encoding="UTF-8" standalone="no"?>
<!DOCTYPE svg PUBLIC "-//W3C//DTD SVG 1.1//EN"
 "http://www.w3.org/Graphics/SVG/1.1/DTD/svg11.dtd">
<!-- Generated by graphviz version 2.38.0 (20140413.2041)
 -->
<!-- Title: src/engine/Map.hxx Pages: 1 -->
<svg width="1047pt" height="196pt"
 viewBox="0.00 0.00 1047.00 196.00" xmlns="http://www.w3.org/2000/svg" xmlns:xlink="http://www.w3.org/1999/xlink">
<g id="graph0" class="graph" transform="scale(1 1) rotate(0) translate(4 192)">
<title>src/engine/Map.hxx</title>
<!-- Node1 -->
<g id="node1" class="node"><title>Node1</title>
<polygon fill="#bfbfbf" stroke="black" points="814.5,-168.5 814.5,-187.5 923.5,-187.5 923.5,-168.5 814.5,-168.5"/>
<text text-anchor="middle" x="869" y="-175.5" font-family="Helvetica,sans-Serif" font-size="10.00">src/engine/Map.hxx</text>
</g>
<!-- Node2 -->
<g id="node2" class="node"><title>Node2</title>
<g id="a_node2"><a xlink:href="Engine_8hxx.html" target="_top" xlink:title="src/engine/Engine.hxx">
<polygon fill="none" stroke="black" points="401.5,-112.5 401.5,-131.5 522.5,-131.5 522.5,-112.5 401.5,-112.5"/>
<text text-anchor="middle" x="462" y="-119.5" font-family="Helvetica,sans-Serif" font-size="10.00">src/engine/Engine.hxx</text>
</a>
</g>
</g>
<!-- Node1&#45;&gt;Node2 -->
<g id="edge1" class="edge"><title>Node1&#45;&gt;Node2</title>
<path fill="none" stroke="midnightblue" d="M803.994,-168.375C726.53,-158.097 598.122,-141.06 522.637,-131.045"/>
<polygon fill="midnightblue" stroke="midnightblue" points="803.737,-171.872 814.11,-169.717 804.657,-164.932 803.737,-171.872"/>
</g>
<!-- Node7 -->
<g id="node7" class="node"><title>Node7</title>
<g id="a_node7"><a xlink:href="EventManager_8cxx.html" target="_top" xlink:title="src/engine/EventManager.cxx">
<polygon fill="none" stroke="black" points="545,-0.5 545,-19.5 701,-19.5 701,-0.5 545,-0.5"/>
<text text-anchor="middle" x="623" y="-7.5" font-family="Helvetica,sans-Serif" font-size="10.00">src/engine/EventManager.cxx</text>
</a>
</g>
</g>
<!-- Node1&#45;&gt;Node7 -->
<g id="edge11" class="edge"><title>Node1&#45;&gt;Node7</title>
<path fill="none" stroke="midnightblue" d="M878.253,-159.459C890.449,-133.632 907.646,-85.2787 883,-56 860.063,-28.7517 769.061,-18.0026 701.145,-13.7623"/>
<polygon fill="midnightblue" stroke="midnightblue" points="875.097,-157.944 873.77,-168.455 881.362,-161.066 875.097,-157.944"/>
</g>
<!-- Node10 -->
<g id="node10" class="node"><title>Node10</title>
<g id="a_node10"><a xlink:href="UIManager_8cxx.html" target="_top" xlink:title="src/engine/UIManager.cxx">
<polygon fill="none" stroke="black" points="735.5,-56.5 735.5,-75.5 874.5,-75.5 874.5,-56.5 735.5,-56.5"/>
<text text-anchor="middle" x="805" y="-63.5" font-family="Helvetica,sans-Serif" font-size="10.00">src/engine/UIManager.cxx</text>
</a>
</g>
</g>
<!-- Node1&#45;&gt;Node10 -->
<g id="edge13" class="edge"><title>Node1&#45;&gt;Node10</title>
<path fill="none" stroke="midnightblue" d="M858.899,-159.64C844.996,-135.744 820.493,-93.6286 809.999,-75.5914"/>
<polygon fill="midnightblue" stroke="midnightblue" points="855.924,-161.485 863.978,-168.368 861.974,-157.965 855.924,-161.485"/>
</g>
<!-- Node11 -->
<g id="node11" class="node"><title>Node11</title>
<g id="a_node11"><a xlink:href="Map_8cxx.html" target="_top" xlink:title="src/engine/Map.cxx">
<polygon fill="none" stroke="black" points="931,-112.5 931,-131.5 1039,-131.5 1039,-112.5 931,-112.5"/>
<text text-anchor="middle" x="985" y="-119.5" font-family="Helvetica,sans-Serif" font-size="10.00">src/engine/Map.cxx</text>
</a>
</g>
</g>
<!-- Node1&#45;&gt;Node11 -->
<g id="edge12" class="edge"><title>Node1&#45;&gt;Node11</title>
<path fill="none" stroke="midnightblue" d="M896.72,-164.096C918.392,-154.007 947.902,-140.27 966.705,-131.516"/>
<polygon fill="midnightblue" stroke="midnightblue" points="894.969,-161.05 887.381,-168.444 897.923,-167.396 894.969,-161.05"/>
</g>
<!-- Node3 -->
<g id="node3" class="node"><title>Node3</title>
<g id="a_node3"><a xlink:href="Camera_8cxx.html" target="_top" xlink:title="src/engine/basics/Camera.cxx">
<polygon fill="none" stroke="black" points="382.5,-56.5 382.5,-75.5 541.5,-75.5 541.5,-56.5 382.5,-56.5"/>
<text text-anchor="middle" x="462" y="-63.5" font-family="Helvetica,sans-Serif" font-size="10.00">src/engine/basics/Camera.cxx</text>
</a>
</g>
</g>
<!-- Node2&#45;&gt;Node3 -->
<g id="edge2" class="edge"><title>Node2&#45;&gt;Node3</title>
<path fill="none" stroke="midnightblue" d="M462,-101.805C462,-92.9102 462,-82.7798 462,-75.7511"/>
<polygon fill="midnightblue" stroke="midnightblue" points="458.5,-102.083 462,-112.083 465.5,-102.083 458.5,-102.083"/>
</g>
<!-- Node4 -->
<g id="node4" class="node"><title>Node4</title>
<g id="a_node4"><a xlink:href="isoMath_8cxx.html" target="_top" xlink:title="src/engine/basics/isoMath.cxx">
<polygon fill="none" stroke="black" points="559,-56.5 559,-75.5 717,-75.5 717,-56.5 559,-56.5"/>
<text text-anchor="middle" x="638" y="-63.5" font-family="Helvetica,sans-Serif" font-size="10.00">src/engine/basics/isoMath.cxx</text>
</a>
</g>
</g>
<!-- Node2&#45;&gt;Node4 -->
<g id="edge3" class="edge"><title>Node2&#45;&gt;Node4</title>
<path fill="none" stroke="midnightblue" d="M499.689,-109.436C532.872,-99.2551 580.428,-84.664 610.243,-75.5164"/>
<polygon fill="midnightblue" stroke="midnightblue" points="498.421,-106.164 489.888,-112.444 500.475,-112.856 498.421,-106.164"/>
</g>
<!-- Node5 -->
<g id="node5" class="node"><title>Node5</title>
<g id="a_node5"><a xlink:href="EventManager_8hxx.html" target="_top" xlink:title="src/engine/EventManager.hxx">
<polygon fill="none" stroke="black" points="69.5,-56.5 69.5,-75.5 226.5,-75.5 226.5,-56.5 69.5,-56.5"/>
<text text-anchor="middle" x="148" y="-63.5" font-family="Helvetica,sans-Serif" font-size="10.00">src/engine/EventManager.hxx</text>
</a>
</g>
</g>
<!-- Node2&#45;&gt;Node5 -->
<g id="edge4" class="edge"><title>Node2&#45;&gt;Node5</title>
<path fill="none" stroke="midnightblue" d="M402.267,-110.727C342.93,-100.523 253.006,-85.0583 197.521,-75.5164"/>
<polygon fill="midnightblue" stroke="midnightblue" points="401.797,-114.198 412.246,-112.444 402.984,-107.299 401.797,-114.198"/>
</g>
<!-- Node8 -->
<g id="node8" class="node"><title>Node8</title>
<g id="a_node8"><a xlink:href="Game_8cxx.html" target="_top" xlink:title="src/Game.cxx">
<polygon fill="none" stroke="black" points="0,-0.5 0,-19.5 82,-19.5 82,-0.5 0,-0.5"/>
<text text-anchor="middle" x="41" y="-7.5" font-family="Helvetica,sans-Serif" font-size="10.00">src/Game.cxx</text>
</a>
</g>
</g>
<!-- Node2&#45;&gt;Node8 -->
<g id="edge10" class="edge"><title>Node2&#45;&gt;Node8</title>
<path fill="none" stroke="midnightblue" d="M390.899,-117.287C282.237,-110.986 84.7709,-96.8196 60,-76 43.2596,-61.93 40.8151,-33.9924 40.73,-19.766"/>
<polygon fill="midnightblue" stroke="midnightblue" points="390.945,-120.796 401.128,-117.873 391.344,-113.807 390.945,-120.796"/>
</g>
<!-- Node9 -->
<g id="node9" class="node"><title>Node9</title>
<g id="a_node9"><a xlink:href="Engine_8cxx.html" target="_top" xlink:title="src/engine/Engine.cxx">
<polygon fill="none" stroke="black" points="245,-56.5 245,-75.5 365,-75.5 365,-56.5 245,-56.5"/>
<text text-anchor="middle" x="305" y="-63.5" font-family="Helvetica,sans-Serif" font-size="10.00">src/engine/Engine.cxx</text>
</a>
</g>
</g>
<!-- Node2&#45;&gt;Node9 -->
<g id="edge8" class="edge"><title>Node2&#45;&gt;Node9</title>
<path fill="none" stroke="midnightblue" d="M427.611,-109.172C398.048,-99.0039 356.127,-84.5852 329.761,-75.5164"/>
<polygon fill="midnightblue" stroke="midnightblue" points="426.528,-112.501 437.123,-112.444 428.805,-105.881 426.528,-112.501"/>
</g>
<!-- Node2&#45;&gt;Node10 -->
<g id="edge9" class="edge"><title>Node2&#45;&gt;Node10</title>
<path fill="none" stroke="midnightblue" d="M526.448,-110.854C591.254,-100.651 690.046,-85.0977 750.905,-75.5164"/>
<polygon fill="midnightblue" stroke="midnightblue" points="525.683,-107.431 516.349,-112.444 526.772,-114.346 525.683,-107.431"/>
</g>
<!-- Node6 -->
<g id="node6" class="node"><title>Node6</title>
<g id="a_node6"><a xlink:href="Timer_8cxx.html" target="_top" xlink:title="src/engine/basics/Timer.cxx">
<polygon fill="none" stroke="black" points="100.5,-0.5 100.5,-19.5 247.5,-19.5 247.5,-0.5 100.5,-0.5"/>
<text text-anchor="middle" x="174" y="-7.5" font-family="Helvetica,sans-Serif" font-size="10.00">src/engine/basics/Timer.cxx</text>
</a>
</g>
</g>
<!-- Node5&#45;&gt;Node6 -->
<g id="edge5" class="edge"><title>Node5&#45;&gt;Node6</title>
<path fill="none" stroke="midnightblue" d="M156.675,-46.9827C161.088,-37.8168 166.252,-27.0922 169.787,-19.7511"/>
<polygon fill="midnightblue" stroke="midnightblue" points="153.478,-45.5546 152.293,-56.083 159.785,-48.5913 153.478,-45.5546"/>
</g>
<!-- Node5&#45;&gt;Node7 -->
<g id="edge6" class="edge"><title>Node5&#45;&gt;Node7</title>
<path fill="none" stroke="midnightblue" d="M233.134,-55.3216C322.736,-45.1353 462.412,-29.2563 547.999,-19.5264"/>
<polygon fill="midnightblue" stroke="midnightblue" points="232.544,-51.8661 223.003,-56.4733 233.334,-58.8213 232.544,-51.8661"/>
</g>
<!-- Node5&#45;&gt;Node8 -->
<g id="edge7" class="edge"><title>Node5&#45;&gt;Node8</title>
<path fill="none" stroke="midnightblue" d="M121.698,-51.7261C101.885,-41.7271 75.2925,-28.3065 58.1487,-19.6545"/>
<polygon fill="midnightblue" stroke="midnightblue" points="120.304,-54.9431 130.809,-56.324 123.458,-48.6938 120.304,-54.9431"/>
</g>
</g>
</svg>
