<?xml version="1.0" encoding="UTF-8" standalone="no"?>
<!DOCTYPE svg PUBLIC "-//W3C//DTD SVG 1.1//EN"
 "http://www.w3.org/Graphics/SVG/1.1/DTD/svg11.dtd">
<!-- Generated by graphviz version 2.38.0 (20140413.2041)
 -->
<!-- Title: src/engine/basics/mapEdit.hxx Pages: 1 -->
<svg width="2076pt" height="497pt"
 viewBox="0.00 0.00 2075.50 497.00" xmlns="http://www.w3.org/2000/svg" xmlns:xlink="http://www.w3.org/1999/xlink">
<g id="graph0" class="graph" transform="scale(1 1) rotate(0) translate(4 493)">
<title>src/engine/basics/mapEdit.hxx</title>
<!-- Node1 -->
<g id="node1" class="node"><title>Node1</title>
<polygon fill="#bfbfbf" stroke="black" points="1694,-469.5 1694,-488.5 1855,-488.5 1855,-469.5 1694,-469.5"/>
<text text-anchor="middle" x="1774.5" y="-476.5" font-family="Helvetica,sans-Serif" font-size="10.00">src/engine/basics/mapEdit.hxx</text>
</g>
<!-- Node2 -->
<g id="node2" class="node"><title>Node2</title>
<g id="a_node2"><a xlink:href="mapEdit_8cxx.html" target="_top" xlink:title="src/engine/basics/mapEdit.cxx">
<polygon fill="none" stroke="black" points="829,-408 829,-427 990,-427 990,-408 829,-408"/>
<text text-anchor="middle" x="909.5" y="-415" font-family="Helvetica,sans-Serif" font-size="10.00">src/engine/basics/mapEdit.cxx</text>
</a>
</g>
</g>
<!-- Node1&#45;&gt;Node2 -->
<g id="edge1" class="edge"><title>Node1&#45;&gt;Node2</title>
<path fill="none" stroke="midnightblue" d="M1683.77,-475.723C1538.79,-471.414 1246.13,-459.957 999.5,-433 985.498,-431.47 970.354,-429.251 956.554,-427.007"/>
<polygon fill="midnightblue" stroke="midnightblue" points="1683.85,-479.227 1693.95,-476.021 1684.05,-472.23 1683.85,-479.227"/>
</g>
<!-- Node3 -->
<g id="node3" class="node"><title>Node3</title>
<g id="a_node3"><a xlink:href="UIElement_8hxx.html" target="_top" xlink:title="src/engine/ui/basics\l/UIElement.hxx">
<polygon fill="none" stroke="black" points="1008.5,-402.5 1008.5,-432.5 1118.5,-432.5 1118.5,-402.5 1008.5,-402.5"/>
<text text-anchor="start" x="1016.5" y="-420.5" font-family="Helvetica,sans-Serif" font-size="10.00">src/engine/ui/basics</text>
<text text-anchor="middle" x="1063.5" y="-409.5" font-family="Helvetica,sans-Serif" font-size="10.00">/UIElement.hxx</text>
</a>
</g>
</g>
<!-- Node1&#45;&gt;Node3 -->
<g id="edge2" class="edge"><title>Node1&#45;&gt;Node3</title>
<path fill="none" stroke="midnightblue" d="M1683.9,-470.418C1534.4,-457.908 1240.46,-433.309 1118.53,-423.105"/>
<polygon fill="midnightblue" stroke="midnightblue" points="1683.72,-473.915 1693.98,-471.261 1684.3,-466.94 1683.72,-473.915"/>
</g>
<!-- Node7 -->
<g id="node7" class="node"><title>Node7</title>
<g id="a_node7"><a xlink:href="EventManager_8cxx.html" target="_top" xlink:title="src/engine/EventManager.cxx">
<polygon fill="none" stroke="black" points="1497.5,-6 1497.5,-25 1653.5,-25 1653.5,-6 1497.5,-6"/>
<text text-anchor="middle" x="1575.5" y="-13" font-family="Helvetica,sans-Serif" font-size="10.00">src/engine/EventManager.cxx</text>
</a>
</g>
</g>
<!-- Node1&#45;&gt;Node7 -->
<g id="edge59" class="edge"><title>Node1&#45;&gt;Node7</title>
<path fill="none" stroke="midnightblue" d="M1779.06,-459.434C1784.68,-434.891 1793.5,-390.227 1793.5,-351.5 1793.5,-351.5 1793.5,-351.5 1793.5,-148.5 1793.5,-72.0674 1694.23,-38.6813 1629.67,-25.0501"/>
<polygon fill="midnightblue" stroke="midnightblue" points="1775.58,-458.939 1776.68,-469.477 1782.39,-460.555 1775.58,-458.939"/>
</g>
<!-- Node11 -->
<g id="node11" class="node"><title>Node11</title>
<g id="a_node11"><a xlink:href="UIManager_8cxx.html" target="_top" xlink:title="src/engine/UIManager.cxx">
<polygon fill="none" stroke="black" points="1570,-73 1570,-92 1709,-92 1709,-73 1570,-73"/>
<text text-anchor="middle" x="1639.5" y="-80" font-family="Helvetica,sans-Serif" font-size="10.00">src/engine/UIManager.cxx</text>
</a>
</g>
</g>
<!-- Node1&#45;&gt;Node11 -->
<g id="edge61" class="edge"><title>Node1&#45;&gt;Node11</title>
<path fill="none" stroke="midnightblue" d="M1769.94,-459.434C1764.32,-434.891 1755.5,-390.227 1755.5,-351.5 1755.5,-351.5 1755.5,-351.5 1755.5,-215.5 1755.5,-156.009 1688.2,-110.56 1656.12,-92.2791"/>
<polygon fill="midnightblue" stroke="midnightblue" points="1766.61,-460.555 1772.32,-469.477 1773.42,-458.939 1766.61,-460.555"/>
</g>
<!-- Node38 -->
<g id="node38" class="node"><title>Node38</title>
<g id="a_node38"><a xlink:href="Engine_8cxx.html" target="_top" xlink:title="src/engine/Engine.cxx">
<polygon fill="none" stroke="black" points="1821.5,-408 1821.5,-427 1941.5,-427 1941.5,-408 1821.5,-408"/>
<text text-anchor="middle" x="1881.5" y="-415" font-family="Helvetica,sans-Serif" font-size="10.00">src/engine/Engine.cxx</text>
</a>
</g>
</g>
<!-- Node1&#45;&gt;Node38 -->
<g id="edge58" class="edge"><title>Node1&#45;&gt;Node38</title>
<path fill="none" stroke="midnightblue" d="M1798.68,-464.556C1819.38,-453.042 1848.57,-436.811 1866.2,-427.009"/>
<polygon fill="midnightblue" stroke="midnightblue" points="1796.87,-461.556 1789.83,-469.475 1800.27,-467.674 1796.87,-461.556"/>
</g>
<!-- Node39 -->
<g id="node39" class="node"><title>Node39</title>
<g id="a_node39"><a xlink:href="Map_8cxx.html" target="_top" xlink:title="src/engine/Map.cxx">
<polygon fill="none" stroke="black" points="1959.5,-408 1959.5,-427 2067.5,-427 2067.5,-408 1959.5,-408"/>
<text text-anchor="middle" x="2013.5" y="-415" font-family="Helvetica,sans-Serif" font-size="10.00">src/engine/Map.cxx</text>
</a>
</g>
</g>
<!-- Node1&#45;&gt;Node39 -->
<g id="edge60" class="edge"><title>Node1&#45;&gt;Node39</title>
<path fill="none" stroke="midnightblue" d="M1818.52,-467.041C1864.92,-455.49 1937.02,-437.539 1979.32,-427.009"/>
<polygon fill="midnightblue" stroke="midnightblue" points="1817.6,-463.663 1808.74,-469.475 1819.29,-470.456 1817.6,-463.663"/>
</g>
<!-- Node4 -->
<g id="node4" class="node"><title>Node4</title>
<g id="a_node4"><a xlink:href="UIManager_8hxx.html" target="_top" xlink:title="src/engine/UIManager.hxx">
<polygon fill="none" stroke="black" points="888.5,-140 888.5,-159 1028.5,-159 1028.5,-140 888.5,-140"/>
<text text-anchor="middle" x="958.5" y="-147" font-family="Helvetica,sans-Serif" font-size="10.00">src/engine/UIManager.hxx</text>
</a>
</g>
</g>
<!-- Node3&#45;&gt;Node4 -->
<g id="edge3" class="edge"><title>Node3&#45;&gt;Node4</title>
<path fill="none" stroke="midnightblue" d="M1129.14,-416.725C1198.83,-414.698 1310.77,-404.856 1398.5,-366 1418.43,-357.173 1419.33,-348.43 1436.5,-335 1457.5,-318.568 1472.57,-322.851 1484.5,-299 1490.66,-286.677 1491.04,-280.125 1484.5,-268 1458.74,-220.267 1433.45,-219.591 1382.5,-201 1319.21,-177.909 1132.07,-162.151 1028.84,-154.953"/>
<polygon fill="midnightblue" stroke="midnightblue" points="1128.67,-413.236 1118.76,-416.978 1128.84,-420.233 1128.67,-413.236"/>
</g>
<!-- Node12 -->
<g id="node12" class="node"><title>Node12</title>
<g id="a_node12"><a xlink:href="Layout_8hxx.html" target="_top" xlink:title="src/engine/ui/basics\l/Layout.hxx">
<polygon fill="none" stroke="black" points="1551.5,-201.5 1551.5,-231.5 1661.5,-231.5 1661.5,-201.5 1551.5,-201.5"/>
<text text-anchor="start" x="1559.5" y="-219.5" font-family="Helvetica,sans-Serif" font-size="10.00">src/engine/ui/basics</text>
<text text-anchor="middle" x="1606.5" y="-208.5" font-family="Helvetica,sans-Serif" font-size="10.00">/Layout.hxx</text>
</a>
</g>
</g>
<!-- Node3&#45;&gt;Node12 -->
<g id="edge12" class="edge"><title>Node3&#45;&gt;Node12</title>
<path fill="none" stroke="midnightblue" d="M1128.82,-413.968C1256.97,-408.421 1531.77,-393.448 1564.5,-366 1585.34,-348.526 1599.54,-265.388 1604.52,-231.713"/>
<polygon fill="midnightblue" stroke="midnightblue" points="1128.58,-410.475 1118.74,-414.398 1128.88,-417.469 1128.58,-410.475"/>
</g>
<!-- Node13 -->
<g id="node13" class="node"><title>Node13</title>
<g id="a_node13"><a xlink:href="ButtonGroup_8hxx.html" target="_top" xlink:title="src/engine/ui/basics\l/ButtonGroup.hxx">
<polygon fill="none" stroke="black" points="92.5,-201.5 92.5,-231.5 202.5,-231.5 202.5,-201.5 92.5,-201.5"/>
<text text-anchor="start" x="100.5" y="-219.5" font-family="Helvetica,sans-Serif" font-size="10.00">src/engine/ui/basics</text>
<text text-anchor="middle" x="147.5" y="-208.5" font-family="Helvetica,sans-Serif" font-size="10.00">/ButtonGroup.hxx</text>
</a>
</g>
</g>
<!-- Node3&#45;&gt;Node13 -->
<g id="edge15" class="edge"><title>Node3&#45;&gt;Node13</title>
<path fill="none" stroke="midnightblue" d="M998.051,-402.398C877.369,-391.808 308.293,-407.39 237.5,-366 185.71,-335.721 160.054,-262.783 151.196,-231.804"/>
<polygon fill="midnightblue" stroke="midnightblue" points="997.979,-405.91 1008.3,-403.507 998.733,-398.951 997.979,-405.91"/>
</g>
<!-- Node14 -->
<g id="node14" class="node"><title>Node14</title>
<g id="a_node14"><a xlink:href="IMenuGroup_8hxx.html" target="_top" xlink:title="src/engine/ui/menuGroups\l/IMenuGroup.hxx">
<polygon fill="none" stroke="black" points="0,-134.5 0,-164.5 143,-164.5 143,-134.5 0,-134.5"/>
<text text-anchor="start" x="8" y="-152.5" font-family="Helvetica,sans-Serif" font-size="10.00">src/engine/ui/menuGroups</text>
<text text-anchor="middle" x="71.5" y="-141.5" font-family="Helvetica,sans-Serif" font-size="10.00">/IMenuGroup.hxx</text>
</a>
</g>
</g>
<!-- Node3&#45;&gt;Node14 -->
<g id="edge52" class="edge"><title>Node3&#45;&gt;Node14</title>
<path fill="none" stroke="midnightblue" d="M998.35,-402.406C873.912,-391.083 277.133,-403.611 199.5,-366 128.611,-331.656 116.327,-303.605 83.5,-232 73.4273,-210.029 71.4241,-181.548 71.2258,-164.728"/>
<polygon fill="midnightblue" stroke="midnightblue" points="997.977,-405.886 1008.3,-403.498 998.741,-398.928 997.977,-405.886"/>
</g>
<!-- Node17 -->
<g id="node17" class="node"><title>Node17</title>
<g id="a_node17"><a xlink:href="Button_8hxx.html" target="_top" xlink:title="src/engine/ui/widgets\l/Button.hxx">
<polygon fill="none" stroke="black" points="213.5,-268.5 213.5,-298.5 329.5,-298.5 329.5,-268.5 213.5,-268.5"/>
<text text-anchor="start" x="221.5" y="-286.5" font-family="Helvetica,sans-Serif" font-size="10.00">src/engine/ui/widgets</text>
<text text-anchor="middle" x="271.5" y="-275.5" font-family="Helvetica,sans-Serif" font-size="10.00">/Button.hxx</text>
</a>
</g>
</g>
<!-- Node3&#45;&gt;Node17 -->
<g id="edge21" class="edge"><title>Node3&#45;&gt;Node17</title>
<path fill="none" stroke="midnightblue" d="M998.365,-402.173C770.496,-370.315 705.541,-414.506 485.5,-366 416.588,-350.809 340.358,-317.503 300.087,-298.505"/>
<polygon fill="midnightblue" stroke="midnightblue" points="997.891,-405.641 1008.29,-403.594 998.883,-398.712 997.891,-405.641"/>
</g>
<!-- Node19 -->
<g id="node19" class="node"><title>Node19</title>
<g id="a_node19"><a xlink:href="Text_8hxx.html" target="_top" xlink:title="src/engine/ui/widgets\l/Text.hxx">
<polygon fill="none" stroke="black" points="567.5,-335.5 567.5,-365.5 683.5,-365.5 683.5,-335.5 567.5,-335.5"/>
<text text-anchor="start" x="575.5" y="-353.5" font-family="Helvetica,sans-Serif" font-size="10.00">src/engine/ui/widgets</text>
<text text-anchor="middle" x="625.5" y="-342.5" font-family="Helvetica,sans-Serif" font-size="10.00">/Text.hxx</text>
</a>
</g>
</g>
<!-- Node3&#45;&gt;Node19 -->
<g id="edge25" class="edge"><title>Node3&#45;&gt;Node19</title>
<path fill="none" stroke="midnightblue" d="M998.336,-402.075C880.6,-381.308 755.123,-365.939 683.566,-357.814"/>
<polygon fill="midnightblue" stroke="midnightblue" points="997.787,-405.532 1008.25,-403.839 999.014,-398.641 997.787,-405.532"/>
</g>
<!-- Node20 -->
<g id="node20" class="node"><title>Node20</title>
<g id="a_node20"><a xlink:href="TextField_8hxx.html" target="_top" xlink:title="src/engine/ui/widgets\l/TextField.hxx">
<polygon fill="none" stroke="black" points="347.5,-268.5 347.5,-298.5 463.5,-298.5 463.5,-268.5 347.5,-268.5"/>
<text text-anchor="start" x="355.5" y="-286.5" font-family="Helvetica,sans-Serif" font-size="10.00">src/engine/ui/widgets</text>
<text text-anchor="middle" x="405.5" y="-275.5" font-family="Helvetica,sans-Serif" font-size="10.00">/TextField.hxx</text>
</a>
</g>
</g>
<!-- Node3&#45;&gt;Node20 -->
<g id="edge43" class="edge"><title>Node3&#45;&gt;Node20</title>
<path fill="none" stroke="midnightblue" d="M998.25,-402.156C802.557,-374.159 743.639,-420.35 558.5,-366 507.387,-350.995 453.813,-317.779 425.616,-298.707"/>
<polygon fill="midnightblue" stroke="midnightblue" points="997.875,-405.638 1008.28,-403.638 998.899,-398.713 997.875,-405.638"/>
</g>
<!-- Node21 -->
<g id="node21" class="node"><title>Node21</title>
<g id="a_node21"><a xlink:href="Combobox_8hxx.html" target="_top" xlink:title="src/engine/ui/widgets\l/Combobox.hxx">
<polygon fill="none" stroke="black" points="220.5,-201.5 220.5,-231.5 336.5,-231.5 336.5,-201.5 220.5,-201.5"/>
<text text-anchor="start" x="228.5" y="-219.5" font-family="Helvetica,sans-Serif" font-size="10.00">src/engine/ui/widgets</text>
<text text-anchor="middle" x="278.5" y="-208.5" font-family="Helvetica,sans-Serif" font-size="10.00">/Combobox.hxx</text>
</a>
</g>
</g>
<!-- Node3&#45;&gt;Node21 -->
<g id="edge42" class="edge"><title>Node3&#45;&gt;Node21</title>
<path fill="none" stroke="midnightblue" d="M998.142,-402.153C726.792,-365.602 649.968,-420.985 386.5,-366 302.122,-348.39 253.81,-369.698 204.5,-299 196.618,-287.699 198.065,-280.183 204.5,-268 213.072,-251.772 229.464,-239.774 244.646,-231.556"/>
<polygon fill="midnightblue" stroke="midnightblue" points="997.908,-405.654 1008.29,-403.551 998.863,-398.719 997.908,-405.654"/>
</g>
<!-- Node24 -->
<g id="node24" class="node"><title>Node24</title>
<g id="a_node24"><a xlink:href="Tooltip_8hxx.html" target="_top" xlink:title="src/engine/ui/widgets\l/Tooltip.hxx">
<polygon fill="none" stroke="black" points="691.5,-268.5 691.5,-298.5 807.5,-298.5 807.5,-268.5 691.5,-268.5"/>
<text text-anchor="start" x="699.5" y="-286.5" font-family="Helvetica,sans-Serif" font-size="10.00">src/engine/ui/widgets</text>
<text text-anchor="middle" x="749.5" y="-275.5" font-family="Helvetica,sans-Serif" font-size="10.00">/Tooltip.hxx</text>
</a>
</g>
</g>
<!-- Node3&#45;&gt;Node24 -->
<g id="edge47" class="edge"><title>Node3&#45;&gt;Node24</title>
<path fill="none" stroke="midnightblue" d="M998.602,-401.484C944.744,-388.809 875.015,-371.823 862.5,-366 824.341,-348.245 785.851,-316.975 765.109,-298.764"/>
<polygon fill="midnightblue" stroke="midnightblue" points="997.921,-404.92 1008.46,-403.797 999.521,-398.105 997.921,-404.92"/>
</g>
<!-- Node27 -->
<g id="node27" class="node"><title>Node27</title>
<g id="a_node27"><a xlink:href="Checkbox_8hxx.html" target="_top" xlink:title="src/engine/ui/widgets\l/Checkbox.hxx">
<polygon fill="none" stroke="black" points="871.5,-335.5 871.5,-365.5 987.5,-365.5 987.5,-335.5 871.5,-335.5"/>
<text text-anchor="start" x="879.5" y="-353.5" font-family="Helvetica,sans-Serif" font-size="10.00">src/engine/ui/widgets</text>
<text text-anchor="middle" x="929.5" y="-342.5" font-family="Helvetica,sans-Serif" font-size="10.00">/Checkbox.hxx</text>
</a>
</g>
</g>
<!-- Node3&#45;&gt;Node27 -->
<g id="edge39" class="edge"><title>Node3&#45;&gt;Node27</title>
<path fill="none" stroke="midnightblue" d="M1025.35,-397.992C1004.11,-387.689 978.086,-375.068 958.519,-365.577"/>
<polygon fill="midnightblue" stroke="midnightblue" points="1023.9,-401.181 1034.42,-402.396 1026.95,-394.882 1023.9,-401.181"/>
</g>
<!-- Node29 -->
<g id="node29" class="node"><title>Node29</title>
<g id="a_node29"><a xlink:href="Frame_8hxx.html" target="_top" xlink:title="src/engine/ui/widgets\l/Frame.hxx">
<polygon fill="none" stroke="black" points="1139.5,-335.5 1139.5,-365.5 1255.5,-365.5 1255.5,-335.5 1139.5,-335.5"/>
<text text-anchor="start" x="1147.5" y="-353.5" font-family="Helvetica,sans-Serif" font-size="10.00">src/engine/ui/widgets</text>
<text text-anchor="middle" x="1197.5" y="-342.5" font-family="Helvetica,sans-Serif" font-size="10.00">/Frame.hxx</text>
</a>
</g>
</g>
<!-- Node3&#45;&gt;Node29 -->
<g id="edge44" class="edge"><title>Node3&#45;&gt;Node29</title>
<path fill="none" stroke="midnightblue" d="M1101.65,-397.992C1122.89,-387.689 1148.91,-375.068 1168.48,-365.577"/>
<polygon fill="midnightblue" stroke="midnightblue" points="1100.05,-394.882 1092.58,-402.396 1103.1,-401.181 1100.05,-394.882"/>
</g>
<!-- Node31 -->
<g id="node31" class="node"><title>Node31</title>
<g id="a_node31"><a xlink:href="Slider_8hxx.html" target="_top" xlink:title="src/engine/ui/widgets\l/Slider.hxx">
<polygon fill="none" stroke="black" points="1273.5,-335.5 1273.5,-365.5 1389.5,-365.5 1389.5,-335.5 1273.5,-335.5"/>
<text text-anchor="start" x="1281.5" y="-353.5" font-family="Helvetica,sans-Serif" font-size="10.00">src/engine/ui/widgets</text>
<text text-anchor="middle" x="1331.5" y="-342.5" font-family="Helvetica,sans-Serif" font-size="10.00">/Slider.hxx</text>
</a>
</g>
</g>
<!-- Node3&#45;&gt;Node31 -->
<g id="edge48" class="edge"><title>Node3&#45;&gt;Node31</title>
<path fill="none" stroke="midnightblue" d="M1128.5,-400.735C1172.79,-389.994 1230.89,-375.901 1273.59,-365.546"/>
<polygon fill="midnightblue" stroke="midnightblue" points="1127.6,-397.352 1118.7,-403.111 1129.25,-404.155 1127.6,-397.352"/>
</g>
<!-- Node33 -->
<g id="node33" class="node"><title>Node33</title>
<g id="a_node33"><a xlink:href="UIElement_8cxx.html" target="_top" xlink:title="src/engine/ui/basics\l/UIElement.cxx">
<polygon fill="none" stroke="black" points="1445.5,-335.5 1445.5,-365.5 1555.5,-365.5 1555.5,-335.5 1445.5,-335.5"/>
<text text-anchor="start" x="1453.5" y="-353.5" font-family="Helvetica,sans-Serif" font-size="10.00">src/engine/ui/basics</text>
<text text-anchor="middle" x="1500.5" y="-342.5" font-family="Helvetica,sans-Serif" font-size="10.00">/UIElement.cxx</text>
</a>
</g>
</g>
<!-- Node3&#45;&gt;Node33 -->
<g id="edge51" class="edge"><title>Node3&#45;&gt;Node33</title>
<path fill="none" stroke="midnightblue" d="M1128.62,-408.977C1202.33,-400.133 1325.91,-384.316 1431.5,-366 1435.96,-365.226 1440.58,-364.373 1445.2,-363.479"/>
<polygon fill="midnightblue" stroke="midnightblue" points="1128.07,-405.518 1118.55,-410.178 1128.9,-412.468 1128.07,-405.518"/>
</g>
<!-- Node34 -->
<g id="node34" class="node"><title>Node34</title>
<g id="a_node34"><a xlink:href="Bar_8hxx.html" target="_top" xlink:title="src/engine/ui/widgets\l/Bar.hxx">
<polygon fill="none" stroke="black" points="1611.5,-335.5 1611.5,-365.5 1727.5,-365.5 1727.5,-335.5 1611.5,-335.5"/>
<text text-anchor="start" x="1619.5" y="-353.5" font-family="Helvetica,sans-Serif" font-size="10.00">src/engine/ui/widgets</text>
<text text-anchor="middle" x="1669.5" y="-342.5" font-family="Helvetica,sans-Serif" font-size="10.00">/Bar.hxx</text>
</a>
</g>
</g>
<!-- Node3&#45;&gt;Node34 -->
<g id="edge53" class="edge"><title>Node3&#45;&gt;Node34</title>
<path fill="none" stroke="midnightblue" d="M1128.73,-412.535C1229.61,-405.908 1429.39,-390.808 1597.5,-366 1602.04,-365.33 1606.73,-364.561 1611.43,-363.736"/>
<polygon fill="midnightblue" stroke="midnightblue" points="1128.44,-409.047 1118.69,-413.188 1128.9,-416.032 1128.44,-409.047"/>
</g>
<!-- Node36 -->
<g id="node36" class="node"><title>Node36</title>
<g id="a_node36"><a xlink:href="Image_8hxx.html" target="_top" xlink:title="src/engine/ui/widgets\l/Image.hxx">
<polygon fill="none" stroke="black" points="1005.5,-335.5 1005.5,-365.5 1121.5,-365.5 1121.5,-335.5 1005.5,-335.5"/>
<text text-anchor="start" x="1013.5" y="-353.5" font-family="Helvetica,sans-Serif" font-size="10.00">src/engine/ui/widgets</text>
<text text-anchor="middle" x="1063.5" y="-342.5" font-family="Helvetica,sans-Serif" font-size="10.00">/Image.hxx</text>
</a>
</g>
</g>
<!-- Node3&#45;&gt;Node36 -->
<g id="edge55" class="edge"><title>Node3&#45;&gt;Node36</title>
<path fill="none" stroke="midnightblue" d="M1063.5,-392.108C1063.5,-383.154 1063.5,-373.323 1063.5,-365.577"/>
<polygon fill="midnightblue" stroke="midnightblue" points="1060,-392.396 1063.5,-402.396 1067,-392.396 1060,-392.396"/>
</g>
<!-- Node5 -->
<g id="node5" class="node"><title>Node5</title>
<g id="a_node5"><a xlink:href="EventManager_8hxx.html" target="_top" xlink:title="src/engine/EventManager.hxx">
<polygon fill="none" stroke="black" points="1098,-73 1098,-92 1255,-92 1255,-73 1098,-73"/>
<text text-anchor="middle" x="1176.5" y="-80" font-family="Helvetica,sans-Serif" font-size="10.00">src/engine/EventManager.hxx</text>
</a>
</g>
</g>
<!-- Node4&#45;&gt;Node5 -->
<g id="edge4" class="edge"><title>Node4&#45;&gt;Node5</title>
<path fill="none" stroke="midnightblue" d="M997.036,-137.01C1040.18,-124.145 1109.11,-103.594 1147.78,-92.0637"/>
<polygon fill="midnightblue" stroke="midnightblue" points="996.032,-133.657 987.449,-139.869 998.032,-140.365 996.032,-133.657"/>
</g>
<!-- Node8 -->
<g id="node8" class="node"><title>Node8</title>
<g id="a_node8"><a xlink:href="Game_8cxx.html" target="_top" xlink:title="src/Game.cxx">
<polygon fill="none" stroke="black" points="1008.5,-6 1008.5,-25 1090.5,-25 1090.5,-6 1008.5,-6"/>
<text text-anchor="middle" x="1049.5" y="-13" font-family="Helvetica,sans-Serif" font-size="10.00">src/Game.cxx</text>
</a>
</g>
</g>
<!-- Node4&#45;&gt;Node8 -->
<g id="edge11" class="edge"><title>Node4&#45;&gt;Node8</title>
<path fill="none" stroke="midnightblue" d="M970.363,-131.292C990.079,-102.693 1028.88,-46.4101 1043.63,-25.0212"/>
<polygon fill="midnightblue" stroke="midnightblue" points="967.265,-129.619 964.471,-139.839 973.028,-133.593 967.265,-129.619"/>
</g>
<!-- Node9 -->
<g id="node9" class="node"><title>Node9</title>
<g id="a_node9"><a xlink:href="ButtonGroup_8cxx.html" target="_top" xlink:title="src/engine/ui/basics\l/ButtonGroup.cxx">
<polygon fill="none" stroke="black" points="491.5,-67.5 491.5,-97.5 601.5,-97.5 601.5,-67.5 491.5,-67.5"/>
<text text-anchor="start" x="499.5" y="-85.5" font-family="Helvetica,sans-Serif" font-size="10.00">src/engine/ui/basics</text>
<text text-anchor="middle" x="546.5" y="-74.5" font-family="Helvetica,sans-Serif" font-size="10.00">/ButtonGroup.cxx</text>
</a>
</g>
</g>
<!-- Node4&#45;&gt;Node9 -->
<g id="edge8" class="edge"><title>Node4&#45;&gt;Node9</title>
<path fill="none" stroke="midnightblue" d="M894.21,-138.357C813.777,-125.667 677.416,-104.154 601.563,-92.1872"/>
<polygon fill="midnightblue" stroke="midnightblue" points="893.791,-141.834 904.215,-139.936 894.882,-134.92 893.791,-141.834"/>
</g>
<!-- Node10 -->
<g id="node10" class="node"><title>Node10</title>
<g id="a_node10"><a xlink:href="Layout_8cxx.html" target="_top" xlink:title="src/engine/ui/basics\l/Layout.cxx">
<polygon fill="none" stroke="black" points="1329.5,-67.5 1329.5,-97.5 1439.5,-97.5 1439.5,-67.5 1329.5,-67.5"/>
<text text-anchor="start" x="1337.5" y="-85.5" font-family="Helvetica,sans-Serif" font-size="10.00">src/engine/ui/basics</text>
<text text-anchor="middle" x="1384.5" y="-74.5" font-family="Helvetica,sans-Serif" font-size="10.00">/Layout.cxx</text>
</a>
</g>
</g>
<!-- Node4&#45;&gt;Node10 -->
<g id="edge9" class="edge"><title>Node4&#45;&gt;Node10</title>
<path fill="none" stroke="midnightblue" d="M1024.54,-138.424C1108.25,-125.651 1251.04,-103.863 1329.26,-91.9287"/>
<polygon fill="midnightblue" stroke="midnightblue" points="1023.99,-134.967 1014.63,-139.936 1025.04,-141.887 1023.99,-134.967"/>
</g>
<!-- Node4&#45;&gt;Node11 -->
<g id="edge10" class="edge"><title>Node4&#45;&gt;Node11</title>
<path fill="none" stroke="midnightblue" d="M1039.07,-140.81C1173.84,-127.946 1442.7,-102.284 1569.82,-90.1506"/>
<polygon fill="midnightblue" stroke="midnightblue" points="1038.44,-137.354 1028.81,-141.789 1039.1,-144.323 1038.44,-137.354"/>
</g>
<!-- Node6 -->
<g id="node6" class="node"><title>Node6</title>
<g id="a_node6"><a xlink:href="Timer_8cxx.html" target="_top" xlink:title="src/engine/basics/Timer.cxx">
<polygon fill="none" stroke="black" points="1109,-6 1109,-25 1256,-25 1256,-6 1109,-6"/>
<text text-anchor="middle" x="1182.5" y="-13" font-family="Helvetica,sans-Serif" font-size="10.00">src/engine/basics/Timer.cxx</text>
</a>
</g>
</g>
<!-- Node5&#45;&gt;Node6 -->
<g id="edge5" class="edge"><title>Node5&#45;&gt;Node6</title>
<path fill="none" stroke="midnightblue" d="M1178.25,-62.537C1179.39,-50.1703 1180.83,-34.6198 1181.7,-25.1273"/>
<polygon fill="midnightblue" stroke="midnightblue" points="1174.74,-62.4544 1177.31,-72.7338 1181.71,-63.0979 1174.74,-62.4544"/>
</g>
<!-- Node5&#45;&gt;Node7 -->
<g id="edge6" class="edge"><title>Node5&#45;&gt;Node7</title>
<path fill="none" stroke="midnightblue" d="M1239.28,-71.2724C1317.58,-58.5165 1450.03,-36.9407 1523.13,-25.0317"/>
<polygon fill="midnightblue" stroke="midnightblue" points="1238.38,-67.8731 1229.07,-72.9355 1239.51,-74.782 1238.38,-67.8731"/>
</g>
<!-- Node5&#45;&gt;Node8 -->
<g id="edge7" class="edge"><title>Node5&#45;&gt;Node8</title>
<path fill="none" stroke="midnightblue" d="M1150.66,-68.2739C1125.5,-55.3999 1088.01,-36.2086 1066.43,-25.1672"/>
<polygon fill="midnightblue" stroke="midnightblue" points="1149.14,-71.428 1159.64,-72.8685 1152.33,-65.1968 1149.14,-71.428"/>
</g>
<!-- Node12&#45;&gt;Node4 -->
<g id="edge13" class="edge"><title>Node12&#45;&gt;Node4</title>
<path fill="none" stroke="midnightblue" d="M1541.31,-201.585C1540.03,-201.382 1538.76,-201.187 1537.5,-201 1355.09,-173.979 1138.05,-159.802 1028.78,-153.901"/>
<polygon fill="midnightblue" stroke="midnightblue" points="1540.8,-205.048 1551.24,-203.278 1541.97,-198.148 1540.8,-205.048"/>
</g>
<!-- Node12&#45;&gt;Node10 -->
<g id="edge14" class="edge"><title>Node12&#45;&gt;Node10</title>
<path fill="none" stroke="midnightblue" d="M1573.92,-196.131C1528.69,-169.237 1447.95,-121.224 1408.09,-97.5247"/>
<polygon fill="midnightblue" stroke="midnightblue" points="1572.36,-199.271 1582.74,-201.374 1575.94,-193.255 1572.36,-199.271"/>
</g>
<!-- Node13&#45;&gt;Node4 -->
<g id="edge16" class="edge"><title>Node13&#45;&gt;Node4</title>
<path fill="none" stroke="midnightblue" d="M212.704,-200.984C466.406,-164.607 757.297,-154.493 888.343,-151.617"/>
<polygon fill="midnightblue" stroke="midnightblue" points="211.95,-197.556 202.556,-202.456 212.955,-204.484 211.95,-197.556"/>
</g>
<!-- Node13&#45;&gt;Node9 -->
<g id="edge17" class="edge"><title>Node13&#45;&gt;Node9</title>
<path fill="none" stroke="midnightblue" d="M159.215,-192.35C170.081,-173.42 188.093,-147.632 211.5,-134 257.942,-106.953 408.795,-92.7869 491.321,-86.8944"/>
<polygon fill="midnightblue" stroke="midnightblue" points="156.065,-190.814 154.328,-201.266 162.204,-194.179 156.065,-190.814"/>
</g>
<!-- Node13&#45;&gt;Node14 -->
<g id="edge18" class="edge"><title>Node13&#45;&gt;Node14</title>
<path fill="none" stroke="midnightblue" d="M123.394,-194.883C111.845,-185.005 98.3096,-173.429 87.9587,-164.577"/>
<polygon fill="midnightblue" stroke="midnightblue" points="121.135,-197.556 131.009,-201.396 125.684,-192.236 121.135,-197.556"/>
</g>
<!-- Node15 -->
<g id="node15" class="node"><title>Node15</title>
<g id="a_node15"><a xlink:href="MenuGroupBuild_8hxx.html" target="_top" xlink:title="src/engine/ui/menuGroups\l/MenuGroupBuild.hxx">
<polygon fill="none" stroke="black" points="0,-67.5 0,-97.5 143,-97.5 143,-67.5 0,-67.5"/>
<text text-anchor="start" x="8" y="-85.5" font-family="Helvetica,sans-Serif" font-size="10.00">src/engine/ui/menuGroups</text>
<text text-anchor="middle" x="71.5" y="-74.5" font-family="Helvetica,sans-Serif" font-size="10.00">/MenuGroupBuild.hxx</text>
</a>
</g>
</g>
<!-- Node14&#45;&gt;Node15 -->
<g id="edge19" class="edge"><title>Node14&#45;&gt;Node15</title>
<path fill="none" stroke="midnightblue" d="M71.5,-124.108C71.5,-115.154 71.5,-105.323 71.5,-97.5765"/>
<polygon fill="midnightblue" stroke="midnightblue" points="68.0001,-124.396 71.5,-134.396 75.0001,-124.396 68.0001,-124.396"/>
</g>
<!-- Node16 -->
<g id="node16" class="node"><title>Node16</title>
<g id="a_node16"><a xlink:href="MenuGroupBuild_8cxx.html" target="_top" xlink:title="src/engine/ui/menuGroups\l/MenuGroupBuild.cxx">
<polygon fill="none" stroke="black" points="0,-0.5 0,-30.5 143,-30.5 143,-0.5 0,-0.5"/>
<text text-anchor="start" x="8" y="-18.5" font-family="Helvetica,sans-Serif" font-size="10.00">src/engine/ui/menuGroups</text>
<text text-anchor="middle" x="71.5" y="-7.5" font-family="Helvetica,sans-Serif" font-size="10.00">/MenuGroupBuild.cxx</text>
</a>
</g>
</g>
<!-- Node15&#45;&gt;Node16 -->
<g id="edge20" class="edge"><title>Node15&#45;&gt;Node16</title>
<path fill="none" stroke="midnightblue" d="M71.5,-57.1081C71.5,-48.1539 71.5,-38.3227 71.5,-30.5765"/>
<polygon fill="midnightblue" stroke="midnightblue" points="68.0001,-57.3959 71.5,-67.396 75.0001,-57.396 68.0001,-57.3959"/>
</g>
<!-- Node17&#45;&gt;Node4 -->
<g id="edge23" class="edge"><title>Node17&#45;&gt;Node4</title>
<path fill="none" stroke="midnightblue" d="M339.559,-266.853C397.765,-253.333 473.148,-235.439 479.5,-232 497.196,-222.42 494.238,-209.452 512.5,-201 577.65,-170.848 780.05,-157.939 888.388,-153.072"/>
<polygon fill="midnightblue" stroke="midnightblue" points="338.597,-263.483 329.646,-269.152 340.178,-270.302 338.597,-263.483"/>
</g>
<!-- Node17&#45;&gt;Node13 -->
<g id="edge22" class="edge"><title>Node17&#45;&gt;Node13</title>
<path fill="none" stroke="midnightblue" d="M235.663,-263.714C216.106,-253.463 192.298,-240.983 174.354,-231.577"/>
<polygon fill="midnightblue" stroke="midnightblue" points="234.112,-266.853 244.594,-268.396 237.362,-260.653 234.112,-266.853"/>
</g>
<!-- Node18 -->
<g id="node18" class="node"><title>Node18</title>
<g id="a_node18"><a xlink:href="Button_8cxx.html" target="_top" xlink:title="src/engine/ui/widgets\l/Button.cxx">
<polygon fill="none" stroke="black" points="354.5,-201.5 354.5,-231.5 470.5,-231.5 470.5,-201.5 354.5,-201.5"/>
<text text-anchor="start" x="362.5" y="-219.5" font-family="Helvetica,sans-Serif" font-size="10.00">src/engine/ui/widgets</text>
<text text-anchor="middle" x="412.5" y="-208.5" font-family="Helvetica,sans-Serif" font-size="10.00">/Button.cxx</text>
</a>
</g>
</g>
<!-- Node17&#45;&gt;Node18 -->
<g id="edge24" class="edge"><title>Node17&#45;&gt;Node18</title>
<path fill="none" stroke="midnightblue" d="M311.348,-264.131C333.752,-253.802 361.284,-241.11 381.965,-231.577"/>
<polygon fill="midnightblue" stroke="midnightblue" points="309.711,-261.031 302.095,-268.396 312.642,-267.388 309.711,-261.031"/>
</g>
<!-- Node19&#45;&gt;Node4 -->
<g id="edge33" class="edge"><title>Node19&#45;&gt;Node4</title>
<path fill="none" stroke="midnightblue" d="M634.917,-326.002C649.532,-292.693 680.93,-232.322 727.5,-201 775.104,-168.983 839.573,-156.873 888.308,-152.476"/>
<polygon fill="midnightblue" stroke="midnightblue" points="631.609,-324.836 630.922,-335.408 638.052,-327.573 631.609,-324.836"/>
</g>
<!-- Node19&#45;&gt;Node17 -->
<g id="edge26" class="edge"><title>Node19&#45;&gt;Node17</title>
<path fill="none" stroke="midnightblue" d="M557.202,-338.252C498.966,-328.477 413.083,-313.627 338.5,-299 335.58,-298.427 332.592,-297.828 329.576,-297.214"/>
<polygon fill="midnightblue" stroke="midnightblue" points="556.944,-341.758 567.384,-339.957 558.1,-334.854 556.944,-341.758"/>
</g>
<!-- Node19&#45;&gt;Node20 -->
<g id="edge27" class="edge"><title>Node19&#45;&gt;Node20</title>
<path fill="none" stroke="midnightblue" d="M568.231,-332.58C532.499,-322.022 487.043,-308.592 453.26,-298.611"/>
<polygon fill="midnightblue" stroke="midnightblue" points="567.452,-335.999 578.034,-335.476 569.436,-329.286 567.452,-335.999"/>
</g>
<!-- Node23 -->
<g id="node23" class="node"><title>Node23</title>
<g id="a_node23"><a xlink:href="TextField_8cxx.html" target="_top" xlink:title="src/engine/ui/widgets\l/TextField.cxx">
<polygon fill="none" stroke="black" points="564.5,-201.5 564.5,-231.5 680.5,-231.5 680.5,-201.5 564.5,-201.5"/>
<text text-anchor="start" x="572.5" y="-219.5" font-family="Helvetica,sans-Serif" font-size="10.00">src/engine/ui/widgets</text>
<text text-anchor="middle" x="622.5" y="-208.5" font-family="Helvetica,sans-Serif" font-size="10.00">/TextField.cxx</text>
</a>
</g>
</g>
<!-- Node19&#45;&gt;Node23 -->
<g id="edge38" class="edge"><title>Node19&#45;&gt;Node23</title>
<path fill="none" stroke="midnightblue" d="M624.944,-325.024C624.318,-297.512 623.325,-253.789 622.819,-231.525"/>
<polygon fill="midnightblue" stroke="midnightblue" points="621.453,-325.456 625.179,-335.374 628.451,-325.297 621.453,-325.456"/>
</g>
<!-- Node19&#45;&gt;Node24 -->
<g id="edge34" class="edge"><title>Node19&#45;&gt;Node24</title>
<path fill="none" stroke="midnightblue" d="M661.337,-330.714C680.894,-320.463 704.702,-307.983 722.646,-298.577"/>
<polygon fill="midnightblue" stroke="midnightblue" points="659.638,-327.653 652.406,-335.396 662.888,-333.853 659.638,-327.653"/>
</g>
<!-- Node26 -->
<g id="node26" class="node"><title>Node26</title>
<g id="a_node26"><a xlink:href="Text_8cxx.html" target="_top" xlink:title="src/engine/ui/widgets\l/Text.cxx">
<polygon fill="none" stroke="black" points="481.5,-268.5 481.5,-298.5 597.5,-298.5 597.5,-268.5 481.5,-268.5"/>
<text text-anchor="start" x="489.5" y="-286.5" font-family="Helvetica,sans-Serif" font-size="10.00">src/engine/ui/widgets</text>
<text text-anchor="middle" x="539.5" y="-275.5" font-family="Helvetica,sans-Serif" font-size="10.00">/Text.cxx</text>
</a>
</g>
</g>
<!-- Node19&#45;&gt;Node26 -->
<g id="edge37" class="edge"><title>Node19&#45;&gt;Node26</title>
<path fill="none" stroke="midnightblue" d="M598.599,-329.168C585.448,-319.228 569.95,-307.514 558.124,-298.577"/>
<polygon fill="midnightblue" stroke="midnightblue" points="596.751,-332.158 606.839,-335.396 600.972,-326.574 596.751,-332.158"/>
</g>
<!-- Node20&#45;&gt;Node4 -->
<g id="edge31" class="edge"><title>Node20&#45;&gt;Node4</title>
<path fill="none" stroke="midnightblue" d="M448.969,-264.173C468.782,-255.269 492.276,-243.926 512.5,-232 532.794,-220.033 533.574,-209.622 555.5,-201 614.477,-177.809 789.317,-162.288 888.237,-155.099"/>
<polygon fill="midnightblue" stroke="midnightblue" points="447.293,-261.087 439.569,-268.339 450.129,-267.487 447.293,-261.087"/>
</g>
<!-- Node20&#45;&gt;Node21 -->
<g id="edge28" class="edge"><title>Node20&#45;&gt;Node21</title>
<path fill="none" stroke="midnightblue" d="M368.796,-263.714C348.766,-253.463 324.381,-240.983 306.003,-231.577"/>
<polygon fill="midnightblue" stroke="midnightblue" points="367.446,-266.956 377.943,-268.396 370.636,-260.724 367.446,-266.956"/>
</g>
<!-- Node20&#45;&gt;Node23 -->
<g id="edge32" class="edge"><title>Node20&#45;&gt;Node23</title>
<path fill="none" stroke="midnightblue" d="M461.988,-265.58C497.233,-255.022 542.069,-241.592 575.391,-231.611"/>
<polygon fill="midnightblue" stroke="midnightblue" points="460.894,-262.254 452.319,-268.476 462.902,-268.959 460.894,-262.254"/>
</g>
<!-- Node21&#45;&gt;Node4 -->
<g id="edge29" class="edge"><title>Node21&#45;&gt;Node4</title>
<path fill="none" stroke="midnightblue" d="M346.421,-200.995C548.382,-171.504 775.856,-158.421 888.29,-153.292"/>
<polygon fill="midnightblue" stroke="midnightblue" points="345.901,-197.534 336.519,-202.457 346.923,-204.459 345.901,-197.534"/>
</g>
<!-- Node22 -->
<g id="node22" class="node"><title>Node22</title>
<g id="a_node22"><a xlink:href="Combobox_8cxx.html" target="_top" xlink:title="src/engine/ui/widgets\l/Combobox.cxx">
<polygon fill="none" stroke="black" points="220.5,-134.5 220.5,-164.5 336.5,-164.5 336.5,-134.5 220.5,-134.5"/>
<text text-anchor="start" x="228.5" y="-152.5" font-family="Helvetica,sans-Serif" font-size="10.00">src/engine/ui/widgets</text>
<text text-anchor="middle" x="278.5" y="-141.5" font-family="Helvetica,sans-Serif" font-size="10.00">/Combobox.cxx</text>
</a>
</g>
</g>
<!-- Node21&#45;&gt;Node22 -->
<g id="edge30" class="edge"><title>Node21&#45;&gt;Node22</title>
<path fill="none" stroke="midnightblue" d="M278.5,-191.108C278.5,-182.154 278.5,-172.323 278.5,-164.577"/>
<polygon fill="midnightblue" stroke="midnightblue" points="275,-191.396 278.5,-201.396 282,-191.396 275,-191.396"/>
</g>
<!-- Node24&#45;&gt;Node4 -->
<g id="edge35" class="edge"><title>Node24&#45;&gt;Node4</title>
<path fill="none" stroke="midnightblue" d="M796.86,-264.561C817.397,-255.928 841.312,-244.69 861.5,-232 897.254,-209.525 933.939,-174.919 950.048,-159.02"/>
<polygon fill="midnightblue" stroke="midnightblue" points="795.3,-261.418 787.385,-268.462 797.965,-267.891 795.3,-261.418"/>
</g>
<!-- Node25 -->
<g id="node25" class="node"><title>Node25</title>
<g id="a_node25"><a xlink:href="Tooltip_8cxx.html" target="_top" xlink:title="src/engine/ui/widgets\l/Tooltip.cxx">
<polygon fill="none" stroke="black" points="736.5,-201.5 736.5,-231.5 852.5,-231.5 852.5,-201.5 736.5,-201.5"/>
<text text-anchor="start" x="744.5" y="-219.5" font-family="Helvetica,sans-Serif" font-size="10.00">src/engine/ui/widgets</text>
<text text-anchor="middle" x="794.5" y="-208.5" font-family="Helvetica,sans-Serif" font-size="10.00">/Tooltip.cxx</text>
</a>
</g>
</g>
<!-- Node24&#45;&gt;Node25 -->
<g id="edge36" class="edge"><title>Node24&#45;&gt;Node25</title>
<path fill="none" stroke="midnightblue" d="M764.968,-260.157C771.53,-250.679 778.979,-239.919 784.755,-231.577"/>
<polygon fill="midnightblue" stroke="midnightblue" points="762.079,-258.182 759.264,-268.396 767.834,-262.166 762.079,-258.182"/>
</g>
<!-- Node27&#45;&gt;Node4 -->
<g id="edge40" class="edge"><title>Node27&#45;&gt;Node4</title>
<path fill="none" stroke="midnightblue" d="M941.131,-326.205C944.785,-317.831 948.408,-308.183 950.5,-299 962.369,-246.89 960.274,-181.959 959.037,-159.011"/>
<polygon fill="midnightblue" stroke="midnightblue" points="937.925,-324.8 936.917,-335.346 944.282,-327.73 937.925,-324.8"/>
</g>
<!-- Node28 -->
<g id="node28" class="node"><title>Node28</title>
<g id="a_node28"><a xlink:href="Checkbox_8cxx.html" target="_top" xlink:title="src/engine/ui/widgets\l/Checkbox.cxx">
<polygon fill="none" stroke="black" points="825.5,-268.5 825.5,-298.5 941.5,-298.5 941.5,-268.5 825.5,-268.5"/>
<text text-anchor="start" x="833.5" y="-286.5" font-family="Helvetica,sans-Serif" font-size="10.00">src/engine/ui/widgets</text>
<text text-anchor="middle" x="883.5" y="-275.5" font-family="Helvetica,sans-Serif" font-size="10.00">/Checkbox.cxx</text>
</a>
</g>
</g>
<!-- Node27&#45;&gt;Node28 -->
<g id="edge41" class="edge"><title>Node27&#45;&gt;Node28</title>
<path fill="none" stroke="midnightblue" d="M913.688,-327.157C906.98,-317.679 899.365,-306.919 893.462,-298.577"/>
<polygon fill="midnightblue" stroke="midnightblue" points="910.885,-329.255 919.519,-335.396 916.599,-325.211 910.885,-329.255"/>
</g>
<!-- Node29&#45;&gt;Node4 -->
<g id="edge45" class="edge"><title>Node29&#45;&gt;Node4</title>
<path fill="none" stroke="midnightblue" d="M1257.12,-331.091C1271.87,-323.564 1285.9,-313.181 1294.5,-299 1301.65,-287.221 1302.47,-279.236 1294.5,-268 1234.33,-183.209 1108.11,-159.118 1028.66,-152.565"/>
<polygon fill="midnightblue" stroke="midnightblue" points="1255.45,-328.005 1247.88,-335.416 1258.42,-334.344 1255.45,-328.005"/>
</g>
<!-- Node30 -->
<g id="node30" class="node"><title>Node30</title>
<g id="a_node30"><a xlink:href="Frame_8cxx.html" target="_top" xlink:title="src/engine/ui/widgets\l/Frame.cxx">
<polygon fill="none" stroke="black" points="1169.5,-268.5 1169.5,-298.5 1285.5,-298.5 1285.5,-268.5 1169.5,-268.5"/>
<text text-anchor="start" x="1177.5" y="-286.5" font-family="Helvetica,sans-Serif" font-size="10.00">src/engine/ui/widgets</text>
<text text-anchor="middle" x="1227.5" y="-275.5" font-family="Helvetica,sans-Serif" font-size="10.00">/Frame.cxx</text>
</a>
</g>
</g>
<!-- Node29&#45;&gt;Node30 -->
<g id="edge46" class="edge"><title>Node29&#45;&gt;Node30</title>
<path fill="none" stroke="midnightblue" d="M1208.22,-326.283C1212.49,-317.022 1217.27,-306.663 1221,-298.577"/>
<polygon fill="midnightblue" stroke="midnightblue" points="1205.02,-324.85 1204.01,-335.396 1211.38,-327.783 1205.02,-324.85"/>
</g>
<!-- Node31&#45;&gt;Node4 -->
<g id="edge49" class="edge"><title>Node31&#45;&gt;Node4</title>
<path fill="none" stroke="midnightblue" d="M1399.44,-334.703C1443.95,-321.708 1489.91,-299.858 1466.5,-268 1415.11,-198.061 1155.7,-166.972 1028.72,-155.772"/>
<polygon fill="midnightblue" stroke="midnightblue" points="1398.39,-331.363 1389.69,-337.421 1400.27,-338.106 1398.39,-331.363"/>
</g>
<!-- Node32 -->
<g id="node32" class="node"><title>Node32</title>
<g id="a_node32"><a xlink:href="Slider_8cxx.html" target="_top" xlink:title="src/engine/ui/widgets\l/Slider.cxx">
<polygon fill="none" stroke="black" points="1341.5,-268.5 1341.5,-298.5 1457.5,-298.5 1457.5,-268.5 1341.5,-268.5"/>
<text text-anchor="start" x="1349.5" y="-286.5" font-family="Helvetica,sans-Serif" font-size="10.00">src/engine/ui/widgets</text>
<text text-anchor="middle" x="1399.5" y="-275.5" font-family="Helvetica,sans-Serif" font-size="10.00">/Slider.cxx</text>
</a>
</g>
</g>
<!-- Node31&#45;&gt;Node32 -->
<g id="edge50" class="edge"><title>Node31&#45;&gt;Node32</title>
<path fill="none" stroke="midnightblue" d="M1353.67,-328.311C1363.87,-318.561 1375.69,-307.259 1384.77,-298.577"/>
<polygon fill="midnightblue" stroke="midnightblue" points="1351.07,-325.956 1346.25,-335.396 1355.9,-331.016 1351.07,-325.956"/>
</g>
<!-- Node35 -->
<g id="node35" class="node"><title>Node35</title>
<g id="a_node35"><a xlink:href="Bar_8cxx.html" target="_top" xlink:title="src/engine/ui/widgets\l/Bar.cxx">
<polygon fill="none" stroke="black" points="1611.5,-268.5 1611.5,-298.5 1727.5,-298.5 1727.5,-268.5 1611.5,-268.5"/>
<text text-anchor="start" x="1619.5" y="-286.5" font-family="Helvetica,sans-Serif" font-size="10.00">src/engine/ui/widgets</text>
<text text-anchor="middle" x="1669.5" y="-275.5" font-family="Helvetica,sans-Serif" font-size="10.00">/Bar.cxx</text>
</a>
</g>
</g>
<!-- Node34&#45;&gt;Node35 -->
<g id="edge54" class="edge"><title>Node34&#45;&gt;Node35</title>
<path fill="none" stroke="midnightblue" d="M1669.5,-325.108C1669.5,-316.154 1669.5,-306.323 1669.5,-298.577"/>
<polygon fill="midnightblue" stroke="midnightblue" points="1666,-325.396 1669.5,-335.396 1673,-325.396 1666,-325.396"/>
</g>
<!-- Node36&#45;&gt;Node8 -->
<g id="edge57" class="edge"><title>Node36&#45;&gt;Node8</title>
<path fill="none" stroke="midnightblue" d="M1042.89,-327.729C1036.33,-319.395 1029.9,-309.382 1026.5,-299 1022.22,-285.905 1025.77,-281.758 1026.5,-268 1028.95,-222.027 1033.2,-210.837 1037.5,-165 1042.48,-111.95 1047.21,-48.1205 1048.87,-25.2106"/>
<polygon fill="midnightblue" stroke="midnightblue" points="1040.27,-330.054 1049.39,-335.455 1045.63,-325.549 1040.27,-330.054"/>
</g>
<!-- Node37 -->
<g id="node37" class="node"><title>Node37</title>
<g id="a_node37"><a xlink:href="Image_8cxx.html" target="_top" xlink:title="src/engine/ui/widgets\l/Image.cxx">
<polygon fill="none" stroke="black" points="1035.5,-268.5 1035.5,-298.5 1151.5,-298.5 1151.5,-268.5 1035.5,-268.5"/>
<text text-anchor="start" x="1043.5" y="-286.5" font-family="Helvetica,sans-Serif" font-size="10.00">src/engine/ui/widgets</text>
<text text-anchor="middle" x="1093.5" y="-275.5" font-family="Helvetica,sans-Serif" font-size="10.00">/Image.cxx</text>
</a>
</g>
</g>
<!-- Node36&#45;&gt;Node37 -->
<g id="edge56" class="edge"><title>Node36&#45;&gt;Node37</title>
<path fill="none" stroke="midnightblue" d="M1074.22,-326.283C1078.49,-317.022 1083.27,-306.663 1087,-298.577"/>
<polygon fill="midnightblue" stroke="midnightblue" points="1071.02,-324.85 1070.01,-335.396 1077.38,-327.783 1071.02,-324.85"/>
</g>
</g>
</svg>
