<?xml version="1.0" encoding="UTF-8" standalone="no"?>
<!DOCTYPE svg PUBLIC "-//W3C//DTD SVG 1.1//EN"
 "http://www.w3.org/Graphics/SVG/1.1/DTD/svg11.dtd">
<!-- Generated by graphviz version 2.38.0 (20140413.2041)
 -->
<!-- Title: src/engine/map/MapLayers.hxx Pages: 1 -->
<svg width="173pt" height="140pt"
 viewBox="0.00 0.00 173.00 140.00" xmlns="http://www.w3.org/2000/svg" xmlns:xlink="http://www.w3.org/1999/xlink">
<g id="graph0" class="graph" transform="scale(1 1) rotate(0) translate(4 136)">
<title>src/engine/map/MapLayers.hxx</title>
<!-- Node1 -->
<g id="node1" class="node"><title>Node1</title>
<polygon fill="#bfbfbf" stroke="black" points="0,-112.5 0,-131.5 165,-131.5 165,-112.5 0,-112.5"/>
<text text-anchor="middle" x="82.5" y="-119.5" font-family="Helvetica,sans-Serif" font-size="10.00">src/engine/map/MapLayers.hxx</text>
</g>
<!-- Node2 -->
<g id="node2" class="node"><title>Node2</title>
<g id="a_node2"><a xlink:href="enums_8hxx.html" target="_top" xlink:title="../common/enums.hxx">
<polygon fill="none" stroke="black" points="20.5,-56.5 20.5,-75.5 144.5,-75.5 144.5,-56.5 20.5,-56.5"/>
<text text-anchor="middle" x="82.5" y="-63.5" font-family="Helvetica,sans-Serif" font-size="10.00">../common/enums.hxx</text>
</a>
</g>
</g>
<!-- Node1&#45;&gt;Node2 -->
<g id="edge1" class="edge"><title>Node1&#45;&gt;Node2</title>
<path fill="none" stroke="midnightblue" d="M82.5,-112.083C82.5,-105.006 82.5,-94.8611 82.5,-85.9865"/>
<polygon fill="midnightblue" stroke="midnightblue" points="86.0001,-85.751 82.5,-75.7511 79.0001,-85.7511 86.0001,-85.751"/>
</g>
<!-- Node3 -->
<g id="node3" class="node"><title>Node3</title>
<polygon fill="none" stroke="#bfbfbf" points="55,-0.5 55,-19.5 110,-19.5 110,-0.5 55,-0.5"/>
<text text-anchor="middle" x="82.5" y="-7.5" font-family="Helvetica,sans-Serif" font-size="10.00">stddef.h</text>
</g>
<!-- Node2&#45;&gt;Node3 -->
<g id="edge2" class="edge"><title>Node2&#45;&gt;Node3</title>
<path fill="none" stroke="midnightblue" d="M82.5,-56.083C82.5,-49.0059 82.5,-38.8611 82.5,-29.9865"/>
<polygon fill="midnightblue" stroke="midnightblue" points="86.0001,-29.751 82.5,-19.7511 79.0001,-29.7511 86.0001,-29.751"/>
</g>
</g>
</svg>
