<?xml version="1.0" encoding="UTF-8" standalone="no"?>
<!DOCTYPE svg PUBLIC "-//W3C//DTD SVG 1.1//EN"
 "http://www.w3.org/Graphics/SVG/1.1/DTD/svg11.dtd">
<!-- Generated by graphviz version 2.38.0 (20140413.2041)
 -->
<!-- Title: src/engine/GameObjects/MapNode.hxx Pages: 1 -->
<svg width="1406pt" height="330pt"
 viewBox="0.00 0.00 1405.50 330.00" xmlns="http://www.w3.org/2000/svg" xmlns:xlink="http://www.w3.org/1999/xlink">
<g id="graph0" class="graph" transform="scale(1 1) rotate(0) translate(4 326)">
<title>src/engine/GameObjects/MapNode.hxx</title>
<!-- Node1 -->
<g id="node1" class="node"><title>Node1</title>
<polygon fill="#bfbfbf" stroke="black" points="992,-291.5 992,-321.5 1126,-321.5 1126,-291.5 992,-291.5"/>
<text text-anchor="start" x="1000" y="-309.5" font-family="Helvetica,sans-Serif" font-size="10.00">src/engine/GameObjects</text>
<text text-anchor="middle" x="1059" y="-298.5" font-family="Helvetica,sans-Serif" font-size="10.00">/MapNode.hxx</text>
</g>
<!-- Node2 -->
<g id="node2" class="node"><title>Node2</title>
<g id="a_node2"><a xlink:href="Map_8hxx.html" target="_top" xlink:title="src/engine/Map.hxx">
<polygon fill="none" stroke="black" points="817.5,-168.5 817.5,-187.5 926.5,-187.5 926.5,-168.5 817.5,-168.5"/>
<text text-anchor="middle" x="872" y="-175.5" font-family="Helvetica,sans-Serif" font-size="10.00">src/engine/Map.hxx</text>
</a>
</g>
</g>
<!-- Node1&#45;&gt;Node2 -->
<g id="edge1" class="edge"><title>Node1&#45;&gt;Node2</title>
<path fill="none" stroke="midnightblue" d="M982.004,-299.033C949.881,-292.517 914.625,-279.763 891,-255 873.068,-236.205 871.318,-203.15 871.585,-187.576"/>
<polygon fill="midnightblue" stroke="midnightblue" points="981.386,-302.478 991.857,-300.861 982.663,-295.595 981.386,-302.478"/>
</g>
<!-- Node13 -->
<g id="node13" class="node"><title>Node13</title>
<g id="a_node13"><a xlink:href="TerrainGenerator_8hxx.html" target="_top" xlink:title="src/engine/map/TerrainGenerator.hxx">
<polygon fill="none" stroke="black" points="900.5,-230 900.5,-249 1093.5,-249 1093.5,-230 900.5,-230"/>
<text text-anchor="middle" x="997" y="-237" font-family="Helvetica,sans-Serif" font-size="10.00">src/engine/map/TerrainGenerator.hxx</text>
</a>
</g>
</g>
<!-- Node1&#45;&gt;Node13 -->
<g id="edge15" class="edge"><title>Node1&#45;&gt;Node13</title>
<path fill="none" stroke="midnightblue" d="M1038.49,-283.997C1027.17,-272.132 1013.74,-258.052 1005.29,-249.195"/>
<polygon fill="midnightblue" stroke="midnightblue" points="1036.11,-286.576 1045.55,-291.396 1041.18,-281.744 1036.11,-286.576"/>
</g>
<!-- Node14 -->
<g id="node14" class="node"><title>Node14</title>
<g id="a_node14"><a xlink:href="JsonSerialization_8hxx.html" target="_top" xlink:title="src/engine/common/JsonSerialization.hxx">
<polygon fill="none" stroke="black" points="1016,-168.5 1016,-187.5 1228,-187.5 1228,-168.5 1016,-168.5"/>
<text text-anchor="middle" x="1122" y="-175.5" font-family="Helvetica,sans-Serif" font-size="10.00">src/engine/common/JsonSerialization.hxx</text>
</a>
</g>
</g>
<!-- Node1&#45;&gt;Node14 -->
<g id="edge22" class="edge"><title>Node1&#45;&gt;Node14</title>
<path fill="none" stroke="midnightblue" d="M1081.16,-283.852C1088.7,-275.452 1096.59,-265.365 1102,-255 1113.75,-232.506 1118.98,-202.579 1120.97,-187.894"/>
<polygon fill="midnightblue" stroke="midnightblue" points="1078.42,-281.658 1074.12,-291.343 1083.52,-286.45 1078.42,-281.658"/>
</g>
<!-- Node17 -->
<g id="node17" class="node"><title>Node17</title>
<g id="a_node17"><a xlink:href="MapNode_8cxx.html" target="_top" xlink:title="src/engine/GameObjects\l/MapNode.cxx">
<polygon fill="none" stroke="black" points="1150,-224.5 1150,-254.5 1284,-254.5 1284,-224.5 1150,-224.5"/>
<text text-anchor="start" x="1158" y="-242.5" font-family="Helvetica,sans-Serif" font-size="10.00">src/engine/GameObjects</text>
<text text-anchor="middle" x="1217" y="-231.5" font-family="Helvetica,sans-Serif" font-size="10.00">/MapNode.cxx</text>
</a>
</g>
</g>
<!-- Node1&#45;&gt;Node17 -->
<g id="edge23" class="edge"><title>Node1&#45;&gt;Node17</title>
<path fill="none" stroke="midnightblue" d="M1102.65,-287.544C1127.93,-277.143 1159.3,-264.238 1182.78,-254.577"/>
<polygon fill="midnightblue" stroke="midnightblue" points="1101.2,-284.355 1093.28,-291.396 1103.86,-290.828 1101.2,-284.355"/>
</g>
<!-- Node3 -->
<g id="node3" class="node"><title>Node3</title>
<g id="a_node3"><a xlink:href="Engine_8hxx.html" target="_top" xlink:title="src/engine/Engine.hxx">
<polygon fill="none" stroke="black" points="408.5,-112.5 408.5,-131.5 529.5,-131.5 529.5,-112.5 408.5,-112.5"/>
<text text-anchor="middle" x="469" y="-119.5" font-family="Helvetica,sans-Serif" font-size="10.00">src/engine/Engine.hxx</text>
</a>
</g>
</g>
<!-- Node2&#45;&gt;Node3 -->
<g id="edge2" class="edge"><title>Node2&#45;&gt;Node3</title>
<path fill="none" stroke="midnightblue" d="M807.228,-168.321C730.666,-158.062 604.255,-141.123 529.573,-131.116"/>
<polygon fill="midnightblue" stroke="midnightblue" points="806.854,-171.802 817.23,-169.661 807.784,-164.864 806.854,-171.802"/>
</g>
<!-- Node8 -->
<g id="node8" class="node"><title>Node8</title>
<g id="a_node8"><a xlink:href="EventManager_8cxx.html" target="_top" xlink:title="src/engine/EventManager.cxx">
<polygon fill="none" stroke="black" points="677,-0.5 677,-19.5 833,-19.5 833,-0.5 677,-0.5"/>
<text text-anchor="middle" x="755" y="-7.5" font-family="Helvetica,sans-Serif" font-size="10.00">src/engine/EventManager.cxx</text>
</a>
</g>
</g>
<!-- Node2&#45;&gt;Node8 -->
<g id="edge12" class="edge"><title>Node2&#45;&gt;Node8</title>
<path fill="none" stroke="midnightblue" d="M873.981,-158.073C875.639,-132.309 874.799,-85.9832 852,-56 837.842,-37.3806 814.123,-26.1884 793.684,-19.6229"/>
<polygon fill="midnightblue" stroke="midnightblue" points="870.469,-158.071 873.114,-168.331 877.444,-158.661 870.469,-158.071"/>
</g>
<!-- Node11 -->
<g id="node11" class="node"><title>Node11</title>
<g id="a_node11"><a xlink:href="UIManager_8cxx.html" target="_top" xlink:title="src/engine/UIManager.cxx">
<polygon fill="none" stroke="black" points="704.5,-56.5 704.5,-75.5 843.5,-75.5 843.5,-56.5 704.5,-56.5"/>
<text text-anchor="middle" x="774" y="-63.5" font-family="Helvetica,sans-Serif" font-size="10.00">src/engine/UIManager.cxx</text>
</a>
</g>
</g>
<!-- Node2&#45;&gt;Node11 -->
<g id="edge14" class="edge"><title>Node2&#45;&gt;Node11</title>
<path fill="none" stroke="midnightblue" d="M857.653,-160.897C836.585,-137.249 798.009,-93.9493 781.654,-75.5914"/>
<polygon fill="midnightblue" stroke="midnightblue" points="855.045,-163.23 864.31,-168.368 860.271,-158.574 855.045,-163.23"/>
</g>
<!-- Node12 -->
<g id="node12" class="node"><title>Node12</title>
<g id="a_node12"><a xlink:href="Map_8cxx.html" target="_top" xlink:title="src/engine/Map.cxx">
<polygon fill="none" stroke="black" points="900,-112.5 900,-131.5 1008,-131.5 1008,-112.5 900,-112.5"/>
<text text-anchor="middle" x="954" y="-119.5" font-family="Helvetica,sans-Serif" font-size="10.00">src/engine/Map.cxx</text>
</a>
</g>
</g>
<!-- Node2&#45;&gt;Node12 -->
<g id="edge13" class="edge"><title>Node2&#45;&gt;Node12</title>
<path fill="none" stroke="midnightblue" d="M893.833,-162.622C908.813,-152.757 928.197,-139.992 940.858,-131.655"/>
<polygon fill="midnightblue" stroke="midnightblue" points="891.601,-159.901 885.175,-168.324 895.451,-165.747 891.601,-159.901"/>
</g>
<!-- Node4 -->
<g id="node4" class="node"><title>Node4</title>
<g id="a_node4"><a xlink:href="Camera_8cxx.html" target="_top" xlink:title="src/engine/basics/Camera.cxx">
<polygon fill="none" stroke="black" points="213.5,-56.5 213.5,-75.5 372.5,-75.5 372.5,-56.5 213.5,-56.5"/>
<text text-anchor="middle" x="293" y="-63.5" font-family="Helvetica,sans-Serif" font-size="10.00">src/engine/basics/Camera.cxx</text>
</a>
</g>
</g>
<!-- Node3&#45;&gt;Node4 -->
<g id="edge3" class="edge"><title>Node3&#45;&gt;Node4</title>
<path fill="none" stroke="midnightblue" d="M431.311,-109.436C398.128,-99.2551 350.572,-84.664 320.757,-75.5164"/>
<polygon fill="midnightblue" stroke="midnightblue" points="430.525,-112.856 441.112,-112.444 432.579,-106.164 430.525,-112.856"/>
</g>
<!-- Node5 -->
<g id="node5" class="node"><title>Node5</title>
<g id="a_node5"><a xlink:href="isoMath_8cxx.html" target="_top" xlink:title="src/engine/basics/isoMath.cxx">
<polygon fill="none" stroke="black" points="0,-56.5 0,-75.5 158,-75.5 158,-56.5 0,-56.5"/>
<text text-anchor="middle" x="79" y="-63.5" font-family="Helvetica,sans-Serif" font-size="10.00">src/engine/basics/isoMath.cxx</text>
</a>
</g>
</g>
<!-- Node3&#45;&gt;Node5 -->
<g id="edge4" class="edge"><title>Node3&#45;&gt;Node5</title>
<path fill="none" stroke="midnightblue" d="M398.386,-111.223C324.805,-101.035 210.665,-85.2306 140.618,-75.5317"/>
<polygon fill="midnightblue" stroke="midnightblue" points="398.105,-114.717 408.49,-112.622 399.065,-107.783 398.105,-114.717"/>
</g>
<!-- Node6 -->
<g id="node6" class="node"><title>Node6</title>
<g id="a_node6"><a xlink:href="EventManager_8hxx.html" target="_top" xlink:title="src/engine/EventManager.hxx">
<polygon fill="none" stroke="black" points="390.5,-56.5 390.5,-75.5 547.5,-75.5 547.5,-56.5 390.5,-56.5"/>
<text text-anchor="middle" x="469" y="-63.5" font-family="Helvetica,sans-Serif" font-size="10.00">src/engine/EventManager.hxx</text>
</a>
</g>
</g>
<!-- Node3&#45;&gt;Node6 -->
<g id="edge5" class="edge"><title>Node3&#45;&gt;Node6</title>
<path fill="none" stroke="midnightblue" d="M469,-101.805C469,-92.9102 469,-82.7798 469,-75.7511"/>
<polygon fill="midnightblue" stroke="midnightblue" points="465.5,-102.083 469,-112.083 472.5,-102.083 465.5,-102.083"/>
</g>
<!-- Node9 -->
<g id="node9" class="node"><title>Node9</title>
<g id="a_node9"><a xlink:href="Game_8cxx.html" target="_top" xlink:title="src/Game.cxx">
<polygon fill="none" stroke="black" points="220,-0.5 220,-19.5 302,-19.5 302,-0.5 220,-0.5"/>
<text text-anchor="middle" x="261" y="-7.5" font-family="Helvetica,sans-Serif" font-size="10.00">src/Game.cxx</text>
</a>
</g>
</g>
<!-- Node3&#45;&gt;Node9 -->
<g id="edge11" class="edge"><title>Node3&#45;&gt;Node9</title>
<path fill="none" stroke="midnightblue" d="M398.264,-118.953C328.362,-115.263 228.429,-104.927 204,-76 186.666,-55.474 221.44,-31.8734 243.927,-19.5331"/>
<polygon fill="midnightblue" stroke="midnightblue" points="398.187,-122.454 408.348,-119.451 398.532,-115.462 398.187,-122.454"/>
</g>
<!-- Node10 -->
<g id="node10" class="node"><title>Node10</title>
<g id="a_node10"><a xlink:href="Engine_8cxx.html" target="_top" xlink:title="src/engine/Engine.cxx">
<polygon fill="none" stroke="black" points="566,-56.5 566,-75.5 686,-75.5 686,-56.5 566,-56.5"/>
<text text-anchor="middle" x="626" y="-63.5" font-family="Helvetica,sans-Serif" font-size="10.00">src/engine/Engine.cxx</text>
</a>
</g>
</g>
<!-- Node3&#45;&gt;Node10 -->
<g id="edge9" class="edge"><title>Node3&#45;&gt;Node10</title>
<path fill="none" stroke="midnightblue" d="M503.389,-109.172C532.952,-99.0039 574.873,-84.5852 601.239,-75.5164"/>
<polygon fill="midnightblue" stroke="midnightblue" points="502.195,-105.881 493.877,-112.444 504.472,-112.501 502.195,-105.881"/>
</g>
<!-- Node3&#45;&gt;Node11 -->
<g id="edge10" class="edge"><title>Node3&#45;&gt;Node11</title>
<path fill="none" stroke="midnightblue" d="M527.378,-110.664C585.018,-100.459 672.115,-85.0386 725.898,-75.5164"/>
<polygon fill="midnightblue" stroke="midnightblue" points="526.565,-107.254 517.328,-112.444 527.785,-114.146 526.565,-107.254"/>
</g>
<!-- Node7 -->
<g id="node7" class="node"><title>Node7</title>
<g id="a_node7"><a xlink:href="Timer_8cxx.html" target="_top" xlink:title="src/engine/basics/Timer.cxx">
<polygon fill="none" stroke="black" points="395.5,-0.5 395.5,-19.5 542.5,-19.5 542.5,-0.5 395.5,-0.5"/>
<text text-anchor="middle" x="469" y="-7.5" font-family="Helvetica,sans-Serif" font-size="10.00">src/engine/basics/Timer.cxx</text>
</a>
</g>
</g>
<!-- Node6&#45;&gt;Node7 -->
<g id="edge6" class="edge"><title>Node6&#45;&gt;Node7</title>
<path fill="none" stroke="midnightblue" d="M469,-45.8045C469,-36.9102 469,-26.7798 469,-19.7511"/>
<polygon fill="midnightblue" stroke="midnightblue" points="465.5,-46.083 469,-56.083 472.5,-46.083 465.5,-46.083"/>
</g>
<!-- Node6&#45;&gt;Node8 -->
<g id="edge7" class="edge"><title>Node6&#45;&gt;Node8</title>
<path fill="none" stroke="midnightblue" d="M524.414,-54.5371C578.466,-44.3316 659.671,-28.9992 709.894,-19.5164"/>
<polygon fill="midnightblue" stroke="midnightblue" points="523.495,-51.1489 514.318,-56.4435 524.793,-58.0274 523.495,-51.1489"/>
</g>
<!-- Node6&#45;&gt;Node9 -->
<g id="edge8" class="edge"><title>Node6&#45;&gt;Node9</title>
<path fill="none" stroke="midnightblue" d="M426.222,-53.8941C386.942,-43.6966 329.571,-28.802 293.804,-19.5164"/>
<polygon fill="midnightblue" stroke="midnightblue" points="425.483,-57.3183 436.042,-56.4435 427.242,-50.5429 425.483,-57.3183"/>
</g>
<!-- Node13&#45;&gt;Node2 -->
<g id="edge16" class="edge"><title>Node13&#45;&gt;Node2</title>
<path fill="none" stroke="midnightblue" d="M970.055,-225.674C945.8,-214.129 910.839,-197.487 889.876,-187.509"/>
<polygon fill="midnightblue" stroke="midnightblue" points="968.557,-228.837 979.091,-229.975 971.566,-222.517 968.557,-228.837"/>
</g>
<!-- Node13&#45;&gt;Node14 -->
<g id="edge17" class="edge"><title>Node13&#45;&gt;Node14</title>
<path fill="none" stroke="midnightblue" d="M1023.94,-225.674C1048.2,-214.129 1083.16,-197.487 1104.12,-187.509"/>
<polygon fill="midnightblue" stroke="midnightblue" points="1022.43,-222.517 1014.91,-229.975 1025.44,-228.837 1022.43,-222.517"/>
</g>
<!-- Node16 -->
<g id="node16" class="node"><title>Node16</title>
<g id="a_node16"><a xlink:href="TerrainGenerator_8cxx.html" target="_top" xlink:title="src/engine/map/TerrainGenerator.cxx">
<polygon fill="none" stroke="black" points="1026,-112.5 1026,-131.5 1218,-131.5 1218,-112.5 1026,-112.5"/>
<text text-anchor="middle" x="1122" y="-119.5" font-family="Helvetica,sans-Serif" font-size="10.00">src/engine/map/TerrainGenerator.cxx</text>
</a>
</g>
</g>
<!-- Node13&#45;&gt;Node16 -->
<g id="edge21" class="edge"><title>Node13&#45;&gt;Node16</title>
<path fill="none" stroke="midnightblue" d="M994.801,-219.626C994.045,-204.152 995.519,-182.51 1007,-168 1022.1,-148.917 1046.41,-137.91 1068.81,-131.568"/>
<polygon fill="midnightblue" stroke="midnightblue" points="991.315,-219.94 995.634,-229.614 998.29,-219.357 991.315,-219.94"/>
</g>
<!-- Node14&#45;&gt;Node12 -->
<g id="edge20" class="edge"><title>Node14&#45;&gt;Node12</title>
<path fill="none" stroke="midnightblue" d="M1085.61,-165.304C1053.96,-155.129 1008.83,-140.625 980.496,-131.516"/>
<polygon fill="midnightblue" stroke="midnightblue" points="1084.79,-168.715 1095.38,-168.444 1086.93,-162.051 1084.79,-168.715"/>
</g>
<!-- Node15 -->
<g id="node15" class="node"><title>Node15</title>
<g id="a_node15"><a xlink:href="Settings_8cxx.html" target="_top" xlink:title="src/engine/basics/Settings.cxx">
<polygon fill="none" stroke="black" points="1236.5,-112.5 1236.5,-131.5 1397.5,-131.5 1397.5,-112.5 1236.5,-112.5"/>
<text text-anchor="middle" x="1317" y="-119.5" font-family="Helvetica,sans-Serif" font-size="10.00">src/engine/basics/Settings.cxx</text>
</a>
</g>
</g>
<!-- Node14&#45;&gt;Node15 -->
<g id="edge18" class="edge"><title>Node14&#45;&gt;Node15</title>
<path fill="none" stroke="midnightblue" d="M1162.81,-165.699C1199.61,-155.507 1252.93,-140.743 1286.25,-131.516"/>
<polygon fill="midnightblue" stroke="midnightblue" points="1161.6,-162.402 1152.9,-168.444 1163.47,-169.148 1161.6,-162.402"/>
</g>
<!-- Node14&#45;&gt;Node16 -->
<g id="edge19" class="edge"><title>Node14&#45;&gt;Node16</title>
<path fill="none" stroke="midnightblue" d="M1122,-157.805C1122,-148.91 1122,-138.78 1122,-131.751"/>
<polygon fill="midnightblue" stroke="midnightblue" points="1118.5,-158.083 1122,-168.083 1125.5,-158.083 1118.5,-158.083"/>
</g>
</g>
</svg>
