<?xml version="1.0" encoding="UTF-8" standalone="no"?>
<!DOCTYPE svg PUBLIC "-//W3C//DTD SVG 1.1//EN"
 "http://www.w3.org/Graphics/SVG/1.1/DTD/svg11.dtd">
<!-- Generated by graphviz version 2.38.0 (20140413.2041)
 -->
<!-- Title: src/engine/GameObjects/MapNode.cxx Pages: 1 -->
<!--zoomable 263 -->
<svg id="main" version="1.1" xmlns="http://www.w3.org/2000/svg" xmlns:xlink="http://www.w3.org/1999/xlink" xml:space="preserve" onload="init(evt)">
<style type="text/css"><![CDATA[
.edge:hover path { stroke: red; }
.edge:hover polygon { stroke: red; fill: red; }
]]></style>
<script type="text/javascript"><![CDATA[
var edges = document.getElementsByTagName('g');
if (edges && edges.length) {
  for (var i=0;i<edges.length;i++) {
    if (edges[i].id.substr(0,4)=='edge') {
      edges[i].setAttribute('class','edge');
    }
  }
}
]]></script>
        <defs>
                <circle id="rim" cx="0" cy="0" r="7"/>
                <circle id="rim2" cx="0" cy="0" r="3.5"/>
                <g id="zoomPlus">
                        <use xlink:href="#rim" fill="#404040">
                                <set attributeName="fill" to="#808080" begin="zoomplus.mouseover" end="zoomplus.mouseout"/>
                        </use>
                        <path d="M-4,0h8M0,-4v8" fill="none" stroke="white" stroke-width="1.5" pointer-events="none"/>
                </g>
                <g id="zoomMin">
                        <use xlink:href="#rim" fill="#404040">
                                <set attributeName="fill" to="#808080" begin="zoomminus.mouseover" end="zoomminus.mouseout"/>
                        </use>
                        <path d="M-4,0h8" fill="none" stroke="white" stroke-width="1.5" pointer-events="none"/>
                </g>
                <g id="dirArrow">
                        <path fill="none" stroke="white" stroke-width="1.5" d="M0,-3.0v7 M-2.5,-0.5L0,-3.0L2.5,-0.5"/>
                </g>
               <g id="resetDef">
                       <use xlink:href="#rim2" fill="#404040">
                               <set attributeName="fill" to="#808080" begin="reset.mouseover" end="reset.mouseout"/>
                       </use>
               </g>
        </defs>

<script type="text/javascript">
var viewWidth = 1130;
var viewHeight = 263;
var sectionId = 'dynsection-0';
</script>
<script xlink:href="svgpan.js"/>
<svg id="graph" class="graph">
<g id="viewport">
<title>src/engine/GameObjects/MapNode.cxx</title>
<!-- Node1 -->
<g id="node1" class="node"><title>Node1</title>
<polygon fill="#bfbfbf" stroke="black" points="691.301,-224.5 691.301,-254.5 825.301,-254.5 825.301,-224.5 691.301,-224.5"/>
<text text-anchor="start" x="699.301" y="-242.5" font-family="Helvetica,sans-Serif" font-size="10.00">src/engine/GameObjects</text>
<text text-anchor="middle" x="758.301" y="-231.5" font-family="Helvetica,sans-Serif" font-size="10.00">/MapNode.cxx</text>
</g>
<!-- Node2 -->
<g id="node2" class="node"><title>Node2</title>
<g id="a_node2"><a xlink:href="MapNode_8hxx.html" target="_top" xlink:title="MapNode.hxx">
<polygon fill="none" stroke="black" points="444.301,-168.5 444.301,-187.5 526.301,-187.5 526.301,-168.5 444.301,-168.5"/>
<text text-anchor="middle" x="485.301" y="-175.5" font-family="Helvetica,sans-Serif" font-size="10.00">MapNode.hxx</text>
</a>
</g>
</g>
<!-- Node1&#45;&gt;Node2 -->
<g id="edge1" class="edge"><title>Node1&#45;&gt;Node2</title>
<path fill="none" stroke="midnightblue" d="M693.95,-224.475C645.104,-213.829 578.959,-199.413 534.346,-189.689"/>
<polygon fill="midnightblue" stroke="midnightblue" points="534.846,-186.216 524.331,-187.506 533.356,-193.056 534.846,-186.216"/>
</g>
<!-- Node17 -->
<g id="node17" class="node"><title>Node17</title>
<g id="a_node17"><a xlink:href="LOG_8hxx.html" target="_top" xlink:title="../basics/LOG.hxx">
<polygon fill="none" stroke="black" points="837.301,-168.5 837.301,-187.5 935.301,-187.5 935.301,-168.5 837.301,-168.5"/>
<text text-anchor="middle" x="886.301" y="-175.5" font-family="Helvetica,sans-Serif" font-size="10.00">../basics/LOG.hxx</text>
</a>
</g>
</g>
<!-- Node1&#45;&gt;Node17 -->
<g id="edge23" class="edge"><title>Node1&#45;&gt;Node17</title>
<path fill="none" stroke="midnightblue" d="M788.636,-224.399C809.824,-214.55 837.895,-201.501 858.503,-191.922"/>
<polygon fill="midnightblue" stroke="midnightblue" points="860.083,-195.047 867.676,-187.658 857.133,-188.699 860.083,-195.047"/>
</g>
<!-- Node23 -->
<g id="node23" class="node"><title>Node23</title>
<g id="a_node23"><a xlink:href="MapLayers_8hxx.html" target="_top" xlink:title="../map/MapLayers.hxx">
<polygon fill="none" stroke="black" points="697.301,-168.5 697.301,-187.5 819.301,-187.5 819.301,-168.5 697.301,-168.5"/>
<text text-anchor="middle" x="758.301" y="-175.5" font-family="Helvetica,sans-Serif" font-size="10.00">../map/MapLayers.hxx</text>
</a>
</g>
</g>
<!-- Node1&#45;&gt;Node23 -->
<g id="edge30" class="edge"><title>Node1&#45;&gt;Node23</title>
<path fill="none" stroke="midnightblue" d="M758.301,-224.399C758.301,-216.466 758.301,-206.458 758.301,-197.858"/>
<polygon fill="midnightblue" stroke="midnightblue" points="761.801,-197.658 758.301,-187.658 754.801,-197.658 761.801,-197.658"/>
</g>
<!-- Node3 -->
<g id="node3" class="node"><title>Node3</title>
<polygon fill="none" stroke="#bfbfbf" points="436.801,-56.5 436.801,-75.5 481.801,-75.5 481.801,-56.5 436.801,-56.5"/>
<text text-anchor="middle" x="459.301" y="-63.5" font-family="Helvetica,sans-Serif" font-size="10.00">SDL.h</text>
</g>
<!-- Node2&#45;&gt;Node3 -->
<g id="edge2" class="edge"><title>Node2&#45;&gt;Node3</title>
<path fill="none" stroke="midnightblue" d="M444.109,-176.788C409.918,-174.154 363.167,-164.329 339.301,-132 334.022,-124.849 334.238,-119.306 339.301,-112 349.565,-97.1895 394.878,-83.1064 426.78,-74.7589"/>
<polygon fill="midnightblue" stroke="midnightblue" points="427.779,-78.1164 436.605,-72.2566 426.051,-71.333 427.779,-78.1164"/>
</g>
<!-- Node4 -->
<g id="node4" class="node"><title>Node4</title>
<polygon fill="none" stroke="#bfbfbf" points="348.801,-112.5 348.801,-131.5 405.801,-131.5 405.801,-112.5 348.801,-112.5"/>
<text text-anchor="middle" x="377.301" y="-119.5" font-family="Helvetica,sans-Serif" font-size="10.00">memory</text>
</g>
<!-- Node2&#45;&gt;Node4 -->
<g id="edge3" class="edge"><title>Node2&#45;&gt;Node4</title>
<path fill="none" stroke="midnightblue" d="M467.949,-168.324C450.629,-159.664 423.786,-146.242 403.799,-136.249"/>
<polygon fill="midnightblue" stroke="midnightblue" points="405.12,-132.996 394.61,-131.655 401.989,-139.257 405.12,-132.996"/>
</g>
<!-- Node5 -->
<g id="node5" class="node"><title>Node5</title>
<polygon fill="none" stroke="#bfbfbf" points="28.3013,-0.5 28.3013,-19.5 72.3013,-19.5 72.3013,-0.5 28.3013,-0.5"/>
<text text-anchor="middle" x="50.3013" y="-7.5" font-family="Helvetica,sans-Serif" font-size="10.00">string</text>
</g>
<!-- Node2&#45;&gt;Node5 -->
<g id="edge4" class="edge"><title>Node2&#45;&gt;Node5</title>
<path fill="none" stroke="midnightblue" d="M444.144,-175.104C337.406,-169.203 56.3613,-147.074 4.30129,-76 -8.26522,-58.8437 10.8797,-38.836 28.1632,-25.5982"/>
<polygon fill="midnightblue" stroke="midnightblue" points="30.2929,-28.3776 36.3512,-19.6857 26.1949,-22.7024 30.2929,-28.3776"/>
</g>
<!-- Node6 -->
<g id="node6" class="node"><title>Node6</title>
<polygon fill="none" stroke="#bfbfbf" points="424.301,-112.5 424.301,-131.5 486.301,-131.5 486.301,-112.5 424.301,-112.5"/>
<text text-anchor="middle" x="455.301" y="-119.5" font-family="Helvetica,sans-Serif" font-size="10.00">algorithm</text>
</g>
<!-- Node2&#45;&gt;Node6 -->
<g id="edge5" class="edge"><title>Node2&#45;&gt;Node6</title>
<path fill="none" stroke="midnightblue" d="M480.347,-168.083C476.197,-160.613 470.148,-149.724 465.035,-140.52"/>
<polygon fill="midnightblue" stroke="midnightblue" points="468.079,-138.793 460.163,-131.751 461.96,-142.192 468.079,-138.793"/>
</g>
<!-- Node7 -->
<g id="node7" class="node"><title>Node7</title>
<polygon fill="none" stroke="#bfbfbf" points="503.801,-56.5 503.801,-75.5 550.801,-75.5 550.801,-56.5 503.801,-56.5"/>
<text text-anchor="middle" x="527.301" y="-63.5" font-family="Helvetica,sans-Serif" font-size="10.00">vector</text>
</g>
<!-- Node2&#45;&gt;Node7 -->
<g id="edge6" class="edge"><title>Node2&#45;&gt;Node7</title>
<path fill="none" stroke="midnightblue" d="M488.597,-168.368C495.436,-150.456 511.294,-108.923 520.448,-84.9482"/>
<polygon fill="midnightblue" stroke="midnightblue" points="523.724,-86.1821 524.021,-75.5914 517.184,-83.6851 523.724,-86.1821"/>
</g>
<!-- Node8 -->
<g id="node8" class="node"><title>Node8</title>
<g id="a_node8"><a xlink:href="Sprite_8hxx.html" target="_top" xlink:title="../Sprite.hxx">
<polygon fill="none" stroke="black" points="580.301,-112.5 580.301,-131.5 654.301,-131.5 654.301,-112.5 580.301,-112.5"/>
<text text-anchor="middle" x="617.301" y="-119.5" font-family="Helvetica,sans-Serif" font-size="10.00">../Sprite.hxx</text>
</a>
</g>
</g>
<!-- Node2&#45;&gt;Node8 -->
<g id="edge7" class="edge"><title>Node2&#45;&gt;Node8</title>
<path fill="none" stroke="midnightblue" d="M506.217,-168.444C528.037,-159.517 562.451,-145.439 587.194,-135.317"/>
<polygon fill="midnightblue" stroke="midnightblue" points="588.553,-138.542 596.483,-131.516 585.903,-132.063 588.553,-138.542"/>
</g>
<!-- Node9 -->
<g id="node9" class="node"><title>Node9</title>
<g id="a_node9"><a xlink:href="point_8hxx.html" target="_top" xlink:title="basics/point.hxx">
<polygon fill="none" stroke="black" points="570.801,-56.5 570.801,-75.5 663.801,-75.5 663.801,-56.5 570.801,-56.5"/>
<text text-anchor="middle" x="617.301" y="-63.5" font-family="Helvetica,sans-Serif" font-size="10.00">basics/point.hxx</text>
</a>
</g>
</g>
<!-- Node2&#45;&gt;Node9 -->
<g id="edge14" class="edge"><title>Node2&#45;&gt;Node9</title>
<path fill="none" stroke="midnightblue" d="M526.433,-172.414C573.623,-166.207 646.656,-153.377 663.301,-132 676.44,-115.127 656.905,-94.9122 639.386,-81.5551"/>
<polygon fill="midnightblue" stroke="midnightblue" points="641.261,-78.5923 631.099,-75.5934 637.173,-84.2746 641.261,-78.5923"/>
</g>
<!-- Node10 -->
<g id="node10" class="node"><title>Node10</title>
<g id="a_node10"><a xlink:href="enums_8hxx.html" target="_top" xlink:title="common/enums.hxx">
<polygon fill="none" stroke="black" points="681.801,-56.5 681.801,-75.5 796.801,-75.5 796.801,-56.5 681.801,-56.5"/>
<text text-anchor="middle" x="739.301" y="-63.5" font-family="Helvetica,sans-Serif" font-size="10.00">common/enums.hxx</text>
</a>
</g>
</g>
<!-- Node2&#45;&gt;Node10 -->
<g id="edge13" class="edge"><title>Node2&#45;&gt;Node10</title>
<path fill="none" stroke="midnightblue" d="M526.382,-174.66C567.761,-170.731 632.195,-160.204 680.301,-132 700.552,-120.127 717.793,-99.0102 728.315,-84.0714"/>
<polygon fill="midnightblue" stroke="midnightblue" points="731.268,-85.9521 733.965,-75.7062 725.467,-82.0342 731.268,-85.9521"/>
</g>
<!-- Node12 -->
<g id="node12" class="node"><title>Node12</title>
<g id="a_node12"><a xlink:href="TileManager_8hxx.html" target="_top" xlink:title="../TileManager.hxx">
<polygon fill="none" stroke="black" points="190.301,-112.5 190.301,-131.5 292.301,-131.5 292.301,-112.5 190.301,-112.5"/>
<text text-anchor="middle" x="241.301" y="-119.5" font-family="Helvetica,sans-Serif" font-size="10.00">../TileManager.hxx</text>
</a>
</g>
</g>
<!-- Node2&#45;&gt;Node12 -->
<g id="edge15" class="edge"><title>Node2&#45;&gt;Node12</title>
<path fill="none" stroke="midnightblue" d="M446.639,-168.444C404.163,-159.043 335.87,-143.929 289.827,-133.739"/>
<polygon fill="midnightblue" stroke="midnightblue" points="290.303,-130.26 279.783,-131.516 288.79,-137.095 290.303,-130.26"/>
</g>
<!-- Node8&#45;&gt;Node3 -->
<g id="edge8" class="edge"><title>Node8&#45;&gt;Node3</title>
<path fill="none" stroke="midnightblue" d="M592.266,-112.444C564.982,-103.119 521.248,-88.1716 491.445,-77.9858"/>
<polygon fill="midnightblue" stroke="midnightblue" points="492.51,-74.6512 481.916,-74.729 490.247,-81.2751 492.51,-74.6512"/>
</g>
<!-- Node8&#45;&gt;Node7 -->
<g id="edge9" class="edge"><title>Node8&#45;&gt;Node7</title>
<path fill="none" stroke="midnightblue" d="M602.841,-112.324C588.802,-103.9 567.253,-90.9709 550.758,-81.0741"/>
<polygon fill="midnightblue" stroke="midnightblue" points="552.101,-77.7983 541.725,-75.6545 548.5,-83.8007 552.101,-77.7983"/>
</g>
<!-- Node8&#45;&gt;Node9 -->
<g id="edge10" class="edge"><title>Node8&#45;&gt;Node9</title>
<path fill="none" stroke="midnightblue" d="M617.301,-112.083C617.301,-105.006 617.301,-94.8611 617.301,-85.9865"/>
<polygon fill="midnightblue" stroke="midnightblue" points="620.801,-85.751 617.301,-75.7511 613.801,-85.7511 620.801,-85.751"/>
</g>
<!-- Node8&#45;&gt;Node10 -->
<g id="edge11" class="edge"><title>Node8&#45;&gt;Node10</title>
<path fill="none" stroke="midnightblue" d="M636.633,-112.444C656.621,-103.596 688.044,-89.6875 710.865,-79.5865"/>
<polygon fill="midnightblue" stroke="midnightblue" points="712.333,-82.7645 720.06,-75.5164 709.5,-76.3635 712.333,-82.7645"/>
</g>
<!-- Node11 -->
<g id="node11" class="node"><title>Node11</title>
<polygon fill="none" stroke="#bfbfbf" points="711.801,-0.5 711.801,-19.5 766.801,-19.5 766.801,-0.5 711.801,-0.5"/>
<text text-anchor="middle" x="739.301" y="-7.5" font-family="Helvetica,sans-Serif" font-size="10.00">stddef.h</text>
</g>
<!-- Node10&#45;&gt;Node11 -->
<g id="edge12" class="edge"><title>Node10&#45;&gt;Node11</title>
<path fill="none" stroke="midnightblue" d="M739.301,-56.083C739.301,-49.0059 739.301,-38.8611 739.301,-29.9865"/>
<polygon fill="midnightblue" stroke="midnightblue" points="742.801,-29.751 739.301,-19.7511 735.801,-29.7511 742.801,-29.751"/>
</g>
<!-- Node12&#45;&gt;Node3 -->
<g id="edge16" class="edge"><title>Node12&#45;&gt;Node3</title>
<path fill="none" stroke="midnightblue" d="M275.844,-112.444C317.261,-102.184 386.15,-85.12 426.69,-75.078"/>
<polygon fill="midnightblue" stroke="midnightblue" points="427.731,-78.4261 436.596,-72.6243 426.047,-71.6315 427.731,-78.4261"/>
</g>
<!-- Node12&#45;&gt;Node5 -->
<g id="edge18" class="edge"><title>Node12&#45;&gt;Node5</title>
<path fill="none" stroke="midnightblue" d="M292.463,-114.752C343.108,-106.545 409.207,-89.115 380.301,-56 341.885,-11.9899 158.522,-9.4195 82.96,-10.2901"/>
<polygon fill="midnightblue" stroke="midnightblue" points="82.5724,-6.79518 72.6239,-10.4389 82.6733,-13.7945 82.5724,-6.79518"/>
</g>
<!-- Node13 -->
<g id="node13" class="node"><title>Node13</title>
<polygon fill="none" stroke="#bfbfbf" points="105.801,-56.5 105.801,-75.5 198.801,-75.5 198.801,-56.5 105.801,-56.5"/>
<text text-anchor="middle" x="152.301" y="-63.5" font-family="Helvetica,sans-Serif" font-size="10.00">unordered_map</text>
</g>
<!-- Node12&#45;&gt;Node13 -->
<g id="edge17" class="edge"><title>Node12&#45;&gt;Node13</title>
<path fill="none" stroke="midnightblue" d="M227.002,-112.324C213.118,-103.9 191.809,-90.9709 175.498,-81.0741"/>
<polygon fill="midnightblue" stroke="midnightblue" points="176.93,-77.8495 166.565,-75.6545 173.299,-83.8341 176.93,-77.8495"/>
</g>
<!-- Node14 -->
<g id="node14" class="node"><title>Node14</title>
<g id="a_node14"><a xlink:href="tileData_8hxx.html" target="_top" xlink:title="tileData.hxx">
<polygon fill="none" stroke="black" points="13.3013,-56.5 13.3013,-75.5 87.3013,-75.5 87.3013,-56.5 13.3013,-56.5"/>
<text text-anchor="middle" x="50.3013" y="-63.5" font-family="Helvetica,sans-Serif" font-size="10.00">tileData.hxx</text>
</a>
</g>
</g>
<!-- Node12&#45;&gt;Node14 -->
<g id="edge19" class="edge"><title>Node12&#45;&gt;Node14</title>
<path fill="none" stroke="midnightblue" d="M211.037,-112.444C178.346,-103.201 126.12,-88.4356 90.1184,-78.2572"/>
<polygon fill="midnightblue" stroke="midnightblue" points="90.9993,-74.8691 80.4242,-75.5164 89.0948,-81.6051 90.9993,-74.8691"/>
</g>
<!-- Node15 -->
<g id="node15" class="node"><title>Node15</title>
<polygon fill="none" stroke="#bfbfbf" points="216.301,-56.5 216.301,-75.5 272.301,-75.5 272.301,-56.5 216.301,-56.5"/>
<text text-anchor="middle" x="244.301" y="-63.5" font-family="Helvetica,sans-Serif" font-size="10.00">json.hxx</text>
</g>
<!-- Node12&#45;&gt;Node15 -->
<g id="edge21" class="edge"><title>Node12&#45;&gt;Node15</title>
<path fill="none" stroke="midnightblue" d="M241.797,-112.083C242.19,-105.006 242.753,-94.8611 243.246,-85.9865"/>
<polygon fill="midnightblue" stroke="midnightblue" points="246.755,-85.9299 243.815,-75.7511 239.766,-85.5415 246.755,-85.9299"/>
</g>
<!-- Node16 -->
<g id="node16" class="node"><title>Node16</title>
<g id="a_node16"><a xlink:href="Singleton_8hxx.html" target="_top" xlink:title="Singleton.hxx">
<polygon fill="none" stroke="black" points="290.801,-56.5 290.801,-75.5 371.801,-75.5 371.801,-56.5 290.801,-56.5"/>
<text text-anchor="middle" x="331.301" y="-63.5" font-family="Helvetica,sans-Serif" font-size="10.00">Singleton.hxx</text>
</a>
</g>
</g>
<!-- Node12&#45;&gt;Node16 -->
<g id="edge22" class="edge"><title>Node12&#45;&gt;Node16</title>
<path fill="none" stroke="midnightblue" d="M255.761,-112.324C269.801,-103.9 291.35,-90.9709 307.844,-81.0741"/>
<polygon fill="midnightblue" stroke="midnightblue" points="310.103,-83.8007 316.877,-75.6545 306.501,-77.7983 310.103,-83.8007"/>
</g>
<!-- Node14&#45;&gt;Node5 -->
<g id="edge20" class="edge"><title>Node14&#45;&gt;Node5</title>
<path fill="none" stroke="midnightblue" d="M50.3013,-56.083C50.3013,-49.0059 50.3013,-38.8611 50.3013,-29.9865"/>
<polygon fill="midnightblue" stroke="midnightblue" points="53.8014,-29.751 50.3013,-19.7511 46.8014,-29.7511 53.8014,-29.751"/>
</g>
<!-- Node17&#45;&gt;Node3 -->
<g id="edge29" class="edge"><title>Node17&#45;&gt;Node3</title>
<path fill="none" stroke="midnightblue" d="M837.261,-169.338C834.23,-168.881 831.225,-168.432 828.301,-168 714.2,-151.157 680.321,-169.648 571.301,-132 536.53,-119.992 500.453,-96.7802 478.944,-81.5919"/>
<polygon fill="midnightblue" stroke="midnightblue" points="480.824,-78.633 470.664,-75.6299 476.734,-84.3136 480.824,-78.633"/>
</g>
<!-- Node18 -->
<g id="node18" class="node"><title>Node18</title>
<polygon fill="none" stroke="#bfbfbf" points="932.801,-112.5 932.801,-131.5 991.801,-131.5 991.801,-112.5 932.801,-112.5"/>
<text text-anchor="middle" x="962.301" y="-119.5" font-family="Helvetica,sans-Serif" font-size="10.00">iostream</text>
</g>
<!-- Node17&#45;&gt;Node18 -->
<g id="edge24" class="edge"><title>Node17&#45;&gt;Node18</title>
<path fill="none" stroke="midnightblue" d="M898.512,-168.324C910.077,-160.107 927.677,-147.602 941.462,-137.807"/>
<polygon fill="midnightblue" stroke="midnightblue" points="943.744,-140.479 949.868,-131.834 939.689,-134.773 943.744,-140.479"/>
</g>
<!-- Node19 -->
<g id="node19" class="node"><title>Node19</title>
<polygon fill="none" stroke="#bfbfbf" points="1010.3,-112.5 1010.3,-131.5 1060.3,-131.5 1060.3,-112.5 1010.3,-112.5"/>
<text text-anchor="middle" x="1035.3" y="-119.5" font-family="Helvetica,sans-Serif" font-size="10.00">chrono</text>
</g>
<!-- Node17&#45;&gt;Node19 -->
<g id="edge25" class="edge"><title>Node17&#45;&gt;Node19</title>
<path fill="none" stroke="midnightblue" d="M909.911,-168.444C934.759,-159.438 974.076,-145.189 1002.05,-135.049"/>
<polygon fill="midnightblue" stroke="midnightblue" points="1003.59,-138.214 1011.8,-131.516 1001.21,-131.633 1003.59,-138.214"/>
</g>
<!-- Node20 -->
<g id="node20" class="node"><title>Node20</title>
<polygon fill="none" stroke="#bfbfbf" points="1078.3,-112.5 1078.3,-131.5 1122.3,-131.5 1122.3,-112.5 1078.3,-112.5"/>
<text text-anchor="middle" x="1100.3" y="-119.5" font-family="Helvetica,sans-Serif" font-size="10.00">ctime</text>
</g>
<!-- Node17&#45;&gt;Node20 -->
<g id="edge26" class="edge"><title>Node17&#45;&gt;Node20</title>
<path fill="none" stroke="midnightblue" d="M922.872,-168.478C957.87,-160.219 1012.37,-147.086 1068.27,-132.2"/>
<polygon fill="midnightblue" stroke="midnightblue" points="1069.23,-135.567 1077.98,-129.6 1067.42,-128.805 1069.23,-135.567"/>
</g>
<!-- Node21 -->
<g id="node21" class="node"><title>Node21</title>
<polygon fill="none" stroke="#bfbfbf" points="786.301,-112.5 786.301,-131.5 840.301,-131.5 840.301,-112.5 786.301,-112.5"/>
<text text-anchor="middle" x="813.301" y="-119.5" font-family="Helvetica,sans-Serif" font-size="10.00">fstream</text>
</g>
<!-- Node17&#45;&gt;Node21 -->
<g id="edge27" class="edge"><title>Node17&#45;&gt;Node21</title>
<path fill="none" stroke="midnightblue" d="M874.573,-168.324C863.464,-160.107 846.559,-147.602 833.318,-137.807"/>
<polygon fill="midnightblue" stroke="midnightblue" points="835.364,-134.967 825.243,-131.834 831.201,-140.595 835.364,-134.967"/>
</g>
<!-- Node22 -->
<g id="node22" class="node"><title>Node22</title>
<polygon fill="none" stroke="#bfbfbf" points="858.301,-112.5 858.301,-131.5 914.301,-131.5 914.301,-112.5 858.301,-112.5"/>
<text text-anchor="middle" x="886.301" y="-119.5" font-family="Helvetica,sans-Serif" font-size="10.00">sstream</text>
</g>
<!-- Node17&#45;&gt;Node22 -->
<g id="edge28" class="edge"><title>Node17&#45;&gt;Node22</title>
<path fill="none" stroke="midnightblue" d="M886.301,-168.083C886.301,-161.006 886.301,-150.861 886.301,-141.986"/>
<polygon fill="midnightblue" stroke="midnightblue" points="889.801,-141.751 886.301,-131.751 882.801,-141.751 889.801,-141.751"/>
</g>
<!-- Node23&#45;&gt;Node10 -->
<g id="edge31" class="edge"><title>Node23&#45;&gt;Node10</title>
<path fill="none" stroke="midnightblue" d="M756.81,-168.368C753.744,-150.617 746.671,-109.666 742.514,-85.5974"/>
<polygon fill="midnightblue" stroke="midnightblue" points="745.936,-84.8498 740.785,-75.5914 739.038,-86.0413 745.936,-84.8498"/>
</g>
</g>
</svg>
        <g id="navigator" transform="translate(0 0)" fill="#404254">
                <rect fill="#f2f5e9" fill-opacity="0.5" stroke="#606060" stroke-width=".5" x="0" y="0" width="60" height="60"/>
                <use id="zoomplus" xlink:href="#zoomPlus" x="17" y="9" onmousedown="handleZoom(evt,'in')"/>
                <use id="zoomminus" xlink:href="#zoomMin" x="42" y="9" onmousedown="handleZoom(evt,'out')"/>
                <use id="reset" xlink:href="#resetDef" x="30" y="36" onmousedown="handleReset()"/>
                <g id="arrowUp" xlink:href="#dirArrow" transform="translate(30 24)" onmousedown="handlePan(0,-1)">
                  <use xlink:href="#rim" fill="#404040">
                        <set attributeName="fill" to="#808080" begin="arrowUp.mouseover" end="arrowUp.mouseout"/>
                  </use>
                  <path fill="none" stroke="white" stroke-width="1.5" d="M0,-3.0v7 M-2.5,-0.5L0,-3.0L2.5,-0.5"/>
                </g>
                <g id="arrowRight" xlink:href="#dirArrow" transform="rotate(90) translate(36 -43)" onmousedown="handlePan(1,0)">
                  <use xlink:href="#rim" fill="#404040">
                        <set attributeName="fill" to="#808080" begin="arrowRight.mouseover" end="arrowRight.mouseout"/>
                  </use>
                  <path fill="none" stroke="white" stroke-width="1.5" d="M0,-3.0v7 M-2.5,-0.5L0,-3.0L2.5,-0.5"/>
                </g>
                <g id="arrowDown" xlink:href="#dirArrow" transform="rotate(180) translate(-30 -48)" onmousedown="handlePan(0,1)">
                  <use xlink:href="#rim" fill="#404040">
                        <set attributeName="fill" to="#808080" begin="arrowDown.mouseover" end="arrowDown.mouseout"/>
                  </use>
                  <path fill="none" stroke="white" stroke-width="1.5" d="M0,-3.0v7 M-2.5,-0.5L0,-3.0L2.5,-0.5"/>
                </g>
                <g id="arrowLeft" xlink:href="#dirArrow" transform="rotate(270) translate(-36 17)" onmousedown="handlePan(-1,0)">
                  <use xlink:href="#rim" fill="#404040">
                        <set attributeName="fill" to="#808080" begin="arrowLeft.mouseover" end="arrowLeft.mouseout"/>
                  </use>
                  <path fill="none" stroke="white" stroke-width="1.5" d="M0,-3.0v7 M-2.5,-0.5L0,-3.0L2.5,-0.5"/>
                </g>
        </g>
        <svg viewBox="0 0 15 15" width="100%" height="30px" preserveAspectRatio="xMaxYMin meet">
         <g id="arrow_out" transform="scale(0.3 0.3)">
          <a xlink:href="MapNode_8cxx__incl_org.svg" target="_base">
           <rect id="button" ry="5" rx="5" y="6" x="6" height="38" width="38"
                fill="#f2f5e9" fill-opacity="0.5" stroke="#606060" stroke-width="1.0"/>
           <path id="arrow"
             d="M 11.500037,31.436501 C 11.940474,20.09759 22.043105,11.32322 32.158766,21.979434 L 37.068811,17.246167 C 37.068811,17.246167 37.088388,32 37.088388,32 L 22.160133,31.978069 C 22.160133,31.978069 26.997745,27.140456 26.997745,27.140456 C 18.528582,18.264221 13.291696,25.230495 11.500037,31.436501 z"
             style="fill:#404040;"/>
          </a>
         </g>
        </svg>
</svg>
