<?xml version="1.0" encoding="UTF-8" standalone="no"?>
<!DOCTYPE svg PUBLIC "-//W3C//DTD SVG 1.1//EN"
 "http://www.w3.org/Graphics/SVG/1.1/DTD/svg11.dtd">
<!-- Generated by graphviz version 2.38.0 (20140413.2041)
 -->
<!-- Title: src/engine/GameObjects/MapNode.hxx Pages: 1 -->
<svg width="829pt" height="207pt"
 viewBox="0.00 0.00 828.79 207.00" xmlns="http://www.w3.org/2000/svg" xmlns:xlink="http://www.w3.org/1999/xlink">
<g id="graph0" class="graph" transform="scale(1 1) rotate(0) translate(4 203)">
<title>src/engine/GameObjects/MapNode.hxx</title>
<!-- Node1 -->
<g id="node1" class="node"><title>Node1</title>
<polygon fill="#bfbfbf" stroke="black" points="240.5,-168.5 240.5,-198.5 374.5,-198.5 374.5,-168.5 240.5,-168.5"/>
<text text-anchor="start" x="248.5" y="-186.5" font-family="Helvetica,sans-Serif" font-size="10.00">src/engine/GameObjects</text>
<text text-anchor="middle" x="307.5" y="-175.5" font-family="Helvetica,sans-Serif" font-size="10.00">/MapNode.hxx</text>
</g>
<!-- Node2 -->
<g id="node2" class="node"><title>Node2</title>
<polygon fill="none" stroke="#bfbfbf" points="348,-56.5 348,-75.5 393,-75.5 393,-56.5 348,-56.5"/>
<text text-anchor="middle" x="370.5" y="-63.5" font-family="Helvetica,sans-Serif" font-size="10.00">SDL.h</text>
</g>
<!-- Node1&#45;&gt;Node2 -->
<g id="edge1" class="edge"><title>Node1&#45;&gt;Node2</title>
<path fill="none" stroke="midnightblue" d="M333.964,-168.422C347.211,-159.823 361.992,-147.491 369.5,-132 376.499,-117.559 376.032,-99.1081 374.233,-85.5561"/>
<polygon fill="midnightblue" stroke="midnightblue" points="377.655,-84.8005 372.543,-75.5203 370.752,-85.9627 377.655,-84.8005"/>
</g>
<!-- Node3 -->
<g id="node3" class="node"><title>Node3</title>
<polygon fill="none" stroke="#bfbfbf" points="77,-112.5 77,-131.5 134,-131.5 134,-112.5 77,-112.5"/>
<text text-anchor="middle" x="105.5" y="-119.5" font-family="Helvetica,sans-Serif" font-size="10.00">memory</text>
</g>
<!-- Node1&#45;&gt;Node3 -->
<g id="edge2" class="edge"><title>Node1&#45;&gt;Node3</title>
<path fill="none" stroke="midnightblue" d="M259.885,-168.475C224.473,-158.044 176.775,-143.994 143.812,-134.285"/>
<polygon fill="midnightblue" stroke="midnightblue" points="144.667,-130.888 134.085,-131.42 142.689,-137.603 144.667,-130.888"/>
</g>
<!-- Node4 -->
<g id="node4" class="node"><title>Node4</title>
<polygon fill="none" stroke="#bfbfbf" points="491.5,-0.5 491.5,-19.5 535.5,-19.5 535.5,-0.5 491.5,-0.5"/>
<text text-anchor="middle" x="513.5" y="-7.5" font-family="Helvetica,sans-Serif" font-size="10.00">string</text>
</g>
<!-- Node1&#45;&gt;Node4 -->
<g id="edge3" class="edge"><title>Node1&#45;&gt;Node4</title>
<path fill="none" stroke="midnightblue" d="M374.95,-178.711C500.497,-170.085 762.252,-144.172 816.5,-76 822.035,-69.0446 822.305,-62.7313 816.5,-56 781.811,-15.7789 616.788,-10.9273 545.937,-10.7373"/>
<polygon fill="midnightblue" stroke="midnightblue" points="545.8,-7.23726 535.801,-10.7407 545.802,-14.2373 545.8,-7.23726"/>
</g>
<!-- Node5 -->
<g id="node5" class="node"><title>Node5</title>
<polygon fill="none" stroke="#bfbfbf" points="190.5,-112.5 190.5,-131.5 252.5,-131.5 252.5,-112.5 190.5,-112.5"/>
<text text-anchor="middle" x="221.5" y="-119.5" font-family="Helvetica,sans-Serif" font-size="10.00">algorithm</text>
</g>
<!-- Node1&#45;&gt;Node5 -->
<g id="edge4" class="edge"><title>Node1&#45;&gt;Node5</title>
<path fill="none" stroke="midnightblue" d="M287.119,-168.399C273.592,-159.04 255.889,-146.792 242.28,-137.377"/>
<polygon fill="midnightblue" stroke="midnightblue" points="244.229,-134.469 234.014,-131.658 240.246,-140.226 244.229,-134.469"/>
</g>
<!-- Node6 -->
<g id="node6" class="node"><title>Node6</title>
<polygon fill="none" stroke="#bfbfbf" points="143,-56.5 143,-75.5 190,-75.5 190,-56.5 143,-56.5"/>
<text text-anchor="middle" x="166.5" y="-63.5" font-family="Helvetica,sans-Serif" font-size="10.00">vector</text>
</g>
<!-- Node1&#45;&gt;Node6 -->
<g id="edge5" class="edge"><title>Node1&#45;&gt;Node6</title>
<path fill="none" stroke="midnightblue" d="M240.252,-168.696C218.733,-161.171 196.599,-149.631 181.5,-132 170.563,-119.229 167.207,-100.037 166.35,-85.8145"/>
<polygon fill="midnightblue" stroke="midnightblue" points="169.846,-85.6032 166.103,-75.6918 162.849,-85.7744 169.846,-85.6032"/>
</g>
<!-- Node7 -->
<g id="node7" class="node"><title>Node7</title>
<g id="a_node7"><a xlink:href="Sprite_8hxx.html" target="_top" xlink:title="../Sprite.hxx">
<polygon fill="none" stroke="black" points="270.5,-112.5 270.5,-131.5 344.5,-131.5 344.5,-112.5 270.5,-112.5"/>
<text text-anchor="middle" x="307.5" y="-119.5" font-family="Helvetica,sans-Serif" font-size="10.00">../Sprite.hxx</text>
</a>
</g>
</g>
<!-- Node1&#45;&gt;Node7 -->
<g id="edge6" class="edge"><title>Node1&#45;&gt;Node7</title>
<path fill="none" stroke="midnightblue" d="M307.5,-168.399C307.5,-160.466 307.5,-150.458 307.5,-141.858"/>
<polygon fill="midnightblue" stroke="midnightblue" points="311,-141.658 307.5,-131.658 304,-141.658 311,-141.658"/>
</g>
<!-- Node8 -->
<g id="node8" class="node"><title>Node8</title>
<g id="a_node8"><a xlink:href="point_8hxx.html" target="_top" xlink:title="basics/point.hxx">
<polygon fill="none" stroke="black" points="237,-56.5 237,-75.5 330,-75.5 330,-56.5 237,-56.5"/>
<text text-anchor="middle" x="283.5" y="-63.5" font-family="Helvetica,sans-Serif" font-size="10.00">basics/point.hxx</text>
</a>
</g>
</g>
<!-- Node1&#45;&gt;Node8 -->
<g id="edge13" class="edge"><title>Node1&#45;&gt;Node8</title>
<path fill="none" stroke="midnightblue" d="M327.427,-168.326C344.449,-154.372 364.565,-132.267 353.5,-112 345.681,-97.6789 331.138,-87.2355 317.324,-80.0358"/>
<polygon fill="midnightblue" stroke="midnightblue" points="318.501,-76.7188 307.969,-75.5617 315.481,-83.0338 318.501,-76.7188"/>
</g>
<!-- Node9 -->
<g id="node9" class="node"><title>Node9</title>
<g id="a_node9"><a xlink:href="enums_8hxx.html" target="_top" xlink:title="common/enums.hxx">
<polygon fill="none" stroke="black" points="0,-56.5 0,-75.5 115,-75.5 115,-56.5 0,-56.5"/>
<text text-anchor="middle" x="57.5" y="-63.5" font-family="Helvetica,sans-Serif" font-size="10.00">common/enums.hxx</text>
</a>
</g>
</g>
<!-- Node1&#45;&gt;Node9 -->
<g id="edge12" class="edge"><title>Node1&#45;&gt;Node9</title>
<path fill="none" stroke="midnightblue" d="M240.265,-176.831C177.717,-170.109 90.7718,-156.582 67.5,-132 56.1036,-119.962 54.4174,-100.671 55.093,-86.2267"/>
<polygon fill="midnightblue" stroke="midnightblue" points="58.6105,-86.1807 56.0007,-75.9123 51.6374,-85.567 58.6105,-86.1807"/>
</g>
<!-- Node11 -->
<g id="node11" class="node"><title>Node11</title>
<g id="a_node11"><a xlink:href="TileManager_8hxx.html" target="_top" xlink:title="../TileManager.hxx">
<polygon fill="none" stroke="black" points="462.5,-112.5 462.5,-131.5 564.5,-131.5 564.5,-112.5 462.5,-112.5"/>
<text text-anchor="middle" x="513.5" y="-119.5" font-family="Helvetica,sans-Serif" font-size="10.00">../TileManager.hxx</text>
</a>
</g>
</g>
<!-- Node1&#45;&gt;Node11 -->
<g id="edge14" class="edge"><title>Node1&#45;&gt;Node11</title>
<path fill="none" stroke="midnightblue" d="M356.058,-168.475C392.063,-158.075 440.523,-144.078 474.128,-134.372"/>
<polygon fill="midnightblue" stroke="midnightblue" points="475.413,-137.644 484.049,-131.506 473.471,-130.919 475.413,-137.644"/>
</g>
<!-- Node7&#45;&gt;Node2 -->
<g id="edge7" class="edge"><title>Node7&#45;&gt;Node2</title>
<path fill="none" stroke="midnightblue" d="M317.622,-112.324C327.026,-104.263 341.244,-92.0765 352.569,-82.3695"/>
<polygon fill="midnightblue" stroke="midnightblue" points="354.879,-84.9993 360.194,-75.8339 350.323,-79.6844 354.879,-84.9993"/>
</g>
<!-- Node7&#45;&gt;Node6 -->
<g id="edge8" class="edge"><title>Node7&#45;&gt;Node6</title>
<path fill="none" stroke="midnightblue" d="M285.158,-112.444C261.747,-103.478 224.764,-89.314 198.31,-79.1827"/>
<polygon fill="midnightblue" stroke="midnightblue" points="199.328,-75.8245 188.737,-75.5164 196.824,-82.3615 199.328,-75.8245"/>
</g>
<!-- Node7&#45;&gt;Node8 -->
<g id="edge9" class="edge"><title>Node7&#45;&gt;Node8</title>
<path fill="none" stroke="midnightblue" d="M303.537,-112.083C300.287,-104.77 295.581,-94.1814 291.546,-85.1034"/>
<polygon fill="midnightblue" stroke="midnightblue" points="294.649,-83.4677 287.389,-75.7511 288.252,-86.3107 294.649,-83.4677"/>
</g>
<!-- Node7&#45;&gt;Node9 -->
<g id="edge10" class="edge"><title>Node7&#45;&gt;Node9</title>
<path fill="none" stroke="midnightblue" d="M270.342,-112.974C226.913,-103.593 154.877,-88.0334 106.803,-77.6494"/>
<polygon fill="midnightblue" stroke="midnightblue" points="107.44,-74.2065 96.9268,-75.5162 105.962,-81.0487 107.44,-74.2065"/>
</g>
<!-- Node10 -->
<g id="node10" class="node"><title>Node10</title>
<polygon fill="none" stroke="#bfbfbf" points="30,-0.5 30,-19.5 85,-19.5 85,-0.5 30,-0.5"/>
<text text-anchor="middle" x="57.5" y="-7.5" font-family="Helvetica,sans-Serif" font-size="10.00">stddef.h</text>
</g>
<!-- Node9&#45;&gt;Node10 -->
<g id="edge11" class="edge"><title>Node9&#45;&gt;Node10</title>
<path fill="none" stroke="midnightblue" d="M57.5,-56.083C57.5,-49.0059 57.5,-38.8611 57.5,-29.9865"/>
<polygon fill="midnightblue" stroke="midnightblue" points="61.0001,-29.751 57.5,-19.7511 54.0001,-29.7511 61.0001,-29.751"/>
</g>
<!-- Node11&#45;&gt;Node2 -->
<g id="edge15" class="edge"><title>Node11&#45;&gt;Node2</title>
<path fill="none" stroke="midnightblue" d="M490.841,-112.444C467.098,-103.478 429.591,-89.314 402.762,-79.1827"/>
<polygon fill="midnightblue" stroke="midnightblue" points="403.644,-75.7749 393.053,-75.5164 401.171,-82.3235 403.644,-75.7749"/>
</g>
<!-- Node11&#45;&gt;Node4 -->
<g id="edge17" class="edge"><title>Node11&#45;&gt;Node4</title>
<path fill="none" stroke="midnightblue" d="M513.5,-112.368C513.5,-94.617 513.5,-53.6664 513.5,-29.5974"/>
<polygon fill="midnightblue" stroke="midnightblue" points="517,-29.5914 513.5,-19.5914 510,-29.5915 517,-29.5914"/>
</g>
<!-- Node12 -->
<g id="node12" class="node"><title>Node12</title>
<polygon fill="none" stroke="#bfbfbf" points="542,-56.5 542,-75.5 635,-75.5 635,-56.5 542,-56.5"/>
<text text-anchor="middle" x="588.5" y="-63.5" font-family="Helvetica,sans-Serif" font-size="10.00">unordered_map</text>
</g>
<!-- Node11&#45;&gt;Node12 -->
<g id="edge16" class="edge"><title>Node11&#45;&gt;Node12</title>
<path fill="none" stroke="midnightblue" d="M525.55,-112.324C536.963,-104.107 554.331,-91.6017 567.935,-81.8069"/>
<polygon fill="midnightblue" stroke="midnightblue" points="570.16,-84.5174 576.231,-75.8339 566.07,-78.8366 570.16,-84.5174"/>
</g>
<!-- Node13 -->
<g id="node13" class="node"><title>Node13</title>
<g id="a_node13"><a xlink:href="tileData_8hxx.html" target="_top" xlink:title="tileData.hxx">
<polygon fill="none" stroke="black" points="411.5,-56.5 411.5,-75.5 485.5,-75.5 485.5,-56.5 411.5,-56.5"/>
<text text-anchor="middle" x="448.5" y="-63.5" font-family="Helvetica,sans-Serif" font-size="10.00">tileData.hxx</text>
</a>
</g>
</g>
<!-- Node11&#45;&gt;Node13 -->
<g id="edge18" class="edge"><title>Node11&#45;&gt;Node13</title>
<path fill="none" stroke="midnightblue" d="M503.057,-112.324C493.354,-104.263 478.685,-92.0765 467,-82.3695"/>
<polygon fill="midnightblue" stroke="midnightblue" points="469.062,-79.532 459.133,-75.8339 464.589,-84.9163 469.062,-79.532"/>
</g>
<!-- Node14 -->
<g id="node14" class="node"><title>Node14</title>
<polygon fill="none" stroke="#bfbfbf" points="652.5,-56.5 652.5,-75.5 708.5,-75.5 708.5,-56.5 652.5,-56.5"/>
<text text-anchor="middle" x="680.5" y="-63.5" font-family="Helvetica,sans-Serif" font-size="10.00">json.hxx</text>
</g>
<!-- Node11&#45;&gt;Node14 -->
<g id="edge20" class="edge"><title>Node11&#45;&gt;Node14</title>
<path fill="none" stroke="midnightblue" d="M539.962,-112.444C568.178,-103.32 613.04,-88.8133 644.468,-78.6509"/>
<polygon fill="midnightblue" stroke="midnightblue" points="645.724,-81.9234 654.162,-75.5164 643.57,-75.263 645.724,-81.9234"/>
</g>
<!-- Node15 -->
<g id="node15" class="node"><title>Node15</title>
<g id="a_node15"><a xlink:href="Singleton_8hxx.html" target="_top" xlink:title="Singleton.hxx">
<polygon fill="none" stroke="black" points="727,-56.5 727,-75.5 808,-75.5 808,-56.5 727,-56.5"/>
<text text-anchor="middle" x="767.5" y="-63.5" font-family="Helvetica,sans-Serif" font-size="10.00">Singleton.hxx</text>
</a>
</g>
</g>
<!-- Node11&#45;&gt;Node15 -->
<g id="edge21" class="edge"><title>Node11&#45;&gt;Node15</title>
<path fill="none" stroke="midnightblue" d="M553.747,-112.444C598.15,-103.004 669.653,-87.802 717.588,-77.6111"/>
<polygon fill="midnightblue" stroke="midnightblue" points="718.388,-81.0195 727.441,-75.5164 716.932,-74.1725 718.388,-81.0195"/>
</g>
<!-- Node13&#45;&gt;Node4 -->
<g id="edge19" class="edge"><title>Node13&#45;&gt;Node4</title>
<path fill="none" stroke="midnightblue" d="M458.943,-56.324C468.646,-48.2631 483.315,-36.0765 495,-26.3695"/>
<polygon fill="midnightblue" stroke="midnightblue" points="497.411,-28.9163 502.867,-19.8339 492.938,-23.532 497.411,-28.9163"/>
</g>
</g>
</svg>
