<?xml version="1.0" encoding="UTF-8" standalone="no"?>
<!DOCTYPE svg PUBLIC "-//W3C//DTD SVG 1.1//EN"
 "http://www.w3.org/Graphics/SVG/1.1/DTD/svg11.dtd">
<!-- Generated by graphviz version 2.38.0 (20140413.2041)
 -->
<!-- Title: src/engine/ui/menuGroups/MenuGroupBuild.cxx Pages: 1 -->
<svg width="1374pt" height="599pt"
 viewBox="0.00 0.00 1373.50 599.00" xmlns="http://www.w3.org/2000/svg" xmlns:xlink="http://www.w3.org/1999/xlink">
<g id="graph0" class="graph" transform="scale(1 1) rotate(0) translate(4 595)">
<title>src/engine/ui/menuGroups/MenuGroupBuild.cxx</title>
<!-- Node1 -->
<g id="node1" class="node"><title>Node1</title>
<polygon fill="#bfbfbf" stroke="black" points="642,-560.5 642,-590.5 785,-590.5 785,-560.5 642,-560.5"/>
<text text-anchor="start" x="650" y="-578.5" font-family="Helvetica,sans-Serif" font-size="10.00">src/engine/ui/menuGroups</text>
<text text-anchor="middle" x="713.5" y="-567.5" font-family="Helvetica,sans-Serif" font-size="10.00">/MenuGroupBuild.cxx</text>
</g>
<!-- Node2 -->
<g id="node2" class="node"><title>Node2</title>
<g id="a_node2"><a xlink:href="MenuGroupBuild_8hxx.html" target="_top" xlink:title="MenuGroupBuild.hxx">
<polygon fill="none" stroke="black" points="656,-504.5 656,-523.5 771,-523.5 771,-504.5 656,-504.5"/>
<text text-anchor="middle" x="713.5" y="-511.5" font-family="Helvetica,sans-Serif" font-size="10.00">MenuGroupBuild.hxx</text>
</a>
</g>
</g>
<!-- Node1&#45;&gt;Node2 -->
<g id="edge1" class="edge"><title>Node1&#45;&gt;Node2</title>
<path fill="none" stroke="midnightblue" d="M713.5,-560.399C713.5,-552.466 713.5,-542.458 713.5,-533.858"/>
<polygon fill="midnightblue" stroke="midnightblue" points="717,-533.658 713.5,-523.658 710,-533.658 717,-533.658"/>
</g>
<!-- Node11 -->
<g id="node11" class="node"><title>Node11</title>
<g id="a_node11"><a xlink:href="TileManager_8hxx.html" target="_top" xlink:title="TileManager.hxx">
<polygon fill="none" stroke="black" points="201,-112.5 201,-131.5 294,-131.5 294,-112.5 201,-112.5"/>
<text text-anchor="middle" x="247.5" y="-119.5" font-family="Helvetica,sans-Serif" font-size="10.00">TileManager.hxx</text>
</a>
</g>
</g>
<!-- Node1&#45;&gt;Node11 -->
<g id="edge51" class="edge"><title>Node1&#45;&gt;Node11</title>
<path fill="none" stroke="midnightblue" d="M641.98,-571.907C509.099,-565.129 237.5,-541.22 237.5,-459 237.5,-459 237.5,-459 237.5,-233 237.5,-200.816 241.798,-163.552 244.759,-141.702"/>
<polygon fill="midnightblue" stroke="midnightblue" points="248.262,-141.925 246.193,-131.534 241.331,-140.947 248.262,-141.925"/>
</g>
<!-- Node17 -->
<g id="node17" class="node"><title>Node17</title>
<g id="a_node17"><a xlink:href="signal_8hxx.html" target="_top" xlink:title="../../basics/signal.hxx">
<polygon fill="none" stroke="black" points="837,-168.5 837,-187.5 952,-187.5 952,-168.5 837,-168.5"/>
<text text-anchor="middle" x="894.5" y="-175.5" font-family="Helvetica,sans-Serif" font-size="10.00">../../basics/signal.hxx</text>
</a>
</g>
</g>
<!-- Node1&#45;&gt;Node17 -->
<g id="edge52" class="edge"><title>Node1&#45;&gt;Node17</title>
<path fill="none" stroke="midnightblue" d="M785.298,-568.859C854.083,-559.067 947.5,-532.28 947.5,-459 947.5,-459 947.5,-459 947.5,-289 947.5,-252.992 924.166,-216.339 908.463,-195.75"/>
<polygon fill="midnightblue" stroke="midnightblue" points="911.05,-193.379 902.094,-187.719 905.565,-197.729 911.05,-193.379"/>
</g>
<!-- Node26 -->
<g id="node26" class="node"><title>Node26</title>
<g id="a_node26"><a xlink:href="LOG_8hxx.html" target="_top" xlink:title="../../basics/LOG.hxx">
<polygon fill="none" stroke="black" points="1108,-168.5 1108,-187.5 1215,-187.5 1215,-168.5 1108,-168.5"/>
<text text-anchor="middle" x="1161.5" y="-175.5" font-family="Helvetica,sans-Serif" font-size="10.00">../../basics/LOG.hxx</text>
</a>
</g>
</g>
<!-- Node1&#45;&gt;Node26 -->
<g id="edge41" class="edge"><title>Node1&#45;&gt;Node26</title>
<path fill="none" stroke="midnightblue" d="M785.055,-566.274C890.042,-552.182 1073.5,-518.977 1073.5,-459 1073.5,-459 1073.5,-459 1073.5,-289 1073.5,-247.032 1113.04,-211.902 1139.11,-193.3"/>
<polygon fill="midnightblue" stroke="midnightblue" points="1141.1,-196.183 1147.36,-187.639 1137.14,-190.412 1141.1,-196.183"/>
</g>
<!-- Node31 -->
<g id="node31" class="node"><title>Node31</title>
<g id="a_node31"><a xlink:href="Settings_8hxx.html" target="_top" xlink:title="../../basics/Settings.hxx">
<polygon fill="none" stroke="black" points="0,-112.5 0,-131.5 127,-131.5 127,-112.5 0,-112.5"/>
<text text-anchor="middle" x="63.5" y="-119.5" font-family="Helvetica,sans-Serif" font-size="10.00">../../basics/Settings.hxx</text>
</a>
</g>
</g>
<!-- Node1&#45;&gt;Node31 -->
<g id="edge48" class="edge"><title>Node1&#45;&gt;Node31</title>
<path fill="none" stroke="midnightblue" d="M641.844,-575.124C486.281,-574.548 131.5,-561.948 131.5,-459 131.5,-459 131.5,-459 131.5,-233 131.5,-194.548 101.065,-158.313 80.9179,-138.538"/>
<polygon fill="midnightblue" stroke="midnightblue" points="83.2078,-135.886 73.5336,-131.567 78.4023,-140.976 83.2078,-135.886"/>
</g>
<!-- Node3 -->
<g id="node3" class="node"><title>Node3</title>
<g id="a_node3"><a xlink:href="IMenuGroup_8hxx.html" target="_top" xlink:title="IMenuGroup.hxx">
<polygon fill="none" stroke="black" points="666.5,-448.5 666.5,-467.5 760.5,-467.5 760.5,-448.5 666.5,-448.5"/>
<text text-anchor="middle" x="713.5" y="-455.5" font-family="Helvetica,sans-Serif" font-size="10.00">IMenuGroup.hxx</text>
</a>
</g>
</g>
<!-- Node2&#45;&gt;Node3 -->
<g id="edge2" class="edge"><title>Node2&#45;&gt;Node3</title>
<path fill="none" stroke="midnightblue" d="M713.5,-504.083C713.5,-497.006 713.5,-486.861 713.5,-477.986"/>
<polygon fill="midnightblue" stroke="midnightblue" points="717,-477.751 713.5,-467.751 710,-477.751 717,-477.751"/>
</g>
<!-- Node4 -->
<g id="node4" class="node"><title>Node4</title>
<g id="a_node4"><a xlink:href="UIElement_8hxx.html" target="_top" xlink:title="../basics/UIElement.hxx">
<polygon fill="none" stroke="black" points="691.5,-224.5 691.5,-243.5 819.5,-243.5 819.5,-224.5 691.5,-224.5"/>
<text text-anchor="middle" x="755.5" y="-231.5" font-family="Helvetica,sans-Serif" font-size="10.00">../basics/UIElement.hxx</text>
</a>
</g>
</g>
<!-- Node3&#45;&gt;Node4 -->
<g id="edge3" class="edge"><title>Node3&#45;&gt;Node4</title>
<path fill="none" stroke="midnightblue" d="M715.146,-448.297C721.326,-415.633 743.228,-299.866 751.913,-253.957"/>
<polygon fill="midnightblue" stroke="midnightblue" points="755.399,-254.36 753.819,-243.884 748.521,-253.059 755.399,-254.36"/>
</g>
<!-- Node16 -->
<g id="node16" class="node"><title>Node16</title>
<polygon fill="none" stroke="#bfbfbf" points="643,-112.5 643,-131.5 690,-131.5 690,-112.5 643,-112.5"/>
<text text-anchor="middle" x="666.5" y="-119.5" font-family="Helvetica,sans-Serif" font-size="10.00">vector</text>
</g>
<!-- Node3&#45;&gt;Node16 -->
<g id="edge40" class="edge"><title>Node3&#45;&gt;Node16</title>
<path fill="none" stroke="midnightblue" d="M697.766,-448.236C685.611,-440.481 669.688,-427.929 662.5,-412 620.081,-318 648.35,-188.662 661.147,-141.313"/>
<polygon fill="midnightblue" stroke="midnightblue" points="664.55,-142.14 663.882,-131.566 657.811,-140.248 664.55,-142.14"/>
</g>
<!-- Node22 -->
<g id="node22" class="node"><title>Node22</title>
<g id="a_node22"><a xlink:href="ButtonGroup_8hxx.html" target="_top" xlink:title="../basics/ButtonGroup.hxx">
<polygon fill="none" stroke="black" points="765.5,-392.5 765.5,-411.5 905.5,-411.5 905.5,-392.5 765.5,-392.5"/>
<text text-anchor="middle" x="835.5" y="-399.5" font-family="Helvetica,sans-Serif" font-size="10.00">../basics/ButtonGroup.hxx</text>
</a>
</g>
</g>
<!-- Node3&#45;&gt;Node22 -->
<g id="edge32" class="edge"><title>Node3&#45;&gt;Node22</title>
<path fill="none" stroke="midnightblue" d="M732.831,-448.444C752.82,-439.596 784.243,-425.687 807.064,-415.586"/>
<polygon fill="midnightblue" stroke="midnightblue" points="808.532,-418.764 816.259,-411.516 805.698,-412.363 808.532,-418.764"/>
</g>
<!-- Node25 -->
<g id="node25" class="node"><title>Node25</title>
<polygon fill="none" stroke="#bfbfbf" points="671.5,-392.5 671.5,-411.5 709.5,-411.5 709.5,-392.5 671.5,-392.5"/>
<text text-anchor="middle" x="690.5" y="-399.5" font-family="Helvetica,sans-Serif" font-size="10.00">map</text>
</g>
<!-- Node3&#45;&gt;Node25 -->
<g id="edge39" class="edge"><title>Node3&#45;&gt;Node25</title>
<path fill="none" stroke="midnightblue" d="M709.702,-448.083C706.587,-440.77 702.077,-430.181 698.211,-421.103"/>
<polygon fill="midnightblue" stroke="midnightblue" points="701.366,-419.58 694.227,-411.751 694.926,-422.323 701.366,-419.58"/>
</g>
<!-- Node5 -->
<g id="node5" class="node"><title>Node5</title>
<polygon fill="none" stroke="#bfbfbf" points="426.5,-0.5 426.5,-19.5 470.5,-19.5 470.5,-0.5 426.5,-0.5"/>
<text text-anchor="middle" x="448.5" y="-7.5" font-family="Helvetica,sans-Serif" font-size="10.00">string</text>
</g>
<!-- Node4&#45;&gt;Node5 -->
<g id="edge4" class="edge"><title>Node4&#45;&gt;Node5</title>
<path fill="none" stroke="midnightblue" d="M819.689,-226.881C916.64,-215.19 1083.03,-184.112 1022.5,-112 952.224,-28.279 591.721,-13.9332 480.931,-11.4947"/>
<polygon fill="midnightblue" stroke="midnightblue" points="480.782,-7.99106 470.713,-11.2886 480.641,-14.9896 480.782,-7.99106"/>
</g>
<!-- Node6 -->
<g id="node6" class="node"><title>Node6</title>
<g id="a_node6"><a xlink:href="mapEdit_8hxx.html" target="_top" xlink:title="../../basics/mapEdit.hxx">
<polygon fill="none" stroke="black" points="692,-168.5 692,-187.5 819,-187.5 819,-168.5 692,-168.5"/>
<text text-anchor="middle" x="755.5" y="-175.5" font-family="Helvetica,sans-Serif" font-size="10.00">../../basics/mapEdit.hxx</text>
</a>
</g>
</g>
<!-- Node4&#45;&gt;Node6 -->
<g id="edge5" class="edge"><title>Node4&#45;&gt;Node6</title>
<path fill="none" stroke="midnightblue" d="M755.5,-224.083C755.5,-217.006 755.5,-206.861 755.5,-197.986"/>
<polygon fill="midnightblue" stroke="midnightblue" points="759,-197.751 755.5,-187.751 752,-197.751 759,-197.751"/>
</g>
<!-- Node7 -->
<g id="node7" class="node"><title>Node7</title>
<g id="a_node7"><a xlink:href="ResourcesManager_8hxx.html" target="_top" xlink:title="../../ResourcesManager.hxx">
<polygon fill="none" stroke="black" points="303.5,-168.5 303.5,-187.5 447.5,-187.5 447.5,-168.5 303.5,-168.5"/>
<text text-anchor="middle" x="375.5" y="-175.5" font-family="Helvetica,sans-Serif" font-size="10.00">../../ResourcesManager.hxx</text>
</a>
</g>
</g>
<!-- Node4&#45;&gt;Node7 -->
<g id="edge7" class="edge"><title>Node4&#45;&gt;Node7</title>
<path fill="none" stroke="midnightblue" d="M695.288,-224.444C627.469,-214.806 517.391,-199.163 445.717,-188.978"/>
<polygon fill="midnightblue" stroke="midnightblue" points="445.823,-185.458 435.43,-187.516 444.839,-192.389 445.823,-185.458"/>
</g>
<!-- Node10 -->
<g id="node10" class="node"><title>Node10</title>
<polygon fill="none" stroke="#bfbfbf" points="477,-56.5 477,-75.5 522,-75.5 522,-56.5 477,-56.5"/>
<text text-anchor="middle" x="499.5" y="-63.5" font-family="Helvetica,sans-Serif" font-size="10.00">SDL.h</text>
</g>
<!-- Node4&#45;&gt;Node10 -->
<g id="edge31" class="edge"><title>Node4&#45;&gt;Node10</title>
<path fill="none" stroke="midnightblue" d="M691.456,-231.097C622.458,-227.537 519.198,-217.321 494.5,-188 470.095,-159.027 482.52,-110.9 492.021,-84.9319"/>
<polygon fill="midnightblue" stroke="midnightblue" points="495.3,-86.1566 495.678,-75.5685 488.78,-83.6101 495.3,-86.1566"/>
</g>
<!-- Node15 -->
<g id="node15" class="node"><title>Node15</title>
<g id="a_node15"><a xlink:href="WindowManager_8hxx.html" target="_top" xlink:title="../../WindowManager.hxx">
<polygon fill="none" stroke="black" points="504,-168.5 504,-187.5 635,-187.5 635,-168.5 504,-168.5"/>
<text text-anchor="middle" x="569.5" y="-175.5" font-family="Helvetica,sans-Serif" font-size="10.00">../../WindowManager.hxx</text>
</a>
</g>
</g>
<!-- Node4&#45;&gt;Node15 -->
<g id="edge19" class="edge"><title>Node4&#45;&gt;Node15</title>
<path fill="none" stroke="midnightblue" d="M726.028,-224.444C694.329,-215.241 643.768,-200.562 608.725,-190.388"/>
<polygon fill="midnightblue" stroke="midnightblue" points="609.414,-186.943 598.834,-187.516 607.462,-193.666 609.414,-186.943"/>
</g>
<!-- Node4&#45;&gt;Node17 -->
<g id="edge25" class="edge"><title>Node4&#45;&gt;Node17</title>
<path fill="none" stroke="midnightblue" d="M777.525,-224.444C800.604,-215.478 837.062,-201.314 863.141,-191.183"/>
<polygon fill="midnightblue" stroke="midnightblue" points="864.524,-194.4 872.578,-187.516 861.989,-187.875 864.524,-194.4"/>
</g>
<!-- Node6&#45;&gt;Node5 -->
<g id="edge6" class="edge"><title>Node6&#45;&gt;Node5</title>
<path fill="none" stroke="midnightblue" d="M749.799,-168.337C740.483,-154.752 720.788,-128.307 698.5,-112 629.194,-61.293 530.837,-31.3939 480.656,-18.5199"/>
<polygon fill="midnightblue" stroke="midnightblue" points="481.257,-15.0625 470.707,-16.0298 479.558,-21.8531 481.257,-15.0625"/>
</g>
<!-- Node8 -->
<g id="node8" class="node"><title>Node8</title>
<polygon fill="none" stroke="#bfbfbf" points="527,-112.5 527,-131.5 586,-131.5 586,-112.5 527,-112.5"/>
<text text-anchor="middle" x="556.5" y="-119.5" font-family="Helvetica,sans-Serif" font-size="10.00">iostream</text>
</g>
<!-- Node7&#45;&gt;Node8 -->
<g id="edge8" class="edge"><title>Node7&#45;&gt;Node8</title>
<path fill="none" stroke="midnightblue" d="M404.18,-168.444C435.027,-159.241 484.228,-144.562 518.329,-134.388"/>
<polygon fill="midnightblue" stroke="midnightblue" points="519.372,-137.729 527.954,-131.516 517.371,-131.021 519.372,-137.729"/>
</g>
<!-- Node9 -->
<g id="node9" class="node"><title>Node9</title>
<polygon fill="none" stroke="#bfbfbf" points="327,-56.5 327,-75.5 420,-75.5 420,-56.5 327,-56.5"/>
<text text-anchor="middle" x="373.5" y="-63.5" font-family="Helvetica,sans-Serif" font-size="10.00">unordered_map</text>
</g>
<!-- Node7&#45;&gt;Node9 -->
<g id="edge9" class="edge"><title>Node7&#45;&gt;Node9</title>
<path fill="none" stroke="midnightblue" d="M375.343,-168.368C375.02,-150.617 374.276,-109.666 373.838,-85.5974"/>
<polygon fill="midnightblue" stroke="midnightblue" points="377.338,-85.5261 373.656,-75.5914 370.339,-85.6534 377.338,-85.5261"/>
</g>
<!-- Node7&#45;&gt;Node10 -->
<g id="edge10" class="edge"><title>Node7&#45;&gt;Node10</title>
<path fill="none" stroke="midnightblue" d="M384.592,-168.475C398.002,-155.947 423.937,-131.894 446.5,-112 457.959,-101.896 471.042,-90.7843 481.342,-82.1302"/>
<polygon fill="midnightblue" stroke="midnightblue" points="483.822,-84.6183 489.243,-75.5151 479.329,-79.251 483.822,-84.6183"/>
</g>
<!-- Node7&#45;&gt;Node11 -->
<g id="edge11" class="edge"><title>Node7&#45;&gt;Node11</title>
<path fill="none" stroke="midnightblue" d="M355.218,-168.444C334.153,-159.557 300.983,-145.563 277.014,-135.451"/>
<polygon fill="midnightblue" stroke="midnightblue" points="278.261,-132.179 267.687,-131.516 275.54,-138.628 278.261,-132.179"/>
</g>
<!-- Node11&#45;&gt;Node5 -->
<g id="edge14" class="edge"><title>Node11&#45;&gt;Node5</title>
<path fill="none" stroke="midnightblue" d="M254.784,-112.188C266.612,-98.3986 291.321,-71.6791 317.5,-56 348.782,-37.2646 388.964,-24.9363 416.53,-17.998"/>
<polygon fill="midnightblue" stroke="midnightblue" points="417.536,-21.3555 426.432,-15.6006 415.889,-14.5521 417.536,-21.3555"/>
</g>
<!-- Node11&#45;&gt;Node9 -->
<g id="edge13" class="edge"><title>Node11&#45;&gt;Node9</title>
<path fill="none" stroke="midnightblue" d="M267.465,-112.444C288.109,-103.596 320.563,-89.6875 344.132,-79.5865"/>
<polygon fill="midnightblue" stroke="midnightblue" points="345.816,-82.6727 353.628,-75.5164 343.058,-76.2387 345.816,-82.6727"/>
</g>
<!-- Node11&#45;&gt;Node10 -->
<g id="edge12" class="edge"><title>Node11&#45;&gt;Node10</title>
<path fill="none" stroke="midnightblue" d="M287.43,-112.444C337.001,-101.821 420.616,-83.9038 466.651,-74.039"/>
<polygon fill="midnightblue" stroke="midnightblue" points="467.647,-77.4052 476.691,-71.8876 466.18,-70.5606 467.647,-77.4052"/>
</g>
<!-- Node12 -->
<g id="node12" class="node"><title>Node12</title>
<g id="a_node12"><a xlink:href="tileData_8hxx.html" target="_top" xlink:title="tileData.hxx">
<polygon fill="none" stroke="black" points="122.5,-56.5 122.5,-75.5 196.5,-75.5 196.5,-56.5 122.5,-56.5"/>
<text text-anchor="middle" x="159.5" y="-63.5" font-family="Helvetica,sans-Serif" font-size="10.00">tileData.hxx</text>
</a>
</g>
</g>
<!-- Node11&#45;&gt;Node12 -->
<g id="edge15" class="edge"><title>Node11&#45;&gt;Node12</title>
<path fill="none" stroke="midnightblue" d="M233.361,-112.324C219.634,-103.9 198.564,-90.9709 182.436,-81.0741"/>
<polygon fill="midnightblue" stroke="midnightblue" points="183.957,-77.9016 173.604,-75.6545 180.296,-83.8678 183.957,-77.9016"/>
</g>
<!-- Node13 -->
<g id="node13" class="node"><title>Node13</title>
<polygon fill="none" stroke="#bfbfbf" points="214.5,-56.5 214.5,-75.5 270.5,-75.5 270.5,-56.5 214.5,-56.5"/>
<text text-anchor="middle" x="242.5" y="-63.5" font-family="Helvetica,sans-Serif" font-size="10.00">json.hxx</text>
</g>
<!-- Node11&#45;&gt;Node13 -->
<g id="edge17" class="edge"><title>Node11&#45;&gt;Node13</title>
<path fill="none" stroke="midnightblue" d="M246.674,-112.083C246.019,-105.006 245.08,-94.8611 244.258,-85.9865"/>
<polygon fill="midnightblue" stroke="midnightblue" points="247.717,-85.3858 243.31,-75.7511 240.747,-86.0312 247.717,-85.3858"/>
</g>
<!-- Node14 -->
<g id="node14" class="node"><title>Node14</title>
<g id="a_node14"><a xlink:href="Singleton_8hxx.html" target="_top" xlink:title="Singleton.hxx">
<polygon fill="none" stroke="black" points="23,-56.5 23,-75.5 104,-75.5 104,-56.5 23,-56.5"/>
<text text-anchor="middle" x="63.5" y="-63.5" font-family="Helvetica,sans-Serif" font-size="10.00">Singleton.hxx</text>
</a>
</g>
</g>
<!-- Node11&#45;&gt;Node14 -->
<g id="edge18" class="edge"><title>Node11&#45;&gt;Node14</title>
<path fill="none" stroke="midnightblue" d="M218.345,-112.444C186.987,-103.241 136.969,-88.5617 102.303,-78.3879"/>
<polygon fill="midnightblue" stroke="midnightblue" points="103.1,-74.9742 92.5189,-75.5164 101.129,-81.6909 103.1,-74.9742"/>
</g>
<!-- Node12&#45;&gt;Node5 -->
<g id="edge16" class="edge"><title>Node12&#45;&gt;Node5</title>
<path fill="none" stroke="midnightblue" d="M196.651,-57.698C199.644,-57.1198 202.622,-56.548 205.5,-56 280.966,-41.6302 369.741,-25.3478 416.29,-16.8579"/>
<polygon fill="midnightblue" stroke="midnightblue" points="417.162,-20.2566 426.373,-15.0204 415.907,-13.3701 417.162,-20.2566"/>
</g>
<!-- Node15&#45;&gt;Node5 -->
<g id="edge20" class="edge"><title>Node15&#45;&gt;Node5</title>
<path fill="none" stroke="midnightblue" d="M577.18,-168.455C587.48,-155.902 603.493,-131.818 594.5,-112 572.964,-64.5386 516.175,-35.7094 480.103,-21.6061"/>
<polygon fill="midnightblue" stroke="midnightblue" points="481.117,-18.2484 470.525,-18.0155 478.66,-24.803 481.117,-18.2484"/>
</g>
<!-- Node15&#45;&gt;Node8 -->
<g id="edge21" class="edge"><title>Node15&#45;&gt;Node8</title>
<path fill="none" stroke="midnightblue" d="M567.353,-168.083C565.631,-160.927 563.153,-150.635 561,-141.691"/>
<polygon fill="midnightblue" stroke="midnightblue" points="564.35,-140.654 558.607,-131.751 557.545,-142.293 564.35,-140.654"/>
</g>
<!-- Node15&#45;&gt;Node10 -->
<g id="edge23" class="edge"><title>Node15&#45;&gt;Node10</title>
<path fill="none" stroke="midnightblue" d="M555.528,-168.348C543.711,-160.327 527.198,-147.338 517.5,-132 508.603,-117.927 504.036,-99.4353 501.734,-85.7743"/>
<polygon fill="midnightblue" stroke="midnightblue" points="505.165,-85.0437 500.288,-75.6384 498.236,-86.0326 505.165,-85.0437"/>
</g>
<!-- Node15&#45;&gt;Node14 -->
<g id="edge24" class="edge"><title>Node15&#45;&gt;Node14</title>
<path fill="none" stroke="midnightblue" d="M503.617,-171.954C411.267,-164.403 248.266,-149.199 191.5,-132 151.948,-120.017 109.932,-96.287 85.2378,-81.055"/>
<polygon fill="midnightblue" stroke="midnightblue" points="86.9938,-78.0249 76.6627,-75.6754 83.2737,-83.9546 86.9938,-78.0249"/>
</g>
<!-- Node15&#45;&gt;Node16 -->
<g id="edge22" class="edge"><title>Node15&#45;&gt;Node16</title>
<path fill="none" stroke="midnightblue" d="M585.085,-168.324C600.499,-159.743 624.312,-146.486 642.21,-136.522"/>
<polygon fill="midnightblue" stroke="midnightblue" points="643.919,-139.577 650.954,-131.655 640.514,-133.461 643.919,-139.577"/>
</g>
<!-- Node17&#45;&gt;Node16 -->
<g id="edge29" class="edge"><title>Node17&#45;&gt;Node16</title>
<path fill="none" stroke="midnightblue" d="M858.373,-168.444C814.872,-158.141 742.394,-140.975 700.069,-130.95"/>
<polygon fill="midnightblue" stroke="midnightblue" points="700.785,-127.523 690.247,-128.624 699.171,-134.335 700.785,-127.523"/>
</g>
<!-- Node18 -->
<g id="node18" class="node"><title>Node18</title>
<polygon fill="none" stroke="#bfbfbf" points="747,-112.5 747,-131.5 804,-131.5 804,-112.5 747,-112.5"/>
<text text-anchor="middle" x="775.5" y="-119.5" font-family="Helvetica,sans-Serif" font-size="10.00">memory</text>
</g>
<!-- Node17&#45;&gt;Node18 -->
<g id="edge26" class="edge"><title>Node17&#45;&gt;Node18</title>
<path fill="none" stroke="midnightblue" d="M875.644,-168.444C856.234,-159.636 825.77,-145.812 803.535,-135.722"/>
<polygon fill="midnightblue" stroke="midnightblue" points="804.82,-132.462 794.268,-131.516 801.928,-138.836 804.82,-132.462"/>
</g>
<!-- Node19 -->
<g id="node19" class="node"><title>Node19</title>
<polygon fill="none" stroke="#bfbfbf" points="822,-112.5 822,-131.5 885,-131.5 885,-112.5 822,-112.5"/>
<text text-anchor="middle" x="853.5" y="-119.5" font-family="Helvetica,sans-Serif" font-size="10.00">functional</text>
</g>
<!-- Node17&#45;&gt;Node19 -->
<g id="edge27" class="edge"><title>Node17&#45;&gt;Node19</title>
<path fill="none" stroke="midnightblue" d="M887.73,-168.083C881.938,-160.455 873.442,-149.264 866.362,-139.941"/>
<polygon fill="midnightblue" stroke="midnightblue" points="868.979,-137.599 860.144,-131.751 863.404,-141.832 868.979,-137.599"/>
</g>
<!-- Node20 -->
<g id="node20" class="node"><title>Node20</title>
<polygon fill="none" stroke="#bfbfbf" points="903.5,-112.5 903.5,-131.5 933.5,-131.5 933.5,-112.5 903.5,-112.5"/>
<text text-anchor="middle" x="918.5" y="-119.5" font-family="Helvetica,sans-Serif" font-size="10.00">list</text>
</g>
<!-- Node17&#45;&gt;Node20 -->
<g id="edge28" class="edge"><title>Node17&#45;&gt;Node20</title>
<path fill="none" stroke="midnightblue" d="M898.463,-168.083C901.713,-160.77 906.419,-150.181 910.454,-141.103"/>
<polygon fill="midnightblue" stroke="midnightblue" points="913.748,-142.311 914.611,-131.751 907.351,-139.468 913.748,-142.311"/>
</g>
<!-- Node21 -->
<g id="node21" class="node"><title>Node21</title>
<polygon fill="none" stroke="#bfbfbf" points="951.5,-112.5 951.5,-131.5 1013.5,-131.5 1013.5,-112.5 951.5,-112.5"/>
<text text-anchor="middle" x="982.5" y="-119.5" font-family="Helvetica,sans-Serif" font-size="10.00">algorithm</text>
</g>
<!-- Node17&#45;&gt;Node21 -->
<g id="edge30" class="edge"><title>Node17&#45;&gt;Node21</title>
<path fill="none" stroke="midnightblue" d="M908.639,-168.324C922.366,-159.9 943.436,-146.971 959.564,-137.074"/>
<polygon fill="midnightblue" stroke="midnightblue" points="961.704,-139.868 968.396,-131.655 958.043,-133.902 961.704,-139.868"/>
</g>
<!-- Node22&#45;&gt;Node4 -->
<g id="edge33" class="edge"><title>Node22&#45;&gt;Node4</title>
<path fill="none" stroke="midnightblue" d="M852.359,-392.344C872.469,-380.762 902.017,-358.999 890.5,-336 868.85,-292.764 818.928,-263.271 786.235,-247.789"/>
<polygon fill="midnightblue" stroke="midnightblue" points="787.651,-244.588 777.101,-243.613 784.741,-250.954 787.651,-244.588"/>
</g>
<!-- Node23 -->
<g id="node23" class="node"><title>Node23</title>
<g id="a_node23"><a xlink:href="Button_8hxx.html" target="_top" xlink:title="../widgets/Button.hxx">
<polygon fill="none" stroke="black" points="765.5,-336.5 765.5,-355.5 881.5,-355.5 881.5,-336.5 765.5,-336.5"/>
<text text-anchor="middle" x="823.5" y="-343.5" font-family="Helvetica,sans-Serif" font-size="10.00">../widgets/Button.hxx</text>
</a>
</g>
</g>
<!-- Node22&#45;&gt;Node23 -->
<g id="edge34" class="edge"><title>Node22&#45;&gt;Node23</title>
<path fill="none" stroke="midnightblue" d="M833.518,-392.083C831.928,-384.927 829.641,-374.635 827.654,-365.691"/>
<polygon fill="midnightblue" stroke="midnightblue" points="831.031,-364.754 825.445,-355.751 824.197,-366.272 831.031,-364.754"/>
</g>
<!-- Node23&#45;&gt;Node4 -->
<g id="edge35" class="edge"><title>Node23&#45;&gt;Node4</title>
<path fill="none" stroke="midnightblue" d="M818.164,-336.368C806.992,-318.296 780.955,-276.176 766.199,-252.307"/>
<polygon fill="midnightblue" stroke="midnightblue" points="769.046,-250.257 760.811,-243.591 763.092,-253.938 769.046,-250.257"/>
</g>
<!-- Node24 -->
<g id="node24" class="node"><title>Node24</title>
<g id="a_node24"><a xlink:href="Text_8hxx.html" target="_top" xlink:title="Text.hxx">
<polygon fill="none" stroke="black" points="672,-280.5 672,-299.5 727,-299.5 727,-280.5 672,-280.5"/>
<text text-anchor="middle" x="699.5" y="-287.5" font-family="Helvetica,sans-Serif" font-size="10.00">Text.hxx</text>
</a>
</g>
</g>
<!-- Node23&#45;&gt;Node24 -->
<g id="edge36" class="edge"><title>Node23&#45;&gt;Node24</title>
<path fill="none" stroke="midnightblue" d="M803.852,-336.444C783.535,-327.596 751.597,-313.687 728.402,-303.586"/>
<polygon fill="midnightblue" stroke="midnightblue" points="729.622,-300.3 719.056,-299.516 726.827,-306.718 729.622,-300.3"/>
</g>
<!-- Node24&#45;&gt;Node4 -->
<g id="edge38" class="edge"><title>Node24&#45;&gt;Node4</title>
<path fill="none" stroke="midnightblue" d="M708.497,-280.324C716.694,-272.42 729.006,-260.548 738.972,-250.938"/>
<polygon fill="midnightblue" stroke="midnightblue" points="741.57,-253.295 746.339,-243.834 736.711,-248.256 741.57,-253.295"/>
</g>
<!-- Node24&#45;&gt;Node5 -->
<g id="edge37" class="edge"><title>Node24&#45;&gt;Node5</title>
<path fill="none" stroke="midnightblue" d="M671.911,-286.439C588.501,-278.073 341.79,-248.531 294.5,-188 289.028,-180.995 290.359,-175.866 294.5,-168 328.152,-104.076 385.717,-134.21 428.5,-76 438.442,-62.4729 443.51,-43.9203 446.051,-30.0977"/>
<polygon fill="midnightblue" stroke="midnightblue" points="449.572,-30.2311 447.643,-19.8134 442.654,-29.1604 449.572,-30.2311"/>
</g>
<!-- Node26&#45;&gt;Node8 -->
<g id="edge42" class="edge"><title>Node26&#45;&gt;Node8</title>
<path fill="none" stroke="midnightblue" d="M1107.86,-172.987C1012.39,-165.719 806.726,-149.501 633.5,-132 621.382,-130.776 608.21,-129.292 596.243,-127.886"/>
<polygon fill="midnightblue" stroke="midnightblue" points="596.437,-124.385 586.094,-126.679 595.61,-131.336 596.437,-124.385"/>
</g>
<!-- Node26&#45;&gt;Node10 -->
<g id="edge47" class="edge"><title>Node26&#45;&gt;Node10</title>
<path fill="none" stroke="midnightblue" d="M1147.53,-168.42C1123.17,-153.937 1070.88,-124.954 1022.5,-112 929.174,-87.0111 631.686,-72.5471 532.235,-68.3153"/>
<polygon fill="midnightblue" stroke="midnightblue" points="532.31,-64.8154 522.172,-67.8934 532.016,-71.8093 532.31,-64.8154"/>
</g>
<!-- Node27 -->
<g id="node27" class="node"><title>Node27</title>
<polygon fill="none" stroke="#bfbfbf" points="1315.5,-112.5 1315.5,-131.5 1365.5,-131.5 1365.5,-112.5 1315.5,-112.5"/>
<text text-anchor="middle" x="1340.5" y="-119.5" font-family="Helvetica,sans-Serif" font-size="10.00">chrono</text>
</g>
<!-- Node26&#45;&gt;Node27 -->
<g id="edge43" class="edge"><title>Node26&#45;&gt;Node27</title>
<path fill="none" stroke="midnightblue" d="M1189.86,-168.444C1221.22,-158.984 1271.76,-143.738 1305.54,-133.546"/>
<polygon fill="midnightblue" stroke="midnightblue" points="1306.88,-136.797 1315.45,-130.558 1304.86,-130.095 1306.88,-136.797"/>
</g>
<!-- Node28 -->
<g id="node28" class="node"><title>Node28</title>
<polygon fill="none" stroke="#bfbfbf" points="1107.5,-112.5 1107.5,-131.5 1151.5,-131.5 1151.5,-112.5 1107.5,-112.5"/>
<text text-anchor="middle" x="1129.5" y="-119.5" font-family="Helvetica,sans-Serif" font-size="10.00">ctime</text>
</g>
<!-- Node26&#45;&gt;Node28 -->
<g id="edge44" class="edge"><title>Node26&#45;&gt;Node28</title>
<path fill="none" stroke="midnightblue" d="M1156.22,-168.083C1151.79,-160.613 1145.34,-149.724 1139.88,-140.52"/>
<polygon fill="midnightblue" stroke="midnightblue" points="1142.79,-138.57 1134.69,-131.751 1136.77,-142.138 1142.79,-138.57"/>
</g>
<!-- Node29 -->
<g id="node29" class="node"><title>Node29</title>
<polygon fill="none" stroke="#bfbfbf" points="1169.5,-112.5 1169.5,-131.5 1223.5,-131.5 1223.5,-112.5 1169.5,-112.5"/>
<text text-anchor="middle" x="1196.5" y="-119.5" font-family="Helvetica,sans-Serif" font-size="10.00">fstream</text>
</g>
<!-- Node26&#45;&gt;Node29 -->
<g id="edge45" class="edge"><title>Node26&#45;&gt;Node29</title>
<path fill="none" stroke="midnightblue" d="M1167.28,-168.083C1172.17,-160.534 1179.33,-149.495 1185.33,-140.23"/>
<polygon fill="midnightblue" stroke="midnightblue" points="1188.33,-142.046 1190.83,-131.751 1182.45,-138.239 1188.33,-142.046"/>
</g>
<!-- Node30 -->
<g id="node30" class="node"><title>Node30</title>
<polygon fill="none" stroke="#bfbfbf" points="1241.5,-112.5 1241.5,-131.5 1297.5,-131.5 1297.5,-112.5 1241.5,-112.5"/>
<text text-anchor="middle" x="1269.5" y="-119.5" font-family="Helvetica,sans-Serif" font-size="10.00">sstream</text>
</g>
<!-- Node26&#45;&gt;Node30 -->
<g id="edge46" class="edge"><title>Node26&#45;&gt;Node30</title>
<path fill="none" stroke="midnightblue" d="M1178.85,-168.324C1196.17,-159.664 1223.02,-146.242 1243,-136.249"/>
<polygon fill="midnightblue" stroke="midnightblue" points="1244.81,-139.257 1252.19,-131.655 1241.68,-132.996 1244.81,-139.257"/>
</g>
<!-- Node31&#45;&gt;Node5 -->
<g id="edge49" class="edge"><title>Node31&#45;&gt;Node5</title>
<path fill="none" stroke="midnightblue" d="M48.696,-112.459C28.3821,-99.7057 -3.75869,-75.1362 13.5,-56 40.3986,-26.1752 320.012,-14.9106 416.205,-11.9"/>
<polygon fill="midnightblue" stroke="midnightblue" points="416.595,-15.3899 426.484,-11.5882 416.382,-8.39313 416.595,-15.3899"/>
</g>
<!-- Node31&#45;&gt;Node14 -->
<g id="edge50" class="edge"><title>Node31&#45;&gt;Node14</title>
<path fill="none" stroke="midnightblue" d="M63.5,-112.083C63.5,-105.006 63.5,-94.8611 63.5,-85.9865"/>
<polygon fill="midnightblue" stroke="midnightblue" points="67.0001,-85.751 63.5,-75.7511 60.0001,-85.7511 67.0001,-85.751"/>
</g>
</g>
</svg>
