<?xml version="1.0" encoding="UTF-8" standalone="no"?>
<!DOCTYPE svg PUBLIC "-//W3C//DTD SVG 1.1//EN"
 "http://www.w3.org/Graphics/SVG/1.1/DTD/svg11.dtd">
<!-- Generated by graphviz version 2.38.0 (20140413.2041)
 -->
<!-- Title: src/engine/ui/menuGroups/MenuGroupBuild.hxx Pages: 1 -->
<!--zoomable 543 -->
<svg id="main" version="1.1" xmlns="http://www.w3.org/2000/svg" xmlns:xlink="http://www.w3.org/1999/xlink" xml:space="preserve" onload="init(evt)">
<style type="text/css"><![CDATA[
.edge:hover path { stroke: red; }
.edge:hover polygon { stroke: red; fill: red; }
]]></style>
<script type="text/javascript"><![CDATA[
var edges = document.getElementsByTagName('g');
if (edges && edges.length) {
  for (var i=0;i<edges.length;i++) {
    if (edges[i].id.substr(0,4)=='edge') {
      edges[i].setAttribute('class','edge');
    }
  }
}
]]></script>
        <defs>
                <circle id="rim" cx="0" cy="0" r="7"/>
                <circle id="rim2" cx="0" cy="0" r="3.5"/>
                <g id="zoomPlus">
                        <use xlink:href="#rim" fill="#404040">
                                <set attributeName="fill" to="#808080" begin="zoomplus.mouseover" end="zoomplus.mouseout"/>
                        </use>
                        <path d="M-4,0h8M0,-4v8" fill="none" stroke="white" stroke-width="1.5" pointer-events="none"/>
                </g>
                <g id="zoomMin">
                        <use xlink:href="#rim" fill="#404040">
                                <set attributeName="fill" to="#808080" begin="zoomminus.mouseover" end="zoomminus.mouseout"/>
                        </use>
                        <path d="M-4,0h8" fill="none" stroke="white" stroke-width="1.5" pointer-events="none"/>
                </g>
                <g id="dirArrow">
                        <path fill="none" stroke="white" stroke-width="1.5" d="M0,-3.0v7 M-2.5,-0.5L0,-3.0L2.5,-0.5"/>
                </g>
               <g id="resetDef">
                       <use xlink:href="#rim2" fill="#404040">
                               <set attributeName="fill" to="#808080" begin="reset.mouseover" end="reset.mouseout"/>
                       </use>
               </g>
        </defs>

<script type="text/javascript">
var viewWidth = 1014;
var viewHeight = 543;
var sectionId = 'dynsection-0';
</script>
<script xlink:href="svgpan.js"/>
<svg id="graph" class="graph">
<g id="viewport">
<title>src/engine/ui/menuGroups/MenuGroupBuild.hxx</title>
<!-- Node1 -->
<g id="node1" class="node"><title>Node1</title>
<polygon fill="#bfbfbf" stroke="black" points="568.5,-504.5 568.5,-534.5 711.5,-534.5 711.5,-504.5 568.5,-504.5"/>
<text text-anchor="start" x="576.5" y="-522.5" font-family="Helvetica,sans-Serif" font-size="10.00">src/engine/ui/menuGroups</text>
<text text-anchor="middle" x="640" y="-511.5" font-family="Helvetica,sans-Serif" font-size="10.00">/MenuGroupBuild.hxx</text>
</g>
<!-- Node2 -->
<g id="node2" class="node"><title>Node2</title>
<g id="a_node2"><a xlink:href="IMenuGroup_8hxx.html" target="_top" xlink:title="IMenuGroup.hxx">
<polygon fill="none" stroke="black" points="593,-448.5 593,-467.5 687,-467.5 687,-448.5 593,-448.5"/>
<text text-anchor="middle" x="640" y="-455.5" font-family="Helvetica,sans-Serif" font-size="10.00">IMenuGroup.hxx</text>
</a>
</g>
</g>
<!-- Node1&#45;&gt;Node2 -->
<g id="edge1" class="edge"><title>Node1&#45;&gt;Node2</title>
<path fill="none" stroke="midnightblue" d="M640,-504.399C640,-496.466 640,-486.458 640,-477.858"/>
<polygon fill="midnightblue" stroke="midnightblue" points="643.5,-477.658 640,-467.658 636.5,-477.658 643.5,-477.658"/>
</g>
<!-- Node3 -->
<g id="node3" class="node"><title>Node3</title>
<g id="a_node3"><a xlink:href="UIElement_8hxx.html" target="_top" xlink:title="../basics/UIElement.hxx">
<polygon fill="none" stroke="black" points="390,-224.5 390,-243.5 518,-243.5 518,-224.5 390,-224.5"/>
<text text-anchor="middle" x="454" y="-231.5" font-family="Helvetica,sans-Serif" font-size="10.00">../basics/UIElement.hxx</text>
</a>
</g>
</g>
<!-- Node2&#45;&gt;Node3 -->
<g id="edge2" class="edge"><title>Node2&#45;&gt;Node3</title>
<path fill="none" stroke="midnightblue" d="M632.709,-448.297C604.877,-415.079 505.039,-295.918 467.978,-251.684"/>
<polygon fill="midnightblue" stroke="midnightblue" points="470.548,-249.301 461.443,-243.884 465.183,-253.797 470.548,-249.301"/>
</g>
<!-- Node15 -->
<g id="node15" class="node"><title>Node15</title>
<polygon fill="none" stroke="#bfbfbf" points="674.5,-112.5 674.5,-131.5 721.5,-131.5 721.5,-112.5 674.5,-112.5"/>
<text text-anchor="middle" x="698" y="-119.5" font-family="Helvetica,sans-Serif" font-size="10.00">vector</text>
</g>
<!-- Node2&#45;&gt;Node15 -->
<g id="edge39" class="edge"><title>Node2&#45;&gt;Node15</title>
<path fill="none" stroke="midnightblue" d="M643.237,-448.301C649.788,-429.889 664,-385.507 664,-347 664,-347 664,-347 664,-233 664,-199.16 678.87,-161.97 688.942,-140.661"/>
<polygon fill="midnightblue" stroke="midnightblue" points="692.145,-142.079 693.415,-131.56 685.863,-138.991 692.145,-142.079"/>
</g>
<!-- Node21 -->
<g id="node21" class="node"><title>Node21</title>
<g id="a_node21"><a xlink:href="ButtonGroup_8hxx.html" target="_top" xlink:title="../basics/ButtonGroup.hxx">
<polygon fill="none" stroke="black" points="431,-392.5 431,-411.5 571,-411.5 571,-392.5 431,-392.5"/>
<text text-anchor="middle" x="501" y="-399.5" font-family="Helvetica,sans-Serif" font-size="10.00">../basics/ButtonGroup.hxx</text>
</a>
</g>
</g>
<!-- Node2&#45;&gt;Node21 -->
<g id="edge31" class="edge"><title>Node2&#45;&gt;Node21</title>
<path fill="none" stroke="midnightblue" d="M617.975,-448.444C594.896,-439.478 558.438,-425.314 532.359,-415.183"/>
<polygon fill="midnightblue" stroke="midnightblue" points="533.511,-411.875 522.922,-411.516 530.976,-418.4 533.511,-411.875"/>
</g>
<!-- Node24 -->
<g id="node24" class="node"><title>Node24</title>
<polygon fill="none" stroke="#bfbfbf" points="692,-392.5 692,-411.5 730,-411.5 730,-392.5 692,-392.5"/>
<text text-anchor="middle" x="711" y="-399.5" font-family="Helvetica,sans-Serif" font-size="10.00">map</text>
</g>
<!-- Node2&#45;&gt;Node24 -->
<g id="edge38" class="edge"><title>Node2&#45;&gt;Node24</title>
<path fill="none" stroke="midnightblue" d="M651.407,-448.324C662.109,-440.185 678.341,-427.839 691.163,-418.087"/>
<polygon fill="midnightblue" stroke="midnightblue" points="693.544,-420.673 699.385,-411.834 689.307,-415.102 693.544,-420.673"/>
</g>
<!-- Node4 -->
<g id="node4" class="node"><title>Node4</title>
<polygon fill="none" stroke="#bfbfbf" points="233,-0.5 233,-19.5 277,-19.5 277,-0.5 233,-0.5"/>
<text text-anchor="middle" x="255" y="-7.5" font-family="Helvetica,sans-Serif" font-size="10.00">string</text>
</g>
<!-- Node3&#45;&gt;Node4 -->
<g id="edge3" class="edge"><title>Node3&#45;&gt;Node4</title>
<path fill="none" stroke="midnightblue" d="M389.667,-224.879C353.777,-218.459 309.158,-207.246 273,-188 207.445,-153.106 179.153,-143.867 149,-76 134.042,-42.3338 186.131,-24.6679 222.524,-16.6307"/>
<polygon fill="midnightblue" stroke="midnightblue" points="223.673,-19.9679 232.763,-14.526 222.263,-13.1112 223.673,-19.9679"/>
</g>
<!-- Node5 -->
<g id="node5" class="node"><title>Node5</title>
<g id="a_node5"><a xlink:href="mapEdit_8hxx.html" target="_top" xlink:title="../../basics/mapEdit.hxx">
<polygon fill="none" stroke="black" points="28.5,-168.5 28.5,-187.5 155.5,-187.5 155.5,-168.5 28.5,-168.5"/>
<text text-anchor="middle" x="92" y="-175.5" font-family="Helvetica,sans-Serif" font-size="10.00">../../basics/mapEdit.hxx</text>
</a>
</g>
</g>
<!-- Node3&#45;&gt;Node5 -->
<g id="edge4" class="edge"><title>Node3&#45;&gt;Node5</title>
<path fill="none" stroke="midnightblue" d="M396.64,-224.444C332.166,-214.826 227.599,-199.228 159.311,-189.041"/>
<polygon fill="midnightblue" stroke="midnightblue" points="159.499,-185.53 149.092,-187.516 158.466,-192.454 159.499,-185.53"/>
</g>
<!-- Node6 -->
<g id="node6" class="node"><title>Node6</title>
<g id="a_node6"><a xlink:href="ResourcesManager_8hxx.html" target="_top" xlink:title="../../ResourcesManager.hxx">
<polygon fill="none" stroke="black" points="282,-168.5 282,-187.5 426,-187.5 426,-168.5 282,-168.5"/>
<text text-anchor="middle" x="354" y="-175.5" font-family="Helvetica,sans-Serif" font-size="10.00">../../ResourcesManager.hxx</text>
</a>
</g>
</g>
<!-- Node3&#45;&gt;Node6 -->
<g id="edge6" class="edge"><title>Node3&#45;&gt;Node6</title>
<path fill="none" stroke="midnightblue" d="M437.933,-224.324C422.042,-215.743 397.493,-202.486 379.042,-192.522"/>
<polygon fill="midnightblue" stroke="midnightblue" points="380.489,-189.326 370.027,-187.655 377.163,-195.486 380.489,-189.326"/>
</g>
<!-- Node9 -->
<g id="node9" class="node"><title>Node9</title>
<polygon fill="none" stroke="#bfbfbf" points="473.5,-56.5 473.5,-75.5 518.5,-75.5 518.5,-56.5 473.5,-56.5"/>
<text text-anchor="middle" x="496" y="-63.5" font-family="Helvetica,sans-Serif" font-size="10.00">SDL.h</text>
</g>
<!-- Node3&#45;&gt;Node9 -->
<g id="edge30" class="edge"><title>Node3&#45;&gt;Node9</title>
<path fill="none" stroke="midnightblue" d="M454.425,-224.273C455.612,-204.06 459.794,-152.65 473,-112 476.084,-102.508 480.968,-92.5669 485.444,-84.4496"/>
<polygon fill="midnightblue" stroke="midnightblue" points="488.581,-86.0156 490.553,-75.6058 482.52,-82.5142 488.581,-86.0156"/>
</g>
<!-- Node14 -->
<g id="node14" class="node"><title>Node14</title>
<g id="a_node14"><a xlink:href="WindowManager_8hxx.html" target="_top" xlink:title="../../WindowManager.hxx">
<polygon fill="none" stroke="black" points="504.5,-168.5 504.5,-187.5 635.5,-187.5 635.5,-168.5 504.5,-168.5"/>
<text text-anchor="middle" x="570" y="-175.5" font-family="Helvetica,sans-Serif" font-size="10.00">../../WindowManager.hxx</text>
</a>
</g>
</g>
<!-- Node3&#45;&gt;Node14 -->
<g id="edge18" class="edge"><title>Node3&#45;&gt;Node14</title>
<path fill="none" stroke="midnightblue" d="M472.381,-224.444C491.216,-215.675 520.731,-201.935 542.379,-191.858"/>
<polygon fill="midnightblue" stroke="midnightblue" points="544.117,-194.91 551.705,-187.516 541.162,-188.564 544.117,-194.91"/>
</g>
<!-- Node16 -->
<g id="node16" class="node"><title>Node16</title>
<g id="a_node16"><a xlink:href="signal_8hxx.html" target="_top" xlink:title="../../basics/signal.hxx">
<polygon fill="none" stroke="black" points="749.5,-168.5 749.5,-187.5 864.5,-187.5 864.5,-168.5 749.5,-168.5"/>
<text text-anchor="middle" x="807" y="-175.5" font-family="Helvetica,sans-Serif" font-size="10.00">../../basics/signal.hxx</text>
</a>
</g>
</g>
<!-- Node3&#45;&gt;Node16 -->
<g id="edge24" class="edge"><title>Node3&#45;&gt;Node16</title>
<path fill="none" stroke="midnightblue" d="M509.934,-224.444C572.805,-214.826 674.772,-199.228 741.362,-189.041"/>
<polygon fill="midnightblue" stroke="midnightblue" points="741.972,-192.488 751.328,-187.516 740.913,-185.569 741.972,-192.488"/>
</g>
<!-- Node5&#45;&gt;Node4 -->
<g id="edge5" class="edge"><title>Node5&#45;&gt;Node4</title>
<path fill="none" stroke="midnightblue" d="M91.0048,-168.413C88.987,-146.664 86.8286,-88.8104 116,-56 143.029,-25.5998 190.742,-15.6282 222.617,-12.4205"/>
<polygon fill="midnightblue" stroke="midnightblue" points="223.094,-15.893 232.767,-11.5722 222.51,-8.9173 223.094,-15.893"/>
</g>
<!-- Node7 -->
<g id="node7" class="node"><title>Node7</title>
<polygon fill="none" stroke="#bfbfbf" points="482.5,-112.5 482.5,-131.5 541.5,-131.5 541.5,-112.5 482.5,-112.5"/>
<text text-anchor="middle" x="512" y="-119.5" font-family="Helvetica,sans-Serif" font-size="10.00">iostream</text>
</g>
<!-- Node6&#45;&gt;Node7 -->
<g id="edge7" class="edge"><title>Node6&#45;&gt;Node7</title>
<path fill="none" stroke="midnightblue" d="M379.036,-168.444C405.616,-159.359 447.809,-144.939 477.523,-134.783"/>
<polygon fill="midnightblue" stroke="midnightblue" points="478.751,-138.062 487.082,-131.516 476.487,-131.439 478.751,-138.062"/>
</g>
<!-- Node8 -->
<g id="node8" class="node"><title>Node8</title>
<polygon fill="none" stroke="#bfbfbf" points="158.5,-56.5 158.5,-75.5 251.5,-75.5 251.5,-56.5 158.5,-56.5"/>
<text text-anchor="middle" x="205" y="-63.5" font-family="Helvetica,sans-Serif" font-size="10.00">unordered_map</text>
</g>
<!-- Node6&#45;&gt;Node8 -->
<g id="edge8" class="edge"><title>Node6&#45;&gt;Node8</title>
<path fill="none" stroke="midnightblue" d="M339.968,-168.45C325.819,-159.69 303.488,-145.483 285,-132 263.041,-115.985 238.98,-96.0952 223.04,-82.5643"/>
<polygon fill="midnightblue" stroke="midnightblue" points="224.961,-79.602 215.085,-75.7664 220.413,-84.9237 224.961,-79.602"/>
</g>
<!-- Node6&#45;&gt;Node9 -->
<g id="edge9" class="edge"><title>Node6&#45;&gt;Node9</title>
<path fill="none" stroke="midnightblue" d="M365.143,-168.368C389.302,-149.653 446.751,-105.151 476.853,-81.8324"/>
<polygon fill="midnightblue" stroke="midnightblue" points="479.147,-84.4824 484.909,-75.5914 474.86,-78.9485 479.147,-84.4824"/>
</g>
<!-- Node10 -->
<g id="node10" class="node"><title>Node10</title>
<g id="a_node10"><a xlink:href="TileManager_8hxx.html" target="_top" xlink:title="TileManager.hxx">
<polygon fill="none" stroke="black" points="294.5,-112.5 294.5,-131.5 387.5,-131.5 387.5,-112.5 294.5,-112.5"/>
<text text-anchor="middle" x="341" y="-119.5" font-family="Helvetica,sans-Serif" font-size="10.00">TileManager.hxx</text>
</a>
</g>
</g>
<!-- Node6&#45;&gt;Node10 -->
<g id="edge10" class="edge"><title>Node6&#45;&gt;Node10</title>
<path fill="none" stroke="midnightblue" d="M351.853,-168.083C350.131,-160.927 347.653,-150.635 345.5,-141.691"/>
<polygon fill="midnightblue" stroke="midnightblue" points="348.85,-140.654 343.107,-131.751 342.045,-142.293 348.85,-140.654"/>
</g>
<!-- Node10&#45;&gt;Node4 -->
<g id="edge13" class="edge"><title>Node10&#45;&gt;Node4</title>
<path fill="none" stroke="midnightblue" d="M369.582,-112.486C401.213,-101.589 445.338,-81.0856 426,-56 409.169,-34.167 331.788,-20.8198 287.102,-14.7978"/>
<polygon fill="midnightblue" stroke="midnightblue" points="287.4,-11.3072 277.033,-13.4901 286.499,-18.2489 287.4,-11.3072"/>
</g>
<!-- Node10&#45;&gt;Node8 -->
<g id="edge12" class="edge"><title>Node10&#45;&gt;Node8</title>
<path fill="none" stroke="midnightblue" d="M319.45,-112.444C296.969,-103.517 261.512,-89.4387 236.02,-79.3168"/>
<polygon fill="midnightblue" stroke="midnightblue" points="237.035,-75.9539 226.449,-75.5164 234.451,-82.4598 237.035,-75.9539"/>
</g>
<!-- Node10&#45;&gt;Node9 -->
<g id="edge11" class="edge"><title>Node10&#45;&gt;Node9</title>
<path fill="none" stroke="midnightblue" d="M365.56,-112.444C391.981,-103.239 434.125,-88.5565 463.328,-78.3826"/>
<polygon fill="midnightblue" stroke="midnightblue" points="464.779,-81.5835 473.071,-74.9883 462.476,-74.9731 464.779,-81.5835"/>
</g>
<!-- Node11 -->
<g id="node11" class="node"><title>Node11</title>
<g id="a_node11"><a xlink:href="tileData_8hxx.html" target="_top" xlink:title="tileData.hxx">
<polygon fill="none" stroke="black" points="343,-56.5 343,-75.5 417,-75.5 417,-56.5 343,-56.5"/>
<text text-anchor="middle" x="380" y="-63.5" font-family="Helvetica,sans-Serif" font-size="10.00">tileData.hxx</text>
</a>
</g>
</g>
<!-- Node10&#45;&gt;Node11 -->
<g id="edge14" class="edge"><title>Node10&#45;&gt;Node11</title>
<path fill="none" stroke="midnightblue" d="M347.44,-112.083C352.949,-104.455 361.031,-93.2645 367.765,-83.9408"/>
<polygon fill="midnightblue" stroke="midnightblue" points="370.662,-85.9071 373.68,-75.7511 364.987,-81.8087 370.662,-85.9071"/>
</g>
<!-- Node12 -->
<g id="node12" class="node"><title>Node12</title>
<polygon fill="none" stroke="#bfbfbf" points="269,-56.5 269,-75.5 325,-75.5 325,-56.5 269,-56.5"/>
<text text-anchor="middle" x="297" y="-63.5" font-family="Helvetica,sans-Serif" font-size="10.00">json.hxx</text>
</g>
<!-- Node10&#45;&gt;Node12 -->
<g id="edge16" class="edge"><title>Node10&#45;&gt;Node12</title>
<path fill="none" stroke="midnightblue" d="M333.734,-112.083C327.455,-104.377 318.212,-93.0333 310.569,-83.6531"/>
<polygon fill="midnightblue" stroke="midnightblue" points="313.161,-81.2926 304.131,-75.7511 307.734,-85.7143 313.161,-81.2926"/>
</g>
<!-- Node13 -->
<g id="node13" class="node"><title>Node13</title>
<g id="a_node13"><a xlink:href="Singleton_8hxx.html" target="_top" xlink:title="Singleton.hxx">
<polygon fill="none" stroke="black" points="536.5,-56.5 536.5,-75.5 617.5,-75.5 617.5,-56.5 536.5,-56.5"/>
<text text-anchor="middle" x="577" y="-63.5" font-family="Helvetica,sans-Serif" font-size="10.00">Singleton.hxx</text>
</a>
</g>
</g>
<!-- Node10&#45;&gt;Node13 -->
<g id="edge17" class="edge"><title>Node10&#45;&gt;Node13</title>
<path fill="none" stroke="midnightblue" d="M378.395,-112.444C419.392,-103.063 485.254,-87.9926 529.784,-77.8036"/>
<polygon fill="midnightblue" stroke="midnightblue" points="530.813,-81.1588 539.78,-75.5164 529.251,-74.3352 530.813,-81.1588"/>
</g>
<!-- Node11&#45;&gt;Node4 -->
<g id="edge15" class="edge"><title>Node11&#45;&gt;Node4</title>
<path fill="none" stroke="midnightblue" d="M360.193,-56.4435C339.713,-47.5961 307.517,-33.6875 284.135,-23.5865"/>
<polygon fill="midnightblue" stroke="midnightblue" points="285.282,-20.2692 274.714,-19.5164 282.506,-26.6953 285.282,-20.2692"/>
</g>
<!-- Node14&#45;&gt;Node4 -->
<g id="edge19" class="edge"><title>Node14&#45;&gt;Node4</title>
<path fill="none" stroke="midnightblue" d="M579.869,-168.426C603.161,-147.195 657.316,-91.3436 626,-56 603.666,-30.7939 373.534,-16.8743 287.35,-12.5134"/>
<polygon fill="midnightblue" stroke="midnightblue" points="287.27,-9.00519 277.109,-12.0061 286.923,-15.9966 287.27,-9.00519"/>
</g>
<!-- Node14&#45;&gt;Node7 -->
<g id="edge20" class="edge"><title>Node14&#45;&gt;Node7</title>
<path fill="none" stroke="midnightblue" d="M560.681,-168.324C552.107,-160.341 539.188,-148.313 528.812,-138.653"/>
<polygon fill="midnightblue" stroke="midnightblue" points="531.192,-136.086 521.488,-131.834 526.422,-141.21 531.192,-136.086"/>
</g>
<!-- Node14&#45;&gt;Node9 -->
<g id="edge22" class="edge"><title>Node14&#45;&gt;Node9</title>
<path fill="none" stroke="midnightblue" d="M568.937,-168.33C566.992,-155.195 561.907,-129.888 550,-112 541.89,-99.8157 529.526,-89.1709 518.675,-81.2974"/>
<polygon fill="midnightblue" stroke="midnightblue" points="520.627,-78.3921 510.406,-75.6007 516.655,-84.1565 520.627,-78.3921"/>
</g>
<!-- Node14&#45;&gt;Node13 -->
<g id="edge23" class="edge"><title>Node14&#45;&gt;Node13</title>
<path fill="none" stroke="midnightblue" d="M573.6,-168.222C577.056,-159.285 582.033,-144.942 584,-132 586.348,-116.552 584.146,-98.9204 581.609,-85.9219"/>
<polygon fill="midnightblue" stroke="midnightblue" points="584.963,-84.8789 579.399,-75.8629 578.126,-86.381 584.963,-84.8789"/>
</g>
<!-- Node14&#45;&gt;Node15 -->
<g id="edge21" class="edge"><title>Node14&#45;&gt;Node15</title>
<path fill="none" stroke="midnightblue" d="M590.282,-168.444C611.347,-159.557 644.517,-145.563 668.486,-135.451"/>
<polygon fill="midnightblue" stroke="midnightblue" points="669.96,-138.628 677.813,-131.516 667.239,-132.179 669.96,-138.628"/>
</g>
<!-- Node16&#45;&gt;Node15 -->
<g id="edge28" class="edge"><title>Node16&#45;&gt;Node15</title>
<path fill="none" stroke="midnightblue" d="M789.487,-168.324C771.928,-159.625 744.669,-146.12 724.469,-136.113"/>
<polygon fill="midnightblue" stroke="midnightblue" points="725.984,-132.958 715.469,-131.655 722.876,-139.23 725.984,-132.958"/>
</g>
<!-- Node17 -->
<g id="node17" class="node"><title>Node17</title>
<polygon fill="none" stroke="#bfbfbf" points="739.5,-112.5 739.5,-131.5 796.5,-131.5 796.5,-112.5 739.5,-112.5"/>
<text text-anchor="middle" x="768" y="-119.5" font-family="Helvetica,sans-Serif" font-size="10.00">memory</text>
</g>
<!-- Node16&#45;&gt;Node17 -->
<g id="edge25" class="edge"><title>Node16&#45;&gt;Node17</title>
<path fill="none" stroke="midnightblue" d="M800.56,-168.083C795.051,-160.455 786.969,-149.264 780.235,-139.941"/>
<polygon fill="midnightblue" stroke="midnightblue" points="783.013,-137.809 774.32,-131.751 777.338,-141.907 783.013,-137.809"/>
</g>
<!-- Node18 -->
<g id="node18" class="node"><title>Node18</title>
<polygon fill="none" stroke="#bfbfbf" points="814.5,-112.5 814.5,-131.5 877.5,-131.5 877.5,-112.5 814.5,-112.5"/>
<text text-anchor="middle" x="846" y="-119.5" font-family="Helvetica,sans-Serif" font-size="10.00">functional</text>
</g>
<!-- Node16&#45;&gt;Node18 -->
<g id="edge26" class="edge"><title>Node16&#45;&gt;Node18</title>
<path fill="none" stroke="midnightblue" d="M813.44,-168.083C818.949,-160.455 827.031,-149.264 833.765,-139.941"/>
<polygon fill="midnightblue" stroke="midnightblue" points="836.662,-141.907 839.68,-131.751 830.987,-137.809 836.662,-141.907"/>
</g>
<!-- Node19 -->
<g id="node19" class="node"><title>Node19</title>
<polygon fill="none" stroke="#bfbfbf" points="896,-112.5 896,-131.5 926,-131.5 926,-112.5 896,-112.5"/>
<text text-anchor="middle" x="911" y="-119.5" font-family="Helvetica,sans-Serif" font-size="10.00">list</text>
</g>
<!-- Node16&#45;&gt;Node19 -->
<g id="edge27" class="edge"><title>Node16&#45;&gt;Node19</title>
<path fill="none" stroke="midnightblue" d="M823.709,-168.324C840.705,-159.499 867.223,-145.73 886.574,-135.683"/>
<polygon fill="midnightblue" stroke="midnightblue" points="888.426,-138.665 895.688,-130.951 885.2,-132.453 888.426,-138.665"/>
</g>
<!-- Node20 -->
<g id="node20" class="node"><title>Node20</title>
<polygon fill="none" stroke="#bfbfbf" points="944,-112.5 944,-131.5 1006,-131.5 1006,-112.5 944,-112.5"/>
<text text-anchor="middle" x="975" y="-119.5" font-family="Helvetica,sans-Serif" font-size="10.00">algorithm</text>
</g>
<!-- Node16&#45;&gt;Node20 -->
<g id="edge29" class="edge"><title>Node16&#45;&gt;Node20</title>
<path fill="none" stroke="midnightblue" d="M833.62,-168.444C862.006,-159.32 907.137,-144.813 938.753,-134.651"/>
<polygon fill="midnightblue" stroke="midnightblue" points="940.055,-137.909 948.504,-131.516 937.913,-131.244 940.055,-137.909"/>
</g>
<!-- Node21&#45;&gt;Node3 -->
<g id="edge32" class="edge"><title>Node21&#45;&gt;Node3</title>
<path fill="none" stroke="midnightblue" d="M498.473,-392.075C491.075,-365.945 469.349,-289.211 459.26,-253.577"/>
<polygon fill="midnightblue" stroke="midnightblue" points="462.518,-252.236 456.426,-243.568 455.783,-254.143 462.518,-252.236"/>
</g>
<!-- Node22 -->
<g id="node22" class="node"><title>Node22</title>
<g id="a_node22"><a xlink:href="Button_8hxx.html" target="_top" xlink:title="../widgets/Button.hxx">
<polygon fill="none" stroke="black" points="357,-336.5 357,-355.5 473,-355.5 473,-336.5 357,-336.5"/>
<text text-anchor="middle" x="415" y="-343.5" font-family="Helvetica,sans-Serif" font-size="10.00">../widgets/Button.hxx</text>
</a>
</g>
</g>
<!-- Node21&#45;&gt;Node22 -->
<g id="edge33" class="edge"><title>Node21&#45;&gt;Node22</title>
<path fill="none" stroke="midnightblue" d="M487.183,-392.324C473.767,-383.9 453.176,-370.971 437.414,-361.074"/>
<polygon fill="midnightblue" stroke="midnightblue" points="439.113,-358.008 428.783,-355.655 435.391,-363.936 439.113,-358.008"/>
</g>
<!-- Node22&#45;&gt;Node3 -->
<g id="edge34" class="edge"><title>Node22&#45;&gt;Node3</title>
<path fill="none" stroke="midnightblue" d="M418.904,-336.476C422.941,-327.501 429.302,-312.91 434,-300 439.678,-284.398 445.153,-266.323 448.934,-253.2"/>
<polygon fill="midnightblue" stroke="midnightblue" points="452.323,-254.08 451.68,-243.504 445.588,-252.172 452.323,-254.08"/>
</g>
<!-- Node23 -->
<g id="node23" class="node"><title>Node23</title>
<g id="a_node23"><a xlink:href="Text_8hxx.html" target="_top" xlink:title="Text.hxx">
<polygon fill="none" stroke="black" points="370.5,-280.5 370.5,-299.5 425.5,-299.5 425.5,-280.5 370.5,-280.5"/>
<text text-anchor="middle" x="398" y="-287.5" font-family="Helvetica,sans-Serif" font-size="10.00">Text.hxx</text>
</a>
</g>
</g>
<!-- Node22&#45;&gt;Node23 -->
<g id="edge35" class="edge"><title>Node22&#45;&gt;Node23</title>
<path fill="none" stroke="midnightblue" d="M412.193,-336.083C409.915,-328.849 406.629,-318.409 403.792,-309.397"/>
<polygon fill="midnightblue" stroke="midnightblue" points="407.096,-308.239 400.755,-299.751 400.419,-310.341 407.096,-308.239"/>
</g>
<!-- Node23&#45;&gt;Node3 -->
<g id="edge37" class="edge"><title>Node23&#45;&gt;Node3</title>
<path fill="none" stroke="midnightblue" d="M406.997,-280.324C415.194,-272.42 427.506,-260.548 437.472,-250.938"/>
<polygon fill="midnightblue" stroke="midnightblue" points="440.07,-253.295 444.839,-243.834 435.211,-248.256 440.07,-253.295"/>
</g>
<!-- Node23&#45;&gt;Node4 -->
<g id="edge36" class="edge"><title>Node23&#45;&gt;Node4</title>
<path fill="none" stroke="midnightblue" d="M370.329,-287.348C280.072,-281.213 0,-255.975 0,-179 0,-179 0,-179 0,-121 0,-25.1206 153.872,-11.8235 222.561,-10.6641"/>
<polygon fill="midnightblue" stroke="midnightblue" points="222.849,-14.1618 232.817,-10.5715 222.785,-7.16206 222.849,-14.1618"/>
</g>
</g>
</svg>
        <g id="navigator" transform="translate(0 0)" fill="#404254">
                <rect fill="#f2f5e9" fill-opacity="0.5" stroke="#606060" stroke-width=".5" x="0" y="0" width="60" height="60"/>
                <use id="zoomplus" xlink:href="#zoomPlus" x="17" y="9" onmousedown="handleZoom(evt,'in')"/>
                <use id="zoomminus" xlink:href="#zoomMin" x="42" y="9" onmousedown="handleZoom(evt,'out')"/>
                <use id="reset" xlink:href="#resetDef" x="30" y="36" onmousedown="handleReset()"/>
                <g id="arrowUp" xlink:href="#dirArrow" transform="translate(30 24)" onmousedown="handlePan(0,-1)">
                  <use xlink:href="#rim" fill="#404040">
                        <set attributeName="fill" to="#808080" begin="arrowUp.mouseover" end="arrowUp.mouseout"/>
                  </use>
                  <path fill="none" stroke="white" stroke-width="1.5" d="M0,-3.0v7 M-2.5,-0.5L0,-3.0L2.5,-0.5"/>
                </g>
                <g id="arrowRight" xlink:href="#dirArrow" transform="rotate(90) translate(36 -43)" onmousedown="handlePan(1,0)">
                  <use xlink:href="#rim" fill="#404040">
                        <set attributeName="fill" to="#808080" begin="arrowRight.mouseover" end="arrowRight.mouseout"/>
                  </use>
                  <path fill="none" stroke="white" stroke-width="1.5" d="M0,-3.0v7 M-2.5,-0.5L0,-3.0L2.5,-0.5"/>
                </g>
                <g id="arrowDown" xlink:href="#dirArrow" transform="rotate(180) translate(-30 -48)" onmousedown="handlePan(0,1)">
                  <use xlink:href="#rim" fill="#404040">
                        <set attributeName="fill" to="#808080" begin="arrowDown.mouseover" end="arrowDown.mouseout"/>
                  </use>
                  <path fill="none" stroke="white" stroke-width="1.5" d="M0,-3.0v7 M-2.5,-0.5L0,-3.0L2.5,-0.5"/>
                </g>
                <g id="arrowLeft" xlink:href="#dirArrow" transform="rotate(270) translate(-36 17)" onmousedown="handlePan(-1,0)">
                  <use xlink:href="#rim" fill="#404040">
                        <set attributeName="fill" to="#808080" begin="arrowLeft.mouseover" end="arrowLeft.mouseout"/>
                  </use>
                  <path fill="none" stroke="white" stroke-width="1.5" d="M0,-3.0v7 M-2.5,-0.5L0,-3.0L2.5,-0.5"/>
                </g>
        </g>
        <svg viewBox="0 0 15 15" width="100%" height="30px" preserveAspectRatio="xMaxYMin meet">
         <g id="arrow_out" transform="scale(0.3 0.3)">
          <a xlink:href="MenuGroupBuild_8hxx__incl_org.svg" target="_base">
           <rect id="button" ry="5" rx="5" y="6" x="6" height="38" width="38"
                fill="#f2f5e9" fill-opacity="0.5" stroke="#606060" stroke-width="1.0"/>
           <path id="arrow"
             d="M 11.500037,31.436501 C 11.940474,20.09759 22.043105,11.32322 32.158766,21.979434 L 37.068811,17.246167 C 37.068811,17.246167 37.088388,32 37.088388,32 L 22.160133,31.978069 C 22.160133,31.978069 26.997745,27.140456 26.997745,27.140456 C 18.528582,18.264221 13.291696,25.230495 11.500037,31.436501 z"
             style="fill:#404040;"/>
          </a>
         </g>
        </svg>
</svg>
