<?xml version="1.0" encoding="UTF-8" standalone="no"?>
<!DOCTYPE svg PUBLIC "-//W3C//DTD SVG 1.1//EN"
 "http://www.w3.org/Graphics/SVG/1.1/DTD/svg11.dtd">
<!-- Generated by graphviz version 2.38.0 (20140413.2041)
 -->
<!-- Title: src/util/MessageQueue.hxx Pages: 1 -->
<svg width="458pt" height="84pt"
 viewBox="0.00 0.00 458.00 84.00" xmlns="http://www.w3.org/2000/svg" xmlns:xlink="http://www.w3.org/1999/xlink">
<g id="graph0" class="graph" transform="scale(1 1) rotate(0) translate(4 80)">
<title>src/util/MessageQueue.hxx</title>
<!-- Node1 -->
<g id="node1" class="node"><title>Node1</title>
<polygon fill="#bfbfbf" stroke="black" points="169,-56.5 169,-75.5 314,-75.5 314,-56.5 169,-56.5"/>
<text text-anchor="middle" x="241.5" y="-63.5" font-family="Helvetica,sans-Serif" font-size="10.00">src/util/MessageQueue.hxx</text>
</g>
<!-- Node2 -->
<g id="node2" class="node"><title>Node2</title>
<polygon fill="none" stroke="#bfbfbf" points="0,-0.5 0,-19.5 103,-19.5 103,-0.5 0,-0.5"/>
<text text-anchor="middle" x="51.5" y="-7.5" font-family="Helvetica,sans-Serif" font-size="10.00">condition_variable</text>
</g>
<!-- Node1&#45;&gt;Node2 -->
<g id="edge1" class="edge"><title>Node1&#45;&gt;Node2</title>
<path fill="none" stroke="midnightblue" d="M211.394,-56.4435C178.874,-47.2011 126.921,-32.4356 91.1087,-22.2572"/>
<polygon fill="midnightblue" stroke="midnightblue" points="92.0411,-18.8837 81.4652,-19.5164 90.1274,-25.617 92.0411,-18.8837"/>
</g>
<!-- Node3 -->
<g id="node3" class="node"><title>Node3</title>
<polygon fill="none" stroke="#bfbfbf" points="121,-0.5 121,-19.5 168,-19.5 168,-0.5 121,-0.5"/>
<text text-anchor="middle" x="144.5" y="-7.5" font-family="Helvetica,sans-Serif" font-size="10.00">mutex</text>
</g>
<!-- Node1&#45;&gt;Node3 -->
<g id="edge2" class="edge"><title>Node1&#45;&gt;Node3</title>
<path fill="none" stroke="midnightblue" d="M225.915,-56.324C210.501,-47.7428 186.688,-34.486 168.79,-24.5224"/>
<polygon fill="midnightblue" stroke="midnightblue" points="170.486,-21.4606 160.046,-19.6545 167.081,-27.5767 170.486,-21.4606"/>
</g>
<!-- Node4 -->
<g id="node4" class="node"><title>Node4</title>
<polygon fill="none" stroke="#bfbfbf" points="186,-0.5 186,-19.5 233,-19.5 233,-0.5 186,-0.5"/>
<text text-anchor="middle" x="209.5" y="-7.5" font-family="Helvetica,sans-Serif" font-size="10.00">deque</text>
</g>
<!-- Node1&#45;&gt;Node4 -->
<g id="edge3" class="edge"><title>Node1&#45;&gt;Node4</title>
<path fill="none" stroke="midnightblue" d="M236.216,-56.083C231.789,-48.6127 225.337,-37.7244 219.882,-28.5199"/>
<polygon fill="midnightblue" stroke="midnightblue" points="222.795,-26.5697 214.686,-19.7511 216.773,-30.1383 222.795,-26.5697"/>
</g>
<!-- Node5 -->
<g id="node5" class="node"><title>Node5</title>
<polygon fill="none" stroke="#bfbfbf" points="251,-0.5 251,-19.5 298,-19.5 298,-0.5 251,-0.5"/>
<text text-anchor="middle" x="274.5" y="-7.5" font-family="Helvetica,sans-Serif" font-size="10.00">vector</text>
</g>
<!-- Node1&#45;&gt;Node5 -->
<g id="edge4" class="edge"><title>Node1&#45;&gt;Node5</title>
<path fill="none" stroke="midnightblue" d="M246.949,-56.083C251.514,-48.6127 258.168,-37.7244 263.793,-28.5199"/>
<polygon fill="midnightblue" stroke="midnightblue" points="266.924,-30.109 269.152,-19.7511 260.951,-26.4588 266.924,-30.109"/>
</g>
<!-- Node6 -->
<g id="node6" class="node"><title>Node6</title>
<polygon fill="none" stroke="#bfbfbf" points="316,-0.5 316,-19.5 379,-19.5 379,-0.5 316,-0.5"/>
<text text-anchor="middle" x="347.5" y="-7.5" font-family="Helvetica,sans-Serif" font-size="10.00">functional</text>
</g>
<!-- Node1&#45;&gt;Node6 -->
<g id="edge5" class="edge"><title>Node1&#45;&gt;Node6</title>
<path fill="none" stroke="midnightblue" d="M258.531,-56.324C275.53,-47.6641 301.876,-34.2424 321.493,-24.249"/>
<polygon fill="midnightblue" stroke="midnightblue" points="323.19,-27.3125 330.512,-19.6545 320.012,-21.0752 323.19,-27.3125"/>
</g>
<!-- Node7 -->
<g id="node7" class="node"><title>Node7</title>
<polygon fill="none" stroke="#bfbfbf" points="397,-0.5 397,-19.5 450,-19.5 450,-0.5 397,-0.5"/>
<text text-anchor="middle" x="423.5" y="-7.5" font-family="Helvetica,sans-Serif" font-size="10.00">ciso646</text>
</g>
<!-- Node1&#45;&gt;Node7 -->
<g id="edge6" class="edge"><title>Node1&#45;&gt;Node7</title>
<path fill="none" stroke="midnightblue" d="M270.338,-56.4435C301.994,-47.0511 352.874,-31.9549 387.217,-21.7654"/>
<polygon fill="midnightblue" stroke="midnightblue" points="388.278,-25.1015 396.869,-18.9015 386.286,-18.3906 388.278,-25.1015"/>
</g>
</g>
</svg>
