<?xml version="1.0" encoding="UTF-8" standalone="no"?>
<!DOCTYPE svg PUBLIC "-//W3C//DTD SVG 1.1//EN"
 "http://www.w3.org/Graphics/SVG/1.1/DTD/svg11.dtd">
<!-- Generated by graphviz version 2.38.0 (20140413.2041)
 -->
<!-- Title: src/engine/audio/Music.cxx Pages: 1 -->
<svg width="699pt" height="140pt"
 viewBox="0.00 0.00 698.50 140.00" xmlns="http://www.w3.org/2000/svg" xmlns:xlink="http://www.w3.org/1999/xlink">
<g id="graph0" class="graph" transform="scale(1 1) rotate(0) translate(4 136)">
<title>src/engine/audio/Music.cxx</title>
<!-- Node1 -->
<g id="node1" class="node"><title>Node1</title>
<polygon fill="#bfbfbf" stroke="black" points="163,-112.5 163,-131.5 307,-131.5 307,-112.5 163,-112.5"/>
<text text-anchor="middle" x="235" y="-119.5" font-family="Helvetica,sans-Serif" font-size="10.00">src/engine/audio/Music.cxx</text>
</g>
<!-- Node2 -->
<g id="node2" class="node"><title>Node2</title>
<g id="a_node2"><a xlink:href="Music_8hxx.html" target="_top" xlink:title="Music.hxx">
<polygon fill="none" stroke="black" points="203.5,-56.5 203.5,-75.5 266.5,-75.5 266.5,-56.5 203.5,-56.5"/>
<text text-anchor="middle" x="235" y="-63.5" font-family="Helvetica,sans-Serif" font-size="10.00">Music.hxx</text>
</a>
</g>
</g>
<!-- Node1&#45;&gt;Node2 -->
<g id="edge1" class="edge"><title>Node1&#45;&gt;Node2</title>
<path fill="none" stroke="midnightblue" d="M235,-112.083C235,-105.006 235,-94.8611 235,-85.9865"/>
<polygon fill="midnightblue" stroke="midnightblue" points="238.5,-85.751 235,-75.7511 231.5,-85.7511 238.5,-85.751"/>
</g>
<!-- Node5 -->
<g id="node5" class="node"><title>Node5</title>
<g id="a_node5"><a xlink:href="LOG_8hxx.html" target="_top" xlink:title="../basics/LOG.hxx">
<polygon fill="none" stroke="black" points="410,-56.5 410,-75.5 508,-75.5 508,-56.5 410,-56.5"/>
<text text-anchor="middle" x="459" y="-63.5" font-family="Helvetica,sans-Serif" font-size="10.00">../basics/LOG.hxx</text>
</a>
</g>
</g>
<!-- Node1&#45;&gt;Node5 -->
<g id="edge4" class="edge"><title>Node1&#45;&gt;Node5</title>
<path fill="none" stroke="midnightblue" d="M270.493,-112.444C309.324,-103.083 371.656,-88.0561 413.918,-77.868"/>
<polygon fill="midnightblue" stroke="midnightblue" points="414.771,-81.2626 423.673,-75.5164 413.131,-74.4576 414.771,-81.2626"/>
</g>
<!-- Node12 -->
<g id="node12" class="node"><title>Node12</title>
<g id="a_node12"><a xlink:href="Settings_8hxx.html" target="_top" xlink:title="../basics/Settings.hxx">
<polygon fill="none" stroke="black" points="67,-56.5 67,-75.5 185,-75.5 185,-56.5 67,-56.5"/>
<text text-anchor="middle" x="126" y="-63.5" font-family="Helvetica,sans-Serif" font-size="10.00">../basics/Settings.hxx</text>
</a>
</g>
</g>
<!-- Node1&#45;&gt;Node12 -->
<g id="edge11" class="edge"><title>Node1&#45;&gt;Node12</title>
<path fill="none" stroke="midnightblue" d="M217.487,-112.324C199.928,-103.625 172.669,-90.1202 152.469,-80.113"/>
<polygon fill="midnightblue" stroke="midnightblue" points="153.984,-76.9575 143.469,-75.6545 150.876,-83.23 153.984,-76.9575"/>
</g>
<!-- Node3 -->
<g id="node3" class="node"><title>Node3</title>
<polygon fill="none" stroke="#bfbfbf" points="134,-0.5 134,-19.5 178,-19.5 178,-0.5 134,-0.5"/>
<text text-anchor="middle" x="156" y="-7.5" font-family="Helvetica,sans-Serif" font-size="10.00">string</text>
</g>
<!-- Node2&#45;&gt;Node3 -->
<g id="edge2" class="edge"><title>Node2&#45;&gt;Node3</title>
<path fill="none" stroke="midnightblue" d="M222.307,-56.324C210.099,-47.979 191.422,-35.2122 176.997,-25.3524"/>
<polygon fill="midnightblue" stroke="midnightblue" points="178.892,-22.4082 168.661,-19.6545 174.942,-28.1871 178.892,-22.4082"/>
</g>
<!-- Node4 -->
<g id="node4" class="node"><title>Node4</title>
<polygon fill="none" stroke="#bfbfbf" points="196.5,-0.5 196.5,-19.5 273.5,-19.5 273.5,-0.5 196.5,-0.5"/>
<text text-anchor="middle" x="235" y="-7.5" font-family="Helvetica,sans-Serif" font-size="10.00">SDL_mixer.h</text>
</g>
<!-- Node2&#45;&gt;Node4 -->
<g id="edge3" class="edge"><title>Node2&#45;&gt;Node4</title>
<path fill="none" stroke="midnightblue" d="M235,-56.083C235,-49.0059 235,-38.8611 235,-29.9865"/>
<polygon fill="midnightblue" stroke="midnightblue" points="238.5,-29.751 235,-19.7511 231.5,-29.7511 238.5,-29.751"/>
</g>
<!-- Node6 -->
<g id="node6" class="node"><title>Node6</title>
<polygon fill="none" stroke="#bfbfbf" points="291.5,-0.5 291.5,-19.5 350.5,-19.5 350.5,-0.5 291.5,-0.5"/>
<text text-anchor="middle" x="321" y="-7.5" font-family="Helvetica,sans-Serif" font-size="10.00">iostream</text>
</g>
<!-- Node5&#45;&gt;Node6 -->
<g id="edge5" class="edge"><title>Node5&#45;&gt;Node6</title>
<path fill="none" stroke="midnightblue" d="M437.133,-56.4435C414.221,-47.4776 378.025,-33.314 352.134,-23.1827"/>
<polygon fill="midnightblue" stroke="midnightblue" points="353.352,-19.9011 342.764,-19.5164 350.801,-26.4198 353.352,-19.9011"/>
</g>
<!-- Node7 -->
<g id="node7" class="node"><title>Node7</title>
<polygon fill="none" stroke="#bfbfbf" points="369,-0.5 369,-19.5 419,-19.5 419,-0.5 369,-0.5"/>
<text text-anchor="middle" x="394" y="-7.5" font-family="Helvetica,sans-Serif" font-size="10.00">chrono</text>
</g>
<!-- Node5&#45;&gt;Node7 -->
<g id="edge6" class="edge"><title>Node5&#45;&gt;Node7</title>
<path fill="none" stroke="midnightblue" d="M448.557,-56.324C438.854,-48.2631 424.185,-36.0765 412.5,-26.3695"/>
<polygon fill="midnightblue" stroke="midnightblue" points="414.562,-23.532 404.633,-19.8339 410.089,-28.9163 414.562,-23.532"/>
</g>
<!-- Node8 -->
<g id="node8" class="node"><title>Node8</title>
<polygon fill="none" stroke="#bfbfbf" points="437,-0.5 437,-19.5 481,-19.5 481,-0.5 437,-0.5"/>
<text text-anchor="middle" x="459" y="-7.5" font-family="Helvetica,sans-Serif" font-size="10.00">ctime</text>
</g>
<!-- Node5&#45;&gt;Node8 -->
<g id="edge7" class="edge"><title>Node5&#45;&gt;Node8</title>
<path fill="none" stroke="midnightblue" d="M459,-56.083C459,-49.0059 459,-38.8611 459,-29.9865"/>
<polygon fill="midnightblue" stroke="midnightblue" points="462.5,-29.751 459,-19.7511 455.5,-29.7511 462.5,-29.751"/>
</g>
<!-- Node9 -->
<g id="node9" class="node"><title>Node9</title>
<polygon fill="none" stroke="#bfbfbf" points="499,-0.5 499,-19.5 553,-19.5 553,-0.5 499,-0.5"/>
<text text-anchor="middle" x="526" y="-7.5" font-family="Helvetica,sans-Serif" font-size="10.00">fstream</text>
</g>
<!-- Node5&#45;&gt;Node9 -->
<g id="edge8" class="edge"><title>Node5&#45;&gt;Node9</title>
<path fill="none" stroke="midnightblue" d="M469.765,-56.324C479.766,-48.2631 494.887,-36.0765 506.93,-26.3695"/>
<polygon fill="midnightblue" stroke="midnightblue" points="509.45,-28.8343 515.039,-19.8339 505.057,-23.3841 509.45,-28.8343"/>
</g>
<!-- Node10 -->
<g id="node10" class="node"><title>Node10</title>
<polygon fill="none" stroke="#bfbfbf" points="571,-0.5 571,-19.5 627,-19.5 627,-0.5 571,-0.5"/>
<text text-anchor="middle" x="599" y="-7.5" font-family="Helvetica,sans-Serif" font-size="10.00">sstream</text>
</g>
<!-- Node5&#45;&gt;Node10 -->
<g id="edge9" class="edge"><title>Node5&#45;&gt;Node10</title>
<path fill="none" stroke="midnightblue" d="M481.183,-56.4435C504.428,-47.4776 541.149,-33.314 567.415,-23.1827"/>
<polygon fill="midnightblue" stroke="midnightblue" points="568.85,-26.3807 576.92,-19.5164 566.331,-19.8497 568.85,-26.3807"/>
</g>
<!-- Node11 -->
<g id="node11" class="node"><title>Node11</title>
<polygon fill="none" stroke="#bfbfbf" points="645.5,-0.5 645.5,-19.5 690.5,-19.5 690.5,-0.5 645.5,-0.5"/>
<text text-anchor="middle" x="668" y="-7.5" font-family="Helvetica,sans-Serif" font-size="10.00">SDL.h</text>
</g>
<!-- Node5&#45;&gt;Node11 -->
<g id="edge10" class="edge"><title>Node5&#45;&gt;Node11</title>
<path fill="none" stroke="midnightblue" d="M493.662,-56.462C527.37,-48.098 580.267,-34.8136 635.352,-20.1229"/>
<polygon fill="midnightblue" stroke="midnightblue" points="636.539,-23.4286 645.294,-17.4623 634.729,-16.6665 636.539,-23.4286"/>
</g>
<!-- Node12&#45;&gt;Node3 -->
<g id="edge12" class="edge"><title>Node12&#45;&gt;Node3</title>
<path fill="none" stroke="midnightblue" d="M130.954,-56.083C135.104,-48.6127 141.153,-37.7244 146.267,-28.5199"/>
<polygon fill="midnightblue" stroke="midnightblue" points="149.341,-30.1924 151.138,-19.7511 143.222,-26.7929 149.341,-30.1924"/>
</g>
<!-- Node13 -->
<g id="node13" class="node"><title>Node13</title>
<g id="a_node13"><a xlink:href="Singleton_8hxx.html" target="_top" xlink:title="../../util/Singleton.hxx">
<polygon fill="none" stroke="black" points="0,-0.5 0,-19.5 116,-19.5 116,-0.5 0,-0.5"/>
<text text-anchor="middle" x="58" y="-7.5" font-family="Helvetica,sans-Serif" font-size="10.00">../../util/Singleton.hxx</text>
</a>
</g>
</g>
<!-- Node12&#45;&gt;Node13 -->
<g id="edge13" class="edge"><title>Node12&#45;&gt;Node13</title>
<path fill="none" stroke="midnightblue" d="M115.075,-56.324C104.825,-48.1849 89.2794,-35.8395 76.999,-26.0874"/>
<polygon fill="midnightblue" stroke="midnightblue" points="79.1319,-23.3119 69.1242,-19.8339 74.7787,-28.7937 79.1319,-23.3119"/>
</g>
</g>
</svg>
