<?xml version="1.0" encoding="UTF-8" standalone="no"?>
<!DOCTYPE svg PUBLIC "-//W3C//DTD SVG 1.1//EN"
 "http://www.w3.org/Graphics/SVG/1.1/DTD/svg11.dtd">
<!-- Generated by graphviz version 2.38.0 (20140413.2041)
 -->
<!-- Title: src/engine/audio/Music.hxx Pages: 1 -->
<svg width="310pt" height="140pt"
 viewBox="0.00 0.00 310.00 140.00" xmlns="http://www.w3.org/2000/svg" xmlns:xlink="http://www.w3.org/1999/xlink">
<g id="graph0" class="graph" transform="scale(1 1) rotate(0) translate(4 136)">
<title>src/engine/audio/Music.hxx</title>
<!-- Node1 -->
<g id="node1" class="node"><title>Node1</title>
<polygon fill="#bfbfbf" stroke="black" points="79.5,-112.5 79.5,-131.5 224.5,-131.5 224.5,-112.5 79.5,-112.5"/>
<text text-anchor="middle" x="152" y="-119.5" font-family="Helvetica,sans-Serif" font-size="10.00">src/engine/audio/Music.hxx</text>
</g>
<!-- Node2 -->
<g id="node2" class="node"><title>Node2</title>
<g id="a_node2"><a xlink:href="Music_8cxx.html" target="_top" xlink:title="src/engine/audio/Music.cxx">
<polygon fill="none" stroke="black" points="0,-56.5 0,-75.5 144,-75.5 144,-56.5 0,-56.5"/>
<text text-anchor="middle" x="72" y="-63.5" font-family="Helvetica,sans-Serif" font-size="10.00">src/engine/audio/Music.cxx</text>
</a>
</g>
</g>
<!-- Node1&#45;&gt;Node2 -->
<g id="edge1" class="edge"><title>Node1&#45;&gt;Node2</title>
<path fill="none" stroke="midnightblue" d="M130.699,-106.622C116.085,-96.7574 97.1732,-83.9919 84.8215,-75.6545"/>
<polygon fill="midnightblue" stroke="midnightblue" points="128.9,-109.63 139.147,-112.324 132.816,-103.828 128.9,-109.63"/>
</g>
<!-- Node3 -->
<g id="node3" class="node"><title>Node3</title>
<g id="a_node3"><a xlink:href="AudioMixer_8hxx.html" target="_top" xlink:title="src/engine/AudioMixer.hxx">
<polygon fill="none" stroke="black" points="162,-56.5 162,-75.5 302,-75.5 302,-56.5 162,-56.5"/>
<text text-anchor="middle" x="232" y="-63.5" font-family="Helvetica,sans-Serif" font-size="10.00">src/engine/AudioMixer.hxx</text>
</a>
</g>
</g>
<!-- Node1&#45;&gt;Node3 -->
<g id="edge2" class="edge"><title>Node1&#45;&gt;Node3</title>
<path fill="none" stroke="midnightblue" d="M173.301,-106.622C187.915,-96.7574 206.827,-83.9919 219.179,-75.6545"/>
<polygon fill="midnightblue" stroke="midnightblue" points="171.184,-103.828 164.853,-112.324 175.1,-109.63 171.184,-103.828"/>
</g>
<!-- Node4 -->
<g id="node4" class="node"><title>Node4</title>
<g id="a_node4"><a xlink:href="AudioMixer_8cxx.html" target="_top" xlink:title="src/engine/AudioMixer.cxx">
<polygon fill="none" stroke="black" points="162,-0.5 162,-19.5 302,-19.5 302,-0.5 162,-0.5"/>
<text text-anchor="middle" x="232" y="-7.5" font-family="Helvetica,sans-Serif" font-size="10.00">src/engine/AudioMixer.cxx</text>
</a>
</g>
</g>
<!-- Node3&#45;&gt;Node4 -->
<g id="edge3" class="edge"><title>Node3&#45;&gt;Node4</title>
<path fill="none" stroke="midnightblue" d="M232,-45.8045C232,-36.9102 232,-26.7798 232,-19.7511"/>
<polygon fill="midnightblue" stroke="midnightblue" points="228.5,-46.083 232,-56.083 235.5,-46.083 228.5,-46.083"/>
</g>
</g>
</svg>
