<?xml version="1.0" encoding="UTF-8" standalone="no"?>
<!DOCTYPE svg PUBLIC "-//W3C//DTD SVG 1.1//EN"
 "http://www.w3.org/Graphics/SVG/1.1/DTD/svg11.dtd">
<!-- Generated by graphviz version 2.38.0 (20140413.2041)
 -->
<!-- Title: utils::ReverseIterator Pages: 1 -->
<svg width="295pt" height="116pt"
 viewBox="0.00 0.00 295.00 115.50" xmlns="http://www.w3.org/2000/svg" xmlns:xlink="http://www.w3.org/1999/xlink">
<g id="graph0" class="graph" transform="scale(1 1) rotate(0) translate(4 111.5)">
<title>utils::ReverseIterator</title>
<!-- Node1 -->
<g id="node1" class="node"><title>Node1</title>
<polygon fill="#bfbfbf" stroke="black" points="0,-38.5 0,-57.5 115,-57.5 115,-38.5 0,-38.5"/>
<text text-anchor="middle" x="57.5" y="-45.5" font-family="Helvetica,sans-Serif" font-size="10.00">utils::ReverseIterator</text>
</g>
<!-- Node2 -->
<g id="node2" class="node"><title>Node2</title>
<g id="a_node2"><a xlink:href="namespaceutils_1_1strings.html#ab8a6e07e519cb0ee76d762fe635901c1" target="_top" xlink:title="Erase First Occurrence of given substring from main string. ">
<polygon fill="none" stroke="black" points="151,-77 151,-107 287,-107 287,-77 151,-77"/>
<text text-anchor="start" x="159" y="-95" font-family="Helvetica,sans-Serif" font-size="10.00">utils::strings::removeSub</text>
<text text-anchor="middle" x="219" y="-84" font-family="Helvetica,sans-Serif" font-size="10.00">String</text>
</a>
</g>
</g>
<!-- Node1&#45;&gt;Node2 -->
<g id="edge1" class="edge"><title>Node1&#45;&gt;Node2</title>
<path fill="none" stroke="midnightblue" d="M93.1091,-57.5473C110.826,-62.4349 132.976,-68.5451 153.682,-74.2571"/>
<polygon fill="midnightblue" stroke="midnightblue" points="152.817,-77.6492 163.388,-76.9346 154.679,-70.9013 152.817,-77.6492"/>
</g>
<!-- Node3 -->
<g id="node3" class="node"><title>Node3</title>
<g id="a_node3"><a xlink:href="namespaceutils_1_1strings.html#a1460a4e19b93604e32bb76f8407c4221" target="_top" xlink:title="checks if a string ends with a certain substring ">
<polygon fill="none" stroke="black" points="157,-38.5 157,-57.5 281,-57.5 281,-38.5 157,-38.5"/>
<text text-anchor="middle" x="219" y="-45.5" font-family="Helvetica,sans-Serif" font-size="10.00">utils::strings::endsWith</text>
</a>
</g>
</g>
<!-- Node1&#45;&gt;Node3 -->
<g id="edge2" class="edge"><title>Node1&#45;&gt;Node3</title>
<path fill="none" stroke="midnightblue" d="M115.183,-48C125.429,-48 136.231,-48 146.828,-48"/>
<polygon fill="midnightblue" stroke="midnightblue" points="146.902,-51.5001 156.901,-48 146.901,-44.5001 146.902,-51.5001"/>
</g>
<!-- Node4 -->
<g id="node4" class="node"><title>Node4</title>
<g id="a_node4"><a xlink:href="namespaceutils_1_1strings.html#afa781708d9b82cab99d894cf7728ddf1" target="_top" xlink:title="checks if a string starts with a certain substring ">
<polygon fill="none" stroke="black" points="155,-0.5 155,-19.5 283,-19.5 283,-0.5 155,-0.5"/>
<text text-anchor="middle" x="219" y="-7.5" font-family="Helvetica,sans-Serif" font-size="10.00">utils::strings::startsWith</text>
</a>
</g>
</g>
<!-- Node1&#45;&gt;Node4 -->
<g id="edge3" class="edge"><title>Node1&#45;&gt;Node4</title>
<path fill="none" stroke="midnightblue" d="M98.7486,-38.411C119.796,-33.3965 145.755,-27.2119 168.073,-21.8947"/>
<polygon fill="midnightblue" stroke="midnightblue" points="169.124,-25.2424 178.041,-19.5201 167.502,-18.433 169.124,-25.2424"/>
</g>
</g>
</svg>
