<?xml version="1.0" encoding="UTF-8" standalone="no"?>
<!DOCTYPE svg PUBLIC "-//W3C//DTD SVG 1.1//EN"
 "http://www.w3.org/Graphics/SVG/1.1/DTD/svg11.dtd">
<!-- Generated by graphviz version 2.38.0 (20140413.2041)
 -->
<!-- Title: src/engine/basics/point.hxx Pages: 1 -->
<!--zoomable 442 -->
<svg id="main" version="1.1" xmlns="http://www.w3.org/2000/svg" xmlns:xlink="http://www.w3.org/1999/xlink" xml:space="preserve" onload="init(evt)">
<style type="text/css"><![CDATA[
.edge:hover path { stroke: red; }
.edge:hover polygon { stroke: red; fill: red; }
]]></style>
<script type="text/javascript"><![CDATA[
var edges = document.getElementsByTagName('g');
if (edges && edges.length) {
  for (var i=0;i<edges.length;i++) {
    if (edges[i].id.substr(0,4)=='edge') {
      edges[i].setAttribute('class','edge');
    }
  }
}
]]></script>
        <defs>
                <circle id="rim" cx="0" cy="0" r="7"/>
                <circle id="rim2" cx="0" cy="0" r="3.5"/>
                <g id="zoomPlus">
                        <use xlink:href="#rim" fill="#404040">
                                <set attributeName="fill" to="#808080" begin="zoomplus.mouseover" end="zoomplus.mouseout"/>
                        </use>
                        <path d="M-4,0h8M0,-4v8" fill="none" stroke="white" stroke-width="1.5" pointer-events="none"/>
                </g>
                <g id="zoomMin">
                        <use xlink:href="#rim" fill="#404040">
                                <set attributeName="fill" to="#808080" begin="zoomminus.mouseover" end="zoomminus.mouseout"/>
                        </use>
                        <path d="M-4,0h8" fill="none" stroke="white" stroke-width="1.5" pointer-events="none"/>
                </g>
                <g id="dirArrow">
                        <path fill="none" stroke="white" stroke-width="1.5" d="M0,-3.0v7 M-2.5,-0.5L0,-3.0L2.5,-0.5"/>
                </g>
               <g id="resetDef">
                       <use xlink:href="#rim2" fill="#404040">
                               <set attributeName="fill" to="#808080" begin="reset.mouseover" end="reset.mouseout"/>
                       </use>
               </g>
        </defs>

<script type="text/javascript">
var viewWidth = 1394;
var viewHeight = 442;
var sectionId = 'dynsection-0';
</script>
<script xlink:href="svgpan.js"/>
<svg id="graph" class="graph">
<g id="viewport">
<title>src/engine/basics/point.hxx</title>
<!-- Node1 -->
<g id="node1" class="node"><title>Node1</title>
<polygon fill="#bfbfbf" stroke="black" points="454.73,-414.5 454.73,-433.5 600.73,-433.5 600.73,-414.5 454.73,-414.5"/>
<text text-anchor="middle" x="527.73" y="-421.5" font-family="Helvetica,sans-Serif" font-size="10.00">src/engine/basics/point.hxx</text>
</g>
<!-- Node2 -->
<g id="node2" class="node"><title>Node2</title>
<g id="a_node2"><a xlink:href="Camera_8hxx.html" target="_top" xlink:title="src/engine/basics/Camera.hxx">
<polygon fill="none" stroke="black" points="733.73,-112.5 733.73,-131.5 893.73,-131.5 893.73,-112.5 733.73,-112.5"/>
<text text-anchor="middle" x="813.73" y="-119.5" font-family="Helvetica,sans-Serif" font-size="10.00">src/engine/basics/Camera.hxx</text>
</a>
</g>
</g>
<!-- Node1&#45;&gt;Node2 -->
<g id="edge1" class="edge"><title>Node1&#45;&gt;Node2</title>
<path fill="none" stroke="midnightblue" d="M611.143,-418.801C685.188,-410.039 781.73,-383.955 781.73,-307.5 781.73,-307.5 781.73,-307.5 781.73,-238.5 781.73,-197.301 800.872,-150.739 809.546,-131.755"/>
<polygon fill="midnightblue" stroke="midnightblue" points="610.416,-415.36 600.856,-419.926 611.177,-422.318 610.416,-415.36"/>
</g>
<!-- Node4 -->
<g id="node4" class="node"><title>Node4</title>
<g id="a_node4"><a xlink:href="isoMath_8cxx.html" target="_top" xlink:title="src/engine/basics/isoMath.cxx">
<polygon fill="none" stroke="black" points="467.73,-56.5 467.73,-75.5 625.73,-75.5 625.73,-56.5 467.73,-56.5"/>
<text text-anchor="middle" x="546.73" y="-63.5" font-family="Helvetica,sans-Serif" font-size="10.00">src/engine/basics/isoMath.cxx</text>
</a>
</g>
</g>
<!-- Node1&#45;&gt;Node4 -->
<g id="edge43" class="edge"><title>Node1&#45;&gt;Node4</title>
<path fill="none" stroke="midnightblue" d="M583.892,-411.913C637.037,-397.769 708.73,-367.558 708.73,-307.5 708.73,-307.5 708.73,-307.5 708.73,-238.5 708.73,-176.274 696.996,-151.273 648.73,-112 627.411,-94.6536 598.359,-82.7054 576.713,-75.5038"/>
<polygon fill="midnightblue" stroke="midnightblue" points="582.706,-408.603 573.872,-414.451 584.425,-415.388 582.706,-408.603"/>
</g>
<!-- Node10 -->
<g id="node10" class="node"><title>Node10</title>
<g id="a_node10"><a xlink:href="isoMath_8hxx.html" target="_top" xlink:title="src/engine/basics/isoMath.hxx">
<polygon fill="none" stroke="black" points="15.2296,-112.5 15.2296,-131.5 174.23,-131.5 174.23,-112.5 15.2296,-112.5"/>
<text text-anchor="middle" x="94.7296" y="-119.5" font-family="Helvetica,sans-Serif" font-size="10.00">src/engine/basics/isoMath.hxx</text>
</a>
</g>
</g>
<!-- Node1&#45;&gt;Node10 -->
<g id="edge9" class="edge"><title>Node1&#45;&gt;Node10</title>
<path fill="none" stroke="midnightblue" d="M444.277,-417.719C318.458,-407.435 94.7296,-379.084 94.7296,-307.5 94.7296,-307.5 94.7296,-307.5 94.7296,-238.5 94.7296,-198.596 94.7296,-150.938 94.7296,-131.693"/>
<polygon fill="midnightblue" stroke="midnightblue" points="444.031,-421.21 454.277,-418.515 444.586,-414.232 444.031,-421.21"/>
</g>
<!-- Node11 -->
<g id="node11" class="node"><title>Node11</title>
<g id="a_node11"><a xlink:href="Engine_8hxx.html" target="_top" xlink:title="src/engine/Engine.hxx">
<polygon fill="none" stroke="black" points="912.23,-112.5 912.23,-131.5 1033.23,-131.5 1033.23,-112.5 912.23,-112.5"/>
<text text-anchor="middle" x="972.73" y="-119.5" font-family="Helvetica,sans-Serif" font-size="10.00">src/engine/Engine.hxx</text>
</a>
</g>
</g>
<!-- Node1&#45;&gt;Node11 -->
<g id="edge15" class="edge"><title>Node1&#45;&gt;Node11</title>
<path fill="none" stroke="midnightblue" d="M611.06,-415.045C724.809,-401.838 914.73,-370.372 914.73,-307.5 914.73,-307.5 914.73,-307.5 914.73,-238.5 914.73,-194.296 949.076,-149.728 964.907,-131.533"/>
<polygon fill="midnightblue" stroke="midnightblue" points="610.517,-411.584 600.976,-416.191 611.308,-418.539 610.517,-411.584"/>
</g>
<!-- Node15 -->
<g id="node15" class="node"><title>Node15</title>
<g id="a_node15"><a xlink:href="Sprite_8hxx.html" target="_top" xlink:title="src/engine/Sprite.hxx">
<polygon fill="none" stroke="black" points="382.23,-358.5 382.23,-377.5 499.23,-377.5 499.23,-358.5 382.23,-358.5"/>
<text text-anchor="middle" x="440.73" y="-365.5" font-family="Helvetica,sans-Serif" font-size="10.00">src/engine/Sprite.hxx</text>
</a>
</g>
</g>
<!-- Node1&#45;&gt;Node15 -->
<g id="edge25" class="edge"><title>Node1&#45;&gt;Node15</title>
<path fill="none" stroke="midnightblue" d="M505.014,-408.901C489.061,-398.999 468.232,-386.071 454.673,-377.655"/>
<polygon fill="midnightblue" stroke="midnightblue" points="503.409,-412.024 513.752,-414.324 507.101,-406.077 503.409,-412.024"/>
</g>
<!-- Node16 -->
<g id="node16" class="node"><title>Node16</title>
<g id="a_node16"><a xlink:href="MapNode_8hxx.html" target="_top" xlink:title="src/engine/GameObjects\l/MapNode.hxx">
<polygon fill="none" stroke="black" points="417.73,-291.5 417.73,-321.5 551.73,-321.5 551.73,-291.5 417.73,-291.5"/>
<text text-anchor="start" x="425.73" y="-309.5" font-family="Helvetica,sans-Serif" font-size="10.00">src/engine/GameObjects</text>
<text text-anchor="middle" x="484.73" y="-298.5" font-family="Helvetica,sans-Serif" font-size="10.00">/MapNode.hxx</text>
</a>
</g>
</g>
<!-- Node1&#45;&gt;Node16 -->
<g id="edge42" class="edge"><title>Node1&#45;&gt;Node16</title>
<path fill="none" stroke="midnightblue" d="M522.796,-404.751C519.078,-391.604 513.624,-373.522 507.73,-358 503.01,-345.571 496.695,-331.868 491.876,-321.875"/>
<polygon fill="midnightblue" stroke="midnightblue" points="519.444,-405.763 525.483,-414.468 526.191,-403.897 519.444,-405.763"/>
</g>
<!-- Node19 -->
<g id="node19" class="node"><title>Node19</title>
<g id="a_node19"><a xlink:href="JsonSerialization_8hxx.html" target="_top" xlink:title="src/engine/common/JsonSerialization.hxx">
<polygon fill="none" stroke="black" points="184.73,-168.5 184.73,-187.5 396.73,-187.5 396.73,-168.5 184.73,-168.5"/>
<text text-anchor="middle" x="290.73" y="-175.5" font-family="Helvetica,sans-Serif" font-size="10.00">src/engine/common/JsonSerialization.hxx</text>
</a>
</g>
</g>
<!-- Node1&#45;&gt;Node19 -->
<g id="edge44" class="edge"><title>Node1&#45;&gt;Node19</title>
<path fill="none" stroke="midnightblue" d="M457.566,-412.266C429.476,-405.605 397.884,-394.944 372.73,-378 314.988,-339.104 298.545,-320.776 275.73,-255 267.532,-231.366 279.165,-201.955 286.14,-187.638"/>
<polygon fill="midnightblue" stroke="midnightblue" points="456.815,-415.685 467.339,-414.459 458.348,-408.854 456.815,-415.685"/>
</g>
<!-- Node3 -->
<g id="node3" class="node"><title>Node3</title>
<g id="a_node3"><a xlink:href="Camera_8cxx.html" target="_top" xlink:title="src/engine/basics/Camera.cxx">
<polygon fill="none" stroke="black" points="643.23,-56.5 643.23,-75.5 802.23,-75.5 802.23,-56.5 643.23,-56.5"/>
<text text-anchor="middle" x="722.73" y="-63.5" font-family="Helvetica,sans-Serif" font-size="10.00">src/engine/basics/Camera.cxx</text>
</a>
</g>
</g>
<!-- Node2&#45;&gt;Node3 -->
<g id="edge2" class="edge"><title>Node2&#45;&gt;Node3</title>
<path fill="none" stroke="midnightblue" d="M790.436,-107.177C773.691,-97.2407 751.629,-84.1492 737.314,-75.6545"/>
<polygon fill="midnightblue" stroke="midnightblue" points="788.723,-110.231 799.109,-112.324 792.295,-104.211 788.723,-110.231"/>
</g>
<!-- Node2&#45;&gt;Node4 -->
<g id="edge3" class="edge"><title>Node2&#45;&gt;Node4</title>
<path fill="none" stroke="midnightblue" d="M761.366,-110.41C710.906,-100.204 635.53,-84.9597 588.839,-75.5164"/>
<polygon fill="midnightblue" stroke="midnightblue" points="760.927,-113.892 771.423,-112.444 762.315,-107.031 760.927,-113.892"/>
</g>
<!-- Node5 -->
<g id="node5" class="node"><title>Node5</title>
<g id="a_node5"><a xlink:href="Engine_8cxx.html" target="_top" xlink:title="src/engine/Engine.cxx">
<polygon fill="none" stroke="black" points="895.73,-56.5 895.73,-75.5 1015.73,-75.5 1015.73,-56.5 895.73,-56.5"/>
<text text-anchor="middle" x="955.73" y="-63.5" font-family="Helvetica,sans-Serif" font-size="10.00">src/engine/Engine.cxx</text>
</a>
</g>
</g>
<!-- Node2&#45;&gt;Node5 -->
<g id="edge4" class="edge"><title>Node2&#45;&gt;Node5</title>
<path fill="none" stroke="midnightblue" d="M845.885,-108.772C872.558,-98.6287 909.798,-84.4669 933.335,-75.5164"/>
<polygon fill="midnightblue" stroke="midnightblue" points="844.333,-105.618 836.23,-112.444 846.821,-112.16 844.333,-105.618"/>
</g>
<!-- Node6 -->
<g id="node6" class="node"><title>Node6</title>
<g id="a_node6"><a xlink:href="EventManager_8cxx.html" target="_top" xlink:title="src/engine/EventManager.cxx">
<polygon fill="none" stroke="black" points="556.73,-0.5 556.73,-19.5 712.73,-19.5 712.73,-0.5 556.73,-0.5"/>
<text text-anchor="middle" x="634.73" y="-7.5" font-family="Helvetica,sans-Serif" font-size="10.00">src/engine/EventManager.cxx</text>
</a>
</g>
</g>
<!-- Node2&#45;&gt;Node6 -->
<g id="edge5" class="edge"><title>Node2&#45;&gt;Node6</title>
<path fill="none" stroke="midnightblue" d="M818.351,-102.156C820.659,-87.9183 821.085,-68.7192 810.73,-56 796.642,-38.696 744.357,-26.7729 700.405,-19.5688"/>
<polygon fill="midnightblue" stroke="midnightblue" points="814.852,-101.792 816.265,-112.293 821.709,-103.203 814.852,-101.792"/>
</g>
<!-- Node7 -->
<g id="node7" class="node"><title>Node7</title>
<g id="a_node7"><a xlink:href="Map_8cxx.html" target="_top" xlink:title="src/engine/Map.cxx">
<polygon fill="none" stroke="black" points="288.73,-56.5 288.73,-75.5 396.73,-75.5 396.73,-56.5 288.73,-56.5"/>
<text text-anchor="middle" x="342.73" y="-63.5" font-family="Helvetica,sans-Serif" font-size="10.00">src/engine/Map.cxx</text>
</a>
</g>
</g>
<!-- Node2&#45;&gt;Node7 -->
<g id="edge6" class="edge"><title>Node2&#45;&gt;Node7</title>
<path fill="none" stroke="midnightblue" d="M729.359,-111.327C633.051,-100.285 478.36,-82.55 396.909,-73.2117"/>
<polygon fill="midnightblue" stroke="midnightblue" points="729.025,-114.811 739.358,-112.473 729.822,-107.857 729.025,-114.811"/>
</g>
<!-- Node8 -->
<g id="node8" class="node"><title>Node8</title>
<g id="a_node8"><a xlink:href="Sprite_8cxx.html" target="_top" xlink:title="src/engine/Sprite.cxx">
<polygon fill="none" stroke="black" points="122.73,-56.5 122.73,-75.5 238.73,-75.5 238.73,-56.5 122.73,-56.5"/>
<text text-anchor="middle" x="180.73" y="-63.5" font-family="Helvetica,sans-Serif" font-size="10.00">src/engine/Sprite.cxx</text>
</a>
</g>
</g>
<!-- Node2&#45;&gt;Node8 -->
<g id="edge7" class="edge"><title>Node2&#45;&gt;Node8</title>
<path fill="none" stroke="midnightblue" d="M723.615,-113.588C617.444,-104.814 435.732,-89.664 279.73,-76 266.491,-74.8405 252.26,-73.5643 238.831,-72.3464"/>
<polygon fill="midnightblue" stroke="midnightblue" points="723.396,-117.082 733.651,-114.417 723.973,-110.106 723.396,-117.082"/>
</g>
<!-- Node9 -->
<g id="node9" class="node"><title>Node9</title>
<g id="a_node9"><a xlink:href="Game_8cxx.html" target="_top" xlink:title="src/Game.cxx">
<polygon fill="none" stroke="black" points="989.73,-0.5 989.73,-19.5 1071.73,-19.5 1071.73,-0.5 989.73,-0.5"/>
<text text-anchor="middle" x="1030.73" y="-7.5" font-family="Helvetica,sans-Serif" font-size="10.00">src/Game.cxx</text>
</a>
</g>
</g>
<!-- Node2&#45;&gt;Node9 -->
<g id="edge8" class="edge"><title>Node2&#45;&gt;Node9</title>
<path fill="none" stroke="midnightblue" d="M828.481,-104.345C842.244,-89.7315 864.016,-68.8601 886.73,-56 918.981,-37.7396 959.574,-25.9173 989.433,-18.9948"/>
<polygon fill="midnightblue" stroke="midnightblue" points="825.533,-102.381 821.357,-112.118 830.694,-107.111 825.533,-102.381"/>
</g>
<!-- Node10&#45;&gt;Node3 -->
<g id="edge10" class="edge"><title>Node10&#45;&gt;Node3</title>
<path fill="none" stroke="midnightblue" d="M184.5,-114.038C291.693,-105.604 476.379,-90.6941 634.73,-76 637.482,-75.7446 640.283,-75.4806 643.111,-75.2105"/>
<polygon fill="midnightblue" stroke="midnightblue" points="184.067,-110.561 174.372,-114.833 184.616,-117.539 184.067,-110.561"/>
</g>
<!-- Node10&#45;&gt;Node4 -->
<g id="edge11" class="edge"><title>Node10&#45;&gt;Node4</title>
<path fill="none" stroke="midnightblue" d="M176.515,-111.229C261.837,-101.036 394.255,-85.216 475.444,-75.5164"/>
<polygon fill="midnightblue" stroke="midnightblue" points="175.864,-107.782 166.35,-112.444 176.695,-114.732 175.864,-107.782"/>
</g>
<!-- Node10&#45;&gt;Node6 -->
<g id="edge12" class="edge"><title>Node10&#45;&gt;Node6</title>
<path fill="none" stroke="midnightblue" d="M94.8286,-102.008C96.009,-87.0872 100.249,-67.0423 113.73,-56 147.201,-28.5836 419.705,-17.046 556.701,-12.9413"/>
<polygon fill="midnightblue" stroke="midnightblue" points="91.3241,-102.054 94.4199,-112.186 98.3184,-102.335 91.3241,-102.054"/>
</g>
<!-- Node10&#45;&gt;Node7 -->
<g id="edge13" class="edge"><title>Node10&#45;&gt;Node7</title>
<path fill="none" stroke="midnightblue" d="M143.955,-110.281C190.821,-100.077 260.429,-84.9203 303.617,-75.5164"/>
<polygon fill="midnightblue" stroke="midnightblue" points="143.052,-106.896 134.026,-112.444 144.542,-113.736 143.052,-106.896"/>
</g>
<!-- Node10&#45;&gt;Node8 -->
<g id="edge14" class="edge"><title>Node10&#45;&gt;Node8</title>
<path fill="none" stroke="midnightblue" d="M117.184,-106.901C132.954,-96.9986 153.543,-84.0705 166.946,-75.6545"/>
<polygon fill="midnightblue" stroke="midnightblue" points="115.155,-104.042 108.547,-112.324 118.877,-109.97 115.155,-104.042"/>
</g>
<!-- Node11&#45;&gt;Node3 -->
<g id="edge16" class="edge"><title>Node11&#45;&gt;Node3</title>
<path fill="none" stroke="midnightblue" d="M923.107,-110.281C875.864,-100.077 805.694,-84.9203 762.157,-75.5164"/>
<polygon fill="midnightblue" stroke="midnightblue" points="922.603,-113.753 933.116,-112.444 924.081,-106.911 922.603,-113.753"/>
</g>
<!-- Node11&#45;&gt;Node4 -->
<g id="edge17" class="edge"><title>Node11&#45;&gt;Node4</title>
<path fill="none" stroke="midnightblue" d="M902.043,-111.915C795.304,-98.3139 683.765,-84.2436 614.32,-75.5002"/>
<polygon fill="midnightblue" stroke="midnightblue" points="901.662,-115.394 912.024,-113.187 902.547,-108.451 901.662,-115.394"/>
</g>
<!-- Node11&#45;&gt;Node5 -->
<g id="edge22" class="edge"><title>Node11&#45;&gt;Node5</title>
<path fill="none" stroke="midnightblue" d="M966.873,-102.396C964.029,-93.362 960.746,-82.936 958.485,-75.7511"/>
<polygon fill="midnightblue" stroke="midnightblue" points="963.581,-103.596 969.922,-112.083 970.258,-101.493 963.581,-103.596"/>
</g>
<!-- Node11&#45;&gt;Node9 -->
<g id="edge24" class="edge"><title>Node11&#45;&gt;Node9</title>
<path fill="none" stroke="midnightblue" d="M996.375,-106.632C1006.9,-98.9244 1018.33,-88.4436 1024.73,-76 1034.16,-57.6555 1033.21,-32.5415 1031.88,-19.5553"/>
<polygon fill="midnightblue" stroke="midnightblue" points="994.163,-103.904 987.882,-112.436 998.113,-109.683 994.163,-103.904"/>
</g>
<!-- Node12 -->
<g id="node12" class="node"><title>Node12</title>
<g id="a_node12"><a xlink:href="EventManager_8hxx.html" target="_top" xlink:title="src/engine/EventManager.hxx">
<polygon fill="none" stroke="black" points="1072.23,-56.5 1072.23,-75.5 1229.23,-75.5 1229.23,-56.5 1072.23,-56.5"/>
<text text-anchor="middle" x="1150.73" y="-63.5" font-family="Helvetica,sans-Serif" font-size="10.00">src/engine/EventManager.hxx</text>
</a>
</g>
</g>
<!-- Node11&#45;&gt;Node12 -->
<g id="edge18" class="edge"><title>Node11&#45;&gt;Node12</title>
<path fill="none" stroke="midnightblue" d="M1010.85,-109.436C1044.41,-99.2551 1092.5,-84.664 1122.66,-75.5164"/>
<polygon fill="midnightblue" stroke="midnightblue" points="1009.49,-106.191 1000.93,-112.444 1011.52,-112.89 1009.49,-106.191"/>
</g>
<!-- Node14 -->
<g id="node14" class="node"><title>Node14</title>
<g id="a_node14"><a xlink:href="UIManager_8cxx.html" target="_top" xlink:title="src/engine/UIManager.cxx">
<polygon fill="none" stroke="black" points="1247.23,-56.5 1247.23,-75.5 1386.23,-75.5 1386.23,-56.5 1247.23,-56.5"/>
<text text-anchor="middle" x="1316.73" y="-63.5" font-family="Helvetica,sans-Serif" font-size="10.00">src/engine/UIManager.cxx</text>
</a>
</g>
</g>
<!-- Node11&#45;&gt;Node14 -->
<g id="edge23" class="edge"><title>Node11&#45;&gt;Node14</title>
<path fill="none" stroke="midnightblue" d="M1037.37,-110.854C1102.36,-100.651 1201.44,-85.0977 1262.48,-75.5164"/>
<polygon fill="midnightblue" stroke="midnightblue" points="1036.57,-107.435 1027.24,-112.444 1037.66,-114.35 1036.57,-107.435"/>
</g>
<!-- Node12&#45;&gt;Node6 -->
<g id="edge20" class="edge"><title>Node12&#45;&gt;Node6</title>
<path fill="none" stroke="midnightblue" d="M1061.87,-55.7006C963.564,-45.4129 806.689,-28.9958 712.898,-19.1804"/>
<polygon fill="midnightblue" stroke="midnightblue" points="1061.77,-59.2093 1072.08,-56.7692 1062.5,-52.2473 1061.77,-59.2093"/>
</g>
<!-- Node12&#45;&gt;Node9 -->
<g id="edge21" class="edge"><title>Node12&#45;&gt;Node9</title>
<path fill="none" stroke="midnightblue" d="M1122.36,-52.2321C1099.91,-42.1312 1069.19,-28.3091 1049.65,-19.5164"/>
<polygon fill="midnightblue" stroke="midnightblue" points="1121.16,-55.5316 1131.72,-56.4435 1124.03,-49.1481 1121.16,-55.5316"/>
</g>
<!-- Node13 -->
<g id="node13" class="node"><title>Node13</title>
<g id="a_node13"><a xlink:href="Timer_8cxx.html" target="_top" xlink:title="src/engine/basics/Timer.cxx">
<polygon fill="none" stroke="black" points="1090.23,-0.5 1090.23,-19.5 1237.23,-19.5 1237.23,-0.5 1090.23,-0.5"/>
<text text-anchor="middle" x="1163.73" y="-7.5" font-family="Helvetica,sans-Serif" font-size="10.00">src/engine/basics/Timer.cxx</text>
</a>
</g>
</g>
<!-- Node12&#45;&gt;Node13 -->
<g id="edge19" class="edge"><title>Node12&#45;&gt;Node13</title>
<path fill="none" stroke="midnightblue" d="M1155.28,-46.1005C1157.44,-37.1357 1159.91,-26.8579 1161.62,-19.7511"/>
<polygon fill="midnightblue" stroke="midnightblue" points="1151.81,-45.5415 1152.88,-56.083 1158.62,-47.18 1151.81,-45.5415"/>
</g>
<!-- Node15&#45;&gt;Node8 -->
<g id="edge41" class="edge"><title>Node15&#45;&gt;Node8</title>
<path fill="none" stroke="midnightblue" d="M385.963,-356.219C288.977,-333.845 89.381,-272.269 5.72958,-132 -22.076,-85.3749 61.4229,-71.9363 122.478,-68.217"/>
<polygon fill="midnightblue" stroke="midnightblue" points="385.34,-359.667 395.865,-358.449 386.878,-352.838 385.34,-359.667"/>
</g>
<!-- Node15&#45;&gt;Node16 -->
<g id="edge26" class="edge"><title>Node15&#45;&gt;Node16</title>
<path fill="none" stroke="midnightblue" d="M453.118,-350.247C459.819,-341.187 467.999,-330.124 474.36,-321.523"/>
<polygon fill="midnightblue" stroke="midnightblue" points="450.165,-348.354 447.034,-358.475 455.794,-352.516 450.165,-348.354"/>
</g>
<!-- Node17 -->
<g id="node17" class="node"><title>Node17</title>
<g id="a_node17"><a xlink:href="Map_8hxx.html" target="_top" xlink:title="src/engine/Map.hxx">
<polygon fill="none" stroke="black" points="571.23,-168.5 571.23,-187.5 680.23,-187.5 680.23,-168.5 571.23,-168.5"/>
<text text-anchor="middle" x="625.73" y="-175.5" font-family="Helvetica,sans-Serif" font-size="10.00">src/engine/Map.hxx</text>
</a>
</g>
</g>
<!-- Node16&#45;&gt;Node17 -->
<g id="edge27" class="edge"><title>Node16&#45;&gt;Node17</title>
<path fill="none" stroke="midnightblue" d="M561.93,-301.885C595.1,-296.022 630.95,-282.992 651.73,-255 667.356,-233.949 646.009,-202.829 633.566,-187.782"/>
<polygon fill="midnightblue" stroke="midnightblue" points="561.079,-298.476 551.742,-303.483 562.163,-305.391 561.079,-298.476"/>
</g>
<!-- Node18 -->
<g id="node18" class="node"><title>Node18</title>
<g id="a_node18"><a xlink:href="TerrainGenerator_8hxx.html" target="_top" xlink:title="src/engine/map/TerrainGenerator.hxx">
<polygon fill="none" stroke="black" points="297.23,-230 297.23,-249 490.23,-249 490.23,-230 297.23,-230"/>
<text text-anchor="middle" x="393.73" y="-237" font-family="Helvetica,sans-Serif" font-size="10.00">src/engine/map/TerrainGenerator.hxx</text>
</a>
</g>
</g>
<!-- Node16&#45;&gt;Node18 -->
<g id="edge32" class="edge"><title>Node16&#45;&gt;Node18</title>
<path fill="none" stroke="midnightblue" d="M456.457,-285.306C439.369,-273.1 418.478,-258.177 405.639,-249.007"/>
<polygon fill="midnightblue" stroke="midnightblue" points="454.812,-288.432 464.984,-291.396 458.881,-282.735 454.812,-288.432"/>
</g>
<!-- Node16&#45;&gt;Node19 -->
<g id="edge39" class="edge"><title>Node16&#45;&gt;Node19</title>
<path fill="none" stroke="midnightblue" d="M407.755,-295.551C359.119,-287.506 302.715,-274.311 287.73,-255 272.349,-235.179 281.451,-202.916 287.167,-187.597"/>
<polygon fill="midnightblue" stroke="midnightblue" points="407.252,-299.015 417.68,-297.141 408.359,-292.103 407.252,-299.015"/>
</g>
<!-- Node22 -->
<g id="node22" class="node"><title>Node22</title>
<g id="a_node22"><a xlink:href="MapNode_8cxx.html" target="_top" xlink:title="src/engine/GameObjects\l/MapNode.cxx">
<polygon fill="none" stroke="black" points="508.73,-224.5 508.73,-254.5 642.73,-254.5 642.73,-224.5 508.73,-224.5"/>
<text text-anchor="start" x="516.73" y="-242.5" font-family="Helvetica,sans-Serif" font-size="10.00">src/engine/GameObjects</text>
<text text-anchor="middle" x="575.73" y="-231.5" font-family="Helvetica,sans-Serif" font-size="10.00">/MapNode.cxx</text>
</a>
</g>
</g>
<!-- Node16&#45;&gt;Node22 -->
<g id="edge40" class="edge"><title>Node16&#45;&gt;Node22</title>
<path fill="none" stroke="midnightblue" d="M512.798,-285.451C526.797,-275.452 543.39,-263.6 556.022,-254.577"/>
<polygon fill="midnightblue" stroke="midnightblue" points="510.578,-282.735 504.475,-291.396 514.647,-288.432 510.578,-282.735"/>
</g>
<!-- Node17&#45;&gt;Node6 -->
<g id="edge29" class="edge"><title>Node17&#45;&gt;Node6</title>
<path fill="none" stroke="midnightblue" d="M633.418,-158.597C638.031,-144.329 641.193,-124.881 630.73,-112 580.039,-49.6009 409.423,-119.499 458.73,-56 472.318,-38.5003 524.004,-26.6547 567.877,-19.5281"/>
<polygon fill="midnightblue" stroke="midnightblue" points="630.014,-157.71 629.81,-168.303 636.575,-160.149 630.014,-157.71"/>
</g>
<!-- Node17&#45;&gt;Node7 -->
<g id="edge30" class="edge"><title>Node17&#45;&gt;Node7</title>
<path fill="none" stroke="midnightblue" d="M626.627,-157.959C626.222,-143.306 623.106,-123.65 610.73,-112 595.378,-97.5492 470.803,-81.3393 397.018,-72.8723"/>
<polygon fill="midnightblue" stroke="midnightblue" points="623.122,-158.347 626.497,-168.39 630.122,-158.434 623.122,-158.347"/>
</g>
<!-- Node17&#45;&gt;Node11 -->
<g id="edge28" class="edge"><title>Node17&#45;&gt;Node11</title>
<path fill="none" stroke="midnightblue" d="M690.536,-166.915C756.045,-156.72 856.173,-141.139 917.875,-131.536"/>
<polygon fill="midnightblue" stroke="midnightblue" points="689.673,-163.507 680.33,-168.503 690.749,-170.424 689.673,-163.507"/>
</g>
<!-- Node17&#45;&gt;Node14 -->
<g id="edge31" class="edge"><title>Node17&#45;&gt;Node14</title>
<path fill="none" stroke="midnightblue" d="M690.73,-172.485C772.892,-166.201 918.484,-153.147 1041.73,-132 1131.42,-116.61 1235.52,-89.3947 1286.06,-75.5722"/>
<polygon fill="midnightblue" stroke="midnightblue" points="690.251,-169.011 680.543,-173.254 690.778,-175.991 690.251,-169.011"/>
</g>
<!-- Node18&#45;&gt;Node17 -->
<g id="edge33" class="edge"><title>Node18&#45;&gt;Node17</title>
<path fill="none" stroke="midnightblue" d="M436.743,-227.468C481.793,-215.915 551.578,-198.017 592.551,-187.509"/>
<polygon fill="midnightblue" stroke="midnightblue" points="435.787,-224.1 426.97,-229.975 437.526,-230.881 435.787,-224.1"/>
</g>
<!-- Node18&#45;&gt;Node19 -->
<g id="edge34" class="edge"><title>Node18&#45;&gt;Node19</title>
<path fill="none" stroke="midnightblue" d="M370.188,-224.901C350.272,-213.396 322.351,-197.267 305.46,-187.509"/>
<polygon fill="midnightblue" stroke="midnightblue" points="368.562,-228.004 378.972,-229.975 372.064,-221.942 368.562,-228.004"/>
</g>
<!-- Node21 -->
<g id="node21" class="node"><title>Node21</title>
<g id="a_node21"><a xlink:href="TerrainGenerator_8cxx.html" target="_top" xlink:title="src/engine/map/TerrainGenerator.cxx">
<polygon fill="none" stroke="black" points="409.73,-112.5 409.73,-131.5 601.73,-131.5 601.73,-112.5 409.73,-112.5"/>
<text text-anchor="middle" x="505.73" y="-119.5" font-family="Helvetica,sans-Serif" font-size="10.00">src/engine/map/TerrainGenerator.cxx</text>
</a>
</g>
</g>
<!-- Node18&#45;&gt;Node21 -->
<g id="edge38" class="edge"><title>Node18&#45;&gt;Node21</title>
<path fill="none" stroke="midnightblue" d="M409.415,-222.324C433.425,-197.564 478.474,-151.107 497.214,-131.782"/>
<polygon fill="midnightblue" stroke="midnightblue" points="406.597,-220.203 402.148,-229.819 411.622,-225.076 406.597,-220.203"/>
</g>
<!-- Node19&#45;&gt;Node7 -->
<g id="edge37" class="edge"><title>Node19&#45;&gt;Node7</title>
<path fill="none" stroke="midnightblue" d="M259.002,-164.105C234.205,-152.069 206.182,-132.871 220.73,-112 236.091,-89.9605 263.533,-78.6873 288.505,-72.9333"/>
<polygon fill="midnightblue" stroke="midnightblue" points="257.705,-167.36 268.253,-168.355 260.627,-160.999 257.705,-167.36"/>
</g>
<!-- Node20 -->
<g id="node20" class="node"><title>Node20</title>
<g id="a_node20"><a xlink:href="Settings_8cxx.html" target="_top" xlink:title="src/engine/basics/Settings.cxx">
<polygon fill="none" stroke="black" points="230.23,-112.5 230.23,-131.5 391.23,-131.5 391.23,-112.5 230.23,-112.5"/>
<text text-anchor="middle" x="310.73" y="-119.5" font-family="Helvetica,sans-Serif" font-size="10.00">src/engine/basics/Settings.cxx</text>
</a>
</g>
</g>
<!-- Node19&#45;&gt;Node20 -->
<g id="edge35" class="edge"><title>Node19&#45;&gt;Node20</title>
<path fill="none" stroke="midnightblue" d="M297.511,-158.69C300.882,-149.589 304.798,-139.014 307.488,-131.751"/>
<polygon fill="midnightblue" stroke="midnightblue" points="294.223,-157.49 294.032,-168.083 300.788,-159.921 294.223,-157.49"/>
</g>
<!-- Node19&#45;&gt;Node21 -->
<g id="edge36" class="edge"><title>Node19&#45;&gt;Node21</title>
<path fill="none" stroke="midnightblue" d="M334.689,-165.959C375.297,-155.76 434.773,-140.822 471.822,-131.516"/>
<polygon fill="midnightblue" stroke="midnightblue" points="333.643,-162.613 324.797,-168.444 335.348,-169.402 333.643,-162.613"/>
</g>
</g>
</svg>
        <g id="navigator" transform="translate(0 0)" fill="#404254">
                <rect fill="#f2f5e9" fill-opacity="0.5" stroke="#606060" stroke-width=".5" x="0" y="0" width="60" height="60"/>
                <use id="zoomplus" xlink:href="#zoomPlus" x="17" y="9" onmousedown="handleZoom(evt,'in')"/>
                <use id="zoomminus" xlink:href="#zoomMin" x="42" y="9" onmousedown="handleZoom(evt,'out')"/>
                <use id="reset" xlink:href="#resetDef" x="30" y="36" onmousedown="handleReset()"/>
                <g id="arrowUp" xlink:href="#dirArrow" transform="translate(30 24)" onmousedown="handlePan(0,-1)">
                  <use xlink:href="#rim" fill="#404040">
                        <set attributeName="fill" to="#808080" begin="arrowUp.mouseover" end="arrowUp.mouseout"/>
                  </use>
                  <path fill="none" stroke="white" stroke-width="1.5" d="M0,-3.0v7 M-2.5,-0.5L0,-3.0L2.5,-0.5"/>
                </g>
                <g id="arrowRight" xlink:href="#dirArrow" transform="rotate(90) translate(36 -43)" onmousedown="handlePan(1,0)">
                  <use xlink:href="#rim" fill="#404040">
                        <set attributeName="fill" to="#808080" begin="arrowRight.mouseover" end="arrowRight.mouseout"/>
                  </use>
                  <path fill="none" stroke="white" stroke-width="1.5" d="M0,-3.0v7 M-2.5,-0.5L0,-3.0L2.5,-0.5"/>
                </g>
                <g id="arrowDown" xlink:href="#dirArrow" transform="rotate(180) translate(-30 -48)" onmousedown="handlePan(0,1)">
                  <use xlink:href="#rim" fill="#404040">
                        <set attributeName="fill" to="#808080" begin="arrowDown.mouseover" end="arrowDown.mouseout"/>
                  </use>
                  <path fill="none" stroke="white" stroke-width="1.5" d="M0,-3.0v7 M-2.5,-0.5L0,-3.0L2.5,-0.5"/>
                </g>
                <g id="arrowLeft" xlink:href="#dirArrow" transform="rotate(270) translate(-36 17)" onmousedown="handlePan(-1,0)">
                  <use xlink:href="#rim" fill="#404040">
                        <set attributeName="fill" to="#808080" begin="arrowLeft.mouseover" end="arrowLeft.mouseout"/>
                  </use>
                  <path fill="none" stroke="white" stroke-width="1.5" d="M0,-3.0v7 M-2.5,-0.5L0,-3.0L2.5,-0.5"/>
                </g>
        </g>
        <svg viewBox="0 0 15 15" width="100%" height="30px" preserveAspectRatio="xMaxYMin meet">
         <g id="arrow_out" transform="scale(0.3 0.3)">
          <a xlink:href="point_8hxx__dep__incl_org.svg" target="_base">
           <rect id="button" ry="5" rx="5" y="6" x="6" height="38" width="38"
                fill="#f2f5e9" fill-opacity="0.5" stroke="#606060" stroke-width="1.0"/>
           <path id="arrow"
             d="M 11.500037,31.436501 C 11.940474,20.09759 22.043105,11.32322 32.158766,21.979434 L 37.068811,17.246167 C 37.068811,17.246167 37.088388,32 37.088388,32 L 22.160133,31.978069 C 22.160133,31.978069 26.997745,27.140456 26.997745,27.140456 C 18.528582,18.264221 13.291696,25.230495 11.500037,31.436501 z"
             style="fill:#404040;"/>
          </a>
         </g>
        </svg>
</svg>
