<?xml version="1.0" encoding="UTF-8" standalone="no"?>
<!DOCTYPE svg PUBLIC "-//W3C//DTD SVG 1.1//EN"
 "http://www.w3.org/Graphics/SVG/1.1/DTD/svg11.dtd">
<!-- Generated by graphviz version 2.38.0 (20140413.2041)
 -->
<!-- Title: src/engine/ResourcesManager.hxx Pages: 1 -->
<svg width="469pt" height="196pt"
 viewBox="0.00 0.00 468.50 196.00" xmlns="http://www.w3.org/2000/svg" xmlns:xlink="http://www.w3.org/1999/xlink">
<g id="graph0" class="graph" transform="scale(1 1) rotate(0) translate(4 192)">
<title>src/engine/ResourcesManager.hxx</title>
<!-- Node1 -->
<g id="node1" class="node"><title>Node1</title>
<polygon fill="#bfbfbf" stroke="black" points="22,-168.5 22,-187.5 201,-187.5 201,-168.5 22,-168.5"/>
<text text-anchor="middle" x="111.5" y="-175.5" font-family="Helvetica,sans-Serif" font-size="10.00">src/engine/ResourcesManager.hxx</text>
</g>
<!-- Node2 -->
<g id="node2" class="node"><title>Node2</title>
<polygon fill="none" stroke="#bfbfbf" points="5,-112.5 5,-131.5 64,-131.5 64,-112.5 5,-112.5"/>
<text text-anchor="middle" x="34.5" y="-119.5" font-family="Helvetica,sans-Serif" font-size="10.00">iostream</text>
</g>
<!-- Node1&#45;&gt;Node2 -->
<g id="edge1" class="edge"><title>Node1&#45;&gt;Node2</title>
<path fill="none" stroke="midnightblue" d="M99.1286,-168.324C87.3415,-160.058 69.3677,-147.453 55.3645,-137.632"/>
<polygon fill="midnightblue" stroke="midnightblue" points="57.0376,-134.531 46.8407,-131.655 53.0184,-140.262 57.0376,-134.531"/>
</g>
<!-- Node3 -->
<g id="node3" class="node"><title>Node3</title>
<polygon fill="none" stroke="#bfbfbf" points="0,-56.5 0,-75.5 93,-75.5 93,-56.5 0,-56.5"/>
<text text-anchor="middle" x="46.5" y="-63.5" font-family="Helvetica,sans-Serif" font-size="10.00">unordered_map</text>
</g>
<!-- Node1&#45;&gt;Node3 -->
<g id="edge2" class="edge"><title>Node1&#45;&gt;Node3</title>
<path fill="none" stroke="midnightblue" d="M106.4,-168.368C95.7202,-150.296 70.8315,-108.176 56.7271,-84.3074"/>
<polygon fill="midnightblue" stroke="midnightblue" points="59.6773,-82.4201 51.5767,-75.5914 53.6508,-85.9813 59.6773,-82.4201"/>
</g>
<!-- Node4 -->
<g id="node4" class="node"><title>Node4</title>
<polygon fill="none" stroke="#bfbfbf" points="111,-56.5 111,-75.5 156,-75.5 156,-56.5 111,-56.5"/>
<text text-anchor="middle" x="133.5" y="-63.5" font-family="Helvetica,sans-Serif" font-size="10.00">SDL.h</text>
</g>
<!-- Node1&#45;&gt;Node4 -->
<g id="edge3" class="edge"><title>Node1&#45;&gt;Node4</title>
<path fill="none" stroke="midnightblue" d="M113.226,-168.368C116.777,-150.617 124.967,-109.666 129.781,-85.5974"/>
<polygon fill="midnightblue" stroke="midnightblue" points="133.253,-86.0837 131.782,-75.5914 126.388,-84.7108 133.253,-86.0837"/>
</g>
<!-- Node5 -->
<g id="node5" class="node"><title>Node5</title>
<g id="a_node5"><a xlink:href="TileManager_8hxx.html" target="_top" xlink:title="TileManager.hxx">
<polygon fill="none" stroke="black" points="159,-112.5 159,-131.5 252,-131.5 252,-112.5 159,-112.5"/>
<text text-anchor="middle" x="205.5" y="-119.5" font-family="Helvetica,sans-Serif" font-size="10.00">TileManager.hxx</text>
</a>
</g>
</g>
<!-- Node1&#45;&gt;Node5 -->
<g id="edge4" class="edge"><title>Node1&#45;&gt;Node5</title>
<path fill="none" stroke="midnightblue" d="M126.603,-168.324C141.403,-159.822 164.194,-146.729 181.482,-136.797"/>
<polygon fill="midnightblue" stroke="midnightblue" points="183.507,-139.671 190.435,-131.655 180.02,-133.601 183.507,-139.671"/>
</g>
<!-- Node5&#45;&gt;Node3 -->
<g id="edge6" class="edge"><title>Node5&#45;&gt;Node3</title>
<path fill="none" stroke="midnightblue" d="M180.306,-112.444C153.557,-103.359 111.097,-88.9388 81.1948,-78.7831"/>
<polygon fill="midnightblue" stroke="midnightblue" points="82.1705,-75.4182 71.5762,-75.5164 79.9194,-82.0464 82.1705,-75.4182"/>
</g>
<!-- Node5&#45;&gt;Node4 -->
<g id="edge5" class="edge"><title>Node5&#45;&gt;Node4</title>
<path fill="none" stroke="midnightblue" d="M193.932,-112.324C183.08,-104.185 166.619,-91.8395 153.617,-82.0874"/>
<polygon fill="midnightblue" stroke="midnightblue" points="155.379,-79.0339 145.279,-75.8339 151.179,-84.6339 155.379,-79.0339"/>
</g>
<!-- Node6 -->
<g id="node6" class="node"><title>Node6</title>
<polygon fill="none" stroke="#bfbfbf" points="368.5,-0.5 368.5,-19.5 412.5,-19.5 412.5,-0.5 368.5,-0.5"/>
<text text-anchor="middle" x="390.5" y="-7.5" font-family="Helvetica,sans-Serif" font-size="10.00">string</text>
</g>
<!-- Node5&#45;&gt;Node6 -->
<g id="edge7" class="edge"><title>Node5&#45;&gt;Node6</title>
<path fill="none" stroke="midnightblue" d="M251.675,-112.476C279.027,-105.804 313.338,-94.4708 339.5,-76 357.186,-63.5133 371.746,-43.1551 380.718,-28.5482"/>
<polygon fill="midnightblue" stroke="midnightblue" points="383.738,-30.3161 385.783,-19.9204 377.702,-26.772 383.738,-30.3161"/>
</g>
<!-- Node7 -->
<g id="node7" class="node"><title>Node7</title>
<g id="a_node7"><a xlink:href="tileData_8hxx.html" target="_top" xlink:title="tileData.hxx">
<polygon fill="none" stroke="black" points="386.5,-56.5 386.5,-75.5 460.5,-75.5 460.5,-56.5 386.5,-56.5"/>
<text text-anchor="middle" x="423.5" y="-63.5" font-family="Helvetica,sans-Serif" font-size="10.00">tileData.hxx</text>
</a>
</g>
</g>
<!-- Node5&#45;&gt;Node7 -->
<g id="edge8" class="edge"><title>Node5&#45;&gt;Node7</title>
<path fill="none" stroke="midnightblue" d="M240.043,-112.444C277.753,-103.102 338.24,-88.1194 379.365,-77.9326"/>
<polygon fill="midnightblue" stroke="midnightblue" points="380.254,-81.3182 389.119,-75.5164 378.571,-74.5236 380.254,-81.3182"/>
</g>
<!-- Node8 -->
<g id="node8" class="node"><title>Node8</title>
<polygon fill="none" stroke="#bfbfbf" points="174.5,-56.5 174.5,-75.5 230.5,-75.5 230.5,-56.5 174.5,-56.5"/>
<text text-anchor="middle" x="202.5" y="-63.5" font-family="Helvetica,sans-Serif" font-size="10.00">json.hxx</text>
</g>
<!-- Node5&#45;&gt;Node8 -->
<g id="edge10" class="edge"><title>Node5&#45;&gt;Node8</title>
<path fill="none" stroke="midnightblue" d="M205.005,-112.083C204.611,-105.006 204.048,-94.8611 203.555,-85.9865"/>
<polygon fill="midnightblue" stroke="midnightblue" points="207.036,-85.5415 202.986,-75.7511 200.046,-85.9299 207.036,-85.5415"/>
</g>
<!-- Node9 -->
<g id="node9" class="node"><title>Node9</title>
<g id="a_node9"><a xlink:href="Singleton_8hxx.html" target="_top" xlink:title="Singleton.hxx">
<polygon fill="none" stroke="black" points="249,-56.5 249,-75.5 330,-75.5 330,-56.5 249,-56.5"/>
<text text-anchor="middle" x="289.5" y="-63.5" font-family="Helvetica,sans-Serif" font-size="10.00">Singleton.hxx</text>
</a>
</g>
</g>
<!-- Node5&#45;&gt;Node9 -->
<g id="edge11" class="edge"><title>Node5&#45;&gt;Node9</title>
<path fill="none" stroke="midnightblue" d="M218.996,-112.324C232.1,-103.9 252.212,-90.9709 267.607,-81.0741"/>
<polygon fill="midnightblue" stroke="midnightblue" points="269.518,-84.0063 276.037,-75.6545 265.733,-78.118 269.518,-84.0063"/>
</g>
<!-- Node7&#45;&gt;Node6 -->
<g id="edge9" class="edge"><title>Node7&#45;&gt;Node6</title>
<path fill="none" stroke="midnightblue" d="M418.051,-56.083C413.486,-48.6127 406.832,-37.7244 401.207,-28.5199"/>
<polygon fill="midnightblue" stroke="midnightblue" points="404.049,-26.4588 395.848,-19.7511 398.076,-30.109 404.049,-26.4588"/>
</g>
</g>
</svg>
