<?xml version="1.0" encoding="UTF-8" standalone="no"?>
<!DOCTYPE svg PUBLIC "-//W3C//DTD SVG 1.1//EN"
 "http://www.w3.org/Graphics/SVG/1.1/DTD/svg11.dtd">
<!-- Generated by graphviz version 2.38.0 (20140413.2041)
 -->
<!-- Title: src/engine/ResourcesManager.cxx Pages: 1 -->
<svg width="964pt" height="252pt"
 viewBox="0.00 0.00 964.00 252.00" xmlns="http://www.w3.org/2000/svg" xmlns:xlink="http://www.w3.org/1999/xlink">
<g id="graph0" class="graph" transform="scale(1 1) rotate(0) translate(4 248)">
<title>src/engine/ResourcesManager.cxx</title>
<!-- Node1 -->
<g id="node1" class="node"><title>Node1</title>
<polygon fill="#bfbfbf" stroke="black" points="317,-224.5 317,-243.5 495,-243.5 495,-224.5 317,-224.5"/>
<text text-anchor="middle" x="406" y="-231.5" font-family="Helvetica,sans-Serif" font-size="10.00">src/engine/ResourcesManager.cxx</text>
</g>
<!-- Node2 -->
<g id="node2" class="node"><title>Node2</title>
<g id="a_node2"><a xlink:href="ResourcesManager_8hxx.html" target="_top" xlink:title="ResourcesManager.hxx">
<polygon fill="none" stroke="black" points="343,-168.5 343,-187.5 469,-187.5 469,-168.5 343,-168.5"/>
<text text-anchor="middle" x="406" y="-175.5" font-family="Helvetica,sans-Serif" font-size="10.00">ResourcesManager.hxx</text>
</a>
</g>
</g>
<!-- Node1&#45;&gt;Node2 -->
<g id="edge1" class="edge"><title>Node1&#45;&gt;Node2</title>
<path fill="none" stroke="midnightblue" d="M406,-224.083C406,-217.006 406,-206.861 406,-197.986"/>
<polygon fill="midnightblue" stroke="midnightblue" points="409.5,-197.751 406,-187.751 402.5,-197.751 409.5,-197.751"/>
</g>
<!-- Node6 -->
<g id="node6" class="node"><title>Node6</title>
<g id="a_node6"><a xlink:href="TileManager_8hxx.html" target="_top" xlink:title="TileManager.hxx">
<polygon fill="none" stroke="black" points="268.5,-112.5 268.5,-131.5 361.5,-131.5 361.5,-112.5 268.5,-112.5"/>
<text text-anchor="middle" x="315" y="-119.5" font-family="Helvetica,sans-Serif" font-size="10.00">TileManager.hxx</text>
</a>
</g>
</g>
<!-- Node1&#45;&gt;Node6 -->
<g id="edge19" class="edge"><title>Node1&#45;&gt;Node6</title>
<path fill="none" stroke="midnightblue" d="M384.075,-224.413C367.996,-217.043 346.817,-204.92 334,-188 323.805,-174.541 319.069,-155.728 316.876,-141.802"/>
<polygon fill="midnightblue" stroke="midnightblue" points="320.347,-141.353 315.606,-131.878 313.404,-142.241 320.347,-141.353"/>
</g>
<!-- Node9 -->
<g id="node9" class="node"><title>Node9</title>
<polygon fill="none" stroke="#bfbfbf" points="0,-56.5 0,-75.5 56,-75.5 56,-56.5 0,-56.5"/>
<text text-anchor="middle" x="28" y="-63.5" font-family="Helvetica,sans-Serif" font-size="10.00">json.hxx</text>
</g>
<!-- Node1&#45;&gt;Node9 -->
<g id="edge31" class="edge"><title>Node1&#45;&gt;Node9</title>
<path fill="none" stroke="midnightblue" d="M376.339,-224.387C325.113,-209.008 217.351,-174.424 132,-132 101.606,-116.893 68.7384,-95.396 48.2631,-81.3252"/>
<polygon fill="midnightblue" stroke="midnightblue" points="50.2455,-78.4407 40.0355,-75.6112 46.2525,-84.1902 50.2455,-78.4407"/>
</g>
<!-- Node11 -->
<g id="node11" class="node"><title>Node11</title>
<g id="a_node11"><a xlink:href="WindowManager_8hxx.html" target="_top" xlink:title="WindowManager.hxx">
<polygon fill="none" stroke="black" points="468.5,-112.5 468.5,-131.5 581.5,-131.5 581.5,-112.5 468.5,-112.5"/>
<text text-anchor="middle" x="525" y="-119.5" font-family="Helvetica,sans-Serif" font-size="10.00">WindowManager.hxx</text>
</a>
</g>
</g>
<!-- Node1&#45;&gt;Node11 -->
<g id="edge13" class="edge"><title>Node1&#45;&gt;Node11</title>
<path fill="none" stroke="midnightblue" d="M423.586,-224.487C439.024,-216.466 461.524,-203.401 478,-188 493.044,-173.938 506.39,-154.433 514.98,-140.466"/>
<polygon fill="midnightblue" stroke="midnightblue" points="518.022,-142.198 520.13,-131.815 512.007,-138.618 518.022,-142.198"/>
</g>
<!-- Node13 -->
<g id="node13" class="node"><title>Node13</title>
<g id="a_node13"><a xlink:href="Settings_8hxx.html" target="_top" xlink:title="basics/Settings.hxx">
<polygon fill="none" stroke="black" points="141.5,-112.5 141.5,-131.5 250.5,-131.5 250.5,-112.5 141.5,-112.5"/>
<text text-anchor="middle" x="196" y="-119.5" font-family="Helvetica,sans-Serif" font-size="10.00">basics/Settings.hxx</text>
</a>
</g>
</g>
<!-- Node1&#45;&gt;Node13 -->
<g id="edge20" class="edge"><title>Node1&#45;&gt;Node13</title>
<path fill="none" stroke="midnightblue" d="M389.511,-224.377C372.198,-215.321 344.183,-200.665 320,-188 285.824,-170.101 246.36,-149.41 221.302,-136.27"/>
<polygon fill="midnightblue" stroke="midnightblue" points="222.927,-133.17 212.446,-131.626 219.676,-139.37 222.927,-133.17"/>
</g>
<!-- Node14 -->
<g id="node14" class="node"><title>Node14</title>
<g id="a_node14"><a xlink:href="LOG_8hxx.html" target="_top" xlink:title="basics/LOG.hxx">
<polygon fill="none" stroke="black" points="680.5,-112.5 680.5,-131.5 769.5,-131.5 769.5,-112.5 680.5,-112.5"/>
<text text-anchor="middle" x="725" y="-119.5" font-family="Helvetica,sans-Serif" font-size="10.00">basics/LOG.hxx</text>
</a>
</g>
</g>
<!-- Node1&#45;&gt;Node14 -->
<g id="edge23" class="edge"><title>Node1&#45;&gt;Node14</title>
<path fill="none" stroke="midnightblue" d="M423.411,-224.284C450.717,-210.86 505.509,-184.912 554,-168 594.232,-153.968 641.105,-141.924 675.592,-133.836"/>
<polygon fill="midnightblue" stroke="midnightblue" points="676.472,-137.225 685.424,-131.559 674.892,-130.406 676.472,-137.225"/>
</g>
<!-- Node19 -->
<g id="node19" class="node"><title>Node19</title>
<polygon fill="none" stroke="#bfbfbf" points="563,-168.5 563,-187.5 643,-187.5 643,-168.5 563,-168.5"/>
<text text-anchor="middle" x="603" y="-175.5" font-family="Helvetica,sans-Serif" font-size="10.00">SDL_image.h</text>
</g>
<!-- Node1&#45;&gt;Node19 -->
<g id="edge30" class="edge"><title>Node1&#45;&gt;Node19</title>
<path fill="none" stroke="midnightblue" d="M437.215,-224.444C470.933,-215.201 524.8,-200.436 561.932,-190.257"/>
<polygon fill="midnightblue" stroke="midnightblue" points="563.212,-193.536 571.931,-187.516 561.361,-186.785 563.212,-193.536"/>
</g>
<!-- Node3 -->
<g id="node3" class="node"><title>Node3</title>
<polygon fill="none" stroke="#bfbfbf" points="620.5,-56.5 620.5,-75.5 679.5,-75.5 679.5,-56.5 620.5,-56.5"/>
<text text-anchor="middle" x="650" y="-63.5" font-family="Helvetica,sans-Serif" font-size="10.00">iostream</text>
</g>
<!-- Node2&#45;&gt;Node3 -->
<g id="edge2" class="edge"><title>Node2&#45;&gt;Node3</title>
<path fill="none" stroke="midnightblue" d="M469.078,-170.804C506.297,-164.974 553.17,-153.709 590,-132 610.379,-119.988 627.956,-98.8994 638.725,-84.0052"/>
<polygon fill="midnightblue" stroke="midnightblue" points="641.685,-85.8785 644.515,-75.6685 635.936,-81.8855 641.685,-85.8785"/>
</g>
<!-- Node4 -->
<g id="node4" class="node"><title>Node4</title>
<polygon fill="none" stroke="#bfbfbf" points="342.5,-56.5 342.5,-75.5 435.5,-75.5 435.5,-56.5 342.5,-56.5"/>
<text text-anchor="middle" x="389" y="-63.5" font-family="Helvetica,sans-Serif" font-size="10.00">unordered_map</text>
</g>
<!-- Node2&#45;&gt;Node4 -->
<g id="edge3" class="edge"><title>Node2&#45;&gt;Node4</title>
<path fill="none" stroke="midnightblue" d="M404.666,-168.368C401.923,-150.617 395.594,-109.666 391.874,-85.5974"/>
<polygon fill="midnightblue" stroke="midnightblue" points="395.314,-84.9395 390.328,-75.5914 388.396,-86.0087 395.314,-84.9395"/>
</g>
<!-- Node5 -->
<g id="node5" class="node"><title>Node5</title>
<polygon fill="none" stroke="#bfbfbf" points="453.5,-56.5 453.5,-75.5 498.5,-75.5 498.5,-56.5 453.5,-56.5"/>
<text text-anchor="middle" x="476" y="-63.5" font-family="Helvetica,sans-Serif" font-size="10.00">SDL.h</text>
</g>
<!-- Node2&#45;&gt;Node5 -->
<g id="edge4" class="edge"><title>Node2&#45;&gt;Node5</title>
<path fill="none" stroke="midnightblue" d="M411.493,-168.368C422.994,-150.296 449.797,-108.176 464.986,-84.3074"/>
<polygon fill="midnightblue" stroke="midnightblue" points="468.117,-85.9071 470.533,-75.5914 462.211,-82.149 468.117,-85.9071"/>
</g>
<!-- Node2&#45;&gt;Node6 -->
<g id="edge5" class="edge"><title>Node2&#45;&gt;Node6</title>
<path fill="none" stroke="midnightblue" d="M391.379,-168.324C377.051,-159.822 354.987,-146.729 338.251,-136.797"/>
<polygon fill="midnightblue" stroke="midnightblue" points="339.97,-133.748 329.584,-131.655 336.398,-139.768 339.97,-133.748"/>
</g>
<!-- Node6&#45;&gt;Node4 -->
<g id="edge7" class="edge"><title>Node6&#45;&gt;Node4</title>
<path fill="none" stroke="midnightblue" d="M326.889,-112.324C338.15,-104.107 355.287,-91.6017 368.709,-81.8069"/>
<polygon fill="midnightblue" stroke="midnightblue" points="370.88,-84.5559 376.894,-75.8339 366.753,-78.9014 370.88,-84.5559"/>
</g>
<!-- Node6&#45;&gt;Node5 -->
<g id="edge6" class="edge"><title>Node6&#45;&gt;Node5</title>
<path fill="none" stroke="midnightblue" d="M340.511,-112.444C368.472,-103.065 413.389,-88.0001 443.767,-77.8112"/>
<polygon fill="midnightblue" stroke="midnightblue" points="445.098,-81.0563 453.466,-74.558 442.872,-74.4197 445.098,-81.0563"/>
</g>
<!-- Node7 -->
<g id="node7" class="node"><title>Node7</title>
<polygon fill="none" stroke="#bfbfbf" points="209,-0.5 209,-19.5 253,-19.5 253,-0.5 209,-0.5"/>
<text text-anchor="middle" x="231" y="-7.5" font-family="Helvetica,sans-Serif" font-size="10.00">string</text>
</g>
<!-- Node6&#45;&gt;Node7 -->
<g id="edge8" class="edge"><title>Node6&#45;&gt;Node7</title>
<path fill="none" stroke="midnightblue" d="M313.944,-112.213C311.981,-98.9244 306.742,-73.4207 294,-56 284.486,-42.9925 270.064,-32.2982 257.419,-24.6037"/>
<polygon fill="midnightblue" stroke="midnightblue" points="259.034,-21.4949 248.621,-19.5408 255.543,-27.5621 259.034,-21.4949"/>
</g>
<!-- Node8 -->
<g id="node8" class="node"><title>Node8</title>
<g id="a_node8"><a xlink:href="tileData_8hxx.html" target="_top" xlink:title="tileData.hxx">
<polygon fill="none" stroke="black" points="112,-56.5 112,-75.5 186,-75.5 186,-56.5 112,-56.5"/>
<text text-anchor="middle" x="149" y="-63.5" font-family="Helvetica,sans-Serif" font-size="10.00">tileData.hxx</text>
</a>
</g>
</g>
<!-- Node6&#45;&gt;Node8 -->
<g id="edge9" class="edge"><title>Node6&#45;&gt;Node8</title>
<path fill="none" stroke="midnightblue" d="M288.697,-112.444C260.649,-103.32 216.056,-88.8133 184.816,-78.6509"/>
<polygon fill="midnightblue" stroke="midnightblue" points="185.772,-75.2816 175.18,-75.5164 183.607,-81.9383 185.772,-75.2816"/>
</g>
<!-- Node6&#45;&gt;Node9 -->
<g id="edge11" class="edge"><title>Node6&#45;&gt;Node9</title>
<path fill="none" stroke="midnightblue" d="M269.524,-112.444C213.364,-101.877 118.834,-84.0907 66.2357,-74.1942"/>
<polygon fill="midnightblue" stroke="midnightblue" points="66.7737,-70.7341 56.299,-72.3245 65.4793,-77.6134 66.7737,-70.7341"/>
</g>
<!-- Node10 -->
<g id="node10" class="node"><title>Node10</title>
<g id="a_node10"><a xlink:href="Singleton_8hxx.html" target="_top" xlink:title="Singleton.hxx">
<polygon fill="none" stroke="black" points="204.5,-56.5 204.5,-75.5 285.5,-75.5 285.5,-56.5 204.5,-56.5"/>
<text text-anchor="middle" x="245" y="-63.5" font-family="Helvetica,sans-Serif" font-size="10.00">Singleton.hxx</text>
</a>
</g>
</g>
<!-- Node6&#45;&gt;Node10 -->
<g id="edge12" class="edge"><title>Node6&#45;&gt;Node10</title>
<path fill="none" stroke="midnightblue" d="M303.753,-112.324C293.203,-104.185 277.199,-91.8395 264.558,-82.0874"/>
<polygon fill="midnightblue" stroke="midnightblue" points="266.507,-79.1707 256.451,-75.8339 262.231,-84.7132 266.507,-79.1707"/>
</g>
<!-- Node8&#45;&gt;Node7 -->
<g id="edge10" class="edge"><title>Node8&#45;&gt;Node7</title>
<path fill="none" stroke="midnightblue" d="M162.175,-56.324C174.847,-47.979 194.233,-35.2122 209.206,-25.3524"/>
<polygon fill="midnightblue" stroke="midnightblue" points="211.431,-28.0776 217.858,-19.6545 207.581,-22.2313 211.431,-28.0776"/>
</g>
<!-- Node11&#45;&gt;Node3 -->
<g id="edge15" class="edge"><title>Node11&#45;&gt;Node3</title>
<path fill="none" stroke="midnightblue" d="M544.807,-112.444C565.287,-103.596 597.483,-89.6875 620.865,-79.5865"/>
<polygon fill="midnightblue" stroke="midnightblue" points="622.494,-82.6953 630.286,-75.5164 619.718,-76.2692 622.494,-82.6953"/>
</g>
<!-- Node11&#45;&gt;Node5 -->
<g id="edge17" class="edge"><title>Node11&#45;&gt;Node5</title>
<path fill="none" stroke="midnightblue" d="M516.909,-112.083C509.845,-104.298 499.412,-92.8015 490.851,-83.3665"/>
<polygon fill="midnightblue" stroke="midnightblue" points="493.253,-80.8047 483.941,-75.7511 488.069,-85.5087 493.253,-80.8047"/>
</g>
<!-- Node11&#45;&gt;Node7 -->
<g id="edge14" class="edge"><title>Node11&#45;&gt;Node7</title>
<path fill="none" stroke="midnightblue" d="M525.335,-112.34C525.369,-98.266 523.213,-70.5425 507,-56 471.567,-24.2177 328.489,-14.7221 263.456,-12.0183"/>
<polygon fill="midnightblue" stroke="midnightblue" points="263.481,-8.51668 253.353,-11.6272 263.21,-15.5114 263.481,-8.51668"/>
</g>
<!-- Node11&#45;&gt;Node10 -->
<g id="edge18" class="edge"><title>Node11&#45;&gt;Node10</title>
<path fill="none" stroke="midnightblue" d="M480.633,-112.444C430.219,-102.721 348.114,-86.8862 295.344,-76.7092"/>
<polygon fill="midnightblue" stroke="midnightblue" points="296.005,-73.2722 285.523,-74.8151 294.679,-80.1455 296.005,-73.2722"/>
</g>
<!-- Node12 -->
<g id="node12" class="node"><title>Node12</title>
<polygon fill="none" stroke="#bfbfbf" points="555.5,-56.5 555.5,-75.5 602.5,-75.5 602.5,-56.5 555.5,-56.5"/>
<text text-anchor="middle" x="579" y="-63.5" font-family="Helvetica,sans-Serif" font-size="10.00">vector</text>
</g>
<!-- Node11&#45;&gt;Node12 -->
<g id="edge16" class="edge"><title>Node11&#45;&gt;Node12</title>
<path fill="none" stroke="midnightblue" d="M533.917,-112.083C541.78,-104.22 553.431,-92.5688 562.919,-83.0813"/>
<polygon fill="midnightblue" stroke="midnightblue" points="565.653,-85.2971 570.249,-75.7511 560.703,-80.3473 565.653,-85.2971"/>
</g>
<!-- Node13&#45;&gt;Node7 -->
<g id="edge21" class="edge"><title>Node13&#45;&gt;Node7</title>
<path fill="none" stroke="midnightblue" d="M162.59,-112.441C128.813,-102.092 84.0972,-82.6824 103,-56 124.56,-25.5671 168.414,-15.5652 198.738,-12.3631"/>
<polygon fill="midnightblue" stroke="midnightblue" points="199.178,-15.8382 208.84,-11.4917 198.577,-8.86406 199.178,-15.8382"/>
</g>
<!-- Node13&#45;&gt;Node10 -->
<g id="edge22" class="edge"><title>Node13&#45;&gt;Node10</title>
<path fill="none" stroke="midnightblue" d="M204.091,-112.083C211.155,-104.298 221.588,-92.8015 230.149,-83.3665"/>
<polygon fill="midnightblue" stroke="midnightblue" points="232.931,-85.5087 237.059,-75.7511 227.747,-80.8047 232.931,-85.5087"/>
</g>
<!-- Node14&#45;&gt;Node3 -->
<g id="edge24" class="edge"><title>Node14&#45;&gt;Node3</title>
<path fill="none" stroke="midnightblue" d="M712.95,-112.324C701.537,-104.107 684.169,-91.6017 670.565,-81.8069"/>
<polygon fill="midnightblue" stroke="midnightblue" points="672.43,-78.8366 662.269,-75.8339 668.34,-84.5174 672.43,-78.8366"/>
</g>
<!-- Node14&#45;&gt;Node5 -->
<g id="edge29" class="edge"><title>Node14&#45;&gt;Node5</title>
<path fill="none" stroke="midnightblue" d="M685.545,-112.444C636.565,-101.821 553.945,-83.9038 508.458,-74.039"/>
<polygon fill="midnightblue" stroke="midnightblue" points="509.052,-70.5866 498.537,-71.8876 507.568,-77.4275 509.052,-70.5866"/>
</g>
<!-- Node15 -->
<g id="node15" class="node"><title>Node15</title>
<polygon fill="none" stroke="#bfbfbf" points="844,-56.5 844,-75.5 894,-75.5 894,-56.5 844,-56.5"/>
<text text-anchor="middle" x="869" y="-63.5" font-family="Helvetica,sans-Serif" font-size="10.00">chrono</text>
</g>
<!-- Node14&#45;&gt;Node15 -->
<g id="edge25" class="edge"><title>Node14&#45;&gt;Node15</title>
<path fill="none" stroke="midnightblue" d="M747.817,-112.444C771.832,-103.438 809.829,-89.1891 836.869,-79.049"/>
<polygon fill="midnightblue" stroke="midnightblue" points="838.155,-82.3049 846.29,-75.5164 835.697,-75.7506 838.155,-82.3049"/>
</g>
<!-- Node16 -->
<g id="node16" class="node"><title>Node16</title>
<polygon fill="none" stroke="#bfbfbf" points="912,-56.5 912,-75.5 956,-75.5 956,-56.5 912,-56.5"/>
<text text-anchor="middle" x="934" y="-63.5" font-family="Helvetica,sans-Serif" font-size="10.00">ctime</text>
</g>
<!-- Node14&#45;&gt;Node16 -->
<g id="edge26" class="edge"><title>Node14&#45;&gt;Node16</title>
<path fill="none" stroke="midnightblue" d="M760.219,-112.481C794.159,-104.186 847.191,-91.0041 901.821,-76.2552"/>
<polygon fill="midnightblue" stroke="midnightblue" points="902.94,-79.5783 911.675,-73.5824 901.108,-72.8224 902.94,-79.5783"/>
</g>
<!-- Node17 -->
<g id="node17" class="node"><title>Node17</title>
<polygon fill="none" stroke="#bfbfbf" points="698,-56.5 698,-75.5 752,-75.5 752,-56.5 698,-56.5"/>
<text text-anchor="middle" x="725" y="-63.5" font-family="Helvetica,sans-Serif" font-size="10.00">fstream</text>
</g>
<!-- Node14&#45;&gt;Node17 -->
<g id="edge27" class="edge"><title>Node14&#45;&gt;Node17</title>
<path fill="none" stroke="midnightblue" d="M725,-112.083C725,-105.006 725,-94.8611 725,-85.9865"/>
<polygon fill="midnightblue" stroke="midnightblue" points="728.5,-85.751 725,-75.7511 721.5,-85.7511 728.5,-85.751"/>
</g>
<!-- Node18 -->
<g id="node18" class="node"><title>Node18</title>
<polygon fill="none" stroke="#bfbfbf" points="770,-56.5 770,-75.5 826,-75.5 826,-56.5 770,-56.5"/>
<text text-anchor="middle" x="798" y="-63.5" font-family="Helvetica,sans-Serif" font-size="10.00">sstream</text>
</g>
<!-- Node14&#45;&gt;Node18 -->
<g id="edge28" class="edge"><title>Node14&#45;&gt;Node18</title>
<path fill="none" stroke="midnightblue" d="M736.729,-112.324C747.837,-104.107 764.742,-91.6017 777.983,-81.8069"/>
<polygon fill="midnightblue" stroke="midnightblue" points="780.1,-84.5948 786.058,-75.8339 775.937,-78.9671 780.1,-84.5948"/>
</g>
</g>
</svg>
