<?xml version="1.0" encoding="UTF-8" standalone="no"?>
<!DOCTYPE svg PUBLIC "-//W3C//DTD SVG 1.1//EN"
 "http://www.w3.org/Graphics/SVG/1.1/DTD/svg11.dtd">
<!-- Generated by graphviz version 2.38.0 (20140413.2041)
 -->
<!-- Title: src/Scripting/ScriptEngine.cxx Pages: 1 -->
<svg width="743pt" height="84pt"
 viewBox="0.00 0.00 742.50 84.00" xmlns="http://www.w3.org/2000/svg" xmlns:xlink="http://www.w3.org/1999/xlink">
<g id="graph0" class="graph" transform="scale(1 1) rotate(0) translate(4 80)">
<title>src/Scripting/ScriptEngine.cxx</title>
<!-- Node1 -->
<g id="node1" class="node"><title>Node1</title>
<polygon fill="#bfbfbf" stroke="black" points="387,-56.5 387,-75.5 545,-75.5 545,-56.5 387,-56.5"/>
<text text-anchor="middle" x="466" y="-63.5" font-family="Helvetica,sans-Serif" font-size="10.00">src/Scripting/ScriptEngine.cxx</text>
</g>
<!-- Node2 -->
<g id="node2" class="node"><title>Node2</title>
<g id="a_node2"><a xlink:href="ScriptEngine_8hxx.html" target="_top" xlink:title="ScriptEngine.hxx">
<polygon fill="none" stroke="black" points="0,-0.5 0,-19.5 96,-19.5 96,-0.5 0,-0.5"/>
<text text-anchor="middle" x="48" y="-7.5" font-family="Helvetica,sans-Serif" font-size="10.00">ScriptEngine.hxx</text>
</a>
</g>
</g>
<!-- Node1&#45;&gt;Node2 -->
<g id="edge1" class="edge"><title>Node1&#45;&gt;Node2</title>
<path fill="none" stroke="midnightblue" d="M391.928,-56.4819C321.17,-48.1817 211.255,-34.8641 106.323,-20.1495"/>
<polygon fill="midnightblue" stroke="midnightblue" points="106.576,-16.6507 96.1855,-18.7213 105.599,-23.5822 106.576,-16.6507"/>
</g>
<!-- Node3 -->
<g id="node3" class="node"><title>Node3</title>
<polygon fill="none" stroke="#bfbfbf" points="114,-0.5 114,-19.5 192,-19.5 192,-0.5 114,-0.5"/>
<text text-anchor="middle" x="153" y="-7.5" font-family="Helvetica,sans-Serif" font-size="10.00">angelscript.h</text>
</g>
<!-- Node1&#45;&gt;Node3 -->
<g id="edge2" class="edge"><title>Node1&#45;&gt;Node3</title>
<path fill="none" stroke="midnightblue" d="M414.16,-56.4669C362.899,-47.9682 281.94,-34.3838 202.239,-20.1977"/>
<polygon fill="midnightblue" stroke="midnightblue" points="202.482,-16.6858 192.022,-18.3746 201.252,-23.5769 202.482,-16.6858"/>
</g>
<!-- Node4 -->
<g id="node4" class="node"><title>Node4</title>
<polygon fill="none" stroke="#bfbfbf" points="210.5,-0.5 210.5,-19.5 375.5,-19.5 375.5,-0.5 210.5,-0.5"/>
<text text-anchor="middle" x="293" y="-7.5" font-family="Helvetica,sans-Serif" font-size="10.00">scriptstdstring/scriptstdstring.h</text>
</g>
<!-- Node1&#45;&gt;Node4 -->
<g id="edge3" class="edge"><title>Node1&#45;&gt;Node4</title>
<path fill="none" stroke="midnightblue" d="M438.588,-56.4435C409.231,-47.2801 362.481,-32.6876 329.904,-22.5192"/>
<polygon fill="midnightblue" stroke="midnightblue" points="330.873,-19.1551 320.284,-19.5164 328.787,-25.8371 330.873,-19.1551"/>
</g>
<!-- Node5 -->
<g id="node5" class="node"><title>Node5</title>
<polygon fill="none" stroke="#bfbfbf" points="393.5,-0.5 393.5,-19.5 538.5,-19.5 538.5,-0.5 393.5,-0.5"/>
<text text-anchor="middle" x="466" y="-7.5" font-family="Helvetica,sans-Serif" font-size="10.00">scriptbuilder/scriptbuilder.h</text>
</g>
<!-- Node1&#45;&gt;Node5 -->
<g id="edge4" class="edge"><title>Node1&#45;&gt;Node5</title>
<path fill="none" stroke="midnightblue" d="M466,-56.083C466,-49.0059 466,-38.8611 466,-29.9865"/>
<polygon fill="midnightblue" stroke="midnightblue" points="469.5,-29.751 466,-19.7511 462.5,-29.7511 469.5,-29.751"/>
</g>
<!-- Node6 -->
<g id="node6" class="node"><title>Node6</title>
<polygon fill="none" stroke="#bfbfbf" points="557,-0.5 557,-19.5 609,-19.5 609,-0.5 557,-0.5"/>
<text text-anchor="middle" x="583" y="-7.5" font-family="Helvetica,sans-Serif" font-size="10.00">cassert</text>
</g>
<!-- Node1&#45;&gt;Node6 -->
<g id="edge5" class="edge"><title>Node1&#45;&gt;Node6</title>
<path fill="none" stroke="midnightblue" d="M484.539,-56.4435C503.623,-47.6356 533.575,-33.8116 555.436,-23.722"/>
<polygon fill="midnightblue" stroke="midnightblue" points="556.935,-26.8849 564.548,-19.5164 554.001,-20.5292 556.935,-26.8849"/>
</g>
<!-- Node7 -->
<g id="node7" class="node"><title>Node7</title>
<polygon fill="none" stroke="#bfbfbf" points="627,-0.5 627,-19.5 671,-19.5 671,-0.5 627,-0.5"/>
<text text-anchor="middle" x="649" y="-7.5" font-family="Helvetica,sans-Serif" font-size="10.00">string</text>
</g>
<!-- Node1&#45;&gt;Node7 -->
<g id="edge6" class="edge"><title>Node1&#45;&gt;Node7</title>
<path fill="none" stroke="midnightblue" d="M494.997,-56.4435C528.151,-46.6602 582.278,-30.6884 616.74,-20.5194"/>
<polygon fill="midnightblue" stroke="midnightblue" points="618.158,-23.7502 626.759,-17.5631 616.177,-17.0364 618.158,-23.7502"/>
</g>
<!-- Node8 -->
<g id="node8" class="node"><title>Node8</title>
<polygon fill="none" stroke="#bfbfbf" points="689.5,-0.5 689.5,-19.5 734.5,-19.5 734.5,-0.5 689.5,-0.5"/>
<text text-anchor="middle" x="712" y="-7.5" font-family="Helvetica,sans-Serif" font-size="10.00">SDL.h</text>
</g>
<!-- Node1&#45;&gt;Node8 -->
<g id="edge7" class="edge"><title>Node1&#45;&gt;Node8</title>
<path fill="none" stroke="midnightblue" d="M510.873,-56.4717C552.189,-48.4163 615.383,-35.585 679.453,-20.0013"/>
<polygon fill="midnightblue" stroke="midnightblue" points="680.446,-23.3616 689.324,-17.5799 678.778,-16.5632 680.446,-23.3616"/>
</g>
</g>
</svg>
