<?xml version="1.0" encoding="UTF-8" standalone="no"?>
<!DOCTYPE svg PUBLIC "-//W3C//DTD SVG 1.1//EN"
 "http://www.w3.org/Graphics/SVG/1.1/DTD/svg11.dtd">
<!-- Generated by graphviz version 2.38.0 (20140413.2041)
 -->
<!-- Title: src/engine/basics/Settings.hxx Pages: 1 -->
<svg width="2827pt" height="151pt"
 viewBox="0.00 0.00 2827.00 151.00" xmlns="http://www.w3.org/2000/svg" xmlns:xlink="http://www.w3.org/1999/xlink">
<g id="graph0" class="graph" transform="scale(1 1) rotate(0) translate(4 147)">
<title>src/engine/basics/Settings.hxx</title>
<!-- Node1 -->
<g id="node1" class="node"><title>Node1</title>
<polygon fill="#bfbfbf" stroke="black" points="1308.5,-123.5 1308.5,-142.5 1469.5,-142.5 1469.5,-123.5 1308.5,-123.5"/>
<text text-anchor="middle" x="1389" y="-130.5" font-family="Helvetica,sans-Serif" font-size="10.00">src/engine/basics/Settings.hxx</text>
</g>
<!-- Node2 -->
<g id="node2" class="node"><title>Node2</title>
<g id="a_node2"><a xlink:href="Music_8cxx.html" target="_top" xlink:title="src/engine/audio/Music.cxx">
<polygon fill="none" stroke="black" points="0,-62 0,-81 144,-81 144,-62 0,-62"/>
<text text-anchor="middle" x="72" y="-69" font-family="Helvetica,sans-Serif" font-size="10.00">src/engine/audio/Music.cxx</text>
</a>
</g>
</g>
<!-- Node1&#45;&gt;Node2 -->
<g id="edge1" class="edge"><title>Node1&#45;&gt;Node2</title>
<path fill="none" stroke="midnightblue" d="M1297.96,-130.349C1051.5,-125.615 374.924,-110.784 153,-87 139.932,-85.5994 125.795,-83.3329 113.046,-81.0036"/>
<polygon fill="midnightblue" stroke="midnightblue" points="1298.25,-133.855 1308.31,-130.547 1298.38,-126.857 1298.25,-133.855"/>
</g>
<!-- Node3 -->
<g id="node3" class="node"><title>Node3</title>
<g id="a_node3"><a xlink:href="SoundEffect_8cxx.html" target="_top" xlink:title="src/engine/audio/SoundEffect.cxx">
<polygon fill="none" stroke="black" points="162.5,-62 162.5,-81 337.5,-81 337.5,-62 162.5,-62"/>
<text text-anchor="middle" x="250" y="-69" font-family="Helvetica,sans-Serif" font-size="10.00">src/engine/audio/SoundEffect.cxx</text>
</a>
</g>
</g>
<!-- Node1&#45;&gt;Node3 -->
<g id="edge2" class="edge"><title>Node1&#45;&gt;Node3</title>
<path fill="none" stroke="midnightblue" d="M1298.38,-131.29C1117.23,-129.163 697.699,-120.69 347,-87 331.746,-85.5346 315.228,-83.3074 300.221,-81.0351"/>
<polygon fill="midnightblue" stroke="midnightblue" points="1298.36,-134.79 1308.4,-131.404 1298.44,-127.79 1298.36,-134.79"/>
</g>
<!-- Node4 -->
<g id="node4" class="node"><title>Node4</title>
<g id="a_node4"><a xlink:href="AudioMixer_8cxx.html" target="_top" xlink:title="src/engine/AudioMixer.cxx">
<polygon fill="none" stroke="black" points="356,-62 356,-81 496,-81 496,-62 356,-62"/>
<text text-anchor="middle" x="426" y="-69" font-family="Helvetica,sans-Serif" font-size="10.00">src/engine/AudioMixer.cxx</text>
</a>
</g>
</g>
<!-- Node1&#45;&gt;Node4 -->
<g id="edge3" class="edge"><title>Node1&#45;&gt;Node4</title>
<path fill="none" stroke="midnightblue" d="M1298.06,-131.208C1137.6,-128.956 793.967,-120.295 506,-87 493.38,-85.5409 479.746,-83.3156 467.371,-81.0431"/>
<polygon fill="midnightblue" stroke="midnightblue" points="1298.31,-134.712 1308.36,-131.348 1298.41,-127.713 1298.31,-134.712"/>
</g>
<!-- Node5 -->
<g id="node5" class="node"><title>Node5</title>
<g id="a_node5"><a xlink:href="Camera_8cxx.html" target="_top" xlink:title="src/engine/basics/Camera.cxx">
<polygon fill="none" stroke="black" points="514.5,-62 514.5,-81 673.5,-81 673.5,-62 514.5,-62"/>
<text text-anchor="middle" x="594" y="-69" font-family="Helvetica,sans-Serif" font-size="10.00">src/engine/basics/Camera.cxx</text>
</a>
</g>
</g>
<!-- Node1&#45;&gt;Node5 -->
<g id="edge4" class="edge"><title>Node1&#45;&gt;Node5</title>
<path fill="none" stroke="midnightblue" d="M1298.18,-129.117C1163.36,-124.183 902.481,-112.118 682,-87 668.462,-85.4577 653.833,-83.2623 640.462,-81.0452"/>
<polygon fill="midnightblue" stroke="midnightblue" points="1298.33,-132.625 1308.45,-129.489 1298.59,-125.63 1298.33,-132.625"/>
</g>
<!-- Node6 -->
<g id="node6" class="node"><title>Node6</title>
<g id="a_node6"><a xlink:href="isoMath_8cxx.html" target="_top" xlink:title="src/engine/basics/isoMath.cxx">
<polygon fill="none" stroke="black" points="691,-62 691,-81 849,-81 849,-62 691,-62"/>
<text text-anchor="middle" x="770" y="-69" font-family="Helvetica,sans-Serif" font-size="10.00">src/engine/basics/isoMath.cxx</text>
</a>
</g>
</g>
<!-- Node1&#45;&gt;Node6 -->
<g id="edge5" class="edge"><title>Node1&#45;&gt;Node6</title>
<path fill="none" stroke="midnightblue" d="M1297.92,-126.133C1192.89,-118.921 1015.13,-105.344 863,-87 849.21,-85.3371 834.325,-83.18 820.592,-81.0401"/>
<polygon fill="midnightblue" stroke="midnightblue" points="1297.96,-129.643 1308.17,-126.832 1298.43,-122.659 1297.96,-129.643"/>
</g>
<!-- Node7 -->
<g id="node7" class="node"><title>Node7</title>
<g id="a_node7"><a xlink:href="Settings_8cxx.html" target="_top" xlink:title="src/engine/basics/Settings.cxx">
<polygon fill="none" stroke="black" points="735.5,-0.5 735.5,-19.5 896.5,-19.5 896.5,-0.5 735.5,-0.5"/>
<text text-anchor="middle" x="816" y="-7.5" font-family="Helvetica,sans-Serif" font-size="10.00">src/engine/basics/Settings.cxx</text>
</a>
</g>
</g>
<!-- Node1&#45;&gt;Node7 -->
<g id="edge6" class="edge"><title>Node1&#45;&gt;Node7</title>
<path fill="none" stroke="midnightblue" d="M1297.98,-130.781C1175.64,-127.94 965.483,-118.48 896,-87 878.725,-79.1733 840.316,-37.9899 823.798,-19.7304"/>
<polygon fill="midnightblue" stroke="midnightblue" points="1298.01,-134.283 1308.08,-131.005 1298.16,-127.284 1298.01,-134.283"/>
</g>
<!-- Node8 -->
<g id="node8" class="node"><title>Node8</title>
<g id="a_node8"><a xlink:href="JsonSerialization_8hxx.html" target="_top" xlink:title="src/engine/common/JsonSerialization.hxx">
<polygon fill="none" stroke="black" points="905,-62 905,-81 1117,-81 1117,-62 905,-62"/>
<text text-anchor="middle" x="1011" y="-69" font-family="Helvetica,sans-Serif" font-size="10.00">src/engine/common/JsonSerialization.hxx</text>
</a>
</g>
</g>
<!-- Node1&#45;&gt;Node8 -->
<g id="edge7" class="edge"><title>Node1&#45;&gt;Node8</title>
<path fill="none" stroke="midnightblue" d="M1324.84,-121.901C1251.76,-110.398 1133.64,-91.8043 1065.06,-81.0091"/>
<polygon fill="midnightblue" stroke="midnightblue" points="1324.42,-125.378 1334.84,-123.475 1325.51,-118.463 1324.42,-125.378"/>
</g>
<!-- Node10 -->
<g id="node10" class="node"><title>Node10</title>
<g id="a_node10"><a xlink:href="Map_8cxx.html" target="_top" xlink:title="src/engine/Map.cxx">
<polygon fill="none" stroke="black" points="1125,-0.5 1125,-19.5 1233,-19.5 1233,-0.5 1125,-0.5"/>
<text text-anchor="middle" x="1179" y="-7.5" font-family="Helvetica,sans-Serif" font-size="10.00">src/engine/Map.cxx</text>
</a>
</g>
</g>
<!-- Node1&#45;&gt;Node10 -->
<g id="edge13" class="edge"><title>Node1&#45;&gt;Node10</title>
<path fill="none" stroke="midnightblue" d="M1298.11,-125.388C1243.42,-119.306 1181.15,-107.918 1164,-87 1147.8,-67.2387 1163.91,-34.9466 1173.29,-19.6094"/>
<polygon fill="midnightblue" stroke="midnightblue" points="1297.91,-128.887 1308.22,-126.464 1298.65,-121.926 1297.91,-128.887"/>
</g>
<!-- Node11 -->
<g id="node11" class="node"><title>Node11</title>
<g id="a_node11"><a xlink:href="Engine_8cxx.html" target="_top" xlink:title="src/engine/Engine.cxx">
<polygon fill="none" stroke="black" points="1173,-62 1173,-81 1293,-81 1293,-62 1173,-62"/>
<text text-anchor="middle" x="1233" y="-69" font-family="Helvetica,sans-Serif" font-size="10.00">src/engine/Engine.cxx</text>
</a>
</g>
</g>
<!-- Node1&#45;&gt;Node11 -->
<g id="edge11" class="edge"><title>Node1&#45;&gt;Node11</title>
<path fill="none" stroke="midnightblue" d="M1356.97,-119.782C1326.65,-108.22 1281.93,-91.1641 1255.31,-81.0091"/>
<polygon fill="midnightblue" stroke="midnightblue" points="1356.06,-123.182 1366.65,-123.475 1358.55,-116.641 1356.06,-123.182"/>
</g>
<!-- Node12 -->
<g id="node12" class="node"><title>Node12</title>
<g id="a_node12"><a xlink:href="EventManager_8cxx.html" target="_top" xlink:title="src/engine/EventManager.cxx">
<polygon fill="none" stroke="black" points="1311,-62 1311,-81 1467,-81 1467,-62 1311,-62"/>
<text text-anchor="middle" x="1389" y="-69" font-family="Helvetica,sans-Serif" font-size="10.00">src/engine/EventManager.cxx</text>
</a>
</g>
</g>
<!-- Node1&#45;&gt;Node12 -->
<g id="edge12" class="edge"><title>Node1&#45;&gt;Node12</title>
<path fill="none" stroke="midnightblue" d="M1389,-113.317C1389,-102.496 1389,-89.398 1389,-81.0091"/>
<polygon fill="midnightblue" stroke="midnightblue" points="1385.5,-113.475 1389,-123.475 1392.5,-113.475 1385.5,-113.475"/>
</g>
<!-- Node13 -->
<g id="node13" class="node"><title>Node13</title>
<g id="a_node13"><a xlink:href="ResourcesManager_8cxx.html" target="_top" xlink:title="src/engine/ResourcesManager.cxx">
<polygon fill="none" stroke="black" points="1485,-62 1485,-81 1663,-81 1663,-62 1485,-62"/>
<text text-anchor="middle" x="1574" y="-69" font-family="Helvetica,sans-Serif" font-size="10.00">src/engine/ResourcesManager.cxx</text>
</a>
</g>
</g>
<!-- Node1&#45;&gt;Node13 -->
<g id="edge14" class="edge"><title>Node1&#45;&gt;Node13</title>
<path fill="none" stroke="midnightblue" d="M1425.13,-120.381C1461.09,-108.815 1515.42,-91.3407 1547.54,-81.0091"/>
<polygon fill="midnightblue" stroke="midnightblue" points="1423.95,-117.081 1415.51,-123.475 1426.1,-123.745 1423.95,-117.081"/>
</g>
<!-- Node14 -->
<g id="node14" class="node"><title>Node14</title>
<g id="a_node14"><a xlink:href="TileManager_8cxx.html" target="_top" xlink:title="src/engine/TileManager.cxx">
<polygon fill="none" stroke="black" points="1681.5,-62 1681.5,-81 1826.5,-81 1826.5,-62 1681.5,-62"/>
<text text-anchor="middle" x="1754" y="-69" font-family="Helvetica,sans-Serif" font-size="10.00">src/engine/TileManager.cxx</text>
</a>
</g>
</g>
<!-- Node1&#45;&gt;Node14 -->
<g id="edge15" class="edge"><title>Node1&#45;&gt;Node14</title>
<path fill="none" stroke="midnightblue" d="M1454.38,-121.933C1511.77,-113.017 1597.48,-99.5118 1672,-87 1683.12,-85.1327 1695.08,-83.0573 1706.33,-81.0738"/>
<polygon fill="midnightblue" stroke="midnightblue" points="1453.7,-118.496 1444.36,-123.488 1454.78,-125.413 1453.7,-118.496"/>
</g>
<!-- Node15 -->
<g id="node15" class="node"><title>Node15</title>
<g id="a_node15"><a xlink:href="Layout_8cxx.html" target="_top" xlink:title="src/engine/ui/basics\l/Layout.cxx">
<polygon fill="none" stroke="black" points="1845,-56.5 1845,-86.5 1955,-86.5 1955,-56.5 1845,-56.5"/>
<text text-anchor="start" x="1853" y="-74.5" font-family="Helvetica,sans-Serif" font-size="10.00">src/engine/ui/basics</text>
<text text-anchor="middle" x="1900" y="-63.5" font-family="Helvetica,sans-Serif" font-size="10.00">/Layout.cxx</text>
</a>
</g>
</g>
<!-- Node1&#45;&gt;Node15 -->
<g id="edge16" class="edge"><title>Node1&#45;&gt;Node15</title>
<path fill="none" stroke="midnightblue" d="M1479.97,-126.121C1570.6,-119.496 1713.51,-106.964 1836,-87 1838.92,-86.5235 1841.91,-85.9942 1844.93,-85.4278"/>
<polygon fill="midnightblue" stroke="midnightblue" points="1479.46,-122.649 1469.73,-126.861 1479.96,-129.631 1479.46,-122.649"/>
</g>
<!-- Node16 -->
<g id="node16" class="node"><title>Node16</title>
<g id="a_node16"><a xlink:href="UIElement_8cxx.html" target="_top" xlink:title="src/engine/ui/basics\l/UIElement.cxx">
<polygon fill="none" stroke="black" points="1973,-56.5 1973,-86.5 2083,-86.5 2083,-56.5 1973,-56.5"/>
<text text-anchor="start" x="1981" y="-74.5" font-family="Helvetica,sans-Serif" font-size="10.00">src/engine/ui/basics</text>
<text text-anchor="middle" x="2028" y="-63.5" font-family="Helvetica,sans-Serif" font-size="10.00">/UIElement.cxx</text>
</a>
</g>
</g>
<!-- Node1&#45;&gt;Node16 -->
<g id="edge17" class="edge"><title>Node1&#45;&gt;Node16</title>
<path fill="none" stroke="midnightblue" d="M1479.95,-128.947C1593.69,-124.197 1794.14,-112.75 1964,-87 1966.93,-86.556 1969.92,-86.0527 1972.94,-85.5066"/>
<polygon fill="midnightblue" stroke="midnightblue" points="1479.74,-125.453 1469.89,-129.359 1480.02,-132.447 1479.74,-125.453"/>
</g>
<!-- Node17 -->
<g id="node17" class="node"><title>Node17</title>
<g id="a_node17"><a xlink:href="MenuGroupBuild_8cxx.html" target="_top" xlink:title="src/engine/ui/menuGroups\l/MenuGroupBuild.cxx">
<polygon fill="none" stroke="black" points="2101.5,-56.5 2101.5,-86.5 2244.5,-86.5 2244.5,-56.5 2101.5,-56.5"/>
<text text-anchor="start" x="2109.5" y="-74.5" font-family="Helvetica,sans-Serif" font-size="10.00">src/engine/ui/menuGroups</text>
<text text-anchor="middle" x="2173" y="-63.5" font-family="Helvetica,sans-Serif" font-size="10.00">/MenuGroupBuild.cxx</text>
</a>
</g>
</g>
<!-- Node1&#45;&gt;Node17 -->
<g id="edge18" class="edge"><title>Node1&#45;&gt;Node17</title>
<path fill="none" stroke="midnightblue" d="M1479.9,-129.469C1614.17,-124.986 1873.24,-113.496 2092,-87 2094.98,-86.6393 2098.01,-86.2402 2101.07,-85.8114"/>
<polygon fill="midnightblue" stroke="midnightblue" points="1479.54,-125.978 1469.66,-129.805 1479.77,-132.975 1479.54,-125.978"/>
</g>
<!-- Node18 -->
<g id="node18" class="node"><title>Node18</title>
<g id="a_node18"><a xlink:href="Text_8cxx.html" target="_top" xlink:title="src/engine/ui/widgets\l/Text.cxx">
<polygon fill="none" stroke="black" points="2263,-56.5 2263,-86.5 2379,-86.5 2379,-56.5 2263,-56.5"/>
<text text-anchor="start" x="2271" y="-74.5" font-family="Helvetica,sans-Serif" font-size="10.00">src/engine/ui/widgets</text>
<text text-anchor="middle" x="2321" y="-63.5" font-family="Helvetica,sans-Serif" font-size="10.00">/Text.cxx</text>
</a>
</g>
</g>
<!-- Node1&#45;&gt;Node18 -->
<g id="edge19" class="edge"><title>Node1&#45;&gt;Node18</title>
<path fill="none" stroke="midnightblue" d="M1479.75,-132.074C1637.77,-131.136 1973.41,-124.412 2254,-87 2256.95,-86.6068 2259.96,-86.1521 2263,-85.6516"/>
<polygon fill="midnightblue" stroke="midnightblue" points="1479.58,-128.575 1469.6,-132.128 1479.61,-135.575 1479.58,-128.575"/>
</g>
<!-- Node19 -->
<g id="node19" class="node"><title>Node19</title>
<g id="a_node19"><a xlink:href="UIManager_8cxx.html" target="_top" xlink:title="src/engine/UIManager.cxx">
<polygon fill="none" stroke="black" points="2397.5,-62 2397.5,-81 2536.5,-81 2536.5,-62 2397.5,-62"/>
<text text-anchor="middle" x="2467" y="-69" font-family="Helvetica,sans-Serif" font-size="10.00">src/engine/UIManager.cxx</text>
</a>
</g>
</g>
<!-- Node1&#45;&gt;Node19 -->
<g id="edge20" class="edge"><title>Node1&#45;&gt;Node19</title>
<path fill="none" stroke="midnightblue" d="M1479.82,-132.048C1655.7,-131.227 2054.81,-124.902 2388,-87 2400.61,-85.5658 2414.23,-83.319 2426.56,-81.0186"/>
<polygon fill="midnightblue" stroke="midnightblue" points="1479.56,-128.549 1469.58,-132.091 1479.59,-135.549 1479.56,-128.549"/>
</g>
<!-- Node20 -->
<g id="node20" class="node"><title>Node20</title>
<g id="a_node20"><a xlink:href="WindowManager_8cxx.html" target="_top" xlink:title="src/engine/WindowManager.cxx">
<polygon fill="none" stroke="black" points="2555,-62 2555,-81 2719,-81 2719,-62 2555,-62"/>
<text text-anchor="middle" x="2637" y="-69" font-family="Helvetica,sans-Serif" font-size="10.00">src/engine/WindowManager.cxx</text>
</a>
</g>
</g>
<!-- Node1&#45;&gt;Node20 -->
<g id="edge21" class="edge"><title>Node1&#45;&gt;Node20</title>
<path fill="none" stroke="midnightblue" d="M1479.75,-132.14C1675.19,-131.636 2150.24,-126.086 2546,-87 2560.49,-85.5692 2576.17,-83.3234 2590.38,-81.0228"/>
<polygon fill="midnightblue" stroke="midnightblue" points="1479.52,-128.64 1469.53,-132.162 1479.54,-135.64 1479.52,-128.64"/>
</g>
<!-- Node21 -->
<g id="node21" class="node"><title>Node21</title>
<g id="a_node21"><a xlink:href="Game_8cxx.html" target="_top" xlink:title="src/Game.cxx">
<polygon fill="none" stroke="black" points="2737,-62 2737,-81 2819,-81 2819,-62 2737,-62"/>
<text text-anchor="middle" x="2778" y="-69" font-family="Helvetica,sans-Serif" font-size="10.00">src/Game.cxx</text>
</a>
</g>
</g>
<!-- Node1&#45;&gt;Node21 -->
<g id="edge22" class="edge"><title>Node1&#45;&gt;Node21</title>
<path fill="none" stroke="midnightblue" d="M1480,-131.883C1740.68,-131.082 2486.88,-125.4 2728,-87 2736.3,-85.6781 2745.17,-83.403 2753.1,-81.0417"/>
<polygon fill="midnightblue" stroke="midnightblue" points="1479.81,-128.384 1469.82,-131.913 1479.83,-135.384 1479.81,-128.384"/>
</g>
<!-- Node8&#45;&gt;Node7 -->
<g id="edge8" class="edge"><title>Node8&#45;&gt;Node7</title>
<path fill="none" stroke="midnightblue" d="M973.405,-59.0286C935.506,-47.4647 877.892,-29.8849 843.887,-19.5091"/>
<polygon fill="midnightblue" stroke="midnightblue" points="972.475,-62.4042 983.061,-61.9751 974.518,-55.709 972.475,-62.4042"/>
</g>
<!-- Node9 -->
<g id="node9" class="node"><title>Node9</title>
<g id="a_node9"><a xlink:href="TerrainGenerator_8cxx.html" target="_top" xlink:title="src/engine/map/TerrainGenerator.cxx">
<polygon fill="none" stroke="black" points="915,-0.5 915,-19.5 1107,-19.5 1107,-0.5 915,-0.5"/>
<text text-anchor="middle" x="1011" y="-7.5" font-family="Helvetica,sans-Serif" font-size="10.00">src/engine/map/TerrainGenerator.cxx</text>
</a>
</g>
</g>
<!-- Node8&#45;&gt;Node9 -->
<g id="edge9" class="edge"><title>Node8&#45;&gt;Node9</title>
<path fill="none" stroke="midnightblue" d="M1011,-51.8165C1011,-40.9962 1011,-27.898 1011,-19.5091"/>
<polygon fill="midnightblue" stroke="midnightblue" points="1007.5,-51.9751 1011,-61.9751 1014.5,-51.9751 1007.5,-51.9751"/>
</g>
<!-- Node8&#45;&gt;Node10 -->
<g id="edge10" class="edge"><title>Node8&#45;&gt;Node10</title>
<path fill="none" stroke="midnightblue" d="M1044.65,-58.5828C1077.3,-47.017 1126.05,-29.7524 1154.97,-19.5091"/>
<polygon fill="midnightblue" stroke="midnightblue" points="1043.33,-55.3374 1035.07,-61.9751 1045.67,-61.9358 1043.33,-55.3374"/>
</g>
</g>
</svg>
