<?xml version="1.0" encoding="UTF-8" standalone="no"?>
<!DOCTYPE svg PUBLIC "-//W3C//DTD SVG 1.1//EN"
 "http://www.w3.org/Graphics/SVG/1.1/DTD/svg11.dtd">
<!-- Generated by graphviz version 2.38.0 (20140413.2041)
 -->
<!-- Title: src/engine/basics/Settings.cxx Pages: 1 -->
<svg width="1028pt" height="364pt"
 viewBox="0.00 0.00 1028.00 364.00" xmlns="http://www.w3.org/2000/svg" xmlns:xlink="http://www.w3.org/1999/xlink">
<g id="graph0" class="graph" transform="scale(1 1) rotate(0) translate(4 360)">
<title>src/engine/basics/Settings.cxx</title>
<!-- Node1 -->
<g id="node1" class="node"><title>Node1</title>
<polygon fill="#bfbfbf" stroke="black" points="669.5,-336.5 669.5,-355.5 830.5,-355.5 830.5,-336.5 669.5,-336.5"/>
<text text-anchor="middle" x="750" y="-343.5" font-family="Helvetica,sans-Serif" font-size="10.00">src/engine/basics/Settings.cxx</text>
</g>
<!-- Node2 -->
<g id="node2" class="node"><title>Node2</title>
<g id="a_node2"><a xlink:href="Settings_8hxx.html" target="_top" xlink:title="Settings.hxx">
<polygon fill="none" stroke="black" points="693,-168.5 693,-187.5 769,-187.5 769,-168.5 693,-168.5"/>
<text text-anchor="middle" x="731" y="-175.5" font-family="Helvetica,sans-Serif" font-size="10.00">Settings.hxx</text>
</a>
</g>
</g>
<!-- Node1&#45;&gt;Node2 -->
<g id="edge1" class="edge"><title>Node1&#45;&gt;Node2</title>
<path fill="none" stroke="midnightblue" d="M740.32,-336.485C722.971,-320.472 687.252,-283.876 675,-244 672.389,-235.503 671.158,-232.016 675,-224 681.253,-210.954 693.336,-200.492 704.682,-192.951"/>
<polygon fill="midnightblue" stroke="midnightblue" points="706.809,-195.752 713.498,-187.535 703.146,-189.787 706.809,-195.752"/>
</g>
<!-- Node5 -->
<g id="node5" class="node"><title>Node5</title>
<g id="a_node5"><a xlink:href="LOG_8hxx.html" target="_top" xlink:title="LOG.hxx">
<polygon fill="none" stroke="black" points="722,-280.5 722,-299.5 778,-299.5 778,-280.5 722,-280.5"/>
<text text-anchor="middle" x="750" y="-287.5" font-family="Helvetica,sans-Serif" font-size="10.00">LOG.hxx</text>
</a>
</g>
</g>
<!-- Node1&#45;&gt;Node5 -->
<g id="edge4" class="edge"><title>Node1&#45;&gt;Node5</title>
<path fill="none" stroke="midnightblue" d="M750,-336.083C750,-329.006 750,-318.861 750,-309.986"/>
<polygon fill="midnightblue" stroke="midnightblue" points="753.5,-309.751 750,-299.751 746.5,-309.751 753.5,-309.751"/>
</g>
<!-- Node12 -->
<g id="node12" class="node"><title>Node12</title>
<g id="a_node12"><a xlink:href="Constants_8hxx.html" target="_top" xlink:title="Constants.hxx">
<polygon fill="none" stroke="black" points="796.5,-280.5 796.5,-299.5 881.5,-299.5 881.5,-280.5 796.5,-280.5"/>
<text text-anchor="middle" x="839" y="-287.5" font-family="Helvetica,sans-Serif" font-size="10.00">Constants.hxx</text>
</a>
</g>
</g>
<!-- Node1&#45;&gt;Node12 -->
<g id="edge11" class="edge"><title>Node1&#45;&gt;Node12</title>
<path fill="none" stroke="midnightblue" d="M764.299,-336.324C778.183,-327.9 799.492,-314.971 815.804,-305.074"/>
<polygon fill="midnightblue" stroke="midnightblue" points="818.002,-307.834 824.736,-299.655 814.371,-301.85 818.002,-307.834"/>
</g>
<!-- Node13 -->
<g id="node13" class="node"><title>Node13</title>
<g id="a_node13"><a xlink:href="JsonSerialization_8hxx.html" target="_top" xlink:title="JsonSerialization.hxx">
<polygon fill="none" stroke="black" points="466,-280.5 466,-299.5 580,-299.5 580,-280.5 466,-280.5"/>
<text text-anchor="middle" x="523" y="-287.5" font-family="Helvetica,sans-Serif" font-size="10.00">JsonSerialization.hxx</text>
</a>
</g>
</g>
<!-- Node1&#45;&gt;Node13 -->
<g id="edge12" class="edge"><title>Node1&#45;&gt;Node13</title>
<path fill="none" stroke="midnightblue" d="M714.031,-336.444C674.681,-327.083 611.513,-312.056 568.686,-301.868"/>
<polygon fill="midnightblue" stroke="midnightblue" points="569.339,-298.426 558.801,-299.516 567.719,-305.236 569.339,-298.426"/>
</g>
<!-- Node28 -->
<g id="node28" class="node"><title>Node28</title>
<polygon fill="none" stroke="#bfbfbf" points="899.5,-280.5 899.5,-299.5 954.5,-299.5 954.5,-280.5 899.5,-280.5"/>
<text text-anchor="middle" x="927" y="-287.5" font-family="Helvetica,sans-Serif" font-size="10.00">iomanip</text>
</g>
<!-- Node1&#45;&gt;Node28 -->
<g id="edge42" class="edge"><title>Node1&#45;&gt;Node28</title>
<path fill="none" stroke="midnightblue" d="M778.046,-336.444C808.17,-327.253 856.195,-312.602 889.536,-302.43"/>
<polygon fill="midnightblue" stroke="midnightblue" points="890.833,-305.693 899.376,-299.428 888.79,-298.998 890.833,-305.693"/>
</g>
<!-- Node3 -->
<g id="node3" class="node"><title>Node3</title>
<polygon fill="none" stroke="#bfbfbf" points="716,-0.5 716,-19.5 760,-19.5 760,-0.5 716,-0.5"/>
<text text-anchor="middle" x="738" y="-7.5" font-family="Helvetica,sans-Serif" font-size="10.00">string</text>
</g>
<!-- Node2&#45;&gt;Node3 -->
<g id="edge2" class="edge"><title>Node2&#45;&gt;Node3</title>
<path fill="none" stroke="midnightblue" d="M761.799,-168.47C818.241,-151.302 928.957,-109.601 889,-56 861.812,-19.5286 806.228,-11.4517 770.613,-10.2694"/>
<polygon fill="midnightblue" stroke="midnightblue" points="770.31,-6.76405 760.254,-10.1 770.196,-13.7631 770.31,-6.76405"/>
</g>
<!-- Node4 -->
<g id="node4" class="node"><title>Node4</title>
<g id="a_node4"><a xlink:href="Singleton_8hxx.html" target="_top" xlink:title="../../util/Singleton.hxx">
<polygon fill="none" stroke="black" points="731,-56.5 731,-75.5 847,-75.5 847,-56.5 731,-56.5"/>
<text text-anchor="middle" x="789" y="-63.5" font-family="Helvetica,sans-Serif" font-size="10.00">../../util/Singleton.hxx</text>
</a>
</g>
</g>
<!-- Node2&#45;&gt;Node4 -->
<g id="edge3" class="edge"><title>Node2&#45;&gt;Node4</title>
<path fill="none" stroke="midnightblue" d="M735.551,-168.368C745.038,-150.376 767.092,-108.55 779.706,-84.6267"/>
<polygon fill="midnightblue" stroke="midnightblue" points="782.902,-86.0696 784.47,-75.5914 776.71,-82.8047 782.902,-86.0696"/>
</g>
<!-- Node6 -->
<g id="node6" class="node"><title>Node6</title>
<polygon fill="none" stroke="#bfbfbf" points="684.5,-224.5 684.5,-243.5 743.5,-243.5 743.5,-224.5 684.5,-224.5"/>
<text text-anchor="middle" x="714" y="-231.5" font-family="Helvetica,sans-Serif" font-size="10.00">iostream</text>
</g>
<!-- Node5&#45;&gt;Node6 -->
<g id="edge5" class="edge"><title>Node5&#45;&gt;Node6</title>
<path fill="none" stroke="midnightblue" d="M744.055,-280.083C739.023,-272.534 731.663,-261.495 725.487,-252.23"/>
<polygon fill="midnightblue" stroke="midnightblue" points="728.293,-250.13 719.834,-243.751 722.469,-254.013 728.293,-250.13"/>
</g>
<!-- Node7 -->
<g id="node7" class="node"><title>Node7</title>
<polygon fill="none" stroke="#bfbfbf" points="762,-224.5 762,-243.5 812,-243.5 812,-224.5 762,-224.5"/>
<text text-anchor="middle" x="787" y="-231.5" font-family="Helvetica,sans-Serif" font-size="10.00">chrono</text>
</g>
<!-- Node5&#45;&gt;Node7 -->
<g id="edge6" class="edge"><title>Node5&#45;&gt;Node7</title>
<path fill="none" stroke="midnightblue" d="M756.11,-280.083C761.282,-272.534 768.846,-261.495 775.194,-252.23"/>
<polygon fill="midnightblue" stroke="midnightblue" points="778.239,-253.979 781.004,-243.751 772.464,-250.022 778.239,-253.979"/>
</g>
<!-- Node8 -->
<g id="node8" class="node"><title>Node8</title>
<polygon fill="none" stroke="#bfbfbf" points="830,-224.5 830,-243.5 874,-243.5 874,-224.5 830,-224.5"/>
<text text-anchor="middle" x="852" y="-231.5" font-family="Helvetica,sans-Serif" font-size="10.00">ctime</text>
</g>
<!-- Node5&#45;&gt;Node8 -->
<g id="edge7" class="edge"><title>Node5&#45;&gt;Node8</title>
<path fill="none" stroke="midnightblue" d="M766.388,-280.324C782.671,-271.703 807.867,-258.364 826.716,-248.386"/>
<polygon fill="midnightblue" stroke="midnightblue" points="828.452,-251.427 835.653,-243.655 825.177,-245.24 828.452,-251.427"/>
</g>
<!-- Node9 -->
<g id="node9" class="node"><title>Node9</title>
<polygon fill="none" stroke="#bfbfbf" points="892,-224.5 892,-243.5 946,-243.5 946,-224.5 892,-224.5"/>
<text text-anchor="middle" x="919" y="-231.5" font-family="Helvetica,sans-Serif" font-size="10.00">fstream</text>
</g>
<!-- Node5&#45;&gt;Node9 -->
<g id="edge8" class="edge"><title>Node5&#45;&gt;Node9</title>
<path fill="none" stroke="midnightblue" d="M776.779,-280.444C805.333,-271.32 850.733,-256.813 882.537,-246.651"/>
<polygon fill="midnightblue" stroke="midnightblue" points="883.886,-249.894 892.347,-243.516 881.756,-243.226 883.886,-249.894"/>
</g>
<!-- Node10 -->
<g id="node10" class="node"><title>Node10</title>
<polygon fill="none" stroke="#bfbfbf" points="964,-224.5 964,-243.5 1020,-243.5 1020,-224.5 964,-224.5"/>
<text text-anchor="middle" x="992" y="-231.5" font-family="Helvetica,sans-Serif" font-size="10.00">sstream</text>
</g>
<!-- Node5&#45;&gt;Node10 -->
<g id="edge9" class="edge"><title>Node5&#45;&gt;Node10</title>
<path fill="none" stroke="midnightblue" d="M778.263,-282.041C781.211,-281.34 784.164,-280.649 787,-280 858.386,-263.673 878.899,-261.211 953.818,-244.221"/>
<polygon fill="midnightblue" stroke="midnightblue" points="954.766,-247.595 963.737,-241.959 953.209,-240.77 954.766,-247.595"/>
</g>
<!-- Node11 -->
<g id="node11" class="node"><title>Node11</title>
<polygon fill="none" stroke="#bfbfbf" points="351.5,-56.5 351.5,-75.5 396.5,-75.5 396.5,-56.5 351.5,-56.5"/>
<text text-anchor="middle" x="374" y="-63.5" font-family="Helvetica,sans-Serif" font-size="10.00">SDL.h</text>
</g>
<!-- Node5&#45;&gt;Node11 -->
<g id="edge10" class="edge"><title>Node5&#45;&gt;Node11</title>
<path fill="none" stroke="midnightblue" d="M734.429,-280.401C719.014,-271.717 694.903,-257.668 675,-244 596.434,-190.048 589.83,-157.343 506,-112 474.087,-94.7384 434.304,-82.266 406.801,-74.8907"/>
<polygon fill="midnightblue" stroke="midnightblue" points="407.463,-71.4464 396.904,-72.3143 405.699,-78.2206 407.463,-71.4464"/>
</g>
<!-- Node13&#45;&gt;Node2 -->
<g id="edge41" class="edge"><title>Node13&#45;&gt;Node2</title>
<path fill="none" stroke="midnightblue" d="M538.32,-280.429C560.899,-267.843 604.494,-243.719 642,-224 662.818,-213.055 686.603,-201.054 704.344,-192.201"/>
<polygon fill="midnightblue" stroke="midnightblue" points="706.129,-195.222 713.521,-187.632 703.009,-188.956 706.129,-195.222"/>
</g>
<!-- Node14 -->
<g id="node14" class="node"><title>Node14</title>
<polygon fill="none" stroke="#bfbfbf" points="657,-56.5 657,-75.5 713,-75.5 713,-56.5 657,-56.5"/>
<text text-anchor="middle" x="685" y="-63.5" font-family="Helvetica,sans-Serif" font-size="10.00">json.hxx</text>
</g>
<!-- Node13&#45;&gt;Node14 -->
<g id="edge13" class="edge"><title>Node13&#45;&gt;Node14</title>
<path fill="none" stroke="midnightblue" d="M533.438,-280.375C565.916,-253.292 664.018,-169.52 681,-132 687.556,-117.515 688.116,-99.3304 687.29,-85.8811"/>
<polygon fill="midnightblue" stroke="midnightblue" points="690.771,-85.5202 686.37,-75.8827 683.801,-86.1612 690.771,-85.5202"/>
</g>
<!-- Node15 -->
<g id="node15" class="node"><title>Node15</title>
<g id="a_node15"><a xlink:href="point_8hxx.html" target="_top" xlink:title="point.hxx">
<polygon fill="none" stroke="black" points="273,-56.5 273,-75.5 333,-75.5 333,-56.5 273,-56.5"/>
<text text-anchor="middle" x="303" y="-63.5" font-family="Helvetica,sans-Serif" font-size="10.00">point.hxx</text>
</a>
</g>
</g>
<!-- Node13&#45;&gt;Node15 -->
<g id="edge14" class="edge"><title>Node13&#45;&gt;Node15</title>
<path fill="none" stroke="midnightblue" d="M523.988,-280.167C526.666,-251.518 530.973,-160.249 484,-112 481.499,-109.431 395.751,-88.8605 343.191,-76.4385"/>
<polygon fill="midnightblue" stroke="midnightblue" points="343.692,-72.9608 333.156,-74.0705 342.085,-79.7737 343.692,-72.9608"/>
</g>
<!-- Node16 -->
<g id="node16" class="node"><title>Node16</title>
<g id="a_node16"><a xlink:href="MapNode_8hxx.html" target="_top" xlink:title="GameObjects/MapNode.hxx">
<polygon fill="none" stroke="black" points="277,-168.5 277,-187.5 427,-187.5 427,-168.5 277,-168.5"/>
<text text-anchor="middle" x="352" y="-175.5" font-family="Helvetica,sans-Serif" font-size="10.00">GameObjects/MapNode.hxx</text>
</a>
</g>
</g>
<!-- Node13&#45;&gt;Node16 -->
<g id="edge15" class="edge"><title>Node13&#45;&gt;Node16</title>
<path fill="none" stroke="midnightblue" d="M509.582,-280.368C480.238,-261.492 410.117,-216.385 374.132,-193.237"/>
<polygon fill="midnightblue" stroke="midnightblue" points="375.659,-190.058 365.356,-187.591 371.872,-195.945 375.659,-190.058"/>
</g>
<!-- Node26 -->
<g id="node26" class="node"><title>Node26</title>
<g id="a_node26"><a xlink:href="TerrainGenerator_8hxx.html" target="_top" xlink:title="TerrainGenerator.hxx">
<polygon fill="none" stroke="black" points="151,-224.5 151,-243.5 267,-243.5 267,-224.5 151,-224.5"/>
<text text-anchor="middle" x="209" y="-231.5" font-family="Helvetica,sans-Serif" font-size="10.00">TerrainGenerator.hxx</text>
</a>
</g>
</g>
<!-- Node13&#45;&gt;Node26 -->
<g id="edge37" class="edge"><title>Node13&#45;&gt;Node26</title>
<path fill="none" stroke="midnightblue" d="M473.246,-280.444C417.665,-270.885 327.736,-255.419 268.484,-245.23"/>
<polygon fill="midnightblue" stroke="midnightblue" points="268.97,-241.762 258.521,-243.516 267.784,-248.661 268.97,-241.762"/>
</g>
<!-- Node16&#45;&gt;Node3 -->
<g id="edge18" class="edge"><title>Node16&#45;&gt;Node3</title>
<path fill="none" stroke="midnightblue" d="M427.026,-173.878C554.932,-166.735 806.246,-144.16 856,-76 880.714,-42.1429 812.989,-23.8337 770.144,-15.8967"/>
<polygon fill="midnightblue" stroke="midnightblue" points="770.572,-12.4186 760.119,-14.1421 769.365,-19.3138 770.572,-12.4186"/>
</g>
<!-- Node16&#45;&gt;Node11 -->
<g id="edge16" class="edge"><title>Node16&#45;&gt;Node11</title>
<path fill="none" stroke="midnightblue" d="M355.148,-168.495C358.345,-159.536 363.211,-144.958 366,-132 369.294,-116.697 371.359,-99.0552 372.564,-86.0154"/>
<polygon fill="midnightblue" stroke="midnightblue" points="376.063,-86.1729 373.411,-75.9154 369.087,-85.588 376.063,-86.1729"/>
</g>
<!-- Node16&#45;&gt;Node15 -->
<g id="edge28" class="edge"><title>Node16&#45;&gt;Node15</title>
<path fill="none" stroke="midnightblue" d="M350.335,-168.287C347.702,-155.524 341.941,-131.181 333,-112 328.446,-102.23 321.944,-92.1739 316.156,-84.0522"/>
<polygon fill="midnightblue" stroke="midnightblue" points="318.829,-81.7803 310.068,-75.8232 313.202,-85.9438 318.829,-81.7803"/>
</g>
<!-- Node17 -->
<g id="node17" class="node"><title>Node17</title>
<polygon fill="none" stroke="#bfbfbf" points="418.5,-112.5 418.5,-131.5 475.5,-131.5 475.5,-112.5 418.5,-112.5"/>
<text text-anchor="middle" x="447" y="-119.5" font-family="Helvetica,sans-Serif" font-size="10.00">memory</text>
</g>
<!-- Node16&#45;&gt;Node17 -->
<g id="edge17" class="edge"><title>Node16&#45;&gt;Node17</title>
<path fill="none" stroke="midnightblue" d="M367.263,-168.324C382.221,-159.822 405.255,-146.729 422.727,-136.797"/>
<polygon fill="midnightblue" stroke="midnightblue" points="424.81,-139.639 431.774,-131.655 421.351,-133.553 424.81,-139.639"/>
</g>
<!-- Node18 -->
<g id="node18" class="node"><title>Node18</title>
<polygon fill="none" stroke="#bfbfbf" points="262,-112.5 262,-131.5 324,-131.5 324,-112.5 262,-112.5"/>
<text text-anchor="middle" x="293" y="-119.5" font-family="Helvetica,sans-Serif" font-size="10.00">algorithm</text>
</g>
<!-- Node16&#45;&gt;Node18 -->
<g id="edge19" class="edge"><title>Node16&#45;&gt;Node18</title>
<path fill="none" stroke="midnightblue" d="M342.521,-168.324C333.799,-160.341 320.657,-148.313 310.102,-138.653"/>
<polygon fill="midnightblue" stroke="midnightblue" points="312.392,-136.004 302.652,-131.834 307.666,-141.167 312.392,-136.004"/>
</g>
<!-- Node19 -->
<g id="node19" class="node"><title>Node19</title>
<polygon fill="none" stroke="#bfbfbf" points="75.5,-56.5 75.5,-75.5 122.5,-75.5 122.5,-56.5 75.5,-56.5"/>
<text text-anchor="middle" x="99" y="-63.5" font-family="Helvetica,sans-Serif" font-size="10.00">vector</text>
</g>
<!-- Node16&#45;&gt;Node19 -->
<g id="edge20" class="edge"><title>Node16&#45;&gt;Node19</title>
<path fill="none" stroke="midnightblue" d="M276.749,-171.621C237.533,-166.049 190.143,-154.772 153,-132 133.916,-120.3 118.399,-99.4571 108.975,-84.5257"/>
<polygon fill="midnightblue" stroke="midnightblue" points="111.836,-82.4922 103.686,-75.7228 105.836,-86.0973 111.836,-82.4922"/>
</g>
<!-- Node20 -->
<g id="node20" class="node"><title>Node20</title>
<g id="a_node20"><a xlink:href="Sprite_8hxx.html" target="_top" xlink:title="../Sprite.hxx">
<polygon fill="none" stroke="black" points="170,-112.5 170,-131.5 244,-131.5 244,-112.5 170,-112.5"/>
<text text-anchor="middle" x="207" y="-119.5" font-family="Helvetica,sans-Serif" font-size="10.00">../Sprite.hxx</text>
</a>
</g>
</g>
<!-- Node16&#45;&gt;Node20 -->
<g id="edge21" class="edge"><title>Node16&#45;&gt;Node20</title>
<path fill="none" stroke="midnightblue" d="M329.024,-168.444C304.843,-159.438 266.582,-145.189 239.354,-135.049"/>
<polygon fill="midnightblue" stroke="midnightblue" points="240.461,-131.727 229.868,-131.516 238.018,-138.286 240.461,-131.727"/>
</g>
<!-- Node21 -->
<g id="node21" class="node"><title>Node21</title>
<g id="a_node21"><a xlink:href="enums_8hxx.html" target="_top" xlink:title="common/enums.hxx">
<polygon fill="none" stroke="black" points="140.5,-56.5 140.5,-75.5 255.5,-75.5 255.5,-56.5 140.5,-56.5"/>
<text text-anchor="middle" x="198" y="-63.5" font-family="Helvetica,sans-Serif" font-size="10.00">common/enums.hxx</text>
</a>
</g>
</g>
<!-- Node16&#45;&gt;Node21 -->
<g id="edge27" class="edge"><title>Node16&#45;&gt;Node21</title>
<path fill="none" stroke="midnightblue" d="M276.969,-168.878C229.954,-162.066 175.592,-150.429 161,-132 148.622,-116.367 164.408,-96.1005 179.022,-82.3844"/>
<polygon fill="midnightblue" stroke="midnightblue" points="181.64,-84.7431 186.835,-75.5093 177.016,-79.4881 181.64,-84.7431"/>
</g>
<!-- Node23 -->
<g id="node23" class="node"><title>Node23</title>
<g id="a_node23"><a xlink:href="TileManager_8hxx.html" target="_top" xlink:title="../TileManager.hxx">
<polygon fill="none" stroke="black" points="570,-112.5 570,-131.5 672,-131.5 672,-112.5 570,-112.5"/>
<text text-anchor="middle" x="621" y="-119.5" font-family="Helvetica,sans-Serif" font-size="10.00">../TileManager.hxx</text>
</a>
</g>
</g>
<!-- Node16&#45;&gt;Node23 -->
<g id="edge29" class="edge"><title>Node16&#45;&gt;Node23</title>
<path fill="none" stroke="midnightblue" d="M394.624,-168.444C441.747,-158.984 517.692,-143.738 568.459,-133.547"/>
<polygon fill="midnightblue" stroke="midnightblue" points="569.46,-136.916 578.576,-131.516 568.082,-130.053 569.46,-136.916"/>
</g>
<!-- Node20&#45;&gt;Node11 -->
<g id="edge22" class="edge"><title>Node20&#45;&gt;Node11</title>
<path fill="none" stroke="midnightblue" d="M233.462,-112.444C262.84,-102.944 310.263,-87.6095 341.78,-77.4183"/>
<polygon fill="midnightblue" stroke="midnightblue" points="342.973,-80.7112 351.411,-74.3042 340.819,-74.0507 342.973,-80.7112"/>
</g>
<!-- Node20&#45;&gt;Node15 -->
<g id="edge24" class="edge"><title>Node20&#45;&gt;Node15</title>
<path fill="none" stroke="midnightblue" d="M222.424,-112.324C237.54,-103.822 260.815,-90.7288 278.471,-80.7975"/>
<polygon fill="midnightblue" stroke="midnightblue" points="280.614,-83.6077 287.614,-75.6545 277.183,-77.5066 280.614,-83.6077"/>
</g>
<!-- Node20&#45;&gt;Node19 -->
<g id="edge23" class="edge"><title>Node20&#45;&gt;Node19</title>
<path fill="none" stroke="midnightblue" d="M189.648,-112.324C172.328,-103.664 145.485,-90.2424 125.498,-80.249"/>
<polygon fill="midnightblue" stroke="midnightblue" points="126.819,-76.9962 116.309,-75.6545 123.688,-83.2572 126.819,-76.9962"/>
</g>
<!-- Node20&#45;&gt;Node21 -->
<g id="edge25" class="edge"><title>Node20&#45;&gt;Node21</title>
<path fill="none" stroke="midnightblue" d="M205.514,-112.083C204.321,-104.927 202.606,-94.6353 201.115,-85.6911"/>
<polygon fill="midnightblue" stroke="midnightblue" points="204.555,-85.0396 199.459,-75.7511 197.65,-86.1904 204.555,-85.0396"/>
</g>
<!-- Node22 -->
<g id="node22" class="node"><title>Node22</title>
<polygon fill="none" stroke="#bfbfbf" points="170.5,-0.5 170.5,-19.5 225.5,-19.5 225.5,-0.5 170.5,-0.5"/>
<text text-anchor="middle" x="198" y="-7.5" font-family="Helvetica,sans-Serif" font-size="10.00">stddef.h</text>
</g>
<!-- Node21&#45;&gt;Node22 -->
<g id="edge26" class="edge"><title>Node21&#45;&gt;Node22</title>
<path fill="none" stroke="midnightblue" d="M198,-56.083C198,-49.0059 198,-38.8611 198,-29.9865"/>
<polygon fill="midnightblue" stroke="midnightblue" points="201.5,-29.751 198,-19.7511 194.5,-29.7511 201.5,-29.751"/>
</g>
<!-- Node23&#45;&gt;Node3 -->
<g id="edge32" class="edge"><title>Node23&#45;&gt;Node3</title>
<path fill="none" stroke="midnightblue" d="M575.532,-112.43C525.847,-102.607 452.174,-86.5127 444,-76 438.544,-68.9828 438.21,-62.7441 444,-56 477.445,-17.0459 636.336,-11.4571 705.598,-10.9029"/>
<polygon fill="midnightblue" stroke="midnightblue" points="705.928,-14.4014 715.911,-10.8528 705.894,-7.40147 705.928,-14.4014"/>
</g>
<!-- Node23&#45;&gt;Node4 -->
<g id="edge36" class="edge"><title>Node23&#45;&gt;Node4</title>
<path fill="none" stroke="midnightblue" d="M647.62,-112.444C676.006,-103.32 721.137,-88.8133 752.753,-78.6509"/>
<polygon fill="midnightblue" stroke="midnightblue" points="754.055,-81.9087 762.504,-75.5164 751.913,-75.2445 754.055,-81.9087"/>
</g>
<!-- Node23&#45;&gt;Node11 -->
<g id="edge30" class="edge"><title>Node23&#45;&gt;Node11</title>
<path fill="none" stroke="midnightblue" d="M579.486,-112.456C537.07,-103.643 469.338,-89.3429 411,-76 409.55,-75.6684 408.069,-75.3255 406.574,-74.9759"/>
<polygon fill="midnightblue" stroke="midnightblue" points="407.214,-71.5305 396.675,-72.62 405.593,-78.3403 407.214,-71.5305"/>
</g>
<!-- Node23&#45;&gt;Node14 -->
<g id="edge35" class="edge"><title>Node23&#45;&gt;Node14</title>
<path fill="none" stroke="midnightblue" d="M631.283,-112.324C640.836,-104.263 655.28,-92.0765 666.784,-82.3695"/>
<polygon fill="midnightblue" stroke="midnightblue" points="669.144,-84.9577 674.53,-75.8339 664.63,-79.6076 669.144,-84.9577"/>
</g>
<!-- Node24 -->
<g id="node24" class="node"><title>Node24</title>
<polygon fill="none" stroke="#bfbfbf" points="453.5,-56.5 453.5,-75.5 546.5,-75.5 546.5,-56.5 453.5,-56.5"/>
<text text-anchor="middle" x="500" y="-63.5" font-family="Helvetica,sans-Serif" font-size="10.00">unordered_map</text>
</g>
<!-- Node23&#45;&gt;Node24 -->
<g id="edge31" class="edge"><title>Node23&#45;&gt;Node24</title>
<path fill="none" stroke="midnightblue" d="M601.827,-112.444C582.091,-103.636 551.115,-89.8116 528.507,-79.722"/>
<polygon fill="midnightblue" stroke="midnightblue" points="529.641,-76.3957 519.083,-75.5164 526.789,-82.788 529.641,-76.3957"/>
</g>
<!-- Node25 -->
<g id="node25" class="node"><title>Node25</title>
<g id="a_node25"><a xlink:href="tileData_8hxx.html" target="_top" xlink:title="tileData.hxx">
<polygon fill="none" stroke="black" points="565,-56.5 565,-75.5 639,-75.5 639,-56.5 565,-56.5"/>
<text text-anchor="middle" x="602" y="-63.5" font-family="Helvetica,sans-Serif" font-size="10.00">tileData.hxx</text>
</a>
</g>
</g>
<!-- Node23&#45;&gt;Node25 -->
<g id="edge33" class="edge"><title>Node23&#45;&gt;Node25</title>
<path fill="none" stroke="midnightblue" d="M617.863,-112.083C615.317,-104.849 611.644,-94.4087 608.473,-85.3968"/>
<polygon fill="midnightblue" stroke="midnightblue" points="611.7,-84.0225 605.079,-75.7511 605.097,-86.3459 611.7,-84.0225"/>
</g>
<!-- Node25&#45;&gt;Node3 -->
<g id="edge34" class="edge"><title>Node25&#45;&gt;Node3</title>
<path fill="none" stroke="midnightblue" d="M623.55,-56.4435C646.031,-47.5171 681.488,-33.4387 706.98,-23.3168"/>
<polygon fill="midnightblue" stroke="midnightblue" points="708.549,-26.4598 716.551,-19.5164 705.965,-19.9539 708.549,-26.4598"/>
</g>
<!-- Node26&#45;&gt;Node16 -->
<g id="edge38" class="edge"><title>Node26&#45;&gt;Node16</title>
<path fill="none" stroke="midnightblue" d="M231.659,-224.444C255.402,-215.478 292.909,-201.314 319.738,-191.183"/>
<polygon fill="midnightblue" stroke="midnightblue" points="321.329,-194.324 329.447,-187.516 318.856,-187.775 321.329,-194.324"/>
</g>
<!-- Node26&#45;&gt;Node19 -->
<g id="edge40" class="edge"><title>Node26&#45;&gt;Node19</title>
<path fill="none" stroke="midnightblue" d="M200.647,-224.436C184.717,-207.76 149.574,-169.291 127,-132 117.963,-117.071 110.334,-98.6993 105.334,-85.3007"/>
<polygon fill="midnightblue" stroke="midnightblue" points="108.588,-84.0073 101.91,-75.7822 102.001,-86.3767 108.588,-84.0073"/>
</g>
<!-- Node27 -->
<g id="node27" class="node"><title>Node27</title>
<polygon fill="none" stroke="#bfbfbf" points="0,-168.5 0,-187.5 38,-187.5 38,-168.5 0,-168.5"/>
<text text-anchor="middle" x="19" y="-175.5" font-family="Helvetica,sans-Serif" font-size="10.00">map</text>
</g>
<!-- Node26&#45;&gt;Node27 -->
<g id="edge39" class="edge"><title>Node26&#45;&gt;Node27</title>
<path fill="none" stroke="midnightblue" d="M178.894,-224.444C142.989,-214.239 83.3959,-197.302 47.9907,-187.239"/>
<polygon fill="midnightblue" stroke="midnightblue" points="48.8349,-183.841 38.259,-184.474 46.9212,-190.574 48.8349,-183.841"/>
</g>
</g>
</svg>
