<?xml version="1.0" encoding="UTF-8" standalone="no"?>
<!DOCTYPE svg PUBLIC "-//W3C//DTD SVG 1.1//EN"
 "http://www.w3.org/Graphics/SVG/1.1/DTD/svg11.dtd">
<!-- Generated by graphviz version 2.38.0 (20140413.2041)
 -->
<!-- Title: src/engine/basics/signal.hxx Pages: 1 -->
<svg width="341pt" height="84pt"
 viewBox="0.00 0.00 340.50 84.00" xmlns="http://www.w3.org/2000/svg" xmlns:xlink="http://www.w3.org/1999/xlink">
<g id="graph0" class="graph" transform="scale(1 1) rotate(0) translate(4 80)">
<title>src/engine/basics/signal.hxx</title>
<!-- Node1 -->
<g id="node1" class="node"><title>Node1</title>
<polygon fill="#bfbfbf" stroke="black" points="97,-56.5 97,-75.5 246,-75.5 246,-56.5 97,-56.5"/>
<text text-anchor="middle" x="171.5" y="-63.5" font-family="Helvetica,sans-Serif" font-size="10.00">src/engine/basics/signal.hxx</text>
</g>
<!-- Node2 -->
<g id="node2" class="node"><title>Node2</title>
<polygon fill="none" stroke="#bfbfbf" points="0,-0.5 0,-19.5 57,-19.5 57,-0.5 0,-0.5"/>
<text text-anchor="middle" x="28.5" y="-7.5" font-family="Helvetica,sans-Serif" font-size="10.00">memory</text>
</g>
<!-- Node1&#45;&gt;Node2 -->
<g id="edge1" class="edge"><title>Node1&#45;&gt;Node2</title>
<path fill="none" stroke="midnightblue" d="M148.841,-56.4435C125.098,-47.4776 87.5909,-33.314 60.7616,-23.1827"/>
<polygon fill="midnightblue" stroke="midnightblue" points="61.6445,-19.7749 51.0528,-19.5164 59.1715,-26.3235 61.6445,-19.7749"/>
</g>
<!-- Node3 -->
<g id="node3" class="node"><title>Node3</title>
<polygon fill="none" stroke="#bfbfbf" points="75,-0.5 75,-19.5 138,-19.5 138,-0.5 75,-0.5"/>
<text text-anchor="middle" x="106.5" y="-7.5" font-family="Helvetica,sans-Serif" font-size="10.00">functional</text>
</g>
<!-- Node1&#45;&gt;Node3 -->
<g id="edge2" class="edge"><title>Node1&#45;&gt;Node3</title>
<path fill="none" stroke="midnightblue" d="M161.057,-56.324C151.354,-48.2631 136.685,-36.0765 125,-26.3695"/>
<polygon fill="midnightblue" stroke="midnightblue" points="127.062,-23.532 117.133,-19.8339 122.589,-28.9163 127.062,-23.532"/>
</g>
<!-- Node4 -->
<g id="node4" class="node"><title>Node4</title>
<polygon fill="none" stroke="#bfbfbf" points="156.5,-0.5 156.5,-19.5 186.5,-19.5 186.5,-0.5 156.5,-0.5"/>
<text text-anchor="middle" x="171.5" y="-7.5" font-family="Helvetica,sans-Serif" font-size="10.00">list</text>
</g>
<!-- Node1&#45;&gt;Node4 -->
<g id="edge3" class="edge"><title>Node1&#45;&gt;Node4</title>
<path fill="none" stroke="midnightblue" d="M171.5,-56.083C171.5,-49.0059 171.5,-38.8611 171.5,-29.9865"/>
<polygon fill="midnightblue" stroke="midnightblue" points="175,-29.751 171.5,-19.7511 168,-29.7511 175,-29.751"/>
</g>
<!-- Node5 -->
<g id="node5" class="node"><title>Node5</title>
<polygon fill="none" stroke="#bfbfbf" points="205,-0.5 205,-19.5 252,-19.5 252,-0.5 205,-0.5"/>
<text text-anchor="middle" x="228.5" y="-7.5" font-family="Helvetica,sans-Serif" font-size="10.00">vector</text>
</g>
<!-- Node1&#45;&gt;Node5 -->
<g id="edge4" class="edge"><title>Node1&#45;&gt;Node5</title>
<path fill="none" stroke="midnightblue" d="M180.658,-56.324C189.001,-48.4196 201.532,-36.5482 211.677,-26.9377"/>
<polygon fill="midnightblue" stroke="midnightblue" points="214.323,-29.2522 219.175,-19.8339 209.509,-24.1705 214.323,-29.2522"/>
</g>
<!-- Node6 -->
<g id="node6" class="node"><title>Node6</title>
<polygon fill="none" stroke="#bfbfbf" points="270.5,-0.5 270.5,-19.5 332.5,-19.5 332.5,-0.5 270.5,-0.5"/>
<text text-anchor="middle" x="301.5" y="-7.5" font-family="Helvetica,sans-Serif" font-size="10.00">algorithm</text>
</g>
<!-- Node1&#45;&gt;Node6 -->
<g id="edge5" class="edge"><title>Node1&#45;&gt;Node6</title>
<path fill="none" stroke="midnightblue" d="M192.099,-56.4435C213.493,-47.5566 247.181,-33.5632 271.524,-23.4514"/>
<polygon fill="midnightblue" stroke="midnightblue" points="273.105,-26.5848 280.997,-19.5164 270.42,-20.1203 273.105,-26.5848"/>
</g>
</g>
</svg>
