<?xml version="1.0" encoding="UTF-8" standalone="no"?>
<!DOCTYPE svg PUBLIC "-//W3C//DTD SVG 1.1//EN"
 "http://www.w3.org/Graphics/SVG/1.1/DTD/svg11.dtd">
<!-- Generated by graphviz version 2.38.0 (20140413.2041)
 -->
<!-- Title: src/engine/audio/SoundEffect.hxx Pages: 1 -->
<svg width="342pt" height="140pt"
 viewBox="0.00 0.00 341.50 140.00" xmlns="http://www.w3.org/2000/svg" xmlns:xlink="http://www.w3.org/1999/xlink">
<g id="graph0" class="graph" transform="scale(1 1) rotate(0) translate(4 136)">
<title>src/engine/audio/SoundEffect.hxx</title>
<!-- Node1 -->
<g id="node1" class="node"><title>Node1</title>
<polygon fill="#bfbfbf" stroke="black" points="87.5,-112.5 87.5,-131.5 263.5,-131.5 263.5,-112.5 87.5,-112.5"/>
<text text-anchor="middle" x="175.5" y="-119.5" font-family="Helvetica,sans-Serif" font-size="10.00">src/engine/audio/SoundEffect.hxx</text>
</g>
<!-- Node2 -->
<g id="node2" class="node"><title>Node2</title>
<g id="a_node2"><a xlink:href="SoundEffect_8cxx.html" target="_top" xlink:title="src/engine/audio/SoundEffect.cxx">
<polygon fill="none" stroke="black" points="0,-56.5 0,-75.5 175,-75.5 175,-56.5 0,-56.5"/>
<text text-anchor="middle" x="87.5" y="-63.5" font-family="Helvetica,sans-Serif" font-size="10.00">src/engine/audio/SoundEffect.cxx</text>
</a>
</g>
</g>
<!-- Node1&#45;&gt;Node2 -->
<g id="edge1" class="edge"><title>Node1&#45;&gt;Node2</title>
<path fill="none" stroke="midnightblue" d="M152.523,-106.901C136.387,-96.9986 115.319,-84.0705 101.604,-75.6545"/>
<polygon fill="midnightblue" stroke="midnightblue" points="151.007,-110.077 161.361,-112.324 154.669,-104.111 151.007,-110.077"/>
</g>
<!-- Node3 -->
<g id="node3" class="node"><title>Node3</title>
<g id="a_node3"><a xlink:href="AudioMixer_8hxx.html" target="_top" xlink:title="src/engine/AudioMixer.hxx">
<polygon fill="none" stroke="black" points="193.5,-56.5 193.5,-75.5 333.5,-75.5 333.5,-56.5 193.5,-56.5"/>
<text text-anchor="middle" x="263.5" y="-63.5" font-family="Helvetica,sans-Serif" font-size="10.00">src/engine/AudioMixer.hxx</text>
</a>
</g>
</g>
<!-- Node1&#45;&gt;Node3 -->
<g id="edge2" class="edge"><title>Node1&#45;&gt;Node3</title>
<path fill="none" stroke="midnightblue" d="M198.477,-106.901C214.613,-96.9986 235.681,-84.0705 249.396,-75.6545"/>
<polygon fill="midnightblue" stroke="midnightblue" points="196.331,-104.111 189.639,-112.324 199.993,-110.077 196.331,-104.111"/>
</g>
<!-- Node4 -->
<g id="node4" class="node"><title>Node4</title>
<g id="a_node4"><a xlink:href="AudioMixer_8cxx.html" target="_top" xlink:title="src/engine/AudioMixer.cxx">
<polygon fill="none" stroke="black" points="193.5,-0.5 193.5,-19.5 333.5,-19.5 333.5,-0.5 193.5,-0.5"/>
<text text-anchor="middle" x="263.5" y="-7.5" font-family="Helvetica,sans-Serif" font-size="10.00">src/engine/AudioMixer.cxx</text>
</a>
</g>
</g>
<!-- Node3&#45;&gt;Node4 -->
<g id="edge3" class="edge"><title>Node3&#45;&gt;Node4</title>
<path fill="none" stroke="midnightblue" d="M263.5,-45.8045C263.5,-36.9102 263.5,-26.7798 263.5,-19.7511"/>
<polygon fill="midnightblue" stroke="midnightblue" points="260,-46.083 263.5,-56.083 267,-46.083 260,-46.083"/>
</g>
</g>
</svg>
