<?xml version="1.0" encoding="UTF-8" standalone="no"?>
<!DOCTYPE svg PUBLIC "-//W3C//DTD SVG 1.1//EN"
 "http://www.w3.org/Graphics/SVG/1.1/DTD/svg11.dtd">
<!-- Generated by graphviz version 2.38.0 (20140413.2041)
 -->
<!-- Title: src/engine/audio/SoundEffect.cxx Pages: 1 -->
<svg width="698pt" height="140pt"
 viewBox="0.00 0.00 698.00 140.00" xmlns="http://www.w3.org/2000/svg" xmlns:xlink="http://www.w3.org/1999/xlink">
<g id="graph0" class="graph" transform="scale(1 1) rotate(0) translate(4 136)">
<title>src/engine/audio/SoundEffect.cxx</title>
<!-- Node1 -->
<g id="node1" class="node"><title>Node1</title>
<polygon fill="#bfbfbf" stroke="black" points="169.5,-112.5 169.5,-131.5 344.5,-131.5 344.5,-112.5 169.5,-112.5"/>
<text text-anchor="middle" x="257" y="-119.5" font-family="Helvetica,sans-Serif" font-size="10.00">src/engine/audio/SoundEffect.cxx</text>
</g>
<!-- Node2 -->
<g id="node2" class="node"><title>Node2</title>
<g id="a_node2"><a xlink:href="SoundEffect_8hxx.html" target="_top" xlink:title="SoundEffect.hxx">
<polygon fill="none" stroke="black" points="210,-56.5 210,-75.5 304,-75.5 304,-56.5 210,-56.5"/>
<text text-anchor="middle" x="257" y="-63.5" font-family="Helvetica,sans-Serif" font-size="10.00">SoundEffect.hxx</text>
</a>
</g>
</g>
<!-- Node1&#45;&gt;Node2 -->
<g id="edge1" class="edge"><title>Node1&#45;&gt;Node2</title>
<path fill="none" stroke="midnightblue" d="M257,-112.083C257,-105.006 257,-94.8611 257,-85.9865"/>
<polygon fill="midnightblue" stroke="midnightblue" points="260.5,-85.751 257,-75.7511 253.5,-85.7511 260.5,-85.751"/>
</g>
<!-- Node6 -->
<g id="node6" class="node"><title>Node6</title>
<g id="a_node6"><a xlink:href="LOG_8hxx.html" target="_top" xlink:title="../basics/LOG.hxx">
<polygon fill="none" stroke="black" points="408,-56.5 408,-75.5 506,-75.5 506,-56.5 408,-56.5"/>
<text text-anchor="middle" x="457" y="-63.5" font-family="Helvetica,sans-Serif" font-size="10.00">../basics/LOG.hxx</text>
</a>
</g>
</g>
<!-- Node1&#45;&gt;Node6 -->
<g id="edge5" class="edge"><title>Node1&#45;&gt;Node6</title>
<path fill="none" stroke="midnightblue" d="M288.691,-112.444C323.068,-103.162 378.077,-88.3093 415.789,-78.127"/>
<polygon fill="midnightblue" stroke="midnightblue" points="416.716,-81.5022 425.458,-75.5164 414.891,-74.7442 416.716,-81.5022"/>
</g>
<!-- Node12 -->
<g id="node12" class="node"><title>Node12</title>
<g id="a_node12"><a xlink:href="Settings_8hxx.html" target="_top" xlink:title="../basics/Settings.hxx">
<polygon fill="none" stroke="black" points="74,-56.5 74,-75.5 192,-75.5 192,-56.5 74,-56.5"/>
<text text-anchor="middle" x="133" y="-63.5" font-family="Helvetica,sans-Serif" font-size="10.00">../basics/Settings.hxx</text>
</a>
</g>
</g>
<!-- Node1&#45;&gt;Node12 -->
<g id="edge12" class="edge"><title>Node1&#45;&gt;Node12</title>
<path fill="none" stroke="midnightblue" d="M237.352,-112.444C217.035,-103.596 185.097,-89.6875 161.902,-79.5865"/>
<polygon fill="midnightblue" stroke="midnightblue" points="163.122,-76.3002 152.556,-75.5164 160.327,-82.7181 163.122,-76.3002"/>
</g>
<!-- Node3 -->
<g id="node3" class="node"><title>Node3</title>
<polygon fill="none" stroke="#bfbfbf" points="134,-0.5 134,-19.5 178,-19.5 178,-0.5 134,-0.5"/>
<text text-anchor="middle" x="156" y="-7.5" font-family="Helvetica,sans-Serif" font-size="10.00">string</text>
</g>
<!-- Node2&#45;&gt;Node3 -->
<g id="edge2" class="edge"><title>Node2&#45;&gt;Node3</title>
<path fill="none" stroke="midnightblue" d="M240.773,-56.324C224.649,-47.7034 199.7,-34.3643 181.036,-24.3855"/>
<polygon fill="midnightblue" stroke="midnightblue" points="182.656,-21.283 172.187,-19.6545 179.356,-27.456 182.656,-21.283"/>
</g>
<!-- Node4 -->
<g id="node4" class="node"><title>Node4</title>
<polygon fill="none" stroke="#bfbfbf" points="291.5,-0.5 291.5,-19.5 336.5,-19.5 336.5,-0.5 291.5,-0.5"/>
<text text-anchor="middle" x="314" y="-7.5" font-family="Helvetica,sans-Serif" font-size="10.00">SDL.h</text>
</g>
<!-- Node2&#45;&gt;Node4 -->
<g id="edge3" class="edge"><title>Node2&#45;&gt;Node4</title>
<path fill="none" stroke="midnightblue" d="M266.158,-56.324C274.501,-48.4196 287.032,-36.5482 297.177,-26.9377"/>
<polygon fill="midnightblue" stroke="midnightblue" points="299.823,-29.2522 304.675,-19.8339 295.009,-24.1705 299.823,-29.2522"/>
</g>
<!-- Node5 -->
<g id="node5" class="node"><title>Node5</title>
<polygon fill="none" stroke="#bfbfbf" points="196.5,-0.5 196.5,-19.5 273.5,-19.5 273.5,-0.5 196.5,-0.5"/>
<text text-anchor="middle" x="235" y="-7.5" font-family="Helvetica,sans-Serif" font-size="10.00">SDL_mixer.h</text>
</g>
<!-- Node2&#45;&gt;Node5 -->
<g id="edge4" class="edge"><title>Node2&#45;&gt;Node5</title>
<path fill="none" stroke="midnightblue" d="M253.367,-56.083C250.388,-48.77 246.074,-38.1814 242.375,-29.1034"/>
<polygon fill="midnightblue" stroke="midnightblue" points="245.58,-27.6914 238.565,-19.7511 239.097,-30.3326 245.58,-27.6914"/>
</g>
<!-- Node6&#45;&gt;Node4 -->
<g id="edge11" class="edge"><title>Node6&#45;&gt;Node4</title>
<path fill="none" stroke="midnightblue" d="M434.341,-56.4435C410.598,-47.4776 373.091,-33.314 346.262,-23.1827"/>
<polygon fill="midnightblue" stroke="midnightblue" points="347.144,-19.7749 336.553,-19.5164 344.671,-26.3235 347.144,-19.7749"/>
</g>
<!-- Node7 -->
<g id="node7" class="node"><title>Node7</title>
<polygon fill="none" stroke="#bfbfbf" points="354.5,-0.5 354.5,-19.5 413.5,-19.5 413.5,-0.5 354.5,-0.5"/>
<text text-anchor="middle" x="384" y="-7.5" font-family="Helvetica,sans-Serif" font-size="10.00">iostream</text>
</g>
<!-- Node6&#45;&gt;Node7 -->
<g id="edge6" class="edge"><title>Node6&#45;&gt;Node7</title>
<path fill="none" stroke="midnightblue" d="M445.271,-56.324C434.163,-48.1066 417.258,-35.6017 404.017,-25.8069"/>
<polygon fill="midnightblue" stroke="midnightblue" points="406.063,-22.9671 395.942,-19.8339 401.9,-28.5948 406.063,-22.9671"/>
</g>
<!-- Node8 -->
<g id="node8" class="node"><title>Node8</title>
<polygon fill="none" stroke="#bfbfbf" points="432,-0.5 432,-19.5 482,-19.5 482,-0.5 432,-0.5"/>
<text text-anchor="middle" x="457" y="-7.5" font-family="Helvetica,sans-Serif" font-size="10.00">chrono</text>
</g>
<!-- Node6&#45;&gt;Node8 -->
<g id="edge7" class="edge"><title>Node6&#45;&gt;Node8</title>
<path fill="none" stroke="midnightblue" d="M457,-56.083C457,-49.0059 457,-38.8611 457,-29.9865"/>
<polygon fill="midnightblue" stroke="midnightblue" points="460.5,-29.751 457,-19.7511 453.5,-29.7511 460.5,-29.751"/>
</g>
<!-- Node9 -->
<g id="node9" class="node"><title>Node9</title>
<polygon fill="none" stroke="#bfbfbf" points="500,-0.5 500,-19.5 544,-19.5 544,-0.5 500,-0.5"/>
<text text-anchor="middle" x="522" y="-7.5" font-family="Helvetica,sans-Serif" font-size="10.00">ctime</text>
</g>
<!-- Node6&#45;&gt;Node9 -->
<g id="edge8" class="edge"><title>Node6&#45;&gt;Node9</title>
<path fill="none" stroke="midnightblue" d="M467.443,-56.324C477.146,-48.2631 491.815,-36.0765 503.5,-26.3695"/>
<polygon fill="midnightblue" stroke="midnightblue" points="505.911,-28.9163 511.367,-19.8339 501.438,-23.532 505.911,-28.9163"/>
</g>
<!-- Node10 -->
<g id="node10" class="node"><title>Node10</title>
<polygon fill="none" stroke="#bfbfbf" points="562,-0.5 562,-19.5 616,-19.5 616,-0.5 562,-0.5"/>
<text text-anchor="middle" x="589" y="-7.5" font-family="Helvetica,sans-Serif" font-size="10.00">fstream</text>
</g>
<!-- Node6&#45;&gt;Node10 -->
<g id="edge9" class="edge"><title>Node6&#45;&gt;Node10</title>
<path fill="none" stroke="midnightblue" d="M477.916,-56.4435C499.736,-47.5171 534.15,-33.4387 558.892,-23.3168"/>
<polygon fill="midnightblue" stroke="midnightblue" points="560.252,-26.5422 568.182,-19.5164 557.601,-20.0634 560.252,-26.5422"/>
</g>
<!-- Node11 -->
<g id="node11" class="node"><title>Node11</title>
<polygon fill="none" stroke="#bfbfbf" points="634,-0.5 634,-19.5 690,-19.5 690,-0.5 634,-0.5"/>
<text text-anchor="middle" x="662" y="-7.5" font-family="Helvetica,sans-Serif" font-size="10.00">sstream</text>
</g>
<!-- Node6&#45;&gt;Node11 -->
<g id="edge10" class="edge"><title>Node6&#45;&gt;Node11</title>
<path fill="none" stroke="midnightblue" d="M489.483,-56.4435C526.067,-46.8067 585.446,-31.1653 624.113,-20.98"/>
<polygon fill="midnightblue" stroke="midnightblue" points="625.173,-24.3203 633.951,-18.3884 623.39,-17.5512 625.173,-24.3203"/>
</g>
<!-- Node12&#45;&gt;Node3 -->
<g id="edge13" class="edge"><title>Node12&#45;&gt;Node3</title>
<path fill="none" stroke="midnightblue" d="M136.798,-56.083C139.913,-48.77 144.423,-38.1814 148.289,-29.1034"/>
<polygon fill="midnightblue" stroke="midnightblue" points="151.574,-30.3229 152.273,-19.7511 145.134,-27.5798 151.574,-30.3229"/>
</g>
<!-- Node13 -->
<g id="node13" class="node"><title>Node13</title>
<g id="a_node13"><a xlink:href="Singleton_8hxx.html" target="_top" xlink:title="../../util/Singleton.hxx">
<polygon fill="none" stroke="black" points="0,-0.5 0,-19.5 116,-19.5 116,-0.5 0,-0.5"/>
<text text-anchor="middle" x="58" y="-7.5" font-family="Helvetica,sans-Serif" font-size="10.00">../../util/Singleton.hxx</text>
</a>
</g>
</g>
<!-- Node12&#45;&gt;Node13 -->
<g id="edge14" class="edge"><title>Node12&#45;&gt;Node13</title>
<path fill="none" stroke="midnightblue" d="M120.95,-56.324C109.537,-48.1066 92.169,-35.6017 78.5651,-25.8069"/>
<polygon fill="midnightblue" stroke="midnightblue" points="80.4297,-22.8366 70.2693,-19.8339 76.3396,-28.5174 80.4297,-22.8366"/>
</g>
</g>
</svg>
