<?xml version="1.0" encoding="UTF-8" standalone="no"?>
<!DOCTYPE svg PUBLIC "-//W3C//DTD SVG 1.1//EN"
 "http://www.w3.org/Graphics/SVG/1.1/DTD/svg11.dtd">
<!-- Generated by graphviz version 2.38.0 (20140413.2041)
 -->
<!-- Title: src/engine/audio/SoundEffect.hxx Pages: 1 -->
<svg width="214pt" height="84pt"
 viewBox="0.00 0.00 213.50 84.00" xmlns="http://www.w3.org/2000/svg" xmlns:xlink="http://www.w3.org/1999/xlink">
<g id="graph0" class="graph" transform="scale(1 1) rotate(0) translate(4 80)">
<title>src/engine/audio/SoundEffect.hxx</title>
<!-- Node1 -->
<g id="node1" class="node"><title>Node1</title>
<polygon fill="#bfbfbf" stroke="black" points="-1.42109e-14,-56.5 -1.42109e-14,-75.5 176,-75.5 176,-56.5 -1.42109e-14,-56.5"/>
<text text-anchor="middle" x="88" y="-63.5" font-family="Helvetica,sans-Serif" font-size="10.00">src/engine/audio/SoundEffect.hxx</text>
</g>
<!-- Node2 -->
<g id="node2" class="node"><title>Node2</title>
<polygon fill="none" stroke="#bfbfbf" points="3,-0.5 3,-19.5 47,-19.5 47,-0.5 3,-0.5"/>
<text text-anchor="middle" x="25" y="-7.5" font-family="Helvetica,sans-Serif" font-size="10.00">string</text>
</g>
<!-- Node1&#45;&gt;Node2 -->
<g id="edge1" class="edge"><title>Node1&#45;&gt;Node2</title>
<path fill="none" stroke="midnightblue" d="M77.878,-56.324C68.4736,-48.2631 54.2559,-36.0765 42.931,-26.3695"/>
<polygon fill="midnightblue" stroke="midnightblue" points="45.1766,-23.6844 35.3062,-19.8339 40.621,-28.9993 45.1766,-23.6844"/>
</g>
<!-- Node3 -->
<g id="node3" class="node"><title>Node3</title>
<polygon fill="none" stroke="#bfbfbf" points="65.5,-0.5 65.5,-19.5 110.5,-19.5 110.5,-0.5 65.5,-0.5"/>
<text text-anchor="middle" x="88" y="-7.5" font-family="Helvetica,sans-Serif" font-size="10.00">SDL.h</text>
</g>
<!-- Node1&#45;&gt;Node3 -->
<g id="edge2" class="edge"><title>Node1&#45;&gt;Node3</title>
<path fill="none" stroke="midnightblue" d="M88,-56.083C88,-49.0059 88,-38.8611 88,-29.9865"/>
<polygon fill="midnightblue" stroke="midnightblue" points="91.5001,-29.751 88,-19.7511 84.5001,-29.7511 91.5001,-29.751"/>
</g>
<!-- Node4 -->
<g id="node4" class="node"><title>Node4</title>
<polygon fill="none" stroke="#bfbfbf" points="128.5,-0.5 128.5,-19.5 205.5,-19.5 205.5,-0.5 128.5,-0.5"/>
<text text-anchor="middle" x="167" y="-7.5" font-family="Helvetica,sans-Serif" font-size="10.00">SDL_mixer.h</text>
</g>
<!-- Node1&#45;&gt;Node4 -->
<g id="edge3" class="edge"><title>Node1&#45;&gt;Node4</title>
<path fill="none" stroke="midnightblue" d="M100.693,-56.324C112.901,-47.979 131.578,-35.2122 146.003,-25.3524"/>
<polygon fill="midnightblue" stroke="midnightblue" points="148.058,-28.1871 154.339,-19.6545 144.108,-22.4082 148.058,-28.1871"/>
</g>
</g>
</svg>
