<?xml version="1.0" encoding="UTF-8" standalone="no"?>
<!DOCTYPE svg PUBLIC "-//W3C//DTD SVG 1.1//EN"
 "http://www.w3.org/Graphics/SVG/1.1/DTD/svg11.dtd">
<!-- Generated by graphviz version 2.38.0 (20140413.2041)
 -->
<!-- Title: src/engine/Sprite.hxx Pages: 1 -->
<svg width="362pt" height="140pt"
 viewBox="0.00 0.00 362.00 140.00" xmlns="http://www.w3.org/2000/svg" xmlns:xlink="http://www.w3.org/1999/xlink">
<g id="graph0" class="graph" transform="scale(1 1) rotate(0) translate(4 136)">
<title>src/engine/Sprite.hxx</title>
<!-- Node1 -->
<g id="node1" class="node"><title>Node1</title>
<polygon fill="#bfbfbf" stroke="black" points="72,-112.5 72,-131.5 189,-131.5 189,-112.5 72,-112.5"/>
<text text-anchor="middle" x="130.5" y="-119.5" font-family="Helvetica,sans-Serif" font-size="10.00">src/engine/Sprite.hxx</text>
</g>
<!-- Node2 -->
<g id="node2" class="node"><title>Node2</title>
<polygon fill="none" stroke="#bfbfbf" points="0,-56.5 0,-75.5 45,-75.5 45,-56.5 0,-56.5"/>
<text text-anchor="middle" x="22.5" y="-63.5" font-family="Helvetica,sans-Serif" font-size="10.00">SDL.h</text>
</g>
<!-- Node1&#45;&gt;Node2 -->
<g id="edge1" class="edge"><title>Node1&#45;&gt;Node2</title>
<path fill="none" stroke="midnightblue" d="M113.148,-112.324C95.8281,-103.664 68.9847,-90.2424 48.9981,-80.249"/>
<polygon fill="midnightblue" stroke="midnightblue" points="50.3186,-76.9962 39.809,-75.6545 47.188,-83.2572 50.3186,-76.9962"/>
</g>
<!-- Node3 -->
<g id="node3" class="node"><title>Node3</title>
<polygon fill="none" stroke="#bfbfbf" points="63,-56.5 63,-75.5 110,-75.5 110,-56.5 63,-56.5"/>
<text text-anchor="middle" x="86.5" y="-63.5" font-family="Helvetica,sans-Serif" font-size="10.00">vector</text>
</g>
<!-- Node1&#45;&gt;Node3 -->
<g id="edge2" class="edge"><title>Node1&#45;&gt;Node3</title>
<path fill="none" stroke="midnightblue" d="M123.234,-112.083C116.955,-104.377 107.712,-93.0333 100.069,-83.6531"/>
<polygon fill="midnightblue" stroke="midnightblue" points="102.661,-81.2926 93.6305,-75.7511 97.2339,-85.7143 102.661,-81.2926"/>
</g>
<!-- Node4 -->
<g id="node4" class="node"><title>Node4</title>
<g id="a_node4"><a xlink:href="point_8hxx.html" target="_top" xlink:title="basics/point.hxx">
<polygon fill="none" stroke="black" points="128,-56.5 128,-75.5 221,-75.5 221,-56.5 128,-56.5"/>
<text text-anchor="middle" x="174.5" y="-63.5" font-family="Helvetica,sans-Serif" font-size="10.00">basics/point.hxx</text>
</a>
</g>
</g>
<!-- Node1&#45;&gt;Node4 -->
<g id="edge3" class="edge"><title>Node1&#45;&gt;Node4</title>
<path fill="none" stroke="midnightblue" d="M137.766,-112.083C144.045,-104.377 153.288,-93.0333 160.931,-83.6531"/>
<polygon fill="midnightblue" stroke="midnightblue" points="163.766,-85.7143 167.369,-75.7511 158.339,-81.2926 163.766,-85.7143"/>
</g>
<!-- Node5 -->
<g id="node5" class="node"><title>Node5</title>
<g id="a_node5"><a xlink:href="enums_8hxx.html" target="_top" xlink:title="common/enums.hxx">
<polygon fill="none" stroke="black" points="239,-56.5 239,-75.5 354,-75.5 354,-56.5 239,-56.5"/>
<text text-anchor="middle" x="296.5" y="-63.5" font-family="Helvetica,sans-Serif" font-size="10.00">common/enums.hxx</text>
</a>
</g>
</g>
<!-- Node1&#45;&gt;Node5 -->
<g id="edge4" class="edge"><title>Node1&#45;&gt;Node5</title>
<path fill="none" stroke="midnightblue" d="M156.803,-112.444C184.851,-103.32 229.444,-88.8133 260.684,-78.6509"/>
<polygon fill="midnightblue" stroke="midnightblue" points="261.893,-81.9383 270.32,-75.5164 259.728,-75.2816 261.893,-81.9383"/>
</g>
<!-- Node6 -->
<g id="node6" class="node"><title>Node6</title>
<polygon fill="none" stroke="#bfbfbf" points="269,-0.5 269,-19.5 324,-19.5 324,-0.5 269,-0.5"/>
<text text-anchor="middle" x="296.5" y="-7.5" font-family="Helvetica,sans-Serif" font-size="10.00">stddef.h</text>
</g>
<!-- Node5&#45;&gt;Node6 -->
<g id="edge5" class="edge"><title>Node5&#45;&gt;Node6</title>
<path fill="none" stroke="midnightblue" d="M296.5,-56.083C296.5,-49.0059 296.5,-38.8611 296.5,-29.9865"/>
<polygon fill="midnightblue" stroke="midnightblue" points="300,-29.751 296.5,-19.7511 293,-29.7511 300,-29.751"/>
</g>
</g>
</svg>
