<?xml version="1.0" encoding="UTF-8" standalone="no"?>
<!DOCTYPE svg PUBLIC "-//W3C//DTD SVG 1.1//EN"
 "http://www.w3.org/Graphics/SVG/1.1/DTD/svg11.dtd">
<!-- Generated by graphviz version 2.38.0 (20140413.2041)
 -->
<!-- Title: src/engine/Sprite.cxx Pages: 1 -->
<svg width="1371pt" height="252pt"
 viewBox="0.00 0.00 1370.50 252.00" xmlns="http://www.w3.org/2000/svg" xmlns:xlink="http://www.w3.org/1999/xlink">
<g id="graph0" class="graph" transform="scale(1 1) rotate(0) translate(4 248)">
<title>src/engine/Sprite.cxx</title>
<!-- Node1 -->
<g id="node1" class="node"><title>Node1</title>
<polygon fill="#bfbfbf" stroke="black" points="675.5,-224.5 675.5,-243.5 791.5,-243.5 791.5,-224.5 675.5,-224.5"/>
<text text-anchor="middle" x="733.5" y="-231.5" font-family="Helvetica,sans-Serif" font-size="10.00">src/engine/Sprite.cxx</text>
</g>
<!-- Node2 -->
<g id="node2" class="node"><title>Node2</title>
<g id="a_node2"><a xlink:href="Sprite_8hxx.html" target="_top" xlink:title="Sprite.hxx">
<polygon fill="none" stroke="black" points="805,-168.5 805,-187.5 870,-187.5 870,-168.5 805,-168.5"/>
<text text-anchor="middle" x="837.5" y="-175.5" font-family="Helvetica,sans-Serif" font-size="10.00">Sprite.hxx</text>
</a>
</g>
</g>
<!-- Node1&#45;&gt;Node2 -->
<g id="edge1" class="edge"><title>Node1&#45;&gt;Node2</title>
<path fill="none" stroke="midnightblue" d="M750.209,-224.324C766.812,-215.703 792.502,-202.364 811.72,-192.386"/>
<polygon fill="midnightblue" stroke="midnightblue" points="813.57,-195.369 820.832,-187.655 810.344,-189.156 813.57,-195.369"/>
</g>
<!-- Node8 -->
<g id="node8" class="node"><title>Node8</title>
<g id="a_node8"><a xlink:href="ResourcesManager_8hxx.html" target="_top" xlink:title="ResourcesManager.hxx">
<polygon fill="none" stroke="black" points="278.5,-168.5 278.5,-187.5 404.5,-187.5 404.5,-168.5 278.5,-168.5"/>
<text text-anchor="middle" x="341.5" y="-175.5" font-family="Helvetica,sans-Serif" font-size="10.00">ResourcesManager.hxx</text>
</a>
</g>
</g>
<!-- Node1&#45;&gt;Node8 -->
<g id="edge7" class="edge"><title>Node1&#45;&gt;Node8</title>
<path fill="none" stroke="midnightblue" d="M675.237,-224.974C605.572,-215.377 488.965,-199.314 413.663,-188.941"/>
<polygon fill="midnightblue" stroke="midnightblue" points="413.705,-185.414 403.321,-187.516 412.75,-192.348 413.705,-185.414"/>
</g>
<!-- Node16 -->
<g id="node16" class="node"><title>Node16</title>
<g id="a_node16"><a xlink:href="WindowManager_8hxx.html" target="_top" xlink:title="WindowManager.hxx">
<polygon fill="none" stroke="black" points="423,-168.5 423,-187.5 536,-187.5 536,-168.5 423,-168.5"/>
<text text-anchor="middle" x="479.5" y="-175.5" font-family="Helvetica,sans-Serif" font-size="10.00">WindowManager.hxx</text>
</a>
</g>
</g>
<!-- Node1&#45;&gt;Node16 -->
<g id="edge19" class="edge"><title>Node1&#45;&gt;Node16</title>
<path fill="none" stroke="midnightblue" d="M693.253,-224.444C648.85,-215.004 577.347,-199.802 529.412,-189.611"/>
<polygon fill="midnightblue" stroke="midnightblue" points="530.068,-186.173 519.559,-187.516 528.612,-193.02 530.068,-186.173"/>
</g>
<!-- Node17 -->
<g id="node17" class="node"><title>Node17</title>
<g id="a_node17"><a xlink:href="Camera_8hxx.html" target="_top" xlink:title="basics/Camera.hxx">
<polygon fill="none" stroke="black" points="555,-168.5 555,-187.5 662,-187.5 662,-168.5 555,-168.5"/>
<text text-anchor="middle" x="608.5" y="-175.5" font-family="Helvetica,sans-Serif" font-size="10.00">basics/Camera.hxx</text>
</a>
</g>
</g>
<!-- Node1&#45;&gt;Node17 -->
<g id="edge25" class="edge"><title>Node1&#45;&gt;Node17</title>
<path fill="none" stroke="midnightblue" d="M713.693,-224.444C693.213,-215.596 661.017,-201.687 637.635,-191.586"/>
<polygon fill="midnightblue" stroke="midnightblue" points="638.782,-188.269 628.214,-187.516 636.006,-194.695 638.782,-188.269"/>
</g>
<!-- Node18 -->
<g id="node18" class="node"><title>Node18</title>
<g id="a_node18"><a xlink:href="isoMath_8hxx.html" target="_top" xlink:title="basics/isoMath.hxx">
<polygon fill="none" stroke="black" points="680,-168.5 680,-187.5 787,-187.5 787,-168.5 680,-168.5"/>
<text text-anchor="middle" x="733.5" y="-175.5" font-family="Helvetica,sans-Serif" font-size="10.00">basics/isoMath.hxx</text>
</a>
</g>
</g>
<!-- Node1&#45;&gt;Node18 -->
<g id="edge28" class="edge"><title>Node1&#45;&gt;Node18</title>
<path fill="none" stroke="midnightblue" d="M733.5,-224.083C733.5,-217.006 733.5,-206.861 733.5,-197.986"/>
<polygon fill="midnightblue" stroke="midnightblue" points="737,-197.751 733.5,-187.751 730,-197.751 737,-197.751"/>
</g>
<!-- Node20 -->
<g id="node20" class="node"><title>Node20</title>
<g id="a_node20"><a xlink:href="MapLayers_8hxx.html" target="_top" xlink:title="map/MapLayers.hxx">
<polygon fill="none" stroke="black" points="911,-168.5 911,-187.5 1024,-187.5 1024,-168.5 911,-168.5"/>
<text text-anchor="middle" x="967.5" y="-175.5" font-family="Helvetica,sans-Serif" font-size="10.00">map/MapLayers.hxx</text>
</a>
</g>
</g>
<!-- Node1&#45;&gt;Node20 -->
<g id="edge33" class="edge"><title>Node1&#45;&gt;Node20</title>
<path fill="none" stroke="midnightblue" d="M770.578,-224.444C811.228,-215.063 876.532,-199.993 920.684,-189.804"/>
<polygon fill="midnightblue" stroke="midnightblue" points="921.639,-193.175 930.595,-187.516 920.065,-186.355 921.639,-193.175"/>
</g>
<!-- Node21 -->
<g id="node21" class="node"><title>Node21</title>
<g id="a_node21"><a xlink:href="LOG_8hxx.html" target="_top" xlink:title="LOG.hxx">
<polygon fill="none" stroke="black" points="1098.5,-168.5 1098.5,-187.5 1154.5,-187.5 1154.5,-168.5 1098.5,-168.5"/>
<text text-anchor="middle" x="1126.5" y="-175.5" font-family="Helvetica,sans-Serif" font-size="10.00">LOG.hxx</text>
</a>
</g>
</g>
<!-- Node1&#45;&gt;Node21 -->
<g id="edge35" class="edge"><title>Node1&#45;&gt;Node21</title>
<path fill="none" stroke="midnightblue" d="M791.912,-224.974C873.468,-213.768 1019.2,-193.744 1088.23,-184.259"/>
<polygon fill="midnightblue" stroke="midnightblue" points="1088.8,-187.713 1098.23,-182.884 1087.85,-180.778 1088.8,-187.713"/>
</g>
<!-- Node3 -->
<g id="node3" class="node"><title>Node3</title>
<polygon fill="none" stroke="#bfbfbf" points="549,-56.5 549,-75.5 594,-75.5 594,-56.5 549,-56.5"/>
<text text-anchor="middle" x="571.5" y="-63.5" font-family="Helvetica,sans-Serif" font-size="10.00">SDL.h</text>
</g>
<!-- Node2&#45;&gt;Node3 -->
<g id="edge2" class="edge"><title>Node2&#45;&gt;Node3</title>
<path fill="none" stroke="midnightblue" d="M851.489,-168.437C870.677,-155.655 901.006,-131.049 884.5,-112 848.509,-70.4643 677.352,-66.3733 604.477,-66.5624"/>
<polygon fill="midnightblue" stroke="midnightblue" points="604.042,-63.0647 594.062,-66.6209 604.081,-70.0646 604.042,-63.0647"/>
</g>
<!-- Node4 -->
<g id="node4" class="node"><title>Node4</title>
<polygon fill="none" stroke="#bfbfbf" points="638,-112.5 638,-131.5 685,-131.5 685,-112.5 638,-112.5"/>
<text text-anchor="middle" x="661.5" y="-119.5" font-family="Helvetica,sans-Serif" font-size="10.00">vector</text>
</g>
<!-- Node2&#45;&gt;Node4 -->
<g id="edge3" class="edge"><title>Node2&#45;&gt;Node4</title>
<path fill="none" stroke="midnightblue" d="M809.612,-168.444C778.429,-158.876 727.954,-143.389 694.745,-133.2"/>
<polygon fill="midnightblue" stroke="midnightblue" points="695.62,-129.808 685.033,-130.22 693.566,-136.5 695.62,-129.808"/>
</g>
<!-- Node5 -->
<g id="node5" class="node"><title>Node5</title>
<g id="a_node5"><a xlink:href="point_8hxx.html" target="_top" xlink:title="basics/point.hxx">
<polygon fill="none" stroke="black" points="783,-112.5 783,-131.5 876,-131.5 876,-112.5 783,-112.5"/>
<text text-anchor="middle" x="829.5" y="-119.5" font-family="Helvetica,sans-Serif" font-size="10.00">basics/point.hxx</text>
</a>
</g>
</g>
<!-- Node2&#45;&gt;Node5 -->
<g id="edge4" class="edge"><title>Node2&#45;&gt;Node5</title>
<path fill="none" stroke="midnightblue" d="M836.179,-168.083C835.119,-160.927 833.594,-150.635 832.269,-141.691"/>
<polygon fill="midnightblue" stroke="midnightblue" points="835.724,-141.13 830.796,-131.751 828.8,-142.156 835.724,-141.13"/>
</g>
<!-- Node6 -->
<g id="node6" class="node"><title>Node6</title>
<g id="a_node6"><a xlink:href="enums_8hxx.html" target="_top" xlink:title="common/enums.hxx">
<polygon fill="none" stroke="black" points="933,-112.5 933,-131.5 1048,-131.5 1048,-112.5 933,-112.5"/>
<text text-anchor="middle" x="990.5" y="-119.5" font-family="Helvetica,sans-Serif" font-size="10.00">common/enums.hxx</text>
</a>
</g>
</g>
<!-- Node2&#45;&gt;Node6 -->
<g id="edge5" class="edge"><title>Node2&#45;&gt;Node6</title>
<path fill="none" stroke="midnightblue" d="M861.743,-168.444C887.371,-159.399 927.985,-145.064 956.738,-134.916"/>
<polygon fill="midnightblue" stroke="midnightblue" points="958.105,-138.145 966.37,-131.516 955.775,-131.544 958.105,-138.145"/>
</g>
<!-- Node7 -->
<g id="node7" class="node"><title>Node7</title>
<polygon fill="none" stroke="#bfbfbf" points="963,-56.5 963,-75.5 1018,-75.5 1018,-56.5 963,-56.5"/>
<text text-anchor="middle" x="990.5" y="-63.5" font-family="Helvetica,sans-Serif" font-size="10.00">stddef.h</text>
</g>
<!-- Node6&#45;&gt;Node7 -->
<g id="edge6" class="edge"><title>Node6&#45;&gt;Node7</title>
<path fill="none" stroke="midnightblue" d="M990.5,-112.083C990.5,-105.006 990.5,-94.8611 990.5,-85.9865"/>
<polygon fill="midnightblue" stroke="midnightblue" points="994,-85.751 990.5,-75.7511 987,-85.7511 994,-85.751"/>
</g>
<!-- Node8&#45;&gt;Node3 -->
<g id="edge10" class="edge"><title>Node8&#45;&gt;Node3</title>
<path fill="none" stroke="midnightblue" d="M356.954,-168.379C380.214,-155.523 425.736,-130.824 465.5,-112 490.303,-100.258 518.982,-88.1709 540.25,-79.4842"/>
<polygon fill="midnightblue" stroke="midnightblue" points="541.802,-82.6314 549.752,-75.6277 539.17,-76.1453 541.802,-82.6314"/>
</g>
<!-- Node9 -->
<g id="node9" class="node"><title>Node9</title>
<polygon fill="none" stroke="#bfbfbf" points="484,-112.5 484,-131.5 543,-131.5 543,-112.5 484,-112.5"/>
<text text-anchor="middle" x="513.5" y="-119.5" font-family="Helvetica,sans-Serif" font-size="10.00">iostream</text>
</g>
<!-- Node8&#45;&gt;Node9 -->
<g id="edge8" class="edge"><title>Node8&#45;&gt;Node9</title>
<path fill="none" stroke="midnightblue" d="M368.754,-168.444C397.941,-159.28 444.421,-144.688 476.809,-134.519"/>
<polygon fill="midnightblue" stroke="midnightblue" points="477.881,-137.851 486.374,-131.516 475.784,-131.173 477.881,-137.851"/>
</g>
<!-- Node10 -->
<g id="node10" class="node"><title>Node10</title>
<polygon fill="none" stroke="#bfbfbf" points="0,-56.5 0,-75.5 93,-75.5 93,-56.5 0,-56.5"/>
<text text-anchor="middle" x="46.5" y="-63.5" font-family="Helvetica,sans-Serif" font-size="10.00">unordered_map</text>
</g>
<!-- Node8&#45;&gt;Node10 -->
<g id="edge9" class="edge"><title>Node8&#45;&gt;Node10</title>
<path fill="none" stroke="midnightblue" d="M313.265,-168.494C285.217,-159.881 241.085,-145.885 203.5,-132 158.304,-115.304 106.874,-93.4546 75.5599,-79.8235"/>
<polygon fill="midnightblue" stroke="midnightblue" points="76.6981,-76.5014 66.1333,-75.7036 73.8947,-82.9155 76.6981,-76.5014"/>
</g>
<!-- Node11 -->
<g id="node11" class="node"><title>Node11</title>
<g id="a_node11"><a xlink:href="TileManager_8hxx.html" target="_top" xlink:title="TileManager.hxx">
<polygon fill="none" stroke="black" points="213,-112.5 213,-131.5 306,-131.5 306,-112.5 213,-112.5"/>
<text text-anchor="middle" x="259.5" y="-119.5" font-family="Helvetica,sans-Serif" font-size="10.00">TileManager.hxx</text>
</a>
</g>
</g>
<!-- Node8&#45;&gt;Node11 -->
<g id="edge11" class="edge"><title>Node8&#45;&gt;Node11</title>
<path fill="none" stroke="midnightblue" d="M328.325,-168.324C315.653,-159.979 296.267,-147.212 281.294,-137.352"/>
<polygon fill="midnightblue" stroke="midnightblue" points="282.919,-134.231 272.642,-131.655 279.069,-140.078 282.919,-134.231"/>
</g>
<!-- Node11&#45;&gt;Node3 -->
<g id="edge12" class="edge"><title>Node11&#45;&gt;Node3</title>
<path fill="none" stroke="midnightblue" d="M306.21,-112.916C370.091,-101.859 483.107,-82.2987 538.722,-72.673"/>
<polygon fill="midnightblue" stroke="midnightblue" points="539.475,-76.0949 548.732,-70.9407 538.281,-69.1974 539.475,-76.0949"/>
</g>
<!-- Node11&#45;&gt;Node10 -->
<g id="edge13" class="edge"><title>Node11&#45;&gt;Node10</title>
<path fill="none" stroke="midnightblue" d="M225.75,-112.444C188.982,-103.122 130.054,-88.1828 89.878,-77.9972"/>
<polygon fill="midnightblue" stroke="midnightblue" points="90.6461,-74.5813 80.0926,-75.5164 88.9258,-81.3666 90.6461,-74.5813"/>
</g>
<!-- Node12 -->
<g id="node12" class="node"><title>Node12</title>
<polygon fill="none" stroke="#bfbfbf" points="237.5,-0.5 237.5,-19.5 281.5,-19.5 281.5,-0.5 237.5,-0.5"/>
<text text-anchor="middle" x="259.5" y="-7.5" font-family="Helvetica,sans-Serif" font-size="10.00">string</text>
</g>
<!-- Node11&#45;&gt;Node12 -->
<g id="edge14" class="edge"><title>Node11&#45;&gt;Node12</title>
<path fill="none" stroke="midnightblue" d="M246.067,-112.495C229.346,-100.74 204.065,-78.4279 213.5,-56 218.526,-44.0528 228.444,-33.6922 237.787,-25.9339"/>
<polygon fill="midnightblue" stroke="midnightblue" points="239.939,-28.6944 245.713,-19.8113 235.66,-23.1547 239.939,-28.6944"/>
</g>
<!-- Node13 -->
<g id="node13" class="node"><title>Node13</title>
<g id="a_node13"><a xlink:href="tileData_8hxx.html" target="_top" xlink:title="tileData.hxx">
<polygon fill="none" stroke="black" points="222.5,-56.5 222.5,-75.5 296.5,-75.5 296.5,-56.5 222.5,-56.5"/>
<text text-anchor="middle" x="259.5" y="-63.5" font-family="Helvetica,sans-Serif" font-size="10.00">tileData.hxx</text>
</a>
</g>
</g>
<!-- Node11&#45;&gt;Node13 -->
<g id="edge15" class="edge"><title>Node11&#45;&gt;Node13</title>
<path fill="none" stroke="midnightblue" d="M259.5,-112.083C259.5,-105.006 259.5,-94.8611 259.5,-85.9865"/>
<polygon fill="midnightblue" stroke="midnightblue" points="263,-85.751 259.5,-75.7511 256,-85.7511 263,-85.751"/>
</g>
<!-- Node14 -->
<g id="node14" class="node"><title>Node14</title>
<polygon fill="none" stroke="#bfbfbf" points="110.5,-56.5 110.5,-75.5 166.5,-75.5 166.5,-56.5 110.5,-56.5"/>
<text text-anchor="middle" x="138.5" y="-63.5" font-family="Helvetica,sans-Serif" font-size="10.00">json.hxx</text>
</g>
<!-- Node11&#45;&gt;Node14 -->
<g id="edge17" class="edge"><title>Node11&#45;&gt;Node14</title>
<path fill="none" stroke="midnightblue" d="M240.327,-112.444C220.591,-103.636 189.615,-89.8116 167.007,-79.722"/>
<polygon fill="midnightblue" stroke="midnightblue" points="168.141,-76.3957 157.583,-75.5164 165.289,-82.788 168.141,-76.3957"/>
</g>
<!-- Node15 -->
<g id="node15" class="node"><title>Node15</title>
<g id="a_node15"><a xlink:href="Singleton_8hxx.html" target="_top" xlink:title="Singleton.hxx">
<polygon fill="none" stroke="black" points="315,-56.5 315,-75.5 396,-75.5 396,-56.5 315,-56.5"/>
<text text-anchor="middle" x="355.5" y="-63.5" font-family="Helvetica,sans-Serif" font-size="10.00">Singleton.hxx</text>
</a>
</g>
</g>
<!-- Node11&#45;&gt;Node15 -->
<g id="edge18" class="edge"><title>Node11&#45;&gt;Node15</title>
<path fill="none" stroke="midnightblue" d="M274.924,-112.324C290.04,-103.822 313.315,-90.7288 330.971,-80.7975"/>
<polygon fill="midnightblue" stroke="midnightblue" points="333.114,-83.6077 340.114,-75.6545 329.683,-77.5066 333.114,-83.6077"/>
</g>
<!-- Node13&#45;&gt;Node12 -->
<g id="edge16" class="edge"><title>Node13&#45;&gt;Node12</title>
<path fill="none" stroke="midnightblue" d="M259.5,-56.083C259.5,-49.0059 259.5,-38.8611 259.5,-29.9865"/>
<polygon fill="midnightblue" stroke="midnightblue" points="263,-29.751 259.5,-19.7511 256,-29.7511 263,-29.751"/>
</g>
<!-- Node16&#45;&gt;Node3 -->
<g id="edge23" class="edge"><title>Node16&#45;&gt;Node3</title>
<path fill="none" stroke="midnightblue" d="M475.71,-168.198C470.619,-154.891 463.415,-129.362 474.5,-112 488.621,-89.8826 516.721,-78.4703 539.057,-72.6844"/>
<polygon fill="midnightblue" stroke="midnightblue" points="539.899,-76.0821 548.844,-70.4036 538.31,-69.2648 539.899,-76.0821"/>
</g>
<!-- Node16&#45;&gt;Node4 -->
<g id="edge22" class="edge"><title>Node16&#45;&gt;Node4</title>
<path fill="none" stroke="midnightblue" d="M508.338,-168.444C540.767,-158.822 593.369,-143.215 627.701,-133.028"/>
<polygon fill="midnightblue" stroke="midnightblue" points="629.135,-136.254 637.726,-130.054 627.144,-129.543 629.135,-136.254"/>
</g>
<!-- Node16&#45;&gt;Node9 -->
<g id="edge21" class="edge"><title>Node16&#45;&gt;Node9</title>
<path fill="none" stroke="midnightblue" d="M485.114,-168.083C489.867,-160.534 496.818,-149.495 502.652,-140.23"/>
<polygon fill="midnightblue" stroke="midnightblue" points="505.624,-142.078 507.99,-131.751 499.7,-138.349 505.624,-142.078"/>
</g>
<!-- Node16&#45;&gt;Node12 -->
<g id="edge20" class="edge"><title>Node16&#45;&gt;Node12</title>
<path fill="none" stroke="midnightblue" d="M476.528,-168.198C468.561,-145.943 444.575,-87.0008 404.5,-56 371.253,-30.2808 323.16,-19.1422 291.619,-14.399"/>
<polygon fill="midnightblue" stroke="midnightblue" points="291.985,-10.9165 281.602,-13.0237 291.033,-17.8515 291.985,-10.9165"/>
</g>
<!-- Node16&#45;&gt;Node15 -->
<g id="edge24" class="edge"><title>Node16&#45;&gt;Node15</title>
<path fill="none" stroke="midnightblue" d="M460.626,-168.49C444.346,-160.559 420.796,-147.624 403.5,-132 388.107,-118.095 374.481,-98.5655 365.717,-84.5494"/>
<polygon fill="midnightblue" stroke="midnightblue" points="368.634,-82.6095 360.464,-75.8636 362.644,-86.2318 368.634,-82.6095"/>
</g>
<!-- Node17&#45;&gt;Node3 -->
<g id="edge26" class="edge"><title>Node17&#45;&gt;Node3</title>
<path fill="none" stroke="midnightblue" d="M605.597,-168.368C599.599,-150.537 585.727,-109.295 577.646,-85.2717"/>
<polygon fill="midnightblue" stroke="midnightblue" points="580.895,-83.9537 574.39,-75.5914 574.261,-86.1855 580.895,-83.9537"/>
</g>
<!-- Node17&#45;&gt;Node5 -->
<g id="edge27" class="edge"><title>Node17&#45;&gt;Node5</title>
<path fill="none" stroke="midnightblue" d="M643.518,-168.444C681.748,-159.102 743.067,-144.119 784.757,-133.933"/>
<polygon fill="midnightblue" stroke="midnightblue" points="785.762,-137.29 794.646,-131.516 784.101,-130.49 785.762,-137.29"/>
</g>
<!-- Node18&#45;&gt;Node3 -->
<g id="edge30" class="edge"><title>Node18&#45;&gt;Node3</title>
<path fill="none" stroke="midnightblue" d="M704.523,-168.484C682.367,-161.086 651.773,-148.893 628.5,-132 610.166,-118.692 593.637,-98.481 583.158,-84.1332"/>
<polygon fill="midnightblue" stroke="midnightblue" points="585.816,-81.83 577.187,-75.6829 580.099,-85.8696 585.816,-81.83"/>
</g>
<!-- Node18&#45;&gt;Node4 -->
<g id="edge31" class="edge"><title>Node18&#45;&gt;Node4</title>
<path fill="none" stroke="midnightblue" d="M721.932,-168.324C711.08,-160.185 694.619,-147.839 681.617,-138.087"/>
<polygon fill="midnightblue" stroke="midnightblue" points="683.379,-135.034 673.279,-131.834 679.179,-140.634 683.379,-135.034"/>
</g>
<!-- Node18&#45;&gt;Node5 -->
<g id="edge29" class="edge"><title>Node18&#45;&gt;Node5</title>
<path fill="none" stroke="midnightblue" d="M748.924,-168.324C764.04,-159.822 787.315,-146.729 804.971,-136.797"/>
<polygon fill="midnightblue" stroke="midnightblue" points="807.114,-139.608 814.114,-131.655 803.683,-133.507 807.114,-139.608"/>
</g>
<!-- Node19 -->
<g id="node19" class="node"><title>Node19</title>
<polygon fill="none" stroke="#bfbfbf" points="703.5,-112.5 703.5,-131.5 765.5,-131.5 765.5,-112.5 703.5,-112.5"/>
<text text-anchor="middle" x="734.5" y="-119.5" font-family="Helvetica,sans-Serif" font-size="10.00">algorithm</text>
</g>
<!-- Node18&#45;&gt;Node19 -->
<g id="edge32" class="edge"><title>Node18&#45;&gt;Node19</title>
<path fill="none" stroke="midnightblue" d="M733.665,-168.083C733.796,-161.006 733.984,-150.861 734.148,-141.986"/>
<polygon fill="midnightblue" stroke="midnightblue" points="737.652,-141.814 734.338,-131.751 730.653,-141.685 737.652,-141.814"/>
</g>
<!-- Node20&#45;&gt;Node6 -->
<g id="edge34" class="edge"><title>Node20&#45;&gt;Node6</title>
<path fill="none" stroke="midnightblue" d="M971.298,-168.083C974.413,-160.77 978.923,-150.181 982.789,-141.103"/>
<polygon fill="midnightblue" stroke="midnightblue" points="986.074,-142.323 986.773,-131.751 979.634,-139.58 986.074,-142.323"/>
</g>
<!-- Node21&#45;&gt;Node3 -->
<g id="edge41" class="edge"><title>Node21&#45;&gt;Node3</title>
<path fill="none" stroke="midnightblue" d="M1120.33,-168.372C1109.37,-153.816 1084.96,-124.726 1056.5,-112 975.291,-75.6905 699.983,-68.6683 604.464,-67.3186"/>
<polygon fill="midnightblue" stroke="midnightblue" points="604.287,-63.8161 594.243,-67.1865 604.197,-70.8155 604.287,-63.8161"/>
</g>
<!-- Node21&#45;&gt;Node9 -->
<g id="edge36" class="edge"><title>Node21&#45;&gt;Node9</title>
<path fill="none" stroke="midnightblue" d="M1098.12,-174.216C1079.48,-172.403 1054.54,-170.011 1032.5,-168 853.74,-151.693 640.208,-133.623 553.266,-126.326"/>
<polygon fill="midnightblue" stroke="midnightblue" points="553.317,-122.818 543.059,-125.47 552.732,-129.793 553.317,-122.818"/>
</g>
<!-- Node22 -->
<g id="node22" class="node"><title>Node22</title>
<polygon fill="none" stroke="#bfbfbf" points="1312.5,-112.5 1312.5,-131.5 1362.5,-131.5 1362.5,-112.5 1312.5,-112.5"/>
<text text-anchor="middle" x="1337.5" y="-119.5" font-family="Helvetica,sans-Serif" font-size="10.00">chrono</text>
</g>
<!-- Node21&#45;&gt;Node22 -->
<g id="edge37" class="edge"><title>Node21&#45;&gt;Node22</title>
<path fill="none" stroke="midnightblue" d="M1154.72,-169.915C1187.83,-161.584 1244.62,-147.233 1302.57,-132.224"/>
<polygon fill="midnightblue" stroke="midnightblue" points="1303.46,-135.61 1312.26,-129.712 1301.7,-128.834 1303.46,-135.61"/>
</g>
<!-- Node23 -->
<g id="node23" class="node"><title>Node23</title>
<polygon fill="none" stroke="#bfbfbf" points="1104.5,-112.5 1104.5,-131.5 1148.5,-131.5 1148.5,-112.5 1104.5,-112.5"/>
<text text-anchor="middle" x="1126.5" y="-119.5" font-family="Helvetica,sans-Serif" font-size="10.00">ctime</text>
</g>
<!-- Node21&#45;&gt;Node23 -->
<g id="edge38" class="edge"><title>Node21&#45;&gt;Node23</title>
<path fill="none" stroke="midnightblue" d="M1126.5,-168.083C1126.5,-161.006 1126.5,-150.861 1126.5,-141.986"/>
<polygon fill="midnightblue" stroke="midnightblue" points="1130,-141.751 1126.5,-131.751 1123,-141.751 1130,-141.751"/>
</g>
<!-- Node24 -->
<g id="node24" class="node"><title>Node24</title>
<polygon fill="none" stroke="#bfbfbf" points="1166.5,-112.5 1166.5,-131.5 1220.5,-131.5 1220.5,-112.5 1166.5,-112.5"/>
<text text-anchor="middle" x="1193.5" y="-119.5" font-family="Helvetica,sans-Serif" font-size="10.00">fstream</text>
</g>
<!-- Node21&#45;&gt;Node24 -->
<g id="edge39" class="edge"><title>Node21&#45;&gt;Node24</title>
<path fill="none" stroke="midnightblue" d="M1137.26,-168.324C1147.27,-160.263 1162.39,-148.077 1174.43,-138.369"/>
<polygon fill="midnightblue" stroke="midnightblue" points="1176.95,-140.834 1182.54,-131.834 1172.56,-135.384 1176.95,-140.834"/>
</g>
<!-- Node25 -->
<g id="node25" class="node"><title>Node25</title>
<polygon fill="none" stroke="#bfbfbf" points="1238.5,-112.5 1238.5,-131.5 1294.5,-131.5 1294.5,-112.5 1238.5,-112.5"/>
<text text-anchor="middle" x="1266.5" y="-119.5" font-family="Helvetica,sans-Serif" font-size="10.00">sstream</text>
</g>
<!-- Node21&#45;&gt;Node25 -->
<g id="edge40" class="edge"><title>Node21&#45;&gt;Node25</title>
<path fill="none" stroke="midnightblue" d="M1148.68,-168.444C1171.93,-159.478 1208.65,-145.314 1234.92,-135.183"/>
<polygon fill="midnightblue" stroke="midnightblue" points="1236.35,-138.381 1244.42,-131.516 1233.83,-131.85 1236.35,-138.381"/>
</g>
</g>
</svg>
