<?xml version="1.0" encoding="UTF-8" standalone="no"?>
<!DOCTYPE svg PUBLIC "-//W3C//DTD SVG 1.1//EN"
 "http://www.w3.org/Graphics/SVG/1.1/DTD/svg11.dtd">
<!-- Generated by graphviz version 2.38.0 (20140413.2041)
 -->
<!-- Title: VariantType&lt; List &gt; Pages: 1 -->
<svg width="226pt" height="193pt"
 viewBox="0.00 0.00 225.50 193.00" xmlns="http://www.w3.org/2000/svg" xmlns:xlink="http://www.w3.org/1999/xlink">
<g id="graph0" class="graph" transform="scale(1 1) rotate(0) translate(4 189)">
<title>VariantType&lt; List &gt;</title>
<!-- Node1 -->
<g id="node1" class="node"><title>Node1</title>
<polygon fill="#bfbfbf" stroke="black" points="14.5,-127.5 14.5,-184.5 124.5,-184.5 124.5,-127.5 14.5,-127.5"/>
<text text-anchor="middle" x="69.5" y="-172.5" font-family="Helvetica,sans-Serif" font-size="10.00">VariantType&lt; List &gt;</text>
<polyline fill="none" stroke="black" points="14.5,-165.5 124.5,-165.5 "/>
<text text-anchor="middle" x="69.5" y="-153.5" font-family="Helvetica,sans-Serif" font-size="10.00"> </text>
<polyline fill="none" stroke="black" points="14.5,-146.5 124.5,-146.5 "/>
<text text-anchor="middle" x="69.5" y="-134.5" font-family="Helvetica,sans-Serif" font-size="10.00"> </text>
</g>
<!-- Node2 -->
<g id="node2" class="node"><title>Node2</title>
<g id="a_node2"><a xlink:href="structVariantType.html" target="_top" xlink:title="{VariantType\&lt; typename\l Model::OperationTypes \&gt;\n||}">
<polygon fill="none" stroke="black" points="0,-0.5 0,-68.5 139,-68.5 139,-0.5 0,-0.5"/>
<text text-anchor="start" x="8" y="-56.5" font-family="Helvetica,sans-Serif" font-size="10.00">VariantType&lt; typename</text>
<text text-anchor="middle" x="69.5" y="-45.5" font-family="Helvetica,sans-Serif" font-size="10.00"> Model::OperationTypes &gt;</text>
<polyline fill="none" stroke="black" points="0,-38.5 139,-38.5 "/>
<text text-anchor="middle" x="69.5" y="-26.5" font-family="Helvetica,sans-Serif" font-size="10.00"> </text>
<polyline fill="none" stroke="black" points="0,-19.5 139,-19.5 "/>
<text text-anchor="middle" x="69.5" y="-7.5" font-family="Helvetica,sans-Serif" font-size="10.00"> </text>
</a>
</g>
</g>
<!-- Node1&#45;&gt;Node2 -->
<g id="edge1" class="edge"><title>Node1&#45;&gt;Node2</title>
<path fill="none" stroke="orange" d="M69.5,-116.946C69.5,-101.399 69.5,-83.5848 69.5,-68.5891"/>
<polygon fill="orange" stroke="orange" points="66.0001,-117.284 69.5,-127.284 73.0001,-117.284 66.0001,-117.284"/>
<text text-anchor="start" x="69.5" y="-101" font-family="Helvetica,sans-Serif" font-size="10.00"> &lt; typename Model::Operation</text>
<text text-anchor="middle" x="143.5" y="-90" font-family="Helvetica,sans-Serif" font-size="10.00">Types &gt;</text>
</g>
</g>
</svg>
