<?xml version="1.0" encoding="UTF-8" standalone="no"?>
<!DOCTYPE svg PUBLIC "-//W3C//DTD SVG 1.1//EN"
 "http://www.w3.org/Graphics/SVG/1.1/DTD/svg11.dtd">
<!-- Generated by graphviz version 2.38.0 (20140413.2041)
 -->
<!-- Title: SettingsData Pages: 1 -->
<svg width="143pt" height="303pt"
 viewBox="0.00 0.00 143.00 303.00" xmlns="http://www.w3.org/2000/svg" xmlns:xlink="http://www.w3.org/1999/xlink">
<g id="graph0" class="graph" transform="scale(1 1) rotate(0) translate(4 299)">
<title>SettingsData</title>
<!-- Node1 -->
<g id="node1" class="node"><title>Node1</title>
<polygon fill="#bfbfbf" stroke="black" points="3.5,-127.5 3.5,-294.5 131.5,-294.5 131.5,-127.5 3.5,-127.5"/>
<text text-anchor="middle" x="67.5" y="-282.5" font-family="Helvetica,sans-Serif" font-size="10.00">SettingsData</text>
<polyline fill="none" stroke="black" points="3.5,-275.5 131.5,-275.5 "/>
<text text-anchor="start" x="11.5" y="-263.5" font-family="Helvetica,sans-Serif" font-size="10.00">+ mapSize</text>
<text text-anchor="start" x="11.5" y="-252.5" font-family="Helvetica,sans-Serif" font-size="10.00">+ screenWidth</text>
<text text-anchor="start" x="11.5" y="-241.5" font-family="Helvetica,sans-Serif" font-size="10.00">+ screenHeight</text>
<text text-anchor="start" x="11.5" y="-230.5" font-family="Helvetica,sans-Serif" font-size="10.00">+ currentScreenWidth</text>
<text text-anchor="start" x="11.5" y="-219.5" font-family="Helvetica,sans-Serif" font-size="10.00">+ currentScreenHeight</text>
<text text-anchor="start" x="11.5" y="-208.5" font-family="Helvetica,sans-Serif" font-size="10.00">+ maxElevationHeight</text>
<text text-anchor="start" x="11.5" y="-197.5" font-family="Helvetica,sans-Serif" font-size="10.00">+ vSync</text>
<text text-anchor="start" x="11.5" y="-186.5" font-family="Helvetica,sans-Serif" font-size="10.00">+ fullScreen</text>
<text text-anchor="start" x="11.5" y="-175.5" font-family="Helvetica,sans-Serif" font-size="10.00">+ fullScreenMode</text>
<text text-anchor="start" x="11.5" y="-164.5" font-family="Helvetica,sans-Serif" font-size="10.00">+ musicVolume</text>
<text text-anchor="start" x="11.5" y="-153.5" font-family="Helvetica,sans-Serif" font-size="10.00">and 10 more...</text>
<polyline fill="none" stroke="black" points="3.5,-146.5 131.5,-146.5 "/>
<text text-anchor="middle" x="67.5" y="-134.5" font-family="Helvetica,sans-Serif" font-size="10.00"> </text>
</g>
<!-- Node2 -->
<g id="node2" class="node"><title>Node2</title>
<g id="a_node2"><a xlink:href="classSettings.html" target="_top" xlink:title="the settings of the client ">
<polygon fill="none" stroke="black" points="0,-0.5 0,-90.5 135,-90.5 135,-0.5 0,-0.5"/>
<text text-anchor="middle" x="67.5" y="-78.5" font-family="Helvetica,sans-Serif" font-size="10.00">Settings</text>
<polyline fill="none" stroke="black" points="0,-71.5 135,-71.5 "/>
<text text-anchor="start" x="8" y="-59.5" font-family="Helvetica,sans-Serif" font-size="10.00">+ Singleton&lt; Settings &gt;</text>
<polyline fill="none" stroke="black" points="0,-52.5 135,-52.5 "/>
<text text-anchor="start" x="8" y="-40.5" font-family="Helvetica,sans-Serif" font-size="10.00">+ readFile()</text>
<text text-anchor="start" x="8" y="-29.5" font-family="Helvetica,sans-Serif" font-size="10.00">+ writeFile()</text>
<text text-anchor="start" x="8" y="-18.5" font-family="Helvetica,sans-Serif" font-size="10.00">&#45; Settings()</text>
<text text-anchor="start" x="8" y="-7.5" font-family="Helvetica,sans-Serif" font-size="10.00">&#45; ~Settings()</text>
</a>
</g>
</g>
<!-- Node1&#45;&gt;Node2 -->
<g id="edge1" class="edge"><title>Node1&#45;&gt;Node2</title>
<path fill="none" stroke="midnightblue" d="M67.5,-117.223C67.5,-107.991 67.5,-98.9507 67.5,-90.5839"/>
<polygon fill="none" stroke="midnightblue" points="64.0001,-117.292 67.5,-127.292 71.0001,-117.292 64.0001,-117.292"/>
</g>
</g>
</svg>
