<?xml version="1.0" encoding="UTF-8" standalone="no"?>
<!DOCTYPE svg PUBLIC "-//W3C//DTD SVG 1.1//EN"
 "http://www.w3.org/Graphics/SVG/1.1/DTD/svg11.dtd">
<!-- Generated by graphviz version 2.38.0 (20140413.2041)
 -->
<!-- Title: Signal::Signal&lt; SignalSignature, Collector &gt; Pages: 1 -->
<svg width="604pt" height="448pt"
 viewBox="0.00 0.00 603.50 448.00" xmlns="http://www.w3.org/2000/svg" xmlns:xlink="http://www.w3.org/1999/xlink">
<g id="graph0" class="graph" transform="scale(1 1) rotate(0) translate(4 444)">
<title>Signal::Signal&lt; SignalSignature, Collector &gt;</title>
<!-- Node1 -->
<g id="node1" class="node"><title>Node1</title>
<polygon fill="#bfbfbf" stroke="black" points="221,-138.5 221,-206.5 392,-206.5 392,-138.5 221,-138.5"/>
<text text-anchor="start" x="229" y="-194.5" font-family="Helvetica,sans-Serif" font-size="10.00">Signal::Signal&lt; SignalSignature,</text>
<text text-anchor="middle" x="306.5" y="-183.5" font-family="Helvetica,sans-Serif" font-size="10.00"> Collector &gt;</text>
<polyline fill="none" stroke="black" points="221,-176.5 392,-176.5 "/>
<text text-anchor="middle" x="306.5" y="-164.5" font-family="Helvetica,sans-Serif" font-size="10.00"> </text>
<polyline fill="none" stroke="black" points="221,-157.5 392,-157.5 "/>
<text text-anchor="start" x="229" y="-145.5" font-family="Helvetica,sans-Serif" font-size="10.00">+ Signal()</text>
</g>
<!-- Node4 -->
<g id="node4" class="node"><title>Node4</title>
<g id="a_node4"><a xlink:href="structSignal_1_1Signal.html" target="_top" xlink:title="{Signal::Signal\&lt; void\l(UIElement *sender)\&gt;\n||+ Signal()\l}">
<polygon fill="none" stroke="black" points="0,-6 0,-74 123,-74 123,-6 0,-6"/>
<text text-anchor="start" x="8" y="-62" font-family="Helvetica,sans-Serif" font-size="10.00">Signal::Signal&lt; void</text>
<text text-anchor="middle" x="61.5" y="-51" font-family="Helvetica,sans-Serif" font-size="10.00">(UIElement *sender)&gt;</text>
<polyline fill="none" stroke="black" points="0,-44 123,-44 "/>
<text text-anchor="middle" x="61.5" y="-32" font-family="Helvetica,sans-Serif" font-size="10.00"> </text>
<polyline fill="none" stroke="black" points="0,-25 123,-25 "/>
<text text-anchor="start" x="8" y="-13" font-family="Helvetica,sans-Serif" font-size="10.00">+ Signal()</text>
</a>
</g>
</g>
<!-- Node1&#45;&gt;Node4 -->
<g id="edge3" class="edge"><title>Node1&#45;&gt;Node4</title>
<path fill="none" stroke="orange" d="M210.815,-160.925C155.979,-152.865 94.3879,-139.737 75.5,-120 64.0398,-108.025 60.2089,-90.1123 59.3907,-74.3702"/>
<polygon fill="orange" stroke="orange" points="210.57,-164.425 220.964,-162.371 211.557,-157.495 210.57,-164.425"/>
<text text-anchor="middle" x="146" y="-106.5" font-family="Helvetica,sans-Serif" font-size="10.00"> &lt; void(UIElement *sender)&gt;</text>
</g>
<!-- Node5 -->
<g id="node5" class="node"><title>Node5</title>
<g id="a_node5"><a xlink:href="structSignal_1_1Signal.html" target="_top" xlink:title="{Signal::Signal\&lt; void\l(const std::string &amp;)\&gt;\n||+ Signal()\l}">
<polygon fill="none" stroke="black" points="165,-6 165,-74 286,-74 286,-6 165,-6"/>
<text text-anchor="start" x="173" y="-62" font-family="Helvetica,sans-Serif" font-size="10.00">Signal::Signal&lt; void</text>
<text text-anchor="middle" x="225.5" y="-51" font-family="Helvetica,sans-Serif" font-size="10.00">(const std::string &amp;)&gt;</text>
<polyline fill="none" stroke="black" points="165,-44 286,-44 "/>
<text text-anchor="middle" x="225.5" y="-32" font-family="Helvetica,sans-Serif" font-size="10.00"> </text>
<polyline fill="none" stroke="black" points="165,-25 286,-25 "/>
<text text-anchor="start" x="173" y="-13" font-family="Helvetica,sans-Serif" font-size="10.00">+ Signal()</text>
</a>
</g>
</g>
<!-- Node1&#45;&gt;Node5 -->
<g id="edge4" class="edge"><title>Node1&#45;&gt;Node5</title>
<path fill="none" stroke="orange" d="M234.412,-131.247C231.4,-127.756 228.721,-124.01 226.5,-120 218.925,-106.321 217.898,-89.1587 219.089,-74.3283"/>
<polygon fill="orange" stroke="orange" points="231.997,-133.784 241.49,-138.489 237.004,-128.891 231.997,-133.784"/>
<text text-anchor="middle" x="296" y="-106.5" font-family="Helvetica,sans-Serif" font-size="10.00"> &lt; void(const std::string &amp;)&gt;</text>
</g>
<!-- Node6 -->
<g id="node6" class="node"><title>Node6</title>
<g id="a_node6"><a xlink:href="structSignal_1_1Signal.html" target="_top" xlink:title="{Signal::Signal\&lt; void\l(const std::string &amp;,\l UIElement *sender)\&gt;\n||+ Signal()\l}">
<polygon fill="none" stroke="black" points="326.5,-0.5 326.5,-79.5 448.5,-79.5 448.5,-0.5 326.5,-0.5"/>
<text text-anchor="start" x="334.5" y="-67.5" font-family="Helvetica,sans-Serif" font-size="10.00">Signal::Signal&lt; void</text>
<text text-anchor="start" x="334.5" y="-56.5" font-family="Helvetica,sans-Serif" font-size="10.00">(const std::string &amp;,</text>
<text text-anchor="middle" x="387.5" y="-45.5" font-family="Helvetica,sans-Serif" font-size="10.00"> UIElement *sender)&gt;</text>
<polyline fill="none" stroke="black" points="326.5,-38.5 448.5,-38.5 "/>
<text text-anchor="middle" x="387.5" y="-26.5" font-family="Helvetica,sans-Serif" font-size="10.00"> </text>
<polyline fill="none" stroke="black" points="326.5,-19.5 448.5,-19.5 "/>
<text text-anchor="start" x="334.5" y="-7.5" font-family="Helvetica,sans-Serif" font-size="10.00">+ Signal()</text>
</a>
</g>
</g>
<!-- Node1&#45;&gt;Node6 -->
<g id="edge5" class="edge"><title>Node1&#45;&gt;Node6</title>
<path fill="none" stroke="orange" d="M357.378,-130.972C360.359,-127.458 363.111,-123.79 365.5,-120 373.091,-107.956 378.109,-93.2664 381.405,-79.8365"/>
<polygon fill="orange" stroke="orange" points="354.732,-128.679 350.537,-138.408 359.883,-133.419 354.732,-128.679"/>
<text text-anchor="start" x="375.5" y="-112" font-family="Helvetica,sans-Serif" font-size="10.00"> &lt; void(const std::string</text>
<text text-anchor="middle" x="436" y="-101" font-family="Helvetica,sans-Serif" font-size="10.00"> &amp;, UIElement *sender)&gt;</text>
</g>
<!-- Node7 -->
<g id="node7" class="node"><title>Node7</title>
<g id="a_node7"><a xlink:href="structSignal_1_1Signal.html" target="_top" xlink:title="{Signal::Signal\&lt; void()\&gt;\n||+ Signal()\l}">
<polygon fill="none" stroke="black" points="467.5,-11.5 467.5,-68.5 595.5,-68.5 595.5,-11.5 467.5,-11.5"/>
<text text-anchor="middle" x="531.5" y="-56.5" font-family="Helvetica,sans-Serif" font-size="10.00">Signal::Signal&lt; void()&gt;</text>
<polyline fill="none" stroke="black" points="467.5,-49.5 595.5,-49.5 "/>
<text text-anchor="middle" x="531.5" y="-37.5" font-family="Helvetica,sans-Serif" font-size="10.00"> </text>
<polyline fill="none" stroke="black" points="467.5,-30.5 595.5,-30.5 "/>
<text text-anchor="start" x="475.5" y="-18.5" font-family="Helvetica,sans-Serif" font-size="10.00">+ Signal()</text>
</a>
</g>
</g>
<!-- Node1&#45;&gt;Node7 -->
<g id="edge6" class="edge"><title>Node1&#45;&gt;Node7</title>
<path fill="none" stroke="orange" d="M402.547,-163.96C436.857,-156.965 473.631,-143.957 500.5,-120 515.236,-106.861 523.039,-85.832 527.129,-68.7727"/>
<polygon fill="orange" stroke="orange" points="401.649,-160.568 392.471,-165.86 402.946,-167.446 401.649,-160.568"/>
<text text-anchor="middle" x="542.5" y="-106.5" font-family="Helvetica,sans-Serif" font-size="10.00"> &lt; void()&gt;</text>
</g>
<!-- Node2 -->
<g id="node2" class="node"><title>Node2</title>
<g id="a_node2"><a xlink:href="classSignal_1_1Lib_1_1ProtoSignal.html" target="_top" xlink:title="{Signal::Lib::ProtoSignal\l\&lt; SignalSignature, Collector \&gt;\n||}">
<polygon fill="none" stroke="black" points="225,-244.5 225,-312.5 388,-312.5 388,-244.5 225,-244.5"/>
<text text-anchor="start" x="233" y="-300.5" font-family="Helvetica,sans-Serif" font-size="10.00">Signal::Lib::ProtoSignal</text>
<text text-anchor="middle" x="306.5" y="-289.5" font-family="Helvetica,sans-Serif" font-size="10.00">&lt; SignalSignature, Collector &gt;</text>
<polyline fill="none" stroke="black" points="225,-282.5 388,-282.5 "/>
<text text-anchor="middle" x="306.5" y="-270.5" font-family="Helvetica,sans-Serif" font-size="10.00"> </text>
<polyline fill="none" stroke="black" points="225,-263.5 388,-263.5 "/>
<text text-anchor="middle" x="306.5" y="-251.5" font-family="Helvetica,sans-Serif" font-size="10.00"> </text>
</a>
</g>
</g>
<!-- Node2&#45;&gt;Node1 -->
<g id="edge1" class="edge"><title>Node2&#45;&gt;Node1</title>
<path fill="none" stroke="midnightblue" d="M306.5,-234.174C306.5,-225.002 306.5,-215.461 306.5,-206.734"/>
<polygon fill="none" stroke="midnightblue" points="303,-234.308 306.5,-244.308 310,-234.308 303,-234.308"/>
</g>
<!-- Node3 -->
<g id="node3" class="node"><title>Node3</title>
<g id="a_node3"><a xlink:href="classSignal_1_1Lib_1_1ProtoSignal.html" target="_top" xlink:title="ProtoSignal is the template implementation for callback list. ">
<polygon fill="none" stroke="black" points="235,-371.5 235,-439.5 378,-439.5 378,-371.5 235,-371.5"/>
<text text-anchor="start" x="243" y="-427.5" font-family="Helvetica,sans-Serif" font-size="10.00">Signal::Lib::ProtoSignal</text>
<text text-anchor="middle" x="306.5" y="-416.5" font-family="Helvetica,sans-Serif" font-size="10.00">&lt; typename, typename &gt;</text>
<polyline fill="none" stroke="black" points="235,-409.5 378,-409.5 "/>
<text text-anchor="middle" x="306.5" y="-397.5" font-family="Helvetica,sans-Serif" font-size="10.00"> </text>
<polyline fill="none" stroke="black" points="235,-390.5 378,-390.5 "/>
<text text-anchor="middle" x="306.5" y="-378.5" font-family="Helvetica,sans-Serif" font-size="10.00"> </text>
</a>
</g>
</g>
<!-- Node3&#45;&gt;Node2 -->
<g id="edge2" class="edge"><title>Node3&#45;&gt;Node2</title>
<path fill="none" stroke="orange" d="M306.5,-361.222C306.5,-345.364 306.5,-327.677 306.5,-312.825"/>
<polygon fill="orange" stroke="orange" points="303,-361.33 306.5,-371.33 310,-361.331 303,-361.33"/>
<text text-anchor="start" x="306.5" y="-345" font-family="Helvetica,sans-Serif" font-size="10.00"> &lt; SignalSignature,</text>
<text text-anchor="middle" x="353.5" y="-334" font-family="Helvetica,sans-Serif" font-size="10.00"> Collector &gt;</text>
</g>
</g>
</svg>
