<?xml version="1.0" encoding="UTF-8" standalone="no"?>
<!DOCTYPE svg PUBLIC "-//W3C//DTD SVG 1.1//EN"
 "http://www.w3.org/Graphics/SVG/1.1/DTD/svg11.dtd">
<!-- Generated by graphviz version 2.38.0 (20140413.2041)
 -->
<!-- Title: Transition&lt; Model &gt; Pages: 1 -->
<svg width="226pt" height="320pt"
 viewBox="0.00 0.00 225.50 320.00" xmlns="http://www.w3.org/2000/svg" xmlns:xlink="http://www.w3.org/1999/xlink">
<g id="graph0" class="graph" transform="scale(1 1) rotate(0) translate(4 316)">
<title>Transition&lt; Model &gt;</title>
<!-- Node1 -->
<g id="node1" class="node"><title>Node1</title>
<polygon fill="#bfbfbf" stroke="black" points="13,-0.5 13,-79.5 126,-79.5 126,-0.5 13,-0.5"/>
<text text-anchor="middle" x="69.5" y="-67.5" font-family="Helvetica,sans-Serif" font-size="10.00">Transition&lt; Model &gt;</text>
<polyline fill="none" stroke="black" points="13,-60.5 126,-60.5 "/>
<text text-anchor="middle" x="69.5" y="-48.5" font-family="Helvetica,sans-Serif" font-size="10.00"> </text>
<polyline fill="none" stroke="black" points="13,-41.5 126,-41.5 "/>
<text text-anchor="start" x="21" y="-29.5" font-family="Helvetica,sans-Serif" font-size="10.00">+ getType()</text>
<text text-anchor="start" x="21" y="-18.5" font-family="Helvetica,sans-Serif" font-size="10.00">+ Transition()</text>
<text text-anchor="start" x="21" y="-7.5" font-family="Helvetica,sans-Serif" font-size="10.00">+ operator==()</text>
</g>
<!-- Node2 -->
<g id="node2" class="node"><title>Node2</title>
<g id="a_node2"><a xlink:href="structVariantType.html" target="_top" xlink:title="{VariantType\&lt; typename\l Model::OperationTypes \&gt;\n||}">
<polygon fill="none" stroke="black" points="0,-127.5 0,-195.5 139,-195.5 139,-127.5 0,-127.5"/>
<text text-anchor="start" x="8" y="-183.5" font-family="Helvetica,sans-Serif" font-size="10.00">VariantType&lt; typename</text>
<text text-anchor="middle" x="69.5" y="-172.5" font-family="Helvetica,sans-Serif" font-size="10.00"> Model::OperationTypes &gt;</text>
<polyline fill="none" stroke="black" points="0,-165.5 139,-165.5 "/>
<text text-anchor="middle" x="69.5" y="-153.5" font-family="Helvetica,sans-Serif" font-size="10.00"> </text>
<polyline fill="none" stroke="black" points="0,-146.5 139,-146.5 "/>
<text text-anchor="middle" x="69.5" y="-134.5" font-family="Helvetica,sans-Serif" font-size="10.00"> </text>
</a>
</g>
</g>
<!-- Node2&#45;&gt;Node1 -->
<g id="edge1" class="edge"><title>Node2&#45;&gt;Node1</title>
<path fill="none" stroke="#404040" d="M69.5,-127.213C69.5,-116.244 69.5,-103.784 69.5,-91.8137"/>
<polygon fill="none" stroke="#404040" points="69.5001,-91.5997 65.5,-85.5997 69.5,-79.5997 73.5,-85.5997 69.5001,-91.5997"/>
<text text-anchor="middle" x="86.5" y="-101" font-family="Helvetica,sans-Serif" font-size="10.00"> +data</text>
</g>
<!-- Node3 -->
<g id="node3" class="node"><title>Node3</title>
<g id="a_node3"><a xlink:href="structVariantType.html" target="_top" xlink:title="VariantType::type returns std::variant&lt;All fields inside the TypeList&gt; ">
<polygon fill="none" stroke="black" points="14.5,-254.5 14.5,-311.5 124.5,-311.5 124.5,-254.5 14.5,-254.5"/>
<text text-anchor="middle" x="69.5" y="-299.5" font-family="Helvetica,sans-Serif" font-size="10.00">VariantType&lt; List &gt;</text>
<polyline fill="none" stroke="black" points="14.5,-292.5 124.5,-292.5 "/>
<text text-anchor="middle" x="69.5" y="-280.5" font-family="Helvetica,sans-Serif" font-size="10.00"> </text>
<polyline fill="none" stroke="black" points="14.5,-273.5 124.5,-273.5 "/>
<text text-anchor="middle" x="69.5" y="-261.5" font-family="Helvetica,sans-Serif" font-size="10.00"> </text>
</a>
</g>
</g>
<!-- Node3&#45;&gt;Node2 -->
<g id="edge2" class="edge"><title>Node3&#45;&gt;Node2</title>
<path fill="none" stroke="orange" d="M69.5,-243.946C69.5,-228.399 69.5,-210.585 69.5,-195.589"/>
<polygon fill="orange" stroke="orange" points="66.0001,-244.284 69.5,-254.284 73.0001,-244.284 66.0001,-244.284"/>
<text text-anchor="start" x="69.5" y="-228" font-family="Helvetica,sans-Serif" font-size="10.00"> &lt; typename Model::Operation</text>
<text text-anchor="middle" x="143.5" y="-217" font-family="Helvetica,sans-Serif" font-size="10.00">Types &gt;</text>
</g>
</g>
</svg>
