<?xml version="1.0" encoding="UTF-8" standalone="no"?>
<!DOCTYPE svg PUBLIC "-//W3C//DTD SVG 1.1//EN"
 "http://www.w3.org/Graphics/SVG/1.1/DTD/svg11.dtd">
<!-- Generated by graphviz version 2.38.0 (20140413.2041)
 -->
<!-- Title: MapNodeData Pages: 1 -->
<svg width="120pt" height="441pt"
 viewBox="0.00 0.00 119.50 441.00" xmlns="http://www.w3.org/2000/svg" xmlns:xlink="http://www.w3.org/1999/xlink">
<g id="graph0" class="graph" transform="scale(1 1) rotate(0) translate(4 437)">
<title>MapNodeData</title>
<!-- Node1 -->
<g id="node1" class="node"><title>Node1</title>
<polygon fill="#bfbfbf" stroke="black" points="4.5,-0.5 4.5,-57.5 90.5,-57.5 90.5,-0.5 4.5,-0.5"/>
<text text-anchor="middle" x="47.5" y="-45.5" font-family="Helvetica,sans-Serif" font-size="10.00">MapNodeData</text>
<polyline fill="none" stroke="black" points="4.5,-38.5 90.5,-38.5 "/>
<text text-anchor="start" x="12.5" y="-26.5" font-family="Helvetica,sans-Serif" font-size="10.00">+ tileID</text>
<polyline fill="none" stroke="black" points="4.5,-19.5 90.5,-19.5 "/>
<text text-anchor="middle" x="47.5" y="-7.5" font-family="Helvetica,sans-Serif" font-size="10.00"> </text>
</g>
<!-- Node2 -->
<g id="node2" class="node"><title>Node2</title>
<g id="a_node2"><a xlink:href="structTileData.html" target="_top" xlink:title="{TileData\n|+ id\l+ category\l+ biome\l+ title\l+ description\l+ price\l+ upkeepCost\l+ power\l+ water\l+ tileIndex\land 8 more...\l|}">
<polygon fill="none" stroke="black" points="5,-105.5 5,-272.5 90,-272.5 90,-105.5 5,-105.5"/>
<text text-anchor="middle" x="47.5" y="-260.5" font-family="Helvetica,sans-Serif" font-size="10.00">TileData</text>
<polyline fill="none" stroke="black" points="5,-253.5 90,-253.5 "/>
<text text-anchor="start" x="13" y="-241.5" font-family="Helvetica,sans-Serif" font-size="10.00">+ id</text>
<text text-anchor="start" x="13" y="-230.5" font-family="Helvetica,sans-Serif" font-size="10.00">+ category</text>
<text text-anchor="start" x="13" y="-219.5" font-family="Helvetica,sans-Serif" font-size="10.00">+ biome</text>
<text text-anchor="start" x="13" y="-208.5" font-family="Helvetica,sans-Serif" font-size="10.00">+ title</text>
<text text-anchor="start" x="13" y="-197.5" font-family="Helvetica,sans-Serif" font-size="10.00">+ description</text>
<text text-anchor="start" x="13" y="-186.5" font-family="Helvetica,sans-Serif" font-size="10.00">+ price</text>
<text text-anchor="start" x="13" y="-175.5" font-family="Helvetica,sans-Serif" font-size="10.00">+ upkeepCost</text>
<text text-anchor="start" x="13" y="-164.5" font-family="Helvetica,sans-Serif" font-size="10.00">+ power</text>
<text text-anchor="start" x="13" y="-153.5" font-family="Helvetica,sans-Serif" font-size="10.00">+ water</text>
<text text-anchor="start" x="13" y="-142.5" font-family="Helvetica,sans-Serif" font-size="10.00">+ tileIndex</text>
<text text-anchor="start" x="13" y="-131.5" font-family="Helvetica,sans-Serif" font-size="10.00">and 8 more...</text>
<polyline fill="none" stroke="black" points="5,-124.5 90,-124.5 "/>
<text text-anchor="middle" x="47.5" y="-112.5" font-family="Helvetica,sans-Serif" font-size="10.00"> </text>
</a>
</g>
</g>
<!-- Node2&#45;&gt;Node1 -->
<g id="edge1" class="edge"><title>Node2&#45;&gt;Node1</title>
<path fill="none" stroke="#404040" d="M47.5,-105.298C47.5,-92.9551 47.5,-80.7329 47.5,-69.8402"/>
<polygon fill="none" stroke="#404040" points="47.5001,-69.7362 43.5,-63.7363 47.5,-57.7362 51.5,-63.7362 47.5001,-69.7362"/>
<text text-anchor="middle" x="72" y="-79" font-family="Helvetica,sans-Serif" font-size="10.00"> +tileData</text>
</g>
<!-- Node3 -->
<g id="node3" class="node"><title>Node3</title>
<g id="a_node3"><a xlink:href="structTileSetData.html" target="_top" xlink:title="{TileSetData\n|+ fileName\l+ count\l+ clippingWidth\l+ clippingHeight\l|}">
<polygon fill="none" stroke="black" points="0,-342.5 0,-432.5 95,-432.5 95,-342.5 0,-342.5"/>
<text text-anchor="middle" x="47.5" y="-420.5" font-family="Helvetica,sans-Serif" font-size="10.00">TileSetData</text>
<polyline fill="none" stroke="black" points="0,-413.5 95,-413.5 "/>
<text text-anchor="start" x="8" y="-401.5" font-family="Helvetica,sans-Serif" font-size="10.00">+ fileName</text>
<text text-anchor="start" x="8" y="-390.5" font-family="Helvetica,sans-Serif" font-size="10.00">+ count</text>
<text text-anchor="start" x="8" y="-379.5" font-family="Helvetica,sans-Serif" font-size="10.00">+ clippingWidth</text>
<text text-anchor="start" x="8" y="-368.5" font-family="Helvetica,sans-Serif" font-size="10.00">+ clippingHeight</text>
<polyline fill="none" stroke="black" points="0,-361.5 95,-361.5 "/>
<text text-anchor="middle" x="47.5" y="-349.5" font-family="Helvetica,sans-Serif" font-size="10.00"> </text>
</a>
</g>
</g>
<!-- Node3&#45;&gt;Node2 -->
<g id="edge2" class="edge"><title>Node3&#45;&gt;Node2</title>
<path fill="none" stroke="#404040" d="M47.5,-342.402C47.5,-325.267 47.5,-304.936 47.5,-284.799"/>
<polygon fill="none" stroke="#404040" points="47.5001,-284.655 43.5,-278.655 47.5,-272.655 51.5,-278.655 47.5001,-284.655"/>
<text text-anchor="middle" x="79.5" y="-316" font-family="Helvetica,sans-Serif" font-size="10.00"> +cornerTiles</text>
<text text-anchor="middle" x="79.5" y="-305" font-family="Helvetica,sans-Serif" font-size="10.00">+tiles</text>
<text text-anchor="middle" x="79.5" y="-294" font-family="Helvetica,sans-Serif" font-size="10.00">+slopeTiles</text>
</g>
</g>
</svg>
