<?xml version="1.0" encoding="UTF-8" standalone="no"?>
<!DOCTYPE svg PUBLIC "-//W3C//DTD SVG 1.1//EN"
 "http://www.w3.org/Graphics/SVG/1.1/DTD/svg11.dtd">
<!-- Generated by graphviz version 2.38.0 (20140413.2041)
 -->
<!-- Title: TileData Pages: 1 -->
<svg width="120pt" height="336pt"
 viewBox="0.00 0.00 119.50 336.00" xmlns="http://www.w3.org/2000/svg" xmlns:xlink="http://www.w3.org/1999/xlink">
<g id="graph0" class="graph" transform="scale(1 1) rotate(0) translate(4 332)">
<title>TileData</title>
<!-- Node1 -->
<g id="node1" class="node"><title>Node1</title>
<polygon fill="#bfbfbf" stroke="black" points="5,-0.5 5,-167.5 90,-167.5 90,-0.5 5,-0.5"/>
<text text-anchor="middle" x="47.5" y="-155.5" font-family="Helvetica,sans-Serif" font-size="10.00">TileData</text>
<polyline fill="none" stroke="black" points="5,-148.5 90,-148.5 "/>
<text text-anchor="start" x="13" y="-136.5" font-family="Helvetica,sans-Serif" font-size="10.00">+ id</text>
<text text-anchor="start" x="13" y="-125.5" font-family="Helvetica,sans-Serif" font-size="10.00">+ category</text>
<text text-anchor="start" x="13" y="-114.5" font-family="Helvetica,sans-Serif" font-size="10.00">+ biome</text>
<text text-anchor="start" x="13" y="-103.5" font-family="Helvetica,sans-Serif" font-size="10.00">+ title</text>
<text text-anchor="start" x="13" y="-92.5" font-family="Helvetica,sans-Serif" font-size="10.00">+ description</text>
<text text-anchor="start" x="13" y="-81.5" font-family="Helvetica,sans-Serif" font-size="10.00">+ price</text>
<text text-anchor="start" x="13" y="-70.5" font-family="Helvetica,sans-Serif" font-size="10.00">+ upkeepCost</text>
<text text-anchor="start" x="13" y="-59.5" font-family="Helvetica,sans-Serif" font-size="10.00">+ power</text>
<text text-anchor="start" x="13" y="-48.5" font-family="Helvetica,sans-Serif" font-size="10.00">+ water</text>
<text text-anchor="start" x="13" y="-37.5" font-family="Helvetica,sans-Serif" font-size="10.00">+ tileIndex</text>
<text text-anchor="start" x="13" y="-26.5" font-family="Helvetica,sans-Serif" font-size="10.00">and 8 more...</text>
<polyline fill="none" stroke="black" points="5,-19.5 90,-19.5 "/>
<text text-anchor="middle" x="47.5" y="-7.5" font-family="Helvetica,sans-Serif" font-size="10.00"> </text>
</g>
<!-- Node2 -->
<g id="node2" class="node"><title>Node2</title>
<g id="a_node2"><a xlink:href="structTileSetData.html" target="_top" xlink:title="{TileSetData\n|+ fileName\l+ count\l+ clippingWidth\l+ clippingHeight\l|}">
<polygon fill="none" stroke="black" points="0,-237.5 0,-327.5 95,-327.5 95,-237.5 0,-237.5"/>
<text text-anchor="middle" x="47.5" y="-315.5" font-family="Helvetica,sans-Serif" font-size="10.00">TileSetData</text>
<polyline fill="none" stroke="black" points="0,-308.5 95,-308.5 "/>
<text text-anchor="start" x="8" y="-296.5" font-family="Helvetica,sans-Serif" font-size="10.00">+ fileName</text>
<text text-anchor="start" x="8" y="-285.5" font-family="Helvetica,sans-Serif" font-size="10.00">+ count</text>
<text text-anchor="start" x="8" y="-274.5" font-family="Helvetica,sans-Serif" font-size="10.00">+ clippingWidth</text>
<text text-anchor="start" x="8" y="-263.5" font-family="Helvetica,sans-Serif" font-size="10.00">+ clippingHeight</text>
<polyline fill="none" stroke="black" points="0,-256.5 95,-256.5 "/>
<text text-anchor="middle" x="47.5" y="-244.5" font-family="Helvetica,sans-Serif" font-size="10.00"> </text>
</a>
</g>
</g>
<!-- Node2&#45;&gt;Node1 -->
<g id="edge1" class="edge"><title>Node2&#45;&gt;Node1</title>
<path fill="none" stroke="#404040" d="M47.5,-237.402C47.5,-220.267 47.5,-199.936 47.5,-179.799"/>
<polygon fill="none" stroke="#404040" points="47.5001,-179.655 43.5,-173.655 47.5,-167.655 51.5,-173.655 47.5001,-179.655"/>
<text text-anchor="middle" x="79.5" y="-211" font-family="Helvetica,sans-Serif" font-size="10.00"> +cornerTiles</text>
<text text-anchor="middle" x="79.5" y="-200" font-family="Helvetica,sans-Serif" font-size="10.00">+tiles</text>
<text text-anchor="middle" x="79.5" y="-189" font-family="Helvetica,sans-Serif" font-size="10.00">+slopeTiles</text>
</g>
</g>
</svg>
