<?xml version="1.0" encoding="UTF-8" standalone="no"?>
<!DOCTYPE svg PUBLIC "-//W3C//DTD SVG 1.1//EN"
 "http://www.w3.org/Graphics/SVG/1.1/DTD/svg11.dtd">
<!-- Generated by graphviz version 2.38.0 (20140413.2041)
 -->
<!-- Title: src/engine/map/TerrainGenerator.hxx Pages: 1 -->
<svg width="844pt" height="252pt"
 viewBox="0.00 0.00 844.35 252.00" xmlns="http://www.w3.org/2000/svg" xmlns:xlink="http://www.w3.org/1999/xlink">
<g id="graph0" class="graph" transform="scale(1 1) rotate(0) translate(4 248)">
<title>src/engine/map/TerrainGenerator.hxx</title>
<!-- Node1 -->
<g id="node1" class="node"><title>Node1</title>
<polygon fill="#bfbfbf" stroke="black" points="152.519,-224.5 152.519,-243.5 345.519,-243.5 345.519,-224.5 152.519,-224.5"/>
<text text-anchor="middle" x="249.019" y="-231.5" font-family="Helvetica,sans-Serif" font-size="10.00">src/engine/map/TerrainGenerator.hxx</text>
</g>
<!-- Node2 -->
<g id="node2" class="node"><title>Node2</title>
<g id="a_node2"><a xlink:href="MapNode_8hxx.html" target="_top" xlink:title="../GameObjects/MapNode.hxx">
<polygon fill="none" stroke="black" points="169.519,-168.5 169.519,-187.5 328.519,-187.5 328.519,-168.5 169.519,-168.5"/>
<text text-anchor="middle" x="249.019" y="-175.5" font-family="Helvetica,sans-Serif" font-size="10.00">../GameObjects/MapNode.hxx</text>
</a>
</g>
</g>
<!-- Node1&#45;&gt;Node2 -->
<g id="edge1" class="edge"><title>Node1&#45;&gt;Node2</title>
<path fill="none" stroke="midnightblue" d="M249.019,-224.083C249.019,-217.006 249.019,-206.861 249.019,-197.986"/>
<polygon fill="midnightblue" stroke="midnightblue" points="252.519,-197.751 249.019,-187.751 245.519,-197.751 252.519,-197.751"/>
</g>
<!-- Node7 -->
<g id="node7" class="node"><title>Node7</title>
<polygon fill="none" stroke="#bfbfbf" points="53.5189,-56.5 53.5189,-75.5 100.519,-75.5 100.519,-56.5 53.5189,-56.5"/>
<text text-anchor="middle" x="77.0189" y="-63.5" font-family="Helvetica,sans-Serif" font-size="10.00">vector</text>
</g>
<!-- Node1&#45;&gt;Node7 -->
<g id="edge24" class="edge"><title>Node1&#45;&gt;Node7</title>
<path fill="none" stroke="midnightblue" d="M175.22,-224.452C117.863,-213.499 41.8957,-188.584 4.01892,-132 -10.4414,-110.398 18.5431,-91.3742 44.1564,-79.5782"/>
<polygon fill="midnightblue" stroke="midnightblue" points="45.5861,-82.7732 53.3537,-75.5679 42.7882,-76.3566 45.5861,-82.7732"/>
</g>
<!-- Node17 -->
<g id="node17" class="node"><title>Node17</title>
<polygon fill="none" stroke="#bfbfbf" points="346.019,-168.5 346.019,-187.5 384.019,-187.5 384.019,-168.5 346.019,-168.5"/>
<text text-anchor="middle" x="365.019" y="-175.5" font-family="Helvetica,sans-Serif" font-size="10.00">map</text>
</g>
<!-- Node1&#45;&gt;Node17 -->
<g id="edge23" class="edge"><title>Node1&#45;&gt;Node17</title>
<path fill="none" stroke="midnightblue" d="M267.399,-224.444C286.235,-215.675 315.75,-201.935 337.398,-191.858"/>
<polygon fill="midnightblue" stroke="midnightblue" points="339.136,-194.91 346.724,-187.516 336.181,-188.564 339.136,-194.91"/>
</g>
<!-- Node3 -->
<g id="node3" class="node"><title>Node3</title>
<polygon fill="none" stroke="#bfbfbf" points="362.519,-56.5 362.519,-75.5 407.519,-75.5 407.519,-56.5 362.519,-56.5"/>
<text text-anchor="middle" x="385.019" y="-63.5" font-family="Helvetica,sans-Serif" font-size="10.00">SDL.h</text>
</g>
<!-- Node2&#45;&gt;Node3 -->
<g id="edge2" class="edge"><title>Node2&#45;&gt;Node3</title>
<path fill="none" stroke="midnightblue" d="M277.22,-168.403C297.517,-161.155 324.625,-149.189 344.019,-132 358.802,-118.897 370.2,-99.2074 377.183,-84.9334"/>
<polygon fill="midnightblue" stroke="midnightblue" points="380.448,-86.2136 381.473,-75.6685 374.096,-83.2723 380.448,-86.2136"/>
</g>
<!-- Node4 -->
<g id="node4" class="node"><title>Node4</title>
<polygon fill="none" stroke="#bfbfbf" points="93.5189,-112.5 93.5189,-131.5 150.519,-131.5 150.519,-112.5 93.5189,-112.5"/>
<text text-anchor="middle" x="122.019" y="-119.5" font-family="Helvetica,sans-Serif" font-size="10.00">memory</text>
</g>
<!-- Node2&#45;&gt;Node4 -->
<g id="edge3" class="edge"><title>Node2&#45;&gt;Node4</title>
<path fill="none" stroke="midnightblue" d="M228.895,-168.444C207.995,-159.557 175.084,-145.563 151.303,-135.451"/>
<polygon fill="midnightblue" stroke="midnightblue" points="152.621,-132.208 142.048,-131.516 149.881,-138.65 152.621,-132.208"/>
</g>
<!-- Node5 -->
<g id="node5" class="node"><title>Node5</title>
<polygon fill="none" stroke="#bfbfbf" points="479.019,-0.5 479.019,-19.5 523.019,-19.5 523.019,-0.5 479.019,-0.5"/>
<text text-anchor="middle" x="501.019" y="-7.5" font-family="Helvetica,sans-Serif" font-size="10.00">string</text>
</g>
<!-- Node2&#45;&gt;Node5 -->
<g id="edge4" class="edge"><title>Node2&#45;&gt;Node5</title>
<path fill="none" stroke="midnightblue" d="M316.458,-168.472C379.777,-160.182 477.061,-146.715 561.019,-132 682.161,-110.767 754.349,-171.361 832.019,-76 837.632,-69.1079 837.866,-62.6954 832.019,-56 793.48,-11.8667 609.564,-9.36761 533.776,-10.2737"/>
<polygon fill="midnightblue" stroke="midnightblue" points="533.355,-6.77941 523.408,-10.4275 533.459,-13.7786 533.355,-6.77941"/>
</g>
<!-- Node6 -->
<g id="node6" class="node"><title>Node6</title>
<polygon fill="none" stroke="#bfbfbf" points="13.0189,-112.5 13.0189,-131.5 75.0189,-131.5 75.0189,-112.5 13.0189,-112.5"/>
<text text-anchor="middle" x="44.0189" y="-119.5" font-family="Helvetica,sans-Serif" font-size="10.00">algorithm</text>
</g>
<!-- Node2&#45;&gt;Node6 -->
<g id="edge5" class="edge"><title>Node2&#45;&gt;Node6</title>
<path fill="none" stroke="midnightblue" d="M216.536,-168.444C180.988,-159.08 123.919,-144.047 85.2411,-133.859"/>
<polygon fill="midnightblue" stroke="midnightblue" points="85.9031,-130.414 75.3414,-131.251 84.1199,-137.183 85.9031,-130.414"/>
</g>
<!-- Node2&#45;&gt;Node7 -->
<g id="edge6" class="edge"><title>Node2&#45;&gt;Node7</title>
<path fill="none" stroke="midnightblue" d="M237.964,-168.332C221.288,-155.415 188.507,-130.64 159.019,-112 140.774,-100.467 119.371,-88.7798 103.006,-80.2069"/>
<polygon fill="midnightblue" stroke="midnightblue" points="104.504,-77.041 94.0153,-75.544 101.281,-83.255 104.504,-77.041"/>
</g>
<!-- Node8 -->
<g id="node8" class="node"><title>Node8</title>
<g id="a_node8"><a xlink:href="Sprite_8hxx.html" target="_top" xlink:title="../Sprite.hxx">
<polygon fill="none" stroke="black" points="245.019,-112.5 245.019,-131.5 319.019,-131.5 319.019,-112.5 245.019,-112.5"/>
<text text-anchor="middle" x="282.019" y="-119.5" font-family="Helvetica,sans-Serif" font-size="10.00">../Sprite.hxx</text>
</a>
</g>
</g>
<!-- Node2&#45;&gt;Node8 -->
<g id="edge7" class="edge"><title>Node2&#45;&gt;Node8</title>
<path fill="none" stroke="midnightblue" d="M254.468,-168.083C259.033,-160.613 265.687,-149.724 271.312,-140.52"/>
<polygon fill="midnightblue" stroke="midnightblue" points="274.443,-142.109 276.671,-131.751 268.47,-138.459 274.443,-142.109"/>
</g>
<!-- Node9 -->
<g id="node9" class="node"><title>Node9</title>
<g id="a_node9"><a xlink:href="point_8hxx.html" target="_top" xlink:title="basics/point.hxx">
<polygon fill="none" stroke="black" points="118.519,-56.5 118.519,-75.5 211.519,-75.5 211.519,-56.5 118.519,-56.5"/>
<text text-anchor="middle" x="165.019" y="-63.5" font-family="Helvetica,sans-Serif" font-size="10.00">basics/point.hxx</text>
</a>
</g>
</g>
<!-- Node2&#45;&gt;Node9 -->
<g id="edge14" class="edge"><title>Node2&#45;&gt;Node9</title>
<path fill="none" stroke="midnightblue" d="M242.428,-168.368C228.504,-150.135 195.889,-107.426 177.753,-83.6752"/>
<polygon fill="midnightblue" stroke="midnightblue" points="180.431,-81.4149 171.58,-75.5914 174.867,-85.6633 180.431,-81.4149"/>
</g>
<!-- Node10 -->
<g id="node10" class="node"><title>Node10</title>
<g id="a_node10"><a xlink:href="enums_8hxx.html" target="_top" xlink:title="common/enums.hxx">
<polygon fill="none" stroke="black" points="229.519,-56.5 229.519,-75.5 344.519,-75.5 344.519,-56.5 229.519,-56.5"/>
<text text-anchor="middle" x="287.019" y="-63.5" font-family="Helvetica,sans-Serif" font-size="10.00">common/enums.hxx</text>
</a>
</g>
</g>
<!-- Node2&#45;&gt;Node10 -->
<g id="edge13" class="edge"><title>Node2&#45;&gt;Node10</title>
<path fill="none" stroke="midnightblue" d="M278.9,-168.387C296.559,-161.587 317.47,-150.15 328.019,-132 338.145,-114.578 322.053,-95.0892 307.153,-82.0358"/>
<polygon fill="midnightblue" stroke="midnightblue" points="309.127,-79.1282 299.173,-75.5 304.692,-84.5438 309.127,-79.1282"/>
</g>
<!-- Node12 -->
<g id="node12" class="node"><title>Node12</title>
<g id="a_node12"><a xlink:href="TileManager_8hxx.html" target="_top" xlink:title="../TileManager.hxx">
<polygon fill="none" stroke="black" points="450.019,-112.5 450.019,-131.5 552.019,-131.5 552.019,-112.5 450.019,-112.5"/>
<text text-anchor="middle" x="501.019" y="-119.5" font-family="Helvetica,sans-Serif" font-size="10.00">../TileManager.hxx</text>
</a>
</g>
</g>
<!-- Node2&#45;&gt;Node12 -->
<g id="edge15" class="edge"><title>Node2&#45;&gt;Node12</title>
<path fill="none" stroke="midnightblue" d="M288.949,-168.444C332.91,-159.023 403.646,-143.866 451.202,-133.675"/>
<polygon fill="midnightblue" stroke="midnightblue" points="452.231,-137.034 461.276,-131.516 450.764,-130.189 452.231,-137.034"/>
</g>
<!-- Node8&#45;&gt;Node3 -->
<g id="edge8" class="edge"><title>Node8&#45;&gt;Node3</title>
<path fill="none" stroke="midnightblue" d="M298.568,-112.324C315.011,-103.703 340.454,-90.3643 359.487,-80.3855"/>
<polygon fill="midnightblue" stroke="midnightblue" points="361.28,-83.3977 368.511,-75.6545 358.029,-77.198 361.28,-83.3977"/>
</g>
<!-- Node8&#45;&gt;Node7 -->
<g id="edge9" class="edge"><title>Node8&#45;&gt;Node7</title>
<path fill="none" stroke="midnightblue" d="M248.479,-112.484C215.632,-104.098 163.91,-90.7721 110.716,-76.4258"/>
<polygon fill="midnightblue" stroke="midnightblue" points="111.337,-72.9682 100.77,-73.7362 109.51,-79.7255 111.337,-72.9682"/>
</g>
<!-- Node8&#45;&gt;Node9 -->
<g id="edge10" class="edge"><title>Node8&#45;&gt;Node9</title>
<path fill="none" stroke="midnightblue" d="M263.48,-112.444C244.396,-103.636 214.444,-89.8116 192.583,-79.722"/>
<polygon fill="midnightblue" stroke="midnightblue" points="194.018,-76.5292 183.471,-75.5164 191.084,-82.8849 194.018,-76.5292"/>
</g>
<!-- Node8&#45;&gt;Node10 -->
<g id="edge11" class="edge"><title>Node8&#45;&gt;Node10</title>
<path fill="none" stroke="midnightblue" d="M282.845,-112.083C283.5,-105.006 284.439,-94.8611 285.261,-85.9865"/>
<polygon fill="midnightblue" stroke="midnightblue" points="288.772,-86.0312 286.209,-75.7511 281.801,-85.3858 288.772,-86.0312"/>
</g>
<!-- Node11 -->
<g id="node11" class="node"><title>Node11</title>
<polygon fill="none" stroke="#bfbfbf" points="259.519,-0.5 259.519,-19.5 314.519,-19.5 314.519,-0.5 259.519,-0.5"/>
<text text-anchor="middle" x="287.019" y="-7.5" font-family="Helvetica,sans-Serif" font-size="10.00">stddef.h</text>
</g>
<!-- Node10&#45;&gt;Node11 -->
<g id="edge12" class="edge"><title>Node10&#45;&gt;Node11</title>
<path fill="none" stroke="midnightblue" d="M287.019,-56.083C287.019,-49.0059 287.019,-38.8611 287.019,-29.9865"/>
<polygon fill="midnightblue" stroke="midnightblue" points="290.519,-29.751 287.019,-19.7511 283.519,-29.7511 290.519,-29.751"/>
</g>
<!-- Node12&#45;&gt;Node3 -->
<g id="edge16" class="edge"><title>Node12&#45;&gt;Node3</title>
<path fill="none" stroke="midnightblue" d="M482.638,-112.444C463.802,-103.675 434.288,-89.9355 412.64,-79.8579"/>
<polygon fill="midnightblue" stroke="midnightblue" points="413.856,-76.5637 403.313,-75.5164 410.902,-82.9098 413.856,-76.5637"/>
</g>
<!-- Node12&#45;&gt;Node5 -->
<g id="edge18" class="edge"><title>Node12&#45;&gt;Node5</title>
<path fill="none" stroke="midnightblue" d="M487.586,-112.495C470.864,-100.74 445.584,-78.4279 455.019,-56 460.045,-44.0528 469.963,-33.6922 479.306,-25.9339"/>
<polygon fill="midnightblue" stroke="midnightblue" points="481.458,-28.6944 487.232,-19.8113 477.179,-23.1547 481.458,-28.6944"/>
</g>
<!-- Node13 -->
<g id="node13" class="node"><title>Node13</title>
<polygon fill="none" stroke="#bfbfbf" points="556.519,-56.5 556.519,-75.5 649.519,-75.5 649.519,-56.5 556.519,-56.5"/>
<text text-anchor="middle" x="603.019" y="-63.5" font-family="Helvetica,sans-Serif" font-size="10.00">unordered_map</text>
</g>
<!-- Node12&#45;&gt;Node13 -->
<g id="edge17" class="edge"><title>Node12&#45;&gt;Node13</title>
<path fill="none" stroke="midnightblue" d="M517.407,-112.324C533.69,-103.703 558.886,-90.3643 577.735,-80.3855"/>
<polygon fill="midnightblue" stroke="midnightblue" points="579.471,-83.4267 586.672,-75.6545 576.196,-77.2402 579.471,-83.4267"/>
</g>
<!-- Node14 -->
<g id="node14" class="node"><title>Node14</title>
<g id="a_node14"><a xlink:href="tileData_8hxx.html" target="_top" xlink:title="tileData.hxx">
<polygon fill="none" stroke="black" points="464.019,-56.5 464.019,-75.5 538.019,-75.5 538.019,-56.5 464.019,-56.5"/>
<text text-anchor="middle" x="501.019" y="-63.5" font-family="Helvetica,sans-Serif" font-size="10.00">tileData.hxx</text>
</a>
</g>
</g>
<!-- Node12&#45;&gt;Node14 -->
<g id="edge19" class="edge"><title>Node12&#45;&gt;Node14</title>
<path fill="none" stroke="midnightblue" d="M501.019,-112.083C501.019,-105.006 501.019,-94.8611 501.019,-85.9865"/>
<polygon fill="midnightblue" stroke="midnightblue" points="504.519,-85.751 501.019,-75.7511 497.519,-85.7511 504.519,-85.751"/>
</g>
<!-- Node15 -->
<g id="node15" class="node"><title>Node15</title>
<polygon fill="none" stroke="#bfbfbf" points="667.019,-56.5 667.019,-75.5 723.019,-75.5 723.019,-56.5 667.019,-56.5"/>
<text text-anchor="middle" x="695.019" y="-63.5" font-family="Helvetica,sans-Serif" font-size="10.00">json.hxx</text>
</g>
<!-- Node12&#45;&gt;Node15 -->
<g id="edge21" class="edge"><title>Node12&#45;&gt;Node15</title>
<path fill="none" stroke="midnightblue" d="M531.759,-112.444C565.744,-102.984 620.517,-87.7377 657.13,-77.5465"/>
<polygon fill="midnightblue" stroke="midnightblue" points="658.247,-80.8685 666.942,-74.8151 656.37,-74.1249 658.247,-80.8685"/>
</g>
<!-- Node16 -->
<g id="node16" class="node"><title>Node16</title>
<g id="a_node16"><a xlink:href="Singleton_8hxx.html" target="_top" xlink:title="Singleton.hxx">
<polygon fill="none" stroke="black" points="741.519,-56.5 741.519,-75.5 822.519,-75.5 822.519,-56.5 741.519,-56.5"/>
<text text-anchor="middle" x="782.019" y="-63.5" font-family="Helvetica,sans-Serif" font-size="10.00">Singleton.hxx</text>
</a>
</g>
</g>
<!-- Node12&#45;&gt;Node16 -->
<g id="edge22" class="edge"><title>Node12&#45;&gt;Node16</title>
<path fill="none" stroke="midnightblue" d="M545.544,-112.444C596.138,-102.721 678.537,-86.8862 731.495,-76.7092"/>
<polygon fill="midnightblue" stroke="midnightblue" points="732.192,-80.1395 741.351,-74.8151 730.871,-73.2652 732.192,-80.1395"/>
</g>
<!-- Node14&#45;&gt;Node5 -->
<g id="edge20" class="edge"><title>Node14&#45;&gt;Node5</title>
<path fill="none" stroke="midnightblue" d="M501.019,-56.083C501.019,-49.0059 501.019,-38.8611 501.019,-29.9865"/>
<polygon fill="midnightblue" stroke="midnightblue" points="504.519,-29.751 501.019,-19.7511 497.519,-29.7511 504.519,-29.751"/>
</g>
</g>
</svg>
