<?xml version="1.0" encoding="UTF-8" standalone="no"?>
<!DOCTYPE svg PUBLIC "-//W3C//DTD SVG 1.1//EN"
 "http://www.w3.org/Graphics/SVG/1.1/DTD/svg11.dtd">
<!-- Generated by graphviz version 2.38.0 (20140413.2041)
 -->
<!-- Title: src/engine/map/TerrainGenerator.cxx Pages: 1 -->
<!--zoomable 364 -->
<svg id="main" version="1.1" xmlns="http://www.w3.org/2000/svg" xmlns:xlink="http://www.w3.org/1999/xlink" xml:space="preserve" onload="init(evt)">
<style type="text/css"><![CDATA[
.edge:hover path { stroke: red; }
.edge:hover polygon { stroke: red; fill: red; }
]]></style>
<script type="text/javascript"><![CDATA[
var edges = document.getElementsByTagName('g');
if (edges && edges.length) {
  for (var i=0;i<edges.length;i++) {
    if (edges[i].id.substr(0,4)=='edge') {
      edges[i].setAttribute('class','edge');
    }
  }
}
]]></script>
        <defs>
                <circle id="rim" cx="0" cy="0" r="7"/>
                <circle id="rim2" cx="0" cy="0" r="3.5"/>
                <g id="zoomPlus">
                        <use xlink:href="#rim" fill="#404040">
                                <set attributeName="fill" to="#808080" begin="zoomplus.mouseover" end="zoomplus.mouseout"/>
                        </use>
                        <path d="M-4,0h8M0,-4v8" fill="none" stroke="white" stroke-width="1.5" pointer-events="none"/>
                </g>
                <g id="zoomMin">
                        <use xlink:href="#rim" fill="#404040">
                                <set attributeName="fill" to="#808080" begin="zoomminus.mouseover" end="zoomminus.mouseout"/>
                        </use>
                        <path d="M-4,0h8" fill="none" stroke="white" stroke-width="1.5" pointer-events="none"/>
                </g>
                <g id="dirArrow">
                        <path fill="none" stroke="white" stroke-width="1.5" d="M0,-3.0v7 M-2.5,-0.5L0,-3.0L2.5,-0.5"/>
                </g>
               <g id="resetDef">
                       <use xlink:href="#rim2" fill="#404040">
                               <set attributeName="fill" to="#808080" begin="reset.mouseover" end="reset.mouseout"/>
                       </use>
               </g>
        </defs>

<script type="text/javascript">
var viewWidth = 1218;
var viewHeight = 364;
var sectionId = 'dynsection-0';
</script>
<script xlink:href="svgpan.js"/>
<svg id="graph" class="graph">
<g id="viewport">
<title>src/engine/map/TerrainGenerator.cxx</title>
<!-- Node1 -->
<g id="node1" class="node"><title>Node1</title>
<polygon fill="#bfbfbf" stroke="black" points="503.5,-336.5 503.5,-355.5 695.5,-355.5 695.5,-336.5 503.5,-336.5"/>
<text text-anchor="middle" x="599.5" y="-343.5" font-family="Helvetica,sans-Serif" font-size="10.00">src/engine/map/TerrainGenerator.cxx</text>
</g>
<!-- Node2 -->
<g id="node2" class="node"><title>Node2</title>
<g id="a_node2"><a xlink:href="TerrainGenerator_8hxx.html" target="_top" xlink:title="TerrainGenerator.hxx">
<polygon fill="none" stroke="black" points="391.5,-224.5 391.5,-243.5 507.5,-243.5 507.5,-224.5 391.5,-224.5"/>
<text text-anchor="middle" x="449.5" y="-231.5" font-family="Helvetica,sans-Serif" font-size="10.00">TerrainGenerator.hxx</text>
</a>
</g>
</g>
<!-- Node1&#45;&gt;Node2 -->
<g id="edge1" class="edge"><title>Node1&#45;&gt;Node2</title>
<path fill="none" stroke="midnightblue" d="M562.584,-336.5C539.311,-329.681 509.751,-318.183 488.5,-300 473.695,-287.332 462.969,-267.574 456.557,-253.165"/>
<polygon fill="midnightblue" stroke="midnightblue" points="459.73,-251.681 452.654,-243.797 453.269,-254.374 459.73,-251.681"/>
</g>
<!-- Node16 -->
<g id="node16" class="node"><title>Node16</title>
<polygon fill="none" stroke="#bfbfbf" points="1125.5,-56.5 1125.5,-75.5 1181.5,-75.5 1181.5,-56.5 1125.5,-56.5"/>
<text text-anchor="middle" x="1153.5" y="-63.5" font-family="Helvetica,sans-Serif" font-size="10.00">json.hxx</text>
</g>
<!-- Node1&#45;&gt;Node16 -->
<g id="edge42" class="edge"><title>Node1&#45;&gt;Node16</title>
<path fill="none" stroke="midnightblue" d="M695.66,-344.491C848.68,-341.048 1130.5,-322.79 1130.5,-235 1130.5,-235 1130.5,-235 1130.5,-177 1130.5,-144.12 1140.47,-106.86 1147.28,-85.2353"/>
<polygon fill="midnightblue" stroke="midnightblue" points="1150.61,-86.3032 1150.4,-75.7105 1143.96,-84.1248 1150.61,-86.3032"/>
</g>
<!-- Node19 -->
<g id="node19" class="node"><title>Node19</title>
<g id="a_node19"><a xlink:href="Constants_8hxx.html" target="_top" xlink:title="Constants.hxx">
<polygon fill="none" stroke="black" points="498,-280.5 498,-299.5 583,-299.5 583,-280.5 498,-280.5"/>
<text text-anchor="middle" x="540.5" y="-287.5" font-family="Helvetica,sans-Serif" font-size="10.00">Constants.hxx</text>
</a>
</g>
</g>
<!-- Node1&#45;&gt;Node19 -->
<g id="edge26" class="edge"><title>Node1&#45;&gt;Node19</title>
<path fill="none" stroke="midnightblue" d="M590.021,-336.324C581.299,-328.341 568.157,-316.313 557.602,-306.653"/>
<polygon fill="midnightblue" stroke="midnightblue" points="559.892,-304.004 550.152,-299.834 555.166,-309.167 559.892,-304.004"/>
</g>
<!-- Node20 -->
<g id="node20" class="node"><title>Node20</title>
<g id="a_node20"><a xlink:href="LOG_8hxx.html" target="_top" xlink:title="LOG.hxx">
<polygon fill="none" stroke="black" points="206.5,-280.5 206.5,-299.5 262.5,-299.5 262.5,-280.5 206.5,-280.5"/>
<text text-anchor="middle" x="234.5" y="-287.5" font-family="Helvetica,sans-Serif" font-size="10.00">LOG.hxx</text>
</a>
</g>
</g>
<!-- Node1&#45;&gt;Node20 -->
<g id="edge27" class="edge"><title>Node1&#45;&gt;Node20</title>
<path fill="none" stroke="midnightblue" d="M541.665,-336.444C466.451,-325.316 337.122,-306.182 272.943,-296.687"/>
<polygon fill="midnightblue" stroke="midnightblue" points="273.255,-293.196 262.85,-295.194 272.23,-300.12 273.255,-293.196"/>
</g>
<!-- Node26 -->
<g id="node26" class="node"><title>Node26</title>
<g id="a_node26"><a xlink:href="JsonSerialization_8hxx.html" target="_top" xlink:title="JsonSerialization.hxx">
<polygon fill="none" stroke="black" points="601.5,-280.5 601.5,-299.5 715.5,-299.5 715.5,-280.5 601.5,-280.5"/>
<text text-anchor="middle" x="658.5" y="-287.5" font-family="Helvetica,sans-Serif" font-size="10.00">JsonSerialization.hxx</text>
</a>
</g>
</g>
<!-- Node1&#45;&gt;Node26 -->
<g id="edge34" class="edge"><title>Node1&#45;&gt;Node26</title>
<path fill="none" stroke="midnightblue" d="M608.979,-336.324C617.701,-328.341 630.843,-316.313 641.398,-306.653"/>
<polygon fill="midnightblue" stroke="midnightblue" points="643.834,-309.167 648.848,-299.834 639.108,-304.004 643.834,-309.167"/>
</g>
<!-- Node28 -->
<g id="node28" class="node"><title>Node28</title>
<polygon fill="none" stroke="#bfbfbf" points="1159,-280.5 1159,-299.5 1210,-299.5 1210,-280.5 1159,-280.5"/>
<text text-anchor="middle" x="1184.5" y="-287.5" font-family="Helvetica,sans-Serif" font-size="10.00">noise.h</text>
</g>
<!-- Node1&#45;&gt;Node28 -->
<g id="edge43" class="edge"><title>Node1&#45;&gt;Node28</title>
<path fill="none" stroke="midnightblue" d="M695.96,-341.089C805.254,-335.719 988.478,-323.875 1144.5,-300 1145.95,-299.778 1147.43,-299.533 1148.92,-299.271"/>
<polygon fill="midnightblue" stroke="midnightblue" points="1149.64,-302.696 1158.78,-297.339 1148.29,-295.827 1149.64,-302.696"/>
</g>
<!-- Node3 -->
<g id="node3" class="node"><title>Node3</title>
<g id="a_node3"><a xlink:href="MapNode_8hxx.html" target="_top" xlink:title="../GameObjects/MapNode.hxx">
<polygon fill="none" stroke="black" points="579,-168.5 579,-187.5 738,-187.5 738,-168.5 579,-168.5"/>
<text text-anchor="middle" x="658.5" y="-175.5" font-family="Helvetica,sans-Serif" font-size="10.00">../GameObjects/MapNode.hxx</text>
</a>
</g>
</g>
<!-- Node2&#45;&gt;Node3 -->
<g id="edge2" class="edge"><title>Node2&#45;&gt;Node3</title>
<path fill="none" stroke="midnightblue" d="M482.617,-224.444C518.618,-215.142 576.27,-200.246 615.686,-190.062"/>
<polygon fill="midnightblue" stroke="midnightblue" points="616.732,-193.407 625.538,-187.516 614.981,-186.629 616.732,-193.407"/>
</g>
<!-- Node8 -->
<g id="node8" class="node"><title>Node8</title>
<polygon fill="none" stroke="#bfbfbf" points="336,-56.5 336,-75.5 383,-75.5 383,-56.5 336,-56.5"/>
<text text-anchor="middle" x="359.5" y="-63.5" font-family="Helvetica,sans-Serif" font-size="10.00">vector</text>
</g>
<!-- Node2&#45;&gt;Node8 -->
<g id="edge25" class="edge"><title>Node2&#45;&gt;Node8</title>
<path fill="none" stroke="midnightblue" d="M444.104,-224.391C438.445,-215.346 429.306,-200.699 421.5,-188 406.253,-163.194 400.847,-157.878 387.5,-132 379.5,-116.49 371.758,-98.1823 366.451,-84.9555"/>
<polygon fill="midnightblue" stroke="midnightblue" points="369.681,-83.6071 362.757,-75.5876 363.169,-86.1745 369.681,-83.6071"/>
</g>
<!-- Node18 -->
<g id="node18" class="node"><title>Node18</title>
<polygon fill="none" stroke="#bfbfbf" points="430.5,-168.5 430.5,-187.5 468.5,-187.5 468.5,-168.5 430.5,-168.5"/>
<text text-anchor="middle" x="449.5" y="-175.5" font-family="Helvetica,sans-Serif" font-size="10.00">map</text>
</g>
<!-- Node2&#45;&gt;Node18 -->
<g id="edge24" class="edge"><title>Node2&#45;&gt;Node18</title>
<path fill="none" stroke="midnightblue" d="M449.5,-224.083C449.5,-217.006 449.5,-206.861 449.5,-197.986"/>
<polygon fill="midnightblue" stroke="midnightblue" points="453,-197.751 449.5,-187.751 446,-197.751 453,-197.751"/>
</g>
<!-- Node4 -->
<g id="node4" class="node"><title>Node4</title>
<polygon fill="none" stroke="#bfbfbf" points="401,-56.5 401,-75.5 446,-75.5 446,-56.5 401,-56.5"/>
<text text-anchor="middle" x="423.5" y="-63.5" font-family="Helvetica,sans-Serif" font-size="10.00">SDL.h</text>
</g>
<!-- Node3&#45;&gt;Node4 -->
<g id="edge3" class="edge"><title>Node3&#45;&gt;Node4</title>
<path fill="none" stroke="midnightblue" d="M604.733,-168.461C572.024,-161.747 530.2,-150.376 496.5,-132 473.335,-119.368 451.38,-98.103 437.711,-83.3511"/>
<polygon fill="midnightblue" stroke="midnightblue" points="439.965,-80.6237 430.674,-75.5326 434.762,-85.3068 439.965,-80.6237"/>
</g>
<!-- Node5 -->
<g id="node5" class="node"><title>Node5</title>
<polygon fill="none" stroke="#bfbfbf" points="636,-112.5 636,-131.5 693,-131.5 693,-112.5 636,-112.5"/>
<text text-anchor="middle" x="664.5" y="-119.5" font-family="Helvetica,sans-Serif" font-size="10.00">memory</text>
</g>
<!-- Node3&#45;&gt;Node5 -->
<g id="edge4" class="edge"><title>Node3&#45;&gt;Node5</title>
<path fill="none" stroke="midnightblue" d="M659.491,-168.083C660.286,-160.927 661.429,-150.635 662.423,-141.691"/>
<polygon fill="midnightblue" stroke="midnightblue" points="665.902,-142.076 663.528,-131.751 658.945,-141.303 665.902,-142.076"/>
</g>
<!-- Node6 -->
<g id="node6" class="node"><title>Node6</title>
<polygon fill="none" stroke="#bfbfbf" points="918.5,-0.5 918.5,-19.5 962.5,-19.5 962.5,-0.5 918.5,-0.5"/>
<text text-anchor="middle" x="940.5" y="-7.5" font-family="Helvetica,sans-Serif" font-size="10.00">string</text>
</g>
<!-- Node3&#45;&gt;Node6 -->
<g id="edge5" class="edge"><title>Node3&#45;&gt;Node6</title>
<path fill="none" stroke="midnightblue" d="M738.261,-175.429C812.331,-172.083 914.92,-161.986 940.5,-132 964.955,-103.333 955.14,-55.433 947.073,-29.3269"/>
<polygon fill="midnightblue" stroke="midnightblue" points="950.311,-27.9723 943.828,-19.5925 943.67,-30.1862 950.311,-27.9723"/>
</g>
<!-- Node7 -->
<g id="node7" class="node"><title>Node7</title>
<polygon fill="none" stroke="#bfbfbf" points="749.5,-112.5 749.5,-131.5 811.5,-131.5 811.5,-112.5 749.5,-112.5"/>
<text text-anchor="middle" x="780.5" y="-119.5" font-family="Helvetica,sans-Serif" font-size="10.00">algorithm</text>
</g>
<!-- Node3&#45;&gt;Node7 -->
<g id="edge6" class="edge"><title>Node3&#45;&gt;Node7</title>
<path fill="none" stroke="midnightblue" d="M677.831,-168.444C697.82,-159.596 729.243,-145.687 752.064,-135.586"/>
<polygon fill="midnightblue" stroke="midnightblue" points="753.532,-138.764 761.259,-131.516 750.698,-132.363 753.532,-138.764"/>
</g>
<!-- Node3&#45;&gt;Node8 -->
<g id="edge7" class="edge"><title>Node3&#45;&gt;Node8</title>
<path fill="none" stroke="midnightblue" d="M599.669,-168.499C560.389,-161.591 508.131,-149.992 464.5,-132 432.386,-118.758 398.863,-96.2406 378.578,-81.4934"/>
<polygon fill="midnightblue" stroke="midnightblue" points="380.611,-78.6438 370.489,-75.5121 376.449,-84.2721 380.611,-78.6438"/>
</g>
<!-- Node9 -->
<g id="node9" class="node"><title>Node9</title>
<g id="a_node9"><a xlink:href="Sprite_8hxx.html" target="_top" xlink:title="../Sprite.hxx">
<polygon fill="none" stroke="black" points="505.5,-112.5 505.5,-131.5 579.5,-131.5 579.5,-112.5 505.5,-112.5"/>
<text text-anchor="middle" x="542.5" y="-119.5" font-family="Helvetica,sans-Serif" font-size="10.00">../Sprite.hxx</text>
</a>
</g>
</g>
<!-- Node3&#45;&gt;Node9 -->
<g id="edge8" class="edge"><title>Node3&#45;&gt;Node9</title>
<path fill="none" stroke="midnightblue" d="M640.119,-168.444C621.284,-159.675 591.769,-145.935 570.121,-135.858"/>
<polygon fill="midnightblue" stroke="midnightblue" points="571.338,-132.564 560.795,-131.516 568.383,-138.91 571.338,-132.564"/>
</g>
<!-- Node10 -->
<g id="node10" class="node"><title>Node10</title>
<g id="a_node10"><a xlink:href="point_8hxx.html" target="_top" xlink:title="basics/point.hxx">
<polygon fill="none" stroke="black" points="464,-56.5 464,-75.5 557,-75.5 557,-56.5 464,-56.5"/>
<text text-anchor="middle" x="510.5" y="-63.5" font-family="Helvetica,sans-Serif" font-size="10.00">basics/point.hxx</text>
</a>
</g>
</g>
<!-- Node3&#45;&gt;Node10 -->
<g id="edge15" class="edge"><title>Node3&#45;&gt;Node10</title>
<path fill="none" stroke="midnightblue" d="M650.422,-168.339C637.92,-155.215 612.785,-129.924 588.5,-112 572.25,-100.006 552.537,-88.6578 536.995,-80.3577"/>
<polygon fill="midnightblue" stroke="midnightblue" points="538.407,-77.1463 527.925,-75.6052 535.158,-83.3467 538.407,-77.1463"/>
</g>
<!-- Node11 -->
<g id="node11" class="node"><title>Node11</title>
<g id="a_node11"><a xlink:href="enums_8hxx.html" target="_top" xlink:title="common/enums.hxx">
<polygon fill="none" stroke="black" points="575,-56.5 575,-75.5 690,-75.5 690,-56.5 575,-56.5"/>
<text text-anchor="middle" x="632.5" y="-63.5" font-family="Helvetica,sans-Serif" font-size="10.00">common/enums.hxx</text>
</a>
</g>
</g>
<!-- Node3&#45;&gt;Node11 -->
<g id="edge14" class="edge"><title>Node3&#45;&gt;Node11</title>
<path fill="none" stroke="midnightblue" d="M671.238,-168.472C687.702,-156.33 712.971,-133.177 701.5,-112 693.751,-97.6958 679.266,-87.2188 665.56,-79.992"/>
<polygon fill="midnightblue" stroke="midnightblue" points="666.814,-76.7104 656.288,-75.501 663.762,-83.0103 666.814,-76.7104"/>
</g>
<!-- Node13 -->
<g id="node13" class="node"><title>Node13</title>
<g id="a_node13"><a xlink:href="TileManager_8hxx.html" target="_top" xlink:title="../TileManager.hxx">
<polygon fill="none" stroke="black" points="829.5,-112.5 829.5,-131.5 931.5,-131.5 931.5,-112.5 829.5,-112.5"/>
<text text-anchor="middle" x="880.5" y="-119.5" font-family="Helvetica,sans-Serif" font-size="10.00">../TileManager.hxx</text>
</a>
</g>
</g>
<!-- Node3&#45;&gt;Node13 -->
<g id="edge16" class="edge"><title>Node3&#45;&gt;Node13</title>
<path fill="none" stroke="midnightblue" d="M693.677,-168.444C732.079,-159.102 793.676,-144.119 835.555,-133.933"/>
<polygon fill="midnightblue" stroke="midnightblue" points="836.599,-137.281 845.488,-131.516 834.944,-130.479 836.599,-137.281"/>
</g>
<!-- Node9&#45;&gt;Node4 -->
<g id="edge9" class="edge"><title>Node9&#45;&gt;Node4</title>
<path fill="none" stroke="midnightblue" d="M523.644,-112.444C504.234,-103.636 473.77,-89.8116 451.535,-79.722"/>
<polygon fill="midnightblue" stroke="midnightblue" points="452.82,-76.4615 442.268,-75.5164 449.928,-82.836 452.82,-76.4615"/>
</g>
<!-- Node9&#45;&gt;Node8 -->
<g id="edge10" class="edge"><title>Node9&#45;&gt;Node8</title>
<path fill="none" stroke="midnightblue" d="M513.503,-112.444C480.664,-102.753 427.251,-86.9921 392.75,-76.8115"/>
<polygon fill="midnightblue" stroke="midnightblue" points="393.706,-73.4443 383.124,-73.971 391.724,-80.1581 393.706,-73.4443"/>
</g>
<!-- Node9&#45;&gt;Node10 -->
<g id="edge11" class="edge"><title>Node9&#45;&gt;Node10</title>
<path fill="none" stroke="midnightblue" d="M537.216,-112.083C532.789,-104.613 526.337,-93.7244 520.882,-84.5199"/>
<polygon fill="midnightblue" stroke="midnightblue" points="523.795,-82.5697 515.686,-75.7511 517.773,-86.1383 523.795,-82.5697"/>
</g>
<!-- Node9&#45;&gt;Node11 -->
<g id="edge12" class="edge"><title>Node9&#45;&gt;Node11</title>
<path fill="none" stroke="midnightblue" d="M556.96,-112.324C571,-103.9 592.548,-90.9709 609.043,-81.0741"/>
<polygon fill="midnightblue" stroke="midnightblue" points="611.302,-83.8007 618.076,-75.6545 607.7,-77.7983 611.302,-83.8007"/>
</g>
<!-- Node12 -->
<g id="node12" class="node"><title>Node12</title>
<polygon fill="none" stroke="#bfbfbf" points="605,-0.5 605,-19.5 660,-19.5 660,-0.5 605,-0.5"/>
<text text-anchor="middle" x="632.5" y="-7.5" font-family="Helvetica,sans-Serif" font-size="10.00">stddef.h</text>
</g>
<!-- Node11&#45;&gt;Node12 -->
<g id="edge13" class="edge"><title>Node11&#45;&gt;Node12</title>
<path fill="none" stroke="midnightblue" d="M632.5,-56.083C632.5,-49.0059 632.5,-38.8611 632.5,-29.9865"/>
<polygon fill="midnightblue" stroke="midnightblue" points="636,-29.751 632.5,-19.7511 629,-29.7511 636,-29.751"/>
</g>
<!-- Node13&#45;&gt;Node4 -->
<g id="edge17" class="edge"><title>Node13&#45;&gt;Node4</title>
<path fill="none" stroke="midnightblue" d="M829.461,-113.164C826.431,-112.755 823.427,-112.363 820.5,-112 661.619,-92.2831 616.827,-106.315 456.306,-76.0354"/>
<polygon fill="midnightblue" stroke="midnightblue" points="456.549,-72.5184 446.069,-74.0745 455.232,-79.3934 456.549,-72.5184"/>
</g>
<!-- Node13&#45;&gt;Node6 -->
<g id="edge19" class="edge"><title>Node13&#45;&gt;Node6</title>
<path fill="none" stroke="midnightblue" d="M885.208,-112.368C895.022,-94.376 917.836,-52.5503 930.885,-28.6267"/>
<polygon fill="midnightblue" stroke="midnightblue" points="934.098,-30.0464 935.814,-19.5914 927.953,-26.6944 934.098,-30.0464"/>
</g>
<!-- Node14 -->
<g id="node14" class="node"><title>Node14</title>
<polygon fill="none" stroke="#bfbfbf" points="708,-56.5 708,-75.5 801,-75.5 801,-56.5 708,-56.5"/>
<text text-anchor="middle" x="754.5" y="-63.5" font-family="Helvetica,sans-Serif" font-size="10.00">unordered_map</text>
</g>
<!-- Node13&#45;&gt;Node14 -->
<g id="edge18" class="edge"><title>Node13&#45;&gt;Node14</title>
<path fill="none" stroke="midnightblue" d="M860.535,-112.444C839.891,-103.596 807.437,-89.6875 783.868,-79.5865"/>
<polygon fill="midnightblue" stroke="midnightblue" points="784.942,-76.2387 774.372,-75.5164 782.184,-82.6727 784.942,-76.2387"/>
</g>
<!-- Node15 -->
<g id="node15" class="node"><title>Node15</title>
<g id="a_node15"><a xlink:href="tileData_8hxx.html" target="_top" xlink:title="tileData.hxx">
<polygon fill="none" stroke="black" points="819.5,-56.5 819.5,-75.5 893.5,-75.5 893.5,-56.5 819.5,-56.5"/>
<text text-anchor="middle" x="856.5" y="-63.5" font-family="Helvetica,sans-Serif" font-size="10.00">tileData.hxx</text>
</a>
</g>
</g>
<!-- Node13&#45;&gt;Node15 -->
<g id="edge20" class="edge"><title>Node13&#45;&gt;Node15</title>
<path fill="none" stroke="midnightblue" d="M876.537,-112.083C873.287,-104.77 868.581,-94.1814 864.546,-85.1034"/>
<polygon fill="midnightblue" stroke="midnightblue" points="867.649,-83.4677 860.389,-75.7511 861.252,-86.3107 867.649,-83.4677"/>
</g>
<!-- Node13&#45;&gt;Node16 -->
<g id="edge22" class="edge"><title>Node13&#45;&gt;Node16</title>
<path fill="none" stroke="midnightblue" d="M923.758,-112.444C976.645,-101.982 1065.31,-84.4451 1115.62,-74.4929"/>
<polygon fill="midnightblue" stroke="midnightblue" points="1116.32,-77.9228 1125.45,-72.5488 1114.96,-71.0558 1116.32,-77.9228"/>
</g>
<!-- Node17 -->
<g id="node17" class="node"><title>Node17</title>
<g id="a_node17"><a xlink:href="Singleton_8hxx.html" target="_top" xlink:title="Singleton.hxx">
<polygon fill="none" stroke="black" points="988,-56.5 988,-75.5 1069,-75.5 1069,-56.5 988,-56.5"/>
<text text-anchor="middle" x="1028.5" y="-63.5" font-family="Helvetica,sans-Serif" font-size="10.00">Singleton.hxx</text>
</a>
</g>
</g>
<!-- Node13&#45;&gt;Node17 -->
<g id="edge23" class="edge"><title>Node13&#45;&gt;Node17</title>
<path fill="none" stroke="midnightblue" d="M903.951,-112.444C928.633,-103.438 967.685,-89.1891 995.477,-79.049"/>
<polygon fill="midnightblue" stroke="midnightblue" points="996.964,-82.2321 1005.16,-75.5164 994.565,-75.6561 996.964,-82.2321"/>
</g>
<!-- Node15&#45;&gt;Node6 -->
<g id="edge21" class="edge"><title>Node15&#45;&gt;Node6</title>
<path fill="none" stroke="midnightblue" d="M869.996,-56.324C883.1,-47.9002 903.212,-34.9709 918.607,-25.0741"/>
<polygon fill="midnightblue" stroke="midnightblue" points="920.518,-28.0063 927.037,-19.6545 916.733,-22.118 920.518,-28.0063"/>
</g>
<!-- Node20&#45;&gt;Node4 -->
<g id="edge33" class="edge"><title>Node20&#45;&gt;Node4</title>
<path fill="none" stroke="midnightblue" d="M262.581,-283.677C286.965,-277.752 321.829,-265.969 344.5,-244 391.166,-198.781 412.38,-121.071 419.988,-85.6151"/>
<polygon fill="midnightblue" stroke="midnightblue" points="423.445,-86.1779 421.995,-75.6828 416.583,-84.7915 423.445,-86.1779"/>
</g>
<!-- Node21 -->
<g id="node21" class="node"><title>Node21</title>
<polygon fill="none" stroke="#bfbfbf" points="0,-224.5 0,-243.5 59,-243.5 59,-224.5 0,-224.5"/>
<text text-anchor="middle" x="29.5" y="-231.5" font-family="Helvetica,sans-Serif" font-size="10.00">iostream</text>
</g>
<!-- Node20&#45;&gt;Node21 -->
<g id="edge28" class="edge"><title>Node20&#45;&gt;Node21</title>
<path fill="none" stroke="midnightblue" d="M206.425,-281.605C170.842,-272.231 109.294,-256.019 68.9877,-245.402"/>
<polygon fill="midnightblue" stroke="midnightblue" points="69.7883,-241.993 59.2266,-242.83 68.0052,-248.762 69.7883,-241.993"/>
</g>
<!-- Node22 -->
<g id="node22" class="node"><title>Node22</title>
<polygon fill="none" stroke="#bfbfbf" points="77.5,-224.5 77.5,-243.5 127.5,-243.5 127.5,-224.5 77.5,-224.5"/>
<text text-anchor="middle" x="102.5" y="-231.5" font-family="Helvetica,sans-Serif" font-size="10.00">chrono</text>
</g>
<!-- Node20&#45;&gt;Node22 -->
<g id="edge29" class="edge"><title>Node20&#45;&gt;Node22</title>
<path fill="none" stroke="midnightblue" d="M213.584,-280.444C191.764,-271.517 157.35,-257.439 132.608,-247.317"/>
<polygon fill="midnightblue" stroke="midnightblue" points="133.899,-244.063 123.318,-243.516 131.248,-250.542 133.899,-244.063"/>
</g>
<!-- Node23 -->
<g id="node23" class="node"><title>Node23</title>
<polygon fill="none" stroke="#bfbfbf" points="145.5,-224.5 145.5,-243.5 189.5,-243.5 189.5,-224.5 145.5,-224.5"/>
<text text-anchor="middle" x="167.5" y="-231.5" font-family="Helvetica,sans-Serif" font-size="10.00">ctime</text>
</g>
<!-- Node20&#45;&gt;Node23 -->
<g id="edge30" class="edge"><title>Node20&#45;&gt;Node23</title>
<path fill="none" stroke="midnightblue" d="M223.735,-280.324C213.734,-272.263 198.613,-260.077 186.57,-250.369"/>
<polygon fill="midnightblue" stroke="midnightblue" points="188.443,-247.384 178.461,-243.834 184.05,-252.834 188.443,-247.384"/>
</g>
<!-- Node24 -->
<g id="node24" class="node"><title>Node24</title>
<polygon fill="none" stroke="#bfbfbf" points="207.5,-224.5 207.5,-243.5 261.5,-243.5 261.5,-224.5 207.5,-224.5"/>
<text text-anchor="middle" x="234.5" y="-231.5" font-family="Helvetica,sans-Serif" font-size="10.00">fstream</text>
</g>
<!-- Node20&#45;&gt;Node24 -->
<g id="edge31" class="edge"><title>Node20&#45;&gt;Node24</title>
<path fill="none" stroke="midnightblue" d="M234.5,-280.083C234.5,-273.006 234.5,-262.861 234.5,-253.986"/>
<polygon fill="midnightblue" stroke="midnightblue" points="238,-253.751 234.5,-243.751 231,-253.751 238,-253.751"/>
</g>
<!-- Node25 -->
<g id="node25" class="node"><title>Node25</title>
<polygon fill="none" stroke="#bfbfbf" points="279.5,-224.5 279.5,-243.5 335.5,-243.5 335.5,-224.5 279.5,-224.5"/>
<text text-anchor="middle" x="307.5" y="-231.5" font-family="Helvetica,sans-Serif" font-size="10.00">sstream</text>
</g>
<!-- Node20&#45;&gt;Node25 -->
<g id="edge32" class="edge"><title>Node20&#45;&gt;Node25</title>
<path fill="none" stroke="midnightblue" d="M246.229,-280.324C257.337,-272.107 274.242,-259.602 287.483,-249.807"/>
<polygon fill="midnightblue" stroke="midnightblue" points="289.6,-252.595 295.558,-243.834 285.437,-246.967 289.6,-252.595"/>
</g>
<!-- Node26&#45;&gt;Node2 -->
<g id="edge38" class="edge"><title>Node26&#45;&gt;Node2</title>
<path fill="none" stroke="midnightblue" d="M625.383,-280.444C589.382,-271.142 531.73,-256.246 492.314,-246.062"/>
<polygon fill="midnightblue" stroke="midnightblue" points="493.019,-242.629 482.462,-243.516 491.268,-249.407 493.019,-242.629"/>
</g>
<!-- Node26&#45;&gt;Node3 -->
<g id="edge37" class="edge"><title>Node26&#45;&gt;Node3</title>
<path fill="none" stroke="midnightblue" d="M658.5,-280.368C658.5,-262.617 658.5,-221.666 658.5,-197.597"/>
<polygon fill="midnightblue" stroke="midnightblue" points="662,-197.591 658.5,-187.591 655,-197.591 662,-197.591"/>
</g>
<!-- Node26&#45;&gt;Node10 -->
<g id="edge36" class="edge"><title>Node26&#45;&gt;Node10</title>
<path fill="none" stroke="midnightblue" d="M643.531,-280.412C609.557,-259.935 527.195,-204.492 496.5,-132 490.044,-116.753 495.218,-98.1856 501.016,-84.8056"/>
<polygon fill="midnightblue" stroke="midnightblue" points="504.203,-86.254 505.389,-75.7258 497.896,-83.2165 504.203,-86.254"/>
</g>
<!-- Node26&#45;&gt;Node16 -->
<g id="edge35" class="edge"><title>Node26&#45;&gt;Node16</title>
<path fill="none" stroke="midnightblue" d="M691.939,-280.499C764.73,-261.129 941.584,-209.325 1073.5,-132 1097.47,-117.95 1121.79,-97.036 1137.22,-82.7502"/>
<polygon fill="midnightblue" stroke="midnightblue" points="1139.94,-84.9894 1144.82,-75.5812 1135.14,-79.8978 1139.94,-84.9894"/>
</g>
<!-- Node27 -->
<g id="node27" class="node"><title>Node27</title>
<g id="a_node27"><a xlink:href="Settings_8hxx.html" target="_top" xlink:title="Settings.hxx">
<polygon fill="none" stroke="black" points="988.5,-112.5 988.5,-131.5 1064.5,-131.5 1064.5,-112.5 988.5,-112.5"/>
<text text-anchor="middle" x="1026.5" y="-119.5" font-family="Helvetica,sans-Serif" font-size="10.00">Settings.hxx</text>
</a>
</g>
</g>
<!-- Node26&#45;&gt;Node27 -->
<g id="edge39" class="edge"><title>Node26&#45;&gt;Node27</title>
<path fill="none" stroke="midnightblue" d="M677.51,-280.425C737.955,-253.159 925.969,-168.348 998.012,-135.851"/>
<polygon fill="midnightblue" stroke="midnightblue" points="999.706,-138.926 1007.38,-131.624 996.828,-132.545 999.706,-138.926"/>
</g>
<!-- Node27&#45;&gt;Node6 -->
<g id="edge40" class="edge"><title>Node27&#45;&gt;Node6</title>
<path fill="none" stroke="midnightblue" d="M1041.99,-112.334C1061.97,-100.027 1092.47,-76.6796 1077.5,-56 1053.76,-23.2079 1005.34,-13.8884 972.897,-11.4717"/>
<polygon fill="midnightblue" stroke="midnightblue" points="972.746,-7.95788 962.566,-10.8928 972.355,-14.9469 972.746,-7.95788"/>
</g>
<!-- Node27&#45;&gt;Node17 -->
<g id="edge41" class="edge"><title>Node27&#45;&gt;Node17</title>
<path fill="none" stroke="midnightblue" d="M1026.83,-112.083C1027.09,-105.006 1027.47,-94.8611 1027.8,-85.9865"/>
<polygon fill="midnightblue" stroke="midnightblue" points="1031.3,-85.8738 1028.18,-75.7511 1024.31,-85.6147 1031.3,-85.8738"/>
</g>
</g>
</svg>
        <g id="navigator" transform="translate(0 0)" fill="#404254">
                <rect fill="#f2f5e9" fill-opacity="0.5" stroke="#606060" stroke-width=".5" x="0" y="0" width="60" height="60"/>
                <use id="zoomplus" xlink:href="#zoomPlus" x="17" y="9" onmousedown="handleZoom(evt,'in')"/>
                <use id="zoomminus" xlink:href="#zoomMin" x="42" y="9" onmousedown="handleZoom(evt,'out')"/>
                <use id="reset" xlink:href="#resetDef" x="30" y="36" onmousedown="handleReset()"/>
                <g id="arrowUp" xlink:href="#dirArrow" transform="translate(30 24)" onmousedown="handlePan(0,-1)">
                  <use xlink:href="#rim" fill="#404040">
                        <set attributeName="fill" to="#808080" begin="arrowUp.mouseover" end="arrowUp.mouseout"/>
                  </use>
                  <path fill="none" stroke="white" stroke-width="1.5" d="M0,-3.0v7 M-2.5,-0.5L0,-3.0L2.5,-0.5"/>
                </g>
                <g id="arrowRight" xlink:href="#dirArrow" transform="rotate(90) translate(36 -43)" onmousedown="handlePan(1,0)">
                  <use xlink:href="#rim" fill="#404040">
                        <set attributeName="fill" to="#808080" begin="arrowRight.mouseover" end="arrowRight.mouseout"/>
                  </use>
                  <path fill="none" stroke="white" stroke-width="1.5" d="M0,-3.0v7 M-2.5,-0.5L0,-3.0L2.5,-0.5"/>
                </g>
                <g id="arrowDown" xlink:href="#dirArrow" transform="rotate(180) translate(-30 -48)" onmousedown="handlePan(0,1)">
                  <use xlink:href="#rim" fill="#404040">
                        <set attributeName="fill" to="#808080" begin="arrowDown.mouseover" end="arrowDown.mouseout"/>
                  </use>
                  <path fill="none" stroke="white" stroke-width="1.5" d="M0,-3.0v7 M-2.5,-0.5L0,-3.0L2.5,-0.5"/>
                </g>
                <g id="arrowLeft" xlink:href="#dirArrow" transform="rotate(270) translate(-36 17)" onmousedown="handlePan(-1,0)">
                  <use xlink:href="#rim" fill="#404040">
                        <set attributeName="fill" to="#808080" begin="arrowLeft.mouseover" end="arrowLeft.mouseout"/>
                  </use>
                  <path fill="none" stroke="white" stroke-width="1.5" d="M0,-3.0v7 M-2.5,-0.5L0,-3.0L2.5,-0.5"/>
                </g>
        </g>
        <svg viewBox="0 0 15 15" width="100%" height="30px" preserveAspectRatio="xMaxYMin meet">
         <g id="arrow_out" transform="scale(0.3 0.3)">
          <a xlink:href="TerrainGenerator_8cxx__incl_org.svg" target="_base">
           <rect id="button" ry="5" rx="5" y="6" x="6" height="38" width="38"
                fill="#f2f5e9" fill-opacity="0.5" stroke="#606060" stroke-width="1.0"/>
           <path id="arrow"
             d="M 11.500037,31.436501 C 11.940474,20.09759 22.043105,11.32322 32.158766,21.979434 L 37.068811,17.246167 C 37.068811,17.246167 37.088388,32 37.088388,32 L 22.160133,31.978069 C 22.160133,31.978069 26.997745,27.140456 26.997745,27.140456 C 18.528582,18.264221 13.291696,25.230495 11.500037,31.436501 z"
             style="fill:#404040;"/>
          </a>
         </g>
        </svg>
</svg>
