<?xml version="1.0" encoding="UTF-8" standalone="no"?>
<!DOCTYPE svg PUBLIC "-//W3C//DTD SVG 1.1//EN"
 "http://www.w3.org/Graphics/SVG/1.1/DTD/svg11.dtd">
<!-- Generated by graphviz version 2.38.0 (20140413.2041)
 -->
<!-- Title: src/engine/ui/widgets/TextField.cxx Pages: 1 -->
<svg width="1015pt" height="431pt"
 viewBox="0.00 0.00 1014.50 431.00" xmlns="http://www.w3.org/2000/svg" xmlns:xlink="http://www.w3.org/1999/xlink">
<g id="graph0" class="graph" transform="scale(1 1) rotate(0) translate(4 427)">
<title>src/engine/ui/widgets/TextField.cxx</title>
<!-- Node1 -->
<g id="node1" class="node"><title>Node1</title>
<polygon fill="#bfbfbf" stroke="black" points="256,-392.5 256,-422.5 372,-422.5 372,-392.5 256,-392.5"/>
<text text-anchor="start" x="264" y="-410.5" font-family="Helvetica,sans-Serif" font-size="10.00">src/engine/ui/widgets</text>
<text text-anchor="middle" x="314" y="-399.5" font-family="Helvetica,sans-Serif" font-size="10.00">/TextField.cxx</text>
</g>
<!-- Node2 -->
<g id="node2" class="node"><title>Node2</title>
<g id="a_node2"><a xlink:href="TextField_8hxx.html" target="_top" xlink:title="TextField.hxx">
<polygon fill="none" stroke="black" points="309,-336.5 309,-355.5 385,-355.5 385,-336.5 309,-336.5"/>
<text text-anchor="middle" x="347" y="-343.5" font-family="Helvetica,sans-Serif" font-size="10.00">TextField.hxx</text>
</a>
</g>
</g>
<!-- Node1&#45;&gt;Node2 -->
<g id="edge1" class="edge"><title>Node1&#45;&gt;Node2</title>
<path fill="none" stroke="midnightblue" d="M321.821,-392.399C326.468,-384.021 332.399,-373.327 337.337,-364.423"/>
<polygon fill="midnightblue" stroke="midnightblue" points="340.409,-366.1 342.198,-355.658 334.287,-362.705 340.409,-366.1"/>
</g>
<!-- Node21 -->
<g id="node21" class="node"><title>Node21</title>
<g id="a_node21"><a xlink:href="Text_8hxx.html" target="_top" xlink:title="Text.hxx">
<polygon fill="none" stroke="black" points="258.5,-280.5 258.5,-299.5 313.5,-299.5 313.5,-280.5 258.5,-280.5"/>
<text text-anchor="middle" x="286" y="-287.5" font-family="Helvetica,sans-Serif" font-size="10.00">Text.hxx</text>
</a>
</g>
</g>
<!-- Node1&#45;&gt;Node21 -->
<g id="edge34" class="edge"><title>Node1&#45;&gt;Node21</title>
<path fill="none" stroke="midnightblue" d="M309.856,-392.409C306.945,-382.312 303.044,-368.368 300,-356 296.202,-340.568 292.441,-322.936 289.774,-309.933"/>
<polygon fill="midnightblue" stroke="midnightblue" points="293.152,-308.977 287.74,-299.869 286.291,-310.364 293.152,-308.977"/>
</g>
<!-- Node3 -->
<g id="node3" class="node"><title>Node3</title>
<g id="a_node3"><a xlink:href="UIElement_8hxx.html" target="_top" xlink:title="../basics/UIElement.hxx">
<polygon fill="none" stroke="black" points="283,-224.5 283,-243.5 411,-243.5 411,-224.5 283,-224.5"/>
<text text-anchor="middle" x="347" y="-231.5" font-family="Helvetica,sans-Serif" font-size="10.00">../basics/UIElement.hxx</text>
</a>
</g>
</g>
<!-- Node2&#45;&gt;Node3 -->
<g id="edge2" class="edge"><title>Node2&#45;&gt;Node3</title>
<path fill="none" stroke="midnightblue" d="M347,-336.368C347,-318.617 347,-277.666 347,-253.597"/>
<polygon fill="midnightblue" stroke="midnightblue" points="350.5,-253.591 347,-243.591 343.5,-253.591 350.5,-253.591"/>
</g>
<!-- Node2&#45;&gt;Node21 -->
<g id="edge31" class="edge"><title>Node2&#45;&gt;Node21</title>
<path fill="none" stroke="midnightblue" d="M337.199,-336.324C328.182,-328.341 314.594,-316.313 303.682,-306.653"/>
<polygon fill="midnightblue" stroke="midnightblue" points="305.787,-303.842 295.979,-299.834 301.147,-309.083 305.787,-303.842"/>
</g>
<!-- Node4 -->
<g id="node4" class="node"><title>Node4</title>
<polygon fill="none" stroke="#bfbfbf" points="219,-0.5 219,-19.5 263,-19.5 263,-0.5 219,-0.5"/>
<text text-anchor="middle" x="241" y="-7.5" font-family="Helvetica,sans-Serif" font-size="10.00">string</text>
</g>
<!-- Node3&#45;&gt;Node4 -->
<g id="edge3" class="edge"><title>Node3&#45;&gt;Node4</title>
<path fill="none" stroke="midnightblue" d="M325.706,-224.491C281.897,-205.607 182.943,-155.48 149,-76 136.386,-46.4637 177.817,-28.0733 209.144,-18.6836"/>
<polygon fill="midnightblue" stroke="midnightblue" points="210.198,-22.023 218.878,-15.9485 208.304,-15.284 210.198,-22.023"/>
</g>
<!-- Node5 -->
<g id="node5" class="node"><title>Node5</title>
<g id="a_node5"><a xlink:href="mapEdit_8hxx.html" target="_top" xlink:title="../../basics/mapEdit.hxx">
<polygon fill="none" stroke="black" points="28.5,-168.5 28.5,-187.5 155.5,-187.5 155.5,-168.5 28.5,-168.5"/>
<text text-anchor="middle" x="92" y="-175.5" font-family="Helvetica,sans-Serif" font-size="10.00">../../basics/mapEdit.hxx</text>
</a>
</g>
</g>
<!-- Node3&#45;&gt;Node5 -->
<g id="edge4" class="edge"><title>Node3&#45;&gt;Node5</title>
<path fill="none" stroke="midnightblue" d="M306.594,-224.444C262.017,-215.004 190.232,-199.802 142.108,-189.611"/>
<polygon fill="midnightblue" stroke="midnightblue" points="142.725,-186.164 132.216,-187.516 141.274,-193.012 142.725,-186.164"/>
</g>
<!-- Node6 -->
<g id="node6" class="node"><title>Node6</title>
<g id="a_node6"><a xlink:href="ResourcesManager_8hxx.html" target="_top" xlink:title="../../ResourcesManager.hxx">
<polygon fill="none" stroke="black" points="275,-168.5 275,-187.5 419,-187.5 419,-168.5 275,-168.5"/>
<text text-anchor="middle" x="347" y="-175.5" font-family="Helvetica,sans-Serif" font-size="10.00">../../ResourcesManager.hxx</text>
</a>
</g>
</g>
<!-- Node3&#45;&gt;Node6 -->
<g id="edge6" class="edge"><title>Node3&#45;&gt;Node6</title>
<path fill="none" stroke="midnightblue" d="M347,-224.083C347,-217.006 347,-206.861 347,-197.986"/>
<polygon fill="midnightblue" stroke="midnightblue" points="350.5,-197.751 347,-187.751 343.5,-197.751 350.5,-197.751"/>
</g>
<!-- Node9 -->
<g id="node9" class="node"><title>Node9</title>
<polygon fill="none" stroke="#bfbfbf" points="473.5,-56.5 473.5,-75.5 518.5,-75.5 518.5,-56.5 473.5,-56.5"/>
<text text-anchor="middle" x="496" y="-63.5" font-family="Helvetica,sans-Serif" font-size="10.00">SDL.h</text>
</g>
<!-- Node3&#45;&gt;Node9 -->
<g id="edge30" class="edge"><title>Node3&#45;&gt;Node9</title>
<path fill="none" stroke="midnightblue" d="M369.792,-224.391C387.347,-216.874 411.352,-204.567 428,-188 436.169,-179.871 470.1,-116.326 486.73,-84.7237"/>
<polygon fill="midnightblue" stroke="midnightblue" points="489.919,-86.1776 491.466,-75.6963 483.721,-82.925 489.919,-86.1776"/>
</g>
<!-- Node14 -->
<g id="node14" class="node"><title>Node14</title>
<g id="a_node14"><a xlink:href="WindowManager_8hxx.html" target="_top" xlink:title="../../WindowManager.hxx">
<polygon fill="none" stroke="black" points="523.5,-168.5 523.5,-187.5 654.5,-187.5 654.5,-168.5 523.5,-168.5"/>
<text text-anchor="middle" x="589" y="-175.5" font-family="Helvetica,sans-Serif" font-size="10.00">../../WindowManager.hxx</text>
</a>
</g>
</g>
<!-- Node3&#45;&gt;Node14 -->
<g id="edge18" class="edge"><title>Node3&#45;&gt;Node14</title>
<path fill="none" stroke="midnightblue" d="M385.346,-224.444C427.473,-215.043 495.206,-199.929 540.872,-189.739"/>
<polygon fill="midnightblue" stroke="midnightblue" points="541.836,-193.11 550.834,-187.516 540.312,-186.278 541.836,-193.11"/>
</g>
<!-- Node16 -->
<g id="node16" class="node"><title>Node16</title>
<g id="a_node16"><a xlink:href="signal_8hxx.html" target="_top" xlink:title="../../basics/signal.hxx">
<polygon fill="none" stroke="black" points="745.5,-168.5 745.5,-187.5 860.5,-187.5 860.5,-168.5 745.5,-168.5"/>
<text text-anchor="middle" x="803" y="-175.5" font-family="Helvetica,sans-Serif" font-size="10.00">../../basics/signal.hxx</text>
</a>
</g>
</g>
<!-- Node3&#45;&gt;Node16 -->
<g id="edge24" class="edge"><title>Node3&#45;&gt;Node16</title>
<path fill="none" stroke="midnightblue" d="M411.367,-225.378C497.089,-215.226 648.038,-197.351 735.377,-187.008"/>
<polygon fill="midnightblue" stroke="midnightblue" points="735.925,-190.468 745.444,-185.816 735.102,-183.516 735.925,-190.468"/>
</g>
<!-- Node5&#45;&gt;Node4 -->
<g id="edge5" class="edge"><title>Node5&#45;&gt;Node4</title>
<path fill="none" stroke="midnightblue" d="M91.0686,-168.469C89.2007,-146.851 87.365,-89.2795 116,-56 139.313,-28.9059 180.207,-18.1244 208.853,-13.8345"/>
<polygon fill="midnightblue" stroke="midnightblue" points="209.338,-17.3009 218.798,-12.5295 208.428,-10.3604 209.338,-17.3009"/>
</g>
<!-- Node7 -->
<g id="node7" class="node"><title>Node7</title>
<polygon fill="none" stroke="#bfbfbf" points="482.5,-112.5 482.5,-131.5 541.5,-131.5 541.5,-112.5 482.5,-112.5"/>
<text text-anchor="middle" x="512" y="-119.5" font-family="Helvetica,sans-Serif" font-size="10.00">iostream</text>
</g>
<!-- Node6&#45;&gt;Node7 -->
<g id="edge7" class="edge"><title>Node6&#45;&gt;Node7</title>
<path fill="none" stroke="midnightblue" d="M373.145,-168.444C401.023,-159.32 445.348,-144.813 476.4,-134.651"/>
<polygon fill="midnightblue" stroke="midnightblue" points="477.562,-137.953 485.978,-131.516 475.385,-131.3 477.562,-137.953"/>
</g>
<!-- Node8 -->
<g id="node8" class="node"><title>Node8</title>
<polygon fill="none" stroke="#bfbfbf" points="158.5,-56.5 158.5,-75.5 251.5,-75.5 251.5,-56.5 158.5,-56.5"/>
<text text-anchor="middle" x="205" y="-63.5" font-family="Helvetica,sans-Serif" font-size="10.00">unordered_map</text>
</g>
<!-- Node6&#45;&gt;Node8 -->
<g id="edge8" class="edge"><title>Node6&#45;&gt;Node8</title>
<path fill="none" stroke="midnightblue" d="M334.502,-168.231C321.875,-159.301 301.875,-144.964 285,-132 263.447,-115.442 239.311,-95.6533 223.242,-82.2947"/>
<polygon fill="midnightblue" stroke="midnightblue" points="225.133,-79.3145 215.212,-75.5961 220.649,-84.6897 225.133,-79.3145"/>
</g>
<!-- Node6&#45;&gt;Node9 -->
<g id="edge9" class="edge"><title>Node6&#45;&gt;Node9</title>
<path fill="none" stroke="midnightblue" d="M358.692,-168.368C384.151,-149.573 444.841,-104.768 476.314,-81.5334"/>
<polygon fill="midnightblue" stroke="midnightblue" points="478.396,-84.3466 484.363,-75.5914 474.239,-78.715 478.396,-84.3466"/>
</g>
<!-- Node10 -->
<g id="node10" class="node"><title>Node10</title>
<g id="a_node10"><a xlink:href="TileManager_8hxx.html" target="_top" xlink:title="TileManager.hxx">
<polygon fill="none" stroke="black" points="294.5,-112.5 294.5,-131.5 387.5,-131.5 387.5,-112.5 294.5,-112.5"/>
<text text-anchor="middle" x="341" y="-119.5" font-family="Helvetica,sans-Serif" font-size="10.00">TileManager.hxx</text>
</a>
</g>
</g>
<!-- Node6&#45;&gt;Node10 -->
<g id="edge10" class="edge"><title>Node6&#45;&gt;Node10</title>
<path fill="none" stroke="midnightblue" d="M346.009,-168.083C345.214,-160.927 344.071,-150.635 343.077,-141.691"/>
<polygon fill="midnightblue" stroke="midnightblue" points="346.555,-141.303 341.972,-131.751 339.598,-142.076 346.555,-141.303"/>
</g>
<!-- Node10&#45;&gt;Node4 -->
<g id="edge13" class="edge"><title>Node10&#45;&gt;Node4</title>
<path fill="none" stroke="midnightblue" d="M342.566,-112.079C344.416,-98.6161 345.896,-72.8874 334,-56 319.708,-35.7116 293.699,-24.2089 272.813,-17.9215"/>
<polygon fill="midnightblue" stroke="midnightblue" points="273.615,-14.5123 263.045,-15.2383 271.761,-21.2622 273.615,-14.5123"/>
</g>
<!-- Node10&#45;&gt;Node8 -->
<g id="edge12" class="edge"><title>Node10&#45;&gt;Node8</title>
<path fill="none" stroke="midnightblue" d="M319.45,-112.444C296.969,-103.517 261.512,-89.4387 236.02,-79.3168"/>
<polygon fill="midnightblue" stroke="midnightblue" points="237.035,-75.9539 226.449,-75.5164 234.451,-82.4598 237.035,-75.9539"/>
</g>
<!-- Node10&#45;&gt;Node9 -->
<g id="edge11" class="edge"><title>Node10&#45;&gt;Node9</title>
<path fill="none" stroke="midnightblue" d="M365.56,-112.444C391.981,-103.239 434.125,-88.5565 463.328,-78.3826"/>
<polygon fill="midnightblue" stroke="midnightblue" points="464.779,-81.5835 473.071,-74.9883 462.476,-74.9731 464.779,-81.5835"/>
</g>
<!-- Node11 -->
<g id="node11" class="node"><title>Node11</title>
<g id="a_node11"><a xlink:href="tileData_8hxx.html" target="_top" xlink:title="tileData.hxx">
<polygon fill="none" stroke="black" points="381,-56.5 381,-75.5 455,-75.5 455,-56.5 381,-56.5"/>
<text text-anchor="middle" x="418" y="-63.5" font-family="Helvetica,sans-Serif" font-size="10.00">tileData.hxx</text>
</a>
</g>
</g>
<!-- Node10&#45;&gt;Node11 -->
<g id="edge14" class="edge"><title>Node10&#45;&gt;Node11</title>
<path fill="none" stroke="midnightblue" d="M353.371,-112.324C365.158,-104.058 383.132,-91.4527 397.136,-81.6322"/>
<polygon fill="midnightblue" stroke="midnightblue" points="399.482,-84.2619 405.659,-75.6545 395.462,-78.5307 399.482,-84.2619"/>
</g>
<!-- Node12 -->
<g id="node12" class="node"><title>Node12</title>
<polygon fill="none" stroke="#bfbfbf" points="269,-56.5 269,-75.5 325,-75.5 325,-56.5 269,-56.5"/>
<text text-anchor="middle" x="297" y="-63.5" font-family="Helvetica,sans-Serif" font-size="10.00">json.hxx</text>
</g>
<!-- Node10&#45;&gt;Node12 -->
<g id="edge16" class="edge"><title>Node10&#45;&gt;Node12</title>
<path fill="none" stroke="midnightblue" d="M333.734,-112.083C327.455,-104.377 318.212,-93.0333 310.569,-83.6531"/>
<polygon fill="midnightblue" stroke="midnightblue" points="313.161,-81.2926 304.131,-75.7511 307.734,-85.7143 313.161,-81.2926"/>
</g>
<!-- Node13 -->
<g id="node13" class="node"><title>Node13</title>
<g id="a_node13"><a xlink:href="Singleton_8hxx.html" target="_top" xlink:title="Singleton.hxx">
<polygon fill="none" stroke="black" points="536.5,-56.5 536.5,-75.5 617.5,-75.5 617.5,-56.5 536.5,-56.5"/>
<text text-anchor="middle" x="577" y="-63.5" font-family="Helvetica,sans-Serif" font-size="10.00">Singleton.hxx</text>
</a>
</g>
</g>
<!-- Node10&#45;&gt;Node13 -->
<g id="edge17" class="edge"><title>Node10&#45;&gt;Node13</title>
<path fill="none" stroke="midnightblue" d="M378.395,-112.444C419.392,-103.063 485.254,-87.9926 529.784,-77.8036"/>
<polygon fill="midnightblue" stroke="midnightblue" points="530.813,-81.1588 539.78,-75.5164 529.251,-74.3352 530.813,-81.1588"/>
</g>
<!-- Node11&#45;&gt;Node4 -->
<g id="edge15" class="edge"><title>Node11&#45;&gt;Node4</title>
<path fill="none" stroke="midnightblue" d="M389.954,-56.4435C358.063,-46.7141 306.111,-30.8642 272.755,-20.688"/>
<polygon fill="midnightblue" stroke="midnightblue" points="273.629,-17.2955 263.043,-17.7251 271.587,-23.9909 273.629,-17.2955"/>
</g>
<!-- Node14&#45;&gt;Node4 -->
<g id="edge19" class="edge"><title>Node14&#45;&gt;Node4</title>
<path fill="none" stroke="midnightblue" d="M596.647,-168.195C614.607,-146.436 655.791,-89.4764 626,-56 602.675,-29.7896 361.844,-16.4193 273.371,-12.3634"/>
<polygon fill="midnightblue" stroke="midnightblue" points="273.269,-8.85542 263.123,-11.9043 272.956,-15.8484 273.269,-8.85542"/>
</g>
<!-- Node14&#45;&gt;Node7 -->
<g id="edge20" class="edge"><title>Node14&#45;&gt;Node7</title>
<path fill="none" stroke="midnightblue" d="M576.629,-168.324C564.842,-160.058 546.868,-147.453 532.864,-137.632"/>
<polygon fill="midnightblue" stroke="midnightblue" points="534.538,-134.531 524.341,-131.655 530.518,-140.262 534.538,-134.531"/>
</g>
<!-- Node14&#45;&gt;Node9 -->
<g id="edge22" class="edge"><title>Node14&#45;&gt;Node9</title>
<path fill="none" stroke="midnightblue" d="M585.013,-168.406C578.719,-155.37 565.58,-130.191 550,-112 540.228,-100.591 527.369,-89.7494 516.65,-81.5676"/>
<polygon fill="midnightblue" stroke="midnightblue" points="518.732,-78.7543 508.613,-75.6161 514.567,-84.3799 518.732,-78.7543"/>
</g>
<!-- Node14&#45;&gt;Node13 -->
<g id="edge23" class="edge"><title>Node14&#45;&gt;Node13</title>
<path fill="none" stroke="midnightblue" d="M588.537,-168.148C587.833,-155.62 586.323,-132.012 584,-112 582.985,-103.253 581.528,-93.5994 580.206,-85.4838"/>
<polygon fill="midnightblue" stroke="midnightblue" points="583.654,-84.8794 578.541,-75.5998 576.751,-86.0423 583.654,-84.8794"/>
</g>
<!-- Node15 -->
<g id="node15" class="node"><title>Node15</title>
<polygon fill="none" stroke="#bfbfbf" points="674.5,-112.5 674.5,-131.5 721.5,-131.5 721.5,-112.5 674.5,-112.5"/>
<text text-anchor="middle" x="698" y="-119.5" font-family="Helvetica,sans-Serif" font-size="10.00">vector</text>
</g>
<!-- Node14&#45;&gt;Node15 -->
<g id="edge21" class="edge"><title>Node14&#45;&gt;Node15</title>
<path fill="none" stroke="midnightblue" d="M606.513,-168.324C624.072,-159.625 651.331,-146.12 671.531,-136.113"/>
<polygon fill="midnightblue" stroke="midnightblue" points="673.124,-139.23 680.531,-131.655 670.016,-132.958 673.124,-139.23"/>
</g>
<!-- Node16&#45;&gt;Node15 -->
<g id="edge28" class="edge"><title>Node16&#45;&gt;Node15</title>
<path fill="none" stroke="midnightblue" d="M786.13,-168.324C769.291,-159.664 743.193,-146.242 723.762,-136.249"/>
<polygon fill="midnightblue" stroke="midnightblue" points="725.322,-133.116 714.828,-131.655 722.12,-139.341 725.322,-133.116"/>
</g>
<!-- Node17 -->
<g id="node17" class="node"><title>Node17</title>
<polygon fill="none" stroke="#bfbfbf" points="949.5,-112.5 949.5,-131.5 1006.5,-131.5 1006.5,-112.5 949.5,-112.5"/>
<text text-anchor="middle" x="978" y="-119.5" font-family="Helvetica,sans-Serif" font-size="10.00">memory</text>
</g>
<!-- Node16&#45;&gt;Node17 -->
<g id="edge25" class="edge"><title>Node16&#45;&gt;Node17</title>
<path fill="none" stroke="midnightblue" d="M830.729,-168.444C860.426,-159.28 907.716,-144.688 940.669,-134.519"/>
<polygon fill="midnightblue" stroke="midnightblue" points="941.877,-137.809 950.4,-131.516 939.813,-131.121 941.877,-137.809"/>
</g>
<!-- Node18 -->
<g id="node18" class="node"><title>Node18</title>
<polygon fill="none" stroke="#bfbfbf" points="739.5,-112.5 739.5,-131.5 802.5,-131.5 802.5,-112.5 739.5,-112.5"/>
<text text-anchor="middle" x="771" y="-119.5" font-family="Helvetica,sans-Serif" font-size="10.00">functional</text>
</g>
<!-- Node16&#45;&gt;Node18 -->
<g id="edge26" class="edge"><title>Node16&#45;&gt;Node18</title>
<path fill="none" stroke="midnightblue" d="M797.716,-168.083C793.289,-160.613 786.837,-149.724 781.382,-140.52"/>
<polygon fill="midnightblue" stroke="midnightblue" points="784.295,-138.57 776.186,-131.751 778.273,-142.138 784.295,-138.57"/>
</g>
<!-- Node19 -->
<g id="node19" class="node"><title>Node19</title>
<polygon fill="none" stroke="#bfbfbf" points="821,-112.5 821,-131.5 851,-131.5 851,-112.5 821,-112.5"/>
<text text-anchor="middle" x="836" y="-119.5" font-family="Helvetica,sans-Serif" font-size="10.00">list</text>
</g>
<!-- Node16&#45;&gt;Node19 -->
<g id="edge27" class="edge"><title>Node16&#45;&gt;Node19</title>
<path fill="none" stroke="midnightblue" d="M808.449,-168.083C813.014,-160.613 819.668,-149.724 825.293,-140.52"/>
<polygon fill="midnightblue" stroke="midnightblue" points="828.424,-142.109 830.652,-131.751 822.451,-138.459 828.424,-142.109"/>
</g>
<!-- Node20 -->
<g id="node20" class="node"><title>Node20</title>
<polygon fill="none" stroke="#bfbfbf" points="869,-112.5 869,-131.5 931,-131.5 931,-112.5 869,-112.5"/>
<text text-anchor="middle" x="900" y="-119.5" font-family="Helvetica,sans-Serif" font-size="10.00">algorithm</text>
</g>
<!-- Node16&#45;&gt;Node20 -->
<g id="edge29" class="edge"><title>Node16&#45;&gt;Node20</title>
<path fill="none" stroke="midnightblue" d="M818.585,-168.324C833.999,-159.743 857.812,-146.486 875.71,-136.522"/>
<polygon fill="midnightblue" stroke="midnightblue" points="877.419,-139.577 884.454,-131.655 874.014,-133.461 877.419,-139.577"/>
</g>
<!-- Node21&#45;&gt;Node3 -->
<g id="edge33" class="edge"><title>Node21&#45;&gt;Node3</title>
<path fill="none" stroke="midnightblue" d="M295.801,-280.324C304.818,-272.341 318.406,-260.313 329.318,-250.653"/>
<polygon fill="midnightblue" stroke="midnightblue" points="331.853,-253.083 337.021,-243.834 327.213,-247.842 331.853,-253.083"/>
</g>
<!-- Node21&#45;&gt;Node4 -->
<g id="edge32" class="edge"><title>Node21&#45;&gt;Node4</title>
<path fill="none" stroke="midnightblue" d="M258.317,-284.459C186.542,-271.907 0,-233.994 0,-179 0,-179 0,-179 0,-121 0,-30.3803 142.76,-14.0918 208.529,-11.3961"/>
<polygon fill="midnightblue" stroke="midnightblue" points="208.879,-14.8866 218.759,-11.0618 208.65,-7.89034 208.879,-14.8866"/>
</g>
</g>
</svg>
