<?xml version="1.0" encoding="UTF-8" standalone="no"?>
<!DOCTYPE svg PUBLIC "-//W3C//DTD SVG 1.1//EN"
 "http://www.w3.org/Graphics/SVG/1.1/DTD/svg11.dtd">
<!-- Generated by graphviz version 2.38.0 (20140413.2041)
 -->
<!-- Title: src/engine/ui/widgets/Text.cxx Pages: 1 -->
<!--zoomable 375 -->
<svg id="main" version="1.1" xmlns="http://www.w3.org/2000/svg" xmlns:xlink="http://www.w3.org/1999/xlink" xml:space="preserve" onload="init(evt)">
<style type="text/css"><![CDATA[
.edge:hover path { stroke: red; }
.edge:hover polygon { stroke: red; fill: red; }
]]></style>
<script type="text/javascript"><![CDATA[
var edges = document.getElementsByTagName('g');
if (edges && edges.length) {
  for (var i=0;i<edges.length;i++) {
    if (edges[i].id.substr(0,4)=='edge') {
      edges[i].setAttribute('class','edge');
    }
  }
}
]]></script>
        <defs>
                <circle id="rim" cx="0" cy="0" r="7"/>
                <circle id="rim2" cx="0" cy="0" r="3.5"/>
                <g id="zoomPlus">
                        <use xlink:href="#rim" fill="#404040">
                                <set attributeName="fill" to="#808080" begin="zoomplus.mouseover" end="zoomplus.mouseout"/>
                        </use>
                        <path d="M-4,0h8M0,-4v8" fill="none" stroke="white" stroke-width="1.5" pointer-events="none"/>
                </g>
                <g id="zoomMin">
                        <use xlink:href="#rim" fill="#404040">
                                <set attributeName="fill" to="#808080" begin="zoomminus.mouseover" end="zoomminus.mouseout"/>
                        </use>
                        <path d="M-4,0h8" fill="none" stroke="white" stroke-width="1.5" pointer-events="none"/>
                </g>
                <g id="dirArrow">
                        <path fill="none" stroke="white" stroke-width="1.5" d="M0,-3.0v7 M-2.5,-0.5L0,-3.0L2.5,-0.5"/>
                </g>
               <g id="resetDef">
                       <use xlink:href="#rim2" fill="#404040">
                               <set attributeName="fill" to="#808080" begin="reset.mouseover" end="reset.mouseout"/>
                       </use>
               </g>
        </defs>

<script type="text/javascript">
var viewWidth = 1255;
var viewHeight = 375;
var sectionId = 'dynsection-0';
</script>
<script xlink:href="svgpan.js"/>
<svg id="graph" class="graph">
<g id="viewport">
<title>src/engine/ui/widgets/Text.cxx</title>
<!-- Node1 -->
<g id="node1" class="node"><title>Node1</title>
<polygon fill="#bfbfbf" stroke="black" points="531.219,-336.5 531.219,-366.5 647.219,-366.5 647.219,-336.5 531.219,-336.5"/>
<text text-anchor="start" x="539.219" y="-354.5" font-family="Helvetica,sans-Serif" font-size="10.00">src/engine/ui/widgets</text>
<text text-anchor="middle" x="589.219" y="-343.5" font-family="Helvetica,sans-Serif" font-size="10.00">/Text.cxx</text>
</g>
<!-- Node2 -->
<g id="node2" class="node"><title>Node2</title>
<g id="a_node2"><a xlink:href="Text_8hxx.html" target="_top" xlink:title="Text.hxx">
<polygon fill="none" stroke="black" points="515.719,-280.5 515.719,-299.5 570.719,-299.5 570.719,-280.5 515.719,-280.5"/>
<text text-anchor="middle" x="543.219" y="-287.5" font-family="Helvetica,sans-Serif" font-size="10.00">Text.hxx</text>
</a>
</g>
</g>
<!-- Node1&#45;&gt;Node2 -->
<g id="edge1" class="edge"><title>Node1&#45;&gt;Node2</title>
<path fill="none" stroke="midnightblue" d="M578.317,-336.399C571.633,-327.753 563.043,-316.642 556.034,-307.576"/>
<polygon fill="midnightblue" stroke="midnightblue" points="558.798,-305.428 549.912,-299.658 553.26,-309.71 558.798,-305.428"/>
</g>
<!-- Node21 -->
<g id="node21" class="node"><title>Node21</title>
<g id="a_node21"><a xlink:href="LOG_8hxx.html" target="_top" xlink:title="LOG.hxx">
<polygon fill="none" stroke="black" points="988.219,-168.5 988.219,-187.5 1044.22,-187.5 1044.22,-168.5 988.219,-168.5"/>
<text text-anchor="middle" x="1016.22" y="-175.5" font-family="Helvetica,sans-Serif" font-size="10.00">LOG.hxx</text>
</a>
</g>
</g>
<!-- Node1&#45;&gt;Node21 -->
<g id="edge32" class="edge"><title>Node1&#45;&gt;Node21</title>
<path fill="none" stroke="midnightblue" d="M598.523,-336.41C609.823,-320.396 630.361,-294.596 654.219,-280 760.1,-215.225 908.517,-190.947 977.785,-182.747"/>
<polygon fill="midnightblue" stroke="midnightblue" points="978.269,-186.215 987.81,-181.609 977.479,-179.26 978.269,-186.215"/>
</g>
<!-- Node26 -->
<g id="node26" class="node"><title>Node26</title>
<g id="a_node26"><a xlink:href="Settings_8hxx.html" target="_top" xlink:title="Settings.hxx">
<polygon fill="none" stroke="black" points="13.2188,-112.5 13.2188,-131.5 89.2188,-131.5 89.2188,-112.5 13.2188,-112.5"/>
<text text-anchor="middle" x="51.2188" y="-119.5" font-family="Helvetica,sans-Serif" font-size="10.00">Settings.hxx</text>
</a>
</g>
</g>
<!-- Node1&#45;&gt;Node26 -->
<g id="edge39" class="edge"><title>Node1&#45;&gt;Node26</title>
<path fill="none" stroke="midnightblue" d="M530.832,-348.194C425.869,-340.945 204.246,-311.039 75.2188,-188 62.4541,-175.828 56.4383,-156.276 53.628,-141.791"/>
<polygon fill="midnightblue" stroke="midnightblue" points="57.0826,-141.228 52.045,-131.908 50.1707,-142.336 57.0826,-141.228"/>
</g>
<!-- Node27 -->
<g id="node27" class="node"><title>Node27</title>
<polygon fill="none" stroke="#bfbfbf" points="663.219,-280.5 663.219,-299.5 723.219,-299.5 723.219,-280.5 663.219,-280.5"/>
<text text-anchor="middle" x="693.219" y="-287.5" font-family="Helvetica,sans-Serif" font-size="10.00">SDL_ttf.h</text>
</g>
<!-- Node1&#45;&gt;Node27 -->
<g id="edge42" class="edge"><title>Node1&#45;&gt;Node27</title>
<path fill="none" stroke="midnightblue" d="M613.865,-336.399C630.536,-326.862 652.449,-314.325 669.024,-304.842"/>
<polygon fill="midnightblue" stroke="midnightblue" points="671.144,-307.662 678.086,-299.658 667.668,-301.586 671.144,-307.662"/>
</g>
<!-- Node3 -->
<g id="node3" class="node"><title>Node3</title>
<polygon fill="none" stroke="#bfbfbf" points="469.219,-0.5 469.219,-19.5 513.219,-19.5 513.219,-0.5 469.219,-0.5"/>
<text text-anchor="middle" x="491.219" y="-7.5" font-family="Helvetica,sans-Serif" font-size="10.00">string</text>
</g>
<!-- Node2&#45;&gt;Node3 -->
<g id="edge2" class="edge"><title>Node2&#45;&gt;Node3</title>
<path fill="none" stroke="midnightblue" d="M515.614,-286.127C412.133,-274.656 50.7826,-228.031 4.21877,-132 -19.834,-82.3949 70.9558,-58.5111 77.2188,-56 146.64,-28.1661 374.272,-15.9294 459.035,-12.2594"/>
<polygon fill="midnightblue" stroke="midnightblue" points="459.259,-15.7531 469.103,-11.835 458.964,-8.75934 459.259,-15.7531"/>
</g>
<!-- Node4 -->
<g id="node4" class="node"><title>Node4</title>
<g id="a_node4"><a xlink:href="UIElement_8hxx.html" target="_top" xlink:title="../basics/UIElement.hxx">
<polygon fill="none" stroke="black" points="479.219,-224.5 479.219,-243.5 607.219,-243.5 607.219,-224.5 479.219,-224.5"/>
<text text-anchor="middle" x="543.219" y="-231.5" font-family="Helvetica,sans-Serif" font-size="10.00">../basics/UIElement.hxx</text>
</a>
</g>
</g>
<!-- Node2&#45;&gt;Node4 -->
<g id="edge3" class="edge"><title>Node2&#45;&gt;Node4</title>
<path fill="none" stroke="midnightblue" d="M543.219,-280.083C543.219,-273.006 543.219,-262.861 543.219,-253.986"/>
<polygon fill="midnightblue" stroke="midnightblue" points="546.719,-253.751 543.219,-243.751 539.719,-253.751 546.719,-253.751"/>
</g>
<!-- Node4&#45;&gt;Node3 -->
<g id="edge4" class="edge"><title>Node4&#45;&gt;Node3</title>
<path fill="none" stroke="midnightblue" d="M607.26,-229.002C703.412,-222.386 876.027,-207.889 896.219,-188 920.416,-164.166 908.93,-145.636 904.219,-112 900.629,-86.3654 907.972,-72.7285 888.219,-56 860.529,-32.5499 612.878,-17.3707 523.339,-12.6082"/>
<polygon fill="midnightblue" stroke="midnightblue" points="523.398,-9.10662 513.229,-12.0792 523.032,-16.0971 523.398,-9.10662"/>
</g>
<!-- Node5 -->
<g id="node5" class="node"><title>Node5</title>
<g id="a_node5"><a xlink:href="mapEdit_8hxx.html" target="_top" xlink:title="../../basics/mapEdit.hxx">
<polygon fill="none" stroke="black" points="84.7188,-168.5 84.7188,-187.5 211.719,-187.5 211.719,-168.5 84.7188,-168.5"/>
<text text-anchor="middle" x="148.219" y="-175.5" font-family="Helvetica,sans-Serif" font-size="10.00">../../basics/mapEdit.hxx</text>
</a>
</g>
</g>
<!-- Node4&#45;&gt;Node5 -->
<g id="edge5" class="edge"><title>Node4&#45;&gt;Node5</title>
<path fill="none" stroke="midnightblue" d="M480.63,-224.444C409.99,-214.786 295.242,-199.099 220.75,-188.916"/>
<polygon fill="midnightblue" stroke="midnightblue" points="220.897,-185.403 210.515,-187.516 219.949,-192.339 220.897,-185.403"/>
</g>
<!-- Node6 -->
<g id="node6" class="node"><title>Node6</title>
<g id="a_node6"><a xlink:href="ResourcesManager_8hxx.html" target="_top" xlink:title="../../ResourcesManager.hxx">
<polygon fill="none" stroke="black" points="743.219,-168.5 743.219,-187.5 887.219,-187.5 887.219,-168.5 743.219,-168.5"/>
<text text-anchor="middle" x="815.219" y="-175.5" font-family="Helvetica,sans-Serif" font-size="10.00">../../ResourcesManager.hxx</text>
</a>
</g>
</g>
<!-- Node4&#45;&gt;Node6 -->
<g id="edge7" class="edge"><title>Node4&#45;&gt;Node6</title>
<path fill="none" stroke="midnightblue" d="M586.318,-224.444C634.066,-214.964 711.079,-199.675 762.413,-189.483"/>
<polygon fill="midnightblue" stroke="midnightblue" points="763.194,-192.897 772.321,-187.516 761.831,-186.031 763.194,-192.897"/>
</g>
<!-- Node9 -->
<g id="node9" class="node"><title>Node9</title>
<polygon fill="none" stroke="#bfbfbf" points="833.719,-56.5 833.719,-75.5 878.719,-75.5 878.719,-56.5 833.719,-56.5"/>
<text text-anchor="middle" x="856.219" y="-63.5" font-family="Helvetica,sans-Serif" font-size="10.00">SDL.h</text>
</g>
<!-- Node4&#45;&gt;Node9 -->
<g id="edge31" class="edge"><title>Node4&#45;&gt;Node9</title>
<path fill="none" stroke="midnightblue" d="M559.606,-224.309C610.947,-197.08 768.934,-113.292 830.903,-80.4261"/>
<polygon fill="midnightblue" stroke="midnightblue" points="832.799,-83.3826 839.993,-75.6051 829.519,-77.1985 832.799,-83.3826"/>
</g>
<!-- Node14 -->
<g id="node14" class="node"><title>Node14</title>
<g id="a_node14"><a xlink:href="WindowManager_8hxx.html" target="_top" xlink:title="../../WindowManager.hxx">
<polygon fill="none" stroke="black" points="477.719,-168.5 477.719,-187.5 608.719,-187.5 608.719,-168.5 477.719,-168.5"/>
<text text-anchor="middle" x="543.219" y="-175.5" font-family="Helvetica,sans-Serif" font-size="10.00">../../WindowManager.hxx</text>
</a>
</g>
</g>
<!-- Node4&#45;&gt;Node14 -->
<g id="edge19" class="edge"><title>Node4&#45;&gt;Node14</title>
<path fill="none" stroke="midnightblue" d="M543.219,-224.083C543.219,-217.006 543.219,-206.861 543.219,-197.986"/>
<polygon fill="midnightblue" stroke="midnightblue" points="546.719,-197.751 543.219,-187.751 539.719,-197.751 546.719,-197.751"/>
</g>
<!-- Node16 -->
<g id="node16" class="node"><title>Node16</title>
<g id="a_node16"><a xlink:href="signal_8hxx.html" target="_top" xlink:title="../../basics/signal.hxx">
<polygon fill="none" stroke="black" points="291.719,-168.5 291.719,-187.5 406.719,-187.5 406.719,-168.5 291.719,-168.5"/>
<text text-anchor="middle" x="349.219" y="-175.5" font-family="Helvetica,sans-Serif" font-size="10.00">../../basics/signal.hxx</text>
</a>
</g>
</g>
<!-- Node4&#45;&gt;Node16 -->
<g id="edge25" class="edge"><title>Node4&#45;&gt;Node16</title>
<path fill="none" stroke="midnightblue" d="M512.479,-224.444C479.275,-215.201 426.228,-200.436 389.661,-190.257"/>
<polygon fill="midnightblue" stroke="midnightblue" points="390.387,-186.826 379.815,-187.516 388.51,-193.57 390.387,-186.826"/>
</g>
<!-- Node5&#45;&gt;Node3 -->
<g id="edge6" class="edge"><title>Node5&#45;&gt;Node3</title>
<path fill="none" stroke="midnightblue" d="M142.885,-168.466C135.26,-155.057 123.494,-128.85 136.219,-112 175.762,-59.6367 379.245,-26.4136 459.049,-15.2198"/>
<polygon fill="midnightblue" stroke="midnightblue" points="459.596,-18.6776 469.025,-13.8455 458.64,-11.7431 459.596,-18.6776"/>
</g>
<!-- Node7 -->
<g id="node7" class="node"><title>Node7</title>
<polygon fill="none" stroke="#bfbfbf" points="835.719,-112.5 835.719,-131.5 894.719,-131.5 894.719,-112.5 835.719,-112.5"/>
<text text-anchor="middle" x="865.219" y="-119.5" font-family="Helvetica,sans-Serif" font-size="10.00">iostream</text>
</g>
<!-- Node6&#45;&gt;Node7 -->
<g id="edge8" class="edge"><title>Node6&#45;&gt;Node7</title>
<path fill="none" stroke="midnightblue" d="M823.475,-168.083C830.683,-160.298 841.329,-148.801 850.065,-139.367"/>
<polygon fill="midnightblue" stroke="midnightblue" points="852.89,-141.467 857.116,-131.751 847.754,-136.711 852.89,-141.467"/>
</g>
<!-- Node8 -->
<g id="node8" class="node"><title>Node8</title>
<polygon fill="none" stroke="#bfbfbf" points="722.719,-56.5 722.719,-75.5 815.719,-75.5 815.719,-56.5 722.719,-56.5"/>
<text text-anchor="middle" x="769.219" y="-63.5" font-family="Helvetica,sans-Serif" font-size="10.00">unordered_map</text>
</g>
<!-- Node6&#45;&gt;Node8 -->
<g id="edge9" class="edge"><title>Node6&#45;&gt;Node8</title>
<path fill="none" stroke="midnightblue" d="M811.609,-168.368C804.119,-150.456 786.75,-108.923 776.724,-84.9482"/>
<polygon fill="midnightblue" stroke="midnightblue" points="779.899,-83.4669 772.812,-75.5914 773.441,-86.1676 779.899,-83.4669"/>
</g>
<!-- Node6&#45;&gt;Node9 -->
<g id="edge10" class="edge"><title>Node6&#45;&gt;Node9</title>
<path fill="none" stroke="midnightblue" d="M815.751,-168.292C816.765,-155.536 819.605,-131.201 827.219,-112 831.152,-102.082 837.389,-92.0099 843.073,-83.9165"/>
<polygon fill="midnightblue" stroke="midnightblue" points="845.988,-85.86 849.103,-75.7332 840.353,-81.7074 845.988,-85.86"/>
</g>
<!-- Node10 -->
<g id="node10" class="node"><title>Node10</title>
<g id="a_node10"><a xlink:href="TileManager_8hxx.html" target="_top" xlink:title="TileManager.hxx">
<polygon fill="none" stroke="black" points="571.719,-112.5 571.719,-131.5 664.719,-131.5 664.719,-112.5 571.719,-112.5"/>
<text text-anchor="middle" x="618.219" y="-119.5" font-family="Helvetica,sans-Serif" font-size="10.00">TileManager.hxx</text>
</a>
</g>
</g>
<!-- Node6&#45;&gt;Node10 -->
<g id="edge11" class="edge"><title>Node6&#45;&gt;Node10</title>
<path fill="none" stroke="midnightblue" d="M784.004,-168.444C750.286,-159.201 696.419,-144.436 659.287,-134.257"/>
<polygon fill="midnightblue" stroke="midnightblue" points="659.857,-130.785 649.288,-131.516 658.007,-137.536 659.857,-130.785"/>
</g>
<!-- Node10&#45;&gt;Node3 -->
<g id="edge14" class="edge"><title>Node10&#45;&gt;Node3</title>
<path fill="none" stroke="midnightblue" d="M602.337,-112.499C587.553,-104.202 565.294,-90.7098 548.219,-76 531.242,-61.3748 514.68,-41.7009 503.823,-27.8413"/>
<polygon fill="midnightblue" stroke="midnightblue" points="506.429,-25.4883 497.566,-19.6846 500.876,-29.7491 506.429,-25.4883"/>
</g>
<!-- Node10&#45;&gt;Node8 -->
<g id="edge13" class="edge"><title>Node10&#45;&gt;Node8</title>
<path fill="none" stroke="midnightblue" d="M642.145,-112.444C667.437,-103.399 707.521,-89.064 735.899,-78.9158"/>
<polygon fill="midnightblue" stroke="midnightblue" points="737.167,-82.1794 745.404,-75.5164 734.81,-75.5882 737.167,-82.1794"/>
</g>
<!-- Node10&#45;&gt;Node9 -->
<g id="edge12" class="edge"><title>Node10&#45;&gt;Node9</title>
<path fill="none" stroke="midnightblue" d="M661.635,-112.463C701.526,-104.418 762.489,-91.6186 823.749,-76.254"/>
<polygon fill="midnightblue" stroke="midnightblue" points="824.745,-79.6125 833.581,-73.7664 823.028,-72.8264 824.745,-79.6125"/>
</g>
<!-- Node11 -->
<g id="node11" class="node"><title>Node11</title>
<g id="a_node11"><a xlink:href="tileData_8hxx.html" target="_top" xlink:title="tileData.hxx">
<polygon fill="none" stroke="black" points="557.219,-56.5 557.219,-75.5 631.219,-75.5 631.219,-56.5 557.219,-56.5"/>
<text text-anchor="middle" x="594.219" y="-63.5" font-family="Helvetica,sans-Serif" font-size="10.00">tileData.hxx</text>
</a>
</g>
</g>
<!-- Node10&#45;&gt;Node11 -->
<g id="edge15" class="edge"><title>Node10&#45;&gt;Node11</title>
<path fill="none" stroke="midnightblue" d="M614.256,-112.083C611.005,-104.77 606.299,-94.1814 602.265,-85.1034"/>
<polygon fill="midnightblue" stroke="midnightblue" points="605.368,-83.4677 598.108,-75.7511 598.971,-86.3107 605.368,-83.4677"/>
</g>
<!-- Node12 -->
<g id="node12" class="node"><title>Node12</title>
<polygon fill="none" stroke="#bfbfbf" points="649.219,-56.5 649.219,-75.5 705.219,-75.5 705.219,-56.5 649.219,-56.5"/>
<text text-anchor="middle" x="677.219" y="-63.5" font-family="Helvetica,sans-Serif" font-size="10.00">json.hxx</text>
</g>
<!-- Node10&#45;&gt;Node12 -->
<g id="edge17" class="edge"><title>Node10&#45;&gt;Node12</title>
<path fill="none" stroke="midnightblue" d="M627.698,-112.324C636.42,-104.341 649.562,-92.3128 660.117,-82.6529"/>
<polygon fill="midnightblue" stroke="midnightblue" points="662.553,-85.1674 667.567,-75.8339 657.827,-80.0036 662.553,-85.1674"/>
</g>
<!-- Node13 -->
<g id="node13" class="node"><title>Node13</title>
<g id="a_node13"><a xlink:href="Singleton_8hxx.html" target="_top" xlink:title="Singleton.hxx">
<polygon fill="none" stroke="black" points="381.719,-56.5 381.719,-75.5 462.719,-75.5 462.719,-56.5 381.719,-56.5"/>
<text text-anchor="middle" x="422.219" y="-63.5" font-family="Helvetica,sans-Serif" font-size="10.00">Singleton.hxx</text>
</a>
</g>
</g>
<!-- Node10&#45;&gt;Node13 -->
<g id="edge18" class="edge"><title>Node10&#45;&gt;Node13</title>
<path fill="none" stroke="midnightblue" d="M587.162,-112.444C553.615,-103.201 500.022,-88.4356 463.078,-78.2572"/>
<polygon fill="midnightblue" stroke="midnightblue" points="463.701,-74.7984 453.13,-75.5164 461.841,-81.5469 463.701,-74.7984"/>
</g>
<!-- Node11&#45;&gt;Node3 -->
<g id="edge16" class="edge"><title>Node11&#45;&gt;Node3</title>
<path fill="none" stroke="midnightblue" d="M577.67,-56.324C561.227,-47.7034 535.784,-34.3643 516.75,-24.3855"/>
<polygon fill="midnightblue" stroke="midnightblue" points="518.208,-21.198 507.726,-19.6545 514.958,-27.3977 518.208,-21.198"/>
</g>
<!-- Node14&#45;&gt;Node3 -->
<g id="edge20" class="edge"><title>Node14&#45;&gt;Node3</title>
<path fill="none" stroke="midnightblue" d="M540.423,-168.075C532.202,-141.832 507.992,-64.5453 496.894,-29.1165"/>
<polygon fill="midnightblue" stroke="midnightblue" points="500.232,-28.0646 493.903,-19.5681 493.552,-30.1571 500.232,-28.0646"/>
</g>
<!-- Node14&#45;&gt;Node7 -->
<g id="edge21" class="edge"><title>Node14&#45;&gt;Node7</title>
<path fill="none" stroke="midnightblue" d="M594.241,-168.444C658.48,-157.67 767.465,-139.393 825.722,-129.624"/>
<polygon fill="midnightblue" stroke="midnightblue" points="826.363,-133.065 835.647,-127.959 825.205,-126.162 826.363,-133.065"/>
</g>
<!-- Node14&#45;&gt;Node9 -->
<g id="edge23" class="edge"><title>Node14&#45;&gt;Node9</title>
<path fill="none" stroke="midnightblue" d="M570.128,-168.499C596.607,-159.944 638.063,-146.039 673.219,-132 693.168,-124.034 697.19,-119.765 717.219,-112 736.807,-104.406 789.243,-87.7983 823.817,-77.0215"/>
<polygon fill="midnightblue" stroke="midnightblue" points="824.975,-80.3268 833.485,-74.0149 822.897,-73.6426 824.975,-80.3268"/>
</g>
<!-- Node14&#45;&gt;Node13 -->
<g id="edge24" class="edge"><title>Node14&#45;&gt;Node13</title>
<path fill="none" stroke="midnightblue" d="M536.618,-168.454C526.379,-155.48 505.707,-130.382 485.219,-112 472.579,-100.66 457.072,-89.5533 444.605,-81.2113"/>
<polygon fill="midnightblue" stroke="midnightblue" points="446.43,-78.2226 436.15,-75.6618 442.589,-84.0748 446.43,-78.2226"/>
</g>
<!-- Node15 -->
<g id="node15" class="node"><title>Node15</title>
<polygon fill="none" stroke="#bfbfbf" points="429.719,-112.5 429.719,-131.5 476.719,-131.5 476.719,-112.5 429.719,-112.5"/>
<text text-anchor="middle" x="453.219" y="-119.5" font-family="Helvetica,sans-Serif" font-size="10.00">vector</text>
</g>
<!-- Node14&#45;&gt;Node15 -->
<g id="edge22" class="edge"><title>Node14&#45;&gt;Node15</title>
<path fill="none" stroke="midnightblue" d="M528.759,-168.324C514.719,-159.9 493.17,-146.971 476.676,-137.074"/>
<polygon fill="midnightblue" stroke="midnightblue" points="478.019,-133.798 467.643,-131.655 474.417,-139.801 478.019,-133.798"/>
</g>
<!-- Node16&#45;&gt;Node15 -->
<g id="edge29" class="edge"><title>Node16&#45;&gt;Node15</title>
<path fill="none" stroke="midnightblue" d="M365.928,-168.324C382.531,-159.703 408.221,-146.364 427.439,-136.386"/>
<polygon fill="midnightblue" stroke="midnightblue" points="429.289,-139.369 436.551,-131.655 426.063,-133.156 429.289,-139.369"/>
</g>
<!-- Node17 -->
<g id="node17" class="node"><title>Node17</title>
<polygon fill="none" stroke="#bfbfbf" points="273.719,-112.5 273.719,-131.5 330.719,-131.5 330.719,-112.5 273.719,-112.5"/>
<text text-anchor="middle" x="302.219" y="-119.5" font-family="Helvetica,sans-Serif" font-size="10.00">memory</text>
</g>
<!-- Node16&#45;&gt;Node17 -->
<g id="edge26" class="edge"><title>Node16&#45;&gt;Node17</title>
<path fill="none" stroke="midnightblue" d="M341.458,-168.083C334.682,-160.298 324.676,-148.801 316.464,-139.367"/>
<polygon fill="midnightblue" stroke="midnightblue" points="319.041,-136.996 309.835,-131.751 313.761,-141.592 319.041,-136.996"/>
</g>
<!-- Node18 -->
<g id="node18" class="node"><title>Node18</title>
<polygon fill="none" stroke="#bfbfbf" points="348.719,-112.5 348.719,-131.5 411.719,-131.5 411.719,-112.5 348.719,-112.5"/>
<text text-anchor="middle" x="380.219" y="-119.5" font-family="Helvetica,sans-Serif" font-size="10.00">functional</text>
</g>
<!-- Node16&#45;&gt;Node18 -->
<g id="edge27" class="edge"><title>Node16&#45;&gt;Node18</title>
<path fill="none" stroke="midnightblue" d="M354.338,-168.083C358.626,-160.613 364.877,-149.724 370.161,-140.52"/>
<polygon fill="midnightblue" stroke="midnightblue" points="373.252,-142.166 375.195,-131.751 367.181,-138.681 373.252,-142.166"/>
</g>
<!-- Node19 -->
<g id="node19" class="node"><title>Node19</title>
<polygon fill="none" stroke="#bfbfbf" points="145.219,-112.5 145.219,-131.5 175.219,-131.5 175.219,-112.5 145.219,-112.5"/>
<text text-anchor="middle" x="160.219" y="-119.5" font-family="Helvetica,sans-Serif" font-size="10.00">list</text>
</g>
<!-- Node16&#45;&gt;Node19 -->
<g id="edge28" class="edge"><title>Node16&#45;&gt;Node19</title>
<path fill="none" stroke="midnightblue" d="M314.178,-168.446C282.62,-160.521 234.808,-147.969 185.026,-132.047"/>
<polygon fill="midnightblue" stroke="midnightblue" points="185.971,-128.675 175.38,-128.927 183.817,-135.335 185.971,-128.675"/>
</g>
<!-- Node20 -->
<g id="node20" class="node"><title>Node20</title>
<polygon fill="none" stroke="#bfbfbf" points="193.219,-112.5 193.219,-131.5 255.219,-131.5 255.219,-112.5 193.219,-112.5"/>
<text text-anchor="middle" x="224.219" y="-119.5" font-family="Helvetica,sans-Serif" font-size="10.00">algorithm</text>
</g>
<!-- Node16&#45;&gt;Node20 -->
<g id="edge30" class="edge"><title>Node16&#45;&gt;Node20</title>
<path fill="none" stroke="midnightblue" d="M329.412,-168.444C308.932,-159.596 276.736,-145.687 253.354,-135.586"/>
<polygon fill="midnightblue" stroke="midnightblue" points="254.501,-132.269 243.933,-131.516 251.725,-138.695 254.501,-132.269"/>
</g>
<!-- Node21&#45;&gt;Node7 -->
<g id="edge33" class="edge"><title>Node21&#45;&gt;Node7</title>
<path fill="none" stroke="midnightblue" d="M992.292,-168.444C967,-159.399 926.916,-145.064 898.539,-134.916"/>
<polygon fill="midnightblue" stroke="midnightblue" points="899.628,-131.588 889.033,-131.516 897.271,-138.179 899.628,-131.588"/>
</g>
<!-- Node21&#45;&gt;Node9 -->
<g id="edge38" class="edge"><title>Node21&#45;&gt;Node9</title>
<path fill="none" stroke="midnightblue" d="M1003.66,-168.368C976.325,-149.573 911.155,-104.768 877.358,-81.5334"/>
<polygon fill="midnightblue" stroke="midnightblue" points="878.939,-78.3726 868.715,-75.5914 874.973,-84.1409 878.939,-78.3726"/>
</g>
<!-- Node22 -->
<g id="node22" class="node"><title>Node22</title>
<polygon fill="none" stroke="#bfbfbf" points="1135.22,-112.5 1135.22,-131.5 1185.22,-131.5 1185.22,-112.5 1135.22,-112.5"/>
<text text-anchor="middle" x="1160.22" y="-119.5" font-family="Helvetica,sans-Serif" font-size="10.00">chrono</text>
</g>
<!-- Node21&#45;&gt;Node22 -->
<g id="edge34" class="edge"><title>Node21&#45;&gt;Node22</title>
<path fill="none" stroke="midnightblue" d="M1039.04,-168.444C1063.05,-159.438 1101.05,-145.189 1128.09,-135.049"/>
<polygon fill="midnightblue" stroke="midnightblue" points="1129.37,-138.305 1137.51,-131.516 1126.92,-131.751 1129.37,-138.305"/>
</g>
<!-- Node23 -->
<g id="node23" class="node"><title>Node23</title>
<polygon fill="none" stroke="#bfbfbf" points="1203.22,-112.5 1203.22,-131.5 1247.22,-131.5 1247.22,-112.5 1203.22,-112.5"/>
<text text-anchor="middle" x="1225.22" y="-119.5" font-family="Helvetica,sans-Serif" font-size="10.00">ctime</text>
</g>
<!-- Node21&#45;&gt;Node23 -->
<g id="edge35" class="edge"><title>Node21&#45;&gt;Node23</title>
<path fill="none" stroke="midnightblue" d="M1044.35,-170.209C1077.65,-162.102 1135,-147.92 1193.17,-132.218"/>
<polygon fill="midnightblue" stroke="midnightblue" points="1194.16,-135.578 1202.89,-129.582 1192.33,-128.822 1194.16,-135.578"/>
</g>
<!-- Node24 -->
<g id="node24" class="node"><title>Node24</title>
<polygon fill="none" stroke="#bfbfbf" points="989.219,-112.5 989.219,-131.5 1043.22,-131.5 1043.22,-112.5 989.219,-112.5"/>
<text text-anchor="middle" x="1016.22" y="-119.5" font-family="Helvetica,sans-Serif" font-size="10.00">fstream</text>
</g>
<!-- Node21&#45;&gt;Node24 -->
<g id="edge36" class="edge"><title>Node21&#45;&gt;Node24</title>
<path fill="none" stroke="midnightblue" d="M1016.22,-168.083C1016.22,-161.006 1016.22,-150.861 1016.22,-141.986"/>
<polygon fill="midnightblue" stroke="midnightblue" points="1019.72,-141.751 1016.22,-131.751 1012.72,-141.751 1019.72,-141.751"/>
</g>
<!-- Node25 -->
<g id="node25" class="node"><title>Node25</title>
<polygon fill="none" stroke="#bfbfbf" points="1061.22,-112.5 1061.22,-131.5 1117.22,-131.5 1117.22,-112.5 1061.22,-112.5"/>
<text text-anchor="middle" x="1089.22" y="-119.5" font-family="Helvetica,sans-Serif" font-size="10.00">sstream</text>
</g>
<!-- Node21&#45;&gt;Node25 -->
<g id="edge37" class="edge"><title>Node21&#45;&gt;Node25</title>
<path fill="none" stroke="midnightblue" d="M1027.95,-168.324C1039.06,-160.107 1055.96,-147.602 1069.2,-137.807"/>
<polygon fill="midnightblue" stroke="midnightblue" points="1071.32,-140.595 1077.28,-131.834 1067.16,-134.967 1071.32,-140.595"/>
</g>
<!-- Node26&#45;&gt;Node3 -->
<g id="edge40" class="edge"><title>Node26&#45;&gt;Node3</title>
<path fill="none" stroke="midnightblue" d="M55.2456,-112.464C62.5484,-98.0475 79.4513,-69.1625 103.219,-56 164.18,-22.2395 377.334,-13.6828 459.023,-11.621"/>
<polygon fill="midnightblue" stroke="midnightblue" points="459.29,-15.1158 469.205,-11.3809 459.125,-8.1177 459.29,-15.1158"/>
</g>
<!-- Node26&#45;&gt;Node13 -->
<g id="edge41" class="edge"><title>Node26&#45;&gt;Node13</title>
<path fill="none" stroke="midnightblue" d="M89.5249,-115.424C156.805,-105.632 296.184,-85.3447 371.418,-74.3941"/>
<polygon fill="midnightblue" stroke="midnightblue" points="372.203,-77.8169 381.594,-72.913 371.194,-70.8899 372.203,-77.8169"/>
</g>
</g>
</svg>
        <g id="navigator" transform="translate(0 0)" fill="#404254">
                <rect fill="#f2f5e9" fill-opacity="0.5" stroke="#606060" stroke-width=".5" x="0" y="0" width="60" height="60"/>
                <use id="zoomplus" xlink:href="#zoomPlus" x="17" y="9" onmousedown="handleZoom(evt,'in')"/>
                <use id="zoomminus" xlink:href="#zoomMin" x="42" y="9" onmousedown="handleZoom(evt,'out')"/>
                <use id="reset" xlink:href="#resetDef" x="30" y="36" onmousedown="handleReset()"/>
                <g id="arrowUp" xlink:href="#dirArrow" transform="translate(30 24)" onmousedown="handlePan(0,-1)">
                  <use xlink:href="#rim" fill="#404040">
                        <set attributeName="fill" to="#808080" begin="arrowUp.mouseover" end="arrowUp.mouseout"/>
                  </use>
                  <path fill="none" stroke="white" stroke-width="1.5" d="M0,-3.0v7 M-2.5,-0.5L0,-3.0L2.5,-0.5"/>
                </g>
                <g id="arrowRight" xlink:href="#dirArrow" transform="rotate(90) translate(36 -43)" onmousedown="handlePan(1,0)">
                  <use xlink:href="#rim" fill="#404040">
                        <set attributeName="fill" to="#808080" begin="arrowRight.mouseover" end="arrowRight.mouseout"/>
                  </use>
                  <path fill="none" stroke="white" stroke-width="1.5" d="M0,-3.0v7 M-2.5,-0.5L0,-3.0L2.5,-0.5"/>
                </g>
                <g id="arrowDown" xlink:href="#dirArrow" transform="rotate(180) translate(-30 -48)" onmousedown="handlePan(0,1)">
                  <use xlink:href="#rim" fill="#404040">
                        <set attributeName="fill" to="#808080" begin="arrowDown.mouseover" end="arrowDown.mouseout"/>
                  </use>
                  <path fill="none" stroke="white" stroke-width="1.5" d="M0,-3.0v7 M-2.5,-0.5L0,-3.0L2.5,-0.5"/>
                </g>
                <g id="arrowLeft" xlink:href="#dirArrow" transform="rotate(270) translate(-36 17)" onmousedown="handlePan(-1,0)">
                  <use xlink:href="#rim" fill="#404040">
                        <set attributeName="fill" to="#808080" begin="arrowLeft.mouseover" end="arrowLeft.mouseout"/>
                  </use>
                  <path fill="none" stroke="white" stroke-width="1.5" d="M0,-3.0v7 M-2.5,-0.5L0,-3.0L2.5,-0.5"/>
                </g>
        </g>
        <svg viewBox="0 0 15 15" width="100%" height="30px" preserveAspectRatio="xMaxYMin meet">
         <g id="arrow_out" transform="scale(0.3 0.3)">
          <a xlink:href="Text_8cxx__incl_org.svg" target="_base">
           <rect id="button" ry="5" rx="5" y="6" x="6" height="38" width="38"
                fill="#f2f5e9" fill-opacity="0.5" stroke="#606060" stroke-width="1.0"/>
           <path id="arrow"
             d="M 11.500037,31.436501 C 11.940474,20.09759 22.043105,11.32322 32.158766,21.979434 L 37.068811,17.246167 C 37.068811,17.246167 37.088388,32 37.088388,32 L 22.160133,31.978069 C 22.160133,31.978069 26.997745,27.140456 26.997745,27.140456 C 18.528582,18.264221 13.291696,25.230495 11.500037,31.436501 z"
             style="fill:#404040;"/>
          </a>
         </g>
        </svg>
</svg>
