<?xml version="1.0" encoding="UTF-8" standalone="no"?>
<!DOCTYPE svg PUBLIC "-//W3C//DTD SVG 1.1//EN"
 "http://www.w3.org/Graphics/SVG/1.1/DTD/svg11.dtd">
<!-- Generated by graphviz version 2.38.0 (20140413.2041)
 -->
<!-- Title: src/engine/ui/widgets/Text.hxx Pages: 1 -->
<!--zoomable 374 -->
<svg id="main" version="1.1" xmlns="http://www.w3.org/2000/svg" xmlns:xlink="http://www.w3.org/1999/xlink" xml:space="preserve" onload="init(evt)">
<style type="text/css"><![CDATA[
.edge:hover path { stroke: red; }
.edge:hover polygon { stroke: red; fill: red; }
]]></style>
<script type="text/javascript"><![CDATA[
var edges = document.getElementsByTagName('g');
if (edges && edges.length) {
  for (var i=0;i<edges.length;i++) {
    if (edges[i].id.substr(0,4)=='edge') {
      edges[i].setAttribute('class','edge');
    }
  }
}
]]></script>
        <defs>
                <circle id="rim" cx="0" cy="0" r="7"/>
                <circle id="rim2" cx="0" cy="0" r="3.5"/>
                <g id="zoomPlus">
                        <use xlink:href="#rim" fill="#404040">
                                <set attributeName="fill" to="#808080" begin="zoomplus.mouseover" end="zoomplus.mouseout"/>
                        </use>
                        <path d="M-4,0h8M0,-4v8" fill="none" stroke="white" stroke-width="1.5" pointer-events="none"/>
                </g>
                <g id="zoomMin">
                        <use xlink:href="#rim" fill="#404040">
                                <set attributeName="fill" to="#808080" begin="zoomminus.mouseover" end="zoomminus.mouseout"/>
                        </use>
                        <path d="M-4,0h8" fill="none" stroke="white" stroke-width="1.5" pointer-events="none"/>
                </g>
                <g id="dirArrow">
                        <path fill="none" stroke="white" stroke-width="1.5" d="M0,-3.0v7 M-2.5,-0.5L0,-3.0L2.5,-0.5"/>
                </g>
               <g id="resetDef">
                       <use xlink:href="#rim2" fill="#404040">
                               <set attributeName="fill" to="#808080" begin="reset.mouseover" end="reset.mouseout"/>
                       </use>
               </g>
        </defs>

<script type="text/javascript">
var viewWidth = 1010;
var viewHeight = 374;
var sectionId = 'dynsection-1';
</script>
<script xlink:href="svgpan.js"/>
<svg id="graph" class="graph">
<g id="viewport">
<title>src/engine/ui/widgets/Text.hxx</title>
<!-- Node1 -->
<g id="node1" class="node"><title>Node1</title>
<polygon fill="#bfbfbf" stroke="black" points="598.5,-335.5 598.5,-365.5 714.5,-365.5 714.5,-335.5 598.5,-335.5"/>
<text text-anchor="start" x="606.5" y="-353.5" font-family="Helvetica,sans-Serif" font-size="10.00">src/engine/ui/widgets</text>
<text text-anchor="middle" x="656.5" y="-342.5" font-family="Helvetica,sans-Serif" font-size="10.00">/Text.hxx</text>
</g>
<!-- Node2 -->
<g id="node2" class="node"><title>Node2</title>
<g id="a_node2"><a xlink:href="Button_8hxx.html" target="_top" xlink:title="src/engine/ui/widgets\l/Button.hxx">
<polygon fill="none" stroke="black" points="308.5,-268.5 308.5,-298.5 424.5,-298.5 424.5,-268.5 308.5,-268.5"/>
<text text-anchor="start" x="316.5" y="-286.5" font-family="Helvetica,sans-Serif" font-size="10.00">src/engine/ui/widgets</text>
<text text-anchor="middle" x="366.5" y="-275.5" font-family="Helvetica,sans-Serif" font-size="10.00">/Button.hxx</text>
</a>
</g>
</g>
<!-- Node1&#45;&gt;Node2 -->
<g id="edge1" class="edge"><title>Node1&#45;&gt;Node2</title>
<path fill="none" stroke="midnightblue" d="M588.145,-334.179C538.456,-323.042 471.914,-308.127 424.744,-297.555"/>
<polygon fill="midnightblue" stroke="midnightblue" points="587.64,-337.653 598.163,-336.424 589.171,-330.822 587.64,-337.653"/>
</g>
<!-- Node4 -->
<g id="node4" class="node"><title>Node4</title>
<g id="a_node4"><a xlink:href="UIManager_8hxx.html" target="_top" xlink:title="src/engine/UIManager.hxx">
<polygon fill="none" stroke="black" points="409.5,-140 409.5,-159 549.5,-159 549.5,-140 409.5,-140"/>
<text text-anchor="middle" x="479.5" y="-147" font-family="Helvetica,sans-Serif" font-size="10.00">src/engine/UIManager.hxx</text>
</a>
</g>
</g>
<!-- Node1&#45;&gt;Node4 -->
<g id="edge24" class="edge"><title>Node1&#45;&gt;Node4</title>
<path fill="none" stroke="midnightblue" d="M589.419,-331.955C569.917,-324.323 549.778,-313.665 534.5,-299 492.849,-259.019 482.522,-184.704 480.155,-159.288"/>
<polygon fill="midnightblue" stroke="midnightblue" points="588.324,-335.281 598.917,-335.463 590.749,-328.715 588.324,-335.281"/>
</g>
<!-- Node16 -->
<g id="node16" class="node"><title>Node16</title>
<g id="a_node16"><a xlink:href="TextField_8hxx.html" target="_top" xlink:title="src/engine/ui/widgets\l/TextField.hxx">
<polygon fill="none" stroke="black" points="543.5,-268.5 543.5,-298.5 659.5,-298.5 659.5,-268.5 543.5,-268.5"/>
<text text-anchor="start" x="551.5" y="-286.5" font-family="Helvetica,sans-Serif" font-size="10.00">src/engine/ui/widgets</text>
<text text-anchor="middle" x="601.5" y="-275.5" font-family="Helvetica,sans-Serif" font-size="10.00">/TextField.hxx</text>
</a>
</g>
</g>
<!-- Node1&#45;&gt;Node16 -->
<g id="edge18" class="edge"><title>Node1&#45;&gt;Node16</title>
<path fill="none" stroke="midnightblue" d="M638.084,-327.736C629.947,-318.119 620.614,-307.089 613.411,-298.577"/>
<polygon fill="midnightblue" stroke="midnightblue" points="635.435,-330.023 644.566,-335.396 640.778,-325.501 635.435,-330.023"/>
</g>
<!-- Node19 -->
<g id="node19" class="node"><title>Node19</title>
<g id="a_node19"><a xlink:href="TextField_8cxx.html" target="_top" xlink:title="src/engine/ui/widgets\l/TextField.cxx">
<polygon fill="none" stroke="black" points="671.5,-201.5 671.5,-231.5 787.5,-231.5 787.5,-201.5 671.5,-201.5"/>
<text text-anchor="start" x="679.5" y="-219.5" font-family="Helvetica,sans-Serif" font-size="10.00">src/engine/ui/widgets</text>
<text text-anchor="middle" x="729.5" y="-208.5" font-family="Helvetica,sans-Serif" font-size="10.00">/TextField.cxx</text>
</a>
</g>
</g>
<!-- Node1&#45;&gt;Node19 -->
<g id="edge29" class="edge"><title>Node1&#45;&gt;Node19</title>
<path fill="none" stroke="midnightblue" d="M669.233,-326.476C684.387,-299.073 709.212,-254.185 721.744,-231.525"/>
<polygon fill="midnightblue" stroke="midnightblue" points="666.089,-324.929 664.312,-335.374 672.215,-328.317 666.089,-324.929"/>
</g>
<!-- Node20 -->
<g id="node20" class="node"><title>Node20</title>
<g id="a_node20"><a xlink:href="Tooltip_8hxx.html" target="_top" xlink:title="src/engine/ui/widgets\l/Tooltip.hxx">
<polygon fill="none" stroke="black" points="751.5,-268.5 751.5,-298.5 867.5,-298.5 867.5,-268.5 751.5,-268.5"/>
<text text-anchor="start" x="759.5" y="-286.5" font-family="Helvetica,sans-Serif" font-size="10.00">src/engine/ui/widgets</text>
<text text-anchor="middle" x="809.5" y="-275.5" font-family="Helvetica,sans-Serif" font-size="10.00">/Tooltip.hxx</text>
</a>
</g>
</g>
<!-- Node1&#45;&gt;Node20 -->
<g id="edge25" class="edge"><title>Node1&#45;&gt;Node20</title>
<path fill="none" stroke="midnightblue" d="M699.089,-331.407C723.515,-321.029 753.725,-308.195 776.366,-298.577"/>
<polygon fill="midnightblue" stroke="midnightblue" points="697.534,-328.264 689.699,-335.396 700.271,-334.707 697.534,-328.264"/>
</g>
<!-- Node22 -->
<g id="node22" class="node"><title>Node22</title>
<g id="a_node22"><a xlink:href="Text_8cxx.html" target="_top" xlink:title="src/engine/ui/widgets\l/Text.cxx">
<polygon fill="none" stroke="black" points="885.5,-268.5 885.5,-298.5 1001.5,-298.5 1001.5,-268.5 885.5,-268.5"/>
<text text-anchor="start" x="893.5" y="-286.5" font-family="Helvetica,sans-Serif" font-size="10.00">src/engine/ui/widgets</text>
<text text-anchor="middle" x="943.5" y="-275.5" font-family="Helvetica,sans-Serif" font-size="10.00">/Text.cxx</text>
</a>
</g>
</g>
<!-- Node1&#45;&gt;Node22 -->
<g id="edge28" class="edge"><title>Node1&#45;&gt;Node22</title>
<path fill="none" stroke="midnightblue" d="M724.431,-334.115C773.28,-323.052 838.476,-308.286 885.016,-297.746"/>
<polygon fill="midnightblue" stroke="midnightblue" points="723.559,-330.724 714.579,-336.346 725.105,-337.551 723.559,-330.724"/>
</g>
<!-- Node3 -->
<g id="node3" class="node"><title>Node3</title>
<g id="a_node3"><a xlink:href="ButtonGroup_8hxx.html" target="_top" xlink:title="src/engine/ui/basics\l/ButtonGroup.hxx">
<polygon fill="none" stroke="black" points="161.5,-201.5 161.5,-231.5 271.5,-231.5 271.5,-201.5 161.5,-201.5"/>
<text text-anchor="start" x="169.5" y="-219.5" font-family="Helvetica,sans-Serif" font-size="10.00">src/engine/ui/basics</text>
<text text-anchor="middle" x="216.5" y="-208.5" font-family="Helvetica,sans-Serif" font-size="10.00">/ButtonGroup.hxx</text>
</a>
</g>
</g>
<!-- Node2&#45;&gt;Node3 -->
<g id="edge2" class="edge"><title>Node2&#45;&gt;Node3</title>
<path fill="none" stroke="midnightblue" d="M324.746,-264.407C300.799,-254.029 271.182,-241.195 248.984,-231.577"/>
<polygon fill="midnightblue" stroke="midnightblue" points="323.385,-267.631 333.952,-268.396 326.168,-261.208 323.385,-267.631"/>
</g>
<!-- Node2&#45;&gt;Node4 -->
<g id="edge16" class="edge"><title>Node2&#45;&gt;Node4</title>
<path fill="none" stroke="midnightblue" d="M387.777,-260.944C396.267,-252.131 406.02,-241.735 414.5,-232 436.849,-206.345 461.428,-174.417 472.909,-159.266"/>
<polygon fill="midnightblue" stroke="midnightblue" points="385.161,-258.613 380.705,-268.225 390.183,-263.491 385.161,-258.613"/>
</g>
<!-- Node15 -->
<g id="node15" class="node"><title>Node15</title>
<g id="a_node15"><a xlink:href="Button_8cxx.html" target="_top" xlink:title="src/engine/ui/widgets\l/Button.cxx">
<polygon fill="none" stroke="black" points="289.5,-201.5 289.5,-231.5 405.5,-231.5 405.5,-201.5 289.5,-201.5"/>
<text text-anchor="start" x="297.5" y="-219.5" font-family="Helvetica,sans-Serif" font-size="10.00">src/engine/ui/widgets</text>
<text text-anchor="middle" x="347.5" y="-208.5" font-family="Helvetica,sans-Serif" font-size="10.00">/Button.cxx</text>
</a>
</g>
</g>
<!-- Node2&#45;&gt;Node15 -->
<g id="edge17" class="edge"><title>Node2&#45;&gt;Node15</title>
<path fill="none" stroke="midnightblue" d="M359.542,-258.697C356.879,-249.587 353.929,-239.493 351.615,-231.577"/>
<polygon fill="midnightblue" stroke="midnightblue" points="356.212,-259.78 362.377,-268.396 362.931,-257.816 356.212,-259.78"/>
</g>
<!-- Node3&#45;&gt;Node4 -->
<g id="edge3" class="edge"><title>Node3&#45;&gt;Node4</title>
<path fill="none" stroke="midnightblue" d="M281.385,-199.464C333.092,-186.684 403.471,-169.29 444.935,-159.043"/>
<polygon fill="midnightblue" stroke="midnightblue" points="280.502,-196.077 271.633,-201.874 282.181,-202.872 280.502,-196.077"/>
</g>
<!-- Node9 -->
<g id="node9" class="node"><title>Node9</title>
<g id="a_node9"><a xlink:href="ButtonGroup_8cxx.html" target="_top" xlink:title="src/engine/ui/basics\l/ButtonGroup.cxx">
<polygon fill="none" stroke="black" points="161.5,-67.5 161.5,-97.5 271.5,-97.5 271.5,-67.5 161.5,-67.5"/>
<text text-anchor="start" x="169.5" y="-85.5" font-family="Helvetica,sans-Serif" font-size="10.00">src/engine/ui/basics</text>
<text text-anchor="middle" x="216.5" y="-74.5" font-family="Helvetica,sans-Serif" font-size="10.00">/ButtonGroup.cxx</text>
</a>
</g>
</g>
<!-- Node3&#45;&gt;Node9 -->
<g id="edge12" class="edge"><title>Node3&#45;&gt;Node9</title>
<path fill="none" stroke="midnightblue" d="M216.5,-191.024C216.5,-163.512 216.5,-119.789 216.5,-97.5247"/>
<polygon fill="midnightblue" stroke="midnightblue" points="213,-191.374 216.5,-201.374 220,-191.374 213,-191.374"/>
</g>
<!-- Node12 -->
<g id="node12" class="node"><title>Node12</title>
<g id="a_node12"><a xlink:href="IMenuGroup_8hxx.html" target="_top" xlink:title="src/engine/ui/menuGroups\l/IMenuGroup.hxx">
<polygon fill="none" stroke="black" points="23,-134.5 23,-164.5 166,-164.5 166,-134.5 23,-134.5"/>
<text text-anchor="start" x="31" y="-152.5" font-family="Helvetica,sans-Serif" font-size="10.00">src/engine/ui/menuGroups</text>
<text text-anchor="middle" x="94.5" y="-141.5" font-family="Helvetica,sans-Serif" font-size="10.00">/IMenuGroup.hxx</text>
</a>
</g>
</g>
<!-- Node3&#45;&gt;Node12 -->
<g id="edge13" class="edge"><title>Node3&#45;&gt;Node12</title>
<path fill="none" stroke="midnightblue" d="M180.979,-196.575C161.788,-186.35 138.495,-173.94 120.921,-164.577"/>
<polygon fill="midnightblue" stroke="midnightblue" points="179.557,-199.783 190.028,-201.396 182.848,-193.605 179.557,-199.783"/>
</g>
<!-- Node5 -->
<g id="node5" class="node"><title>Node5</title>
<g id="a_node5"><a xlink:href="EventManager_8hxx.html" target="_top" xlink:title="src/engine/EventManager.hxx">
<polygon fill="none" stroke="black" points="575,-73 575,-92 732,-92 732,-73 575,-73"/>
<text text-anchor="middle" x="653.5" y="-80" font-family="Helvetica,sans-Serif" font-size="10.00">src/engine/EventManager.hxx</text>
</a>
</g>
</g>
<!-- Node4&#45;&gt;Node5 -->
<g id="edge4" class="edge"><title>Node4&#45;&gt;Node5</title>
<path fill="none" stroke="midnightblue" d="M512.237,-136.271C546.771,-123.37 600.294,-103.376 630.576,-92.0637"/>
<polygon fill="midnightblue" stroke="midnightblue" points="510.749,-133.09 502.606,-139.869 513.198,-139.648 510.749,-133.09"/>
</g>
<!-- Node8 -->
<g id="node8" class="node"><title>Node8</title>
<g id="a_node8"><a xlink:href="Game_8cxx.html" target="_top" xlink:title="src/Game.cxx">
<polygon fill="none" stroke="black" points="741.5,-6 741.5,-25 823.5,-25 823.5,-6 741.5,-6"/>
<text text-anchor="middle" x="782.5" y="-13" font-family="Helvetica,sans-Serif" font-size="10.00">src/Game.cxx</text>
</a>
</g>
</g>
<!-- Node4&#45;&gt;Node8 -->
<g id="edge11" class="edge"><title>Node4&#45;&gt;Node8</title>
<path fill="none" stroke="midnightblue" d="M534.918,-138.13C611.191,-123.814 739.425,-99.5691 741.5,-98 766.133,-79.3685 777.028,-41.8334 780.822,-25.0034"/>
<polygon fill="midnightblue" stroke="midnightblue" points="534.158,-134.712 524.975,-139.995 535.448,-141.591 534.158,-134.712"/>
</g>
<!-- Node4&#45;&gt;Node9 -->
<g id="edge8" class="edge"><title>Node4&#45;&gt;Node9</title>
<path fill="none" stroke="midnightblue" d="M435.086,-137.523C390.112,-126.408 320.446,-109.19 271.891,-97.1899"/>
<polygon fill="midnightblue" stroke="midnightblue" points="434.299,-140.934 444.847,-139.936 435.979,-134.138 434.299,-140.934"/>
</g>
<!-- Node10 -->
<g id="node10" class="node"><title>Node10</title>
<g id="a_node10"><a xlink:href="Layout_8cxx.html" target="_top" xlink:title="src/engine/ui/basics\l/Layout.cxx">
<polygon fill="none" stroke="black" points="289.5,-67.5 289.5,-97.5 399.5,-97.5 399.5,-67.5 289.5,-67.5"/>
<text text-anchor="start" x="297.5" y="-85.5" font-family="Helvetica,sans-Serif" font-size="10.00">src/engine/ui/basics</text>
<text text-anchor="middle" x="344.5" y="-74.5" font-family="Helvetica,sans-Serif" font-size="10.00">/Layout.cxx</text>
</a>
</g>
</g>
<!-- Node4&#45;&gt;Node10 -->
<g id="edge9" class="edge"><title>Node4&#45;&gt;Node10</title>
<path fill="none" stroke="midnightblue" d="M452.445,-135.474C429.623,-124.485 397.027,-108.791 373.635,-97.5281"/>
<polygon fill="midnightblue" stroke="midnightblue" points="451.045,-138.684 461.573,-139.869 454.081,-132.377 451.045,-138.684"/>
</g>
<!-- Node11 -->
<g id="node11" class="node"><title>Node11</title>
<g id="a_node11"><a xlink:href="UIManager_8cxx.html" target="_top" xlink:title="src/engine/UIManager.cxx">
<polygon fill="none" stroke="black" points="418,-73 418,-92 557,-92 557,-73 418,-73"/>
<text text-anchor="middle" x="487.5" y="-80" font-family="Helvetica,sans-Serif" font-size="10.00">src/engine/UIManager.cxx</text>
</a>
</g>
</g>
<!-- Node4&#45;&gt;Node11 -->
<g id="edge10" class="edge"><title>Node4&#45;&gt;Node11</title>
<path fill="none" stroke="midnightblue" d="M481.834,-129.537C483.356,-117.17 485.27,-101.62 486.438,-92.1273"/>
<polygon fill="midnightblue" stroke="midnightblue" points="478.327,-129.381 480.579,-139.734 485.274,-130.236 478.327,-129.381"/>
</g>
<!-- Node6 -->
<g id="node6" class="node"><title>Node6</title>
<g id="a_node6"><a xlink:href="Timer_8cxx.html" target="_top" xlink:title="src/engine/basics/Timer.cxx">
<polygon fill="none" stroke="black" points="402,-6 402,-25 549,-25 549,-6 402,-6"/>
<text text-anchor="middle" x="475.5" y="-13" font-family="Helvetica,sans-Serif" font-size="10.00">src/engine/basics/Timer.cxx</text>
</a>
</g>
</g>
<!-- Node5&#45;&gt;Node6 -->
<g id="edge5" class="edge"><title>Node5&#45;&gt;Node6</title>
<path fill="none" stroke="midnightblue" d="M620.464,-69.4363C585.153,-56.5417 530.062,-36.4243 498.951,-25.0637"/>
<polygon fill="midnightblue" stroke="midnightblue" points="619.269,-72.726 629.863,-72.8685 621.67,-66.1506 619.269,-72.726"/>
</g>
<!-- Node7 -->
<g id="node7" class="node"><title>Node7</title>
<g id="a_node7"><a xlink:href="EventManager_8cxx.html" target="_top" xlink:title="src/engine/EventManager.cxx">
<polygon fill="none" stroke="black" points="567.5,-6 567.5,-25 723.5,-25 723.5,-6 567.5,-6"/>
<text text-anchor="middle" x="645.5" y="-13" font-family="Helvetica,sans-Serif" font-size="10.00">src/engine/EventManager.cxx</text>
</a>
</g>
</g>
<!-- Node5&#45;&gt;Node7 -->
<g id="edge6" class="edge"><title>Node5&#45;&gt;Node7</title>
<path fill="none" stroke="midnightblue" d="M651.166,-62.537C649.644,-50.1703 647.73,-34.6198 646.562,-25.1273"/>
<polygon fill="midnightblue" stroke="midnightblue" points="647.726,-63.2363 652.421,-72.7338 654.673,-62.3811 647.726,-63.2363"/>
</g>
<!-- Node5&#45;&gt;Node8 -->
<g id="edge7" class="edge"><title>Node5&#45;&gt;Node8</title>
<path fill="none" stroke="midnightblue" d="M679.749,-68.2739C705.299,-55.3999 743.386,-36.2086 765.299,-25.1672"/>
<polygon fill="midnightblue" stroke="midnightblue" points="677.986,-65.243 670.63,-72.8685 681.136,-71.4943 677.986,-65.243"/>
</g>
<!-- Node13 -->
<g id="node13" class="node"><title>Node13</title>
<g id="a_node13"><a xlink:href="MenuGroupBuild_8hxx.html" target="_top" xlink:title="src/engine/ui/menuGroups\l/MenuGroupBuild.hxx">
<polygon fill="none" stroke="black" points="0,-67.5 0,-97.5 143,-97.5 143,-67.5 0,-67.5"/>
<text text-anchor="start" x="8" y="-85.5" font-family="Helvetica,sans-Serif" font-size="10.00">src/engine/ui/menuGroups</text>
<text text-anchor="middle" x="71.5" y="-74.5" font-family="Helvetica,sans-Serif" font-size="10.00">/MenuGroupBuild.hxx</text>
</a>
</g>
</g>
<!-- Node12&#45;&gt;Node13 -->
<g id="edge14" class="edge"><title>Node12&#45;&gt;Node13</title>
<path fill="none" stroke="midnightblue" d="M86.0774,-124.697C82.8539,-115.587 79.2821,-105.493 76.4809,-97.5765"/>
<polygon fill="midnightblue" stroke="midnightblue" points="82.874,-126.136 89.5093,-134.396 89.473,-123.801 82.874,-126.136"/>
</g>
<!-- Node14 -->
<g id="node14" class="node"><title>Node14</title>
<g id="a_node14"><a xlink:href="MenuGroupBuild_8cxx.html" target="_top" xlink:title="src/engine/ui/menuGroups\l/MenuGroupBuild.cxx">
<polygon fill="none" stroke="black" points="0,-0.5 0,-30.5 143,-30.5 143,-0.5 0,-0.5"/>
<text text-anchor="start" x="8" y="-18.5" font-family="Helvetica,sans-Serif" font-size="10.00">src/engine/ui/menuGroups</text>
<text text-anchor="middle" x="71.5" y="-7.5" font-family="Helvetica,sans-Serif" font-size="10.00">/MenuGroupBuild.cxx</text>
</a>
</g>
</g>
<!-- Node13&#45;&gt;Node14 -->
<g id="edge15" class="edge"><title>Node13&#45;&gt;Node14</title>
<path fill="none" stroke="midnightblue" d="M71.5,-57.1081C71.5,-48.1539 71.5,-38.3227 71.5,-30.5765"/>
<polygon fill="midnightblue" stroke="midnightblue" points="68.0001,-57.3959 71.5,-67.396 75.0001,-57.396 68.0001,-57.3959"/>
</g>
<!-- Node16&#45;&gt;Node4 -->
<g id="edge22" class="edge"><title>Node16&#45;&gt;Node4</title>
<path fill="none" stroke="midnightblue" d="M567.055,-262.985C554.011,-254.544 539.637,-243.872 528.5,-232 506.926,-209.002 490.268,-174.954 483.2,-159.146"/>
<polygon fill="midnightblue" stroke="midnightblue" points="565.481,-266.129 575.817,-268.46 569.191,-260.193 565.481,-266.129"/>
</g>
<!-- Node17 -->
<g id="node17" class="node"><title>Node17</title>
<g id="a_node17"><a xlink:href="Combobox_8hxx.html" target="_top" xlink:title="src/engine/ui/widgets\l/Combobox.hxx">
<polygon fill="none" stroke="black" points="537.5,-201.5 537.5,-231.5 653.5,-231.5 653.5,-201.5 537.5,-201.5"/>
<text text-anchor="start" x="545.5" y="-219.5" font-family="Helvetica,sans-Serif" font-size="10.00">src/engine/ui/widgets</text>
<text text-anchor="middle" x="595.5" y="-208.5" font-family="Helvetica,sans-Serif" font-size="10.00">/Combobox.hxx</text>
</a>
</g>
</g>
<!-- Node16&#45;&gt;Node17 -->
<g id="edge19" class="edge"><title>Node16&#45;&gt;Node17</title>
<path fill="none" stroke="midnightblue" d="M599.276,-258.403C598.442,-249.37 597.522,-239.408 596.799,-231.577"/>
<polygon fill="midnightblue" stroke="midnightblue" points="595.794,-258.76 600.198,-268.396 602.764,-258.117 595.794,-258.76"/>
</g>
<!-- Node16&#45;&gt;Node19 -->
<g id="edge23" class="edge"><title>Node16&#45;&gt;Node19</title>
<path fill="none" stroke="midnightblue" d="M638.22,-263.853C658.458,-253.576 683.174,-241.025 701.78,-231.577"/>
<polygon fill="midnightblue" stroke="midnightblue" points="636.606,-260.747 629.274,-268.396 639.775,-266.989 636.606,-260.747"/>
</g>
<!-- Node17&#45;&gt;Node4 -->
<g id="edge20" class="edge"><title>Node17&#45;&gt;Node4</title>
<path fill="none" stroke="midnightblue" d="M561.544,-196.473C539.399,-184.064 511.572,-168.472 494.682,-159.007"/>
<polygon fill="midnightblue" stroke="midnightblue" points="559.895,-199.561 570.33,-201.396 563.317,-193.454 559.895,-199.561"/>
</g>
<!-- Node18 -->
<g id="node18" class="node"><title>Node18</title>
<g id="a_node18"><a xlink:href="Combobox_8cxx.html" target="_top" xlink:title="src/engine/ui/widgets\l/Combobox.cxx">
<polygon fill="none" stroke="black" points="567.5,-134.5 567.5,-164.5 683.5,-164.5 683.5,-134.5 567.5,-134.5"/>
<text text-anchor="start" x="575.5" y="-152.5" font-family="Helvetica,sans-Serif" font-size="10.00">src/engine/ui/widgets</text>
<text text-anchor="middle" x="625.5" y="-141.5" font-family="Helvetica,sans-Serif" font-size="10.00">/Combobox.cxx</text>
</a>
</g>
</g>
<!-- Node17&#45;&gt;Node18 -->
<g id="edge21" class="edge"><title>Node17&#45;&gt;Node18</title>
<path fill="none" stroke="midnightblue" d="M606.215,-192.283C610.49,-183.022 615.271,-172.663 619.003,-164.577"/>
<polygon fill="midnightblue" stroke="midnightblue" points="603.022,-190.85 602.01,-201.396 609.378,-193.783 603.022,-190.85"/>
</g>
<!-- Node20&#45;&gt;Node4 -->
<g id="edge26" class="edge"><title>Node20&#45;&gt;Node4</title>
<path fill="none" stroke="midnightblue" d="M812.595,-258.301C813.48,-240.037 811.311,-215.693 796.5,-201 758.524,-163.329 611.257,-173.829 558.5,-165 547.498,-163.159 535.657,-161.052 524.576,-159.026"/>
<polygon fill="midnightblue" stroke="midnightblue" points="809.089,-258.238 811.766,-268.489 816.066,-258.806 809.089,-258.238"/>
</g>
<!-- Node21 -->
<g id="node21" class="node"><title>Node21</title>
<g id="a_node21"><a xlink:href="Tooltip_8cxx.html" target="_top" xlink:title="src/engine/ui/widgets\l/Tooltip.cxx">
<polygon fill="none" stroke="black" points="843.5,-201.5 843.5,-231.5 959.5,-231.5 959.5,-201.5 843.5,-201.5"/>
<text text-anchor="start" x="851.5" y="-219.5" font-family="Helvetica,sans-Serif" font-size="10.00">src/engine/ui/widgets</text>
<text text-anchor="middle" x="901.5" y="-208.5" font-family="Helvetica,sans-Serif" font-size="10.00">/Tooltip.cxx</text>
</a>
</g>
</g>
<!-- Node20&#45;&gt;Node21 -->
<g id="edge27" class="edge"><title>Node20&#45;&gt;Node21</title>
<path fill="none" stroke="midnightblue" d="M837.877,-262.451C852.03,-252.452 868.805,-240.6 881.576,-231.577"/>
<polygon fill="midnightblue" stroke="midnightblue" points="835.61,-259.767 829.463,-268.396 839.649,-265.484 835.61,-259.767"/>
</g>
</g>
</svg>
        <g id="navigator" transform="translate(0 0)" fill="#404254">
                <rect fill="#f2f5e9" fill-opacity="0.5" stroke="#606060" stroke-width=".5" x="0" y="0" width="60" height="60"/>
                <use id="zoomplus" xlink:href="#zoomPlus" x="17" y="9" onmousedown="handleZoom(evt,'in')"/>
                <use id="zoomminus" xlink:href="#zoomMin" x="42" y="9" onmousedown="handleZoom(evt,'out')"/>
                <use id="reset" xlink:href="#resetDef" x="30" y="36" onmousedown="handleReset()"/>
                <g id="arrowUp" xlink:href="#dirArrow" transform="translate(30 24)" onmousedown="handlePan(0,-1)">
                  <use xlink:href="#rim" fill="#404040">
                        <set attributeName="fill" to="#808080" begin="arrowUp.mouseover" end="arrowUp.mouseout"/>
                  </use>
                  <path fill="none" stroke="white" stroke-width="1.5" d="M0,-3.0v7 M-2.5,-0.5L0,-3.0L2.5,-0.5"/>
                </g>
                <g id="arrowRight" xlink:href="#dirArrow" transform="rotate(90) translate(36 -43)" onmousedown="handlePan(1,0)">
                  <use xlink:href="#rim" fill="#404040">
                        <set attributeName="fill" to="#808080" begin="arrowRight.mouseover" end="arrowRight.mouseout"/>
                  </use>
                  <path fill="none" stroke="white" stroke-width="1.5" d="M0,-3.0v7 M-2.5,-0.5L0,-3.0L2.5,-0.5"/>
                </g>
                <g id="arrowDown" xlink:href="#dirArrow" transform="rotate(180) translate(-30 -48)" onmousedown="handlePan(0,1)">
                  <use xlink:href="#rim" fill="#404040">
                        <set attributeName="fill" to="#808080" begin="arrowDown.mouseover" end="arrowDown.mouseout"/>
                  </use>
                  <path fill="none" stroke="white" stroke-width="1.5" d="M0,-3.0v7 M-2.5,-0.5L0,-3.0L2.5,-0.5"/>
                </g>
                <g id="arrowLeft" xlink:href="#dirArrow" transform="rotate(270) translate(-36 17)" onmousedown="handlePan(-1,0)">
                  <use xlink:href="#rim" fill="#404040">
                        <set attributeName="fill" to="#808080" begin="arrowLeft.mouseover" end="arrowLeft.mouseout"/>
                  </use>
                  <path fill="none" stroke="white" stroke-width="1.5" d="M0,-3.0v7 M-2.5,-0.5L0,-3.0L2.5,-0.5"/>
                </g>
        </g>
        <svg viewBox="0 0 15 15" width="100%" height="30px" preserveAspectRatio="xMaxYMin meet">
         <g id="arrow_out" transform="scale(0.3 0.3)">
          <a xlink:href="Text_8hxx__dep__incl_org.svg" target="_base">
           <rect id="button" ry="5" rx="5" y="6" x="6" height="38" width="38"
                fill="#f2f5e9" fill-opacity="0.5" stroke="#606060" stroke-width="1.0"/>
           <path id="arrow"
             d="M 11.500037,31.436501 C 11.940474,20.09759 22.043105,11.32322 32.158766,21.979434 L 37.068811,17.246167 C 37.068811,17.246167 37.088388,32 37.088388,32 L 22.160133,31.978069 C 22.160133,31.978069 26.997745,27.140456 26.997745,27.140456 C 18.528582,18.264221 13.291696,25.230495 11.500037,31.436501 z"
             style="fill:#404040;"/>
          </a>
         </g>
        </svg>
</svg>
