<?xml version="1.0" encoding="UTF-8" standalone="no"?>
<!DOCTYPE svg PUBLIC "-//W3C//DTD SVG 1.1//EN"
 "http://www.w3.org/Graphics/SVG/1.1/DTD/svg11.dtd">
<!-- Generated by graphviz version 2.38.0 (20140413.2041)
 -->
<!-- Title: src/engine/TileManager.hxx Pages: 1 -->
<svg width="468pt" height="140pt"
 viewBox="0.00 0.00 468.00 140.00" xmlns="http://www.w3.org/2000/svg" xmlns:xlink="http://www.w3.org/1999/xlink">
<g id="graph0" class="graph" transform="scale(1 1) rotate(0) translate(4 136)">
<title>src/engine/TileManager.hxx</title>
<!-- Node1 -->
<g id="node1" class="node"><title>Node1</title>
<polygon fill="#bfbfbf" stroke="black" points="143.5,-112.5 143.5,-131.5 289.5,-131.5 289.5,-112.5 143.5,-112.5"/>
<text text-anchor="middle" x="216.5" y="-119.5" font-family="Helvetica,sans-Serif" font-size="10.00">src/engine/TileManager.hxx</text>
</g>
<!-- Node2 -->
<g id="node2" class="node"><title>Node2</title>
<polygon fill="none" stroke="#bfbfbf" points="0,-56.5 0,-75.5 45,-75.5 45,-56.5 0,-56.5"/>
<text text-anchor="middle" x="22.5" y="-63.5" font-family="Helvetica,sans-Serif" font-size="10.00">SDL.h</text>
</g>
<!-- Node1&#45;&gt;Node2 -->
<g id="edge1" class="edge"><title>Node1&#45;&gt;Node2</title>
<path fill="none" stroke="midnightblue" d="M185.737,-112.486C155.054,-103.988 106.319,-90.4709 54.8597,-76.0941"/>
<polygon fill="midnightblue" stroke="midnightblue" points="55.7961,-72.7217 45.2231,-73.4006 53.9118,-79.4634 55.7961,-72.7217"/>
</g>
<!-- Node3 -->
<g id="node3" class="node"><title>Node3</title>
<polygon fill="none" stroke="#bfbfbf" points="63,-56.5 63,-75.5 156,-75.5 156,-56.5 63,-56.5"/>
<text text-anchor="middle" x="109.5" y="-63.5" font-family="Helvetica,sans-Serif" font-size="10.00">unordered_map</text>
</g>
<!-- Node1&#45;&gt;Node3 -->
<g id="edge2" class="edge"><title>Node1&#45;&gt;Node3</title>
<path fill="none" stroke="midnightblue" d="M199.309,-112.324C182.149,-103.664 155.554,-90.2424 135.753,-80.249"/>
<polygon fill="midnightblue" stroke="midnightblue" points="137.153,-77.0354 126.649,-75.6545 133.999,-83.2847 137.153,-77.0354"/>
</g>
<!-- Node4 -->
<g id="node4" class="node"><title>Node4</title>
<polygon fill="none" stroke="#bfbfbf" points="194.5,-0.5 194.5,-19.5 238.5,-19.5 238.5,-0.5 194.5,-0.5"/>
<text text-anchor="middle" x="216.5" y="-7.5" font-family="Helvetica,sans-Serif" font-size="10.00">string</text>
</g>
<!-- Node1&#45;&gt;Node4 -->
<g id="edge3" class="edge"><title>Node1&#45;&gt;Node4</title>
<path fill="none" stroke="midnightblue" d="M213.156,-112.197C209.946,-103.24 205.324,-88.8827 203.5,-76 201.257,-60.1544 205.287,-42.3436 209.437,-29.3784"/>
<polygon fill="midnightblue" stroke="midnightblue" points="212.797,-30.3717 212.815,-19.7769 206.194,-28.0481 212.797,-30.3717"/>
</g>
<!-- Node5 -->
<g id="node5" class="node"><title>Node5</title>
<g id="a_node5"><a xlink:href="tileData_8hxx.html" target="_top" xlink:title="tileData.hxx">
<polygon fill="none" stroke="black" points="212.5,-56.5 212.5,-75.5 286.5,-75.5 286.5,-56.5 212.5,-56.5"/>
<text text-anchor="middle" x="249.5" y="-63.5" font-family="Helvetica,sans-Serif" font-size="10.00">tileData.hxx</text>
</a>
</g>
</g>
<!-- Node1&#45;&gt;Node5 -->
<g id="edge4" class="edge"><title>Node1&#45;&gt;Node5</title>
<path fill="none" stroke="midnightblue" d="M221.949,-112.083C226.514,-104.613 233.168,-93.7244 238.793,-84.5199"/>
<polygon fill="midnightblue" stroke="midnightblue" points="241.924,-86.109 244.152,-75.7511 235.951,-82.4588 241.924,-86.109"/>
</g>
<!-- Node6 -->
<g id="node6" class="node"><title>Node6</title>
<polygon fill="none" stroke="#bfbfbf" points="304.5,-56.5 304.5,-75.5 360.5,-75.5 360.5,-56.5 304.5,-56.5"/>
<text text-anchor="middle" x="332.5" y="-63.5" font-family="Helvetica,sans-Serif" font-size="10.00">json.hxx</text>
</g>
<!-- Node1&#45;&gt;Node6 -->
<g id="edge6" class="edge"><title>Node1&#45;&gt;Node6</title>
<path fill="none" stroke="midnightblue" d="M234.881,-112.444C253.716,-103.675 283.231,-89.9355 304.879,-79.8579"/>
<polygon fill="midnightblue" stroke="midnightblue" points="306.617,-82.9098 314.205,-75.5164 303.662,-76.5637 306.617,-82.9098"/>
</g>
<!-- Node7 -->
<g id="node7" class="node"><title>Node7</title>
<g id="a_node7"><a xlink:href="Singleton_8hxx.html" target="_top" xlink:title="Singleton.hxx">
<polygon fill="none" stroke="black" points="379,-56.5 379,-75.5 460,-75.5 460,-56.5 379,-56.5"/>
<text text-anchor="middle" x="419.5" y="-63.5" font-family="Helvetica,sans-Serif" font-size="10.00">Singleton.hxx</text>
</a>
</g>
</g>
<!-- Node1&#45;&gt;Node7 -->
<g id="edge7" class="edge"><title>Node1&#45;&gt;Node7</title>
<path fill="none" stroke="midnightblue" d="M248.666,-112.444C283.559,-103.162 339.393,-88.3093 377.671,-78.127"/>
<polygon fill="midnightblue" stroke="midnightblue" points="378.72,-81.4696 387.485,-75.5164 376.921,-74.7048 378.72,-81.4696"/>
</g>
<!-- Node5&#45;&gt;Node4 -->
<g id="edge5" class="edge"><title>Node5&#45;&gt;Node4</title>
<path fill="none" stroke="midnightblue" d="M244.051,-56.083C239.486,-48.6127 232.832,-37.7244 227.207,-28.5199"/>
<polygon fill="midnightblue" stroke="midnightblue" points="230.049,-26.4588 221.848,-19.7511 224.076,-30.109 230.049,-26.4588"/>
</g>
</g>
</svg>
