<?xml version="1.0" encoding="UTF-8" standalone="no"?>
<!DOCTYPE svg PUBLIC "-//W3C//DTD SVG 1.1//EN"
 "http://www.w3.org/Graphics/SVG/1.1/DTD/svg11.dtd">
<!-- Generated by graphviz version 2.38.0 (20140413.2041)
 -->
<!-- Title: src/engine/basics/Timer.hxx Pages: 1 -->
<svg width="482pt" height="140pt"
 viewBox="0.00 0.00 482.00 140.00" xmlns="http://www.w3.org/2000/svg" xmlns:xlink="http://www.w3.org/1999/xlink">
<g id="graph0" class="graph" transform="scale(1 1) rotate(0) translate(4 136)">
<title>src/engine/basics/Timer.hxx</title>
<!-- Node1 -->
<g id="node1" class="node"><title>Node1</title>
<polygon fill="#bfbfbf" stroke="black" points="80,-112.5 80,-131.5 228,-131.5 228,-112.5 80,-112.5"/>
<text text-anchor="middle" x="154" y="-119.5" font-family="Helvetica,sans-Serif" font-size="10.00">src/engine/basics/Timer.hxx</text>
</g>
<!-- Node2 -->
<g id="node2" class="node"><title>Node2</title>
<polygon fill="none" stroke="#bfbfbf" points="-3.55271e-15,-56.5 -3.55271e-15,-75.5 44,-75.5 44,-56.5 -3.55271e-15,-56.5"/>
<text text-anchor="middle" x="22" y="-63.5" font-family="Helvetica,sans-Serif" font-size="10.00">ctime</text>
</g>
<!-- Node1&#45;&gt;Node2 -->
<g id="edge1" class="edge"><title>Node1&#45;&gt;Node2</title>
<path fill="none" stroke="midnightblue" d="M133.084,-112.444C111.264,-103.517 76.8502,-89.4387 52.1078,-79.3168"/>
<polygon fill="midnightblue" stroke="midnightblue" points="53.3987,-76.0634 42.8179,-75.5164 50.7482,-82.5422 53.3987,-76.0634"/>
</g>
<!-- Node3 -->
<g id="node3" class="node"><title>Node3</title>
<polygon fill="none" stroke="#bfbfbf" points="62,-56.5 62,-75.5 112,-75.5 112,-56.5 62,-56.5"/>
<text text-anchor="middle" x="87" y="-63.5" font-family="Helvetica,sans-Serif" font-size="10.00">chrono</text>
</g>
<!-- Node1&#45;&gt;Node3 -->
<g id="edge2" class="edge"><title>Node1&#45;&gt;Node3</title>
<path fill="none" stroke="midnightblue" d="M143.235,-112.324C133.234,-104.263 118.113,-92.0765 106.07,-82.3695"/>
<polygon fill="midnightblue" stroke="midnightblue" points="107.943,-79.3841 97.9606,-75.8339 103.55,-84.8343 107.943,-79.3841"/>
</g>
<!-- Node4 -->
<g id="node4" class="node"><title>Node4</title>
<polygon fill="none" stroke="#bfbfbf" points="130,-56.5 130,-75.5 178,-75.5 178,-56.5 130,-56.5"/>
<text text-anchor="middle" x="154" y="-63.5" font-family="Helvetica,sans-Serif" font-size="10.00">thread</text>
</g>
<!-- Node1&#45;&gt;Node4 -->
<g id="edge3" class="edge"><title>Node1&#45;&gt;Node4</title>
<path fill="none" stroke="midnightblue" d="M154,-112.083C154,-105.006 154,-94.8611 154,-85.9865"/>
<polygon fill="midnightblue" stroke="midnightblue" points="157.5,-85.751 154,-75.7511 150.5,-85.7511 157.5,-85.751"/>
</g>
<!-- Node5 -->
<g id="node5" class="node"><title>Node5</title>
<polygon fill="none" stroke="#bfbfbf" points="196.5,-56.5 196.5,-75.5 241.5,-75.5 241.5,-56.5 196.5,-56.5"/>
<text text-anchor="middle" x="219" y="-63.5" font-family="Helvetica,sans-Serif" font-size="10.00">SDL.h</text>
</g>
<!-- Node1&#45;&gt;Node5 -->
<g id="edge4" class="edge"><title>Node1&#45;&gt;Node5</title>
<path fill="none" stroke="midnightblue" d="M164.443,-112.324C174.146,-104.263 188.815,-92.0765 200.5,-82.3695"/>
<polygon fill="midnightblue" stroke="midnightblue" points="202.911,-84.9163 208.367,-75.8339 198.438,-79.532 202.911,-84.9163"/>
</g>
<!-- Node6 -->
<g id="node6" class="node"><title>Node6</title>
<g id="a_node6"><a xlink:href="signal_8hxx.html" target="_top" xlink:title="../basics/signal.hxx">
<polygon fill="none" stroke="black" points="260,-56.5 260,-75.5 366,-75.5 366,-56.5 260,-56.5"/>
<text text-anchor="middle" x="313" y="-63.5" font-family="Helvetica,sans-Serif" font-size="10.00">../basics/signal.hxx</text>
</a>
</g>
</g>
<!-- Node1&#45;&gt;Node6 -->
<g id="edge5" class="edge"><title>Node1&#45;&gt;Node6</title>
<path fill="none" stroke="midnightblue" d="M179.194,-112.444C205.943,-103.359 248.403,-88.9388 278.305,-78.7831"/>
<polygon fill="midnightblue" stroke="midnightblue" points="279.581,-82.0464 287.924,-75.5164 277.329,-75.4182 279.581,-82.0464"/>
</g>
<!-- Node7 -->
<g id="node7" class="node"><title>Node7</title>
<polygon fill="none" stroke="#bfbfbf" points="141.5,-0.5 141.5,-19.5 198.5,-19.5 198.5,-0.5 141.5,-0.5"/>
<text text-anchor="middle" x="170" y="-7.5" font-family="Helvetica,sans-Serif" font-size="10.00">memory</text>
</g>
<!-- Node6&#45;&gt;Node7 -->
<g id="edge6" class="edge"><title>Node6&#45;&gt;Node7</title>
<path fill="none" stroke="midnightblue" d="M290.341,-56.4435C266.598,-47.4776 229.091,-33.314 202.262,-23.1827"/>
<polygon fill="midnightblue" stroke="midnightblue" points="203.144,-19.7749 192.553,-19.5164 200.671,-26.3235 203.144,-19.7749"/>
</g>
<!-- Node8 -->
<g id="node8" class="node"><title>Node8</title>
<polygon fill="none" stroke="#bfbfbf" points="216.5,-0.5 216.5,-19.5 279.5,-19.5 279.5,-0.5 216.5,-0.5"/>
<text text-anchor="middle" x="248" y="-7.5" font-family="Helvetica,sans-Serif" font-size="10.00">functional</text>
</g>
<!-- Node6&#45;&gt;Node8 -->
<g id="edge7" class="edge"><title>Node6&#45;&gt;Node8</title>
<path fill="none" stroke="midnightblue" d="M302.557,-56.324C292.854,-48.2631 278.185,-36.0765 266.5,-26.3695"/>
<polygon fill="midnightblue" stroke="midnightblue" points="268.562,-23.532 258.633,-19.8339 264.089,-28.9163 268.562,-23.532"/>
</g>
<!-- Node9 -->
<g id="node9" class="node"><title>Node9</title>
<polygon fill="none" stroke="#bfbfbf" points="298,-0.5 298,-19.5 328,-19.5 328,-0.5 298,-0.5"/>
<text text-anchor="middle" x="313" y="-7.5" font-family="Helvetica,sans-Serif" font-size="10.00">list</text>
</g>
<!-- Node6&#45;&gt;Node9 -->
<g id="edge8" class="edge"><title>Node6&#45;&gt;Node9</title>
<path fill="none" stroke="midnightblue" d="M313,-56.083C313,-49.0059 313,-38.8611 313,-29.9865"/>
<polygon fill="midnightblue" stroke="midnightblue" points="316.5,-29.751 313,-19.7511 309.5,-29.7511 316.5,-29.751"/>
</g>
<!-- Node10 -->
<g id="node10" class="node"><title>Node10</title>
<polygon fill="none" stroke="#bfbfbf" points="346.5,-0.5 346.5,-19.5 393.5,-19.5 393.5,-0.5 346.5,-0.5"/>
<text text-anchor="middle" x="370" y="-7.5" font-family="Helvetica,sans-Serif" font-size="10.00">vector</text>
</g>
<!-- Node6&#45;&gt;Node10 -->
<g id="edge9" class="edge"><title>Node6&#45;&gt;Node10</title>
<path fill="none" stroke="midnightblue" d="M322.158,-56.324C330.501,-48.4196 343.032,-36.5482 353.177,-26.9377"/>
<polygon fill="midnightblue" stroke="midnightblue" points="355.823,-29.2522 360.675,-19.8339 351.009,-24.1705 355.823,-29.2522"/>
</g>
<!-- Node11 -->
<g id="node11" class="node"><title>Node11</title>
<polygon fill="none" stroke="#bfbfbf" points="412,-0.5 412,-19.5 474,-19.5 474,-0.5 412,-0.5"/>
<text text-anchor="middle" x="443" y="-7.5" font-family="Helvetica,sans-Serif" font-size="10.00">algorithm</text>
</g>
<!-- Node6&#45;&gt;Node11 -->
<g id="edge10" class="edge"><title>Node6&#45;&gt;Node11</title>
<path fill="none" stroke="midnightblue" d="M333.599,-56.4435C354.993,-47.5566 388.681,-33.5632 413.024,-23.4514"/>
<polygon fill="midnightblue" stroke="midnightblue" points="414.605,-26.5848 422.497,-19.5164 411.92,-20.1203 414.605,-26.5848"/>
</g>
</g>
</svg>
