<?xml version="1.0" encoding="UTF-8" standalone="no"?>
<!DOCTYPE svg PUBLIC "-//W3C//DTD SVG 1.1//EN"
 "http://www.w3.org/Graphics/SVG/1.1/DTD/svg11.dtd">
<!-- Generated by graphviz version 2.38.0 (20140413.2041)
 -->
<!-- Title: src/engine/ui/widgets/Tooltip.hxx Pages: 1 -->
<svg width="1302pt" height="375pt"
 viewBox="0.00 0.00 1302.00 375.00" xmlns="http://www.w3.org/2000/svg" xmlns:xlink="http://www.w3.org/1999/xlink">
<g id="graph0" class="graph" transform="scale(1 1) rotate(0) translate(4 371)">
<title>src/engine/ui/widgets/Tooltip.hxx</title>
<!-- Node1 -->
<g id="node1" class="node"><title>Node1</title>
<polygon fill="#bfbfbf" stroke="black" points="427,-336.5 427,-366.5 543,-366.5 543,-336.5 427,-336.5"/>
<text text-anchor="start" x="435" y="-354.5" font-family="Helvetica,sans-Serif" font-size="10.00">src/engine/ui/widgets</text>
<text text-anchor="middle" x="485" y="-343.5" font-family="Helvetica,sans-Serif" font-size="10.00">/Tooltip.hxx</text>
</g>
<!-- Node2 -->
<g id="node2" class="node"><title>Node2</title>
<g id="a_node2"><a xlink:href="UIElement_8hxx.html" target="_top" xlink:title="../basics/UIElement.hxx">
<polygon fill="none" stroke="black" points="393,-224.5 393,-243.5 521,-243.5 521,-224.5 393,-224.5"/>
<text text-anchor="middle" x="457" y="-231.5" font-family="Helvetica,sans-Serif" font-size="10.00">../basics/UIElement.hxx</text>
</a>
</g>
</g>
<!-- Node1&#45;&gt;Node2 -->
<g id="edge1" class="edge"><title>Node1&#45;&gt;Node2</title>
<path fill="none" stroke="midnightblue" d="M481.567,-336.337C476.522,-315.527 467.1,-276.663 461.505,-253.583"/>
<polygon fill="midnightblue" stroke="midnightblue" points="464.859,-252.563 459.102,-243.669 458.056,-254.213 464.859,-252.563"/>
</g>
<!-- Node20 -->
<g id="node20" class="node"><title>Node20</title>
<g id="a_node20"><a xlink:href="Text_8hxx.html" target="_top" xlink:title="Text.hxx">
<polygon fill="none" stroke="black" points="401.5,-280.5 401.5,-299.5 456.5,-299.5 456.5,-280.5 401.5,-280.5"/>
<text text-anchor="middle" x="429" y="-287.5" font-family="Helvetica,sans-Serif" font-size="10.00">Text.hxx</text>
</a>
</g>
</g>
<!-- Node1&#45;&gt;Node20 -->
<g id="edge30" class="edge"><title>Node1&#45;&gt;Node20</title>
<path fill="none" stroke="midnightblue" d="M471.729,-336.399C463.424,-327.575 452.701,-316.183 444.076,-307.018"/>
<polygon fill="midnightblue" stroke="midnightblue" points="446.551,-304.541 437.148,-299.658 441.453,-309.339 446.551,-304.541"/>
</g>
<!-- Node21 -->
<g id="node21" class="node"><title>Node21</title>
<g id="a_node21"><a xlink:href="Timer_8hxx.html" target="_top" xlink:title="../../basics/Timer.hxx">
<polygon fill="none" stroke="black" points="1057.5,-224.5 1057.5,-243.5 1170.5,-243.5 1170.5,-224.5 1057.5,-224.5"/>
<text text-anchor="middle" x="1114" y="-231.5" font-family="Helvetica,sans-Serif" font-size="10.00">../../basics/Timer.hxx</text>
</a>
</g>
</g>
<!-- Node1&#45;&gt;Node21 -->
<g id="edge33" class="edge"><title>Node1&#45;&gt;Node21</title>
<path fill="none" stroke="midnightblue" d="M543.047,-339.841C663.323,-317.756 938.434,-267.238 1057.43,-245.388"/>
<polygon fill="midnightblue" stroke="midnightblue" points="1058.23,-248.8 1067.43,-243.552 1056.96,-241.915 1058.23,-248.8"/>
</g>
<!-- Node3 -->
<g id="node3" class="node"><title>Node3</title>
<polygon fill="none" stroke="#bfbfbf" points="246,-0.5 246,-19.5 290,-19.5 290,-0.5 246,-0.5"/>
<text text-anchor="middle" x="268" y="-7.5" font-family="Helvetica,sans-Serif" font-size="10.00">string</text>
</g>
<!-- Node2&#45;&gt;Node3 -->
<g id="edge2" class="edge"><title>Node2&#45;&gt;Node3</title>
<path fill="none" stroke="midnightblue" d="M392.941,-229.984C299.376,-221.653 128.69,-190.647 57,-76 52.2872,-68.4633 51.4084,-62.9099 57,-56 79.0982,-28.6919 182.095,-17.2426 235.574,-13.0732"/>
<polygon fill="midnightblue" stroke="midnightblue" points="236.164,-16.5392 245.879,-12.3123 235.648,-9.5582 236.164,-16.5392"/>
</g>
<!-- Node4 -->
<g id="node4" class="node"><title>Node4</title>
<g id="a_node4"><a xlink:href="mapEdit_8hxx.html" target="_top" xlink:title="../../basics/mapEdit.hxx">
<polygon fill="none" stroke="black" points="66.5,-56.5 66.5,-75.5 193.5,-75.5 193.5,-56.5 66.5,-56.5"/>
<text text-anchor="middle" x="130" y="-63.5" font-family="Helvetica,sans-Serif" font-size="10.00">../../basics/mapEdit.hxx</text>
</a>
</g>
</g>
<!-- Node2&#45;&gt;Node4 -->
<g id="edge3" class="edge"><title>Node2&#45;&gt;Node4</title>
<path fill="none" stroke="midnightblue" d="M426.065,-224.495C399.027,-216.567 359.04,-203.634 326,-188 258.309,-155.969 184.771,-106.052 150.162,-81.5569"/>
<polygon fill="midnightblue" stroke="midnightblue" points="152.022,-78.5851 141.848,-75.63 147.959,-84.2849 152.022,-78.5851"/>
</g>
<!-- Node5 -->
<g id="node5" class="node"><title>Node5</title>
<g id="a_node5"><a xlink:href="ResourcesManager_8hxx.html" target="_top" xlink:title="../../ResourcesManager.hxx">
<polygon fill="none" stroke="black" points="335,-168.5 335,-187.5 479,-187.5 479,-168.5 335,-168.5"/>
<text text-anchor="middle" x="407" y="-175.5" font-family="Helvetica,sans-Serif" font-size="10.00">../../ResourcesManager.hxx</text>
</a>
</g>
</g>
<!-- Node2&#45;&gt;Node5 -->
<g id="edge5" class="edge"><title>Node2&#45;&gt;Node5</title>
<path fill="none" stroke="midnightblue" d="M448.744,-224.083C441.535,-216.298 430.89,-204.801 422.154,-195.367"/>
<polygon fill="midnightblue" stroke="midnightblue" points="424.465,-192.711 415.103,-187.751 419.329,-197.467 424.465,-192.711"/>
</g>
<!-- Node8 -->
<g id="node8" class="node"><title>Node8</title>
<polygon fill="none" stroke="#bfbfbf" points="625.5,-56.5 625.5,-75.5 670.5,-75.5 670.5,-56.5 625.5,-56.5"/>
<text text-anchor="middle" x="648" y="-63.5" font-family="Helvetica,sans-Serif" font-size="10.00">SDL.h</text>
</g>
<!-- Node2&#45;&gt;Node8 -->
<g id="edge29" class="edge"><title>Node2&#45;&gt;Node8</title>
<path fill="none" stroke="midnightblue" d="M463.552,-224.276C470.102,-215.381 480.282,-201.07 488,-188 507.203,-155.482 497.865,-137.191 526,-112 532.935,-105.79 581.577,-88.9026 615.304,-77.6738"/>
<polygon fill="midnightblue" stroke="midnightblue" points="616.836,-80.8537 625.23,-74.3888 614.636,-74.2082 616.836,-80.8537"/>
</g>
<!-- Node13 -->
<g id="node13" class="node"><title>Node13</title>
<g id="a_node13"><a xlink:href="WindowManager_8hxx.html" target="_top" xlink:title="../../WindowManager.hxx">
<polygon fill="none" stroke="black" points="576.5,-168.5 576.5,-187.5 707.5,-187.5 707.5,-168.5 576.5,-168.5"/>
<text text-anchor="middle" x="642" y="-175.5" font-family="Helvetica,sans-Serif" font-size="10.00">../../WindowManager.hxx</text>
</a>
</g>
</g>
<!-- Node2&#45;&gt;Node13 -->
<g id="edge17" class="edge"><title>Node2&#45;&gt;Node13</title>
<path fill="none" stroke="midnightblue" d="M486.314,-224.444C517.842,-215.241 568.131,-200.562 602.986,-190.388"/>
<polygon fill="midnightblue" stroke="midnightblue" points="604.205,-193.678 612.823,-187.516 602.243,-186.959 604.205,-193.678"/>
</g>
<!-- Node15 -->
<g id="node15" class="node"><title>Node15</title>
<g id="a_node15"><a xlink:href="signal_8hxx.html" target="_top" xlink:title="../../basics/signal.hxx">
<polygon fill="none" stroke="black" points="831.5,-168.5 831.5,-187.5 946.5,-187.5 946.5,-168.5 831.5,-168.5"/>
<text text-anchor="middle" x="889" y="-175.5" font-family="Helvetica,sans-Serif" font-size="10.00">../../basics/signal.hxx</text>
</a>
</g>
</g>
<!-- Node2&#45;&gt;Node15 -->
<g id="edge23" class="edge"><title>Node2&#45;&gt;Node15</title>
<path fill="none" stroke="midnightblue" d="M521.208,-224.974C601.759,-214.905 739.257,-197.718 821.379,-187.453"/>
<polygon fill="midnightblue" stroke="midnightblue" points="821.869,-190.919 831.357,-186.205 821,-183.973 821.869,-190.919"/>
</g>
<!-- Node4&#45;&gt;Node3 -->
<g id="edge4" class="edge"><title>Node4&#45;&gt;Node3</title>
<path fill="none" stroke="midnightblue" d="M151.867,-56.4435C174.779,-47.4776 210.975,-33.314 236.866,-23.1827"/>
<polygon fill="midnightblue" stroke="midnightblue" points="238.199,-26.4198 246.236,-19.5164 235.648,-19.9011 238.199,-26.4198"/>
</g>
<!-- Node6 -->
<g id="node6" class="node"><title>Node6</title>
<polygon fill="none" stroke="#bfbfbf" points="535.5,-112.5 535.5,-131.5 594.5,-131.5 594.5,-112.5 535.5,-112.5"/>
<text text-anchor="middle" x="565" y="-119.5" font-family="Helvetica,sans-Serif" font-size="10.00">iostream</text>
</g>
<!-- Node5&#45;&gt;Node6 -->
<g id="edge6" class="edge"><title>Node5&#45;&gt;Node6</title>
<path fill="none" stroke="midnightblue" d="M432.036,-168.444C458.616,-159.359 500.809,-144.939 530.523,-134.783"/>
<polygon fill="midnightblue" stroke="midnightblue" points="531.751,-138.062 540.082,-131.516 529.487,-131.439 531.751,-138.062"/>
</g>
<!-- Node7 -->
<g id="node7" class="node"><title>Node7</title>
<polygon fill="none" stroke="#bfbfbf" points="211.5,-56.5 211.5,-75.5 304.5,-75.5 304.5,-56.5 211.5,-56.5"/>
<text text-anchor="middle" x="258" y="-63.5" font-family="Helvetica,sans-Serif" font-size="10.00">unordered_map</text>
</g>
<!-- Node5&#45;&gt;Node7 -->
<g id="edge7" class="edge"><title>Node5&#45;&gt;Node7</title>
<path fill="none" stroke="midnightblue" d="M392.968,-168.45C378.819,-159.69 356.488,-145.483 338,-132 316.041,-115.985 291.98,-96.0952 276.04,-82.5643"/>
<polygon fill="midnightblue" stroke="midnightblue" points="277.961,-79.602 268.085,-75.7664 273.413,-84.9237 277.961,-79.602"/>
</g>
<!-- Node5&#45;&gt;Node8 -->
<g id="edge8" class="edge"><title>Node5&#45;&gt;Node8</title>
<path fill="none" stroke="midnightblue" d="M416.277,-168.131C431.258,-154.263 462.218,-127.438 493,-112 495.81,-110.591 570.898,-89.0298 615.514,-76.2725"/>
<polygon fill="midnightblue" stroke="midnightblue" points="616.683,-79.5785 625.337,-73.4653 614.76,-72.848 616.683,-79.5785"/>
</g>
<!-- Node9 -->
<g id="node9" class="node"><title>Node9</title>
<g id="a_node9"><a xlink:href="TileManager_8hxx.html" target="_top" xlink:title="TileManager.hxx">
<polygon fill="none" stroke="black" points="347.5,-112.5 347.5,-131.5 440.5,-131.5 440.5,-112.5 347.5,-112.5"/>
<text text-anchor="middle" x="394" y="-119.5" font-family="Helvetica,sans-Serif" font-size="10.00">TileManager.hxx</text>
</a>
</g>
</g>
<!-- Node5&#45;&gt;Node9 -->
<g id="edge9" class="edge"><title>Node5&#45;&gt;Node9</title>
<path fill="none" stroke="midnightblue" d="M404.853,-168.083C403.131,-160.927 400.653,-150.635 398.5,-141.691"/>
<polygon fill="midnightblue" stroke="midnightblue" points="401.85,-140.654 396.107,-131.751 395.045,-142.293 401.85,-140.654"/>
</g>
<!-- Node9&#45;&gt;Node3 -->
<g id="edge12" class="edge"><title>Node9&#45;&gt;Node3</title>
<path fill="none" stroke="midnightblue" d="M395.682,-112.388C397.803,-98.8717 399.776,-72.5203 387,-56 366.272,-29.197 327.656,-18.3579 300.033,-13.9749"/>
<polygon fill="midnightblue" stroke="midnightblue" points="300.43,-10.4966 290.044,-12.5914 299.469,-17.4304 300.43,-10.4966"/>
</g>
<!-- Node9&#45;&gt;Node7 -->
<g id="edge11" class="edge"><title>Node9&#45;&gt;Node7</title>
<path fill="none" stroke="midnightblue" d="M372.45,-112.444C349.969,-103.517 314.512,-89.4387 289.02,-79.3168"/>
<polygon fill="midnightblue" stroke="midnightblue" points="290.035,-75.9539 279.449,-75.5164 287.451,-82.4598 290.035,-75.9539"/>
</g>
<!-- Node9&#45;&gt;Node8 -->
<g id="edge10" class="edge"><title>Node9&#45;&gt;Node8</title>
<path fill="none" stroke="midnightblue" d="M440.567,-112.601C483.528,-104.62 549.273,-91.8179 615.549,-75.9618"/>
<polygon fill="midnightblue" stroke="midnightblue" points="616.43,-79.3499 625.329,-73.6004 614.787,-72.5454 616.43,-79.3499"/>
</g>
<!-- Node10 -->
<g id="node10" class="node"><title>Node10</title>
<g id="a_node10"><a xlink:href="tileData_8hxx.html" target="_top" xlink:title="tileData.hxx">
<polygon fill="none" stroke="black" points="434,-56.5 434,-75.5 508,-75.5 508,-56.5 434,-56.5"/>
<text text-anchor="middle" x="471" y="-63.5" font-family="Helvetica,sans-Serif" font-size="10.00">tileData.hxx</text>
</a>
</g>
</g>
<!-- Node9&#45;&gt;Node10 -->
<g id="edge13" class="edge"><title>Node9&#45;&gt;Node10</title>
<path fill="none" stroke="midnightblue" d="M406.371,-112.324C418.158,-104.058 436.132,-91.4527 450.136,-81.6322"/>
<polygon fill="midnightblue" stroke="midnightblue" points="452.482,-84.2619 458.659,-75.6545 448.462,-78.5307 452.482,-84.2619"/>
</g>
<!-- Node11 -->
<g id="node11" class="node"><title>Node11</title>
<polygon fill="none" stroke="#bfbfbf" points="322,-56.5 322,-75.5 378,-75.5 378,-56.5 322,-56.5"/>
<text text-anchor="middle" x="350" y="-63.5" font-family="Helvetica,sans-Serif" font-size="10.00">json.hxx</text>
</g>
<!-- Node9&#45;&gt;Node11 -->
<g id="edge15" class="edge"><title>Node9&#45;&gt;Node11</title>
<path fill="none" stroke="midnightblue" d="M386.734,-112.083C380.455,-104.377 371.212,-93.0333 363.569,-83.6531"/>
<polygon fill="midnightblue" stroke="midnightblue" points="366.161,-81.2926 357.131,-75.7511 360.734,-85.7143 366.161,-81.2926"/>
</g>
<!-- Node12 -->
<g id="node12" class="node"><title>Node12</title>
<g id="a_node12"><a xlink:href="Singleton_8hxx.html" target="_top" xlink:title="Singleton.hxx">
<polygon fill="none" stroke="black" points="526.5,-56.5 526.5,-75.5 607.5,-75.5 607.5,-56.5 526.5,-56.5"/>
<text text-anchor="middle" x="567" y="-63.5" font-family="Helvetica,sans-Serif" font-size="10.00">Singleton.hxx</text>
</a>
</g>
</g>
<!-- Node9&#45;&gt;Node12 -->
<g id="edge16" class="edge"><title>Node9&#45;&gt;Node12</title>
<path fill="none" stroke="midnightblue" d="M421.412,-112.444C450.769,-103.28 497.519,-88.6876 530.096,-78.5192"/>
<polygon fill="midnightblue" stroke="midnightblue" points="531.213,-81.8371 539.716,-75.5164 529.127,-75.1551 531.213,-81.8371"/>
</g>
<!-- Node10&#45;&gt;Node3 -->
<g id="edge14" class="edge"><title>Node10&#45;&gt;Node3</title>
<path fill="none" stroke="midnightblue" d="M438.834,-56.4435C400.819,-46.3312 337.949,-29.6072 300.005,-19.5136"/>
<polygon fill="midnightblue" stroke="midnightblue" points="300.569,-16.042 290.005,-16.8536 298.769,-22.8067 300.569,-16.042"/>
</g>
<!-- Node13&#45;&gt;Node3 -->
<g id="edge18" class="edge"><title>Node13&#45;&gt;Node3</title>
<path fill="none" stroke="midnightblue" d="M649.779,-168.19C668.052,-146.422 709.988,-89.4415 680,-56 654.759,-27.8521 393.253,-15.5911 300.448,-12.1036"/>
<polygon fill="midnightblue" stroke="midnightblue" points="300.364,-8.5983 290.243,-11.7302 300.108,-15.5936 300.364,-8.5983"/>
</g>
<!-- Node13&#45;&gt;Node6 -->
<g id="edge19" class="edge"><title>Node13&#45;&gt;Node6</title>
<path fill="none" stroke="midnightblue" d="M629.629,-168.324C617.842,-160.058 599.868,-147.453 585.864,-137.632"/>
<polygon fill="midnightblue" stroke="midnightblue" points="587.538,-134.531 577.341,-131.655 583.518,-140.262 587.538,-134.531"/>
</g>
<!-- Node13&#45;&gt;Node8 -->
<g id="edge21" class="edge"><title>Node13&#45;&gt;Node8</title>
<path fill="none" stroke="midnightblue" d="M642.471,-168.368C643.439,-150.617 645.673,-109.666 646.986,-85.5974"/>
<polygon fill="midnightblue" stroke="midnightblue" points="650.481,-85.7672 647.531,-75.5914 643.492,-85.3859 650.481,-85.7672"/>
</g>
<!-- Node13&#45;&gt;Node12 -->
<g id="edge22" class="edge"><title>Node13&#45;&gt;Node12</title>
<path fill="none" stroke="midnightblue" d="M637.305,-168.358C630.31,-155.683 616.523,-131.449 603,-112 596.217,-102.245 587.981,-91.8578 581.099,-83.5233"/>
<polygon fill="midnightblue" stroke="midnightblue" points="583.642,-81.1084 574.535,-75.6936 578.278,-85.6055 583.642,-81.1084"/>
</g>
<!-- Node14 -->
<g id="node14" class="node"><title>Node14</title>
<polygon fill="none" stroke="#bfbfbf" points="727.5,-112.5 727.5,-131.5 774.5,-131.5 774.5,-112.5 727.5,-112.5"/>
<text text-anchor="middle" x="751" y="-119.5" font-family="Helvetica,sans-Serif" font-size="10.00">vector</text>
</g>
<!-- Node13&#45;&gt;Node14 -->
<g id="edge20" class="edge"><title>Node13&#45;&gt;Node14</title>
<path fill="none" stroke="midnightblue" d="M659.513,-168.324C677.072,-159.625 704.331,-146.12 724.531,-136.113"/>
<polygon fill="midnightblue" stroke="midnightblue" points="726.124,-139.23 733.531,-131.655 723.016,-132.958 726.124,-139.23"/>
</g>
<!-- Node15&#45;&gt;Node14 -->
<g id="edge27" class="edge"><title>Node15&#45;&gt;Node14</title>
<path fill="none" stroke="midnightblue" d="M867.133,-168.444C844.221,-159.478 808.025,-145.314 782.134,-135.183"/>
<polygon fill="midnightblue" stroke="midnightblue" points="783.352,-131.901 772.764,-131.516 780.801,-138.42 783.352,-131.901"/>
</g>
<!-- Node16 -->
<g id="node16" class="node"><title>Node16</title>
<polygon fill="none" stroke="#bfbfbf" points="1002.5,-112.5 1002.5,-131.5 1059.5,-131.5 1059.5,-112.5 1002.5,-112.5"/>
<text text-anchor="middle" x="1031" y="-119.5" font-family="Helvetica,sans-Serif" font-size="10.00">memory</text>
</g>
<!-- Node15&#45;&gt;Node16 -->
<g id="edge24" class="edge"><title>Node15&#45;&gt;Node16</title>
<path fill="none" stroke="midnightblue" d="M911.5,-168.444C935.077,-159.478 972.322,-145.314 998.964,-135.183"/>
<polygon fill="midnightblue" stroke="midnightblue" points="1000.5,-138.342 1008.6,-131.516 998.014,-131.8 1000.5,-138.342"/>
</g>
<!-- Node17 -->
<g id="node17" class="node"><title>Node17</title>
<polygon fill="none" stroke="#bfbfbf" points="792.5,-112.5 792.5,-131.5 855.5,-131.5 855.5,-112.5 792.5,-112.5"/>
<text text-anchor="middle" x="824" y="-119.5" font-family="Helvetica,sans-Serif" font-size="10.00">functional</text>
</g>
<!-- Node15&#45;&gt;Node17 -->
<g id="edge25" class="edge"><title>Node15&#45;&gt;Node17</title>
<path fill="none" stroke="midnightblue" d="M878.557,-168.324C868.854,-160.263 854.185,-148.077 842.5,-138.369"/>
<polygon fill="midnightblue" stroke="midnightblue" points="844.562,-135.532 834.633,-131.834 840.089,-140.916 844.562,-135.532"/>
</g>
<!-- Node18 -->
<g id="node18" class="node"><title>Node18</title>
<polygon fill="none" stroke="#bfbfbf" points="874,-112.5 874,-131.5 904,-131.5 904,-112.5 874,-112.5"/>
<text text-anchor="middle" x="889" y="-119.5" font-family="Helvetica,sans-Serif" font-size="10.00">list</text>
</g>
<!-- Node15&#45;&gt;Node18 -->
<g id="edge26" class="edge"><title>Node15&#45;&gt;Node18</title>
<path fill="none" stroke="midnightblue" d="M889,-168.083C889,-161.006 889,-150.861 889,-141.986"/>
<polygon fill="midnightblue" stroke="midnightblue" points="892.5,-141.751 889,-131.751 885.5,-141.751 892.5,-141.751"/>
</g>
<!-- Node19 -->
<g id="node19" class="node"><title>Node19</title>
<polygon fill="none" stroke="#bfbfbf" points="922,-112.5 922,-131.5 984,-131.5 984,-112.5 922,-112.5"/>
<text text-anchor="middle" x="953" y="-119.5" font-family="Helvetica,sans-Serif" font-size="10.00">algorithm</text>
</g>
<!-- Node15&#45;&gt;Node19 -->
<g id="edge28" class="edge"><title>Node15&#45;&gt;Node19</title>
<path fill="none" stroke="midnightblue" d="M899.283,-168.324C908.836,-160.263 923.28,-148.077 934.784,-138.369"/>
<polygon fill="midnightblue" stroke="midnightblue" points="937.144,-140.958 942.53,-131.834 932.63,-135.608 937.144,-140.958"/>
</g>
<!-- Node20&#45;&gt;Node2 -->
<g id="edge32" class="edge"><title>Node20&#45;&gt;Node2</title>
<path fill="none" stroke="midnightblue" d="M433.624,-280.083C437.456,-272.691 443.024,-261.953 447.765,-252.811"/>
<polygon fill="midnightblue" stroke="midnightblue" points="450.966,-254.24 452.462,-243.751 444.752,-251.018 450.966,-254.24"/>
</g>
<!-- Node20&#45;&gt;Node3 -->
<g id="edge31" class="edge"><title>Node20&#45;&gt;Node3</title>
<path fill="none" stroke="midnightblue" d="M401.183,-287.881C306.119,-283.309 0,-262.136 0,-179 0,-179 0,-179 0,-121 0,-20.2995 163.937,-9.83034 235.376,-10.0488"/>
<polygon fill="midnightblue" stroke="midnightblue" points="235.575,-13.551 245.611,-10.1562 235.649,-6.5514 235.575,-13.551"/>
</g>
<!-- Node21&#45;&gt;Node8 -->
<g id="edge37" class="edge"><title>Node21&#45;&gt;Node8</title>
<path fill="none" stroke="midnightblue" d="M1112.05,-224.443C1106.13,-199.3 1087.67,-126.509 1069,-112 1038.51,-88.3035 774.374,-73.1874 680.741,-68.533"/>
<polygon fill="midnightblue" stroke="midnightblue" points="680.857,-65.0346 670.698,-68.0416 680.515,-72.0262 680.857,-65.0346"/>
</g>
<!-- Node21&#45;&gt;Node15 -->
<g id="edge38" class="edge"><title>Node21&#45;&gt;Node15</title>
<path fill="none" stroke="midnightblue" d="M1078.35,-224.444C1039.34,-215.083 976.734,-200.056 934.283,-189.868"/>
<polygon fill="midnightblue" stroke="midnightblue" points="935.026,-186.447 924.485,-187.516 933.392,-193.254 935.026,-186.447"/>
</g>
<!-- Node22 -->
<g id="node22" class="node"><title>Node22</title>
<polygon fill="none" stroke="#bfbfbf" points="1182,-168.5 1182,-187.5 1226,-187.5 1226,-168.5 1182,-168.5"/>
<text text-anchor="middle" x="1204" y="-175.5" font-family="Helvetica,sans-Serif" font-size="10.00">ctime</text>
</g>
<!-- Node21&#45;&gt;Node22 -->
<g id="edge34" class="edge"><title>Node21&#45;&gt;Node22</title>
<path fill="none" stroke="midnightblue" d="M1128.46,-224.324C1142.5,-215.9 1164.05,-202.971 1180.54,-193.074"/>
<polygon fill="midnightblue" stroke="midnightblue" points="1182.8,-195.801 1189.58,-187.655 1179.2,-189.798 1182.8,-195.801"/>
</g>
<!-- Node23 -->
<g id="node23" class="node"><title>Node23</title>
<polygon fill="none" stroke="#bfbfbf" points="1244,-168.5 1244,-187.5 1294,-187.5 1294,-168.5 1244,-168.5"/>
<text text-anchor="middle" x="1269" y="-175.5" font-family="Helvetica,sans-Serif" font-size="10.00">chrono</text>
</g>
<!-- Node21&#45;&gt;Node23 -->
<g id="edge35" class="edge"><title>Node21&#45;&gt;Node23</title>
<path fill="none" stroke="midnightblue" d="M1138.56,-224.444C1164.52,-215.399 1205.67,-201.064 1234.8,-190.916"/>
<polygon fill="midnightblue" stroke="midnightblue" points="1236.26,-194.112 1244.55,-187.516 1233.96,-187.501 1236.26,-194.112"/>
</g>
<!-- Node24 -->
<g id="node24" class="node"><title>Node24</title>
<polygon fill="none" stroke="#bfbfbf" points="1116,-168.5 1116,-187.5 1164,-187.5 1164,-168.5 1116,-168.5"/>
<text text-anchor="middle" x="1140" y="-175.5" font-family="Helvetica,sans-Serif" font-size="10.00">thread</text>
</g>
<!-- Node21&#45;&gt;Node24 -->
<g id="edge36" class="edge"><title>Node21&#45;&gt;Node24</title>
<path fill="none" stroke="midnightblue" d="M1118.29,-224.083C1121.85,-216.691 1127.02,-205.953 1131.42,-196.811"/>
<polygon fill="midnightblue" stroke="midnightblue" points="1134.6,-198.279 1135.79,-187.751 1128.29,-195.243 1134.6,-198.279"/>
</g>
</g>
</svg>
