<?xml version="1.0" encoding="UTF-8" standalone="no"?>
<!DOCTYPE svg PUBLIC "-//W3C//DTD SVG 1.1//EN"
 "http://www.w3.org/Graphics/SVG/1.1/DTD/svg11.dtd">
<!-- Generated by graphviz version 2.38.0 (20140413.2041)
 -->
<!-- Title: src/util/TransitiveModel.hxx Pages: 1 -->
<svg width="540pt" height="140pt"
 viewBox="0.00 0.00 540.00 140.00" xmlns="http://www.w3.org/2000/svg" xmlns:xlink="http://www.w3.org/1999/xlink">
<g id="graph0" class="graph" transform="scale(1 1) rotate(0) translate(4 136)">
<title>src/util/TransitiveModel.hxx</title>
<!-- Node1 -->
<g id="node1" class="node"><title>Node1</title>
<polygon fill="#bfbfbf" stroke="black" points="290,-112.5 290,-131.5 433,-131.5 433,-112.5 290,-112.5"/>
<text text-anchor="middle" x="361.5" y="-119.5" font-family="Helvetica,sans-Serif" font-size="10.00">src/util/TransitiveModel.hxx</text>
</g>
<!-- Node2 -->
<g id="node2" class="node"><title>Node2</title>
<g id="a_node2"><a xlink:href="Meta_8hxx.html" target="_top" xlink:title="Meta.hxx">
<polygon fill="none" stroke="black" points="112.5,-56.5 112.5,-75.5 172.5,-75.5 172.5,-56.5 112.5,-56.5"/>
<text text-anchor="middle" x="142.5" y="-63.5" font-family="Helvetica,sans-Serif" font-size="10.00">Meta.hxx</text>
</a>
</g>
</g>
<!-- Node1&#45;&gt;Node2 -->
<g id="edge1" class="edge"><title>Node1&#45;&gt;Node2</title>
<path fill="none" stroke="midnightblue" d="M326.799,-112.444C287.578,-102.773 223.833,-87.0548 182.538,-76.8723"/>
<polygon fill="midnightblue" stroke="midnightblue" points="183.354,-73.4689 172.807,-74.473 181.678,-80.2654 183.354,-73.4689"/>
</g>
<!-- Node6 -->
<g id="node6" class="node"><title>Node6</title>
<g id="a_node6"><a xlink:href="Observer_8hxx.html" target="_top" xlink:title="Observer.hxx">
<polygon fill="none" stroke="black" points="221,-56.5 221,-75.5 300,-75.5 300,-56.5 221,-56.5"/>
<text text-anchor="middle" x="260.5" y="-63.5" font-family="Helvetica,sans-Serif" font-size="10.00">Observer.hxx</text>
</a>
</g>
</g>
<!-- Node1&#45;&gt;Node6 -->
<g id="edge5" class="edge"><title>Node1&#45;&gt;Node6</title>
<path fill="none" stroke="midnightblue" d="M345.273,-112.324C329.149,-103.703 304.2,-90.3643 285.536,-80.3855"/>
<polygon fill="midnightblue" stroke="midnightblue" points="287.156,-77.283 276.687,-75.6545 283.856,-83.456 287.156,-77.283"/>
</g>
<!-- Node9 -->
<g id="node9" class="node"><title>Node9</title>
<polygon fill="none" stroke="#bfbfbf" points="318.5,-56.5 318.5,-75.5 404.5,-75.5 404.5,-56.5 318.5,-56.5"/>
<text text-anchor="middle" x="361.5" y="-63.5" font-family="Helvetica,sans-Serif" font-size="10.00">unordered_set</text>
</g>
<!-- Node1&#45;&gt;Node9 -->
<g id="edge8" class="edge"><title>Node1&#45;&gt;Node9</title>
<path fill="none" stroke="midnightblue" d="M361.5,-112.083C361.5,-105.006 361.5,-94.8611 361.5,-85.9865"/>
<polygon fill="midnightblue" stroke="midnightblue" points="365,-85.751 361.5,-75.7511 358,-85.7511 365,-85.751"/>
</g>
<!-- Node10 -->
<g id="node10" class="node"><title>Node10</title>
<polygon fill="none" stroke="#bfbfbf" points="422.5,-56.5 422.5,-75.5 460.5,-75.5 460.5,-56.5 422.5,-56.5"/>
<text text-anchor="middle" x="441.5" y="-63.5" font-family="Helvetica,sans-Serif" font-size="10.00">map</text>
</g>
<!-- Node1&#45;&gt;Node10 -->
<g id="edge9" class="edge"><title>Node1&#45;&gt;Node10</title>
<path fill="none" stroke="midnightblue" d="M374.353,-112.324C386.716,-103.979 405.63,-91.2122 420.237,-81.3524"/>
<polygon fill="midnightblue" stroke="midnightblue" points="422.348,-84.1503 428.679,-75.6545 418.432,-78.3483 422.348,-84.1503"/>
</g>
<!-- Node11 -->
<g id="node11" class="node"><title>Node11</title>
<polygon fill="none" stroke="#bfbfbf" points="479,-56.5 479,-75.5 532,-75.5 532,-56.5 479,-56.5"/>
<text text-anchor="middle" x="505.5" y="-63.5" font-family="Helvetica,sans-Serif" font-size="10.00">ciso646</text>
</g>
<!-- Node1&#45;&gt;Node11 -->
<g id="edge10" class="edge"><title>Node1&#45;&gt;Node11</title>
<path fill="none" stroke="midnightblue" d="M384.317,-112.444C408.332,-103.438 446.329,-89.1891 473.369,-79.049"/>
<polygon fill="midnightblue" stroke="midnightblue" points="474.655,-82.3049 482.79,-75.5164 472.197,-75.7506 474.655,-82.3049"/>
</g>
<!-- Node3 -->
<g id="node3" class="node"><title>Node3</title>
<polygon fill="none" stroke="#bfbfbf" points="0,-0.5 0,-19.5 59,-19.5 59,-0.5 0,-0.5"/>
<text text-anchor="middle" x="29.5" y="-7.5" font-family="Helvetica,sans-Serif" font-size="10.00">iostream</text>
</g>
<!-- Node2&#45;&gt;Node3 -->
<g id="edge2" class="edge"><title>Node2&#45;&gt;Node3</title>
<path fill="none" stroke="midnightblue" d="M124.595,-56.4435C106.246,-47.6751 77.4946,-33.9355 56.4064,-23.8579"/>
<polygon fill="midnightblue" stroke="midnightblue" points="57.8532,-20.6703 47.3214,-19.5164 54.835,-26.9862 57.8532,-20.6703"/>
</g>
<!-- Node4 -->
<g id="node4" class="node"><title>Node4</title>
<polygon fill="none" stroke="#bfbfbf" points="77.5,-0.5 77.5,-19.5 145.5,-19.5 145.5,-0.5 77.5,-0.5"/>
<text text-anchor="middle" x="111.5" y="-7.5" font-family="Helvetica,sans-Serif" font-size="10.00">type_traits</text>
</g>
<!-- Node2&#45;&gt;Node4 -->
<g id="edge3" class="edge"><title>Node2&#45;&gt;Node4</title>
<path fill="none" stroke="midnightblue" d="M137.381,-56.083C133.092,-48.6127 126.842,-37.7244 121.558,-28.5199"/>
<polygon fill="midnightblue" stroke="midnightblue" points="124.538,-26.6811 116.524,-19.7511 118.467,-30.1662 124.538,-26.6811"/>
</g>
<!-- Node5 -->
<g id="node5" class="node"><title>Node5</title>
<polygon fill="none" stroke="#bfbfbf" points="163.5,-0.5 163.5,-19.5 213.5,-19.5 213.5,-0.5 163.5,-0.5"/>
<text text-anchor="middle" x="188.5" y="-7.5" font-family="Helvetica,sans-Serif" font-size="10.00">variant</text>
</g>
<!-- Node2&#45;&gt;Node5 -->
<g id="edge4" class="edge"><title>Node2&#45;&gt;Node5</title>
<path fill="none" stroke="midnightblue" d="M150.096,-56.083C156.727,-48.2982 166.521,-36.8015 174.558,-27.3665"/>
<polygon fill="midnightblue" stroke="midnightblue" points="177.225,-29.6332 181.045,-19.7511 171.896,-25.0939 177.225,-29.6332"/>
</g>
<!-- Node7 -->
<g id="node7" class="node"><title>Node7</title>
<polygon fill="none" stroke="#bfbfbf" points="232,-0.5 232,-19.5 289,-19.5 289,-0.5 232,-0.5"/>
<text text-anchor="middle" x="260.5" y="-7.5" font-family="Helvetica,sans-Serif" font-size="10.00">memory</text>
</g>
<!-- Node6&#45;&gt;Node7 -->
<g id="edge6" class="edge"><title>Node6&#45;&gt;Node7</title>
<path fill="none" stroke="midnightblue" d="M260.5,-56.083C260.5,-49.0059 260.5,-38.8611 260.5,-29.9865"/>
<polygon fill="midnightblue" stroke="midnightblue" points="264,-29.751 260.5,-19.7511 257,-29.7511 264,-29.751"/>
</g>
<!-- Node8 -->
<g id="node8" class="node"><title>Node8</title>
<polygon fill="none" stroke="#bfbfbf" points="307,-0.5 307,-19.5 378,-19.5 378,-0.5 307,-0.5"/>
<text text-anchor="middle" x="342.5" y="-7.5" font-family="Helvetica,sans-Serif" font-size="10.00">forward_list</text>
</g>
<!-- Node6&#45;&gt;Node8 -->
<g id="edge7" class="edge"><title>Node6&#45;&gt;Node8</title>
<path fill="none" stroke="midnightblue" d="M273.675,-56.324C286.347,-47.979 305.733,-35.2122 320.706,-25.3524"/>
<polygon fill="midnightblue" stroke="midnightblue" points="322.931,-28.0776 329.358,-19.6545 319.081,-22.2313 322.931,-28.0776"/>
</g>
</g>
</svg>
