<?xml version="1.0" encoding="UTF-8" standalone="no"?>
<!DOCTYPE svg PUBLIC "-//W3C//DTD SVG 1.1//EN"
 "http://www.w3.org/Graphics/SVG/1.1/DTD/svg11.dtd">
<!-- Generated by graphviz version 2.38.0 (20140413.2041)
 -->
<!-- Title: src/engine/ui/basics/UIElement.hxx Pages: 1 -->
<!--zoomable 263 -->
<svg id="main" version="1.1" xmlns="http://www.w3.org/2000/svg" xmlns:xlink="http://www.w3.org/1999/xlink" xml:space="preserve" onload="init(evt)">
<style type="text/css"><![CDATA[
.edge:hover path { stroke: red; }
.edge:hover polygon { stroke: red; fill: red; }
]]></style>
<script type="text/javascript"><![CDATA[
var edges = document.getElementsByTagName('g');
if (edges && edges.length) {
  for (var i=0;i<edges.length;i++) {
    if (edges[i].id.substr(0,4)=='edge') {
      edges[i].setAttribute('class','edge');
    }
  }
}
]]></script>
        <defs>
                <circle id="rim" cx="0" cy="0" r="7"/>
                <circle id="rim2" cx="0" cy="0" r="3.5"/>
                <g id="zoomPlus">
                        <use xlink:href="#rim" fill="#404040">
                                <set attributeName="fill" to="#808080" begin="zoomplus.mouseover" end="zoomplus.mouseout"/>
                        </use>
                        <path d="M-4,0h8M0,-4v8" fill="none" stroke="white" stroke-width="1.5" pointer-events="none"/>
                </g>
                <g id="zoomMin">
                        <use xlink:href="#rim" fill="#404040">
                                <set attributeName="fill" to="#808080" begin="zoomminus.mouseover" end="zoomminus.mouseout"/>
                        </use>
                        <path d="M-4,0h8" fill="none" stroke="white" stroke-width="1.5" pointer-events="none"/>
                </g>
                <g id="dirArrow">
                        <path fill="none" stroke="white" stroke-width="1.5" d="M0,-3.0v7 M-2.5,-0.5L0,-3.0L2.5,-0.5"/>
                </g>
               <g id="resetDef">
                       <use xlink:href="#rim2" fill="#404040">
                               <set attributeName="fill" to="#808080" begin="reset.mouseover" end="reset.mouseout"/>
                       </use>
               </g>
        </defs>

<script type="text/javascript">
var viewWidth = 939;
var viewHeight = 263;
var sectionId = 'dynsection-0';
</script>
<script xlink:href="svgpan.js"/>
<svg id="graph" class="graph">
<g id="viewport">
<title>src/engine/ui/basics/UIElement.hxx</title>
<!-- Node1 -->
<g id="node1" class="node"><title>Node1</title>
<polygon fill="#bfbfbf" stroke="black" points="273.807,-224.5 273.807,-254.5 383.807,-254.5 383.807,-224.5 273.807,-224.5"/>
<text text-anchor="start" x="281.807" y="-242.5" font-family="Helvetica,sans-Serif" font-size="10.00">src/engine/ui/basics</text>
<text text-anchor="middle" x="328.807" y="-231.5" font-family="Helvetica,sans-Serif" font-size="10.00">/UIElement.hxx</text>
</g>
<!-- Node2 -->
<g id="node2" class="node"><title>Node2</title>
<polygon fill="none" stroke="#bfbfbf" points="255.807,-0.5 255.807,-19.5 299.807,-19.5 299.807,-0.5 255.807,-0.5"/>
<text text-anchor="middle" x="277.807" y="-7.5" font-family="Helvetica,sans-Serif" font-size="10.00">string</text>
</g>
<!-- Node1&#45;&gt;Node2 -->
<g id="edge1" class="edge"><title>Node1&#45;&gt;Node2</title>
<path fill="none" stroke="midnightblue" d="M273.558,-236.837C199.102,-233.299 72.5397,-222.271 43.807,-188 19.7443,-159.299 -49.263,-172.306 61.807,-56 86.6707,-29.9643 191.473,-17.9014 245.42,-13.3288"/>
<polygon fill="midnightblue" stroke="midnightblue" points="245.808,-16.8089 255.492,-12.5122 245.242,-9.83181 245.808,-16.8089"/>
</g>
<!-- Node3 -->
<g id="node3" class="node"><title>Node3</title>
<g id="a_node3"><a xlink:href="mapEdit_8hxx.html" target="_top" xlink:title="../../basics/mapEdit.hxx">
<polygon fill="none" stroke="black" points="53.307,-168.5 53.307,-187.5 180.307,-187.5 180.307,-168.5 53.307,-168.5"/>
<text text-anchor="middle" x="116.807" y="-175.5" font-family="Helvetica,sans-Serif" font-size="10.00">../../basics/mapEdit.hxx</text>
</a>
</g>
</g>
<!-- Node1&#45;&gt;Node3 -->
<g id="edge2" class="edge"><title>Node1&#45;&gt;Node3</title>
<path fill="none" stroke="midnightblue" d="M278.834,-224.475C241.621,-214.03 191.48,-199.958 156.88,-190.247"/>
<polygon fill="midnightblue" stroke="midnightblue" points="157.689,-186.839 147.115,-187.506 155.798,-193.578 157.689,-186.839"/>
</g>
<!-- Node4 -->
<g id="node4" class="node"><title>Node4</title>
<g id="a_node4"><a xlink:href="ResourcesManager_8hxx.html" target="_top" xlink:title="../../ResourcesManager.hxx">
<polygon fill="none" stroke="black" points="206.807,-168.5 206.807,-187.5 350.807,-187.5 350.807,-168.5 206.807,-168.5"/>
<text text-anchor="middle" x="278.807" y="-175.5" font-family="Helvetica,sans-Serif" font-size="10.00">../../ResourcesManager.hxx</text>
</a>
</g>
</g>
<!-- Node1&#45;&gt;Node4 -->
<g id="edge4" class="edge"><title>Node1&#45;&gt;Node4</title>
<path fill="none" stroke="midnightblue" d="M316.958,-224.399C309.692,-215.753 300.355,-204.642 292.736,-195.576"/>
<polygon fill="midnightblue" stroke="midnightblue" points="295.195,-193.062 286.082,-187.658 289.836,-197.565 295.195,-193.062"/>
</g>
<!-- Node7 -->
<g id="node7" class="node"><title>Node7</title>
<polygon fill="none" stroke="#bfbfbf" points="398.307,-56.5 398.307,-75.5 443.307,-75.5 443.307,-56.5 398.307,-56.5"/>
<text text-anchor="middle" x="420.807" y="-63.5" font-family="Helvetica,sans-Serif" font-size="10.00">SDL.h</text>
</g>
<!-- Node1&#45;&gt;Node7 -->
<g id="edge28" class="edge"><title>Node1&#45;&gt;Node7</title>
<path fill="none" stroke="midnightblue" d="M338.1,-224.113C344.443,-214.115 352.913,-200.41 359.807,-188 378.147,-154.988 380.769,-145.703 397.807,-112 402.366,-102.982 407.478,-92.9701 411.723,-84.6839"/>
<polygon fill="midnightblue" stroke="midnightblue" points="414.925,-86.1104 416.375,-75.6153 408.697,-82.9153 414.925,-86.1104"/>
</g>
<!-- Node12 -->
<g id="node12" class="node"><title>Node12</title>
<g id="a_node12"><a xlink:href="WindowManager_8hxx.html" target="_top" xlink:title="../../WindowManager.hxx">
<polygon fill="none" stroke="black" points="448.307,-168.5 448.307,-187.5 579.307,-187.5 579.307,-168.5 448.307,-168.5"/>
<text text-anchor="middle" x="513.807" y="-175.5" font-family="Helvetica,sans-Serif" font-size="10.00">../../WindowManager.hxx</text>
</a>
</g>
</g>
<!-- Node1&#45;&gt;Node12 -->
<g id="edge16" class="edge"><title>Node1&#45;&gt;Node12</title>
<path fill="none" stroke="midnightblue" d="M372.649,-224.399C404.617,-214.118 447.423,-200.351 477.485,-190.682"/>
<polygon fill="midnightblue" stroke="midnightblue" points="478.71,-193.965 487.158,-187.571 476.567,-187.301 478.71,-193.965"/>
</g>
<!-- Node14 -->
<g id="node14" class="node"><title>Node14</title>
<g id="a_node14"><a xlink:href="signal_8hxx.html" target="_top" xlink:title="../../basics/signal.hxx">
<polygon fill="none" stroke="black" points="670.307,-168.5 670.307,-187.5 785.307,-187.5 785.307,-168.5 670.307,-168.5"/>
<text text-anchor="middle" x="727.807" y="-175.5" font-family="Helvetica,sans-Serif" font-size="10.00">../../basics/signal.hxx</text>
</a>
</g>
</g>
<!-- Node1&#45;&gt;Node14 -->
<g id="edge22" class="edge"><title>Node1&#45;&gt;Node14</title>
<path fill="none" stroke="midnightblue" d="M383.867,-230.289C456.09,-219.519 582.745,-200.632 660.558,-189.028"/>
<polygon fill="midnightblue" stroke="midnightblue" points="661.359,-192.448 670.734,-187.511 660.327,-185.524 661.359,-192.448"/>
</g>
<!-- Node3&#45;&gt;Node2 -->
<g id="edge3" class="edge"><title>Node3&#45;&gt;Node2</title>
<path fill="none" stroke="midnightblue" d="M108.679,-168.439C89.5402,-147.239 45.3215,-91.4539 73.807,-56 95.0058,-29.6155 193.728,-17.7838 245.666,-13.3095"/>
<polygon fill="midnightblue" stroke="midnightblue" points="246.014,-16.7928 255.694,-12.4871 245.441,-9.81625 246.014,-16.7928"/>
</g>
<!-- Node5 -->
<g id="node5" class="node"><title>Node5</title>
<polygon fill="none" stroke="#bfbfbf" points="407.307,-112.5 407.307,-131.5 466.307,-131.5 466.307,-112.5 407.307,-112.5"/>
<text text-anchor="middle" x="436.807" y="-119.5" font-family="Helvetica,sans-Serif" font-size="10.00">iostream</text>
</g>
<!-- Node4&#45;&gt;Node5 -->
<g id="edge5" class="edge"><title>Node4&#45;&gt;Node5</title>
<path fill="none" stroke="midnightblue" d="M303.843,-168.444C330.423,-159.359 372.616,-144.939 402.33,-134.783"/>
<polygon fill="midnightblue" stroke="midnightblue" points="403.558,-138.062 411.889,-131.516 401.294,-131.439 403.558,-138.062"/>
</g>
<!-- Node6 -->
<g id="node6" class="node"><title>Node6</title>
<polygon fill="none" stroke="#bfbfbf" points="83.307,-56.5 83.307,-75.5 176.307,-75.5 176.307,-56.5 83.307,-56.5"/>
<text text-anchor="middle" x="129.807" y="-63.5" font-family="Helvetica,sans-Serif" font-size="10.00">unordered_map</text>
</g>
<!-- Node4&#45;&gt;Node6 -->
<g id="edge6" class="edge"><title>Node4&#45;&gt;Node6</title>
<path fill="none" stroke="midnightblue" d="M264.775,-168.45C250.626,-159.69 228.295,-145.483 209.807,-132 187.848,-115.985 163.787,-96.0952 147.847,-82.5643"/>
<polygon fill="midnightblue" stroke="midnightblue" points="149.768,-79.602 139.892,-75.7664 145.22,-84.9237 149.768,-79.602"/>
</g>
<!-- Node4&#45;&gt;Node7 -->
<g id="edge7" class="edge"><title>Node4&#45;&gt;Node7</title>
<path fill="none" stroke="midnightblue" d="M289.95,-168.368C314.109,-149.653 371.558,-105.151 401.66,-81.8324"/>
<polygon fill="midnightblue" stroke="midnightblue" points="403.954,-84.4824 409.716,-75.5914 399.667,-78.9485 403.954,-84.4824"/>
</g>
<!-- Node8 -->
<g id="node8" class="node"><title>Node8</title>
<g id="a_node8"><a xlink:href="TileManager_8hxx.html" target="_top" xlink:title="TileManager.hxx">
<polygon fill="none" stroke="black" points="219.307,-112.5 219.307,-131.5 312.307,-131.5 312.307,-112.5 219.307,-112.5"/>
<text text-anchor="middle" x="265.807" y="-119.5" font-family="Helvetica,sans-Serif" font-size="10.00">TileManager.hxx</text>
</a>
</g>
</g>
<!-- Node4&#45;&gt;Node8 -->
<g id="edge8" class="edge"><title>Node4&#45;&gt;Node8</title>
<path fill="none" stroke="midnightblue" d="M276.66,-168.083C274.938,-160.927 272.46,-150.635 270.307,-141.691"/>
<polygon fill="midnightblue" stroke="midnightblue" points="273.657,-140.654 267.914,-131.751 266.852,-142.293 273.657,-140.654"/>
</g>
<!-- Node8&#45;&gt;Node2 -->
<g id="edge11" class="edge"><title>Node8&#45;&gt;Node2</title>
<path fill="none" stroke="midnightblue" d="M266.749,-112.368C268.685,-94.617 273.153,-53.6664 275.778,-29.5974"/>
<polygon fill="midnightblue" stroke="midnightblue" points="279.265,-29.912 276.87,-19.5914 272.306,-29.1528 279.265,-29.912"/>
</g>
<!-- Node8&#45;&gt;Node6 -->
<g id="edge10" class="edge"><title>Node8&#45;&gt;Node6</title>
<path fill="none" stroke="midnightblue" d="M244.257,-112.444C221.776,-103.517 186.319,-89.4387 160.827,-79.3168"/>
<polygon fill="midnightblue" stroke="midnightblue" points="161.842,-75.9539 151.256,-75.5164 159.258,-82.4598 161.842,-75.9539"/>
</g>
<!-- Node8&#45;&gt;Node7 -->
<g id="edge9" class="edge"><title>Node8&#45;&gt;Node7</title>
<path fill="none" stroke="midnightblue" d="M290.367,-112.444C316.788,-103.239 358.932,-88.5565 388.135,-78.3826"/>
<polygon fill="midnightblue" stroke="midnightblue" points="389.586,-81.5835 397.878,-74.9883 387.283,-74.9731 389.586,-81.5835"/>
</g>
<!-- Node9 -->
<g id="node9" class="node"><title>Node9</title>
<g id="a_node9"><a xlink:href="tileData_8hxx.html" target="_top" xlink:title="tileData.hxx">
<polygon fill="none" stroke="black" points="305.807,-56.5 305.807,-75.5 379.807,-75.5 379.807,-56.5 305.807,-56.5"/>
<text text-anchor="middle" x="342.807" y="-63.5" font-family="Helvetica,sans-Serif" font-size="10.00">tileData.hxx</text>
</a>
</g>
</g>
<!-- Node8&#45;&gt;Node9 -->
<g id="edge12" class="edge"><title>Node8&#45;&gt;Node9</title>
<path fill="none" stroke="midnightblue" d="M278.178,-112.324C289.966,-104.058 307.939,-91.4527 321.943,-81.6322"/>
<polygon fill="midnightblue" stroke="midnightblue" points="324.289,-84.2619 330.466,-75.6545 320.269,-78.5307 324.289,-84.2619"/>
</g>
<!-- Node10 -->
<g id="node10" class="node"><title>Node10</title>
<polygon fill="none" stroke="#bfbfbf" points="193.807,-56.5 193.807,-75.5 249.807,-75.5 249.807,-56.5 193.807,-56.5"/>
<text text-anchor="middle" x="221.807" y="-63.5" font-family="Helvetica,sans-Serif" font-size="10.00">json.hxx</text>
</g>
<!-- Node8&#45;&gt;Node10 -->
<g id="edge14" class="edge"><title>Node8&#45;&gt;Node10</title>
<path fill="none" stroke="midnightblue" d="M258.541,-112.083C252.262,-104.377 243.019,-93.0333 235.376,-83.6531"/>
<polygon fill="midnightblue" stroke="midnightblue" points="237.968,-81.2926 228.938,-75.7511 232.541,-85.7143 237.968,-81.2926"/>
</g>
<!-- Node11 -->
<g id="node11" class="node"><title>Node11</title>
<g id="a_node11"><a xlink:href="Singleton_8hxx.html" target="_top" xlink:title="Singleton.hxx">
<polygon fill="none" stroke="black" points="461.307,-56.5 461.307,-75.5 542.307,-75.5 542.307,-56.5 461.307,-56.5"/>
<text text-anchor="middle" x="501.807" y="-63.5" font-family="Helvetica,sans-Serif" font-size="10.00">Singleton.hxx</text>
</a>
</g>
</g>
<!-- Node8&#45;&gt;Node11 -->
<g id="edge15" class="edge"><title>Node8&#45;&gt;Node11</title>
<path fill="none" stroke="midnightblue" d="M303.202,-112.444C344.199,-103.063 410.062,-87.9926 454.591,-77.8036"/>
<polygon fill="midnightblue" stroke="midnightblue" points="455.62,-81.1588 464.587,-75.5164 454.058,-74.3352 455.62,-81.1588"/>
</g>
<!-- Node9&#45;&gt;Node2 -->
<g id="edge13" class="edge"><title>Node9&#45;&gt;Node2</title>
<path fill="none" stroke="midnightblue" d="M332.364,-56.324C322.661,-48.2631 307.992,-36.0765 296.307,-26.3695"/>
<polygon fill="midnightblue" stroke="midnightblue" points="298.369,-23.532 288.44,-19.8339 293.896,-28.9163 298.369,-23.532"/>
</g>
<!-- Node12&#45;&gt;Node2 -->
<g id="edge17" class="edge"><title>Node12&#45;&gt;Node2</title>
<path fill="none" stroke="midnightblue" d="M521.356,-168.28C539.091,-146.717 579.803,-90.1673 550.807,-56 520.26,-20.0061 375.682,-12.7562 310.188,-11.33"/>
<polygon fill="midnightblue" stroke="midnightblue" points="310.081,-7.82752 300.018,-11.142 309.952,-14.8263 310.081,-7.82752"/>
</g>
<!-- Node12&#45;&gt;Node5 -->
<g id="edge18" class="edge"><title>Node12&#45;&gt;Node5</title>
<path fill="none" stroke="midnightblue" d="M501.436,-168.324C489.649,-160.058 471.675,-147.453 457.672,-137.632"/>
<polygon fill="midnightblue" stroke="midnightblue" points="459.345,-134.531 449.148,-131.655 455.325,-140.262 459.345,-134.531"/>
</g>
<!-- Node12&#45;&gt;Node7 -->
<g id="edge20" class="edge"><title>Node12&#45;&gt;Node7</title>
<path fill="none" stroke="midnightblue" d="M509.82,-168.406C503.526,-155.37 490.387,-130.191 474.807,-112 465.035,-100.591 452.176,-89.7494 441.457,-81.5676"/>
<polygon fill="midnightblue" stroke="midnightblue" points="443.54,-78.7543 433.42,-75.6161 439.374,-84.3799 443.54,-78.7543"/>
</g>
<!-- Node12&#45;&gt;Node11 -->
<g id="edge21" class="edge"><title>Node12&#45;&gt;Node11</title>
<path fill="none" stroke="midnightblue" d="M513.344,-168.148C512.64,-155.62 511.13,-132.012 508.807,-112 507.792,-103.253 506.335,-93.5994 505.013,-85.4838"/>
<polygon fill="midnightblue" stroke="midnightblue" points="508.461,-84.8794 503.348,-75.5998 501.558,-86.0423 508.461,-84.8794"/>
</g>
<!-- Node13 -->
<g id="node13" class="node"><title>Node13</title>
<polygon fill="none" stroke="#bfbfbf" points="599.307,-112.5 599.307,-131.5 646.307,-131.5 646.307,-112.5 599.307,-112.5"/>
<text text-anchor="middle" x="622.807" y="-119.5" font-family="Helvetica,sans-Serif" font-size="10.00">vector</text>
</g>
<!-- Node12&#45;&gt;Node13 -->
<g id="edge19" class="edge"><title>Node12&#45;&gt;Node13</title>
<path fill="none" stroke="midnightblue" d="M531.32,-168.324C548.879,-159.625 576.138,-146.12 596.338,-136.113"/>
<polygon fill="midnightblue" stroke="midnightblue" points="597.931,-139.23 605.338,-131.655 594.823,-132.958 597.931,-139.23"/>
</g>
<!-- Node14&#45;&gt;Node13 -->
<g id="edge26" class="edge"><title>Node14&#45;&gt;Node13</title>
<path fill="none" stroke="midnightblue" d="M710.937,-168.324C694.098,-159.664 668.001,-146.242 648.569,-136.249"/>
<polygon fill="midnightblue" stroke="midnightblue" points="650.129,-133.116 639.635,-131.655 646.927,-139.341 650.129,-133.116"/>
</g>
<!-- Node15 -->
<g id="node15" class="node"><title>Node15</title>
<polygon fill="none" stroke="#bfbfbf" points="874.307,-112.5 874.307,-131.5 931.307,-131.5 931.307,-112.5 874.307,-112.5"/>
<text text-anchor="middle" x="902.807" y="-119.5" font-family="Helvetica,sans-Serif" font-size="10.00">memory</text>
</g>
<!-- Node14&#45;&gt;Node15 -->
<g id="edge23" class="edge"><title>Node14&#45;&gt;Node15</title>
<path fill="none" stroke="midnightblue" d="M755.536,-168.444C785.233,-159.28 832.523,-144.688 865.476,-134.519"/>
<polygon fill="midnightblue" stroke="midnightblue" points="866.684,-137.809 875.208,-131.516 864.62,-131.121 866.684,-137.809"/>
</g>
<!-- Node16 -->
<g id="node16" class="node"><title>Node16</title>
<polygon fill="none" stroke="#bfbfbf" points="664.307,-112.5 664.307,-131.5 727.307,-131.5 727.307,-112.5 664.307,-112.5"/>
<text text-anchor="middle" x="695.807" y="-119.5" font-family="Helvetica,sans-Serif" font-size="10.00">functional</text>
</g>
<!-- Node14&#45;&gt;Node16 -->
<g id="edge24" class="edge"><title>Node14&#45;&gt;Node16</title>
<path fill="none" stroke="midnightblue" d="M722.523,-168.083C718.096,-160.613 711.644,-149.724 706.189,-140.52"/>
<polygon fill="midnightblue" stroke="midnightblue" points="709.102,-138.57 700.993,-131.751 703.08,-142.138 709.102,-138.57"/>
</g>
<!-- Node17 -->
<g id="node17" class="node"><title>Node17</title>
<polygon fill="none" stroke="#bfbfbf" points="745.807,-112.5 745.807,-131.5 775.807,-131.5 775.807,-112.5 745.807,-112.5"/>
<text text-anchor="middle" x="760.807" y="-119.5" font-family="Helvetica,sans-Serif" font-size="10.00">list</text>
</g>
<!-- Node14&#45;&gt;Node17 -->
<g id="edge25" class="edge"><title>Node14&#45;&gt;Node17</title>
<path fill="none" stroke="midnightblue" d="M733.256,-168.083C737.822,-160.613 744.475,-149.724 750.1,-140.52"/>
<polygon fill="midnightblue" stroke="midnightblue" points="753.231,-142.109 755.459,-131.751 747.258,-138.459 753.231,-142.109"/>
</g>
<!-- Node18 -->
<g id="node18" class="node"><title>Node18</title>
<polygon fill="none" stroke="#bfbfbf" points="793.807,-112.5 793.807,-131.5 855.807,-131.5 855.807,-112.5 793.807,-112.5"/>
<text text-anchor="middle" x="824.807" y="-119.5" font-family="Helvetica,sans-Serif" font-size="10.00">algorithm</text>
</g>
<!-- Node14&#45;&gt;Node18 -->
<g id="edge27" class="edge"><title>Node14&#45;&gt;Node18</title>
<path fill="none" stroke="midnightblue" d="M743.392,-168.324C758.806,-159.743 782.619,-146.486 800.517,-136.522"/>
<polygon fill="midnightblue" stroke="midnightblue" points="802.226,-139.577 809.261,-131.655 798.821,-133.461 802.226,-139.577"/>
</g>
</g>
</svg>
        <g id="navigator" transform="translate(0 0)" fill="#404254">
                <rect fill="#f2f5e9" fill-opacity="0.5" stroke="#606060" stroke-width=".5" x="0" y="0" width="60" height="60"/>
                <use id="zoomplus" xlink:href="#zoomPlus" x="17" y="9" onmousedown="handleZoom(evt,'in')"/>
                <use id="zoomminus" xlink:href="#zoomMin" x="42" y="9" onmousedown="handleZoom(evt,'out')"/>
                <use id="reset" xlink:href="#resetDef" x="30" y="36" onmousedown="handleReset()"/>
                <g id="arrowUp" xlink:href="#dirArrow" transform="translate(30 24)" onmousedown="handlePan(0,-1)">
                  <use xlink:href="#rim" fill="#404040">
                        <set attributeName="fill" to="#808080" begin="arrowUp.mouseover" end="arrowUp.mouseout"/>
                  </use>
                  <path fill="none" stroke="white" stroke-width="1.5" d="M0,-3.0v7 M-2.5,-0.5L0,-3.0L2.5,-0.5"/>
                </g>
                <g id="arrowRight" xlink:href="#dirArrow" transform="rotate(90) translate(36 -43)" onmousedown="handlePan(1,0)">
                  <use xlink:href="#rim" fill="#404040">
                        <set attributeName="fill" to="#808080" begin="arrowRight.mouseover" end="arrowRight.mouseout"/>
                  </use>
                  <path fill="none" stroke="white" stroke-width="1.5" d="M0,-3.0v7 M-2.5,-0.5L0,-3.0L2.5,-0.5"/>
                </g>
                <g id="arrowDown" xlink:href="#dirArrow" transform="rotate(180) translate(-30 -48)" onmousedown="handlePan(0,1)">
                  <use xlink:href="#rim" fill="#404040">
                        <set attributeName="fill" to="#808080" begin="arrowDown.mouseover" end="arrowDown.mouseout"/>
                  </use>
                  <path fill="none" stroke="white" stroke-width="1.5" d="M0,-3.0v7 M-2.5,-0.5L0,-3.0L2.5,-0.5"/>
                </g>
                <g id="arrowLeft" xlink:href="#dirArrow" transform="rotate(270) translate(-36 17)" onmousedown="handlePan(-1,0)">
                  <use xlink:href="#rim" fill="#404040">
                        <set attributeName="fill" to="#808080" begin="arrowLeft.mouseover" end="arrowLeft.mouseout"/>
                  </use>
                  <path fill="none" stroke="white" stroke-width="1.5" d="M0,-3.0v7 M-2.5,-0.5L0,-3.0L2.5,-0.5"/>
                </g>
        </g>
        <svg viewBox="0 0 15 15" width="100%" height="30px" preserveAspectRatio="xMaxYMin meet">
         <g id="arrow_out" transform="scale(0.3 0.3)">
          <a xlink:href="UIElement_8hxx__incl_org.svg" target="_base">
           <rect id="button" ry="5" rx="5" y="6" x="6" height="38" width="38"
                fill="#f2f5e9" fill-opacity="0.5" stroke="#606060" stroke-width="1.0"/>
           <path id="arrow"
             d="M 11.500037,31.436501 C 11.940474,20.09759 22.043105,11.32322 32.158766,21.979434 L 37.068811,17.246167 C 37.068811,17.246167 37.088388,32 37.088388,32 L 22.160133,31.978069 C 22.160133,31.978069 26.997745,27.140456 26.997745,27.140456 C 18.528582,18.264221 13.291696,25.230495 11.500037,31.436501 z"
             style="fill:#404040;"/>
          </a>
         </g>
        </svg>
</svg>
