<?xml version="1.0" encoding="UTF-8" standalone="no"?>
<!DOCTYPE svg PUBLIC "-//W3C//DTD SVG 1.1//EN"
 "http://www.w3.org/Graphics/SVG/1.1/DTD/svg11.dtd">
<!-- Generated by graphviz version 2.38.0 (20140413.2041)
 -->
<!-- Title: src/engine/ui/basics/UIElement.cxx Pages: 1 -->
<svg width="1343pt" height="319pt"
 viewBox="0.00 0.00 1343.02 319.00" xmlns="http://www.w3.org/2000/svg" xmlns:xlink="http://www.w3.org/1999/xlink">
<g id="graph0" class="graph" transform="scale(1 1) rotate(0) translate(4 315)">
<title>src/engine/ui/basics/UIElement.cxx</title>
<!-- Node1 -->
<g id="node1" class="node"><title>Node1</title>
<polygon fill="#bfbfbf" stroke="black" points="985.017,-280.5 985.017,-310.5 1095.02,-310.5 1095.02,-280.5 985.017,-280.5"/>
<text text-anchor="start" x="993.017" y="-298.5" font-family="Helvetica,sans-Serif" font-size="10.00">src/engine/ui/basics</text>
<text text-anchor="middle" x="1040.02" y="-287.5" font-family="Helvetica,sans-Serif" font-size="10.00">/UIElement.cxx</text>
</g>
<!-- Node2 -->
<g id="node2" class="node"><title>Node2</title>
<g id="a_node2"><a xlink:href="UIElement_8hxx.html" target="_top" xlink:title="UIElement.hxx">
<polygon fill="none" stroke="black" points="332.017,-224.5 332.017,-243.5 418.017,-243.5 418.017,-224.5 332.017,-224.5"/>
<text text-anchor="middle" x="375.017" y="-231.5" font-family="Helvetica,sans-Serif" font-size="10.00">UIElement.hxx</text>
</a>
</g>
</g>
<!-- Node1&#45;&gt;Node2 -->
<g id="edge1" class="edge"><title>Node1&#45;&gt;Node2</title>
<path fill="none" stroke="midnightblue" d="M984.748,-289.555C858.789,-278.285 551.786,-250.816 428.026,-239.743"/>
<polygon fill="midnightblue" stroke="midnightblue" points="428.303,-236.254 418.031,-238.849 427.679,-243.226 428.303,-236.254"/>
</g>
<!-- Node20 -->
<g id="node20" class="node"><title>Node20</title>
<g id="a_node20"><a xlink:href="LOG_8hxx.html" target="_top" xlink:title="../../basics/LOG.hxx">
<polygon fill="none" stroke="black" points="986.517,-168.5 986.517,-187.5 1093.52,-187.5 1093.52,-168.5 986.517,-168.5"/>
<text text-anchor="middle" x="1040.02" y="-175.5" font-family="Helvetica,sans-Serif" font-size="10.00">../../basics/LOG.hxx</text>
</a>
</g>
</g>
<!-- Node1&#45;&gt;Node20 -->
<g id="edge30" class="edge"><title>Node1&#45;&gt;Node20</title>
<path fill="none" stroke="midnightblue" d="M1040.02,-280.337C1040.02,-259.622 1040.02,-221.016 1040.02,-197.899"/>
<polygon fill="midnightblue" stroke="midnightblue" points="1043.52,-197.669 1040.02,-187.669 1036.52,-197.669 1043.52,-197.669"/>
</g>
<!-- Node25 -->
<g id="node25" class="node"><title>Node25</title>
<g id="a_node25"><a xlink:href="Settings_8hxx.html" target="_top" xlink:title="Settings.hxx">
<polygon fill="none" stroke="black" points="1259.02,-112.5 1259.02,-131.5 1335.02,-131.5 1335.02,-112.5 1259.02,-112.5"/>
<text text-anchor="middle" x="1297.02" y="-119.5" font-family="Helvetica,sans-Serif" font-size="10.00">Settings.hxx</text>
</a>
</g>
</g>
<!-- Node1&#45;&gt;Node25 -->
<g id="edge37" class="edge"><title>Node1&#45;&gt;Node25</title>
<path fill="none" stroke="midnightblue" d="M1061.05,-280.465C1109.25,-248.299 1227.27,-169.541 1275.73,-137.208"/>
<polygon fill="midnightblue" stroke="midnightblue" points="1277.81,-140.022 1284.19,-131.56 1273.93,-134.199 1277.81,-140.022"/>
</g>
<!-- Node3 -->
<g id="node3" class="node"><title>Node3</title>
<polygon fill="none" stroke="#bfbfbf" points="215.017,-0.5 215.017,-19.5 259.017,-19.5 259.017,-0.5 215.017,-0.5"/>
<text text-anchor="middle" x="237.017" y="-7.5" font-family="Helvetica,sans-Serif" font-size="10.00">string</text>
</g>
<!-- Node2&#45;&gt;Node3 -->
<g id="edge2" class="edge"><title>Node2&#45;&gt;Node3</title>
<path fill="none" stroke="midnightblue" d="M331.748,-233.822C250.706,-234.335 80.8755,-230.208 44.0171,-188 19.8777,-160.357 -49.4875,-178.307 62.0171,-56 80.9963,-35.1821 159.48,-21.4256 204.633,-15.069"/>
<polygon fill="midnightblue" stroke="midnightblue" points="205.367,-18.5015 214.803,-13.683 204.422,-11.5656 205.367,-18.5015"/>
</g>
<!-- Node4 -->
<g id="node4" class="node"><title>Node4</title>
<g id="a_node4"><a xlink:href="mapEdit_8hxx.html" target="_top" xlink:title="../../basics/mapEdit.hxx">
<polygon fill="none" stroke="black" points="53.5171,-168.5 53.5171,-187.5 180.517,-187.5 180.517,-168.5 53.5171,-168.5"/>
<text text-anchor="middle" x="117.017" y="-175.5" font-family="Helvetica,sans-Serif" font-size="10.00">../../basics/mapEdit.hxx</text>
</a>
</g>
</g>
<!-- Node2&#45;&gt;Node4 -->
<g id="edge3" class="edge"><title>Node2&#45;&gt;Node4</title>
<path fill="none" stroke="midnightblue" d="M334.136,-224.444C289.034,-215.004 216.405,-199.802 167.715,-189.611"/>
<polygon fill="midnightblue" stroke="midnightblue" points="168.212,-186.139 157.707,-187.516 166.778,-192.991 168.212,-186.139"/>
</g>
<!-- Node5 -->
<g id="node5" class="node"><title>Node5</title>
<g id="a_node5"><a xlink:href="ResourcesManager_8hxx.html" target="_top" xlink:title="../../ResourcesManager.hxx">
<polygon fill="none" stroke="black" points="203.017,-168.5 203.017,-187.5 347.017,-187.5 347.017,-168.5 203.017,-168.5"/>
<text text-anchor="middle" x="275.017" y="-175.5" font-family="Helvetica,sans-Serif" font-size="10.00">../../ResourcesManager.hxx</text>
</a>
</g>
</g>
<!-- Node2&#45;&gt;Node5 -->
<g id="edge5" class="edge"><title>Node2&#45;&gt;Node5</title>
<path fill="none" stroke="midnightblue" d="M358.95,-224.324C343.059,-215.743 318.51,-202.486 300.059,-192.522"/>
<polygon fill="midnightblue" stroke="midnightblue" points="301.506,-189.326 291.044,-187.655 298.18,-195.486 301.506,-189.326"/>
</g>
<!-- Node8 -->
<g id="node8" class="node"><title>Node8</title>
<polygon fill="none" stroke="#bfbfbf" points="399.517,-56.5 399.517,-75.5 444.517,-75.5 444.517,-56.5 399.517,-56.5"/>
<text text-anchor="middle" x="422.017" y="-63.5" font-family="Helvetica,sans-Serif" font-size="10.00">SDL.h</text>
</g>
<!-- Node2&#45;&gt;Node8 -->
<g id="edge29" class="edge"><title>Node2&#45;&gt;Node8</title>
<path fill="none" stroke="midnightblue" d="M375.197,-224.494C375.869,-204.321 379.039,-152.258 394.017,-112 397.7,-102.1 403.711,-92.03 409.22,-83.9332"/>
<polygon fill="midnightblue" stroke="midnightblue" points="412.107,-85.9141 415.078,-75.7443 406.413,-81.8417 412.107,-85.9141"/>
</g>
<!-- Node13 -->
<g id="node13" class="node"><title>Node13</title>
<g id="a_node13"><a xlink:href="WindowManager_8hxx.html" target="_top" xlink:title="../../WindowManager.hxx">
<polygon fill="none" stroke="black" points="444.517,-168.5 444.517,-187.5 575.517,-187.5 575.517,-168.5 444.517,-168.5"/>
<text text-anchor="middle" x="510.017" y="-175.5" font-family="Helvetica,sans-Serif" font-size="10.00">../../WindowManager.hxx</text>
</a>
</g>
</g>
<!-- Node2&#45;&gt;Node13 -->
<g id="edge17" class="edge"><title>Node2&#45;&gt;Node13</title>
<path fill="none" stroke="midnightblue" d="M396.408,-224.444C418.724,-215.517 453.92,-201.439 479.225,-191.317"/>
<polygon fill="midnightblue" stroke="midnightblue" points="480.741,-194.48 488.726,-187.516 478.141,-187.981 480.741,-194.48"/>
</g>
<!-- Node15 -->
<g id="node15" class="node"><title>Node15</title>
<g id="a_node15"><a xlink:href="signal_8hxx.html" target="_top" xlink:title="../../basics/signal.hxx">
<polygon fill="none" stroke="black" points="670.517,-168.5 670.517,-187.5 785.517,-187.5 785.517,-168.5 670.517,-168.5"/>
<text text-anchor="middle" x="728.017" y="-175.5" font-family="Helvetica,sans-Serif" font-size="10.00">../../basics/signal.hxx</text>
</a>
</g>
</g>
<!-- Node2&#45;&gt;Node15 -->
<g id="edge23" class="edge"><title>Node2&#45;&gt;Node15</title>
<path fill="none" stroke="midnightblue" d="M418.302,-226.379C479.191,-217.064 590.651,-200.013 661.94,-189.108"/>
<polygon fill="midnightblue" stroke="midnightblue" points="662.801,-192.517 672.156,-187.545 661.742,-185.598 662.801,-192.517"/>
</g>
<!-- Node4&#45;&gt;Node3 -->
<g id="edge4" class="edge"><title>Node4&#45;&gt;Node3</title>
<path fill="none" stroke="midnightblue" d="M108.726,-168.219C89.7041,-146.995 46.6025,-92.0086 74.0171,-56 89.7887,-35.2843 161.956,-21.6721 204.798,-15.2647"/>
<polygon fill="midnightblue" stroke="midnightblue" points="205.353,-18.721 214.749,-13.8268 204.352,-11.793 205.353,-18.721"/>
</g>
<!-- Node6 -->
<g id="node6" class="node"><title>Node6</title>
<polygon fill="none" stroke="#bfbfbf" points="403.517,-112.5 403.517,-131.5 462.517,-131.5 462.517,-112.5 403.517,-112.5"/>
<text text-anchor="middle" x="433.017" y="-119.5" font-family="Helvetica,sans-Serif" font-size="10.00">iostream</text>
</g>
<!-- Node5&#45;&gt;Node6 -->
<g id="edge6" class="edge"><title>Node5&#45;&gt;Node6</title>
<path fill="none" stroke="midnightblue" d="M300.053,-168.444C326.633,-159.359 368.826,-144.939 398.54,-134.783"/>
<polygon fill="midnightblue" stroke="midnightblue" points="399.768,-138.062 408.099,-131.516 397.504,-131.439 399.768,-138.062"/>
</g>
<!-- Node7 -->
<g id="node7" class="node"><title>Node7</title>
<polygon fill="none" stroke="#bfbfbf" points="83.5171,-56.5 83.5171,-75.5 176.517,-75.5 176.517,-56.5 83.5171,-56.5"/>
<text text-anchor="middle" x="130.017" y="-63.5" font-family="Helvetica,sans-Serif" font-size="10.00">unordered_map</text>
</g>
<!-- Node5&#45;&gt;Node7 -->
<g id="edge7" class="edge"><title>Node5&#45;&gt;Node7</title>
<path fill="none" stroke="midnightblue" d="M260.645,-168.384C246.428,-159.688 224.219,-145.63 206.017,-132 184.91,-116.195 162.098,-96.2659 147.033,-82.6685"/>
<polygon fill="midnightblue" stroke="midnightblue" points="149.272,-79.9739 139.52,-75.8322 144.561,-85.1512 149.272,-79.9739"/>
</g>
<!-- Node5&#45;&gt;Node8 -->
<g id="edge8" class="edge"><title>Node5&#45;&gt;Node8</title>
<path fill="none" stroke="midnightblue" d="M286.392,-168.336C302.824,-155.837 334.174,-132.044 361.017,-112 374.63,-101.835 390.025,-90.479 401.944,-81.7178"/>
<polygon fill="midnightblue" stroke="midnightblue" points="404.304,-84.3265 410.293,-75.5865 400.161,-78.6844 404.304,-84.3265"/>
</g>
<!-- Node9 -->
<g id="node9" class="node"><title>Node9</title>
<g id="a_node9"><a xlink:href="TileManager_8hxx.html" target="_top" xlink:title="TileManager.hxx">
<polygon fill="none" stroke="black" points="215.517,-112.5 215.517,-131.5 308.517,-131.5 308.517,-112.5 215.517,-112.5"/>
<text text-anchor="middle" x="262.017" y="-119.5" font-family="Helvetica,sans-Serif" font-size="10.00">TileManager.hxx</text>
</a>
</g>
</g>
<!-- Node5&#45;&gt;Node9 -->
<g id="edge9" class="edge"><title>Node5&#45;&gt;Node9</title>
<path fill="none" stroke="midnightblue" d="M272.87,-168.083C271.148,-160.927 268.67,-150.635 266.517,-141.691"/>
<polygon fill="midnightblue" stroke="midnightblue" points="269.867,-140.654 264.124,-131.751 263.062,-142.293 269.867,-140.654"/>
</g>
<!-- Node9&#45;&gt;Node3 -->
<g id="edge12" class="edge"><title>Node9&#45;&gt;Node3</title>
<path fill="none" stroke="midnightblue" d="M251.303,-112.305C242.079,-104.069 229.426,-90.789 224.017,-76 218.403,-60.6493 223.02,-42.3241 228.243,-29.0502"/>
<polygon fill="midnightblue" stroke="midnightblue" points="231.559,-30.2041 232.379,-19.641 225.151,-27.3875 231.559,-30.2041"/>
</g>
<!-- Node9&#45;&gt;Node7 -->
<g id="edge11" class="edge"><title>Node9&#45;&gt;Node7</title>
<path fill="none" stroke="midnightblue" d="M241.101,-112.444C219.281,-103.517 184.867,-89.4387 160.125,-79.3168"/>
<polygon fill="midnightblue" stroke="midnightblue" points="161.416,-76.0634 150.835,-75.5164 158.765,-82.5422 161.416,-76.0634"/>
</g>
<!-- Node9&#45;&gt;Node8 -->
<g id="edge10" class="edge"><title>Node9&#45;&gt;Node8</title>
<path fill="none" stroke="midnightblue" d="M287.37,-112.444C315.078,-103.092 359.54,-88.0859 389.726,-77.8984"/>
<polygon fill="midnightblue" stroke="midnightblue" points="391.015,-81.1574 399.37,-74.6433 388.776,-74.525 391.015,-81.1574"/>
</g>
<!-- Node10 -->
<g id="node10" class="node"><title>Node10</title>
<g id="a_node10"><a xlink:href="tileData_8hxx.html" target="_top" xlink:title="tileData.hxx">
<polygon fill="none" stroke="black" points="233.017,-56.5 233.017,-75.5 307.017,-75.5 307.017,-56.5 233.017,-56.5"/>
<text text-anchor="middle" x="270.017" y="-63.5" font-family="Helvetica,sans-Serif" font-size="10.00">tileData.hxx</text>
</a>
</g>
</g>
<!-- Node9&#45;&gt;Node10 -->
<g id="edge13" class="edge"><title>Node9&#45;&gt;Node10</title>
<path fill="none" stroke="midnightblue" d="M263.338,-112.083C264.398,-104.927 265.923,-94.6353 267.248,-85.6911"/>
<polygon fill="midnightblue" stroke="midnightblue" points="270.717,-86.1561 268.721,-75.7511 263.793,-85.1302 270.717,-86.1561"/>
</g>
<!-- Node11 -->
<g id="node11" class="node"><title>Node11</title>
<polygon fill="none" stroke="#bfbfbf" points="325.017,-56.5 325.017,-75.5 381.017,-75.5 381.017,-56.5 325.017,-56.5"/>
<text text-anchor="middle" x="353.017" y="-63.5" font-family="Helvetica,sans-Serif" font-size="10.00">json.hxx</text>
</g>
<!-- Node9&#45;&gt;Node11 -->
<g id="edge15" class="edge"><title>Node9&#45;&gt;Node11</title>
<path fill="none" stroke="midnightblue" d="M276.638,-112.324C290.966,-103.822 313.03,-90.7288 329.766,-80.7975"/>
<polygon fill="midnightblue" stroke="midnightblue" points="331.619,-83.7677 338.433,-75.6545 328.047,-77.7478 331.619,-83.7677"/>
</g>
<!-- Node12 -->
<g id="node12" class="node"><title>Node12</title>
<g id="a_node12"><a xlink:href="Singleton_8hxx.html" target="_top" xlink:title="Singleton.hxx">
<polygon fill="none" stroke="black" points="462.517,-56.5 462.517,-75.5 543.517,-75.5 543.517,-56.5 462.517,-56.5"/>
<text text-anchor="middle" x="503.017" y="-63.5" font-family="Helvetica,sans-Serif" font-size="10.00">Singleton.hxx</text>
</a>
</g>
</g>
<!-- Node9&#45;&gt;Node12 -->
<g id="edge16" class="edge"><title>Node9&#45;&gt;Node12</title>
<path fill="none" stroke="midnightblue" d="M300.204,-112.444C342.158,-103.043 409.611,-87.9291 455.088,-77.7393"/>
<polygon fill="midnightblue" stroke="midnightblue" points="456.016,-81.1183 465.009,-75.5164 454.485,-74.2876 456.016,-81.1183"/>
</g>
<!-- Node10&#45;&gt;Node3 -->
<g id="edge14" class="edge"><title>Node10&#45;&gt;Node3</title>
<path fill="none" stroke="midnightblue" d="M264.568,-56.083C260.003,-48.6127 253.349,-37.7244 247.724,-28.5199"/>
<polygon fill="midnightblue" stroke="midnightblue" points="250.566,-26.4588 242.365,-19.7511 244.593,-30.109 250.566,-26.4588"/>
</g>
<!-- Node13&#45;&gt;Node3 -->
<g id="edge18" class="edge"><title>Node13&#45;&gt;Node3</title>
<path fill="none" stroke="midnightblue" d="M518.191,-168.293C537.421,-146.758 581.739,-90.2692 552.017,-56 515.696,-14.1212 342.721,-10.2485 269.681,-10.5296"/>
<polygon fill="midnightblue" stroke="midnightblue" points="269.231,-7.03256 259.255,-10.6012 269.279,-14.0324 269.231,-7.03256"/>
</g>
<!-- Node13&#45;&gt;Node6 -->
<g id="edge19" class="edge"><title>Node13&#45;&gt;Node6</title>
<path fill="none" stroke="midnightblue" d="M497.646,-168.324C485.859,-160.058 467.885,-147.453 453.882,-137.632"/>
<polygon fill="midnightblue" stroke="midnightblue" points="455.555,-134.531 445.358,-131.655 451.535,-140.262 455.555,-134.531"/>
</g>
<!-- Node13&#45;&gt;Node8 -->
<g id="edge21" class="edge"><title>Node13&#45;&gt;Node8</title>
<path fill="none" stroke="midnightblue" d="M505.92,-168.499C499.481,-155.584 486.155,-130.561 471.017,-112 462.096,-101.062 450.527,-90.3126 440.87,-82.0641"/>
<polygon fill="midnightblue" stroke="midnightblue" points="442.919,-79.2162 432.991,-75.5174 438.445,-84.6002 442.919,-79.2162"/>
</g>
<!-- Node13&#45;&gt;Node12 -->
<g id="edge22" class="edge"><title>Node13&#45;&gt;Node12</title>
<path fill="none" stroke="midnightblue" d="M509.468,-168.368C508.338,-150.617 505.732,-109.666 504.201,-85.5974"/>
<polygon fill="midnightblue" stroke="midnightblue" points="507.692,-85.3489 503.564,-75.5914 500.706,-85.7935 507.692,-85.3489"/>
</g>
<!-- Node14 -->
<g id="node14" class="node"><title>Node14</title>
<polygon fill="none" stroke="#bfbfbf" points="595.517,-112.5 595.517,-131.5 642.517,-131.5 642.517,-112.5 595.517,-112.5"/>
<text text-anchor="middle" x="619.017" y="-119.5" font-family="Helvetica,sans-Serif" font-size="10.00">vector</text>
</g>
<!-- Node13&#45;&gt;Node14 -->
<g id="edge20" class="edge"><title>Node13&#45;&gt;Node14</title>
<path fill="none" stroke="midnightblue" d="M527.53,-168.324C545.089,-159.625 572.348,-146.12 592.548,-136.113"/>
<polygon fill="midnightblue" stroke="midnightblue" points="594.141,-139.23 601.548,-131.655 591.033,-132.958 594.141,-139.23"/>
</g>
<!-- Node15&#45;&gt;Node14 -->
<g id="edge27" class="edge"><title>Node15&#45;&gt;Node14</title>
<path fill="none" stroke="midnightblue" d="M710.504,-168.324C692.945,-159.625 665.686,-146.12 645.486,-136.113"/>
<polygon fill="midnightblue" stroke="midnightblue" points="647.001,-132.958 636.486,-131.655 643.893,-139.23 647.001,-132.958"/>
</g>
<!-- Node16 -->
<g id="node16" class="node"><title>Node16</title>
<polygon fill="none" stroke="#bfbfbf" points="660.517,-112.5 660.517,-131.5 717.517,-131.5 717.517,-112.5 660.517,-112.5"/>
<text text-anchor="middle" x="689.017" y="-119.5" font-family="Helvetica,sans-Serif" font-size="10.00">memory</text>
</g>
<!-- Node15&#45;&gt;Node16 -->
<g id="edge24" class="edge"><title>Node15&#45;&gt;Node16</title>
<path fill="none" stroke="midnightblue" d="M721.577,-168.083C716.068,-160.455 707.986,-149.264 701.252,-139.941"/>
<polygon fill="midnightblue" stroke="midnightblue" points="704.03,-137.809 695.337,-131.751 698.355,-141.907 704.03,-137.809"/>
</g>
<!-- Node17 -->
<g id="node17" class="node"><title>Node17</title>
<polygon fill="none" stroke="#bfbfbf" points="735.517,-112.5 735.517,-131.5 798.517,-131.5 798.517,-112.5 735.517,-112.5"/>
<text text-anchor="middle" x="767.017" y="-119.5" font-family="Helvetica,sans-Serif" font-size="10.00">functional</text>
</g>
<!-- Node15&#45;&gt;Node17 -->
<g id="edge25" class="edge"><title>Node15&#45;&gt;Node17</title>
<path fill="none" stroke="midnightblue" d="M734.457,-168.083C739.966,-160.455 748.048,-149.264 754.782,-139.941"/>
<polygon fill="midnightblue" stroke="midnightblue" points="757.679,-141.907 760.697,-131.751 752.005,-137.809 757.679,-141.907"/>
</g>
<!-- Node18 -->
<g id="node18" class="node"><title>Node18</title>
<polygon fill="none" stroke="#bfbfbf" points="817.017,-112.5 817.017,-131.5 847.017,-131.5 847.017,-112.5 817.017,-112.5"/>
<text text-anchor="middle" x="832.017" y="-119.5" font-family="Helvetica,sans-Serif" font-size="10.00">list</text>
</g>
<!-- Node15&#45;&gt;Node18 -->
<g id="edge26" class="edge"><title>Node15&#45;&gt;Node18</title>
<path fill="none" stroke="midnightblue" d="M744.726,-168.324C761.722,-159.499 788.24,-145.73 807.591,-135.683"/>
<polygon fill="midnightblue" stroke="midnightblue" points="809.443,-138.665 816.705,-130.951 806.217,-132.453 809.443,-138.665"/>
</g>
<!-- Node19 -->
<g id="node19" class="node"><title>Node19</title>
<polygon fill="none" stroke="#bfbfbf" points="865.017,-112.5 865.017,-131.5 927.017,-131.5 927.017,-112.5 865.017,-112.5"/>
<text text-anchor="middle" x="896.017" y="-119.5" font-family="Helvetica,sans-Serif" font-size="10.00">algorithm</text>
</g>
<!-- Node15&#45;&gt;Node19 -->
<g id="edge28" class="edge"><title>Node15&#45;&gt;Node19</title>
<path fill="none" stroke="midnightblue" d="M754.637,-168.444C783.023,-159.32 828.154,-144.813 859.77,-134.651"/>
<polygon fill="midnightblue" stroke="midnightblue" points="861.072,-137.909 869.522,-131.516 858.93,-131.244 861.072,-137.909"/>
</g>
<!-- Node20&#45;&gt;Node6 -->
<g id="edge31" class="edge"><title>Node20&#45;&gt;Node6</title>
<path fill="none" stroke="midnightblue" d="M986.416,-172.232C866.532,-161.566 578.967,-135.984 473.058,-126.562"/>
<polygon fill="midnightblue" stroke="midnightblue" points="473.074,-123.05 462.803,-125.65 472.454,-130.022 473.074,-123.05"/>
</g>
<!-- Node20&#45;&gt;Node8 -->
<g id="edge36" class="edge"><title>Node20&#45;&gt;Node8</title>
<path fill="none" stroke="midnightblue" d="M1027.77,-168.29C1004.74,-152.092 955.543,-118.395 936.017,-112 734.543,-46.0159 666.907,-112.151 454.473,-75.8835"/>
<polygon fill="midnightblue" stroke="midnightblue" points="455.031,-72.4278 444.575,-74.1378 453.815,-79.3214 455.031,-72.4278"/>
</g>
<!-- Node21 -->
<g id="node21" class="node"><title>Node21</title>
<polygon fill="none" stroke="#bfbfbf" points="983.017,-112.5 983.017,-131.5 1033.02,-131.5 1033.02,-112.5 983.017,-112.5"/>
<text text-anchor="middle" x="1008.02" y="-119.5" font-family="Helvetica,sans-Serif" font-size="10.00">chrono</text>
</g>
<!-- Node20&#45;&gt;Node21 -->
<g id="edge32" class="edge"><title>Node20&#45;&gt;Node21</title>
<path fill="none" stroke="midnightblue" d="M1034.73,-168.083C1030.31,-160.613 1023.85,-149.724 1018.4,-140.52"/>
<polygon fill="midnightblue" stroke="midnightblue" points="1021.31,-138.57 1013.2,-131.751 1015.29,-142.138 1021.31,-138.57"/>
</g>
<!-- Node22 -->
<g id="node22" class="node"><title>Node22</title>
<polygon fill="none" stroke="#bfbfbf" points="1051.02,-112.5 1051.02,-131.5 1095.02,-131.5 1095.02,-112.5 1051.02,-112.5"/>
<text text-anchor="middle" x="1073.02" y="-119.5" font-family="Helvetica,sans-Serif" font-size="10.00">ctime</text>
</g>
<!-- Node20&#45;&gt;Node22 -->
<g id="edge33" class="edge"><title>Node20&#45;&gt;Node22</title>
<path fill="none" stroke="midnightblue" d="M1045.47,-168.083C1050.03,-160.613 1056.69,-149.724 1062.31,-140.52"/>
<polygon fill="midnightblue" stroke="midnightblue" points="1065.44,-142.109 1067.67,-131.751 1059.47,-138.459 1065.44,-142.109"/>
</g>
<!-- Node23 -->
<g id="node23" class="node"><title>Node23</title>
<polygon fill="none" stroke="#bfbfbf" points="1113.02,-112.5 1113.02,-131.5 1167.02,-131.5 1167.02,-112.5 1113.02,-112.5"/>
<text text-anchor="middle" x="1140.02" y="-119.5" font-family="Helvetica,sans-Serif" font-size="10.00">fstream</text>
</g>
<!-- Node20&#45;&gt;Node23 -->
<g id="edge34" class="edge"><title>Node20&#45;&gt;Node23</title>
<path fill="none" stroke="midnightblue" d="M1056.08,-168.324C1071.97,-159.743 1096.52,-146.486 1114.98,-136.522"/>
<polygon fill="midnightblue" stroke="midnightblue" points="1116.85,-139.486 1123.99,-131.655 1113.53,-133.326 1116.85,-139.486"/>
</g>
<!-- Node24 -->
<g id="node24" class="node"><title>Node24</title>
<polygon fill="none" stroke="#bfbfbf" points="1185.02,-112.5 1185.02,-131.5 1241.02,-131.5 1241.02,-112.5 1185.02,-112.5"/>
<text text-anchor="middle" x="1213.02" y="-119.5" font-family="Helvetica,sans-Serif" font-size="10.00">sstream</text>
</g>
<!-- Node20&#45;&gt;Node24 -->
<g id="edge35" class="edge"><title>Node20&#45;&gt;Node24</title>
<path fill="none" stroke="midnightblue" d="M1067.43,-168.444C1096.79,-159.28 1143.54,-144.688 1176.11,-134.519"/>
<polygon fill="midnightblue" stroke="midnightblue" points="1177.23,-137.837 1185.73,-131.516 1175.14,-131.155 1177.23,-137.837"/>
</g>
<!-- Node25&#45;&gt;Node3 -->
<g id="edge38" class="edge"><title>Node25&#45;&gt;Node3</title>
<path fill="none" stroke="midnightblue" d="M1258.85,-113.393C1255.86,-112.89 1252.89,-112.418 1250.02,-112 865.93,-56.1933 395.386,-21.81 269.338,-13.1604"/>
<polygon fill="midnightblue" stroke="midnightblue" points="269.421,-9.658 259.206,-12.4698 268.945,-16.6418 269.421,-9.658"/>
</g>
<!-- Node25&#45;&gt;Node12 -->
<g id="edge39" class="edge"><title>Node25&#45;&gt;Node12</title>
<path fill="none" stroke="midnightblue" d="M1258.86,-113.267C1255.88,-112.793 1252.9,-112.362 1250.02,-112 989.47,-79.3446 674.721,-70.2032 553.751,-67.8016"/>
<polygon fill="midnightblue" stroke="midnightblue" points="553.739,-64.3008 543.674,-67.6083 553.605,-71.2995 553.739,-64.3008"/>
</g>
</g>
</svg>
