<?xml version="1.0" encoding="UTF-8" standalone="no"?>
<!DOCTYPE svg PUBLIC "-//W3C//DTD SVG 1.1//EN"
 "http://www.w3.org/Graphics/SVG/1.1/DTD/svg11.dtd">
<!-- Generated by graphviz version 2.38.0 (20140413.2041)
 -->
<!-- Title: src/engine/UIManager.hxx Pages: 1 -->
<svg width="804pt" height="151pt"
 viewBox="0.00 0.00 804.00 151.00" xmlns="http://www.w3.org/2000/svg" xmlns:xlink="http://www.w3.org/1999/xlink">
<g id="graph0" class="graph" transform="scale(1 1) rotate(0) translate(4 147)">
<title>src/engine/UIManager.hxx</title>
<!-- Node1 -->
<g id="node1" class="node"><title>Node1</title>
<polygon fill="#bfbfbf" stroke="black" points="385.5,-123.5 385.5,-142.5 525.5,-142.5 525.5,-123.5 385.5,-123.5"/>
<text text-anchor="middle" x="455.5" y="-130.5" font-family="Helvetica,sans-Serif" font-size="10.00">src/engine/UIManager.hxx</text>
</g>
<!-- Node2 -->
<g id="node2" class="node"><title>Node2</title>
<g id="a_node2"><a xlink:href="EventManager_8hxx.html" target="_top" xlink:title="src/engine/EventManager.hxx">
<polygon fill="none" stroke="black" points="172,-62 172,-81 329,-81 329,-62 172,-62"/>
<text text-anchor="middle" x="250.5" y="-69" font-family="Helvetica,sans-Serif" font-size="10.00">src/engine/EventManager.hxx</text>
</a>
</g>
</g>
<!-- Node1&#45;&gt;Node2 -->
<g id="edge1" class="edge"><title>Node1&#45;&gt;Node2</title>
<path fill="none" stroke="midnightblue" d="M416.484,-120.676C376.651,-109.114 315.718,-91.429 279.817,-81.0091"/>
<polygon fill="midnightblue" stroke="midnightblue" points="415.549,-124.049 426.128,-123.475 417.5,-117.326 415.549,-124.049"/>
</g>
<!-- Node5 -->
<g id="node5" class="node"><title>Node5</title>
<g id="a_node5"><a xlink:href="Game_8cxx.html" target="_top" xlink:title="src/Game.cxx">
<polygon fill="none" stroke="black" points="339.5,-0.5 339.5,-19.5 421.5,-19.5 421.5,-0.5 339.5,-0.5"/>
<text text-anchor="middle" x="380.5" y="-7.5" font-family="Helvetica,sans-Serif" font-size="10.00">src/Game.cxx</text>
</a>
</g>
</g>
<!-- Node1&#45;&gt;Node5 -->
<g id="edge8" class="edge"><title>Node1&#45;&gt;Node5</title>
<path fill="none" stroke="midnightblue" d="M426.637,-118.522C413.824,-111.046 399.795,-100.504 391.5,-87 378.381,-65.6435 378.598,-34.6671 379.639,-19.7177"/>
<polygon fill="midnightblue" stroke="midnightblue" points="425.194,-121.721 435.652,-123.421 428.537,-115.571 425.194,-121.721"/>
</g>
<!-- Node6 -->
<g id="node6" class="node"><title>Node6</title>
<g id="a_node6"><a xlink:href="ButtonGroup_8cxx.html" target="_top" xlink:title="src/engine/ui/basics\l/ButtonGroup.cxx">
<polygon fill="none" stroke="black" points="400.5,-56.5 400.5,-86.5 510.5,-86.5 510.5,-56.5 400.5,-56.5"/>
<text text-anchor="start" x="408.5" y="-74.5" font-family="Helvetica,sans-Serif" font-size="10.00">src/engine/ui/basics</text>
<text text-anchor="middle" x="455.5" y="-63.5" font-family="Helvetica,sans-Serif" font-size="10.00">/ButtonGroup.cxx</text>
</a>
</g>
</g>
<!-- Node1&#45;&gt;Node6 -->
<g id="edge5" class="edge"><title>Node1&#45;&gt;Node6</title>
<path fill="none" stroke="midnightblue" d="M455.5,-113.235C455.5,-104.586 455.5,-94.4969 455.5,-86.523"/>
<polygon fill="midnightblue" stroke="midnightblue" points="452,-113.475 455.5,-123.475 459,-113.475 452,-113.475"/>
</g>
<!-- Node7 -->
<g id="node7" class="node"><title>Node7</title>
<g id="a_node7"><a xlink:href="Layout_8cxx.html" target="_top" xlink:title="src/engine/ui/basics\l/Layout.cxx">
<polygon fill="none" stroke="black" points="528.5,-56.5 528.5,-86.5 638.5,-86.5 638.5,-56.5 528.5,-56.5"/>
<text text-anchor="start" x="536.5" y="-74.5" font-family="Helvetica,sans-Serif" font-size="10.00">src/engine/ui/basics</text>
<text text-anchor="middle" x="583.5" y="-63.5" font-family="Helvetica,sans-Serif" font-size="10.00">/Layout.cxx</text>
</a>
</g>
</g>
<!-- Node1&#45;&gt;Node7 -->
<g id="edge6" class="edge"><title>Node1&#45;&gt;Node7</title>
<path fill="none" stroke="midnightblue" d="M483.035,-119.2C503.722,-109.585 532.035,-96.4232 553.333,-86.523"/>
<polygon fill="midnightblue" stroke="midnightblue" points="481.432,-116.086 473.839,-123.475 484.383,-122.434 481.432,-116.086"/>
</g>
<!-- Node8 -->
<g id="node8" class="node"><title>Node8</title>
<g id="a_node8"><a xlink:href="UIManager_8cxx.html" target="_top" xlink:title="src/engine/UIManager.cxx">
<polygon fill="none" stroke="black" points="657,-62 657,-81 796,-81 796,-62 657,-62"/>
<text text-anchor="middle" x="726.5" y="-69" font-family="Helvetica,sans-Serif" font-size="10.00">src/engine/UIManager.cxx</text>
</a>
</g>
</g>
<!-- Node1&#45;&gt;Node8 -->
<g id="edge7" class="edge"><title>Node1&#45;&gt;Node8</title>
<path fill="none" stroke="midnightblue" d="M504.096,-121.33C556.651,-109.792 639.381,-91.6277 687.744,-81.0091"/>
<polygon fill="midnightblue" stroke="midnightblue" points="503.344,-117.912 494.328,-123.475 504.846,-124.749 503.344,-117.912"/>
</g>
<!-- Node3 -->
<g id="node3" class="node"><title>Node3</title>
<g id="a_node3"><a xlink:href="Timer_8cxx.html" target="_top" xlink:title="src/engine/basics/Timer.cxx">
<polygon fill="none" stroke="black" points="0,-0.5 0,-19.5 147,-19.5 147,-0.5 0,-0.5"/>
<text text-anchor="middle" x="73.5" y="-7.5" font-family="Helvetica,sans-Serif" font-size="10.00">src/engine/basics/Timer.cxx</text>
</a>
</g>
</g>
<!-- Node2&#45;&gt;Node3 -->
<g id="edge2" class="edge"><title>Node2&#45;&gt;Node3</title>
<path fill="none" stroke="midnightblue" d="M215.493,-58.732C181.086,-47.166 129.416,-29.7966 98.8127,-19.5091"/>
<polygon fill="midnightblue" stroke="midnightblue" points="214.546,-62.1062 225.14,-61.9751 216.777,-55.4711 214.546,-62.1062"/>
</g>
<!-- Node4 -->
<g id="node4" class="node"><title>Node4</title>
<g id="a_node4"><a xlink:href="EventManager_8cxx.html" target="_top" xlink:title="src/engine/EventManager.cxx">
<polygon fill="none" stroke="black" points="165.5,-0.5 165.5,-19.5 321.5,-19.5 321.5,-0.5 165.5,-0.5"/>
<text text-anchor="middle" x="243.5" y="-7.5" font-family="Helvetica,sans-Serif" font-size="10.00">src/engine/EventManager.cxx</text>
</a>
</g>
</g>
<!-- Node2&#45;&gt;Node4 -->
<g id="edge3" class="edge"><title>Node2&#45;&gt;Node4</title>
<path fill="none" stroke="midnightblue" d="M248.302,-51.8165C247.029,-40.9962 245.488,-27.898 244.501,-19.5091"/>
<polygon fill="midnightblue" stroke="midnightblue" points="244.853,-52.4526 249.497,-61.9751 251.805,-51.6346 244.853,-52.4526"/>
</g>
<!-- Node2&#45;&gt;Node5 -->
<g id="edge4" class="edge"><title>Node2&#45;&gt;Node5</title>
<path fill="none" stroke="midnightblue" d="M278.523,-57.6742C303.748,-46.1287 340.107,-29.4875 361.909,-19.5091"/>
<polygon fill="midnightblue" stroke="midnightblue" points="276.762,-54.6308 269.126,-61.9751 279.675,-60.9958 276.762,-54.6308"/>
</g>
</g>
</svg>
