<?xml version="1.0" encoding="UTF-8" standalone="no"?>
<!DOCTYPE svg PUBLIC "-//W3C//DTD SVG 1.1//EN"
 "http://www.w3.org/Graphics/SVG/1.1/DTD/svg11.dtd">
<!-- Generated by graphviz version 2.38.0 (20140413.2041)
 -->
<!-- Title: src/engine/WindowManager.hxx Pages: 1 -->
<svg width="2622pt" height="497pt"
 viewBox="0.00 0.00 2622.00 497.00" xmlns="http://www.w3.org/2000/svg" xmlns:xlink="http://www.w3.org/1999/xlink">
<g id="graph0" class="graph" transform="scale(1 1) rotate(0) translate(4 493)">
<title>src/engine/WindowManager.hxx</title>
<!-- Node1 -->
<g id="node1" class="node"><title>Node1</title>
<polygon fill="#bfbfbf" stroke="black" points="2067.5,-469.5 2067.5,-488.5 2232.5,-488.5 2232.5,-469.5 2067.5,-469.5"/>
<text text-anchor="middle" x="2150" y="-476.5" font-family="Helvetica,sans-Serif" font-size="10.00">src/engine/WindowManager.hxx</text>
</g>
<!-- Node2 -->
<g id="node2" class="node"><title>Node2</title>
<g id="a_node2"><a xlink:href="Engine_8hxx.html" target="_top" xlink:title="src/engine/Engine.hxx">
<polygon fill="none" stroke="black" points="329.5,-140 329.5,-159 450.5,-159 450.5,-140 329.5,-140"/>
<text text-anchor="middle" x="390" y="-147" font-family="Helvetica,sans-Serif" font-size="10.00">src/engine/Engine.hxx</text>
</a>
</g>
</g>
<!-- Node1&#45;&gt;Node2 -->
<g id="edge1" class="edge"><title>Node1&#45;&gt;Node2</title>
<path fill="none" stroke="midnightblue" d="M2057.16,-476.241C1693.8,-468.758 388,-435.986 388,-351.5 388,-351.5 388,-351.5 388,-282.5 388,-235.974 389.258,-180.234 389.778,-159.148"/>
<polygon fill="midnightblue" stroke="midnightblue" points="2057.31,-479.745 2067.38,-476.45 2057.45,-472.747 2057.31,-479.745"/>
</g>
<!-- Node8 -->
<g id="node8" class="node"><title>Node8</title>
<g id="a_node8"><a xlink:href="Game_8cxx.html" target="_top" xlink:title="src/Game.cxx">
<polygon fill="none" stroke="black" points="1137,-6 1137,-25 1219,-25 1219,-6 1137,-6"/>
<text text-anchor="middle" x="1178" y="-13" font-family="Helvetica,sans-Serif" font-size="10.00">src/Game.cxx</text>
</a>
</g>
</g>
<!-- Node1&#45;&gt;Node8 -->
<g id="edge67" class="edge"><title>Node1&#45;&gt;Node8</title>
<path fill="none" stroke="midnightblue" d="M2132.85,-462.137C2125.11,-454.101 2116.49,-443.776 2111,-433 2094.1,-399.866 2092,-388.694 2092,-351.5 2092,-351.5 2092,-351.5 2092,-148.5 2092,-59.0176 1396.9,-25.2182 1219.05,-18.0348"/>
<polygon fill="midnightblue" stroke="midnightblue" points="2130.57,-464.807 2140.15,-469.342 2135.49,-459.826 2130.57,-464.807"/>
</g>
<!-- Node11 -->
<g id="node11" class="node"><title>Node11</title>
<g id="a_node11"><a xlink:href="UIElement_8hxx.html" target="_top" xlink:title="src/engine/ui/basics\l/UIElement.hxx">
<polygon fill="none" stroke="black" points="1278,-402.5 1278,-432.5 1388,-432.5 1388,-402.5 1278,-402.5"/>
<text text-anchor="start" x="1286" y="-420.5" font-family="Helvetica,sans-Serif" font-size="10.00">src/engine/ui/basics</text>
<text text-anchor="middle" x="1333" y="-409.5" font-family="Helvetica,sans-Serif" font-size="10.00">/UIElement.hxx</text>
</a>
</g>
</g>
<!-- Node1&#45;&gt;Node11 -->
<g id="edge11" class="edge"><title>Node1&#45;&gt;Node11</title>
<path fill="none" stroke="midnightblue" d="M2057.17,-471.239C1886.1,-458.781 1526.01,-432.556 1388.23,-422.522"/>
<polygon fill="midnightblue" stroke="midnightblue" points="2056.94,-474.732 2067.17,-471.967 2057.45,-467.75 2056.94,-474.732"/>
</g>
<!-- Node41 -->
<g id="node41" class="node"><title>Node41</title>
<g id="a_node41"><a xlink:href="ResourcesManager_8cxx.html" target="_top" xlink:title="src/engine/ResourcesManager.cxx">
<polygon fill="none" stroke="black" points="2120,-408 2120,-427 2298,-427 2298,-408 2120,-408"/>
<text text-anchor="middle" x="2209" y="-415" font-family="Helvetica,sans-Serif" font-size="10.00">src/engine/ResourcesManager.cxx</text>
</a>
</g>
</g>
<!-- Node1&#45;&gt;Node41 -->
<g id="edge64" class="edge"><title>Node1&#45;&gt;Node41</title>
<path fill="none" stroke="midnightblue" d="M2165.54,-462.325C2176.75,-451.02 2191.46,-436.193 2200.56,-427.009"/>
<polygon fill="midnightblue" stroke="midnightblue" points="2163.01,-459.91 2158.45,-469.475 2167.98,-464.839 2163.01,-459.91"/>
</g>
<!-- Node42 -->
<g id="node42" class="node"><title>Node42</title>
<g id="a_node42"><a xlink:href="Sprite_8cxx.html" target="_top" xlink:title="src/engine/Sprite.cxx">
<polygon fill="none" stroke="black" points="2316,-408 2316,-427 2432,-427 2432,-408 2316,-408"/>
<text text-anchor="middle" x="2374" y="-415" font-family="Helvetica,sans-Serif" font-size="10.00">src/engine/Sprite.cxx</text>
</a>
</g>
</g>
<!-- Node1&#45;&gt;Node42 -->
<g id="edge65" class="edge"><title>Node1&#45;&gt;Node42</title>
<path fill="none" stroke="midnightblue" d="M2191.8,-466.896C2235.31,-455.34 2302.49,-437.495 2341.97,-427.009"/>
<polygon fill="midnightblue" stroke="midnightblue" points="2190.86,-463.525 2182.09,-469.475 2192.66,-470.29 2190.86,-463.525"/>
</g>
<!-- Node43 -->
<g id="node43" class="node"><title>Node43</title>
<g id="a_node43"><a xlink:href="WindowManager_8cxx.html" target="_top" xlink:title="src/engine/WindowManager.cxx">
<polygon fill="none" stroke="black" points="2450,-408 2450,-427 2614,-427 2614,-408 2450,-408"/>
<text text-anchor="middle" x="2532" y="-415" font-family="Helvetica,sans-Serif" font-size="10.00">src/engine/WindowManager.cxx</text>
</a>
</g>
</g>
<!-- Node1&#45;&gt;Node43 -->
<g id="edge66" class="edge"><title>Node1&#45;&gt;Node43</title>
<path fill="none" stroke="midnightblue" d="M2215.45,-467.966C2274.44,-458.902 2363.54,-445.16 2441,-433 2453.17,-431.09 2466.25,-429.017 2478.59,-427.052"/>
<polygon fill="midnightblue" stroke="midnightblue" points="2214.88,-464.513 2205.53,-469.491 2215.94,-471.432 2214.88,-464.513"/>
</g>
<!-- Node3 -->
<g id="node3" class="node"><title>Node3</title>
<g id="a_node3"><a xlink:href="Camera_8cxx.html" target="_top" xlink:title="src/engine/basics/Camera.cxx">
<polygon fill="none" stroke="black" points="313.5,-73 313.5,-92 472.5,-92 472.5,-73 313.5,-73"/>
<text text-anchor="middle" x="393" y="-80" font-family="Helvetica,sans-Serif" font-size="10.00">src/engine/basics/Camera.cxx</text>
</a>
</g>
</g>
<!-- Node2&#45;&gt;Node3 -->
<g id="edge2" class="edge"><title>Node2&#45;&gt;Node3</title>
<path fill="none" stroke="midnightblue" d="M390.875,-129.537C391.446,-117.17 392.164,-101.62 392.602,-92.1273"/>
<polygon fill="midnightblue" stroke="midnightblue" points="387.369,-129.583 390.405,-139.734 394.362,-129.906 387.369,-129.583"/>
</g>
<!-- Node4 -->
<g id="node4" class="node"><title>Node4</title>
<g id="a_node4"><a xlink:href="isoMath_8cxx.html" target="_top" xlink:title="src/engine/basics/isoMath.cxx">
<polygon fill="none" stroke="black" points="138,-73 138,-92 296,-92 296,-73 138,-73"/>
<text text-anchor="middle" x="217" y="-80" font-family="Helvetica,sans-Serif" font-size="10.00">src/engine/basics/isoMath.cxx</text>
</a>
</g>
</g>
<!-- Node2&#45;&gt;Node4 -->
<g id="edge3" class="edge"><title>Node2&#45;&gt;Node4</title>
<path fill="none" stroke="midnightblue" d="M357.451,-136.271C323.115,-123.37 269.9,-103.376 239.793,-92.0637"/>
<polygon fill="midnightblue" stroke="midnightblue" points="356.435,-139.628 367.027,-139.869 358.897,-133.075 356.435,-139.628"/>
</g>
<!-- Node5 -->
<g id="node5" class="node"><title>Node5</title>
<g id="a_node5"><a xlink:href="EventManager_8hxx.html" target="_top" xlink:title="src/engine/EventManager.hxx">
<polygon fill="none" stroke="black" points="668.5,-73 668.5,-92 825.5,-92 825.5,-73 668.5,-73"/>
<text text-anchor="middle" x="747" y="-80" font-family="Helvetica,sans-Serif" font-size="10.00">src/engine/EventManager.hxx</text>
</a>
</g>
</g>
<!-- Node2&#45;&gt;Node5 -->
<g id="edge4" class="edge"><title>Node2&#45;&gt;Node5</title>
<path fill="none" stroke="midnightblue" d="M439.522,-137.884C446.066,-136.543 452.69,-135.216 459,-134 541.495,-118.104 637.694,-101.655 695.4,-92.0116"/>
<polygon fill="midnightblue" stroke="midnightblue" points="438.443,-134.534 429.362,-139.99 439.864,-141.388 438.443,-134.534"/>
</g>
<!-- Node2&#45;&gt;Node8 -->
<g id="edge10" class="edge"><title>Node2&#45;&gt;Node8</title>
<path fill="none" stroke="midnightblue" d="M436.708,-137.951C444.14,-136.484 451.762,-135.104 459,-134 624.517,-108.744 678.739,-160.672 834,-98 854.532,-89.7119 852.763,-75.9851 873,-67 961.298,-27.7963 1076.21,-18.7564 1136.66,-16.8441"/>
<polygon fill="midnightblue" stroke="midnightblue" points="435.842,-134.555 426.745,-139.986 437.243,-141.413 435.842,-134.555"/>
</g>
<!-- Node9 -->
<g id="node9" class="node"><title>Node9</title>
<g id="a_node9"><a xlink:href="Engine_8cxx.html" target="_top" xlink:title="src/engine/Engine.cxx">
<polygon fill="none" stroke="black" points="0,-73 0,-92 120,-92 120,-73 0,-73"/>
<text text-anchor="middle" x="60" y="-80" font-family="Helvetica,sans-Serif" font-size="10.00">src/engine/Engine.cxx</text>
</a>
</g>
</g>
<!-- Node2&#45;&gt;Node9 -->
<g id="edge8" class="edge"><title>Node2&#45;&gt;Node9</title>
<path fill="none" stroke="midnightblue" d="M334.845,-138.094C281.985,-128.058 199.978,-112.323 129,-98 119.641,-96.1113 109.579,-94.0274 100.112,-92.0426"/>
<polygon fill="midnightblue" stroke="midnightblue" points="334.215,-141.536 344.692,-139.961 335.519,-134.659 334.215,-141.536"/>
</g>
<!-- Node10 -->
<g id="node10" class="node"><title>Node10</title>
<g id="a_node10"><a xlink:href="UIManager_8cxx.html" target="_top" xlink:title="src/engine/UIManager.cxx">
<polygon fill="none" stroke="black" points="882.5,-73 882.5,-92 1021.5,-92 1021.5,-73 882.5,-73"/>
<text text-anchor="middle" x="952" y="-80" font-family="Helvetica,sans-Serif" font-size="10.00">src/engine/UIManager.cxx</text>
</a>
</g>
</g>
<!-- Node2&#45;&gt;Node10 -->
<g id="edge9" class="edge"><title>Node2&#45;&gt;Node10</title>
<path fill="none" stroke="midnightblue" d="M436.7,-137.9C444.133,-136.44 451.758,-135.076 459,-134 639.5,-107.188 687.044,-121.541 868,-98 880.621,-96.3582 894.242,-94.183 906.767,-92.0182"/>
<polygon fill="midnightblue" stroke="midnightblue" points="435.836,-134.504 426.737,-139.931 437.235,-141.363 435.836,-134.504"/>
</g>
<!-- Node6 -->
<g id="node6" class="node"><title>Node6</title>
<g id="a_node6"><a xlink:href="Timer_8cxx.html" target="_top" xlink:title="src/engine/basics/Timer.cxx">
<polygon fill="none" stroke="black" points="653.5,-6 653.5,-25 800.5,-25 800.5,-6 653.5,-6"/>
<text text-anchor="middle" x="727" y="-13" font-family="Helvetica,sans-Serif" font-size="10.00">src/engine/basics/Timer.cxx</text>
</a>
</g>
</g>
<!-- Node5&#45;&gt;Node6 -->
<g id="edge5" class="edge"><title>Node5&#45;&gt;Node6</title>
<path fill="none" stroke="midnightblue" d="M741.281,-62.9145C737.458,-50.4883 732.605,-34.7166 729.655,-25.1273"/>
<polygon fill="midnightblue" stroke="midnightblue" points="738.017,-64.2053 744.303,-72.7338 744.707,-62.1467 738.017,-64.2053"/>
</g>
<!-- Node7 -->
<g id="node7" class="node"><title>Node7</title>
<g id="a_node7"><a xlink:href="EventManager_8cxx.html" target="_top" xlink:title="src/engine/EventManager.cxx">
<polygon fill="none" stroke="black" points="819,-6 819,-25 975,-25 975,-6 819,-6"/>
<text text-anchor="middle" x="897" y="-13" font-family="Helvetica,sans-Serif" font-size="10.00">src/engine/EventManager.cxx</text>
</a>
</g>
</g>
<!-- Node5&#45;&gt;Node7 -->
<g id="edge6" class="edge"><title>Node5&#45;&gt;Node7</title>
<path fill="none" stroke="midnightblue" d="M776.352,-68.781C806.057,-55.9085 851.182,-36.3545 876.999,-25.1672"/>
<polygon fill="midnightblue" stroke="midnightblue" points="774.703,-65.6809 766.919,-72.8685 777.486,-72.1038 774.703,-65.6809"/>
</g>
<!-- Node5&#45;&gt;Node8 -->
<g id="edge7" class="edge"><title>Node5&#45;&gt;Node8</title>
<path fill="none" stroke="midnightblue" d="M811.758,-71.3492C821.229,-69.8804 830.866,-68.3945 840,-67 947.041,-50.6592 1073.24,-31.9521 1136.88,-22.5571"/>
<polygon fill="midnightblue" stroke="midnightblue" points="810.921,-67.9372 801.577,-72.9314 811.996,-74.8542 810.921,-67.9372"/>
</g>
<!-- Node12 -->
<g id="node12" class="node"><title>Node12</title>
<g id="a_node12"><a xlink:href="UIManager_8hxx.html" target="_top" xlink:title="src/engine/UIManager.hxx">
<polygon fill="none" stroke="black" points="1034,-140 1034,-159 1174,-159 1174,-140 1034,-140"/>
<text text-anchor="middle" x="1104" y="-147" font-family="Helvetica,sans-Serif" font-size="10.00">src/engine/UIManager.hxx</text>
</a>
</g>
</g>
<!-- Node11&#45;&gt;Node12 -->
<g id="edge12" class="edge"><title>Node11&#45;&gt;Node12</title>
<path fill="none" stroke="midnightblue" d="M1398.29,-414.545C1454.73,-410.508 1537.08,-398.862 1601,-366 1610.58,-361.077 1666.77,-308.901 1671,-299 1676.41,-286.329 1677.54,-280.125 1671,-268 1645.24,-220.267 1620.05,-219.327 1569,-201 1498.11,-175.551 1285.8,-160.468 1174.25,-154.09"/>
<polygon fill="midnightblue" stroke="midnightblue" points="1397.81,-411.068 1388.06,-415.213 1398.26,-418.053 1397.81,-411.068"/>
</g>
<!-- Node15 -->
<g id="node15" class="node"><title>Node15</title>
<g id="a_node15"><a xlink:href="Layout_8hxx.html" target="_top" xlink:title="src/engine/ui/basics\l/Layout.hxx">
<polygon fill="none" stroke="black" points="1738,-201.5 1738,-231.5 1848,-231.5 1848,-201.5 1738,-201.5"/>
<text text-anchor="start" x="1746" y="-219.5" font-family="Helvetica,sans-Serif" font-size="10.00">src/engine/ui/basics</text>
<text text-anchor="middle" x="1793" y="-208.5" font-family="Helvetica,sans-Serif" font-size="10.00">/Layout.hxx</text>
</a>
</g>
</g>
<!-- Node11&#45;&gt;Node15 -->
<g id="edge18" class="edge"><title>Node11&#45;&gt;Node15</title>
<path fill="none" stroke="midnightblue" d="M1398.38,-415.54C1540.52,-412.774 1867.63,-402.473 1901,-366 1942.64,-320.492 1859.63,-258.938 1816.61,-231.594"/>
<polygon fill="midnightblue" stroke="midnightblue" points="1398,-412.046 1388.07,-415.734 1398.13,-419.045 1398,-412.046"/>
</g>
<!-- Node16 -->
<g id="node16" class="node"><title>Node16</title>
<g id="a_node16"><a xlink:href="ButtonGroup_8hxx.html" target="_top" xlink:title="src/engine/ui/basics\l/ButtonGroup.hxx">
<polygon fill="none" stroke="black" points="454,-201.5 454,-231.5 564,-231.5 564,-201.5 454,-201.5"/>
<text text-anchor="start" x="462" y="-219.5" font-family="Helvetica,sans-Serif" font-size="10.00">src/engine/ui/basics</text>
<text text-anchor="middle" x="509" y="-208.5" font-family="Helvetica,sans-Serif" font-size="10.00">/ButtonGroup.hxx</text>
</a>
</g>
</g>
<!-- Node11&#45;&gt;Node16 -->
<g id="edge21" class="edge"><title>Node11&#45;&gt;Node16</title>
<path fill="none" stroke="midnightblue" d="M1267.63,-416.148C1115.52,-414.64 741.85,-406.767 624,-366 573.79,-348.631 554.331,-343.299 525,-299 511.388,-278.441 508.822,-248.984 508.618,-231.689"/>
<polygon fill="midnightblue" stroke="midnightblue" points="1267.73,-419.649 1277.76,-416.242 1267.79,-412.649 1267.73,-419.649"/>
</g>
<!-- Node17 -->
<g id="node17" class="node"><title>Node17</title>
<g id="a_node17"><a xlink:href="IMenuGroup_8hxx.html" target="_top" xlink:title="src/engine/ui/menuGroups\l/IMenuGroup.hxx">
<polygon fill="none" stroke="black" points="468.5,-134.5 468.5,-164.5 611.5,-164.5 611.5,-134.5 468.5,-134.5"/>
<text text-anchor="start" x="476.5" y="-152.5" font-family="Helvetica,sans-Serif" font-size="10.00">src/engine/ui/menuGroups</text>
<text text-anchor="middle" x="540" y="-141.5" font-family="Helvetica,sans-Serif" font-size="10.00">/IMenuGroup.hxx</text>
</a>
</g>
</g>
<!-- Node11&#45;&gt;Node17 -->
<g id="edge58" class="edge"><title>Node11&#45;&gt;Node17</title>
<path fill="none" stroke="midnightblue" d="M1267.58,-415.266C1091.33,-411.521 615.632,-398.491 553,-366 475.2,-325.641 399.855,-276.125 445,-201 455.198,-184.029 473.239,-172.454 490.878,-164.716"/>
<polygon fill="midnightblue" stroke="midnightblue" points="1267.68,-418.768 1277.75,-415.479 1267.82,-411.77 1267.68,-418.768"/>
</g>
<!-- Node20 -->
<g id="node20" class="node"><title>Node20</title>
<g id="a_node20"><a xlink:href="Button_8hxx.html" target="_top" xlink:title="src/engine/ui/widgets\l/Button.hxx">
<polygon fill="none" stroke="black" points="534,-268.5 534,-298.5 650,-298.5 650,-268.5 534,-268.5"/>
<text text-anchor="start" x="542" y="-286.5" font-family="Helvetica,sans-Serif" font-size="10.00">src/engine/ui/widgets</text>
<text text-anchor="middle" x="592" y="-275.5" font-family="Helvetica,sans-Serif" font-size="10.00">/Button.hxx</text>
</a>
</g>
</g>
<!-- Node11&#45;&gt;Node20 -->
<g id="edge27" class="edge"><title>Node11&#45;&gt;Node20</title>
<path fill="none" stroke="midnightblue" d="M1267.75,-414.36C1110.04,-408.793 717.168,-392.426 664,-366 634.075,-351.126 611.112,-317.86 599.789,-298.744"/>
<polygon fill="midnightblue" stroke="midnightblue" points="1267.68,-417.859 1277.8,-414.711 1267.92,-410.864 1267.68,-417.859"/>
</g>
<!-- Node22 -->
<g id="node22" class="node"><title>Node22</title>
<g id="a_node22"><a xlink:href="Text_8hxx.html" target="_top" xlink:title="src/engine/ui/widgets\l/Text.hxx">
<polygon fill="none" stroke="black" points="830,-335.5 830,-365.5 946,-365.5 946,-335.5 830,-335.5"/>
<text text-anchor="start" x="838" y="-353.5" font-family="Helvetica,sans-Serif" font-size="10.00">src/engine/ui/widgets</text>
<text text-anchor="middle" x="888" y="-342.5" font-family="Helvetica,sans-Serif" font-size="10.00">/Text.hxx</text>
</a>
</g>
</g>
<!-- Node11&#45;&gt;Node22 -->
<g id="edge31" class="edge"><title>Node11&#45;&gt;Node22</title>
<path fill="none" stroke="midnightblue" d="M1268.01,-407.006C1181.3,-394.341 1029.1,-372.11 946.058,-359.98"/>
<polygon fill="midnightblue" stroke="midnightblue" points="1267.59,-410.482 1277.99,-408.465 1268.6,-403.556 1267.59,-410.482"/>
</g>
<!-- Node23 -->
<g id="node23" class="node"><title>Node23</title>
<g id="a_node23"><a xlink:href="TextField_8hxx.html" target="_top" xlink:title="src/engine/ui/widgets\l/TextField.hxx">
<polygon fill="none" stroke="black" points="916,-268.5 916,-298.5 1032,-298.5 1032,-268.5 916,-268.5"/>
<text text-anchor="start" x="924" y="-286.5" font-family="Helvetica,sans-Serif" font-size="10.00">src/engine/ui/widgets</text>
<text text-anchor="middle" x="974" y="-275.5" font-family="Helvetica,sans-Serif" font-size="10.00">/TextField.hxx</text>
</a>
</g>
</g>
<!-- Node11&#45;&gt;Node23 -->
<g id="edge49" class="edge"><title>Node11&#45;&gt;Node23</title>
<path fill="none" stroke="midnightblue" d="M1267.98,-400.506C1233.94,-391.52 1191.8,-379.425 1155,-366 1099.31,-345.688 1036.75,-315.88 1001.69,-298.505"/>
<polygon fill="midnightblue" stroke="midnightblue" points="1267.24,-403.932 1277.8,-403.074 1269.01,-397.159 1267.24,-403.932"/>
</g>
<!-- Node24 -->
<g id="node24" class="node"><title>Node24</title>
<g id="a_node24"><a xlink:href="Combobox_8hxx.html" target="_top" xlink:title="src/engine/ui/widgets\l/Combobox.hxx">
<polygon fill="none" stroke="black" points="754,-201.5 754,-231.5 870,-231.5 870,-201.5 754,-201.5"/>
<text text-anchor="start" x="762" y="-219.5" font-family="Helvetica,sans-Serif" font-size="10.00">src/engine/ui/widgets</text>
<text text-anchor="middle" x="812" y="-208.5" font-family="Helvetica,sans-Serif" font-size="10.00">/Combobox.hxx</text>
</a>
</g>
</g>
<!-- Node11&#45;&gt;Node24 -->
<g id="edge48" class="edge"><title>Node11&#45;&gt;Node24</title>
<path fill="none" stroke="midnightblue" d="M1267.92,-414.136C1149.01,-409.15 901.469,-395.5 821,-366 771.806,-347.965 748.342,-345.398 724,-299 717.599,-286.799 717.095,-279.923 724,-268 733.71,-251.232 751.323,-239.551 768.255,-231.68"/>
<polygon fill="midnightblue" stroke="midnightblue" points="1267.85,-417.636 1277.98,-414.55 1268.14,-410.642 1267.85,-417.636"/>
</g>
<!-- Node27 -->
<g id="node27" class="node"><title>Node27</title>
<g id="a_node27"><a xlink:href="Tooltip_8hxx.html" target="_top" xlink:title="src/engine/ui/widgets\l/Tooltip.hxx">
<polygon fill="none" stroke="black" points="1050,-268.5 1050,-298.5 1166,-298.5 1166,-268.5 1050,-268.5"/>
<text text-anchor="start" x="1058" y="-286.5" font-family="Helvetica,sans-Serif" font-size="10.00">src/engine/ui/widgets</text>
<text text-anchor="middle" x="1108" y="-275.5" font-family="Helvetica,sans-Serif" font-size="10.00">/Tooltip.hxx</text>
</a>
</g>
</g>
<!-- Node11&#45;&gt;Node27 -->
<g id="edge53" class="edge"><title>Node11&#45;&gt;Node27</title>
<path fill="none" stroke="midnightblue" d="M1272.92,-399.168C1249,-390.933 1221.79,-379.829 1199,-366 1167.63,-346.967 1137.1,-316.439 1120.6,-298.644"/>
<polygon fill="midnightblue" stroke="midnightblue" points="1272.01,-402.554 1282.61,-402.409 1274.23,-395.916 1272.01,-402.554"/>
</g>
<!-- Node30 -->
<g id="node30" class="node"><title>Node30</title>
<g id="a_node30"><a xlink:href="Checkbox_8hxx.html" target="_top" xlink:title="src/engine/ui/widgets\l/Checkbox.hxx">
<polygon fill="none" stroke="black" points="1208,-335.5 1208,-365.5 1324,-365.5 1324,-335.5 1208,-335.5"/>
<text text-anchor="start" x="1216" y="-353.5" font-family="Helvetica,sans-Serif" font-size="10.00">src/engine/ui/widgets</text>
<text text-anchor="middle" x="1266" y="-342.5" font-family="Helvetica,sans-Serif" font-size="10.00">/Checkbox.hxx</text>
</a>
</g>
</g>
<!-- Node11&#45;&gt;Node30 -->
<g id="edge45" class="edge"><title>Node11&#45;&gt;Node30</title>
<path fill="none" stroke="midnightblue" d="M1311.16,-395.311C1301.11,-385.561 1289.46,-374.259 1280.51,-365.577"/>
<polygon fill="midnightblue" stroke="midnightblue" points="1308.85,-397.945 1318.46,-402.396 1313.72,-392.921 1308.85,-397.945"/>
</g>
<!-- Node32 -->
<g id="node32" class="node"><title>Node32</title>
<g id="a_node32"><a xlink:href="Frame_8hxx.html" target="_top" xlink:title="src/engine/ui/widgets\l/Frame.hxx">
<polygon fill="none" stroke="black" points="1342,-335.5 1342,-365.5 1458,-365.5 1458,-335.5 1342,-335.5"/>
<text text-anchor="start" x="1350" y="-353.5" font-family="Helvetica,sans-Serif" font-size="10.00">src/engine/ui/widgets</text>
<text text-anchor="middle" x="1400" y="-342.5" font-family="Helvetica,sans-Serif" font-size="10.00">/Frame.hxx</text>
</a>
</g>
</g>
<!-- Node11&#45;&gt;Node32 -->
<g id="edge50" class="edge"><title>Node11&#45;&gt;Node32</title>
<path fill="none" stroke="midnightblue" d="M1354.84,-395.311C1364.89,-385.561 1376.54,-374.259 1385.49,-365.577"/>
<polygon fill="midnightblue" stroke="midnightblue" points="1352.28,-392.921 1347.54,-402.396 1357.15,-397.945 1352.28,-392.921"/>
</g>
<!-- Node34 -->
<g id="node34" class="node"><title>Node34</title>
<g id="a_node34"><a xlink:href="Slider_8hxx.html" target="_top" xlink:title="src/engine/ui/widgets\l/Slider.hxx">
<polygon fill="none" stroke="black" points="1476,-335.5 1476,-365.5 1592,-365.5 1592,-335.5 1476,-335.5"/>
<text text-anchor="start" x="1484" y="-353.5" font-family="Helvetica,sans-Serif" font-size="10.00">src/engine/ui/widgets</text>
<text text-anchor="middle" x="1534" y="-342.5" font-family="Helvetica,sans-Serif" font-size="10.00">/Slider.hxx</text>
</a>
</g>
</g>
<!-- Node11&#45;&gt;Node34 -->
<g id="edge54" class="edge"><title>Node11&#45;&gt;Node34</title>
<path fill="none" stroke="midnightblue" d="M1386.41,-399.228C1418.93,-388.713 1459.94,-375.451 1490.47,-365.577"/>
<polygon fill="midnightblue" stroke="midnightblue" points="1385.05,-395.989 1376.61,-402.396 1387.21,-402.649 1385.05,-395.989"/>
</g>
<!-- Node36 -->
<g id="node36" class="node"><title>Node36</title>
<g id="a_node36"><a xlink:href="UIElement_8cxx.html" target="_top" xlink:title="src/engine/ui/basics\l/UIElement.cxx">
<polygon fill="none" stroke="black" points="1782,-335.5 1782,-365.5 1892,-365.5 1892,-335.5 1782,-335.5"/>
<text text-anchor="start" x="1790" y="-353.5" font-family="Helvetica,sans-Serif" font-size="10.00">src/engine/ui/basics</text>
<text text-anchor="middle" x="1837" y="-342.5" font-family="Helvetica,sans-Serif" font-size="10.00">/UIElement.cxx</text>
</a>
</g>
</g>
<!-- Node11&#45;&gt;Node36 -->
<g id="edge57" class="edge"><title>Node11&#45;&gt;Node36</title>
<path fill="none" stroke="midnightblue" d="M1398.31,-411.236C1484.5,-403.778 1640.8,-388.495 1773,-366 1775.92,-365.503 1778.91,-364.958 1781.92,-364.378"/>
<polygon fill="midnightblue" stroke="midnightblue" points="1397.81,-407.765 1388.15,-412.106 1398.41,-414.739 1397.81,-407.765"/>
</g>
<!-- Node37 -->
<g id="node37" class="node"><title>Node37</title>
<g id="a_node37"><a xlink:href="Bar_8hxx.html" target="_top" xlink:title="src/engine/ui/widgets\l/Bar.hxx">
<polygon fill="none" stroke="black" points="1948,-335.5 1948,-365.5 2064,-365.5 2064,-335.5 1948,-335.5"/>
<text text-anchor="start" x="1956" y="-353.5" font-family="Helvetica,sans-Serif" font-size="10.00">src/engine/ui/widgets</text>
<text text-anchor="middle" x="2006" y="-342.5" font-family="Helvetica,sans-Serif" font-size="10.00">/Bar.hxx</text>
</a>
</g>
</g>
<!-- Node11&#45;&gt;Node37 -->
<g id="edge59" class="edge"><title>Node11&#45;&gt;Node37</title>
<path fill="none" stroke="midnightblue" d="M1398.35,-413.473C1509.03,-407.796 1740.24,-393.559 1934,-366 1938.54,-365.354 1943.23,-364.602 1947.94,-363.788"/>
<polygon fill="midnightblue" stroke="midnightblue" points="1398.15,-409.978 1388.34,-413.98 1398.51,-416.969 1398.15,-409.978"/>
</g>
<!-- Node39 -->
<g id="node39" class="node"><title>Node39</title>
<g id="a_node39"><a xlink:href="Image_8hxx.html" target="_top" xlink:title="src/engine/ui/widgets\l/Image.hxx">
<polygon fill="none" stroke="black" points="1648,-335.5 1648,-365.5 1764,-365.5 1764,-335.5 1648,-335.5"/>
<text text-anchor="start" x="1656" y="-353.5" font-family="Helvetica,sans-Serif" font-size="10.00">src/engine/ui/widgets</text>
<text text-anchor="middle" x="1706" y="-342.5" font-family="Helvetica,sans-Serif" font-size="10.00">/Image.hxx</text>
</a>
</g>
</g>
<!-- Node11&#45;&gt;Node39 -->
<g id="edge61" class="edge"><title>Node11&#45;&gt;Node39</title>
<path fill="none" stroke="midnightblue" d="M1397.9,-406.237C1458.93,-396.437 1552.8,-380.983 1634,-366 1638.51,-365.167 1643.18,-364.282 1647.87,-363.375"/>
<polygon fill="midnightblue" stroke="midnightblue" points="1397.34,-402.781 1388.02,-407.82 1398.45,-409.693 1397.34,-402.781"/>
</g>
<!-- Node12&#45;&gt;Node5 -->
<g id="edge13" class="edge"><title>Node12&#45;&gt;Node5</title>
<path fill="none" stroke="midnightblue" d="M1046.97,-138.116C976.801,-125.341 858.999,-103.892 793.859,-92.0317"/>
<polygon fill="midnightblue" stroke="midnightblue" points="1046.5,-141.588 1056.96,-139.936 1047.75,-134.701 1046.5,-141.588"/>
</g>
<!-- Node12&#45;&gt;Node8 -->
<g id="edge17" class="edge"><title>Node12&#45;&gt;Node8</title>
<path fill="none" stroke="midnightblue" d="M1125.8,-133.55C1137.33,-124.54 1150.77,-112.094 1159,-98 1172.92,-74.1621 1176.64,-40.815 1177.64,-25.2048"/>
<polygon fill="midnightblue" stroke="midnightblue" points="1123.41,-130.966 1117.47,-139.74 1127.58,-136.585 1123.41,-130.966"/>
</g>
<!-- Node12&#45;&gt;Node10 -->
<g id="edge16" class="edge"><title>Node12&#45;&gt;Node10</title>
<path fill="none" stroke="midnightblue" d="M1074.26,-135.781C1044.16,-122.909 998.429,-103.355 972.268,-92.1672"/>
<polygon fill="midnightblue" stroke="midnightblue" points="1073.24,-139.155 1083.82,-139.869 1076,-132.718 1073.24,-139.155"/>
</g>
<!-- Node13 -->
<g id="node13" class="node"><title>Node13</title>
<g id="a_node13"><a xlink:href="ButtonGroup_8cxx.html" target="_top" xlink:title="src/engine/ui/basics\l/ButtonGroup.cxx">
<polygon fill="none" stroke="black" points="1040,-67.5 1040,-97.5 1150,-97.5 1150,-67.5 1040,-67.5"/>
<text text-anchor="start" x="1048" y="-85.5" font-family="Helvetica,sans-Serif" font-size="10.00">src/engine/ui/basics</text>
<text text-anchor="middle" x="1095" y="-74.5" font-family="Helvetica,sans-Serif" font-size="10.00">/ButtonGroup.cxx</text>
</a>
</g>
</g>
<!-- Node12&#45;&gt;Node13 -->
<g id="edge14" class="edge"><title>Node12&#45;&gt;Node13</title>
<path fill="none" stroke="midnightblue" d="M1101.4,-129.739C1099.98,-119.487 1098.25,-107.001 1096.95,-97.589"/>
<polygon fill="midnightblue" stroke="midnightblue" points="1097.95,-130.308 1102.79,-139.734 1104.88,-129.348 1097.95,-130.308"/>
</g>
<!-- Node14 -->
<g id="node14" class="node"><title>Node14</title>
<g id="a_node14"><a xlink:href="Layout_8cxx.html" target="_top" xlink:title="src/engine/ui/basics\l/Layout.cxx">
<polygon fill="none" stroke="black" points="1343,-67.5 1343,-97.5 1453,-97.5 1453,-67.5 1343,-67.5"/>
<text text-anchor="start" x="1351" y="-85.5" font-family="Helvetica,sans-Serif" font-size="10.00">src/engine/ui/basics</text>
<text text-anchor="middle" x="1398" y="-74.5" font-family="Helvetica,sans-Serif" font-size="10.00">/Layout.cxx</text>
</a>
</g>
</g>
<!-- Node12&#45;&gt;Node14 -->
<g id="edge15" class="edge"><title>Node12&#45;&gt;Node14</title>
<path fill="none" stroke="midnightblue" d="M1152.79,-137.714C1205.15,-126.136 1288.18,-107.78 1342.88,-95.6873"/>
<polygon fill="midnightblue" stroke="midnightblue" points="1151.75,-134.359 1142.74,-139.936 1153.26,-141.194 1151.75,-134.359"/>
</g>
<!-- Node15&#45;&gt;Node12 -->
<g id="edge19" class="edge"><title>Node15&#45;&gt;Node12</title>
<path fill="none" stroke="midnightblue" d="M1727.81,-201.575C1726.53,-201.375 1725.26,-201.183 1724,-201 1525.75,-172.212 1289.27,-158.629 1174.06,-153.33"/>
<polygon fill="midnightblue" stroke="midnightblue" points="1727.31,-205.039 1737.75,-203.25 1728.47,-198.136 1727.31,-205.039"/>
</g>
<!-- Node15&#45;&gt;Node14 -->
<g id="edge20" class="edge"><title>Node15&#45;&gt;Node14</title>
<path fill="none" stroke="midnightblue" d="M1741.36,-198.243C1662.33,-171.834 1512.91,-121.902 1440.06,-97.5565"/>
<polygon fill="midnightblue" stroke="midnightblue" points="1740.51,-201.649 1751.1,-201.499 1742.73,-195.01 1740.51,-201.649"/>
</g>
<!-- Node16&#45;&gt;Node12 -->
<g id="edge22" class="edge"><title>Node16&#45;&gt;Node12</title>
<path fill="none" stroke="midnightblue" d="M573.968,-200.979C744.285,-174.21 933.556,-160.383 1033.63,-154.317"/>
<polygon fill="midnightblue" stroke="midnightblue" points="573.397,-197.526 564.071,-202.553 574.497,-204.439 573.397,-197.526"/>
</g>
<!-- Node16&#45;&gt;Node13 -->
<g id="edge23" class="edge"><title>Node16&#45;&gt;Node13</title>
<path fill="none" stroke="midnightblue" d="M552.239,-197.53C598.972,-178.832 676.031,-150.082 745,-134 869.338,-105.007 904.223,-119.923 1030,-98 1033.19,-97.4441 1036.46,-96.8363 1039.75,-96.1947"/>
<polygon fill="midnightblue" stroke="midnightblue" points="550.707,-194.374 542.741,-201.359 553.325,-200.866 550.707,-194.374"/>
</g>
<!-- Node16&#45;&gt;Node17 -->
<g id="edge24" class="edge"><title>Node16&#45;&gt;Node17</title>
<path fill="none" stroke="midnightblue" d="M520.072,-192.283C524.489,-183.022 529.43,-172.663 533.287,-164.577"/>
<polygon fill="midnightblue" stroke="midnightblue" points="516.872,-190.863 515.727,-201.396 523.19,-193.877 516.872,-190.863"/>
</g>
<!-- Node18 -->
<g id="node18" class="node"><title>Node18</title>
<g id="a_node18"><a xlink:href="MenuGroupBuild_8hxx.html" target="_top" xlink:title="src/engine/ui/menuGroups\l/MenuGroupBuild.hxx">
<polygon fill="none" stroke="black" points="490.5,-67.5 490.5,-97.5 633.5,-97.5 633.5,-67.5 490.5,-67.5"/>
<text text-anchor="start" x="498.5" y="-85.5" font-family="Helvetica,sans-Serif" font-size="10.00">src/engine/ui/menuGroups</text>
<text text-anchor="middle" x="562" y="-74.5" font-family="Helvetica,sans-Serif" font-size="10.00">/MenuGroupBuild.hxx</text>
</a>
</g>
</g>
<!-- Node17&#45;&gt;Node18 -->
<g id="edge25" class="edge"><title>Node17&#45;&gt;Node18</title>
<path fill="none" stroke="midnightblue" d="M548.056,-124.697C551.14,-115.587 554.556,-105.493 557.236,-97.5765"/>
<polygon fill="midnightblue" stroke="midnightblue" points="544.664,-123.802 544.774,-134.396 551.295,-126.046 544.664,-123.802"/>
</g>
<!-- Node19 -->
<g id="node19" class="node"><title>Node19</title>
<g id="a_node19"><a xlink:href="MenuGroupBuild_8cxx.html" target="_top" xlink:title="src/engine/ui/menuGroups\l/MenuGroupBuild.cxx">
<polygon fill="none" stroke="black" points="490.5,-0.5 490.5,-30.5 633.5,-30.5 633.5,-0.5 490.5,-0.5"/>
<text text-anchor="start" x="498.5" y="-18.5" font-family="Helvetica,sans-Serif" font-size="10.00">src/engine/ui/menuGroups</text>
<text text-anchor="middle" x="562" y="-7.5" font-family="Helvetica,sans-Serif" font-size="10.00">/MenuGroupBuild.cxx</text>
</a>
</g>
</g>
<!-- Node18&#45;&gt;Node19 -->
<g id="edge26" class="edge"><title>Node18&#45;&gt;Node19</title>
<path fill="none" stroke="midnightblue" d="M562,-57.1081C562,-48.1539 562,-38.3227 562,-30.5765"/>
<polygon fill="midnightblue" stroke="midnightblue" points="558.5,-57.3959 562,-67.396 565.5,-57.396 558.5,-57.3959"/>
</g>
<!-- Node20&#45;&gt;Node12 -->
<g id="edge29" class="edge"><title>Node20&#45;&gt;Node12</title>
<path fill="none" stroke="midnightblue" d="M640.28,-264.708C661.419,-256.065 686.111,-244.779 707,-232 725.593,-220.625 725.028,-209.728 745,-201 795.392,-178.977 944.269,-163.489 1033.69,-155.877"/>
<polygon fill="midnightblue" stroke="midnightblue" points="638.825,-261.52 630.844,-268.489 641.429,-268.018 638.825,-261.52"/>
</g>
<!-- Node20&#45;&gt;Node16 -->
<g id="edge28" class="edge"><title>Node20&#45;&gt;Node16</title>
<path fill="none" stroke="midnightblue" d="M566.037,-262.168C553.345,-252.228 538.388,-240.514 526.975,-231.577"/>
<polygon fill="midnightblue" stroke="midnightblue" points="563.959,-264.986 573.99,-268.396 568.275,-259.475 563.959,-264.986"/>
</g>
<!-- Node21 -->
<g id="node21" class="node"><title>Node21</title>
<g id="a_node21"><a xlink:href="Button_8cxx.html" target="_top" xlink:title="src/engine/ui/widgets\l/Button.cxx">
<polygon fill="none" stroke="black" points="582,-201.5 582,-231.5 698,-231.5 698,-201.5 582,-201.5"/>
<text text-anchor="start" x="590" y="-219.5" font-family="Helvetica,sans-Serif" font-size="10.00">src/engine/ui/widgets</text>
<text text-anchor="middle" x="640" y="-208.5" font-family="Helvetica,sans-Serif" font-size="10.00">/Button.cxx</text>
</a>
</g>
</g>
<!-- Node20&#45;&gt;Node21 -->
<g id="edge30" class="edge"><title>Node20&#45;&gt;Node21</title>
<path fill="none" stroke="midnightblue" d="M608.499,-260.157C615.499,-250.679 623.445,-239.919 629.605,-231.577"/>
<polygon fill="midnightblue" stroke="midnightblue" points="605.54,-258.272 602.415,-268.396 611.171,-262.431 605.54,-258.272"/>
</g>
<!-- Node22&#45;&gt;Node12 -->
<g id="edge39" class="edge"><title>Node22&#45;&gt;Node12</title>
<path fill="none" stroke="midnightblue" d="M820.087,-338.212C767.016,-326.378 706.623,-304.345 735,-268 775.599,-216.002 820.024,-261.561 879,-232 898.485,-222.233 897.607,-210.949 917,-201 958.739,-179.586 1010.52,-166.515 1049,-159.052"/>
<polygon fill="midnightblue" stroke="midnightblue" points="819.378,-341.64 829.889,-340.304 820.84,-334.794 819.378,-341.64"/>
</g>
<!-- Node22&#45;&gt;Node20 -->
<g id="edge32" class="edge"><title>Node22&#45;&gt;Node20</title>
<path fill="none" stroke="midnightblue" d="M819.867,-334.538C768.561,-323.272 698.975,-307.991 650.246,-297.291"/>
<polygon fill="midnightblue" stroke="midnightblue" points="819.355,-338.009 829.873,-336.736 820.857,-331.172 819.355,-338.009"/>
</g>
<!-- Node22&#45;&gt;Node23 -->
<g id="edge33" class="edge"><title>Node22&#45;&gt;Node23</title>
<path fill="none" stroke="midnightblue" d="M914.901,-329.168C928.052,-319.228 943.55,-307.514 955.376,-298.577"/>
<polygon fill="midnightblue" stroke="midnightblue" points="912.528,-326.574 906.661,-335.396 916.749,-332.158 912.528,-326.574"/>
</g>
<!-- Node26 -->
<g id="node26" class="node"><title>Node26</title>
<g id="a_node26"><a xlink:href="TextField_8cxx.html" target="_top" xlink:title="src/engine/ui/widgets\l/TextField.cxx">
<polygon fill="none" stroke="black" points="926,-201.5 926,-231.5 1042,-231.5 1042,-201.5 926,-201.5"/>
<text text-anchor="start" x="934" y="-219.5" font-family="Helvetica,sans-Serif" font-size="10.00">src/engine/ui/widgets</text>
<text text-anchor="middle" x="984" y="-208.5" font-family="Helvetica,sans-Serif" font-size="10.00">/TextField.cxx</text>
</a>
</g>
</g>
<!-- Node22&#45;&gt;Node26 -->
<g id="edge44" class="edge"><title>Node22&#45;&gt;Node26</title>
<path fill="none" stroke="midnightblue" d="M888.984,-324.836C890.745,-307.576 895.33,-284.708 907,-268 918.076,-252.141 935.884,-239.992 951.586,-231.589"/>
<polygon fill="midnightblue" stroke="midnightblue" points="885.46,-325.01 888.188,-335.248 892.44,-325.544 885.46,-325.01"/>
</g>
<!-- Node22&#45;&gt;Node27 -->
<g id="edge40" class="edge"><title>Node22&#45;&gt;Node27</title>
<path fill="none" stroke="midnightblue" d="M945.269,-332.58C981.001,-322.022 1026.46,-308.592 1060.24,-298.611"/>
<polygon fill="midnightblue" stroke="midnightblue" points="944.064,-329.286 935.466,-335.476 946.048,-335.999 944.064,-329.286"/>
</g>
<!-- Node29 -->
<g id="node29" class="node"><title>Node29</title>
<g id="a_node29"><a xlink:href="Text_8cxx.html" target="_top" xlink:title="src/engine/ui/widgets\l/Text.cxx">
<polygon fill="none" stroke="black" points="744,-268.5 744,-298.5 860,-298.5 860,-268.5 744,-268.5"/>
<text text-anchor="start" x="752" y="-286.5" font-family="Helvetica,sans-Serif" font-size="10.00">src/engine/ui/widgets</text>
<text text-anchor="middle" x="802" y="-275.5" font-family="Helvetica,sans-Serif" font-size="10.00">/Text.cxx</text>
</a>
</g>
</g>
<!-- Node22&#45;&gt;Node29 -->
<g id="edge43" class="edge"><title>Node22&#45;&gt;Node29</title>
<path fill="none" stroke="midnightblue" d="M861.099,-329.168C847.948,-319.228 832.45,-307.514 820.624,-298.577"/>
<polygon fill="midnightblue" stroke="midnightblue" points="859.251,-332.158 869.339,-335.396 863.472,-326.574 859.251,-332.158"/>
</g>
<!-- Node23&#45;&gt;Node12 -->
<g id="edge37" class="edge"><title>Node23&#45;&gt;Node12</title>
<path fill="none" stroke="midnightblue" d="M1010.08,-263.127C1023.84,-254.691 1039.06,-243.985 1051,-232 1073.75,-209.161 1092.06,-175.034 1099.88,-159.177"/>
<polygon fill="midnightblue" stroke="midnightblue" points="1008.12,-260.221 1001.3,-268.333 1011.69,-266.242 1008.12,-260.221"/>
</g>
<!-- Node23&#45;&gt;Node24 -->
<g id="edge34" class="edge"><title>Node23&#45;&gt;Node24</title>
<path fill="none" stroke="midnightblue" d="M929.249,-264.544C903.326,-254.143 871.162,-241.238 847.083,-231.577"/>
<polygon fill="midnightblue" stroke="midnightblue" points="928.264,-267.92 938.848,-268.396 930.871,-261.424 928.264,-267.92"/>
</g>
<!-- Node23&#45;&gt;Node26 -->
<g id="edge38" class="edge"><title>Node23&#45;&gt;Node26</title>
<path fill="none" stroke="midnightblue" d="M977.707,-258.403C979.097,-249.37 980.63,-239.408 981.834,-231.577"/>
<polygon fill="midnightblue" stroke="midnightblue" points="974.231,-257.98 976.17,-268.396 981.15,-259.044 974.231,-257.98"/>
</g>
<!-- Node24&#45;&gt;Node12 -->
<g id="edge35" class="edge"><title>Node24&#45;&gt;Node12</title>
<path fill="none" stroke="midnightblue" d="M879.816,-200.404C937.555,-187.551 1018.43,-169.547 1065.61,-159.046"/>
<polygon fill="midnightblue" stroke="midnightblue" points="879.039,-196.991 870.039,-202.58 880.561,-203.824 879.039,-196.991"/>
</g>
<!-- Node25 -->
<g id="node25" class="node"><title>Node25</title>
<g id="a_node25"><a xlink:href="Combobox_8cxx.html" target="_top" xlink:title="src/engine/ui/widgets\l/Combobox.cxx">
<polygon fill="none" stroke="black" points="754,-134.5 754,-164.5 870,-164.5 870,-134.5 754,-134.5"/>
<text text-anchor="start" x="762" y="-152.5" font-family="Helvetica,sans-Serif" font-size="10.00">src/engine/ui/widgets</text>
<text text-anchor="middle" x="812" y="-141.5" font-family="Helvetica,sans-Serif" font-size="10.00">/Combobox.cxx</text>
</a>
</g>
</g>
<!-- Node24&#45;&gt;Node25 -->
<g id="edge36" class="edge"><title>Node24&#45;&gt;Node25</title>
<path fill="none" stroke="midnightblue" d="M812,-191.108C812,-182.154 812,-172.323 812,-164.577"/>
<polygon fill="midnightblue" stroke="midnightblue" points="808.5,-191.396 812,-201.396 815.5,-191.396 808.5,-191.396"/>
</g>
<!-- Node27&#45;&gt;Node12 -->
<g id="edge41" class="edge"><title>Node27&#45;&gt;Node12</title>
<path fill="none" stroke="midnightblue" d="M1107.27,-258.317C1106.36,-228.376 1104.86,-178.911 1104.26,-159.097"/>
<polygon fill="midnightblue" stroke="midnightblue" points="1103.77,-258.484 1107.57,-268.374 1110.77,-258.272 1103.77,-258.484"/>
</g>
<!-- Node28 -->
<g id="node28" class="node"><title>Node28</title>
<g id="a_node28"><a xlink:href="Tooltip_8cxx.html" target="_top" xlink:title="src/engine/ui/widgets\l/Tooltip.cxx">
<polygon fill="none" stroke="black" points="1136,-201.5 1136,-231.5 1252,-231.5 1252,-201.5 1136,-201.5"/>
<text text-anchor="start" x="1144" y="-219.5" font-family="Helvetica,sans-Serif" font-size="10.00">src/engine/ui/widgets</text>
<text text-anchor="middle" x="1194" y="-208.5" font-family="Helvetica,sans-Serif" font-size="10.00">/Tooltip.cxx</text>
</a>
</g>
</g>
<!-- Node27&#45;&gt;Node28 -->
<g id="edge42" class="edge"><title>Node27&#45;&gt;Node28</title>
<path fill="none" stroke="midnightblue" d="M1134.9,-262.168C1148.05,-252.228 1163.55,-240.514 1175.38,-231.577"/>
<polygon fill="midnightblue" stroke="midnightblue" points="1132.53,-259.574 1126.66,-268.396 1136.75,-265.158 1132.53,-259.574"/>
</g>
<!-- Node30&#45;&gt;Node12 -->
<g id="edge46" class="edge"><title>Node30&#45;&gt;Node12</title>
<path fill="none" stroke="midnightblue" d="M1290,-328.143C1297.59,-319.882 1305.02,-309.81 1309,-299 1325.75,-253.486 1300.18,-229.58 1261,-201 1230.7,-178.897 1190.29,-166.191 1158.07,-159.053"/>
<polygon fill="midnightblue" stroke="midnightblue" points="1287.31,-325.889 1282.8,-335.473 1292.3,-330.796 1287.31,-325.889"/>
</g>
<!-- Node31 -->
<g id="node31" class="node"><title>Node31</title>
<g id="a_node31"><a xlink:href="Checkbox_8cxx.html" target="_top" xlink:title="src/engine/ui/widgets\l/Checkbox.cxx">
<polygon fill="none" stroke="black" points="1184,-268.5 1184,-298.5 1300,-298.5 1300,-268.5 1184,-268.5"/>
<text text-anchor="start" x="1192" y="-286.5" font-family="Helvetica,sans-Serif" font-size="10.00">src/engine/ui/widgets</text>
<text text-anchor="middle" x="1242" y="-275.5" font-family="Helvetica,sans-Serif" font-size="10.00">/Checkbox.cxx</text>
</a>
</g>
</g>
<!-- Node30&#45;&gt;Node31 -->
<g id="edge47" class="edge"><title>Node30&#45;&gt;Node31</title>
<path fill="none" stroke="midnightblue" d="M1257.32,-325.991C1253.93,-316.804 1250.15,-306.578 1247.2,-298.577"/>
<polygon fill="midnightblue" stroke="midnightblue" points="1254.05,-327.227 1260.79,-335.396 1260.61,-324.803 1254.05,-327.227"/>
</g>
<!-- Node32&#45;&gt;Node12 -->
<g id="edge51" class="edge"><title>Node32&#45;&gt;Node12</title>
<path fill="none" stroke="midnightblue" d="M1447.76,-330.448C1460.89,-322.741 1473.55,-312.421 1481,-299 1487.69,-286.953 1488.94,-279.259 1481,-268 1443.27,-214.495 1251.98,-175.423 1157.27,-159.03"/>
<polygon fill="midnightblue" stroke="midnightblue" points="1445.79,-327.536 1438.66,-335.371 1449.12,-333.693 1445.79,-327.536"/>
</g>
<!-- Node33 -->
<g id="node33" class="node"><title>Node33</title>
<g id="a_node33"><a xlink:href="Frame_8cxx.html" target="_top" xlink:title="src/engine/ui/widgets\l/Frame.cxx">
<polygon fill="none" stroke="black" points="1356,-268.5 1356,-298.5 1472,-298.5 1472,-268.5 1356,-268.5"/>
<text text-anchor="start" x="1364" y="-286.5" font-family="Helvetica,sans-Serif" font-size="10.00">src/engine/ui/widgets</text>
<text text-anchor="middle" x="1414" y="-275.5" font-family="Helvetica,sans-Serif" font-size="10.00">/Frame.cxx</text>
</a>
</g>
</g>
<!-- Node32&#45;&gt;Node33 -->
<g id="edge52" class="edge"><title>Node32&#45;&gt;Node33</title>
<path fill="none" stroke="midnightblue" d="M1405.19,-325.403C1407.14,-316.37 1409.28,-306.408 1410.97,-298.577"/>
<polygon fill="midnightblue" stroke="midnightblue" points="1401.72,-324.883 1403.04,-335.396 1408.56,-326.357 1401.72,-324.883"/>
</g>
<!-- Node34&#45;&gt;Node12 -->
<g id="edge55" class="edge"><title>Node34&#45;&gt;Node12</title>
<path fill="none" stroke="midnightblue" d="M1597.06,-332.046C1635.93,-318.048 1674.57,-296.112 1653,-268 1595.33,-192.845 1308.74,-164.078 1174.1,-154.583"/>
<polygon fill="midnightblue" stroke="midnightblue" points="1595.53,-328.871 1587.21,-335.432 1597.8,-335.491 1595.53,-328.871"/>
</g>
<!-- Node35 -->
<g id="node35" class="node"><title>Node35</title>
<g id="a_node35"><a xlink:href="Slider_8cxx.html" target="_top" xlink:title="src/engine/ui/widgets\l/Slider.cxx">
<polygon fill="none" stroke="black" points="1528,-268.5 1528,-298.5 1644,-298.5 1644,-268.5 1528,-268.5"/>
<text text-anchor="start" x="1536" y="-286.5" font-family="Helvetica,sans-Serif" font-size="10.00">src/engine/ui/widgets</text>
<text text-anchor="middle" x="1586" y="-275.5" font-family="Helvetica,sans-Serif" font-size="10.00">/Slider.cxx</text>
</a>
</g>
</g>
<!-- Node34&#45;&gt;Node35 -->
<g id="edge56" class="edge"><title>Node34&#45;&gt;Node35</title>
<path fill="none" stroke="midnightblue" d="M1551.64,-327.447C1559.28,-317.899 1568,-307.004 1574.74,-298.577"/>
<polygon fill="midnightblue" stroke="midnightblue" points="1548.8,-325.401 1545.28,-335.396 1554.26,-329.774 1548.8,-325.401"/>
</g>
<!-- Node38 -->
<g id="node38" class="node"><title>Node38</title>
<g id="a_node38"><a xlink:href="Bar_8cxx.html" target="_top" xlink:title="src/engine/ui/widgets\l/Bar.cxx">
<polygon fill="none" stroke="black" points="1948,-268.5 1948,-298.5 2064,-298.5 2064,-268.5 1948,-268.5"/>
<text text-anchor="start" x="1956" y="-286.5" font-family="Helvetica,sans-Serif" font-size="10.00">src/engine/ui/widgets</text>
<text text-anchor="middle" x="2006" y="-275.5" font-family="Helvetica,sans-Serif" font-size="10.00">/Bar.cxx</text>
</a>
</g>
</g>
<!-- Node37&#45;&gt;Node38 -->
<g id="edge60" class="edge"><title>Node37&#45;&gt;Node38</title>
<path fill="none" stroke="midnightblue" d="M2006,-325.108C2006,-316.154 2006,-306.323 2006,-298.577"/>
<polygon fill="midnightblue" stroke="midnightblue" points="2002.5,-325.396 2006,-335.396 2009.5,-325.396 2002.5,-325.396"/>
</g>
<!-- Node39&#45;&gt;Node8 -->
<g id="edge63" class="edge"><title>Node39&#45;&gt;Node8</title>
<path fill="none" stroke="midnightblue" d="M1772.33,-332.722C1808.18,-322.772 1848.1,-309.996 1863,-299 1898.56,-272.75 1920,-261.702 1920,-217.5 1920,-217.5 1920,-217.5 1920,-148.5 1920,-76.7414 1375.12,-31.0353 1219.22,-19.426"/>
<polygon fill="midnightblue" stroke="midnightblue" points="1771.07,-329.437 1762.35,-335.449 1772.91,-336.189 1771.07,-329.437"/>
</g>
<!-- Node40 -->
<g id="node40" class="node"><title>Node40</title>
<g id="a_node40"><a xlink:href="Image_8cxx.html" target="_top" xlink:title="src/engine/ui/widgets\l/Image.cxx">
<polygon fill="none" stroke="black" points="1738,-268.5 1738,-298.5 1854,-298.5 1854,-268.5 1738,-268.5"/>
<text text-anchor="start" x="1746" y="-286.5" font-family="Helvetica,sans-Serif" font-size="10.00">src/engine/ui/widgets</text>
<text text-anchor="middle" x="1796" y="-275.5" font-family="Helvetica,sans-Serif" font-size="10.00">/Image.cxx</text>
</a>
</g>
</g>
<!-- Node39&#45;&gt;Node40 -->
<g id="edge62" class="edge"><title>Node39&#45;&gt;Node40</title>
<path fill="none" stroke="midnightblue" d="M1733.76,-329.451C1747.61,-319.452 1764.02,-307.6 1776.51,-298.577"/>
<polygon fill="midnightblue" stroke="midnightblue" points="1731.59,-326.704 1725.53,-335.396 1735.68,-332.378 1731.59,-326.704"/>
</g>
</g>
</svg>
